<svg id="Layer_1" data-name="Layer 1" xmlns="http://www.w3.org/2000/svg" xmlns:xlink="http://www.w3.org/1999/xlink" viewBox="0 0 128 128"><defs><style>.cls-1,.cls-10,.cls-11,.cls-12,.cls-13,.cls-14,.cls-15,.cls-16,.cls-17,.cls-18,.cls-19,.cls-20,.cls-21,.cls-22,.cls-24,.cls-25,.cls-31,.cls-33,.cls-35,.cls-7,.cls-8,.cls-9{fill:none;}.cls-2{clip-path:url(#clip-path);}.cls-3{fill:#d0103a;}.cls-4{fill:#fedf00;}.cls-5{fill:#0018a8;}.cls-23,.cls-6{fill:#c7b37f;}.cls-10,.cls-11,.cls-12,.cls-13,.cls-14,.cls-15,.cls-16,.cls-17,.cls-18,.cls-19,.cls-20,.cls-21,.cls-22,.cls-26,.cls-35,.cls-7,.cls-8,.cls-9{stroke:#703d29;}.cls-7{stroke-linejoin:round;}.cls-12,.cls-7{stroke-width:0.23px;}.cls-11,.cls-12,.cls-20,.cls-24,.cls-31,.cls-8{stroke-linecap:round;}.cls-18,.cls-8{stroke-width:0.23px;}.cls-9{stroke-width:0.28px;}.cls-10,.cls-11{stroke-width:0.25px;}.cls-13{stroke-width:0.23px;}.cls-14{stroke-width:0.26px;}.cls-15{stroke-width:0.3px;}.cls-16{stroke-width:0.2px;}.cls-17{stroke-width:0.22px;}.cls-19{stroke-width:0.19px;}.cls-20,.cls-21,.cls-22,.cls-24,.cls-25,.cls-31,.cls-33{stroke-width:0.22px;}.cls-22{stroke-linecap:square;}.cls-23,.cls-24,.cls-25{stroke:#c7b37f;}.cls-23,.cls-30,.cls-32{stroke-width:0.11px;}.cls-26,.cls-27{fill:#703d29;}.cls-26{stroke-width:0.06px;}.cls-28,.cls-30{fill:#d52b1e;}.cls-29{fill:#fff;}.cls-30{stroke:#d52b1e;}.cls-31,.cls-32,.cls-33{stroke:#fedf00;}.cls-32{fill:#fcd900;}.cls-34{fill:#0065bd;}.cls-35{stroke-width:0.18px;}</style><clipPath id="clip-path"><circle class="cls-1" cx="64" cy="64" r="64"/></clipPath></defs><title>Flag_circle_Andorra</title><g class="cls-2"><path class="cls-3" d="M-46,0H174V128H-46Z"/><path class="cls-4" d="M-46,0H103.6V128H-46Z"/><path class="cls-5" d="M-46,0H24.4V128H-46Z"/><path class="cls-6" d="M57.26,28.28c2.65,0,3.74,2.28,6.39,2.28a7.43,7.43,0,0,0,4-1.34,5,5,0,0,1,2.77-.86,2.52,2.52,0,0,1,2.48,1.35A3.87,3.87,0,0,1,73.39,32a13.78,13.78,0,0,1-.93,2.85A3.28,3.28,0,0,0,72,36.32c0,1.41,1.92,1.89,3.22,1.91a6,6,0,0,0,4.14-1.44c-.8,0-1.69-.65-1.69-1.45a1.87,1.87,0,0,1,1.49-1.77c.16,0,.44.1.59,0s.11-.35.3-.5a1.8,1.8,0,0,1,1.25-.55,1.26,1.26,0,0,1,.86.26c.15.1.2.24.39.24.39,0,.59-.25,1-.25a1.45,1.45,0,0,1,.79.19c.24.12.23.51.5.51A9.29,9.29,0,0,1,86,33.21a1.93,1.93,0,0,1,1.66.85c.13.15.21.47.35.47a2.12,2.12,0,0,1,1.28.56,2.27,2.27,0,0,1,.37.45c.09.14.23.5.38.56a2,2,0,0,1,.59.21,2.07,2.07,0,0,1,1,1.67,4.52,4.52,0,0,1-.16.73c-.65,2.26-2.19,3-3.75,4.93a3.87,3.87,0,0,0-1.18,2.55,2.65,2.65,0,0,0,.46.94c-.09-.5.14-1.11.67-1.14A1.33,1.33,0,0,1,89,47.21a1.55,1.55,0,0,1-.11.63,3.32,3.32,0,0,1,1.37-.49,4.66,4.66,0,0,1,.65,0,5.54,5.54,0,0,1,3.2,1.33,7.21,7.21,0,0,1,2.52,5.76c-.28,1.82-.1,5.1-4.74,6.41a2.05,2.05,0,0,1,1.44,1.8,1.56,1.56,0,0,1-1.52,1.6,1.47,1.47,0,0,1-1.18-.47,4.12,4.12,0,0,0-1.15,3.32,4.26,4.26,0,0,0,.49,2,4.75,4.75,0,0,0,1.28,1.81,1.57,1.57,0,0,1,1.34-.9,1.34,1.34,0,0,1,1.36.74c.08.17,0,.3.1.47s.29.25.4.46,0,.6.16.94.31.25.4.46a2,2,0,0,1,.19.94,1.88,1.88,0,0,1-2,1.77,7.08,7.08,0,0,0-.79-.09,8.4,8.4,0,0,1,1.49,1.55,6,6,0,0,1,1,3,5.68,5.68,0,0,1,0,.59A7.52,7.52,0,0,1,94,84.66a7,7,0,0,1-2.43,2.93,12.07,12.07,0,0,1-5.5,2.17,25.28,25.28,0,0,1-3.77.5c-1.89.12-3,.12-4.85.25-2.47.17-4.19.52-5.94,2.27A2.66,2.66,0,0,1,72.92,95a2.2,2.2,0,0,1-1.65,2.13c-.23.08-.4,0-.62.13s-.25.43-.5.59a2.12,2.12,0,0,1-1.3.34,2.79,2.79,0,0,1-2.21-.87c-.76.63-1,1.2-1.87,1.68-.28.15-.42.37-.74.37-.51,0-.75-.32-1.15-.62a7.81,7.81,0,0,1-1.53-1.4,3.82,3.82,0,0,1-2.14.84,2.25,2.25,0,0,1-1.37-.37c-.25-.15-.29-.38-.53-.53s-.47-.1-.75-.22a2.5,2.5,0,0,1-1.71-2.35,2.22,2.22,0,0,1,1.53-2c-1.73-1.73-3.42-2-5.85-2.18-1.88-.12-3-.13-4.82-.25a32.67,32.67,0,0,1-3.8-.5,9.17,9.17,0,0,1-2.79-.71c-3.52-1.64-5.77-3.89-6.22-7.75a6.27,6.27,0,0,1,2.17-5.5c-.36-.09-.61,0-1-.09a2,2,0,0,1-1.53-1.89,1.56,1.56,0,0,1,.19-.88c.12-.22.35-.26.41-.5s0-.54.12-.84.28-.24.37-.43c.31-.64.7-1.15,1.4-1.15a1.45,1.45,0,0,1,1.31.83c.59-.27.75-.71,1.09-1.27a4.63,4.63,0,0,0,.81-2.66A5.18,5.18,0,0,0,38,65a2.73,2.73,0,0,0-.62-1.25,1.48,1.48,0,0,1-1.18.47,1.79,1.79,0,0,1-1.74-1.83,1.65,1.65,0,0,1,1-1.59,10.66,10.66,0,0,0-1.59-.87,5.75,5.75,0,0,1-1.8-2,5.21,5.21,0,0,1-.69-1.65A6.39,6.39,0,0,1,31,54.12a3.57,3.57,0,0,1,0-.56,7.1,7.1,0,0,1,1.59-4.07,4.7,4.7,0,0,1,2-1.68,4.73,4.73,0,0,1,2.13-.59,5,5,0,0,1,.67,0,2.45,2.45,0,0,1,1,.28c.13.07.37.3.37.14s-.09-.27-.09-.45a1.3,1.3,0,0,1,1.23-1.37c.52,0,.73.46,1,.9a1.36,1.36,0,0,0,.25-.77c0-1.19-.64-1.79-1.37-2.71-1.6-2-3.61-2.94-3.61-5.5a1.84,1.84,0,0,1,1-1.68c.19-.12.44,0,.63-.12s.14-.31.24-.47a2.31,2.31,0,0,1,.52-.56c.37-.32.69-.22,1.1-.5.2-.14.25-.32.4-.51a1.85,1.85,0,0,1,1.57-.81,2.06,2.06,0,0,1,.89.14c.11,0,.32.21.35.18a1.53,1.53,0,0,1,.49-.4,1.36,1.36,0,0,1,.76-.2c.38,0,.63.21,1,.21.14,0,.17-.14.28-.21a1.48,1.48,0,0,1,1-.36,1.62,1.62,0,0,1,.95.34c.31.2.36.47.68.65s.33.06.53.13a2,2,0,0,1,1.55,1.82,1.47,1.47,0,0,1-.49,1.2c-.3.26-.59.21-1,.34a5.55,5.55,0,0,0,3.89,1.23c1.45,0,3.22-.59,3.22-2,0-.67-.38-1-.64-1.65a6.49,6.49,0,0,1-.73-2.94,3.4,3.4,0,0,1,.65-2.3,2.42,2.42,0,0,1,2.24-1Z"/><path class="cls-7" d="M47.63,36a1.22,1.22,0,0,0,.84.84,1.32,1.32,0,0,0,1.32-.48A1.55,1.55,0,0,0,50,35a1.65,1.65,0,0,0-.59-.76L47.63,36v0Z"/><path class="cls-8" d="M91.85,62.49a.79.79,0,0,0-1.53,0,1.3,1.3,0,0,0,1.74,1.43,1.38,1.38,0,0,0,.86-.66A1.72,1.72,0,0,0,93.05,62a1.76,1.76,0,0,0-.29-.56,1.69,1.69,0,0,0-.44-.42,2,2,0,0,0-1.15-.21c-1.92,0-3.59,2.26-4.15,4.61a9.94,9.94,0,0,0-.09,4.14,7.65,7.65,0,0,0,2,3.87,8.73,8.73,0,0,0,2,1.42,9.43,9.43,0,0,0,1.43.59,2.74,2.74,0,0,0,1.36,0,1.56,1.56,0,0,0,1.09-2.38,1.42,1.42,0,0,0-2.5-.24,1.06,1.06,0,0,0-.14.53,1,1,0,0,0,.34.8c.5.31,1.29.22,1.25-.65"/><path class="cls-9" d="M85.93,75.49a3.9,3.9,0,0,1,2.28-1.25A4.56,4.56,0,0,1,91,74.9a6.38,6.38,0,0,1,3.42,3.88,5.81,5.81,0,0,1,.29,2A8.76,8.76,0,0,1,94.06,84c-.3.57-1.06,3.08-5.27,4.81-2.46,1-6.23,1.24-8.83,1.35-3.57.14-6.87.27-8.79,2.63"/><path class="cls-10" d="M86.82,79.54a1.3,1.3,0,0,1,.3-1.15,1.55,1.55,0,0,1,2-.31,2.81,2.81,0,0,1,.88.72c.11.15.29.39.39.55a3.83,3.83,0,0,1,.37.86,5.3,5.3,0,0,1-2.25,6.05,12.41,12.41,0,0,1-4.94,1.4c-.88.11-1.38.1-2.26.14-.71,0-1.32,0-1.9,0H78a23.34,23.34,0,0,0-2.48,0c-1,.08-1.75.1-2.6.24-.55.1-1.2.18-1.88.34-.2,0-.41.08-.61.14l-.42.13a13.8,13.8,0,0,0-3.35,1.43,6.9,6.9,0,0,0-.86.6c-.14.14-.32.28-.46.42a4.28,4.28,0,0,0-1.49,2.29,3.32,3.32,0,0,0,0,.55c0,.62.5,1.46,1.85,1.73m1.9-58.48a1.54,1.54,0,0,1,.28,1.35,1.24,1.24,0,0,1-1.22,1,1.83,1.83,0,0,1-1.56-2.65c1.1-1.83,3.2-.8,5.15.11A3.94,3.94,0,0,1,70,35.78c0-1.44,1.11-2.1,1.54-3.43.26-.8.36-1.49-.22-2.05a1.52,1.52,0,0,0-1.76-.23c-1.33.52-2.92,2-5.71,2.06s-4.41-1.54-5.73-2.06a1.52,1.52,0,0,0-1.76.23c-.58.56-.48,1.25-.23,2.05.43,1.33,1.5,2,1.55,3.43A3.93,3.93,0,0,1,57.44,37c2-.91,4.14-2,5.15-.11A1.84,1.84,0,0,1,61,39.53a1.26,1.26,0,0,1-1.22-1,1.46,1.46,0,0,1,.28-1.35"/><path class="cls-11" d="M62.13,36.27A1.84,1.84,0,0,1,63,38a1.66,1.66,0,0,1-1,1.56m.82-1.31a1.13,1.13,0,0,1-.78,1.09"/><path class="cls-6" d="M49.13,34l.24.17.25.27.18.34.08.29,0,.38,0,.26L49.8,36l-.18.2-.2.23-.29.15-.38.09-.32,0-.35-.16-.3-.22-.19-.27-.14-.35V35.6L49.13,34Z"/><path class="cls-12" d="M48.6,35.34a.59.59,0,0,0-1-.34,1.08,1.08,0,0,0,.69,1.62,1.27,1.27,0,0,0,1.32-.48,1.5,1.5,0,0,0,.18-1.38,1.6,1.6,0,0,0-.59-.74,1.92,1.92,0,0,0-2.94.65c-.64,1.55.75,2.71,2,3.58a8.34,8.34,0,0,0,4.85,1.28c3.14,0,5.54-1.54,7.09-2.39a.73.73,0,0,1,.93.07.68.68,0,0,1-.09.94"/><path class="cls-13" d="M39.27,78l-.7.25-.72.55-.31.43-.39.68L37,80.4l-.14.64-.07.48M43.31,78l-.05.62-.1.43-.31.73-.48.64-.51.41-.38.18-.53.12"/><path class="cls-14" d="M63.91,94.45a2.12,2.12,0,0,1-1.82,1.46l-.22,0"/><path class="cls-15" d="M93,76.26a6.37,6.37,0,0,1,1.65,2.67,6.07,6.07,0,0,1,.28,2,8.62,8.62,0,0,1-.68,3.24c-.29.56-1.06,3.07-5.26,4.81-2.46,1-6.23,1.24-8.83,1.34-3.53.14-6.78.27-8.71,2.54"/><path class="cls-16" d="M87.2,78.55a1.7,1.7,0,0,1,2-.38,2.08,2.08,0,0,1,.82.71"/><path class="cls-15" d="M92.05,75.43a4.23,4.23,0,0,0,.5.17,2.4,2.4,0,0,0,1.35,0A1.65,1.65,0,0,0,95,73.25a1.9,1.9,0,0,0-.6-.73"/><path class="cls-12" d="M36.6,50A5.45,5.45,0,0,0,35,51.08a9.2,9.2,0,0,0-.9,2.34M49.89,35.65a1.14,1.14,0,0,1-1,1.09"/><path class="cls-17" d="M90.51,47.33a6.5,6.5,0,0,1,6.38,6.79c0,5.48-3.38,6.38-4.75,6.74"/><path class="cls-18" d="M90.93,47.33c2.81-.13,5.7,1.94,5.83,7.09a6.09,6.09,0,0,1-4.12,6.21"/><path class="cls-19" d="M89.37,66.71l0-.55.18-.87.26-.68.29-.56.38-.45m2.67-1.17,0,.54-.15.36-.24.35-.28.21-.42.15-.36,0-.28,0M86.51,45.87l.12-.58.26-.54.33-.54.58-.73.45-.51.73-.74.64-.64.4-.47.53-.64.47-.71.28-.58.16-.75,0-.93-.08-.27M87.2,81.3l.55-.12.42-.22.23-.23.17-.26.11-.43v-.3m-54.4-4.18.41,0,.53,0,.53-.18M37.48,62.8l-.07.48-.11.22-.17.2-.22.17-.25.11-.32.05-.22,0m3.4-5.37-.12.75-.14.32-.3.41-.41.31-.41.2-.79.2M42.61,47.2l-.16.45-.18.32-.26.36-.36.33-.43.2-.36.09-.22,0m.13-2.13v.34"/><path class="cls-20" d="M41.41,58.34a2.43,2.43,0,0,1-.72.45m51.74,15.4s.13,0,.17.07c.48.29,1.44-.07,1.16-.82"/><path class="cls-21" d="M90.74,63.68a1.48,1.48,0,0,0,1.51.44,1.37,1.37,0,0,0,.86-.67A1.72,1.72,0,0,0,93,61.6a2.22,2.22,0,0,0-.47-.49L92.37,61m2.21,11.69a2,2,0,0,0,0-.25,1.37,1.37,0,0,0-.44-1,2.52,2.52,0,0,0-.3-.27m.16.16a1.32,1.32,0,0,0-1.19-1.21m-1.43,1a4.8,4.8,0,0,1-1.93-4,4.88,4.88,0,0,1,1.23-3.44M71.28,92.74l.61-.57.43-.32.8-.5.76-.36.53-.14,1.06-.24,1.23-.18M66.55,97.08a6,6,0,0,1-2.61,2.12,6,6,0,0,1-2.62-2.12"/><path class="cls-20" d="M62.08,95.66a3.38,3.38,0,0,1-.76,1.42"/><path class="cls-21" d="M62.19,94.94l-.15.75m-.81,1.44-.32.33-.58.32-.67.21M57.72,36.86a2.28,2.28,0,0,0,.16-.89c-.05-1.44-1.12-2.09-1.54-3.43-.26-.79-.36-1.48.22-2.05a1.52,1.52,0,0,1,1.76-.22c1.32.52,2.93,2,5.73,2.05-2.8,0-4.41-1.53-5.73-2.05a1.59,1.59,0,0,0-1.81.15c-.58.57-.43,1.33-.17,2.12.42,1.34,1.44,2,1.48,3.43a2.08,2.08,0,0,1-.18.89M64,32.22c2.75-.14,5.11-2,5.87-2.15a1.53,1.53,0,0,1,1.56.38,1.5,1.5,0,0,0-1.71-.18c-1.32.52-2.91,2-5.71,2.05m27.36,38.8a5.33,5.33,0,0,1-2.14-4.24,5,5,0,0,1,1.23-3.44M66.46,97a6.14,6.14,0,0,1-2.62,2.12A6.14,6.14,0,0,1,61.22,97"/><path class="cls-20" d="M59.42,37.58l.79-.44a.82.82,0,0,1,1,.07.71.71,0,0,1-.05,1"/><path class="cls-21" d="M55.31,39.51a16.36,16.36,0,0,0,4.59-1.89M71,94.05a.92.92,0,0,1,.26.33,1.53,1.53,0,0,1,.11.29.73.73,0,0,1-.68.9,1.15,1.15,0,0,1-1.2-.69M55.21,39.41a15.82,15.82,0,0,0,4.59-1.89M93.34,74.27a1.07,1.07,0,0,1-1-.08c-.18-.08-.39-.21-.64-.35a7.2,7.2,0,0,1-2.89-3.11,6.53,6.53,0,0,1-.59-1.54A6.38,6.38,0,0,1,88.05,68a9.18,9.18,0,0,1,.21-2.13,7,7,0,0,1,1.41-3.12,1.69,1.69,0,0,1,1.47-.89M41.74,48.39a2.46,2.46,0,0,1,.91,2,3.93,3.93,0,0,1-3.08,3.42,2.8,2.8,0,0,1-2.17-.26"/><path class="cls-21" d="M42.1,52a1.19,1.19,0,0,1,.55,1.12A2.19,2.19,0,0,1,42,54.41a4.25,4.25,0,0,1-3,1.37,3.49,3.49,0,0,1-2.07-.6,3.11,3.11,0,0,1-1.32-1.85"/><path class="cls-21" d="M42.07,54.3a2,2,0,0,1,.58,1.56,3.06,3.06,0,0,1-1.27,2.45,4.45,4.45,0,0,1-.66.48M85.21,51.2v1.21m-.1-1.51v1.71m.1-5.41v2.24m-.1-2.74v3.06m-.65,28.18a6.72,6.72,0,0,1-1.44,2,6.81,6.81,0,0,1-2,1.4,8.46,8.46,0,0,1-2.26.75,11,11,0,0,1-2.36.29,15.87,15.87,0,0,1-2.18,0c-.91-.07-1.41-.19-2.32-.27A17.69,17.69,0,0,0,70,81.88,10.93,10.93,0,0,0,68,82a7.85,7.85,0,0,0-1.78.5A7.37,7.37,0,0,0,64,83.84a7.16,7.16,0,0,0-2.18-1.32,7.85,7.85,0,0,0-1.78-.5,10.1,10.1,0,0,0-2-.14,17.69,17.69,0,0,0-1.92.13c-.91.08-1.41.2-2.32.27a17.63,17.63,0,0,1-2.18,0A11,11,0,0,1,49.31,82a8.46,8.46,0,0,1-2.26-.75,6.81,6.81,0,0,1-2-1.4l-.21-.21M59.34,98,60,98m10.41-.81.62-.06.59-.24.42-.25.56-.67.12-.25.09-.58,0-.26m16.13-47c.27-.91-.06-1.87-.94-1.84M42.61,62a2.82,2.82,0,0,1-1.23,1.61m1.25-16.06a2.23,2.23,0,0,1-1.26,1.38,1.81,1.81,0,0,1-1.76-.29"/><path class="cls-20" d="M37.81,50.88c.53.28,1.06-.13.95-.81a1,1,0,0,0-.87-.76"/><path class="cls-21" d="M40,79.85c.11.1.14.24.29.27s.41.13.64-.18a1.14,1.14,0,0,0-.16-1.34,1.7,1.7,0,0,0-2-.32,2.54,2.54,0,0,0-.87.72,5.94,5.94,0,0,0-.39.55,4.67,4.67,0,0,0-.38.85,5.31,5.31,0,0,0,1.43,5.39"/><path class="cls-20" d="M71,94a1.86,1.86,0,0,1,.22.27,1.32,1.32,0,0,1,.1.3.74.74,0,0,1-.68.89,1.09,1.09,0,0,1-1.16-.69"/><path class="cls-21" d="M87.87,34.52A2.54,2.54,0,0,1,90,36.94a4.51,4.51,0,0,1-1.31,3.17c-.86,1.17-3.66,3.3-3.66,5.73,0,1.47.41,2.42,1.47,2.89a1.84,1.84,0,0,0,1.85-.35A1.37,1.37,0,0,0,88,46c-1.13-.21-1.34,1.57-.24,1.45m6.13,23.74a1.26,1.26,0,0,0-2.5.22,1.3,1.3,0,0,0,.35.9"/><path class="cls-21" d="M86,48.39a2.46,2.46,0,0,0-.9,2,3.93,3.93,0,0,0,3.08,3.42,2.83,2.83,0,0,0,2.14-.09M36.63,50.14A3.24,3.24,0,0,0,35,51.32a5.81,5.81,0,0,0-.79,2.09,6.82,6.82,0,0,0,0,2.29,5.61,5.61,0,0,0,.8,1.94,2.59,2.59,0,0,0,.35.42,3.15,3.15,0,0,0,.39.3M57.78,90c1.67.74,2.89,1.3,3.92,2.93a3.35,3.35,0,0,1,.41,1.68A3.47,3.47,0,0,1,61,97.22a2.85,2.85,0,0,1-2.29.71A1.76,1.76,0,0,1,57.29,97m-16-38.68A3,3,0,0,1,42.65,61a2.87,2.87,0,0,1-1.37,2.56"/><path class="cls-20" d="M40.46,62.59c1.4,1.74,2.14,2.78,2.19,4.86a6.52,6.52,0,0,1-1.75,4.68"/><path class="cls-21" d="M67.35,39.52a1.37,1.37,0,0,0,.55-.76,1.43,1.43,0,0,0-.1-1.34,1.55,1.55,0,0,1,.27,1.35,1.32,1.32,0,0,1-.55.76M85.21,69.15V74.7h0s0,.53,0,.86-.06.41-.1.59"/><path class="cls-21" d="M85.11,68.62v6h0s0,.52,0,.85-.1.64-.16.91m.19-14.76v5m.1-4.6v4.06m0-9.23v3.05m-.1-3.4v3.75m.1-6.51V54.9m-.1-1.42v1.71M84.48,77.6l-.12.24a6.26,6.26,0,0,1-1.44,2,6.39,6.39,0,0,1-2,1.4,8.53,8.53,0,0,1-2.25.76,12.59,12.59,0,0,1-2.37.29,17.69,17.69,0,0,1-2.18-.06c-.9-.06-1.41-.19-2.31-.27s-1.18-.12-1.93-.12a9.29,9.29,0,0,0-2,.14,8.07,8.07,0,0,0-4,1.81,7.45,7.45,0,0,0-2.19-1.32A7.35,7.35,0,0,0,60,81.93a9.34,9.34,0,0,0-2-.14,17.67,17.67,0,0,0-1.92.12c-.91.08-1.41.21-2.32.27a17.64,17.64,0,0,1-2.18.06A12.58,12.58,0,0,1,49.21,82,8.6,8.6,0,0,1,47,81.19a6.63,6.63,0,0,1-2-1.4,7.82,7.82,0,0,1-.85-1m-.69-1.09a3.46,3.46,0,0,1-.77,2.64,2.59,2.59,0,0,1-1.71.91,1.73,1.73,0,0,1-1.77-1.09"/><path class="cls-21" d="M41.87,77.17a3.48,3.48,0,0,1,.63.88,2.64,2.64,0,0,1,0,2.12l-.1.16m-7,6.19A10.48,10.48,0,0,0,39.15,89C41.6,90,45.37,90.2,48,90.3c3.46.14,6.65.28,8.58,2.42m6-1.4a4.86,4.86,0,0,1,1.4,1.94M61.4,97.19a2.61,2.61,0,0,1-.24.23,2.84,2.84,0,0,1-2.29.7,2.12,2.12,0,0,1-1.47-.88m-1.84-1,.1.12a2.59,2.59,0,0,0,1.75.85m9.24,0A6,6,0,0,1,64,99.3a6,6,0,0,1-2.61-2.12L61.31,97m5.36.16.25.24a2.85,2.85,0,0,0,2.29.7,1.86,1.86,0,0,0,1.4-.89.86.86,0,0,0,.16-.25"/><path class="cls-21" d="M70.54,97l-.25.41-.39.32-.59.24-.53,0"/><path class="cls-21" d="M71.93,93.13a2.67,2.67,0,0,1,.79,1,2.27,2.27,0,0,1,.17.82,2,2,0,0,1-.49,1.42,2.58,2.58,0,0,1-1.85.85.43.43,0,0,1-.16,0m.06-.09a2.35,2.35,0,0,1-1.78-.75M90.56,73a7.91,7.91,0,0,1-1.65-2.21,6.71,6.71,0,0,1-.59-1.54,5.6,5.6,0,0,1-.17-1.15A8.28,8.28,0,0,1,88.36,66a7.22,7.22,0,0,1,1.4-3.11,4.14,4.14,0,0,1,.72-.77M90,36.06A2,2,0,0,1,91.67,38c0,1.34-.46,1.89-1.51,3.2-.91,1.13-3.63,3.11-3.56,5a1.8,1.8,0,0,0,.4,1m-1.09,1.19a2.25,2.25,0,0,0,.71.47,1.69,1.69,0,0,0,1.46-.1M80.8,33.88a2.07,2.07,0,0,1,.75.89c.64,1.54-.75,2.7-2,3.58a7.45,7.45,0,0,1-2.86,1.12"/><path class="cls-21" d="M79.33,36.85a1.42,1.42,0,0,1-1.08-.51A1.25,1.25,0,0,1,78,36M72.9,37.68a1.5,1.5,0,0,1-.45-.33,1.41,1.41,0,0,1-.28-1.51c.22-.65,1.27-2.48,1.32-3.74.08-1.94-.67-3.08-1.83-3.52"/><path class="cls-20" d="M73.39,31.67l0,.72-.19.75-.38,1-.29.65-.3.65-.15.46-.06.33,0,.32M85.08,80a1.09,1.09,0,0,0,.2.28,2.67,2.67,0,0,0,1.88,1,1.48,1.48,0,0,0,1.64-1.1c.16-1-.18-1.26-.69-1.54a1.16,1.16,0,0,0-.65-.09"/><path class="cls-21" d="M35.45,75.63a2.38,2.38,0,0,1-1.27,0,1.85,1.85,0,0,1-1.36-2.38m4.61-10.94a.65.65,0,0,1,.14.37,1.29,1.29,0,0,1-1.74,1.42,1.92,1.92,0,0,1-1-.78,1.56,1.56,0,0,1-.21-.79m7.58-8.14a1.74,1.74,0,0,1,.43.61m-.39-2.93a1.44,1.44,0,0,1,.4.45"/><path class="cls-20" d="M42.64,53.69a3,3,0,0,1-.53.81,4.22,4.22,0,0,1-3,1.38,3.49,3.49,0,0,1-2.07-.6,3.24,3.24,0,0,1-1.41-1.92"/><path class="cls-21" d="M41.8,48.45a2.64,2.64,0,0,1,.82,1.16"/><path class="cls-20" d="M42.63,51.18a4.07,4.07,0,0,1-3,2.7,3.12,3.12,0,0,1-2.29-.37"/><path class="cls-21" d="M36.51,51a1.72,1.72,0,0,0,1.85,1.6c1.62,0,2.6-2.32,1.16-4"/><path class="cls-20" d="M32.87,58.84a5.5,5.5,0,0,0,.8.8,5.82,5.82,0,0,0,2,1.14m1.82.17a2.22,2.22,0,0,0,2.1-2.51A2.09,2.09,0,0,0,38,56.7"/><path class="cls-21" d="M39.89,46a1,1,0,0,1,1,1"/><path class="cls-20" d="M39.74,37.38a3.9,3.9,0,0,0,1.73,2M91,50a1.58,1.58,0,0,1-1.4,2.44,1.79,1.79,0,0,1-1.53-.87"/><path class="cls-21" d="M85.21,39.45v5.43"/><path class="cls-20" d="M37.79,50.87c.5.36,1.13-.25.89-.89A1,1,0,0,0,37,49.66a1.54,1.54,0,0,0,1.13,2.7c1.61,0,2.6-2.33,1.16-4s-3.9-1.22-5.54.09a7.32,7.32,0,0,0-2.43,4,7.46,7.46,0,0,0-.2,1.75,6.86,6.86,0,0,0,.17,1.43,7.14,7.14,0,0,0,1.05,2.59,4.76,4.76,0,0,0,.45.56c.28.28.37.43.65.67a5.19,5.19,0,0,0,3.59,1.31,2.24,2.24,0,0,0,2.36-2.53,1.57,1.57,0,0,0-2.32-1.33,1.12,1.12,0,0,0,.24,2c.58.17,1.09-.56.68-1M82.57,33.17c.93-.51,1.64-.41,2.17.32A3.36,3.36,0,0,1,85.27,36a3.05,3.05,0,0,1-1.19,2"/><path class="cls-20" d="M84.81,33.58a2,2,0,0,1,2.84.53,3.09,3.09,0,0,1,.54,2.1,3.84,3.84,0,0,1-2,3.17"/><path class="cls-21" d="M89.8,36a1.77,1.77,0,0,1,1.58,1.78c0,1.31-.37,1.88-1.42,3.19-.91,1.13-3.63,3.12-3.56,5a1.53,1.53,0,0,0,1.15,1.43"/><path class="cls-20" d="M89.9,50.87c-.49.36-1.12-.22-.85-.84a1,1,0,0,1,1.61-.37,1.54,1.54,0,0,1-1.13,2.7c-1.62,0-2.71-2.27-1.16-4s4-1.26,5.67,0a6.94,6.94,0,0,1,2.4,4.08c.37,2.43.32,5.41-2.18,7.25a6,6,0,0,1-3.64,1,2.26,2.26,0,0,1-2.36-2.54,1.6,1.6,0,0,1,2.33-1.33,1,1,0,0,1-.24,2c-.6.07-1.1-.56-.68-1"/><path class="cls-21" d="M89.05,50c.27-1.2,1.29-1.31,2.12-1.3,2.27,0,3.84,2.72,3.86,5.32,0,3.29-1.39,5.22-3.79,5.32-.62,0-1.69-.27-1.71-1"/><path class="cls-22" d="M90.44,49.5c2.39.53,3.23,2.68,3.23,4.73,0,1.68-.16,4-3.43,4.77"/><path class="cls-21" d="M94.38,72.53a1.34,1.34,0,1,0-2.15.8"/><path class="cls-20" d="M89.59,70.49a5.66,5.66,0,0,0,2.15,2m-.44,3.63c-1.12-.74-3.26-1.71-5.19-.75a2.67,2.67,0,0,0-1.47,1.5,3.42,3.42,0,0,0,.61,3.29A2.59,2.59,0,0,0,87,81.1,1.49,1.49,0,0,0,88.6,80a1.16,1.16,0,0,0-.68-1.42c-.22-.08-1-.06-1.1.46a1,1,0,0,0,.07.69"/><path class="cls-20" d="M71,94.21c.36.74-.05,1.11-.55,1.17a1.06,1.06,0,0,1-1.18-1,1.51,1.51,0,0,1,1.51-1.62,1.89,1.89,0,0,1,1.7,1.2,2.45,2.45,0,0,1,.18.81,2,2,0,0,1-.49,1.43,2.61,2.61,0,0,1-1.86.85,2.64,2.64,0,0,1-2.58-2.69c0-2.65,3.93-4.09,5.49-4.47a29.77,29.77,0,0,1,6.16-.79c1.23-.07,2.13,0,3.49-.18A19.94,19.94,0,0,0,86,88.42a9.43,9.43,0,0,0,4.31-2.19,6.35,6.35,0,0,0,2-2.81,5.84,5.84,0,0,0-.43-4.79,4.91,4.91,0,0,0-3.56-2.32A2.86,2.86,0,0,0,85.29,78a2.64,2.64,0,0,0,0,2.12,2.07,2.07,0,0,0,1.64,1A1.49,1.49,0,0,0,88.6,80a1.16,1.16,0,0,0-.68-1.42c-.22-.08-1-.06-1.1.46a1,1,0,0,0,.07.69"/><path class="cls-20" d="M69.92,90A7.55,7.55,0,0,0,66,92.93a3.58,3.58,0,0,0,.74,4.29,2.84,2.84,0,0,0,2.29.71A1.8,1.8,0,0,0,70.41,97"/><path class="cls-21" d="M86.38,58.36A2.76,2.76,0,0,0,85.05,61a2.87,2.87,0,0,0,1.36,2.56"/><path class="cls-20" d="M87.24,62.59c-1.41,1.74-2.15,2.78-2.19,4.86a6.56,6.56,0,0,0,1.74,4.68"/><path class="cls-21" d="M79.76,33.59l.12-.18a1.62,1.62,0,0,1,2.36-.51A2.92,2.92,0,0,1,83.13,36a3,3,0,0,1-1.39,1.88"/><path class="cls-20" d="M45.13,33.17a1.66,1.66,0,0,0-2.17.32A3.07,3.07,0,0,0,42.43,36a3,3,0,0,0,1.19,2"/><path class="cls-21" d="M42.89,33.58a2,2,0,0,0-2.84.53,3.15,3.15,0,0,0-.55,2.1,3.85,3.85,0,0,0,2,3.17"/><path class="cls-21" d="M39.83,34.52a2.34,2.34,0,0,0-2.07,2.29A4.61,4.61,0,0,0,39,40.11c.86,1.17,3.66,3.3,3.66,5.73,0,1.47-.41,2.42-1.47,2.89a1.83,1.83,0,0,1-1.85-.35A1.38,1.38,0,0,1,39.72,46c1.13-.21,1.34,1.57.24,1.45"/><path class="cls-21" d="M37.89,36a1.87,1.87,0,0,0-1.73,1.74c0,1.31.53,1.92,1.58,3.23.91,1.13,3.47,3.08,3.4,5,0,.71-.51,1.59-1,1.49"/><path class="cls-20" d="M35.84,62.49a.8.8,0,0,1,1.54,0,1.31,1.31,0,0,1-1.75,1.43,1.36,1.36,0,0,1-.85-.66A1.68,1.68,0,0,1,34.64,62a1.61,1.61,0,0,1,.3-.56,1.53,1.53,0,0,1,.43-.42,2.06,2.06,0,0,1,1.15-.21c1.92,0,3.6,2.26,4.16,4.61a10.29,10.29,0,0,1,.09,4.14,7.66,7.66,0,0,1-2,3.87,8.51,8.51,0,0,1-2,1.42,9.43,9.43,0,0,1-1.43.59,2.4,2.4,0,0,1-1.35,0,1.65,1.65,0,0,1-1.09-2.38,1.41,1.41,0,0,1,2.5-.24,1.07,1.07,0,0,1,.13.53,1,1,0,0,1-.34.8c-.49.31-1.28.22-1.25-.65"/><path class="cls-21" d="M34.35,74.27a1.09,1.09,0,0,0,1-.08c.18-.08.39-.21.63-.35a7.15,7.15,0,0,0,2.9-3.11,6.51,6.51,0,0,0,.58-1.54A5,5,0,0,0,39.64,68a8.21,8.21,0,0,0-.21-2.13A7,7,0,0,0,38,62.79a1.7,1.7,0,0,0-1.47-.89M33.31,72.53A1.36,1.36,0,0,1,34.38,71a1.34,1.34,0,0,1,1.09,2.37"/><path class="cls-21" d="M33.83,71.19a1.26,1.26,0,0,1,2.51.22,1.33,1.33,0,0,1-.36.9"/><path class="cls-21" d="M36.28,71.12a5.33,5.33,0,0,0,2.14-4.24,4.91,4.91,0,0,0-1.23-3.44"/><path class="cls-20" d="M38.1,70.49a5.62,5.62,0,0,1-2.14,2"/><path class="cls-21" d="M41.52,75.4a2.12,2.12,0,0,0-2-1.21,4.7,4.7,0,0,0-2.82.66,6.4,6.4,0,0,0-3.42,3.88,5.85,5.85,0,0,0-.29,2A8.76,8.76,0,0,0,33.68,84c.3.57,1.06,3.08,5.27,4.81,2.46,1,6.23,1.24,8.83,1.35,3.57.14,6.87.27,8.79,2.63"/><path class="cls-20" d="M36.39,76.15c1.13-.74,3.26-1.71,5.2-.75a2.73,2.73,0,0,1,1.47,1.5,3.43,3.43,0,0,1-.62,3.29,2.57,2.57,0,0,1-1.71.91A1.49,1.49,0,0,1,39.09,80a1.17,1.17,0,0,1,.68-1.42c.23-.08.95-.06,1.11.46a.91.91,0,0,1-.08.69"/><path class="cls-21" d="M40.87,79.54a1.17,1.17,0,0,0-.29-1.15,1.79,1.79,0,0,0-2-.31,2.69,2.69,0,0,0-.87.72c-.11.15-.3.39-.4.55a4.39,4.39,0,0,0-.37.86,5.37,5.37,0,0,0,2.26,6.05,10.27,10.27,0,0,0,4.94,1.4c.88.08,1.38.1,2.26.14.71,0,1.32,0,1.9,0h1.38a23.34,23.34,0,0,1,2.48,0c1,.08,1.76.1,2.6.24.55.1,1.2.18,1.88.34.2,0,.41.08.62.14l.41.13A13.71,13.71,0,0,1,61,90.11a5.37,5.37,0,0,1,.85.6c.18.17.33.28.47.42a4.34,4.34,0,0,1,1.49,2.29,3.32,3.32,0,0,1,0,.55c0,.62-.51,1.46-1.86,1.73"/><path class="cls-21" d="M56.66,94.21c-.36.74.05,1.11.54,1.17a1.06,1.06,0,0,0,1.18-1,1.5,1.5,0,0,0-1.5-1.62,1.9,1.9,0,0,0-1.71,1.2,2.21,2.21,0,0,0-.17.81,2,2,0,0,0,.49,1.43,2.58,2.58,0,0,0,1.85.85,2.64,2.64,0,0,0,2.58-2.69c0-2.65-3.93-4.09-5.49-4.47a29.65,29.65,0,0,0-6.15-.79c-1.24-.07-2.14,0-3.49-.18a20.06,20.06,0,0,1-3.1-.47,9.43,9.43,0,0,1-4.31-2.19,6.51,6.51,0,0,1-2-2.81,5.88,5.88,0,0,1,.43-4.79,4.93,4.93,0,0,1,3.56-2.32A2.87,2.87,0,0,1,42.41,78a2.72,2.72,0,0,1,0,2.12,2.08,2.08,0,0,1-1.65,1A1.49,1.49,0,0,1,39.09,80a1.17,1.17,0,0,1,.68-1.42c.23-.08.95-.06,1.11.46a.91.91,0,0,1-.08.69"/><path class="cls-20" d="M47.93,33.59l-.12-.18a1.62,1.62,0,0,0-2.36-.51A3,3,0,0,0,44.56,36,3.05,3.05,0,0,0,46,37.85"/><path class="cls-21" d="M80.07,36.18a6.05,6.05,0,0,1-4.84,2,5,5,0,0,1-2.6-.71A1.52,1.52,0,0,1,72,35.65c.22-.65,1.26-2.48,1.31-3.75.08-1.93-.66-3-1.82-3.4-2.16-.76-4.46,1.37-5.85,1.83a5.94,5.94,0,0,1-3.54,0c-1.39-.46-3.7-2.59-5.85-1.83-1.16.41-1.91,1.47-1.83,3.4.05,1.27,1.1,3.1,1.32,3.75a1.53,1.53,0,0,1-.65,1.87,5,5,0,0,1-2.6.71,6,6,0,0,1-4.84-2"/><path class="cls-20" d="M56.21,89.4a9.24,9.24,0,0,1,1.8.7,7.59,7.59,0,0,1,3.89,3,3.42,3.42,0,0,1,.41,1.67,4.19,4.19,0,0,1-.1.85"/><path class="cls-21" d="M56.32,96.83a2.9,2.9,0,0,0,1.12.29A2.65,2.65,0,0,0,60,94.43,3.27,3.27,0,0,0,58.77,92"/><path class="cls-20" d="M56.63,94.21a.81.81,0,0,0,.65,1.26,1.07,1.07,0,0,0,1.2-1A1.53,1.53,0,0,0,57.76,93"/><path class="cls-21" d="M88.1,34.53A2.41,2.41,0,0,1,90.16,37a4.48,4.48,0,0,1-1.34,3c-.45.54-.95,1-1.53,1.61"/><path class="cls-20" d="M86.79,33.37a2.31,2.31,0,0,1,.95.84,3.08,3.08,0,0,1,.55,2.1,4,4,0,0,1-2,3.07m-1.64-6,.22.22a3,3,0,0,1,.53,2.48A2.81,2.81,0,0,1,84.08,38m-1.74-5a2.83,2.83,0,0,1,.87,3.08,2.87,2.87,0,0,1-1.44,1.81M85.6,52c.1.32.28.43.51.67a4.72,4.72,0,0,0,2.12,1.21,2.69,2.69,0,0,0,2.17-.3m-56,18.57a1.35,1.35,0,0,1,1.13.76,1.13,1.13,0,0,1,.14.53.91.91,0,0,1-.35.76A.82.82,0,0,1,34,73.51"/><path class="cls-21" d="M37,60.83c1.7.31,3.33,2.36,3.86,4.59A10.09,10.09,0,0,1,41,69.56a7.74,7.74,0,0,1-2,3.87,5.78,5.78,0,0,1-.73.62l-.36.25m-2.72-4.17a1.39,1.39,0,0,1,1.3,1.38,1.32,1.32,0,0,1-.35.9"/><path class="cls-21" d="M34.66,70.94a1.5,1.5,0,0,1,1.41,1.44,1.35,1.35,0,0,1-.51,1.05"/><path class="cls-20" d="M41.3,63.64a6.43,6.43,0,0,1,1.31,2.66m0,2.92a5.78,5.78,0,0,1-.5,1.39,6.07,6.07,0,0,1-1.22,1.59"/><path class="cls-21" d="M41.41,58.43a3.23,3.23,0,0,1,1.21,1.65"/><path class="cls-20" d="M42.64,56.76a3.43,3.43,0,0,1-1.16,1.58m-3.15-5.9.74-.2.44-.33.29-.4.24-.62.1-.51"/><path class="cls-21" d="M36.83,49.83a4.44,4.44,0,0,0-.84.29,3,3,0,0,0-1.21,1A5.63,5.63,0,0,0,34,53.22a6.55,6.55,0,0,0,0,2.29,5.47,5.47,0,0,0,.79,1.93,3.9,3.9,0,0,0,.36.46,1.54,1.54,0,0,0,1.54.58"/><path class="cls-20" d="M41,46.57c-.12.44-.35,1-1,.93"/><path class="cls-21" d="M38.45,49.56a2.86,2.86,0,0,0-3.47.07,4.81,4.81,0,0,0-.54.41,2.84,2.84,0,0,0-.5.54,6.3,6.3,0,0,0-.48.84,4.48,4.48,0,0,0-.32.91,6.91,6.91,0,0,0-.23,2.15c0,.34.07.64.13.92a6.45,6.45,0,0,0,.76,2.13,3.5,3.5,0,0,0,2.66,1.84c.61.07,1.67-.22,1.7-1"/><path class="cls-20" d="M79,35.31a.61.61,0,0,1,1-.34,1.11,1.11,0,0,1-.67,1.66,1.32,1.32,0,0,1-1.32-.48A1.49,1.49,0,0,1,78.51,34a1.9,1.9,0,0,1,2.94.65c.64,1.54-.75,2.7-2,3.57a8.32,8.32,0,0,1-4.84,1.28c-3.15,0-5.54-1.54-7.1-2.39a.72.72,0,0,0-.92.07.68.68,0,0,0,.08.94"/><path class="cls-20" d="M79.68,34.78a.55.55,0,0,1,.52.28,1.1,1.1,0,0,1-.7,1.65m6.13,17.72c-1.19,1.31-.09,3.55.8,4,.31.24.45.12.7.26"/><path class="cls-21" d="M85.7,51.94a1.23,1.23,0,0,0-.55,1.11,1.81,1.81,0,0,0,.49,1.38,4.82,4.82,0,0,0,3.17,1.29,3.49,3.49,0,0,0,2.07-.6,3.11,3.11,0,0,0,1.32-1.85M85,74.51a7.28,7.28,0,0,1,0,.86,6.34,6.34,0,0,1-.72,2.37,6.27,6.27,0,0,1-1.43,2,6.76,6.76,0,0,1-2,1.41,8.89,8.89,0,0,1-2.25.75,11.81,11.81,0,0,1-2.36.29A15.83,15.83,0,0,1,74,82.08c-.91-.06-1.42-.19-2.32-.27-.75-.06-1.17-.12-1.93-.12a10,10,0,0,0-2,.14,7.85,7.85,0,0,0-1.78.5,7.26,7.26,0,0,0-2.19,1.31,7.26,7.26,0,0,0-2.19-1.31,7.85,7.85,0,0,0-1.78-.5,10,10,0,0,0-2-.14c-.76,0-1.18.06-1.93.12s-1.41.21-2.32.27a15.88,15.88,0,0,1-2.18.06,11.81,11.81,0,0,1-2.36-.29,8.89,8.89,0,0,1-2.25-.75,6.76,6.76,0,0,1-2-1.41,6.27,6.27,0,0,1-1.43-2,6.34,6.34,0,0,1-.72-2.37,7.28,7.28,0,0,1-.05-.86v-35H85v35Z"/><path class="cls-23" d="M39.23,79.51a.86.86,0,1,1,1.72,0h0a.86.86,0,0,1-1.72,0ZM34,73.44a.63.63,0,1,1,1.22,0,.71.71,0,0,1-.61.77A.71.71,0,0,1,34,73.44Z"/><path class="cls-6" d="M37,58.18a.59.59,0,1,1,.59.63A.61.61,0,0,1,37,58.18ZM47.48,35.62a.59.59,0,0,1,.47-.69.58.58,0,0,1,.6.57.55.55,0,1,1-1.07.12Z"/><path class="cls-24" d="M36.26,61.74a.8.8,0,0,0-.29.2.75.75,0,0,0-.18.28,1.57,1.57,0,0,0-.08.41m1.62,9.2.31-.37c.09-.13.15-.2.23-.33s.11-.19.18-.31l.23-.46m-.44,4.8c-.2.09-.32.13-.52.24a2.77,2.77,0,0,0-.37.22,4,4,0,0,0-.43.28l-.42.34m5.14-13L41,62.92c-.12-.11-.18-.18-.31-.29a4,4,0,0,0-.33-.24"/><path class="cls-25" d="M41.38,58.64a3.89,3.89,0,0,1-.42.19,2,2,0,0,1-.52.11"/><path class="cls-24" d="M35.62,53c.06.2.07.32.14.51a3.37,3.37,0,0,0,.32.59,3.25,3.25,0,0,0,.44.54A3,3,0,0,0,37,55a5,5,0,0,0,.51.27m-.34-2c.17.09.25.15.43.23a2.58,2.58,0,0,0,.42.13,2.8,2.8,0,0,0,.59.07,3.08,3.08,0,0,0,.64,0m2.46-14c-.27-.16-.44-.23-.7-.41a3.55,3.55,0,0,1-.64-.52,3.31,3.31,0,0,1-.4-.44,4.34,4.34,0,0,1-.28-.46m2.57-1.56a6,6,0,0,0,.22.59,2.85,2.85,0,0,0,.49.7,6.09,6.09,0,0,0,1,.72m.5-2a4.18,4.18,0,0,0,.21.53,2.6,2.6,0,0,0,.29.42,2.5,2.5,0,0,0,.46.46A5.26,5.26,0,0,0,46,38"/><path class="cls-26" d="M68.57,33.44c0-.58-.59-.64-.81-.64-.63,0-.81.39-1.6.82a4.36,4.36,0,0,1-4.61,0c-.8-.43-.93-.81-1.56-.81a.81.81,0,0,0-.78.84,2.29,2.29,0,0,0,0,.3s.07,0,.09.07a.79.79,0,0,1,.17-.58.76.76,0,0,1,.56-.29c.63,0,.87.41,1.66.83a4.37,4.37,0,0,0,4.62,0c.79-.42,1-.86,1.65-.86a.47.47,0,0,1,.45.36,1.26,1.26,0,0,1,0,.29s0,0,.05,0a.9.9,0,0,0,.06-.38Z"/><path class="cls-27" d="M44.89,82.39c.17-.19.31-.12.34-.21s0-.07-.1-.1a2.46,2.46,0,0,1-.29-.09l-.3-.13s-.13-.06-.16,0,.35.13.22.49a1.46,1.46,0,0,1-.28.41l-.92,1s0,.07-.07.06,0-.06,0-.09V82.32a1.92,1.92,0,0,1,.07-.58c.06-.16.25,0,.29-.13s0-.07-.11-.11-.16,0-.38-.12-.23-.11-.35-.15-.14-.09-.18,0,0,.07,0,.08a.31.31,0,0,1,.16.32l0,2.56c0,.18,0,.24,0,.25s.07,0,.14-.09l1.81-2Z"/><path class="cls-27" d="M46,82.79c.12-.37.34-.15.38-.28s0-.06-.11-.1l-.46-.12-.39-.15s-.12,0-.14,0,.39.15.28.51l-.59,1.88c-.12.37-.34.19-.38.33a0,0,0,0,0,0,.06l.4.1.53.19c.08,0,.12,0,.13,0s-.41-.07-.26-.56L46,82.79Zm1.27.37c.07-.23.18-.2.31-.16.36.1.47.45.36.84-.07.23-.16.45-.7.29-.1,0-.23-.07-.2-.17l.23-.8Zm-1,1.7c-.15.49-.4.28-.44.4s.06.09.1.1.35.09.55.15a2.66,2.66,0,0,1,.3.11c.08,0,.11,0,.12,0s-.35-.08-.23-.51l.2-.68c0-.13,0-.17.22-.11s.23.1.26.3l.11.71c0,.26.08.54.36.63s.41,0,.44-.1a.05.05,0,0,0,0-.07h-.11a.15.15,0,0,1-.11-.1c-.11-.57-.24-1.23-.23-1.26s.12,0,.25-.1a.67.67,0,0,0,.36-.43.77.77,0,0,0-.63-1L47,82.68l-.41-.14c-.05,0-.09,0-.1,0s.39.11.26.55l-.51,1.74Zm2.89.84c-.11.48-.47.19-.51.35s0,.09.11.11l.5.11c.24,0,.36.1.5.13s.17.06.2,0-.46-.11-.35-.6L50,84c0-.19.08-.2.23-.17l.31.07c.41.09.19.5.34.54s.09-.14.09-.19l0-.38s0-.1,0-.11c-.34-.08-.58-.12-1.11-.25s-.76-.2-1.09-.28c-.06,0-.07,0-.08.08l-.19.52s-.06.13,0,.15.18-.51.58-.42l.3.08c.15,0,.18.06.14.25l-.45,1.85Zm4.37-1.11c.14-.22.28-.17.3-.26s0-.07-.12-.08l-.3,0-.31-.08s-.15,0-.16,0,.36.06.29.44a1.19,1.19,0,0,1-.2.45l-.73,1.14s0,.08-.06.07,0-.06,0-.09L52,84.79a2.07,2.07,0,0,1,0-.58c0-.17.24-.07.26-.18s0-.07-.12-.09-.17,0-.4,0l-.37-.09s-.16-.06-.18,0a.1.1,0,0,0,0,.07.33.33,0,0,1,.22.29l.47,2.52c0,.18.06.23.1.24s.06,0,.12-.12l1.44-2.24Zm.2,2.31c0,.1,0,.14.08.18a3.07,3.07,0,0,0,.59.25.84.84,0,0,0,1-.76.89.89,0,0,0-.49-1c-.45-.32-.64-.41-.59-.68a.39.39,0,0,1,.47-.36c.63.11.56.87.64.89s.1,0,.11-.13l0-.55c0-.09,0-.15,0-.16s-.15,0-.2,0-.24-.2-.54-.25a.81.81,0,0,0-.44,1.51c.54.39.76.48.7.82a.5.5,0,0,1-.59.44c-.41-.07-.57-.48-.62-.88,0-.06,0-.1-.07-.11s-.07.11-.07.17l0,.57Zm5.44-1.53c.12-.23.27-.2.27-.3s0-.06-.12-.06H59l-.32,0s-.15,0-.15.05.37,0,.34.41a1.24,1.24,0,0,1-.16.47l-.6,1.21s0,.08-.05.08,0-.06,0-.09l-.37-1.36a1.64,1.64,0,0,1-.1-.57c0-.18.23-.1.24-.21s0-.06-.13-.07l-.4,0-.37,0c-.06,0-.17,0-.18.05a.07.07,0,0,0,.06.06.32.32,0,0,1,.24.27l.73,2.45c.05.18.09.22.12.22s.06,0,.11-.12l1.2-2.38Z"/><path class="cls-27" d="M59.73,87.36c0,.42-.36.34-.36.51s.08,0,.12,0l.31,0,.44,0s.14,0,.14,0-.47.08-.47-.71l0-1.39s0-.07,0-.07,0,0,.06.06l1.76,2.15a.12.12,0,0,0,.1,0s0,0,0-.12l0-2.3c0-.43.32-.33.32-.45s0-.06-.07-.06-.16,0-.39,0l-.43,0a.06.06,0,0,0-.06.06c0,.14.45.07.45.44V86.9q0,.15,0,.15s-.07,0-.12-.11l-1.46-1.82c-.07-.08,0-.11-.14-.11s-.3,0-.39,0l-.21,0s-.06,0-.06.07c0,.19.41-.07.41.72l0,1.56Zm3.58-1.85c0-.39.28-.24.28-.38s0-.06-.13-.06l-.48,0-.41,0s-.13,0-.13.05.4,0,.39.41v2c0,.39-.27.28-.27.42s0,0,0,0H63c.29,0,.43,0,.56,0s.12,0,.12-.06-.41,0-.41-.45Zm1.55,1.91c0,.49-.42.29-.42.45s.07.09.13.09l.52,0h.52c.11,0,.18,0,.18-.09s-.47,0-.48-.49V85.51c0-.2,0-.22.18-.22h.32c.42,0,.31.43.45.43s.06-.16,0-.21l0-.37s0-.1-.06-.1l-1.13,0H63.94c-.06,0-.06.06-.06.1l-.06.54s0,.14,0,.14.05-.54.47-.54h.31c.15,0,.19,0,.19.21l0,1.91ZM67,86.64c-.07,0-.12,0-.12,0a.27.27,0,0,1,0-.15l.22-.75s0,0,0,0,0,0,0,0l.36.72a.39.39,0,0,1,.06.15s0,0-.12,0l-.5,0Zm.63.17c.1,0,.12,0,.27.35a.56.56,0,0,1,.08.26c0,.25-.24.23-.23.35s0,0,.12,0,.24,0,.4,0,.34,0,.48,0,.13,0,.12-.07-.19,0-.33-.24L67.35,85c0-.12-.06-.13-.09-.12s-.06.08-.08.15l-.81,2.55c-.07.24-.26.23-.25.32s.06,0,.11,0l.32,0h.35c.08,0,.19,0,.19-.08s-.4,0-.43-.31a1.64,1.64,0,0,1,0-.32c.07-.28.14-.3.21-.31l.72-.06Zm2.86-1.7c0-.28,0-.28.42-.34.7-.1.48.42.65.4s.05-.15,0-.2l-.07-.4a.07.07,0,0,0-.08-.07c-.32,0-.57.09-.83.13l-1,.11c-.05,0-.08,0-.07.08s.42,0,.46.34l.26,1.91c.06.49-.25.31-.22.5,0,0,0,0,.07,0,.21,0,.36-.06.47-.07l.44,0c.09,0,.17,0,.16-.09s-.42,0-.48-.41l-.08-.6c0-.24,0-.28.12-.3l.27,0c.38,0,.34.39.45.38s0-.16,0-.21l-.12-.72c0-.11-.06-.1-.08-.09s0,.38-.35.42l-.23,0c-.16,0-.17,0-.19-.19l-.07-.57Zm1.35.94a1.24,1.24,0,0,0,1.47,1.13,1.4,1.4,0,0,0,1.09-1.81,1.26,1.26,0,0,0-1.5-1.13,1.4,1.4,0,0,0-1.06,1.81Zm.4-.32c-.11-.58,0-1.17.58-1.3s1,.29,1.17,1.18c.12.67,0,1.25-.61,1.38S72.36,86.32,72.25,85.73Zm2.87-1.43c-.06-.24,0-.26.18-.29.37-.09.64.16.73.55.06.23.09.46-.46.59-.1,0-.24.06-.26,0l-.19-.81Zm0,2c.12.5-.2.44-.17.57s.09,0,.13,0,.35-.11.55-.15a2.56,2.56,0,0,1,.31-.06c.08,0,.11,0,.1-.09s-.35.11-.46-.32l-.16-.69c0-.14-.06-.16.13-.21a.29.29,0,0,1,.37.14l.46.55c.16.21.34.43.62.36s.36-.18.33-.3a0,0,0,0,0-.06,0l-.11,0a.16.16,0,0,1-.14,0c-.38-.45-.82-1-.83-1s.09-.1.17-.21a.67.67,0,0,0,.09-.55.76.76,0,0,0-1-.54l-.72.19-.43.08s-.07,0-.06.08.39-.1.5.35l.42,1.76Zm3-.67c.12.48-.33.39-.29.55s.08.06.15,0,.25-.09.49-.15l.51-.11c.1,0,.18,0,.15-.13s-.45.12-.58-.37l-.46-1.79c0-.19,0-.22.12-.26l.31-.08c.4-.12.4.35.55.31s0-.17,0-.21L78.89,83s0-.09-.08-.08c-.34.09-.57.17-1.09.3l-1.1.27c-.06,0,0,.07,0,.11l.08.54s0,.14.08.12-.08-.53.33-.63l.3-.08c.15,0,.19,0,.24.16l.47,1.84ZM80,83.07c-.1-.37.2-.3.17-.44s0,0-.14,0l-.46.14c-.12,0-.27.06-.4.1s-.13,0-.11.09.41-.09.51.27l.53,1.9c.1.38-.18.35-.15.49a0,0,0,0,0,.06,0l.39-.12.55-.14q.12,0,.09-.09c0-.13-.38.17-.51-.32L80,83.07Zm.79.92a1.24,1.24,0,0,0,1.62.92A1.41,1.41,0,0,0,83.21,83a1.27,1.27,0,0,0-1.65-.92,1.41,1.41,0,0,0-.8,1.94Zm.36-.37c-.19-.56-.2-1.16.39-1.37s1,.15,1.32,1c.21.65.19,1.24-.41,1.45S81.31,84.19,81.12,83.62Zm2.62-1.86c-.09-.23,0-.27.14-.32.35-.14.65.07.8.45.09.22.15.44-.37.65-.1,0-.23.09-.27,0l-.3-.77ZM84,83.7c.19.48-.14.46-.09.58s.1,0,.14,0l.52-.23c.15-.06.24-.08.3-.1s.1-.06.09-.1-.34.15-.5-.25L84.21,83c0-.14-.08-.16.1-.23a.29.29,0,0,1,.39.08l.53.49c.19.18.4.38.67.27s.33-.23.28-.35a.05.05,0,0,0-.07,0s-.06,0-.09.06a.12.12,0,0,1-.15,0c-.44-.38-1-.82-1-.84s.07-.12.14-.24a.66.66,0,0,0,0-.56.76.76,0,0,0-1.1-.39l-.69.29c-.22.09-.25.08-.41.14s-.07,0,0,.09.37-.15.54.28L84,83.7Z"/><path class="cls-28" d="M44.79,41.65H62.86V59.7H44.79Z"/><path id="a" class="cls-29" d="M53.26,55.86A4.55,4.55,0,0,1,53.08,57a2.79,2.79,0,0,1-.4.89,2.76,2.76,0,0,1-.84.86,2.12,2.12,0,0,1-1.31.38c-1.2-.11-1.76-1.42-2-2.48s-1.11-1.75-1.64-1.34a.72.72,0,0,0-.07,1,2,2,0,0,0,.9.61l-.64.82a2,2,0,0,1-1.66-1.62,1.74,1.74,0,0,1,1.08-1.88,1.85,1.85,0,0,1,2.27,1.15c.49,1,.7,2.73,2.07,2.46.75-.15,1.1-1.23,1.1-1.73l.54-.58.8.25,0,0Z"/><path id="a-2" data-name="a" class="cls-29" d="M54.39,55.86A4.3,4.3,0,0,0,54.58,57a2.84,2.84,0,0,0,.39.89,3,3,0,0,0,.84.86,2.12,2.12,0,0,0,1.31.38c1.21-.11,1.77-1.42,2-2.48s1.12-1.75,1.64-1.34a.72.72,0,0,1,.07,1A1.93,1.93,0,0,1,60,57l.65.82a2,2,0,0,0,1.65-1.62,1.73,1.73,0,0,0-1.07-1.88,1.85,1.85,0,0,0-2.27,1.15c-.5,1-.71,2.73-2.08,2.46-.74-.15-1.09-1.23-1.09-1.73l-.54-.58-.81.25,0,0Z"/><path class="cls-4" d="M55.45,48.19l2.36-2.56a1,1,0,0,0,.36-.75l-.49.07-.11-.25,0-.25.65-.14c0-.1,0-.18,0-.3a2.86,2.86,0,0,1,.07-.28l-.72.05c0-.12,0-.19.07-.31a.72.72,0,0,1,.11-.24l.42-.07.41,0A2.05,2.05,0,0,1,61.76,43a1.81,1.81,0,0,1-.43,2.89,1.4,1.4,0,0,1-1.51-.25l.44-.85a.66.66,0,0,0,1.06-.55,1,1,0,0,0-1-1,1.09,1.09,0,0,0-1.08.68,2.48,2.48,0,0,0-.12.77,4.86,4.86,0,0,1-.12.84,1.86,1.86,0,0,1-.52.79L56.1,48.91,46.65,59.13l-.71-.66,9.51-10.28Z"/><path class="cls-29" d="M48.49,49.09a38.14,38.14,0,0,0,2.61,7.35,7,7,0,0,1,2.72-.61,6.31,6.31,0,0,1,2.72.61,37.84,37.84,0,0,0,2.62-7.35l-5.34-6.86Z"/><path class="cls-4" d="M54.35,44.55l3.7,4.76a35.24,35.24,0,0,1-2,5.8,9.43,9.43,0,0,0-1.7-.29V44.55Zm-1.05,0-3.7,4.76a35.24,35.24,0,0,0,2,5.8,9.43,9.43,0,0,1,1.7-.29V44.55Z"/><path class="cls-4" d="M64.79,41.65H82.87V59.7H64.79Z"/><path class="cls-28" d="M67.32,41.65H70V59.7h-2.7Zm5.17,0h2.7V59.7h-2.7Zm5.17,0h2.69V59.7H77.66Z"/><path class="cls-4" d="M44.85,75.35a4.54,4.54,0,0,0,.48,1.45,5,5,0,0,0,.94,1.32,5.19,5.19,0,0,0,1.37,1,5.69,5.69,0,0,0,1.51.55,11,11,0,0,0,3.64.35,20.21,20.21,0,0,0,2.26-.23c.84-.11,1.48-.18,2.44-.22a12.16,12.16,0,0,1,1.35,0,11.51,11.51,0,0,1,1.61.22,17.49,17.49,0,0,1,2.41.7V61.64H44.78V74.51s0,.63.07.84Z"/><path class="cls-30" d="M47,78.65l.85.5,1.16.41V61.63H47Zm10,.82V61.63H55V79.76s1.37-.18,2-.22Zm4-17.84H59v17.9a15.28,15.28,0,0,1,2,.37Zm-8,0V80a16,16,0,0,1-2,0V61.63Z"/><path class="cls-4" d="M82.81,75.34a4.77,4.77,0,0,1-.48,1.46,5.72,5.72,0,0,1-.94,1.32,5.43,5.43,0,0,1-1.37,1,6.23,6.23,0,0,1-1.51.55,11.29,11.29,0,0,1-3.64.35,22.49,22.49,0,0,1-2.26-.24c-.85-.11-1.48-.18-2.44-.22q-.7,0-1.35,0a11.51,11.51,0,0,0-1.61.22,17.52,17.52,0,0,0-2.43.71V61.63H82.88V74.51s0,.63-.07.83Z"/><g id="b"><path class="cls-28" d="M69.42,63.14l-.13.06a1.53,1.53,0,0,1-.18.18,2.61,2.61,0,0,1-.27.19.38.38,0,0,0-.13.09c-.06.07,0,.14-.06.22a1,1,0,0,1-.14.21c-.08.09-.14.13-.23.22s-.13.16-.25.22l-.07,0h-.12c-.09,0-.12.13-.18.16a.69.69,0,0,1,0,.13c0,.07.16.27.18.32s.06.15.12.17a.76.76,0,0,0,.29,0,2.16,2.16,0,0,1,.44.1c.14.06.19.13.33.19a1.31,1.31,0,0,0,.28.09.53.53,0,0,0,.22,0,.89.89,0,0,0,.14,0h0v.08h0l.45.2s0,0,0,.08a.42.42,0,0,0,0,.19,1.84,1.84,0,0,0,.32.7c.14,0,.18.19.26.33l-.08.07a1.74,1.74,0,0,0-.36.4c-.17.26-.28.26-.07.61a5.81,5.81,0,0,1,.33.53,1.85,1.85,0,0,1,.18.43,1.61,1.61,0,0,1,.06.44l.22.08.14-.15.14-.26v-.2a.16.16,0,0,1-.06-.17c0-.08.11-.06.16-.14s-.07-.16-.14-.24-.32-.18-.36-.4c0-.06,0-.1.08-.16s.25-.22.43-.4a.4.4,0,0,0,.22,0c.06,0,.11,0,.31.08a.47.47,0,0,0,.26,0l.09,0a.61.61,0,0,1,0,.15,3.49,3.49,0,0,0,0,.77.45.45,0,0,1,.06.12.38.38,0,0,1,0,.15c0,.15,0,.25,0,.41a2.47,2.47,0,0,1,0,.38.51.51,0,0,1-.1.24c-.06.08-.13.09-.21.15l0,.22.25.1.28.07.15-.06a.23.23,0,0,1,0-.14.2.2,0,0,1,.1-.12c.08,0,.17,0,.2,0s0-.07,0-.16,0-.22-.06-.37a3.06,3.06,0,0,1,0-.6c0-.14,0-.21,0-.34s.11-.29.15-.49.06-.35.09-.54a5.31,5.31,0,0,0,2-.08l.17-.06a1.81,1.81,0,0,0,.6.36.74.74,0,0,0,0,.21c0,.07,0,.11,0,.16a.13.13,0,0,0,.09.06.12.12,0,0,0,.14,0s0-.1,0-.17a.38.38,0,0,0,0-.15.68.68,0,0,0,.2,0h.19a.34.34,0,0,0,0,.1c0,.06,0,.1,0,.15a.16.16,0,0,0,.23.07c.07,0,.06-.11.07-.19v-.17l.23-.08c0,.06,0,.12,0,.17a1.29,1.29,0,0,1-.06.21,2.11,2.11,0,0,1-.16.3c-.09.14-.13.22-.23.35l-.13.14a1.37,1.37,0,0,1-.13.2.9.9,0,0,1-.2.23c-.15.13-.26,0-.46.19l-.05.23.32.11.28.06.09-.06a.24.24,0,0,1,.05-.16.24.24,0,0,1,.17-.09c.08,0,.17,0,.23,0s.08-.2.14-.32a2.64,2.64,0,0,1,.66-.86c.13-.13.25-.17.36-.32s.12-.1.12-.19,0-.09,0-.15,0-.22,0-.22c.33.16.21.14.27.31s0,.23,0,.37.1.25.12.41a2.24,2.24,0,0,1-.07.51,1.67,1.67,0,0,1-.11.44.78.78,0,0,1-.25.34l-.13.09,0,.23.25.08.36.1.08-.08c0-.14,0-.35.09-.37s.15,0,.17-.07A.9.9,0,0,0,79,70a9.61,9.61,0,0,1,.14-1c0-.22,0-.26.09-.42a1.42,1.42,0,0,1,.09-.37c.16-.46,0-.53-.24-.81a.73.73,0,0,1-.15-.33c0-.18,0-.33,0-.6s0-.42,0-.64l.07,0a.91.91,0,0,0,.53-.54.88.88,0,0,0,.07-.32,1.79,1.79,0,0,1,0-.23,1,1,0,0,0-.07-.21.75.75,0,0,0-.13-.18,1.2,1.2,0,0,0-.6-.33,3.32,3.32,0,0,0-.9-.12,5.91,5.91,0,0,0-.94,0c-.45,0-.69.11-1.13.16a9.83,9.83,0,0,1-1.08.09c-.5,0-1-.1-1.27-.07-.54,0-.55.16-1.36.23-.29,0-.57,0-.85,0l-.47-.15a.57.57,0,0,0,.32-.23c.06-.08.05-.15.12-.23s.1-.14.17-.21a.54.54,0,0,0-.2-.1.5.5,0,0,0-.21,0,.65.65,0,0,0-.27.08.4.4,0,0,0-.18.13,4,4,0,0,0-.48-.27,2,2,0,0,0-.66-.2Zm.43,2.62h0Z"/><path class="cls-31" d="M79.13,65.91,79,66a1.52,1.52,0,0,1-.57.11c-.58,0-.94-.24-1.54-.19-.31,0-.45.26-.76.34a2.32,2.32,0,0,1-.38.06l.12-.22a3.6,3.6,0,0,1-.47.05,1.23,1.23,0,0,1-.33,0l.22-.2a1.27,1.27,0,0,1-.28-.08.72.72,0,0,1-.24-.14l.37-.07c.35-.09.45-.26.86-.3a7.17,7.17,0,0,1,1.68.16,1.91,1.91,0,0,0,1.22-.06A.42.42,0,0,0,79.1,65a.48.48,0,0,0-.19-.4.45.45,0,0,0-.24-.08"/><path class="cls-32" d="M69.46,64a.45.45,0,0,0-.3.07c-.1.06-.12.15-.19.25.09,0,.15.08.25,0a.25.25,0,0,0,.16-.11.35.35,0,0,0,.1-.25Z"/><path class="cls-31" d="M71.93,66.85,72,67a1.73,1.73,0,0,1,.11.32,3.62,3.62,0,0,1,.06.46s0,.06,0,.09v.24m1.5-1.52s0,.17-.08.29c-.08.3-.15.46-.21.76,0,0,0,.1,0,.14M71,66.94c.18,0,.12.74.4.9"/><path class="cls-33" d="M77.23,68.17l.08,0a1.81,1.81,0,0,0,.59-.4"/><path class="cls-31" d="M75.52,67.78h0c.77-.19,1.29-.58,1.66-.63"/><path class="cls-31" d="M76.31,66.81h.19c.32,0,.37.15.6.28.4.22.46.5.94.73l.07,0,.19.09"/><path class="cls-32" d="M67.89,64.82h.16c.07,0,.11,0,.18-.06a.25.25,0,0,1,.15,0,.17.17,0,0,1,.06.08.12.12,0,0,1,0,.1c0,.06-.07.09-.14.09a.12.12,0,0,1-.12-.06.11.11,0,0,1,0-.08.28.28,0,0,1-.18,0,.26.26,0,0,1-.14-.11Z"/><path class="cls-34" d="M69.53,66.94a3.75,3.75,0,0,1-.43-.19c.07,0,.13,0,.19-.12a.86.86,0,0,0,.13-.29c0-.11,0-.21.14-.29a.32.32,0,0,1,.25,0,.29.29,0,0,1,.19.17c0,.12,0,.19-.06.32a.88.88,0,0,0,0,.32c0,.08,0,.11.08.2a3.28,3.28,0,0,1-.45-.08Zm-.22.21a.14.14,0,0,1,.14-.14.13.13,0,0,1,.14.13.14.14,0,0,1-.14.14.14.14,0,0,1-.14-.13Zm-.39-3.64,0,0a.51.51,0,0,1-.13-.24.84.84,0,0,1-.07-.26,1.77,1.77,0,0,1,0-.23,1.47,1.47,0,0,0,0-.21.46.46,0,0,0,0-.2s-.08-.08-.06-.1,0,0,.09,0a.3.3,0,0,1,.2.1.34.34,0,0,1,.15.23,3,3,0,0,1,.09.32.76.76,0,0,0,.06.16,1.74,1.74,0,0,0,.12.14h0l-.17.18a.84.84,0,0,1-.19.12Zm.8,2.34.49.23a2.07,2.07,0,0,0,.77-.86,3.26,3.26,0,0,0,.3-1l-.4-.13-.08,0a3.51,3.51,0,0,1-.35.92,2.62,2.62,0,0,1-.59.67l-.14.1Zm1.08,4a2.92,2.92,0,0,1,.21-.28,3.33,3.33,0,0,1,.28-.25.2.2,0,0,1,.11,0,2.11,2.11,0,0,1,0,.33,1.2,1.2,0,0,1-.08.27.83.83,0,0,1-.08.22l-.11.11c-.11-.16-.29-.29-.29-.42Zm7.26.41a1.85,1.85,0,0,1,.33.12,2.8,2.8,0,0,1,.32.2.21.21,0,0,1,0,.11,1.14,1.14,0,0,1-.33,0h-.28a.6.6,0,0,1-.23,0,.91.91,0,0,1-.14-.07C77.87,70.49,77.94,70.28,78.06,70.25Zm-2.14-.45a2.08,2.08,0,0,1,.32.12,2.14,2.14,0,0,1,.32.2s0,.07,0,.11a1.86,1.86,0,0,1-.34.06H76a.91.91,0,0,1-.23,0l-.14-.07c.13-.15.2-.36.33-.39Zm-3.82.47a2.19,2.19,0,0,1,.33.12,2.8,2.8,0,0,1,.32.2s0,.07,0,.11a1.14,1.14,0,0,1-.33,0,1.31,1.31,0,0,1-.28,0,.58.58,0,0,1-.23,0l-.14-.07C71.91,70.51,72,70.3,72.1,70.27Zm-2-6.56a.26.26,0,0,1-.15-.35s.09,0,.13-.09a.28.28,0,0,0,0-.18c0-.08,0-.13,0-.21a.91.91,0,0,1,0-.23.47.47,0,0,1,.08-.35.38.38,0,0,1,.18-.13s0,.11,0,.18a1,1,0,0,0,.06.25c0,.13.11.18.16.3a.86.86,0,0,1,.09.3.47.47,0,0,1-.05.26.34.34,0,0,1-.13.18.59.59,0,0,1-.17.1.32.32,0,0,1-.14,0Z"/></g><g id="b-2" data-name="b"><path class="cls-28" d="M69.42,71.19l-.13.06a1.53,1.53,0,0,1-.18.18,2.61,2.61,0,0,1-.27.19.38.38,0,0,0-.13.09c-.06.07,0,.14-.06.22a1,1,0,0,1-.14.21c-.08.09-.14.13-.23.22s-.13.16-.25.22l-.07,0h-.12c-.09,0-.12.13-.18.16a.69.69,0,0,1,0,.13c0,.07.16.27.18.32s.06.15.12.17a.76.76,0,0,0,.29,0,2.16,2.16,0,0,1,.44.1c.14.06.19.13.33.19a1.31,1.31,0,0,0,.28.09.53.53,0,0,0,.22,0,.89.89,0,0,0,.14,0h0v.08h0l.45.2s0,0,0,.08a.42.42,0,0,0,0,.19,1.84,1.84,0,0,0,.32.7c.14,0,.18.19.26.33l-.08.07a1.74,1.74,0,0,0-.36.4c-.17.26-.28.26-.07.61a5.81,5.81,0,0,1,.33.53,1.85,1.85,0,0,1,.18.43,1.61,1.61,0,0,1,.06.44L71,78l.14-.15.14-.26v-.2a.16.16,0,0,1-.06-.17c0-.08.11-.06.16-.14s-.07-.16-.14-.24-.32-.18-.36-.4c0-.06,0-.1.08-.16s.25-.21.43-.4a.4.4,0,0,0,.22,0c.06,0,.11,0,.31.08a.47.47,0,0,0,.26,0l.09,0a.61.61,0,0,1,0,.15,3.49,3.49,0,0,0,0,.77.45.45,0,0,1,.06.12.38.38,0,0,1,0,.15c0,.15,0,.25,0,.41a2.47,2.47,0,0,1,0,.38.51.51,0,0,1-.1.24c-.06.08-.13.09-.21.15l0,.22.25.1.28.07.15-.06a.23.23,0,0,1,0-.14.2.2,0,0,1,.1-.12c.08,0,.17,0,.2,0s0-.07,0-.16,0-.22-.06-.37a3.06,3.06,0,0,1,0-.6c0-.14,0-.21,0-.34s.11-.29.15-.49.06-.35.09-.54a5.31,5.31,0,0,0,2-.08l.17-.06a1.81,1.81,0,0,0,.6.36.74.74,0,0,0,0,.21c0,.07,0,.11,0,.16a.13.13,0,0,0,.09.06.12.12,0,0,0,.14,0s0-.1,0-.17a.38.38,0,0,0,0-.15.68.68,0,0,0,.2,0h.19a.34.34,0,0,0,0,.1c0,.06,0,.1,0,.15a.16.16,0,0,0,.23.07c.07,0,.06-.11.07-.19v-.17l.23-.08c0,.06,0,.12,0,.17a1.29,1.29,0,0,1-.06.21,2.11,2.11,0,0,1-.16.3c-.09.14-.13.22-.23.35l-.13.14a1.37,1.37,0,0,1-.13.2.9.9,0,0,1-.2.23c-.15.13-.26,0-.46.19l-.05.23.32.11.28.06.09-.06a.24.24,0,0,1,.05-.16.24.24,0,0,1,.17-.09c.08,0,.17,0,.23,0s.08-.2.14-.32a2.64,2.64,0,0,1,.66-.86c.13-.13.25-.17.36-.32s.12-.1.12-.19,0-.09,0-.15,0-.22,0-.22c.33.16.21.14.27.31s0,.23,0,.37.1.25.12.41a2.24,2.24,0,0,1-.07.51,1.67,1.67,0,0,1-.11.44.78.78,0,0,1-.25.34l-.13.09,0,.23.25.08.36.1.08-.08c0-.14,0-.35.09-.37s.15,0,.17-.07a.9.9,0,0,0,0-.13,9.61,9.61,0,0,1,.14-1c0-.22,0-.26.09-.42a1.42,1.42,0,0,1,.09-.37c.16-.46,0-.53-.24-.81a.73.73,0,0,1-.15-.33c0-.18,0-.33,0-.6s0-.42,0-.64l.07,0a.91.91,0,0,0,.53-.54.88.88,0,0,0,.07-.32,1.79,1.79,0,0,1,0-.23,1,1,0,0,0-.07-.21.75.75,0,0,0-.13-.18,1.11,1.11,0,0,0-.6-.32,3,3,0,0,0-.9-.13,5.91,5.91,0,0,0-.94,0c-.45,0-.69.11-1.13.16a9.83,9.83,0,0,1-1.08.09c-.5,0-1-.1-1.27-.07-.54,0-.55.16-1.36.23-.29,0-.57,0-.85,0l-.47-.15a.57.57,0,0,0,.32-.23c.06-.08.05-.15.12-.23s.1-.14.17-.21a.54.54,0,0,0-.2-.1.5.5,0,0,0-.21,0,.65.65,0,0,0-.27.08.4.4,0,0,0-.18.13,4,4,0,0,0-.48-.27,2,2,0,0,0-.66-.2Zm.43,2.62h0Z"/><path class="cls-31" d="M79.13,74,79,74a1.52,1.52,0,0,1-.57.11c-.58,0-.94-.24-1.54-.19-.31,0-.45.26-.76.34a2.32,2.32,0,0,1-.38.06l.12-.22a3.6,3.6,0,0,1-.47,0,1.23,1.23,0,0,1-.33,0l.22-.2a1.27,1.27,0,0,1-.28-.08.72.72,0,0,1-.24-.14l.37-.07c.35-.09.45-.26.86-.3a7.17,7.17,0,0,1,1.68.16,1.91,1.91,0,0,0,1.22-.06.42.42,0,0,0,.24-.39.48.48,0,0,0-.19-.4.45.45,0,0,0-.24-.08"/><path class="cls-32" d="M69.46,72a.45.45,0,0,0-.3.07c-.1.06-.12.15-.19.25.09,0,.15.08.25.05a.25.25,0,0,0,.16-.11.35.35,0,0,0,.1-.25Z"/><path class="cls-31" d="M71.93,74.9l.09.18a1.73,1.73,0,0,1,.11.32,3.62,3.62,0,0,1,.06.46s0,.06,0,.09v.24m1.5-1.52s0,.17-.08.29c-.08.3-.15.46-.21.76,0,0,0,.1,0,.14M71,75c.18,0,.12.74.4.9"/><path class="cls-33" d="M77.23,76.22l.08,0a1.81,1.81,0,0,0,.59-.4"/><path class="cls-31" d="M75.52,75.83h0c.77-.19,1.29-.58,1.66-.63"/><path class="cls-31" d="M76.31,74.86h.19c.32,0,.37.15.6.28.4.22.46.5.94.73l.07,0,.19.09"/><path class="cls-32" d="M67.89,72.87h.16c.07,0,.11,0,.18-.06a.25.25,0,0,1,.15,0,.17.17,0,0,1,.06.08.12.12,0,0,1,0,.1c0,.06-.07.09-.14.09a.12.12,0,0,1-.12-.06.11.11,0,0,1,0-.08A.28.28,0,0,1,68,73a.26.26,0,0,1-.14-.11Z"/><path class="cls-34" d="M69.53,75a3.75,3.75,0,0,1-.43-.19c.07,0,.13,0,.19-.12a.86.86,0,0,0,.13-.29c0-.11,0-.21.14-.29a.32.32,0,0,1,.25,0,.29.29,0,0,1,.19.17c0,.12,0,.19-.06.32a.88.88,0,0,0,0,.32c0,.08,0,.11.08.2a3.28,3.28,0,0,1-.45-.08Zm-.22.21a.14.14,0,0,1,.14-.14.13.13,0,0,1,.14.13.14.14,0,0,1-.14.14.14.14,0,0,1-.14-.13Zm-.39-3.64,0,0a.51.51,0,0,1-.13-.24.84.84,0,0,1-.07-.26,1.77,1.77,0,0,1,0-.23,1.47,1.47,0,0,0,0-.21.46.46,0,0,0,0-.2s-.08-.08-.06-.1,0,0,.09,0a.3.3,0,0,1,.2.1.34.34,0,0,1,.15.23,3,3,0,0,1,.09.32.76.76,0,0,0,.06.16,1.74,1.74,0,0,0,.12.14h0l-.17.18a.84.84,0,0,1-.19.12Zm.8,2.34.49.23a2.07,2.07,0,0,0,.77-.86,3.26,3.26,0,0,0,.3-1l-.4-.13-.08,0a3.51,3.51,0,0,1-.35.92,2.62,2.62,0,0,1-.59.67l-.14.1Zm1.08,4a2.92,2.92,0,0,1,.21-.28,3.33,3.33,0,0,1,.28-.25.2.2,0,0,1,.11,0,2.11,2.11,0,0,1,0,.33,1.2,1.2,0,0,1-.08.27.83.83,0,0,1-.08.22l-.11.11c-.11-.16-.29-.29-.29-.42Zm7.26.41a1.85,1.85,0,0,1,.33.12,2.8,2.8,0,0,1,.32.2.21.21,0,0,1,0,.11,1.61,1.61,0,0,1-.33.06h-.28a.91.91,0,0,1-.23,0l-.14-.07C77.87,78.54,77.94,78.33,78.06,78.3Zm-2.14-.45a2.08,2.08,0,0,1,.32.12,2.14,2.14,0,0,1,.32.2s0,.07,0,.11a1.86,1.86,0,0,1-.34.06H76a.91.91,0,0,1-.23,0l-.14-.07c.13-.15.2-.36.33-.39Zm-3.82.47a2.19,2.19,0,0,1,.33.12,2.8,2.8,0,0,1,.32.2s0,.07,0,.11a1.14,1.14,0,0,1-.33,0,1.31,1.31,0,0,1-.28,0,.58.58,0,0,1-.23,0,.61.61,0,0,1-.14-.07C71.91,78.56,72,78.35,72.1,78.32Zm-2-6.56a.26.26,0,0,1-.15-.35s.09,0,.13-.09a.28.28,0,0,0,0-.18c0-.08,0-.13,0-.21a.91.91,0,0,1,0-.23.47.47,0,0,1,.08-.35.38.38,0,0,1,.18-.13s0,.11,0,.18a1,1,0,0,0,.06.25c0,.13.11.18.16.3a.86.86,0,0,1,.09.3.47.47,0,0,1-.05.26.34.34,0,0,1-.13.18.59.59,0,0,1-.17.1.32.32,0,0,1-.14,0Z"/></g><path class="cls-35" d="M44.79,41.65H62.86V59.7H44.79Zm20,0H82.87V59.7H64.79ZM44.85,75.35a4.54,4.54,0,0,0,.48,1.45,5,5,0,0,0,.94,1.32,5.19,5.19,0,0,0,1.37,1,5.69,5.69,0,0,0,1.51.55,11,11,0,0,0,3.64.35,20.21,20.21,0,0,0,2.26-.23c.84-.11,1.48-.18,2.44-.22a12.16,12.16,0,0,1,1.35,0,11.51,11.51,0,0,1,1.61.22,17.49,17.49,0,0,1,2.41.7V61.64H44.78V74.51s0,.63.07.84Zm38,0a4.77,4.77,0,0,1-.48,1.46,5.72,5.72,0,0,1-.94,1.32,5.43,5.43,0,0,1-1.37,1,6.23,6.23,0,0,1-1.51.55,11.29,11.29,0,0,1-3.64.35,22.49,22.49,0,0,1-2.26-.24c-.85-.11-1.48-.18-2.44-.22q-.7,0-1.35,0a11.51,11.51,0,0,0-1.61.22,17.52,17.52,0,0,0-2.43.71V61.63H82.88V74.51s0,.63-.07.83Z"/></g></svg>