<svg id="Layer_1" data-name="Layer 1" xmlns="http://www.w3.org/2000/svg" xmlns:xlink="http://www.w3.org/1999/xlink" viewBox="0 0 128 128"><defs><style>.cls-1{fill:none;}.cls-2{clip-path:url(#clip-path);}.cls-3{clip-path:url(#clip-path-2);}.cls-4{fill:#fff;}.cls-5{fill:#0072c8;}.cls-6{fill:#cf0820;}.cls-7{fill:#fcd20e;}</style><clipPath id="clip-path"><circle class="cls-1" cx="64" cy="64" r="64"/></clipPath><clipPath id="clip-path-2"><rect id="_Clipping_Path_" data-name="&lt;Clipping Path&gt;" class="cls-1" x="-45.72" width="219.45" height="128"/></clipPath></defs><title>Flag_circle_Antigua and Barbuda</title><g class="cls-2"><g id="ANTIGUA_ANG_BARBUDA" data-name="ANTIGUA ANG BARBUDA"><g id="_Group_" data-name="&lt;Group&gt;"><g id="_Clip_Group_" data-name="&lt;Clip Group&gt;"><g class="cls-3"><rect id="_Path_" data-name="&lt;Path&gt;" class="cls-4" x="-45.72" width="219.45" height="128"/><rect id="_Path_2" data-name="&lt;Path&gt;" class="cls-5" x="-45.72" y="50.08" width="219.45" height="27.82"/><rect id="_Path_3" data-name="&lt;Path&gt;" x="-45.72" width="219.45" height="50.08"/><polygon id="_Path_4" data-name="&lt;Path&gt;" class="cls-6" points="173.72 0 64 128 -45.72 0 -45.72 128 173.72 128 173.72 0"/><polygon id="_Path_5" data-name="&lt;Path&gt;" class="cls-7" points="84.87 45.93 102.56 34.12 81.69 38.26 93.51 20.56 75.81 32.38 79.98 11.51 68.14 29.2 63.99 8.33 59.84 29.2 48.02 11.51 52.16 32.38 34.48 20.56 46.29 38.26 25.44 34.12 43.12 45.93 22.25 50.08 105.73 50.08 84.87 45.93"/></g></g></g></g></g></svg>