<svg id="Layer_1" data-name="Layer 1" xmlns="http://www.w3.org/2000/svg" xmlns:xlink="http://www.w3.org/1999/xlink" viewBox="0 0 128 128"><defs><style>.cls-1{fill:none;}.cls-2{clip-path:url(#clip-path);}.cls-3{fill:#00247d;}.cls-4{fill:#fff;}.cls-5{clip-path:url(#clip-path-2);}.cls-6{fill:#cf142b;}.cls-7{fill:#cc3;}.cls-8{fill:#9cf;}.cls-9{fill:#f90;}</style><clipPath id="clip-path"><circle class="cls-1" cx="64" cy="64" r="64"/></clipPath><clipPath id="clip-path-2"><path class="cls-1" d="M-53.83,5.25V32.19h139V64.13H63.92ZM63.92.25H0V74.77H-53.83V59.13Z"/></clipPath></defs><title>Flag_circle_Anguilla</title><g class="cls-2"><rect class="cls-3" x="-53.83" y="0.25" width="220" height="127.75"/><polygon class="cls-4" points="61.06 69.84 0.04 39.33 -53.63 66.16 -53.83 51.98 -14.24 32.19 -53.83 12.39 -53.83 0.25 -49.55 0.25 0.04 25.05 49.63 0.25 63.92 0.25 63.92 7.39 14.33 32.19 66.77 58.41 61.06 69.84"/><g class="cls-5"><path d="M-63.83.25,63.92,64.13m0-63.88L-63.83,64.13"/><polygon class="cls-6" points="62.01 67.93 0.04 36.95 -53.83 64.13 -53.83 54.36 -9.48 32.19 -65.74 4.06 -61.93 -3.56 0.04 27.43 62.01 -3.56 65.82 4.06 9.56 32.19 65.82 60.32 62.01 67.93"/></g><polygon class="cls-4" points="10.69 74.77 -10.6 74.77 -10.6 42.83 -53.83 42.83 -53.83 21.54 -10.6 21.54 -10.6 0.25 10.69 0.25 10.69 21.54 85.21 21.54 85.21 42.83 10.69 42.83 10.69 74.77"/><polygon class="cls-6" points="6.43 74.77 -6.34 74.77 -6.34 38.58 -53.83 38.58 -53.83 25.8 -6.34 25.8 -6.34 0.25 6.43 0.25 6.43 25.8 85.21 25.8 85.21 38.58 6.43 38.58 6.43 74.77"/><path class="cls-3" d="M-53.83,64.13h110V.25H106.5V85.42H-53.83Z"/><path class="cls-7" d="M67.37,43.05c0,31.69,2.52,42.94,11.2,51.63s12,10,14.37,11.38c2.79-1.53,6-3.22,13.87-11.08s11.53-19,11.53-52.47c-5.65,2.42-8.47,3.21-13.41,3.2-3.67.36-9.32-2-12.7-3.52a20.5,20.5,0,0,1-11.16,3.27c-6.65.28-8.76-.8-13.7-2.41Z"/><path class="cls-4" d="M68.9,45.05c0,9.8-.58,23.16,1.49,30.89s2.56,8.9,4.12,11.61L111,87.28c2.26-3.9,2.37-6.31,4-12.55s2.08-20.05,2.13-30.36A23.51,23.51,0,0,1,104,47,26.4,26.4,0,0,1,92.8,43.72c-3.48,2-4.7,2.9-10.46,3.13-4.48.21-8.11.56-13.44-1.8Z"/><path class="cls-8" d="M74.59,87.34c2.59,5.2,14.83,15.18,18.4,17.24,4.08-2.35,14.88-12.21,17.88-17.24Z"/><path class="cls-9" d="M93.69,59.56c1.15,2.59,4.85,5.44,5.87,6.84-1.3,1.4-1.56,1.25-1.39,3.85,2.25-2.25,2.29-2.48,3.74-2.14,3.17,3,.57,9.49-2,10.89s-2.15,0-6.07,1.83c1.8,1.47,3.88-.21,5.59.24.92,1-.44,3,.28,4.75,1.5-.14,1.32-3,1.67-4.09,1.1-3.85,7.71-6.53,8-10.06,1.39-.62,2.79-.2,4.48.71-.84-3.31-3.64-3.27-4.38-4.3-1.79-2.6-3.37-5.56-7.17-6.33-2.89-.58-2.67.18-4.52-1-1.16-.85-4.66-2.47-4.1-1.16Z"/><path class="cls-9" d="M84.45,70.53c1.86-2.18,2.78-6.63,3.61-8.14,1.9.44,1.88.73,4.21-.63-3.13-.85-3.37-.77-3.73-2.15,1.32-4.08,8.54-4.91,11.06-3.36s1,1.83,4.53,4.26c.52-2.2-2-3.18-2.39-4.82.54-1.27,3-1,4.28-2.46-.83-1.2-3.44.31-4.57.5-4.09.87-9.66-3.45-13.1-2.08-1.23-.88-1.48-2.26-1.43-4.11-2.67,2.25-1.33,4.59-1.94,5.71-1.58,2.71-3.59,5.42-2.52,9,.81,2.71,1.41,2.17,1.16,4.29-.26,1.38-.12,5.08.83,4Z"/><path class="cls-9" d="M99.56,72.06c-2.92-.39-7.39,1.16-9.17,1.27-.59-1.78-.32-1.91-2.75-3.11.86,3,1,3.15,0,4.15-4.34,1-8.82-4.42-8.74-7.28s1.15-1.73,1.48-5.9c-2.24.71-1.81,3.28-3.09,4.44-1.42.22-2.43-1.88-4.41-2.22-.65,1.3,2,2.65,2.81,3.48,2.89,2.88,1.9,9.66,4.9,11.75-.16,1.46-1.26,2.38-3,3.3,3.41,1,4.82-1.29,6.13-1.37,3.25-.12,6.73.12,9.38-2.59,2-2.07,1.22-2.28,3.25-3.17,1.37-.5,4.62-2.53,3.16-2.75Z"/><ellipse class="cls-4" cx="101.4" cy="62.5" rx="0.6" ry="0.57"/><ellipse class="cls-4" cx="83.58" cy="62.66" rx="0.6" ry="0.57"/><ellipse class="cls-4" cx="92.94" cy="76.84" rx="0.6" ry="0.57"/></g></svg>