<svg id="Layer_1" data-name="Layer 1" xmlns="http://www.w3.org/2000/svg" xmlns:xlink="http://www.w3.org/1999/xlink" viewBox="0 0 128 128"><defs><style>.cls-1{fill:none;}.cls-2{clip-path:url(#clip-path);}.cls-3{clip-path:url(#clip-path-2);}.cls-4{fill:#bc1f33;}</style><clipPath id="clip-path"><circle class="cls-1" cx="64" cy="64" r="64"/></clipPath><clipPath id="clip-path-2"><rect id="_Clipping_Path_" data-name="&lt;Clipping Path&gt;" class="cls-1" x="-45.69" width="219.38" height="128"/></clipPath></defs><title>Flag_circle_Albania</title><g class="cls-2"><g id="ALBANIA"><g id="_Group_" data-name="&lt;Group&gt;"><g id="_Clip_Group_" data-name="&lt;Clip Group&gt;"><g class="cls-3"><rect id="_Path_" data-name="&lt;Path&gt;" class="cls-4" x="-45.69" width="219.38" height="128"/><g id="_Clip_Group_2" data-name="&lt;Clip Group&gt;"><g class="cls-3"><path id="_Compound_Path_" data-name="&lt;Compound Path&gt;" d="M99.26,81.3a2.21,2.21,0,0,0-1.16-.36,3.75,3.75,0,0,1-1.31-.3,1.92,1.92,0,0,0-2.17.35c-.45.36-.73.41-2.42.56-2.37.18-3.14.18-3.14,0a6.92,6.92,0,0,1,1.35-1c1-.66,1.45-.84,1.77-.76a2.7,2.7,0,0,0,2.27-.9c.64-.66.8-.68,2.26-.63.34,0,.11,0,.59-.05a2.15,2.15,0,0,0-2.53-1.36,2.52,2.52,0,0,1-1.33.08,2.23,2.23,0,0,0-2.58,1.35c-.18.51-1.13,1.28-2.79,2.3l-1.23.77-2.36-.92a27.29,27.29,0,0,1-4.85-2.17,5.19,5.19,0,0,1,.72-1,4.31,4.31,0,0,0,.73-.9,4,4,0,0,0-1-.61c-3.66-1.84-6.27-4.44-7.37-7.38-.77-2-.38-2.53.59-.69a6.22,6.22,0,0,0,2.38,2.83c1.11.72,1.75.85,2.18.46s.37-1-.33-1.81c-1.62-1.84-2.1-4.62-.76-4.62.5,0,.58.08,1.57,2.45,1.46,3.3,2.93,5.52,4.09,6.08,1,.53,2.57.13,2.83-.72.2-.66,0-1.09-1.17-1.78a7.87,7.87,0,0,1-3.36-5.42c-.15-.76-.13-1,.1-1.32.4-.59.69-.39,1.83,1.3,2.13,3.24,6,7.45,7.56,8.32C93,75,95.75,75,97.42,73.33a1.53,1.53,0,0,0,.6-1.15c0-.79-.6-1.12-1.87-1.07-2.93.13-3.19.1-4.32-.41-2.17-1-4.29-3.5-6-6.94-1.58-3.24-1.17-3.4,1.48-.69,3.58,3.65,6.46,5,9.12,4.21,1.29-.36,2.51-1.53,2.51-2.4s-.46-1.17-1.86-1.1c-.64,0-1.8,0-2.6,0A4,4,0,0,1,92,63.32a11.11,11.11,0,0,1-2.23-1.58c-1.7-1.58-4.56-5.51-4.56-6.28s.67-.46,2.42,1.1a32.24,32.24,0,0,0,5.14,3.52,5.06,5.06,0,0,0,2.36.36A3.75,3.75,0,0,0,97.42,60,2.26,2.26,0,0,0,99,57.86c.12-1.61-.67-2-3-1.4-3.27.79-5,.2-8-2.86-1.46-1.49-2-2.3-1.78-2.76S87,50.61,89.78,52c3.06,1.55,3.93,1.86,5.37,1.86A4,4,0,0,0,98,52.93c1.18-1,1.48-2.17.73-2.91-.59-.61-1.75-.56-3,.1a5.9,5.9,0,0,1-1.93.59,9.5,9.5,0,0,1-6.57-2.45c-1-1-1.51-2-1.23-2.32s.73-.26,1.88.2a11,11,0,0,0,5,1.2,8.39,8.39,0,0,0,4.62-1.2c1.24-.69,2.07-1.58,2.07-2.17a2.26,2.26,0,0,0-.33-1c-.46-.76-1.34-.74-2.91.16-3.18,1.71-5.35,2-7.57.84a9,9,0,0,1-3-2.81c-.24-.48-.24-.56,0-.79s.49-.28,3,.64a10.87,10.87,0,0,0,7.5-.1c1.69-.77,3.32-2.76,3.32-4a1.91,1.91,0,0,0-.74-1.53c-.71-.28-1.11-.1-2.21,1.07a7.71,7.71,0,0,1-6.16,2.4c-2.89,0-4.1-.43-4.1-1.53,0-.77.59-1.2,1.77-1.4a21.4,21.4,0,0,0,10-4.52c1.31-1.23,1.81-2.1,1.8-3.14A2.13,2.13,0,0,0,98.38,26c-.78-.23-1.4.15-2.23,1.45a12.06,12.06,0,0,1-5.54,4.75,16.75,16.75,0,0,1-4.56,1.59,1.16,1.16,0,0,1-.51-.72c-.41-1.1-.47-1.12-2.11-.43-.8.35-2.46,1-3.7,1.43-2.48.87-3.31,1.4-3.88,2.58-.31.56-.37.94-.37,2.7s-.07,2.07-.39,2.56a1.9,1.9,0,0,1-2,.89c-1.52,0-2.36-.89-2.44-2.63a7.53,7.53,0,0,1,.86-4.06,7.42,7.42,0,0,1,3-3.32,10,10,0,0,1,4.85-1.58c1.8-.16,3.64-.84,4.07-1.74a4.57,4.57,0,0,1-3.54-.33c.16-.1,3.45-.1,3.88-.13a4.47,4.47,0,0,0,2.7-1.12c.88-.61,1.47-1.2,1.22-1.61s-.86-.36-1.32.15c-.21.26-.64.72-1,1.08-.52.58-.64.63-2.21.86a4,4,0,0,1-2.08,0c-.22-.15-.41-.35-.41-.43,0-.23.64-.59,1.25-.72a6.82,6.82,0,0,1,2.21.46,7.13,7.13,0,0,0-.46-1c-.38-.76-1.08-1-2.81-1.1-1.22,0-1.63-.12-1.9-.35a5.54,5.54,0,0,0-.65-.51,1.92,1.92,0,0,0-.88-.16A11.69,11.69,0,0,0,73,25.66a4.54,4.54,0,0,1-2.27.51A7.94,7.94,0,0,1,69,26c-1.31-.35-1.54-.35-1.54-.1s1.11,1.33,2,1.74c.44.25.61.41.53.58a4.87,4.87,0,0,1-2.14,1.43c-.78.29-.75.59.09,1a1.57,1.57,0,0,1,.71.51c0,.46-1.63,1.53-2.37,1.53-.89,0-.55.72.45.92.54.13.54.21.05.72a1.57,1.57,0,0,1-1.56.74c-.6-.16-.72.1-.37.74.27.46.27.51,0,.71a1.16,1.16,0,0,1-.49.21h0l-.1,0a.21.21,0,0,0-.14,0,.27.27,0,0,0-.15,0l-.12,0h0a1.57,1.57,0,0,1-.5-.21c-.28-.2-.28-.25,0-.71.35-.64.23-.9-.38-.74a1.6,1.6,0,0,1-1.56-.74c-.48-.51-.48-.59.08-.72,1-.2,1.32-.92.42-.92-.74,0-2.37-1.07-2.35-1.53a1.52,1.52,0,0,1,.7-.51c.86-.41.87-.71.08-1a4.83,4.83,0,0,1-2.13-1.43c-.08-.17.1-.33.55-.58.83-.41,1.93-1.43,1.93-1.74s-.22-.25-1.54.1a7.84,7.84,0,0,1-1.81.18,4.53,4.53,0,0,1-2.28-.51,11.61,11.61,0,0,0-4.49-1.1,1.88,1.88,0,0,0-.86.16,5.67,5.67,0,0,0-.67.51c-.27.23-.66.3-1.87.35-1.75.06-2.44.34-2.84,1.1a5.43,5.43,0,0,0-.46,1A6.91,6.91,0,0,1,46,27.24c.6.13,1.25.49,1.25.72,0,.08-.2.28-.42.43a3.94,3.94,0,0,1-2.08,0c-1.55-.23-1.67-.28-2.22-.86-.27-.36-.71-.82-.92-1.08-.46-.51-1.12-.58-1.33-.15s.34,1,1.23,1.61A4.46,4.46,0,0,0,44.16,29c.42,0,3.73,0,3.88.13a4.51,4.51,0,0,1-3.52.33c.42.9,2.27,1.58,4.07,1.74a9.86,9.86,0,0,1,4.84,1.58,7.36,7.36,0,0,1,3,3.32,7.62,7.62,0,0,1,.86,4.06c-.08,1.74-.91,2.63-2.43,2.63a1.93,1.93,0,0,1-2-.89c-.33-.49-.37-.72-.39-2.56s0-2.14-.35-2.7c-.58-1.18-1.41-1.71-3.9-2.58-1.24-.44-2.9-1.08-3.71-1.43-1.63-.69-1.69-.67-2.09.43a1.24,1.24,0,0,1-.51.72,16.64,16.64,0,0,1-4.56-1.59,12,12,0,0,1-5.55-4.75C31,26.17,30.4,25.79,29.58,26a2.09,2.09,0,0,0-1.44,2.25c0,1,.47,1.91,1.8,3.14a21.37,21.37,0,0,0,10,4.52c1.2.2,1.78.63,1.78,1.4,0,1.1-1.2,1.53-4.1,1.53a7.72,7.72,0,0,1-6.16-2.4c-1.11-1.17-1.49-1.35-2.19-1.07a1.9,1.9,0,0,0-.77,1.53c0,1.23,1.65,3.22,3.32,4a8.56,8.56,0,0,0,4.34.71A8.54,8.54,0,0,0,39.32,41c2.44-.92,2.66-.92,3-.64s.23.31,0,.79a9,9,0,0,1-3,2.81c-2.2,1.12-4.4.87-7.55-.84-1.59-.9-2.46-.92-2.92-.16a2.45,2.45,0,0,0-.35,1c0,.59.83,1.48,2.1,2.17a8.35,8.35,0,0,0,4.62,1.2,11,11,0,0,0,4.94-1.2c1.14-.46,1.58-.54,1.88-.2s-.22,1.3-1.23,2.32a9.53,9.53,0,0,1-6.57,2.45,5.75,5.75,0,0,1-1.94-.59c-1.29-.66-2.46-.71-3-.1-.77.74-.47,1.89.71,2.91a4,4,0,0,0,2.88.92c1.41,0,2.31-.31,5.35-1.86,2.78-1.38,3.43-1.61,3.6-1.15S41.45,52.11,40,53.6c-3,3.06-4.73,3.65-8,2.86-2.33-.62-3.12-.21-3,1.4A2.32,2.32,0,0,0,30.55,60a3.84,3.84,0,0,0,2.34.41,5.09,5.09,0,0,0,2.36-.36,30.91,30.91,0,0,0,5.13-3.52c1.78-1.56,2.45-1.87,2.45-1.1s-2.87,4.7-4.58,6.28A11.07,11.07,0,0,1,36,63.32a4,4,0,0,1-2.56.51c-.81,0-2,0-2.61,0C29.45,63.71,29,64,29,64.88s1.24,2,2.52,2.4c2.66.79,5.54-.56,9.11-4.21,2.66-2.71,3.07-2.55,1.48.69-1.66,3.44-3.76,5.9-6,6.94-1.09.51-1.39.54-4.31.41-1.28,0-1.87.28-1.87,1.07,0,.41.16.69.62,1.15C32.24,75,35,75,37.78,73.51c1.58-.87,5.44-5.08,7.57-8.32,1.13-1.69,1.42-1.89,1.82-1.3.25.35.26.56.11,1.32a7.94,7.94,0,0,1-3.36,5.42c-1.13.69-1.38,1.12-1.16,1.78.25.85,1.85,1.25,2.81.72,1.14-.56,2.62-2.78,4.07-6.08,1-2.37,1.1-2.45,1.59-2.45,1.33,0,.86,2.78-.74,4.62-.73.82-.84,1.35-.33,1.81s1.05.26,2.17-.46a6.28,6.28,0,0,0,2.38-2.83c1-1.84,1.37-1.35.57.69-1.08,2.94-3.69,5.54-7.35,7.38a4.37,4.37,0,0,0-1,.61,4.54,4.54,0,0,0,.74.9,5,5,0,0,1,.73,1,26.78,26.78,0,0,1-4.86,2.17l-2.38.92-1.2-.77c-1.68-1-2.6-1.79-2.81-2.3A2.21,2.21,0,0,0,34.53,77a2.49,2.49,0,0,1-1.32-.08,2.14,2.14,0,0,0-2.53,1.36c.5.07.25.07.61.05,1.46-.05,1.61,0,2.25.63a2.69,2.69,0,0,0,2.27.9c.33-.08.75.1,1.76.76a7.6,7.6,0,0,1,1.36,1c0,.15-.8.15-3.14,0-1.7-.15-2-.2-2.43-.56a1.91,1.91,0,0,0-2.16-.35,3.65,3.65,0,0,1-1.31.3,2.18,2.18,0,0,0-1.16.36,2,2,0,0,0-1,1.28,5.16,5.16,0,0,0,1.21-.13c1.1-.16,1.21-.13,1.56.18a4.56,4.56,0,0,0,.72.53,3.13,3.13,0,0,0,2.15-.07,8.36,8.36,0,0,1,2.9-.23c1.33,0,2.5,0,2.59,0a5.34,5.34,0,0,1-1.19.76,3.09,3.09,0,0,1-2.44.79c-1.43,0-2.23.44-2.47,1.33-.08.31-.23.9-.32,1.28-.22.84-.32,1,.32,2.47.69-1.63.46-1.14.66-1.42.36-.54.49-.62,1.28-.67a2.1,2.1,0,0,0,2.08-1.33c.28-.63.59-.86,2.08-1.81,2.07-1.28,1.93-1.28,4.24-.2,1.15.53,1.57.81,1.76,1.17a1.48,1.48,0,0,0,1.86.72c.82-.23,1.13-.08,1.65.63a2.71,2.71,0,0,0,.56.57,3.66,3.66,0,0,0,.09-1c0-.69-.06-.82-.93-1.69s-1.63-1.3-2.36-1c-.36.13-.63.1-1.51-.31s-1.35-.81-.84-.81c.09,0,1.68-.59,3.47-1.28l3.3-1.28.48.41a6.86,6.86,0,0,0,3,1.35c.56,0,.63,0,.8-.63a43.49,43.49,0,0,1,3.2-6.16c1.72-2.65,2.65-3.34,3.44-2.5.23.28.3.61.28,1.61a14.39,14.39,0,0,1-3.95,9.06,6.91,6.91,0,0,1-4,2c-1.2.17-2,.46-2,.79a3.18,3.18,0,0,0,1.3,1.5,3.12,3.12,0,0,0,1.8.26,3.56,3.56,0,0,0,2.39-.77c1.07-.64,1.22-.69,1.44-.48s.23.36.06,1c-.33,1.27-1.23,1.84-3.35,2.09s-2.92,1-2.19,1.94a2.71,2.71,0,0,0,2.4,1c1.27,0,2.38-.54,3.82-1.92.63-.56,1.19-1,1.29-.92s.2,1.43,0,2.23a4.4,4.4,0,0,1-1.88,2.19A12.55,12.55,0,0,1,57,94.3c-1.77.48-2,1.17-.78,2a3.45,3.45,0,0,0,3.18.1,10.48,10.48,0,0,0,2.78-2.57c.29-.54.59-.13.5.66a6.12,6.12,0,0,1-1.34,2.66c-.72,1-.45,2.29.75,4.08a7.08,7.08,0,0,0,1.94,2.2,7.67,7.67,0,0,0,1.93-2.2c1.21-1.79,1.45-3.11.74-4.08a5.85,5.85,0,0,1-1.33-2.66c-.1-.79.19-1.2.5-.66a10.33,10.33,0,0,0,2.78,2.57,3.43,3.43,0,0,0,3.17-.1c1.25-.84,1-1.53-.78-2a12.85,12.85,0,0,1-1.38-.44,4.5,4.5,0,0,1-1.88-2.19c-.25-.8-.25-2.12,0-2.23s.64.36,1.28.92c1.43,1.38,2.54,1.92,3.8,1.92a2.72,2.72,0,0,0,2.41-1c.73-1,0-1.66-2.17-1.94s-3-.82-3.38-2.09c-.16-.61-.13-.74.07-1s.37-.16,1.42.48a3.71,3.71,0,0,0,2.42.77,3,3,0,0,0,1.77-.26,3.16,3.16,0,0,0,1.33-1.5c0-.33-.82-.62-2-.79a7,7,0,0,1-4-2,14.56,14.56,0,0,1-4-9.06c0-1,0-1.33.29-1.61.78-.84,1.72-.15,3.43,2.5a42.46,42.46,0,0,1,3.2,6.16c.19.58.26.63.82.63a6.8,6.8,0,0,0,2.93-1.35l.49-.41,3.29,1.28c1.82.69,3.39,1.28,3.5,1.28.5,0,.13.35-.87.81s-1.17.44-1.48.31c-.75-.28-1.35,0-2.39,1-.85.87-.93,1-.93,1.69a3.66,3.66,0,0,0,.09,1,2.62,2.62,0,0,0,.58-.57c.51-.71.84-.86,1.62-.63a1.5,1.5,0,0,0,1.89-.72c.19-.36.62-.64,1.75-1.17,2.31-1.08,2.18-1.08,4.24.2,1.5.95,1.8,1.18,2.09,1.81a2.1,2.1,0,0,0,2.07,1.33c.81,0,.94.13,1.27.67.21.28,0-.21.69,1.42.63-1.48.54-1.63.31-2.47-.1-.38-.26-1-.31-1.28-.25-.89-1.07-1.35-2.49-1.33a3.08,3.08,0,0,1-2.43-.79c-.75-.41-1.29-.76-1.18-.76s1.26,0,2.59,0a8.33,8.33,0,0,1,2.88.23,3.1,3.1,0,0,0,2.14.07,5.79,5.79,0,0,0,.74-.53c.34-.31.46-.34,1.54-.18a5.43,5.43,0,0,0,1.23.13,2,2,0,0,0-1-1.28M75.82,27.81c.36-.23-.28-.9.42-.87a2.87,2.87,0,0,1,.74.15c.53.1.78.69.46,1a3.27,3.27,0,0,1-2.47.18c-.6-1.61.44-.18.85-.46M53,28.27a3.29,3.29,0,0,1-2.48-.18c-.33-.31,0-.9.46-1a3,3,0,0,1,.74-.15c.72,0,.08.64.41.87s1.48-1.15.87.46"/></g></g></g></g></g></g></g></svg>