<svg id="Layer_1" data-name="Layer 1" xmlns="http://www.w3.org/2000/svg" xmlns:xlink="http://www.w3.org/1999/xlink" viewBox="0 0 128 128"><defs><style>.cls-1{fill:none;}.cls-2{clip-path:url(#clip-path);}.cls-3{clip-path:url(#clip-path-2);}.cls-4{fill:#bc1f33;}.cls-5{fill:#f0d530;}</style><clipPath id="clip-path"><circle class="cls-1" cx="64" cy="64" r="64"/></clipPath><clipPath id="clip-path-2"><rect id="_Clipping_Path_" data-name="&lt;Clipping Path&gt;" class="cls-1" x="-45.71" width="219.43" height="128"/></clipPath></defs><title>Flag_circle_Angola</title><g class="cls-2"><g id="ANGOLA"><g id="_Group_" data-name="&lt;Group&gt;"><g id="_Clip_Group_" data-name="&lt;Clip Group&gt;"><g class="cls-3"><rect id="_Path_" data-name="&lt;Path&gt;" class="cls-4" x="-45.71" width="219.43" height="128"/><rect id="_Path_2" data-name="&lt;Path&gt;" x="-45.71" y="63.97" width="219.43" height="64.03"/><polygon id="_Path_3" data-name="&lt;Path&gt;" class="cls-5" points="54.23 61.8 60.99 56.88 67.75 61.8 65.17 53.86 71.94 48.91 63.58 48.91 60.99 40.96 58.39 48.91 50.03 48.91 56.81 53.86 54.23 61.8"/><g id="_Clip_Group_2" data-name="&lt;Clip Group&gt;"><g class="cls-3"><path id="_Compound_Path_" data-name="&lt;Compound Path&gt;" class="cls-5" d="M97.07,101.08a17.93,17.93,0,0,0-3.8-4.21c-1.61-1.41-3.82-3-5.44-4.57l-3.12,3.62c-.14.18-.09.54.07.57a9.92,9.92,0,0,1,6,3c1.88,1.87,2.65,4.17,3.87,5,2.26,1.58,3.9-1.07,2.44-3.45m-8.19-5.79a.46.46,0,0,1-.43-.44.44.44,0,0,1,.43-.43.42.42,0,0,1,.44.43.44.44,0,0,1-.44.44M92.05,98a.42.42,0,0,1-.42-.46.41.41,0,0,1,.42-.41.42.42,0,0,1,.44.41.43.43,0,0,1-.44.46m2.8,2.81a.41.41,0,0,1-.43-.41.4.4,0,0,1,.43-.43.39.39,0,0,1,.41.43.41.41,0,0,1-.41.41"/><path id="_Path_4" data-name="&lt;Path&gt;" class="cls-5" d="M69.11,87.62A25.06,25.06,0,0,1,61,89a24.66,24.66,0,0,1-15.75-5.77l-3.65,4.44A32,32,0,0,0,46.54,91l-1.22,2.32a31.85,31.85,0,0,0,6,2.51l.75-2.48a29.54,29.54,0,0,0,5.9,1.2l-.24,2.55a33.92,33.92,0,0,0,6.53,0L64,94.57a30,30,0,0,0,5.91-1.15l.75,2.43c1-.31,2-.67,3-1.08l-1.35-5.23Z"/><path id="_Path_5" data-name="&lt;Path&gt;" class="cls-5" d="M86,64a24.92,24.92,0,0,1-8.84,19l7,4.88a35.6,35.6,0,0,0,2.59-2.81l-2-1.63a29,29,0,0,0,3.34-5l2.25,1.26a33.22,33.22,0,0,0,2.5-6l-2.44-.77A29.93,29.93,0,0,0,91.56,67l2.55.23a35.39,35.39,0,0,0,0-6.51L91.56,61a31.15,31.15,0,0,0-1.18-5.9l2.45-.74a32.64,32.64,0,0,0-2.5-6.06L88,49.55a31.71,31.71,0,0,0-3.35-5l2-1.69a31.83,31.83,0,0,0-4.62-4.59l-1.67,2.09a32,32,0,0,0-5-3.32l1.27-2.4a36,36,0,0,0-6-2.48l-.78,2.61a30.34,30.34,0,0,0-5.69-1.13l-.59,5.67A24.89,24.89,0,0,1,86,64"/><path id="_Path_6" data-name="&lt;Path&gt;" class="cls-5" d="M76.22,86.42C69.63,81.75,62.83,77,57.09,71.56a.12.12,0,0,1,0-.18.15.15,0,0,1,.2,0c5.7,5.41,12.5,10.17,19.09,14.81,3.26,2.28,6.63,4.68,9.81,7.08l1-1.18c-11-7.84-36.93-25.87-37.25-32.43-5.13,10,1.37,16,5.54,18.36,10.67,6,17.73,10,28.82,17.44l1.71-2c-3.19-2.4-6.55-4.8-9.79-7"/></g></g></g></g></g></g></g></svg>