<svg id="Layer_1" data-name="Layer 1" xmlns="http://www.w3.org/2000/svg" xmlns:xlink="http://www.w3.org/1999/xlink" viewBox="0 0 128 128"><defs><style>.cls-1{fill:none;}.cls-2{clip-path:url(#clip-path);}.cls-3{clip-path:url(#clip-path-2);}.cls-4{fill:#fff;}.cls-5{fill:#7fa5d7;}.cls-6{fill:#f0bc50;}.cls-7{fill:#7b361c;}</style><clipPath id="clip-path"><circle class="cls-1" cx="64" cy="64" r="64"/></clipPath><clipPath id="clip-path-2"><rect id="_Clipping_Path_" data-name="&lt;Clipping Path&gt;" class="cls-1" x="-45.5" width="219" height="128"/></clipPath></defs><title>Flag_circle_Argentina</title><g class="cls-2"><g id="ARGENTINA"><g id="_Group_" data-name="&lt;Group&gt;"><g id="_Clip_Group_" data-name="&lt;Clip Group&gt;"><g class="cls-3"><rect id="_Path_" data-name="&lt;Path&gt;" class="cls-4" x="-45.5" y="42.67" width="219" height="42.67"/><rect id="_Path_2" data-name="&lt;Path&gt;" class="cls-5" x="-45.5" width="219" height="42.67"/><rect id="_Path_3" data-name="&lt;Path&gt;" class="cls-5" x="-45.5" y="85.34" width="219" height="42.66"/><g id="_Clip_Group_2" data-name="&lt;Clip Group&gt;"><g class="cls-3"><path id="_Path_4" data-name="&lt;Path&gt;" class="cls-6" d="M63.13,64l.66,17.47s0,.33.22.33.2-.33.2-.33L64.87,64Z"/><g id="_Group_2" data-name="&lt;Group&gt;"><path id="_Path_5" data-name="&lt;Path&gt;" class="cls-7" d="M64,81.83c-.22,0-.27-.26-.27-.38L63.08,64l.11,0,.64,17.47s0,.27.18.27.15-.27.15-.27L64.82,64l-.53,17.47c0,.12-.08.38-.28.38Z"/></g><polygon id="_Path_6" data-name="&lt;Path&gt;" class="cls-7" points="63.57 63.98 64.01 75.98 64.43 63.98 63.57 63.98"/><path id="_Path_7" data-name="&lt;Path&gt;" class="cls-6" d="M62.36,69.63c-1,2.2-.16,4-1.13,5.91s-.4,3.49-.45,4.38-.78,1.13-.61,1.33.94-.19,1.22-1.38S61,78,62.17,75.69s.27-3.42,1.48-5.52Z"/><g id="_Group_3" data-name="&lt;Group&gt;"><path id="_Path_8" data-name="&lt;Path&gt;" class="cls-7" d="M60.36,81.35l-.24-.06c-.09-.13,0-.26.14-.4a1.55,1.55,0,0,0,.45-1,4.31,4.31,0,0,0,0-.85,5.47,5.47,0,0,1,.51-3.54,6.34,6.34,0,0,0,.54-2.83,7.32,7.32,0,0,1,.6-3.08l.09,0a7.39,7.39,0,0,0-.57,3,6.79,6.79,0,0,1-.56,2.86,5.6,5.6,0,0,0-.5,3.5c0,.33,0,.61,0,.86a1.8,1.8,0,0,1-.49,1c-.13.15-.17.2-.13.25.43,0,.93-.47,1.15-1.35a4,4,0,0,0,.06-1.08,5.26,5.26,0,0,1,.73-3.12,6.42,6.42,0,0,0,.71-2.82,5.46,5.46,0,0,1,.74-2.7,6.88,6.88,0,0,0-.64,2.7,6.69,6.69,0,0,1-.71,2.86,5.6,5.6,0,0,0-.74,3.06,4,4,0,0,1-.07,1.14,1.88,1.88,0,0,1-1,1.44Z"/></g><path id="_Path_9" data-name="&lt;Path&gt;" class="cls-7" d="M62.66,70.19c-.8,2.19,0,3.63-1,5.5,1.16-1.34.39-3,1.39-5.32Z"/><path id="_Path_10" data-name="&lt;Path&gt;" class="cls-6" d="M64.87,64l-.66-17.44s0-.32-.2-.32-.22.32-.22.32L63.13,64Z"/><g id="_Group_4" data-name="&lt;Group&gt;"><path id="_Path_11" data-name="&lt;Path&gt;" class="cls-7" d="M64.82,64l-.66-17.45s0-.28-.15-.28-.18.27-.18.27L63.19,64l.55-17.46c0-.14,0-.39.27-.39s.28.25.28.39L65,64l-.13,0Z"/></g><polygon id="_Path_12" data-name="&lt;Path&gt;" class="cls-7" points="64.43 63.98 64.01 52.02 63.57 63.98 64.43 63.98"/><path id="_Path_13" data-name="&lt;Path&gt;" class="cls-6" d="M65.65,58.35c1-2.18.14-4,1.13-5.9s.39-3.5.44-4.37.8-1.13.61-1.34-.92.21-1.22,1.37.42,1.84-.79,4.2-.23,3.4-1.44,5.51Z"/><g id="_Group_5" data-name="&lt;Group&gt;"><path id="_Path_14" data-name="&lt;Path&gt;" class="cls-7" d="M65.7,58.37l-.09,0a7.84,7.84,0,0,0,.56-3,6.3,6.3,0,0,1,.58-2.88,5.62,5.62,0,0,0,.47-3.48c0-.34,0-.64,0-.86a1.69,1.69,0,0,1,.47-1c.14-.16.17-.21.14-.25-.42,0-.91.46-1.13,1.34a2.92,2.92,0,0,0-.06,1.09,5.47,5.47,0,0,1-.74,3.12,6.46,6.46,0,0,0-.72,2.83,5.48,5.48,0,0,1-.72,2.68,7,7,0,0,0,.61-2.7,6.39,6.39,0,0,1,.73-2.86,5.06,5.06,0,0,0,.71-3.07,3.81,3.81,0,0,1,.08-1.1,1.84,1.84,0,0,1,1-1.46h0l.24.08c.12.11,0,.24-.13.38a1.58,1.58,0,0,0-.46,1,4.31,4.31,0,0,0,0,.85,5.78,5.78,0,0,1-.49,3.54,6.22,6.22,0,0,0-.57,2.83,7.29,7.29,0,0,1-.57,3.07Z"/></g><path id="_Path_15" data-name="&lt;Path&gt;" class="cls-7" d="M65.37,57.79c.8-2.17-.05-3.63,1-5.48-1.16,1.33-.42,3-1.42,5.29Z"/><path id="_Path_16" data-name="&lt;Path&gt;" class="cls-6" d="M64,63.12l-17.43.64s-.33,0-.33.22.33.24.33.24L64,64.87Z"/><g id="_Group_6" data-name="&lt;Group&gt;"><path id="_Path_17" data-name="&lt;Path&gt;" class="cls-7" d="M64,64.82l-17.44-.56c-.11,0-.37-.05-.37-.28s.26-.25.37-.25L64,63.07v.11l-17.44.65s-.28,0-.28.15.28.18.28.18L64,64.82Z"/></g><polygon id="_Path_18" data-name="&lt;Path&gt;" class="cls-7" points="64.01 63.55 52.05 63.98 64.01 64.43 64.01 63.55"/><path id="_Path_19" data-name="&lt;Path&gt;" class="cls-6" d="M58.37,62.35c-2.18-1-4-.16-5.87-1.15s-3.51-.37-4.4-.44-1.11-.8-1.33-.6.22.92,1.38,1.22,1.84-.4,4.18.79,3.42.26,5.52,1.47Z"/><g id="_Group_7" data-name="&lt;Group&gt;"><path id="_Path_20" data-name="&lt;Path&gt;" class="cls-7" d="M57.88,63.58A7.5,7.5,0,0,0,55.17,63a6.39,6.39,0,0,1-2.86-.73,5.2,5.2,0,0,0-3.05-.72,3.5,3.5,0,0,1-1.11-.07c-.88-.22-1.38-.7-1.45-1v0l.06-.23c.15-.12.27,0,.41.13a1.47,1.47,0,0,0,1,.47,5.25,5.25,0,0,0,.82-.06,5.81,5.81,0,0,1,3.57.5,6,6,0,0,0,2.82.56,7.35,7.35,0,0,1,3.06.58l0,.11a7.47,7.47,0,0,0-3-.58,6.14,6.14,0,0,1-2.88-.57A5.6,5.6,0,0,0,49,60.76a4.62,4.62,0,0,1-.88.05,1.6,1.6,0,0,1-1-.49c-.14-.12-.2-.16-.25-.12.05.43.44.9,1.35,1.12a3.56,3.56,0,0,0,1.08.07,5.28,5.28,0,0,1,3.1.74,6.45,6.45,0,0,0,2.81.72,5.66,5.66,0,0,1,2.71.73Z"/></g><path id="_Path_21" data-name="&lt;Path&gt;" class="cls-7" d="M57.82,62.61c-2.17-.76-3.61.06-5.49-1,1.33,1.17,3.06.39,5.3,1.41Z"/><path id="_Path_22" data-name="&lt;Path&gt;" class="cls-6" d="M64,64.87l17.42-.65s.32,0,.32-.24-.32-.22-.32-.22L64,63.12Z"/><g id="_Group_8" data-name="&lt;Group&gt;"><path id="_Path_23" data-name="&lt;Path&gt;" class="cls-7" d="M64,64.93v-.11l17.42-.66s.27,0,.27-.18-.27-.15-.27-.15L64,63.18l17.42.55c.11,0,.36.05.36.25s-.25.28-.36.28L64,64.93Z"/></g><polygon id="_Path_24" data-name="&lt;Path&gt;" class="cls-7" points="64.01 64.43 75.96 63.98 64.01 63.55 64.01 64.43"/><path id="_Path_25" data-name="&lt;Path&gt;" class="cls-6" d="M69.63,65.64c2.2,1,4,.14,5.91,1.15s3.48.37,4.36.45,1.11.78,1.32.59S81,66.9,79.85,66.6,78,67,75.68,65.81s-3.43-.24-5.5-1.45Z"/><g id="_Group_9" data-name="&lt;Group&gt;"><path id="_Path_26" data-name="&lt;Path&gt;" class="cls-7" d="M81.15,67.92a.47.47,0,0,1-.28-.17,1.55,1.55,0,0,0-1-.46,3.8,3.8,0,0,0-.85.06,5.8,5.8,0,0,1-3.54-.51,6.1,6.1,0,0,0-2.84-.57,7.36,7.36,0,0,1-3.07-.58l.05-.1a7.23,7.23,0,0,0,3,.57,6.6,6.6,0,0,1,2.9.58,5.43,5.43,0,0,0,3.45.49,4.71,4.71,0,0,1,.88,0,1.61,1.61,0,0,1,1,.48c.17.14.22.15.24.13,0-.42-.44-.91-1.32-1.12a3.41,3.41,0,0,0-1.08-.09,5,5,0,0,1-3.11-.73,6.63,6.63,0,0,0-2.81-.71,5.62,5.62,0,0,1-2.7-.75,6.87,6.87,0,0,0,2.7.63,6.88,6.88,0,0,1,2.86.75,5.1,5.1,0,0,0,3.06.7,3.51,3.51,0,0,1,1.1.08,1.9,1.9,0,0,1,1.44,1v0l-.07.23s0,0-.09,0Z"/></g><path id="_Path_27" data-name="&lt;Path&gt;" class="cls-7" d="M70.18,65.36c2.19.79,3.64,0,5.5,1-1.32-1.16-3.05-.39-5.3-1.41Z"/><path id="_Path_28" data-name="&lt;Path&gt;" class="cls-6" d="M63.38,63.37,51.53,76.18s-.22.23-.06.39.36-.09.36-.09L64.62,64.61Z"/><g id="_Group_10" data-name="&lt;Group&gt;"><path id="_Path_29" data-name="&lt;Path&gt;" class="cls-7" d="M51.58,76.68a.33.33,0,0,1-.09-.54l11.85-12.8.09.07L51.58,76.22s-.19.19-.09.3.33-.08.33-.08L64.59,64.58l-12.7,12a.55.55,0,0,1-.31.15Z"/></g><polygon id="_Path_30" data-name="&lt;Path&gt;" class="cls-7" points="63.69 63.68 55.56 72.46 64.33 64.3 63.69 63.68"/><path id="_Path_31" data-name="&lt;Path&gt;" class="cls-6" d="M58.86,66.82c-2.27.83-2.93,2.72-5,3.36s-2.74,2.2-3.4,2.79-1.35.23-1.38.51.8.51,1.85-.11,1-1.59,3.49-2.4,2.59-2.23,4.93-2.85Z"/><g id="_Group_11" data-name="&lt;Group&gt;"><path id="_Path_32" data-name="&lt;Path&gt;" class="cls-7" d="M49.71,73.81a1.1,1.1,0,0,1-.5-.1l-.14-.23c0-.18.16-.18.36-.19a1.68,1.68,0,0,0,1-.37,2.88,2.88,0,0,0,.53-.63,5.84,5.84,0,0,1,2.89-2.17,6,6,0,0,0,2.39-1.59,7.38,7.38,0,0,1,2.58-1.75l0,.09a7.81,7.81,0,0,0-2.55,1.74,6,6,0,0,1-2.43,1.62,5.61,5.61,0,0,0-2.82,2.13,4.81,4.81,0,0,1-.56.64,1.79,1.79,0,0,1-1.09.41c-.17,0-.26,0-.26.07a1.59,1.59,0,0,0,1.75-.15,3.92,3.92,0,0,0,.83-.73,5.31,5.31,0,0,1,2.71-1.68A6.77,6.77,0,0,0,57,69.45a5.35,5.35,0,0,1,2.44-1.4A7.1,7.1,0,0,0,57,69.52,6.23,6.23,0,0,1,54.49,71a5.26,5.26,0,0,0-2.67,1.66,3.35,3.35,0,0,1-.84.73,2.4,2.4,0,0,1-1.27.4Z"/></g><path id="_Path_33" data-name="&lt;Path&gt;" class="cls-7" d="M58.65,67.41c-2.09,1-2.53,2.59-4.56,3.17,1.75-.12,2.41-1.87,4.73-2.75Z"/><path id="_Path_34" data-name="&lt;Path&gt;" class="cls-6" d="M64.62,64.61,76.47,51.82s.23-.24.09-.4-.4.07-.4.07L63.38,63.37Z"/><g id="_Group_12" data-name="&lt;Group&gt;"><path id="_Path_35" data-name="&lt;Path&gt;" class="cls-7" d="M64.66,64.64l-.07,0L76.45,51.78s.16-.2.06-.32-.31.07-.31.07L63.41,63.41l12.73-12c.06-.08.31-.21.45-.07s0,.37-.08.46L64.66,64.64Z"/></g><polygon id="_Path_36" data-name="&lt;Path&gt;" class="cls-7" points="64.33 64.3 72.47 55.53 63.69 63.68 64.33 64.3"/><path id="_Path_37" data-name="&lt;Path&gt;" class="cls-6" d="M69.16,61.17c2.24-.84,2.9-2.72,5-3.36s2.74-2.21,3.4-2.79,1.35-.23,1.35-.51-.78-.52-1.82.11S76,56.2,73.54,57,71,59.26,68.63,59.89Z"/><g id="_Group_13" data-name="&lt;Group&gt;"><path id="_Path_38" data-name="&lt;Path&gt;" class="cls-7" d="M69.16,61.22l0-.09a7.68,7.68,0,0,0,2.54-1.75,6,6,0,0,1,2.46-1.63,5.51,5.51,0,0,0,2.79-2.11A4.45,4.45,0,0,1,77.5,55a1.7,1.7,0,0,1,1.07-.39c.2,0,.26,0,.26-.08-.33-.27-1-.3-1.75.15a3.48,3.48,0,0,0-.8.72,5.6,5.6,0,0,1-2.73,1.7A6.37,6.37,0,0,0,71,58.55a5.48,5.48,0,0,1-2.41,1.39A6.42,6.42,0,0,0,71,58.46,6.41,6.41,0,0,1,73.54,57a5.35,5.35,0,0,0,2.64-1.66,4.39,4.39,0,0,1,.85-.75,1.93,1.93,0,0,1,1.76-.28l.15.23c0,.16-.17.17-.37.19a1.47,1.47,0,0,0-1,.35,4.73,4.73,0,0,0-.57.64,5.54,5.54,0,0,1-2.86,2.15,6.24,6.24,0,0,0-2.42,1.61,7.4,7.4,0,0,1-2.57,1.76Z"/></g><path id="_Path_39" data-name="&lt;Path&gt;" class="cls-7" d="M69.35,60.58c2.1-1,2.55-2.6,4.58-3.16-1.74.11-2.43,1.86-4.72,2.74Z"/><path id="_Path_40" data-name="&lt;Path&gt;" class="cls-6" d="M64.62,63.37,51.83,51.49s-.22-.22-.36-.07.06.4.06.4L63.38,64.61Z"/><g id="_Group_14" data-name="&lt;Group&gt;"><path id="_Path_41" data-name="&lt;Path&gt;" class="cls-7" d="M63.43,64.59,51.49,51.84c-.08-.09-.22-.3-.05-.45s.36,0,.45.06L64.66,63.34l-.07.07L51.82,51.54s-.21-.18-.33-.08.06.31.09.31L63.43,64.59Z"/></g><polygon id="_Path_42" data-name="&lt;Path&gt;" class="cls-7" points="64.33 63.68 55.56 55.53 63.69 64.3 64.33 63.68"/><path id="_Path_43" data-name="&lt;Path&gt;" class="cls-6" d="M61.18,58.85c-.82-2.27-2.69-2.93-3.36-5s-2.17-2.74-2.76-3.42-.24-1.34-.52-1.36-.5.81.09,1.84,1.6,1,2.42,3.52S59.27,57,59.9,59.38Z"/><g id="_Group_15" data-name="&lt;Group&gt;"><path id="_Path_44" data-name="&lt;Path&gt;" class="cls-7" d="M60,59.36A7,7,0,0,0,58.49,57,6.4,6.4,0,0,1,57,54.46a5.41,5.41,0,0,0-1.66-2.68,3.05,3.05,0,0,1-.75-.84,1.9,1.9,0,0,1-.27-1.76l.24-.17c.14,0,.17.19.17.38a1.75,1.75,0,0,0,.35,1,6.27,6.27,0,0,0,.67.57,5.65,5.65,0,0,1,2.13,2.86,6.29,6.29,0,0,0,1.6,2.4,8,8,0,0,1,1.77,2.58l-.11,0a7.21,7.21,0,0,0-1.75-2.55,6.41,6.41,0,0,1-1.62-2.45,5.7,5.7,0,0,0-2.1-2.8,7,7,0,0,1-.66-.58,1.8,1.8,0,0,1-.38-1.08c0-.19,0-.26-.09-.27a1.59,1.59,0,0,0,.14,1.76,3.61,3.61,0,0,0,.74.81,5.65,5.65,0,0,1,1.68,2.72,6.48,6.48,0,0,0,1.45,2.51A5.55,5.55,0,0,1,60,59.36Z"/></g><path id="_Path_45" data-name="&lt;Path&gt;" class="cls-7" d="M60.62,58.64c-1-2.1-2.63-2.54-3.2-4.59.12,1.75,1.9,2.43,2.75,4.75Z"/><path id="_Path_46" data-name="&lt;Path&gt;" class="cls-6" d="M63.38,64.61,76.16,76.48s.23.23.4.09-.09-.39-.09-.39L64.62,63.37Z"/><g id="_Group_16" data-name="&lt;Group&gt;"><path id="_Path_47" data-name="&lt;Path&gt;" class="cls-7" d="M76.42,76.61a.36.36,0,0,1-.28-.09L63.34,64.66l.07-.08L76.2,76.44s.19.22.31.08-.06-.3-.06-.3L64.59,63.41,76.51,76.14c.1.11.22.32.08.46Z"/></g><polygon id="_Path_48" data-name="&lt;Path&gt;" class="cls-7" points="63.69 64.3 72.47 72.46 64.33 63.68 63.69 64.3"/><path id="_Path_49" data-name="&lt;Path&gt;" class="cls-6" d="M66.81,69.16c.85,2.25,2.73,2.9,3.37,5s2.19,2.74,2.76,3.4.24,1.36.52,1.38.53-.8-.1-1.84-1.58-1-2.38-3.52S68.72,71,68.11,68.62Z"/><g id="_Group_17" data-name="&lt;Group&gt;"><path id="_Path_50" data-name="&lt;Path&gt;" class="cls-7" d="M73.46,79c-.16,0-.16-.18-.19-.37a1.72,1.72,0,0,0-.35-1,4.73,4.73,0,0,0-.64-.56,5.56,5.56,0,0,1-2.16-2.87,5.94,5.94,0,0,0-1.6-2.41,7.93,7.93,0,0,1-1.76-2.57l.1,0a7.43,7.43,0,0,0,1.75,2.54,6.22,6.22,0,0,1,1.62,2.45,5.8,5.8,0,0,0,2.11,2.82,3.19,3.19,0,0,1,.65.58,1.48,1.48,0,0,1,.37,1.06c0,.21,0,.27.1.27a1.51,1.51,0,0,0-.14-1.74,3.61,3.61,0,0,0-.71-.83,5.26,5.26,0,0,1-1.68-2.71,6.57,6.57,0,0,0-1.49-2.51,5.57,5.57,0,0,1-1.37-2.42A6.21,6.21,0,0,0,69.54,71,6.84,6.84,0,0,1,71,73.54a5.29,5.29,0,0,0,1.64,2.66,3.59,3.59,0,0,1,.74.85,1.87,1.87,0,0,1,.28,1.76l-.23.15Z"/></g><path id="_Path_51" data-name="&lt;Path&gt;" class="cls-7" d="M67.41,69.34c1,2.11,2.6,2.54,3.17,4.6-.12-1.77-1.87-2.44-2.75-4.74Z"/><path id="_Path_52" data-name="&lt;Path&gt;" class="cls-6" d="M63.19,63.66,57.14,80s-.12.3.07.38.33-.21.33-.21L64.8,64.33Z"/><g id="_Group_18" data-name="&lt;Group&gt;"><path id="_Path_53" data-name="&lt;Path&gt;" class="cls-7" d="M57.35,80.47c-.35-.09-.3-.33-.25-.46l6-16.37.1,0L57.19,80.05s-.09.26,0,.32l.26-.2,7.27-15.86L57.58,80.23a.41.41,0,0,1-.23.24Z"/></g><polygon id="_Path_54" data-name="&lt;Path&gt;" class="cls-7" points="63.62 63.83 59.43 75.07 64.4 64.16 63.62 63.83"/><path id="_Path_55" data-name="&lt;Path&gt;" class="cls-6" d="M60.34,68.58c-1.76,1.64-1.66,3.62-3.32,5s-1.68,3.09-2.09,3.88-1.15.74-1.06,1,1,.17,1.66-.8.33-1.86,2.35-3.57,1.51-3,3.42-4.53Z"/><g id="_Group_19" data-name="&lt;Group&gt;"><path id="_Path_56" data-name="&lt;Path&gt;" class="cls-7" d="M54.15,78.64h-.09l-.24-.15c-.06-.15.1-.23.27-.3a1.73,1.73,0,0,0,.8-.73,4.46,4.46,0,0,0,.28-.83A5.63,5.63,0,0,1,57,73.56a6.69,6.69,0,0,0,1.6-2.41,7.5,7.5,0,0,1,1.68-2.62l.08.09a7.74,7.74,0,0,0-1.68,2.56,6.07,6.07,0,0,1-1.63,2.44,5.8,5.8,0,0,0-1.79,3,5.31,5.31,0,0,1-.28.83,1.58,1.58,0,0,1-.85.77c-.17.09-.23.13-.21.18.43.13,1-.08,1.56-.81a3.21,3.21,0,0,0,.47-1,5.62,5.62,0,0,1,1.87-2.6,6.67,6.67,0,0,0,1.75-2.33,5.61,5.61,0,0,1,1.71-2.21,7.17,7.17,0,0,0-1.61,2.24,6.67,6.67,0,0,1-1.78,2.38,5.5,5.5,0,0,0-1.84,2.55,3.86,3.86,0,0,1-.48,1,2.1,2.1,0,0,1-1.42.94Z"/></g><path id="_Path_57" data-name="&lt;Path&gt;" class="cls-7" d="M60.39,69.2c-1.57,1.72-1.35,3.37-3,4.68,1.58-.77,1.53-2.66,3.32-4.34Z"/><path id="_Path_58" data-name="&lt;Path&gt;" class="cls-6" d="M64.8,64.33,70.89,48s.11-.29-.1-.37-.31.21-.31.21L63.19,63.66Z"/><g id="_Group_20" data-name="&lt;Group&gt;"><path id="_Path_59" data-name="&lt;Path&gt;" class="cls-7" d="M64.87,64.34l-.11,0,6-16.38s.12-.24,0-.31l-.26.19L63.24,63.68,70.4,47.77a.61.61,0,0,1,.25-.24l.3.12a.55.55,0,0,1,0,.32L64.87,64.34Z"/></g><polygon id="_Path_60" data-name="&lt;Path&gt;" class="cls-7" points="64.4 64.16 68.59 52.93 63.62 63.83 64.4 64.16"/><path id="_Path_61" data-name="&lt;Path&gt;" class="cls-6" d="M67.69,59.42c1.75-1.65,1.66-3.64,3.31-5s1.67-3.09,2.06-3.88,1.18-.73,1.09-1-.94-.17-1.66.79-.33,1.86-2.34,3.57S68.61,57,66.7,58.43Z"/><g id="_Group_21" data-name="&lt;Group&gt;"><path id="_Path_62" data-name="&lt;Path&gt;" class="cls-7" d="M67.71,59.46l-.07-.08a7.14,7.14,0,0,0,1.68-2.59A6,6,0,0,1,71,54.36a5.64,5.64,0,0,0,1.8-3,5.53,5.53,0,0,1,.28-.82,1.65,1.65,0,0,1,.84-.78c.15-.09.26-.13.23-.19-.45-.12-1,.09-1.55.81a3.84,3.84,0,0,0-.51,1,5.21,5.21,0,0,1-1.86,2.61,6.63,6.63,0,0,0-1.74,2.32,5.45,5.45,0,0,1-1.69,2.2,7.37,7.37,0,0,0,1.6-2.25,6.39,6.39,0,0,1,1.75-2.35A5.46,5.46,0,0,0,72,51.31a4.55,4.55,0,0,1,.49-1c.53-.71,1.14-1,1.52-.93l.23.16c0,.14-.09.22-.26.3a1.46,1.46,0,0,0-.8.73,3.17,3.17,0,0,0-.28.81A5.61,5.61,0,0,1,71,54.44a6.38,6.38,0,0,0-1.62,2.4,7.34,7.34,0,0,1-1.7,2.62Z"/></g><path id="_Path_63" data-name="&lt;Path&gt;" class="cls-7" d="M67.64,58.8c1.57-1.72,1.35-3.38,3-4.69-1.59.78-1.54,2.66-3.34,4.35Z"/><path id="_Path_64" data-name="&lt;Path&gt;" class="cls-6" d="M64.32,63.19,48,57.12s-.3-.13-.39.07.25.33.25.33L63.67,64.8Z"/><g id="_Group_22" data-name="&lt;Group&gt;"><path id="_Path_65" data-name="&lt;Path&gt;" class="cls-7" d="M63.69,64.76,47.82,57.57c-.13-.06-.33-.2-.27-.41a.35.35,0,0,1,.46-.09l16.34,6.06,0,.1L48,57.16s-.27-.1-.34.05.2.26.2.26l15.84,7.29Z"/></g><polygon id="_Path_66" data-name="&lt;Path&gt;" class="cls-7" points="64.16 63.6 52.94 59.4 63.83 64.4 64.16 63.6"/><path id="_Path_67" data-name="&lt;Path&gt;" class="cls-6" d="M59.43,60.32c-1.63-1.78-3.62-1.66-5-3.33s-3.06-1.69-3.86-2.08-.73-1.15-1-1.07-.19.94.8,1.66,1.85.33,3.55,2.34,3,1.54,4.54,3.45Z"/><g id="_Group_23" data-name="&lt;Group&gt;"><path id="_Path_68" data-name="&lt;Path&gt;" class="cls-7" d="M58.49,61.26a6.76,6.76,0,0,0-2.26-1.61,6.61,6.61,0,0,1-2.36-1.77A5.28,5.28,0,0,0,51.34,56a3.81,3.81,0,0,1-1-.49A2,2,0,0,1,49.38,54l.16-.22c.14-.06.24.08.32.26a1.53,1.53,0,0,0,.73.8,4,4,0,0,0,.77.26A5.64,5.64,0,0,1,54.46,57a6.32,6.32,0,0,0,2.4,1.61,7.16,7.16,0,0,1,2.62,1.71l-.09.07a7.63,7.63,0,0,0-2.56-1.69A6.24,6.24,0,0,1,54.37,57a5.46,5.46,0,0,0-3-1.79,6.76,6.76,0,0,1-.81-.28,1.68,1.68,0,0,1-.77-.84c-.08-.18-.12-.26-.19-.23-.12.42.08,1,.82,1.57a4.59,4.59,0,0,0,1,.48A5.21,5.21,0,0,1,54,57.81a6.39,6.39,0,0,0,2.32,1.74,5.42,5.42,0,0,1,2.21,1.71Z"/></g><path id="_Path_69" data-name="&lt;Path&gt;" class="cls-7" d="M58.82,60.35c-1.72-1.54-3.38-1.36-4.69-3,.78,1.58,2.65,1.52,4.36,3.33Z"/><path id="_Path_70" data-name="&lt;Path&gt;" class="cls-6" d="M63.67,64.8,80,70.87s.28.13.39-.08-.22-.32-.22-.32L64.32,63.19Z"/><g id="_Group_24" data-name="&lt;Group&gt;"><path id="_Path_71" data-name="&lt;Path&gt;" class="cls-7" d="M80.21,71a.79.79,0,0,1-.22,0L63.65,64.86l0-.1L80,70.83s.23.09.31-.06-.2-.25-.2-.25L64.31,63.23l15.9,7.19c.11.06.33.21.24.39a.26.26,0,0,1-.24.16Z"/></g><polygon id="_Path_72" data-name="&lt;Path&gt;" class="cls-7" points="63.83 64.4 75.04 68.58 64.16 63.6 63.83 64.4"/><path id="_Path_73" data-name="&lt;Path&gt;" class="cls-6" d="M68.57,67.68c1.66,1.77,3.64,1.66,5,3.32s3.07,1.68,3.86,2.07.73,1.17,1,1.08.15-1-.82-1.67-1.83-.31-3.54-2.32S71,68.62,69.56,66.69Z"/><g id="_Group_25" data-name="&lt;Group&gt;"><path id="_Path_74" data-name="&lt;Path&gt;" class="cls-7" d="M78.41,74.21c-.13,0-.19-.14-.27-.29a1.63,1.63,0,0,0-.7-.8,7.22,7.22,0,0,0-.83-.28A5.49,5.49,0,0,1,73.55,71a6,6,0,0,0-2.41-1.6,7.55,7.55,0,0,1-2.6-1.71l.07-.07a7.52,7.52,0,0,0,2.58,1.68A6.26,6.26,0,0,1,73.63,71a5.5,5.5,0,0,0,3,1.8,4.57,4.57,0,0,1,.82.28,1.68,1.68,0,0,1,.77.84c.09.2.12.24.19.22.12-.4-.07-1-.81-1.57a3.34,3.34,0,0,0-1-.46A5.58,5.58,0,0,1,74,70.19a6.12,6.12,0,0,0-2.32-1.75,5.5,5.5,0,0,1-2.16-1.71,6.65,6.65,0,0,0,2.24,1.62,6.33,6.33,0,0,1,2.35,1.77A5.24,5.24,0,0,0,76.68,72a3.05,3.05,0,0,1,1,.49A1.85,1.85,0,0,1,78.61,74l-.14.23Z"/></g><path id="_Path_75" data-name="&lt;Path&gt;" class="cls-7" d="M69.21,67.63c1.69,1.56,3.35,1.35,4.66,3-.79-1.58-2.65-1.54-4.33-3.33Z"/><path id="_Path_76" data-name="&lt;Path&gt;" class="cls-6" d="M63.67,63.19,47.85,70.47s-.31.12-.25.32.39.08.39.08L64.32,64.8Z"/><g id="_Group_26" data-name="&lt;Group&gt;"><path id="_Path_77" data-name="&lt;Path&gt;" class="cls-7" d="M47.82,71a.28.28,0,0,1-.27-.16c-.06-.18.14-.34.27-.39l15.83-7.28,0,.09L47.85,70.52s-.25.11-.2.25.31.06.34.06l16.33-6.07L48,70.92a.59.59,0,0,1-.19,0Z"/></g><polygon id="_Path_78" data-name="&lt;Path&gt;" class="cls-7" points="63.83 63.6 52.94 68.58 64.16 64.4 63.83 63.6"/><path id="_Path_79" data-name="&lt;Path&gt;" class="cls-6" d="M58.18,64.63c-2.41-.09-3.73,1.39-5.9,1.2s-3.35,1-4.18,1.27-1.35-.31-1.47,0,.55.78,1.73.6,1.56-1.08,4.16-.87,3.25-1.08,5.66-.76Z"/><g id="_Group_27" data-name="&lt;Group&gt;"><path id="_Path_80" data-name="&lt;Path&gt;" class="cls-7" d="M47.91,67.74a1.61,1.61,0,0,1-1.28-.45L46.57,67c.09-.15.23-.09.42,0a1.51,1.51,0,0,0,1.06.06,4.2,4.2,0,0,0,.79-.37,5.61,5.61,0,0,1,3.44-.9,6.08,6.08,0,0,0,2.84-.57,7.51,7.51,0,0,1,3.06-.63v.11a7.75,7.75,0,0,0-3,.62,6.25,6.25,0,0,1-2.87.57,5.46,5.46,0,0,0-3.4.9,7.56,7.56,0,0,1-.78.37A1.7,1.7,0,0,1,47,67.1c-.22-.08-.27-.08-.28,0,.21.39.75.68,1.67.53a3.31,3.31,0,0,0,1-.34,5.27,5.27,0,0,1,3.14-.52,6.67,6.67,0,0,0,2.9-.41A5.55,5.55,0,0,1,58.18,66a6.39,6.39,0,0,0-2.74.45,6.68,6.68,0,0,1-2.92.42,5.09,5.09,0,0,0-3.09.51,4.2,4.2,0,0,1-1,.37l-.47,0Z"/></g><path id="_Path_81" data-name="&lt;Path&gt;" class="cls-7" d="M57.77,65.09c-2.32.12-3.32,1.44-5.46,1.18,1.68.57,2.95-.79,5.44-.72Z"/><path id="_Path_82" data-name="&lt;Path&gt;" class="cls-6" d="M64.32,64.8l15.86-7.28s.31-.12.22-.33-.39-.07-.39-.07L63.67,63.19Z"/><g id="_Group_28" data-name="&lt;Group&gt;"><path id="_Path_83" data-name="&lt;Path&gt;" class="cls-7" d="M64.35,64.86l0-.1,15.84-7.29s.27-.1.2-.26-.31-.05-.31-.05L63.69,63.23,80,57.07c.13-.06.38-.09.46.09s-.13.35-.24.41L64.35,64.86Z"/></g><polygon id="_Path_84" data-name="&lt;Path&gt;" class="cls-7" points="64.16 64.4 75.04 59.4 63.83 63.6 64.16 64.4"/><path id="_Path_85" data-name="&lt;Path&gt;" class="cls-6" d="M69.84,63.36c2.39.09,3.74-1.4,5.89-1.2s3.37-1,4.18-1.27,1.35.3,1.48,0-.55-.78-1.76-.61-1.53,1.08-4.15.87-3.25,1.08-5.64.76Z"/><g id="_Group_29" data-name="&lt;Group&gt;"><path id="_Path_86" data-name="&lt;Path&gt;" class="cls-7" d="M70.05,63.41h-.21V63.3a7.37,7.37,0,0,0,3-.63,6.29,6.29,0,0,1,2.88-.56,5.57,5.57,0,0,0,3.4-.89,5,5,0,0,1,.78-.38,1.64,1.64,0,0,1,1.15.06c.18.07.25.08.25,0-.19-.37-.75-.66-1.65-.54a3,3,0,0,0-1,.36,5.43,5.43,0,0,1-3.16.51,6.28,6.28,0,0,0-2.87.43,5.86,5.86,0,0,1-2.77.34,6.59,6.59,0,0,0,2.72-.46,6.82,6.82,0,0,1,2.92-.41,5.26,5.26,0,0,0,3.09-.5,3.26,3.26,0,0,1,1.06-.37,1.85,1.85,0,0,1,1.76.43l0,.26c-.06.14-.23.09-.42,0a1.58,1.58,0,0,0-1.07-.06,5.68,5.68,0,0,0-.75.37,5.59,5.59,0,0,1-3.48.9,6,6,0,0,0-2.82.57,7.86,7.86,0,0,1-2.84.63Z"/></g><path id="_Path_87" data-name="&lt;Path&gt;" class="cls-7" d="M70.25,62.88c2.31-.1,3.33-1.42,5.43-1.17-1.66-.56-3,.81-5.42.74Z"/><path id="_Path_88" data-name="&lt;Path&gt;" class="cls-6" d="M64.8,63.66,57.54,47.79s-.12-.3-.33-.21-.07.37-.07.37l6,16.38Z"/><g id="_Group_30" data-name="&lt;Group&gt;"><path id="_Path_89" data-name="&lt;Path&gt;" class="cls-7" d="M63.24,64.31,57.1,48a.52.52,0,0,1,0-.32l.28-.12a.39.39,0,0,1,.23.24l7.27,15.87-.09,0-7.41-16.1-.12,0,0,.31,6.05,16.38Z"/></g><polygon id="_Path_90" data-name="&lt;Path&gt;" class="cls-7" points="64.4 63.83 59.43 52.93 63.62 64.16 64.4 63.83"/><path id="_Path_91" data-name="&lt;Path&gt;" class="cls-6" d="M63.38,58.16c.09-2.42-1.39-3.75-1.21-5.9s-1-3.38-1.27-4.22.3-1.32.07-1.45-.8.54-.61,1.73,1.08,1.54.87,4.18,1.07,3.24.76,5.65Z"/><g id="_Group_31" data-name="&lt;Group&gt;"><path id="_Path_92" data-name="&lt;Path&gt;" class="cls-7" d="M63.43,58.16h-.11a7.72,7.72,0,0,0-.63-3,6.45,6.45,0,0,1-.58-2.89,5.55,5.55,0,0,0-.88-3.4,5.35,5.35,0,0,1-.38-.77,1.83,1.83,0,0,1,.07-1.16c0-.19.08-.26,0-.28-.41.2-.67.77-.55,1.66a5.18,5.18,0,0,0,.36,1.05,5.37,5.37,0,0,1,.52,3.15,6.68,6.68,0,0,0,.41,2.88A5.58,5.58,0,0,1,62,58.15a6.88,6.88,0,0,0-.45-2.74,6.8,6.8,0,0,1-.42-2.92,5.28,5.28,0,0,0-.49-3.1,3.18,3.18,0,0,1-.36-1,1.89,1.89,0,0,1,.4-1.75l.29-.05c.14.07.09.23,0,.42A1.52,1.52,0,0,0,61,48a6.71,6.71,0,0,0,.38.77,5.76,5.76,0,0,1,.89,3.46,6.08,6.08,0,0,0,.58,2.85,7.63,7.63,0,0,1,.63,3Z"/></g><path id="_Path_93" data-name="&lt;Path&gt;" class="cls-7" d="M62.91,57.75c-.11-2.33-1.41-3.35-1.19-5.46-.56,1.67.81,3,.74,5.44Z"/><path id="_Path_94" data-name="&lt;Path&gt;" class="cls-6" d="M63.19,64.33l7.29,15.88s.12.3.31.21.1-.38.1-.38L64.8,63.66Z"/><g id="_Group_32" data-name="&lt;Group&gt;"><path id="_Path_95" data-name="&lt;Path&gt;" class="cls-7" d="M70.81,80.47a.63.63,0,0,1-.41-.24L63.14,64.35l.1,0,7.29,15.86s.12.27.26.2,0-.31,0-.32l-6-16.37L70.93,80c0,.13.1.37-.12.46Z"/></g><polygon id="_Path_96" data-name="&lt;Path&gt;" class="cls-7" points="63.62 64.16 68.59 75.07 64.4 63.83 63.62 64.16"/><path id="_Path_97" data-name="&lt;Path&gt;" class="cls-6" d="M64.64,69.83c-.1,2.41,1.39,3.75,1.2,5.91s1,3.35,1.25,4.22-.31,1.33,0,1.45.78-.56.61-1.75-1.08-1.54-.88-4.17-1-3.25-.75-5.64Z"/><g id="_Group_33" data-name="&lt;Group&gt;"><path id="_Path_98" data-name="&lt;Path&gt;" class="cls-7" d="M67,81.46c-.17-.07-.09-.25,0-.41a1.54,1.54,0,0,0,0-1.09,4.21,4.21,0,0,0-.38-.78,5.9,5.9,0,0,1-.9-3.46,6.18,6.18,0,0,0-.54-2.82,7.66,7.66,0,0,1-.66-3.07h.11a7.59,7.59,0,0,0,.64,3,6.09,6.09,0,0,1,.57,2.88,5.72,5.72,0,0,0,.87,3.41,3.06,3.06,0,0,1,.38.78,1.6,1.6,0,0,1,0,1.15c-.06.18-.06.24,0,.28.37-.21.66-.78.52-1.69a3,3,0,0,0-.36-1,5.61,5.61,0,0,1-.49-3.15,6.48,6.48,0,0,0-.44-2.88A5.82,5.82,0,0,1,66,69.84a6.9,6.9,0,0,0,.46,2.74,6.67,6.67,0,0,1,.41,2.91,5.45,5.45,0,0,0,.49,3.11,3.61,3.61,0,0,1,.38,1.06,2,2,0,0,1-.42,1.75l-.26,0Z"/></g><path id="_Path_99" data-name="&lt;Path&gt;" class="cls-7" d="M65.1,70.24c.13,2.32,1.43,3.35,1.17,5.46.57-1.68-.79-3-.71-5.42Z"/><path id="_Path_100" data-name="&lt;Path&gt;" class="cls-6" d="M64,56.89A7.11,7.11,0,1,1,56.89,64,7.08,7.08,0,0,1,64,56.89Z"/><g id="_Group_34" data-name="&lt;Group&gt;"><path id="_Compound_Path_" data-name="&lt;Compound Path&gt;" class="cls-7" d="M64,71.16A7.17,7.17,0,1,1,71.17,64,7.16,7.16,0,0,1,64,71.16Zm0-14.22a7.06,7.06,0,1,0,7,7,7.06,7.06,0,0,0-7-7Z"/></g><path id="_Path_101" data-name="&lt;Path&gt;" class="cls-7" d="M68.49,62.46c-1.27-1.08-2.84-1.26-3.73-.42A2.27,2.27,0,0,0,65,64.93a.57.57,0,0,0-.24.09,3.75,3.75,0,0,1-.28-3.1,2.64,2.64,0,0,1,4.06.54Z"/><path id="_Path_102" data-name="&lt;Path&gt;" class="cls-7" d="M66.53,62.13a1.44,1.44,0,0,0-1.21.44c-.33.28-.5.22-.56.28s0,.22.11.16a3.13,3.13,0,0,0,.67-.44,1.36,1.36,0,0,1,1-.27c1,0,1.52.82,1.63.77s-.56-.94-1.63-.94Z"/><path id="_Path_103" data-name="&lt;Path&gt;" class="cls-7" d="M67.75,63.07a1.62,1.62,0,0,0-2.55,0h.22c.55-.88,1.87-.51,2-.11v.11Z"/><path id="_Path_104" data-name="&lt;Path&gt;" class="cls-7" d="M66.42,62.51a.51.51,0,0,1,.49.5.5.5,0,1,1-.49-.5Z"/><path id="_Path_105" data-name="&lt;Path&gt;" class="cls-7" d="M65.2,63.12a2.21,2.21,0,0,0,2.55,0L67.38,63a1.45,1.45,0,0,1-2,.11V63Z"/><path id="_Path_106" data-name="&lt;Path&gt;" class="cls-7" d="M67.83,63.34a2.17,2.17,0,0,1-2.41.33c-.55-.33-.55-.44-.43-.44s.21.11.66.32a2.78,2.78,0,0,0,2.18-.21Z"/><path id="_Path_107" data-name="&lt;Path&gt;" class="cls-7" d="M65.15,65a.29.29,0,0,1,.19.41.3.3,0,0,1-.39.2.33.33,0,0,1-.24-.29.82.82,0,0,1-.7.43H63.9l.11.17a1.11,1.11,0,0,0,.65-.17.5.5,0,0,0,.68.14.5.5,0,0,0,.12-.71.4.4,0,0,0-.31-.18Z"/><path id="_Path_108" data-name="&lt;Path&gt;" class="cls-7" d="M65.79,67.27c-.47-.33-.7-.82-1.25-.82a1.32,1.32,0,0,0-.53.17H63.9l.11.16c.2,0,.53-.27.94,0s.59.43.84.54Z"/><path id="_Path_109" data-name="&lt;Path&gt;" class="cls-7" d="M65.65,67.27A2.88,2.88,0,0,0,64,67.16H63.9l.11.23c.42,0,.65-.33,1.64-.12Z"/><path id="_Path_110" data-name="&lt;Path&gt;" class="cls-7" d="M65.79,67.27c-1.17-.11-.8.61-1.78.61H63.9L64,68c1.19,0,.65-.65,1.78-.77Z"/><path id="_Path_111" data-name="&lt;Path&gt;" class="cls-7" d="M65,69a1,1,0,0,0-1-1,1,1,0,0,0-1,1,1,1,0,0,1,1.23-.74A1,1,0,0,1,65,69Z"/><path id="_Path_112" data-name="&lt;Path&gt;" class="cls-7" d="M59.52,62.46c1.26-1.08,2.84-1.26,3.72-.42a2.32,2.32,0,0,1-.16,2.89.64.64,0,0,1,.21.09,3.71,3.71,0,0,0,.28-3.1,2.63,2.63,0,0,0-4,.54Z"/><path id="_Path_113" data-name="&lt;Path&gt;" class="cls-7" d="M61.5,62.13a1.45,1.45,0,0,1,1.19.44,1.32,1.32,0,0,0,.55.28s0,.22-.11.16a3.41,3.41,0,0,1-.67-.44,1.32,1.32,0,0,0-1-.27c-1,0-1.52.82-1.65.77s.55-.94,1.65-.94Z"/><path id="_Path_114" data-name="&lt;Path&gt;" class="cls-7" d="M60.23,63.07a1.65,1.65,0,0,1,2.58,0h-.23c-.55-.88-1.85-.51-1.94-.11v.11Z"/><path id="_Path_115" data-name="&lt;Path&gt;" class="cls-7" d="M61.61,62.51a.5.5,0,0,0-.5.5.49.49,0,0,0,.5.49.49.49,0,0,0,.47-.49.5.5,0,0,0-.47-.5Z"/><path id="_Path_116" data-name="&lt;Path&gt;" class="cls-7" d="M62.81,63.12a2.25,2.25,0,0,1-2.58,0l.41-.06a1.42,1.42,0,0,0,1.94.11V63Z"/><path id="_Path_117" data-name="&lt;Path&gt;" class="cls-7" d="M60.17,63.34a2.18,2.18,0,0,0,2.41.33c.55-.33.55-.44.43-.44s-.2.11-.65.32a2.81,2.81,0,0,1-2.19-.21Z"/><path id="_Path_118" data-name="&lt;Path&gt;" class="cls-7" d="M62.86,65a.29.29,0,0,0-.18.41.3.3,0,0,0,.4.2.33.33,0,0,0,.21-.29.83.83,0,0,0,.72.43h.11l-.11.17a1.17,1.17,0,0,1-.67-.17.48.48,0,0,1-.66.14.53.53,0,0,1-.15-.71.55.55,0,0,1,.33-.18Z"/><path id="_Path_119" data-name="&lt;Path&gt;" class="cls-7" d="M62.2,67.27c.49-.33.71-.82,1.26-.82a1.49,1.49,0,0,1,.55.17h.11l-.11.16c-.22,0-.55-.27-.93,0s-.62.43-.88.54Z"/><path id="_Path_120" data-name="&lt;Path&gt;" class="cls-7" d="M62.36,67.27A2.93,2.93,0,0,1,64,67.16h.11l-.11.23c-.44,0-.67-.33-1.65-.12Z"/><path id="_Path_121" data-name="&lt;Path&gt;" class="cls-7" d="M62.2,67.27c1.21-.11.81.61,1.81.61h.11L64,68c-1.2,0-.67-.65-1.81-.77Z"/><path id="_Path_122" data-name="&lt;Path&gt;" class="cls-7" d="M63,69a1,1,0,0,1,1-1,1,1,0,0,1,1,1,1,1,0,0,0-1.23-.74A1,1,0,0,0,63,69Z"/></g></g></g></g></g></g></g></svg>