<svg id="Layer_1" data-name="Layer 1" xmlns="http://www.w3.org/2000/svg" xmlns:xlink="http://www.w3.org/1999/xlink" viewBox="0 0 128 128"><defs><style>.cls-1{fill:none;}.cls-2{clip-path:url(#clip-path);}.cls-3{clip-path:url(#clip-path-2);}.cls-4{fill:#004890;}.cls-5{fill:#fff;}.cls-6{fill:#ea0020;}</style><clipPath id="clip-path"><circle class="cls-1" cx="64" cy="64" r="64"/></clipPath><clipPath id="clip-path-2"><rect id="_Clipping_Path_" data-name="&lt;Clipping Path&gt;" class="cls-1" x="-50" width="219.42" height="128"/></clipPath></defs><title>Flag_circle_Australia</title><g class="cls-2"><g id="AUSTRALIA"><g id="_Group_" data-name="&lt;Group&gt;"><g id="_Clip_Group_" data-name="&lt;Clip Group&gt;"><g class="cls-3"><rect id="_Path_" data-name="&lt;Path&gt;" class="cls-4" x="-50" width="219.42" height="128"/><polygon id="_Path_2" data-name="&lt;Path&gt;" class="cls-5" points="7.7 78.42 11.07 88.82 21.26 84.95 15.25 94.03 24.61 99.6 13.75 100.55 15.25 111.34 7.7 103.45 0.22 111.34 1.71 100.55 -9.17 99.6 0.22 94.03 -5.82 84.95 4.39 88.82 7.7 78.42"/><polygon id="_Path_3" data-name="&lt;Path&gt;" class="cls-5" points="123.14 97.11 124.77 102.06 129.62 100.23 126.76 104.56 131.21 107.21 126.02 107.65 126.76 112.79 123.14 109.03 119.59 112.79 120.31 107.65 115.14 107.21 119.59 104.56 116.73 100.23 121.59 102.06 123.14 97.11"/><polygon id="_Path_4" data-name="&lt;Path&gt;" class="cls-5" points="94.31 51.42 95.89 56.36 100.75 54.52 97.89 58.86 102.34 61.51 97.17 61.94 97.89 67.09 94.31 63.33 90.72 67.09 91.44 61.94 86.27 61.51 90.72 58.86 87.86 54.52 92.72 56.36 94.31 51.42"/><polygon id="_Path_5" data-name="&lt;Path&gt;" class="cls-5" points="123.14 20.15 124.77 25.1 129.62 23.27 126.76 27.58 131.21 30.24 126.02 30.69 126.76 35.82 123.14 32.07 119.59 35.82 120.31 30.69 115.14 30.24 119.59 27.58 116.73 23.27 121.59 25.1 123.14 20.15"/><polygon id="_Path_6" data-name="&lt;Path&gt;" class="cls-5" points="-1.89 0 -1.89 19.25 -50 19.25 -50 38.49 -1.89 38.49 -1.89 57.73 17.33 57.73 17.33 38.49 65.47 38.49 65.47 19.25 17.33 19.25 17.33 0 -1.89 0"/><polygon id="_Path_7" data-name="&lt;Path&gt;" class="cls-5" points="-50 0 -50 6.46 52.55 57.73 65.44 57.73 65.44 51.28 -37.09 0 -50 0"/><polygon id="_Path_8" data-name="&lt;Path&gt;" class="cls-5" points="52.55 0 -50 51.28 -50 57.73 -37.09 57.73 65.44 6.46 65.44 0 52.55 0"/><polygon id="_Path_9" data-name="&lt;Path&gt;" class="cls-6" points="1.94 0 1.94 23.09 -50 23.09 -50 34.64 1.94 34.64 1.94 57.73 13.49 57.73 13.49 34.64 65.44 34.64 65.44 23.09 13.49 23.09 13.49 0 1.94 0"/><path id="_Compound_Path_" data-name="&lt;Compound Path&gt;" class="cls-6" d="M-50,0V4.31l29.85,14.94h8.63ZM56.84,0,18.36,19.25H27L65.44,0Z"/><path id="_Compound_Path_2" data-name="&lt;Compound Path&gt;" class="cls-6" d="M-11.52,38.49-50,57.73h8.61L-2.91,38.49Zm38.49,0,38.5,19.24v-4.3L35.58,38.49Z"/></g></g></g></g></g></svg>