<svg id="Layer_1" data-name="Layer 1" xmlns="http://www.w3.org/2000/svg" xmlns:xlink="http://www.w3.org/1999/xlink" viewBox="0 0 128 128"><defs><style>.cls-1{fill:none;}.cls-2{clip-path:url(#clip-path);}.cls-3{clip-path:url(#clip-path-2);}.cls-4{fill:#00b9e4;}.cls-5{fill:#ed2939;}.cls-6{fill:#3f9c35;}.cls-7{fill:#fff;}</style><clipPath id="clip-path"><circle class="cls-1" cx="64" cy="64" r="64"/></clipPath><clipPath id="clip-path-2"><rect id="_Clipping_Path_" data-name="&lt;Clipping Path&gt;" class="cls-1" x="-45.71" width="219.43" height="128"/></clipPath></defs><title>Flag_circle_Azerbaijan</title><g class="cls-2"><g id="AZERBAIJAN"><g id="_Group_" data-name="&lt;Group&gt;"><g id="_Clip_Group_" data-name="&lt;Clip Group&gt;"><g class="cls-3"><rect id="_Path_" data-name="&lt;Path&gt;" class="cls-4" x="-45.71" width="219.43" height="128"/><rect id="_Path_2" data-name="&lt;Path&gt;" class="cls-5" x="-45.71" y="42.68" width="219.43" height="42.67"/><rect id="_Path_3" data-name="&lt;Path&gt;" class="cls-6" x="-45.71" y="85.35" width="219.43" height="42.65"/><g id="_Clip_Group_2" data-name="&lt;Clip Group&gt;"><g class="cls-3"><path id="_Path_4" data-name="&lt;Path&gt;" class="cls-7" d="M68.33,79a15,15,0,1,1,8.11-27.51,17.92,17.92,0,1,0,0,25.11A15,15,0,0,1,68.33,79"/><polygon id="_Path_5" data-name="&lt;Path&gt;" class="cls-7" points="88.54 70.79 83.64 68.57 81.76 73.63 79.87 68.57 74.97 70.79 77.2 65.89 72.16 64 77.2 62.11 74.99 57.23 79.89 59.43 81.78 54.42 83.67 59.45 88.56 57.23 86.33 62.11 91.36 64.03 86.33 65.92 88.54 70.79"/></g></g></g></g></g></g></g></svg>