<svg id="Layer_1" data-name="Layer 1" xmlns="http://www.w3.org/2000/svg" xmlns:xlink="http://www.w3.org/1999/xlink" viewBox="0 0 128 128"><defs><style>.cls-1{fill:none;}.cls-2{clip-path:url(#clip-path);}.cls-3{clip-path:url(#clip-path-2);}.cls-4{fill:#001d97;}.cls-5{fill:#fecc00;}.cls-6{fill:#fff;}</style><clipPath id="clip-path"><circle class="cls-1" cx="64" cy="64" r="64"/></clipPath><clipPath id="clip-path-2"><rect id="_Clipping_Path_" data-name="&lt;Clipping Path&gt;" class="cls-1" x="-49" width="219.39" height="128"/></clipPath></defs><title>Flag_circle_Bosnia And Herzegovina</title><g class="cls-2"><g id="BOSNIA"><g id="_Group_" data-name="&lt;Group&gt;"><g id="_Clip_Group_" data-name="&lt;Clip Group&gt;"><g class="cls-3"><rect id="_Path_" data-name="&lt;Path&gt;" class="cls-4" x="-49" width="219.39" height="128"/><polygon id="_Path_2" data-name="&lt;Path&gt;" class="cls-5" points="0.55 0 128.53 128 128.53 0 0.55 0"/><polygon id="_Path_3" data-name="&lt;Path&gt;" class="cls-6" points="102.77 122.77 93.92 122.77 101.05 128 105.48 128 109.94 128 117.06 122.77 108.21 122.77 105.48 114.36 102.77 122.77"/><polygon id="_Path_4" data-name="&lt;Path&gt;" class="cls-6" points="-6.49 19.2 0.66 24.39 -2.08 16.01 5.08 10.8 -3.77 10.8 -6.49 2.43 -9.22 10.8 -18.05 10.8 -10.9 16.01 -13.64 24.39 -6.49 19.2"/><polygon id="_Path_5" data-name="&lt;Path&gt;" class="cls-6" points="9.5 35.21 16.65 40.42 13.93 31.99 21.08 26.81 12.24 26.81 9.5 18.41 6.78 26.81 -2.05 26.81 5.09 31.99 2.37 40.42 9.5 35.21"/><polygon id="_Path_6" data-name="&lt;Path&gt;" class="cls-6" points="25.5 51.2 32.64 56.4 29.92 48 37.07 42.82 28.23 42.82 25.5 34.39 22.77 42.82 13.94 42.82 21.1 48 18.36 56.4 25.5 51.2"/><polygon id="_Path_7" data-name="&lt;Path&gt;" class="cls-6" points="41.51 67.2 48.65 72.39 45.92 63.99 53.06 58.8 44.23 58.8 41.51 50.4 38.77 58.8 29.94 58.8 37.09 63.99 34.36 72.39 41.51 67.2"/><polygon id="_Path_8" data-name="&lt;Path&gt;" class="cls-6" points="57.49 83.19 64.64 88.4 61.92 80 69.06 74.79 60.23 74.79 57.49 66.41 54.77 74.79 45.93 74.79 53.08 80 50.35 88.4 57.49 83.19"/><polygon id="_Path_9" data-name="&lt;Path&gt;" class="cls-6" points="73.5 99.17 80.63 104.38 77.92 95.98 85.06 90.8 76.23 90.8 73.5 82.4 70.76 90.8 61.94 90.8 69.09 95.98 66.35 104.38 73.5 99.17"/><polygon id="_Path_10" data-name="&lt;Path&gt;" class="cls-6" points="89.49 115.21 96.64 120.36 93.91 111.96 101.05 106.78 92.22 106.78 89.49 98.41 86.76 106.78 77.93 106.78 85.08 111.96 82.35 120.36 89.49 115.21"/></g></g></g></g></g></svg>