<svg id="Layer_1" data-name="Layer 1" xmlns="http://www.w3.org/2000/svg" xmlns:xlink="http://www.w3.org/1999/xlink" viewBox="0 0 128 128"><defs><style>.cls-1{fill:none;}.cls-2{clip-path:url(#clip-path);}.cls-3{clip-path:url(#clip-path-2);}.cls-4{fill:#bc1f33;}.cls-5{fill:#4fb548;}.cls-6{fill:#fff;}</style><clipPath id="clip-path"><circle class="cls-1" cx="64" cy="64" r="64"/></clipPath><clipPath id="clip-path-2"><rect id="_Clipping_Path_" data-name="&lt;Clipping Path&gt;" class="cls-1" x="-45.71" width="219.43" height="128"/></clipPath></defs><title>Flag_circle_Burundi</title><g class="cls-2"><g id="BURUNDI"><g id="_Group_" data-name="&lt;Group&gt;"><g id="_Clip_Group_" data-name="&lt;Clip Group&gt;"><g class="cls-3"><polygon id="_Path_" data-name="&lt;Path&gt;" class="cls-4" points="156.65 0 -28.66 0 63.99 54.04 156.65 0"/><polygon id="_Path_2" data-name="&lt;Path&gt;" class="cls-4" points="-28.66 128 156.65 128 63.99 73.96 -28.66 128"/><polygon id="_Path_3" data-name="&lt;Path&gt;" class="cls-5" points="173.71 118.06 173.71 9.94 81.05 63.97 173.71 118.06"/><polygon id="_Path_4" data-name="&lt;Path&gt;" class="cls-5" points="-45.71 118.06 46.93 63.97 -45.71 9.94 -45.71 118.06"/><g id="_Clip_Group_2" data-name="&lt;Clip Group&gt;"><g class="cls-3"><path id="_Path_5" data-name="&lt;Path&gt;" class="cls-6" d="M173.71,0H156.65L90.57,38.56a38,38,0,0,0-53.14,0L-28.66,0h-17V9.94L28.38,53.17a35.55,35.55,0,0,0,0,21.66l-74.09,43.23V128h17.05L37.43,89.46a38.08,38.08,0,0,0,53.14,0L156.65,128h17.06v-9.94L99.6,74.83a35.55,35.55,0,0,0,0-21.66L173.71,9.94Z"/><polygon id="_Path_6" data-name="&lt;Path&gt;" class="cls-5" points="66.45 40.96 63.99 36.7 61.52 40.96 56.61 40.96 59.06 45.23 56.61 49.49 61.52 49.49 63.99 53.76 66.45 49.49 71.37 49.49 68.92 45.23 71.37 40.96 66.45 40.96"/><polygon id="_Path_7" data-name="&lt;Path&gt;" class="cls-5" points="85.17 73.4 87.64 69.13 82.72 69.13 80.25 64.87 77.79 69.13 72.86 69.13 75.32 73.4 72.86 77.66 77.79 77.66 80.25 81.93 82.72 77.66 87.64 77.66 85.17 73.4"/><polygon id="_Path_8" data-name="&lt;Path&gt;" class="cls-5" points="50.2 69.13 47.74 64.87 45.26 69.13 40.34 69.13 42.8 73.4 40.34 77.66 45.26 77.66 47.74 81.93 50.2 77.66 55.13 77.66 52.67 73.4 55.13 69.13 50.2 69.13"/><polygon id="_Path_9" data-name="&lt;Path&gt;" class="cls-4" points="66.02 41.73 63.99 38.23 61.97 41.73 57.94 41.73 59.95 45.23 57.94 48.73 61.97 48.73 63.99 52.23 66.02 48.73 70.05 48.73 68.03 45.23 70.05 41.73 66.02 41.73"/><polygon id="_Path_10" data-name="&lt;Path&gt;" class="cls-4" points="84.28 73.4 86.3 69.87 82.26 69.87 80.25 66.4 78.23 69.87 74.18 69.87 76.21 73.4 74.18 76.87 78.23 76.87 80.25 80.4 82.26 76.87 86.3 76.87 84.28 73.4"/><polygon id="_Path_11" data-name="&lt;Path&gt;" class="cls-4" points="49.75 69.87 47.74 66.4 45.7 69.87 41.67 69.87 43.69 73.4 41.67 76.87 45.7 76.87 47.74 80.4 49.75 76.87 53.8 76.87 51.77 73.4 53.8 69.87 49.75 69.87"/></g></g></g></g></g></g></g></svg>