<svg id="Layer_1" data-name="Layer 1" xmlns="http://www.w3.org/2000/svg" xmlns:xlink="http://www.w3.org/1999/xlink" viewBox="0 0 128 128"><defs><style>.cls-1{fill:none;}.cls-2{clip-path:url(#clip-path);}.cls-3{fill:#f7e017;}.cls-4{fill:#fff;}.cls-5{fill:#cf1126;}</style><clipPath id="clip-path"><circle class="cls-1" cx="64" cy="64" r="64"/></clipPath></defs><title>Flag_circle_Brunei</title><g class="cls-2"><rect class="cls-3" x="-46" y="0.3" width="220" height="128"/><path class="cls-4" d="M-46,9.19V66.07L174,92.74V62.52Z"/><path d="M-46,39.41V66.07l220,53.34V92.74Z"/><path class="cls-5" d="M59.69,101.58a20.89,20.89,0,0,1-8.79-3A5.31,5.31,0,0,0,50,98c-.06,0-.11.32-.11.72a1.81,1.81,0,0,1-1.6,2,5.24,5.24,0,0,1-4.13-1.41,12.1,12.1,0,0,0-4.39-2.41,7.07,7.07,0,0,0-5,.65,1.63,1.63,0,0,1-.49.22c-.2,0-.17-1.22,0-1.61A3.18,3.18,0,0,1,36,94.87c.38-.14.7-.32.7-.4a2.45,2.45,0,0,0-.29-.65,1.77,1.77,0,0,1,.6-2.47,4.19,4.19,0,0,1,3.85-.3,4.53,4.53,0,0,0,.72.24c.18,0,.07-.25-.43-1a2.9,2.9,0,0,1-.62-2.26,2.62,2.62,0,0,1,2.4-2.4c1-.07,1.68.28,3.2,1.73a25.63,25.63,0,0,0,15.31,7.39,29.66,29.66,0,0,0,6.12-.18,27.71,27.71,0,0,0,14.54-7.26C83.25,86.27,83.8,86,84.73,86a2.66,2.66,0,0,1,2.6,2.93,2.55,2.55,0,0,1-.47,1.4c-.5.82-.41.9.58.51a3.87,3.87,0,0,1,3.88.57,1.76,1.76,0,0,1,.25,2.5,4.3,4.3,0,0,0-.4.77c0,.1.17.15,1,.28a2,2,0,0,1,1.67,2.17c0,.36,0,.66-.1.66a8,8,0,0,1-.89-.33,7.36,7.36,0,0,0-3.4-.64,6.08,6.08,0,0,0-2.25.31,10.26,10.26,0,0,0-3.47,2,3.92,3.92,0,0,1-2.95,1.32,2.31,2.31,0,0,1-2.09-.9c-.2-.31-.23-.5-.18-1.21a2.54,2.54,0,0,0,0-.83,7.26,7.26,0,0,0-.89.56,14.54,14.54,0,0,1-3.28,1.75,32.32,32.32,0,0,1-14.62,1.73Z"/><path class="cls-5" d="M61.57,93.66a24.26,24.26,0,0,1-17.41-9.89,27.25,27.25,0,0,1-4.38-20.85,17.24,17.24,0,0,1,4.55-8.81,20.42,20.42,0,0,0-1.56,13.21A22.09,22.09,0,0,0,60.79,85c3.54,1,7.2-.06,10.58-1.16A21.07,21.07,0,0,0,85.19,66.18a21.69,21.69,0,0,0-2-12.61c1.1.58,2.49,2.86,3.31,4.4,2.84,5.51,3,12.11,1.3,18-2.28,7.49-8,14-15.56,16.43a29.44,29.44,0,0,1-10.68,1.27Z"/><g id="hand"><path class="cls-5" d="M27,83.83c-.45-.07-1,.38-.78.84a3,3,0,0,0,1.39.92,9.7,9.7,0,0,0,3.81.64h.32a8.89,8.89,0,0,0,3-.53c.53-.19,1.22-.36,1.44-1a.5.5,0,0,0-.57-.7c-.55.12-1.06.37-1.6.51a10.24,10.24,0,0,1-3.61.36,9.62,9.62,0,0,1-2.56-.74,3.38,3.38,0,0,0-.86-.35Z"/><path class="cls-5" d="M27.53,82a.64.64,0,0,0-.66.87,3.32,3.32,0,0,0,1.48,1,7.63,7.63,0,0,0,3,.51h.28a6.78,6.78,0,0,0,2.55-.51c.49-.19,1.09-.37,1.3-.92a.49.49,0,0,0-.34-.75,2.7,2.7,0,0,0-.95.3,8,8,0,0,1-3.67.57,7.7,7.7,0,0,1-2.22-.72,3,3,0,0,0-.79-.37Z"/><path class="cls-5" d="M28.14,80.22c-.39,0-.66.39-.59.74a1.3,1.3,0,0,0,.56.71,5.35,5.35,0,0,0,3.31,1h.29a5,5,0,0,0,2.12-.51c.44-.19,1-.41,1.11-.92.07-.23.12-.57-.15-.7s-.55.08-.8.18a6.14,6.14,0,0,1-2.76.67,4.66,4.66,0,0,1-2.32-.7,3.4,3.4,0,0,0-.77-.42Z"/><path class="cls-5" d="M21.61,54.11c-.58.58-.14,1.65-.17,2.41A28.58,28.58,0,0,0,23,63.43c1.07,2.15,3.34,3.3,4.72,5.2a7.87,7.87,0,0,1,.42,3c.08,2.73.06,5.47,0,8.2a6.57,6.57,0,0,0,4,1c.84-.2,2.4-.32,2.58-1.16-.07-4.71-.11-9.42-.18-14.13-.47-1.45-1.94-2.19-3-3.12A26.3,26.3,0,0,1,29,59.58c-.47-.78-2.29-1.07-1.63.3.38,1.18,1.37,2.06,1.62,3.31.05.68.86,1.93.17,2.33a4.34,4.34,0,0,0-1.9-1.77c-.79-.59-2.09-.84-2.37-1.87A7.67,7.67,0,0,0,22.91,58a3.88,3.88,0,0,0-1.14-3.82l-.16,0Z"/><path class="cls-5" d="M23.37,54.38c-.53.08-.51.75-.27,1.1a4.85,4.85,0,0,1,.19,2.39,7.79,7.79,0,0,1,1.88,3.85c0,.54.58.72.95,1a19.06,19.06,0,0,1,2.61,1.64c.16.18.28.36.17,0a2.61,2.61,0,0,0-.54-1.29,3.62,3.62,0,0,0-1.8-1.15,5.79,5.79,0,0,0-.73-2,4.81,4.81,0,0,0-1.34-1.69A7.2,7.2,0,0,0,24,55c-.14-.25-.34-.56-.66-.57Z"/><path class="cls-5" d="M24.84,54.81c-.37.11-.3.56-.18.84A9.66,9.66,0,0,1,24.85,58a6.09,6.09,0,0,1,1.48,2.06,5.83,5.83,0,0,1,.56,1.58,4.21,4.21,0,0,1,1.45.9,8.68,8.68,0,0,0-.8-1.38,5.49,5.49,0,0,1-.65-1.54,2.63,2.63,0,0,1-.71-2.13,3.46,3.46,0,0,0-.81-2.37.89.89,0,0,0-.53-.3Z"/><path class="cls-5" d="M26.52,55.05c-.2,0-.32.22-.43.38s.15.32.18.49a3.9,3.9,0,0,1,.25,1.85A2.35,2.35,0,0,0,26.89,59a.69.69,0,0,1,.6-.51c.1,0,.25,0,.19-.12a9.71,9.71,0,0,0-.49-2.51,1.78,1.78,0,0,0-.5-.78.22.22,0,0,0-.17-.06Z"/></g><g id="hand-2" data-name="hand"><path class="cls-5" d="M101,83.83c.45-.07,1,.38.78.84a3,3,0,0,1-1.39.92,9.7,9.7,0,0,1-3.81.64h-.32a8.89,8.89,0,0,1-3-.53c-.53-.19-1.22-.36-1.44-1a.5.5,0,0,1,.57-.7c.55.12,1.06.37,1.6.51a10.24,10.24,0,0,0,3.61.36,9.62,9.62,0,0,0,2.56-.74,3.38,3.38,0,0,1,.86-.35Z"/><path class="cls-5" d="M100.47,82a.64.64,0,0,1,.66.87,3.32,3.32,0,0,1-1.48,1,7.63,7.63,0,0,1-3,.51h-.28a6.78,6.78,0,0,1-2.55-.51c-.49-.19-1.09-.37-1.3-.92a.49.49,0,0,1,.34-.75,2.7,2.7,0,0,1,1,.3,8,8,0,0,0,3.67.57,7.7,7.7,0,0,0,2.22-.72,3,3,0,0,1,.79-.37Z"/><path class="cls-5" d="M99.86,80.22c.39,0,.66.39.59.74a1.3,1.3,0,0,1-.56.71,5.35,5.35,0,0,1-3.31,1h-.29a5,5,0,0,1-2.12-.51c-.44-.19-1-.41-1.11-.92-.07-.23-.12-.57.15-.7s.55.08.8.18a6.14,6.14,0,0,0,2.76.67,4.66,4.66,0,0,0,2.32-.7,3.4,3.4,0,0,1,.77-.42Z"/><path class="cls-5" d="M106.39,54.11c.58.58.14,1.65.17,2.41A28.58,28.58,0,0,1,105,63.43c-1.07,2.15-3.34,3.3-4.72,5.2a7.87,7.87,0,0,0-.42,3c-.08,2.73-.06,5.47,0,8.2a6.57,6.57,0,0,1-4,1c-.84-.2-2.4-.32-2.58-1.16.07-4.71.11-9.42.18-14.13.47-1.45,1.94-2.19,3-3.12A26.3,26.3,0,0,0,99,59.58c.47-.78,2.29-1.07,1.63.3-.38,1.18-1.37,2.06-1.62,3.31,0,.68-.86,1.93-.17,2.33a4.34,4.34,0,0,1,1.9-1.77c.79-.59,2.09-.84,2.37-1.87A7.67,7.67,0,0,1,105.09,58a3.88,3.88,0,0,1,1.14-3.82l.16,0Z"/><path class="cls-5" d="M104.63,54.38c.53.08.51.75.27,1.1a4.85,4.85,0,0,0-.19,2.39,7.79,7.79,0,0,0-1.88,3.85c0,.54-.58.72-1,1a19.06,19.06,0,0,0-2.61,1.64c-.16.18-.28.36-.17,0a2.61,2.61,0,0,1,.54-1.29,3.62,3.62,0,0,1,1.8-1.15,5.79,5.79,0,0,1,.73-2,4.81,4.81,0,0,1,1.34-1.69A7.2,7.2,0,0,1,104,55c.14-.25.34-.56.66-.57Z"/><path class="cls-5" d="M103.16,54.81c.37.11.3.56.18.84a9.66,9.66,0,0,0-.19,2.34,6.09,6.09,0,0,0-1.48,2.06,5.83,5.83,0,0,0-.56,1.58,4.21,4.21,0,0,0-1.45.9,8.68,8.68,0,0,1,.8-1.38,5.49,5.49,0,0,0,.65-1.54,2.63,2.63,0,0,0,.71-2.13,3.46,3.46,0,0,1,.81-2.37.89.89,0,0,1,.53-.3Z"/><path class="cls-5" d="M101.48,55.05c.2,0,.32.22.43.38s-.15.32-.18.49a3.9,3.9,0,0,0-.25,1.85,2.35,2.35,0,0,1-.37,1.26.69.69,0,0,0-.6-.51c-.1,0-.25,0-.19-.12a9.71,9.71,0,0,1,.49-2.51,1.78,1.78,0,0,1,.5-.78.22.22,0,0,1,.17-.06Z"/></g><path class="cls-5" d="M63.23,84.92a6.33,6.33,0,0,1-5.3-4.27c0-.4.53.22.76.26a3.42,3.42,0,0,0,1.41.47c.63.27,1,.9,1.63,1.22.28.22,1.27.65,1.08,0a1.3,1.3,0,0,1-.19-1.24,8.81,8.81,0,0,1,1.38-2c.38-.13.63.63.91.88a2.54,2.54,0,0,1,.61,2c-.22.27-.36,1.08.22.81a8.41,8.41,0,0,0,1.89-1.34c.52-.36,1.19-.39,1.73-.71.25-.06.78-.56.89-.28a8.23,8.23,0,0,1-1.33,2.17,5.76,5.76,0,0,1-3.34,1.93,8.82,8.82,0,0,1-2.35.12Z"/><path class="cls-5" d="M66.05,82.11a2.43,2.43,0,0,0-.3-1.41,12.71,12.71,0,0,0-1.43-2.12c-.49-.29-.77.65-1.09.92A5,5,0,0,0,62.05,82c-.28.45-.82-.36-1-.63a3.36,3.36,0,0,1-.71-2.13,9.18,9.18,0,0,1,.64-3.66,8.14,8.14,0,0,0,.85-3A2.7,2.7,0,0,0,61,70.27c-.63-.5.41-.6.74-.35.56,0,.86,1,1.38.74.2-.48.24-1.06.67-1.44.41-.57.85.24,1,.62.29.33,0,1.15.46,1.17.57-.39,1-1.07,1.7-1.21.3-.17.8,0,.41.32A3.21,3.21,0,0,0,66.24,72a4.62,4.62,0,0,0,.49,2.75,8.59,8.59,0,0,1,1,5.41,3.51,3.51,0,0,1-1.43,2,.15.15,0,0,1-.25-.07Z"/><path class="cls-5" d="M65.2,69.56a3.91,3.91,0,0,0-1-1.24c-.43,0-.69.53-1,.81s-.45,1-.95.52a2.52,2.52,0,0,1-.92-2.31,9.73,9.73,0,0,1,1-3.84,4,4,0,0,0,0-2.42,6.64,6.64,0,0,0-1.52-2.24c0-.27.75-.12,1-.07.6.15,1,.68,1.4,1,.31-.09.19-.73.33-1s.58-1,.81-.38c.35.39,0,1.15.44,1.39.43-.16.64-.63,1-.84a1.42,1.42,0,0,1,1.38-.09c.15.4-.46.72-.64,1.07A3.62,3.62,0,0,0,66,63.16a23.15,23.15,0,0,1,.83,2.56,7.13,7.13,0,0,1-.09,3A2,2,0,0,1,65.49,70a1.8,1.8,0,0,1-.29-.46Z"/><path class="cls-5" d="M62.51,58.41a1.76,1.76,0,0,1-.8-1.68,1.52,1.52,0,0,1,.36-1c.41-.57.34-.75-.24-.58-.94.27-1.39,0-1.42-.77,0-.39.07-.56.59-1.19s.58-.77.49-.85-.57.35-1.59,1.39a23.34,23.34,0,0,1-2,1.87c-1.75,1.18-3.42,1.37-4.19.46-.39-.47-.37-.73.09-1a6,6,0,0,0,.78-.65,14.77,14.77,0,0,1,2.86-2.07c.63-.32.78-.53.37-.53s-2.23,1.1-3.52,2.29a5.39,5.39,0,0,1-1.21.86,4.52,4.52,0,0,1-2.47.21c-.4-.13-1.12-.82-1.12-1.06,0-.06.16-.21.37-.31a5.65,5.65,0,0,0,.8-.58A11.36,11.36,0,0,1,55.16,51c.49-.1.31-.35-.24-.33a9.94,9.94,0,0,0-4.44,2.08c-1.48,1.22-3.71,1.1-4.43-.23a.94.94,0,0,1-.16-.48,8.15,8.15,0,0,1,1-.29,16.44,16.44,0,0,0,2.65-1.1,9.13,9.13,0,0,1,3.21-1.16c.5-.08.53-.32,0-.38s-1.59.24-3.29,1.08c-2.18,1.07-2.79,1.25-3.94,1.19a3.48,3.48,0,0,1-2.49-1.14c-.56-.53-1.35-1.87-1.19-2a1.13,1.13,0,0,1,.56.08,11.37,11.37,0,0,0,2.24.15,8.09,8.09,0,0,0,2.66-.26A15.11,15.11,0,0,0,51.59,46a10.23,10.23,0,0,1,6.54-2.41A6.1,6.1,0,0,1,63,45.37c.42.43.77.7.83.65a7.56,7.56,0,0,0,.14-1.66s.64-.06.78.12c0,1.39,0,1.5.22,1.5s.27-.14.36-.35a3.7,3.7,0,0,1,1.63-1.45,9.44,9.44,0,0,1,6.63-.06,11.11,11.11,0,0,1,3,1.69A15.86,15.86,0,0,0,80.79,48a11.37,11.37,0,0,0,4.48.18c.45-.1.88-.19,1-.19.4,0-.29,1.36-1.11,2.15-1.48,1.46-3.42,1.45-6.14,0-1.7-.91-3.73-1.41-3.73-.91,0,.1.11.17.26.17a10.17,10.17,0,0,1,3.32,1.15,9.5,9.5,0,0,0,3.26,1.16c.42,0,.43.26,0,.83a2.3,2.3,0,0,1-2.09.9,3.15,3.15,0,0,1-2.31-.9C76.32,51.3,72.81,50,73,50.69c0,.14.19.22.56.28a9.67,9.67,0,0,1,4.11,2c.45.34.92.68,1,.75s.21.15,0,.45a2.15,2.15,0,0,1-1.65.94,3.26,3.26,0,0,1-2.57-.88c-1.77-1.48-3.44-2.55-4-2.55s-.24.24.53.65a14.31,14.31,0,0,1,2.81,2,6.89,6.89,0,0,0,.9.74c.32.17.31.42,0,.88a1.78,1.78,0,0,1-1.72.59c-1.54-.16-2.74-.9-4.62-2.85a12.16,12.16,0,0,0-1.46-1.39c-.25,0-.1.34.38.88s.72,1,.49,1.6-.53.6-1.22.41-.81,0-.35.56A1.8,1.8,0,0,1,66,58.29a1.94,1.94,0,0,1-.61.4c-.07,0-.25-.19-.41-.42-.54-.82-1-.82-1.54,0l-.34.53-.55-.4Z"/><path class="cls-5" d="M65.19,41.72l-.92.73-.81-.62v4.93l1.73,0Z"/><path class="cls-5" d="M59.54,36.61a15.91,15.91,0,0,1-1.6,5.75l2-1.83,1.38,1.63,1.48-1.66,1.52,1.4,1.46-1.46,1.51,1.78,1.32-1.46,2.23,1.6C70,40.57,68.9,39.05,69,36.52c-2.16,1.61-7.29,1.9-9.5.09Z"/><path class="cls-5" d="M63.46,35.42a13.28,13.28,0,0,0-2.38.17,3.5,3.5,0,0,0-1.39.55c.06,1.52,7.29,2.15,9.23,0a3.64,3.64,0,0,0-1.46-.58,14.23,14.23,0,0,0-2.28-.17v1.26H63.46V35.42Z"/><path class="cls-5" d="M64.87,27.67H63.75v8.78h1.14Z"/><path class="cls-5" d="M64.87,27.9l-.43,4.2,4.32,2.11-2.18-2.93,3-1Z"/><path class="cls-5" d="M64.39,26.8c-.66,0-1.14.25-1.14.54s.48.54,1.14.54,1.14-.25,1.14-.54S65,26.8,64.39,26.8Z"/><path class="cls-3" d="M62.12,100.53A2.07,2.07,0,0,0,63.52,99a3.38,3.38,0,0,0,.22-1c-.06-.27-.37-.26-.71,0s-.26.29-.19.68c.17,1-.19,1.24-2.07,1.45a8.72,8.72,0,0,1-1.2-.07c-.9-.12-1.22,0-.89.24a1.41,1.41,0,0,0,.55.25,9.12,9.12,0,0,0,2.89-.14Z"/><path class="cls-3" d="M66,100.37a3,3,0,0,1,.82-.38,1.47,1.47,0,0,0,.88-.59c.55-.82.45-1.53-.36-2.49-.44-.52-.64-.5-1,.07s-.3.53.14.65a1,1,0,0,1,.57.43c.48.83.34,1.34-.37,1.34s-.82.1-1,.51a2.36,2.36,0,0,0-.16.51c0,.18.24.15.46,0Z"/><path class="cls-3" d="M64.74,99.43a7.07,7.07,0,0,0,.15-2.11,12.26,12.26,0,0,0-.08-1.73c-.11-.1-.63.24-.7.46a.94.94,0,0,0,.13.58c.16.32.18.61.13,1.86-.06,1.58,0,1.84.37.94Z"/><path class="cls-3" d="M61.73,98.68a11.75,11.75,0,0,0,.19-1.33,6.29,6.29,0,0,1,.2-1.23c.18-.62,0-.78-.49-.43l-.36.25.07.89a9.85,9.85,0,0,1-.24,2.85c-.05.16,0,.12.22-.12A2.17,2.17,0,0,0,61.73,98.68Z"/><path class="cls-3" d="M59.06,99.11c.65-.54.58-1.47.72-2.22,0-.5.32-1.11.11-1.55a.85.85,0,0,0-.67,1.26,3.72,3.72,0,0,1-.34,2c-.28.38-1.17.29-1.12-.26.22-.82-.76-.42-1.15-.2s-.92.22-.7-.3c-.14-.69-1-.26-1.51-.26s0-.92-.69-.76c-1.21-.09-2.54,0-3.59-.72-.61-.29-.52-1-.2-1.51.38-.65.49-1.47,1.09-2s-.56-.33-.83-.14c-.58.32,0,1.14-.51,1.6-.28.47-.65,1.13-1.3,1-.93-.18-1.47-1-2.13-1.63-.58-.11-.25.93,0,1.15a5.68,5.68,0,0,0,2,.94c.7-.11.73.81,1.33,1a9.24,9.24,0,0,0,3.52.73c.47,0,.21.88.83.72.35.09,1.13-.13,1.17.27-.53.62.5.61.88.5s1.11-.26,1.24.41a1.5,1.5,0,0,0,1.65.12.7.7,0,0,0,.19-.15Z"/><path class="cls-3" d="M48.44,93.73a6.6,6.6,0,0,0,.66-1.13,3.86,3.86,0,0,1,.54-.93c.31-.34.13-.55-.37-.44-.27.06-.38.16-.42.39a6.07,6.07,0,0,1-.67,1.89c-.44.65-.45.67-.27.67s.33-.2.53-.45Z"/><path class="cls-3" d="M41.78,89.56c-.5,0-.52.31,0,.48a1.11,1.11,0,0,1,.59.6c.47.94.75,1.11,2,1.22l.8.07,0,.49c0,.27.08.49.15.49a3.39,3.39,0,0,0,.68-.29,2.12,2.12,0,0,0,1.15-1.43c0-.28-.47-.59-.89-.59a1.87,1.87,0,0,0-.84.36,1.54,1.54,0,0,1-2.38-.32c-.43-.7-.88-1.08-1.28-1.08Zm4.35,1.73c.24,0,.3.18.17.51a.25.25,0,0,1-.47,0,.35.35,0,0,1,.3-.52Z"/><path class="cls-3" d="M79.86,90.2c-.33,0-.42.08-.63.39a2.12,2.12,0,0,0-.06,2c.19.24.22.24.63.07.57-.24.67-.23.67.08,0,.78-1.13,2.3-2.31,3.1a2.58,2.58,0,0,0-.63.54c-.09.23.35.18.88-.1a5.63,5.63,0,0,0,2.09-2.13,3.38,3.38,0,0,0,.4-1.9,3.23,3.23,0,0,0-.16-1.62c-.19-.37-.25-.4-.73-.4Zm0,.69c.24,0,.28.06.31.41a.62.62,0,0,1-.19.61c-.22.2-.23.2-.43-.1s-.1-.92.31-.92Z"/><path class="cls-3" d="M74.5,98.48a4,4,0,0,0,2-1.92,5.76,5.76,0,0,0,.34-.84c0-.14-.52-.38-.82-.38s-.37-.21-.24-.8,0-1.28-.28-1.28c-.09,0-.25.13-.35.29s-.18.36-.06.73a1,1,0,0,1-.44,1.28.74.74,0,0,0-.36.54c0,.15,0,.28,0,.28s.27-.13.56-.29l.52-.29.3.24a.78.78,0,0,1,.31.48c0,.63-1.81,1.7-3,1.79-.66.06-.77,0-1-.19a.57.57,0,0,1-.19-.57c0-.16.1-.47.14-.68.12-.55-.12-.48-.53.17a1.46,1.46,0,0,0-.25,1.4,3.19,3.19,0,0,0,1.91.43,3.74,3.74,0,0,0,1.39-.39Z"/><path class="cls-3" d="M81.44,94.61a3.48,3.48,0,0,0,.93-2.68V91l.54-.26c.7-.33,1.36-1,1.36-1.37s-.16-.36-.47.06-.52.48-1.61,1c-.27.12-.29.19-.35,1.34a3.79,3.79,0,0,1-1,2.73c-.45.55-.47.62-.16.62A1.83,1.83,0,0,0,81.44,94.61Z"/><path class="cls-3" d="M74.31,93.87c.07-.19-.29-.33-.45-.17a.21.21,0,0,0,0,.25.3.3,0,0,0,.49-.08Z"/><path class="cls-3" d="M84.14,91.32c.06-.19-.3-.32-.45-.17a.21.21,0,0,0,0,.26.3.3,0,0,0,.49-.09Z"/><path class="cls-3" d="M72.31,84.44c-.25.12-.38.39-.56.6s0,.17,0,.25A4.63,4.63,0,0,1,72.65,87a4.11,4.11,0,0,1,.26,2.24c-.09.29-.32.58-.65.49-.54,0-1.07-.18-1.61-.17s-.85.46-1.35.41c-.31,0-.3-.64-.59-.46a3.35,3.35,0,0,0-.09,1.1s.21,0,.3,0h1a2,2,0,0,0,.3,1,1.48,1.48,0,0,0,1-.11c.34-.16.39-.57.48-.89s.56-.26.83-.39a1.54,1.54,0,0,0,1-1.54,11.87,11.87,0,0,0-.73-2.93c-.15-.43-.25-.87-.42-1.29a.11.11,0,0,0-.11,0ZM70.7,90.25c.36,0,.52.42.44.72s-.62.14-.72-.15-.07-.6.28-.57Z"/><path class="cls-3" d="M57.3,86.91a.93.93,0,0,0-.53.19c-.94.66-1.18,1.44-.54,1.75.47.22.35.49-.39.86-1.06.53-2,.46-3.78-.27-.43-.18-.55-.12-.45.28s.46.61,1.35.82a5.09,5.09,0,0,0,2.87-.18A3.46,3.46,0,0,0,57,89.48l.58-.63.67.08c.83.1.85.11.85.51s0,.32.77.39c.43,0,1,.08,1.26.08s.53.06.64.21.24.22,1.49.11a3.77,3.77,0,0,1,1.93.08,2.73,2.73,0,0,0,1.1.15,3.35,3.35,0,0,0,2.31-1.37,1.56,1.56,0,0,1,.72-.26c.9-.18.94-.38.1-.48a6.22,6.22,0,0,1-1.22-.3,3.35,3.35,0,0,0-.94-.23c-.45,0-.88.29-.88.58s.07.21.61.16.65,0,.92.19.29.3.25.36a4.4,4.4,0,0,1-1.64.75,1.28,1.28,0,0,1-.81-.11c-.41-.22-1-.25-1.13-.06s-.18,0-.36-.14l-.27-.26-.63.26c-.64.26-.87.25-.87,0,0-.14-.19-.16-1.13-.1s-1.15,0-1.34-.16-.18-.27-.06-.48.12-.27,0-.38-.26-.11-.67,0c-1,.28-1.32.12-1.32-.68,0-.49-.28-.78-.63-.79Zm-.26.74c.06,0,.1,0,.17.11a.37.37,0,0,1,.1.35.36.36,0,0,1-.62,0,.31.31,0,0,1,.15-.35.45.45,0,0,1,.2-.1Z"/><path class="cls-3" d="M55.19,88.4c.63-.39.62-.36.71-1.47.06-.78.05-.84-.16-.84s-.47.34-.47,1a1,1,0,0,1-.29.82c-.52.52-1.82.28-2-.37,0-.22,0-.42.29-.81.57-.8.44-1-.26-.39-.48.42-.56.43-.47.07s-.09-.46-.48-.36a.46.46,0,0,0-.36.41.45.45,0,0,1-.34.42c-.31.08-.85-.22-.85-.48a10.51,10.51,0,0,1,1.83-2.24,5.06,5.06,0,0,0,.71-.83c0-.06-.21-.11-.46-.11s-.46,0-.46.22A7.87,7.87,0,0,1,51,84.93c-1.32,1.49-1.43,1.8-.78,2.2A1.59,1.59,0,0,0,52,87.07l.43-.29v.53c0,.68.13.92.67,1.2a2.09,2.09,0,0,0,2.14-.11Z"/><path class="cls-3" d="M83,79.18c-.5.29-.11.91,0,1.32-.2.56-.92.71-1.44.81A2.18,2.18,0,0,0,80,82.71c-.15.43-.52,1.1-.92.44-.35-.35-1-.63-1.41-.22a2.47,2.47,0,0,0-.51,1.14c-.19-.31-.27-.76-.66-.86-.63.09-.4.88-.11,1.2a1.24,1.24,0,0,1,.26,1.34c-.23.54-1,.91-1.5.44-.44-.23-.14-1.06-.58-1.11-.21.16-.23,1-.57.56s-.12-1-.42-1.32a.87.87,0,0,0-.53,1,5.91,5.91,0,0,1,.86,2.22c.12.31,0,.93.27,1,.2-.49,0-1,.17-1.55a14.47,14.47,0,0,0,1.48,0,2,2,0,0,0,1.48-1.31,8.42,8.42,0,0,0,0-1.42,9.26,9.26,0,0,1,1.66.26c.26.4-.09,1-.16,1.41a5,5,0,0,1-1.66,2.15c-.29.17-.33.62.09.38a4,4,0,0,0,2-2.13c.29-.7.06-1.47.25-2.18.28-.53.94-.42,1.44-.42a.89.89,0,0,0,.78-1.11c-.17-.58.44-.85.86-1.06a1.63,1.63,0,0,0,.94-1.49c0-.32,0-.94-.45-1Zm-2,3.33c.6.16-.1,1.29-.42.57A.45.45,0,0,1,81.06,82.51Zm-2.75.81c.78,0,.5,1.08-.15.57A.3.3,0,0,1,78.31,83.32Z"/><path class="cls-3" d="M50.39,87.67c0-.11,0-.19-.13-.19s-.35.19-.25.35.34.07.38-.16Z"/><path class="cls-3" d="M59.43,86.66c0-.16-.06-.23-.2-.2-.3.06-.34.44,0,.44S59.43,86.83,59.43,86.66Z"/><path class="cls-3" d="M48.25,81.24c-.36-.08-.59.23-.71.52a2.83,2.83,0,0,1-1.09,1.16,1.4,1.4,0,0,1-1-.22c-.35-.18-.27-.61-.43-.91s-.71.09-.7.41.36.67.69.83.69.27.8.61.11.64.47.52.51.49.35.78A1.66,1.66,0,0,0,46.4,86c.19.16.39-.28.52-.4l.29-.38c.71,0,1.42.13,2.13.11a1.8,1.8,0,0,0,1.26-.69A14.3,14.3,0,0,1,52,83.22c.37-.09.17-.79-.21-.59s-.46.53-.7.78a8.08,8.08,0,0,1-1.35,1.39,2,2,0,0,1-1.2,0c-.17-.14.32-.25.39-.41a2.53,2.53,0,0,0,.61-.73c-.12-.27-.5-.29-.77-.29-.65.08-1.15.63-1.81.68-.5,0-.24-.53,0-.71.45-.53.92-1,1.39-1.53.13-.16.6-.31.3-.53a.93.93,0,0,0-.33,0Zm.32,2.66c.33.18-.21.49-.44.45s-.3-.22,0-.28a1.2,1.2,0,0,1,.48-.17Zm-1,.69c.19,0,.58.18.21.29S47.22,84.68,47.55,84.59Z"/><path class="cls-3" d="M55.56,85.05c0-.25-.45-.21-.5,0s0,.2.23.17S55.56,85.15,55.56,85.05Z"/><path class="cls-3" d="M75.48,83.29a.28.28,0,1,0-.24.24.33.33,0,0,0,.24-.24Z"/><path class="cls-3" d="M44.48,80.85c.31-.27.31-.29.18-.88-.19-.83-.18-.92.13-1a2.16,2.16,0,0,1,1.64.87c.17.34.17.36-.13.63s-.32.64,0,.64a1.78,1.78,0,0,0,1-.93c0-.35-.8-1.16-1.44-1.46a2.93,2.93,0,0,0-1.25-.27c-.82,0-.93.18-.71,1.13.26,1.11-.09,1.27-1,.42A2.78,2.78,0,0,1,42,77.72c0-1.1.42-1.64,1.36-1.77.63-.08.62-.23,0-.32a1.86,1.86,0,0,0-2,1.61,3.35,3.35,0,0,0,1.79,3.54C43.78,81.19,44.06,81.2,44.48,80.85Z"/><path class="cls-3" d="M81.6,79.48a.61.61,0,0,0,.14-.38,1.45,1.45,0,0,1,.29-.64,1.64,1.64,0,0,0,.29-.49c0-.22-.36-.21-.65,0s-.51.23-.51,0c0-.06.14-.17.31-.25.43-.21.46-.41.1-.58s-.91.17-1,.8c0,.42,0,.49.33.68s.35.27.3.52c-.09.43.09.58.36.31Z"/><path class="cls-3" d="M85.09,79.08a1.53,1.53,0,0,0,.47-.57c0-.09.22-.32.49-.52a1.44,1.44,0,0,0,.59-2,5.71,5.71,0,0,0-1.47-1.62,9.77,9.77,0,0,0-1.42-1.15c-.25,0-.21.92,0,1a3.63,3.63,0,0,1,1.45,1c.83.76,1.22,1.46,1,1.85s-.47.26-1.2-.53a3.74,3.74,0,0,0-.85-.75c-.09,0-.15.15-.15.36s.14.52.52.94c.62.69.69,1.1.22,1.47a1.52,1.52,0,0,1-.38.24,1.4,1.4,0,0,1-.31-.46A8.72,8.72,0,0,0,82,76.15c-.11,0-.16.13-.16.4s.06.44.32.57A10.35,10.35,0,0,1,84.05,79a2.18,2.18,0,0,0,.5.49,2.64,2.64,0,0,0,.54-.42Z"/><path class="cls-3" d="M86.65,74.63A13.14,13.14,0,0,0,84.2,72.1c-.11,0-.15.14-.12.49s.07.49.36.57a5.14,5.14,0,0,1,1.25,1,4.11,4.11,0,0,0,1,.82.48.48,0,0,0,0-.33Z"/><path class="cls-3" d="M73.93,99.3a.32.32,0,1,1-.32-.29A.3.3,0,0,1,73.93,99.3Z"/><path class="cls-3" d="M75.05,98.93a.32.32,0,1,1-.32-.29A.3.3,0,0,1,75.05,98.93Z"/></g></svg>