<svg id="Layer_1" data-name="Layer 1" xmlns="http://www.w3.org/2000/svg" xmlns:xlink="http://www.w3.org/1999/xlink" viewBox="0 0 128 128"><defs><style>.cls-1{fill:none;}.cls-2{clip-path:url(#clip-path);}.cls-3{clip-path:url(#clip-path-2);}.cls-4,.cls-8{fill:#3b9144;}.cls-5{fill:#ecc022;}.cls-6{fill:#30276c;}.cls-7{fill:#fff;}.cls-8{fill-rule:evenodd;}</style><clipPath id="clip-path"><circle class="cls-1" cx="64" cy="64" r="64"/></clipPath><clipPath id="clip-path-2"><rect id="_Clipping_Path_" data-name="&lt;Clipping Path&gt;" class="cls-1" x="-45.72" width="219.44" height="128"/></clipPath></defs><title>Flag_circle_Brazil</title><g class="cls-2"><g id="BRAZIL"><g id="_Group_" data-name="&lt;Group&gt;"><g id="_Clip_Group_" data-name="&lt;Clip Group&gt;"><g class="cls-3"><rect id="_Path_" data-name="&lt;Path&gt;" class="cls-4" x="-45.72" width="219.44" height="128"/><polygon id="_Path_2" data-name="&lt;Path&gt;" class="cls-5" points="-11.88 64 64 112.46 139.92 64 64 15.54 -11.88 64"/><g id="_Clip_Group_2" data-name="&lt;Clip Group&gt;"><g class="cls-3"><path id="_Path_3" data-name="&lt;Path&gt;" class="cls-6" d="M96,64A32,32,0,1,1,64,32,32,32,0,0,1,96,64"/><path id="_Path_4" data-name="&lt;Path&gt;" class="cls-7" d="M45.73,50.28a81.19,81.19,0,0,0-11,.77A34.17,34.17,0,0,0,33,56a74.73,74.73,0,0,1,12.71-1.1,72.88,72.88,0,0,1,48.82,18.7,29.66,29.66,0,0,0,1.13-5.06,77.35,77.35,0,0,0-50-18.21"/><path id="_Compound_Path_" data-name="&lt;Compound Path&gt;" class="cls-8" d="M36.71,54.64a1.53,1.53,0,0,0-.37-3,1.41,1.41,0,0,0-1.16,1.68,1.43,1.43,0,0,0,1.53,1.34m-.06-.56a.92.92,0,0,0,.67-1,.87.87,0,0,0-.92-.85.9.9,0,0,0-.69,1,.91.91,0,0,0,.94.85"/><path id="_Compound_Path_2" data-name="&lt;Compound Path&gt;" class="cls-8" d="M39.2,54.37l.55,0-.08-1.12,1.24-.08a1,1,0,0,0,.88-1,1,1,0,0,0-1-.89L39,51.32Zm.43-1.73,1.18-.08a.41.41,0,0,0,.36-.43.36.36,0,0,0-.4-.35l-1.19.06Z"/><path id="_Path_5" data-name="&lt;Path&gt;" class="cls-4" d="M41.77,54.19c0-.43-.08-1.39-.74-1.35l-.83,0c.94,0,1,.91,1.07,1.33"/><path id="_Compound_Path_3" data-name="&lt;Compound Path&gt;" class="cls-8" d="M43.07,54.13l1.42,0a1.31,1.31,0,0,0,1.3-1.33l0-.44a1.31,1.31,0,0,0-1.32-1.28l-1.42,0Zm.54-.58.83,0a.8.8,0,0,0,.8-.83v-.28a.82.82,0,0,0-.82-.8l-.84,0Z"/><polygon id="_Path_6" data-name="&lt;Path&gt;" class="cls-4" points="46.9 54.09 49.66 54.19 49.69 53.62 47.48 53.54 47.5 52.77 49.25 52.81 49.25 52.29 47.53 52.23 47.53 51.63 49.63 51.7 49.63 51.13 47.03 51.03 46.9 54.09"/><polygon id="_Path_7" data-name="&lt;Path&gt;" class="cls-4" points="50.8 54.25 51.32 54.3 51.5 52.22 51.91 54.35 52.41 54.39 53.18 52.36 53.01 54.45 53.52 54.5 53.78 51.45 53.04 51.39 52.24 53.42 51.82 51.28 51.05 51.21 50.8 54.25"/><polygon id="_Path_8" data-name="&lt;Path&gt;" class="cls-4" points="57.09 54.96 59.38 55.34 59.44 54.83 57.72 54.54 57.83 53.86 59.26 54.1 59.33 53.58 57.93 53.34 58 52.86 59.68 53.16 59.75 52.64 57.58 52.26 57.09 54.96"/><path id="_Compound_Path_4" data-name="&lt;Compound Path&gt;" class="cls-8" d="M62.89,56.1l.53.15.31-1.1,1.16.3a1,1,0,0,0,1.19-.69,1,1,0,0,0-.69-1.17l-1.68-.43Zm1-1.51,1.13.3a.36.36,0,0,0,.46-.28.4.4,0,0,0-.27-.48l-1.14-.29Z"/><path id="_Compound_Path_5" data-name="&lt;Compound Path&gt;" class="cls-8" d="M66.63,57.09l.55.17.34-1.07,1.14.36a1,1,0,0,0,1.21-.62.94.94,0,0,0-.61-1.2l-1.68-.53Zm1.06-1.44,1.12.35a.39.39,0,0,0,.49-.26.36.36,0,0,0-.26-.48l-1.11-.36Z"/><path id="_Path_9" data-name="&lt;Path&gt;" class="cls-4" d="M69.09,57.87c.15-.41.43-1.32-.19-1.52l-.78-.25c.9.29.62,1.2.48,1.62"/><path id="_Compound_Path_6" data-name="&lt;Compound Path&gt;" class="cls-8" d="M71.6,58.77a1.45,1.45,0,0,0,1.81-.94,1.43,1.43,0,0,0-.74-1.91,1.46,1.46,0,0,0-1.83.93,1.47,1.47,0,0,0,.76,1.92m.19-.53a1,1,0,0,0,.69-1.8.93.93,0,0,0-1.11.62.91.91,0,0,0,.42,1.18"/><path id="_Compound_Path_7" data-name="&lt;Compound Path&gt;" class="cls-8" d="M75.19,60.22a1.53,1.53,0,0,0,1.21-2.79,1.43,1.43,0,0,0-1.85.85,1.45,1.45,0,0,0,.64,1.94m.23-.52a.87.87,0,0,0,1.11-.56.9.9,0,0,0-.35-1.2.88.88,0,0,0-1.11.56.86.86,0,0,0,.35,1.2"/><polygon id="_Path_10" data-name="&lt;Path&gt;" class="cls-4" points="75.99 58.91 77.06 59.37 76.86 59.77 75.83 59.3 75.99 58.91"/><polygon id="_Path_11" data-name="&lt;Path&gt;" class="cls-4" points="76.66 59.19 77.06 59.37 76.44 60.77 76.07 60.59 76.66 59.19"/><path id="_Compound_Path_8" data-name="&lt;Compound Path&gt;" class="cls-8" d="M77.48,61.24l.5.25.5-1,1.09.56a1,1,0,0,0,1.27-.43.94.94,0,0,0-.42-1.28l-1.54-.78ZM78.74,60l1,.52a.4.4,0,0,0,.53-.17.4.4,0,0,0-.17-.53l-1.07-.52Z"/><path id="_Path_12" data-name="&lt;Path&gt;" class="cls-4" d="M79.78,62.4c.2-.39.62-1.24,0-1.54l-.75-.38c.88.44.45,1.3.27,1.68"/><polygon id="_Path_13" data-name="&lt;Path&gt;" class="cls-4" points="80.92 63 83.32 64.35 83.58 63.86 81.66 62.76 82.03 62.08 83.55 62.94 83.81 62.47 82.3 61.63 82.61 61.09 84.41 62.12 84.71 61.63 82.41 60.34 80.92 63"/><path id="_Path_14" data-name="&lt;Path&gt;" class="cls-4" d="M85.38,64.49c-.17.25,0,.54.35.78s.62.21.73.06c.33-.54-1.58-1.29-1-2.2s1.38-.18,1.71,0a1,1,0,0,1,.44,1.39l-.56-.37c.19-.26,0-.53-.32-.7s-.51-.29-.67,0,1.61,1.21,1,2.13c-.39.67-1.14.37-1.63.06s-1.06-.91-.66-1.55Z"/><path id="_Path_15" data-name="&lt;Path&gt;" class="cls-4" d="M88.65,66.65c-.2.24-.06.54.3.79s.63.27.74.11c.35-.5-1.54-1.38-.88-2.25s1.41-.1,1.71.11a1,1,0,0,1,.36,1.42l-.52-.39c.16-.27,0-.53-.3-.74s-.47-.29-.66,0,1.52,1.31.91,2.18c-.48.65-1.22.32-1.66,0s-1-1-.58-1.58Z"/><path id="_Compound_Path_9" data-name="&lt;Compound Path&gt;" class="cls-8" d="M91.72,70.16a1.54,1.54,0,0,0,1.91-2.38,1.43,1.43,0,0,0-2,.34,1.45,1.45,0,0,0,.11,2m.36-.45a1,1,0,0,0,1.19-1.49,1,1,0,0,0-1.19,1.49"/><polygon id="_Path_16" data-name="&lt;Path&gt;" class="cls-7" points="37.87 56.88 37.45 58.18 38.12 58.4 37.87 56.88"/><polygon id="_Path_17" data-name="&lt;Path&gt;" class="cls-7" points="37.87 56.88 38.31 58.18 37.66 58.4 37.87 56.88"/><polygon id="_Path_18" data-name="&lt;Path&gt;" class="cls-7" points="39.17 57.83 37.81 57.83 37.81 58.5 39.17 57.83"/><polygon id="_Path_19" data-name="&lt;Path&gt;" class="cls-7" points="39.17 57.83 38.09 58.63 37.66 58.08 39.17 57.83"/><polygon id="_Path_20" data-name="&lt;Path&gt;" class="cls-7" points="36.57 57.83 37.68 58.63 38.09 58.08 36.57 57.83"/><polygon id="_Path_21" data-name="&lt;Path&gt;" class="cls-7" points="36.57 57.83 37.95 57.83 37.95 58.5 36.57 57.83"/><polygon id="_Path_22" data-name="&lt;Path&gt;" class="cls-7" points="38.68 59.35 38.26 58.05 37.62 58.27 38.68 59.35"/><polygon id="_Path_23" data-name="&lt;Path&gt;" class="cls-7" points="38.68 59.35 37.57 58.54 37.97 57.99 38.68 59.35"/><polygon id="_Path_24" data-name="&lt;Path&gt;" class="cls-7" points="37.07 59.35 38.18 58.54 37.78 57.99 37.07 59.35"/><polygon id="_Path_25" data-name="&lt;Path&gt;" class="cls-7" points="37.07 59.35 37.5 58.05 38.17 58.27 37.07 59.35"/><polygon id="_Path_26" data-name="&lt;Path&gt;" class="cls-7" points="40.72 70.33 40.29 71.63 40.95 71.84 40.72 70.33"/><polygon id="_Path_27" data-name="&lt;Path&gt;" class="cls-7" points="40.72 70.33 41.13 71.63 40.49 71.84 40.72 70.33"/><polygon id="_Path_28" data-name="&lt;Path&gt;" class="cls-7" points="42 71.28 40.64 71.28 40.64 71.97 42 71.28"/><polygon id="_Path_29" data-name="&lt;Path&gt;" class="cls-7" points="42 71.28 40.91 72.09 40.5 71.52 42 71.28"/><polygon id="_Path_30" data-name="&lt;Path&gt;" class="cls-7" points="39.42 71.28 40.5 72.09 40.94 71.52 39.42 71.28"/><polygon id="_Path_31" data-name="&lt;Path&gt;" class="cls-7" points="39.42 71.28 40.8 71.28 40.8 71.97 39.42 71.28"/><polygon id="_Path_32" data-name="&lt;Path&gt;" class="cls-7" points="41.52 72.81 41.1 71.51 40.44 71.72 41.52 72.81"/><polygon id="_Path_33" data-name="&lt;Path&gt;" class="cls-7" points="41.52 72.81 40.41 72 40.81 71.45 41.52 72.81"/><polygon id="_Path_34" data-name="&lt;Path&gt;" class="cls-7" points="39.89 72.81 41.03 72 40.6 71.45 39.89 72.81"/><polygon id="_Path_35" data-name="&lt;Path&gt;" class="cls-7" points="39.89 72.81 40.31 71.51 40.98 71.72 39.89 72.81"/><polygon id="_Path_36" data-name="&lt;Path&gt;" class="cls-7" points="36.79 73.65 36.53 74.53 36.95 74.67 36.79 73.65"/><polygon id="_Path_37" data-name="&lt;Path&gt;" class="cls-7" points="36.79 73.65 37.07 74.53 36.65 74.67 36.79 73.65"/><polygon id="_Path_38" data-name="&lt;Path&gt;" class="cls-7" points="37.66 74.29 36.74 74.29 36.74 74.75 37.66 74.29"/><polygon id="_Path_39" data-name="&lt;Path&gt;" class="cls-7" points="37.66 74.29 36.93 74.83 36.66 74.46 37.66 74.29"/><polygon id="_Path_40" data-name="&lt;Path&gt;" class="cls-7" points="35.93 74.29 36.66 74.83 36.93 74.46 35.93 74.29"/><polygon id="_Path_41" data-name="&lt;Path&gt;" class="cls-7" points="35.93 74.29 36.84 74.29 36.84 74.75 35.93 74.29"/><polygon id="_Path_42" data-name="&lt;Path&gt;" class="cls-7" points="37.32 75.31 37.04 74.44 36.62 74.59 37.32 75.31"/><polygon id="_Path_43" data-name="&lt;Path&gt;" class="cls-7" points="37.32 75.31 36.59 74.77 36.86 74.4 37.32 75.31"/><polygon id="_Path_44" data-name="&lt;Path&gt;" class="cls-7" points="36.26 75.31 36.99 74.77 36.74 74.4 36.26 75.31"/><polygon id="_Path_45" data-name="&lt;Path&gt;" class="cls-7" points="36.26 75.31 36.53 74.44 36.95 74.59 36.26 75.31"/><polygon id="_Path_46" data-name="&lt;Path&gt;" class="cls-7" points="43.85 69.08 43.63 69.7 43.94 69.81 43.85 69.08"/><polygon id="_Path_47" data-name="&lt;Path&gt;" class="cls-7" points="43.85 69.08 44.04 69.7 43.73 69.81 43.85 69.08"/><polygon id="_Path_48" data-name="&lt;Path&gt;" class="cls-7" points="44.46 69.55 43.82 69.55 43.82 69.86 44.46 69.55"/><polygon id="_Path_49" data-name="&lt;Path&gt;" class="cls-7" points="44.46 69.55 43.94 69.93 43.76 69.66 44.46 69.55"/><polygon id="_Path_50" data-name="&lt;Path&gt;" class="cls-7" points="43.21 69.55 43.76 69.93 43.94 69.66 43.21 69.55"/><polygon id="_Path_51" data-name="&lt;Path&gt;" class="cls-7" points="43.21 69.55 43.87 69.55 43.87 69.86 43.21 69.55"/><polygon id="_Path_52" data-name="&lt;Path&gt;" class="cls-7" points="44.23 70.27 44.02 69.64 43.73 69.75 44.23 70.27"/><polygon id="_Path_53" data-name="&lt;Path&gt;" class="cls-7" points="44.23 70.27 43.71 69.88 43.9 69.62 44.23 70.27"/><polygon id="_Path_54" data-name="&lt;Path&gt;" class="cls-7" points="43.47 70.27 43.99 69.88 43.8 69.62 43.47 70.27"/><polygon id="_Path_55" data-name="&lt;Path&gt;" class="cls-7" points="43.47 70.27 43.66 69.64 43.96 69.75 43.47 70.27"/><polygon id="_Path_56" data-name="&lt;Path&gt;" class="cls-7" points="47.39 73.73 47.03 74.83 47.54 75.01 47.39 73.73"/><polygon id="_Path_57" data-name="&lt;Path&gt;" class="cls-7" points="47.39 73.73 47.72 74.83 47.2 75.01 47.39 73.73"/><polygon id="_Path_58" data-name="&lt;Path&gt;" class="cls-7" points="48.45 74.53 47.31 74.53 47.31 75.09 48.45 74.53"/><polygon id="_Path_59" data-name="&lt;Path&gt;" class="cls-7" points="48.45 74.53 47.53 75.2 47.2 74.73 48.45 74.53"/><polygon id="_Path_60" data-name="&lt;Path&gt;" class="cls-7" points="46.29 74.53 47.21 75.2 47.54 74.73 46.29 74.53"/><polygon id="_Path_61" data-name="&lt;Path&gt;" class="cls-7" points="46.29 74.53 47.42 74.53 47.42 75.09 46.29 74.53"/><polygon id="_Path_62" data-name="&lt;Path&gt;" class="cls-7" points="48.05 75.79 47.69 74.72 47.14 74.9 48.05 75.79"/><polygon id="_Path_63" data-name="&lt;Path&gt;" class="cls-7" points="48.05 75.79 47.12 75.13 47.45 74.67 48.05 75.79"/><polygon id="_Path_64" data-name="&lt;Path&gt;" class="cls-7" points="46.72 75.79 47.62 75.13 47.28 74.67 46.72 75.79"/><polygon id="_Path_65" data-name="&lt;Path&gt;" class="cls-7" points="46.72 75.79 47.05 74.72 47.59 74.9 46.72 75.79"/><polygon id="_Path_66" data-name="&lt;Path&gt;" class="cls-7" points="46.42 76.91 46.06 78.01 46.59 78.18 46.42 76.91"/><polygon id="_Path_67" data-name="&lt;Path&gt;" class="cls-7" points="46.42 76.91 46.76 78.01 46.22 78.18 46.42 76.91"/><polygon id="_Path_68" data-name="&lt;Path&gt;" class="cls-7" points="47.5 77.71 46.36 77.71 46.36 78.27 47.5 77.71"/><polygon id="_Path_69" data-name="&lt;Path&gt;" class="cls-7" points="47.5 77.71 46.57 78.38 46.24 77.92 47.5 77.71"/><polygon id="_Path_70" data-name="&lt;Path&gt;" class="cls-7" points="45.34 77.71 46.26 78.38 46.59 77.92 45.34 77.71"/><polygon id="_Path_71" data-name="&lt;Path&gt;" class="cls-7" points="45.34 77.71 46.48 77.71 46.48 78.27 45.34 77.71"/><polygon id="_Path_72" data-name="&lt;Path&gt;" class="cls-7" points="47.08 78.98 46.75 77.89 46.2 78.07 47.08 78.98"/><polygon id="_Path_73" data-name="&lt;Path&gt;" class="cls-7" points="47.08 78.98 46.15 78.3 46.51 77.85 47.08 78.98"/><polygon id="_Path_74" data-name="&lt;Path&gt;" class="cls-7" points="45.75 78.98 46.67 78.3 46.34 77.85 45.75 78.98"/><polygon id="_Path_75" data-name="&lt;Path&gt;" class="cls-7" points="45.75 78.98 46.1 77.89 46.65 78.07 45.75 78.98"/><polygon id="_Path_76" data-name="&lt;Path&gt;" class="cls-7" points="73.92 52.7 73.5 54 74.17 54.21 73.92 52.7"/><polygon id="_Path_77" data-name="&lt;Path&gt;" class="cls-7" points="73.92 52.7 74.36 54 73.69 54.21 73.92 52.7"/><polygon id="_Path_78" data-name="&lt;Path&gt;" class="cls-7" points="75.22 53.64 73.86 53.64 73.86 54.34 75.22 53.64"/><polygon id="_Path_79" data-name="&lt;Path&gt;" class="cls-7" points="75.22 53.64 74.11 54.45 73.72 53.89 75.22 53.64"/><polygon id="_Path_80" data-name="&lt;Path&gt;" class="cls-7" points="72.62 53.64 73.74 54.45 74.14 53.89 72.62 53.64"/><polygon id="_Path_81" data-name="&lt;Path&gt;" class="cls-7" points="72.62 53.64 74 53.64 74 54.34 72.62 53.64"/><polygon id="_Path_82" data-name="&lt;Path&gt;" class="cls-7" points="74.74 55.19 74.31 53.88 73.67 54.09 74.74 55.19"/><polygon id="_Path_83" data-name="&lt;Path&gt;" class="cls-7" points="74.74 55.19 73.61 54.37 74.02 53.81 74.74 55.19"/><polygon id="_Path_84" data-name="&lt;Path&gt;" class="cls-7" points="73.12 55.19 74.23 54.37 73.83 53.81 73.12 55.19"/><polygon id="_Path_85" data-name="&lt;Path&gt;" class="cls-7" points="73.12 55.19 73.55 53.88 74.22 54.09 73.12 55.19"/><polygon id="_Path_86" data-name="&lt;Path&gt;" class="cls-7" points="86.41 73.86 85.99 75.16 86.65 75.38 86.41 73.86"/><polygon id="_Path_87" data-name="&lt;Path&gt;" class="cls-7" points="86.41 73.86 86.84 75.16 86.21 75.38 86.41 73.86"/><polygon id="_Path_88" data-name="&lt;Path&gt;" class="cls-7" points="87.73 74.81 86.35 74.81 86.35 75.48 87.73 74.81"/><polygon id="_Path_89" data-name="&lt;Path&gt;" class="cls-7" points="87.73 74.81 86.63 75.61 86.21 75.05 87.73 74.81"/><polygon id="_Path_90" data-name="&lt;Path&gt;" class="cls-7" points="85.11 74.81 86.23 75.61 86.63 75.05 85.11 74.81"/><polygon id="_Path_91" data-name="&lt;Path&gt;" class="cls-7" points="85.11 74.81 86.49 74.81 86.49 75.48 85.11 74.81"/><polygon id="_Path_92" data-name="&lt;Path&gt;" class="cls-7" points="87.25 76.34 86.82 75.04 86.16 75.24 87.25 76.34"/><polygon id="_Path_93" data-name="&lt;Path&gt;" class="cls-7" points="87.25 76.34 86.13 75.53 86.54 74.97 87.25 76.34"/><polygon id="_Path_94" data-name="&lt;Path&gt;" class="cls-7" points="85.62 76.34 86.73 75.53 86.32 74.97 85.62 76.34"/><polygon id="_Path_95" data-name="&lt;Path&gt;" class="cls-7" points="85.62 76.34 86.04 75.04 86.7 75.24 85.62 76.34"/><polygon id="_Path_96" data-name="&lt;Path&gt;" class="cls-7" points="90.88 74.62 90.57 75.48 91.03 75.62 90.88 74.62"/><polygon id="_Path_97" data-name="&lt;Path&gt;" class="cls-7" points="90.88 74.62 91.16 75.48 90.7 75.62 90.88 74.62"/><polygon id="_Path_98" data-name="&lt;Path&gt;" class="cls-7" points="91.72 75.25 90.83 75.25 90.83 75.7 91.72 75.25"/><polygon id="_Path_99" data-name="&lt;Path&gt;" class="cls-7" points="91.72 75.25 91 75.79 90.73 75.41 91.72 75.25"/><polygon id="_Path_100" data-name="&lt;Path&gt;" class="cls-7" points="90 75.25 90.73 75.79 91.02 75.41 90 75.25"/><polygon id="_Path_101" data-name="&lt;Path&gt;" class="cls-7" points="90 75.25 90.92 75.25 90.92 75.7 90 75.25"/><polygon id="_Path_102" data-name="&lt;Path&gt;" class="cls-7" points="91.39 76.27 91.14 75.39 90.69 75.55 91.39 76.27"/><polygon id="_Path_103" data-name="&lt;Path&gt;" class="cls-7" points="91.39 76.27 90.66 75.73 90.94 75.36 91.39 76.27"/><polygon id="_Path_104" data-name="&lt;Path&gt;" class="cls-7" points="90.33 76.27 91.06 75.73 90.8 75.36 90.33 76.27"/><polygon id="_Path_105" data-name="&lt;Path&gt;" class="cls-7" points="90.33 76.27 90.61 75.39 91.03 75.55 90.33 76.27"/><polygon id="_Path_106" data-name="&lt;Path&gt;" class="cls-7" points="87.73 76.91 87.39 78.01 87.92 78.18 87.73 76.91"/><polygon id="_Path_107" data-name="&lt;Path&gt;" class="cls-7" points="87.73 76.91 88.07 78.01 87.56 78.18 87.73 76.91"/><polygon id="_Path_108" data-name="&lt;Path&gt;" class="cls-7" points="88.81 77.71 87.67 77.71 87.67 78.27 88.81 77.71"/><polygon id="_Path_109" data-name="&lt;Path&gt;" class="cls-7" points="88.81 77.71 87.92 78.38 87.56 77.92 88.81 77.71"/><polygon id="_Path_110" data-name="&lt;Path&gt;" class="cls-7" points="86.65 77.71 87.59 78.38 87.92 77.92 86.65 77.71"/><polygon id="_Path_111" data-name="&lt;Path&gt;" class="cls-7" points="86.65 77.71 87.79 77.71 87.79 78.27 86.65 77.71"/><polygon id="_Path_112" data-name="&lt;Path&gt;" class="cls-7" points="88.4 78.98 88.06 77.89 87.51 78.07 88.4 78.98"/><polygon id="_Path_113" data-name="&lt;Path&gt;" class="cls-7" points="88.4 78.98 87.48 78.3 87.82 77.85 88.4 78.98"/><polygon id="_Path_114" data-name="&lt;Path&gt;" class="cls-7" points="87.06 78.98 87.98 78.3 87.65 77.85 87.06 78.98"/><polygon id="_Path_115" data-name="&lt;Path&gt;" class="cls-7" points="87.06 78.98 87.41 77.89 87.96 78.07 87.06 78.98"/><polygon id="_Path_116" data-name="&lt;Path&gt;" class="cls-7" points="80.03 83.62 79.67 84.7 80.2 84.88 80.03 83.62"/><polygon id="_Path_117" data-name="&lt;Path&gt;" class="cls-7" points="80.03 83.62 80.37 84.7 79.82 84.88 80.03 83.62"/><polygon id="_Path_118" data-name="&lt;Path&gt;" class="cls-7" points="81.11 84.42 79.97 84.42 79.97 84.99 81.11 84.42"/><polygon id="_Path_119" data-name="&lt;Path&gt;" class="cls-7" points="81.11 84.42 80.18 85.08 79.85 84.61 81.11 84.42"/><polygon id="_Path_120" data-name="&lt;Path&gt;" class="cls-7" points="78.95 84.42 79.87 85.08 80.18 84.61 78.95 84.42"/><polygon id="_Path_121" data-name="&lt;Path&gt;" class="cls-7" points="78.95 84.42 80.09 84.42 80.09 84.99 78.95 84.42"/><polygon id="_Path_122" data-name="&lt;Path&gt;" class="cls-7" points="80.68 85.69 80.36 84.6 79.78 84.77 80.68 85.69"/><polygon id="_Path_123" data-name="&lt;Path&gt;" class="cls-7" points="80.68 85.69 79.76 85.01 80.09 84.56 80.68 85.69"/><polygon id="_Path_124" data-name="&lt;Path&gt;" class="cls-7" points="79.36 85.69 80.28 85.01 79.95 84.56 79.36 85.69"/><polygon id="_Path_125" data-name="&lt;Path&gt;" class="cls-7" points="79.36 85.69 79.71 84.6 80.26 84.77 79.36 85.69"/><polygon id="_Path_126" data-name="&lt;Path&gt;" class="cls-7" points="79.97 87.08 79.71 87.93 80.14 88.08 79.97 87.08"/><polygon id="_Path_127" data-name="&lt;Path&gt;" class="cls-7" points="79.97 87.08 80.26 87.93 79.82 88.08 79.97 87.08"/><polygon id="_Path_128" data-name="&lt;Path&gt;" class="cls-7" points="80.84 87.71 79.95 87.71 79.95 88.16 80.84 87.71"/><polygon id="_Path_129" data-name="&lt;Path&gt;" class="cls-7" points="80.84 87.71 80.09 88.23 79.82 87.87 80.84 87.71"/><polygon id="_Path_130" data-name="&lt;Path&gt;" class="cls-7" points="79.12 87.71 79.85 88.23 80.12 87.87 79.12 87.71"/><polygon id="_Path_131" data-name="&lt;Path&gt;" class="cls-7" points="79.12 87.71 80.03 87.71 80.03 88.16 79.12 87.71"/><polygon id="_Path_132" data-name="&lt;Path&gt;" class="cls-7" points="80.51 88.71 80.23 87.86 79.78 87.99 80.51 88.71"/><polygon id="_Path_133" data-name="&lt;Path&gt;" class="cls-7" points="80.51 88.71 79.76 88.19 80.04 87.82 80.51 88.71"/><polygon id="_Path_134" data-name="&lt;Path&gt;" class="cls-7" points="79.45 88.71 80.18 88.19 79.9 87.82 79.45 88.71"/><polygon id="_Path_135" data-name="&lt;Path&gt;" class="cls-7" points="79.45 88.71 79.73 87.86 80.15 87.99 79.45 88.71"/><polygon id="_Path_136" data-name="&lt;Path&gt;" class="cls-7" points="83.22 81.32 82.91 82.19 83.33 82.33 83.22 81.32"/><polygon id="_Path_137" data-name="&lt;Path&gt;" class="cls-7" points="83.22 81.32 83.47 82.19 83.05 82.33 83.22 81.32"/><polygon id="_Path_138" data-name="&lt;Path&gt;" class="cls-7" points="84.07 81.95 83.14 81.95 83.14 82.41 84.07 81.95"/><polygon id="_Path_139" data-name="&lt;Path&gt;" class="cls-7" points="84.07 81.95 83.33 82.5 83.05 82.14 84.07 81.95"/><polygon id="_Path_140" data-name="&lt;Path&gt;" class="cls-7" points="82.34 81.95 83.08 82.5 83.33 82.14 82.34 81.95"/><polygon id="_Path_141" data-name="&lt;Path&gt;" class="cls-7" points="82.34 81.95 83.27 81.95 83.27 82.41 82.34 81.95"/><polygon id="_Path_142" data-name="&lt;Path&gt;" class="cls-7" points="83.74 82.97 83.45 82.11 83.03 82.25 83.74 82.97"/><polygon id="_Path_143" data-name="&lt;Path&gt;" class="cls-7" points="83.74 82.97 83 82.44 83.3 82.07 83.74 82.97"/><polygon id="_Path_144" data-name="&lt;Path&gt;" class="cls-7" points="82.67 82.97 83.41 82.44 83.14 82.07 82.67 82.97"/><polygon id="_Path_145" data-name="&lt;Path&gt;" class="cls-7" points="82.67 82.97 82.96 82.11 83.39 82.25 82.67 82.97"/><polygon id="_Path_146" data-name="&lt;Path&gt;" class="cls-7" points="85.77 79.49 85.43 80.57 85.95 80.74 85.77 79.49"/><polygon id="_Path_147" data-name="&lt;Path&gt;" class="cls-7" points="85.77 79.49 86.13 80.57 85.57 80.74 85.77 79.49"/><polygon id="_Path_148" data-name="&lt;Path&gt;" class="cls-7" points="86.84 80.28 85.71 80.28 85.71 80.84 86.84 80.28"/><polygon id="_Path_149" data-name="&lt;Path&gt;" class="cls-7" points="86.84 80.28 85.95 80.95 85.62 80.48 86.84 80.28"/><polygon id="_Path_150" data-name="&lt;Path&gt;" class="cls-7" points="84.69 80.28 85.62 80.95 85.95 80.48 84.69 80.28"/><polygon id="_Path_151" data-name="&lt;Path&gt;" class="cls-7" points="84.69 80.28 85.82 80.28 85.82 80.84 84.69 80.28"/><polygon id="_Path_152" data-name="&lt;Path&gt;" class="cls-7" points="86.44 81.54 86.11 80.47 85.54 80.64 86.44 81.54"/><polygon id="_Path_153" data-name="&lt;Path&gt;" class="cls-7" points="86.44 81.54 85.52 80.87 85.85 80.41 86.44 81.54"/><polygon id="_Path_154" data-name="&lt;Path&gt;" class="cls-7" points="85.1 81.54 86.04 80.87 85.68 80.41 85.1 81.54"/><polygon id="_Path_155" data-name="&lt;Path&gt;" class="cls-7" points="85.1 81.54 85.47 80.47 85.99 80.64 85.1 81.54"/><polygon id="_Path_156" data-name="&lt;Path&gt;" class="cls-7" points="79.87 80.71 79.62 81.58 80.04 81.73 79.87 80.71"/><polygon id="_Path_157" data-name="&lt;Path&gt;" class="cls-7" points="79.87 80.71 80.18 81.58 79.73 81.73 79.87 80.71"/><polygon id="_Path_158" data-name="&lt;Path&gt;" class="cls-7" points="80.78 81.35 79.85 81.35 79.85 81.8 80.78 81.35"/><polygon id="_Path_159" data-name="&lt;Path&gt;" class="cls-7" points="80.78 81.35 80.03 81.88 79.76 81.5 80.78 81.35"/><polygon id="_Path_160" data-name="&lt;Path&gt;" class="cls-7" points="79.03 81.35 79.76 81.88 80.03 81.5 79.03 81.35"/><polygon id="_Path_161" data-name="&lt;Path&gt;" class="cls-7" points="79.03 81.35 79.95 81.35 79.95 81.8 79.03 81.35"/><polygon id="_Path_162" data-name="&lt;Path&gt;" class="cls-7" points="80.45 82.38 80.15 81.5 79.71 81.63 80.45 82.38"/><polygon id="_Path_163" data-name="&lt;Path&gt;" class="cls-7" points="80.45 82.38 79.69 81.82 79.95 81.47 80.45 82.38"/><polygon id="_Path_164" data-name="&lt;Path&gt;" class="cls-7" points="79.36 82.38 80.09 81.82 79.82 81.47 79.36 82.38"/><polygon id="_Path_165" data-name="&lt;Path&gt;" class="cls-7" points="79.36 82.38 79.64 81.5 80.09 81.63 79.36 82.38"/><polygon id="_Path_166" data-name="&lt;Path&gt;" class="cls-7" points="51.82 64.16 51.46 65.24 52.01 65.41 51.82 64.16"/><polygon id="_Path_167" data-name="&lt;Path&gt;" class="cls-7" points="51.82 64.16 52.16 65.24 51.63 65.41 51.82 64.16"/><polygon id="_Path_168" data-name="&lt;Path&gt;" class="cls-7" points="52.9 64.95 51.77 64.95 51.77 65.52 52.9 64.95"/><polygon id="_Path_169" data-name="&lt;Path&gt;" class="cls-7" points="52.9 64.95 51.98 65.63 51.65 65.16 52.9 64.95"/><polygon id="_Path_170" data-name="&lt;Path&gt;" class="cls-7" points="50.72 64.95 51.65 65.63 51.98 65.16 50.72 64.95"/><polygon id="_Path_171" data-name="&lt;Path&gt;" class="cls-7" points="50.72 64.95 51.86 64.95 51.86 65.52 50.72 64.95"/><polygon id="_Path_172" data-name="&lt;Path&gt;" class="cls-7" points="52.48 66.22 52.15 65.15 51.6 65.32 52.48 66.22"/><polygon id="_Path_173" data-name="&lt;Path&gt;" class="cls-7" points="52.48 66.22 51.55 65.56 51.88 65.09 52.48 66.22"/><polygon id="_Path_174" data-name="&lt;Path&gt;" class="cls-7" points="51.13 66.22 52.07 65.56 51.74 65.09 51.13 66.22"/><polygon id="_Path_175" data-name="&lt;Path&gt;" class="cls-7" points="51.13 66.22 51.5 65.15 52.02 65.32 51.13 66.22"/><polygon id="_Path_176" data-name="&lt;Path&gt;" class="cls-7" points="72.7 61.46 72.44 62.34 72.86 62.47 72.7 61.46"/><polygon id="_Path_177" data-name="&lt;Path&gt;" class="cls-7" points="72.7 61.46 73 62.34 72.56 62.47 72.7 61.46"/><polygon id="_Path_178" data-name="&lt;Path&gt;" class="cls-7" points="73.59 62.11 72.67 62.11 72.67 62.55 73.59 62.11"/><polygon id="_Path_179" data-name="&lt;Path&gt;" class="cls-7" points="73.59 62.11 72.84 62.64 72.58 62.27 73.59 62.11"/><polygon id="_Path_180" data-name="&lt;Path&gt;" class="cls-7" points="71.84 62.11 72.58 62.64 72.84 62.27 71.84 62.11"/><polygon id="_Path_181" data-name="&lt;Path&gt;" class="cls-7" points="71.84 62.11 72.77 62.11 72.77 62.55 71.84 62.11"/><polygon id="_Path_182" data-name="&lt;Path&gt;" class="cls-7" points="73.26 63.13 72.95 62.25 72.53 62.4 73.26 63.13"/><polygon id="_Path_183" data-name="&lt;Path&gt;" class="cls-7" points="73.26 63.13 72.5 62.58 72.77 62.21 73.26 63.13"/><polygon id="_Path_184" data-name="&lt;Path&gt;" class="cls-7" points="72.17 63.13 72.91 62.58 72.64 62.21 72.17 63.13"/><polygon id="_Path_185" data-name="&lt;Path&gt;" class="cls-7" points="72.17 63.13 72.45 62.25 72.89 62.4 72.17 63.13"/><polygon id="_Path_186" data-name="&lt;Path&gt;" class="cls-7" points="64 76.99 63.57 78.29 64.23 78.51 64 76.99"/><polygon id="_Path_187" data-name="&lt;Path&gt;" class="cls-7" points="64 76.99 64.42 78.29 63.78 78.51 64 76.99"/><polygon id="_Path_188" data-name="&lt;Path&gt;" class="cls-7" points="65.3 77.94 63.95 77.94 63.95 78.63 65.3 77.94"/><polygon id="_Path_189" data-name="&lt;Path&gt;" class="cls-7" points="65.3 77.94 64.2 78.75 63.81 78.18 65.3 77.94"/><polygon id="_Path_190" data-name="&lt;Path&gt;" class="cls-7" points="62.7 77.94 63.83 78.75 64.2 78.18 62.7 77.94"/><polygon id="_Path_191" data-name="&lt;Path&gt;" class="cls-7" points="62.7 77.94 64.06 77.94 64.06 78.63 62.7 77.94"/><polygon id="_Path_192" data-name="&lt;Path&gt;" class="cls-7" points="64.8 79.47 64.4 78.18 63.73 78.38 64.8 79.47"/><polygon id="_Path_193" data-name="&lt;Path&gt;" class="cls-7" points="64.8 79.47 63.71 78.66 64.09 78.11 64.8 79.47"/><polygon id="_Path_194" data-name="&lt;Path&gt;" class="cls-7" points="63.2 79.47 64.31 78.66 63.9 78.11 63.2 79.47"/><polygon id="_Path_195" data-name="&lt;Path&gt;" class="cls-7" points="63.2 79.47 63.62 78.18 64.28 78.38 63.2 79.47"/><polygon id="_Path_196" data-name="&lt;Path&gt;" class="cls-7" points="67.72 70.87 67.36 71.95 67.91 72.12 67.72 70.87"/><polygon id="_Path_197" data-name="&lt;Path&gt;" class="cls-7" points="67.72 70.87 68.07 71.95 67.52 72.12 67.72 70.87"/><polygon id="_Path_198" data-name="&lt;Path&gt;" class="cls-7" points="68.79 71.66 67.64 71.66 67.64 72.21 68.79 71.66"/><polygon id="_Path_199" data-name="&lt;Path&gt;" class="cls-7" points="68.79 71.66 67.86 72.32 67.52 71.86 68.79 71.66"/><polygon id="_Path_200" data-name="&lt;Path&gt;" class="cls-7" points="66.63 71.66 67.55 72.32 67.88 71.86 66.63 71.66"/><polygon id="_Path_201" data-name="&lt;Path&gt;" class="cls-7" points="66.63 71.66 67.77 71.66 67.77 72.21 66.63 71.66"/><polygon id="_Path_202" data-name="&lt;Path&gt;" class="cls-7" points="68.38 72.93 68.02 71.84 67.49 72.02 68.38 72.93"/><polygon id="_Path_203" data-name="&lt;Path&gt;" class="cls-7" points="68.38 72.93 67.46 72.25 67.79 71.79 68.38 72.93"/><polygon id="_Path_204" data-name="&lt;Path&gt;" class="cls-7" points="67.03 72.93 67.96 72.25 67.63 71.79 67.03 72.93"/><polygon id="_Path_205" data-name="&lt;Path&gt;" class="cls-7" points="67.03 72.93 67.38 71.84 67.93 72.02 67.03 72.93"/><polygon id="_Path_206" data-name="&lt;Path&gt;" class="cls-7" points="64 68 63.64 69.07 64.19 69.25 64 68"/><polygon id="_Path_207" data-name="&lt;Path&gt;" class="cls-7" points="64 68 64.34 69.07 63.83 69.25 64 68"/><polygon id="_Path_208" data-name="&lt;Path&gt;" class="cls-7" points="65.08 68.78 63.95 68.78 63.95 69.35 65.08 68.78"/><polygon id="_Path_209" data-name="&lt;Path&gt;" class="cls-7" points="65.08 68.78 64.17 69.44 63.83 68.99 65.08 68.78"/><polygon id="_Path_210" data-name="&lt;Path&gt;" class="cls-7" points="62.93 68.78 63.86 69.44 64.17 68.99 62.93 68.78"/><polygon id="_Path_211" data-name="&lt;Path&gt;" class="cls-7" points="62.93 68.78 64.06 68.78 64.06 69.35 62.93 68.78"/><polygon id="_Path_212" data-name="&lt;Path&gt;" class="cls-7" points="64.68 70.06 64.33 68.97 63.78 69.14 64.68 70.06"/><polygon id="_Path_213" data-name="&lt;Path&gt;" class="cls-7" points="64.68 70.06 63.76 69.39 64.09 68.92 64.68 70.06"/><polygon id="_Path_214" data-name="&lt;Path&gt;" class="cls-7" points="63.34 70.06 64.25 69.39 63.92 68.92 63.34 70.06"/><polygon id="_Path_215" data-name="&lt;Path&gt;" class="cls-7" points="63.34 70.06 63.68 68.97 64.23 69.14 63.34 70.06"/><polygon id="_Path_216" data-name="&lt;Path&gt;" class="cls-7" points="60.77 71.09 60.49 71.97 60.94 72.11 60.77 71.09"/><polygon id="_Path_217" data-name="&lt;Path&gt;" class="cls-7" points="60.77 71.09 61.08 71.97 60.63 72.11 60.77 71.09"/><polygon id="_Path_218" data-name="&lt;Path&gt;" class="cls-7" points="61.65 71.72 60.74 71.72 60.74 72.17 61.65 71.72"/><polygon id="_Path_219" data-name="&lt;Path&gt;" class="cls-7" points="61.65 71.72 60.91 72.26 60.63 71.88 61.65 71.72"/><polygon id="_Path_220" data-name="&lt;Path&gt;" class="cls-7" points="59.93 71.72 60.65 72.26 60.91 71.88 59.93 71.72"/><polygon id="_Path_221" data-name="&lt;Path&gt;" class="cls-7" points="59.93 71.72 60.82 71.72 60.82 72.17 59.93 71.72"/><polygon id="_Path_222" data-name="&lt;Path&gt;" class="cls-7" points="61.32 72.74 61.05 71.88 60.6 72.02 61.32 72.74"/><polygon id="_Path_223" data-name="&lt;Path&gt;" class="cls-7" points="61.32 72.74 60.59 72.21 60.87 71.84 61.32 72.74"/><polygon id="_Path_224" data-name="&lt;Path&gt;" class="cls-7" points="60.26 72.74 60.99 72.21 60.72 71.84 60.26 72.74"/><polygon id="_Path_225" data-name="&lt;Path&gt;" class="cls-7" points="60.26 72.74 60.54 71.88 60.96 72.02 60.26 72.74"/><polygon id="_Path_226" data-name="&lt;Path&gt;" class="cls-7" points="62.4 73.57 62.2 74.19 62.51 74.29 62.4 73.57"/><polygon id="_Path_227" data-name="&lt;Path&gt;" class="cls-7" points="62.4 73.57 62.59 74.19 62.29 74.29 62.4 73.57"/><polygon id="_Path_228" data-name="&lt;Path&gt;" class="cls-7" points="63.02 74.02 62.37 74.02 62.37 74.35 63.02 74.02"/><polygon id="_Path_229" data-name="&lt;Path&gt;" class="cls-7" points="63.02 74.02 62.51 74.41 62.31 74.14 63.02 74.02"/><polygon id="_Path_230" data-name="&lt;Path&gt;" class="cls-7" points="61.77 74.02 62.31 74.41 62.51 74.14 61.77 74.02"/><polygon id="_Path_231" data-name="&lt;Path&gt;" class="cls-7" points="61.77 74.02 62.43 74.02 62.43 74.35 61.77 74.02"/><polygon id="_Path_232" data-name="&lt;Path&gt;" class="cls-7" points="62.76 74.76 62.57 74.14 62.26 74.23 62.76 74.76"/><polygon id="_Path_233" data-name="&lt;Path&gt;" class="cls-7" points="62.76 74.76 62.24 74.37 62.45 74.1 62.76 74.76"/><polygon id="_Path_234" data-name="&lt;Path&gt;" class="cls-7" points="62.01 74.76 62.53 74.37 62.34 74.1 62.01 74.76"/><polygon id="_Path_235" data-name="&lt;Path&gt;" class="cls-7" points="62.01 74.76 62.23 74.14 62.53 74.23 62.01 74.76"/><polygon id="_Path_236" data-name="&lt;Path&gt;" class="cls-7" points="73.59 84.4 73.23 85.49 73.78 85.67 73.59 84.4"/><polygon id="_Path_237" data-name="&lt;Path&gt;" class="cls-7" points="73.59 84.4 73.95 85.49 73.39 85.67 73.59 84.4"/><polygon id="_Path_238" data-name="&lt;Path&gt;" class="cls-7" points="74.66 85.18 73.53 85.18 73.53 85.77 74.66 85.18"/><polygon id="_Path_239" data-name="&lt;Path&gt;" class="cls-7" points="74.66 85.18 73.74 85.86 73.41 85.39 74.66 85.18"/><polygon id="_Path_240" data-name="&lt;Path&gt;" class="cls-7" points="72.5 85.18 73.41 85.86 73.77 85.39 72.5 85.18"/><polygon id="_Path_241" data-name="&lt;Path&gt;" class="cls-7" points="72.5 85.18 73.64 85.18 73.64 85.77 72.5 85.18"/><polygon id="_Path_242" data-name="&lt;Path&gt;" class="cls-7" points="74.25 86.47 73.9 85.38 73.36 85.56 74.25 86.47"/><polygon id="_Path_243" data-name="&lt;Path&gt;" class="cls-7" points="74.25 86.47 73.33 85.8 73.67 85.34 74.25 86.47"/><polygon id="_Path_244" data-name="&lt;Path&gt;" class="cls-7" points="72.91 86.47 73.83 85.8 73.5 85.34 72.91 86.47"/><polygon id="_Path_245" data-name="&lt;Path&gt;" class="cls-7" points="72.91 86.47 73.26 85.38 73.81 85.56 72.91 86.47"/><polygon id="_Path_246" data-name="&lt;Path&gt;" class="cls-7" points="76.32 81.8 76.04 82.67 76.46 82.82 76.32 81.8"/><polygon id="_Path_247" data-name="&lt;Path&gt;" class="cls-7" points="76.32 81.8 76.6 82.67 76.16 82.82 76.32 81.8"/><polygon id="_Path_248" data-name="&lt;Path&gt;" class="cls-7" points="77.19 82.44 76.27 82.44 76.27 82.88 77.19 82.44"/><polygon id="_Path_249" data-name="&lt;Path&gt;" class="cls-7" points="77.19 82.44 76.46 82.97 76.18 82.61 77.19 82.44"/><polygon id="_Path_250" data-name="&lt;Path&gt;" class="cls-7" points="75.44 82.44 76.18 82.97 76.46 82.61 75.44 82.44"/><polygon id="_Path_251" data-name="&lt;Path&gt;" class="cls-7" points="75.44 82.44 76.37 82.44 76.37 82.88 75.44 82.44"/><polygon id="_Path_252" data-name="&lt;Path&gt;" class="cls-7" points="76.86 83.45 76.58 82.58 76.16 82.73 76.86 83.45"/><polygon id="_Path_253" data-name="&lt;Path&gt;" class="cls-7" points="76.86 83.45 76.13 82.92 76.4 82.55 76.86 83.45"/><polygon id="_Path_254" data-name="&lt;Path&gt;" class="cls-7" points="75.8 83.45 76.53 82.92 76.25 82.55 75.8 83.45"/><polygon id="_Path_255" data-name="&lt;Path&gt;" class="cls-7" points="75.8 83.45 76.08 82.58 76.51 82.73 75.8 83.45"/><polygon id="_Path_256" data-name="&lt;Path&gt;" class="cls-7" points="71.06 81.02 70.78 81.88 71.2 82.03 71.06 81.02"/><polygon id="_Path_257" data-name="&lt;Path&gt;" class="cls-7" points="71.06 81.02 71.34 81.88 70.92 82.03 71.06 81.02"/><polygon id="_Path_258" data-name="&lt;Path&gt;" class="cls-7" points="71.92 81.64 71.01 81.64 71.01 82.11 71.92 81.64"/><polygon id="_Path_259" data-name="&lt;Path&gt;" class="cls-7" points="71.92 81.64 71.18 82.19 70.92 81.81 71.92 81.64"/><polygon id="_Path_260" data-name="&lt;Path&gt;" class="cls-7" points="70.18 81.64 70.92 82.19 71.18 81.81 70.18 81.64"/><polygon id="_Path_261" data-name="&lt;Path&gt;" class="cls-7" points="70.18 81.64 71.11 81.64 71.11 82.11 70.18 81.64"/><polygon id="_Path_262" data-name="&lt;Path&gt;" class="cls-7" points="71.6 82.67 71.32 81.8 70.87 81.95 71.6 82.67"/><polygon id="_Path_263" data-name="&lt;Path&gt;" class="cls-7" points="71.6 82.67 70.84 82.14 71.13 81.77 71.6 82.67"/><polygon id="_Path_264" data-name="&lt;Path&gt;" class="cls-7" points="70.51 82.67 71.25 82.14 70.98 81.77 70.51 82.67"/><polygon id="_Path_265" data-name="&lt;Path&gt;" class="cls-7" points="70.51 82.67 70.79 81.8 71.25 81.95 70.51 82.67"/><polygon id="_Path_266" data-name="&lt;Path&gt;" class="cls-7" points="51.15 79.6 50.74 80.9 51.38 81.11 51.15 79.6"/><polygon id="_Path_267" data-name="&lt;Path&gt;" class="cls-7" points="51.15 79.6 51.57 80.9 50.94 81.11 51.15 79.6"/><polygon id="_Path_268" data-name="&lt;Path&gt;" class="cls-7" points="52.48 80.56 51.1 80.56 51.1 81.24 52.48 80.56"/><polygon id="_Path_269" data-name="&lt;Path&gt;" class="cls-7" points="52.48 80.56 51.34 81.36 50.96 80.8 52.48 80.56"/><polygon id="_Path_270" data-name="&lt;Path&gt;" class="cls-7" points="49.84 80.56 50.99 81.36 51.36 80.8 49.84 80.56"/><polygon id="_Path_271" data-name="&lt;Path&gt;" class="cls-7" points="49.84 80.56 51.22 80.56 51.22 81.24 49.84 80.56"/><polygon id="_Path_272" data-name="&lt;Path&gt;" class="cls-7" points="51.96 82.08 51.55 80.79 50.91 80.99 51.96 82.08"/><polygon id="_Path_273" data-name="&lt;Path&gt;" class="cls-7" points="51.96 82.08 50.86 81.28 51.24 80.72 51.96 82.08"/><polygon id="_Path_274" data-name="&lt;Path&gt;" class="cls-7" points="50.35 82.08 51.46 81.28 51.05 80.72 50.35 82.08"/><polygon id="_Path_275" data-name="&lt;Path&gt;" class="cls-7" points="50.35 82.08 50.8 80.79 51.43 80.99 50.35 82.08"/><polygon id="_Path_276" data-name="&lt;Path&gt;" class="cls-7" points="64 88.57 63.86 89.01 64.06 89.08 64 88.57"/><polygon id="_Path_277" data-name="&lt;Path&gt;" class="cls-7" points="64 88.57 64.14 89.01 63.95 89.08 64 88.57"/><polygon id="_Path_278" data-name="&lt;Path&gt;" class="cls-7" points="64.45 88.89 63.97 88.89 63.97 89.11 64.45 88.89"/><polygon id="_Path_279" data-name="&lt;Path&gt;" class="cls-7" points="64.45 88.89 64.06 89.16 63.95 88.97 64.45 88.89"/><polygon id="_Path_280" data-name="&lt;Path&gt;" class="cls-7" points="63.57 88.89 63.95 89.16 64.06 88.97 63.57 88.89"/><polygon id="_Path_281" data-name="&lt;Path&gt;" class="cls-7" points="63.57 88.89 64.01 88.89 64.01 89.11 63.57 88.89"/><polygon id="_Path_282" data-name="&lt;Path&gt;" class="cls-7" points="64.25 89.4 64.14 88.96 63.92 89.04 64.25 89.4"/><polygon id="_Path_283" data-name="&lt;Path&gt;" class="cls-7" points="64.25 89.4 63.9 89.13 64.01 88.96 64.25 89.4"/><polygon id="_Path_284" data-name="&lt;Path&gt;" class="cls-7" points="63.73 89.4 64.09 89.13 63.97 88.96 63.73 89.4"/><polygon id="_Path_285" data-name="&lt;Path&gt;" class="cls-7" points="63.73 89.4 63.88 88.96 64.09 89.04 63.73 89.4"/></g></g></g></g></g></g></g></svg>