<svg id="Layer_1" data-name="Layer 1" xmlns="http://www.w3.org/2000/svg" xmlns:xlink="http://www.w3.org/1999/xlink" viewBox="0 0 128 128"><defs><style>.cls-1,.cls-6,.cls-7,.cls-8{fill:none;}.cls-2{clip-path:url(#clip-path);}.cls-3{fill:#ffd520;}.cls-4{fill:#ff4e12;}.cls-5,.cls-9{fill:#fff;}.cls-5,.cls-6,.cls-7,.cls-8,.cls-9{stroke:#000;stroke-width:0.11px;}.cls-7,.cls-8,.cls-9{stroke-linecap:round;}.cls-8{stroke-linejoin:round;}</style><clipPath id="clip-path"><circle class="cls-1" cx="64" cy="64" r="64"/></clipPath></defs><title>Flag_circle_Bhutan</title><g class="cls-2"><rect class="cls-3" x="-46" width="220" height="128"/><path class="cls-4" d="M-46,128H174V0Z"/><path class="cls-5" d="M71.07,40c-1.06-.38-1.75.17-1.71,1.54s.75,2.17,1.82,1.65L71.07,40Z"/><path class="cls-5" d="M72,37.45c-.89-.7-1.72-.4-2.12.91s0,2.29,1.19,2.14l.93-3Z"/><path class="cls-5" d="M73.48,35c-.76-.84-1.62-.67-2.24.56s-.34,2.26.84,2.31L73.48,35Z"/><path class="cls-5" d="M72.52,47.06c-1.31.48-1.45,2.27-.62,3.36a1.83,1.83,0,0,0,3.16,0l-2.54-3.36Z"/><path class="cls-5" d="M71,43.28c-1.24-.41-2.36,1.25-2.55,2.75-.24,1.89-2.92,2.51-1.44,5.36a3.18,3.18,0,0,1,2.47-2.89c1-.07,2.41-.27,3-1.44L71,43.28Z"/><path class="cls-5" d="M74.92,50.63c-1.44.34-1.65,2.27-.62,3.64.88,1.18,3.64.89,3.57-.27l-3-3.37Z"/><path class="cls-5" d="M79,62.2c.07-1.23-1.93-1.71-2.89-1.47s-2.8,0-3.23-1.07c-.34.83.16,1.72,1.55,2.17,1,.33,1,1.09.72,1.44.79.14,3.13.14,3.85-1.07Z"/><path class="cls-5" d="M77.87,54.31c-1.4-.62-2.24.32-2.78,1.23-.79,1.34-3.23-.38-4,1.41,1.12-.48,2.25.55,2.78.89,1.51,1,4.43.69,4.84-1.65l-.79-1.88Z"/><path class="cls-5" d="M78.7,56a4.17,4.17,0,0,0-1.92,3.2c0,.86,1.23,2.74,2.54,2.85.75-1.55,1.13-4.81-.62-6Z"/><path class="cls-5" d="M72.86,62.58c0-.51.76-.72,1.27-.55s1.31.69,1,1.24l-2.3-.69Z"/><path class="cls-5" d="M65.1,59.77c-.14-.62.86-1.69,2.2-1.1s1.51,1.71,1,2.16L65.1,59.77Z"/><path class="cls-5" d="M68.36,60.9c-.1-.35.86-1,2.51-.62s2,1.47,2,2.3l-4.5-1.68Z"/><path class="cls-5" d="M64.93,59.77a1.36,1.36,0,0,0-.24-2.27c-1.41-.69-.9-2.47-1.79-2.82s-1.75-1-1.79-1.58a1.73,1.73,0,0,0,.45,2.2c.62.55-.48,2.78.31,3.37l3.06,1.1Z"/><path class="cls-5" d="M46.52,59.29a2.09,2.09,0,0,0-3.16-.14,1.7,1.7,0,0,0,.07,2.47l3.09-2.33Z"/><path class="cls-5" d="M50.64,57.6c-.27-1.51-2.09-1.68-3.09-1.3a2.18,2.18,0,0,0-1,3l4.12-1.68Z"/><path class="cls-5" d="M53.39,57.4c.65-1.28-.62-3.16-2.06-3.44-1.21-.23-2.63-.22-3.09-1.41-.3,1,.48,1.69,1.37,2.27s-.17,2.09,1.27,3l2.51-.37Z"/><path class="cls-5" d="M53.25,57.44a1.54,1.54,0,0,1,1.54-2c1.24.09,1.94,1,1.4,2.11l-2.94-.07Z"/><path class="cls-5" d="M56,57.51a1.53,1.53,0,0,1,1.81-1.8C59,56,59.59,57,58.9,58L56,57.51Z"/><path class="cls-5" d="M58.73,57.94a1.53,1.53,0,0,1,1.9-1.71c1.19.32,1.71,1.34,1,2.33l-2.87-.62Z"/><path class="cls-5" d="M38,73.67c-2.3,0-2.86.55-3.19,2.92C34.4,79.55,38.41,79.89,38,73.67Z"/><path class="cls-5" d="M39,70.58c-3.53-1.34-5.46,4.26-9,3.27,1.25,2,4.29,0,5.43.2,1.92.35,6.07-.38,3.53-3.47Z"/><path class="cls-5" d="M36.73,78.24c-1.75-.79-3.64,1.89-3.3,3.06C33.87,82.78,37.86,81.57,36.73,78.24Z"/><path class="cls-5" d="M28.56,89.78a2.27,2.27,0,0,1,1.92,2.68c-.2,1.85-3.71,5.63-6.87,5.84s-4.29,4-7,3c2.54-.48,2.54-3.36,4.53-4.26-1.44-.51-2.2,2.75-4.05,2.75s-2.75,3-5,2.75-2.5,3.59-7,3.64c-3.46,0-7.76,4.08-9.3,2.33,3.36-.48,4.72-2.34,6.73-4.39,3.23-3.3,6.87-1.82,8.1-4.74a8.48,8.48,0,0,1-4.87,1.44c-2.12,0-4.43,3.37-6.8,1.86,1.37-.18,2.26-.76,3.71-2.27S6.24,99.81,8,98.23c2.68-2.47,5-.41,7.56-3.5-.72-.35-2.27-.11-3.71.65s-3.3-.52-5,.38c.21-2,4.06-.87,6.46-2.27,2.71-1.58,5-1.12,7.11-.93-3,0-4.16-2.85-8.28-2-1.79.36-3.23-2.48-5-1,0-1.07,1.92-1.93,3.85-.9s2.69-.9,6.52,1.51c1.58,1,4.29-.61,6,.45-.22-.65-1.2-1.06-2.35-1,.72-1.47,5.37-1.29,7.4.19Z"/><path class="cls-5" d="M31.62,87.55c-1.52-1.17-3.61.24-5.05-.31a3.07,3.07,0,0,0,2.06,3,38.31,38.31,0,0,0,3-2.64Z"/><path class="cls-5" d="M34,84.22C31.62,83,31.2,86,29.35,85.39a2.5,2.5,0,0,0,2.27,2.16L34,84.22Z"/><path class="cls-5" d="M35.39,81.5c-3.5-1.37-3.95,2-6,1.34.48,1.17,3.44,1.79,4.95,1.38l1.06-2.72Z"/><path class="cls-5" d="M40.2,66.77c-.93-1.3-2.88-.24-3.19,1.31s.44,3.71,1.75,3.22l1.44-4.53Z"/><path class="cls-5" d="M42.57,62.65C41,62.27,39.1,62.44,39.31,64c-.62.28-.79,2.3.89,2.75l2.37-4.12Z"/><path class="cls-5" d="M43.63,61.59c-1.58-1.86-3.34-1.82-4.32-1-1.82,1.45-3.59.62-3.64,2.07,1.1-.85,2.06.17,2.95-.14s1.55,1.41,4,.68l1-1.57Z"/><path class="cls-5" d="M39.82,89.3a1.87,1.87,0,0,0,2.44-.1c1-1-.1-3.78-1.61-4S39,88.34,39.82,89.3Z"/><path class="cls-5" d="M38.1,89.37c2.17.79,3.1-1,1.93-2.13A20.65,20.65,0,0,1,38.1,89.37Z"/><path class="cls-5" d="M30,92.32c-.41,1.24-2.54,1.44-4.95,5.29s-4.7,2.23-5.28,4.88c2.88-2.34,5.15-.79,6.86-3.09,2.61-3.51,4.76-3,5.77-5.36,1.45-3.37,7.77-3.3,8.11-8.59C38.38,85,31.65,90.74,30,92.32Z"/><path class="cls-5" d="M84.19,40.4c2.75.89,2.82,4.46,6,5.63s3.47,4,6,3.3c-2.4-.66-2.23-3.44-4.74-4.13-2.94-.8-4-5.28-6.38-6"/><path class="cls-5" d="M96.8,59c.48,1.1.41,3.06-1.31,3.58.93.58,2.3,0,3.06-1.24-1.14,2.51-.38,4.77,1.41,5.22-.86-1.75,1.06-2.58.44-3.71a3.83,3.83,0,0,1,2.1,3c1.47-1.65-1.1-3.85-.62-5.39L96.8,59Z"/><path class="cls-5" d="M79,76.7c-1.69-1.48-2.4.38-3.23-.26s-1.8-.69-2.2-.09c1.44.05.74,1.17,3.54,1.44C74.32,78,74.83,81.11,73,81c2,1.89,3-1.68,4.64-1.1-.48.14.75,1.28-.1,2.79,1.39,0,2-2,2.13-3l-.62-3Z"/><path class="cls-5" d="M42,92.73a3.67,3.67,0,0,0-3.09-.34c-.69.41-.45.52.38.58s1.89,1.41.1,1.48c-.82,0-.55,2-2.27,2.16.71.86,2.72.3,3.44-.65-.14.77.89,1.48.48,2.41,1.27.13.53-2.58,2.54-2.44-.82.1-.48,2,1,1.47-.86.42-.41,1.41.55,1.17-.62.21-.82,1,0,1.44.82-1.13-.11-5.18-3.13-7.28Z"/><path class="cls-5" d="M116.75,54.84A4.76,4.76,0,1,0,112,50.08,4.76,4.76,0,0,0,116.75,54.84Z"/><path class="cls-5" d="M91.89,60.59c1.44-1.37,3.64-2.06,5.15-1s6.52,2.27,9,.55,3.64-2.61,4.73-2.4a3.91,3.91,0,0,0,3.06,1.92,3.8,3.8,0,0,0,2.47.65,3.6,3.6,0,0,0,3.51-1.23,3.64,3.64,0,0,0,3.77-2.85c1.76-.21,1.86-2.17.76-3.47-1-.21-.24-3.68-4-3,1.58,1,.37,2.88,1.68,3.78a2.18,2.18,0,0,0-2.32,1.71,1.57,1.57,0,0,0-.29-1.75c0-.79-1.72-2.73-3.37-2,1.19.25.52,2.16,1.38,2.88a2.19,2.19,0,0,0-1.65.89,4.63,4.63,0,0,0-3-1.68,3.55,3.55,0,0,0-.17-1.1A4.9,4.9,0,0,1,112,49.4a12.19,12.19,0,0,0-1.92,3c-1.31-.9-4.54.41-6,.75s-6.59-.48-7.76-1.71-3.43-2-5.56-2.61c-2.93-.85-3-4.06-6.18-6.25-.07,4,6,16.62,7.35,18Z"/><path class="cls-5" d="M58.23,91a4.61,4.61,0,1,0-4.6-4.6,4.6,4.6,0,0,0,4.6,4.6Z"/><path class="cls-5" d="M47.24,87.41a3.36,3.36,0,0,0,3.16,1c.55,1.44,2.3,1.41,3.06,2.2s3.33.72,4.08.27a4.83,4.83,0,0,1-2.44-1.2c-1-.87-.55-2.61-1.37-3.23a2.76,2.76,0,0,0,.58-2.26,2.73,2.73,0,0,0,1.21-1.31,4.07,4.07,0,0,0,2.54-1.1c.58.55,2.06-.17,2.85.76a2.51,2.51,0,0,0-3.44-2.71,2.72,2.72,0,0,0-2.4.3c-.48-.2-1.82.49-2.44.93a1.58,1.58,0,0,0,.52-1.92,2.45,2.45,0,0,0,1.3-1.61c.83.13,2.06-.42,2.61-.28a4.35,4.35,0,0,0-3.88-1.48,2.56,2.56,0,0,0-2.44,2.37,3,3,0,0,0-.89,3.06,1.74,1.74,0,0,0-1.24.79,7.08,7.08,0,0,0-2.49-.53"/><path class="cls-5" d="M46.45,79.62a3.74,3.74,0,0,1,.31-2.41c.53-1.8.21-2.26-1.41-2a12.61,12.61,0,0,0,1.1,4.43Z"/><path class="cls-5" d="M45.27,75.29c.41.41,1.87.6,2-.71.18-1.49-.43-2.07-1.73-1.49-.1.34-.23,1.75-.29,2.2Z"/><path class="cls-5" d="M45.58,73a1.66,1.66,0,0,0,2.38-.6c.55-1.07-.17-1.89-1.3-1.82A7.31,7.31,0,0,0,45.58,73Z"/><path class="cls-5" d="M46.59,70.52c.14.41,1.54,1.78,2.57.79s1-2.48-.51-3a6.9,6.9,0,0,0-2.06,2.24Z"/><path class="cls-5" d="M48.65,68.28a2.31,2.31,0,0,0,3.05,1.65c1.79-.68,1-2.92.21-3.36a8.71,8.71,0,0,0-3.26,1.71Z"/><path class="cls-5" d="M51.91,66.57a2.26,2.26,0,0,0,2.44,2.78c2.44,0,1.75-2.89,1.13-3.3a9,9,0,0,0-3.57.52Z"/><path class="cls-5" d="M55.59,66.15c-.28.59-.9,4.43,3.88,3.37C60.08,69.38,61.7,65.84,55.59,66.15Z"/><path class="cls-5" d="M58.19,66.5c-.48.48.76,4.36,4,3.7S62.69,65.88,58.19,66.5Z"/><path class="cls-5" d="M60.94,67.08c-.51,1.07.26,4.22,4.24,4.22C68.79,71.3,65,67.15,60.94,67.08Z"/><path class="cls-5" d="M64.07,68c-.26.59-.58,3.94,4.12,4.22C71.59,72.44,70.76,67.63,64.07,68Z"/><path class="cls-5" d="M69.12,69.42c-.59,1-1.2,3.6,3.95,3.81C76.37,73.36,74.34,69.49,69.12,69.42Z"/><path class="cls-5" d="M73.41,70.21a2.32,2.32,0,0,0,1.72,3.43c2.4.48,2.74-1.79,1.1-2.88a3,3,0,0,0-2.82-.55Z"/><path class="cls-5" d="M75.75,70.69c-.55,1-.21,3.29,3.43,3.29C79.93,74,82.82,71,75.75,70.69Z"/><path class="cls-5" d="M47.55,115.47a5.34,5.34,0,1,0-5.34-5.34A5.34,5.34,0,0,0,47.55,115.47Z"/><path class="cls-5" d="M86.73,37.79a9.3,9.3,0,0,0-1.44,2.13c-1.78,5.35,3,9.36,5.77,15.11,2.2,4.53,1.92,11.67-1.51,16.21-1.17,1.55-.82,2-2.33,3.57-.58.6-1.24,1.37-1,3.57a2.43,2.43,0,0,1,2.61,1.31,1.84,1.84,0,0,1,2,.2c1.16-.55,2.13-.27,3.16.83a2.88,2.88,0,0,1,2.74,1,1.89,1.89,0,0,1,2.13-1.1,1.65,1.65,0,0,1,2.27-1.65,2,2,0,0,1,2.61-2.4,3.86,3.86,0,0,1,4.94.41c-2.19-.62-2.12,1.71-4,1.51.48,1.37-.76,2.16-2,2.61.79-.38,1.65-.83,1.92-.34a2.28,2.28,0,0,1,2.41-.07,1.6,1.6,0,0,1,2.19,1,3.15,3.15,0,0,1,1.17,4.12c-.27-1.51-1.3-1.44-1.72-2.06-1,.34-1.92.34-2.19-.28-.55.55-2.41,1-3.23.21a2.88,2.88,0,0,1-2.61,2.27c.34,1-.62,2.61-1.38,3.43,1.17.62.83,2,.55,2.82,1.79.27.28,1.85,3.37,2.88-1.51.48-4.46,0-4.88-1.85a2.87,2.87,0,0,1-2.47-3.16,2.24,2.24,0,0,1,.28-3.78c-1.38.41-2.13-1.79-4.13-.89-1,.44-3.6-.31-3.57-1.24-.41.69-2.92.41-3.26-.76-.82.45-2.75-.31-2.71-1.44A1.76,1.76,0,0,1,80,80.47c-1-.13-1.1-1-1-1.78-.9-.41-.65-1.27-.31-2.3-.62-.69-.34-1.65.14-2.54-.69-.69-.55-1.51-.35-2.48-3.29-.27-7.42-1.07-16.89-4C47.24,63,43.39,73.3,46.55,79.75c3.65,7.45-.41,9.07.83,14.63a2.39,2.39,0,0,1,1.92,2.55c.77,0,1.32.75,1.05,2.12a2.38,2.38,0,0,1,2,.62,1.8,1.8,0,0,1,2.89-.07c1.78-.13,2.68,1.31,2.61,3.09a4.81,4.81,0,0,1-.42,5.16,13.24,13.24,0,0,0,0-2.37c-.06-1.14-1.65-1.38-1.48-2.3a1.94,1.94,0,0,1-1.89-1,1.8,1.8,0,0,1-1.75.34,3.14,3.14,0,0,1,1.38,3.16,3,3,0,0,1-.21,3c-.27,1.34-1.3,1.82-2.64,1.24a2.28,2.28,0,0,0,1-2.06,2.69,2.69,0,0,1-.75-1.69,5,5,0,0,1-3.54-1.37,5.34,5.34,0,0,0-5.34,5.34c-.14-1.1-1.53-2.18-1.36-3.11-.82-2.54.35-4.91,3.71-5.39-.41-1,1-2,.48-3.06a25.94,25.94,0,0,0-3.91-5.35,7.56,7.56,0,0,0,.14-6.32c-1-2.37-1.93-1.79-5.43,2.06-5.71,6.27-13.33,4.53-20.06,8.65-1.79,1.1-3.57,1.51-1.65-.41s7-3.85,10.31-5.49c6.17-3.09,11.4-8.25,13.46-18.27C42.74,49.87,60.56,57.64,71.83,62c10.57,4.13,8.65-5.22,3.29-10.85C68.69,44.41,70,39.09,73,34.83c5.42-.75,15.83,1.14,13.73,3Z"/><path class="cls-5" d="M105.86,95.68A5.88,5.88,0,1,0,100,89.8a5.88,5.88,0,0,0,5.87,5.88Z"/><path class="cls-6" d="M83.44,38.06c-1.31,5.77-.21,8.38,1.72,10.92,4,5.25,7.14,17.24,2.61,25.07"/><path class="cls-7" d="M90.31,67.29a3,3,0,0,0,1.82-2"/><path class="cls-7" d="M90.72,64.78c.17-1,1.71-1.42,1.75-2.49"/><path class="cls-7" d="M90.75,60.9c-.1-1,1.55-2,1.31-3"/><path class="cls-7" d="M89.86,57.19c-.14-.58,1.37-1.68,1-2.61"/><path class="cls-7" d="M88.73,53.59c-.31-.66.72-1.41.27-2.1"/><path class="cls-7" d="M87.08,50.7c-.11-.45.53-1.43.19-2"/><path class="cls-7" d="M85.43,47.3c.14-.17.69-.58.46-1.1"/><path class="cls-7" d="M84.3,44.81c.22-.12.89-.33.8-.82"/><path class="cls-8" d="M49.92,109.56a2.75,2.75,0,0,0-3.44,1.38"/><path class="cls-8" d="M47.51,112c.18-1.17,2-1.68,2.51-1.13-1.13-.62-1.68,1.58-.69,1.65"/><path class="cls-8" d="M58.57,84.84c-.82.41-1.06,1.92,0,3"/><path class="cls-8" d="M59.81,85.18a1.48,1.48,0,0,0,.31,2.27c-.72-.52,0-1.41.51-1.45s.86.59.24,1.21"/><path class="cls-8" d="M108.06,88.58c-1.92-.52-3.47,1.72-1.72,3.71,0-1.93,1.34-3.2,3-2.85"/><path class="cls-8" d="M108.59,90.77a.72.72,0,0,0-.74.73.8.8,0,0,0,.86.74.72.72,0,0,0,.62-.71"/><path class="cls-8" d="M115.37,48.6c.31,1.17,1.93,1.65,3.2,1.38"/><path class="cls-8" d="M118.57,49.22a1.71,1.71,0,0,1-1.75-1.68c0,.58,1.34.86,1.75.48"/><path class="cls-7" d="M50.4,88.44c-.28-.69.82-1.37.86-2s1.23-1.17,2.47.06"/><path class="cls-7" d="M53.15,79.17c-.24.1-.45.24-.66.31"/><path class="cls-7" d="M55.52,82.91a2.28,2.28,0,0,1-1.22-.24"/><path class="cls-7" d="M54.32,84.22a6.33,6.33,0,0,1-1.09.39"/><path class="cls-7" d="M42.54,105a2.82,2.82,0,0,0,.92,1.79"/><path class="cls-7" d="M45.22,103.48a2.64,2.64,0,0,0-.35,2"/><path class="cls-7" d="M50.33,105.54c-.62-.41-.21-1.47-.27-2.16s.72-1.78,2.26-.86"/><path class="cls-7" d="M44.56,101.63a3.43,3.43,0,0,1,1.69.1"/><path class="cls-7" d="M52.39,99.67a2.35,2.35,0,0,0-.38,1.07"/><path class="cls-7" d="M55.28,99.6a1.37,1.37,0,0,0-1.1.69"/><path class="cls-7" d="M48.61,82c.55.19,2,1.06,2,2"/><path class="cls-7" d="M54.45,77.56c-1.68,0-2.33-1.76-1.06-1.76"/><path class="cls-7" d="M57.48,79.85c-.66.28-.35,1.41.58,2"/><path class="cls-7" d="M53.46,90.64a.91.91,0,0,1,1.16-1.25"/><path class="cls-7" d="M56,103.17c.07-1,1.39-1.66,1.93-.48"/><path class="cls-7" d="M51.09,106.16c-.09-1.15.49-1.53,1-1.6a1.78,1.78,0,0,1,1.6,1.12"/><path class="cls-7" d="M40.85,107c.07-.69.66-1.41,1.27-1.3"/><path class="cls-7" d="M103.7,76.52c-.45.33-.74,1.79,1,1.93"/><path class="cls-7" d="M101.09,78.93c0,.17.22.41.36.51"/><path class="cls-7" d="M109.19,81.68c-.44-.35-1.59,1-.55,2.06"/><path class="cls-7" d="M98.27,93.22c-.25-1,.66-1.24,1.51-1"/><path class="cls-7" d="M96.08,86.28a5.62,5.62,0,0,1,1.68-.89"/><path class="cls-7" d="M95.8,90.05a2,2,0,0,1,.79-1.71"/><path class="cls-7" d="M98.82,80.58a4.57,4.57,0,0,0,.65,2.47"/><path class="cls-7" d="M107,80.65a1.67,1.67,0,0,0-1.14.75"/><path class="cls-7" d="M106.45,83.46a3.71,3.71,0,0,0,.63-.62"/><path class="cls-7" d="M119.43,53.48a1.22,1.22,0,0,1-2,.86"/><path class="cls-7" d="M122,53.51c.53.42,2.37,0,1.94-1"/><path class="cls-7" d="M119.81,59a2.75,2.75,0,0,1-1.31-.82"/><path class="cls-7" d="M123.58,56.19a2,2,0,0,1-1.34-.13"/><path class="cls-7" d="M113.83,59.63a4.62,4.62,0,0,0,1.73-.43"/><path class="cls-7" d="M112.8,53.55a1.49,1.49,0,0,0-1,.21"/><path class="cls-7" d="M119.72,55.23a3,3,0,0,1-.81,1.39"/><path class="cls-8" d="M111.63,56.74c.86-.37,1.93,2.55,4,1.52"/><path class="cls-8" d="M115.79,55.23a2.92,2.92,0,0,0-.48,1.48"/><path class="cls-6" d="M74.71,50.77c.28,0,.76-.14.86-.48"/><path class="cls-6" d="M39.38,82.74a2.47,2.47,0,0,1,1.3,3.06"/><path class="cls-6" d="M86.6,47.61a3.43,3.43,0,0,0,2.13,0"/><path class="cls-6" d="M89.55,48.3c0,.48.1,2.3-.82,2.68"/><path class="cls-6" d="M89.07,50.73a2.47,2.47,0,0,0,3.13-1.4"/><path class="cls-6" d="M91,50.66a1.88,1.88,0,0,1-.75,2.75"/><path class="cls-6" d="M91.34,51.8c1,.34,3.29.38,3-1.58"/><path class="cls-6" d="M93.6,51.8c.69,1,3.71,2.09,3.23.1"/><path class="cls-6" d="M90.82,54.58A1.82,1.82,0,0,0,93,52"/><path class="cls-6" d="M96.25,53c.17.79,4,1.62,3.5-.17"/><path class="cls-6" d="M99,53.89c.72,1.65,4.53,1.52,3.33-.68"/><path class="cls-6" d="M101.74,54.92c.76.93,4.12.38,2.78-1.85"/><path class="cls-6" d="M104.49,54.89c2.09,1.58,4.53-.69,1.89-2.34"/><path class="cls-6" d="M107.58,54.37c1.85,1.48,4.12-1.2,2.51-1.95"/><path class="cls-6" d="M92.91,53.76a1.65,1.65,0,0,0,2.1-1"/><path class="cls-6" d="M94.55,53.51c-.07,1.57,2.56,2.17,3.22.37"/><path class="cls-6" d="M96.9,54.85c.48,1,2.78,1.45,3.16,0"/><path class="cls-6" d="M99.68,55.51c.38,1,2.37.92,2.92-.14"/><path class="cls-6" d="M101.88,56.06c.62,1.34,3.16,1.34,3.74-.62"/><path class="cls-6" d="M105.18,56.3c1,.61,3.12.37,2.95-1.55"/><path class="cls-6" d="M107.72,56.13c1.47,1.2,3.57,0,2.54-2"/><path class="cls-6" d="M110.16,57.7c.79-.13,1.2-1.71.37-2.12"/><path class="cls-6" d="M91.85,58a2.38,2.38,0,0,0,.83-3.88"/><path class="cls-6" d="M93.26,56.47a2.43,2.43,0,0,0,3.33-1.55"/><path class="cls-6" d="M94.67,56.64a1.87,1.87,0,0,1-.07,2.54"/><path class="cls-6" d="M95.15,57.6c1.82-1.13,4.08,1,2.4,2.23"/><path class="cls-6" d="M97.24,57.5a2.11,2.11,0,0,0,1.2-1.72"/><path class="cls-6" d="M98.07,58.29c.75-.79,5.9.82,2.64,2.47"/><path class="cls-6" d="M100.47,56.13c1,.37,1.51,1.78,0,2.26"/><path class="cls-6" d="M101.78,59.56c1.09-1.13,4.53-.41,3.29,1"/><path class="cls-6" d="M104.25,59.11c.62-2.09,4.29-.79,3.09.07"/><path class="cls-6" d="M103.49,57a2,2,0,0,1-.55,2"/><path class="cls-6" d="M106.58,56.61a1.61,1.61,0,0,1-.2,1.4"/><path class="cls-6" d="M108.92,56.64a1.19,1.19,0,0,1-.21,1.68"/><path class="cls-6" d="M79.52,40.84c0,2,.72,3.27,3.37,2"/><path class="cls-6" d="M80.35,43.18c-1.31,1.75.17,3.64,2.74,1.75"/><path class="cls-6" d="M76.33,44c1.78,1.92,5,.51,2.92-2.41"/><path class="cls-6" d="M81.41,45.69c-.34,1.88,1.2,2.26,2.47,1.4"/><path class="cls-6" d="M74.75,44.35c.32,1.89,2.27,3.4,4.15,2.23"/><path class="cls-6" d="M77.09,47c0,2.71,3.74,3,4.6.2"/><path class="cls-6" d="M80.35,48.88c1.2,2.47,3.81,1.48,4.67,0"/><path class="cls-6" d="M77.7,44.93c.48,1.2,1.44,2.54,3.68,1.55"/><path class="cls-6" d="M70.83,44.35c.31,1,2.1,2.19,4.16.82"/><path class="cls-6" d="M72.1,45.62c-1.1,1.61,1.1,3.12,3.75.72"/><path class="cls-6" d="M73.41,47.61c.45,2.27,1.34,4.09,4.57,1.17"/><path class="cls-6" d="M76.36,49.94c1.17,1.45,3,2.34,4.64-.1"/><path class="cls-6" d="M82.23,50.36c-.1,1.71.24,2.57,1.58,2.5a3.72,3.72,0,0,0,2.65-1.78"/><path class="cls-6" d="M83.57,52.86c0,2,1.51,3.51,4.4,1.52"/><path class="cls-6" d="M84.78,55.16c-.55,1.48,1.09,3.88,4.32,2.65"/><path class="cls-6" d="M77.94,51.25c-.2,1.89,1.55,3.16,4.36.72"/><path class="cls-6" d="M79.32,53.34c.1,1.55,1.85,3.4,4.43.73"/><path class="cls-6" d="M80.55,55.3c-.2,2.65,2.23,3.4,4.29,1.38"/><path class="cls-6" d="M76.88,53.34c.55,0,1-.44,1.27-.79"/><path class="cls-6" d="M78.05,55.27a1.78,1.78,0,0,0,1.58-.9"/><path class="cls-6" d="M79.25,58.39a2,2,0,0,0,2.64-.62"/><path class="cls-6" d="M81.31,58.36c1,2.4,3.78,2.3,4.91-.41"/><path class="cls-6" d="M85.7,58.91c.52,1.41,1.82,2.3,4,1.82"/><path class="cls-6" d="M86.73,60.35c-1.2,2,.38,4.26,3.06,2"/><path class="cls-6" d="M87.39,63.27a2.79,2.79,0,0,0,2.54,2.81"/><path class="cls-6" d="M82.3,59.66c-.41,2.78,1.58,4.12,4.09,2.65"/><path class="cls-6" d="M79.38,61a3.12,3.12,0,0,0,2.92.17"/><path class="cls-6" d="M83.64,62.79c-.62,2.33,1.79,4,3.85,1.41"/><path class="cls-6" d="M80.31,61.38a2.49,2.49,0,0,0,3.23,2.13"/><path class="cls-6" d="M89.21,65.91c-1.38.93-1.65,2.58.27,3.64"/><path class="cls-6" d="M85.84,65.43a2.18,2.18,0,0,0,2.27,2.34"/><path class="cls-6" d="M83.82,64.71c-2.06,1.89,0,4.09,2.4,2.23"/><path class="cls-6" d="M85.26,67.53c-.69,2.16,1.89,3.46,3.26,1.27"/><path class="cls-6" d="M81,62.92c-.76,2.13.21,3.54,2,3.4"/><path class="cls-6" d="M78.29,62.51c.1,1.27,1.2,1.72,2.43,1.45"/><path class="cls-6" d="M79.08,63.85c-.93,1.79.48,2.75,2.33,2.06"/><path class="cls-6" d="M87,69.9c-.31,1.13-.13,1.95,1.55,2.33"/><path class="cls-6" d="M87.15,71.51c-2,.93-2.2,2.89-.62,4.16"/><path class="cls-6" d="M85.51,69.33a2,2,0,0,0,.31,3.28"/><path class="cls-6" d="M76.5,63.06c-1.17,1.15,0,4.33,2.52,2.6"/><path class="cls-6" d="M83.2,67.08c-1.58,1.31-.86,3.68,1.75,3"/><path class="cls-6" d="M80.59,66.08c-.83,2.34,0,3.16,1.82,3.2"/><path class="cls-6" d="M74.78,63a2.18,2.18,0,0,0-.41,3.26,1.33,1.33,0,0,0,2.16-.51"/><path class="cls-6" d="M71.83,62c-1.58,2,0,4.43,2.23,3.71"/><path class="cls-6" d="M80.28,68c-1.62.59-2.85,2-1.86,3.33.59.76,3.13.86,3.85-2.06"/><path class="cls-6" d="M77.36,66.15c-.93,1.34-.62,2.61,1.1,3.27"/><path class="cls-6" d="M77.26,68.66c-1,.55-1.65,1.2-1.41,2.41"/><path class="cls-6" d="M75,66.57c-.37,1.61.07,2.61,1.07,3.09"/><path class="cls-6" d="M75,68.49c-1.55-.1-2.34.55-1.82,2.06"/><path class="cls-6" d="M73.31,68.87c-1.51-.55-1.76-1.86-1.1-3.23"/><path class="cls-6" d="M72,67.67c-1.65.06-2.37.89-2.37,2"/><path class="cls-6" d="M69.77,61.24a2.39,2.39,0,0,0-1.14,3,1.92,1.92,0,0,0,2.72.38"/><path class="cls-6" d="M66.4,60A2,2,0,0,0,68.53,63"/><path class="cls-6" d="M63.59,59c-1,1.44.1,3.85,2.74,3.16"/><path class="cls-6" d="M66.47,68.87C66.2,67.15,68,66,70.18,68.25"/><path class="cls-6" d="M69.12,64.78a2.68,2.68,0,0,0-.86,2.27"/><path class="cls-6" d="M60.77,58.19c-1.13,1.92.24,3.67,2.68,3"/><path class="cls-6" d="M67.12,63a2.55,2.55,0,0,0,.14,4.15"/><path class="cls-6" d="M66.09,64.85c-2.43,0-2.57,2.85-.58,3.74"/><path class="cls-6" d="M64.24,62a1.9,1.9,0,0,0,.41,3.33"/><path class="cls-6" d="M64.17,66.26A1.43,1.43,0,0,0,62,67.56"/><path class="cls-6" d="M62.63,66.29c-.93-2.2-3.64-1.82-3.4.45"/><path class="cls-6" d="M63.38,63.58a3.07,3.07,0,0,0-2.2,1.34"/><path class="cls-6" d="M61.36,61.11a1.88,1.88,0,0,0,.65,3"/><path class="cls-6" d="M58.09,57.64c-.2,1.47.38,2.19,2.24,2.06"/><path class="cls-6" d="M58.74,59.53C58,61.31,59,62.1,60.84,62"/><path class="cls-6" d="M59.16,61.72a2.09,2.09,0,0,0,.72,3.3"/><path class="cls-6" d="M58.64,63.37c-2-.24-2.26,2-1.61,3.09"/><path class="cls-6" d="M57.06,57.47c-1.2.51-1.89,2-1.23,3s2,.62,2.67.14"/><path class="cls-6" d="M56.24,60.83a2,2,0,0,0,1,3.09"/><path class="cls-6" d="M52.39,57.29c-.79.83-.31,2.51,1.62,2.54a1.83,1.83,0,0,0,1.85-2.47"/><path class="cls-6" d="M53.73,59.83c-.62,1.38-.24,2.85,2.1,2.61"/><path class="cls-6" d="M56.82,64.61c-1.44-.65-3.36,0-2.54,1.72"/><path class="cls-6" d="M54.07,62.17a2.24,2.24,0,0,0,.28,2.71"/><path class="cls-6" d="M54,64.37c-1,.17-1.89.68-1.3,2.19"/><path class="cls-6" d="M52.53,65.33c-1.24-.38-2.82.51-1.86,1.78"/><path class="cls-6" d="M50.47,65.91c-1.07-.17-2.34,1-1.31,2.1"/><path class="cls-6" d="M48.75,67.08c-1,.24-2.09,1.34-1.1,2.2"/><path class="cls-6" d="M53.59,61.69a2.24,2.24,0,0,0-.85,3.3"/><path class="cls-6" d="M52.15,58.84c-2.06.79-2,3.54.24,4.4"/><path class="cls-6" d="M51.43,62.62a1.89,1.89,0,0,0-.65,3"/><path class="cls-6" d="M49.27,57.81c-.83.27-.76,2.82,1.44,2.75"/><path class="cls-6" d="M47,58.67c-1.65,1.1.34,3.88,3,1.89"/><path class="cls-6" d="M48.55,61.24a1.87,1.87,0,0,0,1.88,2.51"/><path class="cls-6" d="M48.65,62.75a1.78,1.78,0,0,0,.82,3.37"/><path class="cls-6" d="M44.49,60.32C42.81,61.86,45.87,63.2,47,61"/><path class="cls-6" d="M42.16,62.89c-.83,1,2.06,3.61,3.33-.75"/><path class="cls-6" d="M45.8,62.07c.07,1,.68,1.65,2,1.71"/><path class="cls-6" d="M47.72,64.78c-2,.31-2.68,2.85-.41,3.4"/><path class="cls-6" d="M44,64.44A1.68,1.68,0,0,0,46,66"/><path class="cls-6" d="M47.07,68.11c-1.86.41-2.1,2.82-.45,2.68"/><path class="cls-6" d="M45.76,73a1.57,1.57,0,0,1-.2-3"/><path class="cls-6" d="M44.49,71.41a1.82,1.82,0,0,0-.1,3,.87.87,0,0,0,1.31-.65"/><path class="cls-6" d="M45.59,76.35c.14.89-3.17.55-1.47-2.23"/><path class="cls-6" d="M44.1,76.51c-1.12,1.75.7,3.17,1.85,1.68"/><path class="cls-6" d="M44.25,78.62a1.38,1.38,0,0,0,2.36,1.32"/><path class="cls-6" d="M40.54,65.43c-.62,1.27,2.48,1.75,2.68-.86"/><path class="cls-6" d="M39.69,67.32c-.62,2.47,4.05,2,2.85-1.23"/><path class="cls-6" d="M42.64,67.73a2.19,2.19,0,0,0,3.09-1.68"/><path class="cls-6" d="M44.32,67.8a2.68,2.68,0,0,0,1.27,1.68"/><path class="cls-6" d="M42.09,68.45c-.21,1.34,1.13,2.44,2.68,2.34"/><path class="cls-6" d="M42.33,69.76c-.76,1-1,3,1.37,3.16"/><path class="cls-6" d="M38.72,70.1c-.37,1.07,1.86,2.17,3.16.42"/><path class="cls-6" d="M38,72.81c-.19.81,1.82,1.89,3-1.54"/><path class="cls-6" d="M40.1,73a1.72,1.72,0,0,0,3.09-.14"/><path class="cls-6" d="M41.57,73.92a1.63,1.63,0,0,0,2.1,2"/><path class="cls-6" d="M39,73.64a1.89,1.89,0,0,0,3,1.82"/><path class="cls-6" d="M37.69,74.4A1.8,1.8,0,0,0,41,75.77"/><path class="cls-6" d="M40.27,76.42c.1,1.24,2,2.3,3.54,1.27"/><path class="cls-6" d="M36.84,77.45c-.14.55,2.16,1.1,2.5-.82"/><path class="cls-6" d="M38.18,77.93c.54,1.41,2.4,1.75,3.46,0"/><path class="cls-6" d="M41,78.65a2.18,2.18,0,0,0,3.4,1.14"/><path class="cls-6" d="M45,80.3c-.38,1.75,1.44,3.16,2.58,2.2"/><path class="cls-6" d="M42.12,80c-.55,1.93,1.86,3,3.2,2"/><path class="cls-6" d="M39.24,79c-.14,1.79,1.27,2.85,2.88,2.06"/><path class="cls-6" d="M36.18,79.2c-.48,1.17,2.06,2.13,3.27,1.14"/><path class="cls-6" d="M34.6,82.4c.65.75,2.92,0,3.13-1.68"/><path class="cls-6" d="M37.11,82a2,2,0,0,0,3.57-.58"/><path class="cls-6" d="M40,82.43c0,1.48,2.62,2.54,3.47-.17"/><path class="cls-6" d="M46.57,82.79a1.69,1.69,0,0,0,1.51,2"/><path class="cls-6" d="M44.39,82.35c-.17.82,1,2,2.3,1.51"/><path class="cls-6" d="M46.93,84.2c-.34.89,0,2.18,1.15,2.16"/><path class="cls-6" d="M47.05,85.87A1.18,1.18,0,0,0,47.82,88"/><path class="cls-6" d="M46.59,87.14a1.41,1.41,0,0,0,.86,2.64"/><path class="cls-6" d="M42.74,83.5a1.39,1.39,0,0,0,2.75.41"/><path class="cls-6" d="M44.6,85c-.35,1.1.55,2.16,1.95,1.85"/><path class="cls-6" d="M44.87,98.26c.31.45,1.58-.3,1.24-1.06s-1.69-.35-1.55.45"/><path class="cls-6" d="M45.8,96.89a1.05,1.05,0,1,0-2.06-.45"/><path class="cls-6" d="M44.39,95.69c.45-.76-1.06-1.79-1.68-.69"/><path class="cls-6" d="M43.26,94.55C43.67,93.45,42,93,41.81,94"/><path class="cls-6" d="M41.44,92.53c.2-.55,2.13-.21,1.3.92"/><path class="cls-6" d="M44.22,94.83c.75-.69-.52-2.1-1.31-1.58"/><path class="cls-6" d="M49.3,96.92c-.6.07-1.22.47-.77,1.74.31.88,1.63.93,1.82.39"/><path class="cls-6" d="M48.43,97.56a1,1,0,0,0-1.27,1.49,1,1,0,0,0,1.71.07"/><path class="cls-6" d="M45.14,99.33c.3.51,1.76.29,2-.28"/><path class="cls-6" d="M46.14,97.63a.82.82,0,0,1,1,.31"/><path class="cls-6" d="M46,89.16a1.23,1.23,0,0,0,1.17,2.13"/><path class="cls-6" d="M45.73,90.78a1.16,1.16,0,0,0,1.41,1.82"/><path class="cls-6" d="M46,92.6c-.55.55,0,2.07,1.41,1.78"/><path class="cls-6" d="M45.76,93.35a1.4,1.4,0,0,0-1.46.48"/><path class="cls-6" d="M44.87,86.4a1.38,1.38,0,0,0,1,2.32"/><path class="cls-6" d="M44.6,87.91c-1.09.53-1.09,2.68,1.08,2.76"/><path class="cls-6" d="M44.51,90.33a1.3,1.3,0,0,0,1.24,2.09"/><path class="cls-6" d="M45,92.36a.92.92,0,0,0-.07,1"/><path class="cls-6" d="M44.32,91.65a1.69,1.69,0,0,0-1.46,1"/><path class="cls-6" d="M41.87,90.64c.2-.55,1.9-.52,2,1.1"/><path class="cls-6" d="M44.06,89.82a1.1,1.1,0,0,0-.82.73"/><path class="cls-6" d="M43.33,84.79A1.85,1.85,0,0,0,44.48,88"/><path class="cls-6" d="M41.83,89.15c0-.57,1.53-1.05,2.06-.21"/><path class="cls-6" d="M40.85,86.07c.23.43,1.29,1,1.94.53"/><path class="cls-6" d="M35.32,82.71a1.7,1.7,0,0,0,1.93,1.75,1.21,1.21,0,0,0,1-1.79"/><path class="cls-6" d="M37.42,84.49c-.76.93.17,2.24,1,1.86"/><path class="cls-6" d="M38.28,83.84c.44-.17,1.92-.38,2.37.31"/><path class="cls-6" d="M33.5,84.12c-.34.51,1.79,1,2.51,0"/><path class="cls-6" d="M35.29,84.66c-.07.69.27,1.86,2,1.38"/><path class="cls-6" d="M37.59,87.1c.28-.58-1-1.54-2-.48s.14,2.27.76,1.86"/><path class="cls-6" d="M33,84.8c-.51.9,1.48,2.53,2.61,1"/><path class="cls-6" d="M31.7,86.35A1.08,1.08,0,0,0,33,88a1.28,1.28,0,0,0,.73-1.84"/><path class="cls-6" d="M30.31,87.72c-.58.53,0,1.79.79,1.79a1.14,1.14,0,0,0,1.15-1.45"/><path class="cls-6" d="M33.59,87.62c-.1.79,1.06,1.34,1.82.6"/><path class="cls-6" d="M35.44,86.78a.52.52,0,0,0-.15-.61"/><path class="cls-6" d="M29.06,88.79c-.67.53.77,2,1.68.65"/><path class="cls-6" d="M34.22,88.49c-.43.41.26,1.5,1,1.17"/><path class="cls-6" d="M31.87,89.25c.11.74,1.55,1.29,2.46.15"/><path class="cls-6" d="M32.66,90c-.22.46.23,1.2.78,1.1"/><path class="cls-6" d="M46.33,94.23c-.53,1,1.17,2.27,2.4,1"/><path class="cls-6" d="M47.57,95.79a1.43,1.43,0,0,0,.51,1.65"/><path class="cls-6" d="M46,97a1.22,1.22,0,0,1,1.53-.75"/><path class="cls-6" d="M45.06,95.62a1.13,1.13,0,0,1,1.18-.81"/><path class="cls-6" d="M85.5,74.19c-2.44,0-1.41,4,.68,3.16"/><path class="cls-6" d="M84.71,77.08a1,1,0,0,0,1.47,1.3"/><path class="cls-6" d="M85.91,78.53c-.72,1.21,1.85,3,2.89,1.15"/><path class="cls-6" d="M88,80.41c0,1.13,3.33,1.85,2.85-.42"/><path class="cls-6" d="M90.51,81.23c.79,1.34,3.75,1.48,3.44-.52"/><path class="cls-6" d="M93.29,82.09c.62.89,3.51,1.44,3.4-.41"/><path class="cls-6" d="M81.58,70.79c.41,1.07,1.82,1.44,3.37.82"/><path class="cls-6" d="M80.69,71.55c1,.61-.45,3.43-1.92,2.3"/><path class="cls-6" d="M80.69,73.3a1.88,1.88,0,0,0,2.75-1.38"/><path class="cls-6" d="M82.79,73.09c.1.79,1.23,1.41,2.71,1.1"/><path class="cls-6" d="M80.14,73.92c1.37,1.16-.62,3.57-1.51,2.47"/><path class="cls-6" d="M80.66,74.81a1.7,1.7,0,0,0,2.5-1.07"/><path class="cls-6" d="M82.41,74.81c.14.82.79,1.13,1.72,1.17"/><path class="cls-6" d="M80.28,75.94a1.91,1.91,0,0,0,3.16,0"/><path class="cls-6" d="M82.68,76.63a1.61,1.61,0,0,0,2,1.47"/><path class="cls-6" d="M78.94,78.69c.89.44,1.85-1.24,1.1-2.41"/><path class="cls-6" d="M80,80.47c1.06.07,1.2-1.54.21-2.43"/><path class="cls-6" d="M82.41,82c.89-.21.62-2.16-1.55-2.34"/><path class="cls-6" d="M85.12,83.39c.86-.24.17-2.4-2.2-2.26"/><path class="cls-6" d="M88.38,84.15c.59-.89-1.34-2.4-2.92-1.61"/><path class="cls-6" d="M90,85.38c1.06.31,1.78-2.5-1.58-2.06"/><path class="cls-6" d="M92,85.38c.93-.24,1.58-1.92-1.13-1.37"/><path class="cls-6" d="M94,85.52c.82.42,1.2-2-1.31-1.34"/><path class="cls-6" d="M80.17,78c1,.58,2.65-.11,2.51-1.41"/><path class="cls-6" d="M82.27,77.76a1.71,1.71,0,0,1-.45,2.13"/><path class="cls-6" d="M82.37,79.2a1.71,1.71,0,0,0,2.17-1.06"/><path class="cls-6" d="M83.57,79.2a2,2,0,0,1-.17,1.93"/><path class="cls-6" d="M83.75,80a1.55,1.55,0,0,0,2-.93"/><path class="cls-6" d="M85.29,79.79c.55.34,1,1.95.11,2.61"/><path class="cls-6" d="M85.91,81.64a2.39,2.39,0,0,0,2.23-.79"/><path class="cls-6" d="M87.7,81.3a1.79,1.79,0,0,1,1,2"/><path class="cls-6" d="M88.76,83a2.72,2.72,0,0,0,2.1-1.3"/><path class="cls-6" d="M90.55,82.19a1.79,1.79,0,0,1,.86,1.72"/><path class="cls-6" d="M91.4,83.36a1.43,1.43,0,0,0,1.41-1.1"/><path class="cls-6" d="M92.64,82.74a1.7,1.7,0,0,1,1.1,1.38"/><path class="cls-6" d="M93.67,83.7a1.66,1.66,0,0,0,1.14-.86"/><path class="cls-6" d="M96.11,82.78c.62.61-.21,2.67-1.48,2.3"/><path class="cls-6" d="M82.92,41.15c-1.27.76-4.88.52-3.09-2.47"/><path class="cls-6" d="M83.27,39.13c-2.51,1-5.6-.93-2.37-3"/><path class="cls-6" d="M80,35.42A2.33,2.33,0,0,0,79.35,40"/><path class="cls-6" d="M71.9,36.83c-.55,1.06,1.41,2.23,2.75,1.16,1-.82,1-3.05.34-3.91"/><path class="cls-6" d="M70.83,39.37c-.68,2.26,4.37,2.4,3.58-1.21"/><path class="cls-6" d="M70.56,42.73c.17,1.72,4.84,1.17,3.33-2.3"/><path class="cls-6" d="M74.44,39.47a3.45,3.45,0,0,0,3.16,1.24"/><path class="cls-6" d="M75.26,37c.16.62,1.2,1.1,2.54.64"/><path class="cls-6" d="M28.4,89.28c-1.18.84.64,2.17,1.31.71"/><path class="cls-6" d="M27.48,89.93c-1.19.85.63,2.17,1.3.71"/><path class="cls-6" d="M26.5,90.57c-1.19.84.63,2.16,1.3.7"/><path class="cls-6" d="M25.47,91.16c-1.14.6.19,2.07,1.34.77"/><path class="cls-6" d="M24.35,91.72c-1.13.6.19,2.08,1.34.78"/><path class="cls-6" d="M30.1,90c0,.88,1.65,1.24,2.25-.07"/><path class="cls-6" d="M31.15,90.76c-.51.65.43,1.46,1,1.17"/><path class="cls-6" d="M28.94,90.64c-.06.74,1.39,1.17,2.09.36"/><path class="cls-6" d="M29.73,91.41c-.47.6.44,1.41,1,1.17"/><path class="cls-6" d="M28,91.31a1.26,1.26,0,0,0,1.76.87"/><path class="cls-6" d="M28.51,92.1a.82.82,0,0,0,.31,1.25"/><path class="cls-6" d="M26.72,92.05a1.08,1.08,0,0,0,1.7.86"/><path class="cls-6" d="M26.91,92.67c-.55.42-.48,1.08.22,1.16"/><path class="cls-6" d="M25.59,92.6a.89.89,0,0,0,1,.87"/><path class="cls-6" d="M22.65,92.56c-.55.29.86,1.79,1.74.4"/><path class="cls-6" d="M21.29,93.18c-.68.33,1,2,1.77.29"/><path class="cls-6" d="M25.74,93.11c-.53.12-.87.89-.43,1.2"/><path class="cls-6" d="M24,93.39c-.07.31.58.82,1.11.63"/><path class="cls-6" d="M23.56,93.53c-.51.32-.24,1.23.36,1.09"/><path class="cls-6" d="M21.73,94.12a.53.53,0,0,0,.51.92"/><path class="cls-6" d="M22.6,94.07a.69.69,0,0,0,.81.36"/><path class="cls-6" d="M20.06,93.76c-.6.26-.57,1.77,1.46.95"/><path class="cls-6" d="M18.7,94.37c-.84.41-.56,1.54,1.27.46"/><path class="cls-6" d="M20.13,94.92c-.23.17-.47.92.37.63"/><path class="cls-6" d="M18.58,95.27c-.34.31-.12,1,.64.71"/><path class="cls-6" d="M16.81,95.38c-.61.36.74.84,1.65-.12"/><path class="cls-6" d="M17.23,95.83c-.28.27-.28,1.08.44.79"/><path class="cls-6" d="M15.47,96.15c-.41.31.3.72,1.58.16"/><path class="cls-6" d="M16,96.6c-.48.39-.43.89.27.74"/><path class="cls-6" d="M14.56,96.82c-.53.48.24.81,1.17.41"/><path class="cls-6" d="M14.58,97.35c-.91.42-.51,1.17.05.88"/><path class="cls-6" d="M45,100c-.21.46.48.82,1.14.72s1.22-.61.75-1.34"/><path class="cls-6" d="M46.9,100.26a1.13,1.13,0,0,0,1.71-.79"/><path class="cls-5" d="M84.78,27.48c-2.75-1.37-8.45-3.91-10.07-1.85,1.48-.62,5.81,0,9.38,3.33l.69-1.48Z"/><path class="cls-5" d="M86.44,27.34c-3.18-3.7-5-2.87-7.33-4.15s-5.56-1.44-6.23.46c3.14-1.52,6,.83,7.79,1.11,2.42.39,3.79,2.27,4.5,3.13l1.27-.55Z"/><path class="cls-5" d="M98.41,26.87c-1.65-3.78-5.17-2.8-6.73-4.4-2.27-2.34-8-4.5-10.37-2.89,5.22-.27,7.44,3.6,10.23,5,2,1,4.12,3,6.87,2.34Z"/><path class="cls-5" d="M92.23,26.45C89.41,23,85.09,19.86,83.09,21c2.61.13,3.44,1.95,5.29,3.12S89.41,27,92.23,26.45Z"/><path class="cls-5" d="M78.83,32.64c-3-1.1-8.72-1.65-11.4,1.71C71.9,35.11,78.63,34.7,78.83,32.64Z"/><path class="cls-5" d="M78.29,33.94c-3-1.37-5.26.55-8,.28C65,33.7,61.18,34,60.7,36.55c3-2.71,8.11-.48,10.17-1s9.68-.07,12.09,1c-1.24-1.51-3.16-1.92-4.67-2.54Z"/><path class="cls-5" d="M87.56,26.08c-.69-2.27-.65-4.67,2.75-4.5-.86-1.07-4-1.62-4.54,2.37-3.74-2.75-7.83-3.23-8.58-.86,1.92-1.65,4.91-.45,8.48,3.6a6.31,6.31,0,0,1,1.89-.61Z"/><path class="cls-5" d="M82.41,29.2c-2.13-1.37-5-3.6,0-4.5-2.16-1.17-5.32-.65-5,3.33-5.77-2.33-9.91-1.54-10.78.76-1,2.54,2.61,4,3.23,2.33-.66.28-2.89-.48-1.72-1.92s7.15-.36,12.84,2.61c1.58.83,7,.69,1.38-2.61Z"/><path class="cls-5" d="M80.9,33c-1.65-3.35-7-.31-8.05-3.56C71.38,34.18,80.43,31.55,80.9,33Z"/><path class="cls-5" d="M114.79,36.62c1.12.55,2.09-.32.38-1,1.11.55,2.09-.3.38-1,1.12.56,2.09-.29.38-1a6.63,6.63,0,0,0-1.14,3Z"/><path class="cls-5" d="M115.37,30.16c2.48-2.61-.2-3.5,2.82-6.18,2.47-2.19.47-3.65,2.82-5.36.75-.55,2.4-1.64,2.54-2.74,1,2.47-3.09,2.81-2.82,6.8.18,2.53-1.54,2.31-2.2,6.59-.13.89-.75,2.89-3.16.89Z"/><path class="cls-5" d="M116.47,31.33c1.38-2.95,3-2.9,3.71-4,1.45-2.2,4.5.38,7.08-1.58-.45,2.78-3.92,1.78-5.43,3.57s-2.75,2.61-5.36,2.06Z"/><path class="cls-5" d="M116.82,32.29c2.4-1.92,4.17-.64,5.84-1.65,4.19-2.54,5.87.52,9.61-.68-1,2.4-6.52.34-8.93,2.13s-10.85,3.5-6.52.2Z"/><path class="cls-5" d="M109.81,46a3,3,0,0,0-2.5-2.67c-1.45-.18-2.07-1.69-3.16-1.76s-1.82-2.26-3.34-2.23-2.12,2,1.41,3.78S109.67,47,109.81,46Z"/><path class="cls-5" d="M105.35,46.92c-1.51.07-1.72,2.27-3.16,2.34,2,1.06,3.43-.48,4.46-1.86l-1.3-.48Z"/><path class="cls-5" d="M106.58,47.2c-1.3,1.09-1.68,3.4.21,4-1.13-1.56,2-2.27,1-3.71l-1.24-.34Z"/><path class="cls-5" d="M107.89,47.27c-1,2,1.61,2.23.93,3.74,1.51-.34,1.75-3.19.37-3.95l-1.3.21Z"/><path class="cls-5" d="M97.79,43A7.23,7.23,0,0,1,104,46.37c1,1.38,4.19,1.92,5.29.83s.48-3.44-2.27-2.68c-.68-1.17-2.67-.76-3.64-1.72s-4.67-3.71-5.63.21Z"/><path class="cls-9" d="M107.06,44.52c-.65.14-.85,1.27-.44,1.85"/><path class="cls-9" d="M108.47,45.21a1.25,1.25,0,0,1,0,1.06"/><path class="cls-9" d="M101.71,43.11c1.27.07,1.51,1,2.88,1.34"/><path class="cls-5" d="M100.87,40c4.39,1.09,7.87,2.06,10,3.29a11.61,11.61,0,0,0,8.42.76c2.93-.83,8.57-1.58,8.29,2.06,1.54-1.82-.42-3.78-4.32-4.12.07-1.79-1.84-3.4-3.21-2.34,1.27-.17,2.37,2.2-.14,3.16a2.25,2.25,0,0,0-3.13-2.61c1.18.34,2.38,2.33-.27,3.09-1.67.48-4.11-.14-5.92-1.23S98.64,37,100.87,40Z"/><path class="cls-5" d="M111.94,38.2c-1.37.62-.48,2.06-2.61,2.88s-3.6,2.72-3.12,4.33c1.44-3.16,4-3,4.87-4.26s2.2-3,.86-2.95Z"/><path class="cls-5" d="M112.32,38.4c-.07,2.51-2,1.6-1.27,5.12a7.45,7.45,0,0,1-.07,4.67c2.21-1.61.79-5,1.79-6.28a8.16,8.16,0,0,0,1.33-2.41c-.51,1.45-.48,4.12.93,4.81-1.13-2.68,3.06-4.88.17-8-.41.76-1.71,2.1-2.88,2.06Z"/><path class="cls-5" d="M105.31,35.9a3.34,3.34,0,0,1,.38,2.54,6.08,6.08,0,0,0,2-2.2A1.44,1.44,0,0,1,108.3,39a3.88,3.88,0,0,0,3-.92c-1-1.07-3.95-2.72-6-2.13Z"/><path class="cls-5" d="M84,31a2.68,2.68,0,0,0-1.27-.53c-2.08-.43-1-2.3.77-2.29,3.77-4.12,5.89-.94,10.5-2.24a5.11,5.11,0,0,1,3.59.05,4.91,4.91,0,0,1,6.23.63,1.4,1.4,0,0,1,.82-.65c1.62-.45,2.92.93,3.37,2.71a4.59,4.59,0,0,1,3.64,1.25c1.3-.67,2.21-.7,2.54,0,1.17-.55,2.68-.89,3.43,1s-1.78,1.31-2.19,5.22c-.26,2.42-3,3.37-5.09,1.92-3.4-2.3-6.73-2.67-8.38.83S99,44.36,95,43.21a4.26,4.26,0,0,0-4.47,1.72c-1.17,1.58-3,.1-5.08.28,2.68-.42,1.65-1.09,4-1.24,2.13-.14,1.58-2.13,3-2.4-5.36,1.37-5.15-.62-9.55.75,1.92-2.47,4.94-1.1,6.46-2.54-4-.07-5.77-2.67-7.56-1.58-2.82,1.72-1.58,6.61-8.93,6.18-3.57-.2-5.84.28-8,2.41,3.71-7.7,8.76-3.47,11.2-5.91A18.17,18.17,0,0,0,79.32,37a1.59,1.59,0,0,1,1.07-.86C74.28,34.17,78,31.18,84,31Z"/><path class="cls-9" d="M114.13,29.89a1.61,1.61,0,0,1,.15.75c0,1.51-2.27,1.58-2.41,3.82-.07,1.16-.2,1.82-1,1.68s-1.48-1.38-.72-2.82"/><path class="cls-5" d="M85.09,28.72a3,3,0,0,0-1.65-.57"/><path class="cls-5" d="M97.53,26c1.82.79,2.7,2.68,5.34,2.77s4.13,3.78,8.38,1.37l.34-.18"/><path class="cls-5" d="M103.77,26.59a3.31,3.31,0,0,0-.36,2.18"/><path class="cls-5" d="M95.46,34.35c-3.23,0-4.06,1.65-4.06,3.23a4,4,0,0,0,4.2,3.64c2.67,0,4.12-1.65,4.12-3.43s-1.65-3.44-4.26-3.44Z"/><path class="cls-5" d="M96,41.15c-.07-.89-1.68-.75-1.61-1.44s.89-1,.89-1.92,1.44-1,1.92-.28,1.93,2.23,2.23,1.48"/><path class="cls-5" d="M97.24,37.51a2.65,2.65,0,0,0-.1,3.51"/><path class="cls-5" d="M98.27,38.68a2.15,2.15,0,0,0,0,1.79"/><path class="cls-6" d="M111.1,36.16c2.52.2,3-2.58,1.06-2.75"/><path class="cls-6" d="M108,28.65c-.87-1.11-2.88-1.49-2.92.88"/><path class="cls-5" d="M104.83,32.22c-.86-2.13-3-2.43-4.22-1.37a2.17,2.17,0,0,0,1.1,3.67,8.53,8.53,0,0,1,3.12-2.3Z"/><path class="cls-5" d="M103.89,30.88c-1.24-1.09-3.06,1-1.41,2.89"/><path class="cls-5" d="M80.37,36.09c.83-.2,2,.21,3.89,1.08,1.17.55,4.67,1.72,6.87.55-2.27.82-4-2.61-5.7-2.2s-4.86,1-6.18-.21c3.22.21,5-2.35,8.65-.13a6.49,6.49,0,0,0,3.5,1c-3-3.64-7-1.31-7.41-4.26,1.82,2,6.26-.45,8.53,3.23"/><path class="cls-5" d="M84.64,32.43c-.43-.53-.23-1.06-.69-1.47"/><path d="M108,28.65c-.75-.8-2.4-.17-1.94,1.46A2.58,2.58,0,0,1,108,28.65Z"/><path d="M103.32,33.05a5.6,5.6,0,0,1,1.51-.83,3.24,3.24,0,0,0-1-1.39c-.4-.27-1.52,1.25-.5,2.22Z"/><path class="cls-7" d="M101.29,30.27c-1.23-.83-2.37-.76-2.74-.07-.9,0-1.63.62-1.67,1.92"/><path class="cls-7" d="M98.79,32.67c-1.48-1-3.51-.64-3.37,1.63"/><path class="cls-7" d="M94.53,35.59c.72-.59,1.75-1,2.54,0"/><path class="cls-7" d="M105.55,33.36a1.65,1.65,0,0,0,0,1.85c-.55-.72-1.92-.72-3.4,1.2"/><path class="cls-7" d="M108.82,33.25c-1.79.21-1.75,1.38-.31,1.89"/><path class="cls-7" d="M96.11,28.89c-1.51-.31-2.61.59-.51,1.34"/><path class="cls-7" d="M99,27.86c-2.13-.51-3,0-2,.52"/><path class="cls-7" d="M92.85,36.41c-.07.76.34,1.76,1.58.62"/><path class="cls-7" d="M93.26,38.68a1,1,0,0,1-.17.62"/><path class="cls-7" d="M88.31,28.62c-1.3-.38-1.54-1.58,0-1.48"/><path class="cls-7" d="M87.87,31.4c-1.45-.48-1.45-1.89-.24-1.75"/><path class="cls-7" d="M90.55,30.68c-1.69-.41-1.75-1.58-.48-1.41"/><path class="cls-7" d="M90.75,27.11c-.89-.07-2.27.92,0,1.51"/><path class="cls-7" d="M93.26,29.1c-2.1-.31-2.06.55-.82,1.1"/><path class="cls-7" d="M94.84,27.11c-1.62-.31-2.16.65-1.07,1.06"/><path class="cls-7" d="M89.76,33.05c-.4-.33-.72-1.89,1.16-1.43"/><path class="cls-7" d="M93.67,32.57c-1.27-.35-2.47.89-1.3,1.61"/><path class="cls-7" d="M95.35,31.09c-1.34-.24-2.47.14-1.75.62"/><path class="cls-5" d="M107.92,28.65a2.58,2.58,0,0,0-1.87,1.46"/></g></svg>