<svg id="Layer_1" data-name="Layer 1" xmlns="http://www.w3.org/2000/svg" xmlns:xlink="http://www.w3.org/1999/xlink" viewBox="0 0 128 128"><defs><style>.cls-1{fill:none;}.cls-2{clip-path:url(#clip-path);}.cls-3{clip-path:url(#clip-path-2);}.cls-4{fill:#c92d3b;}.cls-5{fill:#48a757;}.cls-6{fill:#fff;}.cls-7{fill:#b92025;}</style><clipPath id="clip-path"><circle class="cls-1" cx="64" cy="64" r="64"/></clipPath><clipPath id="clip-path-2"><rect id="_Clipping_Path_" data-name="&lt;Clipping Path&gt;" class="cls-1" width="219.43" height="128"/></clipPath></defs><title>Flag_circle_Belarus</title><g class="cls-2"><g id="BELARUS"><g id="_Group_" data-name="&lt;Group&gt;"><g id="_Clip_Group_" data-name="&lt;Clip Group&gt;"><g class="cls-3"><rect id="_Path_" data-name="&lt;Path&gt;" class="cls-4" width="219.44" height="85.32"/><rect id="_Path_2" data-name="&lt;Path&gt;" class="cls-5" y="85.32" width="219.44" height="42.68"/><rect id="_Path_3" data-name="&lt;Path&gt;" class="cls-6" width="28.16" height="128"/><path id="_Compound_Path_" data-name="&lt;Compound Path&gt;" class="cls-7" d="M3.42,125.65H4.67v-3.52H3.42Zm10,0h1.26v-3.52H13.45Zm10.05,0h1.25v-3.52H23.5ZM8.44,116.2H9.69v-2.94H8.44Zm10,0h1.26v-2.94H18.48ZM3.42,108.54H4.67V105H3.42Zm10,0h1.26V105H13.45Zm10.05,0h1.25V105H23.5ZM5.94,113.26H7.18v-3H8.44v-2.94H9.69v2.94H11v3h1.24v2.94H11v3H9.69v3H8.44v-3H7.18v-3H5.94Zm10,0h1.26v-3h1.25v-2.94h1.26v2.94H21v3h1.25v2.94H21v3H19.74v3H18.48v-3H17.23v-3H16Zm2.51-11.79v2.93H17.22v3H16v2.94H14.71v3H13.45v-3H12.19v-2.94H11v-3H9.69v-2.93H8.44v2.93H7.18v3H5.94v2.94H4.67v3H3.42v2.94H4.67v3H5.94v3H7.18v2.93H8.44V128H9.7v-2.94H11v-2.93h1.24v-3h1.26v-3h1.26v3H16v3h1.26v2.93h1.25V128h1.26v-2.94H21v-2.93h1.25v-3H23.5v-3h1.25v-2.94H23.5v-3H22.24v-2.94H21v-3H19.74v-2.93Zm3.11-2.94h.63V97.35h.63v1.18h.63V99.7h-.63v1.2h-.63V99.7h-.63Zm0-4.11v1.73H21v1.79h-.63v2.35H21v1.76h.62v1.76h1.89v-1.76h.63v-1.76h.62V97.94h-.62V96.15h-.63V94.42ZM4.67,98.5h.64V97.33h.63V98.5h.61v1.2H5.94v1.18H5.31V99.7H4.67Zm0-4.11v1.76H4.05v1.77H3.42v2.37h.63v1.76h.62v1.76H6.55v-1.76h.63v-1.76H7.8V97.92H7.18V96.15H6.55V94.39Zm6.91,4.11h.61V97.33h.64V98.5h.62v1.2h-.62v1.18h-.64V99.7h-.61Zm3.13,0h.63V97.33H16V98.5h.62v1.2H16v1.18h-.63V99.7h-.63Zm0-4.11v1.76H13.45V94.39H11.58v1.76H11v1.77h-.63v2.37H11v1.76h.63v1.76h1.87v-1.76h1.26v1.76h1.88v-1.76h.64v-1.76h.62V97.92h-.62V96.15h-.64V94.39ZM3.42,93.19H4.67V89.67H3.42Zm10,0h1.26V89.67H13.45Zm10.05,0h1.25V89.67H23.5ZM3.42,78.45H4.67V76.11H3.42Zm20.08,0h1.25V76.11H23.5Zm-10-8.24h1.26V67.27H13.45Zm-10-8v3.55H4.67V62.24Zm6.9,0v3.55h1.26V62.24Zm6.27,0v3.55h1.26V62.24Zm6.91,0v3.55h1.25V62.24Zm-8.16-2.07v1.17h-.63v.9H13.45v-.9h-.62V60.17H11.58v1.76h.61v.9h.64v2.34h-.64v.9h-.61v1.76h1.25V66.66h.62v-.87h1.26v.87h.63v1.17h1.25V66.07H16v-.9h-.63V62.83H16v-.9h.62V60.17Zm-1.89.59h1.26V57.82H13.45Zm-10-8.84H4.67V49.57H3.42Zm20.08,0h1.25V49.57H23.5ZM3.42,38.36H4.67V34.81H3.42Zm10,0h1.26V34.81H13.45Zm10.05,0h1.25V34.81H23.5ZM8.44,64.05V64h0V62.83H9.69v-2H11V58.41h1.88V55.62h.62V54.27h1.26V55.6h.63v2.81h1.89v2.37h1.25v2h1.26v2.34H18.48v2.1H17.23v2.35H15.34V72.4h-.63v1.33H13.45V72.4h-.62V69.62H11V67.27H9.69v-2.1H8.44Zm10-32.79v3H17.22v2.94H16v3H14.71v2.94H13.45V40.12H12.19v-3H11V34.22H9.69v-3H8.44v3H7.18v2.94H5.92v3H4.67v2.94H3.42v3H4.67v3H5.92v2.94H7.18v2.94H8.44V51.92H9.69V49H11V46H9.69V42.47H11v2.38h1.24v4.72h.64v2.91l-1.88,0v2.35H9.69v1.76H8.44v3H7.18v-3H5.92V54.86H4.67V53.09H3.42v5.32H4.67v2.37H5.92v2H7.18v2.34H5.92v2.1H4.67v2.35H3.42v5.31H4.67V73.14H5.92V71.38H7.18V68.44H8.44v2.94H9.69v1.76H11v2.38l1.88,0v2.91h-.64v4.73H11v2.37H9.69V82H11V79H9.69V76.11H8.44v-3H7.18v3H5.92V79H4.67V82H3.42v3H4.67v2.94H5.94v3H7.18v3H8.44v2.94H9.69V93.8H11v-3h1.24v-3h1.26V84.94h1.26v2.94H16v3h1.26v3h1.25v2.94h1.26V93.8H21v-3h1.25v-3H23.5V84.94h1.25V82H23.5V79H22.24V76.11H21v-3H19.74v3H18.48V79H17.22V82h1.26v3.57H17.22V83.18H16V78.45h-.63V75.52h1.89V73.14h1.25V71.38h1.26V68.44H21v2.94h1.25v1.76H23.5v1.79h1.25V69.62H23.5V67.27H22.24v-2.1H21V62.83h1.25v-2H23.5V58.41h1.25V53.09H23.5v1.77H22.24v1.76H21v3H19.74v-3H18.48V54.86H17.23V52.51H15.34V49.57H16V44.85h1.25V42.47h1.26V46H17.22v3h1.26v2.94h1.26v2.94H21V51.92h1.25V49H23.5V46h1.25v-3H23.5V40.12H22.24v-3H21V34.22H19.74v-3ZM4.67,28.32h.62V27.15h.65v1.17h.61V29.5H5.94v1.2H5.29V29.5H4.67Zm0-2.37H4.05v1.79H3.42v2.34h.63v1.79h.62v1.76H6.55V31.87h.63V30.08H7.8V27.74H7.18V26H6.55V24.21H4.67Zm6.91,2.37h.61V27.15h.64v1.17h.62V29.5h-.62v1.2h-.64V29.5h-.61Zm3.13,0h.63V27.15H16v1.17h.62V29.5H16v1.2h-.63V29.5h-.63ZM11.58,26H11v1.79h-.63v2.34H11v1.79h.63v1.76h1.87V31.87h1.26v1.76h1.88V31.87h.64V30.08h.62V27.74h-.62V26h-.64V24.21H14.71V26H13.45V24.21H11.58Zm10,2.35h.63V27.15h.63V28.3h.63v1.2h-.63v1.17h-.63V29.5h-.63Zm0-4.11V26H21v1.79h-.63v2.34H21v1.77h.62v1.76h1.89V31.85h.63V30.08h.62V27.74h-.62V26h-.63V24.19ZM3.42,23H4.67V19.49H3.42Zm10,0h1.26V19.49H13.45ZM23.5,23h1.25V19.49H23.5ZM8.44,14.76H9.69v-3H8.44Zm10,0h1.26v-3H18.48ZM3.42,5.9H4.67V2.38H3.42Zm10,0h1.26V2.38H13.45Zm10.05,0h1.25V2.38H23.5ZM5.94,11.8H7.18V8.86H8.44v-3H9.69v3H11V11.8h1.24v3H11V17.7H9.69v3H8.44v-3H7.18V14.76H5.94Zm10,0h1.26V8.86h1.25v-3h1.26v3H21V11.8h1.25v3H21V17.7H19.74v3H18.48v-3H17.23V14.76H16ZM18.48,0V3H17.23V5.9H16v3H14.71V11.8H13.45V8.86H12.19v-3H11V3H9.7V0H8.44V3H7.18V5.9H5.94v3H4.67V11.8H3.42v3H4.67V17.7H5.94v3H7.18v3H8.44v2.94H9.69V23.62H11v-3h1.24v-3h1.26V14.76h1.26V17.7H16v3h1.25v3h1.26v2.94h1.26V23.62H21v-3h1.25v-3H23.5V14.76h1.25v-3H23.5V8.86H22.24v-3H21V3H19.74V0Z"/></g></g></g></g></g></svg>