<svg id="Layer_1" data-name="Layer 1" xmlns="http://www.w3.org/2000/svg" xmlns:xlink="http://www.w3.org/1999/xlink" viewBox="0 0 128 128"><defs><style>.cls-1{fill:none;}.cls-2{clip-path:url(#clip-path);}.cls-3{clip-path:url(#clip-path-2);}.cls-4{fill:#e81e25;}.cls-5{fill:#fff;}</style><clipPath id="clip-path"><circle class="cls-1" cx="64" cy="64" r="64"/></clipPath><clipPath id="clip-path-2"><rect id="_Clipping_Path_" data-name="&lt;Clipping Path&gt;" class="cls-1" width="128" height="128"/></clipPath></defs><title>Flag_circle_Canada</title><g class="cls-2"><g id="CANADA"><g id="_Group_" data-name="&lt;Group&gt;"><g id="_Clip_Group_" data-name="&lt;Clip Group&gt;"><g class="cls-3"><rect id="_Path_" data-name="&lt;Path&gt;" class="cls-4" width="30.11" height="128"/><rect id="_Path_2" data-name="&lt;Path&gt;" class="cls-4" x="97.89" width="30.11" height="128"/><rect id="_Path_3" data-name="&lt;Path&gt;" class="cls-5" x="30.11" width="67.78" height="128"/><g id="_Clip_Group_2" data-name="&lt;Clip Group&gt;"><g class="cls-3"><path id="_Path_4" data-name="&lt;Path&gt;" class="cls-4" d="M64,36.35,59.56,45c-.51.94-1.41.84-2.31.33L54,43.56l2.4,13.26c.51,2.42-1.11,2.42-1.91,1.37l-5.61-6.54L48,55a1.08,1.08,0,0,1-1.26.78l-7.09-1.56,1.86,7.06c.4,1.58.71,2.23-.4,2.64l-2.53,1.24L50.79,75.46a1.7,1.7,0,0,1,.55,1.73l-1.06,3.66,12.17-1.47c.37,0,1,.33,1,.78l-.56,13.38h2.05L64.6,80.19c0-.44.57-.81.93-.81l12.19,1.47-1.08-3.66a1.74,1.74,0,0,1,.56-1.73L89.41,65.13l-2.53-1.24c-1.11-.41-.8-1.06-.4-2.64l1.87-7.06-7.1,1.56A1.08,1.08,0,0,1,80,55l-.91-3.32-5.61,6.54c-.8,1.05-2.41,1.05-1.91-1.37L74,43.56,70.75,45.3c-.91.51-1.82.61-2.31-.33Z"/></g></g></g></g></g></g></g></svg>