<svg id="Layer_1" data-name="Layer 1" xmlns="http://www.w3.org/2000/svg" xmlns:xlink="http://www.w3.org/1999/xlink" viewBox="0 0 128 128"><defs><style>.cls-1{fill:none;}.cls-2{clip-path:url(#clip-path);}.cls-3{clip-path:url(#clip-path-2);}.cls-4{fill:#fff;}.cls-5{fill:#304098;}.cls-6{fill:#c12727;}</style><clipPath id="clip-path"><circle class="cls-1" cx="64" cy="64" r="64"/></clipPath><clipPath id="clip-path-2"><rect id="_Clipping_Path_" data-name="&lt;Clipping Path&gt;" class="cls-1" width="219.44" height="128"/></clipPath></defs><title>Flag_circle_Chile</title><g class="cls-2"><g id="CHILE"><g id="_Group_" data-name="&lt;Group&gt;"><g id="_Clip_Group_" data-name="&lt;Clip Group&gt;"><g class="cls-3"><rect id="_Path_" data-name="&lt;Path&gt;" class="cls-4" width="219.44" height="128"/><rect id="_Path_2" data-name="&lt;Path&gt;" class="cls-5" width="64" height="128"/><rect id="_Path_3" data-name="&lt;Path&gt;" class="cls-6" y="64" width="219.44" height="64"/><polygon id="_Path_4" data-name="&lt;Path&gt;" class="cls-4" points="32.03 15.99 27.07 31.22 34.68 33.69 32.03 15.99"/><polygon id="_Path_5" data-name="&lt;Path&gt;" class="cls-4" points="32.03 15.99 36.96 31.22 29.34 33.69 32.03 15.99"/><polygon id="_Path_6" data-name="&lt;Path&gt;" class="cls-4" points="47.22 27.05 31.25 27.05 31.25 35.05 47.22 27.05"/><polygon id="_Path_7" data-name="&lt;Path&gt;" class="cls-4" points="47.22 27.05 34.27 36.46 29.59 29.98 47.22 27.05"/><polygon id="_Path_8" data-name="&lt;Path&gt;" class="cls-4" points="16.79 27.05 29.75 36.46 34.44 29.98 16.79 27.05"/><polygon id="_Path_9" data-name="&lt;Path&gt;" class="cls-4" points="16.79 27.05 32.8 27.05 32.8 35.05 16.79 27.05"/><polygon id="_Path_10" data-name="&lt;Path&gt;" class="cls-4" points="41.41 44.93 36.48 29.72 28.87 32.19 41.41 44.93"/><polygon id="_Path_11" data-name="&lt;Path&gt;" class="cls-4" points="41.41 44.93 28.46 35.53 33.19 29.07 41.41 44.93"/><polygon id="_Path_12" data-name="&lt;Path&gt;" class="cls-4" points="22.61 44.93 35.56 35.53 30.84 29.07 22.61 44.93"/><polygon id="_Path_13" data-name="&lt;Path&gt;" class="cls-4" points="22.61 44.93 27.55 29.72 35.16 32.19 22.61 44.93"/></g></g></g></g></g></svg>