<svg id="Layer_1" data-name="Layer 1" xmlns="http://www.w3.org/2000/svg" xmlns:xlink="http://www.w3.org/1999/xlink" viewBox="0 0 128 128"><defs><style>.cls-1{fill:none;}.cls-2{clip-path:url(#clip-path);}.cls-3{clip-path:url(#clip-path-2);}.cls-4{fill:#cb1d23;}.cls-5{fill:#f7de29;}</style><clipPath id="clip-path"><circle class="cls-1" cx="64" cy="64" r="64"/></clipPath><clipPath id="clip-path-2"><rect id="_Clipping_Path_" data-name="&lt;Clipping Path&gt;" class="cls-1" width="219.47" height="156"/></clipPath></defs><title>Flag_circle_China</title><g class="cls-2"><g id="CHINA"><g id="_Group_" data-name="&lt;Group&gt;"><g id="_Clip_Group_" data-name="&lt;Clip Group&gt;"><g class="cls-3"><rect id="_Path_" data-name="&lt;Path&gt;" class="cls-4" width="219.47" height="156"/><polygon id="_Path_2" data-name="&lt;Path&gt;" class="cls-5" points="17.11 75.34 21.23 62.56 10.4 54.62 23.82 54.59 28.01 41.85 32.18 54.59 45.6 54.65 34.76 62.56 38.86 75.34 27.99 67.44 17.11 75.34"/><polygon id="_Path_3" data-name="&lt;Path&gt;" class="cls-5" points="54.53 82.23 59.07 84.07 62.22 80.32 61.88 85.2 66.41 87.04 61.67 88.24 61.32 93.06 58.72 88.95 53.98 90.1 57.11 86.37 54.53 82.23"/><polygon id="_Path_4" data-name="&lt;Path&gt;" class="cls-5" points="79.06 57.69 74.25 56.84 71.94 61.16 71.27 56.33 66.44 55.44 70.83 53.32 70.17 48.47 73.57 51.96 77.96 49.84 75.67 54.16 79.06 57.69"/><polygon id="_Path_5" data-name="&lt;Path&gt;" class="cls-5" points="68.85 79.55 70.34 74.9 66.4 72.02 71.29 72.02 72.8 67.37 74.32 72.02 79.21 72.02 75.27 74.9 76.75 79.55 72.8 76.69 68.85 79.55"/><polygon id="_Path_6" data-name="&lt;Path&gt;" class="cls-5" points="54.78 37.12 59.2 39.19 62.54 35.62 61.96 40.47 66.37 42.56 61.59 43.48 60.98 48.34 58.6 44.07 53.81 44.97 57.13 41.39 54.78 37.12"/></g></g></g></g></g></svg>