<svg id="Layer_1" data-name="Layer 1" xmlns="http://www.w3.org/2000/svg" xmlns:xlink="http://www.w3.org/1999/xlink" viewBox="0 0 128 128"><defs><style>.cls-1{fill:none;}.cls-2{clip-path:url(#clip-path);}.cls-3{clip-path:url(#clip-path-2);}.cls-4{fill:#2d3d84;}.cls-5{fill:#292c2f;}.cls-6,.cls-8{fill:#fff;}.cls-7{fill:#d71e34;}.cls-8{fill-rule:evenodd;}</style><clipPath id="clip-path"><circle class="cls-1" cx="64" cy="64" r="64"/></clipPath><clipPath id="clip-path-2"><rect id="_Clipping_Path_" data-name="&lt;Clipping Path&gt;" class="cls-1" x="-10" width="219.43" height="128"/></clipPath></defs><title>Flag_circle_Cuba</title><g class="cls-2"><g id="CUBA"><g id="_Group_" data-name="&lt;Group&gt;"><g id="_Clip_Group_" data-name="&lt;Clip Group&gt;"><g class="cls-3"><rect id="_Path_" data-name="&lt;Path&gt;" class="cls-4" x="-10" width="219.43" height="128"/><path id="_Compound_Path_" data-name="&lt;Compound Path&gt;" class="cls-5" d="M-10,89.66h0Zm0-51.32h0Z"/><path id="_Compound_Path_2" data-name="&lt;Compound Path&gt;" class="cls-6" d="M-10,102.44H209.43V76.88H-10Zm0-51.32H209.43V25.56H-10Z"/><polygon id="_Path_2" data-name="&lt;Path&gt;" class="cls-7" points="-10 0 -10 128 100.67 64.11 -10 0"/><polygon id="_Path_3" data-name="&lt;Path&gt;" class="cls-8" points="26.95 42.66 20.35 62.87 30.47 66.17 26.95 42.66"/><polygon id="_Path_4" data-name="&lt;Path&gt;" class="cls-8" points="26.95 42.66 33.35 62.87 23.24 66.17 26.95 42.66"/><polygon id="_Path_5" data-name="&lt;Path&gt;" class="cls-8" points="47.19 57.51 25.92 57.51 25.92 68.02 47.19 57.51"/><polygon id="_Path_6" data-name="&lt;Path&gt;" class="cls-8" points="47.19 57.51 29.85 69.87 23.66 61.42 47.19 57.51"/><polygon id="_Path_7" data-name="&lt;Path&gt;" class="cls-8" points="6.52 57.51 23.86 69.87 30.06 61.42 6.52 57.51"/><polygon id="_Path_8" data-name="&lt;Path&gt;" class="cls-8" points="6.52 57.51 28 57.51 28 68.02 6.52 57.51"/><polygon id="_Path_9" data-name="&lt;Path&gt;" class="cls-8" points="39.35 81.21 32.74 61.02 22.63 64.31 39.35 81.21"/><polygon id="_Path_10" data-name="&lt;Path&gt;" class="cls-8" points="39.35 81.21 22.23 68.64 28.4 60.18 39.35 81.21"/><polygon id="_Path_11" data-name="&lt;Path&gt;" class="cls-8" points="14.36 81.21 31.5 68.64 25.31 60.18 14.36 81.21"/><polygon id="_Path_12" data-name="&lt;Path&gt;" class="cls-8" points="14.36 81.21 20.97 61.02 31.09 64.31 14.36 81.21"/></g></g></g></g></g></svg>