<svg id="Layer_1" data-name="Layer 1" xmlns="http://www.w3.org/2000/svg" xmlns:xlink="http://www.w3.org/1999/xlink" viewBox="0 0 128 128"><defs><style>.cls-1{fill:none;}.cls-2{clip-path:url(#clip-path);}.cls-3{clip-path:url(#clip-path-2);}.cls-4{fill:#283b8b;}.cls-5{fill:#fff;}.cls-6{fill:#bc1f33;}.cls-7{fill:#f2cf2f;}</style><clipPath id="clip-path"><circle class="cls-1" cx="64" cy="64" r="64"/></clipPath><clipPath id="clip-path-2"><rect id="_Clipping_Path_" data-name="&lt;Clipping Path&gt;" class="cls-1" x="-17" width="219.43" height="128"/></clipPath></defs><title>Flag_circle_Cabo Verde</title><g class="cls-2"><g id="CAPE_VERDE" data-name="CAPE VERDE"><g id="_Group_" data-name="&lt;Group&gt;"><g id="_Clip_Group_" data-name="&lt;Clip Group&gt;"><g class="cls-3"><rect id="_Path_" data-name="&lt;Path&gt;" class="cls-4" x="-17" width="219.43" height="128"/><rect id="_Path_2" data-name="&lt;Path&gt;" class="cls-5" x="-17" y="63.97" width="219.43" height="32.03"/><rect id="_Path_3" data-name="&lt;Path&gt;" class="cls-6" x="-17" y="74.68" width="219.43" height="10.67"/><polygon id="_Path_4" data-name="&lt;Path&gt;" class="cls-7" points="64.59 41.6 63.16 46.02 58.51 46.02 62.27 48.78 60.84 53.17 64.59 50.44 68.36 53.17 66.93 48.78 70.69 46.02 66.04 46.02 64.59 41.6"/><polygon id="_Path_5" data-name="&lt;Path&gt;" class="cls-7" points="45.79 47.73 44.36 52.15 39.7 52.15 43.47 54.88 42.03 59.3 45.79 56.57 49.55 59.3 48.12 54.88 51.87 52.15 47.24 52.15 45.79 47.73"/><polygon id="_Path_6" data-name="&lt;Path&gt;" class="cls-7" points="34.17 63.72 32.73 68.16 28.08 68.16 31.84 70.87 30.41 75.29 34.17 72.56 37.93 75.29 36.48 70.87 40.25 68.16 35.6 68.16 34.17 63.72"/><polygon id="_Path_7" data-name="&lt;Path&gt;" class="cls-7" points="34.17 83.49 32.73 87.93 28.08 87.93 31.84 90.64 30.41 95.08 34.17 92.35 37.93 95.08 36.48 90.64 40.25 87.93 35.6 87.93 34.17 83.49"/><polygon id="_Path_8" data-name="&lt;Path&gt;" class="cls-7" points="45.79 99.5 44.36 103.92 39.7 103.92 43.47 106.67 42.03 111.07 45.79 108.36 49.55 111.07 48.12 106.67 51.87 103.92 47.24 103.92 45.79 99.5"/><polygon id="_Path_9" data-name="&lt;Path&gt;" class="cls-7" points="64.59 105.6 63.16 110.02 58.51 110.02 62.27 112.75 60.84 117.17 64.59 114.44 68.36 117.17 66.93 112.75 70.69 110.02 66.04 110.02 64.59 105.6"/><polygon id="_Path_10" data-name="&lt;Path&gt;" class="cls-7" points="83.41 99.5 81.96 103.92 77.33 103.92 81.08 106.67 79.64 111.07 83.41 108.36 87.17 111.07 85.73 106.67 89.5 103.92 84.83 103.92 83.41 99.5"/><polygon id="_Path_11" data-name="&lt;Path&gt;" class="cls-7" points="95.03 63.72 93.58 68.16 88.94 68.16 92.71 70.87 91.28 75.29 95.03 72.56 98.8 75.29 97.35 70.87 101.12 68.16 96.46 68.16 95.03 63.72"/><polygon id="_Path_12" data-name="&lt;Path&gt;" class="cls-7" points="95.03 83.49 93.58 87.93 88.94 87.93 92.71 90.64 91.28 95.08 95.03 92.35 98.8 95.08 97.35 90.64 101.12 87.93 96.46 87.93 95.03 83.49"/><polygon id="_Path_13" data-name="&lt;Path&gt;" class="cls-7" points="83.41 47.73 81.96 52.15 77.33 52.15 81.08 54.88 79.64 59.3 83.41 56.57 87.17 59.3 85.73 54.88 89.5 52.15 84.83 52.15 83.41 47.73"/></g></g></g></g></g></svg>