<svg id="Layer_1" data-name="Layer 1" xmlns="http://www.w3.org/2000/svg" xmlns:xlink="http://www.w3.org/1999/xlink" viewBox="0 0 128 128"><defs><style>.cls-1{fill:none;}.cls-2{clip-path:url(#clip-path);}.cls-3{clip-path:url(#clip-path-2);}.cls-4{fill:#fff;}.cls-5{fill:#dd7d21;}.cls-6{fill:#2c6752;}</style><clipPath id="clip-path"><circle class="cls-1" cx="64" cy="64" r="64"/></clipPath><clipPath id="clip-path-2"><rect id="_Clipping_Path_" data-name="&lt;Clipping Path&gt;" class="cls-1" x="-45.71" width="219.43" height="128"/></clipPath></defs><title>Flag_circle_Cyprus</title><g class="cls-2"><g id="CYPRUSS"><g id="_Group_" data-name="&lt;Group&gt;"><g id="_Clip_Group_" data-name="&lt;Clip Group&gt;"><g class="cls-3"><rect id="_Path_" data-name="&lt;Path&gt;" class="cls-4" x="-45.71" width="219.43" height="128"/><g id="_Clip_Group_2" data-name="&lt;Clip Group&gt;"><g class="cls-3"><path id="_Path_2" data-name="&lt;Path&gt;" class="cls-5" d="M48.12,38.88a4.94,4.94,0,0,0,.3,2.21c.13.32.24,6.13-.61,7.69a5.77,5.77,0,0,1-3.27,2.63c-.69.17-2.85-1.35-4.83-2A5.78,5.78,0,0,0,37,48.89a7.31,7.31,0,0,0-3.24,1.17c-.36-.07-.46-.21-.66,0a6.43,6.43,0,0,0-1.25,1.58c-.22.51-.74,2.53-1.38,2.73s-2.35,1.93-3.46,2a5.48,5.48,0,0,1-1.6-.1c-.75,0-.84-.84-1.58-1.25a2.54,2.54,0,0,1-.92-.75s-.22-.83-.55-.83-.61,1.47-.61,1.89A5.68,5.68,0,0,0,23,57.64c.42.32.42,2.21.21,2.73s.43,1.08.53,1.59-.65.94-.32,1a1.58,1.58,0,0,1,.74,1.38c0,.63,1.56.85,1.89,1.47a9.63,9.63,0,0,1,.55,2.33c.07.62.44.31.5,1.89.52.24,1.25.74,1.9,1s.52,1.06,1.36,1.37.83,0,1.27.13-.19.2.55.41,1-.11,1.65.2,1,1,1.37,1.28,2.24.74,2.33.83a5.8,5.8,0,0,0,1.47.53,3.17,3.17,0,0,0,.85-.42,2.93,2.93,0,0,0,1.37,0c.64-.2,1.07-.84,1.48-.84s.51.2.94.2a4.34,4.34,0,0,0,1-.2,2.68,2.68,0,0,1,1.7.2c.74.44,2.41,2.43,2.41,3.27a5.68,5.68,0,0,1-.11,1.27,2.81,2.81,0,0,1,1.16.09c.33.21.28-.17,2.63.21-.14-.57-2.41-2.21-.31-4.52s2.25-1.36,2.74-1.8,2.44-1.65,5.68-.51c3.18-.51.85-1,2.63-1.06a3.08,3.08,0,0,1,1.58.22,1.23,1.23,0,0,1,1.38-.64,2.57,2.57,0,0,1,1.9-1c.12-.7,2.39-1.59,3.67-1.67.55-.49,1.14-2.59,4-1.58.08-.68.56-1.79,1.34-2,.17-1.42-.37-4.29,1.07-5.26,1.4-1.3,2.77-1,5.14-.94,1.66.33,2.42,1.55,3,1.68a1.43,1.43,0,0,0,1.34-.33c.65-.41-.09-1.27.43-1.27a3.35,3.35,0,0,0,1.16,0c.86-.08.73-.38,1.26-.51.85.43,1.8.11,2.23.43s.47.28,1.35.39a1.52,1.52,0,0,0,1.18.55s-.64-.22-.42-.55a1.76,1.76,0,0,0-.42-1.66,6.73,6.73,0,0,1-1-1c-.32-.41.1-.41-.42-.93s-1.69-1.06-2-1.69-.21-1-.75-1.57-2.64-2.32-2.73-4.21.09-3.73,1.38-4.32c0-1.12.19-1.27,1.35-1.91s1.28-.21,2-.21a2.49,2.49,0,0,0,1.9-.42c.73-.52.09-1.68,2-3.36s2.66-2.54,3.29-2.63,2.92-1.72,3.86-1.59a15.13,15.13,0,0,1,2.24-2.42c.85-.64,1.77-.64,2.19-1.16s.33-1.47,1.6-2.3,2.32-1.4,2.85-1.8,1.67-.11,2.1-.52.42-2,.86-2.34-1.38.74-2.35,1.16a7.55,7.55,0,0,1-3.46,1.06c-1.16-.11-.53.64-1.16.85s-1.69.1-2.11.52a16.3,16.3,0,0,1-1.78,1.9c-.65.41-1,.31-1.59.63s-1.16.62-1.69.84a7.52,7.52,0,0,1-2.1.12s-1.38,1.77-2,2.42-1.36.51-2,.83-6,3.78-9.67,4.32-2-.32-3.18,0-2.83,2.53-4.21,2.62a10.16,10.16,0,0,1-2.08,0c-.34,0-2,1.07-3.08.85a7.79,7.79,0,0,1-3.17.32c-.45,0-1.25.54-2.41,0-.9-.29-.9.35-2.63-.2s-2.94.2-3.8-.21-.72-.76-1.37-.76-.62.43-1.37.43-.86-.43-1.47-.43a12.11,12.11,0,0,1-2.32.33c-.95-.12-1.25-.54-1.89-.54a29.66,29.66,0,0,1-4.11-1.47Z"/><path id="_Path_3" data-name="&lt;Path&gt;" class="cls-6" d="M58.88,103.23a12.88,12.88,0,0,1,5.95-2.2c2.49-.43,5.12-1.17,6.5-1.53s-4.67,1.76-6.22,2.18-6.23,1.55-6.23,1.55Z"/><path id="_Path_4" data-name="&lt;Path&gt;" class="cls-6" d="M68.9,99.33c-.49-3.13.74-6.42,3.58-7.74.66,2.28-1.37,6.13-3.58,7.74Z"/><path id="_Path_5" data-name="&lt;Path&gt;" class="cls-6" d="M73.74,97.71c-1.52-2.62,1-6,2.94-7.61.88,1.57-.66,6.26-2.94,7.61Z"/><path id="_Path_6" data-name="&lt;Path&gt;" class="cls-6" d="M78.2,95.69c-1.61-2.23.31-6.14,2.35-7.68.79,2.21,0,6.16-2.35,7.68Z"/><path id="_Path_7" data-name="&lt;Path&gt;" class="cls-6" d="M82.67,92.88c-1.48-2.1-.45-5.37,1.68-7.5,1.52,1.76.22,5.56-1.68,7.5Z"/><path id="_Path_8" data-name="&lt;Path&gt;" class="cls-6" d="M86.26,90.08c-1.24-2,.28-6.76,2.27-8.08.86,1.77.22,6.75-2.27,8.08Z"/><path id="_Path_9" data-name="&lt;Path&gt;" class="cls-6" d="M89.1,89.32c-.35-2.85,4.63-6,6.66-5.91-.22,2.32-2.35,4.88-6.66,5.91Z"/><path id="_Path_10" data-name="&lt;Path&gt;" class="cls-6" d="M86.32,92.54c2.35-2.4,6.88-2.4,8.49-1.9-.42,1.4-5.78,4.45-8.49,1.9Z"/><path id="_Path_11" data-name="&lt;Path&gt;" class="cls-6" d="M83.1,95c3.3-.88,5.43-1.59,7.4.45-1.4,1.76-6.73,1.24-7.4-.45Z"/><path id="_Path_12" data-name="&lt;Path&gt;" class="cls-6" d="M78.4,97.09c3.16-1.69,7,.8,7.55,2.24-3.51,1.47-7.61-1.87-7.55-2.24Z"/><path id="_Path_13" data-name="&lt;Path&gt;" class="cls-6" d="M74.09,99.5a7.12,7.12,0,0,1,7.47,2c-1.53.74-5.54,1.54-7.47-2Z"/><path id="_Path_14" data-name="&lt;Path&gt;" class="cls-6" d="M70.16,100.74a8,8,0,0,1,7.13,3.55c-4.19.41-5.81-.86-7.13-3.55Z"/><path id="_Path_15" data-name="&lt;Path&gt;" class="cls-6" d="M69.1,103.23a12.72,12.72,0,0,0-5.93-2.2c-2.49-.43-5.12-1.17-6.52-1.53s4.69,1.76,6.24,2.18,6.21,1.55,6.21,1.55Z"/><path id="_Path_16" data-name="&lt;Path&gt;" class="cls-6" d="M59.07,99.33c.52-3.13-.71-6.42-3.57-7.74-.64,2.28,1.39,6.13,3.57,7.74Z"/><path id="_Path_17" data-name="&lt;Path&gt;" class="cls-6" d="M54.26,97.71c1.54-2.62-1-6-2.94-7.61-.88,1.57.66,6.26,2.94,7.61Z"/><path id="_Path_18" data-name="&lt;Path&gt;" class="cls-6" d="M49.78,95.69c1.63-2.23-.29-6.14-2.33-7.68-.8,2.21,0,6.16,2.33,7.68Z"/><path id="_Path_19" data-name="&lt;Path&gt;" class="cls-6" d="M45.32,92.88c1.47-2.1.45-5.37-1.67-7.5-1.52,1.76-.22,5.56,1.67,7.5Z"/><path id="_Path_20" data-name="&lt;Path&gt;" class="cls-6" d="M41.74,90.08c1.27-2-.28-6.76-2.27-8.08-.88,1.77-.22,6.75,2.27,8.08Z"/><path id="_Path_21" data-name="&lt;Path&gt;" class="cls-6" d="M38.87,89.32c.38-2.85-4.6-6-6.63-5.91.22,2.32,2.31,4.88,6.63,5.91Z"/><path id="_Path_22" data-name="&lt;Path&gt;" class="cls-6" d="M41.68,92.54c-2.35-2.4-6.88-2.4-8.49-1.9.44,1.4,5.78,4.45,8.49,1.9Z"/><path id="_Path_23" data-name="&lt;Path&gt;" class="cls-6" d="M44.9,95c-3.3-.88-5.43-1.59-7.4.45,1.37,1.76,6.73,1.24,7.4-.45Z"/><path id="_Path_24" data-name="&lt;Path&gt;" class="cls-6" d="M49.57,97.09c-3.14-1.69-7,.8-7.52,2.24,3.51,1.47,7.58-1.87,7.52-2.24Z"/><path id="_Path_25" data-name="&lt;Path&gt;" class="cls-6" d="M53.87,99.5a7.07,7.07,0,0,0-7.44,2c1.54.74,5.55,1.54,7.44-2Z"/><path id="_Path_26" data-name="&lt;Path&gt;" class="cls-6" d="M57.86,100.74a8,8,0,0,0-7.15,3.55c4.21.41,5.82-.86,7.15-3.55Z"/></g></g></g></g></g></g></g></svg>