<svg id="Layer_1" data-name="Layer 1" xmlns="http://www.w3.org/2000/svg" xmlns:xlink="http://www.w3.org/1999/xlink" viewBox="0 0 128 128"><defs><style>.cls-1{fill:none;}.cls-2{clip-path:url(#clip-path);}.cls-14,.cls-15,.cls-16,.cls-17,.cls-18,.cls-19,.cls-20,.cls-21,.cls-22,.cls-3,.cls-7,.cls-8{fill:#006b3f;}.cls-10,.cls-26,.cls-27,.cls-4{fill:#fcd116;}.cls-5{fill:#fff;}.cls-13,.cls-25,.cls-6{fill:#d41c30;}.cls-10,.cls-11,.cls-12,.cls-13,.cls-14,.cls-15,.cls-16,.cls-17,.cls-18,.cls-19,.cls-20,.cls-21,.cls-22,.cls-23,.cls-24,.cls-25,.cls-26,.cls-27,.cls-7,.cls-8,.cls-9{stroke:#000;}.cls-13,.cls-7{stroke-width:0.21px;}.cls-25,.cls-26,.cls-8{stroke-width:0.53px;}.cls-11,.cls-9{fill:#9c4a00;}.cls-9{stroke-width:0.14px;}.cls-10{stroke-width:0.13px;}.cls-11{stroke-width:0.09px;}.cls-12,.cls-23,.cls-24{fill:#9461c9;}.cls-12,.cls-19{stroke-width:0.12px;}.cls-14{stroke-width:0.31px;}.cls-15{stroke-width:0.33px;}.cls-16{stroke-width:0.33px;}.cls-17{stroke-width:0.33px;}.cls-18{stroke-width:0.54px;}.cls-20{stroke-width:0.3px;}.cls-21{stroke-width:0.35px;}.cls-22{stroke-width:0.45px;}.cls-23{stroke-width:0.13px;}.cls-24{stroke-width:0.13px;}.cls-27{stroke-width:0.16px;}</style><clipPath id="clip-path"><circle class="cls-1" cx="64" cy="64" r="64"/></clipPath></defs><title>Flag_circle_Dominica</title><g class="cls-2"><path class="cls-3" d="M-46,0H174V128H-46Z"/><path class="cls-4" d="M-46,48H174V69.33H-46Z"/><path class="cls-5" d="M-46,58.67H174V80H-46Z"/><path d="M-46,58.67H174V69.33H-46Z"/><path class="cls-4" d="M48,0H69.33V128H48Z"/><path class="cls-5" d="M58.67,0H80V128H58.67Z"/><path d="M58.67,0H69.33V128H58.67Z"/><circle class="cls-6" cx="64" cy="64" r="32"/><g id="a"><path id="b" class="cls-7" d="M63,38.74l1-2.93.93,2.88,3.13.05-2.47,1.89,1.12,3.21-2.71-2-2.66,1.88,1-3.11-2.43-1.84Z"/><path id="b-2" data-name="b" class="cls-7" d="M65,89.26l-1,2.93-.93-2.88-3.13,0,2.47-1.89-1.12-3.21,2.71,2,2.66-1.88-1,3.11,2.43,1.84Z"/></g><g id="a-2" data-name="a"><path id="b-3" data-name="b" class="cls-7" d="M78,43l2.55-1.76-.94,2.87L82.13,46,79,46l-1,3.26-1-3.19-3.26,0,2.66-1.92-.88-2.91Z"/><path id="b-4" data-name="b" class="cls-7" d="M50,85,47.43,86.8l.94-2.87-2.5-1.88L49,82l1-3.26,1,3.19,3.26,0-2.66,1.92.88,2.91Z"/></g><g id="a-3" data-name="a"><path id="b-5" data-name="b" class="cls-7" d="M87.71,55.22l3.1.07-2.45,1.78.92,3-2.56-1.77L84,60.34l1-3.18-2.62-1.95,3.28,0,1-2.88Z"/><path id="b-6" data-name="b" class="cls-7" d="M40.29,72.78l-3.1-.07,2.45-1.78-.92-3,2.56,1.77L44,67.66l-1.05,3.18,2.62,2-3.28,0-1,2.88Z"/></g><g id="a-4" data-name="a"><path id="b-7" data-name="b" class="cls-7" d="M88.34,70.83l2.47,1.88h-3l-1,3-1-2.94-3.4.07,2.72-2-1-3.11,2.64,1.94,2.5-1.74Z"/><path id="b-8" data-name="b" class="cls-7" d="M39.66,57.17l-2.47-1.88h3l1-3,1,2.94,3.4-.07-2.72,2,1,3.11-2.64-1.94-2.5,1.74Z"/></g><g id="a-5" data-name="a"><path id="b-9" data-name="b" class="cls-7" d="M79.68,83.83l.89,3L78.12,85l-2.55,1.8.89-3-2.8-1.94H77l1-3.08,1,3.12,3,.06Z"/><path id="b-10" data-name="b" class="cls-7" d="M48.32,44.17l-.89-3L49.88,43l2.55-1.8-.89,3,2.8,1.94H51l-1,3.08-1-3.12-3-.06Z"/></g><ellipse class="cls-8" cx="68.39" cy="72.46" rx="1.91" ry="9.43" transform="translate(-4.89 4.95) rotate(-4.01)"/><ellipse class="cls-8" cx="70.26" cy="72.44" rx="2.02" ry="9.43" transform="translate(-4.91 5.11) rotate(-4.02)"/><ellipse class="cls-8" cx="69.38" cy="72.95" rx="1.62" ry="10.42" transform="translate(-4.84 4.94) rotate(-3.94)"/><path class="cls-9" d="M54.57,77.35c1.63-.07.92-.94,1.75-1.41a1.92,1.92,0,0,1,2.35.42c.35.58.07,1.16.52,1.16S72,77,72.42,77.5a1.4,1.4,0,0,1,.06,1.82c-.46.38-16.05.55-16.59.16A6.83,6.83,0,0,1,54.57,77.35Z"/><path class="cls-10" d="M63.28,78.55c0,1.23,1.79.88,1.82,1.91S62,80.53,62,78.53c.13-2,3.06-3,3.1-1.84C65.14,77.64,63.31,77.32,63.28,78.55Z"/><path class="cls-10" d="M64.35,78.56c0,1.23,1.8.89,1.82,1.91s-3.05.07-3.08-1.92,3.06-3,3.1-1.84C66.21,77.65,64.38,77.33,64.35,78.56Z"/><path class="cls-10" d="M65.51,78.52c0,1.23,1.79.88,1.82,1.91s-3.06.07-3.09-1.93c.13-2,3.06-3,3.1-1.84C67.37,77.61,65.54,77.29,65.51,78.52Z"/><path class="cls-10" d="M66.58,78.53c0,1.24,1.8.89,1.82,1.92s-3.05.06-3.08-1.93c.12-2,3.06-3,3.1-1.84C68.44,77.62,66.61,77.3,66.58,78.53Z"/><ellipse class="cls-11" cx="71.71" cy="78.38" rx="1.06" ry="1.04" transform="translate(-19.81 132.32) rotate(-78.06)"/><ellipse class="cls-8" cx="65.46" cy="74.84" rx="0.93" ry="2.05" transform="translate(-6.82 6.57) rotate(-5.46)"/><ellipse class="cls-8" cx="63.89" cy="74.72" rx="0.93" ry="2.05" transform="translate(-6.82 6.42) rotate(-5.46)"/><ellipse class="cls-8" cx="62.77" cy="72.71" rx="0.93" ry="2.05" transform="translate(-6.63 6.3) rotate(-5.46)"/><ellipse class="cls-8" cx="64.36" cy="72.62" rx="0.9" ry="2.26" transform="translate(-6.69 6.53) rotate(-5.52)"/><ellipse class="cls-8" cx="66.56" cy="72.64" rx="0.9" ry="2.12" transform="translate(-6.65 6.71) rotate(-5.49)"/><ellipse class="cls-8" cx="65.35" cy="71.91" rx="0.9" ry="2.12" transform="translate(-6.59 6.59) rotate(-5.49)"/><ellipse class="cls-8" cx="63.83" cy="70.87" rx="0.9" ry="2.12" transform="matrix(1, -0.1, 0.1, 1, -6.49, 6.44)"/><ellipse class="cls-8" cx="62.42" cy="70.23" rx="0.9" ry="2.12" transform="translate(-6.44 6.3) rotate(-5.49)"/><path class="cls-12" d="M60.86,52.76s-3.13,2.71-2.78,10.06S65,73.68,65,73.68s1.66-2.1,1.47-8C66,57,62.92,53.14,62.92,53.14Z"/><ellipse class="cls-8" cx="67.9" cy="75.08" rx="2.05" ry="0.93" transform="translate(-12.6 136.45) rotate(-85.19)"/><ellipse class="cls-8" cx="66.38" cy="74.68" rx="2.05" ry="0.93" transform="translate(-13.6 134.56) rotate(-85.19)"/><ellipse class="cls-8" cx="65.63" cy="72.5" rx="2.05" ry="0.93" transform="translate(-12.12 131.82) rotate(-85.19)"/><ellipse class="cls-8" cx="67.21" cy="72.7" rx="2.26" ry="0.9" transform="translate(-10.8 133.66) rotate(-85.25)"/><ellipse class="cls-8" cx="69.37" cy="73.11" rx="2.12" ry="0.9" transform="translate(-9.26 136.15) rotate(-85.23)"/><ellipse class="cls-8" cx="68.31" cy="72.18" rx="2.12" ry="0.9" transform="translate(-9.3 134.24) rotate(-85.23)"/><ellipse class="cls-8" cx="67" cy="70.87" rx="2.12" ry="0.9" transform="translate(-9.21 131.74) rotate(-85.23)"/><ellipse class="cls-8" cx="65.72" cy="70" rx="2.12" ry="0.9" transform="translate(-9.5 129.67) rotate(-85.23)"/><ellipse class="cls-13" cx="67.49" cy="65.38" rx="2.64" ry="8.1" transform="translate(-20.45 32.27) rotate(-23.46)"/><ellipse class="cls-14" cx="65.46" cy="57.77" rx="1.02" ry="1.15" transform="translate(6.53 122.19) rotate(-88.98)"/><ellipse class="cls-15" cx="66.32" cy="56.33" rx="1.02" ry="1.03" transform="translate(8.82 121.64) rotate(-88.98)"/><ellipse class="cls-15" cx="64.93" cy="56.31" rx="1.02" ry="1.03" transform="translate(7.48 120.23) rotate(-88.98)"/><ellipse class="cls-16" cx="65.24" cy="55.26" rx="0.95" ry="1.08" transform="translate(8.83 119.5) rotate(-88.98)"/><ellipse class="cls-16" cx="65.12" cy="54.05" rx="0.95" ry="1.08" transform="matrix(0.02, -1, 1, 0.02, 9.92, 118.2)"/><ellipse class="cls-15" cx="63.6" cy="55.5" rx="1.02" ry="1.03" transform="translate(6.98 118.1) rotate(-88.98)"/><ellipse class="cls-17" cx="63.92" cy="54.2" rx="1" ry="1.03" transform="matrix(0.02, -1, 1, 0.02, 8.59, 117.14)"/><ellipse class="cls-14" cx="62.21" cy="54.23" rx="1.02" ry="1.15" transform="translate(6.89 115.46) rotate(-88.98)"/><ellipse class="cls-16" cx="64.33" cy="52.54" rx="0.95" ry="1.08" transform="translate(10.65 115.93) rotate(-88.98)"/><ellipse class="cls-17" cx="62.89" cy="52.73" rx="1" ry="1.03" transform="translate(9.05 114.66) rotate(-88.98)"/><ellipse class="cls-15" cx="60.7" cy="54.28" rx="1.02" ry="1.03" transform="translate(5.35 114.01) rotate(-88.98)"/><ellipse class="cls-17" cx="61.06" cy="53.53" rx="1" ry="1.03" transform="translate(6.46 113.62) rotate(-88.98)"/><ellipse class="cls-17" cx="61.5" cy="52.69" rx="1" ry="1.03" transform="translate(7.72 113.24) rotate(-88.98)"/><ellipse class="cls-18" cx="68.25" cy="64.12" rx="3.34" ry="9.65" transform="translate(-20.06 32.96) rotate(-23.78)"/><ellipse class="cls-8" cx="71.01" cy="65.67" rx="0.65" ry="2.02" transform="translate(-20.53 34.43) rotate(-23.92)"/><path class="cls-19" d="M70.71,65.66c2.73,3.33,2.39,5.44,2.1,7.23a20.69,20.69,0,0,0-4.06-6.69c-2.73-3.32-1.37-5.66-1.18-6.89A14.1,14.1,0,0,0,70.71,65.66Z"/><path class="cls-19" d="M71,68.35c2.73,3.33,2.39,5.44,2.1,7.23A21.07,21.07,0,0,0,69,68.89c-2.73-3.33-1.37-5.66-1.18-6.89A14.07,14.07,0,0,0,71,68.35Z"/><path class="cls-19" d="M71,70.52c2.8,3.27,2.5,5.39,2.25,7.18a21,21,0,0,0-4.2-6.6c-2.8-3.27-1.48-5.63-1.32-6.87A14.22,14.22,0,0,0,71,70.52Z"/><ellipse class="cls-20" cx="69.1" cy="62.53" rx="1.18" ry="3.6" transform="translate(-19.95 35.07) rotate(-25.01)"/><ellipse class="cls-21" cx="68.01" cy="64.38" rx="1.03" ry="2.96" transform="translate(-20.49 33.76) rotate(-24.35)"/><ellipse class="cls-21" cx="66.72" cy="65.63" rx="1.03" ry="2.96" transform="translate(-20.43 31.52) rotate(-23.16)"/><ellipse class="cls-22" cx="67.79" cy="61.08" rx="0.82" ry="2.26" transform="translate(-20.73 38.93) rotate(-27.97)"/><ellipse class="cls-22" cx="66.69" cy="61.93" rx="0.82" ry="2.25" transform="translate(-19.65 33.15) rotate(-24.45)"/><path class="cls-19" d="M65.84,60.64c.81,2,1.13,3.75.73,4s-1.39-1.22-2.2-3.19"/><ellipse class="cls-22" cx="66.56" cy="59.61" rx="0.82" ry="2.25" transform="translate(-18.7 32.89) rotate(-24.45)"/><ellipse class="cls-22" cx="65.21" cy="60.26" rx="0.83" ry="2.25" transform="translate(-18.45 30.53) rotate(-23.18)"/><path class="cls-19" d="M64.43,58c.79,1.34,1.21,2.58.94,2.79s-1.11-.72-1.9-2.06"/><path class="cls-19" d="M65,57.07c.78,1.33,1.2,2.58.94,2.78S64.8,59.13,64,57.8"/><path class="cls-19" d="M67.42,57.26c1.09,1.82,1.68,3.52,1.31,3.8s-1.56-1-2.65-2.81"/><path class="cls-19" d="M65.8,56.3c.79,1.48,1.22,2.85,1,3.07s-1.11-.79-1.9-2.27"/><path class="cls-23" d="M65.73,54.17c-.52.53,0,1.52.47,1.88s3.58,3.68,5.71,1C70.2,57,67,53,65.73,54.17Z"/><path class="cls-23" d="M65.36,52.59c-.53.53,0,1.52.47,1.88s3.57,3.69,5.71,1C69.83,55.43,66.63,51.41,65.36,52.59Z"/><path class="cls-23" d="M64.88,51.08c-.53.53,0,1.52.47,1.87s3.57,3.69,5.71,1C69.35,53.92,66.15,49.9,64.88,51.08Z"/><path class="cls-23" d="M63.84,49.35c-.53.53,0,1.52.47,1.87s3.57,3.69,5.71,1C68.31,52.19,65.11,48.17,63.84,49.35Z"/><path class="cls-24" d="M60.1,47.69a4.71,4.71,0,0,1,4.63-.25c1.29.63,3.44,3.21,5.06,3.82A3.74,3.74,0,0,1,67.23,51a6,6,0,0,1-3.41,1.4c-2,.29-3.73-.24-4.33-1.3A2.77,2.77,0,0,1,60.1,47.69Z"/><ellipse class="cls-25" cx="62.4" cy="49.3" rx="0.54" ry="0.93" transform="translate(12 110.81) rotate(-88.98)"/><ellipse class="cls-26" cx="59.55" cy="51.49" rx="1.3" ry="0.79" transform="translate(-14.23 24.04) rotate(-20.44)"/><ellipse cx="62.35" cy="49.26" rx="0.29" ry="0.34" transform="translate(11.99 110.73) rotate(-88.98)"/><path class="cls-27" d="M60.35,50a1.13,1.13,0,0,1-.9,1.18,2.76,2.76,0,0,0-1.49,2c-1-2.39-.38-3.4.72-3.64S60.2,49.26,60.35,50Z"/></g></svg>