<svg id="Layer_1" data-name="Layer 1" xmlns="http://www.w3.org/2000/svg" xmlns:xlink="http://www.w3.org/1999/xlink" viewBox="0 0 128 128"><defs><style>.cls-1{fill:none;}.cls-2{clip-path:url(#clip-path);}.cls-3{clip-path:url(#clip-path-2);}.cls-4{fill:#fff;}.cls-5{fill:#223f82;}.cls-6{fill:#bc1f33;}.cls-7{clip-path:url(#clip-path-5);}.cls-8{clip-path:url(#clip-path-6);}.cls-9{clip-path:url(#clip-path-7);}.cls-10{clip-path:url(#clip-path-8);}.cls-11{clip-path:url(#clip-path-9);}.cls-12{clip-path:url(#clip-path-10);}.cls-13{clip-path:url(#clip-path-11);}.cls-14{fill:#f4cc29;}.cls-15{fill:#272015;}.cls-16{fill:#989295;}.cls-17{fill:#357c63;}.cls-18{fill:#25411c;}.cls-19{fill:#26421d;}.cls-20{fill:#bf1f3e;}.cls-21{clip-path:url(#clip-path-12);}.cls-22{clip-path:url(#clip-path-13);}.cls-23{clip-path:url(#clip-path-14);}.cls-24{clip-path:url(#clip-path-15);}.cls-25{clip-path:url(#clip-path-16);}</style><clipPath id="clip-path"><circle class="cls-1" cx="64" cy="64" r="64"/></clipPath><clipPath id="clip-path-2"><rect id="_Clipping_Path_" data-name="&lt;Clipping Path&gt;" class="cls-1" x="-45.71" width="219.43" height="128"/></clipPath><clipPath id="clip-path-5"><rect id="_Clipping_Path_4" data-name="&lt;Clipping Path&gt;" class="cls-1" x="73.64" y="47.99" width="5.04" height="5.61"/></clipPath><clipPath id="clip-path-6"><rect id="_Clipping_Path_5" data-name="&lt;Clipping Path&gt;" class="cls-1" x="72.06" y="47.04" width="5.66" height="3.61"/></clipPath><clipPath id="clip-path-7"><rect id="_Clipping_Path_6" data-name="&lt;Clipping Path&gt;" class="cls-1" x="66.13" y="45.77" width="10" height="4.17"/></clipPath><clipPath id="clip-path-8"><rect id="_Clipping_Path_7" data-name="&lt;Clipping Path&gt;" class="cls-1" x="49.34" y="47.94" width="5.06" height="5.61"/></clipPath><clipPath id="clip-path-9"><rect id="_Clipping_Path_8" data-name="&lt;Clipping Path&gt;" class="cls-1" x="50.32" y="46.99" width="5.66" height="3.61"/></clipPath><clipPath id="clip-path-10"><rect id="_Clipping_Path_9" data-name="&lt;Clipping Path&gt;" class="cls-1" x="51.91" y="45.72" width="10" height="4.16"/></clipPath><clipPath id="clip-path-11"><rect id="_Clipping_Path_10" data-name="&lt;Clipping Path&gt;" class="cls-1" x="59.33" y="44.13" width="9.41" height="3.28"/></clipPath><clipPath id="clip-path-12"><rect id="_Clipping_Path_11" data-name="&lt;Clipping Path&gt;" class="cls-1" x="73.58" y="74.92" width="5.47" height="2.95"/></clipPath><clipPath id="clip-path-13"><rect id="_Clipping_Path_12" data-name="&lt;Clipping Path&gt;" class="cls-1" x="70.61" y="74.07" width="6.01" height="2.26"/></clipPath><clipPath id="clip-path-14"><rect id="_Clipping_Path_13" data-name="&lt;Clipping Path&gt;" class="cls-1" x="49.03" y="74.92" width="5.48" height="2.95"/></clipPath><clipPath id="clip-path-15"><rect id="_Clipping_Path_14" data-name="&lt;Clipping Path&gt;" class="cls-1" x="51.49" y="74.07" width="5.99" height="2.26"/></clipPath><clipPath id="clip-path-16"><rect id="_Clipping_Path_15" data-name="&lt;Clipping Path&gt;" class="cls-1" x="54.04" y="71.71" width="19.93" height="4.02"/></clipPath></defs><title>Flag_circle_Dominican Republic</title><g class="cls-2"><g id="DOMINICAN_REPUBLIC" data-name="DOMINICAN REPUBLIC"><g id="_Group_" data-name="&lt;Group&gt;"><g id="_Clip_Group_" data-name="&lt;Clip Group&gt;"><g class="cls-3"><g id="_Clip_Group_2" data-name="&lt;Clip Group&gt;"><g class="cls-3"><rect id="_Path_" data-name="&lt;Path&gt;" class="cls-4" x="-45.71" width="219.43" height="128"/><rect id="_Path_2" data-name="&lt;Path&gt;" class="cls-5" x="-45.71" width="94.05" height="49.17"/><rect id="_Path_3" data-name="&lt;Path&gt;" class="cls-6" x="-45.71" y="78.61" width="94.05" height="49.39"/><rect id="_Path_4" data-name="&lt;Path&gt;" class="cls-5" x="79.66" y="78.61" width="94.06" height="49.39"/><rect id="_Path_5" data-name="&lt;Path&gt;" class="cls-6" x="79.66" width="94.06" height="49.17"/><g id="_Clip_Group_3" data-name="&lt;Clip Group&gt;"><g class="cls-3"><g id="_Group_2" data-name="&lt;Group&gt;"><path id="_Path_6" data-name="&lt;Path&gt;" d="M79.07,54.46a1.55,1.55,0,0,0-.67-1.37c.14-.19.83.2.91,1.36Z"/></g><g id="_Group_3" data-name="&lt;Group&gt;"><path id="_Path_7" data-name="&lt;Path&gt;" d="M78.74,54.54a1.57,1.57,0,0,0-.67-1.37c.14-.18.83.19.88,1.36Z"/></g><g id="_Group_4" data-name="&lt;Group&gt;"><path id="_Path_8" data-name="&lt;Path&gt;" d="M78.38,54.57a1.63,1.63,0,0,0-.67-1.39c.13-.18.83.21.89,1.37l-.22,0Z"/></g><g id="_Group_5" data-name="&lt;Group&gt;"><path id="_Path_9" data-name="&lt;Path&gt;" d="M78.05,54.68a1.58,1.58,0,0,0-.69-1.37c.15-.18.84.2.9,1.36Z"/></g><g id="_Group_6" data-name="&lt;Group&gt;"><path id="_Path_10" data-name="&lt;Path&gt;" d="M77.68,54.84A1.61,1.61,0,0,0,77,53.47c.14-.2.83.19.9,1.37Z"/></g><g id="_Group_7" data-name="&lt;Group&gt;"><path id="_Path_11" data-name="&lt;Path&gt;" d="M77.34,55a1.63,1.63,0,0,0-.66-1.37c.14-.17.83.2.87,1.37Z"/></g><g id="_Group_8" data-name="&lt;Group&gt;"><g id="_Clip_Group_4" data-name="&lt;Clip Group&gt;"><g class="cls-7"><path id="_Path_12" data-name="&lt;Path&gt;" class="cls-5" d="M78.68,53c-1.22-3.35-1.74-3.82-2-4.07a16.75,16.75,0,0,0-2.47-1l-.61,1.4s1.9.93,2.3,1.8a12.12,12.12,0,0,1,.69,2.42s.85-.36,1.14-.46.91,0,.91-.12Z"/></g></g></g><g id="_Group_9" data-name="&lt;Group&gt;"><path id="_Compound_Path_" data-name="&lt;Compound Path&gt;" d="M76.56,53.76l0-.12a14,14,0,0,0-.69-2.42c-.38-.81-2.24-1.72-2.25-1.73L74.16,48a8.54,8.54,0,0,1,2.63.93c.29.32.81.89,2,4.11,0,.18-.13.18-.41.18a1.69,1.69,0,0,0-.56.06l-1.14.47-.12,0Zm-2.83-4.34A4.68,4.68,0,0,1,76,51.13a11.91,11.91,0,0,1,.69,2.32l1-.41a2.56,2.56,0,0,1,.64-.07c-1-3.07-1.48-3.65-1.73-3.9a10.92,10.92,0,0,0-2.41-1l-.51,1.33v0Z"/></g><g id="_Group_10" data-name="&lt;Group&gt;"><g id="_Clip_Group_5" data-name="&lt;Clip Group&gt;"><g class="cls-8"><path id="_Path_13" data-name="&lt;Path&gt;" class="cls-5" d="M77.71,50.65c-2-.82-2.6-.4-3.29-.58s-2.2-.57-2.36-.93S73.33,47,73.33,47l1,1c.63.67,2.2.07,2.74,1.25Z"/></g></g></g><g id="_Group_11" data-name="&lt;Group&gt;"><path id="_Compound_Path_2" data-name="&lt;Compound Path&gt;" d="M77.71,50.78l-.06,0a5.74,5.74,0,0,0-2.29-.51h-.25a2.3,2.3,0,0,1-.73-.06c-1.59-.4-2.32-.7-2.44-1s.85-1.7,1.3-2.25l1.21,1a1.71,1.71,0,0,0,1.07.36,2,2,0,0,1,1.72.95l.6,1.3c0,.06,0,.1,0,.15a.37.37,0,0,1-.11,0ZM75.36,50a5.36,5.36,0,0,1,2.07.41l-.44-1c-.31-.61-.88-.68-1.5-.78a1.91,1.91,0,0,1-1.24-.44l-1-1c-.43.78-1.12,1.76-1,2s.41.37,2.25.85a2.18,2.18,0,0,0,.43.05l.48,0Z"/></g><g id="_Group_12" data-name="&lt;Group&gt;"><path id="_Path_14" data-name="&lt;Path&gt;" d="M75.36,50.07a5.5,5.5,0,0,1-1.78-.65,6.74,6.74,0,0,0-.82-.35c-.47-.14-.64.09-.64.1-.18-.14.08-.49.69-.3a3.44,3.44,0,0,1,.86.36c.55.25,1.68.78,1.82.6l.19.13a.42.42,0,0,1-.32.11Z"/></g><g id="_Group_13" data-name="&lt;Group&gt;"><g id="_Clip_Group_6" data-name="&lt;Clip Group&gt;"><g class="cls-9"><path id="_Path_15" data-name="&lt;Path&gt;" class="cls-5" d="M66.68,45.85A23.29,23.29,0,0,1,72.1,46c2.54.43,4,1.35,4,1.92a2.94,2.94,0,0,1-.59,2c-.07,0,0-.51-.62-.68a38.78,38.78,0,0,0-4.28-1.14c-.79,0-3,.06-3.35,0s-1.16-.23-1.16-.61a7.1,7.1,0,0,1,.55-1.69Z"/></g></g></g><g id="_Group_14" data-name="&lt;Group&gt;"><path id="_Compound_Path_3" data-name="&lt;Compound Path&gt;" d="M75.49,50l-.1-.17a.62.62,0,0,0-.49-.49l-.62-.19a29.13,29.13,0,0,0-3.64-1h-.43l-1.52,0-1.14,0-.26,0c-.05,0-1.27-.13-1.27-.7a8.57,8.57,0,0,1,.53-1.74,15.26,15.26,0,0,1,2.28-.14,17.78,17.78,0,0,1,3.29.27c2.54.44,4.11,1.37,4.11,2a3.35,3.35,0,0,1-.55,2l-.19.05Zm-5.28-2h.43a29.23,29.23,0,0,1,3.72,1l.58.18a.83.83,0,0,1,.64.58A3.4,3.4,0,0,0,76,48c0-.49-1.41-1.39-4-1.83a18,18,0,0,0-3.24-.26c-1,0-1.69,0-2,.07a5,5,0,0,0-.59,1.59c0,.26.64.44,1.07.49h1.37l1.55,0Z"/></g><g id="_Group_15" data-name="&lt;Group&gt;"><path id="_Path_16" data-name="&lt;Path&gt;" d="M68,47.83a.23.23,0,0,1-.12,0,1.29,1.29,0,0,1-.59-.17,1,1,0,0,0-.57-.14c-.31,0-.36.23-.36.23-.23-.06-.14-.39.33-.45a1,1,0,0,1,.67.17,1.74,1.74,0,0,0,.52.15l.31.06,0-.21.17,0,.08.07-.12.27a.57.57,0,0,1-.29.08Z"/></g><g id="_Group_16" data-name="&lt;Group&gt;"><path id="_Path_17" data-name="&lt;Path&gt;" d="M49,54.41h-.24a1.77,1.77,0,0,1,.79-1.55c.09.21-.52.54-.55,1.56Z"/></g><g id="_Group_17" data-name="&lt;Group&gt;"><path id="_Path_18" data-name="&lt;Path&gt;" d="M49.3,54.48h-.24a1.74,1.74,0,0,1,.82-1.56c.06.21-.54.53-.58,1.56Z"/></g><g id="_Group_18" data-name="&lt;Group&gt;"><path id="_Path_19" data-name="&lt;Path&gt;" d="M49.66,54.51h-.22a1.84,1.84,0,0,1,.78-1.56c.08.22-.52.54-.56,1.57Z"/></g><g id="_Group_19" data-name="&lt;Group&gt;"><path id="_Path_20" data-name="&lt;Path&gt;" d="M50,54.63h-.22a1.85,1.85,0,0,1,.77-1.56c.08.2-.52.54-.55,1.56Z"/></g><g id="_Group_20" data-name="&lt;Group&gt;"><path id="_Path_21" data-name="&lt;Path&gt;" d="M50.36,54.79h-.23a1.88,1.88,0,0,1,.78-1.56c.09.21-.5.54-.55,1.57Z"/></g><g id="_Group_21" data-name="&lt;Group&gt;"><path id="_Path_22" data-name="&lt;Path&gt;" d="M50.69,55h-.23a1.86,1.86,0,0,1,.81-1.57c.06.2-.52.53-.58,1.57Z"/></g><g id="_Group_22" data-name="&lt;Group&gt;"><g id="_Clip_Group_7" data-name="&lt;Clip Group&gt;"><g class="cls-10"><path id="_Path_23" data-name="&lt;Path&gt;" class="cls-5" d="M49.34,53c1.24-3.36,1.76-3.83,2-4.08a14.19,14.19,0,0,1,2.45-1l.62,1.39s-1.89.94-2.3,1.8a13.31,13.31,0,0,0-.72,2.43l-1.13-.47c-.28-.1-.91,0-.91-.1Z"/></g></g></g><g id="_Group_23" data-name="&lt;Group&gt;"><path id="_Compound_Path_4" data-name="&lt;Compound Path&gt;" d="M51.49,53.71l-.13-.05-1.14-.48a3.42,3.42,0,0,0-.59,0c-.26,0-.4,0-.4-.15,1.21-3.26,1.73-3.83,2-4.11a12,12,0,0,1,2.51-1l.76,1.46c-.07.15-1.92,1.06-2.3,1.87a12.33,12.33,0,0,0-.68,2.4l0,.14ZM50,52.94a.94.94,0,0,1,.3.05c.22.09.75.32,1,.42A9.93,9.93,0,0,1,52,51.08c.41-.88,2.28-1.79,2.35-1.83L53.68,48a20.39,20.39,0,0,0-2.27,1c-.26.3-.78.87-2,4.05a2.28,2.28,0,0,1,.56-.09Z"/></g><g id="_Group_24" data-name="&lt;Group&gt;"><g id="_Clip_Group_8" data-name="&lt;Clip Group&gt;"><g class="cls-11"><path id="_Path_24" data-name="&lt;Path&gt;" class="cls-5" d="M50.32,50.59c2-.82,2.61-.39,3.31-.57s2.18-.57,2.35-.93-1.3-2.1-1.3-2.1l-1,1c-.64.69-2.19.07-2.74,1.26Z"/></g></g></g><g id="_Group_25" data-name="&lt;Group&gt;"><path id="_Compound_Path_5" data-name="&lt;Compound Path&gt;" d="M50.32,50.72a.14.14,0,0,1-.1,0,.21.21,0,0,1,0-.16l.59-1.3c.35-.76,1.08-.85,1.71-.94a1.68,1.68,0,0,0,1.08-.36l1-1c.66.57,1.67,1.87,1.52,2.26s-.84.6-2.45,1a2.24,2.24,0,0,1-.49,0h-.51a5.5,5.5,0,0,0-2.27.52Zm4.27-3.65-.78,1a2,2,0,0,1-1.26.44c-.62.09-1.19.16-1.5.77l-.45,1a5.31,5.31,0,0,1,2.06-.41h.27a1.89,1.89,0,0,0,.66,0c1.78-.45,2.21-.71,2.25-.86a6.27,6.27,0,0,0-1.25-2Z"/></g><g id="_Group_26" data-name="&lt;Group&gt;"><path id="_Path_25" data-name="&lt;Path&gt;" d="M52.66,50a.37.37,0,0,1-.31-.12l.2-.12c.14.19,1.26-.34,1.8-.6a6.14,6.14,0,0,1,.88-.37c.61-.18.88.16.88.18s-.3,0-.53,0a.94.94,0,0,0-.31.06,8.62,8.62,0,0,0-.82.35,5.38,5.38,0,0,1-1.79.65Z"/></g><g id="_Group_27" data-name="&lt;Group&gt;"><g id="_Clip_Group_9" data-name="&lt;Clip Group&gt;"><g class="cls-12"><path id="_Path_26" data-name="&lt;Path&gt;" class="cls-5" d="M61.37,45.8a23.2,23.2,0,0,0-5.44.18c-2.53.44-4,1.36-4,1.92a2.74,2.74,0,0,0,.6,2c.06,0,0-.51.61-.68a35.32,35.32,0,0,1,4.29-1.14c.75,0,3,.07,3.33,0s1.17-.22,1.17-.61a7.72,7.72,0,0,0-.54-1.68Z"/></g></g></g><g id="_Group_28" data-name="&lt;Group&gt;"><path id="_Compound_Path_6" data-name="&lt;Compound Path&gt;" d="M52.51,50l-.16-.06a3.66,3.66,0,0,1-.56-2c0-.65,1.59-1.59,4.13-2a17.7,17.7,0,0,1,3.27-.27c.94,0,1.72,0,2,.07a3.49,3.49,0,0,1,.81,1.8c0,.58-1.21.72-1.26.72H59.38c-.55,0-1.13-.05-1.55-.05l-.42,0a31.09,31.09,0,0,0-3.73,1l-.53.16a.65.65,0,0,0-.51.51l-.13.18Zm6.68-4.15a17.3,17.3,0,0,0-3.23.25c-2.53.45-3.94,1.35-3.94,1.82a3.33,3.33,0,0,0,.44,1.77.8.8,0,0,1,.64-.59l.53-.16a28.1,28.1,0,0,1,3.76-1h.44l1.55,0,1.11,0c.69-.05,1.3-.25,1.3-.51a7.65,7.65,0,0,0-.52-1.63c-.36,0-1.14,0-2.08,0Z"/></g><g id="_Group_29" data-name="&lt;Group&gt;"><path id="_Path_27" data-name="&lt;Path&gt;" d="M60.07,47.78c-.39,0-.41-.24-.44-.35l.22-.13,0,.09c0,.12,0,.2.25.16a1,1,0,0,0,.52-.16,1.18,1.18,0,0,1,.67-.15c.5.06.56.39.56.4-.18.06-.25-.16-.56-.19a1,1,0,0,0-.55.14,2.31,2.31,0,0,1-.61.19Z"/></g><g id="_Group_30" data-name="&lt;Group&gt;"><g id="_Clip_Group_10" data-name="&lt;Clip Group&gt;"><g class="cls-13"><path id="_Path_28" data-name="&lt;Path&gt;" class="cls-5" d="M63.92,44.13c-3.48,0-4.43.54-4.57,1.14a6.41,6.41,0,0,0,.41,2.14s.59-1.1,4.21-1.07,4.35,1,4.35,1a10.34,10.34,0,0,0,.42-2.11c0-.54-1.5-1.12-4.82-1.1Z"/></g></g></g><g id="_Group_31" data-name="&lt;Group&gt;"><path id="_Compound_Path_7" data-name="&lt;Compound Path&gt;" d="M59.74,47.67l-.08-.22a6.08,6.08,0,0,1-.41-2.2c.15-.56.82-1.18,4.67-1.23,3,0,4.86.47,4.93,1.2a12.86,12.86,0,0,1-.42,2.15h0c-.22,0-1-.88-4.44-.92h0c-3.51,0-4.09,1-4.12,1l-.11.19Zm4-1.44c3.41,0,4.38.8,4.57,1,0-.27.31-1.54.3-2s-1.3-1-4.62-1c-2.93,0-4.4.39-4.59,1.08a4.92,4.92,0,0,0,.36,1.87c.31-.3,1.3-1,4-1Z"/></g><polygon id="_Path_29" data-name="&lt;Path&gt;" class="cls-14" points="68.76 47.59 68.9 46.14 69.04 46.16 68.93 47.43 69.44 47.48 69.44 47.64 68.76 47.59"/><polygon id="_Path_30" data-name="&lt;Path&gt;" class="cls-14" points="69.64 47.66 69.76 46.21 69.92 46.23 69.77 47.67 69.64 47.66"/><polygon id="_Path_31" data-name="&lt;Path&gt;" class="cls-14" points="70.96 47.76 71.2 46.31 71.98 46.44 71.95 46.61 71.32 46.51 71.25 46.96 71.84 47.04 71.81 47.21 71.23 47.12 71.15 47.6 71.79 47.72 71.76 47.87 70.96 47.76"/><polygon id="_Path_32" data-name="&lt;Path&gt;" class="cls-14" points="73.22 48.29 73.67 47.08 73.33 46.97 73.39 46.81 74.19 47.08 74.14 47.24 73.78 47.13 73.36 48.33 73.22 48.29"/><path id="_Compound_Path_8" data-name="&lt;Compound Path&gt;" class="cls-14" d="M70.16,47.54l.28,0h.1a.23.23,0,0,0,.1,0s0-.05,0-.07a.22.22,0,0,0,0-.12.21.21,0,0,0,0-.14c0-.05,0-.08-.06-.11l-.18,0-.23,0Zm.07-.67.23,0c.08,0,.13,0,.15,0a.11.11,0,0,0,.09-.06.16.16,0,0,0,0-.12.17.17,0,0,0-.08-.21s-.06,0-.16,0l-.21,0ZM70,47.7l.15-1.46.4,0a.37.37,0,0,1,.19.08.26.26,0,0,1,.12.13v.2a.22.22,0,0,1-.05.17.37.37,0,0,1-.12.13c.07,0,.09.07.14.14a.47.47,0,0,1,0,.21.65.65,0,0,1-.05.2c0,.05,0,.1-.09.12a.29.29,0,0,1-.12.07.6.6,0,0,1-.19,0Z"/><path id="_Compound_Path_9" data-name="&lt;Compound Path&gt;" class="cls-14" d="M72.34,47.18l.3.07a.26.26,0,0,0,.15,0,.2.2,0,0,0,.12-.06.17.17,0,0,0,0-.12.19.19,0,0,0,0-.18s-.06-.09-.14-.1l-.33-.09Zm-.36.73.41-1.39.45.13a.46.46,0,0,1,.21.1,1.44,1.44,0,0,1,.07.16.56.56,0,0,1,0,.22.33.33,0,0,1-.14.23.29.29,0,0,1-.25.07.16.16,0,0,0,.06.09.51.51,0,0,1,0,.22l.08.43-.17-.05,0-.32c0-.1,0-.17,0-.23s0-.09,0-.09,0,0,0-.07l-.08,0-.16,0-.17.62Z"/><path id="_Compound_Path_10" data-name="&lt;Compound Path&gt;" class="cls-14" d="M74.9,48.79l.21.08.17,0a.21.21,0,0,0,.11,0,1,1,0,0,0,.15-.14c0-.08.07-.17.12-.26a1.34,1.34,0,0,0,.06-.35c0-.09,0-.16-.06-.2a.87.87,0,0,0-.17-.09l-.21-.07Zm-.21.1.5-1.36.35.13a.34.34,0,0,1,.18.08.5.5,0,0,1,.13.15.45.45,0,0,1,0,.26.93.93,0,0,1-.08.35l-.14.27a1.27,1.27,0,0,1-.14.17.61.61,0,0,1-.13.09.44.44,0,0,1-.15,0l-.18,0Z"/><path id="_Compound_Path_11" data-name="&lt;Compound Path&gt;" class="cls-14" d="M74.14,48l.33.13,0-.41a1,1,0,0,1,0-.32,2.13,2.13,0,0,1-.16.25Zm-.5.48.88-1.25.17.06-.1,1.51-.14,0,0-.47-.42-.13-.27.36Z"/><polygon id="_Path_33" data-name="&lt;Path&gt;" class="cls-14" points="63.57 46.05 63.57 44.77 63.17 44.77 63.17 44.6 64.11 44.6 64.11 44.77 63.72 44.77 63.72 46.05 63.57 46.05"/><polygon id="_Path_34" data-name="&lt;Path&gt;" class="cls-14" points="65.56 46.05 65.63 44.6 65.78 44.61 65.72 46.05 65.56 46.05"/><path id="_Compound_Path_12" data-name="&lt;Compound Path&gt;" class="cls-14" d="M61.13,45.49l.3-.06a.35.35,0,0,0,.22-.1.42.42,0,0,0,0-.2A.79.79,0,0,0,61.6,45c-.05,0-.06,0-.09,0a1,1,0,0,0-.17,0L61,45Zm0,.77-.28-1.42.44-.08.19,0a.3.3,0,0,1,.15,0,.18.18,0,0,1,.11.13.37.37,0,0,1,.1.17.74.74,0,0,1-.05.34.41.41,0,0,1-.31.19l-.3,0,.11.58Z"/><path id="_Compound_Path_13" data-name="&lt;Compound Path&gt;" class="cls-14" d="M62.31,45.43l.43,0-.17-.4c0-.11-.09-.22-.12-.29a.93.93,0,0,1-.05.29Zm-.28.62.34-1.47h.17l.6,1.41H63l-.19-.43-.5,0-.1.45Z"/><path id="_Compound_Path_14" data-name="&lt;Compound Path&gt;" class="cls-14" d="M64.42,45.25h.36a.65.65,0,0,0,.17,0,.12.12,0,0,0,.08-.09.22.22,0,0,0,0-.13c0-.07,0-.14,0-.16a.21.21,0,0,0-.19-.08h-.41Zm-.14.8V44.6h.52a.78.78,0,0,1,.26,0,.23.23,0,0,1,.11.14.3.3,0,0,1,.06.22.5.5,0,0,1-.08.26.31.31,0,0,1-.26.12c.06,0,.11.06.11.09l.14.19.19.39h-.19l-.14-.3c0-.09-.11-.16-.13-.2l-.09-.1-.08,0h-.28v.63Z"/><path id="_Compound_Path_15" data-name="&lt;Compound Path&gt;" class="cls-14" d="M66.48,45.57l.41.07-.06-.42a2,2,0,0,1,0-.31,1.92,1.92,0,0,1-.12.25Zm-.45.52.72-1.35.16,0,.23,1.51-.18,0,0-.46-.5-.08-.21.4Z"/><polygon id="_Path_35" data-name="&lt;Path&gt;" class="cls-14" points="55.32 48.08 55.11 46.64 55.25 46.61 55.47 48.06 55.32 48.08"/><path id="_Path_36" data-name="&lt;Path&gt;" class="cls-14" d="M57,47.28l.14,0a.23.23,0,0,0,.08.18s0,.07.11.09a.33.33,0,0,0,.2,0,.3.3,0,0,0,.16,0,.13.13,0,0,0,.09-.09.21.21,0,0,0,0-.13.56.56,0,0,0,0-.12.4.4,0,0,0-.13-.07l-.2-.05a1,1,0,0,1-.25-.07.35.35,0,0,1-.14-.13c0-.05,0-.1-.07-.17s0-.14,0-.21a.52.52,0,0,1,.14-.15.49.49,0,0,1,.22-.08,1,1,0,0,1,.26,0c.07,0,.15.08.16.15a.46.46,0,0,1,.1.21l-.16,0a.42.42,0,0,0-.1-.2.27.27,0,0,0-.23,0c-.11,0-.17,0-.2.08s0,.09,0,.16a.16.16,0,0,0,0,.11.54.54,0,0,0,.25.08l.28.07a.26.26,0,0,1,.16.15.32.32,0,0,1,.07.19.37.37,0,0,1,0,.23.25.25,0,0,1-.14.17.52.52,0,0,1-.23.08.64.64,0,0,1-.29,0,.63.63,0,0,1-.18-.15.4.4,0,0,1-.08-.26Z"/><path id="_Compound_Path_16" data-name="&lt;Compound Path&gt;" class="cls-14" d="M55.6,47.22a.82.82,0,0,1,.07-.58.59.59,0,0,1,.39-.27.48.48,0,0,1,.3.05.49.49,0,0,1,.26.25,1.32,1.32,0,0,1,.13.37.77.77,0,0,1,0,.4.49.49,0,0,1-.16.29.47.47,0,0,1-.27.12A.53.53,0,0,1,56,47.8a.67.67,0,0,1-.23-.24.71.71,0,0,1-.13-.34Zm.18,0a.63.63,0,0,0,.15.39.4.4,0,0,0,.32.11.41.41,0,0,0,.28-.2,1,1,0,0,0,0-.44.81.81,0,0,0-.1-.3.3.3,0,0,0-.17-.18.29.29,0,0,0-.2,0,.33.33,0,0,0-.3.18.79.79,0,0,0,0,.48Z"/><path id="_Compound_Path_17" data-name="&lt;Compound Path&gt;" class="cls-14" d="M54.26,48.22l.23-.07a.77.77,0,0,0,.19-.07s.08-.08.08-.11a.3.3,0,0,0,0-.21.64.64,0,0,0-.05-.28.7.7,0,0,0-.17-.3.42.42,0,0,0-.19-.12l-.22,0-.23.07Zm-.11.23-.44-1.39.41-.13.2,0a.33.33,0,0,1,.19,0,.48.48,0,0,1,.22.2,1.2,1.2,0,0,1,.17.32,2.3,2.3,0,0,0,.06.28.58.58,0,0,1,0,.23.38.38,0,0,1-.06.16s-.06.08-.11.1a.4.4,0,0,1-.2.08Z"/><path id="_Path_37" data-name="&lt;Path&gt;" class="cls-4" d="M53.92,50.92l1.88,1.79V67.08a2.63,2.63,0,0,0,2.44,2.39h3A3.41,3.41,0,0,1,64.06,71a3.4,3.4,0,0,1,2.77-1.5l3.33,0a2.63,2.63,0,0,0,2.2-2.44V52.71l1.86-1.79Z"/><g id="_Group_32" data-name="&lt;Group&gt;"><path id="_Compound_Path_18" data-name="&lt;Compound Path&gt;" d="M64.06,71.17,64,71a3.31,3.31,0,0,0-2.68-1.45h-3a2.78,2.78,0,0,1-2.57-2.51V52.71L53.85,51l20.37-.2-1.79,2,0,14.3a2.56,2.56,0,0,1-.75,1.74,2.17,2.17,0,0,1-1.54.81h0l-3.35,0h0A3.24,3.24,0,0,0,64.17,71l-.11.13ZM74.14,50.83,53.92,51l1.92,1.6,0,14.46a2.55,2.55,0,0,0,2.35,2.28h3a3.48,3.48,0,0,1,2.77,1.41,3.46,3.46,0,0,1,2.71-1.41l3.39,0h0a2,2,0,0,0,1.4-.75,2.38,2.38,0,0,0,.69-1.58V52.71l1.89-1.88Z"/></g><polygon id="_Path_38" data-name="&lt;Path&gt;" class="cls-6" points="65.61 50.92 65.61 59.29 72.36 59.29 72.36 52.71 74.22 50.92 65.61 50.92"/><g id="_Group_33" data-name="&lt;Group&gt;"><path id="_Compound_Path_19" data-name="&lt;Compound Path&gt;" d="M72.4,59.36H65.61l-.08-8.44,8.69-.08L72.4,52.76v6.6Zm1.76-8.51L65.61,51l.08,8.31,6.6-.07V52.71l1.87-1.86Z"/></g><polygon id="_Path_39" data-name="&lt;Path&gt;" class="cls-5" points="53.92 50.92 62.52 50.92 62.52 59.29 55.8 59.29 55.8 52.71 53.92 50.92"/><g id="_Group_34" data-name="&lt;Group&gt;"><path id="_Compound_Path_20" data-name="&lt;Compound Path&gt;" d="M62.6,59.36H55.8l-.1-6.65L53.87,51l8.65-.11.08,8.52Zm-.15-8.44L53.92,51l1.89,1.68,0,6.63,6.61-.07v-8.3Z"/></g><path id="_Path_40" data-name="&lt;Path&gt;" class="cls-6" d="M55.8,62.29h6.72v7.48l-.61-.3H58.24a2.59,2.59,0,0,1-2.44-2.39Z"/><g id="_Group_35" data-name="&lt;Group&gt;"><path id="_Compound_Path_21" data-name="&lt;Compound Path&gt;" d="M62.6,69.88l-.72-.34H58.24a2.67,2.67,0,0,1-2.54-2.47V62.29l6.82-.08.08,7.67Zm-.15-7.59-6.65.07,0,4.72a2.56,2.56,0,0,0,2.4,2.33h3.67l.54.25V62.29Z"/></g><path id="_Path_41" data-name="&lt;Path&gt;" class="cls-5" d="M72.36,62.29H65.61v7.48l.59-.3h3.7a2.61,2.61,0,0,0,2.46-2.39Z"/><g id="_Group_36" data-name="&lt;Group&gt;"><path id="_Compound_Path_22" data-name="&lt;Compound Path&gt;" d="M65.53,69.88V62.29l6.83-.08,0,4.87a2.64,2.64,0,0,1-2.5,2.47H66.2l-.67.33Zm6.76-7.59-6.68.07.08,7.3.48-.25H69.9a2.56,2.56,0,0,0,2.39-2.33V62.29Z"/></g><g id="_Group_37" data-name="&lt;Group&gt;"><path id="_Compound_Path_23" data-name="&lt;Compound Path&gt;" d="M64.06,71.17,64,71a3.31,3.31,0,0,0-2.68-1.45h-3a2.78,2.78,0,0,1-2.57-2.51V52.71L53.85,51l20.37-.2-1.79,2,0,14.3a2.56,2.56,0,0,1-.75,1.74,2.17,2.17,0,0,1-1.54.81h0l-3.35,0h0A3.24,3.24,0,0,0,64.17,71l-.11.13ZM74.14,50.83,53.92,51l1.92,1.6,0,14.46a2.55,2.55,0,0,0,2.35,2.28h3a3.48,3.48,0,0,1,2.77,1.41,3.46,3.46,0,0,1,2.71-1.41l3.39,0h0a2,2,0,0,0,1.4-.75,2.38,2.38,0,0,0,.69-1.58V52.71l1.89-1.88Z"/></g><polygon id="_Path_42" data-name="&lt;Path&gt;" class="cls-14" points="63.76 55.7 63.76 58.1 64.37 58.1 64.37 55.7 65 55.7 65 55.11 64.37 55.11 64.37 54.5 63.76 54.5 63.76 55.11 63.14 55.11 63.14 55.7 63.76 55.7"/><g id="_Group_38" data-name="&lt;Group&gt;"><path id="_Compound_Path_24" data-name="&lt;Compound Path&gt;" d="M64.47,58.2h-.71l-.12-2.5-.5.11-.11-.7.73-.11-.12-.5.73-.11.1.72L65,55l.11.7-.74.11.1,2.39Zm-.71-2.61.11,2.51.39-.08V55.7l.74-.11-.13-.48-.5.1-.11-.71-.5.11.11.5-.73.1.12.49.5-.11Z"/></g><g id="_Group_39" data-name="&lt;Group&gt;"><polygon id="_Path_43" data-name="&lt;Path&gt;" class="cls-15" points="64.28 58.8 59.4 52.34 59.71 52.09 64.59 58.55 64.28 58.8 64.28 58.8"/></g><polygon id="_Path_44" data-name="&lt;Path&gt;" class="cls-14" points="59.35 52.35 58.83 51.25 59.83 52.07 59.35 52.35"/><path id="_Path_45" data-name="&lt;Path&gt;" class="cls-6" d="M62.1,57c0,.08-.62,2.47-.62,2.47a11.62,11.62,0,0,0,1.91.18A12.85,12.85,0,0,0,63,57.92a8.5,8.5,0,0,1-.9-.9Z"/><path id="_Path_46" data-name="&lt;Path&gt;" class="cls-4" d="M60.49,55.38l-.33,3.26s2.21,1.93,2.15,1.68-.16-3.3-.16-3.3Z"/><path id="_Path_47" data-name="&lt;Path&gt;" class="cls-5" d="M58.66,53.42,58.55,57a17.32,17.32,0,0,0,1.94,1.44c0-.15.19-2.9.19-2.9Z"/><g id="_Group_40" data-name="&lt;Group&gt;"><polygon id="_Path_48" data-name="&lt;Path&gt;" points="58.64 56.42 58.52 53.38 58.74 53.39 58.64 56.42 58.64 56.42"/></g><g id="_Group_41" data-name="&lt;Group&gt;"><polygon id="_Path_49" data-name="&lt;Path&gt;" class="cls-15" points="64.03 59.01 58.25 53.27 58.55 52.98 64.31 58.73 64.03 59.01 64.03 59.01"/></g><polygon id="_Path_50" data-name="&lt;Path&gt;" class="cls-14" points="58.24 53.27 57.55 52.26 58.66 52.94 58.24 53.27"/><path id="_Path_51" data-name="&lt;Path&gt;" class="cls-4" d="M57.62,54.5v9a3.17,3.17,0,0,0,3.09,3,21.46,21.46,0,0,0,3-.6V59.29Z"/><g id="_Group_42" data-name="&lt;Group&gt;"><path id="_Compound_Path_25" data-name="&lt;Compound Path&gt;" d="M60.55,66.59a3.31,3.31,0,0,1-3-3.09v-9l6.33,4.7,0,6.68a12.09,12.09,0,0,1-3.16.71Zm-3-12,.19,8.92a3,3,0,0,0,2.81,2.87v.11l.13-.11a21,21,0,0,0,3-.6l-.09-6.48-6.09-4.71Z"/></g><path id="_Path_52" data-name="&lt;Path&gt;" class="cls-6" d="M57.62,61.69V63.5a3.17,3.17,0,0,0,3.09,3,21.46,21.46,0,0,0,3-.6c-1.24-.6-4.32,1.2-4.32-3.59a2.25,2.25,0,0,1-1.82-.6Z"/><path id="_Path_53" data-name="&lt;Path&gt;" class="cls-5" d="M59.54,55.9l-.1,5.19a6.94,6.94,0,0,1-1.82-.6v-6Z"/><path id="_Path_54" data-name="&lt;Path&gt;" class="cls-6" d="M61.22,57.39v4a2.36,2.36,0,0,1,1.17.21l1.39.57V59.28Z"/><path id="_Path_55" data-name="&lt;Path&gt;" class="cls-5" d="M63.62,63.5a10.55,10.55,0,0,0-1.71-.71,2.9,2.9,0,0,0-.78,0,9.08,9.08,0,0,0,0,1c0,.36.6.53.78.53s1.74-.17,1.74-.17Z"/><g id="_Group_43" data-name="&lt;Group&gt;"><path id="_Compound_Path_26" data-name="&lt;Compound Path&gt;" d="M60.55,66.59a3.31,3.31,0,0,1-3-3.09v-9l6.33,4.7,0,6.68a12.09,12.09,0,0,1-3.16.71Zm-3-12,.19,8.92a3,3,0,0,0,2.81,2.87v.11l.13-.11a21,21,0,0,0,3-.6l-.09-6.48-6.09-4.71Z"/></g><g id="_Group_44" data-name="&lt;Group&gt;"><polygon id="_Path_56" data-name="&lt;Path&gt;" class="cls-15" points="63.72 59.44 57.31 54.36 57.58 54.04 63.95 59.12 63.72 59.44 63.72 59.44"/></g><polygon id="_Path_57" data-name="&lt;Path&gt;" class="cls-14" points="57.26 54.37 56.51 53.44 57.67 53.99 57.26 54.37"/><g id="_Group_45" data-name="&lt;Group&gt;"><polygon id="_Path_58" data-name="&lt;Path&gt;" class="cls-15" points="63.95 58.69 63.62 58.45 68.52 51.99 68.83 52.24 63.95 58.69 63.95 58.69"/></g><polygon id="_Path_59" data-name="&lt;Path&gt;" class="cls-14" points="68.88 52.24 69.4 51.13 68.41 51.96 68.88 52.24"/><path id="_Path_60" data-name="&lt;Path&gt;" class="cls-6" d="M66.13,56.92l.62,2.46a14.39,14.39,0,0,1-1.92.2c0-.12.28-1.66.37-1.77a6.57,6.57,0,0,0,.93-.89Z"/><path id="_Path_61" data-name="&lt;Path&gt;" class="cls-4" d="M67.74,55.27l.33,3.26s-2.23,1.93-2.18,1.68.19-3.29.19-3.29Z"/><path id="_Path_62" data-name="&lt;Path&gt;" class="cls-5" d="M69.57,53.31l.11,3.57a15.93,15.93,0,0,1-1.94,1.42c0-.12-.19-2.89-.19-2.89Z"/><g id="_Group_46" data-name="&lt;Group&gt;"><polygon id="_Path_63" data-name="&lt;Path&gt;" points="69.82 56.31 69.49 53.27 69.73 53.27 69.82 56.31 69.82 56.31"/></g><g id="_Group_47" data-name="&lt;Group&gt;"><polygon id="_Path_64" data-name="&lt;Path&gt;" class="cls-15" points="64.2 58.92 63.9 58.62 69.66 52.87 69.98 53.16 64.2 58.92 64.2 58.92"/></g><polygon id="_Path_65" data-name="&lt;Path&gt;" class="cls-14" points="69.99 53.18 70.68 52.16 69.57 52.83 69.99 53.18"/><path id="_Path_66" data-name="&lt;Path&gt;" class="cls-4" d="M70.61,54.4v9a3.17,3.17,0,0,1-3.09,3,20,20,0,0,1-3-.6V59.18Z"/><g id="_Group_48" data-name="&lt;Group&gt;"><path id="_Compound_Path_27" data-name="&lt;Compound Path&gt;" d="M67.66,66.48h-.14a22.24,22.24,0,0,1-3.1-.6l0-6.7,6.17-4.87.19,9.07a3.3,3.3,0,0,1-3.07,3.1Zm-3-.72c.22,0,1.83.42,2.94.5l.11.12v-.11a3.07,3.07,0,0,0,2.83-2.89v-9l-6,4.88,0,6.48Z"/></g><path id="_Path_67" data-name="&lt;Path&gt;" class="cls-6" d="M70.61,61.59v1.79a3.17,3.17,0,0,1-3.09,3,20,20,0,0,1-3-.6c1.23-.59,4.29,1.21,4.29-3.59a2.33,2.33,0,0,0,1.85-.59Z"/><path id="_Path_68" data-name="&lt;Path&gt;" class="cls-5" d="M68.71,55.8,68.76,61a6.46,6.46,0,0,0,1.85-.6v-6Z"/><path id="_Path_69" data-name="&lt;Path&gt;" class="cls-6" d="M67,57.28v4a2.53,2.53,0,0,0-1.17.23c-.73.28-1.42.57-1.42.57V59.18Z"/><path id="_Path_70" data-name="&lt;Path&gt;" class="cls-5" d="M64.61,63.39a13.28,13.28,0,0,1,1.69-.72,3.4,3.4,0,0,1,.78,0,5.92,5.92,0,0,1,0,1c0,.35-.57.54-.75.54S64.61,64,64.61,64Z"/><g id="_Group_49" data-name="&lt;Group&gt;"><path id="_Compound_Path_28" data-name="&lt;Compound Path&gt;" d="M67.66,66.48h-.14a22.24,22.24,0,0,1-3.1-.6l0-6.7,6.17-4.87.19,9.07a3.3,3.3,0,0,1-3.07,3.1Zm-3-.72c.22,0,1.83.42,2.94.5l.11.12v-.11a3.07,3.07,0,0,0,2.83-2.89v-9l-6,4.88,0,6.48Z"/></g><g id="_Group_50" data-name="&lt;Group&gt;"><polygon id="_Path_71" data-name="&lt;Path&gt;" class="cls-15" points="64.51 59.34 64.28 59.01 70.65 53.93 70.89 54.26 64.51 59.34 64.51 59.34"/></g><polygon id="_Path_72" data-name="&lt;Path&gt;" class="cls-14" points="70.95 54.26 71.72 53.33 70.56 53.89 70.95 54.26"/><path id="_Path_73" data-name="&lt;Path&gt;" class="cls-6" d="M65.14,65.54c.14.16.66.84.8.67a8.4,8.4,0,0,0-.5-2,9,9,0,0,1-.57-2.35c0-1-.64.11-.64.11Z"/><g id="_Group_51" data-name="&lt;Group&gt;"><path id="_Compound_Path_29" data-name="&lt;Compound Path&gt;" d="M65.86,66.36c-.16,0-.42-.27-.75-.68l-1-3.71c.09-.24.33-.66.56-.66s.27.4.3.52a4.87,4.87,0,0,0,.35,1.73q.11.31.18.6a4.47,4.47,0,0,1,.22.7c.28.9.38,1.29.27,1.43l-.16.07ZM64.7,61.52a1.48,1.48,0,0,0-.37.47l.92,3.53a3.39,3.39,0,0,0,.59.61,4.29,4.29,0,0,0-.31-1.2c-.06-.27-.14-.53-.2-.71a3.27,3.27,0,0,0-.19-.58,6.32,6.32,0,0,1-.39-1.8c0-.27,0-.31,0-.32Z"/></g><path id="_Path_74" data-name="&lt;Path&gt;" class="cls-6" d="M64.61,67.49l1.19.06s-.38-1.55-.5-2.45a33.64,33.64,0,0,0-1.1-3.64Z"/><g id="_Group_52" data-name="&lt;Group&gt;"><path id="_Compound_Path_30" data-name="&lt;Compound Path&gt;" d="M65.94,67.66l-1.33-.06-.52-6.13a11.29,11.29,0,0,1,1.33,3.61c.11.9.47,2.43.47,2.43l0,.15ZM64.11,61.5l.62,6,.93,0a20.82,20.82,0,0,1-.46-2.35,31.84,31.84,0,0,0-1.09-3.6Z"/></g><path id="_Path_75" data-name="&lt;Path&gt;" class="cls-4" d="M63.76,61.19c0,.06-1.66,2.62-1.66,4a4.41,4.41,0,0,0,1,2.58c.26.42.92,1.78.92,1.78A10.68,10.68,0,0,0,65,67.42c.08-.59-.31-3.08-.2-4a26.59,26.59,0,0,1,.86-3.23Z"/><g id="_Group_53" data-name="&lt;Group&gt;"><path id="_Compound_Path_31" data-name="&lt;Compound Path&gt;" d="M64.06,69.74,64,69.55s-.66-1.36-.92-1.79l-.17-.22a3.9,3.9,0,0,1-.9-2.4,9.82,9.82,0,0,1,1.66-3.93l1.89-1.15c.17.15-.56,2.41-.66,3.34a13.73,13.73,0,0,0,.1,2.37,10.39,10.39,0,0,1,.09,1.66,11.46,11.46,0,0,1-.89,2.12l-.11.19Zm1.42-9.62-1.67,1.17a9.89,9.89,0,0,0-1.6,3.85,3.9,3.9,0,0,0,.84,2.27l.18.24c.22.33.64,1.2.83,1.59a6.67,6.67,0,0,0,.77-1.84,8.5,8.5,0,0,0-.08-1.61,15.52,15.52,0,0,1-.11-2.42,29.93,29.93,0,0,1,.84-3.25Z"/></g><path id="_Path_76" data-name="&lt;Path&gt;" class="cls-5" d="M63.76,61.19c0,.06-1.66,2.62-1.66,4a4.41,4.41,0,0,0,1,2.58A23.06,23.06,0,0,1,63.05,65a6.85,6.85,0,0,1,2-4.51Z"/><path id="_Path_77" data-name="&lt;Path&gt;" class="cls-6" d="M64.42,60.44a21.59,21.59,0,0,0-.66,3.27c0,.67.29,2.21.35,3.49a14.85,14.85,0,0,1,0,2.3A10.68,10.68,0,0,0,65,67.42c.08-.59-.31-3.08-.2-4a26.59,26.59,0,0,1,.86-3.23Z"/><g id="_Group_54" data-name="&lt;Group&gt;"><path id="_Compound_Path_32" data-name="&lt;Compound Path&gt;" d="M64.06,69.74,64,69.55s-.66-1.36-.92-1.79l-.17-.22a3.9,3.9,0,0,1-.9-2.4,9.82,9.82,0,0,1,1.66-3.93l1.89-1.15c.17.15-.56,2.41-.66,3.34a13.73,13.73,0,0,0,.1,2.37,10.39,10.39,0,0,1,.09,1.66,11.46,11.46,0,0,1-.89,2.12l-.11.19Zm1.42-9.62-1.67,1.17a9.89,9.89,0,0,0-1.6,3.85,3.9,3.9,0,0,0,.84,2.27l.18.24c.22.33.64,1.2.83,1.59a6.67,6.67,0,0,0,.77-1.84,8.5,8.5,0,0,0-.08-1.61,15.52,15.52,0,0,1-.11-2.42,29.93,29.93,0,0,1,.84-3.25Z"/></g><path id="_Path_78" data-name="&lt;Path&gt;" class="cls-6" d="M63.51,60.6c-.37.33-.11,1.08-.11,1.08a1,1,0,0,1,.8-.29c.53,0,.86.79.86.79a1,1,0,0,0,.38-.73c0-.52-1-1.08-1.93-.85Z"/><g id="_Group_55" data-name="&lt;Group&gt;"><path id="_Compound_Path_33" data-name="&lt;Compound Path&gt;" d="M65,62.35,65,62.23s-.31-.71-.75-.73h0a1,1,0,0,0-.7.25.86.86,0,0,1,0-1.23,1.83,1.83,0,0,1,1.92.47.53.53,0,0,1,.16.47,1.21,1.21,0,0,1-.39.8l-.12.09Zm-.88-1.08a1.3,1.3,0,0,1,1,.73,1.09,1.09,0,0,0,.24-.58.31.31,0,0,0-.13-.28,1.86,1.86,0,0,0-1.66-.42c-.2.18-.11.6-.06.8a.82.82,0,0,1,.66-.25Z"/></g><path id="_Path_79" data-name="&lt;Path&gt;" d="M62.37,58.58l1.06,2.74s.47-.21.77-.3a1.32,1.32,0,0,1,.67,0,7.4,7.4,0,0,1,.76-.36,2.69,2.69,0,0,1,.76-.1l.07-.1s-3.72-2.14-4.07-2Z"/><g id="_Group_56" data-name="&lt;Group&gt;"><path id="_Compound_Path_34" data-name="&lt;Compound Path&gt;" d="M63.36,61.47l-1.1-2.86.11-.33h0a24.42,24.42,0,0,1,4.13,2l.11.06-.13.2c-.09.06-.59.06-.82.14a7.75,7.75,0,0,0-.71.35h-.34a.92.92,0,0,0-.35,0c-.31.1-.78.3-.78.3l-.12,0Zm-.93-3,1,2.67c.16-.06.47-.18.7-.25a1.68,1.68,0,0,1,.71-.05,3.62,3.62,0,0,1,.69-.36,3.3,3.3,0,0,1,.81-.09,36,36,0,0,0-4-1.92Z"/></g><path id="_Path_80" data-name="&lt;Path&gt;" class="cls-4" d="M62.43,58.34l1.07,2.74.78-.32a1.47,1.47,0,0,1,.67,0,6.39,6.39,0,0,1,.75-.37,3.37,3.37,0,0,1,.76-.1l-1.07-3a3.61,3.61,0,0,0-.75.17,2.79,2.79,0,0,0-.64.43,3,3,0,0,0-.86.06,2,2,0,0,0-.71.42Z"/><g id="_Group_57" data-name="&lt;Group&gt;"><path id="_Compound_Path_35" data-name="&lt;Compound Path&gt;" d="M63.45,61.23l-1.11-2.86a1.56,1.56,0,0,1,.75-.54,2.2,2.2,0,0,1,.58-.08l.28,0a3.2,3.2,0,0,1,.64-.45,4.69,4.69,0,0,1,.78-.18l1.18,3.1c-.09.15-.58.16-.83.24a7.16,7.16,0,0,0-.7.35h-.33a.9.9,0,0,0-.36.06c-.3.1-.79.29-.79.29l-.09.06Zm1.85-3.89s-.35.09-.61.19a2.72,2.72,0,0,0-.63.42l-.39,0a1.73,1.73,0,0,0-.49.06,2.07,2.07,0,0,0-.66.38l1,2.53a6.25,6.25,0,0,1,.69-.27,1.5,1.5,0,0,1,.71,0,3.21,3.21,0,0,1,.69-.37,3,3,0,0,1,.8-.1L65.3,57.34Z"/></g><g id="_Group_58" data-name="&lt;Group&gt;"><polygon id="_Path_81" data-name="&lt;Path&gt;" class="cls-16" points="65.06 60.71 63.92 57.89 64.06 57.86 65.06 60.71 65.06 60.71"/></g><g id="_Group_59" data-name="&lt;Group&gt;"><path id="_Path_82" data-name="&lt;Path&gt;" class="cls-16" d="M62.65,58.58l-.11-.12A2.3,2.3,0,0,1,64.09,58a2.91,2.91,0,0,0-1.44.54Z"/></g><g id="_Group_60" data-name="&lt;Group&gt;"><path id="_Path_83" data-name="&lt;Path&gt;" class="cls-16" d="M62.76,58.92l-.09-.12a2.14,2.14,0,0,1,1.51-.42,2.89,2.89,0,0,0-1.42.54Z"/></g><g id="_Group_61" data-name="&lt;Group&gt;"><path id="_Path_84" data-name="&lt;Path&gt;" class="cls-16" d="M62.85,59.28l-.09-.12a2.16,2.16,0,0,1,1.55-.41,3.09,3.09,0,0,0-1.46.53Z"/></g><g id="_Group_62" data-name="&lt;Group&gt;"><path id="_Path_85" data-name="&lt;Path&gt;" class="cls-16" d="M63,59.65l-.1-.1a2.14,2.14,0,0,1,1.54-.43,2.93,2.93,0,0,0-1.44.53Z"/></g><g id="_Group_63" data-name="&lt;Group&gt;"><path id="_Path_86" data-name="&lt;Path&gt;" class="cls-16" d="M63.17,60l-.08-.11a2.16,2.16,0,0,1,1.52-.41,3,3,0,0,0-1.44.52Z"/></g><g id="_Group_64" data-name="&lt;Group&gt;"><path id="_Path_87" data-name="&lt;Path&gt;" class="cls-16" d="M63.29,60.42l-.11-.12a2.21,2.21,0,0,1,1.52-.41,2.8,2.8,0,0,0-1.41.53Z"/></g><g id="_Group_65" data-name="&lt;Group&gt;"><path id="_Path_88" data-name="&lt;Path&gt;" class="cls-16" d="M63.43,60.76l-.07-.1a2.1,2.1,0,0,1,1.51-.41,3.31,3.31,0,0,0-1.44.51Z"/></g><g id="_Group_66" data-name="&lt;Group&gt;"><path id="_Path_89" data-name="&lt;Path&gt;" class="cls-16" d="M64.17,58.16l-.11-.08a2,2,0,0,1,1.42-.6,2.92,2.92,0,0,0-1.31.68Z"/></g><g id="_Group_67" data-name="&lt;Group&gt;"><path id="_Path_90" data-name="&lt;Path&gt;" class="cls-16" d="M64.26,58.59l-.09-.09a2,2,0,0,1,1.41-.58,2.72,2.72,0,0,0-1.32.67Z"/></g><g id="_Group_68" data-name="&lt;Group&gt;"><path id="_Path_91" data-name="&lt;Path&gt;" class="cls-16" d="M64.36,58.89l-.1-.1a2,2,0,0,1,1.43-.59,2.64,2.64,0,0,0-1.33.69Z"/></g><g id="_Group_69" data-name="&lt;Group&gt;"><path id="_Path_92" data-name="&lt;Path&gt;" class="cls-16" d="M64.51,59.28l-.09-.1a2.08,2.08,0,0,1,1.42-.59,3,3,0,0,0-1.33.69Z"/></g><g id="_Group_70" data-name="&lt;Group&gt;"><path id="_Path_93" data-name="&lt;Path&gt;" class="cls-16" d="M64.61,59.65l-.1-.07a2,2,0,0,1,1.43-.6,3.15,3.15,0,0,0-1.33.67Z"/></g><g id="_Group_71" data-name="&lt;Group&gt;"><path id="_Path_94" data-name="&lt;Path&gt;" class="cls-16" d="M64.8,60l-.11-.09a2.06,2.06,0,0,1,1.42-.61,3,3,0,0,0-1.31.7Z"/></g><g id="_Group_72" data-name="&lt;Group&gt;"><path id="_Path_95" data-name="&lt;Path&gt;" class="cls-16" d="M65,60.35l-.12-.1a2.06,2.06,0,0,1,1.42-.58,2.78,2.78,0,0,0-1.3.68Z"/></g><g id="_Group_73" data-name="&lt;Group&gt;"><path id="_Compound_Path_36" data-name="&lt;Compound Path&gt;" d="M63.45,61.23l-1.11-2.86a1.56,1.56,0,0,1,.75-.54,2.2,2.2,0,0,1,.58-.08l.28,0a3.2,3.2,0,0,1,.64-.45,4.69,4.69,0,0,1,.78-.18l1.18,3.1c-.09.15-.58.16-.83.24a7.16,7.16,0,0,0-.7.35h-.33a.9.9,0,0,0-.36.06c-.3.1-.79.29-.79.29l-.09.06Zm1.85-3.89s-.35.09-.61.19a2.72,2.72,0,0,0-.63.42l-.39,0a1.73,1.73,0,0,0-.49.06,2.07,2.07,0,0,0-.66.38l1,2.53a6.25,6.25,0,0,1,.69-.27,1.5,1.5,0,0,1,.71,0,3.21,3.21,0,0,1,.69-.37,3,3,0,0,1,.8-.1L65.3,57.34Z"/></g><path id="_Path_96" data-name="&lt;Path&gt;" class="cls-17" d="M60.49,77.32A18.45,18.45,0,0,0,63,75.61c.8-.7,1.53-1.64,2.41-2.51s1.33-.64,1.78-1.64a4.6,4.6,0,0,0,.21-2.4c.31,0,.43.32.6.67.07.16.45-1.21.45-.8s0,1.49,0,1.44c.16-.23.77-1.62.77-1.62s-.28,1.94-.22,1.72a14.67,14.67,0,0,1,.81-1.23v1.23A6.28,6.28,0,0,0,70.46,69c.15-.06.44.86.6.65s.28-1.5.52-1.36.36.79.36.79S71.79,64.89,72,65l.72.21V63.6l.67,2.08a7.27,7.27,0,0,0-.23-1.93,12.47,12.47,0,0,1-.28-1.28s.75,1.07.87,1.28A8,8,0,0,0,73,61.67c-.14,0-.81.8-.67.73s.53-1.65.73-1.65.67,1.13.6,1l-.45-2.45.59,1.08a2.29,2.29,0,0,0,0-1,5,5,0,0,1-.22-.93s.44.58.36.44a9.19,9.19,0,0,1,0-1.29l.41.81c.07.14.33.55.33.55v-.51l.4.32S74.28,57,73.91,57s-.88.57-.88.57.66-1.14.88-1.14h.31L74,55.17s1.47,2,1.39,1.71-.65-1.64-.72-2.14-.28-1.35-.28-1.35.52.71.66.92.56,1.07.56.93,0-1.79,0-1.79L76.25,55l.66-1.85.38,1.8s.28-.87.36-1.23.31-.35.31-.35-.08,1.49-.08,1.63-.17.94-.17.94.67-1.36.82-1.65.73-.51.73-.51-.28.65-.36.87-.88,1.86-.73,1.86.73-.86,1.09-.86,1,.93.88,1-.71-.27-.94-.27-2,1.91-1.69,1.86a7.47,7.47,0,0,0,1.3-1.17s-.36.87-.21.8l1.26-.71s-1.62,1.43-1.41,1.43a5.81,5.81,0,0,0,1.12-.42l-1.12,1.36a4.34,4.34,0,0,1,1.21-.6,3.51,3.51,0,0,1,.93.24,12.41,12.41,0,0,0-1.27.13c-.12.07-1.25,1.66-.94,1.51a5,5,0,0,0,.88-.8L78.9,61,80.45,60l-2.14,2.22S79.78,61.1,80,61.17a11.48,11.48,0,0,1,1.26,1.23,15.17,15.17,0,0,0-1.47-.65A11.12,11.12,0,0,0,78,64.11a7,7,0,0,1,1.61-.72c.29,0,.77,1.29.63,1.29s-.77-.37-.94-.37-1.83,1-1.83,1L79,65a7.65,7.65,0,0,0,1.41-.14,11.72,11.72,0,0,1,1.11-.43s-.86.55-1.3.9a3.07,3.07,0,0,1-1.22.46l1.41.13s-1.92.6-2.4.78-.73.37-1,.51c.23,0,1.3-.06,1.59-.06s1.68.22,1.68.22-1.83.27-2,.27a1.26,1.26,0,0,0-.53.21l2,.23-1.33.21s.94.34,1.19.41a9.31,9.31,0,0,1,.88.51s-1.71-.34-2.07-.34a7.45,7.45,0,0,0-.92.09,2.76,2.76,0,0,1,1,.21.56.56,0,0,1,.31.27l-.95-.08a6.26,6.26,0,0,0,.89.58,1.34,1.34,0,0,1,.44.29l-1.47-.15L78.9,71s-1.33-.29-1.56-.29h-.21a7.84,7.84,0,0,1,.83.71c.11.23.28.51.28.51a6.62,6.62,0,0,1-.9-.28,3.27,3.27,0,0,0-.78-.23l.67.73L76.11,72l.58.85-1.11-.36s.53.3.53.5-.21,1.22-.36,1.08-.21-.71-.39-.94a1.07,1.07,0,0,0-.34-.34,2.62,2.62,0,0,0-.77-.22c.08.14.86.65,1,.8l-1.41-.15s1.33.64,1.11.64-7.28-.58-7.7-.58-2.58,2.43-3,2.64-1.47,1.43-1.92,1.51a4.63,4.63,0,0,0-1,.36Z"/><g id="_Group_74" data-name="&lt;Group&gt;"><path id="_Compound_Path_37" data-name="&lt;Compound Path&gt;" class="cls-18" d="M61.29,77.87l-.87-.44c.18-.28,1.73-1.21,2.48-1.89.46-.41.88-.87,1.33-1.36S65,73.4,65.33,73a4.85,4.85,0,0,1,.87-.67,1.93,1.93,0,0,0,.88-.94,2.91,2.91,0,0,0,.21-1.64c0-.21,0-.44,0-.72.45-.1.59.18.73.5,0-.07.1-.24.14-.36.15-.37.18-.46.29-.46.09.76.09,1.5.12,1.58a7.21,7.21,0,0,1,.56-1.62v0a.17.17,0,0,1,0,.17,7.8,7.8,0,0,1,0,1.3,8.4,8.4,0,0,1,.6-1l.16,1.1c.08-.3.39-.88.48-1.34.26-.09.35.07.47.3a1.3,1.3,0,0,0,.19.3c0-.06,0-.32.09-.55.15-.54.24-.86.43-.86A1.44,1.44,0,0,1,72,69a11.85,11.85,0,0,1-.11-4.12l.84.18-.14-1.47c.1-.1.5.88.71,1.5-.09-.47-.19-1.09-.26-1.32-.13-.43-.31-1.3-.31-1.3.18-.08.69.63,1,1-.25-.49-.64-1.62-.73-1.73s-.24.24-.42.48a.56.56,0,0,1,0-.57c.25-.74.38-1,.53-1,.31,0,.64,1,.67,1h0c-.33-.29-.59-.78-.69-.82a5,5,0,0,0-.33.9h0a.38.38,0,0,1,.27-.19c.33,0,.85,2.15.85,2.18a3.8,3.8,0,0,1-.85-.91c.09.27.16.64.25.87a7.43,7.43,0,0,1,.22,2.05,10.94,10.94,0,0,1-.88-2.12l.24,1.54L72,65.07c0,.16,0,2.17.08,4-.27-.23-.41-.62-.52-.69s-.12.46-.19.71a2,2,0,0,1-.19.61c-.26.08-.36-.06-.49-.32a1,1,0,0,0-.18-.28,4.18,4.18,0,0,1-.56,1.46l0-.08v-.09l-.19-1.12a6.23,6.23,0,0,1-.57,1.26c-.21,0-.26,0-.09-1.14a11.17,11.17,0,0,1-.47,1.06c-.2,0-.23,0-.23-1.07-.16.4-.22.5-.32.5-.34-.49-.42-.68-.62-.7a1.26,1.26,0,0,1,.14.6,3.21,3.21,0,0,1-.25,1.76,1.94,1.94,0,0,1-1,1,4.68,4.68,0,0,0-.84.65c-.37.37-.75.77-1.08,1.14s-.9,1-1.35,1.37a19,19,0,0,1-2.51,1.73l.75.21a4.61,4.61,0,0,1,1-.35,3.64,3.64,0,0,0,1.07-.82,4.64,4.64,0,0,1,.82-.67,10.27,10.27,0,0,0,1.17-1.08c1-1,1.61-1.58,1.89-1.58s2.71.19,4.86.36c1.14.1,2.18.17,2.61.2a7.92,7.92,0,0,1-.93-.43l1.24,0a2.3,2.3,0,0,1-.33-.21,3.08,3.08,0,0,1-.53-.45,1.39,1.39,0,0,1,.9.06,2,2,0,0,1,.41.39,2.48,2.48,0,0,1,.19.51,1.47,1.47,0,0,0,.16.42A7.28,7.28,0,0,0,76,73c0-.08-.22-.28-.45-.4h0a.44.44,0,0,1,.38.05l.76.11L76,72l1.22,0-.78-.54c.14-.17.64-.1.92,0s.49.15.64.21c0-.08-.11-.18-.15-.27a6.73,6.73,0,0,0-.79-.69l-.26-.19h.52c.23,0,1.45.25,1.56.28l-1.33-.73,1.24,0-.16-.08a3.87,3.87,0,0,1-.91-.59l.8-.09a.4.4,0,0,0-.16-.08,2.63,2.63,0,0,0-.95-.23c0-.2.59-.3.95-.3A15.44,15.44,0,0,1,80,69c-.19-.08-.35-.18-.44-.2l-1.18-.42h.05a.2.2,0,0,1,.14,0h0L79.68,68h-2c0-.22.27-.43.53-.43s.88-.11,1.44-.2c-.4,0-.92-.09-1.08-.09l-.89,0H77l0-.1,0-.11h.12l.05-.09a6.64,6.64,0,0,1,.84-.41c.49-.18,2.38-.77,2.38-.77l-.92,0,1,0c0,.21-1.88.79-2.35,1l-.62.26h.23c.34,0,.74,0,.89,0,.3,0,1.71.22,1.71.22,0,.21-1.83.51-2.07.51a.81.81,0,0,0-.45.19l1.92,0-1.11.36a6.21,6.21,0,0,1,1,.27,6.79,6.79,0,0,1,.91.52A12.44,12.44,0,0,1,78.38,69h-.14l.24.09a1,1,0,0,1,.38.33l-1.07.08h0a2.58,2.58,0,0,1,.92.37,1.36,1.36,0,0,1,.49.3h-.08c-.05.07-.14.06-.24,0l-1.23,0L79,71a7.18,7.18,0,0,1-1.52-.08,2.32,2.32,0,0,1,.59.54,5.57,5.57,0,0,1,.31.51c-.16.14-.73,0-1-.14a3.84,3.84,0,0,0-.78-.2l.75.53-1.21,0,.71.69-.8-.13a.47.47,0,0,1,.24.32s-.15,1.2-.46,1.2a1,1,0,0,1-.33-.56,1.49,1.49,0,0,0-.16-.43,1.05,1.05,0,0,0-.34-.31h0a1.87,1.87,0,0,0-.33-.14c.08,0,.14.1.22.14.25.21.42.33.5.41l-1.5,0c1.28.37,1.25.46,1.25.54a17.12,17.12,0,0,1-3-.12c-2-.16-4.6-.36-4.83-.36a8.22,8.22,0,0,0-1.73,1.53A9,9,0,0,1,64.28,76a4.07,4.07,0,0,0-.78.64,3.39,3.39,0,0,1-1.16.87,4,4,0,0,0-1,.35ZM79,65.92c0-.21.76-.32,1.17-.65.13-.11.33-.24.49-.37l-.18.1a2.84,2.84,0,0,1-.88.1,3.9,3.9,0,0,0-.55,0l-1.61.29s0,0,0,0,.06-.07.14-.12a5.92,5.92,0,0,1,1.64-1.06,2,2,0,0,1,.52.19c.17.06.39.16.42.16a3.77,3.77,0,0,0-.63-1.06,6.39,6.39,0,0,0-1.33.58L78,64.2c-.16-.27,1.52-2.57,1.8-2.57a10.24,10.24,0,0,1,1.52.66c-.62-.38-1.19-1-1.33-1a8.16,8.16,0,0,0-1.59,1.06v0a3,3,0,0,1,.41-.5L80.34,60,79,61.06l.14-.8a1.89,1.89,0,0,1-.66.66c-.26-.32.71-1.64.85-1.7A4,4,0,0,1,80,59.1a1.81,1.81,0,0,0-.38-.05,4.09,4.09,0,0,0-1.13.57v0a.49.49,0,0,1,.14-.25l.67-1.06a1.73,1.73,0,0,1-.9.43c-.12-.13-.16-.22.59-1a4.15,4.15,0,0,0-.38.23c-.18-.06-.26-.14,0-.67a3.38,3.38,0,0,1-1.08,1c-.18-.39,1.39-2.07,1.66-2.07a1.9,1.9,0,0,1,.48.16,1.63,1.63,0,0,0,.43.14c0-.1-.58-.79-.85-.79s-.5.32-.69.53-.31.32-.4.32c-.16-.16-.12-.36.43-1.52.08-.23.16-.42.19-.48a6.58,6.58,0,0,1,.3-.72c-.11.15-.38.3-.47.45L77.84,56c-.22-.06-.07-.83-.07-1s0-1,0-1.45a.31.31,0,0,0,0,.19c-.09.37-.39,1.24-.39,1.24l0-.07s0-.09,0-.17l-.5-1.58-.47,1.87-.78-1.34a9.46,9.46,0,0,1,.13,1.53c-.18.13-.23.1-.57-.49a2.91,2.91,0,0,0-.21-.38l-.37-.53a6.45,6.45,0,0,1,.2.88,10.31,10.31,0,0,0,.5,1.48c.11.31.22.55.24.66-.19.15-.28.16-1.58-1.63l.39,1.14-.39.12a1.83,1.83,0,0,0-.38.45.64.64,0,0,1,.33-.1c.47.08,1.13,1.46,1.33,1.89l-.55-.18,0,0-.07-.13.57.23c-.55-.68-1.07-1.58-1.28-1.61h0c-.28,0-.64.37-.76.53v0c-.05-.08,0-.22.1-.36.18-.52.51-.95.69-.95h.31l-.34-1.09a15.32,15.32,0,0,1,1.25,1.33,1,1,0,0,0-.1-.22,14.34,14.34,0,0,1-.51-1.54c-.07-.49-.27-1.34-.27-1.34l0,0c.08,0,.11.07.17.18l.66.64c0,.08.13.23.22.4s.21.36.28.46a10.63,10.63,0,0,1-.19-1.65l0,0s.08.06.1.15L76.35,55l.47-1.85.5,1.58a5.74,5.74,0,0,1,.23-1c.1-.45.38-.45.41-.45A11.33,11.33,0,0,1,78,55c0,.06,0,.19,0,.33a10.44,10.44,0,0,1,.47-1.09c.17-.32.74-.52.78-.56.14.16-.14.8-.22,1a2.75,2.75,0,0,1-.2.47c-.13.29-.36.78-.46,1.08a.71.71,0,0,1,.07-.09c.28-.29.59-.62.86-.62s.94.74,1,1l-.15.23a1.84,1.84,0,0,1-.52-.16,1.56,1.56,0,0,0-.39-.14,9.44,9.44,0,0,0-1.63,1.76c.11-.16.76-.81,1.17-1.24a4.19,4.19,0,0,1-.06.85c0-.15,1.13-.78,1.13-.78l0,0c0,.07-.07.16-.21.29-.48.61-1,1.11-1,1.21a5.73,5.73,0,0,1,1-.52l0,.07s0,.05,0,.07l-.69,1.11a1.88,1.88,0,0,1,.92-.5,4,4,0,0,1,1,.24l-.08,0a.14.14,0,0,1-.14.07,6.62,6.62,0,0,1-1,.24,7.75,7.75,0,0,0-1,1.41A6.7,6.7,0,0,1,79.2,60l0,0s0,.12,0,.22L79,61l1.38-1.06L78.81,61.8A3,3,0,0,1,80,61.06a6.84,6.84,0,0,1,1.35,1.25,9.41,9.41,0,0,1-1.54-.45,19.66,19.66,0,0,0-1.61,2,4.88,4.88,0,0,1,1.4-.59c.35,0,.77,1.1.77,1.34-.2.16-.37.1-.66,0a2.13,2.13,0,0,0-.42-.17c-.09,0-.75.39-1.35.74A9.92,9.92,0,0,1,79,64.93a3.32,3.32,0,0,1,.57,0,2.91,2.91,0,0,0,.78-.09c.31-.16,1.14-.45,1.14-.45.1.2-.76.74-1.19,1.09a2.83,2.83,0,0,1-1.25.48Zm-5.29-4.4-.59-2.18.69.86a4.51,4.51,0,0,0-.1-.78,5.85,5.85,0,0,1-.23-1c.14,0,.31.11.43.22a4,4,0,0,1-.07-1.09c.23,0,.53.63.59.78a5.62,5.62,0,0,0,.35.5l0,.09c-.22.07-.47-.36-.55-.5s-.4-.81-.4-.81a7.58,7.58,0,0,1,.21,1.19c-.12.12-.16.17-.33,0a5.27,5.27,0,0,0,.19.51,2.64,2.64,0,0,1,0,1.08l-.81-1.06.59,2.16Z"/></g><g id="_Group_75" data-name="&lt;Group&gt;"><path id="_Path_97" data-name="&lt;Path&gt;" class="cls-18" d="M67.38,72.08l-.14-.16a10,10,0,0,0,1-1.18,3.8,3.8,0,0,0,.17-.44c.21.06.16.26,0,.52a9.58,9.58,0,0,1-1.06,1.26Z"/></g><g id="_Group_76" data-name="&lt;Group&gt;"><path id="_Path_98" data-name="&lt;Path&gt;" class="cls-18" d="M67.83,72.23l-.11-.17A4.72,4.72,0,0,0,69,70.32c.16.13-.3,1.4-1.12,1.91Z"/></g><g id="_Group_77" data-name="&lt;Group&gt;"><path id="_Path_99" data-name="&lt;Path&gt;" class="cls-18" d="M69.18,71.73l-.11-.19a3.27,3.27,0,0,0,.66-1.16c.19.12-.16,1.08-.55,1.35Z"/></g><g id="_Group_78" data-name="&lt;Group&gt;"><path id="_Path_100" data-name="&lt;Path&gt;" class="cls-18" d="M69.4,72.29l-.11-.18a3.52,3.52,0,0,0,1.32-2.73c.23.07.26,1.9-1.21,2.91Z"/></g><g id="_Group_79" data-name="&lt;Group&gt;"><path id="_Path_101" data-name="&lt;Path&gt;" class="cls-18" d="M70.31,72.32l-.18-.15a6,6,0,0,0,1.35-3.63c.22.09.22,2.23-1.17,3.78Z"/></g><g id="_Group_80" data-name="&lt;Group&gt;"><path id="_Path_102" data-name="&lt;Path&gt;" class="cls-18" d="M70.73,72.55l-.09-.19c1.09-.58,1.12-3.29,1.12-3.6l.22-.2c0,.73-.06,3.36-1.25,4Z"/></g><g id="_Group_81" data-name="&lt;Group&gt;"><path id="_Path_103" data-name="&lt;Path&gt;" class="cls-18" d="M72.5,70.61A8.34,8.34,0,0,0,72,67.73c.24,0,.74,1.21.75,2.87Z"/></g><g id="_Group_82" data-name="&lt;Group&gt;"><path id="_Path_104" data-name="&lt;Path&gt;" class="cls-18" d="M73.12,70h-.21a6.45,6.45,0,0,0-.66-3.06c.2-.1.92,1.15.87,3.07Z"/></g><g id="_Group_83" data-name="&lt;Group&gt;"><path id="_Path_105" data-name="&lt;Path&gt;" class="cls-18" d="M73.28,69.88h-.23c.43-4.1-.43-4.56-.43-4.56.17-.17,1.1.33.66,4.57Z"/></g><g id="_Group_84" data-name="&lt;Group&gt;"><path id="_Path_106" data-name="&lt;Path&gt;" class="cls-18" d="M73.91,68.06l-.22,0a3.83,3.83,0,0,0-.33-2.39c.17-.12.69.57.55,2.41Z"/></g><g id="_Group_85" data-name="&lt;Group&gt;"><path id="_Path_107" data-name="&lt;Path&gt;" class="cls-18" d="M74.5,66.85l-.22,0a6.4,6.4,0,0,0-.64-3h0a4.26,4.26,0,0,1,.83,3Z"/></g><g id="_Group_86" data-name="&lt;Group&gt;"><path id="_Path_108" data-name="&lt;Path&gt;" class="cls-18" d="M74.52,69.29l-.1-.2C76,68,77.15,67.55,77.6,67.72a11.15,11.15,0,0,0-3.08,1.57Z"/></g><g id="_Group_87" data-name="&lt;Group&gt;"><path id="_Path_109" data-name="&lt;Path&gt;" class="cls-18" d="M73.78,70.8l-.11-.18c3.29-2.27,4-1.78,4-1.71-.16.16-.8-.26-3.93,1.89Z"/></g><g id="_Group_88" data-name="&lt;Group&gt;"><path id="_Path_110" data-name="&lt;Path&gt;" class="cls-18" d="M77.68,70.07a11,11,0,0,0-2.19,0l0-.22c1.35-.08,2.13,0,2.32.23,0,0-.08,0-.11,0Z"/></g><g id="_Group_89" data-name="&lt;Group&gt;"><path id="_Path_111" data-name="&lt;Path&gt;" class="cls-18" d="M76.44,71.34a4.92,4.92,0,0,0-1.75-.15l0-.21a2.77,2.77,0,0,1,1.88.28c0,.06-.05.08-.1.08Z"/></g><g id="_Group_90" data-name="&lt;Group&gt;"><path id="_Path_112" data-name="&lt;Path&gt;" class="cls-18" d="M75.61,65.17,75.44,65c2.24-2.56,2.73-2.78,2.77-2.8.05.23-.42.45-2.6,2.94Z"/></g><g id="_Group_91" data-name="&lt;Group&gt;"><path id="_Path_113" data-name="&lt;Path&gt;" class="cls-18" d="M75.52,65.82l-.13-.18C77.65,64.15,78,63.93,78,63.93c.11.17-.12.37-2.44,1.89Z"/></g><g id="_Group_92" data-name="&lt;Group&gt;"><path id="_Path_114" data-name="&lt;Path&gt;" class="cls-18" d="M75.3,67l-.14-.16c1.69-1.64,2.41-1.74,2.46-1.74,0,.22-.71.32-2.32,1.9Z"/></g><g id="_Group_93" data-name="&lt;Group&gt;"><path id="_Path_115" data-name="&lt;Path&gt;" class="cls-18" d="M75.28,67.75l-.12-.16c2.91-2.29,4.16-1.85,4.21-1.84a8.42,8.42,0,0,0-4.09,2Z"/></g><g id="_Group_94" data-name="&lt;Group&gt;"><path id="_Path_116" data-name="&lt;Path&gt;" class="cls-18" d="M74.88,68.45l-.15-.19a8.22,8.22,0,0,1,2.21-1.06l.3.14a6.78,6.78,0,0,0-2.36,1.11Z"/></g><g id="_Group_95" data-name="&lt;Group&gt;"><path id="_Path_117" data-name="&lt;Path&gt;" class="cls-18" d="M76.35,59.1a34.25,34.25,0,0,0-.91-3.8c.31,0,.58,1.09,1.1,3.76l-.19,0Z"/></g><g id="_Group_96" data-name="&lt;Group&gt;"><path id="_Path_118" data-name="&lt;Path&gt;" class="cls-18" d="M76.69,59.16c-.2-.06.1-1.23.13-1.48a5.72,5.72,0,0,0-.71-2.61L76.3,55a5.85,5.85,0,0,1,.75,2.74c0,.25-.36,1.46-.36,1.46Z"/></g><g id="_Group_97" data-name="&lt;Group&gt;"><path id="_Path_119" data-name="&lt;Path&gt;" class="cls-18" d="M77.24,56.2c-.22,0-.34-.42-.25-1.72h.21a4.21,4.21,0,0,0,.07,1.71Z"/></g><g id="_Group_98" data-name="&lt;Group&gt;"><path id="_Path_120" data-name="&lt;Path&gt;" class="cls-18" d="M77.13,57.75l-.19-.11a13.64,13.64,0,0,0,.77-1.93c.2.12-.23,1.4-.58,2Z"/></g><g id="_Group_99" data-name="&lt;Group&gt;"><path id="_Path_121" data-name="&lt;Path&gt;" class="cls-18" d="M76.3,60.75a11.39,11.39,0,0,1,.57-1.45c.37-.87.84-2,1.18-2.85l.19.06c-.31.84-.81,2-1.16,2.87-.31.67-.52,1.18-.54,1.27l-.24.1Z"/></g><g id="_Group_100" data-name="&lt;Group&gt;"><path id="_Path_122" data-name="&lt;Path&gt;" class="cls-18" d="M76.35,62.31l-.19-.1c1.68-3.31,2.22-3.77,2.27-3.78.11.17-.45.65-2.08,3.88Z"/></g><g id="_Group_101" data-name="&lt;Group&gt;"><path id="_Path_123" data-name="&lt;Path&gt;" class="cls-18" d="M76.44,62.83l-.19-.11a23.87,23.87,0,0,0,2.18-3.33c.22.12-.08.77-2,3.44Z"/></g><g id="_Group_102" data-name="&lt;Group&gt;"><path id="_Path_124" data-name="&lt;Path&gt;" class="cls-18" d="M76.08,64.05l-.17-.13c2.19-2.81,3-3.11,3.08-3.12.08.21-.78.53-2.91,3.25Z"/></g><g id="_Group_103" data-name="&lt;Group&gt;"><path id="_Path_125" data-name="&lt;Path&gt;" class="cls-18" d="M74.78,65.51a8.13,8.13,0,0,0-1.23-3.76c.23-.09,1.18,1.26,1.44,3.74l-.21,0Z"/></g><g id="_Group_104" data-name="&lt;Group&gt;"><path id="_Path_126" data-name="&lt;Path&gt;" class="cls-18" d="M75.19,64.2c-.25,0-.39-2.07-1.46-3.74l.18-.12a10.52,10.52,0,0,1,1.28,3.86Z"/></g><g id="_Group_105" data-name="&lt;Group&gt;"><path id="_Path_127" data-name="&lt;Path&gt;" class="cls-18" d="M75.39,63.25a11,11,0,0,0-1.51-4.33l.18-.12c1.71,2.77,1.36,4.38,1.33,4.45Z"/></g><g id="_Group_106" data-name="&lt;Group&gt;"><path id="_Path_128" data-name="&lt;Path&gt;" class="cls-18" d="M75.7,64.06c-.21-.08.38-2.23-1.11-5.05l.21-.09a7.34,7.34,0,0,1,.9,5.14Z"/></g><g id="_Group_107" data-name="&lt;Group&gt;"><path id="_Path_129" data-name="&lt;Path&gt;" class="cls-18" d="M76.08,62c-.2,0-.18-1-1-3.15l.19-.08A8.58,8.58,0,0,1,76.08,62Z"/></g><g id="_Group_108" data-name="&lt;Group&gt;"><path id="_Path_130" data-name="&lt;Path&gt;" class="cls-18" d="M76.25,60.06c-.2-.1.29-1.35-2.16-3.63l.15-.16c2.55,2.4,2,3.73,2,3.79Z"/></g><g id="_Group_109" data-name="&lt;Group&gt;"><path id="_Path_131" data-name="&lt;Path&gt;" class="cls-18" d="M74,70.14c-.19-.09.14-1,.14-1.31,0-.12.06-.33.09-.56-.14.36-.34.82-.61,1.47l-.22-.08c.88-2,1-2.37,1-2.38s0,0,0,0,0,.07,0,.16a7,7,0,0,1-.11,1.35,5.27,5.27,0,0,1-.37,1.3Z"/></g><g id="_Group_110" data-name="&lt;Group&gt;"><path id="_Path_132" data-name="&lt;Path&gt;" class="cls-18" d="M75.36,72.3c-.34,0-2-.93-3.6-.63l0-.21a5.83,5.83,0,0,1,3.69.82.13.13,0,0,1-.06,0Z"/></g><g id="_Group_111" data-name="&lt;Group&gt;"><path id="_Path_133" data-name="&lt;Path&gt;" class="cls-18" d="M74.14,72.52c-.42,0-1.33-.16-2.63-.27l0-.21a19.7,19.7,0,0,1,2.86.41s-.11.07-.25.07Z"/></g><g id="_Group_112" data-name="&lt;Group&gt;"><path id="_Path_134" data-name="&lt;Path&gt;" class="cls-18" d="M76,71.86c-.48,0-2.9-.89-3.75-.94V70.7a21,21,0,0,1,3.81,1.15Z"/></g><g id="_Group_113" data-name="&lt;Group&gt;"><path id="_Path_135" data-name="&lt;Path&gt;" class="cls-19" d="M67.83,71.14c-.17-.14-.09-.25,0-.57a3.36,3.36,0,0,0,.1-1h.21a2.67,2.67,0,0,1-.12,1,1.51,1.51,0,0,1-.24.49Z"/></g><path id="_Path_136" data-name="&lt;Path&gt;" class="cls-17" d="M66.77,77.86c-2.4-1.21-4.95-4.52-5.53-4.65s-6.4.86-6.34.7a6.36,6.36,0,0,1,.42-1.45c.28-.42,1-.85.9-.85l-1.61,0a4.72,4.72,0,0,1-.93.91c-.25.11-1.47.22-1.75.37a4.59,4.59,0,0,0-.75.64,6.48,6.48,0,0,1-.13-.75,1.33,1.33,0,0,1,.24-.47,9.67,9.67,0,0,1-1.21,0c.17-.06.22-.43.44-.7a1.89,1.89,0,0,1,.86-.69l.77-.22-.64-.31a4.25,4.25,0,0,1,.79-.32,7.32,7.32,0,0,0,.85-.16s-.51-.55-.51-.76-.49.81-.87.92a7.29,7.29,0,0,1-1.52.2c-.37,0-1,.59-1,.59a2.23,2.23,0,0,1-.09-.79.49.49,0,0,1,.26-.32l-.59,0a7.92,7.92,0,0,1,.21-.9c0-.11.33-.59.33-.59a3.1,3.1,0,0,1-.54-.53,4.86,4.86,0,0,1-.29-.76h1.16a4.51,4.51,0,0,1,1,.34,2.08,2.08,0,0,1-.29-.6c0-.16-.21-.53-.12-.53a5.8,5.8,0,0,1,.88.48s-.22-1-.55-1.23-1.79-.47-2.08-.85a14.23,14.23,0,0,1-.76-2,1,1,0,0,0-.46-.49h.91s-.11-.53-.19-.85a2,2,0,0,1,.13-.8s.37.64.58.64.57.38.57.38l.05-.38.66.85s.05-.58.17-.69a1.14,1.14,0,0,1,.38-.21,1.55,1.55,0,0,0,.12.48,6.71,6.71,0,0,1,.35,1.07c0,.17-.1,1.92-.1,2.08a10.74,10.74,0,0,0,.64,1.38V64.82c0-.32-.35-1-.31-1.27l.13-.69a3.28,3.28,0,0,0,.42.64c.12,0,.42.63.42.63l.41-.69a5.45,5.45,0,0,1-1.07-1.06c-.09-.33-.18-1-.18-1a4.68,4.68,0,0,1-.88-.54,16.82,16.82,0,0,1-1.11-1.7h.33a3.61,3.61,0,0,1-.33-1c0-.32.05-1,.05-1a2.11,2.11,0,0,1,.4.37c0,.11.47.17.47.17a8.52,8.52,0,0,1-.64-2,4.41,4.41,0,0,1,.88-1.72l.42.7.88-1.29a3.16,3.16,0,0,1,.37.76v.69l.67.05c.13,0,.38.21.38.21a2.53,2.53,0,0,0-.59.33c-.16.16-.33.84-.5.91a5.2,5.2,0,0,0-1,.69,3.81,3.81,0,0,0-.33,1.12,4.76,4.76,0,0,1,.62,1c0,.26.09,1,.09,1s.28.33.5.27.45-.37.38-.59-.64-.74-.71-1,.07-2,.07-2l.87.48a4.18,4.18,0,0,0,.59-.74,7,7,0,0,0,.29-1L54,56.55s.3-.49.55-.59.81-.42.81-.42a6.75,6.75,0,0,0-.21.75c0,.1,0,2,0,2.17S53.54,60,53.43,60.12s-.13.92-.13.92l1.05-.92s.12.48.16.76a3.22,3.22,0,0,1,.05.53,4.05,4.05,0,0,0,.71-.27c.17-.1.53.11.53.11a4.47,4.47,0,0,1-.29.54c-.12.1-.5,1.11-.67,1.28s-1.16.53-1.25.69-1,1.06-1.16,1.38a2.12,2.12,0,0,0-.22,1,4,4,0,0,1,.6-1.16,9.7,9.7,0,0,0,.92-1l.17.81a4.39,4.39,0,0,1,.83-.49L56.11,64s-.79.65-.79.81-.09,1-.39,1.22a19,19,0,0,1-1.69,1.06,1.39,1.39,0,0,0-.22.66.75.75,0,0,0,.16.36,2.33,2.33,0,0,1,.41-.59c.22-.21.14-.69.14-.69s.53.48.57.69a8.48,8.48,0,0,1,.05,1.6,2.73,2.73,0,0,0,0,1.07c.12.16.58.7.74.7s-.69-1.39-.58-2,.58-1.07.64-1.38a3.68,3.68,0,0,0,.17-.65,4.49,4.49,0,0,1,.57.81,1.62,1.62,0,0,1,.53-.51A11.5,11.5,0,0,1,57,68.51a4.29,4.29,0,0,1,.61-.81A2.48,2.48,0,0,1,58,69.17a2,2,0,0,1-.71,1.11,4.46,4.46,0,0,1-.61.31,5.41,5.41,0,0,0,1,.27,1.66,1.66,0,0,1,.55.16L57,71.4a6.76,6.76,0,0,0,1.49,0,2.68,2.68,0,0,0-.16-1,3.06,3.06,0,0,1-.25-.7,4.25,4.25,0,0,0,.72.16c.24,0,.61.06.61-.06s-.45-1-.33-1,1.54,1.28,1.54,1.08a8.1,8.1,0,0,1,.62-1.36l.57,1.15a5.25,5.25,0,0,1,.07,1,2.18,2.18,0,0,1-.37.91,9.61,9.61,0,0,0,1.25,1.6A20,20,0,0,0,66,76.3a14.3,14.3,0,0,0,1.36.75Z"/><g id="_Group_114" data-name="&lt;Group&gt;"><path id="_Compound_Path_38" data-name="&lt;Compound Path&gt;" class="cls-18" d="M66.8,77.93h0a18.53,18.53,0,0,1-4.23-3.49,6.27,6.27,0,0,0-1.3-1.16c-.71,0-2.37.22-3.78.42-1.15.16-2.17.3-2.46.3l-.08-.08,0-.25a5,5,0,0,1,.4-1.23,4,4,0,0,1,.71-.71,12.58,12.58,0,0,0-1.35,0,3.73,3.73,0,0,1-.92.88,3.15,3.15,0,0,1-.72.16A4.43,4.43,0,0,0,52,73a5.4,5.4,0,0,0-.75.62c-.12,0-.23-.62-.23-.79a1.39,1.39,0,0,1,.2-.47,3,3,0,0,1-.87.09l-.19,0a7.6,7.6,0,0,1,1.16-.12c0,.23-.14.44-.14.54s.07.54.09.69a1.71,1.71,0,0,1,.67-.63A4,4,0,0,1,53,72.64a4.34,4.34,0,0,0,.69-.14,3.93,3.93,0,0,0,.9-.88s1.55-.08,1.66-.08v0l-.14.24a3.33,3.33,0,0,0-.69.67A4.84,4.84,0,0,0,55,73.69a6.48,6.48,0,0,0,2.38-.13c1.44-.22,3.07-.44,3.67-.44.45.07.9.54,1.59,1.22a18.53,18.53,0,0,0,4.12,3.43l.58-.77-.44-.12c-.25-.12-.43-.23-.94-.51a14.24,14.24,0,0,1-2.61-2.44,8.54,8.54,0,0,0-.62-.68,11.75,11.75,0,0,1-1.28-1.6,3,3,0,0,0,.38-1,3.18,3.18,0,0,0-.08-.93,11.91,11.91,0,0,0-.56-1.13c-.12.44-.47,1.16-.47,1.32-.22.09-.51-.12-1.07-.6a3.09,3.09,0,0,0-.56-.4,2.58,2.58,0,0,1,.28.49,3.46,3.46,0,0,1,.14.39v.08l-.31.06h-.38a3,3,0,0,1-.67-.15c.08.09.12.35.25.58a2.85,2.85,0,0,1,.18,1v.08l-.31,0c-.42,0-1.25-.09-1.25-.09h0s.08,0,.14-.06l.91-.4c-.13,0-.29-.07-.41-.07a5.09,5.09,0,0,1-1-.27c0-.13.25-.24.56-.43A1.93,1.93,0,0,0,58,69.14a2.77,2.77,0,0,0-.42-1.4c-.11.19-.33.52-.52.81-.23-.37-.55-1.27-.67-1.39l-.43.49a7.09,7.09,0,0,0-.61-.71,1.6,1.6,0,0,1-.09.53,1.68,1.68,0,0,1-.22.41,3,3,0,0,0-.45,1A4.49,4.49,0,0,0,55,70.42c.16.35.17.42.16.47-.27.09-.79-.6-.84-.69a2.12,2.12,0,0,1,0-1.12,6.81,6.81,0,0,0-.05-1.57,2.32,2.32,0,0,0-.45-.57.62.62,0,0,1-.15.61,2.2,2.2,0,0,0-.37.57.48.48,0,0,1-.31-.4c0-.16.09-.64.26-.71s1.42-.85,1.69-1.07.37-1,.37-1.16.54-.66.79-.86l-1.3.44a2.93,2.93,0,0,0-.81.48L53.68,64a3.49,3.49,0,0,1-.83,1,2.9,2.9,0,0,0-.56,1.14c-.14,0-.14-.69.09-1,.13-.17.47-.57.74-.9a5.9,5.9,0,0,1,.42-.48c.05-.1.3-.21.69-.4.22-.11.5-.24.58-.3a5.08,5.08,0,0,0,.34-.72,1.75,1.75,0,0,1,.32-.57c.06-.07.2-.39.26-.5-.06,0-.22,0-.34,0a5.23,5.23,0,0,1-.8.29c-.1-.06-.1-.32-.14-.58s-.17-.75-.17-.75l-.93,1a1.39,1.39,0,0,1,0-1c1-1,1.55-1.52,1.63-1.63a9.38,9.38,0,0,0,.05-2,2,2,0,0,1,.19-.8,3.43,3.43,0,0,1-.71.43c-.19.06-.42.42-.5.55l-.47-1a4,4,0,0,1-.19.91,3.39,3.39,0,0,1-.62.77l-1-.46c.07.42,0,1.74.05,1.95a2.17,2.17,0,0,0,.37.55,1.39,1.39,0,0,1,.34.46.43.43,0,0,1-.07.37.79.79,0,0,1-.36.31.84.84,0,0,1-.57-.3s-.06-.73-.11-1a6.37,6.37,0,0,0-.59-1,3.14,3.14,0,0,1,.33-1.21,6.33,6.33,0,0,1,1.06-.71,1.64,1.64,0,0,0,.24-.44,1.25,1.25,0,0,1,.23-.45,2.53,2.53,0,0,1,.61-.33,1.75,1.75,0,0,1-.35-.09l-.67,0-.06-.76a2.93,2.93,0,0,0-.36-.71l-.75,1.28L50.58,54c0,.11-.75,1.13-.75,1.66a8.81,8.81,0,0,0,.63,2,.59.59,0,0,1-.61-.09c0-.07-.19-.2-.33-.32a3.91,3.91,0,0,1,0,.87,3.69,3.69,0,0,0,.33,1l-.41.09c.38.42,1,1.42,1.16,1.6a5.05,5.05,0,0,0,.86.52c0,.06.11.73.23,1.05a5.87,5.87,0,0,0,1,1l-.36.78c-.28-.27-.47-.59-.52-.61a2.5,2.5,0,0,1-.4-.54,1.29,1.29,0,0,1-.05.54,2.13,2.13,0,0,0,.14.63,2.3,2.3,0,0,1,.17.63V66.1a4.59,4.59,0,0,1-.78-1.38c0-.09,0-.56.05-1s.06-1,.06-1a5.22,5.22,0,0,0-.38-1,2.76,2.76,0,0,1-.12-.5c0,.08-.19.17-.28.26a2,2,0,0,0-.14.64l-.76-.82.05.34c-.23-.1-.48-.31-.62-.31s-.47-.4-.58-.61a4.54,4.54,0,0,0,0,.69l.16.85-.78.07a.7.7,0,0,1,.35.41l.1.32a9.49,9.49,0,0,0,.66,1.68,3.17,3.17,0,0,0,1.31.57,5.86,5.86,0,0,1,.75.27c.33.23.57,1.22.57,1.27-.44-.15-.88-.39-.95-.39a1.21,1.21,0,0,1,.2.46,1.9,1.9,0,0,0,.26.56c-.31,0-.83-.21-1-.21H48.64a5.56,5.56,0,0,1,.28.64,2.65,2.65,0,0,0,.55.51,4.82,4.82,0,0,1-.31.66c0,.08-.16.6-.24.9l.55-.14c.05.13-.14.24-.22.4a3.17,3.17,0,0,0,.12.74,1.27,1.27,0,0,1,.88-.6A7.34,7.34,0,0,0,51.77,70c.19,0,.47-.43.61-.66s.19-.27.26-.27a2.53,2.53,0,0,0,.54.79,1.76,1.76,0,0,1-.88.28,7.84,7.84,0,0,0-.78.3l.67.21-.78.35a1.65,1.65,0,0,0-.83.67.83.83,0,0,0-.22.37c-.09.15-.14.28-.23.33l-.13,0a1.08,1.08,0,0,0,.22-.35,1.52,1.52,0,0,1,.24-.4,2,2,0,0,1,.9-.72l.79-.21-.66-.21A1.7,1.7,0,0,1,52.3,70a4.94,4.94,0,0,0,.82-.16c-.13,0-.46-.34-.52-.59,0,0-.05.1-.09.16-.21.28-.49.66-.72.72a6.83,6.83,0,0,1-1.54.23c-.28,0-.73.4-.91.57a1.29,1.29,0,0,1-.2-.87.59.59,0,0,1,.3-.37l-.56.19a3.3,3.3,0,0,1,.13-1,3.22,3.22,0,0,0,.33-.58,1.79,1.79,0,0,1-.54-.48,4.46,4.46,0,0,1-.25-.75l1.2-.09a3.45,3.45,0,0,1,.91.27.82.82,0,0,1-.27-.48l-.12-.56c.22,0,.76.3,1,.44-.17-.19-.38-.94-.61-1.1a4,4,0,0,0-.74-.26c-.58-.18-1.22-.36-1.37-.62A7.19,7.19,0,0,1,47.89,63l-.13-.32a1,1,0,0,0-.4-.45h0a.12.12,0,0,1,.13,0l.78-.11L48,61.31a2.19,2.19,0,0,1,.11-.83c.28.24.54.6.66.6s.57.34.62.39l-.08-.34.74.8a1.07,1.07,0,0,1,.1-.68A1.85,1.85,0,0,1,50.6,61a2.44,2.44,0,0,1,.2.52,5.43,5.43,0,0,1,.38,1.1c0,.08,0,.57,0,1s-.05.95-.05,1a10.33,10.33,0,0,0,.64,1.35l-.14-1.25a2.43,2.43,0,0,0-.14-.57,1.68,1.68,0,0,1-.17-.71c0-.27.11-.7.11-.7.26.25.48.56.53.59a4,4,0,0,1,.47.67l.26-.7a4.81,4.81,0,0,1-1.06-1c-.09-.32-.2-1-.2-1a3.14,3.14,0,0,1-.86-.49,14.91,14.91,0,0,1-1.1-1.74l.36-.09a1.66,1.66,0,0,1-.39-.95c0-.32.08-1,.08-1h0a.84.84,0,0,1,.5.35,1.19,1.19,0,0,0,.42.12,5,5,0,0,1-.72-2,4.2,4.2,0,0,1,.91-1.74l.55.69.75-1.29a1.55,1.55,0,0,1,.5.79v.68a1.94,1.94,0,0,1,.59,0c.13,0,.35.18.43.22s-.45.27-.59.43a1.22,1.22,0,0,0-.21.4c-.12.31-.19.48-.31.53a5.92,5.92,0,0,0-1,.67A4.52,4.52,0,0,0,51,58.11h0a4.07,4.07,0,0,1,.62,1c.05.27.11,1,.11,1s.22.21.36.21a.43.43,0,0,0,.3-.24.51.51,0,0,0,.08-.27c0-.08-.19-.25-.31-.41a2.28,2.28,0,0,1-.43-.6,16.17,16.17,0,0,1,.08-2.06l1,.43s.41-.48.5-.71a9.63,9.63,0,0,0,.28-1l0,.05s0,0,0,.06l.42.95a1.1,1.1,0,0,1,.5-.57c.27-.11.8-.42.8-.42,0,.4-.11.74-.11.81a13.3,13.3,0,0,1,0,2.23,21.23,21.23,0,0,1-1.55,1.55,1.67,1.67,0,0,0-.21,1l.92-1c.12,0,.21.51.26.8a2.33,2.33,0,0,1,.07.54c.07-.11.48-.24.62-.32a.89.89,0,0,1,.56.09,1.4,1.4,0,0,1-.25.65,4.6,4.6,0,0,0-.29.53,3.22,3.22,0,0,1-.37.76,3.65,3.65,0,0,1-.62.32,3.12,3.12,0,0,0-.65.36,4,4,0,0,1-.42.49l-.73.9a1.48,1.48,0,0,0-.18.56,2.18,2.18,0,0,1,.49-.87,12,12,0,0,0,.89-.95l.28.81a1.89,1.89,0,0,1,.74-.51l1.41-.33a9.4,9.4,0,0,0-.69.88A2.49,2.49,0,0,1,55,66.06c-.16.13-.75.51-1.2.78a1.54,1.54,0,0,1,.59.65,9.49,9.49,0,0,1,.05,1.41.1.1,0,0,0,0-.08,2.59,2.59,0,0,1,.45-1,1.47,1.47,0,0,0,.21-.38c.09-.32.14-.62.14-.62s.59.53.68.79a.76.76,0,0,1,.46-.53A6.52,6.52,0,0,1,57,68.49a1.79,1.79,0,0,1,.52-.84,2.19,2.19,0,0,1,.55,1.53,1.86,1.86,0,0,1-.77,1.14,3.69,3.69,0,0,1-.61.34,4.06,4.06,0,0,1,1,.13,1.75,1.75,0,0,1,.56.16l0,0-.08,0-.92.4c.23,0,.75,0,1.06,0a1.14,1.14,0,0,0,0-1,2.5,2.5,0,0,1-.23-.72c.09-.08.59.08.78.08h.38c.17,0,.09-.2,0-.34-.17-.44-.23-.58-.17-.65s.2,0,.69.41a6,6,0,0,0,.89.64,5.33,5.33,0,0,1,.57-1.32,4.82,4.82,0,0,1,.71,1.15,4.81,4.81,0,0,1,.07,1,2.19,2.19,0,0,1-.41,1h0c.06,0,.8,1.11,1.27,1.51.14.14.34.38.64.68A12.25,12.25,0,0,0,66,76.24a9.7,9.7,0,0,0,1,.52l.42.23-.61.94Zm-12.38-9v.17a2.31,2.31,0,0,0,0,1,3.09,3.09,0,0,0,.61.64,1.31,1.31,0,0,1-.14-.29,4.68,4.68,0,0,1-.45-1.53Zm-.74-2c-.2.13-.36.21-.39.24s-.19.41-.19.59a.77.77,0,0,0,.11.27,1,1,0,0,1,.33-.54,1,1,0,0,0,.14-.56Z"/></g><g id="_Group_115" data-name="&lt;Group&gt;"><path id="_Path_137" data-name="&lt;Path&gt;" class="cls-18" d="M49.37,69.46l-.12-.08a1.18,1.18,0,0,1,.81-.37,1.12,1.12,0,0,0,.38-.08c.33-.16.92-.48.92-.48s-.54.45-.87.61a1.15,1.15,0,0,1-.41.08,1.09,1.09,0,0,0-.71.32Z"/></g><g id="_Group_116" data-name="&lt;Group&gt;"><path id="_Path_138" data-name="&lt;Path&gt;" class="cls-18" d="M49.88,69.8c0-.13.67-.3.92-.44a2.41,2.41,0,0,0,.44-.5,4.57,4.57,0,0,1,1-1.1l.06.12a4.1,4.1,0,0,0-1,1.08,2.8,2.8,0,0,1-.5.52,4.56,4.56,0,0,1-1,.32Z"/></g><g id="_Group_117" data-name="&lt;Group&gt;"><path id="_Path_139" data-name="&lt;Path&gt;" class="cls-18" d="M50,70.07l0-.13a3,3,0,0,0,1.13-.24,6.72,6.72,0,0,1,.59-.5c.1.12-.28.37-.5.58s-1.11.28-1.19.29Z"/></g><g id="_Group_118" data-name="&lt;Group&gt;"><path id="_Path_140" data-name="&lt;Path&gt;" class="cls-18" d="M51,72v-.13a14.52,14.52,0,0,0,2.13-.42c.09.22-1.8.52-2.12.55Z"/></g><g id="_Group_119" data-name="&lt;Group&gt;"><path id="_Path_141" data-name="&lt;Path&gt;" class="cls-18" d="M52,72.59h-.08v-.14a3.21,3.21,0,0,0,2.08-1,2.49,2.49,0,0,1-2,1.18Z"/></g><g id="_Group_120" data-name="&lt;Group&gt;"><path id="_Path_142" data-name="&lt;Path&gt;" class="cls-18" d="M54.45,71.4A4.67,4.67,0,0,1,52.24,71l0-.11c1.3.73,4.3.26,4.35.25a6.34,6.34,0,0,1-2.19.29Z"/></g><g id="_Group_121" data-name="&lt;Group&gt;"><path id="_Path_143" data-name="&lt;Path&gt;" class="cls-18" d="M55.6,70.61c0-.14.07-.35.18-2.15h.11c-.09,2.15-.22,2.15-.29,2.15Z"/></g><g id="_Group_122" data-name="&lt;Group&gt;"><path id="_Path_144" data-name="&lt;Path&gt;" class="cls-1" d="M55.15,69.57c.08-.58.12-.79.12-.79Z"/></g><g id="_Group_123" data-name="&lt;Group&gt;"><path id="_Path_145" data-name="&lt;Path&gt;" class="cls-1" d="M55.44,67.72c0,.1,0,.74,0,.74Z"/></g><g id="_Group_124" data-name="&lt;Group&gt;"><path id="_Path_146" data-name="&lt;Path&gt;" class="cls-18" d="M56.44,70.2l-.13-.08a2.23,2.23,0,0,0,.27-1c.14,0,.14.51-.14,1Z"/></g><g id="_Group_125" data-name="&lt;Group&gt;"><path id="_Path_147" data-name="&lt;Path&gt;" class="cls-1" d="M56.31,68.88l-.05.38Z"/></g><g id="_Group_126" data-name="&lt;Group&gt;"><path id="_Path_148" data-name="&lt;Path&gt;" class="cls-1" d="M57.24,69.26c-.21.54-.33.54-.33.54Z"/></g><g id="_Group_127" data-name="&lt;Group&gt;"><path id="_Path_149" data-name="&lt;Path&gt;" class="cls-18" d="M60,71.23c-.17,0-1.14-.92-1.77-1.22l.08-.12A11.72,11.72,0,0,1,60,71.23Z"/></g><g id="_Group_128" data-name="&lt;Group&gt;"><path id="_Path_150" data-name="&lt;Path&gt;" class="cls-18" d="M60.63,70.88c-.14,0-.59-.62-1.11-.92l.06-.12a4.27,4.27,0,0,1,1.07,1Z"/></g><g id="_Group_129" data-name="&lt;Group&gt;"><path id="_Path_151" data-name="&lt;Path&gt;" class="cls-18" d="M60.87,71.8c-.1-.09.4-.94-.27-1.64l.11-.1a1.52,1.52,0,0,1,.16,1.74Z"/></g><g id="_Group_130" data-name="&lt;Group&gt;"><path id="_Path_152" data-name="&lt;Path&gt;" class="cls-1" d="M61.41,69.47l-.17,1.28Z"/></g><g id="_Group_131" data-name="&lt;Group&gt;"><path id="_Path_153" data-name="&lt;Path&gt;" class="cls-18" d="M49.58,64.63c-.14,0-.47-.28-.66-.5a1.08,1.08,0,0,1-.19-.49.72.72,0,0,0-.07-.32,1.68,1.68,0,0,0-1.07-.88l0-.14a1.76,1.76,0,0,1,1.06.81,1,1,0,0,1,.2.49A.64.64,0,0,0,49,64a6.36,6.36,0,0,0,.58.59Z"/></g><g id="_Group_132" data-name="&lt;Group&gt;"><path id="_Path_154" data-name="&lt;Path&gt;" class="cls-18" d="M50.77,65.49c-.11,0-.33-.43-.47-.63h0l-.38-.18c-.17-.08-.31-.37-.45-.71-.07-.12-.1-.23-.14-.28l0-.27c0-.37,0-1-1-1.09l0-.14c1.16.1,1.14.87,1.14,1.24a2.36,2.36,0,0,0,.52,1.12c.28.07.36.08.45.23a3.28,3.28,0,0,1,.41.71Z"/></g><g id="_Group_133" data-name="&lt;Group&gt;"><path id="_Path_155" data-name="&lt;Path&gt;" class="cls-18" d="M48.92,62.33c-.12,0,0-.33-.31-.66a3.6,3.6,0,0,0-.42-.41l.07-.12a2.86,2.86,0,0,1,.44.45c.36.39.24.73.22.74Z"/></g><g id="_Group_134" data-name="&lt;Group&gt;"><path id="_Path_156" data-name="&lt;Path&gt;" class="cls-18" d="M50,63.35a1.52,1.52,0,0,1-.34-1.59l.12.05A2.26,2.26,0,0,0,50,63.34Z"/></g><g id="_Group_135" data-name="&lt;Group&gt;"><path id="_Path_157" data-name="&lt;Path&gt;" class="cls-18" d="M50.36,63.53c-.11-.08.33-1-.28-1.42l.08-.12c.7.51.2,1.52.2,1.54Z"/></g><g id="_Group_136" data-name="&lt;Group&gt;"><path id="_Path_158" data-name="&lt;Path&gt;" class="cls-1" d="M50.25,64l-.07.81Z"/></g><g id="_Group_137" data-name="&lt;Group&gt;"><path id="_Path_159" data-name="&lt;Path&gt;" class="cls-1" d="M52,61.62a1.07,1.07,0,0,1,.48.8Z"/></g><g id="_Group_138" data-name="&lt;Group&gt;"><path id="_Path_160" data-name="&lt;Path&gt;" class="cls-18" d="M52.84,66.07c-.15,0-.15-.09.13-.48a8.06,8.06,0,0,0,.66-1.43l.13,0a13.61,13.61,0,0,1-.66,1.47,1.41,1.41,0,0,0-.26.39Z"/></g><g id="_Group_139" data-name="&lt;Group&gt;"><path id="_Path_161" data-name="&lt;Path&gt;" class="cls-18" d="M52.71,67.19l-.11,0c.37-1.29,1-1.52,1.06-1.53s-.59.35-.95,1.57Z"/></g><g id="_Group_140" data-name="&lt;Group&gt;"><path id="_Path_162" data-name="&lt;Path&gt;" class="cls-18" d="M53.32,66.22l0-.12a4.91,4.91,0,0,0,2-1.79,3.49,3.49,0,0,1-2,1.91Z"/></g><g id="_Group_141" data-name="&lt;Group&gt;"><path id="_Path_163" data-name="&lt;Path&gt;" class="cls-18" d="M49.44,68.63l0-.12a2.17,2.17,0,0,1,1.36-.46,1,1,0,0,0,.4,0,1.54,1.54,0,0,0,.78-.51c.09.09-.19.47-.74.64a1.24,1.24,0,0,1-.44,0,2.13,2.13,0,0,0-1.31.44Z"/></g><g id="_Group_142" data-name="&lt;Group&gt;"><path id="_Path_164" data-name="&lt;Path&gt;" class="cls-18" d="M50.67,67.88c-.23,0-1.23-.51-1.92-.37l0-.14a3.59,3.59,0,0,1,2,.51Z"/></g><g id="_Group_143" data-name="&lt;Group&gt;"><path id="_Path_165" data-name="&lt;Path&gt;" class="cls-18" d="M51.72,67.54c-.14,0-.34-.72-1.26-.82v-.14a1.38,1.38,0,0,1,1.26,1Z"/></g><g id="_Group_144" data-name="&lt;Group&gt;"><path id="_Path_166" data-name="&lt;Path&gt;" class="cls-18" d="M53.73,70.74a5,5,0,0,0-2-.08v-.13c1.82-.15,2,.12,2,.21Z"/></g><g id="_Group_145" data-name="&lt;Group&gt;"><path id="_Path_167" data-name="&lt;Path&gt;" class="cls-1" d="M53.18,69c0-.69,0-.85,0-.85Z"/></g><g id="_Group_146" data-name="&lt;Group&gt;"><path id="_Path_168" data-name="&lt;Path&gt;" class="cls-18" d="M52.76,64.64l-.12-.06a12.37,12.37,0,0,1,1.71-2.31c.1.11-.78,1-1.59,2.37Z"/></g><g id="_Group_147" data-name="&lt;Group&gt;"><path id="_Path_169" data-name="&lt;Path&gt;" class="cls-18" d="M54.35,62.9l-.09-.09a10.52,10.52,0,0,0,1.3-1.6,4.93,4.93,0,0,1-1.21,1.69Z"/></g><g id="_Group_148" data-name="&lt;Group&gt;"><path id="_Path_170" data-name="&lt;Path&gt;" class="cls-18" d="M53,62.81a12.27,12.27,0,0,0-.1-1.39c-.06-.67-.11-.92.12-1.33a4,4,0,0,1,.71-.81,2.17,2.17,0,0,0,.46-.51,3.93,3.93,0,0,0,.35-1.47,1.75,1.75,0,0,1,.6-1.22c.06.1-.46.62-.46,1.22a3.58,3.58,0,0,1-.28,1.29,2.25,2.25,0,0,1-.57.78,3.65,3.65,0,0,0-.68.79A1.75,1.75,0,0,0,53,61.4c.05.33.07.77.13,1.41Z"/></g><g id="_Group_149" data-name="&lt;Group&gt;"><path id="_Path_171" data-name="&lt;Path&gt;" class="cls-18" d="M53,61.66A3.19,3.19,0,0,1,52.64,60c0-.13.17-.26.33-.46a2.74,2.74,0,0,0,1-2.86l.14,0a2.93,2.93,0,0,1-1,3,1.38,1.38,0,0,0-.34.4A6.27,6.27,0,0,0,53,61.66Z"/></g><g id="_Group_150" data-name="&lt;Group&gt;"><path id="_Path_172" data-name="&lt;Path&gt;" class="cls-18" d="M51.32,60.63a19,19,0,0,1-1.83-1.35l.07-.12a14,14,0,0,1,1.77,1.46Z"/></g><g id="_Group_151" data-name="&lt;Group&gt;"><path id="_Path_173" data-name="&lt;Path&gt;" class="cls-18" d="M51.55,60a4,4,0,0,1-.73-.24,3.8,3.8,0,0,1-.52-.24,1.91,1.91,0,0,0-.38-.18V59.2a1.28,1.28,0,0,1,.44.2c.18.09.36.19.5.25a5.24,5.24,0,0,1,.77.31s-.05,0-.08,0Z"/></g><g id="_Group_152" data-name="&lt;Group&gt;"><path id="_Path_174" data-name="&lt;Path&gt;" class="cls-18" d="M51,59.45c-.14-.05-.09-.27-.31-.56a1.45,1.45,0,0,0-.33-.34,2,2,0,0,1-.87-1.18l.14,0a1.87,1.87,0,0,0,.8,1.1,3,3,0,0,1,.39.35,1,1,0,0,1,.18.65Z"/></g><g id="_Group_153" data-name="&lt;Group&gt;"><path id="_Path_175" data-name="&lt;Path&gt;" class="cls-18" d="M52.52,59.18a13.09,13.09,0,0,1,.12-2,13.39,13.39,0,0,1,0,2l-.14,0Z"/></g><g id="_Group_154" data-name="&lt;Group&gt;"><path id="_Path_176" data-name="&lt;Path&gt;" class="cls-18" d="M53.15,58.88c-.13-.08.3-1,.3-2h.14a5.16,5.16,0,0,1-.44,2Z"/></g><g id="_Group_155" data-name="&lt;Group&gt;"><path id="_Path_177" data-name="&lt;Path&gt;" class="cls-18" d="M52.52,58.82a3.3,3.3,0,0,1-.26-.85c0-.11,0-.19,0-.33a1.39,1.39,0,0,0-.21-.51c.1-.1.21,0,.33.47a2,2,0,0,0,.08.35,2.63,2.63,0,0,0,.25.82l-.14,0Z"/></g><g id="_Group_156" data-name="&lt;Group&gt;"><path id="_Path_178" data-name="&lt;Path&gt;" class="cls-18" d="M50.91,57.68h-.14A3.6,3.6,0,0,1,51.15,56a.6.6,0,0,0,.12-.51c-.12-.48-.22-.75-.22-.75s.24.23.36.72a.89.89,0,0,1-.12.59,3.63,3.63,0,0,0-.38,1.62Z"/></g><g id="_Group_157" data-name="&lt;Group&gt;"><path id="_Path_179" data-name="&lt;Path&gt;" class="cls-18" d="M51.41,55.78c-.12-.09.31-.78.94-1.06l.06.12a2.94,2.94,0,0,0-1,.94Z"/></g><g id="_Group_158" data-name="&lt;Group&gt;"><path id="_Path_180" data-name="&lt;Path&gt;" class="cls-18" d="M51.18,57l-.13-.06a4.17,4.17,0,0,1,1-1.51,1,1,0,0,1,.85-.17c0,.13-.47,0-.75.27a4,4,0,0,0-1,1.47Z"/></g><g id="_Group_159" data-name="&lt;Group&gt;"><path id="_Path_181" data-name="&lt;Path&gt;" class="cls-1" d="M50.58,54.79a2.26,2.26,0,0,0,.17,1Z"/></g><g id="_Group_160" data-name="&lt;Group&gt;"><path id="_Path_182" data-name="&lt;Path&gt;" class="cls-18" d="M51.33,55.37l-.11-.07a5.21,5.21,0,0,0,.55-1.74,2.72,2.72,0,0,1-.44,1.81Z"/></g><g id="_Group_161" data-name="&lt;Group&gt;"><path id="_Path_183" data-name="&lt;Path&gt;" class="cls-18" d="M53.66,62.86l-.14,0a8.75,8.75,0,0,1,.78-2.49c.1.09-.54,1.42-.64,2.51Z"/></g><path id="_Path_184" data-name="&lt;Path&gt;" class="cls-20" d="M50.86,57.55a.38.38,0,0,0-.34-.38.39.39,0,0,0,0,.78.38.38,0,0,0,.34-.4Z"/><g id="_Group_162" data-name="&lt;Group&gt;"><path id="_Path_185" data-name="&lt;Path&gt;" class="cls-18" d="M50.52,58a.45.45,0,0,1-.44-.47.42.42,0,0,1,.83,0,.43.43,0,0,1-.39.47Z"/></g><path id="_Path_186" data-name="&lt;Path&gt;" class="cls-20" d="M51.46,58.11a.39.39,0,0,0-.36-.38.37.37,0,0,0-.35.38.38.38,0,0,0,.35.42.4.4,0,0,0,.36-.42Z"/><g id="_Group_163" data-name="&lt;Group&gt;"><path id="_Path_187" data-name="&lt;Path&gt;" class="cls-18" d="M51.1,58.59a.45.45,0,0,1-.43-.48c0-.51.84-.5.84,0a.45.45,0,0,1-.41.48Z"/></g><path id="_Path_188" data-name="&lt;Path&gt;" class="cls-20" d="M52.76,61a.38.38,0,0,0-.35-.4.37.37,0,0,0-.34.4.37.37,0,0,0,.34.4.39.39,0,0,0,.35-.4Z"/><g id="_Group_164" data-name="&lt;Group&gt;"><path id="_Path_189" data-name="&lt;Path&gt;" class="cls-18" d="M52.41,61.42A.44.44,0,0,1,52,61a.42.42,0,0,1,.84,0,.45.45,0,0,1-.43.46Z"/></g><path id="_Path_190" data-name="&lt;Path&gt;" class="cls-20" d="M53.45,61.37a.37.37,0,0,0-.35-.4.41.41,0,0,0,0,.8.37.37,0,0,0,.35-.4Z"/><g id="_Group_165" data-name="&lt;Group&gt;"><path id="_Path_191" data-name="&lt;Path&gt;" class="cls-18" d="M53.1,61.84a.45.45,0,0,1-.41-.47.42.42,0,0,1,.83,0,.46.46,0,0,1-.42.47Z"/></g><path id="_Path_192" data-name="&lt;Path&gt;" class="cls-20" d="M50.89,65.52a.37.37,0,0,0-.34-.4.38.38,0,0,0-.34.4.37.37,0,0,0,.34.4.37.37,0,0,0,.34-.4Z"/><g id="_Group_166" data-name="&lt;Group&gt;"><path id="_Path_193" data-name="&lt;Path&gt;" class="cls-18" d="M50.55,66a.46.46,0,0,1-.42-.48.42.42,0,0,1,.83,0,.46.46,0,0,1-.41.48Z"/></g><path id="_Path_194" data-name="&lt;Path&gt;" class="cls-20" d="M52.6,66.39a.36.36,0,0,0-.36-.39.36.36,0,0,0-.33.39.39.39,0,0,0,.33.4.37.37,0,0,0,.36-.4Z"/><g id="_Group_167" data-name="&lt;Group&gt;"><path id="_Path_195" data-name="&lt;Path&gt;" class="cls-18" d="M52.24,66.85a.43.43,0,0,1-.4-.46.41.41,0,0,1,.82,0,.43.43,0,0,1-.42.46Z"/></g><path id="_Path_196" data-name="&lt;Path&gt;" class="cls-20" d="M53.62,69.78a.39.39,0,0,0-.36-.39.4.4,0,0,0,0,.79.38.38,0,0,0,.36-.4Z"/><g id="_Group_168" data-name="&lt;Group&gt;"><path id="_Path_197" data-name="&lt;Path&gt;" class="cls-18" d="M53.26,70.26a.45.45,0,0,1-.42-.48.42.42,0,0,1,.84,0,.45.45,0,0,1-.42.48Z"/></g><path id="_Path_198" data-name="&lt;Path&gt;" class="cls-20" d="M55.44,70.74a.36.36,0,1,0-.71,0,.36.36,0,1,0,.71,0Z"/><g id="_Group_169" data-name="&lt;Group&gt;"><path id="_Path_199" data-name="&lt;Path&gt;" class="cls-18" d="M55.09,71.2a.45.45,0,0,1-.44-.46.42.42,0,0,1,.83,0,.42.42,0,0,1-.39.46Z"/></g><path id="_Path_200" data-name="&lt;Path&gt;" class="cls-20" d="M56.36,70.7a.37.37,0,0,0-.35-.4.36.36,0,0,0-.34.4.37.37,0,0,0,.34.4.39.39,0,0,0,.35-.4Z"/><g id="_Group_170" data-name="&lt;Group&gt;"><path id="_Path_201" data-name="&lt;Path&gt;" class="cls-18" d="M56,71.16a.47.47,0,0,1-.43-.46.43.43,0,0,1,.86,0,.45.45,0,0,1-.43.46Z"/></g><path id="_Path_202" data-name="&lt;Path&gt;" class="cls-20" d="M59.22,71.34a.36.36,0,0,0-.34-.39.36.36,0,0,0-.33.39.37.37,0,0,0,.33.4.38.38,0,0,0,.34-.4Z"/><g id="_Group_171" data-name="&lt;Group&gt;"><path id="_Path_203" data-name="&lt;Path&gt;" class="cls-18" d="M58.88,71.8a.44.44,0,0,1-.41-.46.42.42,0,0,1,.83,0,.45.45,0,0,1-.42.46Z"/></g><g id="_Group_172" data-name="&lt;Group&gt;"><path id="_Path_204" data-name="&lt;Path&gt;" class="cls-1" d="M79.53,76.83c-.46-.72-.74-.78-.74-.78Z"/></g><g id="_Group_173" data-name="&lt;Group&gt;"><path id="_Path_205" data-name="&lt;Path&gt;" class="cls-1" d="M79.37,77.08c-.44-.72-.72-.79-.72-.79Z"/></g><g id="_Group_174" data-name="&lt;Group&gt;"><path id="_Path_206" data-name="&lt;Path&gt;" class="cls-1" d="M79.17,77.29c-.46-.72-.74-.78-.74-.78Z"/></g><g id="_Group_175" data-name="&lt;Group&gt;"><path id="_Path_207" data-name="&lt;Path&gt;" class="cls-1" d="M79,77.54c-.42-.71-.7-.78-.7-.78Z"/></g><g id="_Group_176" data-name="&lt;Group&gt;"><path id="_Path_208" data-name="&lt;Path&gt;" class="cls-1" d="M78.79,77.72c-.44-.72-.74-.78-.74-.78Z"/></g><g id="_Group_177" data-name="&lt;Group&gt;"><path id="_Path_209" data-name="&lt;Path&gt;" class="cls-1" d="M78.65,78c-.45-.73-.74-.79-.74-.79Z"/></g><g id="_Group_178" data-name="&lt;Group&gt;"><path id="_Path_210" data-name="&lt;Path&gt;" class="cls-1" d="M78.43,78.14c-.45-.71-.74-.78-.74-.78Z"/></g><g id="_Group_179" data-name="&lt;Group&gt;"><path id="_Path_211" data-name="&lt;Path&gt;" class="cls-1" d="M78.29,78.4c-.45-.72-.75-.79-.75-.79Z"/></g><g id="_Group_180" data-name="&lt;Group&gt;"><path id="_Path_212" data-name="&lt;Path&gt;" class="cls-1" d="M78.07,78.58c-.42-.71-.71-.78-.71-.78Z"/></g><g id="_Group_181" data-name="&lt;Group&gt;"><g id="_Clip_Group_11" data-name="&lt;Clip Group&gt;"><g class="cls-21"><path id="_Path_213" data-name="&lt;Path&gt;" class="cls-6" d="M79,76.23c-1.06-1-2.39-.69-3-.76A1.77,1.77,0,0,0,74.45,75c-.54.23-.87,1.4-.87,1.55,0,.33.58.57,1.06.61s1.59,0,1.94.07.88.65.88.65A10.12,10.12,0,0,1,79,76.23Z"/></g></g></g><g id="_Group_182" data-name="&lt;Group&gt;"><path id="_Compound_Path_39" data-name="&lt;Compound Path&gt;" d="M77.46,78l-.08-.11c-.14-.15-.53-.57-.8-.61l-1,0c-.38,0-.75,0-1,0-.48,0-1.16-.3-1.16-.71,0-.19.33-1.4.91-1.64a2,2,0,0,1,1.77.49l.8,0a2.91,2.91,0,0,1,2.16.78,19.61,19.61,0,0,0-1.57,1.79l-.09.11ZM74.8,75a1,1,0,0,0-.33.06c-.45.2-.78,1.3-.78,1.45s.47.46,1,.5c.24,0,.61,0,1,0s.78,0,1,0a1.88,1.88,0,0,1,.86.58A8.37,8.37,0,0,1,79,76.12a3.47,3.47,0,0,0-2-.54H76.3l-.28,0A2.14,2.14,0,0,0,74.8,75Z"/></g><g id="_Group_183" data-name="&lt;Group&gt;"><g id="_Clip_Group_12" data-name="&lt;Clip Group&gt;"><g class="cls-22"><path id="_Path_214" data-name="&lt;Path&gt;" class="cls-6" d="M76,76.15c0-.54-.35-.82-.68-.75a26.06,26.06,0,0,1-3,.92c-.62,0-1.68-.6-1.68-1s1.54-.94,1.54-.94l1.07.33a6.84,6.84,0,0,1,2.14-.65c.82,0,1.29.51,1.24.91A2.8,2.8,0,0,1,76,76.15Z"/></g></g></g><g id="_Group_184" data-name="&lt;Group&gt;"><path id="_Compound_Path_40" data-name="&lt;Compound Path&gt;" d="M72.25,76.44a2.3,2.3,0,0,1-1.12-.38c-.18-.11-.64-.42-.64-.73s1.24-.9,1.63-1l1.12.32A6,6,0,0,1,75.36,74a1.65,1.65,0,0,1,1.18.44.8.8,0,0,1,.18.58c0,.32-.59,1.27-.76,1.27-.11-.53-.35-.77-.6-.77a7.42,7.42,0,0,0-1,.33,10.58,10.58,0,0,1-2.1.62Zm-.13-1.94c-.64.25-1.39.64-1.39.83s.17.32.52.55a2.2,2.2,0,0,0,1,.34v.11l0-.11a10.3,10.3,0,0,0,2-.62,8.18,8.18,0,0,1,.92-.31.74.74,0,0,1,.8.77,9.78,9.78,0,0,0,.46-1.1.47.47,0,0,0-.16-.39,1.26,1.26,0,0,0-1-.39,6.74,6.74,0,0,0-2.09.63l-1.15-.31Z"/></g><g id="_Group_185" data-name="&lt;Group&gt;"><path id="_Path_215" data-name="&lt;Path&gt;" d="M75.3,76.57h-.11a4.86,4.86,0,0,1-.94-.15.5.5,0,0,0-.58.15c-.12-.18.09-.43.28-.43a1.5,1.5,0,0,1,.33.07,8.65,8.65,0,0,0,.93.15c.69,0,.7-.31.7-.43l.25,0c0,.24-.2.62-.86.62Z"/></g><g id="_Group_186" data-name="&lt;Group&gt;"><path id="_Path_216" data-name="&lt;Path&gt;" d="M48.66,76.88l-.16-.11c.42-.74.75-.82.78-.84.06.21-.22.3-.62.95Z"/></g><g id="_Group_187" data-name="&lt;Group&gt;"><path id="_Path_217" data-name="&lt;Path&gt;" d="M48.8,77.13,48.64,77c.42-.73.75-.83.78-.84,0,.21-.19.3-.62.95Z"/></g><g id="_Group_188" data-name="&lt;Group&gt;"><path id="_Path_218" data-name="&lt;Path&gt;" d="M49,77.35l-.18-.12c.47-.74.78-.82.83-.82,0,.21-.24.29-.65.94Z"/></g><g id="_Group_189" data-name="&lt;Group&gt;"><path id="_Path_219" data-name="&lt;Path&gt;" d="M49.19,77.59,49,77.48c.44-.72.75-.83.8-.83.05.22-.22.3-.61.94Z"/></g><g id="_Group_190" data-name="&lt;Group&gt;"><path id="_Path_220" data-name="&lt;Path&gt;" d="M49.39,77.78l-.18-.12c.45-.72.78-.82.79-.83.08.21-.2.3-.61,1Z"/></g><g id="_Group_191" data-name="&lt;Group&gt;"><path id="_Path_221" data-name="&lt;Path&gt;" d="M49.55,78l-.21-.11c.49-.73.79-.83.82-.84.05.21-.22.3-.61,1Z"/></g><g id="_Group_192" data-name="&lt;Group&gt;"><path id="_Path_222" data-name="&lt;Path&gt;" d="M49.78,78.21l-.2-.13c.45-.72.76-.81.78-.83.08.22-.2.3-.58,1Z"/></g><g id="_Group_193" data-name="&lt;Group&gt;"><path id="_Path_223" data-name="&lt;Path&gt;" d="M49.92,78.46l-.2-.11c.46-.75.77-.83.82-.84,0,.21-.22.3-.62.95Z"/></g><g id="_Group_194" data-name="&lt;Group&gt;"><path id="_Path_224" data-name="&lt;Path&gt;" d="M50.08,78.63l-.16-.1c.44-.75.75-.84.77-.85.08.21-.2.3-.61.95Z"/></g><g id="_Group_195" data-name="&lt;Group&gt;"><g id="_Clip_Group_13" data-name="&lt;Clip Group&gt;"><g class="cls-23"><path id="_Path_225" data-name="&lt;Path&gt;" class="cls-6" d="M49,76.23c1.08-1,2.41-.69,3-.76A1.75,1.75,0,0,1,53.66,75c.52.23.85,1.4.85,1.55,0,.33-.59.57-1.06.61s-1.57,0-1.94.07-.88.65-.88.65A9.22,9.22,0,0,0,49,76.23Z"/></g></g></g><g id="_Group_196" data-name="&lt;Group&gt;"><path id="_Compound_Path_41" data-name="&lt;Compound Path&gt;" d="M50.63,78l-.09-.11A9.66,9.66,0,0,0,49,76.32a2.46,2.46,0,0,1,2.15-1h.64a2.48,2.48,0,0,1,1.89-.47c.62.24.93,1.45.93,1.64,0,.41-.66.68-1.16.71-.24,0-.61,0-1,0l-1,0c-.28,0-.67.46-.8.61l-.09.11Zm.52-2.46a2.63,2.63,0,0,0-2,.72c.41.11,1.22,1.08,1.49,1.39a1.84,1.84,0,0,1,.88-.58c.18,0,.56,0,1,0s.75,0,1,0c.47,0,.95-.28.95-.5s-.31-1.25-.78-1.45a1.82,1.82,0,0,0-1.52.45l0,0h-.92Z"/></g><g id="_Group_197" data-name="&lt;Group&gt;"><g id="_Clip_Group_14" data-name="&lt;Clip Group&gt;"><g class="cls-24"><path id="_Path_226" data-name="&lt;Path&gt;" class="cls-6" d="M52.15,76.15c0-.54.33-.82.69-.75a25.47,25.47,0,0,0,3,.92c.62,0,1.67-.6,1.67-1s-1.54-.94-1.54-.94l-1.06.33a6.83,6.83,0,0,0-2.16-.65c-.8,0-1.27.51-1.22.91a2.78,2.78,0,0,0,.66,1.17Z"/></g></g></g><g id="_Group_198" data-name="&lt;Group&gt;"><path id="_Compound_Path_42" data-name="&lt;Compound Path&gt;" d="M55.84,76.44h0a10.15,10.15,0,0,1-2.09-.62c-.41-.16-.76-.28-.9-.32a.59.59,0,0,0-.57.65c-.28.11-.86-.85-.88-1.16a.7.7,0,0,1,.22-.59A1.51,1.51,0,0,1,52.71,74a7,7,0,0,1,2.21.65l1-.33c.47.14,1.7.6,1.7,1s-1.11,1.11-1.75,1.11Zm-3.13-1.16a5.92,5.92,0,0,1,1.07.32,9.86,9.86,0,0,0,2,.62l0,.11v-.11c.6,0,1.52-.59,1.52-.89s-.77-.58-1.47-.83l-1,.33a7.94,7.94,0,0,0-2.21-.65,1.32,1.32,0,0,0-1,.37.52.52,0,0,0-.16.41,2.81,2.81,0,0,0,.61,1.1.56.56,0,0,1,.52-.78Z"/></g><g id="_Group_199" data-name="&lt;Group&gt;"><path id="_Path_227" data-name="&lt;Path&gt;" d="M52.79,76.57c-.69,0-.83-.38-.83-.62l.22,0c0,.31.28.46.72.43a7.84,7.84,0,0,0,.91-.15,2,2,0,0,1,.33-.07c.18,0,.4.23.45.3a1,1,0,0,1-.45-.07l-.29,0a5.12,5.12,0,0,1-1,.15Z"/></g><g id="_Group_200" data-name="&lt;Group&gt;"><g id="_Clip_Group_15" data-name="&lt;Clip Group&gt;"><g class="cls-25"><path id="_Path_228" data-name="&lt;Path&gt;" class="cls-6" d="M64.18,71.72C57,71.55,54.07,72.93,54,73.93a1.79,1.79,0,0,0,1.35,1.79c.48,0,1.69-.62,1.64-.87s-.22-.24-.1-.31a31.47,31.47,0,0,1,7.3-.61c4.55,0,7.11.46,7.16.61s-.35.29-.6.54c1-.09,1.28.53,1.77.57A1.71,1.71,0,0,0,74,74c0-1-3-2.14-9.79-2.28Z"/></g></g></g><g id="_Group_201" data-name="&lt;Group&gt;"><path id="_Compound_Path_43" data-name="&lt;Compound Path&gt;" d="M55.39,75.83a1.57,1.57,0,0,1-.9-.48,2.24,2.24,0,0,1-.57-1.42c0-1.13,2.92-2.33,9.13-2.33h1.13c5.08.11,8.71.79,9.65,1.81a.79.79,0,0,1,.26.58,1.88,1.88,0,0,1-1.48,1.76h0a1,1,0,0,1-.6-.25,1.77,1.77,0,0,0-1-.33h-.24l0-.17.33-.28c.09,0,.22-.13.22-.16a33.09,33.09,0,0,0-7-.53,32.18,32.18,0,0,0-7.25.6l.12,0-.05.37a3.26,3.26,0,0,1-1.66.77Zm7.66-4c-6.43,0-8.87,1.31-8.91,2.13a1.89,1.89,0,0,0,.51,1.25,1.27,1.27,0,0,0,.74.41,2.63,2.63,0,0,0,1.52-.73c-.1,0-.16-.11-.16-.23.33-.3,2.93-.81,7.48-.81,4,0,7.19.36,7.25.69,0,.17-.11.29-.3.4a1.27,1.27,0,0,0-.28.23,1.33,1.33,0,0,1,1.22.18.93.93,0,0,0,.44.21h0A1.61,1.61,0,0,0,73.86,74a.55.55,0,0,0-.17-.42c-.36-.37-2.08-1.59-9.51-1.75l-1.13,0Z"/></g><polygon id="_Path_229" data-name="&lt;Path&gt;" class="cls-14" points="56.41 74.13 56.01 73.01 56.67 72.79 56.72 72.92 56.17 73.1 56.31 73.44 56.81 73.27 56.86 73.4 56.36 73.58 56.48 73.96 57.05 73.76 57.1 73.91 56.41 74.13"/><path id="_Path_230" data-name="&lt;Path&gt;" class="cls-14" d="M58.69,72.46h.14l.06.7v.3a.33.33,0,0,1-.11.19.58.58,0,0,1-.23.09.59.59,0,0,1-.27,0,.41.41,0,0,1-.14-.15,2,2,0,0,1-.06-.3L58,72.52h.12l.08.7c0,.1,0,.18,0,.24a.5.5,0,0,0,.11.1.38.38,0,0,0,.16,0c.09,0,.17,0,.19-.11a.4.4,0,0,0,0-.32Z"/><polygon id="_Path_231" data-name="&lt;Path&gt;" class="cls-14" points="60.13 73.51 60.13 72.34 60.27 72.34 60.27 73.37 60.77 73.37 60.77 73.51 60.13 73.51"/><rect id="_Path_232" data-name="&lt;Path&gt;" class="cls-14" x="61.01" y="72.29" width="0.17" height="1.22"/><path id="_Path_233" data-name="&lt;Path&gt;" class="cls-14" d="M62.1,73.1l.11,0a.59.59,0,0,1-.14.32.29.29,0,0,1-.23.1.35.35,0,0,1-.24-.08c-.05-.06-.06-.14-.12-.23a2.08,2.08,0,0,1,0-.36,1.63,1.63,0,0,1,0-.33c.06-.1.07-.16.15-.22a.34.34,0,0,1,.21-.08.29.29,0,0,1,.23.1.4.4,0,0,1,.12.26l-.12,0a.29.29,0,0,0-.09-.2.17.17,0,0,0-.14-.06.22.22,0,0,0-.16.07.5.5,0,0,0-.11.19.93.93,0,0,0,0,.23,1.37,1.37,0,0,0,0,.3.74.74,0,0,0,.11.16.22.22,0,0,0,.16.06.2.2,0,0,0,.17-.08c.05,0,.06-.12.09-.23Z"/><path id="_Path_234" data-name="&lt;Path&gt;" class="cls-14" d="M66.08,73.49V72.34h.22l.25.82c0,.08,0,.14.06.16a.67.67,0,0,1,0-.19l.25-.79h.19v1.15H67v-1l-.3,1h-.13l-.31-1v1Z"/><rect id="_Path_235" data-name="&lt;Path&gt;" class="cls-14" x="67.29" y="72.36" width="0.17" height="1.18"/><polygon id="_Path_236" data-name="&lt;Path&gt;" class="cls-14" points="67.72 73.56 67.72 72.38 67.83 72.38 68.32 73.31 68.32 72.38 68.43 72.38 68.43 73.56 68.29 73.56 67.83 72.64 67.83 73.56 67.72 73.56"/><rect id="_Path_237" data-name="&lt;Path&gt;" class="cls-14" x="68.74" y="72.43" width="0.14" height="1.13"/><path id="_Path_238" data-name="&lt;Path&gt;" class="cls-14" d="M69.77,73.33l.15,0a1,1,0,0,1-.19.32.42.42,0,0,1-.29.07.37.37,0,0,1-.23-.1.63.63,0,0,1-.12-.26,1.78,1.78,0,0,1,0-.34,1.93,1.93,0,0,1,.09-.33.81.81,0,0,1,.19-.21.59.59,0,0,1,.27,0,.47.47,0,0,1,.23.12.5.5,0,0,1,.1.28l-.13,0a.41.41,0,0,0-.09-.2.16.16,0,0,0-.14-.08.21.21,0,0,0-.19,0,.39.39,0,0,0-.11.17.85.85,0,0,0-.08.24v.28a.63.63,0,0,0,.11.19c0,.06.11.06.12.08a.32.32,0,0,0,.22-.06.38.38,0,0,0,.11-.23Z"/><polygon id="_Path_239" data-name="&lt;Path&gt;" class="cls-14" points="70.96 74.02 71.23 72.79 71.37 72.82 71.65 73.9 71.87 72.93 71.98 72.95 71.72 74.19 71.61 74.16 71.29 73.09 71.09 74.06 70.96 74.02"/><path id="_Compound_Path_44" data-name="&lt;Compound Path&gt;" class="cls-14" d="M55.47,74.53,55,73.39l.38-.17a.76.76,0,0,1,.21,0,.21.21,0,0,1,.15.07s.06.09.09.15a.37.37,0,0,1,0,.23.37.37,0,0,1-.14.19l.08,0A.55.55,0,0,1,56,74l.28.23-.15.07-.22-.18a.71.71,0,0,0-.11-.12.36.36,0,0,0-.11,0l-.09,0s0,0,0,0l-.14,0,.21.51Zm-.15-.69.26-.12a.22.22,0,0,0,.12-.06.1.1,0,0,0,0-.1.25.25,0,0,0,0-.12s-.06-.1-.11-.11-.09,0-.15,0l-.32.12Z"/><path id="_Compound_Path_45" data-name="&lt;Compound Path&gt;" class="cls-14" d="M57.31,73.86l-.26-1.18.39-.09h.14a.32.32,0,0,1,.14,0c.05,0,.06.06.11.1a.3.3,0,0,1,.05.16.29.29,0,0,1,0,.27c0,.08-.12.13-.27.17l-.26,0,.12.49Zm0-.65.27,0a.57.57,0,0,0,.16-.09.36.36,0,0,0,0-.18.15.15,0,0,0-.08-.12s-.07,0-.1,0h-.14l-.23.06Z"/><path id="_Compound_Path_46" data-name="&lt;Compound Path&gt;" class="cls-14" d="M59.19,73.6l-.08-1.19h.36a.39.39,0,0,1,.19,0,.56.56,0,0,1,.11.11.29.29,0,0,1,0,.16.22.22,0,0,1,0,.14.14.14,0,0,1-.09.12.26.26,0,0,1,.17.09.41.41,0,0,1,0,.19.71.71,0,0,1,0,.15.14.14,0,0,1-.08.12.22.22,0,0,1-.09.07l-.15,0Zm.09-.69.19,0a.26.26,0,0,0,.14,0,.09.09,0,0,0,0-.07s0,0,0-.1a.2.2,0,0,0,0-.11l-.08,0s-.06,0-.14,0h-.19Zm0,.55.24,0h.09l.08,0s0-.05,0-.07a.37.37,0,0,0,0-.11.7.7,0,0,0,0-.12.24.24,0,0,1-.08-.06H59.3Z"/><path id="_Compound_Path_47" data-name="&lt;Compound Path&gt;" class="cls-14" d="M62.34,73.51l.4-1.25h.11l.41,1.25h-.14L63,73.13h-.4l-.12.38Zm.28-.51H63l-.13-.35a1,1,0,0,0-.06-.25.87.87,0,0,1,0,.22Z"/><path id="_Compound_Path_48" data-name="&lt;Compound Path&gt;" class="cls-14" d="M64,73.51V72.29h.48a.35.35,0,0,1,.18.1.55.55,0,0,1,.11.2.89.89,0,0,1,0,.29.66.66,0,0,1,0,.25.21.21,0,0,1-.07.17.63.63,0,0,1-.07.12.3.3,0,0,1-.15.06l-.14,0Zm.11-.15h.23l.14,0a.23.23,0,0,0,.1-.07.4.4,0,0,0,.08-.15c0-.06,0-.14,0-.23a.54.54,0,0,0-.06-.3.27.27,0,0,0-.13-.13s-.09,0-.14,0h-.23Z"/><path id="_Compound_Path_49" data-name="&lt;Compound Path&gt;" class="cls-14" d="M65,72.91a1.08,1.08,0,0,1,.12-.5.38.38,0,0,1,.32-.18.35.35,0,0,1,.22.09.57.57,0,0,1,.15.23c0,.1,0,.22,0,.34s0,.24,0,.35a.71.71,0,0,1-.15.22.59.59,0,0,1-.22.08.57.57,0,0,1-.24-.08.58.58,0,0,1-.12-.25.64.64,0,0,1-.08-.3Zm.12,0a.72.72,0,0,0,.1.35.26.26,0,0,0,.22.14.33.33,0,0,0,.22-.15.63.63,0,0,0,.06-.36.77.77,0,0,0,0-.27.45.45,0,0,0-.09-.17.23.23,0,0,0-.16-.08c-.1,0-.14,0-.22.13a.76.76,0,0,0-.1.41Z"/><path id="_Compound_Path_50" data-name="&lt;Compound Path&gt;" class="cls-14" d="M69.92,73.76l.62-1.17.14,0L70.82,74l-.14,0,0-.41-.42-.09-.16.35Zm.39-.46.33.07,0-.36a1.58,1.58,0,0,1,0-.28c0,.07-.08.16-.1.22Z"/><path id="_Compound_Path_51" data-name="&lt;Compound Path&gt;" class="cls-14" d="M71.82,74.22l.85-1,.12,0-.15,1.35-.11-.05,0-.41L72.22,74l-.27.31Zm.47-.36.29.14,0-.36a1.66,1.66,0,0,0,0-.28,1.73,1.73,0,0,1-.14.2Z"/><path id="_Path_240" data-name="&lt;Path&gt;" class="cls-6" d="M67.47,75.24a1.94,1.94,0,0,0-1.78-.11l0,.78a2.39,2.39,0,0,1,.76.11l.74.37Z"/><g id="_Group_202" data-name="&lt;Group&gt;"><path id="_Compound_Path_52" data-name="&lt;Compound Path&gt;" d="M67.29,76.54l-.85-.42a2.78,2.78,0,0,0-.72-.09l-.14-.9a2,2,0,0,1,1.92,0l-.21,1.41Zm-1.23-.7a1.07,1.07,0,0,1,.47.09l.61.3.22-1a8.21,8.21,0,0,0-1.61,0l.06.67s.11,0,.25,0Z"/></g><path id="_Path_241" data-name="&lt;Path&gt;" class="cls-6" d="M60.63,75.29a2,2,0,0,1,1.8-.11l0,.78a2.21,2.21,0,0,0-.76.12l-.75.36Z"/><g id="_Group_203" data-name="&lt;Group&gt;"><path id="_Compound_Path_53" data-name="&lt;Compound Path&gt;" d="M60.82,76.6l-.28-1.29a2.05,2.05,0,0,1,2-.23V76c-.25.1-.67.11-.83.19l-.86.43Zm.92-1.45a2.66,2.66,0,0,0-1.06.25l.28.88.61-.3a2.64,2.64,0,0,1,.82-.14l0-.63c-.05,0-.27-.06-.6-.06Z"/></g><path id="_Path_242" data-name="&lt;Path&gt;" class="cls-6" d="M63.39,75v1.13c0,.07.25.16.64.16a1.32,1.32,0,0,0,.61-.16V75a1.87,1.87,0,0,0-.72-.11,1.06,1.06,0,0,0-.53.16Z"/><g id="_Group_204" data-name="&lt;Group&gt;"><path id="_Compound_Path_54" data-name="&lt;Compound Path&gt;" d="M64,76.44a1.07,1.07,0,0,1-.74-.21V75c.11-.18.3-.24.63-.28a4.85,4.85,0,0,1,.74.12l.07,1.29a.86.86,0,0,1-.7.28Zm-.53-.28,1.06-.1,0-1s-.25,0-.48,0a1.23,1.23,0,0,0-.55.12l0,1.07Z"/></g><path id="_Path_243" data-name="&lt;Path&gt;" class="cls-6" d="M64.64,76.23c.19.33,1.49.22,1.51-.07a3.45,3.45,0,0,0,0-.69H64.64Z"/><g id="_Group_205" data-name="&lt;Group&gt;"><path id="_Compound_Path_55" data-name="&lt;Compound Path&gt;" d="M65.3,76.54h0c-.24,0-.64,0-.76-.25l0-.82,1.66-.11a1.48,1.48,0,0,1,.1.81c0,.3-.64.37-1,.37Zm.76-1.07-1.42.11.09.65a4,4,0,0,0,1.3-.08,3.7,3.7,0,0,0,0-.68Z"/></g><path id="_Path_244" data-name="&lt;Path&gt;" class="cls-6" d="M64.64,75a2.7,2.7,0,0,1,1-.23.85.85,0,0,1,.54.26l-.07,1a.8.8,0,0,0-.55-.26,2,2,0,0,0-.94.32Z"/><g id="_Group_206" data-name="&lt;Group&gt;"><path id="_Compound_Path_56" data-name="&lt;Compound Path&gt;" d="M64.51,76.3V75a2,2,0,0,1,1-.34,1.09,1.09,0,0,1,.74.3l0,1.11c-.26,0-.48-.16-.64-.16a1.92,1.92,0,0,0-.92.32l-.18.09Zm1.07-.62a.83.83,0,0,1,.64.3l-.11-1s-.17-.11-.45-.14a2.18,2.18,0,0,0-1,.21l0,.85a2.26,2.26,0,0,1,.85-.25Z"/></g><path id="_Path_245" data-name="&lt;Path&gt;" class="cls-6" d="M63.39,76.25c-.21.32-1.48.22-1.54-.07s0-.7,0-.7h1.55Z"/><g id="_Group_207" data-name="&lt;Group&gt;"><path id="_Compound_Path_57" data-name="&lt;Compound Path&gt;" d="M62.74,76.57c-.34,0-1-.09-1-.38s0-.71,0-.71l1.65-.1.11.87c-.14.28-.55.32-.76.32Zm-.83-1a2.24,2.24,0,0,1,.07.58,2.41,2.41,0,0,0,1.31,0v-.72l-1.38.11Z"/></g><path id="_Path_246" data-name="&lt;Path&gt;" class="cls-6" d="M63.39,75a2.56,2.56,0,0,0-1-.23.82.82,0,0,0-.55.27l.06,1a.77.77,0,0,1,.55-.25,2.07,2.07,0,0,1,1,.32Z"/><g id="_Group_208" data-name="&lt;Group&gt;"><path id="_Compound_Path_58" data-name="&lt;Compound Path&gt;" d="M63.5,76.32l-.16-.09a2,2,0,0,0-.91-.31h0a.79.79,0,0,0-.45.19L61.7,75a.78.78,0,0,1,.64-.36,3.27,3.27,0,0,1,1.09.22l.07,1.43Zm-1.1-.62a2.3,2.3,0,0,1,.89.25V75a7.49,7.49,0,0,0-.84-.11,1,1,0,0,0-.57.21l.1.83a.51.51,0,0,1,.42-.22Z"/></g></g></g></g></g></g></g></g></g></g></svg>