<svg id="Layer_1" data-name="Layer 1" xmlns="http://www.w3.org/2000/svg" xmlns:xlink="http://www.w3.org/1999/xlink" viewBox="0 0 128 128"><defs><style>.cls-1{fill:none;}.cls-2{clip-path:url(#clip-path);}.cls-3{clip-path:url(#clip-path-2);}.cls-4{fill:#fff;}.cls-5{fill:#307439;}.cls-6{fill:#bf1f3e;}</style><clipPath id="clip-path"><circle class="cls-1" cx="64" cy="64" r="64"/></clipPath><clipPath id="clip-path-2"><rect id="_Clipping_Path_" data-name="&lt;Clipping Path&gt;" class="cls-1" x="-45.74" width="219.47" height="128"/></clipPath></defs><title>Flag_circle_Algeria</title><g class="cls-2"><g id="ALGERIA"><g id="_Group_" data-name="&lt;Group&gt;"><g id="_Clip_Group_" data-name="&lt;Clip Group&gt;"><g class="cls-3"><g id="_Group_2" data-name="&lt;Group&gt;"><rect id="_Path_" data-name="&lt;Path&gt;" class="cls-4" x="-45.74" width="219.47" height="128"/><path id="_Compound_Path_" data-name="&lt;Compound Path&gt;" d="M174.07,128.33H-46.07V-.36H174.07V128.33Zm-219.47-.66H173.4V.31H-45.4V127.67Z"/></g><rect id="_Path_2" data-name="&lt;Path&gt;" class="cls-5" x="-45.74" width="109.74" height="128"/><g id="_Clip_Group_2" data-name="&lt;Clip Group&gt;"><g class="cls-3"><path id="_Path_3" data-name="&lt;Path&gt;" class="cls-6" d="M87.73,84a25.61,25.61,0,1,1,4-36A32.38,32.38,0,0,0,80,36.27,32,32,0,1,0,91.71,80a26.81,26.81,0,0,1-4,4Z"/><polygon id="_Path_4" data-name="&lt;Path&gt;" class="cls-6" points="75.06 69.81 81.88 79.21 81.88 67.59 92.95 63.99 81.88 60.39 81.88 48.76 75.06 58.16 64 54.59 70.83 63.99 64 73.41 75.06 69.81"/></g></g></g></g></g></g></g></svg>