<svg id="Layer_1" data-name="Layer 1" xmlns="http://www.w3.org/2000/svg" xmlns:xlink="http://www.w3.org/1999/xlink" viewBox="0 0 128 128"><defs><style>.cls-1{fill:none;}.cls-2{clip-path:url(#clip-path);}.cls-3{fill:#fff;}.cls-4{clip-path:url(#clip-path-2);}.cls-5{fill:#eec525;}.cls-6{fill:#f3d035;}.cls-7{fill:#bc1f33;}</style><clipPath id="clip-path"><circle class="cls-1" cx="64" cy="64" r="64"/></clipPath><clipPath id="clip-path-2"><polyline id="_Clipping_Path_" data-name="&lt;Clipping Path&gt;" class="cls-1" points="174 128 -46 128 -46 0 174 0"/></clipPath></defs><title>Flag_circle_Egypt</title><g class="cls-2"><rect id="_Path_" data-name="&lt;Path&gt;" class="cls-3" x="-46" y="42.67" width="220" height="42.65"/><g id="EGYPT"><g id="_Group_" data-name="&lt;Group&gt;"><g id="_Clip_Group_" data-name="&lt;Clip Group&gt;"><g class="cls-4"><g id="_Clip_Group_4" data-name="&lt;Clip Group&gt;"><g class="cls-4"><path id="_Path_2" data-name="&lt;Path&gt;" class="cls-3" d="M62.51,84.23a44.52,44.52,0,0,0,10.55-1c1-.15,1-.69,1-1.35,1-.34.49-1.51,1.18-1.51-.69.2-.86-1.17-1.69-1,0-1.2-1.19-1.35-2.18-1-2,.66-5.53.82-8.87.82-3.34-.16-6.85-.16-8.88-.82-1-.33-2.16-.18-2.16,1-.83-.2-1,1.17-1.69,1,.69,0,.19,1.17,1.16,1.51,0,.66,0,1.2,1.05,1.35a43.89,43.89,0,0,0,10.52,1Z"/><g id="_Group_2" data-name="&lt;Group&gt;"><path id="_Compound_Path_" data-name="&lt;Compound Path&gt;" class="cls-5" d="M62.51,84.66a45,45,0,0,1-10.65-1,1.36,1.36,0,0,1-1.32-1.48A1.59,1.59,0,0,1,49.83,81c0-.08,0-.15-.07-.21h-.09a.48.48,0,0,1-.32-.48.43.43,0,0,1,.43-.36h.11c.06,0,.23-.2.33-.3a1.63,1.63,0,0,1,.89-.69c.22-1,1.41-1.38,2.66-1a28.88,28.88,0,0,0,7,.74l1.79.08c4.25,0,7.12-.26,8.73-.82,1.28-.41,2.47,0,2.67,1a1.62,1.62,0,0,1,.88.64c.1.1.24.28.28.3h.16a.44.44,0,0,1,.42.36.46.46,0,0,1-.31.48l-.08,0,0,0h0s0,.11,0,.21a1.62,1.62,0,0,1-.71,1.17,1.38,1.38,0,0,1-1.33,1.48,45.07,45.07,0,0,1-10.64,1ZM50.56,80.55a.94.94,0,0,1,.1.31c.07.35.12.53.43.63a.41.41,0,0,1,.28.39c0,.66,0,.84.69,1a42.94,42.94,0,0,0,10.45,1,42.79,42.79,0,0,0,10.44-1c.7-.13.7-.31.7-1a.4.4,0,0,1,.28-.39c.32-.1.36-.28.46-.63a1.31,1.31,0,0,1,.06-.31,2.73,2.73,0,0,0-.3-.36c-.19-.28-.31-.41-.45-.41a.43.43,0,0,1-.38-.1c-.09-.08-.19-.18-.19-.28s0-.77-.85-.77a1.92,1.92,0,0,0-.76.16c-1.69.56-4.65.81-9,.81l-1.82,0a31.14,31.14,0,0,1-7.18-.76,2,2,0,0,0-.76-.16c-.86,0-.86.57-.86.77a.36.36,0,0,1-.17.28.32.32,0,0,1-.33.1c-.23,0-.33.13-.52.41l-.31.36Z"/></g><path id="_Path_3" data-name="&lt;Path&gt;" class="cls-6" d="M53,80c-.34,0-.34.2,0,.2a.1.1,0,1,0,0-.2Z"/><g id="_Group_3" data-name="&lt;Group&gt;"><path id="_Path_4" data-name="&lt;Path&gt;" class="cls-5" d="M53,80.47c-.45,0-.46-.28-.46-.33,0-.2.28-.33.46-.33a.44.44,0,0,1,.33.33c0,.1-.21.33-.33.33Z"/></g><path id="_Path_5" data-name="&lt;Path&gt;" class="cls-6" d="M53,79.4c-.18,0-.18.31,0,.31.33,0,.33-.31,0-.31Z"/><g id="_Group_4" data-name="&lt;Group&gt;"><path id="_Path_6" data-name="&lt;Path&gt;" class="cls-5" d="M53,79.91c-.12,0-.35-.25-.35-.36s.23-.38.35-.38a.43.43,0,0,1,.48.38c0,.18-.17.36-.48.36Z"/></g><path id="_Path_7" data-name="&lt;Path&gt;" class="cls-6" d="M53,81.88c-.18,0-.18.33,0,.33s.15-.33,0-.33Z"/><g id="_Group_5" data-name="&lt;Group&gt;"><path id="_Path_8" data-name="&lt;Path&gt;" class="cls-5" d="M53,82.44c-.12,0-.35-.26-.35-.38s.23-.41.35-.41.33.28.33.41-.21.38-.33.38Z"/></g><path id="_Path_9" data-name="&lt;Path&gt;" class="cls-6" d="M53.63,82.06c-.32,0-.32.33,0,.33s.19-.33,0-.33Z"/><g id="_Group_6" data-name="&lt;Group&gt;"><path id="_Path_10" data-name="&lt;Path&gt;" class="cls-5" d="M53.63,82.62a.41.41,0,0,1-.45-.39c0-.2.26-.38.45-.38s.37.28.37.38a.42.42,0,0,1-.37.39Z"/></g><path id="_Path_11" data-name="&lt;Path&gt;" class="cls-6" d="M54.29,82.21c-.13,0-.13.33,0,.33.35,0,.35-.33,0-.33Z"/><g id="_Group_7" data-name="&lt;Group&gt;"><path id="_Path_12" data-name="&lt;Path&gt;" class="cls-5" d="M54.29,82.77c-.1,0-.32-.25-.32-.41s.22-.36.32-.36c.33,0,.5.21.5.36a.46.46,0,0,1-.5.41Z"/></g><path id="_Path_13" data-name="&lt;Path&gt;" class="cls-6" d="M64.7,80.57c-.18,0-.18.31,0,.31s.15-.31,0-.31Z"/><g id="_Group_8" data-name="&lt;Group&gt;"><path id="_Path_14" data-name="&lt;Path&gt;" class="cls-5" d="M64.7,81.11c-.16,0-.36-.25-.36-.38s.2-.41.36-.41.34.28.34.41-.23.38-.34.38Z"/></g><path id="_Path_15" data-name="&lt;Path&gt;" class="cls-6" d="M64.85,81.21c-.33,0-.33.16,0,.16s.18-.16,0-.16Z"/><g id="_Group_9" data-name="&lt;Group&gt;"><path id="_Path_16" data-name="&lt;Path&gt;" class="cls-1" d="M64.85,81.21c-.33,0-.33.16,0,.16S65,81.21,64.85,81.21Z"/></g><path id="_Path_17" data-name="&lt;Path&gt;" class="cls-6" d="M65.36,82.87c-.18,0-.18.36,0,.36s.16-.36,0-.36Z"/><g id="_Group_10" data-name="&lt;Group&gt;"><path id="_Path_18" data-name="&lt;Path&gt;" class="cls-5" d="M65.36,83.49c-.15,0-.33-.29-.33-.44s.18-.41.33-.41.35.28.35.41-.23.44-.35.44Z"/></g><path id="_Path_19" data-name="&lt;Path&gt;" class="cls-6" d="M66,82.87c-.35,0-.35.36,0,.36.14,0,.14-.36,0-.36Z"/><g id="_Group_11" data-name="&lt;Group&gt;"><path id="_Path_20" data-name="&lt;Path&gt;" class="cls-5" d="M66,83.49a.43.43,0,1,1,0-.85c.11,0,.33.28.33.41s-.17.44-.33.44Z"/></g><path id="_Path_21" data-name="&lt;Path&gt;" class="cls-6" d="M72.9,81.54c-.34,0-.34.21,0,.21a.11.11,0,1,0,0-.21Z"/><g id="_Group_12" data-name="&lt;Group&gt;"><path id="_Path_22" data-name="&lt;Path&gt;" class="cls-5" d="M72.9,82c-.46,0-.48-.25-.48-.3,0-.21.28-.33.48-.33s.35.2.35.33-.24.3-.35.3Z"/></g><g id="_Group_13" data-name="&lt;Group&gt;"><path id="_Path_23" data-name="&lt;Path&gt;" class="cls-5" d="M54.79,82.18a.89.89,0,0,1-.38-.07,1.34,1.34,0,0,1-.5-.23,1.56,1.56,0,0,1-.53-.11c-.14,0-.47-.25-.47-.76a7.55,7.55,0,0,0,.4-1.28l.13-.41a.17.17,0,0,1,.25-.12.18.18,0,0,1,.17.23l-.12.43a6,6,0,0,1-.41,1.28.48.48,0,0,0,.13.18l.33.12c0-.12.07-.23.09-.33,0-.31.12-.48.24-.54l.17.29.09,0a.5.5,0,0,1,0,.18v.08a1.9,1.9,0,0,1-.11.4s.09.08.28.13a.54.54,0,0,0,.33,0c.1,0,.17-.23.22-.56l.08,0-.22-.28a.36.36,0,0,1,.33-.1.75.75,0,0,1,.26.38,1.24,1.24,0,0,1-.45.9.43.43,0,0,1-.28.07Z"/></g><g id="_Group_14" data-name="&lt;Group&gt;"><path id="_Path_24" data-name="&lt;Path&gt;" class="cls-5" d="M53.46,81.77h-.05c-.52-.15-.83-.43-.83-.74s.14-.43.69-.53a.28.28,0,0,1,.28.18.22.22,0,0,1-.19.23c-.28,0-.33.15-.33.15a.79.79,0,0,0,.49.26.26.26,0,0,1,.15.28.21.21,0,0,1-.21.17Z"/></g><g id="_Group_15" data-name="&lt;Group&gt;"><path id="_Path_25" data-name="&lt;Path&gt;" class="cls-5" d="M58.29,83.15A.61.61,0,0,1,58,83c0,.07-.38,0-.38-.64a.82.82,0,0,1-.37-.13,1.71,1.71,0,0,1-1.22.1,1,1,0,0,1-.42.39.22.22,0,0,1-.3-.11c-.08-.1,0-.25.11-.3a.58.58,0,0,0,.28-.23.74.74,0,0,1-.09-.36.56.56,0,0,1,0-.49.48.48,0,0,1,.62.39.86.86,0,0,1,0,.3,1.25,1.25,0,0,0,.66,0,.64.64,0,0,1-.08-.74.61.61,0,0,1,.8-.33.6.6,0,0,1,.4.63.65.65,0,0,1-.29.57c.11,0,.17.12.26.15.13.43.18.43.24.43h0c.09,0,.27-.28.27-.58V80.57c0-.25.45-.25.45,0v1.49a1.32,1.32,0,0,1-.53,1.07l-.07,0Z"/></g><g id="_Group_16" data-name="&lt;Group&gt;"><path id="_Path_26" data-name="&lt;Path&gt;" class="cls-5" d="M59.17,82.62a.24.24,0,0,1-.24-.23,5.77,5.77,0,0,1,.12-1,5.78,5.78,0,0,0,.07-.85c0-.25.44-.25.44,0a5.57,5.57,0,0,1-.09.92c0,.34-.08.69-.08.9a.23.23,0,0,1-.22.23Z"/></g><g id="_Group_17" data-name="&lt;Group&gt;"><path id="_Compound_Path_2" data-name="&lt;Compound Path&gt;" class="cls-5" d="M59.67,83.61a.25.25,0,0,1-.17-.07.23.23,0,0,1,0-.34,1.28,1.28,0,0,0,.53-.63c-.11,0-.18-.16-.25-.21a.56.56,0,0,1,0-.51.51.51,0,0,1,.33-.15c.17,0,.34.18.44.46a.75.75,0,0,1,0,.15h.14s.06,0,.06-.31a.33.33,0,0,1-.11-.25c0-.15.16-.38.28-.38s.24.17.29.28h.31a1.62,1.62,0,0,0,1.19.07c.39-.07.53.21.53.67a2.92,2.92,0,0,1-.11.36c-.12.3-.22.51-.42.56a.63.63,0,0,1-.53-.26c-.07-.23-.07-.28-.33-.28H60.69a.53.53,0,0,1-.19,0,1.78,1.78,0,0,1-.69.81.18.18,0,0,1-.14,0Zm1.49-1.3h.69c.61,0,.7.36.7.56l.19-.33a1,1,0,0,0,0-.36,2.33,2.33,0,0,1-1.35-.1s-.14,0-.21,0a.42.42,0,0,1-.05.2Z"/></g><g id="_Group_18" data-name="&lt;Group&gt;"><path id="_Path_27" data-name="&lt;Path&gt;" class="cls-5" d="M63.7,82.77a.16.16,0,0,1-.13,0,.54.54,0,0,0-.33,0c-.14,0-.33-.11-.33-.21s0-.23.13-.23v.23l.11-.25c.07,0,.14,0,.25,0a.55.55,0,0,1,.15-.43.45.45,0,0,1,.55-.13.56.56,0,0,1,.33.51c0,.33-.5.56-.73.56Z"/></g><g id="_Group_19" data-name="&lt;Group&gt;"><path id="_Path_28" data-name="&lt;Path&gt;" class="cls-5" d="M65,82.72a.4.4,0,0,1-.19,0,.39.39,0,0,1-.2-.3,1,1,0,0,1,.58-.46,3.27,3.27,0,0,0-.09-1.3.22.22,0,0,1,.15-.29.24.24,0,0,1,.28.18,4.1,4.1,0,0,1,.12,1.54s.34.12.35.12.24-.07.27-.38c-.13-.15-.25-.36-.2-.43a.38.38,0,0,1,.36-.16c.09,0,.28.23.28.33s0,.11,0,.16a0,0,0,0,1,0,.07c0,.64-.19.85-.69.85a.55.55,0,0,1-.54,0s0,0,0,0a.66.66,0,0,1-.44.18Z"/></g><g id="_Group_20" data-name="&lt;Group&gt;"><path id="_Path_29" data-name="&lt;Path&gt;" class="cls-5" d="M67,83.28a.17.17,0,0,1-.14-.08.2.2,0,0,1,0-.3,1.59,1.59,0,0,0,.36-.59c-.38-.18-.45-.43-.45-.56s0-.41.23-.51.45.13.64.33a1.56,1.56,0,0,1-.47,1.63.19.19,0,0,1-.17.08Z"/></g><g id="_Group_21" data-name="&lt;Group&gt;"><path id="_Path_30" data-name="&lt;Path&gt;" class="cls-5" d="M68.22,83a.31.31,0,0,1-.22-.13c0-.13,0-.28.13-.3a.62.62,0,0,0,.31-.23c-.36,0-.5-.13-.52-.31a.61.61,0,0,1,.33-.64,1.44,1.44,0,0,1,.38-.08c.18.08.28.28.31.59a6.21,6.21,0,0,0,2-.66.21.21,0,0,1,.31,0c.06.13.05.25-.08.3a5.13,5.13,0,0,1-2.25.72.86.86,0,0,1-.61.66.09.09,0,0,1-.08,0Z"/></g><g id="_Group_22" data-name="&lt;Group&gt;"><path id="_Path_31" data-name="&lt;Path&gt;" class="cls-5" d="M70.21,82.31a.64.64,0,0,1-.23,0,1.75,1.75,0,0,1-.32-.64.93.93,0,0,0,0,.26.23.23,0,0,1-.46,0,1,1,0,0,1,.35-.79.39.39,0,0,1,0-.16l-.17-.64c0-.1,0-.25.14-.28a.22.22,0,0,1,.3.18l.16.67s0,0,0,0a.73.73,0,0,1,.39,0,.69.69,0,0,1,.43.58.63.63,0,0,1-.12.62.68.68,0,0,1-.45.15Z"/></g><g id="_Group_23" data-name="&lt;Group&gt;"><path id="_Path_32" data-name="&lt;Path&gt;" class="cls-5" d="M71.47,81.88a.67.67,0,0,1-.64-.44,1,1,0,0,1,0-.38,1,1,0,0,1,1.36-.18.68.68,0,0,1,0,.64,1,1,0,0,1-.71.36Z"/></g><g id="_Group_24" data-name="&lt;Group&gt;"><path id="_Path_33" data-name="&lt;Path&gt;" class="cls-1" d="M72,81.21l.52-.33Z"/></g><g id="_Group_25" data-name="&lt;Group&gt;"><path id="_Path_34" data-name="&lt;Path&gt;" class="cls-5" d="M72.87,81.26a.63.63,0,0,1-.28-.05c-.38-.2-.58-.69-.58-1.5,0-.16-.05-.28-.16-.28a.43.43,0,0,0-.45.1.29.29,0,0,1-.33,0,.19.19,0,0,1,0-.28A.89.89,0,0,1,72,79a.75.75,0,0,1,.4.72c0,.71.19,1,.35,1.15H73a.09.09,0,0,1,0-.06c0-.1.28-.35.39-.3s.19.3.19.38a1,1,0,0,1-.75.38Z"/></g><path id="_Path_35" data-name="&lt;Path&gt;" class="cls-3" d="M62.68,65.05l14.4,13.33-1-24.26c-.15-3.68-3.36-2.86-5.68-1.54-2.35,1.54-5,1.54-7.87.54-2.84,1-5.52,1-7.87-.54-2.32-1.32-5.52-2.14-5.66,1.54l-1,24.26Z"/><g id="_Group_26" data-name="&lt;Group&gt;"><path id="_Compound_Path_3" data-name="&lt;Compound Path&gt;" class="cls-5" d="M47.93,78.58h-.09a.24.24,0,0,1-.13-.23l1-24.26c.1-2.35,1.4-2.86,2.46-2.86a8.3,8.3,0,0,1,3.56,1.15c2.14,1.38,4.71,1.53,7.68.51,3.32,1,5.69.87,7.83-.51a8.3,8.3,0,0,1,3.52-1.15c1.1,0,2.4.51,2.49,2.86l1,24.26a.25.25,0,0,1-.11.23.32.32,0,0,1-.27,0L62.68,65.33,48.07,78.56s-.06,0-.14,0ZM51.2,51.69c-1.28,0-1.94.79-2,2.43l-1,23.75,14.33-13a.21.21,0,0,1,.32,0l14,13-1-23.75c-.1-2.76-2.24-3.09-5.33-1.33-2.23,1.43-5,1.63-8.06.53a8.68,8.68,0,0,1-7.92-.53,7.37,7.37,0,0,0-3.32-1.1Z"/></g><path id="_Path_36" data-name="&lt;Path&gt;" class="cls-3" d="M64.85,53.94a4,4,0,0,0,2.18.51c-1.67-1.2-2.18-4.37-2-5.7.33-2.68-.33-4.16-2-4.52a9.39,9.39,0,0,0-1.19-.18c-.5-.15-.91.34-1.1.67-.5-.33-.92-.13-1.42-.49-.49-.18-1.35,0-1.35,1.18l.33-.13a3.92,3.92,0,0,1,.79.36,2.36,2.36,0,0,1,1.23,1.76A7.38,7.38,0,0,1,58,54.45a3.83,3.83,0,0,0,2.16-.51,4.85,4.85,0,0,1-.81,1,3,3,0,0,0,2.33-1.35c.19.33.66.84.85,1.17.2-.33.67-.84.86-1.17A3,3,0,0,0,65.69,55a6.1,6.1,0,0,1-.84-1Z"/><g id="_Group_27" data-name="&lt;Group&gt;"><path id="_Compound_Path_4" data-name="&lt;Compound Path&gt;" class="cls-5" d="M58.72,55.27l.47-.46a2.18,2.18,0,0,1,.34-.34,5.25,5.25,0,0,1-1.55.18h-.54l.43-.38a7.05,7.05,0,0,0,2.24-6.84A1.84,1.84,0,0,0,59.19,46L59,45.82a3.09,3.09,0,0,0-.66-.34l-.5.23v-.3c0-1.36,1-1.61,1.62-1.38a1.59,1.59,0,0,0,.67.25,2.32,2.32,0,0,1,.63.16,1.24,1.24,0,0,1,.95-.64,3.7,3.7,0,0,1,1.05.18A1.72,1.72,0,0,0,63,44c1.81.39,2.53,2,2.17,4.8-.14,1.36.38,4.37,1.94,5.44l.57.41H67a5,5,0,0,1-1.51-.18c.07.08.19.21.3.36l.49.41-.67-.08A3.43,3.43,0,0,1,63.37,54c-.08.1-.18.2-.27.33a3.55,3.55,0,0,0-.39.54l-.2.33-.19-.33a4.22,4.22,0,0,0-.38-.54,3.22,3.22,0,0,0-.28-.33,3.45,3.45,0,0,1-2.27,1.17l-.67.11Zm4.62-2.05.21.31a2.48,2.48,0,0,0,1.52,1c-.09-.13-.22-.28-.37-.51l.28-.31a3.1,3.1,0,0,0,1.49.43C65,52.76,64.67,50,64.81,48.75c.31-2.6-.29-4-1.82-4.31-.13.07-.26,0-.41-.08a2.84,2.84,0,0,0-.78-.08,1,1,0,0,0-.86.54l-.09.2-.19-.1a1.12,1.12,0,0,0-.64-.23,1.68,1.68,0,0,1-.79-.28.75.75,0,0,0-1,.67h0a1.82,1.82,0,0,1,.83.3l.36.26a2.24,2.24,0,0,1,1.14,1.73,7.66,7.66,0,0,1-2,6.82,3,3,0,0,0,1.55-.43l.28.31a2.59,2.59,0,0,1-.38.51,2.47,2.47,0,0,0,1.54-1l.19-.31.17.31c.09.13.23.33.4.54a1.4,1.4,0,0,1,.26.33,3.17,3.17,0,0,1,.26-.33c.14-.21.31-.41.41-.54l.16-.31Z"/></g><g id="_Group_28" data-name="&lt;Group&gt;"><path id="_Path_37" data-name="&lt;Path&gt;" class="cls-5" d="M65,54.32a.27.27,0,0,1-.22-.13,7.28,7.28,0,0,1-1-3.44c0-.23.45-.23.45,0A6.5,6.5,0,0,0,65.17,54a.27.27,0,0,1-.1.31s0,0-.09,0Z"/></g><g id="_Group_29" data-name="&lt;Group&gt;"><path id="_Path_38" data-name="&lt;Path&gt;" class="cls-5" d="M63.37,53.84a.2.2,0,0,1-.19-.11,5.78,5.78,0,0,1-.55-3c0-.23.45-.23.45,0a5.7,5.7,0,0,0,.47,2.75.23.23,0,0,1-.07.31.17.17,0,0,1-.11,0Z"/></g><g id="_Group_30" data-name="&lt;Group&gt;"><path id="_Path_39" data-name="&lt;Path&gt;" class="cls-5" d="M60.05,54.32s-.08,0-.1,0a.23.23,0,0,1-.09-.31,6.62,6.62,0,0,0,.92-3.24c0-.23.44-.23.44,0a7,7,0,0,1-1,3.44.21.21,0,0,1-.2.13Z"/></g><g id="_Group_31" data-name="&lt;Group&gt;"><path id="_Path_40" data-name="&lt;Path&gt;" class="cls-5" d="M61.66,53.84a.19.19,0,0,1-.12,0,.25.25,0,0,1-.07-.31,5.74,5.74,0,0,0,.5-2.75c0-.23.43-.23.43,0a6.19,6.19,0,0,1-.52,3,.26.26,0,0,1-.22.11Z"/></g><path id="_Path_41" data-name="&lt;Path&gt;" class="cls-5" d="M58.11,45.25a3,3,0,0,1,1,.39,2.32,2.32,0,0,1,1.23,1.63c-.19-.53.17-1,.52-.84a2.32,2.32,0,0,0-2.74-1.18Z"/><g id="_Group_32" data-name="&lt;Group&gt;"><path id="_Compound_Path_5" data-name="&lt;Compound Path&gt;" class="cls-5" d="M60.33,47.35l-.1-.05v0h0a.88.88,0,0,1,0-.2h0a2.32,2.32,0,0,0-1.14-1.33l-.19-.2-.07.07a1.39,1.39,0,0,0-.71-.25.59.59,0,0,1,.64-.34,2.38,2.38,0,0,1,2.22,1.36s-.06,0-.09.07h-.14c-.29.21-.33.39-.3.57a.07.07,0,0,1,0,.07s0,.13.07.16a.09.09,0,0,1-.09.1Zm-1.88-2.1a1.58,1.58,0,0,1,.46.16l.23.15a2.4,2.4,0,0,1,1.09,1.07c.05-.07.1-.18.15-.18a.4.4,0,0,1,.33-.17,2.37,2.37,0,0,0-2.26-1Z"/></g><polygon id="_Path_42" data-name="&lt;Path&gt;" class="cls-5" points="63.18 67.7 65.18 76.87 64.52 77.56 63.84 77.02 62.71 68.83 63.18 77.02 62.51 77.89 61.85 77.02 62.32 68.83 61.19 77.02 60.5 77.56 59.83 76.87 61.85 67.7 63.18 67.7"/><g id="_Group_33" data-name="&lt;Group&gt;"><path id="_Compound_Path_6" data-name="&lt;Compound Path&gt;" class="cls-5" d="M62.51,78.17l-.8-1,.2-3.93-.53,3.83-.77.64L59.69,77l2-9.35,1.52-.18,2.19,9.35-.7.87-1-.51-.58-4L63.37,77l-.86,1.15Zm0-9.19L62,77l.47.57.53-.67L62.51,69ZM63,67.73l-1.14.15-1.83,9,.62.49.43-.54,1.09-8.07.35,0,.35,0L64,77l.62.38.42-.66-2.08-9Z"/></g><path id="_Path_43" data-name="&lt;Path&gt;" class="cls-5" d="M50.64,53.25l-1,23.62-1.71,1.51,1-24.26a4.37,4.37,0,0,1,1.66-.87Z"/><path id="_Path_44" data-name="&lt;Path&gt;" class="cls-5" d="M52.64,55,51.8,74.7l-1.68,1.74,1-22.83c.33.33,1.32,1.17,1.5,1.35Z"/><path id="_Path_45" data-name="&lt;Path&gt;" class="cls-5" d="M54.48,56.47l-.66,16.47-1.36,1.33.85-18.8c.32.33,1,.82,1.17,1Z"/><path id="_Path_46" data-name="&lt;Path&gt;" class="cls-5" d="M56.47,57.31l-.66,14L54.48,72.4l.67-15.6a5.87,5.87,0,0,0,1.32.51Z"/><path id="_Path_47" data-name="&lt;Path&gt;" class="cls-5" d="M58.31,57.31,57.84,69l-1.37,1.3L57,57.46a3.45,3.45,0,0,0,1.32-.15Z"/><path id="_Path_48" data-name="&lt;Path&gt;" class="cls-5" d="M74.39,53.25l1,23.62,1.68,1.51-1-24.26a4.55,4.55,0,0,0-1.67-.87Z"/><path id="_Path_49" data-name="&lt;Path&gt;" class="cls-5" d="M72.37,55l.86,19.74,1.68,1.51-1-22.6c-.33.33-1.33,1.17-1.52,1.35Z"/><path id="_Path_50" data-name="&lt;Path&gt;" class="cls-5" d="M70.55,56.47l.69,16.47,1.32,1-.85-18.52c-.33.33-1,.82-1.16,1Z"/><path id="_Path_51" data-name="&lt;Path&gt;" class="cls-5" d="M68.55,57.31l.67,13.76,1.33,1.1L69.88,56.8a5.43,5.43,0,0,1-1.33.51Z"/><path id="_Path_52" data-name="&lt;Path&gt;" class="cls-5" d="M66.7,57.31,67.2,69l1.35,1.3L68,57.46a3.51,3.51,0,0,1-1.33-.15Z"/><polygon id="_Path_53" data-name="&lt;Path&gt;" class="cls-3" points="57.98 63.67 53.97 77.89 59.5 78.71 61.85 68.01 57.98 63.67"/><g id="_Group_34" data-name="&lt;Group&gt;"><path id="_Compound_Path_7" data-name="&lt;Compound Path&gt;" class="cls-5" d="M59.5,78.91h0L54,78.07a.29.29,0,0,1-.17-.1.3.3,0,0,1,0-.13l4-14.25c0-.1.08-.15.14-.15a.34.34,0,0,1,.22.05L62,67.88l-2.3,10.88a.24.24,0,0,1-.22.15Zm-5.26-1.22,5.07.79L61.63,68l-3.55-3.91L54.24,77.69Z"/></g><polygon id="_Path_54" data-name="&lt;Path&gt;" class="cls-3" points="67.03 63.67 71.04 77.89 65.52 78.71 63.18 68.01 67.03 63.67"/><g id="_Group_35" data-name="&lt;Group&gt;"><path id="_Compound_Path_8" data-name="&lt;Compound Path&gt;" class="cls-5" d="M65.52,78.91a.17.17,0,0,1-.18-.15L63,68l3.93-4.54a.28.28,0,0,1,.2-.05c.06,0,.11.07.14.15l4,14.25a.3.3,0,0,1,0,.13.5.5,0,0,1-.17.1l-5.5.84ZM67,64.08l-3.61,4.06,2.35,10.34,5.09-.79L67,64.08Z"/></g><g id="_Group_36" data-name="&lt;Group&gt;"><path id="_Path_55" data-name="&lt;Path&gt;" class="cls-5" d="M57.15,69.87h0a.2.2,0,0,1-.18-.15l-.48-1.15a.23.23,0,0,1,.42-.18l.36.87,1.27-1.4a.21.21,0,0,1,.31.28l-1.52,1.68a.24.24,0,0,1-.14.05Z"/></g><g id="_Group_37" data-name="&lt;Group&gt;"><path id="_Path_56" data-name="&lt;Path&gt;" class="cls-5" d="M59,70.87h0c-.09,0-.16-.08-.16-.18L58.26,66a.25.25,0,0,1,.22-.26.23.23,0,0,1,.24.21l.45,4.11,1.33-1.71a.2.2,0,0,1,.3-.05.22.22,0,0,1,.05.3l-1.66,2.2a.4.4,0,0,1-.19.05Z"/></g><g id="_Group_38" data-name="&lt;Group&gt;"><path id="_Path_57" data-name="&lt;Path&gt;" class="cls-5" d="M61,72.07c-.07,0-.16-.08-.21-.13l-1-2.55s0-.21.11-.26a.23.23,0,0,1,.3.13l1,2.48a.22.22,0,0,1-.13.3s0,0-.09,0Z"/></g><g id="_Group_39" data-name="&lt;Group&gt;"><path id="_Path_58" data-name="&lt;Path&gt;" class="cls-5" d="M59.5,74.06h-.06a.24.24,0,0,1-.16-.13l-.69-2.19L58,72.79c-.05.07-.14.17-.19.12a.28.28,0,0,1-.22-.15l-.56-1.38L55.81,72.5a.2.2,0,0,1-.32,0c-.06-.1-.06-.25,0-.3L57,70.84c.07,0,.14,0,.19,0a.17.17,0,0,1,.16.13l.53,1.22.58-1.12a.33.33,0,0,1,.22-.08c.1,0,.17,0,.19.13l.73,2.35,1.12-1.12a.23.23,0,0,1,.31,0,.32.32,0,0,1,0,.33L59.64,74a.2.2,0,0,1-.14,0Z"/></g><g id="_Group_40" data-name="&lt;Group&gt;"><path id="_Path_59" data-name="&lt;Path&gt;" class="cls-5" d="M60,77.1a.25.25,0,0,1-.24-.18l-.42-2-1,1.3a.19.19,0,0,1-.22.08c-.06,0-.14-.08-.16-.15l-.54-1.64-.93,1.18c0,.07-.09.07-.19.1a.31.31,0,0,1-.18-.16l-1-2.5a.2.2,0,0,1,.11-.28c.12-.08.24,0,.28.13l.91,2.14.94-1.22a.24.24,0,0,1,.19-.08.32.32,0,0,1,.2.15l.52,1.64,1.06-1.38c.08,0,.14-.1.24-.08a.37.37,0,0,1,.17.18l.5,2.53a.25.25,0,0,1-.17.28Z"/></g><g id="_Group_41" data-name="&lt;Group&gt;"><path id="_Path_60" data-name="&lt;Path&gt;" class="cls-5" d="M58.65,78.94a.1.1,0,0,1-.06,0,.14.14,0,0,1-.14-.12l-.53-1.56-.74,1.28a.16.16,0,0,1-.22.07.18.18,0,0,1-.18-.12l-.69-1.84-.76,1.07a.24.24,0,0,1-.31,0,.26.26,0,0,1-.05-.33l1-1.36a.3.3,0,0,1,.22-.1c.08,0,.14.08.17.16L57,77.89l.75-1.3a.23.23,0,0,1,.22-.1.21.21,0,0,1,.19.13l.57,1.71.76-.64a.24.24,0,0,1,.33,0,.2.2,0,0,1,0,.28l-1,.87a.34.34,0,0,1-.14,0Z"/></g><g id="_Group_42" data-name="&lt;Group&gt;"><path id="_Path_61" data-name="&lt;Path&gt;" class="cls-5" d="M67.89,69.87a.25.25,0,0,1-.17-.05L66.2,68.14a.2.2,0,0,1,0-.28.19.19,0,0,1,.31,0l1.27,1.4.34-.87a.22.22,0,0,1,.31-.1.22.22,0,0,1,.12.28l-.5,1.15a.17.17,0,0,1-.16.15Z"/></g><g id="_Group_43" data-name="&lt;Group&gt;"><path id="_Path_62" data-name="&lt;Path&gt;" class="cls-5" d="M66,70.87a.53.53,0,0,1-.19-.05l-1.68-2.2a.22.22,0,0,1,0-.3.19.19,0,0,1,.31.05l1.35,1.71L66.31,66a.2.2,0,0,1,.23-.21.22.22,0,0,1,.19.26l-.45,4.67a.3.3,0,0,1-.17.18Z"/></g><g id="_Group_44" data-name="&lt;Group&gt;"><path id="_Path_63" data-name="&lt;Path&gt;" class="cls-5" d="M64,72.07a.14.14,0,0,1-.1,0,.22.22,0,0,1-.11-.3l1-2.48a.2.2,0,0,1,.28-.13c.12.05.17.21.12.26l-1,2.55s-.12.13-.21.13Z"/></g><g id="_Group_45" data-name="&lt;Group&gt;"><path id="_Path_64" data-name="&lt;Path&gt;" class="cls-5" d="M65.52,74.06a.27.27,0,0,1-.15,0l-1.32-1.35a.23.23,0,0,1,0-.33.24.24,0,0,1,.32,0l1,1.09L66,71.1a.18.18,0,0,1,.18-.13c.11,0,.18,0,.22.08l.78,1.17L67.67,71a.21.21,0,0,1,.14-.13.3.3,0,0,1,.22,0l1.49,1.36c.11,0,.13.18,0,.3a.19.19,0,0,1-.31,0L68,71.38l-.58,1.38a.19.19,0,0,1-.19.15.22.22,0,0,1-.19-.1l-.7-1.1-.55,2.2a.2.2,0,0,1-.17.15Z"/></g><g id="_Group_46" data-name="&lt;Group&gt;"><path id="_Path_65" data-name="&lt;Path&gt;" class="cls-5" d="M65,77.1h0a.24.24,0,0,1-.17-.28l.5-2.53a.25.25,0,0,1,.17-.18.21.21,0,0,1,.23.11l1.07,1.35.52-1.64a.28.28,0,0,1,.18-.15.31.31,0,0,1,.22.08l.93,1.22.87-2.14a.21.21,0,0,1,.31-.13.21.21,0,0,1,.12.28l-1,2.5a.28.28,0,0,1-.16.16.26.26,0,0,1-.22-.1l-.92-1.18-.55,1.64c0,.07-.09.15-.17.15a.17.17,0,0,1-.2-.08l-1-1.3-.44,2a.22.22,0,0,1-.2.18Z"/></g><g id="_Group_47" data-name="&lt;Group&gt;"><path id="_Path_66" data-name="&lt;Path&gt;" class="cls-5" d="M66.37,78.94a.48.48,0,0,1-.14,0l-1-.87c-.12,0-.12-.18,0-.28a.24.24,0,0,1,.33,0l.78.64.54-1.71a.21.21,0,0,1,.19-.13c.08,0,.19,0,.22.1l.76,1.3.68-1.78a.21.21,0,0,1,.17-.16.26.26,0,0,1,.21.1l1,1.36a.26.26,0,0,1,0,.33.25.25,0,0,1-.31,0l-.75-1.07-.69,1.84c0,.1-.1.12-.19.12a.16.16,0,0,1-.22-.07l-.73-1.26-.52,1.54a.2.2,0,0,1-.14.12s0,0-.08,0Z"/></g><path id="_Path_67" data-name="&lt;Path&gt;" class="cls-3" d="M62.51,55.47a9.17,9.17,0,0,0,6.38,1.84c-.2,5.85-1.86,9.86-6.38,12.87-4.53-3-6.19-7-6.36-12.87a9.12,9.12,0,0,0,6.36-1.84Z"/><g id="_Group_48" data-name="&lt;Group&gt;"><path id="_Compound_Path_9" data-name="&lt;Compound Path&gt;" class="cls-5" d="M62.51,70.36l-.1,0c-4.3-2.91-6.23-6.79-6.42-13a1.71,1.71,0,0,1,.85-.13h0a8.76,8.76,0,0,0,5.57-1.86,9.89,9.89,0,0,0,6.45,1.84c0,6.38-1.94,10.26-6.26,13.17-.05,0-.07,0-.09,0Zm-6.37-12.9c.35,5.93,2.22,9.71,6.37,12.54,4.18-2.83,6-6.61,6.21-12.69-.06.18-.31.18-.52.18a9.27,9.27,0,0,1-5.79-1.92,8.1,8.1,0,0,1-5.57,1.92h0a5.39,5.39,0,0,1-.7,0Z"/></g><path id="_Path_68" data-name="&lt;Path&gt;" class="cls-5" d="M62.51,69.49C66,67.17,68,63.16,68.22,57.79a8.83,8.83,0,0,1-5.71-1.66,9.31,9.31,0,0,1-5.86,1.66c.34,5.37,2.35,9.38,5.86,11.7Z"/><g id="_Group_49" data-name="&lt;Group&gt;"><path id="_Compound_Path_10" data-name="&lt;Compound Path&gt;" class="cls-5" d="M62.51,69.72a.39.39,0,0,1-.11,0c-3.56-2.4-5.62-6.51-5.95-11.87a.26.26,0,0,1,.06-.18.16.16,0,0,1,.14-.08A9.05,9.05,0,0,0,62.37,56a.21.21,0,0,1,.28,0,8.74,8.74,0,0,0,5.57,1.58.16.16,0,0,1,.14.08.23.23,0,0,1,.08.18c-.19,5.34-2.21,9.47-5.81,11.87,0,0-.08,0-.12,0ZM56.87,58c.38,5.11,2.32,9,5.64,11.32C65.87,67,67.8,63.08,68,58a9.28,9.28,0,0,1-5.48-1.55A9.52,9.52,0,0,1,56.87,58Z"/></g><path id="_Path_69" data-name="&lt;Path&gt;" class="cls-3" d="M56.82,77.89a17.93,17.93,0,0,0,4,.16c.67,0,1.14,1.15-.16,1.35a16.14,16.14,0,0,1-4-.2c-.84-.16-2.68-.49-3.85-.82-1.17-.49-.34-1.51.33-1.36a23.34,23.34,0,0,0,3.69.87Z"/><g id="_Group_50" data-name="&lt;Group&gt;"><path id="_Compound_Path_11" data-name="&lt;Compound Path&gt;" class="cls-5" d="M59.53,79.66a18.28,18.28,0,0,1-2.9-.23c-.82-.16-2.7-.52-3.88-.85-.81-.33-.78-.81-.75-1a1.07,1.07,0,0,1,1-.79,26.65,26.65,0,0,0,3.86.87,18.43,18.43,0,0,0,4,.2h0a.92.92,0,0,1,.91.82c0,.38-.25.82-1,.92a8.53,8.53,0,0,1-1.18.08Zm-6.48-2.41a.61.61,0,0,0-.61.39c-.08.28.25.43.45.53a38.21,38.21,0,0,0,3.81.8,15.09,15.09,0,0,0,3.94.2c.43,0,.66-.26.64-.49a.49.49,0,0,0-.43-.43,15.28,15.28,0,0,1-4.07-.18,20.41,20.41,0,0,1-3.73-.82Z"/></g><path id="_Path_70" data-name="&lt;Path&gt;" class="cls-3" d="M68.22,77.89a18,18,0,0,1-4,.16c-.68,0-1.15,1.15.15,1.35a16,16,0,0,0,4-.2c.86-.16,2.68-.49,3.87-.82,1.18-.49.33-1.51-.33-1.36a22.94,22.94,0,0,1-3.68.87Z"/><g id="_Group_51" data-name="&lt;Group&gt;"><path id="_Compound_Path_12" data-name="&lt;Compound Path&gt;" class="cls-5" d="M65.5,79.66a7.92,7.92,0,0,1-1.16-.08c-.82-.1-1.07-.54-1.05-.92a.93.93,0,0,1,.9-.82,18,18,0,0,0,4-.2,23.84,23.84,0,0,0,3.65-.82,1,1,0,0,1,1.19.74c0,.21.06.69-.69,1-1.22.33-3.1.69-3.91.85a19,19,0,0,1-2.91.23Zm-1.33-1.41a.58.58,0,0,0-.46.43c0,.23.25.44.67.49a15.3,15.3,0,0,0,4-.2c.79-.13,2.65-.46,3.84-.8.14-.1.45-.25.41-.53a.59.59,0,0,0-.55-.39,23.16,23.16,0,0,1-3.79.82,15.39,15.39,0,0,1-4.08.18Z"/></g><path id="_Path_71" data-name="&lt;Path&gt;" class="cls-3" d="M52.64,77.23c-1-.21-1.5,1-1.17,1.66.16-.36.85-.36,1-.69.18-.51-.14-.51.18-1Z"/><g id="_Group_52" data-name="&lt;Group&gt;"><path id="_Compound_Path_13" data-name="&lt;Compound Path&gt;" class="cls-5" d="M51.47,79.09a.24.24,0,0,1-.19-.12,1.42,1.42,0,0,1,.09-1.38A1.27,1.27,0,0,1,52.44,77c.08,0,.25.07.28.18s.14.15.13.2c-.16.21-.13.26-.13.36a.89.89,0,0,1,0,.56c-.12.31-.4.38-.61.49s-.36.15-.39.23-.09.15-.2.12Zm.8-1.63a.76.76,0,0,0-.52.38,1.09,1.09,0,0,0-.17.62,1,1,0,0,1,.31-.13c.17-.08.33-.13.36-.23a.35.35,0,0,0,0-.31,1.82,1.82,0,0,1,0-.33Z"/></g><path id="_Path_72" data-name="&lt;Path&gt;" class="cls-3" d="M56.65,80.29c0-.69.67-.58.67-1.25,0-.33-.17-.84-.5-.84a.71.71,0,0,0-.67.69c-.16.64.5.71.5,1.4Z"/><g id="_Group_53" data-name="&lt;Group&gt;"><path id="_Compound_Path_14" data-name="&lt;Compound Path&gt;" class="cls-5" d="M56.65,80.52a.22.22,0,0,1-.2-.23.87.87,0,0,0-.24-.53,1,1,0,0,1-.28-1,.92.92,0,0,1,.89-.84c.5,0,.74.64.74,1.07a1,1,0,0,1-.41.79.52.52,0,0,0-.25.46.24.24,0,0,1-.25.23Zm.17-2.09a.49.49,0,0,0-.45.46.66.66,0,0,0,.17.59.94.94,0,0,1,.14.18c0-.08.13-.11.16-.16s.27-.2.27-.46-.18-.61-.29-.61Z"/></g><path id="_Path_73" data-name="&lt;Path&gt;" class="cls-3" d="M61.44,78.38c1,0,.88,1.33.41,2,0-.46-.86-.66-.86-1,0-.51.76-.51.45-1Z"/><g id="_Group_54" data-name="&lt;Group&gt;"><path id="_Compound_Path_15" data-name="&lt;Compound Path&gt;" class="cls-5" d="M61.85,80.6a.09.09,0,0,1-.08,0c-.09,0-.14-.1-.14-.2s-.21-.25-.41-.41-.44-.33-.44-.56a.76.76,0,0,1,.38-.66c0-.08,0-.28,0-.36s.16-.23.25-.23a.93.93,0,0,1,.86.51A2.13,2.13,0,0,1,62,80.52a.29.29,0,0,1-.19.08Zm-.11-1.94a.71.71,0,0,1-.3.43c-.14.11-.22.18-.22.31a2.07,2.07,0,0,0,.27.18,3.15,3.15,0,0,1,.39.3,1.49,1.49,0,0,0,0-1,.41.41,0,0,0-.15-.2Z"/></g><path id="_Path_74" data-name="&lt;Path&gt;" class="cls-3" d="M72.37,77.23a1.16,1.16,0,0,1,1.19,1.66c-.15-.36-.86-.36-1-.69-.19-.51.14-.51-.19-1Z"/><g id="_Group_55" data-name="&lt;Group&gt;"><path id="_Compound_Path_16" data-name="&lt;Compound Path&gt;" class="cls-5" d="M73.56,79.09a.26.26,0,0,1-.22-.12c0-.08-.21-.16-.38-.23s-.5-.18-.61-.46a1.18,1.18,0,0,1,0-.59c0-.1,0-.15-.09-.36a.2.2,0,0,1,0-.2.28.28,0,0,1,.14-.16,1.32,1.32,0,0,1,1.33.62A1.4,1.4,0,0,1,73.74,79a.17.17,0,0,1-.18.12Zm-.82-1.66a1.45,1.45,0,0,1,0,.36.5.5,0,0,0,0,.33c0,.08.21.13.38.21a.79.79,0,0,1,.28.13.94.94,0,0,0-.15-.62.82.82,0,0,0-.54-.41Z"/></g><path id="_Path_75" data-name="&lt;Path&gt;" class="cls-3" d="M68.36,80.29c0-.69-.66-.58-.66-1.25,0-.33.19-.84.52-.84a.72.72,0,0,1,.67.69c.14.64-.53.71-.53,1.4Z"/><g id="_Group_56" data-name="&lt;Group&gt;"><path id="_Compound_Path_17" data-name="&lt;Compound Path&gt;" class="cls-5" d="M68.36,80.52a.22.22,0,0,1-.21-.23.58.58,0,0,0-.26-.46,1,1,0,0,1-.41-.79c0-.43.24-1.07.74-1.07a1,1,0,0,1,.91.92,1.05,1.05,0,0,1-.32.87.79.79,0,0,0-.2.53.25.25,0,0,1-.25.23Zm-.14-2.09c-.14,0-.3.33-.3.61a.53.53,0,0,0,.25.46s.13.08.17.16a1.63,1.63,0,0,1,.14-.18.55.55,0,0,0,.18-.57.51.51,0,0,0-.44-.48Z"/></g><path id="_Path_76" data-name="&lt;Path&gt;" class="cls-3" d="M63.6,78.38c-1,0-.89,1.33-.42,2,0-.46.85-.66.85-1,0-.51-.76-.51-.43-1Z"/><g id="_Group_57" data-name="&lt;Group&gt;"><path id="_Compound_Path_18" data-name="&lt;Compound Path&gt;" class="cls-5" d="M63.18,80.6a.26.26,0,0,1-.19-.08,2,2,0,0,1-.26-1.86.89.89,0,0,1,.87-.51.27.27,0,0,1,.19.1.29.29,0,0,1,0,.26c.26.35.47.53.47.89s-.23.41-.45.56-.38.28-.38.41a.19.19,0,0,1-.17.2.07.07,0,0,1-.06,0Zm.11-1.94a.78.78,0,0,0-.16.2,1.31,1.31,0,0,0,0,1,1.59,1.59,0,0,1,.34-.3,1,1,0,0,0,.27-.18c0-.13-.08-.2-.22-.31a.74.74,0,0,1-.28-.43Z"/></g><path id="_Path_77" data-name="&lt;Path&gt;" class="cls-3" d="M53,77.56a1.51,1.51,0,0,1,1,.33Z"/><g id="_Group_58" data-name="&lt;Group&gt;"><path id="_Path_78" data-name="&lt;Path&gt;" class="cls-5" d="M54,78s0,0,0,0l-1-.31c-.08,0-.12-.1-.09-.15s.06-.16.13-.16a1.79,1.79,0,0,1,1.12.41.13.13,0,0,1,0,.18A.19.19,0,0,1,54,78Z"/></g><path id="_Path_79" data-name="&lt;Path&gt;" class="cls-3" d="M54.64,78.05a3.56,3.56,0,0,1,1.17.33Z"/><g id="_Group_59" data-name="&lt;Group&gt;"><path id="_Path_80" data-name="&lt;Path&gt;" class="cls-5" d="M55.81,78.56a0,0,0,0,1,0,0L54.6,78.2a.18.18,0,0,1-.12-.18c0-.25,1,0,1.42.23a.14.14,0,0,1,.06.18.18.18,0,0,1-.15.13Z"/></g><path id="_Path_81" data-name="&lt;Path&gt;" class="cls-3" d="M60.69,78.71c-.36,0-1,0-1.19.18Z"/><g id="_Group_60" data-name="&lt;Group&gt;"><path id="_Path_82" data-name="&lt;Path&gt;" class="cls-5" d="M59.5,79c-.06,0-.11,0-.17-.11s0-.1.06-.15.63-.18,1.3-.18c.06,0,.14,0,.14.1a.27.27,0,0,1-.12.21L59.53,79Z"/></g><path id="_Path_83" data-name="&lt;Path&gt;" class="cls-3" d="M58.84,78.71a1.37,1.37,0,0,0-1.19,0Z"/><g id="_Group_61" data-name="&lt;Group&gt;"><path id="_Path_84" data-name="&lt;Path&gt;" class="cls-5" d="M58.84,78.89H57.65a.16.16,0,0,1-.14-.13.13.13,0,0,1,.08-.18c.3-.15,1-.38,1.36,0a.29.29,0,0,1,0,.21.2.2,0,0,1-.14.1Z"/></g><path id="_Path_85" data-name="&lt;Path&gt;" class="cls-3" d="M72,77.56a1.64,1.64,0,0,0-1,.33Z"/><g id="_Group_62" data-name="&lt;Group&gt;"><path id="_Path_86" data-name="&lt;Path&gt;" class="cls-5" d="M71,78c-.05,0-.09,0-.11-.08s-.05-.12,0-.17A1.92,1.92,0,0,1,72,77.38a.15.15,0,0,1,.17.16.16.16,0,0,1-.11.15l-1,.31s0,0-.06,0Z"/></g><path id="_Path_87" data-name="&lt;Path&gt;" class="cls-3" d="M70.38,78.05a3.57,3.57,0,0,0-1.16.33Z"/><g id="_Group_63" data-name="&lt;Group&gt;"><path id="_Path_88" data-name="&lt;Path&gt;" class="cls-5" d="M69.22,78.56c-.08,0-.12,0-.14-.13s0-.18.06-.18c.51-.28,1.36-.48,1.41-.23a.15.15,0,0,1-.12.18l-1.16.33s0,0,0,0Z"/></g><path id="_Path_89" data-name="&lt;Path&gt;" class="cls-3" d="M64.34,78.71c.36,0,1,0,1.18.18Z"/><g id="_Group_64" data-name="&lt;Group&gt;"><path id="_Path_90" data-name="&lt;Path&gt;" class="cls-5" d="M65.52,79h0l-1.18-.13a.2.2,0,0,1-.15-.21c0-.07.07-.1.15-.1.69,0,1.11,0,1.3.18s.07.13,0,.15a.19.19,0,0,1-.17.11Z"/></g><path id="_Path_91" data-name="&lt;Path&gt;" class="cls-3" d="M66.18,78.71a1.37,1.37,0,0,1,1.19,0Z"/><g id="_Group_65" data-name="&lt;Group&gt;"><path id="_Path_92" data-name="&lt;Path&gt;" class="cls-5" d="M67.37,78.89H66.18a.2.2,0,0,1-.14-.1.25.25,0,0,1,0-.21c.4-.38,1.06-.15,1.35,0a.14.14,0,0,1,.07.18.13.13,0,0,1-.14.13Z"/></g><path id="_Path_93" data-name="&lt;Path&gt;" class="cls-5" d="M64.85,45.74a2.59,2.59,0,0,0-1.75-1.69A7.8,7.8,0,0,0,61.77,44c-.49-.13-.92.41-1.08.74.5.36.61.71.87.84.52.18.76,0,1.29-.48a1.26,1.26,0,0,1,2,.66Z"/><g id="_Group_66" data-name="&lt;Group&gt;"><path id="_Compound_Path_19" data-name="&lt;Compound Path&gt;" class="cls-5" d="M61.91,45.74a.9.9,0,0,1-.39-.1c-.14,0-.24-.18-.36-.33a3.56,3.56,0,0,0-.55-.52c.08-.3.46-.94,1-.94l.46,0a3,3,0,0,1,1.08.1,2.56,2.56,0,0,1,1.69,1.43c-.67-.44-1.5-.69-1.93-.26s-.64.59-1,.59Zm-.17-1.66a1.18,1.18,0,0,0-1,.69,1,1,0,0,1,.55.41,1,1,0,0,0,.31.28c.43.15.61,0,1.16-.46a1.36,1.36,0,0,1,1.6,0,2.45,2.45,0,0,0-1.27-.77,3.3,3.3,0,0,0-.8-.1h-.56Z"/></g><path id="_Path_94" data-name="&lt;Path&gt;" class="cls-3" d="M61.66,44.46a.26.26,0,0,0,0,.51.26.26,0,0,0,0-.51Z"/><g id="_Group_67" data-name="&lt;Group&gt;"><path id="_Path_95" data-name="&lt;Path&gt;" class="cls-3" d="M61.66,45.18a.47.47,0,0,1-.47-.49c0-.53,1-.53,1,0a.49.49,0,0,1-.5.49Z"/></g><path id="_Path_96" data-name="&lt;Path&gt;" class="cls-3" d="M64.54,57.23V67.78a9.31,9.31,0,0,1-2,1.71,9.86,9.86,0,0,1-2-1.71V57.21a8.62,8.62,0,0,0,2-1.08,7.05,7.05,0,0,0,2,1.1Z"/></g></g></g></g></g></g><rect id="_Path_97" data-name="&lt;Path&gt;" x="-46" y="85.32" width="220" height="42.68"/><rect id="_Path_98" data-name="&lt;Path&gt;" class="cls-7" x="-46" width="220" height="42.67"/></g></svg>