<svg id="Layer_1" data-name="Layer 1" xmlns="http://www.w3.org/2000/svg" xmlns:xlink="http://www.w3.org/1999/xlink" viewBox="0 0 128 128"><defs><style>.cls-1,.cls-14,.cls-15,.cls-16,.cls-17,.cls-18,.cls-19,.cls-20,.cls-21,.cls-22,.cls-23,.cls-24,.cls-25,.cls-26,.cls-27,.cls-28,.cls-29,.cls-34,.cls-38,.cls-39,.cls-43,.cls-44,.cls-45,.cls-46,.cls-47,.cls-48,.cls-49,.cls-50,.cls-51,.cls-52,.cls-53,.cls-54,.cls-55,.cls-56,.cls-9{fill:none;}.cls-2{clip-path:url(#clip-path);}.cls-3{fill:#c60b1e;}.cls-4{fill:#ffc400;}.cls-11,.cls-35,.cls-36,.cls-37,.cls-5,.cls-61,.cls-71{fill:#ad1519;}.cls-10,.cls-11,.cls-12,.cls-13,.cls-14,.cls-15,.cls-16,.cls-17,.cls-18,.cls-19,.cls-20,.cls-21,.cls-22,.cls-23,.cls-24,.cls-25,.cls-26,.cls-27,.cls-28,.cls-29,.cls-30,.cls-31,.cls-32,.cls-33,.cls-34,.cls-35,.cls-36,.cls-37,.cls-38,.cls-39,.cls-40,.cls-41,.cls-42,.cls-43,.cls-44,.cls-45,.cls-46,.cls-47,.cls-48,.cls-49,.cls-5,.cls-50,.cls-51,.cls-52,.cls-53,.cls-54,.cls-55,.cls-56,.cls-57,.cls-58,.cls-59,.cls-6,.cls-60,.cls-61,.cls-62,.cls-65,.cls-67,.cls-68,.cls-69,.cls-70,.cls-71,.cls-72,.cls-73,.cls-74,.cls-8,.cls-9{stroke:#000;}.cls-10,.cls-32,.cls-36,.cls-5,.cls-73{stroke-linejoin:round;}.cls-10,.cls-11,.cls-12,.cls-13,.cls-38,.cls-41,.cls-5,.cls-6,.cls-63,.cls-69,.cls-9{stroke-width:0.07px;}.cls-10,.cls-32,.cls-33,.cls-6,.cls-62,.cls-63,.cls-65,.cls-7,.cls-73,.cls-74,.cls-8{fill:#c8b100;}.cls-8{stroke-width:0.08px;}.cls-12,.cls-57,.cls-60,.cls-64{fill:#058e6e;}.cls-13,.cls-40,.cls-42{fill:#fff;}.cls-14{stroke-width:0px;}.cls-15{stroke-width:0.01px;}.cls-16{stroke-width:0.01px;}.cls-17{stroke-width:0.01px;}.cls-18,.cls-70{stroke-width:0.01px;}.cls-19{stroke-width:0.02px;}.cls-20{stroke-width:0.02px;}.cls-21{stroke-width:0.02px;}.cls-22{stroke-width:0.02px;}.cls-23{stroke-width:0.03px;}.cls-24{stroke-width:0.03px;}.cls-25{stroke-width:0.03px;}.cls-26{stroke-width:0.03px;}.cls-27{stroke-width:0.04px;}.cls-28{stroke-width:0.04px;}.cls-29{stroke-width:0.05px;}.cls-30,.cls-41,.cls-72{fill:#005bbf;}.cls-30,.cls-31,.cls-32,.cls-33,.cls-34,.cls-35,.cls-36,.cls-42,.cls-57,.cls-67,.cls-68{stroke-width:0.1px;}.cls-31,.cls-58{fill:#ccc;}.cls-37{stroke-width:0.07px;}.cls-38{stroke-linecap:round;}.cls-39,.cls-40{stroke-width:0.05px;}.cls-43{stroke-width:0.06px;}.cls-44{stroke-width:0.07px;}.cls-45{stroke-width:0.08px;}.cls-46{stroke-width:0.09px;}.cls-47{stroke-width:0.11px;}.cls-48,.cls-65{stroke-width:0.12px;}.cls-49{stroke-width:0.13px;}.cls-50{stroke-width:0.14px;}.cls-51{stroke-width:0.15px;}.cls-52{stroke-width:0.16px;}.cls-53{stroke-width:0.17px;}.cls-54{stroke-width:0.19px;}.cls-55{stroke-width:0.2px;}.cls-56{stroke-width:0.23px;}.cls-58,.cls-59,.cls-60,.cls-61,.cls-62{stroke-width:0.13px;}.cls-59{fill:#ffd691;}.cls-63{stroke:#c8b100;}.cls-66{fill:#0039f0;}.cls-67{fill:#db4446;}.cls-68{fill:#ed72aa;}.cls-71,.cls-72{stroke-width:0.16px;}.cls-73,.cls-74{stroke-width:0.09px;}</style><clipPath id="clip-path"><circle class="cls-1" cx="64" cy="64" r="64"/></clipPath></defs><title>Flag_circle_Spain</title><g class="cls-2"><rect class="cls-3" x="-14" width="220" height="128"/><rect class="cls-4" x="-14" y="32" width="220" height="64"/><g id="coa"><g id="supporters"><g id="crown_left" data-name="crown left"><path class="cls-5" d="M43,56.89a.55.55,0,0,1-.21,0,3.34,3.34,0,0,1-.29-.24l-.17-.13-.16-.22a.71.71,0,0,1-.1-.53.7.7,0,0,1,.36-.39c.13-.06.41-.15.41-.15a1.82,1.82,0,0,1,.29-.1l.33-.09.14-.06c.08,0,.18,0,.24,0a1.7,1.7,0,0,1,.28-.06c.14,0,.35,0,.42,0l.42,0,.57,0a1.4,1.4,0,0,1,.29,0,1.48,1.48,0,0,1,.37.11l.54.19a4.73,4.73,0,0,1,.59.16.87.87,0,0,1,.31.29.91.91,0,0,1,.11.26.48.48,0,0,1,0,.29c0,.06-.13.21-.13.21l-.16.26-.2.16s-.15.14-.26.12a17.18,17.18,0,0,0-2-.22,14.27,14.27,0,0,0-2,.22Z"/><ellipse class="cls-6" cx="44.97" cy="55.21" rx="0.35" ry="0.64"/><ellipse class="cls-6" cx="44.97" cy="55.21" rx="0.16" ry="0.59"/><ellipse class="cls-7" cx="44.97" cy="54.54" rx="0.24" ry="0.22"/><path class="cls-8" d="M45.3,54.46v.15h-.65v-.15h.24v-.34h-.15V54h.15v-.15h.16V54h.16v.14h-.16v.34h.25"/><path class="cls-9" d="M45,54.32a.23.23,0,0,1,.17.28.24.24,0,0,1-.3.15.21.21,0,0,1-.16-.27.22.22,0,0,1,.16-.16"/><path class="cls-6" d="M45,56.85H43.74l0-.3-.05-.31-.06-.4c-.34-.44-.66-.74-.76-.67A.29.29,0,0,1,43,55c.3-.18.92.25,1.39,1l.12.19h1l.11-.19c.47-.71,1.09-1.14,1.39-1a.26.26,0,0,1,.12.19c-.1-.07-.41.23-.75.67l-.06.4-.06.31,0,.3Z"/><path class="cls-9" d="M42.89,55.15c.24-.13.78.29,1.21,1m3-1c-.23-.13-.77.29-1.21,1"/><g id="crown_pt1" data-name="crown pt1"><path class="cls-6" d="M43.16,57.41a1.09,1.09,0,0,0-.15-.28,7.53,7.53,0,0,1,2-.24,7.61,7.61,0,0,1,2,.24l-.13.23a1.53,1.53,0,0,0-.1.21,7.23,7.23,0,0,0-3.5,0,.52.52,0,0,0-.06-.17h0"/><path class="cls-6" d="M45,58a7.43,7.43,0,0,0,1.56-.16c.17-.05.27-.12.25-.21a.15.15,0,0,0-.09-.1,7.15,7.15,0,0,0-3.44,0,.15.15,0,0,0-.09.1c0,.09.08.16.25.21A7.43,7.43,0,0,0,45,58Z"/><path class="cls-6" d="M47,56.85l-.15-.13a.63.63,0,0,1-.33.06c-.18,0-.24-.25-.24-.25a.66.66,0,0,1-.36.16.46.46,0,0,1-.28-.16.64.64,0,0,1-.34.12.6.6,0,0,1-.31-.21.64.64,0,0,1-.32.22.41.41,0,0,1-.29-.14.36.36,0,0,1-.27.18.51.51,0,0,1-.38-.16.61.61,0,0,1-.25.24.49.49,0,0,1-.32-.07l-.05.11a.12.12,0,0,1-.08,0l0,.12A6.85,6.85,0,0,1,45,56.76a7.09,7.09,0,0,1,2,.23l0-.14Z"/><path class="cls-6" d="M45,56.19h.07a.3.3,0,0,0,0,.1.29.29,0,0,0,.56.08s0-.1,0-.1,0,.11,0,.11a.29.29,0,0,0,.57,0v0l.09-.08,0,.11a.37.37,0,0,0,0,.12.26.26,0,0,0,.27.25.25.25,0,0,0,.22-.11l.06-.08v.1a.17.17,0,0,0,.13.18.34.34,0,0,0,.23-.1,1.08,1.08,0,0,0,.21-.19v.11a1.13,1.13,0,0,1-.24.28A.37.37,0,0,1,47,57a.23.23,0,0,1-.17-.15.46.46,0,0,1-.2,0,.41.41,0,0,1-.37-.22.38.38,0,0,1-.29.13.45.45,0,0,1-.33-.15.39.39,0,0,1-.28.11.44.44,0,0,1-.34-.17.42.42,0,0,1-.34.17.39.39,0,0,1-.28-.11.41.41,0,0,1-.32.15.42.42,0,0,1-.3-.13.38.38,0,0,1-.36.22.42.42,0,0,1-.2,0A.23.23,0,0,1,43,57a.36.36,0,0,1-.24-.06,1.13,1.13,0,0,1-.26-.28l0-.11a1.08,1.08,0,0,0,.21.19.34.34,0,0,0,.23.1c.09,0,.12-.1.12-.18v-.1l.06.08a.27.27,0,0,0,.23.11.26.26,0,0,0,.27-.25.21.21,0,0,0,0-.12l0-.11.09.08v0a.27.27,0,0,0,.28.27.29.29,0,0,0,.29-.23s0-.11,0-.11,0,.1,0,.1a.27.27,0,0,0,.27.19.28.28,0,0,0,.28-.27.31.31,0,0,0,0-.1H45Z"/><path class="cls-10" d="M45,56.89a7.53,7.53,0,0,0-2,.24.08.08,0,0,1-.09,0A.07.07,0,0,1,43,57a6.92,6.92,0,0,1,2-.25A7,7,0,0,1,47,57a.06.06,0,0,1,0,.08.07.07,0,0,1-.08,0A7.61,7.61,0,0,0,45,56.89Z"/><path class="cls-6" d="M42.35,56.58a1.66,1.66,0,0,0-.17-.19A.56.56,0,0,0,42,56.3s.07-.07.15-.07a.14.14,0,0,1,.11.05v-.05a.17.17,0,0,1,.09.08.51.51,0,0,1,0,.19l0,.08Z"/><path class="cls-6" d="M42.83,56.38l0,.17-.36,0-.06,0v-.06l.28-.22.15.11"/><path class="cls-6" d="M42.36,56.51a.1.1,0,0,1,.13,0,.09.09,0,0,1,0,.13.1.1,0,0,1-.13,0S42.32,56.54,42.36,56.51Z"/><path class="cls-6" d="M43,56.55s0-.1,0-.11.07,0,.09.07,0,.09,0,.1A.1.1,0,0,1,43,56.55Z"/><path class="cls-6" d="M43.18,56.33l.13.12.31-.17,0-.05,0,0-.36,0-.06.17"/><path class="cls-6" d="M43.54,55.75l-.17.16.22.29.06,0,0,0,.08-.35-.23-.08"/><path class="cls-6" d="M44.12,56.14l-.06.16-.36,0-.05,0,0-.06L44,56l.13.13"/><ellipse class="cls-6" cx="43.65" cy="56.23" rx="0.13" ry="0.12"/><path class="cls-6" d="M44.25,56.31c0-.05,0-.1.06-.1s.07,0,.08.08,0,.1-.06.1A.09.09,0,0,1,44.25,56.31Z"/><path class="cls-6" d="M44.49,56.13l.1.14.34-.11,0,0,0,0-.34-.1-.1.16"/><path class="cls-6" d="M45,55.59l-.22.13.16.36.06,0,.06,0,.16-.36L45,55.59"/><path class="cls-6" d="M45.45,56.13l-.1.14L45,56.16l0,0,0,0,.34-.1.1.16"/><ellipse class="cls-6" cx="44.97" cy="56.12" rx="0.13" ry="0.12"/><path class="cls-6" d="M45.7,56.31c0-.05,0-.1-.06-.1s-.07,0-.08.08,0,.1.06.1A.09.09,0,0,0,45.7,56.31Z"/><path class="cls-6" d="M45.82,56.14l.07.16.36,0,0,0,0-.06L46,56l-.13.13"/><path class="cls-6" d="M46.41,55.75l.17.16-.22.29-.06,0,0,0-.07-.35.23-.08"/><path class="cls-6" d="M46.77,56.33l-.13.12-.32-.17,0-.05.05,0,.35,0,.07.17"/><ellipse class="cls-6" cx="46.3" cy="56.23" rx="0.13" ry="0.12"/><path class="cls-6" d="M46.94,56.55s0-.1,0-.11a.08.08,0,0,0-.09.07c0,.05,0,.09,0,.1A.1.1,0,0,0,46.94,56.55Z"/><path class="cls-6" d="M47.55,56.58a1,1,0,0,1,.17-.19.46.46,0,0,1,.17-.09s-.07-.07-.15-.07a.17.17,0,0,0-.12.05v-.05a.17.17,0,0,0-.09.08.43.43,0,0,0,0,.19.18.18,0,0,0,0,.08Z"/><path class="cls-6" d="M47.06,56.38l0,.17.36,0,0,0v-.06l-.27-.22-.16.11"/><path class="cls-6" d="M47.55,56.51s-.09,0-.14,0-.06.09,0,.13a.11.11,0,0,0,.14,0S47.58,56.54,47.55,56.51Z"/></g><g id="crown_pt2" data-name="crown pt2"><path class="cls-11" d="M43,57.42l.08-.13.17,0-.1.14-.15,0"/><path class="cls-12" d="M43.74,57.3l-.18,0a.08.08,0,0,1-.1-.06.09.09,0,0,1,.07-.09l.18,0,.18,0a.1.1,0,0,1,.1.07.1.1,0,0,1-.07.09l-.18,0"/><ellipse class="cls-13" cx="44.34" cy="57.16" rx="0.11" ry="0.1"/><path class="cls-11" d="M45,57.21h-.25a.08.08,0,0,1,0-.16h.5a.09.09,0,0,1,.09.08.08.08,0,0,1-.09.08H45"/><ellipse class="cls-13" cx="45.61" cy="57.16" rx="0.11" ry="0.1"/><path class="cls-12" d="M46.21,57.3l.17,0a.08.08,0,0,0,.1-.06s0-.08-.07-.09l-.18,0-.18,0s-.09,0-.09.07a.08.08,0,0,0,.07.09l.18,0"/><path class="cls-11" d="M46.91,57.43l-.06-.14-.18,0,.09.15.15,0"/><path class="cls-5" d="M45,57.9a6.67,6.67,0,0,1-1.61-.17A6.63,6.63,0,0,1,45,57.55a6.78,6.78,0,0,1,1.62.18A6.82,6.82,0,0,1,45,57.9Z"/><path class="cls-14" d="M45.26,57.88v-.3m-.15.31v-.32m-.11.32v-.32"/><path class="cls-15" d="M44.91,57.89v-.32"/><path class="cls-16" d="M44.82,57.89v-.32"/><path class="cls-17" d="M44.74,57.89v-.32"/><path class="cls-17" d="M44.66,57.89v-.32"/><path class="cls-18" d="M44.58,57.89v-.32"/><path class="cls-19" d="M44.44,57.88v-.3m.07.3v-.31"/><path class="cls-20" d="M44.31,57.86v-.27m.07.28v-.29"/><path class="cls-21" d="M44.14,57.85v-.24m.06.24V57.6m.06.26V57.6"/><path class="cls-22" d="M44.08,57.85v-.23"/><path class="cls-23" d="M44,57.84v-.22"/><path class="cls-24" d="M44,57.83v-.2"/><path class="cls-25" d="M43.84,57.81v-.16m.07.17v-.18"/><path class="cls-25" d="M43.77,57.8v-.14"/><path class="cls-26" d="M43.71,57.79v-.12"/><path class="cls-27" d="M43.65,57.77v-.09"/><path class="cls-28" d="M43.59,57.76v-.07"/><path class="cls-29" d="M43.52,57.75v0"/></g></g><g id="pillar_left" data-name="pillar left"><path class="cls-30" d="M49,84.65a2.16,2.16,0,0,1-1-.22,2.2,2.2,0,0,0-1-.21,2.31,2.31,0,0,0-1,.21,2.36,2.36,0,0,1-2,0,2.29,2.29,0,0,0-1-.2,2.23,2.23,0,0,0-1,.21,2.19,2.19,0,0,1-1,.22v.62a2.32,2.32,0,0,0,1-.22,2.1,2.1,0,0,1,1-.21,2.32,2.32,0,0,1,1,.2,2.36,2.36,0,0,0,2,0,2.31,2.31,0,0,1,1-.21,2.2,2.2,0,0,1,1,.21,2.14,2.14,0,0,0,1,.22v-.62Z"/><path class="cls-31" d="M49,85.27a2.16,2.16,0,0,1-1-.22,2.2,2.2,0,0,0-1-.21,2.31,2.31,0,0,0-1,.21,2.36,2.36,0,0,1-2,0,2.29,2.29,0,0,0-1-.2,2.1,2.1,0,0,0-1,.21,2.32,2.32,0,0,1-1,.22v.62a2.18,2.18,0,0,0,1-.23,2.23,2.23,0,0,1,1-.21,2.17,2.17,0,0,1,1,.21,2.15,2.15,0,0,0,1,.23,2.27,2.27,0,0,0,1-.22,2.17,2.17,0,0,1,1-.22,2.07,2.07,0,0,1,1,.22,2.27,2.27,0,0,0,1,.22v-.62"/><path class="cls-30" d="M49,85.89a2.29,2.29,0,0,1-1-.22,2.07,2.07,0,0,0-1-.22,2.17,2.17,0,0,0-1,.22,2.27,2.27,0,0,1-1,.22,2.15,2.15,0,0,1-1-.23,2.14,2.14,0,0,0-1-.21,2.23,2.23,0,0,0-1,.21,2.18,2.18,0,0,1-1,.23v.61a2.19,2.19,0,0,0,1-.22,2.23,2.23,0,0,1,1-.21,2.32,2.32,0,0,1,1,.2,2.36,2.36,0,0,0,2,0,2.31,2.31,0,0,1,1-.21,2.2,2.2,0,0,1,1,.21,2.14,2.14,0,0,0,1,.22v-.61"/><path class="cls-31" d="M49,87.12a2.14,2.14,0,0,1-1-.22,2.2,2.2,0,0,0-1-.21,2.31,2.31,0,0,0-1,.21,2.27,2.27,0,0,1-1,.22,2.15,2.15,0,0,1-1-.23,2.15,2.15,0,0,0-1-.2,2.1,2.1,0,0,0-1,.21,2.32,2.32,0,0,1-1,.22v-.61a2.18,2.18,0,0,0,1-.23,2.23,2.23,0,0,1,1-.21,2.32,2.32,0,0,1,1,.2,2.36,2.36,0,0,0,2,0,2.31,2.31,0,0,1,1-.21,2.2,2.2,0,0,1,1,.21,2.16,2.16,0,0,0,1,.22v.62"/><path class="cls-30" d="M49,87.74a2.27,2.27,0,0,1-1-.22,2.2,2.2,0,0,0-1-.22,2.31,2.31,0,0,0-1,.22,2.36,2.36,0,0,1-2,0,2.14,2.14,0,0,0-1-.21,2.23,2.23,0,0,0-1,.21,2.18,2.18,0,0,1-1,.23v-.61a2.32,2.32,0,0,0,1-.23,2.1,2.1,0,0,1,1-.21,2.32,2.32,0,0,1,1,.2,2.15,2.15,0,0,0,1,.23,2.27,2.27,0,0,0,1-.22,2.31,2.31,0,0,1,1-.21,2.2,2.2,0,0,1,1,.21,2.16,2.16,0,0,0,1,.22v.62Z"/><path class="cls-32" d="M42.73,82.12a.76.76,0,0,1,0,.16.69.69,0,0,1-.71.67h5.87a.69.69,0,0,1-.72-.67.78.78,0,0,1,0-.16l-.11,0H42.84Z"/><path class="cls-33" d="M42.84,81.73h4.27c.15,0,.26.09.26.2a.24.24,0,0,1-.26.21H42.84a.24.24,0,0,1-.26-.21C42.58,81.82,42.69,81.73,42.84,81.73Z"/><path class="cls-33" d="M42.05,84.44h5.86V83H42.05Z"/><path class="cls-31" d="M42.89,81.49h4.16V61.1H42.89Z"/><path class="cls-34" d="M45.86,61.13V81.47m.47-20.34V81.47"/><path class="cls-33" d="M42.13,59.49h5.71V58H42.13v1.5Z"/><path class="cls-32" d="M42.73,60.48l.11,0h4.27a.27.27,0,0,1,.12,0,.35.35,0,0,1,0-.68l-.13,0H42.84l-.12,0h0a.33.33,0,0,1,.24.33.35.35,0,0,1-.25.33Z"/><path class="cls-33" d="M42.84,60.46h4.27c.15,0,.26.09.26.2a.23.23,0,0,1-.26.21H42.84a.23.23,0,0,1-.26-.21C42.58,60.55,42.69,60.46,42.84,60.46Z"/><path class="cls-33" d="M42.84,59.49h4.27c.15,0,.27.07.27.17s-.12.17-.27.17H42.84c-.15,0-.26-.08-.26-.17S42.69,59.49,42.84,59.49Z"/></g><g id="ribbon_left" data-name="ribbon left"><path class="cls-35" d="M41.59,76.45c-.57.33-1,.67-.9.84s.21.28.47.45c.42.29.67.81.47,1a1.43,1.43,0,0,0,.56-1.15A1.47,1.47,0,0,0,41.59,76.45Z"/><path class="cls-36" d="M51.3,68.73A13.1,13.1,0,0,0,47.08,68a12,12,0,0,0-2,.18c-2.49.41-4.39,1.41-4.24,2.22,0,0,0,0,0,.06s-.94-2.1-.95-2.18c-.17-.9,1.93-2,4.7-2.46a14.38,14.38,0,0,1,2.44-.2,13.3,13.3,0,0,1,4.23.57v2.52"/><path class="cls-35" d="M42.89,71.29c-1.16-.08-2-.39-2-.87s.32-.82,1-1.2c.31,0,.66.07,1,.07v2"/><path class="cls-35" d="M47.06,69.73a3.45,3.45,0,0,1,1.53.51l0,0c.12.27-.51.83-1.57,1.45v-2"/><path class="cls-36" d="M40.3,75.22c-.11-.33,1-1,2.61-1.57.72-.26,1.32-.53,2.07-.86,2.21-1,3.84-2.1,3.64-2.51l0,0a14.55,14.55,0,0,1,.31,2.11c.2.37-1.3,1.48-3.33,2.45-.65.32-2,.82-2.67,1-1.17.4-2.32,1.16-2.21,1.44l-.39-2.07Z"/></g><g id="crown_right" data-name="crown right"><path class="cls-37" d="M83.16,56.43a.93.93,0,0,1-.33.23c-.13,0-.31-.13-.31-.13a.58.58,0,0,1-.27.16c-.15,0-.36-.17-.36-.17a.89.89,0,0,1-.28.26.42.42,0,0,1-.29-.06.44.44,0,0,1-.16.15s-.13,0-.13,0l-.15-.1-.17-.18-.16-.06-.08-.28s0-.14,0-.14c0-.17.22-.36.59-.44a1,1,0,0,1,.52,0,1.42,1.42,0,0,1,.82-.21,1.47,1.47,0,0,1,.78.18,1.47,1.47,0,0,1,.78-.18,1.36,1.36,0,0,1,.81.21,1.06,1.06,0,0,1,.53,0c.37.08.63.27.59.44,0,0,0,.1,0,.14l-.08.28-.16.06-.17.18-.15.1s-.08,0-.12,0a.29.29,0,0,0-.46-.09.89.89,0,0,1-.28-.26s-.21.21-.36.17a.58.58,0,0,1-.27-.16s-.18.15-.31.13a.93.93,0,0,1-.33-.23Z"/><ellipse class="cls-6" cx="83.15" cy="55.35" rx="0.35" ry="0.5"/><ellipse class="cls-6" cx="83.16" cy="55.35" rx="0.16" ry="0.46"/><ellipse class="cls-7" cx="83.16" cy="54.77" rx="0.24" ry="0.23"/><path class="cls-8" d="M83.49,54.69v.15h-.65v-.15h.24v-.33h-.16v-.15h.16v-.15h.16v.15h.15v.15h-.15v.33h.25"/><path class="cls-9" d="M83.23,54.56a.24.24,0,0,1,.16.28.24.24,0,0,1-.3.15.22.22,0,0,1,0-.43"/><path class="cls-38" d="M80.49,56.32a.88.88,0,0,1-.06-.28.74.74,0,0,1,.73-.74.71.71,0,0,1,.35.1"/><path class="cls-9" d="M81.79,55.79a.46.46,0,0,1-.08-.21.62.62,0,0,1,.68-.54.8.8,0,0,1,.42.12"/><path class="cls-9" d="M84.52,55.8a.47.47,0,0,0,.07-.22.62.62,0,0,0-.68-.54.83.83,0,0,0-.42.12"/><path class="cls-38" d="M85.81,56.32a.67.67,0,0,0,.06-.28.73.73,0,0,0-.72-.74.75.75,0,0,0-.36.1"/><ellipse class="cls-39" cx="80.27" cy="55.98" rx="0.12" ry="0.11"/><ellipse class="cls-39" cx="80.32" cy="55.58" rx="0.12" ry="0.11"/><ellipse class="cls-39" cx="80.58" cy="55.27" rx="0.12" ry="0.11"/><ellipse class="cls-39" cx="80.92" cy="55.1" rx="0.12" ry="0.11"/><ellipse class="cls-39" cx="81.29" cy="55.12" rx="0.12" ry="0.11"/><ellipse class="cls-40" cx="81.52" cy="55.57" rx="0.12" ry="0.11"/><ellipse class="cls-39" cx="81.58" cy="55.19" rx="0.12" ry="0.11"/><ellipse class="cls-39" cx="81.87" cy="54.95" rx="0.12" ry="0.11"/><ellipse class="cls-39" cx="82.23" cy="54.83" rx="0.12" ry="0.11"/><ellipse class="cls-39" cx="82.6" cy="54.85" rx="0.12" ry="0.11"/><ellipse class="cls-39" cx="83.7" cy="54.85" rx="0.12" ry="0.11"/><ellipse class="cls-39" cx="84.07" cy="54.83" rx="0.12" ry="0.11"/><ellipse class="cls-39" cx="84.43" cy="54.95" rx="0.12" ry="0.11"/><ellipse class="cls-39" cx="84.72" cy="55.19" rx="0.12" ry="0.11"/><ellipse class="cls-40" cx="84.78" cy="55.57" rx="0.12" ry="0.11"/><ellipse class="cls-39" cx="85.01" cy="55.12" rx="0.12" ry="0.11"/><ellipse class="cls-39" cx="85.38" cy="55.1" rx="0.12" ry="0.11"/><ellipse class="cls-39" cx="85.72" cy="55.27" rx="0.12" ry="0.11"/><ellipse class="cls-39" cx="85.99" cy="55.58" rx="0.12" ry="0.11"/><ellipse class="cls-39" cx="86.03" cy="55.98" rx="0.12" ry="0.11"/><g id="crown_pt1-2" data-name="crown pt1"><path class="cls-6" d="M81.34,57.41a1.26,1.26,0,0,0-.14-.28,7.47,7.47,0,0,1,2-.24,7.61,7.61,0,0,1,2,.24l-.14.23a1.1,1.1,0,0,0-.09.21,7.23,7.23,0,0,0-3.5,0,1.16,1.16,0,0,0-.06-.17h0"/><path class="cls-6" d="M83.16,58a7.43,7.43,0,0,0,1.56-.16c.17-.05.27-.12.25-.21a.15.15,0,0,0-.09-.1,7.15,7.15,0,0,0-3.44,0,.16.16,0,0,0-.1.1c0,.09.09.16.25.21A7.62,7.62,0,0,0,83.16,58Z"/><path class="cls-6" d="M85.16,56.85,85,56.72a.63.63,0,0,1-.33.06c-.18,0-.24-.25-.24-.25a.67.67,0,0,1-.37.16.46.46,0,0,1-.27-.16.64.64,0,0,1-.34.12.6.6,0,0,1-.31-.21.64.64,0,0,1-.32.22.41.41,0,0,1-.29-.14.36.36,0,0,1-.27.18.49.49,0,0,1-.38-.16.7.7,0,0,1-.25.24.49.49,0,0,1-.32-.07l0,.11a.12.12,0,0,1-.08,0l0,.12a7,7,0,0,1,1.93-.23,7.14,7.14,0,0,1,2,.23l0-.14Z"/><path class="cls-6" d="M83.16,56.19h.08a.16.16,0,0,0,0,.1.28.28,0,0,0,.29.27.29.29,0,0,0,.27-.19s0-.1,0-.1,0,.11,0,.11a.29.29,0,0,0,.57,0,.08.08,0,0,0,0,0l.09-.08,0,.11a.22.22,0,0,0,0,.12.26.26,0,0,0,.27.25A.27.27,0,0,0,85,56.6l.06-.08v.1a.17.17,0,0,0,.13.18.36.36,0,0,0,.23-.1,1.2,1.2,0,0,0,.2-.19v.11a1,1,0,0,1-.25.28.34.34,0,0,1-.24.06.23.23,0,0,1-.17-.15.46.46,0,0,1-.21,0,.39.39,0,0,1-.36-.22.4.4,0,0,1-.3.13.42.42,0,0,1-.32-.15.39.39,0,0,1-.28.11.43.43,0,0,0-.68,0,.39.39,0,0,1-.28-.11.41.41,0,0,1-.32.15.4.4,0,0,1-.3-.13.39.39,0,0,1-.36.22.46.46,0,0,1-.21,0,.23.23,0,0,1-.17.15.34.34,0,0,1-.24-.06,1.13,1.13,0,0,1-.26-.28l0-.11a1.2,1.2,0,0,0,.2.19.37.37,0,0,0,.24.1c.08,0,.12-.1.12-.18v-.1l.06.08a.28.28,0,0,0,.5-.14.21.21,0,0,0,0-.12l0-.11.09.08v0a.27.27,0,0,0,.28.27.28.28,0,0,0,.28-.23s0-.11,0-.11,0,.1,0,.1a.3.3,0,0,0,.28.19.28.28,0,0,0,.28-.27.31.31,0,0,0,0-.1Z"/><path class="cls-10" d="M83.16,56.89a7.47,7.47,0,0,0-2,.24.08.08,0,0,1-.09,0,.06.06,0,0,1,0-.08,8.12,8.12,0,0,1,4,0,.06.06,0,0,1,0,.08.07.07,0,0,1-.08,0A7.61,7.61,0,0,0,83.16,56.89Z"/><path class="cls-6" d="M80.54,56.58a1.66,1.66,0,0,0-.17-.19.56.56,0,0,0-.17-.09s.07-.07.15-.07a.14.14,0,0,1,.11.05v-.05a.17.17,0,0,1,.09.08.43.43,0,0,1,0,.19.27.27,0,0,1,0,.08Z"/><path class="cls-6" d="M81,56.38l0,.17-.36,0,0,0v-.06l.27-.22.16.11"/><path class="cls-6" d="M80.54,56.51s.09,0,.14,0,.06.09,0,.13-.09,0-.14,0S80.51,56.54,80.54,56.51Z"/><path class="cls-6" d="M81.2,56.55s0-.1,0-.11.08,0,.1.07,0,.09,0,.1S81.22,56.59,81.2,56.55Z"/><path class="cls-6" d="M81.37,56.33l.13.12.31-.17,0-.05,0,0-.36,0-.06.17"/><path class="cls-6" d="M81.73,55.75l-.17.16.22.29.06,0,0,0,.08-.35-.23-.08"/><path class="cls-6" d="M82.31,56.14l-.06.16-.36,0,0,0,0-.06.31-.16.13.13"/><ellipse class="cls-6" cx="81.84" cy="56.23" rx="0.13" ry="0.12"/><path class="cls-6" d="M82.44,56.31c0-.05,0-.1.06-.1s.07,0,.07.08,0,.1,0,.1S82.45,56.36,82.44,56.31Z"/><path class="cls-6" d="M82.68,56.13l.1.14.34-.11,0,0,0,0-.34-.1-.1.16"/><path class="cls-6" d="M83.16,55.59l-.22.13.16.36.06,0,0,0,.17-.36-.22-.13"/><path class="cls-6" d="M83.64,56.13l-.1.14-.34-.11,0,0,0,0,.34-.1.1.16"/><ellipse class="cls-6" cx="83.16" cy="56.12" rx="0.13" ry="0.12"/><path class="cls-6" d="M83.88,56.31c0-.05,0-.1,0-.1s-.07,0-.08.08,0,.1,0,.1A.08.08,0,0,0,83.88,56.31Z"/><path class="cls-6" d="M84,56.14l.07.16.35,0,0,0,0-.06L84.14,56l-.13.13"/><path class="cls-6" d="M84.59,55.75l.17.16-.22.29-.05,0,0,0-.08-.35.23-.08"/><path class="cls-6" d="M85,56.33l-.13.12-.31-.17,0-.05,0,0,.36,0,.06.17"/><ellipse class="cls-6" cx="84.49" cy="56.23" rx="0.13" ry="0.12"/><path class="cls-6" d="M85.12,56.55a.08.08,0,0,0,0-.11s-.08,0-.1.07,0,.09,0,.1S85.1,56.59,85.12,56.55Z"/><path class="cls-6" d="M85.73,56.58s.1-.13.17-.19a.56.56,0,0,1,.17-.09s-.07-.07-.14-.07a.17.17,0,0,0-.12.05v-.05a.17.17,0,0,0-.09.08.43.43,0,0,0,0,.19.27.27,0,0,0,0,.08Z"/><path class="cls-6" d="M85.25,56.38l0,.17.36,0,0,0v-.06l-.27-.22-.16.11"/><path class="cls-6" d="M85.74,56.51s-.09,0-.14,0-.06.09,0,.13.09,0,.14,0S85.77,56.54,85.74,56.51Z"/></g><g id="crown_pt2-2" data-name="crown pt2"><path class="cls-11" d="M81.21,57.42l.08-.13.16,0-.09.14-.15,0"/><path class="cls-12" d="M81.93,57.3l-.18,0a.08.08,0,0,1-.1-.06.09.09,0,0,1,.07-.09l.18,0,.18,0a.1.1,0,0,1,.1.07.1.1,0,0,1-.07.09l-.18,0"/><ellipse class="cls-13" cx="82.52" cy="57.16" rx="0.11" ry="0.1"/><path class="cls-11" d="M83.17,57.21h-.25a.07.07,0,0,1-.08-.08.08.08,0,0,1,.08-.08h.5a.08.08,0,0,1,.08.08.07.07,0,0,1-.08.08h-.25"/><ellipse class="cls-13" cx="83.8" cy="57.16" rx="0.11" ry="0.1"/><path class="cls-12" d="M84.4,57.3l.17,0a.08.08,0,0,0,.1-.06.08.08,0,0,0-.07-.09l-.18,0-.18,0a.1.1,0,0,0-.1.07.1.1,0,0,0,.07.09l.19,0"/><path class="cls-11" d="M85.1,57.43,85,57.29l-.17,0,.08.15.16,0"/><path class="cls-5" d="M83.16,57.9a6.76,6.76,0,0,1-1.62-.17,7.38,7.38,0,0,1,3.24,0A6.82,6.82,0,0,1,83.16,57.9Z"/><path class="cls-14" d="M83.45,57.88v-.3m-.15.31v-.32m-.11.32v-.32"/><path class="cls-15" d="M83.1,57.89v-.32"/><path class="cls-16" d="M83,57.89v-.32"/><path class="cls-17" d="M82.93,57.89v-.32"/><path class="cls-17" d="M82.84,57.89v-.32"/><path class="cls-18" d="M82.77,57.89v-.32"/><path class="cls-19" d="M82.63,57.88v-.3m.07.3v-.31"/><path class="cls-20" d="M82.5,57.86v-.27m.07.28v-.29"/><path class="cls-21" d="M82.33,57.85v-.24m.06.24V57.6m0,.26V57.6"/><path class="cls-22" d="M82.27,57.85v-.23"/><path class="cls-23" d="M82.21,57.84v-.22"/><path class="cls-24" d="M82.15,57.83v-.2"/><path class="cls-25" d="M82,57.81v-.16m.07.17v-.18"/><path class="cls-25" d="M82,57.8v-.14"/><path class="cls-26" d="M81.9,57.79v-.12"/><path class="cls-27" d="M81.84,57.77v-.09"/><path class="cls-28" d="M81.77,57.76v-.07"/><path class="cls-29" d="M81.7,57.75v0"/></g></g><g id="pillar_right" data-name="pillar right"><g id="pillar_left-2" data-name="pillar left"><path class="cls-30" d="M87.16,84.65a2.16,2.16,0,0,1-1-.22,2.46,2.46,0,0,0-2,0,2.36,2.36,0,0,1-2,0,2.36,2.36,0,0,0-1-.2,2.23,2.23,0,0,0-1,.21,2.19,2.19,0,0,1-1,.22v.62a2.32,2.32,0,0,0,1-.22,2.1,2.1,0,0,1,1-.21,2.36,2.36,0,0,1,1,.2,2.36,2.36,0,0,0,2,0,2.46,2.46,0,0,1,2,0,2.14,2.14,0,0,0,1,.22v-.62Z"/><path class="cls-31" d="M87.16,85.27a2.16,2.16,0,0,1-1-.22,2.46,2.46,0,0,0-2,0,2.36,2.36,0,0,1-2,0,2.36,2.36,0,0,0-1-.2,2.1,2.1,0,0,0-1,.21,2.32,2.32,0,0,1-1,.22v.62a2.18,2.18,0,0,0,1-.23,2.23,2.23,0,0,1,1-.21,2.2,2.2,0,0,1,1,.21,2.15,2.15,0,0,0,1,.23,2.27,2.27,0,0,0,1-.22,2.36,2.36,0,0,1,2,0,2.27,2.27,0,0,0,1,.22v-.62"/><path class="cls-30" d="M87.16,85.89a2.29,2.29,0,0,1-1-.22,2.36,2.36,0,0,0-2,0,2.27,2.27,0,0,1-1,.22,2.15,2.15,0,0,1-1-.23,2.2,2.2,0,0,0-1-.21,2.23,2.23,0,0,0-1,.21,2.18,2.18,0,0,1-1,.23v.61a2.19,2.19,0,0,0,1-.22,2.23,2.23,0,0,1,1-.21,2.36,2.36,0,0,1,1,.2,2.36,2.36,0,0,0,2,0,2.46,2.46,0,0,1,2,0,2.14,2.14,0,0,0,1,.22v-.61"/><path class="cls-31" d="M87.15,87.12a2.14,2.14,0,0,1-1-.22,2.46,2.46,0,0,0-2,0,2.27,2.27,0,0,1-1,.22,2.15,2.15,0,0,1-1-.23,2.21,2.21,0,0,0-1-.2,2.1,2.1,0,0,0-1,.21,2.32,2.32,0,0,1-1,.22v-.61a2.18,2.18,0,0,0,1-.23,2.23,2.23,0,0,1,1-.21,2.36,2.36,0,0,1,1,.2,2.36,2.36,0,0,0,2,0,2.46,2.46,0,0,1,2,0,2.16,2.16,0,0,0,1,.22v.62"/><path class="cls-30" d="M87.15,87.74a2.27,2.27,0,0,1-1-.22,2.36,2.36,0,0,0-2,0,2.36,2.36,0,0,1-2,0,2.2,2.2,0,0,0-1-.21,2.23,2.23,0,0,0-1,.21,2.18,2.18,0,0,1-1,.23v-.61a2.32,2.32,0,0,0,1-.23,2.1,2.1,0,0,1,1-.21,2.36,2.36,0,0,1,1,.2,2.15,2.15,0,0,0,1,.23,2.27,2.27,0,0,0,1-.22,2.46,2.46,0,0,1,2,0,2.16,2.16,0,0,0,1,.22v.62Z"/><path class="cls-32" d="M80.92,82.12a.76.76,0,0,1,0,.16.69.69,0,0,1-.72.67h5.88a.69.69,0,0,1-.72-.67.78.78,0,0,1,0-.16l-.11,0H81Z"/><path class="cls-33" d="M81,81.73H85.3a.24.24,0,0,1,.26.2.25.25,0,0,1-.26.21H81a.25.25,0,0,1-.26-.21A.24.24,0,0,1,81,81.73Z"/><path class="cls-33" d="M80.24,84.44H86.1V83H80.24Z"/><path class="cls-31" d="M81.08,81.49h4.16V61.1H81.08Z"/><path class="cls-34" d="M84,61.13V81.47m.47-20.34V81.47"/><path class="cls-33" d="M80.32,59.49H86V58H80.32v1.5Z"/><path class="cls-32" d="M80.92,60.48l.1,0H85.3a.2.2,0,0,1,.11,0,.35.35,0,0,1,0-.68l-.12,0H81l-.12,0h0a.33.33,0,0,1,.24.33.35.35,0,0,1-.25.33Z"/><path class="cls-33" d="M81,60.46H85.3a.21.21,0,1,1,0,.41H81a.21.21,0,1,1,0-.41Z"/><path class="cls-33" d="M81,59.49H85.3c.15,0,.26.07.26.17s-.11.17-.26.17H81c-.14,0-.26-.08-.26-.17S80.88,59.49,81,59.49Z"/></g></g><g id="ribbon_right" data-name="ribbon right"><g id="ribbon_left-2" data-name="ribbon left"><path class="cls-35" d="M86.55,76.45c.58.33,1,.67.91.84s-.22.28-.48.45c-.41.29-.66.81-.47,1a1.46,1.46,0,0,1,0-2.33Z"/><path class="cls-36" d="M76.84,68.73A13.15,13.15,0,0,1,81.06,68a12,12,0,0,1,2,.18c2.49.41,4.38,1.41,4.23,2.22,0,0,0,0,0,.06s.93-2.1,1-2.18c.16-.9-1.94-2-4.7-2.46a14.5,14.5,0,0,0-2.45-.2,13.4,13.4,0,0,0-4.23.57v2.52"/><path class="cls-35" d="M85.26,71.29c1.16-.08,1.94-.39,2-.87s-.32-.82-1-1.2c-.31,0-.66.07-1,.07v2"/><path class="cls-35" d="M81.09,69.73a3.45,3.45,0,0,0-1.54.51l0,0c-.13.27.5.83,1.56,1.45v-2"/><path class="cls-36" d="M87.85,75.22c.11-.33-1-1-2.61-1.57-.73-.26-1.33-.53-2.07-.86-2.21-1-3.84-2.1-3.64-2.51l0,0a14.45,14.45,0,0,0-.3,2.11c-.2.37,1.29,1.48,3.33,2.45.65.32,2,.82,2.67,1,1.16.4,2.31,1.16,2.21,1.44l.39-2.07Z"/></g></g><g id="plus_ultra" data-name="plus ultra"><path class="cls-7" d="M42.6,67.75c.51-.18.85-.4.68-.8s-.36-.31-.76-.16l-.69.25.63,1.54.2-.08.22-.07-.28-.68ZM42.3,67l.18-.07a.31.31,0,0,1,.38.21.29.29,0,0,1-.13.39.76.76,0,0,1-.18.09L42.3,67"/><path class="cls-7" d="M44.23,66.36l-.22.06-.22,0,.36,1.61,1.12-.23,0-.1a.34.34,0,0,1,0-.1c-.19.05-.41.12-.67.17l-.32-1.44"/><path class="cls-7" d="M46.48,67.75c.21-.59.47-1.15.72-1.71l-.14,0h-.14a11.42,11.42,0,0,1-.48,1.22c-.21-.38-.44-.76-.62-1.15l-.26,0h-.27c.32.52.64,1,.93,1.59l.13,0h.13"/><path class="cls-7" d="M48.82,66.51l.13-.23a.9.9,0,0,0-.47-.16c-.45-.05-.72.16-.75.43-.06.58.85.53.81.92,0,.16-.19.23-.38.21a.4.4,0,0,1-.39-.31h-.05a1.51,1.51,0,0,1-.13.29,1,1,0,0,0,.48.15c.47,0,.82-.13.85-.44.06-.55-.86-.58-.82-.91,0-.13.12-.22.36-.2a.36.36,0,0,1,.32.24h0"/><path class="cls-7" d="M79.44,67.83c.16-.59.36-1.17.56-1.75l-.14,0-.14,0a11.91,11.91,0,0,1-.36,1.26c-.25-.37-.51-.73-.72-1.1l-.27,0-.26,0c.37.5.73,1,1.07,1.51l.13,0h.13"/><path class="cls-7" d="M81,66.09h-.23l-.22,0,0,1.64,1.14,0s0-.07,0-.1a.3.3,0,0,1,0-.1l-.7,0,0-1.47"/><path class="cls-7" d="M82.82,66.36a4.68,4.68,0,0,1,.54.08s0-.07,0-.11l0-.1-1.55-.13v.11a.19.19,0,0,1,0,.1,3.71,3.71,0,0,1,.57,0l-.14,1.48h.23l.23,0,.13-1.47"/><path class="cls-7" d="M83.46,68l.22,0,.22.06.19-.75h0l.12.31.23.57.27,0,.27.07-.08-.17a7.67,7.67,0,0,1-.36-.77c.28,0,.5-.09.56-.32a.37.37,0,0,0-.17-.4,1.84,1.84,0,0,0-.47-.15l-.63-.13L83.46,68m.8-1.39c.18,0,.41.07.41.27a.33.33,0,0,1,0,.12c-.05.25-.24.33-.54.24l.15-.63"/><path class="cls-7" d="M86.42,68.47a5.42,5.42,0,0,1-.08.54l.23.11.22.13.15-1.85-.1-.05a.21.21,0,0,1-.1-.06l-1.63,1,.13.06.12.07.45-.33.61.34ZM86,68l.55-.35-.06.62L86,68"/></g></g><g id="crown_crest" data-name="crown crest"><path class="cls-11" d="M63.91,46.78a12.11,12.11,0,0,1,4.2.64,8.1,8.1,0,0,0,2.15.55A8.92,8.92,0,0,0,72,48a6.86,6.86,0,0,1,2.71.63,7.11,7.11,0,0,1,2,1.26l-.4.36-.12,1-1.1,1.26-.55.47-1.3,1-.67,0-.2.58-8.42-1-8.46,1-.2-.58-.67,0-1.3-1-.55-.47-1.1-1.26-.11-1-.41-.36a7.41,7.41,0,0,1,2-1.26A6.86,6.86,0,0,1,55.89,48,8.85,8.85,0,0,0,57.64,48a8.1,8.1,0,0,0,2.15-.55,11.66,11.66,0,0,1,4.12-.64Z"/><path class="cls-33" d="M57.69,49l.35.29.53-.87a2,2,0,0,1-1-1.67,1.64,1.64,0,0,1,0-.23c.05-1.11,1.4-2,3.12-2a4,4,0,0,1,2.26.64c0-.18,0-.32.06-.48a4.72,4.72,0,0,0-2.32-.58c-2,0-3.52,1.12-3.59,2.45a1.64,1.64,0,0,0,0,.23A2.37,2.37,0,0,0,58,48.54l-.28.46"/><path class="cls-33" d="M57.71,49a2.45,2.45,0,0,1-1.09-1.94,2.61,2.61,0,0,1,1.43-2.15,2.26,2.26,0,0,0-.9,1.6,1.64,1.64,0,0,0,0,.23A2.37,2.37,0,0,0,58,48.54l-.26.47"/><path class="cls-33" d="M51.77,49.89a2.33,2.33,0,0,1-.38-2.58c.54-1.12,2.26-1.93,4.29-1.93a6.63,6.63,0,0,1,1.57.17,2.4,2.4,0,0,0-.27.38,6.82,6.82,0,0,0-1.3-.13c-1.86,0-3.42.73-3.87,1.71a1.83,1.83,0,0,0-.19.82,2,2,0,0,0,.72,1.49l-.68,1.1-.36-.29.47-.74Z"/><path class="cls-33" d="M52.45,46.2a2.86,2.86,0,0,0-1.06,1.11,2.33,2.33,0,0,0,.38,2.58l-.41.66a2.72,2.72,0,0,1-.62-1.71,3.16,3.16,0,0,1,1.71-2.64Z"/><path class="cls-33" d="M64,43.85a.93.93,0,0,1,.93.69,8.46,8.46,0,0,1,.11,1.19s0,.09,0,.13a1,1,0,0,0,0,.16,7,7,0,0,0,.32,2.18L64,49.51,62.62,48.2A7.3,7.3,0,0,0,63,46c0-.06,0-.11,0-.16v-.13a8.53,8.53,0,0,1,.1-1.19,1,1,0,0,1,1-.69Z"/><path class="cls-33" d="M64,44.27a.49.49,0,0,1,.48.36,7.52,7.52,0,0,1,.1,1.12v.12c0,.05,0,.1,0,.15a6.33,6.33,0,0,0,.31,2.06l-.91.86-.9-.86A6.93,6.93,0,0,0,63.41,46c0-.05,0-.1,0-.15s0-.08,0-.12a7.46,7.46,0,0,1,.11-1.12A.49.49,0,0,1,64,44.27Z"/><path class="cls-33" d="M70.32,49l-.35.29-.54-.87a2,2,0,0,0,1-1.67.86.86,0,0,0,0-.23c0-1.11-1.4-2-3.12-2a4,4,0,0,0-2.26.64c0-.18,0-.32-.06-.48a4.72,4.72,0,0,1,2.32-.58c2,0,3.52,1.12,3.59,2.45a1.64,1.64,0,0,1,0,.23A2.37,2.37,0,0,1,70,48.54l.28.46"/><path class="cls-33" d="M70.3,49a2.45,2.45,0,0,0,1.09-1.94A2.61,2.61,0,0,0,70,44.92a2.26,2.26,0,0,1,.9,1.6,1.64,1.64,0,0,1,0,.23A2.37,2.37,0,0,1,70,48.54l.26.47"/><path class="cls-33" d="M76.24,49.89a2.33,2.33,0,0,0,.38-2.58c-.55-1.12-2.26-1.93-4.29-1.93a6.63,6.63,0,0,0-1.57.17,2.4,2.4,0,0,1,.27.38,6.82,6.82,0,0,1,1.3-.13c1.86,0,3.42.73,3.87,1.71a1.83,1.83,0,0,1,.19.82,2,2,0,0,1-.72,1.49l.67,1.1.37-.29Z"/><path class="cls-33" d="M75.56,46.2a2.86,2.86,0,0,1,1.06,1.11,2.33,2.33,0,0,1-.38,2.58l.41.66a2.72,2.72,0,0,0,.62-1.71,3.16,3.16,0,0,0-1.71-2.64Z"/><ellipse class="cls-41" cx="64.01" cy="42.83" rx="1.13" ry="1.08"/><path class="cls-6" d="M63.72,39.82v.58H63.1V41h.62v1.69h-.78s-.06.09-.06.15a1,1,0,0,0,.09.42h2.09a1,1,0,0,0,.09-.42c0-.06-.05-.1-.05-.15h-.76V41H65V40.4h-.62v-.58Z"/><ellipse class="cls-42" cx="64.01" cy="48.37" rx="0.49" ry="0.46"/><ellipse class="cls-42" cx="64.01" cy="47.46" rx="0.49" ry="0.46"/><ellipse class="cls-42" cx="64.01" cy="46.49" rx="0.39" ry="0.37"/><ellipse class="cls-42" cx="64.01" cy="45.61" rx="0.28" ry="0.27"/><ellipse class="cls-42" cx="64.01" cy="44.85" rx="0.23" ry="0.21"/><ellipse class="cls-42" cx="50.93" cy="50.86" rx="0.28" ry="0.27"/><ellipse class="cls-42" cx="50.54" cy="50.18" rx="0.28" ry="0.27"/><ellipse class="cls-42" cx="50.29" cy="49.39" rx="0.28" ry="0.27"/><ellipse class="cls-42" cx="50.26" cy="48.55" rx="0.28" ry="0.27"/><ellipse class="cls-42" cx="50.46" cy="47.72" rx="0.28" ry="0.27"/><ellipse class="cls-42" cx="50.9" cy="46.96" rx="0.28" ry="0.27"/><ellipse class="cls-42" cx="51.47" cy="46.34" rx="0.28" ry="0.27"/><ellipse class="cls-42" cx="52.14" cy="45.83" rx="0.28" ry="0.27"/><ellipse class="cls-42" cx="52.94" cy="45.4" rx="0.28" ry="0.27"/><ellipse class="cls-42" cx="53.77" cy="45.1" rx="0.28" ry="0.27"/><ellipse class="cls-42" cx="54.7" cy="44.94" rx="0.28" ry="0.27"/><ellipse class="cls-42" cx="55.58" cy="44.89" rx="0.28" ry="0.27"/><ellipse class="cls-42" cx="56.44" cy="44.92" rx="0.28" ry="0.27"/><ellipse class="cls-42" cx="57.4" cy="48.72" rx="0.28" ry="0.27"/><ellipse class="cls-42" cx="56.92" cy="48.04" rx="0.28" ry="0.27"/><ellipse class="cls-42" cx="56.67" cy="47.3" rx="0.28" ry="0.27"/><ellipse class="cls-42" cx="56.7" cy="46.48" rx="0.28" ry="0.27"/><ellipse class="cls-42" cx="56.87" cy="45.66" rx="0.28" ry="0.27"/><ellipse class="cls-42" cx="57.3" cy="44.92" rx="0.28" ry="0.27"/><ellipse class="cls-42" cx="57.96" cy="44.41" rx="0.28" ry="0.27"/><ellipse class="cls-42" cx="58.72" cy="43.98" rx="0.28" ry="0.27"/><ellipse class="cls-42" cx="59.57" cy="43.73" rx="0.28" ry="0.27"/><ellipse class="cls-42" cx="60.45" cy="43.58" rx="0.28" ry="0.27"/><ellipse class="cls-42" cx="61.31" cy="43.59" rx="0.28" ry="0.27"/><ellipse class="cls-42" cx="62.21" cy="43.74" rx="0.28" ry="0.27"/><ellipse class="cls-42" cx="63.03" cy="44.03" rx="0.28" ry="0.27"/><ellipse class="cls-42" cx="64.97" cy="44.03" rx="0.28" ry="0.27"/><ellipse class="cls-42" cx="65.8" cy="43.74" rx="0.28" ry="0.27"/><ellipse class="cls-42" cx="66.7" cy="43.59" rx="0.28" ry="0.27"/><ellipse class="cls-42" cx="67.56" cy="43.58" rx="0.28" ry="0.27"/><ellipse class="cls-42" cx="68.44" cy="43.73" rx="0.28" ry="0.27"/><ellipse class="cls-42" cx="69.28" cy="43.98" rx="0.28" ry="0.27"/><ellipse class="cls-42" cx="70.05" cy="44.41" rx="0.28" ry="0.27"/><ellipse class="cls-42" cx="70.7" cy="44.92" rx="0.28" ry="0.27"/><ellipse class="cls-42" cx="71.14" cy="45.66" rx="0.28" ry="0.27"/><ellipse class="cls-42" cx="71.31" cy="46.48" rx="0.28" ry="0.27"/><ellipse class="cls-42" cx="71.34" cy="47.3" rx="0.28" ry="0.27"/><ellipse class="cls-42" cx="71.09" cy="48.04" rx="0.28" ry="0.27"/><ellipse class="cls-42" cx="70.61" cy="48.72" rx="0.28" ry="0.27"/><ellipse class="cls-42" cx="71.57" cy="44.92" rx="0.28" ry="0.27"/><ellipse class="cls-42" cx="72.43" cy="44.89" rx="0.28" ry="0.27"/><ellipse class="cls-42" cx="73.31" cy="44.94" rx="0.28" ry="0.27"/><ellipse class="cls-42" cx="74.24" cy="45.1" rx="0.28" ry="0.27"/><ellipse class="cls-42" cx="75.07" cy="45.4" rx="0.28" ry="0.27"/><ellipse class="cls-42" cx="75.87" cy="45.83" rx="0.28" ry="0.27"/><ellipse class="cls-42" cx="76.54" cy="46.34" rx="0.28" ry="0.27"/><ellipse class="cls-42" cx="77.11" cy="46.96" rx="0.28" ry="0.27"/><ellipse class="cls-42" cx="77.54" cy="47.72" rx="0.28" ry="0.27"/><ellipse class="cls-42" cx="77.75" cy="48.55" rx="0.28" ry="0.27"/><ellipse class="cls-42" cx="77.72" cy="49.39" rx="0.28" ry="0.27"/><ellipse class="cls-42" cx="77.47" cy="50.18" rx="0.28" ry="0.27"/><ellipse class="cls-42" cx="77.08" cy="50.86" rx="0.28" ry="0.27"/><path class="cls-33" d="M64,57.9a28.7,28.7,0,0,1-8-1,.31.31,0,0,1-.22-.32.32.32,0,0,1,.22-.3,29.48,29.48,0,0,1,8-1,29.48,29.48,0,0,1,8,1,.31.31,0,0,1,.21.3.3.3,0,0,1-.21.32,28.7,28.7,0,0,1-8,1"/><path class="cls-33" d="M64,55.32a29,29,0,0,0-8,1c.17-.08.15-.28,0-.82s-.64-.62-.64-.62A32.77,32.77,0,0,1,64,53.83,33.07,33.07,0,0,1,72.8,54.9s-.39,0-.64.62-.22.74,0,.82a29.39,29.39,0,0,0-8.09-1"/><path class="cls-33" d="M64,53.84a32,32,0,0,0-8.74,1.07.29.29,0,0,1-.36-.16.26.26,0,0,1,.18-.34A31.71,31.71,0,0,1,64,53.29,31.82,31.82,0,0,1,73,54.41a.26.26,0,0,1,.17.34.27.27,0,0,1-.35.16A32.18,32.18,0,0,0,64,53.84"/><path class="cls-33" d="M64.05,51.14l.32.06a1.16,1.16,0,0,0-.07.42,1.23,1.23,0,0,0,1.26,1.19,1.26,1.26,0,0,0,1.2-.82s.12-.43.17-.43S67,52,67,52a1.26,1.26,0,0,0,2.5-.18.76.76,0,0,0,0-.15l.4-.39.21.5a1.14,1.14,0,0,0-.12.52,1.17,1.17,0,0,0,1.2,1.14,1.2,1.2,0,0,0,1-.51l.25-.32V53a.73.73,0,0,0,.56.81,1.73,1.73,0,0,0,1-.44,7.4,7.4,0,0,0,.91-.84L75,53a3.82,3.82,0,0,1-1,1.06,1.8,1.8,0,0,1-1.08.29,1,1,0,0,1-.77-.7,1.78,1.78,0,0,1-.91.25,1.73,1.73,0,0,1-1.62-1,1.77,1.77,0,0,1-1.33.58,1.87,1.87,0,0,1-1.43-.66,1.82,1.82,0,0,1-1.25.48A1.84,1.84,0,0,1,64,52.54a1.83,1.83,0,0,1-1.52.78,1.81,1.81,0,0,1-1.24-.48,1.87,1.87,0,0,1-1.43.66,1.77,1.77,0,0,1-1.33-.58,1.74,1.74,0,0,1-1.62,1,1.78,1.78,0,0,1-.91-.25,1,1,0,0,1-.77.7,1.8,1.8,0,0,1-1.08-.29,3.82,3.82,0,0,1-1-1.06l.05-.46a7.4,7.4,0,0,0,.91.84,1.65,1.65,0,0,0,1,.44c.39-.06.55-.42.55-.81v-.4l.26.32a1.19,1.19,0,0,0,1,.51,1.17,1.17,0,0,0,1.2-1.14,1.13,1.13,0,0,0-.11-.52l.21-.5.39.39s0,.1,0,.15A1.27,1.27,0,0,0,61.1,52s0-.44.06-.45.15.44.17.43a1.25,1.25,0,0,0,1.2.82,1.22,1.22,0,0,0,1.25-1.19,1.16,1.16,0,0,0-.06-.42l.33-.06"/><path class="cls-33" d="M53.34,52.82a.59.59,0,0,0-.18-.27.46.46,0,0,0-.61-.07l0,.07a2,2,0,0,0-.62-.72A2.07,2.07,0,0,0,51,51.7a.75.75,0,0,1,.77-.74.8.8,0,0,1,.63.29l.06-.28a.76.76,0,0,1,.51.47,1.74,1.74,0,0,1,0,1,1.88,1.88,0,0,1,.22-.41,2.12,2.12,0,0,1,.64-.43,3.2,3.2,0,0,0,.35-.2s0,.05,0,.16a1.16,1.16,0,0,1,0,.21,2.18,2.18,0,0,1,1,.12,1.27,1.27,0,0,1-.67.59l.21.19a.63.63,0,0,1,.11.13l-.32,0a4.16,4.16,0,0,1-.69,0l-.45,0"/><path class="cls-35" d="M52.55,52.48a.46.46,0,0,1,.61.07c.2.17.26.42.13.56s-.4.1-.61-.07-.26-.42-.13-.56"/><path class="cls-42" d="M55.4,52.71a.35.35,0,0,1,.14-.47.38.38,0,0,1,.41.3c.07.21,0,.42-.14.47s-.34-.08-.41-.3"/><path class="cls-33" d="M57.89,51.68a.46.46,0,0,1-.17-.28.45.45,0,0,1,.05-.32,2.56,2.56,0,0,0-.46-.17,2.91,2.91,0,0,0-.61,0h-.3l.08.14.12.19a1.35,1.35,0,0,0-.77.54,1.46,1.46,0,0,0,.92.25,1.15,1.15,0,0,0,0,.22,1,1,0,0,0,0,.15l.28-.1a1.91,1.91,0,0,0,.93-.56"/><path class="cls-33" d="M57.77,49.06a1.32,1.32,0,0,1,.59.78.49.49,0,0,1,.18-.15.54.54,0,0,1,.28-.08s0,.24-.06.33a5.94,5.94,0,0,1-.08.6,2.15,2.15,0,0,1-.16.43.54.54,0,0,0-.41-.11.49.49,0,0,0-.34.23,3,3,0,0,1-.31-.35c-.14-.21-.23-.46-.28-.53s-.19-.3-.19-.3a.64.64,0,0,1,.29,0,.53.53,0,0,1,.23.08,1.3,1.3,0,0,1,.26-.92"/><path class="cls-33" d="M58.62,51.55a.47.47,0,0,0,.06-.31.46.46,0,0,0-.17-.28,2.51,2.51,0,0,1,.38-.32,3,3,0,0,1,.55-.24l.27-.1a1,1,0,0,1,0,.15,1.45,1.45,0,0,1,0,.23,1.37,1.37,0,0,1,.93.25,1.44,1.44,0,0,1-.78.53,1.41,1.41,0,0,1,.13.19l.07.14h-.3a2.82,2.82,0,0,1-.6-.05,2.49,2.49,0,0,1-.47-.17"/><ellipse class="cls-35" cx="58.21" cy="51.32" rx="0.56" ry="0.53"/><path class="cls-42" d="M60.87,51.65c0-.22.08-.41.23-.43s.32.14.35.37a.35.35,0,0,1-.24.43c-.16,0-.31-.14-.34-.37"/><path class="cls-33" d="M63.62,51.16a.49.49,0,0,1-.14-.34.51.51,0,0,1,.13-.34A2.13,2.13,0,0,0,62.46,50L62.13,50a1.66,1.66,0,0,0,0,.17l.11.24a1.57,1.57,0,0,0-1,.45,1.63,1.63,0,0,0,1,.45s0,.09-.11.23a1.35,1.35,0,0,0,0,.18l.33-.07a3.45,3.45,0,0,0,.67-.17,3.24,3.24,0,0,0,.49-.28"/><path class="cls-33" d="M64,48.22a1.51,1.51,0,0,1,.5,1,.53.53,0,0,1,.23-.14.82.82,0,0,1,.33,0s-.1.27-.14.36-.1.4-.22.65a2,2,0,0,1-.27.45.57.57,0,0,0-.85,0,2,2,0,0,1-.27-.45c-.12-.25-.17-.55-.22-.65S63,49,63,49a.82.82,0,0,1,.33,0,.53.53,0,0,1,.23.14,1.5,1.5,0,0,1,.49-1"/><path class="cls-33" d="M64.45,51.16a.49.49,0,0,0,.14-.34.51.51,0,0,0-.13-.34,2.83,2.83,0,0,1,.48-.29,3.45,3.45,0,0,1,.67-.17l.32-.06a.52.52,0,0,1-.05.17,2.39,2.39,0,0,1-.1.24,1.52,1.52,0,0,1,1,.45,1.57,1.57,0,0,1-1,.45,1.69,1.69,0,0,1,.1.23,1.35,1.35,0,0,1,.05.18l-.32-.07a3.45,3.45,0,0,1-.67-.17,2.74,2.74,0,0,1-.49-.28"/><ellipse class="cls-35" cx="64.04" cy="50.82" rx="0.56" ry="0.53"/><path class="cls-42" d="M67.22,51.65a.35.35,0,0,0-.24-.43c-.16,0-.31.14-.34.37a.35.35,0,0,0,.24.43c.16,0,.31-.14.34-.37"/><path class="cls-33" d="M69.47,51.55a.47.47,0,0,1-.06-.31.46.46,0,0,1,.17-.28,2.51,2.51,0,0,0-.38-.32,3,3,0,0,0-.55-.24l-.27-.1a1,1,0,0,0,0,.15c0,.14,0,.23,0,.23a1.36,1.36,0,0,0-.92.25,1.44,1.44,0,0,0,.78.53,1.41,1.41,0,0,0-.13.19l-.07.14h.29a2.1,2.1,0,0,0,1.08-.22"/><path class="cls-33" d="M70.32,49.06a1.38,1.38,0,0,0-.6.78s0-.07-.18-.15a.52.52,0,0,0-.28-.08l.07.33a5.94,5.94,0,0,0,.08.6,2.15,2.15,0,0,0,.16.43.54.54,0,0,1,.41-.11.49.49,0,0,1,.34.23,3,3,0,0,0,.31-.35c.13-.21.23-.46.28-.53s.19-.3.19-.3a.68.68,0,0,0-.3,0,.44.44,0,0,0-.22.08,1.3,1.3,0,0,0-.26-.92"/><path class="cls-33" d="M70.2,51.68a.46.46,0,0,0,.17-.28.51.51,0,0,0-.05-.32,2.56,2.56,0,0,1,.46-.17,2.91,2.91,0,0,1,.61,0h.29a.63.63,0,0,1-.07.14l-.12.19a1.38,1.38,0,0,1,.77.54,1.46,1.46,0,0,1-.92.25,1.15,1.15,0,0,1,0,.22c0,.11,0,.15,0,.15l-.27-.1a1.91,1.91,0,0,1-.93-.56"/><ellipse class="cls-35" cx="69.88" cy="51.32" rx="0.56" ry="0.53"/><path class="cls-42" d="M72.69,52.71a.35.35,0,0,0-.14-.47.38.38,0,0,0-.41.3.35.35,0,0,0,.14.47c.16.05.34-.08.41-.3"/><path class="cls-33" d="M74.74,52.82a.61.61,0,0,1,.19-.27.45.45,0,0,1,.6-.07l0,.07a2.05,2.05,0,0,1,.61-.72,2.13,2.13,0,0,1,.9-.13.75.75,0,0,0-.77-.74.8.8,0,0,0-.63.29L75.63,51a.76.76,0,0,0-.51.47,1.74,1.74,0,0,0,0,1,1.88,1.88,0,0,0-.22-.41,2.12,2.12,0,0,0-.64-.43,3.2,3.2,0,0,1-.35-.2s0,.05,0,.16a1.16,1.16,0,0,0,0,.21,2.16,2.16,0,0,0-1,.12,1.23,1.23,0,0,0,.67.59l-.21.19a.63.63,0,0,0-.11.13l.32,0a4.16,4.16,0,0,0,.69,0l.44,0"/><path class="cls-35" d="M75.53,52.48a.45.45,0,0,0-.6.07c-.2.17-.26.42-.13.56s.4.1.6-.07.26-.42.13-.56"/><path class="cls-36" d="M64,57.49a30.43,30.43,0,0,1-7.34-.83A30,30,0,0,1,64,55.84a30.16,30.16,0,0,1,7.36.82,30.61,30.61,0,0,1-7.36.83Z"/><path class="cls-18" d="M66.06,57.42V55.88m-.77,1.59V55.84m-.58,1.65V55.83"/><path class="cls-22" d="M64.24,57.51V55.83"/><path class="cls-27" d="M63.78,57.51V55.83"/><path class="cls-29" d="M63.35,57.51V55.83"/><path class="cls-43" d="M62.93,57.51V55.83"/><path class="cls-44" d="M62.55,57.51V55.83"/><path class="cls-45" d="M61.82,57.42V55.89m.35,1.55v-1.6"/><path class="cls-46" d="M61.15,57.35V55.94m.34,1.45v-1.5"/><path class="cls-47" d="M60.25,57.27V56m.29,1.26V56m.31,1.34V56"/><path class="cls-48" d="M59.93,57.26v-1.2"/><path class="cls-49" d="M59.64,57.2V56.08"/><path class="cls-50" d="M59.33,57.17v-1"/><path class="cls-51" d="M58.68,57.08v-.83m.34.87v-.93"/><path class="cls-52" d="M58.35,57v-.73"/><path class="cls-53" d="M58.05,57v-.61"/><path class="cls-54" d="M57.72,56.87v-.48"/><path class="cls-55" d="M57.37,56.83v-.36"/><path class="cls-56" d="M57,56.74v-.17"/><path class="cls-34" d="M56.35,56.74a29.84,29.84,0,0,1,7.68-.9,30.07,30.07,0,0,1,7.7.9"/><path class="cls-35" d="M55.48,55.59l.31-.4.87.11-.69.5-.49-.21"/><path class="cls-42" d="M57.35,55.11a.27.27,0,0,1,.28-.26.26.26,0,0,1,.28.26.27.27,0,0,1-.28.27.28.28,0,0,1-.28-.27"/><path class="cls-57" d="M59.81,55.06l-.6.07a.29.29,0,0,1-.32-.23.27.27,0,0,1,.25-.3l.6-.07.62-.07a.26.26,0,0,1,.31.23.27.27,0,0,1-.24.3l-.62.07"/><path class="cls-42" d="M61.58,54.62a.27.27,0,0,1,.28-.27.27.27,0,1,1,0,.53.27.27,0,0,1-.28-.26"/><path class="cls-35" d="M64,54.82H63.2a.27.27,0,0,1-.29-.26.27.27,0,0,1,.28-.26h1.7a.27.27,0,0,1,.29.26.28.28,0,0,1-.29.26H64"/><path class="cls-42" d="M65.94,54.62a.27.27,0,0,1,.28-.27.27.27,0,1,1,0,.53.27.27,0,0,1-.28-.26"/><path class="cls-57" d="M68.26,55.06l.61.07a.3.3,0,0,0,.32-.23.29.29,0,0,0-.25-.3l-.61-.07-.62-.07a.27.27,0,1,0-.06.53l.61.07"/><path class="cls-42" d="M70.16,55.11a.27.27,0,0,1,.28-.26.27.27,0,0,1,.29.26.29.29,0,0,1-.57,0"/><path class="cls-35" d="M72.59,55.59l-.31-.4-.86.11.69.5.48-.21"/></g><g id="shield"><g id="Granada"><path class="cls-58" d="M64.13,88.15A21.78,21.78,0,0,1,54.67,86a6,6,0,0,1-3.42-5.42V72H77v8.53A6,6,0,0,1,73.53,86a21.52,21.52,0,0,1-9.4,2.19Z"/><path class="cls-59" d="M64.74,84.36a1.06,1.06,0,0,1,.81,1c0,.61-.59,1.07-1.36,1.07a1.24,1.24,0,0,1-1.38-1.07.93.93,0,0,1,.79-1,.92.92,0,0,0-.07-.13l-.16-.16a.52.52,0,0,1,.52.12A.74.74,0,0,1,64,84a.68.68,0,0,1,.18-.14,1.14,1.14,0,0,1,.16.16c0,.07.06.16.06.16a1.11,1.11,0,0,1,.2-.13l.22-.07-.06.18a1.63,1.63,0,0,0,0,.18"/><path class="cls-60" d="M64.08,87.12a7.39,7.39,0,0,0-1.46-.78,6.79,6.79,0,0,0-1.47,0,3.81,3.81,0,0,1,.47.37,2.56,2.56,0,0,0,.88.49,3.07,3.07,0,0,0,1.58,0"/><path class="cls-60" d="M64.37,87.18a2.76,2.76,0,0,1,1.34-.77,3.81,3.81,0,0,1,1.65.15,3.18,3.18,0,0,0-.4.22,1.81,1.81,0,0,1-1.06.41c-.56,0-1.18-.06-1.28,0l-.25,0"/><path class="cls-61" d="M64.18,86.34a1.26,1.26,0,0,1-.42-1,1.29,1.29,0,0,1,.42-1,1.32,1.32,0,0,1,.41,1,1.29,1.29,0,0,1-.41,1"/><path class="cls-60" d="M63.92,87.73a2.9,2.9,0,0,0,.17-.72,3,3,0,0,0,0-.56h.21a2.1,2.1,0,0,1,.1.56,5.29,5.29,0,0,1,0,.61l-.19,0-.2.07"/></g><g id="Aragon"><path class="cls-61" d="M64.08,80.53a6.43,6.43,0,0,1-12.85,0V72H64.08v8.54"/><path class="cls-62" d="M51.21,80.41a6.56,6.56,0,0,0,1.46,4V71.76H51.23l0,8.65Z"/><path class="cls-62" d="M54,85.56a6.3,6.3,0,0,0,1.54.71l0-14.58H54Z"/><path class="cls-62" d="M56.9,86.59a6.91,6.91,0,0,0,1.51,0V71.69H56.9Z"/><path class="cls-62" d="M59.73,86.27a5.09,5.09,0,0,0,1.54-.67V71.69h-1.5l0,14.58Z"/><path class="cls-62" d="M62.67,84.29A5.8,5.8,0,0,0,64.1,81l0-9.33h-1.5Z"/></g><g id="Navarre"><path class="cls-61" d="M77,72v8.54a6.45,6.45,0,0,1-12.89,0V72H77"/><path id="chains_half" data-name="chains half" class="cls-63" d="M69.81,78.37l0-.1-1.09-1.21-.43.18-.78-.87.26-.37-1.37-1.53h-.07v1l.45.13v1.14l-.45.13v1a.69.69,0,0,1,.45.43h.82l.13-.43H69l.12.43ZM68,73.64v.41h.7v-.41Zm-1.87,5.21a.29.29,0,0,0,.3-.28.3.3,0,0,0-.3-.29.29.29,0,0,0-.3.29A.28.28,0,0,0,66.16,78.85Zm4.09-2.49-.45-.12V75.1l.45-.13v-.49a.71.71,0,0,1-.46-.43H69.1l-.13.43h-1.2l-.13-.43h-.79a.71.71,0,0,1-.08.15l1.38,1.53.43-.18.78.87-.26.37L70.17,78l.08,0ZM68.4,76l-.33.27.45.51.33-.27Zm2,9.27a.7.7,0,0,1-.64-.52,4.8,4.8,0,0,1-1.21-.33l.22-.37a4.12,4.12,0,0,0,1,.29.68.68,0,0,1,.4-.36V82.54l-.45-.13V81.27l.45-.12v-2l-.05,0-1,1.13.25.37-.78.87-.43-.18-.84.94a.63.63,0,0,1,0,.73,3.72,3.72,0,0,0,.83.7L68,84.1a4.79,4.79,0,0,1-1-.82.75.75,0,0,1-.66-.13.63.63,0,0,1-.08-.93l0,0A4,4,0,0,1,66,80.9h.44A3.37,3.37,0,0,0,66.68,82a.94.94,0,0,1,.37,0l.85-.94-.26-.37.79-.87.42.18,1-1.13a.67.67,0,0,1-.06-.12h-.71l-.12.43H67.78l-.13-.43h-.83a.69.69,0,0,1-.43.42v1H66v-1a.65.65,0,0,1-.49-.63.68.68,0,0,1,.49-.64v-1l-.45-.13V75.63L66,75.5v-1a.66.66,0,0,1-.47-.63.68.68,0,0,1,.7-.66.71.71,0,0,1,.67.46h.79l.13-.43H69l.13.43h.69a.69.69,0,0,1,.66-.46v2.14h-.21V76h.21v5.53h-.2v.67h.2Zm-1.51-4.69-.33-.27-.46.51.33.27Zm-2.55-4.72H66v.67h.43Zm2.35,2.92v-.41H68v.41ZM66,81.26l-.45-.1L65.5,80l.45-.15v.66a4.4,4.4,0,0,0,.06.73Zm.38-1.41.44.1s0,.74,0,.57.05.58.05.58l-.46.14a4.17,4.17,0,0,1-.06-.71Zm2.76,4.33.1-.43a3.54,3.54,0,0,1-1.06-.54l-.33.29a4.31,4.31,0,0,0,1.29.68Zm-.21.37-.34.31a4.54,4.54,0,0,1-1-.54l.1-.45a4.54,4.54,0,0,0,1.29.68Z"/><path id="chains_half-2" data-name="chains half" class="cls-63" d="M71.1,78.37l0-.1,1.09-1.21.43.18.78-.87L73.09,76l1.37-1.53h.07v1l-.45.13v1.14l.45.13v1a.69.69,0,0,0-.45.43h-.82l-.13-.43H71.92l-.12.43Zm1.78-4.73v.41h-.7v-.41Zm1.87,5.21a.28.28,0,0,1-.29-.28.3.3,0,0,1,.59,0A.28.28,0,0,1,74.75,78.85Zm-4.09-2.49.45-.12V75.1L70.66,75v-.49a.71.71,0,0,0,.46-.43h.69l.13.43h1.2l.13-.43h.79a.71.71,0,0,0,.08.15l-1.38,1.53-.43-.18-.78.87.26.37L70.74,78l-.08,0ZM72.51,76l.33.27-.45.51-.33-.27Zm-2,9.27a.7.7,0,0,0,.64-.52,4.8,4.8,0,0,0,1.21-.33l-.22-.37a4.12,4.12,0,0,1-1,.29.68.68,0,0,0-.4-.36V82.54l.45-.13V81.27l-.45-.12v-2l0,0,1,1.13-.25.37.78.87.43-.18.84.94a.63.63,0,0,0,0,.73,3.72,3.72,0,0,1-.83.7l.22.37a4.79,4.79,0,0,0,1-.82.75.75,0,0,0,.66-.13.63.63,0,0,0,.08-.93l0,0A4,4,0,0,0,75,80.9h-.44A3.37,3.37,0,0,1,74.23,82a.94.94,0,0,0-.37,0L73,81.09l.26-.37-.79-.87-.42.18L71,78.9a.67.67,0,0,0,.06-.12h.71l.12.43h1.21l.13-.43h.83a.69.69,0,0,0,.43.42v1H75v-1a.65.65,0,0,0,.49-.63.68.68,0,0,0-.49-.64v-1l.45-.13V75.63L75,75.5v-1a.66.66,0,0,0,.47-.63.68.68,0,0,0-.7-.66.71.71,0,0,0-.67.46h-.79l-.13-.43h-1.2l-.13.43h-.69a.69.69,0,0,0-.66-.46v2.14h.21V76h-.21v5.53h.2v.67h-.2ZM72,80.58l.33-.27.46.51-.33.27Zm2.55-4.72H75v.67h-.43Zm-2.35,2.92v-.41h.73v.41Zm2.72,2.48.45-.1L75.41,80,75,79.87v.66a4.4,4.4,0,0,1-.06.73Zm-.38-1.41-.44.1s0,.74,0,.57,0,.58,0,.58l.46.14a4.17,4.17,0,0,0,.06-.71Zm-2.76,4.33-.1-.43a3.54,3.54,0,0,0,1.06-.54l.33.29a4.31,4.31,0,0,1-1.29.68Zm.21.37.34.31a4.54,4.54,0,0,0,1-.54l-.1-.45a4.54,4.54,0,0,1-1.29.68Z"/><path class="cls-64" d="M69.78,78.58a.7.7,0,0,1,1.4,0,.7.7,0,0,1-1.4,0"/></g><g id="Castile"><path class="cls-61" d="M51.23,72H64.08V57.74H51.23Z"/><path class="cls-65" d="M55.64,61H55.4V60.8H55v.94h.41v.65h-.88v1.9H55v3.78H54v2h7.28v-2h-1V64.29h.48v-1.9H60v-.65h.41V60.8H60V61h-.24V60.8h-.41V61H59V60.8H58.6v.94H59v.65h-.89V60.32h.48v-.94h-.48v.23h-.23v-.23h-.42v.23h-.23v-.23h-.48v.94h.48v2.07h-.89v-.65h.41V60.8h-.41V61h-.24V60.8h-.47V61ZM54,70h7.28M54,69.55h7.28M54,69.08h7.28M54,68.61h7.28M54,68.07h7.28M55,67.66h5.38M55,67.18h5.38M55,66.65h5.38M55,66.18h5.38M55,65.71h5.38M55,65.23h5.38M55,64.76h5.38m-5.85-.47h6.33m-6.33-.48h6.33m-6.33-.47h6.33m-6.33-.47h6.33m-5.45-.48H60m-2.72-.47h.88m-.88-.47h.88M57.24,61h.88m-.88-.47h.88m-1.36-.59H58.6m-3.2,2h1M55,61.33h1.77M55,70v-.48m0-.47v-.47m-.47.47v.47m.88,0v-.47m.47,1v-.48m0-.47v-.47m0-.54v-.41m0-.48v-.53m-.47,2v-.54m-.88.54v-.54m1.83,0v.54m.41-.54v-.41m-1.36-.48v.48m1-.48v.48m.89-.48v.48m-.48-.48v-.53m.48-.47v.47m0-1.42v.48m-.48-.95v.47m.48-.94v.47m-.89-.47v.47m-1-.47v.47m-.41-1v.48m.88-.48v.48m.89-.48v.48m.48-1v.47m-.89-.47v.47m-1-.47v.47M55,62.87v.47m1.77-.47v.47m-.89-1.42v.47M60,61.92H59m1.36-.59H58.6M60.37,70v-.48m0-.47v-.47m.48.47v.47m-.89,0v-.47m-.48,1v-.48m0-.47v-.47m0-.54v-.41m0-.48v-.53m.48,2v-.54m.89.54v-.54m-1.84,0v.54m-.41-.54v-.41M60,67.18v.48m-1-.48v.48m-.89-.48v.48m.48-.48v-.53m-.48-.47v.47m0-1.42v.48m.48-.95v.47m-.48-.94v.47m.89-.47v.47m1-.47v.47m.41-1v.48m-.89-.48v.48m-.88-.48v.48m-.48-1v.47m.89-.47v.47m1-.47v.47m.41-.94v.47m-1.77-.47v.47m.88-1.42v.47m-1.83,4.79v-.53m0-1.42v-.47m0,1.42v-.47m0-1.42v-.48m0-.47v-.47m0-.95v-.47m0-.48V60.5M55.4,61.74h1m.89-1.42h.88M59,61.74h1"/><path class="cls-65" d="M58.89,70V68.78c0-.23-.11-1-1.24-1s-1.18.72-1.18,1V70Z"/><path class="cls-65" d="M56.88,68.84l-.59-.06a1,1,0,0,1,.24-.71l.53.42A.65.65,0,0,0,56.88,68.84Z"/><path class="cls-65" d="M57.89,68.25l.29-.53a1.34,1.34,0,0,0-.53-.12,1.36,1.36,0,0,0-.47.12l.29.53Z"/><path class="cls-65" d="M58.48,68.84l.59-.06a1,1,0,0,0-.24-.71l-.53.42A.65.65,0,0,1,58.48,68.84Z"/><path class="cls-65" d="M56.76,66.77v-1.3a.65.65,0,0,0-1.3,0v1.3Z"/><path class="cls-65" d="M58.6,66.77v-1.3a.65.65,0,0,1,1.3,0v1.3Z"/><path class="cls-65" d="M56.35,63.58l.06-1.19H55.28l.12,1.19Z"/><path class="cls-65" d="M58.12,63.58l.12-1.19H57.12l.06,1.19Z"/><path class="cls-65" d="M59,63.58l-.12-1.19h1.19L60,63.58Z"/><path class="cls-66" d="M58.48,70V69a.74.74,0,0,0-.83-.71.72.72,0,0,0-.77.71V70Z"/><path class="cls-66" d="M56.65,66.65V65.53a.54.54,0,1,0-1.07,0v1.12Z"/><path class="cls-66" d="M58.72,66.65V65.53a.54.54,0,0,1,.53-.59.54.54,0,0,1,.53.59v1.12Z"/></g><g id="Leon"><path class="cls-58" d="M64.07,72H77V57.74H64.07Z"/><path class="cls-67" d="M70.64,61.25v-.16l0-.09A2.34,2.34,0,0,1,70,61a1.57,1.57,0,0,1-.61-.32c-.2-.18-.28-.28-.43-.31a1,1,0,0,0-.61.11,1.1,1.1,0,0,1,.45.33,1.3,1.3,0,0,0,.5.39,4.61,4.61,0,0,0,.83,0l.47,0Z"/><path class="cls-68" d="M72.57,60.67a3.59,3.59,0,0,0,0,.36c0,.17-.06.32,0,.41a2.46,2.46,0,0,0,.07.24.89.89,0,0,1,.06.24l-.19-.14-.15-.11,0,.26a.77.77,0,0,0,.13.32,1.76,1.76,0,0,1,.27.34,1.18,1.18,0,0,1,0,.37s-.12-.19-.23-.23a2.28,2.28,0,0,1-.32-.16.74.74,0,0,1,.2.4,1.43,1.43,0,0,1-.08.41,1.4,1.4,0,0,0-.21-.29,3.51,3.51,0,0,0-.29-.23,1.64,1.64,0,0,1,.13.5c0,.2,0,.63,0,.63a1.16,1.16,0,0,0-.2-.24,2.74,2.74,0,0,1-.26-.2.85.85,0,0,1,.14.3,2.75,2.75,0,0,0,.49,1.2c.24.35.61,1,1.41.76s.5-1.27.33-1.77a4.73,4.73,0,0,1-.24-1.25c0-.19.15-.76.13-.87a2.09,2.09,0,0,1,0-.84,3.78,3.78,0,0,1,.24-.61,2,2,0,0,0,.12-.34,3,3,0,0,0,0-.35l.18.36a1.67,1.67,0,0,1,0,.39.63.63,0,0,1,.25-.43,4.18,4.18,0,0,0,.55-.37.65.65,0,0,0,.08-.13,1.75,1.75,0,0,1-.16.69c-.09.12-.45.53-.45.53a1.37,1.37,0,0,1,.31-.08,1.45,1.45,0,0,1,.23,0,2.37,2.37,0,0,0-.37.42c-.2.3-.12.33-.26.57s-.27.26-.46.41S74,63.25,74,63.38a11.41,11.41,0,0,1,.53,1.48,1.41,1.41,0,0,1-.41,1.23c-.3.24-.79.25-.9.32a.85.85,0,0,0-.33.74.63.63,0,0,0,.29.64c.13.12.3.06.34.14a.43.43,0,0,0,.11.2.21.21,0,0,1,.07.21c0,.09-.23.31-.3.47a3.61,3.61,0,0,0-.23.63.76.76,0,0,0,.05.35s.23.27.07.33-.2-.07-.24-.06-.22.12-.26.12-.09-.06-.1-.19,0-.19,0-.19-.09,0-.1.12,0,.22-.07.22-.16-.11-.21-.14-.22,0-.23-.12a.35.35,0,0,1,.2-.25c.1,0,.19-.07.13-.13a.14.14,0,0,0-.19,0c-.07.06-.21,0-.2-.07a.9.9,0,0,0,0-.22s-.12-.13,0-.21.22.07.37,0a.33.33,0,0,0,.22-.55c-.1-.12-.2-.14-.24-.21a2.25,2.25,0,0,1-.1-.23,3.16,3.16,0,0,1,0,.35,1.06,1.06,0,0,0,0,.23,2.31,2.31,0,0,0-.18-.21,1.31,1.31,0,0,1-.17-.35v.35c0,.09.11.18.07.22s-.21-.19-.26-.22a1,1,0,0,1-.26-.28,2.34,2.34,0,0,1-.13-.36,1.07,1.07,0,0,1,0-.4c0-.1.12-.29.12-.29h-.36c-.19,0-.33-.06-.41.07a1.25,1.25,0,0,0,.06.74c.09.34.15.51.12.57a1.11,1.11,0,0,1-.19.23.49.49,0,0,1-.24,0,.59.59,0,0,0-.32-.07,1.64,1.64,0,0,1-.35,0c-.07,0-.22-.1-.3-.08s-.2.08-.17.19,0,.19-.13.18L69,68.85c-.09,0-.23,0-.21-.11s.06-.11.1-.19.07-.13,0-.14a.28.28,0,0,0-.18,0c-.05,0-.13.13-.19.1s-.12-.11-.12-.28-.17-.3,0-.3.36.13.4,0,0-.13-.08-.2-.19-.11-.07-.2.14-.09.18-.14.11-.2.19-.16,0,.18.17.36a.5.5,0,0,0,.53.21c.26,0,.34-.06.34-.13s0-.21,0-.27a1.31,1.31,0,0,1,0-.25.48.48,0,0,0-.16.15,2.19,2.19,0,0,1-.11.2,2.5,2.5,0,0,1,0-.28,1.2,1.2,0,0,0,0-.23c0-.06-.06-.24-.06-.24a1.37,1.37,0,0,1-.07.24,1.23,1.23,0,0,0,0,.28.44.44,0,0,1-.12-.4c0-.19,0-.44,0-.53S69.69,66,70,66s.6,0,.71,0,.53-.09.53-.09-.76-.38-.93-.5a2.51,2.51,0,0,1-.53-.56,1.84,1.84,0,0,1-.17-.4.85.85,0,0,0-.26.07,1.72,1.72,0,0,0-.32.26,2.38,2.38,0,0,0-.18.27s0-.24,0-.32,0-.22,0-.22a.89.89,0,0,1-.26.45l-.37.3s0-.19,0-.23,0-.25,0-.25A.56.56,0,0,1,68,65c-.19,0-.46,0-.49.14s.06.28,0,.36a.42.42,0,0,1-.14.14.43.43,0,0,0-.2-.1.35.35,0,0,0-.18,0s-.08-.1,0-.17.17-.17.14-.21-.15,0-.23,0-.22.07-.21,0,.06-.19,0-.27,0-.14,0-.16.29,0,.31-.05-.05-.12-.21-.15-.22-.13-.14-.2a.66.66,0,0,0,.14-.17c0-.06,0-.19.18-.13s.11.22.26.26a1.06,1.06,0,0,0,.55-.06c.08,0,.31-.21.39-.25s.41-.29.41-.29-.19-.13-.27-.2a1,1,0,0,0-.76-.44,2.57,2.57,0,0,1-.44-.12,1.26,1.26,0,0,0,.21-.09s.16-.14.22-.13h.07a3.29,3.29,0,0,1-.38,0,1.83,1.83,0,0,0-.32-.14l-.22,0a1.08,1.08,0,0,1,.36-.15,1.16,1.16,0,0,1,.28,0,.84.84,0,0,1-.31-.15,1.48,1.48,0,0,0-.16-.26c0-.06-.07-.15-.15-.16s-.21.1-.29.09-.14-.05-.15-.17a.26.26,0,0,0,0-.14c0-.06-.15-.2,0-.23s.34,0,.36,0-.12-.17-.22-.22-.24-.13-.16-.2.16-.09.2-.15.09-.24.19-.18.22.32.3.3.07-.21.06-.29,0-.23.07-.22.13.11.25.12.29,0,.27.06a.6.6,0,0,1-.16.27.4.4,0,0,0-.06.38,1,1,0,0,0,.29.38c.12.07.34.13.48.22a3.84,3.84,0,0,0,.56.37l.22.08a.83.83,0,0,1,.29-.05,2.64,2.64,0,0,0,.69,0c.15-.06.33-.16.28-.29s-.38-.25-.35-.35.14-.11.34-.12.46,0,.51-.24.07-.43-.21-.49-.48-.07-.53-.27-.1-.25,0-.3a.61.61,0,0,1,.36-.09,1.62,1.62,0,0,0,.5-.07c.07,0,.08-.18.16-.23a1.38,1.38,0,0,1,.39-.1,5.69,5.69,0,0,1,.72.43,4,4,0,0,1,.59.57"/><path class="cls-34" d="M68.86,62.31a.64.64,0,0,0-.28.17.48.48,0,0,0-.08.27.46.46,0,0,1,.39-.08,1.34,1.34,0,0,0,.35.08,2.4,2.4,0,0,0,.32-.09s-.19.22-.17.37,0,.21,0,.29a1.17,1.17,0,0,1-.16.41,1.57,1.57,0,0,1,.27-.09,1.26,1.26,0,0,0,.45-.2,1.7,1.7,0,0,0,.23-.26,1,1,0,0,0,0,.36,2.48,2.48,0,0,1,.06.43,1.22,1.22,0,0,1,.22-.16.73.73,0,0,0,.23-.18,2.19,2.19,0,0,0,.08-.27,1.09,1.09,0,0,0,.1.34,3.12,3.12,0,0,1,.18.45,1.14,1.14,0,0,1,.15-.31c.08-.09.18-.21.18-.28a1,1,0,0,0,0-.22l.1.22m-2.92.16a.93.93,0,0,1,.24-.28c.12-.07.27-.19.32-.21a2.3,2.3,0,0,0,.23-.12m.25,1.33.36-.19a1.1,1.1,0,0,0,.3-.29"/><path class="cls-9" d="M72.34,61.67a1.27,1.27,0,0,1-.11-.17,1.29,1.29,0,0,1-.06-.12"/><path class="cls-34" d="M71.25,65.9s.52.32.51.59a1.6,1.6,0,0,1-.29.62"/><path class="cls-69" d="M69.9,60.48l-.05-.16,0-.08s.22,0,.22.07-.08.07-.09.1a.25.25,0,0,1,0,.07Z"/><path class="cls-70" d="M70.93,60.12l0-.11a.6.6,0,0,1,.29.07.59.59,0,0,1,.23.27s-.13-.07-.21-.1H71.1c-.06,0-.09,0-.09,0a.2.2,0,0,1,0-.08Z"/><path class="cls-69" d="M69.91,61.48l.08-.14.09.13h-.17"/><path class="cls-69" d="M70.12,61.47l.1-.13.11.12h-.21"/><path class="cls-69" d="M70,60.63l.21.07-.19.1,0-.17"/><path class="cls-69" d="M70.28,60.7l.18,0-.15.12,0-.16"/><path class="cls-67" d="M67,60.44a.77.77,0,0,0,.22.1h.21a.53.53,0,0,0,0-.23.48.48,0,0,0-.34-.38s.09.19,0,.28a.88.88,0,0,1-.17.22Z"/><path class="cls-67" d="M66.46,60.7a.39.39,0,0,0-.35-.17.66.66,0,0,0-.38.21,1,1,0,0,1,.32,0,.34.34,0,0,1,.12.22.94.94,0,0,0,.19-.14c0-.05.1-.15.1-.15Z"/><path class="cls-67" d="M66.17,61.5a.55.55,0,0,0-.3.16.53.53,0,0,0-.09.35.41.41,0,0,1,.24-.13,1.76,1.76,0,0,1,.3,0,.93.93,0,0,1-.06-.21.72.72,0,0,0-.09-.21Z"/><path class="cls-67" d="M66.83,64.09a.36.36,0,0,0-.3-.08.56.56,0,0,0-.31.25.76.76,0,0,1,.26,0,.32.32,0,0,1,.16.12l.11-.12a1.2,1.2,0,0,0,.08-.15Z"/><path class="cls-67" d="M66.61,64.86a.38.38,0,0,0-.29.08.48.48,0,0,0-.15.32.41.41,0,0,1,.24-.1,1.41,1.41,0,0,1,.22.07s0-.13,0-.16a.34.34,0,0,0,0-.21Z"/><path class="cls-67" d="M67,65.56a.53.53,0,0,0,.09.32.51.51,0,0,0,.29.16,1.22,1.22,0,0,1-.07-.21.24.24,0,0,1,.08-.19.31.31,0,0,0-.18-.1l-.21,0Z"/><path class="cls-67" d="M68.86,67.36a.42.42,0,0,0-.31-.16.75.75,0,0,0-.37.18s.23,0,.29.05a1.71,1.71,0,0,1,.11.17,1.1,1.1,0,0,0,.15-.09,1.2,1.2,0,0,0,.13-.15Z"/><path class="cls-67" d="M68.31,68.08a.45.45,0,0,0-.36.09.57.57,0,0,0-.1.35s.14-.16.27-.15a1.53,1.53,0,0,1,.28.08s0-.13,0-.2l0-.17Z"/><path class="cls-67" d="M68.82,68.84a.3.3,0,0,0,0,.29.6.6,0,0,0,.27.19.22.22,0,0,1,0-.2c0-.09.17-.2.17-.2l-.38-.08Z"/><path class="cls-67" d="M72,69.15a.55.55,0,0,0-.33,0,.92.92,0,0,0-.21.35.57.57,0,0,1,.33-.13.86.86,0,0,1,.24.07.6.6,0,0,0,0-.2.3.3,0,0,0,0-.11Z"/><path class="cls-67" d="M72.1,69.91s-.16.17-.1.31a2.49,2.49,0,0,0,.16.28s0-.21.06-.26a.46.46,0,0,1,.26-.1A1.13,1.13,0,0,0,72.3,70Z"/><path class="cls-67" d="M72.9,70.15a.31.31,0,0,0,.07.33.51.51,0,0,0,.28.15s-.12-.21-.08-.32a.43.43,0,0,1,.14-.18,1,1,0,0,0-.22-.06l-.19.08Z"/><path class="cls-6" d="M72.42,59.57h-.08a.27.27,0,0,1-.06.09.17.17,0,0,1-.22,0,.15.15,0,0,1,0-.11.15.15,0,0,1-.13,0,.14.14,0,0,1,0-.2l0-.05v-.08l-.09,0,0,0c-.05.06-.14.08-.18,0a.17.17,0,0,1,0-.07s0,0,0,0-.2-.27-.2-.35l0,.07a1.12,1.12,0,0,1,0,.33,1.66,1.66,0,0,1-.08.31,2.18,2.18,0,0,1,.76.42,2.25,2.25,0,0,1,.6.62,2.25,2.25,0,0,1,.3-.13,1.37,1.37,0,0,1,.35-.05l.06-.06c-.08,0-.41,0-.4-.11a.07.07,0,0,1,0,0l-.08,0s0-.11,0-.18l0,0V60l-.09,0,0,0a.17.17,0,0,1-.22,0,.13.13,0,0,1,0-.12.14.14,0,0,1-.11,0,.14.14,0,0,1,0-.21l.08-.08,0-.08Z"/><path class="cls-70" d="M71.84,59.75s0,0,.06,0,0,0,0,0,0,0-.07,0,0,0,0,0Z"/><path class="cls-70" d="M72.08,60,72,59.89a0,0,0,0,1,0,0H72l.08.06.08.07s0,0,0,0h0L72.08,60"/><path class="cls-70" d="M71.64,59.65l-.07,0a0,0,0,0,1,0,0s0,0,0,0l.06,0,.07,0a0,0,0,0,1,0,0s0,0,0,0l-.07,0"/><path class="cls-70" d="M71.37,59.47a0,0,0,0,1,.06,0s0,0,0,.05a0,0,0,0,1-.06,0s0,0,0-.05Z"/><path class="cls-70" d="M72.35,60.14s0,0,0,0,0,0-.06,0,0,0,0,0Z"/><path class="cls-70" d="M72.5,60.31l.06,0a0,0,0,0,0,0,0,0,0,0,0,0,0,0l0,0-.06-.06s0,0,0,0a0,0,0,0,0,0,0l0,.06"/><path class="cls-70" d="M72.74,60.52s0,0,0-.06,0,0-.06,0a0,0,0,0,0,0,.06Z"/><path class="cls-6" d="M72,59h-.15l0,.23v0h0l.2-.13L72,59"/><path class="cls-6" d="M72,59h-.15l0,.23v0h0l.2-.13L72,59"/><path class="cls-6" d="M71.63,59.1v.13l.24,0h0v0L71.76,59l-.13.07"/><path class="cls-6" d="M72.12,59.37l-.13.07-.14-.18v0h0l.24,0v.14"/><path class="cls-6" d="M71.81,59.2a.08.08,0,0,1,.1,0,.06.06,0,0,1,0,.09.07.07,0,0,1-.1,0A.06.06,0,0,1,71.81,59.2Z"/><path class="cls-6" d="M71.26,59a.74.74,0,0,0-.07-.18.37.37,0,0,0-.1-.11s.11,0,.23,0,0,.22,0,.22a.11.11,0,0,1,0,0Z"/><path class="cls-6" d="M71.52,59.05l-.1.09L71.24,59l0,0v0l.23,0,0,.14"/><path class="cls-6" d="M71.23,59a.09.09,0,0,1,.07-.05s0,.05,0,.09,0,.06-.08,0S71.21,59,71.23,59Z"/><path class="cls-6" d="M72.62,59.33h-.15l-.07.22,0,0h0l.21-.1,0-.14"/><path class="cls-6" d="M72.19,59.4l0,.14.23.06h0v0l-.11-.2-.14,0"/><path class="cls-6" d="M72.63,59.74l-.13,0-.11-.2v0h0l.23.05,0,.14"/><path class="cls-6" d="M72.36,59.53a.08.08,0,0,1,.1,0,.07.07,0,0,1,0,.1.08.08,0,0,1-.1,0,.07.07,0,0,1,0-.1Z"/><path class="cls-6" d="M73.12,59.8l0,.14-.22.08h0v0l.09-.21.14,0"/><path class="cls-6" d="M73.09,60.21l-.15,0L72.86,60v0h0l.22.09,0,.13"/><path class="cls-6" d="M72.7,59.82l0,.13.22.09h0v0l-.08-.22-.14,0"/><path class="cls-6" d="M72.94,60.07a.07.07,0,0,0,0-.1.07.07,0,1,0-.11.09.09.09,0,0,0,.11,0Z"/><path class="cls-6" d="M73.29,60.53a1,1,0,0,1,.2,0,.58.58,0,0,1,.14.07s0-.11-.08-.2-.22,0-.22,0a.19.19,0,0,0,0,.06Z"/><path class="cls-6" d="M73.15,60.3l-.07.12.19.13,0,0h0l0-.23h-.15"/><path class="cls-6" d="M73.31,60.55a.06.06,0,0,0,0-.08.07.07,0,0,0-.09,0,.06.06,0,0,0,0,.08S73.27,60.57,73.31,60.55Z"/></g><g id="inescutcheon"><ellipse class="cls-71" cx="64.11" cy="71.94" rx="4.16" ry="4.68"/><ellipse class="cls-72" cx="64.11" cy="71.93" rx="2.93" ry="3.44"/><g id="fdl"><path class="cls-73" d="M62.73,69.57a1.31,1.31,0,0,0-.35.73,1.63,1.63,0,0,0,.15.65.4.4,0,0,0-.36-.24.37.37,0,0,0-.39.36.66.66,0,0,0,.06.2l.13.25a.26.26,0,0,1,.25-.14.27.27,0,0,1,.28.25s0,.05,0,.07h-.32V72h.28l-.2.42.27-.11.21.23.21-.23.28.11L63,72h.28V71.7H63a.15.15,0,0,1,0-.07.26.26,0,0,1,.27-.25.26.26,0,0,1,.25.14l.13-.25a.66.66,0,0,0,.06-.2.37.37,0,0,0-.38-.36.37.37,0,0,0-.36.24,1.72,1.72,0,0,0,.14-.65,1.31,1.31,0,0,0-.35-.73Z"/><path class="cls-74" d="M62.17,72h1.12V71.7H62.17Z"/></g><g id="fdl-2" data-name="fdl"><path class="cls-73" d="M65.45,69.57a1.31,1.31,0,0,0-.35.73,1.63,1.63,0,0,0,.15.65.38.38,0,0,0-.36-.24.38.38,0,0,0-.39.36.48.48,0,0,0,.07.2l.12.25a.26.26,0,0,1,.25-.14.27.27,0,0,1,.28.25.15.15,0,0,1,0,.07H64.9V72h.28l-.21.42.27-.11.21.23.21-.23.28.11L65.73,72H66V71.7H65.7a.15.15,0,0,1,0-.07.26.26,0,0,1,.27-.25.25.25,0,0,1,.25.14l.13-.25a.47.47,0,0,0,.06-.2.37.37,0,0,0-.38-.36.37.37,0,0,0-.36.24,1.72,1.72,0,0,0,.14-.65,1.31,1.31,0,0,0-.35-.73Z"/><path class="cls-74" d="M64.9,72H66V71.7H64.9Z"/></g><g id="fdl-3" data-name="fdl"><path class="cls-73" d="M64.09,71.91a1.31,1.31,0,0,0-.35.73,1.63,1.63,0,0,0,.15.65.4.4,0,0,0-.36-.24.37.37,0,0,0-.39.36.66.66,0,0,0,.06.2l.13.25a.26.26,0,0,1,.25-.14.27.27,0,0,1,.28.25s0,0,0,.07h-.32v.26h.28l-.2.42.27-.11.21.23.21-.23.28.11-.21-.42h.28V74h-.31a.15.15,0,0,1,0-.07.26.26,0,0,1,.27-.25.26.26,0,0,1,.25.14l.13-.25a.66.66,0,0,0,.06-.2.37.37,0,0,0-.38-.36.37.37,0,0,0-.36.24,1.72,1.72,0,0,0,.14-.65,1.31,1.31,0,0,0-.35-.73Z"/><path class="cls-74" d="M63.53,74.3h1.12V74H63.53Z"/></g></g></g></g></g></svg>