<svg id="Layer_1" data-name="Layer 1" xmlns="http://www.w3.org/2000/svg" xmlns:xlink="http://www.w3.org/1999/xlink" viewBox="0 0 128 128"><defs><style>.cls-1{fill:none;}.cls-2{clip-path:url(#clip-path);}.cls-3{fill:#da121a;}.cls-4{fill:#fcdd09;}.cls-5{fill:#078930;}.cls-6{fill:#0f47af;}.cls-7{stroke:#fcdd09;stroke-width:1.02px;}</style><clipPath id="clip-path"><circle class="cls-1" cx="64" cy="64" r="64"/></clipPath></defs><title>Flag_circle_Ethiopia</title><g class="cls-2"><path class="cls-3" d="M-46,0H174V128H-46Z"/><path class="cls-4" d="M-46,0H174V85.33H-46Z"/><path class="cls-5" d="M-46,0H174V42.67H-46Z"/><circle class="cls-6" cx="64" cy="64" r="42.67"/><g id="a"><path class="cls-4" d="M64,29.87l-1.5,4.6,6.17,19H60.45l-.93,2.85H85.89l3.92-2.85H71.66Z"/><path class="cls-7" d="M73.2,51.34l10.86-15"/></g><g id="a-2" data-name="a"><path class="cls-4" d="M96.46,53.45H91.62L75.48,65.18l-2.55-7.82h-3l8.15,25.08L82,85.29,76.4,68Z"/><path class="cls-7" d="M78.88,68.83l17.58,5.72"/></g><g id="a-3" data-name="a"><path class="cls-4" d="M84.06,91.61,82.57,87,66.42,75.28l6.65-4.83-.92-2.85L50.82,83.1l-1.5,4.6L64,77Z"/><path class="cls-7" d="M64,79.64V98.13"/></g><g id="a-4" data-name="a"><path class="cls-4" d="M43.94,91.61l3.91-2.84,6.17-19,6.65,4.83,2.42-1.76L41.76,57.36H36.92L51.6,68Z"/><path class="cls-7" d="M49.12,68.83,31.54,74.55"/></g><g id="a-5" data-name="a"><path class="cls-4" d="M31.54,53.45l3.91,2.85h20l-2.54,7.82,2.42,1.76L63.44,40.8l-1.5-4.61-5.6,17.26Z"/><path class="cls-7" d="M54.8,51.34l-10.86-15"/></g></g></svg>