<svg id="Layer_1" data-name="Layer 1" xmlns="http://www.w3.org/2000/svg" xmlns:xlink="http://www.w3.org/1999/xlink" viewBox="0 0 128 128"><defs><style>.cls-1,.cls-21{fill:none;}.cls-2{clip-path:url(#clip-path);}.cls-3{clip-path:url(#clip-path-2);}.cls-4{fill:#68bfe5;}.cls-5{fill:#192967;}.cls-10,.cls-11,.cls-13,.cls-14,.cls-17,.cls-6{fill:#fff;}.cls-7{fill:#bc0030;}.cls-8{fill:#c0003b;}.cls-9{fill:#d21034;}.cls-10,.cls-11,.cls-12,.cls-13,.cls-14,.cls-15,.cls-16,.cls-17,.cls-18,.cls-19,.cls-20,.cls-21{stroke:#000;}.cls-10,.cls-11,.cls-12,.cls-13,.cls-14{stroke-miterlimit:3;}.cls-10{stroke-width:0.14px;}.cls-11{stroke-width:0.14px;}.cls-12{fill:#ffd100;stroke-width:0.21px;}.cls-13{stroke-width:0.06px;}.cls-14{stroke-width:0.06px;}.cls-15,.cls-20{fill:#00a651;}.cls-15,.cls-16,.cls-17,.cls-18,.cls-19,.cls-20,.cls-21{stroke-miterlimit:4.8;}.cls-15,.cls-16{stroke-width:0.14px;}.cls-16,.cls-18{fill:#964b36;}.cls-17{stroke-width:0.18px;}.cls-18,.cls-19,.cls-20{stroke-width:0.08px;}.cls-19{fill:#fff200;}.cls-21{stroke-width:0.74px;}</style><clipPath id="clip-path"><circle class="cls-1" cx="64" cy="64" r="64"/></clipPath><clipPath id="clip-path-2"><rect id="_Clipping_Path_" data-name="&lt;Clipping Path&gt;" class="cls-1" x="-47" width="219.44" height="128"/></clipPath></defs><title>Flag_circle_Fiju</title><g class="cls-2"><g id="FIJI"><g id="_Group_" data-name="&lt;Group&gt;"><g id="_Clip_Group_" data-name="&lt;Clip Group&gt;"><g class="cls-3"><rect id="_Path_" data-name="&lt;Path&gt;" class="cls-4" x="-47" width="219.44" height="128"/><g id="_Clip_Group_2" data-name="&lt;Clip Group&gt;"><g class="cls-3"><rect id="_Path_2" data-name="&lt;Path&gt;" class="cls-5" x="-47" width="109.96" height="54.99"/><polygon id="_Path_3" data-name="&lt;Path&gt;" class="cls-6" points="-47 0 -47 6.15 50.66 54.99 62.96 54.99 62.96 48.84 -34.69 0 -47 0"/><polygon id="_Path_4" data-name="&lt;Path&gt;" class="cls-6" points="62.96 0 62.96 6.15 -34.69 54.99 -47 54.99 -47 48.84 50.66 0 62.96 0"/><rect id="_Path_5" data-name="&lt;Path&gt;" class="cls-6" x="-1.18" width="18.32" height="54.99"/><rect id="_Path_6" data-name="&lt;Path&gt;" class="cls-6" x="-47" y="18.33" width="109.96" height="18.33"/><rect id="_Path_7" data-name="&lt;Path&gt;" class="cls-7" x="-47" y="21.99" width="109.96" height="10.99"/><rect id="_Path_8" data-name="&lt;Path&gt;" class="cls-7" x="2.48" width="10.98" height="54.99"/><polygon id="_Path_9" data-name="&lt;Path&gt;" class="cls-8" points="18.11 18.32 54.78 0 62.96 0 26.31 18.32 18.11 18.32"/><polygon id="_Path_10" data-name="&lt;Path&gt;" class="cls-8" points="62.96 54.99 26.31 36.66 34.51 36.66 62.96 50.89 62.96 54.99"/></g></g><g id="coa"><path class="cls-6" d="M96.47,40.52V76.81c0,11.88,21.45,18.93,21.45,18.93s21.46-7,21.46-18.93V40.52Z"/><path class="cls-9" d="M115,53.27V69.61H96.47v6H115v19l3,1.14,3-1.14v-19h18.48v-6H120.9V53.27Z"/><path class="cls-9" d="M96.47,40.52h42.91v14H96.47Z"/><g id="lion"><ellipse class="cls-10" cx="99.91" cy="49.06" rx="2.41" ry="1.94"/><ellipse class="cls-11" cx="99.91" cy="48.05" rx="2.14" ry="1.08"/><ellipse class="cls-11" cx="99.91" cy="50.22" rx="2.14" ry="1.08"/><ellipse class="cls-11" cx="99.91" cy="49.06" rx="2.14" ry="1.08"/><path class="cls-12" d="M138.31,51.75l-.35-1s-1-.39-1-.9c-.17-1.36-.66-1.87-1.39-2.07a1.57,1.57,0,0,0-1.21.13c-.22.31-1.32.31-1.93.34s-.61-.27-.61-.27a.77.77,0,0,1-.67-.34c-.31-.62-.54-.85-.7-.93.79,0,1.39-.35,2.28-1.29s1.66-.62,1.66-.62c-.47,1,.16.87.16.87,1.29-.66.17-2.31-.22-2.24a.42.42,0,0,1-.5-.19c0,.3-.43.42-.43.42.33-1.89-.8-2.39-.8-2.39a1.36,1.36,0,0,0-.26.51c-.32,1.14-1.36,1-2.53.41s-4.28.58-5.25,1a5.06,5.06,0,0,1-4.36.1c-1.6-.9-2-.73-2.62-.56a4.37,4.37,0,0,1-2.17.22,2.2,2.2,0,0,0-.88-.23c.11-.07-.07-.33-.07-.33a.72.72,0,0,1,.07-1.06s-.91.26-.55,1.8l.17.23s.12.49.39.64v.1s.23-.1.3.21.41,0,.56-.24c0,0-.25,1.41,1.51,1.75,0,0-.2-.22-.13-.37s-.21-.26-.19-.48-.44-.32-.07-.49.53-.51,1.31,0a2.31,2.31,0,0,0,1.39.37s-.48-1-.22-1,1.44,1.46,2,1.39,1.7-.73,2.26-.49c0,0,.05-.29,2.19-.65s4.77-1.43,5.76-.5c0,0,.12.74.53.94,0,0-.07,1.53-2.72.68l-1-.26s-.15-.46-5.19.83a2.67,2.67,0,0,0-.49.25c-.19.15-.46-.07-1.46.29s-4.72,1.59-7,1.15h0c-.51-.15-1-.07-1-.15s.27,0,.27,0c-.17-.2-.24-.21-.24-.21C111,46.91,111.35,46,111.35,46l.09.27c.32-.42-.12-1.39-.12-1.39h0a.29.29,0,0,0,0-.09l.16-.11a4.46,4.46,0,0,1,2-.92c-.63-.78-2-.36-2-.36a6.86,6.86,0,0,0-.37-2A3.16,3.16,0,0,0,109,42.63c-.05-1-1.29-1.53-1.29-1.53.46.56.17,1.9.17,1.9l0,0h-.13l0,.29,0,0s-.46.17-1,1.39a1.33,1.33,0,0,1-.26.54.33.33,0,0,0,0-.1s-.6.79-2,0A8.39,8.39,0,0,0,102,44.05c-.66,0-1.09.35-1,.54,0,0-1.51-.13-2,.74,0,0-1.14.41-.17,1.34a1.48,1.48,0,0,0,.41.62s0-.85.17-.6a.48.48,0,0,0,.15.14,1.27,1.27,0,0,0,.32.62l.15-.05a3.12,3.12,0,0,1,.11-.59h0l.27.42.31-.17a.59.59,0,0,1,.33.12l.35-.28h0c.35.06.44-.61.44-.61a1.1,1.1,0,0,0,.85-.16c.15.55,1.38,1.15,1.38,1.15h0l-.16.12a2.9,2.9,0,0,0,1.6.29c-.44.17-.38,1-.38,1a.48.48,0,0,0-.28.36,1.89,1.89,0,0,0,1.44.06c0,.27,0,.3,0,.3a7.09,7.09,0,0,0-.48,1.44h0l0,0a6.49,6.49,0,0,0-2.14,1.24s-.06-.21-.25-.21-.76-.47-1-.55-.66.08-.76,0,0-1-.23-1.1h0l-.19-.51c-.12.27-.63.21-.63.21l-.22.15a1.08,1.08,0,0,1-.22,0s-.1.16-.14.3l-.06,0v-.14c-.11.08-.31,0-.39,0s-.09.12-.14.24a3.84,3.84,0,0,1-.48,0c-.09,0,0,.68,0,.68a.59.59,0,0,0-.31.83c.33,1.6,3.07.88,3.27,1.09a1.49,1.49,0,0,0,.93.25c.25,0,.56.59.91.66s0-.48,1.62-.87a4,4,0,0,0,2.17-1c.51-.1.65-.72.69-1,0,.12,0,.25,0,.39a.71.71,0,0,1-.31.76l1.41-.42a.58.58,0,0,0,.49-.63c.53,1.53,1.5,1.63,1.5,1.63a2,2,0,0,0,.17-.76l.44,0a.83.83,0,0,0-.44-.68l.68.41.27,0c0,.25.37.47.37.47l0-.32a.93.93,0,0,0,.9.27,2,2,0,0,0-.06-.23c1.25.77,3.24-.21,3.24-.21.53.12.61-.2.61-.2.61.08.75-.34.75-.34a4.26,4.26,0,0,0,2.43-1.14c.71,0,.73-.55.73-.55a1.53,1.53,0,0,0,1.39-.71,3.12,3.12,0,0,1,3.94-1.09l-1.36.09c-3.58,0-2.1,2.41-2.1,2.41l.22,0c.34.08,1.51,1,1.08,1.69l0,0c-.73,1-2.08,0-2.47-.79a1,1,0,0,0-1.16-.66s-2,.34-1.19,2h0c0,.39.26.83,1,1.28.4.57,1.73.63,2.71.42.45-.1,2.85-1.13,2.85-1.13.17-.52.77-.4,1.3-1.16s-.75-1-1-1.43.07-.34.07-.34c1.17.63,1.27-1.39,1.27-1.39a1.73,1.73,0,0,0,1.14,1.48c.63-.63.17-1.92.17-1.92,1.51,2.7,2.42,2.27,2.42,2.27a.84.84,0,0,1-.4-1.17c.73,2.87,3.72.36,3.72.36a.79.79,0,0,0,.27.93c.26.26.58.39.43.87s-1.53.39-1.53.39-1.36-.07-1.24,1.07c.07.27,1,.37,1.31.29,0,0-.14,0,.37.1a3.58,3.58,0,0,0,.58,0,11.17,11.17,0,0,0,1.2-.12c.77-.17.65-.44.65-.44,1.19-.21,1.31-1,1.31-1Z"/><path d="M98.8,46.77s.07-.15.19-.17.2.06.32.2l.06,0s-.32-.46-.19-.79a.54.54,0,0,1,.42-.3l0-.08a.63.63,0,0,0-.48.35.64.64,0,0,0,0,.2,1.11,1.11,0,0,0,.11.45.29.29,0,0,0-.21-.06.29.29,0,0,0-.21.17Z"/><path d="M120.79,53.61c-.18-.28-.1-.67.25-1.15l-.12-.09c-.38.54-.47,1-.25,1.32Z"/><path d="M119.69,52.39a1.8,1.8,0,0,0,1,1.35l.08-.12c-.62-.38-1-.8-1-1.24a1.71,1.71,0,0,1,.69-1.2l-.08-.11a1.82,1.82,0,0,0-.76,1.32Z"/><path d="M101.8,46.35h0v0s-.06.44-.25.55a.21.21,0,0,1-.19,0l-.33-.21c-.07-.05-.12-.1-.22-.07a.47.47,0,0,1-.09-.29v-.06a.84.84,0,0,1,.41-.56l0-.07a.93.93,0,0,0-.44.62.61.61,0,0,0,.12.43l0,0,0,0c.07,0,.09,0,.17,0l.36.22a.25.25,0,0,0,.25,0c.2-.12.27-.47.29-.57.86.19,1.56-.86,1.59-.91l-.07,0s-.72,1.08-1.55.87Z"/><path d="M99.74,46.19a.63.63,0,0,0,.08.51.5.5,0,0,0,.29.25.42.42,0,0,0,.3-.15c.06-.06.12-.11.16-.11l.08.05.06-.05-.13-.08c-.08,0-.15.06-.23.13s-.15.14-.23.13-.15-.08-.23-.22a.58.58,0,0,1-.08-.44,1.47,1.47,0,0,1,.56-.68l0-.06A1.37,1.37,0,0,0,99.74,46.19Z"/><path d="M98.55,51.68a.61.61,0,0,1,.34-.37s.18.18.36.16l.12-.07a1.06,1.06,0,0,1,.38.71.79.79,0,0,1,0,.24l.07,0c.24-.56-.36-1.05-.36-1.06l0,0,0,0-.1.05c-.16,0-.35-.14-.36-.14a.67.67,0,0,0-.42.42Z"/><path d="M101.3,50.26c-.18,0-.68.11-.84.37a.29.29,0,0,0,0,.3l.06.18a2.4,2.4,0,0,0,.49.94l0-.07a2.37,2.37,0,0,1-.45-.9l-.07-.17a.28.28,0,0,1,0-.24c.13-.21.58-.31.77-.33s.15.41.18.66h.08c0-.36-.07-.75-.26-.73Z"/><path d="M99.94,50.67a.26.26,0,0,0-.08.24s0,1.07.54,1.28l0-.07c-.45-.19-.49-1.21-.49-1.22a.19.19,0,0,1,0-.17c.08-.07.23-.07.43,0l0-.08a.54.54,0,0,0-.5,0Z"/><path d="M99.55,50.75c-.22.15-.21.59-.21.6h.08s0-.4.18-.53a.26.26,0,0,1,.26,0l0-.07a.34.34,0,0,0-.34,0Z"/><path d="M111.26,45a2.84,2.84,0,0,1,.23.94c0,.07,0,.12,0,.19l-.09-.24-.07.17a.63.63,0,0,0,.07.51c.21.35.74.57,1.57.67h0l-.07,0,0,0v.07c0,.08.12.09.32.1h.12l.1,0v0a2.33,2.33,0,0,1,.63.14l-.18,0,.21.08a11.21,11.21,0,0,1,2.16,1.11,2.44,2.44,0,0,1-2.26.4l-.22-.05.15.17A6.29,6.29,0,0,1,114.9,51a3.79,3.79,0,0,1-1.85-.35l-.11.09a5,5,0,0,1,.68,1.44.82.82,0,0,1-.76-.26l-.1-.13s0,.27-.05.36c-.11-.08-.25-.2-.25-.33v-.08l-.32.06-.67-.41-.1-.06h0l-.06.12.1.07a.85.85,0,0,1,.41.56l-.43,0v.08h0a2.26,2.26,0,0,1-.15.65c-.2-.05-1-.31-1.39-1.57l-.13,0v0a.51.51,0,0,1-.44.51l-1.14.34a.77.77,0,0,0,.15-.47c0-.05,0-.1,0-.15a2.85,2.85,0,0,1,0-.46.53.53,0,0,1,.25-.54l-.07-.13a5.12,5.12,0,0,1-2.54.4,7.2,7.2,0,0,1,.47-1.35l0,0c.06,0,.11-.11.07-.39l0-.09-.08,0a1.89,1.89,0,0,1-1.32,0,.35.35,0,0,1,.22-.24l0,0v-.15c0-.21,0-.7.34-.81l0-.14a3.18,3.18,0,0,1-1.46-.23,2,2,0,0,1,.8-.33h.06V47a1.14,1.14,0,0,0-.09-.37c.21.06.46.11.55,0l0,0,0-.55h-.14s0,.37,0,.46a2.24,2.24,0,0,1-.53-.11l-.22-.07.14.18a.73.73,0,0,1,.13.41,2.29,2.29,0,0,0-.9.41l-.07.06.08.06a2.6,2.6,0,0,0,1.43.31,1.25,1.25,0,0,0-.24.8v.06a.56.56,0,0,0-.28.39v0l0,0a1.91,1.91,0,0,0,1.4.09v.07a.24.24,0,0,1,0,.09,7.22,7.22,0,0,0-.51,1.47V51l0,0a4.34,4.34,0,0,0,2.44-.29.86.86,0,0,0-.12.43,3,3,0,0,0,.05.49v.13a.64.64,0,0,1-.28.56l0,.13L109.3,52a.65.65,0,0,0,.5-.44c.56,1.31,1.43,1.43,1.47,1.44h0l0,0a2.47,2.47,0,0,0,.17-.71l.44,0v-.1a.62.62,0,0,0-.08-.31l.24.14.23,0a.9.9,0,0,0,.38.44l.09.06s0-.22,0-.31a1.05,1.05,0,0,0,.86.21h.07v-.07a4,4,0,0,0-.58-1.34,5.3,5.3,0,0,0,1.8.26h.08l0-.09a5.13,5.13,0,0,0-1-1.6,2.54,2.54,0,0,0,2.26-.51l0-.05,0,0a9.34,9.34,0,0,0-2.07-1.11l.16,0-.15-.09a2.3,2.3,0,0,0-1-.25h0c-.18-.2-.26-.23-.29-.23-1-.11-1.34-.39-1.47-.6,0,0,0,0,0,0l0-.05a.74.74,0,0,0,.13-.47,2.92,2.92,0,0,0-.24-1l-.13.06Z"/><path d="M106.74,44.75a1.25,1.25,0,0,1-.57.8,1.56,1.56,0,0,1-1.35,0l-.06,0v.07a.85.85,0,0,0,.33.56,1.43,1.43,0,0,0,1.05.21,2.5,2.5,0,0,0-.63,1.38.34.34,0,0,0,0,.1c.06,0,.81.24,1.16-.2a1.91,1.91,0,0,0,.3,1,.66.66,0,0,1,.16.47,1.5,1.5,0,0,1,0,.24l0,.11.09-.07a2.8,2.8,0,0,0,.94-1.18.66.66,0,0,1,.32-.24s0,.06,0,.1c0,.26.11.72.86,1l.06,0v-.19a1.06,1.06,0,0,1,.2-.71.49.49,0,0,0,.15-.36.62.62,0,0,0,0-.22,1,1,0,0,1,.65.42c.21.4,1,.08,1,.07l0-.08a.77.77,0,0,1-.51-.06.4.4,0,0,1-.15-.27l0-.41a.6.6,0,0,0-.13-.4.34.34,0,0,1,.37.18c.13.29.58.31.6.31h.15l-.13-.08s-.39-.26-.32-.59l.06-.24a3.61,3.61,0,0,0,.13-1.63l-.07,0a1.46,1.46,0,0,1,.05.38,6,6,0,0,1-.19,1.2l-.06.24a.38.38,0,0,0,0,.1.68.68,0,0,0,.25.48.53.53,0,0,1-.38-.24.47.47,0,0,0-.53-.22l-.1,0,.08,0c.13.09.14.19.15.41l0,.41a.43.43,0,0,0,.19.33.5.5,0,0,0,.29.07c-.22.06-.52.1-.62-.1a1.26,1.26,0,0,0-.79-.49h-.08l0,.07a.49.49,0,0,1,.07.25.42.42,0,0,1-.13.31,1.13,1.13,0,0,0-.23.76V49c-.64-.27-.75-.66-.75-.89a.92.92,0,0,1,0-.17l0-.06h-.06a.66.66,0,0,0-.45.32,2.5,2.5,0,0,1-.83,1.08.66.66,0,0,0,0-.15.73.73,0,0,0-.18-.53,2.24,2.24,0,0,1-.29-1.07v-.14l-.07.13c-.28.5-1.1.26-1.11.25a2.72,2.72,0,0,1,.69-1.45l.08-.08h-.11a1.43,1.43,0,0,1-1.09-.18.92.92,0,0,1-.29-.45,1.55,1.55,0,0,0,1.35,0,1.35,1.35,0,0,0,.61-.85c.51-1.17,1-1.35,1-1.35l0-.08s-.49.19-1,1.41Z"/><path d="M107.92,43h0l-.42.57h.13a5.48,5.48,0,0,1,3.48,1.61l.05.06.41-.45,0,0A4.4,4.4,0,0,0,107.92,43Zm0,.14a4.25,4.25,0,0,1,3.4,1.65l-.23.25a5.72,5.72,0,0,0-3.4-1.58c.08-.11.21-.28.23-.32Z"/><path d="M107.59,44.21a2,2,0,0,0-.38.84s0,.07,0,.08h0a1.26,1.26,0,0,0-.38,1,2,2,0,0,0,.12.67l0,.13c.23.6.42,1.13,1.38.82s1-.36,1.2-.74l.06-.1a.65.65,0,0,1,.42-.3.71.71,0,0,0,.52-.42l.15-.24a1.76,1.76,0,0,0,.41-.88h-.08a1.81,1.81,0,0,1-.39.85l-.16.24a.65.65,0,0,1-.48.38.74.74,0,0,0-.46.33l-.06.1c-.22.37-.25.42-1.15.71s-1-.16-1.28-.77l0-.13a1.45,1.45,0,0,1,.27-1.6l.11-.08-.15,0a0,0,0,0,1,0,0,1.87,1.87,0,0,1,.36-.79,2.91,2.91,0,0,1,.7-.56l0-.07a2.7,2.7,0,0,0-.72.58Z"/><path d="M107.16,46.66a.7.7,0,0,0,.65,0,.6.6,0,0,0,.19.45,1.08,1.08,0,0,0,1,.1l0-.08a1,1,0,0,1-.9-.08.56.56,0,0,1-.16-.44v-.07l-.07,0a.64.64,0,0,1-.63,0c-.26-.18-.24-.66-.24-.67h-.08s0,.53.28.74Z"/><path d="M107.67,46a.2.2,0,0,0-.14.2v0c0,.21.25.35.45.41s.45.06.55-.06.06-.14,0-.29a.66.66,0,0,0-.84-.31Zm.34.58c-.18-.05-.38-.17-.4-.34s0-.14.08-.16h0a.57.57,0,0,1,.74.27c0,.09.06.15,0,.2a.49.49,0,0,1-.45,0Zm-.35-.58h0Z"/><path d="M108,47.07c0,.45,0,.46,0,.47h0l0,0,.26-.34L108,47v.06Zm.08.07.13.06a2.07,2.07,0,0,0-.15.2c0-.07,0-.17,0-.26Z"/><path d="M107.28,46.71l0,.42.36-.42-.34,0v0Zm.08,0h.1l-.11.13a.88.88,0,0,0,0-.14Z"/><path d="M107,46.58a3.83,3.83,0,0,1,.31.7.58.58,0,0,0,.36.32.51.51,0,0,0,.47,0l.24-.19c.08-.08.1-.1.16-.09l0-.08c-.11,0-.16,0-.24.11l-.22.19a.47.47,0,0,1-.4,0,.49.49,0,0,1-.31-.26,5.78,5.78,0,0,0-.31-.72l-.08,0Z"/><path d="M107.38,45.06a.92.92,0,0,0-.41.49l.08,0a.84.84,0,0,1,.37-.45.49.49,0,0,1,.41,0l0-.08A.57.57,0,0,0,107.38,45.06Z"/><path d="M109.31,46s.56.43.25.93l.07,0c.35-.56-.27-1-.27-1l0,.07Z"/><path d="M107.68,46.05s-.08.31.35.41c0,0-.41,0-.43-.1S107.6,46,107.68,46.05Z"/><path d="M109,46.42a.05.05,0,0,1-.1,0,0,0,0,1,1,.1,0Z"/><path d="M109.05,46.61a0,0,0,0,1-.1,0,0,0,0,0,1,.1,0Z"/><circle cx="108.72" cy="46.51" r="0.05"/><path d="M108.85,46.8a0,0,0,0,1,0,.05,0,0,0,0,1,0-.1A0,0,0,0,1,108.85,46.8Z"/><path d="M107.6,45.5a0,0,0,1,1-.1,0,.05.05,0,0,1,.1,0Z"/><circle cx="107.6" cy="45.7" r="0.05"/><circle cx="107.32" cy="45.6" r="0.05"/><path d="M107.45,45.89a.05.05,0,0,1,0,0s0,0,0,0a0,0,0,0,1,0,0A0,0,0,0,1,107.45,45.89Z"/><path d="M108.29,44.2s.62.38,0,1.1a.89.89,0,0,0,.33-.59C108.67,44.33,108.43,44,108.29,44.2Z"/><path d="M110.68,45.23c-.2.11-.49-.09-.63-.27a.36.36,0,0,0-.63.11,1.13,1.13,0,0,1-.45.45,2.56,2.56,0,0,0,.53-.44c.26-.29.42-.06.68.08s.3.17.49.1v0Z"/><path d="M110.63,45.28a.3.3,0,0,1-.39,0c-.16-.12-.3-.3-.5-.2s-.58.39-.58.39.62-.42.74-.33.39.32.56.25.17-.09.17-.09Z"/><path d="M110.15,45.54c-.19-.15-.39.18-.55.14s-.3-.32-.3-.32.15.29.37.22.37-.2.5-.1S110.15,45.54,110.15,45.54Z"/><path d="M109.85,45.58a.37.37,0,0,1-.43-.32.45.45,0,0,0,.47.26Z"/><path d="M109.84,45.34c0,.09,0,.14-.09.14s-.17,0-.17-.14S109.82,45.27,109.84,45.34Z"/><path d="M108.45,44.8a.12.12,0,0,1-.13.12c-.06,0-.08,0-.08-.11s0-.13.08-.13A.12.12,0,0,1,108.45,44.8Z"/><path d="M108,44.37s.66,0,.34.83a.84.84,0,0,0,.09-.71.37.37,0,0,0-.41-.22S108,44.33,108,44.37Z"/><path d="M108,44.7a.69.69,0,0,0,.33.51l0-.07a.61.61,0,0,1-.3-.44.29.29,0,0,1,.11-.22l0-.07a.43.43,0,0,0-.14.29Z"/><path d="M108.15,44.84a.33.33,0,0,0,.22.21l0-.07a.27.27,0,0,1-.17-.16.45.45,0,0,1,.07-.31l-.07,0a.56.56,0,0,0-.08.38Z"/><path d="M109.06,45.3a.63.63,0,0,1-.06.56l-.17.27s.21-.4.13-.56a.21.21,0,0,1,.1-.27Z"/><path d="M111.63,48.09a9,9,0,0,1,2.23,1.35l.09-.12A9,9,0,0,0,111.66,48l0,.14Z"/><path d="M112.24,49.79a1.42,1.42,0,0,0,.73,1l.07-.12a1.31,1.31,0,0,1-.66-.88Z"/><path d="M110.61,49.92a3.18,3.18,0,0,0,.66,1.53l.11-.09a3,3,0,0,1-.63-1.44Z"/><path d="M108.46,50c.11.23.1.34.07.4a.17.17,0,0,1-.11.07l0,.14a.29.29,0,0,0,.21-.14.56.56,0,0,0-.07-.53l-.12.06Z"/><path class="cls-13" d="M98.78,46.66a1.16,1.16,0,0,0,.4.72,1.71,1.71,0,0,1,.06-.7.34.34,0,0,0-.46,0Z"/><path class="cls-13" d="M99.48,46.94a1.18,1.18,0,0,0,.33.6l.15,0s.06-.52.14-.58S99.75,47.11,99.48,46.94Z"/><path class="cls-13" d="M100.1,46.92l.27.41.31-.16-.06-.49s-.19,0-.52.24Z"/><path class="cls-13" d="M101.36,47l-.35.28a.59.59,0,0,0-.33-.12l.06-.45s.25-.19.62.29Z"/><path class="cls-13" d="M98.87,51.27s-.07-.64,0-.68.24.08.35,0a2.53,2.53,0,0,1,.1.72c0,.21-.29.13-.47,0Z"/><path class="cls-13" d="M100.45,50.61s0-.54.09-.6.51.06.63-.2l.19.51A1.22,1.22,0,0,0,100.45,50.61Z"/><path class="cls-14" d="M99.9,50.71s.1-.55.2-.57.27.08.35,0l0,.68s0-.29-.53-.09Z"/><path class="cls-14" d="M99.3,50.8s.12-.5.21-.5.28.13.39,0v.37s-.46-.1-.52.52l-.08-.43Z"/></g><g id="sugarcanes"><path class="cls-15" d="M107.33,61.06s1.4,1.3,1,2.43c0,0,.9-1.93-.07-2.5s-1-.13-1,.07Z"/><path class="cls-16" d="M105.57,62.32a.67.67,0,0,0,0,.87,1.18,1.18,0,0,0-.1,1.17,2.4,2.4,0,0,0-.2,1.17s-.23.93.27,1.36c0,0,.53.27.76,0a1.68,1.68,0,0,0,.17-1.44,1.59,1.59,0,0,0,0-1.37,1.35,1.35,0,0,0-.2-.93.63.63,0,0,0,0-.6s-.67-.7-.73-.27Z"/><path class="cls-15" d="M106,60.69s-1.67-3.2-2.84-3.34a1.36,1.36,0,0,1-1.23-1.26s.13.53,1.06.53a4,4,0,0,1,2.94,2.3c.2,1,.4.87.4.87l-.33.9Z"/><path class="cls-15" d="M106,60.46s.6-4,3.23-4.11,1.77.2,2.4-.23a11.38,11.38,0,0,1-2.87,1.07c-1.1.13-2,2.26-2,2.66s-.6,1.17-.9.91.1-.3.1-.3Z"/><path class="cls-15" d="M106.57,62s.6-1.6,1.63-1.07c0,0-.8-1.53-2.24-.2,0,0,.64.87.61,1.27Z"/><path class="cls-15" d="M104.56,60.35s.87,3.57-.46,4.67a5.69,5.69,0,0,0-.77-2.93c-.8-1.1.8-2.3,1.23-1.74Z"/><path class="cls-15" d="M104.66,61s1.57,1.5,1.67,2,.47-1.5-.26-2.07a3.57,3.57,0,0,0-1.54-.66Z"/><path class="cls-16" d="M101.77,64.92s.14.63.53.76a.74.74,0,0,0,.37.61.53.53,0,0,0,.12.63s-.06.77.22.93a2.25,2.25,0,0,0,.94-.24,1.26,1.26,0,0,0-.24-1,.83.83,0,0,0-.33-.75.87.87,0,0,0-.37-.9,1.5,1.5,0,0,0-.38-.79s-.59.83-.86.77Z"/><path class="cls-15" d="M102.54,64.15s-2.05-.75-3.19.33c0,0,1.75.24,2,.59s1.3-.57,1.22-.92Z"/><path class="cls-15" d="M101.91,65.43s-.16-.14-.36-.28-1.93-.61-2.18,1c0,0-.63-1.64.29-1.87a2.2,2.2,0,0,1,2.25,1.1"/><path class="cls-15" d="M100.56,62s.63,1.37.87,1.44a.42.42,0,0,0,.4-.17S101,62.06,100.56,62Z"/><path class="cls-15" d="M100.09,59.92s-.53-1.77-1.16-1.3-.47,1.74-.47,1.74-1.27-1.3-.53-2.34,2.16.1,2.16,1.9Z"/><path class="cls-16" d="M101.53,63.56s0,.33.23.43.67.27.67.07-.33-1-.47-.87-.36.1-.43.37Z"/><path class="cls-15" d="M101.13,61.49s-.07-1.53.93-2.1c0,0,.2,0,.3-.27a6.69,6.69,0,0,0-.56,2.9l0,.14"/><path class="cls-15" d="M101.33,59.62s1.8-3.74,4-2.43a4.93,4.93,0,0,0-3.13,2.1l-.84,1.23,0-.9Z"/><path class="cls-15" d="M100.36,61a12.93,12.93,0,0,0-.87-2.84A1,1,0,0,0,97.93,58a2,2,0,0,1,2.4-.17,2.34,2.34,0,0,1,1,2.24l-.14,1.73-.83-.76"/><path class="cls-15" d="M102.3,64s-2.21-4.17-3.64-1.2c0,0-.27.76,0,1.06a1.91,1.91,0,0,1-.43-2.06c.37-1.47,2.8-.8,3.5.4s.9,1.8.8,1.86-.26-.06-.26-.06Z"/><path class="cls-15" d="M108.5,65.16s1.6-3.3,2.54-1.8c0,0,.26.73-.14,1,0,0-.63-.77-1.2.17s-.33.87-.33.87-.6.16-.87-.27Z"/><path class="cls-15" d="M110.9,64.39a1.2,1.2,0,0,1,.57,1.4s1.17-2.23-.43-2.43c0,0,.3.7-.14,1Z"/><path class="cls-15" d="M111,62.12s2.1.6,2.17,1.51c0,0,.37-1.74-.83-2.27,0,0-1.44.23-1.34.76Z"/><path class="cls-15" d="M111.94,59.35c.9-1.76,2,.57,2,.57s.4-1.83-.73-2.17-1.87,3.91-1.87,3.91L110,62s.36-3.71,2.36-4l.24,0"/><path class="cls-15" d="M110.34,60.42s-1.27-2.6-2.14-2.87.47-.66,1-.16a3,3,0,0,1,1.44,2.46l-.3.57Z"/><path class="cls-15" d="M109,64s.37-1.77,1.37-2.3a3.12,3.12,0,0,1,1.94-.33s-1.2.26-1.4.86-.54.64-.54.64L109,64Z"/><path class="cls-16" d="M108.5,65.16s-.57,1.07-.43,1.23c0,0-.6.87-.37,1.3,0,0,.6.47.87.27,0,0,.7-1,.5-1.5,0,0,.47-.63.3-1,0,0-.7,0-.87-.27Z"/><path d="M105.57,63.25a.91.91,0,0,0,.6.11l.16-.14-.13-.06c-.08.16-.45,0-.57,0Z"/><path d="M105.51,64.29l0,.14s.71.14,1-.15l-.09-.11c-.27.24-.9.12-.91.12Z"/><path d="M105.34,65.47l-.08.11s.79.57,1.29,0l-.11-.09C106,66,105.37,65.49,105.34,65.47Z"/><path d="M102.29,65.64l0,.07s.69-.28.73-.76H103C102.93,65.38,102.29,65.63,102.29,65.64Z"/><path d="M102.66,66.25v.08s.64,0,.75-.48l-.08,0C103.24,66.2,102.67,66.25,102.66,66.25Z"/><path d="M102.79,66.88V67s.71,0,.95-.35l-.07,0C103.46,66.91,102.8,66.88,102.79,66.88Z"/><path d="M108,66.44a1,1,0,0,0,.65.3.66.66,0,0,0,.45-.23l-.11-.1a.48.48,0,0,1-.34.19.82.82,0,0,1-.55-.26l-.1.1Z"/></g><g id="palm"><path class="cls-15" d="M130.63,58.68s3.7-5.17,7.67.2A2,2,0,0,1,138,60l-.1-.43-.23.07-.07-.27-.43,0,.13-.57-.46.37.06-.4-.53.53.07-1.13-.57,1,.07-.66-.2.3-.13-.39-.17.39-.27-.2v.26l-.47-.4-.17.54-.23-.57-.07.4-.23-.47,0,.5-.77-.33.17.47-.37-.27.07.27-.5-.1,0,.3L132,59l.1.26-.74-.1.27.3-.08.13s4-1.33,4.28,3.68l-.73.36.2-.4-.2-.13-.6-.47.16-.63-.2.07,0-.37-.1.07-.23-.37-.07.13-.17-.43-.16.3-.1-.74-.27.47,0-.26-.1.16-.34-.4-.1.27-.13-.2-.1.23-.37-.33v.27l-.23-.21-.1.14-.57-.3,0,.26-.3-.26-.1.26s3.63,2.07,2.5,5.44l-.2.44-.07-1.14-.33.6.23-1.3-.23.23,0-.5-.3.5-.11-.56-.13.16-.2-.86-.17.36-.26-1-.2.4-.14-.84-.13.5-.4-.73-.07.3-.23-.6-.13.2a2.14,2.14,0,0,1-.87-.2c-.2-.17-.77,1-.77,1l.07-.7-.23.47v-.47l-.44,1.4-.1-1-.23.87-.1-.27-.07.37-.13-.14-.12.4-.22-.16v.53l-.2-.27-.16.8-.1-.33v.37l-.17-.2-.17.8-.23-.33,0,.56.1.44-.27-.14.1.7a3.93,3.93,0,0,1,.2-3.8,5.89,5.89,0,0,1,2.9-2.37l-.16-.16,0-.17-1,.5,0-.3-.27.23-.07-.33-.17.3,0-.13-.23.36-.14-.53-.16.63-.16-.44-.34.94V61l-.27.74-.1-.8-.2.93V61l-.3.83-.2-.8-.13.77-.2-.6-.2.9-.3-.8-.17,1.2L124,62l0,.87-.24-.54.24,1.14-.3-.44.1.7-.44-.76,0,.9-.24-.3-.1.33s-.1-3.47,2.27-4.14a5.42,5.42,0,0,1,3.9.2l-.9-.73.1-.23h-.33l.13-.27-.7,0,.2-.26-.53.06v-.16l-.34.26.14-.3-.47.3,0-.44-.24.38-.13-.4-1.07,1.06.3-1.1-.2.24,0-.24-.3.47-.07-.33-.13.4-.1-.47-.23.47-.24-.44-.1.57-.16-.3-.2.43-.27-.26,0,.26-.54-.23.14.4-.4-.33-.11.53-.23-.27-.16.67-.17-.63-.17.5s2.09-5.36,7.37-1.87a3.5,3.5,0,0,1,.7,1c.14.4,0,.06,0,.06l-.1-3.7.2,1.6.13-.56,0,.83.53-1.17a7,7,0,0,0-.4,2.64s.23-2.24,1-2.51l-.74,1.61.23,0-.16.34h.2l-.24.53-.13.27.13.26.21-.2Z"/></g><g id="dove"><path class="cls-15" d="M102.24,79.65s-.62-.29-.91-.08-.24.51-.49.49c0,0,1,.21,1.16,0a1.57,1.57,0,0,0,.24-.33"/><path class="cls-15" d="M102.36,79.91s-.41.55-.27.87.45.35.38.59c0,0,.4-.88.21-1.14s-.26-.31-.26-.31"/><path class="cls-15" d="M101.67,78.39s-.66.2-.73.54.15.55,0,.7c0,0,.85-.47.84-.8a1.45,1.45,0,0,0,0-.4"/><path class="cls-15" d="M102.05,78.61s.31-.61.12-.9-.5-.27-.47-.52c0,0-.25.94,0,1.16a1.91,1.91,0,0,0,.32.26"/><path class="cls-15" d="M101.41,78.39s0-.69-.29-.87-.57,0-.65-.26c0,0,.18,1,.49,1a1.7,1.7,0,0,0,.4.1"/><path class="cls-15" d="M102.53,79.53a.56.56,0,0,1,.78.53c0,.78,0,.52,0,.52s-.38-.84-.8-1Z"/><path d="M102.35,79.92s.07.61.07.61l.1,0-.07-.58.24-1.3h-.1l-.24,1.3Z"/><path d="M101.69,79.73l0,.1c.34.12.82-.26.84-.28l-.06-.08s-.46.36-.75.26Z"/><rect x="101.75" y="77.6" width="0.14" height="1.81" transform="translate(-14.19 133.92) rotate(-63.17)"/><rect x="101.31" y="78.51" width="0.46" height="0.14" transform="translate(-25.83 94.74) rotate(-44.97)"/><rect x="101.81" y="77.83" width="0.14" height="0.81" transform="translate(-23.4 49.86) rotate(-24.76)"/><path d="M102.47,79.54v.14c.44,0,.54.25.54.26l.14,0a.61.61,0,0,0-.69-.37Z"/><path class="cls-17" d="M109.86,79.87c.54-.31.64-1.36.64-1.36-.12.39-1.11.77-1.11.77A7.72,7.72,0,0,0,111,76.79c-.24.73-2.15,1.33-3.38,2s-.58,2.67-.58,2.67a4.07,4.07,0,0,1-1.13-2.22c-.13-.92-.5-1.29-1.34-1.39s-1.33.83-1.33.83l-1.25.65,1.27,0s.9.3.9,1-.79,3.55.52,5.14c.91,1.1,4.28,1.74,4.28,1.74"/><path class="cls-17" d="M107.39,82.06s.26-1.27,1.09-1.23,1.08-.94,1.57-1.09,3-.84,3.33-2.07a4.09,4.09,0,0,1-2.57,3s1.89-.62,2.1-1A4,4,0,0,1,110,81.76s1.91-.15,2.19-.67A3.59,3.59,0,0,1,110,82.38s1.31.54,1.65.09a2.75,2.75,0,0,1-1.59.9l.24.06a1.35,1.35,0,0,1-1.77.32c-.92-.66-.94.18-.94.18"/><path class="cls-17" d="M109.3,84a10,10,0,0,1,1.18,2.77s2.07,2.28,2.84,2.41c0,0-.37.15-1-.41a5,5,0,0,0,.66.6c.11,0-.45,0-.53-.19s.23.34.38.38l-.15,0a1,1,0,0,1-.41-.15c-.12-.11,0,.28,0,.28a1.5,1.5,0,0,1-.43-.19c-.11-.11,0,.23,0,.23l-.28-.06-.2.13s0,.13-.15,0-.36,0-.36,0-.18.15-.26,0-.41.42-.41.42l-1.36-3.27"/><rect x="109.71" y="86.38" width="0.2" height="3.68" transform="translate(-28.43 61.19) rotate(-27.72)"/><rect x="110.59" y="85.77" width="0.2" height="4.39" transform="translate(-30.47 96.09) rotate(-41.77)"/><rect x="111.04" y="85.47" width="0.2" height="4.56" transform="translate(-28.83 109.23) rotate(-47.02)"/><path d="M104.37,78.9s-.21-.39-.4-.24-.3.17-.33.16a.44.44,0,0,0,.29-.09c.11-.1.3,0,.44.17Z"/><path d="M103.2,78.73s.11.24.12.25a3.17,3.17,0,0,0-.14.4l.1,0,.13-.44a2.85,2.85,0,0,0-.12-.29l-.09,0Z"/><path d="M104.32,78.84a.42.42,0,0,1-.38.14l-.22,0H104C104.16,79,104.32,78.88,104.32,78.84Z"/><path d="M104.27,78.88s-.2-.21-.33-.15a.34.34,0,0,1,.37.13Z"/><path d="M104.24,78.84a.43.43,0,0,1-.48,0h0S104.09,78.94,104.24,78.84Z"/><circle cx="104.04" cy="78.81" r="0.07"/><path d="M104.23,84.81s-.18.32-.09.52.51.3.57.56.2.26.39.22l.23,0a2.32,2.32,0,0,1-1-1.14Z"/></g><g id="bananas"><path class="cls-16" d="M125,87.67s-.41.43-.23.54.56,0,.56-.17-.25-.41-.33-.37Z"/><path class="cls-16" d="M124.7,88.08s-.76-.43-1.36.6-1.1,2.7-1.45,2.93,3.41-1.65,3.45-2.43c0,0,.25-1-.14-1s-.42.06-.5-.11Z"/><path class="cls-18" d="M124.8,88.21a1.44,1.44,0,0,0-1,1.3,2.63,2.63,0,0,1-1.32,1.73"/><path class="cls-19" d="M126.52,79.93s0-2.83,2.35-2.7c.43,0,.23.55.23.55a.45.45,0,0,1,.72.21s.73-.33.82.39c0,0,.79-.1.68.54,0,0,.54-.12.52.33,0,0,.63-.25.56.39,0,0,.69-.45.59.37,0,0,.71-.49.95.33s-.7,2.58-1.64,3"/><path d="M127.24,80.07h.08a2.72,2.72,0,0,1,1.83-2.26l0-.07a2.78,2.78,0,0,0-1.89,2.32Z"/><path class="cls-20" d="M125.15,83.36s-.39-2.62,1.18-3.45c0,0,.29-.06.45.31,0,0,.83-.35.85.35,0,0,.41-.33.52.12,0,0,.88-.18.72.48,0,0,.74-.21.68.43,0,0,.74-.27.62.29,0,0,.78-.18.6.46,0,0,1-.11.68.57,0,0,.72-.18.55.38,0,0,.95.16.52.76a6.37,6.37,0,0,1-2.6,1.9"/><path class="cls-20" d="M124.31,86s-.64-2.19.58-2.75a.2.2,0,0,1,.26.17s.27-.35.48,0c0,0,.62-.29.76.16a.37.37,0,0,1,.62.17s.39-.17.39.24c0,0,.54-.22.54.27,0,0,.51-.2.41.35,0,0,.79.13.56.5,0,0,.7.18.43.47,0,0,.77-.08.35.44,0,0,.58-.19.25.45a3.28,3.28,0,0,1-2.08,1.43"/><path class="cls-20" d="M125.07,87.73s-1.36-1.32-.72-1.71a.62.62,0,0,1,.39.37s.33-.47.52,0c0,0,.49-.16.49.17l.39.29s.46-.05.38.24c0,0,.49-.06.47.21,0,0,.43,0,.39.31,0,0,.74.12.41.49a4.51,4.51,0,0,1-2.2-.1s-.48-.17-.52-.29Z"/><path d="M125.63,83.32h.08a5.38,5.38,0,0,1,1.11-3.07l-.07,0A5.48,5.48,0,0,0,125.63,83.32Z"/><path d="M126.39,83.45l.08,0c-.2-1.16,1.18-2.82,1.19-2.83l-.06-.06c-.06.07-1.41,1.7-1.21,2.91Z"/><path d="M127.57,83.87h.08a4.44,4.44,0,0,1,1.25-2.67l-.06-.06a4.61,4.61,0,0,0-1.27,2.73Z"/><path d="M124.77,86.28l.07,0a4.08,4.08,0,0,1,.35-2.81l-.07,0a4.15,4.15,0,0,0-.35,2.88Z"/><path d="M125.3,86.36l.08,0a5.07,5.07,0,0,1,.29-3l-.08,0a5.22,5.22,0,0,0-.29,3Z"/><path d="M127.51,87.61l0,.08A5.29,5.29,0,0,0,129.73,86l-.07,0a5,5,0,0,1-2.15,1.66Z"/><path d="M127.24,87.32l0,.08a6.74,6.74,0,0,0,2-1.81l-.06,0a6.53,6.53,0,0,1-2,1.78Z"/><path d="M127,87.22l0,.07a10.76,10.76,0,0,0,1.89-2.14l-.06,0A11.68,11.68,0,0,1,127,87.22Z"/><path d="M125.67,86.46h.08a5.62,5.62,0,0,1,.68-2.89l-.07,0a5.66,5.66,0,0,0-.69,2.94Z"/><path d="M126.24,86.81l.06.06A6,6,0,0,0,127.44,84h-.08s-.29,2.12-1.12,2.86Z"/><path d="M126.82,87.06l.05.06a4.46,4.46,0,0,0,1.52-2.54h-.08a4.46,4.46,0,0,1-1.49,2.49Z"/><path d="M127,83.48a1.77,1.77,0,0,0,0,.23l-.91,2.94.08,0,.91-3a5,5,0,0,1,1.13-3l-.07,0A5.37,5.37,0,0,0,127,83.48Z"/><path d="M127.91,84.2s-.29,2-1.38,2.8l0,.06c1.12-.76,1.39-2.75,1.4-2.83a28,28,0,0,0,1.6-2.61l-.07,0a27,27,0,0,1-1.6,2.62Z"/><path d="M124.7,86.4a6.55,6.55,0,0,0,.4,1.4l.07,0a6.4,6.4,0,0,1-.39-1.37l-.08,0Z"/><path d="M125.21,86.41c0,.5,0,1.32,0,1.39l.07,0a12.82,12.82,0,0,0,0-1.42Z"/><path d="M125.26,87.84l.07,0a6.43,6.43,0,0,0,.46-1.29h-.08A6,6,0,0,1,125.26,87.84Z"/><path d="M125.34,87.86l0,.07a1.69,1.69,0,0,0,.8-1.06h-.08a1.73,1.73,0,0,1-.76,1Z"/><path d="M125.46,87.92V88c.63-.06,1.06-.83,1.08-.87l-.07,0s-.43.77-1,.83Z"/><path d="M125.52,88V88a2,2,0,0,0,1.49-.7l-.06,0a2,2,0,0,1-1.44.66Z"/><path d="M125.6,88l0,.08s1.35.29,1.8-.39l-.07,0c-.42.63-1.7.35-1.71.35Z"/></g><path class="cls-21" d="M96.47,40.52V76.81c0,11.88,21.45,18.93,21.45,18.93s21.46-7,21.46-18.93V40.52Z"/></g></g></g></g></g></g></svg>