<svg id="Layer_1" data-name="Layer 1" xmlns="http://www.w3.org/2000/svg" xmlns:xlink="http://www.w3.org/1999/xlink" viewBox="0 0 128 128"><defs><style>.cls-1{fill:none;}.cls-2{clip-path:url(#clip-path);}.cls-3{fill:#284da0;}.cls-4{fill:#d0a64f;}.cls-5{fill:#fff;}</style><clipPath id="clip-path"><circle class="cls-1" cx="65.62" cy="64" r="64"/></clipPath></defs><title>Flag_circle_Kosovo</title><g class="cls-2"><path class="cls-3" d="M-46,0H174V128H-46Z"/><path class="cls-4" d="M45.25,60.71a2.68,2.68,0,0,1,.45-.25l.55-.16a1.35,1.35,0,0,1,.42-.15.88.88,0,0,1,.55.31,2.42,2.42,0,0,0,.58.39s.33.11.4,0a.43.43,0,0,1,.36-.2c.16,0,.18-.14.18-.25a.71.71,0,0,1,.18-.39,1,1,0,0,1,.36-.22s.34-.14.37-.34.36-.33.55-.36,0-.12.49-.06.55-.12.57-.26,0-.28.31-.25.45,0,.45-.14.28-.26-.21-.39-.45,0-.48-.26,0-.19-.34-.22-.15-.19-.17-.37a1.72,1.72,0,0,0-.18-.36c-.07-.11-.25-.11-.25-.28s0-.25-.21-.25-.24,0-.24-.17,0-.3.21-.3a.24.24,0,0,0,.24-.31,4.26,4.26,0,0,1,0-.53l.25-.28a10.27,10.27,0,0,0,.79-.7.23.23,0,0,1,.42,0,1.32,1.32,0,0,0,.28.38c.09.12.36,0,.42-.08a3.37,3.37,0,0,1,.25-.74,1.5,1.5,0,0,0,.32-.51c0-.18.12-.33.31-.33s.32-.25.32-.4A.32.32,0,0,1,54,52c.24,0,.36-.18.44,0s.16.22.32.3.4.18.51.07.18-.29.36-.18S56,52.2,56,52s.08-.51.08-.51,0-.15.32-.15.08-.18.23-.29.16-.22.36-.15.51-.09.35-.27-.51-.47-.31-.7.27-.58.08-.62-.48,0-.51-.17-.12-.37.12-.41.63,0,.75-.15.51-.18.51-.5.13-.37.17-.55a1,1,0,0,0-.13-.74,3.53,3.53,0,0,1-.43-.54.68.68,0,0,0-.44-.37c-.24-.07-.44-.11-.44-.29s.16,0,.16-.44-.31-.55-.31-.55l-.48-.29A8.39,8.39,0,0,0,55,44.08c-.23,0-.49-.24-.23-.39a.48.48,0,0,0,.23-.63.64.64,0,0,0-.52-.45c-.36-.09-.45-.17-.29-.38s.19-.36.39-.21a.79.79,0,0,0,.78.09c.26-.12.35-.21.48-.09s.29.24.49.06A.71.71,0,0,1,57,42a1.05,1.05,0,0,0,.68,0c.13-.06.39-.27.39-.39a.65.65,0,0,1,.33-.42c.16-.09.35-.39.52-.39s.22-.18.22-.3a1.91,1.91,0,0,1,.16-.44.44.44,0,0,1,.59,0,1.35,1.35,0,0,0,.52.24,1.45,1.45,0,0,0,.48,0,.68.68,0,0,1,.62,0,1.15,1.15,0,0,0,.55.15,1.7,1.7,0,0,0,.07-.35c0-.12.06-.33-.07-.42s-.29-.21,0-.39a.59.59,0,0,1,.52-.15c.26,0,.42,0,.61,0s.52.18.52.36a.47.47,0,0,0,.29.39c.17.09.36.18.3.33s-.07.26.13.23.25.09.25.24.07.24.26.3.3.18.3.33a.74.74,0,0,0,0,.39,2.07,2.07,0,0,0,.26.39s.35.41-.1.21-.55-.3-.71-.27a.51.51,0,0,0-.26.12,2,2,0,0,1-.39.06c-.16,0-.33.32-.07.38s.36.12.36.33-.1.15-.23.3-.22.06-.45.06-.29.18-.29.36.09.15.19.3A.25.25,0,0,0,64,44c.17-.15.3-.24.39,0s.23.27.42.27a.7.7,0,0,0,.43-.09c.16-.09.35,0,.38.24s.2.27.36.35.26.15.29.3.13.21.3.12.42-.15.51,0,.26.36.26.36l0,.3L68,46a.78.78,0,0,1,.07.27c0,.12.09.18.26.15a2.1,2.1,0,0,1,.45,0s.23-.09.23-.27.09-.24.26-.24.52.12.61-.06a.52.52,0,0,1,.62-.15l.81.33s-.07,0,.13.33a.7.7,0,0,0,.55.3,1.23,1.23,0,0,0,.1.38.41.41,0,0,0,.52.06,1.13,1.13,0,0,1,.58-.26c.19,0,.32,0,.32-.12s-.19-.21-.19-.39.19-.18.23-.36.22,0,.35.09.3.24.3.36a1.09,1.09,0,0,0,.42.59c.16.06.58.09.71-.06s.45-.2.42.15-.1.39.13.51a.43.43,0,0,1,.07.66c-.2.12-.26.15-.26.36s-.07.45.09.56.26.21.26.33a4.49,4.49,0,0,0,.2.66,2.85,2.85,0,0,1,.06.66c0,.12-.09.33.2.3s.35,0,.35.21.1.32-.06.41-.26.39-.1.45a.51.51,0,0,1,.33.27c0,.12.29.33.45.21s.2-.18.32-.21.23-.12.1-.27-.16-.3,0-.39.19-.39.19-.39a.26.26,0,0,1,.43,0c.22.27.26.18.42.18s.22.15.22.3.33.12.33.36.06.81.06.81,0,.33.2.45.16.14.06.29a1,1,0,0,0-.06.51c0,.12.06.18-.1.3a.32.32,0,0,0-.13.45c.1.18.07.3.33.51s.22.3.22.44.26.36.26.51.2.33.36.36a.59.59,0,0,1,.36.45c0,.15,0,.54,0,.54s0,.09.16.09.32.2.39,0,.26-.27.39-.33.39-.18.52-.09a.71.71,0,0,0,.42.09l.74,0s.17,0,.26.21.39.5.23.62-.16.36,0,.36.39,0,.39.15,0,.27.2.18.26-.12.32,0,.2.12.36.21.22,0,.32-.09a1.51,1.51,0,0,1,.49-.24A2.16,2.16,0,0,1,87,59a4.31,4.31,0,0,1,.46.18.81.81,0,0,1,.06.48c-.06.18-.13.15-.06.42s-.07.3-.2.27-.26,0-.26.2-.13.3-.13.51,0,.18-.13.27-.16.24,0,.27.13.24.13.36,0,.39,0,.39,0,.15-.19.15-.42,0-.46.12-.29.38-.06.53.16.24,0,.3a.25.25,0,0,0,0,.45c.26.09.23.18.07.3s-.49.21-.49.39-.06.18-.26.21-.29.26-.06.56.29.24.45.24.16-.24.16-.24l.72,0a1,1,0,0,0,.52-.09c.13-.09.48-.24.48,0s.07.24.23.36.19,0,.32.21.17,0,.26-.18.29-.42.46-.18.16.18.35.18.26.09.26.24.2.15.42.12.26.12.36.27.13.12.26.12a.41.41,0,0,0,.36-.12c.09-.12.22-.27.35-.09a.26.26,0,0,0,.46-.06c.06-.21.35-.39.52-.15a.53.53,0,0,0,.45.27c.16,0,.39,0,.49.18s.42.39.19.57-.48.41-.29.47a.87.87,0,0,1,.45.27,1.58,1.58,0,0,0,.75.24.62.62,0,0,0,.58-.12c.23-.18.46-.18.43.06a1,1,0,0,0,.09.51,2.4,2.4,0,0,1,.16.54c0,.15,0,.18.26.35s.26.3.49.12.29-.26.29-.41v-.48a1.64,1.64,0,0,0,.46-.15c.13-.09.64-.36.77-.24a.38.38,0,0,0,.43,0,1.51,1.51,0,0,1,.51-.06.84.84,0,0,0,.62-.18c.26-.21.26-.15.42,0a.33.33,0,0,1,.07.45.26.26,0,0,0,.22.39c.23,0,.3.12.3.27a2.23,2.23,0,0,0,.06.47c0,.12,0,.18.39.27s.29.3.36.45.06.27-.13.27a.25.25,0,0,0-.29.24c0,.15-.33.21-.33.21L100.3,71a.41.41,0,0,0-.29.12c-.1.12-.29.36-.16.56s.12.33,0,.42-.2.54-.33.45-.29,0-.42.09-.1.48.16.63a.74.74,0,0,1,.33.36l.29.44a.7.7,0,0,0-.16.24c-.07.15-.26.45-.07.51s.1.39-.1.39-.42-.09-.45.15-.13.18-.32.15-.69-.15-.82.09-.16.33-.38.3-.13.35-.07.5a1.69,1.69,0,0,0,.29.36.58.58,0,0,1,.2.45c0,.3-.13.27-.26.06s-.39-.18-.42.06-.07.6-.3.6a.47.47,0,0,0-.42.18c-.09.12-.26.32-.26.44s0,.24-.19.27-.2.36-.2.36-.39.06-.42.21,0,.39-.29.42a.85.85,0,0,0-.62.39c-.09.15-.13.27,0,.41s.23.63.39.72.3.12.26.36-.22.42,0,.42.42.06.32.27-.1.24-.29.33-.29.09-.29.32.06.24-.1.33-.16.21-.16.39-.07.12-.26.33a.58.58,0,0,1-.62.15c-.16-.06-.19-.06-.23-.24s-.32-.18-.48-.15a1.24,1.24,0,0,0-.39.21s-.29.18-.16.33.06.39-.17.36-.74.24-.9,0-.62-.45-.68-.09.19.33.16.68-.1.36-.23.48a.52.52,0,0,0-.16.36c0,.15-.07.48.16.6a.75.75,0,0,1,.32.62c0,.18,0,.36.23.36s.42,0,.46-.24a.26.26,0,0,1,.51.09c0,.42,0,.63.2.81a4.24,4.24,0,0,0,.42.51,3.26,3.26,0,0,1,.35.85c-.32.07-.4.48-.6.56s-.24,0-.34.08-.08.17-.2.23-.19-.27-.47-.13-.29.42-.66.29c-.2-.07-.32-.83-.37-1a5.24,5.24,0,0,0-.3-.51c-.22-.33-.66,0-.8-.1s-.12-.4-.45-.43c-.67,0-.2.41-.48.51-.54.2-.54-.51-1-.19-.15.12.24.2.15.41s-.48.43-.46.63.34.36.42.59c.25.61-.16,1-.77.56-.34-.27-.4-.77-.93-.73-.12,0-.16.14-.28.15s-.22-.11-.35-.07,0,.2-.06.31a3.34,3.34,0,0,0-.3.28c-.15.19-.1.36-.31.52s-.32,0-.51.26-.22.54-.48.75-.22-.32-.38,0l-.07.11a.2.2,0,0,0,0,.21c.34.66-.37.9-.59,1.37-.09.19.17.37.07.52s-.39.42-.42.48a.64.64,0,0,1-.11.27c-.06.06-.25,0-.27.12s.21.19.26.26,0,.19,0,.21c.37.37.15.26.34.58,0,0,.13,0,.17.08s-.08.1,0,.23.27.37.27.38-.49.35-.61.35c-.3,0,.27-.64-.23-.64-.22,0-.24.5-.29.55s-.23,0-.28,0c-.32,0-.53.41-.66.44s-.26,0-.4,0-.28.15-.41.15-.12,0-.18-.09a3.86,3.86,0,0,0-.58-.17c-.09,0-.26.11-.31.07s.07-.25-.17-.38a1.94,1.94,0,0,1-.21-.47,2.27,2.27,0,0,0,.13-.89c0-.31-.52-.57-.65-.82s-.19-.68-.38-.8a1.75,1.75,0,0,1-.49-.6c0-.06.06-.16,0-.27s-.23-.16-.28-.31,0-.5-.13-.59a9.16,9.16,0,0,0-1.39-.23.37.37,0,0,1-.32-.1s-.11-.2-.14-.2-.21,0-.31.06-.19-.05-.26,0c-.31.21-.4.49-.7.72s-.64.22-1,.49-.33.59-.52.78-.21,0-.24,0c-.17.2-.39.32-.56.51,0,0,0,.11-.06.14l-.35.09c-.09,0-.26,0-.33,0s-.16.23-.71.34l-.14.06c-.07,0-.12.12-.18.16s-.16,0-.24,0-.22.14-.34.15c-.3,0-.77-.13-1,0s-.52.48-.66.52-.15,0-.25,0a6.48,6.48,0,0,0-.2.62s-.63.53-.68.59-.11.19-.21.29a.42.42,0,0,1-.27.12,2.3,2.3,0,0,1-.45-.12,6.34,6.34,0,0,0-1.15,0c-.22,0-.15.67-.7.73-.31,0-.61.1-.93.13a.74.74,0,0,0-.42-.08c-.07,0-.31.26-.31.34v.13s.07.1.06.11a4.88,4.88,0,0,0-.49.53.32.32,0,0,1-.1.13c-.07,0-.44.19-.47.26-.09.22.25.43.22.52-.1.29-.48.57-.61.84,0,.11.13.48.13.61a7.58,7.58,0,0,0-.15,1.14,3,3,0,0,0,.07.46c0,.07.13.1.19.16a7.06,7.06,0,0,1,.5,1c.08.62-.82.4-.3,1a3.36,3.36,0,0,0,.24.29c.11.11.78.59.78.65s-.53.17-.63.27c-.26.26-.48.73-.73,1s-.29,0-.49.36c-.08.14,0,.47-.09.56s-.24,0-.37,0-.09.19-.14.23a6.44,6.44,0,0,1-1.57.76.59.59,0,0,1-.14-.32.72.72,0,0,0-.17-.29.84.84,0,0,0-1.16,0c-.08.09-.09.22-.2.31s-.38.29-.55.44-.13.14-.17.13-.45-.37-.53-.47-.56-.58-.6-.78a7.32,7.32,0,0,0-.74-2H54c.37-.24.26-.85.92-.61.08-.11.07-.23.23-.31s.16-.06.19-.12a3,3,0,0,0,.25-2c-.2-.29-.41-.28-.57-.77-.05-.14,0-.29,0-.44s-.26-.83-.29-.88-.18-.14-.18-.17a8.83,8.83,0,0,1,0-.89c-.22-.6-.95-1-1-1s-.18-.33-.28-.48a2.5,2.5,0,0,1-.18-.47c0-.08-.14-.15-.15-.24s.43-.48.41-.76c0-.09-.28-.36-.23-.51s.35-.5.34-.67S53,96,53,95.78s.17-.22.13-.3-.51-.52-.59-.64.17-.21,0-.37,0-.1-.06-.22-.22-.27-.28-.42-.45-1.53-.44-1.61-.18-.18-.23-.28-.08-.28-.13-.36-.44-.13-.52-.26-.08-.45-.2-.62-.14-.07-.21-.13,0-.12-.09-.18-.39,0-.56-.67a3.63,3.63,0,0,1-.66-.51s-.06-.08-.11-.1a2,2,0,0,1-.55-.21,3.28,3.28,0,0,1-.56,0s-.09-.22-.13-.23c-.22,0-.6,0-.79-.19s-.19-.78-.46-.69a.23.23,0,0,0-.12,0c-.17-.23-.79-.26-1-.41-.07,0-.31,0-.31-.08a.87.87,0,0,0,0-.36c-.14-.13-.23-.29-.33-.38s-.14-.08-.29-.17c-.4,0-.44,0-.7.28-.07.06-.2.07-.28.12s-.18.32-.37.21a.53.53,0,0,1-.15-.15c-.12-.09-.18,0-.24-.22-.33-.18-1.25.44-1.47,0-.15-.08-.26,0-.39-.11s.17-.82-.49-1.12c.15-.12.32-.21.46-.32s0-.21,0-.29.08-.37.06-.46-.12-.17-.15-.27,0-.24,0-.35a.71.71,0,0,0-.21-.11,3.25,3.25,0,0,1-.5-.4s0-.1-.1-.13-.51-.21-.5-.4.09-.07.12-.13,0-.17.06-.24c.19-.25.6-.14.54-.61,0-.21-.18-.39-.22-.61-.08,0-.08-.14-.15-.19-.4,0-.35-.46-.49-.56-.43-.29-.77-.11-.29-.68.07-.19-.41-.49-.51-.59s-.09-.51-.15-.69S38,78.07,37.9,78a1.3,1.3,0,0,0-.14-.26v-.06c.09-.06,0-.2,0-.29s-.18,0-.22-.07a4.25,4.25,0,0,0-1.37-.71c-.14,0-.1-.17-.21-.22a7.21,7.21,0,0,0-.84-.33c-.08,0-.13-.33-.19-.43a2.29,2.29,0,0,0-.24-.26c0-.29-.17-.32-.38-.47,0,0,0-.13,0-.17s.15-.53.17-.6.18-.2.16-.32a4,4,0,0,0-.13-.64c-.22-.59-.47-.51-.34-1.27,0-.16,0-.25.1-.39s.06-.08.07-.1.27-.18.31-.23.2-.54.35-.66.44-.26.49-.33.13-.25.09-.32a.84.84,0,0,0-.34-.06c-.05,0-.19-.11-.3-.13s-.09-.08-.09-.14l-.05,0a3.56,3.56,0,0,1-.39-.13,4,4,0,0,1-.49-.15c-.26-.15-.55-.56-.8-.62a2.86,2.86,0,0,0-.88,0c-.22,0-.22-.11-.39-.16s-.05.12-.57-.05c-.07,0,0-.23,0-.3s-.18,0-.28,0c-.43-.1-.26-.49-.38-.74-.05-.06-.22,0-.31-.06s0,0,0-.06l0,0c.07-.11-.19-.39-.18-.43s.55-.17.62-.18,0-.12-.06-.19a1.32,1.32,0,0,1,.13-.48v0c-.15-.09-.2-.21-.33-.3s.1-.12.11-.18c.26-.7.65-.14,1-.79a1.9,1.9,0,0,0,.16-.32h.06c.07,0,.16.06.22,0a.48.48,0,0,1,.24-.11l.12,0c.63-.13.48-.37.85-.63.1-.06.38-.09.51-.14a4.16,4.16,0,0,0,.59.37c.19.08.83.21.93.27s.17.26.29.32c.36.2.15-.13.5-.06a4.81,4.81,0,0,1,1,.51.58.58,0,0,0,.26,0,5.5,5.5,0,0,1,.73-.1c.07,0,.16.08.23.1s.14-.16.2-.15c.24,0,.25.13.58.1,0,0,.17-.91.32-1s.33.22.41.24,0-.19,0-.21-.2-.63-.2-.68.17,0,.24,0a1.2,1.2,0,0,0,.55-.25s.29-.41.3-.42-.07-.23,0-.28a3.11,3.11,0,0,0,.27-.18c.1-.1.12-.28.26-.36.58-.05.78-.5,1.3-.56a1,1,0,0,1,.17,0l.11.17a1.31,1.31,0,0,0,.43.24s.08-.09.13-.1a.74.74,0,0,0,.43-.26s-.07-.1,0-.16a3.17,3.17,0,0,1,.45-.35,1,1,0,0,1,.39,0c.07,0,.08.14.16.16s.25,0,.32,0,.1-.13.19-.14Z"/><g id="b"><polygon class="cls-5" points="75.72 26.9 80.23 23.62 74.65 23.62 72.92 18.31 71.2 23.62 65.62 23.62 70.14 26.9 68.41 32.2 72.92 28.92 77.44 32.2 75.72 26.9"/><polygon class="cls-5" points="93.29 30 97.81 26.72 92.23 26.72 90.5 21.41 88.78 26.72 83.2 26.72 87.71 30 85.99 35.3 90.5 32.02 95.02 35.3 93.29 30"/><polygon class="cls-5" points="110.07 36.1 114.58 32.82 109 32.82 107.28 27.51 105.55 32.82 99.97 32.82 104.49 36.1 102.76 41.41 107.28 38.13 111.79 41.41 110.07 36.1"/></g><g id="b-2" data-name="b"><polygon class="cls-5" points="57.87 26.9 62.38 23.62 56.8 23.62 55.08 18.31 53.35 23.62 47.77 23.62 52.28 26.9 50.56 32.2 55.08 28.92 59.59 32.2 57.87 26.9"/><polygon class="cls-5" points="40.29 30 44.8 26.72 39.22 26.72 37.5 21.41 35.77 26.72 30.19 26.72 34.71 30 32.98 35.3 37.5 32.02 42.01 35.3 40.29 30"/><polygon class="cls-5" points="23.51 36.1 28.03 32.82 22.45 32.82 20.72 27.51 19 32.82 13.42 32.82 17.93 36.1 16.21 41.41 20.72 38.13 25.24 41.41 23.51 36.1"/></g></g></svg>