<svg id="Layer_1" data-name="Layer 1" xmlns="http://www.w3.org/2000/svg" xmlns:xlink="http://www.w3.org/1999/xlink" viewBox="0 0 128 128"><defs><style>.cls-1{fill:none;}.cls-2{clip-path:url(#clip-path);}.cls-3{clip-path:url(#clip-path-2);}.cls-4{fill:#bf2026;}.cls-5{fill:#f7e524;}</style><clipPath id="clip-path"><circle class="cls-1" cx="64" cy="64" r="64"/></clipPath><clipPath id="clip-path-2"><rect id="_Clipping_Path_" data-name="&lt;Clipping Path&gt;" class="cls-1" x="-45.7" width="219.41" height="128"/></clipPath></defs><title>Flag_circle_North Macedonia</title><g class="cls-2"><g id="MACEDONIA"><g id="_Group_" data-name="&lt;Group&gt;"><g id="_Clip_Group_" data-name="&lt;Clip Group&gt;"><g class="cls-3"><rect id="_Path_" data-name="&lt;Path&gt;" class="cls-4" x="-45.7" width="219.41" height="128"/><path id="_Compound_Path_" data-name="&lt;Compound Path&gt;" class="cls-5" d="M140.8,128h32.9L64,64ZM-45.7,0,64,64-12.78,0Z"/><path id="_Compound_Path_2" data-name="&lt;Compound Path&gt;" class="cls-5" d="M53,128H75L64,64ZM53,0,64,64,75,0Z"/><path id="_Compound_Path_3" data-name="&lt;Compound Path&gt;" class="cls-5" d="M-45.7,128h32.92L64,64ZM140.8,0,64,64,173.7,0Z"/><path id="_Compound_Path_4" data-name="&lt;Compound Path&gt;" class="cls-5" d="M-45.7,76.8,64,64-45.7,51.21ZM64,64,173.7,76.8V51.21Z"/><g id="_Clip_Group_2" data-name="&lt;Clip Group&gt;"><g class="cls-3"><path id="_Path_2" data-name="&lt;Path&gt;" class="cls-4" d="M64,41.15A22.86,22.86,0,1,1,41.14,64,22.84,22.84,0,0,1,64,41.15"/><path id="_Path_3" data-name="&lt;Path&gt;" class="cls-5" d="M64,45.71A18.29,18.29,0,1,1,45.72,64,18.27,18.27,0,0,1,64,45.71"/></g></g></g></g></g></g></g></svg>