<svg id="Layer_1" data-name="Layer 1" xmlns="http://www.w3.org/2000/svg" xmlns:xlink="http://www.w3.org/1999/xlink" viewBox="0 0 128 128"><defs><style>.cls-1{fill:none;}.cls-2{clip-path:url(#clip-path);}.cls-3{clip-path:url(#clip-path-2);}.cls-4{fill:#419e4b;}.cls-5{fill:#bc0030;}.cls-6{fill:#f3d02f;}.cls-7{fill:#fff;}</style><clipPath id="clip-path"><circle class="cls-1" cx="64" cy="64" r="64"/></clipPath><clipPath id="clip-path-2"><rect id="_Clipping_Path_" data-name="&lt;Clipping Path&gt;" class="cls-1" x="-45.71" width="219.42" height="128"/></clipPath></defs><title>Flag_circle_Saint Kitts and Nevis</title><g class="cls-2"><g id="SAINT_KITTS" data-name="SAINT KITTS"><g id="_Group_" data-name="&lt;Group&gt;"><g id="_Clip_Group_" data-name="&lt;Clip Group&gt;"><g class="cls-3"><polygon id="_Path_" data-name="&lt;Path&gt;" class="cls-4" points="-45.71 0 -45.71 100.2 104.6 0 -45.71 0"/><polygon id="_Path_2" data-name="&lt;Path&gt;" class="cls-5" points="23.38 128 173.71 128 173.71 27.77 23.38 128"/><polygon id="_Path_3" data-name="&lt;Path&gt;" class="cls-6" points="104.6 0 -45.71 100.2 -45.71 110.77 120.42 0 104.6 0"/><polygon id="_Path_4" data-name="&lt;Path&gt;" class="cls-6" points="7.54 128 23.38 128 173.71 27.77 173.71 17.23 7.54 128"/><path id="_Compound_Path_" data-name="&lt;Compound Path&gt;" d="M120.42,0-45.71,110.77V128H7.54L173.71,17.23V0Z"/></g></g></g></g></g><polygon class="cls-7" points="95.02 47.84 96.37 44.16 99.68 35.21 88.49 42.67 77.93 34.32 81.57 47.31 70.36 54.77 79.89 55.14 83.8 55.31 87.47 68.27 92.13 55.63 105.58 56.19 95.02 47.84"/><polygon class="cls-7" points="44.3 82.41 45.68 78.72 48.98 69.74 37.77 77.23 27.21 68.89 30.85 81.85 19.63 89.33 29.17 89.71 33.11 89.87 36.75 102.83 41.41 90.19 54.88 90.75 44.3 82.41"/></svg>