<svg id="Layer_1" data-name="Layer 1" xmlns="http://www.w3.org/2000/svg" xmlns:xlink="http://www.w3.org/1999/xlink" viewBox="0 0 128 128"><defs><style>.cls-1{fill:none;}.cls-2{clip-path:url(#clip-path);}.cls-3{clip-path:url(#clip-path-2);}.cls-4{fill:#4a5bb5;}.cls-5,.cls-7{fill:#f6d928;}.cls-6{fill:#a1001d;}.cls-10,.cls-11,.cls-7,.cls-8,.cls-9{fill-rule:evenodd;}.cls-12,.cls-8{fill:#fff;}.cls-9{fill:#485ba3;}.cls-10{fill:#980015;}</style><clipPath id="clip-path"><circle class="cls-1" cx="64" cy="64" r="64"/></clipPath><clipPath id="clip-path-2"><rect id="_Clipping_Path_" data-name="&lt;Clipping Path&gt;" class="cls-1" x="-45.7" width="219.41" height="128"/></clipPath></defs><title>Flag_circle_Swaziland</title><g class="cls-2"><g id="SWAZILAND"><g id="_Group_" data-name="&lt;Group&gt;"><g id="_Clip_Group_" data-name="&lt;Clip Group&gt;"><g class="cls-3"><rect id="_Path_" data-name="&lt;Path&gt;" class="cls-4" x="-45.7" width="219.41" height="128"/><rect id="_Path_2" data-name="&lt;Path&gt;" class="cls-5" x="-45.7" y="22.83" width="219.41" height="82.34"/><rect id="_Path_3" data-name="&lt;Path&gt;" class="cls-6" x="-45.7" y="32" width="219.41" height="63.97"/><g id="_Clip_Group_2" data-name="&lt;Clip Group&gt;"><g class="cls-3"><path id="_Path_4" data-name="&lt;Path&gt;" class="cls-7" d="M-11.51,62.62H141.22a1.37,1.37,0,0,1,0,2.73H-11.51A1.35,1.35,0,0,1-12.86,64a1.36,1.36,0,0,1,1.35-1.35Z"/><g id="_Group_2" data-name="&lt;Group&gt;"><path id="_Compound_Path_" data-name="&lt;Compound Path&gt;" d="M141.22,65.53H-11.51A1.52,1.52,0,0,1-13,64a1.53,1.53,0,0,1,1.52-1.53H141.22a1.55,1.55,0,0,1,0,3.09ZM-11.51,62.8A1.18,1.18,0,0,0-12.68,64a1.2,1.2,0,0,0,1.17,1.23H141.22A1.2,1.2,0,0,0,142.39,64a1.18,1.18,0,0,0-1.17-1.17Z"/></g><polygon id="_Path_5" data-name="&lt;Path&gt;" class="cls-8" points="125.71 49.39 117.95 52.13 125.71 54.83 133.49 52.13 125.71 49.39"/><g id="_Group_3" data-name="&lt;Group&gt;"><path id="_Compound_Path_2" data-name="&lt;Compound Path&gt;" d="M125.71,55l-8.22-2.92,8.17-2.91L134,52.12,125.71,55Zm-7.3-2.92,7.3,2.58L133,52.12l-7.37-2.6-7.25,2.6Z"/></g><path id="_Path_6" data-name="&lt;Path&gt;" class="cls-7" d="M8.3,51.18H120.62a1,1,0,0,1,1,.94,1,1,0,0,1-1,.9H8.3a1,1,0,0,1-1-.9,1,1,0,0,1,1-.94Z"/><g id="_Group_4" data-name="&lt;Group&gt;"><path id="_Compound_Path_3" data-name="&lt;Compound Path&gt;" d="M120.62,53.17H8.3A1.07,1.07,0,1,1,8.3,51H120.62a1.07,1.07,0,1,1,0,2.14ZM8.3,51.36a.74.74,0,1,0,0,1.48H120.62a.74.74,0,1,0,0-1.48Z"/></g><g id="_Group_5" data-name="&lt;Group&gt;"><path id="_Compound_Path_4" data-name="&lt;Compound Path&gt;" d="M117,53.17v-.33a.74.74,0,1,0,0-1.48V51a1.07,1.07,0,1,1,0,2.14Zm1.83,0v-.33a.74.74,0,1,0,0-1.48V51a1.07,1.07,0,1,1,0,2.14Zm-.91,0v-.33a.74.74,0,1,0,0-1.48V51a1.07,1.07,0,1,1,0,2.14Z"/></g><polygon id="_Path_7" data-name="&lt;Path&gt;" class="cls-8" points="118.41 54.83 110.62 57.62 118.41 60.35 126.18 57.62 118.41 54.83"/><g id="_Group_6" data-name="&lt;Group&gt;"><path id="_Compound_Path_5" data-name="&lt;Compound Path&gt;" d="M118.41,60.5l-8.24-2.88,8.19-2.89,8.26,2.89-8.21,2.88Zm-7.33-2.91,7.33,2.58,7.3-2.55L118.36,55l-7.28,2.58Z"/></g><path id="_Path_8" data-name="&lt;Path&gt;" class="cls-7" d="M1,56.7H113.3a.92.92,0,0,1,1,.92.91.91,0,0,1-1,.86H1a.93.93,0,0,1-1-.86.93.93,0,0,1,1-.92Z"/><g id="_Group_7" data-name="&lt;Group&gt;"><path id="_Compound_Path_6" data-name="&lt;Compound Path&gt;" d="M113.3,58.66H1a1.07,1.07,0,1,1,0-2.14H113.3a1.07,1.07,0,1,1,0,2.14ZM1,56.82a.79.79,0,0,0-.82.8.77.77,0,0,0,.82.71H113.3a.78.78,0,0,0,.83-.71.82.82,0,0,0-.83-.8Z"/></g><g id="_Group_8" data-name="&lt;Group&gt;"><path id="_Compound_Path_7" data-name="&lt;Compound Path&gt;" d="M111.54,58.66v-.33a.8.8,0,0,0,.76-.71.86.86,0,0,0-.76-.8v-.3a1.07,1.07,0,1,1,0,2.14Zm-.92,0v-.33a.8.8,0,0,0,.76-.71.85.85,0,0,0-.76-.8v-.3a1.07,1.07,0,1,1,0,2.14Zm-.9,0v-.33a.82.82,0,0,0,.76-.71.87.87,0,0,0-.76-.8v-.3a1.07,1.07,0,1,1,0,2.14Z"/></g><path id="_Path_9" data-name="&lt;Path&gt;" class="cls-9" d="M131.64,62.9c-1.4,2.4,1.07-.79,7,3.22a5.71,5.71,0,0,1,2.06,4.11c-.26-.23-.48-.64-.78-.89-.44.41.41,2.42.55,3.34-.95-.48-.86-.76-1.16-1.43,0,.82-.17,2.94.21,3.78-.74-.23-.7-.84-1.07-.94.26.94-.24,2-.1,3a14.1,14.1,0,0,0-1.11-.94c0,.51-.81,1.81-.84,2.29a1.3,1.3,0,0,1-.52-.81A15.14,15.14,0,0,0,133.76,81c-1.25-1.1-4.44-3.78-4.85-5.19-.37.82-.9,1-1.93,1.66-.43-2.24-2-4.77-1.15-6.69a12,12,0,0,0-1.65,1.15c.55-3.29,3.39-7.1,7.46-9Z"/><g id="_Group_9" data-name="&lt;Group&gt;"><path id="_Compound_Path_8" data-name="&lt;Compound Path&gt;" d="M133.84,81.19l-.5-.41c-1.45-1.28-4.15-3.63-4.55-5-.14.82-.69,1.1-1.67,1.66l-.14.08-.13-.08a20.85,20.85,0,0,0-.63-2.24c-.53-1.56-1.08-3.2-.51-4.55a6.36,6.36,0,0,1-1.44,1.25c.41-3.68,3.49-7.35,7.32-9.14,0,.36-.25.87-.2,1s0,0,.3,0l.68,0c.76,0,3,0,6.37,2.22a5.87,5.87,0,0,1,2.13,4.21.8.8,0,0,1-.63-.41c-.12-.15-.24-.25-.37-.41a8.47,8.47,0,0,0,.44,2c.13.46.25.92.3,1.2-.81-.23-1-.46-1.15-.77v.44a7.58,7.58,0,0,0,.19,2.65.9.9,0,0,1-.94-.48c-.1-.16-.15-.28-.26-.31a2,2,0,0,1,.13,1.48,5.67,5.67,0,0,0-.09,1.41,5.15,5.15,0,0,1-1.05-.62l-.24-.23c.18.23,0,.64-.23,1.13a6.09,6.09,0,0,0-.42,1.09,1,1,0,0,1-.76-.76A33.81,33.81,0,0,0,133.86,81l0,.18Zm-5-5.47c.59,1.28,3.35,3.73,4.71,4.85l.18.18a18.55,18.55,0,0,1,2.13-3.19c.27.26.35.59.67.77-.16-.16,0-.59.25-1.08a4.22,4.22,0,0,0,.42-1.09l.43.1c.25.2.56.46.87.74a1.87,1.87,0,0,1-.13-1.35,3.69,3.69,0,0,0,0-1.51.4.4,0,0,1,.55.23,1.17,1.17,0,0,0,.65.54c-.4-.41-.37-1.64-.35-2.58,0-.44,0-.8,0-1l.38.3a1.61,1.61,0,0,0,1,1,2.57,2.57,0,0,1-.48-1c-.27-1-.54-1.94-.21-2.29a1.31,1.31,0,0,1,.57.43,2.42,2.42,0,0,0,.39.43,6.62,6.62,0,0,0-2.22-3.88C135.35,64,133.1,64,132.37,64l-.68,0a.61.61,0,0,1-.51-.16c-.11-.18,0-.41.35-1-3.6,1.92-6.63,5.54-7.24,9a5.06,5.06,0,0,1,1.48-1.25c-.37,1.4.16,3,.66,4.55a18.84,18.84,0,0,1,.67,2.24c.87-.69,1.37-.94,1.7-1.71Z"/></g><path id="_Path_10" data-name="&lt;Path&gt;" class="cls-10" d="M126.46,74.8c.59-1.17,1.12-1.53,1.47-2.27.67-1.3.76-2.32,1.33-2.2s.58.69-.15,2a5.68,5.68,0,0,1-2.65,2.47Z"/><path id="_Path_11" data-name="&lt;Path&gt;" class="cls-9" d="M-6.16,65.23c-.06-.69.09-.8-.34-1.33.62.28.64,1,1.42.46.26-.13.38-.13,0-.92.79.05,3.39.92,3.8.94,1.09.05,3.09-1.12,4.47.34s.89,2.75.89,4.59c-.54-.25-.28-.38-.84-1,.42,1.64,0,4.55,0,6.29-.22-.41-.2-.26-.4-.67-.57,1.59-1.26,1.89-1.26,3.76-.2-.74,0-.56-.23-1-.55,1.18-4.24,2.2-2.83,3.42-1.27-.76-1.83-.66-2.42-1.35a2.42,2.42,0,0,0-.69.87c-2.25-1-1.44-3.27-3.21-4.78a10.33,10.33,0,0,0-.51,1.59,25.4,25.4,0,0,0-.84-3.37c-.35.56-.33.35-1,1.2-.27-1.71-.7-2.1-.52-3.25-.66.46-.24.26-.91.87.64-4.44,3.39-7.71,5.34-6.66Z"/><g id="_Group_10" data-name="&lt;Group&gt;"><path id="_Compound_Path_9" data-name="&lt;Compound Path&gt;" d="M-1.52,80.24a6.91,6.91,0,0,0-1.26-.61A2.66,2.66,0,0,1-4,78.84a2.61,2.61,0,0,1-.4.87,3.25,3.25,0,0,1-2.18-2.53A4.68,4.68,0,0,0-7.88,75a.91.91,0,0,1,0,.61,6.59,6.59,0,0,1-.24.9L-8.3,77l-.12-.51c-.13-.54-.23-1-.3-1.33-.15-.64-.27-1.2-.45-1.74a1.4,1.4,0,0,1-.21.26,5.19,5.19,0,0,0-.56.71l-.23.34-.06-.44a14.54,14.54,0,0,0-.35-1.53,4.36,4.36,0,0,1-.21-1.4.58.58,0,0,0-.13.15,2.81,2.81,0,0,1-.47.48l-.32.31.06-.43c.59-4.19,3.24-7.64,5.33-6.9a.71.71,0,0,1,0-.2A1,1,0,0,0-6.63,64L-7,63.51l.61.26a1.49,1.49,0,0,1,.54.38c.26.26.38.28.72.08s.25-.15,0-.72l-.11-.23H-5a19.26,19.26,0,0,1,2.47.59c.58.16,1.19.36,1.34.36s.71-.1,1.1-.18c1.16-.25,2.63-.36,3.48.56,1.1,1.1,1,2.25,1,3.6,0,.36,0,.72,0,1.1v.26l-.24-.1A.92.92,0,0,1,3.58,69a24,24,0,0,1-.06,3.58c0,.71-.09,1.38-.09,1.94v.66l-.31-.59a2.37,2.37,0,0,0-.19-.3.26.26,0,0,1,0-.08,8.93,8.93,0,0,1-.49,1,4.5,4.5,0,0,0-.63,2.38v1.17l-.32-1.12a2.69,2.69,0,0,1-.12-.64v0A5.31,5.31,0,0,1-.1,78.15c-.72.46-1.47.94-1.49,1.35,0,.16.07.28.25.46l-.18.28ZM-4,78.61a4.16,4.16,0,0,0,1.31.71c.21.11.45.21.74.34a.53.53,0,0,1,0-.18c0-.59.81-1.08,1.64-1.61a4.72,4.72,0,0,0,1.52-1.25l.13-.28.16.25s0,0,0,0a4.26,4.26,0,0,1,.6-1.51c.17-.36.38-.77.57-1.28l.12-.36.18.36.11.16c0-.41,0-.9.06-1.41a15.56,15.56,0,0,0-.05-4.29L3,67.6l.46.56a2.23,2.23,0,0,1,.42.67A1.24,1.24,0,0,0,4,69c0-.29,0-.57,0-.82.07-1.3.12-2.35-.87-3.35C2.36,64,1,64.1,0,64.36a5,5,0,0,1-1.11.2,8,8,0,0,1-1.48-.36c-.73-.23-1.62-.46-2.13-.56.19.51.13.67-.21.85-.54.35-.81.2-1.06,0a.8.8,0,0,1,0,.28c0,.12,0,.25,0,.46l0,.28-.27-.18c-1.64-.84-4.26,1.81-5,6.08l.06-.11a1.5,1.5,0,0,1,.5-.4l.32-.26-.07.38a3.64,3.64,0,0,0,.18,1.66c.09.31.19.72.28,1.2.18-.23.27-.33.36-.43A2.63,2.63,0,0,0-9.27,73l.18-.28L-9,73a13.68,13.68,0,0,1,.56,2.07c.06.23.1.46.16.74a1.13,1.13,0,0,1,.07-.28,2.45,2.45,0,0,1,.27-.72,3.58,3.58,0,0,1,1.63,2.3,3.28,3.28,0,0,0,1.81,2.38A1.22,1.22,0,0,1-4,78.61Z"/></g><path id="_Path_12" data-name="&lt;Path&gt;" class="cls-10" d="M1.58,70.38c-1.1-1.07-1.74-1.27-2.44-2C-2.1,67.19-2.68,66-3.12,66.48s-.18,1,1.12,2.14a6.1,6.1,0,0,0,3.58,1.76Z"/><path id="_Path_13" data-name="&lt;Path&gt;" class="cls-10" d="M.92,74.55C.21,73.47-.31,73.19-.77,72.48c-.8-1.23-1.07-2.25-1.52-2s-.35.79.51,2a5.12,5.12,0,0,0,2.7,2.07Z"/><path id="_Path_14" data-name="&lt;Path&gt;" class="cls-8" d="M109.72,64C100.59,73.14,88.39,91.4,64,91.4,42.67,91.4,27.44,73.14,18.28,64c9.16-9.14,24.39-27.4,45.73-27.4,24.38,0,36.58,18.26,45.71,27.4Z"/><g id="_Group_11" data-name="&lt;Group&gt;"><path id="_Compound_Path_10" data-name="&lt;Compound Path&gt;" d="M64,91.58c-19.18,0-33.38-14.68-42.78-24.36-1.08-1.13-2.09-2.17-3.06-3.14,1-1.13,2-2.17,3-3.3,9.41-9.7,23.61-24.36,42.8-24.36,20.68,0,32.62,13.1,41.34,22.68,1.59,1.76,3.06,3.37,4.48,4.77-1.42,1.64-2.9,3.27-4.51,5C96.62,78.48,84.68,91.58,64,91.58ZM64,36.7C45,36.7,30.79,51.33,21.44,61c-1.08,1.1-2.1,2.15-3,3.07A41.46,41.46,0,0,1,21.45,67C30.8,76.69,45,91.28,64,91.28c20.52,0,32.41-13.08,41.09-22.61,1.6-1.73,3.09-3.37,4.5-4.8a62.62,62.62,0,0,1-4.49-4.54C96.44,49.77,84.54,36.7,64,36.7Z"/></g><path id="_Path_15" data-name="&lt;Path&gt;" class="cls-11" d="M60.82,46.12c2.42,2.71.39,3.81,3,4s1.17,2.89,3.45,3c1.6.08-.16,6.47,1.39,8.59s2.88.63,2.91,2.19-4.27,1.48-4.35,6.54c-.13,2.91-3.61,3.12-3.78,5s6.88,2.79,6.79,4.35-7.66,1.35-8,3.11C62,84.43,72.6,85.73,73.43,90.41c-1.57.56-6,1-9.42,1C42.67,91.43,27.44,73.14,18.28,64c9.16-9.14,24.39-27.4,45.73-27.4,0,0-6.35,5.8-3.19,9.55Z"/><rect id="_Path_16" data-name="&lt;Path&gt;" class="cls-12" x="35.36" y="54.24" width="2.2" height="7.3"/><rect id="_Path_17" data-name="&lt;Path&gt;" class="cls-12" x="35.36" y="66.45" width="2.2" height="7.3"/><rect id="_Path_18" data-name="&lt;Path&gt;" class="cls-12" x="39.78" y="54.24" width="2.23" height="7.3"/><rect id="_Path_19" data-name="&lt;Path&gt;" class="cls-12" x="39.78" y="66.45" width="2.23" height="7.3"/><rect id="_Path_20" data-name="&lt;Path&gt;" class="cls-12" x="44.22" y="54.24" width="2.22" height="7.3"/><rect id="_Path_21" data-name="&lt;Path&gt;" class="cls-12" x="44.22" y="66.45" width="2.22" height="7.3"/><rect id="_Path_22" data-name="&lt;Path&gt;" class="cls-12" x="48.65" y="54.24" width="2.21" height="7.3"/><rect id="_Path_23" data-name="&lt;Path&gt;" class="cls-12" x="48.65" y="66.45" width="2.21" height="7.3"/><rect id="_Path_24" data-name="&lt;Path&gt;" class="cls-12" x="53.08" y="54.24" width="2.22" height="7.3"/><rect id="_Path_25" data-name="&lt;Path&gt;" class="cls-12" x="53.08" y="66.45" width="2.22" height="7.3"/><rect id="_Path_26" data-name="&lt;Path&gt;" class="cls-12" x="57.52" y="54.24" width="2.21" height="7.3"/><rect id="_Path_27" data-name="&lt;Path&gt;" class="cls-12" x="57.52" y="66.45" width="2.21" height="7.3"/><rect id="_Path_28" data-name="&lt;Path&gt;" x="68.87" y="54.24" width="2.22" height="7.3"/><rect id="_Path_29" data-name="&lt;Path&gt;" x="68.87" y="66.45" width="2.22" height="7.3"/><rect id="_Path_30" data-name="&lt;Path&gt;" x="73.31" y="54.24" width="2.21" height="7.3"/><rect id="_Path_31" data-name="&lt;Path&gt;" x="73.31" y="66.45" width="2.21" height="7.3"/><rect id="_Path_32" data-name="&lt;Path&gt;" x="77.75" y="54.24" width="2.22" height="7.3"/><rect id="_Path_33" data-name="&lt;Path&gt;" x="77.75" y="66.45" width="2.22" height="7.3"/><rect id="_Path_34" data-name="&lt;Path&gt;" x="82.17" y="54.24" width="2.23" height="7.3"/><rect id="_Path_35" data-name="&lt;Path&gt;" x="82.17" y="66.45" width="2.23" height="7.3"/><rect id="_Path_36" data-name="&lt;Path&gt;" x="86.61" y="54.24" width="2.21" height="7.3"/><rect id="_Path_37" data-name="&lt;Path&gt;" x="86.61" y="66.45" width="2.21" height="7.3"/><rect id="_Path_38" data-name="&lt;Path&gt;" x="91.04" y="54.24" width="2.22" height="7.3"/><rect id="_Path_39" data-name="&lt;Path&gt;" x="91.04" y="66.45" width="2.22" height="7.3"/><path id="_Path_40" data-name="&lt;Path&gt;" class="cls-9" d="M49.22,41.42c-1.27,2.46,2.21-.81,7.67,3.3a9.42,9.42,0,0,1,2.48,5.16,17.51,17.51,0,0,1-3.23-1.38s2.41,2.42,2.41,5.23c-.85-.56-1.28-.48-1.56-1.15,0,.92.76,1.49.76,2.86a12.64,12.64,0,0,0-1.66-1.07c.8,1.38-1.47,4.06-.32,5a7,7,0,0,1-4.85-2.94,1.39,1.39,0,0,0-.48,1.23c.07,0-3-2.3-2.74-3.22A3,3,0,0,0,47.13,56a8.4,8.4,0,0,1-2.56-3.71c-.5.67-.54.67-1,1.33-.38-2.3-.38-2.22.38-4.19a16.43,16.43,0,0,0-1.52,1.15,13.39,13.39,0,0,1,6.83-9.17Z"/><g id="_Group_12" data-name="&lt;Group&gt;"><path id="_Compound_Path_11" data-name="&lt;Compound Path&gt;" d="M56.19,59.56l-.45-.08a7.18,7.18,0,0,1-4.92-3,2.12,2.12,0,0,0-.26,1.17c-.21.15-1.73-1.17-2.2-1.68-.61-.69-.87-1.18-.8-1.54A12.79,12.79,0,0,0,47.24,56a7.09,7.09,0,0,1-2.79-3.66,1.42,1.42,0,0,1-.31.72l-.69.84-.06-.36c-.36-2.17-.35-2.22.35-4a11.05,11.05,0,0,1-1.27,1.17,12.71,12.71,0,0,1,6.7-9.39c-.05.61-.14.86-.07.94s.32.1.57.1h.84A10.24,10.24,0,0,1,57,44.62a9.55,9.55,0,0,1,2.51,5.26,9.48,9.48,0,0,1-3.13-1.13,7.34,7.34,0,0,1,2.33,5,4.94,4.94,0,0,1-.91-.3,1.91,1.91,0,0,1-.64-.41,4.51,4.51,0,0,1,.29.66,3.79,3.79,0,0,1,.45,1.76,15.45,15.45,0,0,1-1.84-1c.59.59.24,1.58-.09,2.55s-.62,1.84-.1,2.28l.35.28Zm-5.34-3.25a7.87,7.87,0,0,0,4.6,2.89c-.33-.56,0-1.41.27-2.27s.63-1.87.26-2.51a4,4,0,0,1,1.85.95,12.94,12.94,0,0,0-.63-1.61,2.74,2.74,0,0,1-.34-1.18,3.37,3.37,0,0,0,1,.62c.21.1.45.23.76.41-.19-2.61-2.54-5-2.57-5,.18-.2,2.21,1,3.34,1.2a10.74,10.74,0,0,0-2.56-5,10,10,0,0,0-6.32-2.25h-.84c-.34,0-.66,0-.79-.2s0-.46.23-1c-3.28,2-6.06,5.67-6.59,9.22a4.35,4.35,0,0,1,1.31-1.25l.34-.2-.2.46c-.68,1.78-.68,1.78-.33,3.9l.3-.61c.14-.15.27-.33.53-.66a10.69,10.69,0,0,0,2.74,3.67,1.69,1.69,0,0,1,.38-1.53c0,.79,2.31,2.71,2.92,3.17a1,1,0,0,1,.34-1.23Z"/></g><path id="_Path_41" data-name="&lt;Path&gt;" class="cls-10" d="M46.09,53.4c.21-1.68.65-2.32.78-3.42.23-1.89,0-3.32.64-3.27s.86.77.54,2.68a6.88,6.88,0,0,1-2,4Z"/><path id="_Path_42" data-name="&lt;Path&gt;" class="cls-10" d="M49.63,56.49c-.14-1.4.13-2,0-2.94-.15-1.6-.66-2.7-.06-2.8s.89.4.94,2a5.68,5.68,0,0,1-.93,3.7Z"/><path id="_Path_43" data-name="&lt;Path&gt;" class="cls-10" d="M55.15,59c-.6-1.25-1.11-1.61-1.51-2.38-.67-1.4-.82-2.55-1.34-2.34s-.51.79.26,2.17A5.57,5.57,0,0,0,55.15,59Z"/><path id="_Path_44" data-name="&lt;Path&gt;" class="cls-10" d="M57.06,48c-1.53-.82-2.31-.82-3.3-1.33-1.74-.92-2.74-1.94-3.1-1.41s.11,1.15,1.91,2a7,7,0,0,0,4.49.77Z"/><path id="_Path_45" data-name="&lt;Path&gt;" class="cls-10" d="M57.61,52.58c-1.1-.91-1.77-1.07-2.49-1.63-1.26-1.07-1.89-2.09-2.3-1.66s-.15.94,1.18,1.92a5.61,5.61,0,0,0,3.61,1.37Z"/></g></g></g></g></g></g></g></svg>