<svg id="Layer_1" data-name="Layer 1" xmlns="http://www.w3.org/2000/svg" xmlns:xlink="http://www.w3.org/1999/xlink" viewBox="0 0 128 128"><defs><style>.cls-1{fill:none;}.cls-2{clip-path:url(#clip-path);}.cls-3{clip-path:url(#clip-path-2);}.cls-4{fill:#7aafde;}.cls-5{fill:#fff;}</style><clipPath id="clip-path"><circle class="cls-1" cx="64" cy="64" r="64"/></clipPath><clipPath id="clip-path-2"><rect id="_Clipping_Path_" data-name="&lt;Clipping Path&gt;" class="cls-1" x="-45.72" width="219.44" height="128"/></clipPath></defs><title>Flag_circle_Micronesia</title><g class="cls-2"><g id="MICRONESIA"><g id="_Group_" data-name="&lt;Group&gt;"><g id="_Clip_Group_" data-name="&lt;Clip Group&gt;"><g class="cls-3"><rect id="_Path_" data-name="&lt;Path&gt;" class="cls-4" x="-45.72" width="219.44" height="128"/><polygon id="_Path_2" data-name="&lt;Path&gt;" class="cls-5" points="64 12.81 60.05 24.98 66.14 26.96 64 12.81"/><polygon id="_Path_3" data-name="&lt;Path&gt;" class="cls-5" points="64 12.81 67.96 24.98 61.88 26.96 64 12.81"/><polygon id="_Path_4" data-name="&lt;Path&gt;" class="cls-5" points="76.19 21.65 63.38 21.65 63.38 28.05 76.19 21.65"/><polygon id="_Path_5" data-name="&lt;Path&gt;" class="cls-5" points="76.19 21.65 65.82 29.18 62.07 24 76.19 21.65"/><polygon id="_Path_6" data-name="&lt;Path&gt;" class="cls-5" points="51.83 21.65 62.18 29.18 65.95 24 51.83 21.65"/><polygon id="_Path_7" data-name="&lt;Path&gt;" class="cls-5" points="51.83 21.65 64.64 21.65 64.64 28.05 51.83 21.65"/><polygon id="_Path_8" data-name="&lt;Path&gt;" class="cls-5" points="71.52 35.97 67.58 23.8 61.48 25.77 71.52 35.97"/><polygon id="_Path_9" data-name="&lt;Path&gt;" class="cls-5" points="71.52 35.97 61.17 28.44 64.94 23.27 71.52 35.97"/><polygon id="_Path_10" data-name="&lt;Path&gt;" class="cls-5" points="56.48 35.97 66.83 28.44 63.07 23.27 56.48 35.97"/><polygon id="_Path_11" data-name="&lt;Path&gt;" class="cls-5" points="56.48 35.97 60.43 23.8 66.52 25.77 56.48 35.97"/><polygon id="_Path_12" data-name="&lt;Path&gt;" class="cls-5" points="115.2 64.01 103.03 60.05 101.05 66.14 115.2 64.01"/><polygon id="_Path_13" data-name="&lt;Path&gt;" class="cls-5" points="115.2 64.01 103.03 67.97 101.05 61.88 115.2 64.01"/><polygon id="_Path_14" data-name="&lt;Path&gt;" class="cls-5" points="106.36 76.19 106.36 63.38 99.97 63.38 106.36 76.19"/><polygon id="_Path_15" data-name="&lt;Path&gt;" class="cls-5" points="106.36 76.19 98.84 65.83 104.02 62.07 106.36 76.19"/><polygon id="_Path_16" data-name="&lt;Path&gt;" class="cls-5" points="106.36 51.83 98.84 62.2 104.02 65.95 106.36 51.83"/><polygon id="_Path_17" data-name="&lt;Path&gt;" class="cls-5" points="106.36 51.83 106.36 64.64 99.97 64.64 106.36 51.83"/><polygon id="_Path_18" data-name="&lt;Path&gt;" class="cls-5" points="92.05 71.53 104.23 67.58 102.24 61.48 92.05 71.53"/><polygon id="_Path_19" data-name="&lt;Path&gt;" class="cls-5" points="92.05 71.53 99.57 61.18 104.75 64.94 92.05 71.53"/><polygon id="_Path_20" data-name="&lt;Path&gt;" class="cls-5" points="92.05 56.5 99.57 66.85 104.75 63.08 92.05 56.5"/><polygon id="_Path_21" data-name="&lt;Path&gt;" class="cls-5" points="92.05 56.5 104.23 60.44 102.24 66.53 92.05 56.5"/><polygon id="_Path_22" data-name="&lt;Path&gt;" class="cls-5" points="12.8 64.01 24.98 67.97 26.95 61.88 12.8 64.01"/><polygon id="_Path_23" data-name="&lt;Path&gt;" class="cls-5" points="12.8 64.01 24.98 60.05 26.95 66.14 12.8 64.01"/><polygon id="_Path_24" data-name="&lt;Path&gt;" class="cls-5" points="21.65 51.83 21.65 64.64 28.05 64.64 21.65 51.83"/><polygon id="_Path_25" data-name="&lt;Path&gt;" class="cls-5" points="21.65 51.83 29.18 62.2 23.99 65.95 21.65 51.83"/><polygon id="_Path_26" data-name="&lt;Path&gt;" class="cls-5" points="21.65 76.19 29.18 65.83 23.99 62.07 21.65 76.19"/><polygon id="_Path_27" data-name="&lt;Path&gt;" class="cls-5" points="21.65 76.19 21.65 63.38 28.05 63.38 21.65 76.19"/><polygon id="_Path_28" data-name="&lt;Path&gt;" class="cls-5" points="35.97 56.5 23.79 60.44 25.77 66.53 35.97 56.5"/><polygon id="_Path_29" data-name="&lt;Path&gt;" class="cls-5" points="35.97 56.5 28.43 66.85 23.26 63.08 35.97 56.5"/><polygon id="_Path_30" data-name="&lt;Path&gt;" class="cls-5" points="35.97 71.53 28.43 61.18 23.26 64.94 35.97 71.53"/><polygon id="_Path_31" data-name="&lt;Path&gt;" class="cls-5" points="35.97 71.53 23.79 67.58 25.77 61.48 35.97 71.53"/><polygon id="_Path_32" data-name="&lt;Path&gt;" class="cls-5" points="64 115.22 67.96 103.04 61.88 101.06 64 115.22"/><polygon id="_Path_33" data-name="&lt;Path&gt;" class="cls-5" points="64 115.22 60.05 103.04 66.14 101.06 64 115.22"/><polygon id="_Path_34" data-name="&lt;Path&gt;" class="cls-5" points="51.83 106.37 64.64 106.37 64.64 99.97 51.83 106.37"/><polygon id="_Path_35" data-name="&lt;Path&gt;" class="cls-5" points="51.83 106.37 62.18 98.84 65.95 104.02 51.83 106.37"/><polygon id="_Path_36" data-name="&lt;Path&gt;" class="cls-5" points="76.19 106.37 65.82 98.84 62.07 104.02 76.19 106.37"/><polygon id="_Path_37" data-name="&lt;Path&gt;" class="cls-5" points="76.19 106.37 63.38 106.37 63.38 99.97 76.19 106.37"/><polygon id="_Path_38" data-name="&lt;Path&gt;" class="cls-5" points="56.48 92.06 60.43 104.23 66.52 102.25 56.48 92.06"/><polygon id="_Path_39" data-name="&lt;Path&gt;" class="cls-5" points="56.48 92.06 66.83 99.57 63.07 104.75 56.48 92.06"/><polygon id="_Path_40" data-name="&lt;Path&gt;" class="cls-5" points="71.52 92.06 61.17 99.57 64.94 104.75 71.52 92.06"/><polygon id="_Path_41" data-name="&lt;Path&gt;" class="cls-5" points="71.52 92.06 67.58 104.23 61.48 102.25 71.52 92.06"/></g></g></g></g></g></svg>