<svg id="Layer_1" data-name="Layer 1" xmlns="http://www.w3.org/2000/svg" xmlns:xlink="http://www.w3.org/1999/xlink" viewBox="0 0 128 128"><defs><style>.cls-1{fill:none;}.cls-2{clip-path:url(#clip-path);}.cls-3{clip-path:url(#clip-path-2);}.cls-4{fill:#cf0820;}.cls-5{fill:#007b5d;}.cls-6{fill:#fcd20e;}.cls-7{fill:#bc0030;}</style><clipPath id="clip-path"><circle class="cls-1" cx="64" cy="64" r="64"/></clipPath><clipPath id="clip-path-2"><rect id="_Clipping_Path_" data-name="&lt;Clipping Path&gt;" class="cls-1" x="-45.72" width="219.44" height="128"/></clipPath></defs><title>Flag_circle_Grenada</title><g class="cls-2"><g id="GRENADA"><g id="_Group_" data-name="&lt;Group&gt;"><g id="_Clip_Group_" data-name="&lt;Clip Group&gt;"><g class="cls-3"><rect id="_Path_" data-name="&lt;Path&gt;" class="cls-4" x="-45.72" width="219.44" height="128"/><rect id="_Path_2" data-name="&lt;Path&gt;" class="cls-5" x="-24.76" y="17.92" width="177.5" height="92.16"/><polygon id="_Path_3" data-name="&lt;Path&gt;" class="cls-6" points="-24.76 110.08 64 64 152.74 110.08 -24.76 110.08"/><polygon id="_Path_4" data-name="&lt;Path&gt;" class="cls-6" points="-24.76 17.92 64 64 152.74 17.92 -24.76 17.92"/><g id="_Clip_Group_2" data-name="&lt;Clip Group&gt;"><g class="cls-3"><path id="_Path_5" data-name="&lt;Path&gt;" class="cls-7" d="M79.34,64A15.35,15.35,0,1,0,64,79.37,15.36,15.36,0,0,0,79.34,64"/><polygon id="_Path_6" data-name="&lt;Path&gt;" class="cls-6" points="50.6 59.65 60.82 59.65 64 49.92 67.15 59.65 77.4 59.65 69.12 65.66 72.28 75.39 64 69.39 55.7 75.39 58.88 65.66 50.6 59.65"/><polygon id="_Path_7" data-name="&lt;Path&gt;" class="cls-6" points="13.42 6.39 19.46 6.39 21.34 0.64 23.19 6.39 29.23 6.39 24.35 9.94 26.21 15.69 21.34 12.14 16.43 15.69 18.27 9.94 13.42 6.39"/><polygon id="_Path_8" data-name="&lt;Path&gt;" class="cls-6" points="56.08 6.39 62.12 6.39 64 0.64 65.88 6.39 71.92 6.39 67.01 9.94 68.88 15.69 64 12.14 59.1 15.69 60.96 9.94 56.08 6.39"/><polygon id="_Path_9" data-name="&lt;Path&gt;" class="cls-6" points="98.75 6.39 104.79 6.39 106.67 0.64 108.54 6.39 114.58 6.39 109.7 9.94 111.54 15.69 106.67 12.14 101.79 15.69 103.63 9.94 98.75 6.39"/><polygon id="_Path_10" data-name="&lt;Path&gt;" class="cls-6" points="13.42 116.47 19.46 116.47 21.34 110.72 23.19 116.47 29.23 116.47 24.35 120.03 26.21 125.77 21.34 122.22 16.43 125.77 18.27 120.03 13.42 116.47"/><polygon id="_Path_11" data-name="&lt;Path&gt;" class="cls-6" points="56.08 116.47 62.12 116.47 64 110.72 65.88 116.47 71.92 116.47 67.01 120.03 68.88 125.77 64 122.22 59.1 125.77 60.96 120.03 56.08 116.47"/><polygon id="_Path_12" data-name="&lt;Path&gt;" class="cls-6" points="98.75 116.47 104.79 116.47 106.67 110.72 108.54 116.47 114.58 116.47 109.7 120.03 111.54 125.77 106.67 122.22 101.79 125.77 103.63 120.03 98.75 116.47"/></g></g></g></g></g></g></g></svg>