<svg id="Layer_1" data-name="Layer 1" xmlns="http://www.w3.org/2000/svg" xmlns:xlink="http://www.w3.org/1999/xlink" viewBox="0 0 128 128"><defs><style>.cls-1{fill:none;}.cls-2{fill:#fff;}.cls-3{clip-path:url(#clip-path);}.cls-4{clip-path:url(#clip-path-2);}.cls-5{clip-path:url(#clip-path-3);}.cls-6{fill:red;}</style><clipPath id="clip-path"><circle class="cls-1" cx="64" cy="64" r="64"/></clipPath><clipPath id="clip-path-2"><rect id="_Clipping_Path_" data-name="&lt;Clipping Path&gt;" class="cls-2" x="-45.71" width="219.43" height="128"/></clipPath><clipPath id="clip-path-3"><rect id="_Clipping_Path_2" data-name="&lt;Clipping Path&gt;" class="cls-1" x="-45.71" width="219.43" height="128"/></clipPath></defs><title>Flag_circle_Georgia</title><g class="cls-3"><g id="GEORGIA"><g id="_Group_" data-name="&lt;Group&gt;"><g id="_Clip_Group_" data-name="&lt;Clip Group&gt;"><rect id="_Clipping_Path_3" data-name="&lt;Clipping Path&gt;" class="cls-2" x="-45.71" width="219.43" height="128"/><g class="cls-4"><g id="_Clip_Group_2" data-name="&lt;Clip Group&gt;"><g class="cls-5"><path id="_Path_" data-name="&lt;Path&gt;" class="cls-6" d="M28.33,34.87a63.82,63.82,0,0,1-.7,7c-.13.74-.27,1.47-.38,2.2A34.09,34.09,0,0,1,36,44c-.14-.73-.26-1.46-.38-2.2a61.43,61.43,0,0,1-.68-7A63.65,63.65,0,0,1,44,36a36.85,36.85,0,0,1,0-8.74,65.1,65.1,0,0,1-9.12,1.09A60.44,60.44,0,0,1,36,19.15a34.8,34.8,0,0,1-4.35.27,34.65,34.65,0,0,1-4.37-.27,70.93,70.93,0,0,1,1.08,9.16,65.49,65.49,0,0,1-9.16-1.09,33.45,33.45,0,0,1,.28,4.38A33.37,33.37,0,0,1,19.17,36a64,64,0,0,1,9.16-1.09"/><path id="_Path_2" data-name="&lt;Path&gt;" class="cls-6" d="M93.13,34.87a66.41,66.41,0,0,1-.72,7c-.09.74-.23,1.47-.37,2.2a34.09,34.09,0,0,1,8.72,0c-.14-.73-.24-1.46-.35-2.2a59.23,59.23,0,0,1-.72-7A64.55,64.55,0,0,1,108.85,36a32,32,0,0,1,0-8.74,66,66,0,0,1-9.16,1.09,72.73,72.73,0,0,1,1.07-9.16,35,35,0,0,1-4.36.27A34.84,34.84,0,0,1,92,19.15a66,66,0,0,1,1.09,9.16A65.85,65.85,0,0,1,84,27.22,35.5,35.5,0,0,1,84,36a64.38,64.38,0,0,1,9.16-1.09"/><path id="_Path_3" data-name="&lt;Path&gt;" class="cls-6" d="M34.91,93.12a60.76,60.76,0,0,1,.68-7c.12-.73.24-1.47.38-2.2a34.09,34.09,0,0,1-8.72,0c.11.73.25,1.47.38,2.2a63.08,63.08,0,0,1,.7,7A70.31,70.31,0,0,1,19.17,92a33,33,0,0,1,.28,4.37,32.88,32.88,0,0,1-.28,4.35,65.49,65.49,0,0,1,9.16-1.07,70.62,70.62,0,0,1-1.08,9.14,35.34,35.34,0,0,1,8.72,0,60.18,60.18,0,0,1-1.06-9.14A65.1,65.1,0,0,1,44,100.75,36.69,36.69,0,0,1,44,92a69.91,69.91,0,0,1-9.12,1.09"/><path id="_Path_4" data-name="&lt;Path&gt;" class="cls-6" d="M99.69,93.12a65.58,65.58,0,0,1,.72-7c.11-.73.21-1.47.35-2.2A34.09,34.09,0,0,1,92,84c.14.73.28,1.47.37,2.2a65.58,65.58,0,0,1,.72,7A70.73,70.73,0,0,1,84,92a35.34,35.34,0,0,1,0,8.72,65.84,65.84,0,0,1,9.16-1.07A65.75,65.75,0,0,1,92,108.82a35.34,35.34,0,0,1,8.72,0,72.41,72.41,0,0,1-1.07-9.14,66,66,0,0,1,9.16,1.07,31.83,31.83,0,0,1,0-8.72,70.94,70.94,0,0,1-9.16,1.09"/><rect id="_Path_5" data-name="&lt;Path&gt;" class="cls-6" x="53.55" y="0.19" width="20.91" height="127.71"/><rect id="_Path_6" data-name="&lt;Path&gt;" class="cls-6" x="-25" y="53.52" width="178" height="20.95"/></g></g></g></g></g></g></g></svg>