<svg id="Layer_1" data-name="Layer 1" xmlns="http://www.w3.org/2000/svg" xmlns:xlink="http://www.w3.org/1999/xlink" viewBox="0 0 128 128"><defs><style>.cls-1,.cls-10{fill:none;}.cls-2{clip-path:url(#clip-path);}.cls-3{fill:#e32118;}.cls-13,.cls-4,.cls-7{fill:#fff;}.cls-5{fill:#3e9a00;}.cls-6{fill:#0073ce;}.cls-10,.cls-11,.cls-12,.cls-13,.cls-7,.cls-8,.cls-9{stroke:#000;}.cls-7{stroke-width:0.77px;}.cls-8{fill:#73452b;}.cls-10,.cls-11,.cls-8,.cls-9{stroke-width:0.16px;}.cls-9{fill:#a36629;}.cls-11{fill:#009a3b;}.cls-12{fill:gold;}.cls-12,.cls-13{stroke-width:0.56px;}</style><clipPath id="clip-path"><circle class="cls-1" cx="64" cy="64" r="64"/></clipPath></defs><title>Flag_circle_Equatorial Guinea</title><g class="cls-2"><rect class="cls-3" x="-9.74" width="219.49" height="128"/><rect class="cls-4" x="-9.74" width="219.49" height="85.33"/><rect class="cls-5" x="-9.74" width="219.49" height="42.67"/><path class="cls-6" d="M-9.74,0V128l48-64Z"/><g id="shield"><path class="cls-7" d="M90,51.14h20.42V72.53c0,7.2-9.38,1.66-10.18,5.5-1.39-4-10.19,1.76-10.19-5.92C90.07,64.64,90,51.14,90,51.14Z"/><path class="cls-8" d="M101.7,74.61a.67.67,0,0,1-.75.06c-.48-.22-.53-13.71-.53-13.71a6.51,6.51,0,0,1,1.92-1.55L103,60c-2.4,1.22-2.19,3-2,6a29.43,29.43,0,0,0,.32,4c.38,1.76,1.12,3.25,1.18,4.37C102.55,75,101.7,74.61,101.7,74.61Z"/><path class="cls-8" d="M100,59.09h1a85.43,85.43,0,0,0-.1,14.56,1.48,1.48,0,0,0,.37,1c-1,1.06-1.44-.06-1.44-.06Z"/><path class="cls-9" d="M98.55,74.61c-.91.43-1-.42-1-.53,2-4,2.83-12.8,1-13.76l.11-.85A3.32,3.32,0,0,1,100,60.59c.27,9.86,0,13.92-.16,14.08-1,1-1.33-.16-1.38-.27"/><path class="cls-10" d="M98.5,74.45c-.16-.85,1.38-3,1.28-5.33"/><path class="cls-10" d="M101.11,71a8.39,8.39,0,0,1,.59,3.62"/><path class="cls-11" d="M103.19,55.47c.32-.38.32-.38.91-.38.1-.8,1.44-.8,1.54.22,1.07-.22,1.28.42.86,1.06,1-.26,1.92,0,1.65,1.18,1.81.48,1.12,1.76.32,2-.11.8-.85,1.07-1.87.75-1.28.91-2,.59-2.61-.32-1.44.21-1.55-.11-2.19-.91-1.12.48-1.33.48-2.29-.1-.05.74-.32.53-.8.48.05,1-.32,1.38-1.17,1.06.64,1.34-1,1.92-1.82.8-.74.06-.8-.16-1.17-.42a.93.93,0,0,1-1.71.32c-1.49-.22-1.33-1-.1-1.07.1-.85.85-.69,1.33-.59.05-.53.37-.42.64-.32-.16-.37,0-.58.43-.69-.7-.91-.27-1.23.42-1.55-.37-.85.27-.8.75-.85,0-.91.21-1.07,1.17-1.17-.1-.32.06-.59.59-.59-.32-.91.11-1.11,1.07-1,.16-1.32,3-.69,2.77,1.12C102.71,54.67,103,54.83,103.19,55.47Z"/><path class="cls-10" d="M97.48,55c.22.1.48,0,.54.58.42-.74,1-.32,1,.54"/><path class="cls-10" d="M101.91,54.56c-.21.32-1,.32-.91,1.17-.26-.37-.8-.48-1-.1"/><path class="cls-10" d="M103.19,55.47a2.55,2.55,0,0,1-.27,1.17"/><path class="cls-10" d="M106.5,56.37c0,.06-.75,0-1.12.27"/><path class="cls-10" d="M108.47,59.57c-.21-.1-.64-.37-1,.06,0-.22,0-.8-.59-.8"/><path class="cls-10" d="M106.6,60.32a1.24,1.24,0,0,0-.21-.85"/><path class="cls-10" d="M104.84,59.57c-.42-.32-.85.16-.85.43"/><path class="cls-10" d="M101.75,59.09c0-.21-.16-.64.21-.8"/><path class="cls-10" d="M95.67,61.33c.11-.53.48-.53.43-.8-.06-.42-.54-.8-1.12-.21"/><path class="cls-10" d="M96.1,60.53c.32-.1.64-.05.74.11"/><path class="cls-10" d="M95.19,58.56a1.1,1.1,0,0,1,1.07,0"/><path class="cls-10" d="M96.26,57.28c.26,0,.74-.11.9.37.59-.9,1-.8,1.12-.58"/><path class="cls-10" d="M99.35,57c.43-.16,1.17.27,1.6,1,.21-.58.53-.48.85-.53"/><path class="cls-10" d="M103.83,58c.69-.32,1.12.32,1.33.59a.93.93,0,0,1,.91-.43"/><path class="cls-10" d="M97.38,59.25a.59.59,0,0,1,.8-.16c-.06-.48.26-.69.48-.58"/></g><g id="stars"><path class="cls-12" d="M99.56,48.14l-1.17,0-.59,1.05-.64-1-1.17,0,.53-1.06-.64-1,1.23,0,.53-1,.64,1,1.18-.05-.54,1.06Z"/><path class="cls-12" d="M94.55,48.53l-1.17.29L93.06,50l-.86-.85-1.12.28.32-1.14-.8-.86,1.12-.29L92,46l.86.86,1.17-.28-.37,1.14Z"/><path class="cls-12" d="M89.7,49.53l-1.07.52,0,1.19-1-.65-1.06.52.1-1.18-1-.66,1.07-.53.1-1.19,1,.65,1.07-.52-.05,1.18Z"/><path class="cls-12" d="M101.11,48.14l1.17,0,.54,1.05.64-1,1.17,0-.53-1.06.64-1-1.18,0-.58-1-.64,1-1.18-.05.54,1.06Z"/><path class="cls-12" d="M106.12,48.53l1.12.29.32,1.13.86-.85,1.12.28-.32-1.14.85-.86-1.17-.29L108.58,46l-.86.86-1.12-.28.32,1.14Z"/><path class="cls-12" d="M110.92,49.53l1.07.52.05,1.19,1-.65,1.06.52-.05-1.18,1-.66L114,48.74l0-1.19-1,.65-1.07-.52.11,1.18Z"/></g><g id="motto"><path class="cls-13" d="M112.36,72.11,113.7,74l1.22-1.82-.85-1.54Z"/><path class="cls-13" d="M103.88,77.71l.11,1.92a3.66,3.66,0,0,0,1-.16,3,3,0,0,0,.8-.48l0-1Z"/><path class="cls-13" d="M96.74,77.71l-.11,1.86a5.36,5.36,0,0,1-1-.1,2.67,2.67,0,0,1-.8-.38l-.53-1.28Z"/><path class="cls-13" d="M88.15,72.11,86.76,74l-1.49-2.46,1.12-1.17Z"/><path class="cls-13" d="M94.82,81.55c0,1.81,11,1.81,11,0V79c0,1.33-11,1.06-11,0Z"/><path class="cls-13" d="M85,75.63c1,4.9,9.82,5,9.82,5V79c-.22-.64.16-.86,1.6-1.07.58,0,.32-.91.32-.91s-3.84.7-6.56-.37A6.54,6.54,0,0,1,86,72.27,10.39,10.39,0,0,1,85,75.63Z"/><path class="cls-13" d="M115.56,75.63c-.9,4.9-9.76,5-9.76,5V79c.16-.64-.21-.86-1.65-1.07-.59,0-.27-.91-.27-.91s3.84.7,6.56-.37a6.22,6.22,0,0,0,4.06-4.37A12,12,0,0,0,115.56,75.63Z"/><path class="cls-13" d="M85.7,73.76c-2.46-1.33-.54-2.72-.32-6.67.37,2.4,3.09,3.42,2.77,5-1.12.06-1.65-1.65-2.19.22Z"/><path class="cls-13" d="M114.87,73.76c2.45-1.39.43-2.72.21-6.67-.37,2.4-3,3.42-2.72,5,1.07.06,1.6-1.65,2.14.22l.37,1.44Z"/><path d="M87.19,75.57l.27.22-.59.64c-.23.25-.29.42-.13.58s.35.12.56-.1l.64-.7.21.22-.64.74a.57.57,0,0,1-.94.06.6.6,0,0,1,0-.93l.64-.72Z"/><path d="M88.26,76.48l.26.16,0,1.28.59-.91.26.16-.85,1.39-.32-.16,0-1.28-.58.91-.27-.16Z"/><path d="M88.74,78.72l.74-1.49.27.16-.69,1.44Z"/><path d="M89.91,77.44,89.32,79l.59.21c.55.2.81,0,1-.51a.7.7,0,0,0-.45-1Zm.21.37c.55.2.59.41.44.79s-.28.5-.81.23Z"/><path d="M91.67,78l-1,1.44.37.11.22-.38.64.16,0,.38.37.05L92,78.08Zm.11.37.1.64L91.46,79Z"/><path d="M92.58,78.17l-.06,1.65h.63c.59,0,.75-.3.77-.79s-.17-.81-.77-.84l-.57,0Zm.32.28c.59,0,.69.19.67.6s-.11.56-.69.48l0-1.08Z"/><path d="M98.18,80.48v1.71h.37v-.64a2.44,2.44,0,0,0,.59-.06c.21,0,.35-.18.36-.52a.45.45,0,0,0-.51-.49Zm.37.27h.38c.31,0,.25.48,0,.48h-.39v-.48Z"/><path d="M100.1,80.48l-.7,1.71h.38l.16-.43h.69l.16.43h.37l-.69-1.71Zm.16.37.26.64H100Z"/><path d="M101.16,81.87l.91-1.12h-.8v-.27h1.28v.27l-1,1.12h1v.32h-1.39Z"/><path d="M106.55,78.56l.32,0,.16,1a.55.55,0,0,1-.34.66.47.47,0,0,1-.67-.45l.26-.05c.07.27.18.3.3.25s.16-.19.13-.36Z"/><path d="M107.08,78.46l.32-.06.15.8c.06.34.17.49.39.45s.3-.2.25-.51l-.2-.85.32-.05.22.89a.57.57,0,0,1-.51.79.6.6,0,0,1-.77-.53Z"/><path d="M108.74,79.2l.26-.11a.36.36,0,0,0,.5.16c.22-.1.24-.29.13-.36s-.52,0-.72,0-.34-.22-.33-.43.23-.39.47-.46a.53.53,0,0,1,.7.27l-.32.11a.24.24,0,0,0-.36-.11c-.1,0-.25.13-.17.27s.46,0,.67,0a.42.42,0,0,1,.41.36c0,.29-.06.44-.39.57a.61.61,0,0,1-.85-.29Z"/><path d="M110.18,77.87l-.43.21-.11-.27,1.18-.48.1.22-.42.21.48,1.17-.27.16Z"/><path d="M110.87,77.28l.27-.16.74,1.39-.26.16Z"/><path d="M112.68,77.39l.32-.11a.65.65,0,0,1-.62.88.89.89,0,0,1-.77-1.2.66.66,0,0,1,1.07-.21l-.26.21a.34.34,0,0,0-.57.12.73.73,0,0,0,.39.77c.25.12.63-.18.44-.46Z"/><path d="M112.52,76.27l.27-.22,1,1.28-.27.22Z"/><path d="M113.54,75.47l-.27.21.59,1.6.26-.26L114,76.7l.48-.43.32.16.27-.21Zm.1.37.54.27-.32.32Z"/></g></g></svg>