<svg id="Layer_1" data-name="Layer 1" xmlns="http://www.w3.org/2000/svg" xmlns:xlink="http://www.w3.org/1999/xlink" viewBox="0 0 128 128"><defs><style>.cls-1{fill:none;}.cls-2{clip-path:url(#clip-path);}.cls-3{clip-path:url(#clip-path-2);}.cls-4{fill:#bc0030;}.cls-5{fill:#fef200;}.cls-6{fill:#419e4b;}</style><clipPath id="clip-path"><circle class="cls-1" cx="64" cy="64" r="64"/></clipPath><clipPath id="clip-path-2"><rect id="_Clipping_Path_" data-name="&lt;Clipping Path&gt;" class="cls-1" width="219.39" height="127.97"/></clipPath></defs><title>Flag_circle_Guinea Bissau</title><g class="cls-2"><g id="GUINEA-BISSAU"><g id="_Group_" data-name="&lt;Group&gt;"><g id="_Clip_Group_" data-name="&lt;Clip Group&gt;"><g class="cls-3"><rect id="_Path_" data-name="&lt;Path&gt;" class="cls-4" width="76.03" height="127.97"/><rect id="_Path_2" data-name="&lt;Path&gt;" class="cls-5" x="76.03" width="143.36" height="63.99"/><rect id="_Path_3" data-name="&lt;Path&gt;" class="cls-6" x="76.03" y="63.99" width="143.36" height="63.99"/><polygon id="_Path_4" data-name="&lt;Path&gt;" points="38.01 45.02 32.12 63.07 41.19 66 38.01 45.02"/><polygon id="_Path_5" data-name="&lt;Path&gt;" points="38.01 45.02 43.88 63.07 34.85 66 38.01 45.02"/><polygon id="_Path_6" data-name="&lt;Path&gt;" points="56.1 58.14 37.07 58.14 37.07 67.61 56.1 58.14"/><polygon id="_Path_7" data-name="&lt;Path&gt;" points="56.1 58.14 40.7 69.3 35.13 61.59 56.1 58.14"/><polygon id="_Path_8" data-name="&lt;Path&gt;" points="19.94 58.14 35.33 69.3 40.89 61.59 19.94 58.14"/><polygon id="_Path_9" data-name="&lt;Path&gt;" points="19.94 58.14 38.94 58.14 38.94 67.61 19.94 58.14"/><polygon id="_Path_10" data-name="&lt;Path&gt;" points="49.18 79.36 43.33 61.28 34.27 64.22 49.18 79.36"/><polygon id="_Path_11" data-name="&lt;Path&gt;" points="49.18 79.36 33.81 68.2 39.37 60.52 49.18 79.36"/><polygon id="_Path_12" data-name="&lt;Path&gt;" points="26.84 79.36 42.22 68.2 36.63 60.52 26.84 79.36"/><polygon id="_Path_13" data-name="&lt;Path&gt;" points="26.84 79.36 32.72 61.28 41.76 64.22 26.84 79.36"/></g></g></g></g></g></svg>