<svg id="Layer_1" data-name="Layer 1" xmlns="http://www.w3.org/2000/svg" xmlns:xlink="http://www.w3.org/1999/xlink" viewBox="0 0 128 128"><defs><style>.cls-1{fill:none;}.cls-2{clip-path:url(#clip-path);}.cls-3{fill:#de2910;}.cls-4{fill:#fff;}</style><clipPath id="clip-path"><circle class="cls-1" cx="64" cy="64" r="64"/></clipPath></defs><title>Flag_circle_Hong Kong</title><g class="cls-2"><rect class="cls-3" x="-45.69" width="219.37" height="128"/><g id="petal"><path class="cls-4" d="M64.31,64c-22.46-9.49-12.51-38.74,9-37.27-4.34,2.24-5,6.4-2.49,10.26,2.78,4.32-.26,11.28-4,13-6.18,2.78-7.41,10.18-2.47,14Z"/><path class="cls-3" d="M63.09,42.86l-1.26,2-.46-2.31L59.09,42l2.06-1.15L61,38.45l1.73,1.6,2.19-.86-1,2.13,1.5,1.82Z"/><path class="cls-3" d="M64.43,63.74A12.41,12.41,0,0,1,58.57,56,14.77,14.77,0,0,1,60.3,44.22l-.47-.3A15.36,15.36,0,0,0,58,56.11a12.75,12.75,0,0,0,6.14,8.12Z"/></g><g id="petal-2" data-name="petal"><path class="cls-4" d="M64.33,64c2.09-24.29,33-23.86,38.22-3-3.47-3.45-7.63-2.76-10.53.8-3.25,4-10.8,3.24-13.57.19-4.55-5-12-3.9-14.12,2Z"/><path class="cls-3" d="M84,56.31l-2.28-.59,2.06-1.15-.15-2.35,1.73,1.6L87.59,53l-1,2.13,1.5,1.82-2.34-.28-1.26,2Z"/><path class="cls-3" d="M64.6,64a12.39,12.39,0,0,1,5.58-8,14.75,14.75,0,0,1,11.7-2l.14-.54a15.35,15.35,0,0,0-12.14,2.06,12.78,12.78,0,0,0-5.83,8.35Z"/></g><g id="petal-3" data-name="petal"><path class="cls-4" d="M64.33,64C88.08,58.49,97.21,88,79,99.44c2.2-4.36.26-8.11-4-9.77-4.79-1.86-6.42-9.27-4.37-12.85C74,71,70.59,64.23,64.33,64Z"/><path class="cls-3" d="M77.73,80.38,77.58,78l1.73,1.59,2.19-.86-1,2.14L82,82.72l-2.34-.28-1.26,2L78,82.12l-2.27-.59Z"/><path class="cls-3" d="M64.37,64.28a12.39,12.39,0,0,1,9.31,2.85,14.77,14.77,0,0,1,5.51,10.51l.55,0A15.34,15.34,0,0,0,74,66.69a12.74,12.74,0,0,0-9.74-3Z"/></g><g id="petal-4" data-name="petal"><path class="cls-4" d="M64.31,64C76.9,84.9,51.65,102.71,35.14,88.89c4.83.75,7.79-2.25,8-6.83.29-5.13,6.83-9,10.87-8.13C60.68,75.31,66,70,64.31,64Z"/><path class="cls-3" d="M52.88,81.82,55.07,81l-1,2.13,1.5,1.82-2.34-.28-1.26,2-.46-2.3-2.28-.59,2-1.15-.14-2.35Z"/><path class="cls-3" d="M64.06,64.14a12.36,12.36,0,0,1,.17,9.74,14.73,14.73,0,0,1-8.29,8.48l.2.52a15.33,15.33,0,0,0,8.61-8.81,12.71,12.71,0,0,0-.19-10.18Z"/></g><g id="petal-5" data-name="petal"><path class="cls-4" d="M64.29,64c-16,18.43-40.7-.08-32.67-20,.78,4.82,4.55,6.71,9,5.54,5-1.31,10.64,3.73,11.09,7.82C52.43,64,59.1,67.51,64.29,64Z"/><path class="cls-3" d="M43.83,58.63l1.5,1.81L43,60.17l-1.26,2-.46-2.31L39,59.25l2.06-1.14-.15-2.35,1.73,1.6,2.19-.86Z"/><path class="cls-3" d="M64.1,63.8A12.36,12.36,0,0,1,54.9,67a14.82,14.82,0,0,1-10.64-5.27l-.43.35a15.34,15.34,0,0,0,11,5.47,12.74,12.74,0,0,0,9.62-3.33Z"/></g></g></svg>