<svg id="Layer_1" data-name="Layer 1" xmlns="http://www.w3.org/2000/svg" xmlns:xlink="http://www.w3.org/1999/xlink" viewBox="0 0 128 128"><defs><style>.cls-1{fill:none;}.cls-2{clip-path:url(#clip-path);}.cls-3{clip-path:url(#clip-path-2);}.cls-4{fill:#fff;}.cls-5{fill:#394da0;}</style><clipPath id="clip-path"><circle class="cls-1" cx="64" cy="64" r="64"/></clipPath><clipPath id="clip-path-2"><rect id="_Clipping_Path_" data-name="&lt;Clipping Path&gt;" class="cls-1" x="-45.71" width="219.42" height="128"/></clipPath></defs><title>Flag_circle_Honduras</title><g class="cls-2"><g id="HONDURAS"><g id="_Group_" data-name="&lt;Group&gt;"><g id="_Clip_Group_" data-name="&lt;Clip Group&gt;"><g class="cls-3"><rect id="_Path_" data-name="&lt;Path&gt;" class="cls-4" x="-45.71" width="219.42" height="128"/><polygon id="_Path_2" data-name="&lt;Path&gt;" class="cls-5" points="64 56.89 61.8 63.66 65.18 64.76 64 56.89"/><polygon id="_Path_3" data-name="&lt;Path&gt;" class="cls-5" points="64 56.89 66.19 63.66 62.82 64.76 64 56.89"/><polygon id="_Path_4" data-name="&lt;Path&gt;" class="cls-5" points="70.76 61.81 63.65 61.81 63.65 65.37 70.76 61.81"/><polygon id="_Path_5" data-name="&lt;Path&gt;" class="cls-5" points="70.76 61.81 65.01 65.98 62.92 63.11 70.76 61.81"/><polygon id="_Path_6" data-name="&lt;Path&gt;" class="cls-5" points="57.23 61.81 62.99 65.98 65.08 63.11 57.23 61.81"/><polygon id="_Path_7" data-name="&lt;Path&gt;" class="cls-5" points="57.23 61.81 64.35 61.81 64.35 65.37 57.23 61.81"/><polygon id="_Path_8" data-name="&lt;Path&gt;" class="cls-5" points="68.17 69.75 65.98 62.99 62.6 64.1 68.17 69.75"/><polygon id="_Path_9" data-name="&lt;Path&gt;" class="cls-5" points="68.17 69.75 62.43 65.58 64.51 62.7 68.17 69.75"/><polygon id="_Path_10" data-name="&lt;Path&gt;" class="cls-5" points="59.82 69.75 65.58 65.58 63.47 62.7 59.82 69.75"/><polygon id="_Path_11" data-name="&lt;Path&gt;" class="cls-5" points="59.82 69.75 62.02 62.99 65.4 64.1 59.82 69.75"/><polygon id="_Path_12" data-name="&lt;Path&gt;" class="cls-5" points="99.56 67.55 97.36 74.33 100.73 75.42 99.56 67.55"/><polygon id="_Path_13" data-name="&lt;Path&gt;" class="cls-5" points="99.56 67.55 101.74 74.33 98.37 75.42 99.56 67.55"/><polygon id="_Path_14" data-name="&lt;Path&gt;" class="cls-5" points="106.3 72.47 99.21 72.47 99.21 76.03 106.3 72.47"/><polygon id="_Path_15" data-name="&lt;Path&gt;" class="cls-5" points="106.3 72.47 100.58 76.66 98.47 73.76 106.3 72.47"/><polygon id="_Path_16" data-name="&lt;Path&gt;" class="cls-5" points="92.8 72.47 98.54 76.66 100.63 73.76 92.8 72.47"/><polygon id="_Path_17" data-name="&lt;Path&gt;" class="cls-5" points="92.8 72.47 99.9 72.47 99.9 76.03 92.8 72.47"/><polygon id="_Path_18" data-name="&lt;Path&gt;" class="cls-5" points="103.73 80.42 101.53 73.66 98.16 74.76 103.73 80.42"/><polygon id="_Path_19" data-name="&lt;Path&gt;" class="cls-5" points="103.73 80.42 97.98 76.24 100.07 73.37 103.73 80.42"/><polygon id="_Path_20" data-name="&lt;Path&gt;" class="cls-5" points="95.37 80.42 101.12 76.24 99.03 73.37 95.37 80.42"/><polygon id="_Path_21" data-name="&lt;Path&gt;" class="cls-5" points="95.37 80.42 97.57 73.66 100.96 74.76 95.37 80.42"/><polygon id="_Path_22" data-name="&lt;Path&gt;" class="cls-5" points="99.56 46.23 97.36 52.99 100.73 54.09 99.56 46.23"/><polygon id="_Path_23" data-name="&lt;Path&gt;" class="cls-5" points="99.56 46.23 101.74 52.99 98.37 54.09 99.56 46.23"/><polygon id="_Path_24" data-name="&lt;Path&gt;" class="cls-5" points="106.3 51.13 99.21 51.13 99.21 54.69 106.3 51.13"/><polygon id="_Path_25" data-name="&lt;Path&gt;" class="cls-5" points="106.3 51.13 100.58 55.32 98.47 52.44 106.3 51.13"/><polygon id="_Path_26" data-name="&lt;Path&gt;" class="cls-5" points="92.8 51.13 98.54 55.32 100.63 52.44 92.8 51.13"/><polygon id="_Path_27" data-name="&lt;Path&gt;" class="cls-5" points="92.8 51.13 99.9 51.13 99.9 54.69 92.8 51.13"/><polygon id="_Path_28" data-name="&lt;Path&gt;" class="cls-5" points="103.73 59.09 101.53 52.34 98.16 53.42 103.73 59.09"/><polygon id="_Path_29" data-name="&lt;Path&gt;" class="cls-5" points="103.73 59.09 97.98 54.9 100.07 52.03 103.73 59.09"/><polygon id="_Path_30" data-name="&lt;Path&gt;" class="cls-5" points="95.37 59.09 101.12 54.9 99.03 52.03 95.37 59.09"/><polygon id="_Path_31" data-name="&lt;Path&gt;" class="cls-5" points="95.37 59.09 97.57 52.34 100.96 53.42 95.37 59.09"/><polygon id="_Path_32" data-name="&lt;Path&gt;" class="cls-5" points="28.44 67.55 26.25 74.33 29.62 75.42 28.44 67.55"/><polygon id="_Path_33" data-name="&lt;Path&gt;" class="cls-5" points="28.44 67.55 30.64 74.33 27.27 75.42 28.44 67.55"/><polygon id="_Path_34" data-name="&lt;Path&gt;" class="cls-5" points="35.2 72.47 28.1 72.47 28.1 76.03 35.2 72.47"/><polygon id="_Path_35" data-name="&lt;Path&gt;" class="cls-5" points="35.2 72.47 29.46 76.66 27.36 73.76 35.2 72.47"/><polygon id="_Path_36" data-name="&lt;Path&gt;" class="cls-5" points="21.68 72.47 27.43 76.66 29.53 73.76 21.68 72.47"/><polygon id="_Path_37" data-name="&lt;Path&gt;" class="cls-5" points="21.68 72.47 28.79 72.47 28.79 76.03 21.68 72.47"/><polygon id="_Path_38" data-name="&lt;Path&gt;" class="cls-5" points="32.62 80.42 30.43 73.66 27.04 74.76 32.62 80.42"/><polygon id="_Path_39" data-name="&lt;Path&gt;" class="cls-5" points="32.62 80.42 26.88 76.24 28.96 73.37 32.62 80.42"/><polygon id="_Path_40" data-name="&lt;Path&gt;" class="cls-5" points="24.26 80.42 30.02 76.24 27.92 73.37 24.26 80.42"/><polygon id="_Path_41" data-name="&lt;Path&gt;" class="cls-5" points="24.26 80.42 26.46 73.66 29.84 74.76 24.26 80.42"/><polygon id="_Path_42" data-name="&lt;Path&gt;" class="cls-5" points="28.44 46.23 26.25 52.99 29.62 54.09 28.44 46.23"/><polygon id="_Path_43" data-name="&lt;Path&gt;" class="cls-5" points="28.44 46.23 30.64 52.99 27.27 54.09 28.44 46.23"/><polygon id="_Path_44" data-name="&lt;Path&gt;" class="cls-5" points="35.2 51.13 28.1 51.13 28.1 54.69 35.2 51.13"/><polygon id="_Path_45" data-name="&lt;Path&gt;" class="cls-5" points="35.2 51.13 29.46 55.32 27.36 52.44 35.2 51.13"/><polygon id="_Path_46" data-name="&lt;Path&gt;" class="cls-5" points="21.68 51.13 27.43 55.32 29.53 52.44 21.68 51.13"/><polygon id="_Path_47" data-name="&lt;Path&gt;" class="cls-5" points="21.68 51.13 28.79 51.13 28.79 54.69 21.68 51.13"/><polygon id="_Path_48" data-name="&lt;Path&gt;" class="cls-5" points="32.62 59.09 30.43 52.34 27.04 53.42 32.62 59.09"/><polygon id="_Path_49" data-name="&lt;Path&gt;" class="cls-5" points="32.62 59.09 26.88 54.9 28.96 52.03 32.62 59.09"/><polygon id="_Path_50" data-name="&lt;Path&gt;" class="cls-5" points="24.26 59.09 30.02 54.9 27.92 52.03 24.26 59.09"/><polygon id="_Path_51" data-name="&lt;Path&gt;" class="cls-5" points="24.26 59.09 26.46 52.34 29.84 53.42 24.26 59.09"/><rect id="_Path_52" data-name="&lt;Path&gt;" class="cls-5" x="-45.71" width="219.42" height="42.67"/><rect id="_Path_53" data-name="&lt;Path&gt;" class="cls-5" x="-45.71" y="85.34" width="219.42" height="42.66"/></g></g></g></g></g></svg>