<svg id="Layer_1" data-name="Layer 1" xmlns="http://www.w3.org/2000/svg" xmlns:xlink="http://www.w3.org/1999/xlink" viewBox="0 0 128 128"><defs><style>.cls-1{fill:none;}.cls-2{clip-path:url(#clip-path);}.cls-3{fill:#171796;}.cls-4,.cls-7{fill:#fff;}.cls-5{fill:red;}.cls-6{fill:#0093dd;}.cls-7{stroke:#000;stroke-width:0.05px;}.cls-8{fill:#f7db17;}</style><clipPath id="clip-path"><circle class="cls-1" cx="64" cy="64" r="64"/></clipPath></defs><title>Flag_circle_Croatia</title><g class="cls-2"><rect class="cls-3" x="-46" width="220.01" height="128"/><rect class="cls-4" x="-46" width="220.01" height="85.33"/><rect class="cls-5" x="-46" width="220.01" height="42.67"/><path class="cls-5" d="M64,97.11h0A25,25,0,0,0,88.89,72.22V42.66H39.12V72.22A25,25,0,0,0,64,97.11Z"/><path class="cls-4" d="M64,96.71h0A24.48,24.48,0,0,0,88.41,72.3V43.14H39.6V72.3A24.48,24.48,0,0,0,64,96.71Z"/><path class="cls-5" d="M49.9,44.05H40.51V54.37H49.9Z"/><path class="cls-5" d="M49.9,64.69h9.39V54.37H49.9Z"/><path class="cls-5" d="M40.51,72.24A23,23,0,0,0,40.67,75H49.9V64.69H40.51Z"/><path class="cls-5" d="M68.69,64.69h-9.4V75h9.4Z"/><path class="cls-5" d="M68.69,85.33h9.39V75H68.69Z"/><path class="cls-5" d="M78.08,91a23.6,23.6,0,0,0,5.36-5.65H78.08Z"/><path class="cls-5" d="M49.9,85.33h9.39V75H49.9Z"/><path class="cls-5" d="M44.53,85.33A23.44,23.44,0,0,0,49.9,91V85.33Z"/><path class="cls-5" d="M65.62,95.65a23.86,23.86,0,0,0,3.07-.41V85.33h-9.4v9.91a23.79,23.79,0,0,0,3.05.41,25.64,25.64,0,0,0,3.28,0Z"/><path class="cls-5" d="M87.3,75a23.19,23.19,0,0,0,.16-2.78V64.69H78.08V75Z"/><path class="cls-5" d="M68.69,64.69h9.39V54.37H68.69Z"/><path class="cls-5" d="M68.69,44.05h-9.4V54.37h9.4Z"/><path class="cls-5" d="M87.46,54.37V44.05H78.08V54.37Z"/><path class="cls-4" d="M88,42.35l5.82-13.2L89.38,22,82,24.71l-5.16-5.9-6.8,3.9-6.06-5-6.07,5-6.8-3.9L46,24.71,38.62,22l-4.44,7.16L40,42.36a58.32,58.32,0,0,1,48,0Z"/><path class="cls-6" d="M46.13,25.29h0l-7.29-2.7-4.08,6.59,1.56,3.55,4,9a58.14,58.14,0,0,1,9.23-3.19L46.13,25.29Z"/><path class="cls-7" d="M45.71,31.8a3.56,3.56,0,1,1-6.65,2.34,3.58,3.58,0,0,0,6.7-1.76,3.79,3.79,0,0,0,0-.58Z"/><polygon points="42.45 26.88 42.44 26.93 42.19 28.21 43.17 29.07 43.21 29.11 43.16 29.13 41.92 29.55 41.67 30.83 41.66 30.89 41.62 30.85 40.63 30 39.4 30.42 39.34 30.44 39.35 30.38 39.6 29.1 38.62 28.24 38.58 28.2 38.63 28.18 39.86 27.76 40.12 26.48 40.13 26.42 40.17 26.46 41.16 27.32 42.39 26.89 42.45 26.88"/><path class="cls-8" d="M41,28.69l.92.8L43,29.1Z"/><path class="cls-8" d="M41,28.65l2.08.41-.92-.81Z"/><path class="cls-8" d="M38.75,28.21l2.07.41-.92-.8Z"/><path class="cls-8" d="M40.81,28.66l-2.07-.4.92.8Z"/><path class="cls-8" d="M40.93,28.58,42.32,27l-1.16.4Z"/><path class="cls-8" d="M39.44,30.29l1.39-1.59-1.16.4Z"/><path class="cls-8" d="M40.86,28.73l-1.39,1.59,1.15-.39Z"/><path class="cls-8" d="M42.35,27,41,28.61l1.16-.4Z"/><path class="cls-8" d="M40.85,28.59l-.68-2-.24,1.2Z"/><path class="cls-8" d="M41.58,30.73l-.68-2-.23,1.19Z"/><path class="cls-8" d="M40.94,28.72l.68,2,.24-1.2Z"/><path class="cls-8" d="M40.2,26.58l.69,2,.23-1.2Z"/><path class="cls-3" d="M58,23.31h0l-6.74-3.87-5.11,5.84,3.36,13.25a58.79,58.79,0,0,1,9.64-1.61L58,23.31Z"/><path class="cls-5" d="M48.66,35.25a62.11,62.11,0,0,1,10.19-1.7l-.29-3.44A65.73,65.73,0,0,0,47.81,31.9l.85,3.35Z"/><path class="cls-5" d="M47,28.59A69,69,0,0,1,58.28,26.7L58,23.32a73.4,73.4,0,0,0-11.86,2Z"/><path class="cls-6" d="M70,23.31h0l-6-4.93-6,4.92,1.13,13.62c1.6-.13,3.23-.2,4.87-.2s3.28.07,4.89.2L70,23.31Z"/><g id="lion"><path d="M64,29.44s0,0,0,0-.23.29-.34.45-.16.11-.11.22c-.16,0-.18.12-.19.27-.16-.24-.33-.3-.51-.19,0-.15-.12-.21-.28-.25a.49.49,0,0,1-.28-.09l-.1-.07c-.08,0-.15,0-.11.05l.5.82a.12.12,0,0,0,.06.13l.09.25,0,.07a1.25,1.25,0,0,0-.42-.08A.31.31,0,0,1,62,31s-.06,0-.06.05a1.32,1.32,0,0,0,.38.95h-.44c-.05,0-.06,0,0,.07a.84.84,0,0,0,.51.48.41.41,0,0,0-.22.33.35.35,0,0,1-.13.29s-.06,0,0,.06a.63.63,0,0,0,.57.07.89.89,0,0,0-.13.54.65.65,0,0,0,.39,0,.47.47,0,0,0,0,.19.57.57,0,0,1-.07.22s0,.05,0,.07a1,1,0,0,0,.58,0,1.38,1.38,0,0,0,.05.45s0,.07.08,0a1.29,1.29,0,0,1,.33-.33.24.24,0,0,0,.1.14.27.27,0,0,1,.1.22s0,0,0,.05.32-.24.37-.37a.78.78,0,0,1,.28.29s.06,0,.08,0a1.75,1.75,0,0,0,0-.46.88.88,0,0,0,.58,0s0,0,0-.06a.51.51,0,0,1-.07-.23.66.66,0,0,0,0-.18.65.65,0,0,0,.39,0,.89.89,0,0,0-.13-.54.66.66,0,0,0,.57-.07s0,0,0-.06a.33.33,0,0,1-.14-.29.41.41,0,0,0-.22-.33A.86.86,0,0,0,66.2,32c0-.05,0-.07,0-.07l-.45,0a1.3,1.3,0,0,0,.38-.94c0-.07,0-.09-.06-.05a.3.3,0,0,1-.22.09,1,1,0,0,0-.41.08l0-.07c0-.09.07-.17.1-.25a.11.11,0,0,0,0-.13c.17-.27.33-.55.49-.82,0-.05,0-.1-.1-.05l-.11.07a.55.55,0,0,1-.28.09c-.16,0-.26.11-.27.25-.18-.11-.35,0-.51.2,0-.16,0-.29-.19-.28a.15.15,0,0,0-.11-.22c-.12-.16-.29-.3-.41-.46a.06.06,0,0,0-.05,0Z"/><path class="cls-8" d="M65.58,30.32s-.08,0-.1.06,0,.1,0,.12a.07.07,0,0,0,.08,0v0h0c0-.05,0-.11,0-.12Z"/><path class="cls-8" d="M62.42,30.32s.08,0,.1.06,0,.1,0,.12-.06,0-.09-.07,0-.1,0-.11Z"/><path class="cls-8" d="M65.29,30.89a0,0,0,0,0,0,0s0,0,0,0a0,0,0,0,0,0,0S65.31,30.89,65.29,30.89Z"/><path class="cls-8" d="M62.74,30.89a0,0,0,0,0,0,0s0,0,0,0,0,0,0,0A0,0,0,0,0,62.74,30.89Z"/><path class="cls-8" d="M65.45,30.7A11.32,11.32,0,0,0,64,30.61a13.86,13.86,0,0,0-1.43.08s0,0,0,0A13.63,13.63,0,0,1,64,30.67a11.11,11.11,0,0,1,1.41.08s0-.05,0-.05Z"/><path class="cls-8" d="M62.58,30.64c.48,0,1-.07,1.44-.07a13.55,13.55,0,0,1,1.43.08l.07-.11h0a.14.14,0,0,1,0-.18c0-.07.11-.11.16-.09a.15.15,0,0,1,0,.08l.28-.47a.82.82,0,0,1-.37.16c-.17,0-.26.09-.23.19s0,.09-.13,0-.34,0-.41.22-.1.11-.1,0,0-.08,0-.12-.06-.18-.14-.15-.11,0-.08,0a.21.21,0,0,0,0-.14s0-.06-.1-.06c-.11-.16-.29-.31-.41-.46l-.35.46c-.05,0-.09,0-.09.06s0,.1.05.14,0,.08-.09,0-.12,0-.13.14,0,.09,0,.13-.06.13-.1,0-.23-.33-.43-.22-.12.06-.11,0-.07-.16-.25-.19a.78.78,0,0,1-.36-.16l.26.43,0,0c.05,0,.12,0,.16.09a.14.14,0,0,1,0,.18h0l.07.1Z"/><path class="cls-8" d="M65.35,31.22h0s0,0-.09.07a.77.77,0,0,1-.13.12s0,0,0,0,0,0,0,0l.13-.11,0-.06-.18,0a.59.59,0,0,0-.14.06.15.15,0,0,0-.08.08s0,0,0,0,0,0,0,0a.22.22,0,0,1,.1-.09l.07,0h-.21l0,0,0,.05s0,0,0,0a0,0,0,0,1,0,0s0,0,0,0h-.15l0,0s0,0,0,.05h0s0,0,0,0l0-.05,0,0H64.3l0,0,0,0s0,0,0,0,0,0,0,0l0-.05H63.8l0,.05s0,0,0,0,0,0,0,0l0,0,0,0H63.5l0,0,0,.05s0,0,0,0h0s0,0,0-.05l0,0H63.3l0,0a0,0,0,0,1,0,0s0,0,0,0l0-.05,0,0h0l-.21,0,.08,0a.32.32,0,0,1,.1.1s0,0,0,0,0,0,0,0a.15.15,0,0,0-.08-.08l-.16-.07h0l-.17,0,.06.07.12.11s0,0,0,0,0,0,0,0a.77.77,0,0,1-.13-.12s-.06-.07-.09-.08a1.07,1.07,0,0,0-.36-.1.71.71,0,0,1-.29-.05.53.53,0,0,0,.08.15.25.25,0,0,0,.13.09l0,0a.44.44,0,0,0,.1.24.4.4,0,0,0,.12.1,1.16,1.16,0,0,1-.11-.16.65.65,0,0,1-.05-.27l0,0s0,0,0,0a.56.56,0,0,0,.05.25.7.7,0,0,0,.18.22s0,0,0,0a.53.53,0,0,1-.24-.14.64.64,0,0,1-.11-.25.26.26,0,0,1-.14-.11.57.57,0,0,1-.08-.13,1.27,1.27,0,0,0,.29.72.52.52,0,0,0,.16.14c.06,0,.06.06,0,.06h-.07a.52.52,0,0,1,.15.07.21.21,0,0,1,.14.17s0,0,0,0,0,0,0,0-.05-.1-.12-.14a1.45,1.45,0,0,0-.25-.1H62l.08.06a1.15,1.15,0,0,0,.22.07l.14.06a.4.4,0,0,1,.12.1s0,0,0,0,0,0,0,0a.27.27,0,0,0-.1-.08.39.39,0,0,0-.13-.06.87.87,0,0,1-.23-.08.31.31,0,0,1-.11-.08.74.74,0,0,0,.52.44h.05l.16,0,.17,0s0,0,0,0,0,0,0,0l-.17,0-.11,0h-.07a.33.33,0,0,0-.27.32h0l.17-.14a.31.31,0,0,1,.23,0s0,0,0,0,0,0,0,0a.25.25,0,0,0-.2,0,1,1,0,0,0-.2.16.34.34,0,0,1-.13.24s.07,0,.1,0a1.15,1.15,0,0,1,.17-.06.58.58,0,0,1,.18,0s0,0,0,0,0,0,0,0a1,1,0,0,0-.17,0l-.14.06a.75.75,0,0,0,.42,0s.07,0,.09,0l.11,0a.3.3,0,0,1,.11,0s0,0,0,0,0,0,0,0a.24.24,0,0,0-.14,0s0,0-.07.06l-.06,0a.63.63,0,0,0-.12.18.74.74,0,0,0,0,.14.72.72,0,0,1,.13-.19.69.69,0,0,1,.21-.16s0,0,0,0,0,0,0,0a.53.53,0,0,0-.2.16.64.64,0,0,0-.14.22s0,0,0,0a1.75,1.75,0,0,1,.2-.19.37.37,0,0,1,.27-.09s0,0,0,0,0,0,0,0a.31.31,0,0,0-.23.08,1.25,1.25,0,0,0-.23.23.82.82,0,0,0,.34-.06c.06,0,.12-.08.15-.09l0,0,.06-.07s0,0,0,0,0,0,0,0l-.06.06-.06.07,0,0a.83.83,0,0,0-.11.15,1.53,1.53,0,0,1-.07.36l.11-.08A.53.53,0,0,0,63,34a.48.48,0,0,1,.1-.17.45.45,0,0,1,.17-.11s0,0,0,0,0,0,0,0a.44.44,0,0,0-.15.1A.38.38,0,0,0,63,34a.48.48,0,0,1-.09.16.39.39,0,0,1-.1.08h.08a.38.38,0,0,0,.17-.08.34.34,0,0,0,.1-.13s0,0,0,0a0,0,0,0,1,0,0,.58.58,0,0,1-.11.15l-.13,0a.8.8,0,0,0,.3-.06s0-.11.08-.13l.06-.1a.28.28,0,0,1,.11-.08s0,0,0,0,0,0,0,0a.18.18,0,0,0-.09.07.35.35,0,0,0-.06.09,1.48,1.48,0,0,1,0,.19,1.71,1.71,0,0,0,0,.39.65.65,0,0,1,.11-.12h0a1.49,1.49,0,0,0,0-.21.74.74,0,0,0,0-.21s0,0,0,0,0,0,0,0a.81.81,0,0,1,0,.22,1,1,0,0,1,0,.17s0,0,.05-.07a.42.42,0,0,0,0-.15.23.23,0,0,0,0-.14s0,0,0,0,0,0,0,0a.29.29,0,0,1,0,.16.35.35,0,0,1,0,.13l.11-.08v-.15s0-.08,0-.12,0,0,0,0,0,0,0,0a.53.53,0,0,1,0,.12.76.76,0,0,0,0,.15.16.16,0,0,0,.08.14.27.27,0,0,1,.11.18,2.26,2.26,0,0,0,0-.25.75.75,0,0,0-.08-.24s0,0,0,0,0,0,0,0a.82.82,0,0,1,.08.25,1.66,1.66,0,0,1,0,.31.43.43,0,0,0,.22-.38l0,0s0,0,0,0,0,0,0,0a.14.14,0,0,1,0,.07.43.43,0,0,1,0,0l0,0,0,0,0-.12a.86.86,0,0,1,0-.16s0,0,0,0,0,0,0,0a.76.76,0,0,0,0,.15.44.44,0,0,0,0,.15h0l0,0c0-.05,0-.1,0-.16a.74.74,0,0,1,0-.21s0,0,0,0,0,0,0,0a.74.74,0,0,0,0,.21,1.49,1.49,0,0,0,0,.21h0a1.47,1.47,0,0,1,.1.13,1.72,1.72,0,0,0,0-.39c0-.05,0-.14,0-.19L64.58,34a.18.18,0,0,0-.09-.07s0,0,0,0,0,0,0,0a.28.28,0,0,1,.11.08l.06.1s0,.11.09.13a.75.75,0,0,0,.29.06l-.13,0a.4.4,0,0,1-.1-.15s0,0,0,0h0a.34.34,0,0,0,.1.13.44.44,0,0,0,.25.08.39.39,0,0,1-.1-.08A1,1,0,0,1,65,34a.42.42,0,0,0-.09-.16.44.44,0,0,0-.15-.1s0,0,0,0h0a.45.45,0,0,1,.17.11.59.59,0,0,1,.1.17.53.53,0,0,0,.08.15l.11.08a1.53,1.53,0,0,1-.07-.36c0-.08-.15-.18-.13-.2s.09,0,.16.08a.8.8,0,0,0,.34,0,1.25,1.25,0,0,0-.23-.23.25.25,0,0,0-.22-.07s0,0,0,0,0,0,0,0a.34.34,0,0,1,.26.08,1.13,1.13,0,0,1,.19.19l0,0a.74.74,0,0,0-.14-.22.64.64,0,0,0-.2-.16s0,0,0,0,0,0,0,0a.83.83,0,0,1,.21.16.63.63,0,0,1,.13.2.83.83,0,0,0,0-.15.63.63,0,0,0-.12-.18s-.13-.09-.13-.11l0,0-.1,0s0,0,0,0,0,0,0,0l.12,0,.06,0,.13,0a.75.75,0,0,0,.42,0l-.14-.06a.86.86,0,0,0-.17,0s0,0,0,0,0,0,0,0a.53.53,0,0,1,.18,0l.17.06s.06,0,.1,0a.34.34,0,0,1-.13-.24h0a1.4,1.4,0,0,0-.2-.16.25.25,0,0,0-.2,0s0,0,0,0,0,0,0,0a.31.31,0,0,1,.23,0l.17.14h0a.33.33,0,0,0-.27-.32s-.12,0-.12,0,.06,0,.15-.05a.78.78,0,0,0,.53-.44.5.5,0,0,1-.12.08.87.87,0,0,1-.23.08.39.39,0,0,0-.13.06.31.31,0,0,0-.11.08s0,0,0,0,0,0,0,0a.52.52,0,0,1,.11-.1l.15-.06a1.15,1.15,0,0,0,.22-.07l.08-.06h-.29a1.45,1.45,0,0,0-.25.1c-.07,0-.12.09-.12.14s0,0,0,0,0,0,0,0a.21.21,0,0,1,.14-.17.52.52,0,0,1,.15-.07h-.07c-.07,0-.07,0,0-.06a.52.52,0,0,0,.16-.14,1.26,1.26,0,0,0,.28-.71.47.47,0,0,1-.07.12.3.3,0,0,1-.14.11.64.64,0,0,1-.11.25.48.48,0,0,1-.24.14s0,0,0,0a.82.82,0,0,0,.17-.22.55.55,0,0,0,0-.24s0,0,0,0,0,0,0,0a.65.65,0,0,1,0,.27,1.16,1.16,0,0,1-.11.16l.12-.1a.44.44,0,0,0,.1-.24,0,0,0,0,1,0,0,.3.3,0,0,0,.13-.09.53.53,0,0,0,.08-.15.58.58,0,0,1-.29.05,1.4,1.4,0,0,0-.35.1Z"/><path class="cls-8" d="M65.31,31.11A9.21,9.21,0,0,0,64,31a11.45,11.45,0,0,0-1.3.07s0,0,0,0,0,0,.07,0c.41,0,.81,0,1.22,0a11.14,11.14,0,0,1,1.29.06s0-.05,0-.05Z"/><path class="cls-8" d="M62.74,31.06C63.17,31,63.6,31,64,31a10.86,10.86,0,0,1,1.28.08l0-.08h0a.07.07,0,0,1-.08-.07.07.07,0,0,1,.08-.08.08.08,0,0,1,.07,0l0-.11A12.77,12.77,0,0,0,64,30.71c-.46,0-.92,0-1.38.07l0,.1a.06.06,0,0,1,.06,0,.08.08,0,0,1,.08.08.08.08,0,0,1-.08.07h0l0,.06Zm1.93-.26a.08.08,0,0,0,0,.16.08.08,0,0,0,0-.16Zm0,0s0,0,0,0,0,0,0,0a0,0,0,0,0,0,0A0,0,0,0,0,64.67,30.84ZM64,30.78a.08.08,0,1,0,.08.08A.09.09,0,0,0,64,30.78Zm0,0a0,0,0,1,0,0,.08,0,0,0,0,0,0-.08A0,0,0,0,0,64,30.82Zm-.67,0a.08.08,0,0,0-.08.08.08.08,0,0,0,.16,0A.08.08,0,0,0,63.32,30.8Zm0,0a0,0,0,0,0,0,0s0,0,0,0,0,0,0,0A0,0,0,0,0,63.32,30.84Z"/><path d="M64,30.31A.24.24,0,0,0,64,30.2a.21.21,0,0,0-.12-.05s0,0,0,0a.22.22,0,0,0,.1-.09.38.38,0,0,0,.06-.16,0,0,0,0,1,.05,0,.26.26,0,0,0,.06.13.34.34,0,0,0,.12.09s0,0,0,0a.15.15,0,0,0-.09.06.23.23,0,0,0-.07.14s0,0,0,0Zm0-.07a.41.41,0,0,1,0-.09l.06-.06a.28.28,0,0,1-.09-.07L64,30a.47.47,0,0,1,0,.1.23.23,0,0,1-.07.07l.09.05A.18.18,0,0,1,64,30.24Z"/><path d="M64.55,33.47l-.33.13s0,0,0,0,0,0,0,0l.33-.13s0,0,0,0S64.56,33.47,64.55,33.47Zm0-.2-.38.2s0,0,0,0,0,0,0,0l.38-.21s0,0,0,0S64.59,33.26,64.58,33.27Zm-1.15,0,.38.2s0,0,0,0,0,0,0,0l-.38-.2s0,0,0,0S63.42,33.22,63.43,33.23Zm0,.2.33.13s0,0,0,0,0,0,0,0l-.33-.13s0,0,0,0,0,0,0,0Zm.14.27a.65.65,0,0,0,.23,0,.16.16,0,0,0,.12-.09v-.31a.58.58,0,0,1-.19,0,.18.18,0,0,1-.13-.11.37.37,0,0,1,0-.21s0,0,0,0,0,0,0,0a.37.37,0,0,0,0,.18.18.18,0,0,0,.1.09l.19,0,.2,0a.36.36,0,0,0,.12-.08.13.13,0,0,0,0-.11,0,0,0,0,0,0-.05.11.11,0,0,0-.08,0h-.14s0,0,0,0,0,0,0,0h0a.18.18,0,0,1,.1,0,.2.2,0,0,1,.11,0,.09.09,0,0,1,0,.08.18.18,0,0,1,0,.15.28.28,0,0,1-.14.09.86.86,0,0,1-.17,0v.3h0a.14.14,0,0,0,.12.09.58.58,0,0,0,.22,0s0,0,0,0,0,0,0,0a.69.69,0,0,1-.24,0,.15.15,0,0,0-.27,0,.74.74,0,0,1-.25,0s0,0,0,0,0,0,0,0Zm.23.14h.25s0,0,0,0,0,0,0,0h-.25s0,0,0,0S63.82,33.84,63.83,33.84Z"/><path d="M64.2,31.89a1.7,1.7,0,0,1,.27-.19.43.43,0,0,1,.23-.07s0,0,0,0,0,0,0,0a.49.49,0,0,0-.2.06,2.5,2.5,0,0,0-.26.18s0,0,0,0,0,0,0,0Zm-.38,0a1.16,1.16,0,0,0-.28-.19.49.49,0,0,0-.23-.07s0,0,0,0,0,0,0,0a.42.42,0,0,1,.25.06,1.12,1.12,0,0,1,.29.21s0,0,0,0,0,0,0,0Zm-.13.64a.64.64,0,0,1,.08-.14l.11-.11s0,0,0,0,0,0,0,0a.47.47,0,0,0-.1.1.57.57,0,0,0-.08.13s0,0,0,0S63.68,32.57,63.69,32.56Zm.23-1.1a.37.37,0,0,1,.07.14.48.48,0,0,1,0,.18.92.92,0,0,1,0,.16.32.32,0,0,1-.06.15.17.17,0,0,1-.1.07.21.21,0,0,1-.11,0,.25.25,0,0,1,0,.19s0,0,0,0l-.08,0-.08,0h0a.52.52,0,0,1-.15-.07.24.24,0,0,1-.09-.08h0a.3.3,0,0,1-.06-.11s0-.07,0-.11l-.12-.08a.27.27,0,0,1-.1-.08s0,0,0,0,0,0,0,0l.09.08.13.07a.73.73,0,0,1,.24.07l.2.12h0l0,0h.1a.13.13,0,0,0,.07-.06.31.31,0,0,0,.06-.13v-.15h0a.7.7,0,0,0,0-.16.54.54,0,0,0-.07-.13s0,0,0,0,0,0,0,0Zm-.24.66L63.49,32l-.2-.06a.28.28,0,0,0,0,.09.2.2,0,0,0,0,.08h0s0,0,.08.07l.14.07h0l.08,0,.06,0a.35.35,0,0,0,0-.17v0Zm.49-.63a.52.52,0,0,0-.06.13.41.41,0,0,0,0,.16h0a.38.38,0,0,0,0,.15.29.29,0,0,0,0,.13.16.16,0,0,0,.08.06.18.18,0,0,0,.1,0h0l0,0a1.06,1.06,0,0,1,.2-.12.75.75,0,0,1,.23-.07l.13-.07.1-.08s0,0,0,0,0,0,0,0l-.1.09-.12.07s0,.07,0,.11a.54.54,0,0,1,0,.11h0a.27.27,0,0,1-.1.08.52.52,0,0,1-.15.07h0l-.08,0-.08,0s0,0,0,0a.25.25,0,0,1,0-.19.17.17,0,0,1-.1,0,.19.19,0,0,1-.11-.07.47.47,0,0,1-.06-.15v-.16a1,1,0,0,1,0-.18.39.39,0,0,1,.08-.14s0,0,0,0,0,0,0,0Zm.6.45a.76.76,0,0,0-.2.06,2.12,2.12,0,0,0-.2.12v0a.36.36,0,0,0,0,.17l.06,0,.09,0h0a.61.61,0,0,0,.14-.07.19.19,0,0,0,.08-.07h0a.22.22,0,0,0,.05-.08s0-.06,0-.09Z"/><path d="M64.56,32a.13.13,0,0,0-.13.13.13.13,0,0,0,.13.14.14.14,0,0,0,.14-.14A.13.13,0,0,0,64.56,32Zm0,0a.09.09,0,1,0,.09.09A.09.09,0,0,0,64.56,32Zm0,0a0,0,0,0,0,0,0,.06.06,0,0,0,0,.06.06.06,0,0,0,.06-.06A.06.06,0,0,0,64.56,32.06ZM63.49,32a.14.14,0,0,1,.14.13.14.14,0,0,1-.28,0A.13.13,0,0,1,63.49,32Zm0,0a.09.09,0,0,1,.09.09.09.09,0,1,1-.18,0A.09.09,0,0,1,63.49,32Zm0,0a0,0,0,0,1,0,0s0,.06,0,.06a.06.06,0,0,1-.06-.06A.06.06,0,0,1,63.49,32.06Z"/></g><g id="lion-2" data-name="lion"><path d="M61.24,23.3a.05.05,0,0,0,0,0c-.11.17-.22.31-.33.47s-.15.12-.1.22c-.16,0-.18.13-.18.28-.16-.23-.34-.29-.52-.17,0-.14-.13-.21-.29-.24a.46.46,0,0,1-.27-.08l-.11-.06c-.09-.05-.15,0-.11.05l.54.8a.11.11,0,0,0,.06.13L60,25v.07a1.29,1.29,0,0,0-.43-.07.28.28,0,0,1-.23-.08s-.05,0-.05.06a1.33,1.33,0,0,0,.41.93l-.44,0s-.06,0,0,.06a.86.86,0,0,0,.54.47.41.41,0,0,0-.22.33c0,.15,0,.25-.12.3s0,0,0,.06a.66.66,0,0,0,.57.05.88.88,0,0,0-.11.54.75.75,0,0,0,.39,0,.75.75,0,0,0,0,.19.54.54,0,0,1-.05.22s0,.06,0,.07a.93.93,0,0,0,.58-.06,1.42,1.42,0,0,0,.06.46s.05.06.08,0a1.31,1.31,0,0,1,.32-.34.23.23,0,0,0,.11.13c.06,0,.09.1.1.21a.06.06,0,0,0,0,.06c.09,0,.31-.25.35-.39a.71.71,0,0,1,.29.28s.06,0,.08,0a2.42,2.42,0,0,0,0-.46.92.92,0,0,0,.57,0s0-.05,0-.07a.63.63,0,0,1-.08-.23.42.42,0,0,0,0-.18.65.65,0,0,0,.39,0,.93.93,0,0,0-.15-.53.7.7,0,0,0,.57-.09s0,0,0-.07-.13-.14-.15-.28a.41.41,0,0,0-.23-.32.87.87,0,0,0,.5-.5c0-.05,0-.07,0-.07h-.45a1.31,1.31,0,0,0,.34-1c0-.06,0-.09-.06-.05a.27.27,0,0,1-.21.11,1,1,0,0,0-.41.09l0-.07.09-.25a.12.12,0,0,0,0-.13c.16-.28.31-.56.46-.84,0,0,0-.1-.11,0l-.1.07a.55.55,0,0,1-.27.1c-.16,0-.26.11-.26.26q-.28-.15-.51.21c0-.15,0-.29-.2-.26a.15.15,0,0,0-.12-.22c-.13-.15-.3-.29-.43-.44l0,0Z"/><path class="cls-8" d="M62.87,24.12s-.08,0-.1.07,0,.1,0,.12.05,0,.07,0v0h0s0-.1,0-.12Z"/><path class="cls-8" d="M59.71,24.24s.08,0,.1.06,0,.1,0,.12-.07,0-.09-.06,0-.1,0-.12Z"/><path class="cls-8" d="M62.6,24.71s0,0,0,0a0,0,0,0,0,0,0s0,0,0,0S62.62,24.7,62.6,24.71Z"/><path class="cls-8" d="M60.05,24.8a0,0,0,0,0,0,.08,0,0,0,0,0,0-.08A0,0,0,0,0,60.05,24.8Z"/><path class="cls-8" d="M62.75,24.51a11.34,11.34,0,0,0-1.43,0c-.47,0-1,.06-1.43.12,0,0,0,.06,0,.06a13.81,13.81,0,0,1,1.43-.13,11.1,11.1,0,0,1,1.41,0s0,0,0,0Z"/><path class="cls-8" d="M59.88,24.56c.48-.06,1-.11,1.44-.13s1,0,1.43,0l.07-.11h-.06s-.06-.09,0-.17a.13.13,0,0,1,.15-.09s0,0,0,.07l.26-.48a.82.82,0,0,1-.36.18c-.18,0-.26.09-.23.2s0,.08-.12,0-.34.06-.4.24-.1.11-.11,0,0-.08,0-.12-.06-.18-.14-.14-.11,0-.09,0a.24.24,0,0,0,0-.15s-.05-.05-.1-.05-.31-.3-.43-.45l-.33.48c-.06,0-.09,0-.1.06s0,.1.06.14,0,.08-.09,0-.11,0-.12.14v.13c0,.12-.06.13-.11,0s-.23-.32-.43-.2-.12.07-.12,0-.07-.17-.25-.19a.79.79,0,0,1-.37-.14l.28.42,0,0c.05,0,.12,0,.16.08a.13.13,0,0,1,0,.18h0l.07.1Z"/><path class="cls-8" d="M62.67,25h0s0,0-.08.08l-.13.13s0,0,0,0,0,0,0,0l.13-.12a.15.15,0,0,1,0-.06l-.18,0-.14.07a.3.3,0,0,0-.08.08s0,0,0,0a0,0,0,0,1,0,0,.28.28,0,0,1,.09-.1l.07,0h-.21l0,0,0,0s0,0,0,0,0,0,0,0l0,0H61.9a.08.08,0,0,0,0,0s0,0,0,0,0,0,0,0,0,0,0,0l0,0,0,0h-.23l0,0,0,0s0,0,0,0,0,0,0,0a.09.09,0,0,1,0-.05h-.43l0,0s0,0,0,0,0,0,0,0,0,0,0,0l0,0h-.23l0,0,0,.05s0,0,0,0,0,0,0,0l0,0,0,0h-.15l.05,0s0,0,0,0h0l0,0-.05,0h0l-.21,0,.08,0a.53.53,0,0,1,.11.09s0,0,0,0,0,0,0,0a.22.22,0,0,0-.09-.07.38.38,0,0,0-.16-.06h0l-.17,0,.06.07.13.11s0,0,0,0,0,0,0,0l-.14-.11L60,25.13a1.17,1.17,0,0,0-.37-.08.7.7,0,0,1-.29,0,.47.47,0,0,0,.08.14.22.22,0,0,0,.14.09,0,0,0,0,1,0,0,.46.46,0,0,0,.12.24l.12.09a.51.51,0,0,1-.11-.16.43.43,0,0,1-.06-.26s0,0,0,0,0,0,0,0a.42.42,0,0,0,0,.24.77.77,0,0,0,.19.22s0,0,0,0a.44.44,0,0,1-.25-.14.46.46,0,0,1-.12-.24.4.4,0,0,1-.15-.1l-.08-.13a1.28,1.28,0,0,0,.32.71.48.48,0,0,0,.16.13c.06,0,.07.06,0,.06h-.06l.15.06a.25.25,0,0,1,.15.17s0,0,0,0,0,0,0,0a.25.25,0,0,0-.13-.14L59.61,26l-.29,0,.09.05.22.06.15.06a.31.31,0,0,1,.11.09s0,0,0,0,0,0,0,0a.39.39,0,0,0-.1-.08l-.14-.05a.79.79,0,0,1-.23-.07L59.27,26a.75.75,0,0,0,.54.41h0a.47.47,0,0,0,.17,0l.16,0s0,0,0,0,0,0,0,0l-.17,0h-.17a.32.32,0,0,0-.27.32h0a1,1,0,0,1,.17-.14.28.28,0,0,1,.23-.05s0,0,0,0,0,0,0,0a.3.3,0,0,0-.2.05,1.45,1.45,0,0,0-.19.17.37.37,0,0,1-.12.24s.07,0,.1,0l.16-.08a.58.58,0,0,1,.18,0s0,0,0,0,0,0,0,0a.47.47,0,0,0-.16,0l-.14.06A.76.76,0,0,0,60,27.1l.08,0,.11-.06.11,0s0,0,0,0,0,0,0,0a.25.25,0,0,0-.14.06l-.08.06,0,.05a.34.34,0,0,0-.11.18.74.74,0,0,0,0,.14,1,1,0,0,1,.12-.19.91.91,0,0,1,.21-.18s0,0,0,0,0,0,0,0a.78.78,0,0,0-.2.16,1.71,1.71,0,0,0-.13.23l0,.05a1.84,1.84,0,0,1,.19-.2.33.33,0,0,1,.27-.09s0,0,0,0,0,0,0,0a.31.31,0,0,0-.23.08,1.74,1.74,0,0,0-.22.24.83.83,0,0,0,.34-.07s.11-.09.14-.1l0,0,.06-.07h0s0,0,0,0l-.06.06-.06.08h0a.36.36,0,0,0-.1.15,1.51,1.51,0,0,1-.07.37.4.4,0,0,0,.19-.24.42.42,0,0,1,.1-.17.48.48,0,0,1,.16-.12h0s0,0,0,0a.65.65,0,0,0-.15.1.51.51,0,0,0-.09.16.45.45,0,0,1-.08.17l-.09.08h.07a.3.3,0,0,0,.17-.08.26.26,0,0,0,.1-.13s0,0,0,0,0,0,0,0a.31.31,0,0,1-.1.15.35.35,0,0,1-.12.07,1,1,0,0,0,.29-.08s0-.11.08-.13l.06-.11a.39.39,0,0,1,.1-.08s0,0,0,0,0,0,0,0-.06,0-.09.07l-.06.09a1.36,1.36,0,0,1,0,.2,1.58,1.58,0,0,0,0,.38l.1-.12h0a1.49,1.49,0,0,0,0-.21A1.48,1.48,0,0,0,61,28s0,0,0,0,0,0,0,0a1.62,1.62,0,0,1,0,.22c0,.06,0,.11,0,.17a.1.1,0,0,0,0-.07.28.28,0,0,0,0-.15.61.61,0,0,0,0-.14s0,0,0,0,0,0,0,0a.38.38,0,0,1,0,.15.28.28,0,0,1,0,.13l.11-.08v-.26s0,0,0,0,0,0,0,0V28a.76.76,0,0,0,0,.15.17.17,0,0,0,.08.14.26.26,0,0,1,.12.17,1,1,0,0,0,0-.25.69.69,0,0,0-.08-.23,0,0,0,0,1,0,0s0,0,0,0a.75.75,0,0,1,.09.24,1.6,1.6,0,0,1,0,.31.44.44,0,0,0,.21-.38s0,0,0-.05,0,0,0,0,0,0,0,0,0,0,0,.07a.43.43,0,0,1,0,.05l0,0,0,0,0-.11a.43.43,0,0,1,0-.16s0,0,0,0,0,0,0,0a.38.38,0,0,0,0,.15.48.48,0,0,0,0,.14v0l0,0a.88.88,0,0,1,0-.16,1.62,1.62,0,0,1,0-.22s0,0,0,0,0,0,0,0v.2a1.55,1.55,0,0,0,0,.21h0l.1.12a1.29,1.29,0,0,0,0-.39,1.33,1.33,0,0,1,0-.19A.31.31,0,0,0,62,27.8a.28.28,0,0,0-.09-.07s0,0,0,0,0,0,0,0l.11.08.07.09s0,.12.09.14a1,1,0,0,0,.29.05.27.27,0,0,1-.12-.06.33.33,0,0,1-.12-.14s0,0,0,0h0a.34.34,0,0,0,.1.13.59.59,0,0,0,.26.07L62.53,28a1,1,0,0,1-.09-.15.4.4,0,0,0-.1-.15.39.39,0,0,0-.16-.1s0,0,0,0,0,0,0,0a.34.34,0,0,1,.16.1.48.48,0,0,1,.12.16.53.53,0,0,0,.08.15.36.36,0,0,0,.12.08,1.58,1.58,0,0,1-.09-.36c0-.08-.16-.17-.13-.2s.08.05.16.07a.67.67,0,0,0,.34,0,2.4,2.4,0,0,0-.24-.22.28.28,0,0,0-.22-.06s0,0,0,0,0,0,0,0a.31.31,0,0,1,.25.07,1.68,1.68,0,0,1,.21.18s0,0,0,0a1,1,0,0,0-.15-.21.8.8,0,0,0-.21-.15s0,0,0,0l0,0a.79.79,0,0,1,.23.16,1.07,1.07,0,0,1,.13.19.57.57,0,0,0,0-.14,1,1,0,0,0-.13-.18s-.14-.08-.14-.1l0,0-.1,0s0,0,0,0,0,0,0,0l.12,0,.06,0,.13,0a.8.8,0,0,0,.43,0L63.08,27l-.16,0s0,0,0,0,0,0,0,0l.18,0a.52.52,0,0,1,.16.06.12.12,0,0,0,.1,0,.34.34,0,0,1-.13-.24h0a1,1,0,0,0-.2-.15.25.25,0,0,0-.2,0s0,0,0,0,0,0,0,0a.28.28,0,0,1,.23,0l.18.13h0a.3.3,0,0,0-.28-.3s-.12,0-.12,0,.06,0,.15-.06a.76.76,0,0,0,.51-.45l-.12.08a1,1,0,0,1-.22.09.26.26,0,0,0-.13.06.22.22,0,0,0-.1.09s0,0,0,0,0,0,0,0L63,26l.15-.06a.93.93,0,0,0,.21-.08l.08-.06h-.29l-.25.11a.2.2,0,0,0-.11.15s0,0,0,0,0,0,0,0a.2.2,0,0,1,.13-.17l.15-.08h-.07c-.07,0-.07,0,0-.07a.49.49,0,0,0,.15-.14,1.37,1.37,0,0,0,.26-.72.47.47,0,0,1-.07.12.28.28,0,0,1-.13.11.56.56,0,0,1-.11.26.42.42,0,0,1-.23.15s0,0,0,0a.57.57,0,0,0,.16-.23.42.42,0,0,0,0-.24s0,0,0,0,0,0,0,0a.51.51,0,0,1,0,.27.7.7,0,0,1-.1.16.35.35,0,0,0,.11-.1.53.53,0,0,0,.1-.24v0a.22.22,0,0,0,.13-.1.52.52,0,0,0,.07-.15.67.67,0,0,1-.28.06,1.3,1.3,0,0,0-.35.11Z"/><path class="cls-8" d="M62.63,24.92a11.11,11.11,0,0,0-1.29,0c-.43,0-.86.06-1.3.12a0,0,0,0,0,0,0s0,0,.07,0c.41,0,.81-.09,1.22-.1a11.12,11.12,0,0,1,1.29,0s.05,0,0,0Z"/><path class="cls-8" d="M60.05,25a11.25,11.25,0,0,1,1.29-.12,9.16,9.16,0,0,1,1.28,0l0-.08h0a.08.08,0,0,1-.08-.07.09.09,0,0,1,.07-.09.09.09,0,0,1,.08.05l0-.11a10.44,10.44,0,0,0-1.37,0A10.71,10.71,0,0,0,60,24.7l0,.1a.07.07,0,0,1,.06,0,.08.08,0,1,1,0,.16h0l0,.06ZM62,24.64a.07.07,0,0,0-.07.08.08.08,0,0,0,.08.08.08.08,0,0,0,.07-.08A.08.08,0,0,0,62,24.64Zm0,0s0,0,0,0,0,0,0,0,0,0,0,0A0,0,0,0,0,62,24.68Zm-.68,0a.08.08,0,0,0-.08.08.07.07,0,0,0,.08.07.07.07,0,0,0,.08-.08A.08.08,0,0,0,61.3,24.65Zm0,0a0,0,0,0,0,0,0s0,0,0,0,0,0,0,0A0,0,0,0,0,61.3,24.69Zm-.67,0a.08.08,0,0,0-.08.08.09.09,0,0,0,.08.08.1.1,0,0,0,.08-.09A.08.08,0,0,0,60.63,24.69Zm0,0a0,0,0,0,0,0,.08s0,0,0,0S60.65,24.73,60.63,24.73Z"/><path d="M61.31,24.18a.26.26,0,0,0-.07-.11.17.17,0,0,0-.12-.05s0,0,0,0a.28.28,0,0,0,.1-.09.3.3,0,0,0,0-.16s0,0,.05,0a.23.23,0,0,0,.06.13.31.31,0,0,0,.13.08,0,0,0,0,1,0,.05.15.15,0,0,0-.09.06.35.35,0,0,0-.06.14s0,0,0,0Zm0-.08a.36.36,0,0,1,0-.09l.06-.06a.28.28,0,0,1-.09-.07l-.05-.07a.3.3,0,0,1,0,.1.27.27,0,0,1-.07.08l.09.05Z"/><path d="M62,27.31l-.32.15s0,0,0,0,0,0,0,0l.32-.14s0,0,0,0S62,27.31,62,27.31Zm0-.2-.37.22s0,0,0,0,0,0,0,0l.38-.22s0,0,0,0S62,27.1,62,27.11Zm-1.15,0,.39.19s0,0,0,0,0,0,0,0l-.39-.2s0,0,0,0S60.82,27.1,60.83,27.11Zm0,.2.33.12s0,0,0,0,0,0,0,0l-.33-.11s0,0,0,0,0,0,0,0Zm.15.27a.62.62,0,0,0,.23,0,.14.14,0,0,0,.11-.09v-.32a.59.59,0,0,1-.19,0,.18.18,0,0,1-.13-.11.38.38,0,0,1,0-.21s0,0,0,0,0,0,0,0a.37.37,0,0,0,0,.18.14.14,0,0,0,.1.08l.19,0,.2,0a.15.15,0,0,0,.11-.08.15.15,0,0,0,0-.11.1.1,0,0,0,0-.05.11.11,0,0,0-.08,0h-.14s0,0,0,0,0,0,0,0h0l.1,0a.2.2,0,0,1,.11,0,.09.09,0,0,1,0,.08.17.17,0,0,1,0,.15.3.3,0,0,1-.14.1.86.86,0,0,1-.17,0v.31h0a.16.16,0,0,0,.12.08.49.49,0,0,0,.23,0s0,0,0,0,0,0,0,0a.72.72,0,0,1-.24,0,.22.22,0,0,1-.14-.08.24.24,0,0,1-.13.09.72.72,0,0,1-.25,0s0,0,0,0,0,0,0,0Zm.23.12h.25s0,0,0,0,0,0,0,0h-.26s0,0,0,0S61.24,27.71,61.25,27.7Z"/><path d="M61.55,25.74a1.31,1.31,0,0,1,.26-.19.46.46,0,0,1,.22-.08s0,0,0,0,0,0,0,0a.4.4,0,0,0-.2.07,1.65,1.65,0,0,0-.25.19s0,0,0,0,0,0,0,0Zm-.38.05a1.27,1.27,0,0,0-.29-.18.6.6,0,0,0-.23-.06s0,0,0,0,0,0,0,0a.54.54,0,0,1,.26,0,1.74,1.74,0,0,1,.3.2s0,0,0,0,0,0,0,0Zm-.11.64a.64.64,0,0,1,.08-.14l.11-.11s0,0,0,0,0,0,0,0l-.1.1a.57.57,0,0,0-.08.13s0,0,0,0S61.05,26.44,61.06,26.43Zm.19-1.1a.64.64,0,0,1,.08.14.47.47,0,0,1,0,.17.43.43,0,0,1,0,.16.3.3,0,0,1,0,.16.19.19,0,0,1-.11.07h-.1a.28.28,0,0,1,0,.2,0,0,0,0,1,0,0l-.08,0-.08,0h0l-.16-.06a.24.24,0,0,1-.09-.08h0a.24.24,0,0,1-.06-.11.36.36,0,0,1,0-.11l-.13-.07a.39.39,0,0,1-.1-.08s0,0,0,0,0,0,0,0l.1.07.13.07a.82.82,0,0,1,.44.18h0a.14.14,0,0,0,.09,0,.16.16,0,0,0,.08-.06.34.34,0,0,0,0-.14.66.66,0,0,0,0-.14h0a.78.78,0,0,0,0-.16.47.47,0,0,0-.07-.12s0,0,0,0,0,0,0,0ZM61,26a1,1,0,0,0-.2-.11l-.2-.06s0,.06,0,.09a.22.22,0,0,0,.05.08h0a.22.22,0,0,0,.09.07l.14.06h0l.09,0,.06,0a.47.47,0,0,0,0-.17v0Zm.47-.65a.31.31,0,0,0-.06.13.41.41,0,0,0,0,.16h0a.76.76,0,0,0,0,.15.31.31,0,0,0,.06.13.1.1,0,0,0,.08,0,.14.14,0,0,0,.09,0h0s0,0,0,0l.2-.13a1,1,0,0,1,.23-.07l.13-.08.09-.08s0,0,0,0,0,0,0,0a.27.27,0,0,1-.1.08.36.36,0,0,1-.12.08.37.37,0,0,1,0,.11.16.16,0,0,1,0,.11h0a.24.24,0,0,1-.09.08l-.14.08h0l-.07,0-.08,0h0a.28.28,0,0,1,0-.2.17.17,0,0,1-.1,0,.19.19,0,0,1-.11-.07.3.3,0,0,1-.07-.15.86.86,0,0,1,0-.16.88.88,0,0,1,0-.17.35.35,0,0,1,.07-.15s0,0,0,0,0,0,0,0Zm.61.43a.53.53,0,0,0-.2.07,1,1,0,0,0-.19.12v0a.33.33,0,0,0,0,.17l.06,0,.08,0h0A.61.61,0,0,0,62,26a.27.27,0,0,0,.08-.07h0a.19.19,0,0,0,0-.09s0-.05,0-.08Z"/><path d="M61.91,25.82a.13.13,0,0,0-.13.14.14.14,0,0,0,.14.13.12.12,0,0,0,.13-.14A.13.13,0,0,0,61.91,25.82Zm0,0a.1.1,0,0,0-.09.1.11.11,0,0,0,.1.09A.1.1,0,0,0,62,26,.09.09,0,0,0,61.91,25.86Zm0,0a.06.06,0,0,0-.06.06A.06.06,0,0,0,62,26,0,0,0,0,0,61.92,25.9Zm-1.08,0A.13.13,0,0,1,61,26a.14.14,0,0,1-.13.15.14.14,0,0,1-.14-.14A.14.14,0,0,1,60.84,25.86Zm0,.05a.08.08,0,0,1,.1.08.09.09,0,0,1-.09.1.11.11,0,0,1-.1-.09A.09.09,0,0,1,60.84,25.91Zm0,0a.06.06,0,0,1,.06.06,0,0,0,0,1,0,.05.06.06,0,1,1,0-.11Z"/></g><g id="lion-3" data-name="lion"><path d="M66.74,23.3l0,0-.36.44c-.12,0-.15.11-.11.22-.17,0-.19.11-.2.26-.15-.24-.32-.32-.51-.21,0-.15-.11-.22-.27-.26a.55.55,0,0,1-.27-.1l-.1-.07c-.08-.06-.15,0-.11,0,.15.28.31.56.47.84a.11.11,0,0,0,0,.13l.08.26,0,.07a.92.92,0,0,0-.42-.1.29.29,0,0,1-.22-.1s-.06,0-.06.05a1.32,1.32,0,0,0,.34,1h-.44c-.05,0-.06,0-.05.07a.84.84,0,0,0,.5.5.41.41,0,0,0-.23.32c0,.14-.06.24-.15.28s0,0,0,.07a.69.69,0,0,0,.57.09.88.88,0,0,0-.15.53.74.74,0,0,0,.39,0,.54.54,0,0,0,0,.19.46.46,0,0,1-.08.21s0,.05,0,.07a1,1,0,0,0,.58,0,1.78,1.78,0,0,0,0,.46s0,.07.08,0a1.26,1.26,0,0,1,.35-.31.24.24,0,0,0,.09.14c.06,0,.09.11.09.22a.06.06,0,0,0,0,.05c.09,0,.33-.22.39-.36a.86.86,0,0,1,.26.3c0,.05.06,0,.08,0a1.42,1.42,0,0,0,.06-.46.93.93,0,0,0,.58.06s0-.05,0-.07a.65.65,0,0,1-.06-.23.42.42,0,0,0,0-.18.74.74,0,0,0,.39,0,.89.89,0,0,0-.12-.54.68.68,0,0,0,.58-.05s0,0,0-.06-.12-.15-.12-.3a.41.41,0,0,0-.22-.33.86.86,0,0,0,.54-.47s0-.06,0-.06l-.45,0a1.29,1.29,0,0,0,.41-.93c0-.07,0-.09,0-.05a.29.29,0,0,1-.22.08,1.23,1.23,0,0,0-.42.07l0-.08a2.56,2.56,0,0,1,.11-.24.14.14,0,0,0,.06-.13c.18-.26.34-.53.52-.8,0-.05,0-.1-.1-.05l-.11.06a.51.51,0,0,1-.28.08c-.16,0-.27.1-.28.24-.18-.11-.36-.06-.52.18,0-.15,0-.29-.19-.28.06-.11,0-.19-.1-.23s-.28-.31-.39-.47l0,0Z"/><path class="cls-8" d="M68.3,24.24s-.08,0-.1.06,0,.1,0,.12.05,0,.07,0l0,0h0c0-.05,0-.1,0-.12Z"/><path class="cls-8" d="M65.14,24.12s.08,0,.1.07,0,.1,0,.12-.07,0-.09-.07,0-.1,0-.12Z"/><path class="cls-8" d="M68,24.8a0,0,0,0,0,0,0s0,0,0,0a0,0,0,0,0,0,0S68,24.8,68,24.8Z"/><path class="cls-8" d="M65.44,24.71s0,0,0,0a0,0,0,0,0,0,0s0,0,0,0S65.46,24.71,65.44,24.71Z"/><path class="cls-8" d="M68.16,24.62a11.54,11.54,0,0,0-1.43-.14,13.68,13.68,0,0,0-1.43,0s0,.05,0,.05c.47,0,1,0,1.42,0a11.22,11.22,0,0,1,1.41.14s0-.05,0-.05Z"/><path class="cls-8" d="M65.29,24.45c.48,0,1,0,1.45,0a11.35,11.35,0,0,1,1.42.13l.07-.11h0a.13.13,0,0,1,0-.18c0-.07.11-.11.16-.08s0,0,0,.07l.3-.45a1,1,0,0,1-.38.14c-.18,0-.26.08-.24.19s0,.08-.12,0-.35,0-.42.2-.11.11-.11,0v-.12c0-.15,0-.19-.13-.15s-.11,0-.09,0,.06-.08,0-.14,0-.06-.09-.06c-.11-.16-.29-.32-.39-.48l-.37.45c-.06,0-.09,0-.1.05s0,.11,0,.14,0,.09-.08,0-.12,0-.14.13a.57.57,0,0,0,0,.13c0,.12-.07.13-.11,0s-.21-.34-.41-.24-.13.06-.12,0-.06-.17-.23-.2a.77.77,0,0,1-.36-.18l.24.44,0,0c.05,0,.11,0,.15.09s0,.15,0,.17h0l.06.1Z"/><path class="cls-8" d="M68,25.13h0s0,0-.09.08l-.13.11s0,0,0,0a0,0,0,0,1,0,0l.14-.11,0-.06-.18,0-.14.05a.24.24,0,0,0-.09.08s0,0,0,0,0,0,0,0a.53.53,0,0,1,.11-.09l.06,0-.2,0,0,0,0,0h0s0,0,0,0l0,0h-.16l0,0,0,0s0,0,0,0,0,0,0,0l0-.05,0,0H67l0,0,0,0s0,0,0,0,0,0,0,0l0,0h-.43l0,.05a0,0,0,0,1,0,0s0,0,0,0l0,0s0,0,0,0h-.23l0,0,0,0s0,0,0,0,0,0,0,0,0,0,0,0l0,0H66l0,0s0,0,0,0,0,0,0,0l0,0,0,0h-.21l.08,0a.28.28,0,0,1,.09.1s0,0,0,0,0,0,0,0a.24.24,0,0,0-.09-.08.52.52,0,0,0-.15-.07h-.17l0,.07.13.12a0,0,0,0,1,0,0s0,0,0,0l-.13-.13L65.38,25a1.08,1.08,0,0,0-.36-.11.72.72,0,0,1-.29-.06.53.53,0,0,0,.08.15.27.27,0,0,0,.13.1h0a.47.47,0,0,0,.1.25.52.52,0,0,0,.11.1.7.7,0,0,1-.1-.16A.51.51,0,0,1,65,25s0,0,0,0,0,0,0,0a.42.42,0,0,0,0,.24.6.6,0,0,0,.17.23s0,0,0,0A.46.46,0,0,1,65,25.4a.56.56,0,0,1-.11-.26.24.24,0,0,1-.13-.11.33.33,0,0,1-.07-.13,1.16,1.16,0,0,0,.26.73.4.4,0,0,0,.15.14c.06,0,.06.07,0,.07H65l.15.08a.22.22,0,0,1,.13.17s0,0,0,0,0,0,0,0,0-.11-.12-.15l-.25-.11h-.29l.09.06a.93.93,0,0,0,.21.08l.14.06a.55.55,0,0,1,.11.1,0,0,0,0,1,0,0s0,0,0,0a.28.28,0,0,0-.1-.09.31.31,0,0,0-.13-.06,1,1,0,0,1-.22-.09.62.62,0,0,1-.12-.08.76.76,0,0,0,.51.45l0,0h0l.16,0,.17,0s0,0,0,0,0,0,0,0l-.16,0-.11,0h-.07a.31.31,0,0,0-.29.3h0l.18-.13a.27.27,0,0,1,.23,0s0,0,0,0,0,0,0,0a.24.24,0,0,0-.2,0,1.37,1.37,0,0,0-.21.15.35.35,0,0,1-.14.23s.07.05.11,0l.16-.07.18,0s0,0,0,0,0,0,0,0L65,27l-.15.05a.71.71,0,0,0,.43,0l.08,0,.11,0,.12,0s0,0,0,0,0,0,0,0a.24.24,0,0,0-.14.05l-.08.05-.06,0a.55.55,0,0,0-.13.18.57.57,0,0,0,0,.14.8.8,0,0,1,.13-.19.89.89,0,0,1,.22-.16h0s0,0,0,0a.8.8,0,0,0-.21.15,1,1,0,0,0-.15.21l0,.06a1.24,1.24,0,0,1,.22-.19.33.33,0,0,1,.26-.07s0,0,0,0,0,0,0,0a.3.3,0,0,0-.23.06,2.4,2.4,0,0,0-.24.22.67.67,0,0,0,.34,0c.06,0,.12-.08.16-.09s0,0,0,0l.06-.06h0s0,0,0,0l-.07.06-.06.07h0a.57.57,0,0,0-.12.15,1.58,1.58,0,0,1-.09.36l.12-.08a.53.53,0,0,0,.08-.15.64.64,0,0,1,.11-.16.62.62,0,0,1,.17-.11s0,0,0,0,0,0,0,0a.39.39,0,0,0-.16.1.4.4,0,0,0-.1.15.56.56,0,0,1-.1.15.27.27,0,0,1-.1.08h.08a.45.45,0,0,0,.18-.07.34.34,0,0,0,.1-.13h0s0,0,0,0a.33.33,0,0,1-.12.14.27.27,0,0,1-.12.06,1,1,0,0,0,.29-.05s.06-.11.09-.13a.36.36,0,0,1,.07-.1.39.39,0,0,1,.1-.08s0,0,0,0,0,0,0,0a.28.28,0,0,0-.09.07.22.22,0,0,0-.07.09s0,.14,0,.19a1.28,1.28,0,0,0,0,.39.65.65,0,0,1,.11-.12h0l0-.21a1.48,1.48,0,0,0,0-.21s0,0,0,0,0,0,0,0a1.48,1.48,0,0,1,0,.21.88.88,0,0,1,0,.17l0-.06a.88.88,0,0,0,0-.15.61.61,0,0,0,0-.14s0,0,0,0,0,0,0,0a.43.43,0,0,1,0,.16.27.27,0,0,1,0,.12l.11-.07a.61.61,0,0,1,0-.14c0-.05,0-.09,0-.12s0,0,0,0,0,0,0,0,0,.07,0,.11v.15a.17.17,0,0,0,.07.15.27.27,0,0,1,.11.18,1.09,1.09,0,0,0,0-.25.84.84,0,0,0-.06-.24s0,0,0,0,0,0,0,0a.66.66,0,0,1,.07.25,1.1,1.1,0,0,1,0,.31.42.42,0,0,0,.24-.36s0,0,0-.05,0,0,0,0,0,0,0,0a.19.19,0,0,1,0,.07.09.09,0,0,0,0,.05s0,0,0,0l0,0a.43.43,0,0,1,0-.11A.42.42,0,0,1,67,28s0,0,0,0,0,0,0,0a.38.38,0,0,0,0,.15.44.44,0,0,0,0,.15h0l0,.05a1,1,0,0,1,0-.17.74.74,0,0,1,0-.21s0,0,0,0,0,0,0,0a.74.74,0,0,0,0,.21,1.48,1.48,0,0,0,0,.21h0l.1.12a1.58,1.58,0,0,0,0-.38,1.48,1.48,0,0,1,0-.19l-.06-.1s0-.06-.09-.07,0,0,0,0,0,0,0,0a.28.28,0,0,1,.1.09l.06.09s0,.12.09.14a.9.9,0,0,0,.28.08.35.35,0,0,1-.12-.07.27.27,0,0,1-.1-.15s0,0,0,0,0,0,0,0a.3.3,0,0,0,.09.13.48.48,0,0,0,.25.09.34.34,0,0,1-.09-.08.83.83,0,0,1-.09-.16.28.28,0,0,0-.09-.16.36.36,0,0,0-.14-.11s0,0,0,0h0a.48.48,0,0,1,.16.12.42.42,0,0,1,.1.17.53.53,0,0,0,.08.15.24.24,0,0,0,.11.09,1.51,1.51,0,0,1-.07-.37c0-.08-.14-.18-.11-.2s.08.06.15.08a.83.83,0,0,0,.34.07,1.74,1.74,0,0,0-.22-.24.29.29,0,0,0-.22-.08s0,0,0,0,0,0,0,0a.35.35,0,0,1,.25.09,1.21,1.21,0,0,1,.19.2s0,0,0-.05a1.71,1.71,0,0,0-.13-.23.78.78,0,0,0-.2-.16s0,0,0,0h0a.91.91,0,0,1,.21.18.82.82,0,0,1,.12.2.83.83,0,0,0,0-.15.38.38,0,0,0-.11-.18s-.13-.1-.13-.12l0,0-.1,0s0,0,0,0,0,0,0,0a.3.3,0,0,1,.11,0l.06,0a.43.43,0,0,1,.13.05.76.76,0,0,0,.42.06l-.14-.06-.17,0s0,0,0,0,0,0,0,0l.17,0,.17.08s.06,0,.1,0a.33.33,0,0,1-.12-.24h0l-.19-.17a.25.25,0,0,0-.2,0s0,0,0,0,0,0,0,0a.28.28,0,0,1,.23.05l.16.14h0a.3.3,0,0,0-.26-.32s-.12,0-.12,0,.07,0,.15-.05a.75.75,0,0,0,.55-.41l-.12.07a.9.9,0,0,1-.23.07l-.14.05a.39.39,0,0,0-.1.08s0,0,0,0,0,0,0,0a.31.31,0,0,1,.11-.09l.15-.06a.75.75,0,0,0,.22-.06l.09-.05-.29,0-.26.09a.25.25,0,0,0-.13.14s0,0,0,0,0,0,0,0a.25.25,0,0,1,.15-.17L68.3,26h-.07c-.07,0-.07,0,0-.06a.43.43,0,0,0,.17-.13,1.31,1.31,0,0,0,.31-.7.75.75,0,0,1-.07.12.4.4,0,0,1-.15.1.46.46,0,0,1-.12.24.42.42,0,0,1-.24.14s0,0,0,0a.64.64,0,0,0,.19-.22.42.42,0,0,0,0-.24s0,0,0,0,0,0,0,0a.42.42,0,0,1-.06.26.57.57,0,0,1-.11.16l.12-.09a.67.67,0,0,0,.12-.24s0,0,0,0a.25.25,0,0,0,.14-.08.53.53,0,0,0,.08-.15.7.7,0,0,1-.29,0,1,1,0,0,0-.35.09Z"/><path class="cls-8" d="M68,25a10.87,10.87,0,0,0-1.28-.12c-.43,0-.87,0-1.3,0,0,0,0,0,0,0s0,0,.07,0c.41,0,.82,0,1.22,0s.86.05,1.29.11c0,0,.05-.05,0-.05Z"/><path class="cls-8" d="M65.43,24.88A11,11,0,0,1,68,25l0-.08h0a.07.07,0,0,1-.07-.08.07.07,0,0,1,.08-.08.08.08,0,0,1,.07,0l0-.1a10.58,10.58,0,0,0-1.37-.13c-.46,0-.92,0-1.39,0l0,.11a.07.07,0,0,1,.06,0,.1.1,0,0,1,.08.09.09.09,0,0,1-.09.07h0l0,.06Zm1.95-.19a.07.07,0,0,0-.08.08s0,.07.07.08a.09.09,0,0,0,.08-.08A.08.08,0,0,0,67.38,24.69Zm0,0a0,0,0,0,0,0,0s0,0,0,0a0,0,0,0,0,0,0S67.4,24.73,67.38,24.73Zm-.69-.08a.08.08,0,0,0-.08.07.08.08,0,0,0,.08.08.08.08,0,0,0,.08-.07A.08.08,0,0,0,66.69,24.65Zm0,0s0,0,0,0a0,0,0,0,0,0,0s0,0,0,0A0,0,0,0,0,66.69,24.69ZM66,24.64a.08.08,0,0,0-.08.07.07.07,0,0,0,.08.08.08.08,0,0,0,.08-.07A.09.09,0,0,0,66,24.64Zm0,0s0,0,0,0a0,0,0,0,0,0,0s0,0,0,0A0,0,0,0,0,66,24.68Z"/><path d="M66.74,24.18a.24.24,0,0,0-.06-.11.17.17,0,0,0-.11-.06s0,0,0-.05a.21.21,0,0,0,.11-.08.34.34,0,0,0,.06-.16s0,0,0,0a.21.21,0,0,0,0,.13A.34.34,0,0,0,67,24a0,0,0,0,1,0,0l-.09.05a.61.61,0,0,0-.07.14s0,0,0,0Zm0-.07a.35.35,0,0,1,.06-.09l.06-.05a.3.3,0,0,1-.08-.08.35.35,0,0,1,0-.08.31.31,0,0,1,0,.1.23.23,0,0,1-.07.07l.08.05A.35.35,0,0,1,66.76,24.11Z"/><path d="M67.15,27.36l-.33.11s0,0,0,0,0,0,0,0l.33-.12s0,0,0,0S67.16,27.35,67.15,27.36Zm0-.21-.39.19s0,0,0,0,0,0,0,0l.39-.19s0,0,0,0S67.2,27.15,67.19,27.15ZM66,27.07l.37.22s0,0,0,0,0,0,0,0L66,27.11s0,0,0,0S66,27.06,66,27.07Zm0,.2.32.14s0,0,0,0,0,0,0,0L66,27.31s0,0,0,0,0,0,0,0Zm.14.28a.61.61,0,0,0,.22,0,.14.14,0,0,0,.12-.09l0-.31a1,1,0,0,1-.19,0,.22.22,0,0,1-.13-.12.37.37,0,0,1,0-.21s0,0,0,0,0,0,0,0a.37.37,0,0,0,0,.18.13.13,0,0,0,.09.09.58.58,0,0,0,.19,0,.65.65,0,0,0,.2,0,.24.24,0,0,0,.12-.07.15.15,0,0,0,0-.11.05.05,0,0,0,0-.05s-.05,0-.08,0h-.14s0,0,0,0,0,0,0,0h.15a.19.19,0,0,1,.1,0,.13.13,0,0,1,0,.09.24.24,0,0,1,0,.14.38.38,0,0,1-.15.09l-.18,0v.3h0a.14.14,0,0,0,.12.1.94.94,0,0,0,.23,0s0,0,0,0,0,0,0,0a.5.5,0,0,1-.24,0,.2.2,0,0,1-.13-.08.19.19,0,0,1-.14.07.57.57,0,0,1-.25,0s0,0,0,0,0,0,0,0Zm.22.14h.25s0,0,0,0,0,0,0,0h-.26s0,0,0,0S66.4,27.69,66.42,27.69Z"/><path d="M66.86,25.76a1.31,1.31,0,0,1,.28-.18.53.53,0,0,1,.23-.06s0,0,0,0,0,0,0,0a.64.64,0,0,0-.2.05,1.57,1.57,0,0,0-.27.18s0,0,0,0,0,0,0,0Zm-.38,0a1.24,1.24,0,0,0-.27-.21A.49.49,0,0,0,66,25.5s0,0,0,0,0,0,0,0a.56.56,0,0,1,.25.08,1.35,1.35,0,0,1,.28.22s0,0,0,0,0,0,0,0Zm-.16.63.09-.14.12-.1a0,0,0,0,1,0,0s0,0,0,0a.52.52,0,0,0-.11.1.62.62,0,0,0-.09.12s0,0,0,0S66.32,26.42,66.32,26.41Zm.28-1.09a.39.39,0,0,1,.06.15.32.32,0,0,1,0,.17.86.86,0,0,1,0,.16.3.3,0,0,1-.07.15.14.14,0,0,1-.1.07.21.21,0,0,1-.11,0,.28.28,0,0,1,0,.2h0l-.08,0-.08,0h0l-.15-.08A.24.24,0,0,1,66,26h0a.37.37,0,0,1,0-.11.37.37,0,0,1,0-.11l-.12-.08a.39.39,0,0,1-.1-.08s0,0,0,0,0,0,0,0l.09.08.13.08a.79.79,0,0,1,.23.08,1,1,0,0,1,.19.12l0,0h0a.12.12,0,0,0,.1,0,.1.1,0,0,0,.08,0,.31.31,0,0,0,.06-.13.76.76,0,0,0,0-.15h0a.78.78,0,0,0,0-.16.31.31,0,0,0-.06-.13s0,0,0,0,0,0,0,0Zm-.26.65a1.06,1.06,0,0,0-.2-.12.49.49,0,0,0-.19-.07.19.19,0,0,0,0,.08A.13.13,0,0,0,66,26h0a.19.19,0,0,0,.08.07.58.58,0,0,0,.14.08h0l.08,0,.06,0a.52.52,0,0,0,0-.17v0Zm.51-.61a.75.75,0,0,0-.07.12.47.47,0,0,0,0,.17h0a.75.75,0,0,0,0,.15.35.35,0,0,0,0,.13.13.13,0,0,0,.07.06.12.12,0,0,0,.1,0h0a.71.71,0,0,1,.21-.11.53.53,0,0,1,.23-.06l.14-.08a.31.31,0,0,0,.09-.07s0,0,0,0,0,0,0,0l-.11.07-.12.07s0,.08,0,.11a.24.24,0,0,1-.06.11h0l-.1.07-.15.07h0a.11.11,0,0,0-.08,0l-.09,0s0,0,0,0a.34.34,0,0,1,0-.2h-.1a.2.2,0,0,1-.1-.08.44.44,0,0,1-.06-.16v-.16a.85.85,0,0,1,0-.17.37.37,0,0,1,.07-.14s0,0,0,0a0,0,0,0,1,0,0Zm.58.47a.66.66,0,0,0-.2.06A1.06,1.06,0,0,0,67,26v0a.32.32,0,0,0,0,.17l.06,0,.08,0h0l.15-.06.08-.06h0a.14.14,0,0,0,0-.08s0-.06,0-.09Z"/><path d="M67.22,25.86a.13.13,0,0,0-.14.13.14.14,0,1,0,.27,0A.14.14,0,0,0,67.22,25.86Zm0,0a.1.1,0,1,0,.09.1A.11.11,0,0,0,67.22,25.9Zm0,0a.06.06,0,1,0,0,.06A.06.06,0,0,0,67.22,25.94Zm-1.07-.12a.15.15,0,0,1,.13.14.14.14,0,0,1-.14.14A.14.14,0,0,1,66,26,.13.13,0,0,1,66.15,25.82Zm0,.05a.09.09,0,0,1,.09.09.11.11,0,0,1-.1.09.09.09,0,0,1-.09-.09A.09.09,0,0,1,66.15,25.87Zm0,0a.06.06,0,0,1,.06.06.06.06,0,0,1-.06.05,0,0,0,0,1,0-.05A.06.06,0,0,1,66.14,25.9Z"/></g><path class="cls-3" d="M81.89,25.3h0l-5.11-5.85L70,23.31,68.89,36.93a58.86,58.86,0,0,1,9.63,1.62L81.89,25.3Z"/><path d="M71.35,26.14a.84.84,0,0,1,.69.07.53.53,0,0,1,.22.15,3.62,3.62,0,0,1,.32-.22,1.9,1.9,0,0,1,.48-.27,2,2,0,0,1,.72-.21,2.83,2.83,0,0,1,.77,0,1.35,1.35,0,0,1,.61.18l.54.27a5.85,5.85,0,0,0,.56.28,2.52,2.52,0,0,0,.79.13,1.19,1.19,0,0,0,.42,0c.11,0,.18,0,0,.12-.88.54-1.57.06-2.16-.16a5.49,5.49,0,0,1,.56.45,3,3,0,0,0,.93.64,2.21,2.21,0,0,0,.94.22,2,2,0,0,0,.41,0c.08,0,.11,0,.11,0a.14.14,0,0,1,0,.11,1.35,1.35,0,0,1-.68.21,2.63,2.63,0,0,1-1.39-.36,7,7,0,0,1-.89-.64,2,2,0,0,0-.79-.38,1.71,1.71,0,0,0-.78,0,.39.39,0,0,1,.17.09,1.08,1.08,0,0,0,.51.13c.12,0,.08.1-.1.2a.49.49,0,0,1-.44.2c-.26.17-.36.06-.44-.05a1.72,1.72,0,0,1-.07.21.14.14,0,0,1,0,.11.3.3,0,0,1,0,.2.12.12,0,0,0,.06.1.31.31,0,0,1,.09.18.2.2,0,0,0,.06.12.56.56,0,0,1,.16.15.38.38,0,0,1,.26.33.27.27,0,0,1,.19.23.3.3,0,0,1,.17.12c.24,0,.48,0,.7,0a.86.86,0,0,1,.53.32.81.81,0,0,0,.31,0,1,1,0,0,1,.35-.1,2.46,2.46,0,0,1,.61,0,.66.66,0,0,1,.33.2.4.4,0,0,0,.48.06,3.37,3.37,0,0,0,.92,0,.32.32,0,0,1,.26-.11c.15,0,.25,0,.23.2a.17.17,0,0,1-.08.12.31.31,0,0,1-.36.17.33.33,0,0,1-.13.23c.08.23,0,.32-.16.32a.17.17,0,0,1-.19.1.32.32,0,0,1-.23.13.48.48,0,0,0,.08.16c.12.17-.06.24-.22.25a.69.69,0,0,1,0,.35c.17.1.19.2,0,.3a.27.27,0,0,1-.14.44.37.37,0,0,1-.09.28s-.12.05-.07.13.07.31-.06.32-.05,0-.05,0,0,0,0,0a3,3,0,0,0-.42.27s0,0,0,0a3,3,0,0,1-.46.62.41.41,0,0,1-.26.31.11.11,0,0,1-.09.08c.08.09.11.18,0,.26a.71.71,0,0,1-.34.24c-.27.07-.44.06-.54-.05s-.06-.15,0-.18c-.17,0-.2-.08-.2-.19s0-.05.09-.05a.87.87,0,0,0,.26-.08.53.53,0,0,1,.12-.14.43.43,0,0,1,.31-.35,1,1,0,0,0,.38-.34L76.5,33a.35.35,0,0,1-.07-.2.51.51,0,0,1-.15-.14.18.18,0,0,1-.18-.13l-.09,0a.29.29,0,0,1-.18.07,1.53,1.53,0,0,1-.29.24.22.22,0,0,1-.19.15c-.24,0-.38.33-.51.45a.3.3,0,0,0-.11.19c0,.16,0,.28-.13.28s-.09,0-.09,0h-.1a.16.16,0,0,1,0,.23.31.31,0,0,1-.23.11.89.89,0,0,1-.44-.06.18.18,0,0,1-.13-.19c-.09,0-.1-.08-.09-.12s.06-.08.12-.07l.16,0a1.35,1.35,0,0,1,.48-.37.77.77,0,0,1,.19-.17.62.62,0,0,1,.23-.37.58.58,0,0,1,.06-.17v-.07a.42.42,0,0,1,0-.29.38.38,0,0,1,0-.15c-.29.17-.38.12-.41,0-.1.09-.2.13-.27,0a.47.47,0,0,1-.31,0,.65.65,0,0,1-.21.06.68.68,0,0,1-.13.18.67.67,0,0,1-.13.39,1.83,1.83,0,0,1-.18.41.35.35,0,0,1,0,.14c0,.15,0,.23-.12.27a.62.62,0,0,1-.11.19v.07a.24.24,0,0,1,0,.28l-.24.13a.3.3,0,0,1-.26,0c-.15-.05-.13-.1-.12-.15a.17.17,0,0,1-.14,0l-.09-.07a.09.09,0,0,1,0-.14.65.65,0,0,0,.23-.15s0-.1.1-.11a.3.3,0,0,1,.17-.19c.06-.13.12-.27.18-.39s0-.08,0-.12a.12.12,0,0,1,0-.09s0,0,0,0a.36.36,0,0,1,.05-.31c.07-.12.16-.39.08-.52a.6.6,0,0,1,0-.23.12.12,0,0,1-.08,0c-.06,0-.11,0-.16.07s-.06.16-.1.16a.51.51,0,0,1-.25.43,1,1,0,0,0,0,.3c0,.11,0,.19,0,.2A.19.19,0,0,0,72,33s0,.06,0,.09a.18.18,0,0,1,0,.26.54.54,0,0,1-.59.07c-.16-.06-.2-.13-.18-.2-.22,0-.18-.19,0-.24a.84.84,0,0,0,.49-.37c0-.21.06-.36.18-.38a.89.89,0,0,1,.11-.37.48.48,0,0,0,.07-.36c-.12-.07-.12-.15,0-.24s0,0,0-.06-.07-.08-.07-.15,0-.06,0-.06-.13-.09,0-.16,0-.09,0-.11a.19.19,0,0,1,0-.12c-.11-.08-.06-.16,0-.24a.3.3,0,0,1-.1-.2c-.19,0-.26-.11-.16-.25a.91.91,0,0,1,.17-.17c0-.07.09-.15.07-.22s.12-.24.27-.35a.49.49,0,0,1,0-.11c-.08-.08-.06-.16,0-.23a.23.23,0,0,1,0-.11c-.21,0-.21-.08-.11-.29-.12-.07-.09-.19.13-.38,0,0,0-.08,0-.1a.46.46,0,0,0-.27.08.25.25,0,0,1-.25,0L71.47,28a.15.15,0,0,1-.06-.16c-.25,0-.3-.17-.15-.28a.63.63,0,0,0,.17-.21,1.06,1.06,0,0,1,.35-.41.78.78,0,0,1,0-.14.44.44,0,0,0-.2-.08.3.3,0,0,0-.15-.17s-.06-.05,0-.12c-.13-.11-.1-.18-.07-.25Z"/><path class="cls-8" d="M75.85,32.52h0a1.9,1.9,0,0,1-.21.19c-.06-.08-.15,0-.06,0l0,0c0,.07-.06.11-.14.12h0v-.1s0-.07,0-.11v0h0s0,.08,0,.12a.37.37,0,0,0,0,.11c-.22.07-.34.29-.49.45a.55.55,0,0,0-.12.21s0,.24-.06.24h-.06s-.06,0-.1,0h-.27c0,.06.1,0,.18.09s.05.06,0,.12-.49.12-.63.05S73.7,34,73.7,34h.09l.14,0s0,0,0-.05,0,0,0,0a.19.19,0,0,1-.12,0h-.14s0,0,0,0,0,0,0,0l.19-.07a1.55,1.55,0,0,1,.5-.38.86.86,0,0,1,.2-.18.63.63,0,0,1,.24-.38.4.4,0,0,1,.07-.18.21.21,0,0,1,0-.11.29.29,0,0,1,0-.27.31.31,0,0,1,0-.19s0,0,0,0l.12-.09.11-.06a1.55,1.55,0,0,0,0,.21h0L75,32.2a.11.11,0,0,0,0,.07s0,0,0,0,0,0,0,0a.07.07,0,0,1,0-.06l0-.06h0a.28.28,0,0,0,.19-.09,1.41,1.41,0,0,0,.18-.17v.28a.7.7,0,0,0-.15.19v0s0,0,0,0a.43.43,0,0,1,.13-.17h0l0,0a1.14,1.14,0,0,1,.22-.12.71.71,0,0,0,0,.25.5.5,0,0,0,.14.24Z"/><path class="cls-8" d="M71.72,30.11a.09.09,0,0,1,0,0h0a1,1,0,0,1,.09-.15,1.14,1.14,0,0,1,.14-.16s0,0,0,0,0,0,0,0a.64.64,0,0,0-.13.15l-.09.15a0,0,0,0,1,0,.05.38.38,0,0,0,.06.18h0a.24.24,0,0,1,.06-.11.38.38,0,0,1,.12-.09l.08-.09a.22.22,0,0,0,0-.08s0,0,0,0,0,0,0,0a.41.41,0,0,1,0,.09l-.09.09h0l-.12.09a.26.26,0,0,0,0,.09.06.06,0,0,1,0,.08c-.06.08-.13.13,0,.2a.16.16,0,0,0,0,.14.17.17,0,0,1,0,.18c-.06.05,0,0,0,.05h0l.07-.11.09-.1a.57.57,0,0,0,.1-.13.37.37,0,0,0,0-.14s0,0,0,0a0,0,0,0,1,0,0,.44.44,0,0,1,0,.15.45.45,0,0,1-.1.14l-.08.09A.76.76,0,0,0,72,31c.07.05.05.12.06.19h0l0-.07.07-.1s0,0,0,0,0,0,0,0l-.06.11,0,.06h0a.09.09,0,0,1,0,.15c-.11.08-.08.1,0,.16a.68.68,0,0,1,0,.25h0a.19.19,0,0,1,0,.08v.07s0,0,0,0h0v-.1l0,0a1.42,1.42,0,0,0-.16.45c-.17,0-.14.21-.15.36a1,1,0,0,1-.5.39s-.14,0-.15.09.06.06.11,0,.17,0,0,.06a.06.06,0,0,0,0,.07.58.58,0,0,0,.57.06c.1-.07.15-.14.06-.23a.32.32,0,0,1,.21-.32.17.17,0,0,0,0-.12,1,1,0,0,1,0-.34s0,0,0,0a.56.56,0,0,0,.2-.33s0-.06,0-.1,0-.06.06,0a.18.18,0,0,0,0-.1c.06-.08.14-.14.24-.1a.79.79,0,0,1-.05-.22.61.61,0,0,1,0-.27s0,0,0,0a1.54,1.54,0,0,0,.08-.19l.09-.2s0,0,0,0,0,0,0,0l-.08.2a1.54,1.54,0,0,0-.08.19s0,0,0,0a.74.74,0,0,0,0,.26.66.66,0,0,0,.07.25v0s0,0,0,.09a1,1,0,0,0,0,.16.67.67,0,0,1-.09.58.35.35,0,0,0,0,.22c.06.06,0,.11,0,.15a.08.08,0,0,0,0,0,.24.24,0,0,1,0,.14c-.07.14-.13.28-.19.42s-.13.09-.17.19-.07,0-.1.09A.6.6,0,0,1,72,34c-.08,0,0,.07,0,.11s.11,0,.15-.11.09,0,.06,0a.49.49,0,0,0,0,.18s.15.08.18.08.24-.1.32-.15.06-.13,0-.22h-.12l-.15-.05s0,0,0,0,0,0,0,0l.14,0h.13v-.07a.57.57,0,0,0,.13-.21c.11-.06.11-.11.1-.24a.32.32,0,0,0,0-.14,2.68,2.68,0,0,0,.19-.42.58.58,0,0,0,.13-.39s0-.09.07-.08l.08-.14h0l0-.09,0-.06a.25.25,0,0,0,0-.12.36.36,0,0,0,0-.11.09.09,0,0,1,0-.05,0,0,0,0,1,0-.06s0,0,0,0,0,0,0,0a0,0,0,0,0,0,0l0,0h0a.25.25,0,0,1,0,.27h0a.33.33,0,0,0,0,.06l0,.08h0a.41.41,0,0,0,.18,0h0a.62.62,0,0,0,.09-.12.53.53,0,0,0,0-.15h0a0,0,0,0,1,0,0,.69.69,0,0,1,0,.17.36.36,0,0,1-.08.09.48.48,0,0,0,.29,0,1.12,1.12,0,0,1,0-.32.64.64,0,0,1,.08-.2h0v0a.3.3,0,0,0-.08.18,1.06,1.06,0,0,0,0,.31h0c0,.06.06.11.15.06a.27.27,0,0,0,.08-.07l0,0,.23-.23a1.88,1.88,0,0,1,.24-.18h0s0,0,0,0a1.88,1.88,0,0,0-.24.18l-.2.19s0,0,0,.07,0,.15.15.1a.48.48,0,0,0,.16-.08l.08,0,.13-.09a.57.57,0,0,1,.13-.08.4.4,0,0,1,0-.15,1.08,1.08,0,0,1,.2-.34h0a.86.86,0,0,0,.18-.14.62.62,0,0,0,.11-.17s0,0,0,0,0,0,0,0a.49.49,0,0,1-.11.18.86.86,0,0,1-.18.14,1.12,1.12,0,0,0-.19.33.28.28,0,0,0,0,.13h0s0,0,0,0h0a.74.74,0,0,0,0,.21.29.29,0,0,0,.18-.08,1.23,1.23,0,0,0,.19-.2h0a.81.81,0,0,1,.06-.13.31.31,0,0,1,.11-.09s0,0,0,0h0a.24.24,0,0,0-.09.08.31.31,0,0,0-.06.13c0,.1,0,.2,0,.3h0a.85.85,0,0,1,.25-.13s0,0,0,0a1.15,1.15,0,0,0,0,.26.38.38,0,0,0,.12.21.38.38,0,0,1,.09-.13l0,0h0l.08-.07.06-.06.06,0s0,0,0,0,0,0,0,0l-.06.05-.07.06h0a.46.46,0,0,0-.07.07v.12h.16c0,.12,0,.14.13.14v-.12l0-.13s0,0,0,0,0,0,0,0a.27.27,0,0,0,0,.12.49.49,0,0,0,0,.12h0a.32.32,0,0,0,.18.16.54.54,0,0,0,0-.11.59.59,0,0,0,0-.13s0,0,0,0,0,0,0,0a.34.34,0,0,1,0,.14.83.83,0,0,1-.07.13h0a.24.24,0,0,0,0,.12s0-.05,0-.08a.39.39,0,0,1,.08-.1s0,0,0,0,0,0,0,0l-.06.09,0,.1,0,0c-.16.28-.33.66-.65.79a.37.37,0,0,0-.27.33.46.46,0,0,0-.15.16.72.72,0,0,1-.32.08c0,.08,0,.11.1.11s.18-.08.19-.07,0,.12-.14.2,0,0,0,0,.37.1.51.06a.68.68,0,0,0,.33-.25s0-.1-.07-.15-.16-.17,0-.09.06,0,.08-.08a.33.33,0,0,0,.25-.29,2.76,2.76,0,0,0,.43-.54.2.2,0,0,0,0-.14.34.34,0,0,0,0-.11.69.69,0,0,0,0-.13,0,0,0,0,1,0,0,0,0,0,0,1,0,0,.28.28,0,0,1,0,.13l0,.1s0,0,0,0,.28-.19.42-.28a.1.1,0,0,1,.11-.09s0,0,0,0,0-.15,0-.22,0-.13.1-.18.07-.19.07-.27h0v0a.29.29,0,0,0,0-.09s0,0,0,0a0,0,0,0,1,0,0,.32.32,0,0,1,0,.09v0c.06,0,.14-.07.16-.15a.28.28,0,0,0-.06-.23l0,0-.11,0h0s0,0,0,0l.1,0a.2.2,0,0,0,.08,0,.31.31,0,0,0,.09-.07c0-.07-.08-.13-.13-.16h0l-.2-.18s0,0,0,0h0l.18.17a.61.61,0,0,0,0-.3l0-.1h0a.43.43,0,0,1-.12-.11.28.28,0,0,1,0-.13h0a.19.19,0,0,0,0,.12.17.17,0,0,0,.11.09A.27.27,0,0,0,78,31c.1-.05,0-.15,0-.22a.57.57,0,0,1,0-.14h0l0,0,0,0s0,0,0,0h0l.06,0,0,.05h0a.3.3,0,0,0,.19-.14.94.94,0,0,0-.1-.1L78,30.26s0,0,0,0,0,0,0,0l.11.1a1.14,1.14,0,0,1,.11.11h0c.09,0,.1,0,.14-.08a.37.37,0,0,0,0-.11.39.39,0,0,0-.08-.1s0,0,0,0,0,0,0,0l.08.1a.34.34,0,0,1,.06.12.2.2,0,0,0,.11,0c.08,0,0-.2,0-.26h0l0,0,0,0v0h0l0,0,0,0h0a.37.37,0,0,0,.09-.16c0-.09,0-.05.13-.07a.27.27,0,0,0,.25-.16.12.12,0,0,0,.06-.08c0-.08,0-.12-.09-.13a.35.35,0,0,0-.29.1l0,.06s0,0,0,0h0l0-.05a.67.67,0,0,0-.31.05h0l0,.08a.27.27,0,0,1,0,.12s0,0,0,0,0,0,0,0a.26.26,0,0,0,0-.11.49.49,0,0,0-.07-.11h0a.59.59,0,0,0-.25-.05l0,0,.06.05s0,0,0,0,0,0,0,0l-.06,0,0-.05h0l-.22.06-.16,0a.58.58,0,0,1,.1.12l.06.16s0,0,0,0h0a.34.34,0,0,0-.06-.15.6.6,0,0,0-.09-.13s0,0,0,0a.33.33,0,0,1-.14,0l.06.1a0,0,0,0,1,0,0h0l0-.11-.12,0,0,.16a1.77,1.77,0,0,1,0,.24s0,0,0,0,0,0,0,0a1.94,1.94,0,0,0,0-.24,1.29,1.29,0,0,0,0-.19l-.06-.05A.44.44,0,0,0,77,29.4v.07a.24.24,0,0,1,0,.13h0a0,0,0,0,1,0,0,.21.21,0,0,0,0-.11.11.11,0,0,0,0-.08.89.89,0,0,0-.28-.07.61.61,0,0,1,.07.1l.08.13a.19.19,0,0,1,.07.12.53.53,0,0,1,0,.13h0s0,0,0,0a.59.59,0,0,0,0-.13.27.27,0,0,0-.06-.1h0a.54.54,0,0,0-.07-.13.47.47,0,0,0-.09-.12h-.1l0,0a.14.14,0,0,1,0,.07,0,0,0,0,1,0,0h0a.07.07,0,0,0,0-.06s0,0,0,0h-.21a1.17,1.17,0,0,1,.17.28,1.19,1.19,0,0,1,.1.32s0,0,0,0h0a1.19,1.19,0,0,0-.1-.32,1.22,1.22,0,0,0-.17-.29h0l-.16,0,.06.05.06.06a0,0,0,0,1,0,0s0,0,0,0l-.06-.05-.08-.06-.08,0-.05,0,.14.11a1.15,1.15,0,0,1,.14.17s0,0,0,0a0,0,0,0,1,0,0,.79.79,0,0,0-.14-.17l-.15-.12h-.17l.09.21a2,2,0,0,1,.05.24h0s0,0,0,0a1,1,0,0,0-.05-.23,2,2,0,0,0-.09-.22h-.11a1.17,1.17,0,0,1,0,.2c0,.08,0,.16,0,.24s0,0,0,0a0,0,0,0,1,0,0c0-.09,0-.17,0-.25l-.06-.21a1,1,0,0,0-.35-.27.41.41,0,0,1,.07.11.58.58,0,0,1,0,.19s0,0,0,0,0,0,0,0a.38.38,0,0,0,0-.18.42.42,0,0,0-.09-.14l-.1,0-.26,0c.06.06.12.12.11.19h0s0,0,0,0-.06-.12-.14-.19h-.16l.08.09a.61.61,0,0,1,0,.12h0a.38.38,0,0,0,0,.16.32.32,0,0,0,.12.11s0,0,0,0,0,0,0,0a.24.24,0,0,1-.13-.11.35.35,0,0,1,0-.18.56.56,0,0,0-.15-.21h-.17a1.6,1.6,0,0,1,0,.21,2.46,2.46,0,0,1,0,.28,0,0,0,0,1,0,0s0,0,0,0a1.18,1.18,0,0,0,0-.27,1.42,1.42,0,0,0-.05-.22h0a.25.25,0,0,0-.13-.12v0l0,.06h0s0,0,0,0,0,0,0-.05v0h0c0-.12,0-.17-.15-.21a.38.38,0,0,1,0,.1A.33.33,0,0,1,74,29s0,0,0,0,0,0,0,0a.31.31,0,0,0,0-.12s0-.07,0-.1h0c0-.17-.06-.26-.23-.32v.06a.5.5,0,0,1,0,.12,0,0,0,0,1,0,0h0a.22.22,0,0,0,0-.11.34.34,0,0,0,0-.1l-.13-.12a.57.57,0,0,1,0,.18.72.72,0,0,1-.1.22h0s0,0,0,0a1,1,0,0,0,.09-.22.64.64,0,0,0,0-.2l0-.07h0l0,0h0s0,0,0,0l0,0,0,0v0a.16.16,0,0,0-.07-.13h0s0,0,0,.05l-.05.07h0a0,0,0,0,1,0,0l0-.08,0-.06a.21.21,0,0,1,0-.06l0,0,0,.06h0s0,0,0,0l0,0s0,0,0-.05,0,0,0-.05a.27.27,0,0,0-.06-.19h0l-.08,0a.37.37,0,0,0-.12.07h0s0,0,0,0l.13-.08.1,0a.13.13,0,0,0,0-.06.88.88,0,0,1-.31.07.4.4,0,0,1-.2,0s0,0,0,0,0,0,0,0a.37.37,0,0,0,.19,0,.79.79,0,0,0,.3-.07h0a.88.88,0,0,0,0-.15H73.2s0,0,0,0,0,0,0,0h.15a.07.07,0,0,1,0-.05c0-.06.07-.07.11,0l.11.1a.22.22,0,0,0,.23,0h-.06s0,0,0,0h0l.07,0h0a.42.42,0,0,0,.36-.12H74a.74.74,0,0,1-.19-.05,0,0,0,0,1,0,0s0,0,0,0a.61.61,0,0,0,.17,0h.26l0,0a.32.32,0,0,0,.12-.08,1.34,1.34,0,0,1-.52-.14.44.44,0,0,0-.18-.09.62.62,0,0,0-.36.07l-.08-.07-.12,0a1,1,0,0,1-.17,0s0,0,0,0,0,0,0,0h.17l.16,0a1.53,1.53,0,0,1,.46-.1,1.41,1.41,0,0,1,.46-.05h0s0,0,0,0a.23.23,0,0,0,.08-.23.59.59,0,0,0-.21-.21c-.11,0-.22,0-.34,0a.79.79,0,0,0-.22.05.33.33,0,0,1,.15.11.53.53,0,0,1,.12.25s0,0,0,0,0,0,0,0a.41.41,0,0,0-.1-.23.37.37,0,0,0-.2-.11,1.86,1.86,0,0,0-.34,0,.54.54,0,0,0-.19.08.33.33,0,0,1,.22,0,.28.28,0,0,1,.16.19s0,0,0,0,0,0,0,0a.26.26,0,0,0-.13-.17.55.55,0,0,0-.43.07,1.1,1.1,0,0,0-.16.15s0,0,0,0a0,0,0,0,1,0-.05,1.25,1.25,0,0,1,.17-.16.38.38,0,0,1,.18-.09.58.58,0,0,1,.27-.14,3.17,3.17,0,0,1,.35-.06.25.25,0,0,0-.14-.13.38.38,0,0,0-.19,0,1.41,1.41,0,0,0-.4.22h.13s0,0,0,0-.09,0-.12,0h-.13a4,4,0,0,0-.39.29h0a.39.39,0,0,0-.24,0s0,.08,0,.15a1.08,1.08,0,0,0,0,.21,1.19,1.19,0,0,0-.35.39.27.27,0,0,1-.07.13l.07,0s0,0,0,0,0-.06,0-.09a.3.3,0,0,1,0-.1s0,0,0,0,0,0,0,0a.3.3,0,0,0,0,.1.61.61,0,0,0,0,.14h0a.16.16,0,0,0,0-.06l-.07,0a.39.39,0,0,1-.1.08s0,.05,0,.08.07.08.14.08,0,.1.12.18l.11.11a.17.17,0,0,0,.14,0c0-.11,0-.17,0-.17h0s0,0,0,0,0,0,0-.06,0,0,0,0,0,0,0,0l0,.05s0,0,0,.05,0,0,0,.1a.82.82,0,0,1,.26-.06c.18-.2.25-.15.1,0l0,0a.34.34,0,0,0,0,.17s-.27.21-.19.28.1,0,.08,0-.11.18-.09.24,0,0,.08,0h0l.18-.16.15-.22s0,0,0,0l.06-.19.08-.2a0,0,0,0,1,0,0,.16.16,0,0,0,.07.07.07.07,0,0,0,.12,0,.15.15,0,0,0,.07-.07,0,0,0,0,1,0,0s0,0,0,0l-.07.08a.12.12,0,0,1-.08,0l-.08,0-.06-.07c0,.06-.05.12-.07.17l-.06.2a0,0,0,0,1,0,0,.94.94,0,0,1-.16.23l-.15.14a.65.65,0,0,0,0,.13,2.16,2.16,0,0,0,.27-.25,1.89,1.89,0,0,0,.2-.27s0,0,0,0,0,0,0,0l-.09.14v0s0,0,0,.08a1,1,0,0,0,0,.18v0s0,0,0,0a1.08,1.08,0,0,1,0-.18v0l-.06.07a3.38,3.38,0,0,1-.27.26h0c-.08.07-.15.09,0,.17L72.2,29l.1-.07s0,0,0,0a0,0,0,0,1,0,0l-.1.07-.1.07a.3.3,0,0,0,0,.1h0l.22-.16h0s0,0,0,0l-.2.15,0,0c-.07.05-.31.2-.29.3h0a.64.64,0,0,0,.18-.06.61.61,0,0,0,.16-.13h0s0,0,0,0a.52.52,0,0,1-.17.13h0v.06s0,0,0,0,0,0,0,0v0h0l-.15.05a.35.35,0,0,1-.08.26s-.27.23-.17.28l.09,0Z"/><path class="cls-8" d="M71.83,26.7a.58.58,0,0,0-.18-.08.32.32,0,0,0-.13-.15s0,0,0-.06.07,0,.07,0h.07a.09.09,0,0,1,.06,0h0s0,0,0,0l-.07,0-.09,0h-.1s-.07-.07,0-.12h0l.08,0,.06,0s0,0,0,0,0,0,0,0l-.07,0-.06,0a.81.81,0,0,1,.59.07.43.43,0,0,1,.19.16l0,0a.49.49,0,0,0-.27.06.22.22,0,0,0-.06.18Z"/><path d="M76,32.47l-.11.05h0a.64.64,0,0,1,.1-.13v.09Z"/><path d="M76.5,33.59l-.1.11-.13.1h0s0,0,0,0l.13-.09a.31.31,0,0,0,.09-.11h0S76.5,33.58,76.5,33.59Z"/><path d="M76.84,33.17a.22.22,0,0,1,0,.08h0s0,0,0,0a.22.22,0,0,1,0-.08h0s0,0,0,0Z"/><path d="M76.65,33.15a.25.25,0,0,1,0,.11.38.38,0,0,1-.12.09s0,0,0,0,0,0,0,0a.21.21,0,0,0,.1-.08.19.19,0,0,0,0-.1h0S76.66,33.14,76.65,33.15Z"/><path d="M77,32.73l0,.05,0,.06h0s0,0,0,0l0-.06,0-.06h0s0,0,0,0Z"/><path d="M77.27,32.76a.56.56,0,0,1,0,.12.61.61,0,0,1,0,.12h0a.67.67,0,0,0,.06-.12l0-.12h0Z"/><path d="M77.14,31.14a.65.65,0,0,1,.11.39.57.57,0,0,1,0-.14h0a.51.51,0,0,0,.07-.15.38.38,0,0,0,0-.15v0s0,0,0,0a.43.43,0,0,1,0,.16.79.79,0,0,1-.08.16,2,2,0,0,0,0,.26v0s0,0,0,0v0a.77.77,0,0,0-.11-.49s0,0,0,0,0,0,0,0Z"/><path d="M76.93,31.41v.07h0s0,0,0,0v-.06s0,0,0,0S76.93,31.41,76.93,31.41Z"/><path d="M76.88,31.78c0,.07,0,.14.05.21s0,.11,0,.16l0,0a.22.22,0,0,1,.09-.07h0s0,0,0,0a.27.27,0,0,0-.08.07.2.2,0,0,0,0,.08s0,0,0,0a1.64,1.64,0,0,0,0-.22,1.6,1.6,0,0,0-.05-.21s0,0,0,0Z"/><path d="M77.17,31.91a1,1,0,0,1,0,.17v.15h0s0,0,0,0a.65.65,0,0,0,0-.14.88.88,0,0,0,0-.16s0,0,0,0S77.17,31.9,77.17,31.91Z"/><path d="M77.42,31.86a.92.92,0,0,1,0,.16.35.35,0,0,1,0,.14.26.26,0,0,0,0,.15.75.75,0,0,0,0,.16s0,0,0,0,0,0,0,0a.52.52,0,0,1-.06-.16.32.32,0,0,1,0-.17h0a.35.35,0,0,0,0-.14.34.34,0,0,0,0-.14s0,0,0,0,0,0,0,0Z"/><path d="M77.54,31.45s0,.05,0,.08a.31.31,0,0,1,0,.08,0,0,0,0,1,0,0s0,0,0,0a.24.24,0,0,1,0-.08s0-.05,0-.08h0s0,0,0,0Z"/><path d="M77.42,30.76l0,.07a0,0,0,0,1,0,0,0,0,0,0,1,0,0l0-.08a0,0,0,0,1,0,0s0,0,0,0Z"/><path d="M77.48,30.23v.21a.17.17,0,0,0-.06.1.24.24,0,0,0,0,.15s0,0,0,0,0,0,0,0a.32.32,0,0,1,0-.17.18.18,0,0,1,.07-.11v-.19s0,0,0,0,0,0,0,0Z"/><path d="M77,30.05a.7.7,0,0,1,.2.18.4.4,0,0,1,.07.24s0,0,0,0l-.14-.05a.9.9,0,0,1,0,.47.4.4,0,0,1-.25.26s0,0,0,0a.79.79,0,0,0,0-.22,1.62,1.62,0,0,0,0-.22s0,0,0,0a0,0,0,0,1,0,0,.6.6,0,0,1,0,.23.64.64,0,0,1,0,.2.37.37,0,0,0,.21-.23.94.94,0,0,0,0-.48s0,0,0,0l.14.06a.38.38,0,0,0-.07-.21.64.64,0,0,0-.19-.17,0,0,0,0,1,0,0s0,0,0,0Z"/><path d="M78.33,29.78l0,0v0s0,0,0,0,0,0,0,0v-.05s0,0,0,0S78.33,29.77,78.33,29.78Z"/><path d="M78,29.77l.07,0a.21.21,0,0,1,0,.06s0,0,0,0,0,0,0,0l0-.05a.09.09,0,0,0-.06,0s0,0,0,0,0,0,0,0Z"/><path d="M77.53,29.91a.4.4,0,0,1,.07.13.48.48,0,0,1,0,.17h0s0,0,0,0a.71.71,0,0,0,0-.15.23.23,0,0,0-.06-.12s0,0,0,0,0,0,0,0Z"/><path d="M75.91,30.06v.06a.07.07,0,0,0,0,.05h0a.13.13,0,0,0,0-.06v-.05h0Z"/><path d="M76.21,29.9l0,.08v0s0,0,0,0,0,0,0,0v0a.24.24,0,0,1,0-.08s0,0,0,0Z"/><path d="M76.83,30.32v.06s0,0,0,0,0,0,0,0v-.06s0,0,0,0,0,0,0,0Z"/><path d="M77,29.85a.08.08,0,0,1,0,0s0,0,0,.05h0v0s0,0,0,0l0,0s0,0,0,0,0,0,0,0Z"/><path d="M75.57,29.92a.3.3,0,0,0,0,.1.35.35,0,0,0,0,.08.3.3,0,0,1,.06.11.41.41,0,0,1,0,.11h0a.31.31,0,0,0,0-.1.19.19,0,0,0,0-.1.24.24,0,0,1-.06-.09.43.43,0,0,1,0-.11s0,0,0,0,0,0,0,0Z"/><path d="M76.16,30.32a.32.32,0,0,1,.06.18.61.61,0,0,1,0,.19.26.26,0,0,0,0,.21.58.58,0,0,0,.17.18.66.66,0,0,1,0-.24.43.43,0,0,1,.09-.26.24.24,0,0,0,.06-.11l0-.11h0s0,0,0,0a.5.5,0,0,1,0,.12l-.06.12a.4.4,0,0,0-.09.24.63.63,0,0,0,0,.27,0,0,0,0,1,0,0,.69.69,0,0,1-.21-.21.34.34,0,0,1,0-.24,1,1,0,0,0,0-.17.49.49,0,0,0-.06-.17s0,0,0,0,0,0,0,0Z"/><path d="M75.93,30.69a.45.45,0,0,1-.05.19.86.86,0,0,1-.1.16l.06,0L76,31a.46.46,0,0,0,.07-.07.39.39,0,0,0,.08-.1s0,0,0,0a0,0,0,0,1,0,0l-.09.1L76,31v.09s0,0,0,0h0V31l-.1.06-.11,0s0,0,0,0a1.07,1.07,0,0,0,.13-.19.41.41,0,0,0,.05-.18s0,0,0,0S75.93,30.68,75.93,30.69Z"/><path d="M75.64,30.66v.07h0v-.07a0,0,0,0,1,0,0S75.64,30.66,75.64,30.66Z"/><path d="M75.45,30.31a.49.49,0,0,1,0,.26.61.61,0,0,1-.11.23h0a.37.37,0,0,0-.13.17.5.5,0,0,0,0,.13l0-.06a.47.47,0,0,1,.14-.08l.16-.1a.93.93,0,0,0,.14-.14h0v0l-.15.14L75.4,31h0a.24.24,0,0,0-.12.07l-.09.12s0,0,0,0a.79.79,0,0,1,.06-.22.75.75,0,0,1,.14-.17.49.49,0,0,0,.1-.22.53.53,0,0,0,0-.24s0,0,0,0,0,0,0,0Z"/><path d="M76,31.25s0,.05,0,.1l0,0a.44.44,0,0,1,.07.22,2,2,0,0,1,0,.24s0,0,0,0a.48.48,0,0,0-.1-.23,1.29,1.29,0,0,0-.21-.19s0,0,0,0h0a1,1,0,0,1,.22.19.61.61,0,0,1,.09.18,1,1,0,0,0,0-.17.31.31,0,0,0-.07-.2l0,0c0-.06-.06-.09,0-.12s0,0,0,0a0,0,0,0,1,0,0Z"/><path d="M76.3,31.24l0,0,0,0s0,0,0,0h0l0,0,0,0s0,0,0,0Z"/><path d="M76.6,31.34c0,.06,0,.12,0,.18l-.06.19h0a0,0,0,0,1,0,0l.06-.19.06-.18s0,0,0,0S76.61,31.33,76.6,31.34Z"/><path d="M76.78,32.37a0,0,0,0,0,0,.05h0a.08.08,0,0,1,0-.07h0v0Z"/><path d="M76.6,32.07l0,.09,0,.1s0,0,0,0,0,0,0,0,0-.07,0-.1l0-.1s0,0,0,0S76.6,32.06,76.6,32.07Z"/><path d="M76.33,32.07l0,0v0h0l0,0s0,0,0,0Z"/><path d="M76,31.92l0,0s0,0,0,.06h0s0,0,0,0A.14.14,0,0,1,76,32s0,0,0-.05,0,0,0,0,0,0,0,0Z"/><path d="M75.58,32.39s0,0,0,.06,0,0,0,.06,0,0,0,0,0,0,0,0,0,0,0-.07a.18.18,0,0,1,0-.07h0s0,0,0,0Z"/><path d="M74.31,33.63l0,0,0,0h0s0,0,0,0l0,0s0,0,0,0h0s0,0,0,0Z"/><path d="M74.5,33.53l0,0,0,0a0,0,0,0,1,0,0,0,0,0,0,1,0,0,.05.05,0,0,0,0,0l0,0s0,0,0,0,0,0,0,0Z"/><path d="M74.77,33.37l0,0,0,0a0,0,0,0,1,0,0s0,0,0,0,0,0,0,0l0,0h0s0,0,0,0Z"/><path d="M75.17,32.33a.26.26,0,0,0,0,.11.37.37,0,0,0,0,.11s0,0,0,0h0a.49.49,0,0,1,0-.12l0-.12h0v0Z"/><path d="M75.44,29.58a.16.16,0,0,1,0,.09.24.24,0,0,1-.06.09h0s0,0,0,0l.06-.08a.24.24,0,0,0,0-.08h0Z"/><path d="M75.16,29.34a.61.61,0,0,1,0,.12.28.28,0,0,1,0,.13s0,0,0,0a0,0,0,0,1,0,0,.49.49,0,0,0,0-.12.56.56,0,0,0,0-.12s0,0,0,0S75.16,29.33,75.16,29.34Z"/><path d="M74.79,29.79a.33.33,0,0,1-.1-.11.18.18,0,0,1,0-.12h0s0,0,0,0a.13.13,0,0,0,0,.1l.1.1s0,0,0,0,0,0,0,0Z"/><path d="M75.2,30.48v.06s0,0,0,0,0,0,0,0v-.06s0,0,0,0S75.2,30.47,75.2,30.48Z"/><path d="M74.68,30a.57.57,0,0,1,.16.27,1.23,1.23,0,0,1,0,.2h0a.14.14,0,0,0,.08-.1.67.67,0,0,0,0-.23h0A.88.88,0,0,0,75,30a.58.58,0,0,0,0-.14s0,0,0,0a1.13,1.13,0,0,1,.12.21.73.73,0,0,1,.07.24s0,0,0,0h0a.94.94,0,0,0-.06-.24l-.1-.17a.43.43,0,0,1,0,.11.47.47,0,0,1-.06.15.67.67,0,0,1,0,.23.21.21,0,0,1-.1.12h0v.1s0,0,0,0,0,0,0,0a.85.85,0,0,0,0-.32.46.46,0,0,0-.15-.26s0,0,0,0,0,0,0,0Z"/><path d="M75,31.25l0,.11,0,.11s0,0,0,0,0,0,0,0l0-.11,0-.11s0,0,0,0S75,31.25,75,31.25Z"/><path d="M74.4,31.5l0,.08s0,0,0,0,0,0,0,0l0-.08s0,0,0,0a0,0,0,0,1,0,0Z"/><path d="M74.91,30.83a.43.43,0,0,1,0,.16.6.6,0,0,1-.09.15h0a.33.33,0,0,0-.08.17.37.37,0,0,0,0,.18s0,0,0,0,0,0,0,0a.41.41,0,0,1,0-.19.37.37,0,0,1,.09-.19.42.42,0,0,0,.09-.14.83.83,0,0,0,0-.15h0Z"/><path d="M74.77,30.64a.23.23,0,0,1,0,.16.44.44,0,0,1-.1.15h0a.63.63,0,0,0-.11.13l-.06.14h0v0a.61.61,0,0,1,.07-.14.49.49,0,0,1,.11-.14.94.94,0,0,0,.1-.14.26.26,0,0,0,0-.15s0,0,0,0,0,0,0,0Z"/><path d="M74.13,30.94a.43.43,0,0,1,0,.28.6.6,0,0,1-.18.21,0,0,0,0,1,0,0s0,0,0,0a.79.79,0,0,0,.17-.2.45.45,0,0,0,0-.26s0,0,0,0a0,0,0,0,1,0,0Z"/><path d="M73.31,31.4a.08.08,0,0,1,0,.05l0,.05s0,0,0,0h0l0-.05,0-.05s0,0,0,0Z"/><path d="M73,31.4a.58.58,0,0,0,0,.19.44.44,0,0,0,.08.17h0a.65.65,0,0,1,0,.13.28.28,0,0,1,0,.09.38.38,0,0,0,.09-.13.29.29,0,0,0,0-.16s0,0,0,0a0,0,0,0,1,0,0,.39.39,0,0,1,0,.18,1.33,1.33,0,0,1-.12.16h0s0-.09,0-.13a.53.53,0,0,0,0-.12.38.38,0,0,1-.09-.18.58.58,0,0,1,0-.19h0Z"/><path d="M73,32.51a.44.44,0,0,1,0-.1.19.19,0,0,1,0-.1s0,0,0,0,0,0,0,0l0,.1s0,.06,0,.1h0s0,0,0,0Z"/><path d="M73,32.82l0-.12s0,0,0,0,0,0,0,0l0,.12s0,0,0,0S73,32.83,73,32.82Z"/><path d="M72.78,33.34l.06-.07a.36.36,0,0,0,0-.09h0s0,0,0,0l-.06.09-.06.07h0s0,0,0,0Z"/><path d="M72.47,31.6v0s0,0,0,0,0,0,0,0v0s0,0,0,0A0,0,0,0,1,72.47,31.6Z"/><path d="M72,32.8v-.07s0,0,0,0h0v.08s0,0,0,0,0,0,0,0Z"/><path d="M73.26,30.67a.91.91,0,0,0-.05.27.22.22,0,0,0,.08.18.36.36,0,0,1,.13.17h0a.3.3,0,0,0,0-.1v-.11s0,0,0,0h0v.13l0,.13s0,0,0,0l0,0a.29.29,0,0,0-.11-.16.25.25,0,0,1-.1-.2.92.92,0,0,1,0-.28s0,0,0,0,0,0,0,0Z"/><path d="M73.17,30.32a.66.66,0,0,1,0,.2,1,1,0,0,1-.06.21.75.75,0,0,0,0,.26.9.9,0,0,0,.07.27s0,0,0,0,0,0,0,0A.68.68,0,0,1,73,31a.61.61,0,0,1,0-.27.89.89,0,0,0,.06-.2.45.45,0,0,0,0-.2,0,0,0,0,1,0,0S73.17,30.31,73.17,30.32Z"/><path d="M72.56,31.18a.32.32,0,0,0,0,.13.49.49,0,0,0,.06.13v0h0a.24.24,0,0,1,0-.14.23.23,0,0,1,0-.14s0,0,0,0,0,0,0,0Z"/><path d="M72.29,31.09a.19.19,0,0,1,0,.08.14.14,0,0,1,0,.07h0s0,.05,0,.07,0,.05,0,.08,0,0,0,0,0,0,0,0a.2.2,0,0,1,0-.08.28.28,0,0,1,0-.09.14.14,0,0,0,0-.06v-.08s0,0,0,0,0,0,0,0Z"/><path d="M73.84,28.8a.66.66,0,0,0,0,.2.64.64,0,0,0,.08.19v0h0a.62.62,0,0,1-.07-.19.54.54,0,0,1,0-.22h0s0,0,0,0Z"/><path d="M73.65,29a1.89,1.89,0,0,1,.09.21,1,1,0,0,1,0,.25v0s0,0,0,0a.85.85,0,0,0-.05-.24.72.72,0,0,0-.09-.2s0,0,0,0A0,0,0,0,1,73.65,29Z"/><path d="M72.69,29a.58.58,0,0,0-.14.34.4.4,0,0,0,0,.24h0a.54.54,0,0,1,0,.22,1,1,0,0,1,0,.22h0s0,0,0,0a.78.78,0,0,0,0-.21.76.76,0,0,0,0-.21.46.46,0,0,1-.06-.26.76.76,0,0,1,.14-.34h0s0,0,0,0Z"/><path d="M73.58,28.63a.17.17,0,0,1,0,.12.31.31,0,0,1-.09.11.22.22,0,0,0-.08.13.42.42,0,0,0,0,.19,0,0,0,0,1,0,0s0,0,0,0a.45.45,0,0,1,0-.2.24.24,0,0,1,.09-.14.23.23,0,0,0,.07-.1.18.18,0,0,0,0-.1s0,0,0,0Z"/><path d="M72.63,28.71a.37.37,0,0,1,0,.18.48.48,0,0,1-.11.17h0a.31.31,0,0,0-.1.15,1.2,1.2,0,0,0,0,.2,0,0,0,0,1,0,0s0,0,0,0a1.3,1.3,0,0,1,0-.21.34.34,0,0,1,.1-.16.47.47,0,0,0,.1-.16.43.43,0,0,0,0-.16s0,0,0,0,0,0,0,0Z"/><path d="M73.18,28.74a.06.06,0,0,0,0,.06.14.14,0,0,0,0,.06s0,0,0,0a0,0,0,0,1,0,0,.13.13,0,0,1,0-.07v-.07h0Z"/><path d="M73.15,28.6a.2.2,0,0,0-.11.11.36.36,0,0,0-.05.19h0a.31.31,0,0,1,.06.13.88.88,0,0,1,0,.17,0,0,0,0,1,0,0s0,0,0,0A.47.47,0,0,0,73,29a.36.36,0,0,0,0-.11.42.42,0,0,0-.16.32.65.65,0,0,0,.13.39s0,0,0,0a0,0,0,0,1,0,0,.84.84,0,0,1-.14-.41.49.49,0,0,1,.17-.34h0a.65.65,0,0,1,.05-.22.37.37,0,0,1,.13-.12h0s0,0,0,0Z"/><path d="M73,28.4v0a.22.22,0,0,1-.06.18.24.24,0,0,0-.06.09.36.36,0,0,0,0,.1s0,0,0,0h0a.35.35,0,0,1,0-.11.21.21,0,0,1,.06-.1s0-.1.06-.16v0s0,0,0,0v0Z"/><path d="M74.51,30s0,.07,0,.11,0,.07,0,.11h0a.41.41,0,0,0,0-.11.69.69,0,0,0,0-.1v0Z"/><path d="M74.51,30.51a.48.48,0,0,1,0,.17.64.64,0,0,1-.06.18l-.06.15h0a0,0,0,0,1,0,0l.06-.15h0a.49.49,0,0,0,.06-.17.29.29,0,0,0,0-.16s0,0,0,0S74.51,30.5,74.51,30.51Z"/><path d="M74.2,30a.72.72,0,0,1,.17.32.63.63,0,0,1,0,.36s0,0,0,0,0,0,0,0a.79.79,0,0,0,0-.34.86.86,0,0,0-.17-.31s0,0,0,0Z"/><path d="M74.17,30.6a1.62,1.62,0,0,1-.1.18l-.13.17a.5.5,0,0,0-.08.12.54.54,0,0,0-.07.13s0,0,0,0a.32.32,0,0,0,0-.13.61.61,0,0,0,0-.12h0a.41.41,0,0,1-.07-.23.37.37,0,0,1,.09-.22.47.47,0,0,0,.06-.15.5.5,0,0,0,0-.16s0,0,0,0,0,0,0,0a.9.9,0,0,1,0,.16,1.22,1.22,0,0,1-.07.17h0a.37.37,0,0,0-.08.21.26.26,0,0,0,.06.2h0a.42.42,0,0,1,.06.14.13.13,0,0,1,0,.06.3.3,0,0,0,0-.08l.09-.11.13-.18a1,1,0,0,0,.1-.17s0,0,0,0,0,0,0,0Z"/><path d="M73.34,30.34a1.23,1.23,0,0,0,0,.19.87.87,0,0,0,.07.17,0,0,0,0,1,0,0h0a.36.36,0,0,1-.07-.17.68.68,0,0,1,0-.2s0,0,0,0,0,0,0,0Z"/><path d="M72.87,30.59v.08h0v-.08s0,0,0,0S72.87,30.58,72.87,30.59Z"/><path d="M73,30.16a.34.34,0,0,1,0,.14.37.37,0,0,1-.07.12h0s0,0,0,0a.24.24,0,0,0,.06-.11.3.3,0,0,0,0-.13s0,0,0,0,0,0,0,0Z"/><path d="M72.61,31a.84.84,0,0,1-.08-.46.54.54,0,0,1,.15-.29.41.41,0,0,0,.12-.17.43.43,0,0,0,0-.24s0,0,0,0,0,0,0,0a.46.46,0,0,1,0,.25.75.75,0,0,1-.13.18.5.5,0,0,0-.14.27.87.87,0,0,0,.07.45s0,0,0,0,0,0,0,0Z"/><path d="M72.36,30.68a.28.28,0,0,0,0,.09.32.32,0,0,0,0,.09s0,0,0,0,0,0,0,0l0-.1a.22.22,0,0,1,0-.11s0,0,0,0,0,0,0,0Z"/><path d="M73.56,29.83a.47.47,0,0,1,.09.22.42.42,0,0,1-.06.23s0,0,0,0,0,0,0,0a.37.37,0,0,0,.05-.22.32.32,0,0,0-.08-.2s0,0,0,0Z"/><path d="M73.94,29.54a.79.79,0,0,1,0,.22A.83.83,0,0,1,74,30h0a.58.58,0,0,0,0-.19.53.53,0,0,0-.12-.14s0,0,0,0h0a.44.44,0,0,1,.12.15.34.34,0,0,1,0,.12.71.71,0,0,0,0-.14.54.54,0,0,0,0-.21s0,0,0,0a0,0,0,0,1,0,0Z"/><path d="M74.16,29.23a.5.5,0,0,1,.11.19,1.19,1.19,0,0,1,0,.28h0a.56.56,0,0,0,0,.13.2.2,0,0,0,0,.11s0,0,0,0,0,0,0,0a.34.34,0,0,1,0-.12V29.7h0a.78.78,0,0,0,0-.27.4.4,0,0,0-.1-.18,0,0,0,0,1,0,0,0,0,0,0,1,0,0Z"/><path d="M73.57,29.17a.35.35,0,0,0-.06.14.48.48,0,0,0,0,.17v0a0,0,0,0,1,0,0,.54.54,0,0,1,0-.18.27.27,0,0,1,.07-.14s0,0,0,0A0,0,0,0,1,73.57,29.17Z"/><path d="M72.41,30a.53.53,0,0,1-.09.29,1,1,0,0,1-.21.19h0s0,0,0,0a.63.63,0,0,0,.21-.18.54.54,0,0,0,.09-.27h0Z"/><path d="M72.38,29.55a.28.28,0,0,1,0,.13.61.61,0,0,1,0,.12s0,0,0,0,0,0,0,0a.56.56,0,0,0,0-.12.37.37,0,0,0,0-.11s0,0,0,0a0,0,0,0,1,0,0Z"/><path d="M73.17,29.5v.26h0s0,0,0,0,0,0,0,0v-.28s0,0,0,0,0,0,0,0h0v0Z"/><path d="M73.36,29.15a.26.26,0,0,0-.08.19.41.41,0,0,0,0,.19.48.48,0,0,1,.08.32.84.84,0,0,1-.08.31s0,0,0,0,0,0,0,0a.86.86,0,0,0,.09-.3.56.56,0,0,0-.08-.3h0a.54.54,0,0,1,0-.21.31.31,0,0,1,.08-.21h0v0Z"/><path d="M72.14,27a.53.53,0,0,1,.28-.12.52.52,0,0,1,.29.06h.23s0,0,0,0h-.2a.72.72,0,0,1-.3.17.28.28,0,0,1-.23-.05s0,0,0,0,0,0,0,0a.26.26,0,0,0,.21.05.69.69,0,0,0,.25-.15.59.59,0,0,0-.25-.05.51.51,0,0,0-.26.12s0,0,0,0,0,0,0,0Z"/><path d="M72.41,26.93a.07.07,0,0,1,.07.07.08.08,0,0,1-.07.07.07.07,0,1,1,0-.14Z"/><path d="M72.89,27.35l.12-.08.08-.09h0s0,0,0,0a.39.39,0,0,1-.08.1.49.49,0,0,1-.13.08h0s0,0,0,0Z"/><path d="M73.88,26.94a.09.09,0,0,1,.07,0L74,27s0,0,0,0,0,0,0,0L74,27h-.08s0,0,0,0Z"/><path d="M73.31,27a.22.22,0,0,1,.1-.11.27.27,0,0,1,.18,0s0,0,0,0,0,0,0,0a.24.24,0,0,0-.15,0,.22.22,0,0,0-.09.1s0,0,0,0Z"/><path d="M73.38,27.05a.09.09,0,0,1,0-.06s0,0,.07,0h0v0a.09.09,0,0,0-.06,0,.08.08,0,0,0,0,0h0s0,0,0,0Z"/><path d="M72.44,27.37a.16.16,0,0,0,0,.07.14.14,0,0,0,0,.09h0s0,0,0,0a.31.31,0,0,1,0-.1s0-.05,0-.08,0,0,0,0,0,0,0,0Z"/><path d="M72.71,27.49v0h0v0s0,0,0,0S72.71,27.48,72.71,27.49Z"/><path d="M72.53,27.19h.19s0,0,0,0h-.1l-.09,0s0,0,0,0,0,0,0,0Z"/><path d="M72.71,26.68l-.06,0a.1.1,0,0,0,0,.05s0,0,0,0,0,0,0,0,0,0,0-.06a.11.11,0,0,1,.08,0s0,0,0,0Z"/><path d="M72.43,26.71l-.05,0,0,0s0,0,0,0,0,0,0,0,0,0,0,0l.06,0a0,0,0,0,1,0,0A0,0,0,0,1,72.43,26.71Z"/><path d="M72.25,26.71l0,0,0,.05s0,0,0,0,0,0,0,0a.1.1,0,0,1,0-.05l0,0s0,0,0,0S72.26,26.71,72.25,26.71Z"/><path d="M72,26.89l0,.05,0,.06a0,0,0,0,1,0,0s0,0,0,0l0-.06s0,0,.05-.05,0,0,0,0,0,0,0,0Z"/><path d="M72.05,27.14l0,0,0,0s0,0,0,0,0,0,0,0l0,0,0,0s0,0,0,0S72.06,27.13,72.05,27.14Z"/><path d="M71.83,27.2v.09s0,0,0,0a0,0,0,0,1,0,0V27.2h0Z"/><path d="M72.12,27.58l0,.14h0s0,0,0,0,0,0,0,0h0v-.14s0,0,0,0Z"/><path d="M72,27.45a.31.31,0,0,1,0,.1h0v-.1h0Z"/><path d="M71.79,26.26l.08,0a.56.56,0,0,1,0,.08s0,0,0,0h0a.43.43,0,0,0,0-.07l-.07,0s0,0,0,0,0,0,0,0Z"/><path d="M73.17,28.05a.58.58,0,0,1,0,.18.39.39,0,0,1,0,.18s0,0,0,0,0,0,0,0a.47.47,0,0,0,0-.17.38.38,0,0,0,0-.17h0S73.16,28.05,73.17,28.05Z"/><path d="M72.72,28.57a.75.75,0,0,1,.08-.18l.11-.15a.42.42,0,0,0,.08-.18.44.44,0,0,0,0-.2v0l0,0a.5.5,0,0,1,0,.21.48.48,0,0,1-.09.19l-.11.15a.51.51,0,0,0-.07.17h0s0,0,0,0Z"/><path d="M72.14,28.42a.43.43,0,0,1,0-.07l.07-.05h0s0,0,0,0l-.07,0s0,0,0,.06h0v0Z"/><path d="M72,28.38a.27.27,0,0,1,.07-.08l.08-.05s0,0,0,0,0,0,0,0a.18.18,0,0,0-.07.05l-.07.07s0,0,0,0,0,0,0,0Z"/><path d="M72.63,27.79h.15s0,0,0,0H72.7l-.08,0s0,0,0,0Z"/><path d="M72.33,27.75l0,0h0s0,0,0,0h0l0,0a0,0,0,0,1,0,0s0,0,0,0Z"/><path d="M78.77,29.6l0,0s0,0,0,.05,0,0,0,0h0s0,0,0-.05l0,0a0,0,0,0,1,0,0S78.76,29.6,78.77,29.6Z"/><path d="M71.62,33l.1.07a.35.35,0,0,0,.11,0h0a.24.24,0,0,1-.12,0A.41.41,0,0,1,71.6,33s0,0,0,0Z"/><path class="cls-5" d="M77,26.56a2.12,2.12,0,0,0,.45,0,1.1,1.1,0,0,1-.51.2.2.2,0,0,0,.07-.09A.08.08,0,0,0,77,26.56Z"/><path class="cls-5" d="M76.64,26.52a3,3,0,0,0,.31,0h0a.07.07,0,0,1,0,.07.23.23,0,0,1-.07.08s0,0,0,0a.74.74,0,0,1-.21,0h-.1a.24.24,0,0,0,.07-.13.28.28,0,0,0,0-.09Z"/><path class="cls-5" d="M73.84,25.71a3.25,3.25,0,0,1,.54,0,.26.26,0,0,1,.14.11.28.28,0,0,1,0,.21s0,0,0,0,0,0,0,0a.36.36,0,0,0,0-.24.27.27,0,0,0-.07-.08h.05a1.52,1.52,0,0,1,.56.17h0a.14.14,0,0,1,0,.13.22.22,0,0,1-.08.15s0,0,0,0,0,0,0,0a.44.44,0,0,0,.1-.17.31.31,0,0,0,0-.1l.46.24h0a.14.14,0,0,1,0,.11.19.19,0,0,1-.13.09s0,0,0,0,0,0,0,0,.13-.06.15-.11a.12.12,0,0,0,0-.12l.31.16h0a.12.12,0,0,1,0,.1.22.22,0,0,1-.11.1s0,0,0,0,0,0,0,0a.25.25,0,0,0,.13-.11.16.16,0,0,0,0-.1l.11.05a1.62,1.62,0,0,0,.35.09h0a.11.11,0,0,1,0,.09.21.21,0,0,1-.06.1s0,0,0,0h0a4.29,4.29,0,0,1-1.11-.38l-.14-.05-.41-.17h-.06A2.16,2.16,0,0,0,74,26h0a.3.3,0,0,0,0-.21.32.32,0,0,0-.12-.11Z"/><path class="cls-5" d="M73.19,25.89a2.29,2.29,0,0,1,.55-.16.32.32,0,0,1,.18.12A.25.25,0,0,1,74,26h-.24a1.14,1.14,0,0,0-.25.06.31.31,0,0,0-.17-.17l-.1,0Z"/><path class="cls-5" d="M75.18,26.89,75,26.8a1.89,1.89,0,0,0-.81-.23h0a.27.27,0,0,0,.09-.29.48.48,0,0,0-.18-.2,1.42,1.42,0,0,1,.29,0,2.17,2.17,0,0,1,.48.13.33.33,0,0,1,0,.23.32.32,0,0,1-.15.18s0,0,0,0,0,0,0,0a.32.32,0,0,0,.18-.2.42.42,0,0,0,0-.22,1.22,1.22,0,0,1,.28.17l.27.2a.22.22,0,0,1-.09.21.42.42,0,0,1-.23,0s0,0,0,0Z"/><path class="cls-5" d="M75.72,27.3c-.16-.13-.32-.26-.5-.38a.4.4,0,0,0,.25,0,.26.26,0,0,0,.11-.21l.3.25a.86.86,0,0,0,.14.13h0a.18.18,0,0,1,0,.1.09.09,0,0,1,0,.07s0,0-.07,0a.35.35,0,0,1-.18,0s0,0,0,0Z"/><path class="cls-5" d="M76.29,27.67l-.17-.09a3.9,3.9,0,0,1-.36-.25.33.33,0,0,0,.18,0,.23.23,0,0,0,.1-.05.18.18,0,0,0,0-.1.06.06,0,0,0,0-.06,2.18,2.18,0,0,0,.36.26l.2.12a0,0,0,0,0,0,0,.11.11,0,0,1-.08.11,1.3,1.3,0,0,1-.26,0s0,0,0,0Z"/><path class="cls-5" d="M76.89,27.91a3.18,3.18,0,0,1-.54-.21l.24,0c.07,0,.11-.07.11-.14a2.07,2.07,0,0,0,.34.15.11.11,0,0,1,0,.11.22.22,0,0,1-.13.09s0,0,0,0Z"/><path class="cls-5" d="M78.15,27.78s.12,0,.07,0a1.64,1.64,0,0,1-1.29.13.34.34,0,0,0,.16-.12.14.14,0,0,0,0-.11,2.2,2.2,0,0,0,.43.09.08.08,0,0,1,0,.07.29.29,0,0,1-.13.09s0,0,0,0,0,0,0,0a.39.39,0,0,0,.15-.11.12.12,0,0,0,0-.09,2.19,2.19,0,0,0,.57,0Z"/><path class="cls-5" d="M75.59,34.18a.39.39,0,0,0-.08.1.9.9,0,0,1-.32.09c0,.07,0,.1.1.11s.18-.09.19-.08,0,.12-.14.2,0,0,0,0,.37.1.51.06a.58.58,0,0,0,.33-.25s0-.1-.07-.15-.15,0-.13-.07A1.2,1.2,0,0,0,75.59,34.18Z"/><path class="cls-5" d="M71.55,32.91a.85.85,0,0,1-.28.15s-.14,0-.15.09.06.06.11,0,.17,0,0,.06a.06.06,0,0,0,0,.07.58.58,0,0,0,.57.06c.1-.06.15-.14.06-.23s0,0,0-.07l-.17,0-.1-.06Z"/><path class="cls-5" d="M74.2,33.83h0c0,.06.1,0,.18.09s.05.06,0,.12-.49.12-.63.05S73.7,34,73.7,34h.09l.14,0s0,0,0-.05,0,0,0,0a.28.28,0,0,1-.12,0h-.14s0,0,0,0,0,0,0,0l.19-.07,0,0,.33,0Z"/><path class="cls-5" d="M72.3,33.73s0,0-.06.07A.6.6,0,0,1,72,34c-.07,0,0,.07,0,.11s.12,0,.15-.11.09,0,.06,0a.49.49,0,0,0,0,.18s.15.08.18.08a.73.73,0,0,0,.32-.15c.07-.07.06-.13,0-.22h0l-.12,0-.15,0s0,0,0,0h0l-.18,0Z"/><path class="cls-5" d="M73,26.69h.08l.16,0a1.28,1.28,0,0,1,.46-.1,1.76,1.76,0,0,1,.46-.06h0s0,0,0,0a.2.2,0,0,0,.08-.23.47.47,0,0,0-.21-.21c-.11,0-.22,0-.34,0a.54.54,0,0,0-.22.05.39.39,0,0,1,.16.1.62.62,0,0,1,.11.26s0,0,0,0,0,0,0,0a.55.55,0,0,0-.1-.23c-.05-.08-.17-.1-.21-.12l-.33.05a.53.53,0,0,0-.2.09.44.44,0,0,1,.23,0,.36.36,0,0,1,.15.2s0,0,0,0,0,0,0,0a.27.27,0,0,0-.13-.16.51.51,0,0,0-.43.06,1.21,1.21,0,0,0-.16.16h0a2.43,2.43,0,0,1,.57.09Zm-.61-.11s0,0,0,0a1.36,1.36,0,0,1,.17-.17.76.76,0,0,1,.18-.09.58.58,0,0,1,.27-.14l.35,0a.27.27,0,0,0-.14-.14.39.39,0,0,0-.19,0,1.41,1.41,0,0,0-.4.22h.13s0,0,0,0-.09,0-.12,0h-.13a3,3,0,0,0-.34.26A.43.43,0,0,1,72.43,26.58Z"/><path class="cls-6" d="M87.71,41.73l5.53-12.54L89.16,22.6l-7.27,2.7L78.52,38.55a58.66,58.66,0,0,1,9.19,3.18Z"/><path class="cls-4" d="M80.66,30.13a67.22,67.22,0,0,1,10.56,3.66l-2.14,4.83a62,62,0,0,0-9.72-3.36Z"/><path class="cls-5" d="M89.43,37.85l1.42-3.23A66.34,66.34,0,0,0,80.44,31l-.84,3.31a62.53,62.53,0,0,1,9.87,3.42Z"/><path d="M81.46,33.53a.4.4,0,0,1,.3,0,.88.88,0,0,1,.29,0l.15-.05s0,0,0-.08a.18.18,0,0,1,0-.09.79.79,0,0,1-.29-.39c-.09,0-.13-.05-.14-.09h-.14a.39.39,0,0,1-.34-.1.26.26,0,0,1-.16-.13L81,32.44c0-.08,0-.18,0-.17a.28.28,0,0,0,.18,0,.49.49,0,0,1,.24,0,.38.38,0,0,0,.23-.14V32s0-.05.06-.05a.28.28,0,0,1,.23.14.44.44,0,0,1,.31.2c.18,0,.3.07.31.13s0,.11-.12.17v0a.5.5,0,0,1,.1.13.91.91,0,0,1,.28.17,2.42,2.42,0,0,1,1.27.52,5.17,5.17,0,0,1,1.1.33h.23a2.23,2.23,0,0,1,1.81.41,1.84,1.84,0,0,1,.59.17,1.27,1.27,0,0,0,.43.09,2,2,0,0,1,.69.19,1.15,1.15,0,0,1,.65.32c.11.13.08.25,0,.3s-.25.18-.49.09a.78.78,0,0,1-.53-.23,2.63,2.63,0,0,1-.66-.35.72.72,0,0,0-.33-.16.3.3,0,0,0-.21,0s0,0,0,0a.31.31,0,0,1,.11.21,2.42,2.42,0,0,1,0,.27.32.32,0,0,0,.17.24.82.82,0,0,0,.28.11c.06,0,.07,0,.07.08a2.12,2.12,0,0,0,.12.45s0,.06.09.1.07.23-.07.26a.79.79,0,0,1-.36.21c-.1,0-.14,0-.17-.05s-.1,0-.12-.07,0-.25.28-.18a0,0,0,0,1,0,0,.49.49,0,0,1,0-.24.26.26,0,0,0-.09,0,.9.9,0,0,1-.29-.16,3,3,0,0,0-.62-.38,1.12,1.12,0,0,1-.48-.18h-.2a.11.11,0,0,0-.14,0c-.06.07-.13.06-.21,0h-.28a.7.7,0,0,1-.14,0,.37.37,0,0,0-.28,0,.14.14,0,0,1-.18,0l-.09-.06c-.07,0-.12,0-.14-.06s-.15-.07-.15-.1c-.16,0-.08-.17,0-.17a2.1,2.1,0,0,1,.36,0,.37.37,0,0,0,.32-.06.58.58,0,0,1,.14-.13,1,1,0,0,1-.48-.12c-.31-.2-.56-.25-.76-.08a.16.16,0,0,1-.15,0,.26.26,0,0,0-.15,0,.56.56,0,0,1-.34,0,1.15,1.15,0,0,1-.49,0c-.14.07-.24.08-.3,0a1,1,0,0,1-.17-.1c-.09,0-.13,0-.13-.07s-.13,0-.13-.09,0-.1,0-.13a.27.27,0,0,1,.26,0l.14.08a.32.32,0,0,1,.17,0c0-.06.13-.06.24-.06a.58.58,0,0,1,.21-.07v0a.38.38,0,0,1-.22-.19.92.92,0,0,1-.42-.15.41.41,0,0,1-.25-.08.67.67,0,0,1-.2,0,.81.81,0,0,1-.38,0h-.22a.2.2,0,0,1-.26.06.38.38,0,0,0-.22-.14c-.07,0-.09-.05-.1-.08s-.07-.11,0-.15a.27.27,0,0,1,.26,0,.32.32,0,0,0,.14,0Z"/><path class="cls-4" d="M85.63,34.8s0,0-.09,0a1.23,1.23,0,0,1-.58-.1,1.09,1.09,0,0,0-.55-.2.43.43,0,0,1,.21-.11.84.84,0,0,1,.39,0,2.87,2.87,0,0,1,.52.12.45.45,0,0,1,.26.19v0a.5.5,0,0,1,.14.1l.08.09h-.19l-.2-.07Z"/><path d="M86.09,25.25v.06l.25,1.29-1,.86,0,0,.06,0,1.24.43.25,1.29v.06l0,0,1-.86,1.24.43.06,0v-.06L89,27.5l1-.87,0,0h-.06l-1.24-.43-.25-1.29,0-.06,0,0-1,.86-1.25-.43Z"/><path class="cls-8" d="M85.48,27.45l.92-.81,1.17.4Z"/><path class="cls-8" d="M87.72,27l.93-.8,1.16.4Z"/><path class="cls-8" d="M89.82,26.65l-.93.81-1.16-.41Z"/><path class="cls-8" d="M87.58,27.09l-.93.8-1.16-.4Z"/><path class="cls-8" d="M86.22,25.37l1.16.4L87.61,27Z"/><path class="cls-8" d="M87.72,27.09l1.16.41.23,1.2Z"/><path class="cls-8" d="M89.08,28.73l-1.16-.4-.24-1.21Z"/><path class="cls-8" d="M87.58,27l-1.16-.4-.23-1.2Z"/><path class="cls-8" d="M88.39,25l.23,1.2-.93.81Z"/><path class="cls-8" d="M87.64,27.13l.24,1.21-.93.8Z"/><path class="cls-8" d="M86.91,29.13l-.24-1.21.93-.8Z"/><path class="cls-8" d="M87.65,27l-.23-1.21.93-.8Z"/></g></svg>