<svg id="Layer_1" data-name="Layer 1" xmlns="http://www.w3.org/2000/svg" xmlns:xlink="http://www.w3.org/1999/xlink" viewBox="0 0 128 128"><defs><style>.cls-1{fill:none;}.cls-2{clip-path:url(#clip-path);}.cls-3{clip-path:url(#clip-path-2);}.cls-4{fill:#2d318d;}.cls-5{fill:#bf1f3e;}.cls-10,.cls-6{fill:#fff;}.cls-7,.cls-8{fill:#2e6d36;}.cls-10,.cls-11,.cls-12,.cls-15,.cls-7,.cls-9{fill-rule:evenodd;}.cls-16,.cls-9{fill:#e4b22b;}.cls-11,.cls-13{fill:#2c3584;}.cls-12,.cls-14{fill:#c02027;}.cls-15{fill:#4c3614;}</style><clipPath id="clip-path"><circle class="cls-1" cx="64" cy="64" r="64"/></clipPath><clipPath id="clip-path-2"><rect id="_Clipping_Path_" data-name="&lt;Clipping Path&gt;" class="cls-1" x="-45.71" width="219.43" height="128"/></clipPath></defs><title>Flag_circle_Haiti</title><g class="cls-2"><g id="HAITI"><g id="_Group_" data-name="&lt;Group&gt;"><g id="_Clip_Group_" data-name="&lt;Clip Group&gt;"><g class="cls-3"><rect id="_Path_" data-name="&lt;Path&gt;" class="cls-4" x="-45.71" width="219.43" height="128"/><rect id="_Path_2" data-name="&lt;Path&gt;" class="cls-5" x="-45.71" y="64.01" width="219.43" height="63.99"/><rect id="_Path_3" data-name="&lt;Path&gt;" class="cls-6" x="43.24" y="47.45" width="41.53" height="33.07"/><g id="_Clip_Group_2" data-name="&lt;Clip Group&gt;"><g class="cls-3"><path id="_Path_4" data-name="&lt;Path&gt;" class="cls-7" d="M72.36,71.36l-8.48.25-8.44.1s-4.34,1.59-6.11,2-1.53.94-2.9,1.24a10.75,10.75,0,0,1-1.87.37,2.88,2.88,0,0,0-1.32.65v4.59H84.76V76.16a7.52,7.52,0,0,0-1.32-.57,13.13,13.13,0,0,0-2.11-.68c-1.37-.3-1.14-.89-2.9-1.24a47.5,47.5,0,0,1-6.07-2.31Z"/><g id="_Group_2" data-name="&lt;Group&gt;"><path id="_Compound_Path_" data-name="&lt;Compound Path&gt;" class="cls-8" d="M84.81,80.56H43.24l-.05-4.63a3.15,3.15,0,0,1,1.37-.69,6.25,6.25,0,0,0,1.12-.19l.75-.18a3.07,3.07,0,0,0,1.2-.54,4,4,0,0,1,1.7-.71,62.85,62.85,0,0,0,6.1-2l8.45-.09,8.48-.25a46,46,0,0,0,6.07,2.3,3.89,3.89,0,0,1,1.69.71,3.1,3.1,0,0,0,1.23.54,11,11,0,0,1,1.61.5l.49.18a8.07,8.07,0,0,1,1.33.57l0,4.44ZM72.34,71.4l-8.46.25-8.44.09s-4.35,1.6-6.1,2a3.88,3.88,0,0,0-1.66.69,2.87,2.87,0,0,1-1.24.56l-.74.17a4.61,4.61,0,0,1-1.14.19,3.29,3.29,0,0,0-1.3.65v4.56l41.45,0V76.16a9.47,9.47,0,0,0-1.29-.53L83,75.44A10.79,10.79,0,0,0,81.32,75a3,3,0,0,1-1.24-.56,4,4,0,0,0-1.66-.69,46.61,46.61,0,0,1-6.08-2.3Z"/></g><polygon id="_Path_5" data-name="&lt;Path&gt;" class="cls-7" points="63.45 53.3 63.25 57.28 64.52 57.28 64.33 53.33 65.65 53.15 65.51 51.58 62.21 51.7 62.24 53.13 63.45 53.3"/><g id="_Group_3" data-name="&lt;Group&gt;"><path id="_Compound_Path_2" data-name="&lt;Compound Path&gt;" class="cls-8" d="M64.56,57.32H63.25l.17-4-1.18-.13-.05-1.47,3.32-.18.19,1.62-1.37.23.23,4Zm.92-5.74-3.27.16.07,1.39,1.18.13-.18,4,1.2,0-.17-3.91,1.34-.23-.17-1.52Z"/></g><polygon id="_Path_6" data-name="&lt;Path&gt;" class="cls-9" points="60.44 64.25 59.33 61.87 59.81 61.77 61.83 65.71 60.44 64.25"/><g id="_Group_4" data-name="&lt;Group&gt;"><path id="_Compound_Path_3" data-name="&lt;Compound Path&gt;" d="M62,65.94l-1.57-1.67L59.3,61.88l.51-.15L62,65.94Zm-2.21-4.16-.43.12,1.12,2.33,1.21,1.26-1.9-3.71Z"/></g><polygon id="_Path_7" data-name="&lt;Path&gt;" class="cls-10" points="57.89 59.07 59.12 62.42 59.74 62.42 57.89 59.07"/><g id="_Group_5" data-name="&lt;Group&gt;"><path id="_Compound_Path_4" data-name="&lt;Compound Path&gt;" d="M59.81,62.47h-.69l-1.26-3.38,2,3.38Zm-2-3.38,1.29,3.33.52,0-1.81-3.31Z"/></g><polygon id="_Path_8" data-name="&lt;Path&gt;" class="cls-9" points="61.6 61.16 62.2 61.15 63.34 65.86 63.09 67.34 61.6 61.16"/><g id="_Group_6" data-name="&lt;Group&gt;"><path id="_Compound_Path_5" data-name="&lt;Compound Path&gt;" d="M63.1,67.55l-1.54-6.38.64-.07,1.17,4.74-.27,1.71Zm-.93-6.4-.57,0,1.49,6,.19-1.31-1.11-4.69Z"/></g><polygon id="_Path_9" data-name="&lt;Path&gt;" class="cls-9" points="62.12 66.02 60.23 60.95 60.95 60.92 63.14 67.1 62.12 66.02"/><g id="_Group_7" data-name="&lt;Group&gt;"><path id="_Compound_Path_6" data-name="&lt;Compound Path&gt;" d="M63.24,67.26,62.09,66,60.2,61l.74-.09,2.3,6.38Zm-2.33-6.33-.68.06,1.93,5,.87.93-2.12-6Z"/></g><polygon id="_Path_10" data-name="&lt;Path&gt;" class="cls-10" points="59.34 58.08 60.13 61.59 60.76 61.59 59.34 58.08"/><g id="_Group_8" data-name="&lt;Group&gt;"><path id="_Compound_Path_7" data-name="&lt;Compound Path&gt;" d="M60.81,61.62h-.68l-.82-3.54,1.5,3.54Zm-1.5-3.54.86,3.51.54,0-1.4-3.47Z"/></g><polygon id="_Path_11" data-name="&lt;Path&gt;" class="cls-10" points="60.95 58.02 61.38 61.64 61.82 61.63 60.95 58.02"/><g id="_Group_9" data-name="&lt;Group&gt;"><path id="_Compound_Path_8" data-name="&lt;Compound Path&gt;" d="M61.34,61.69v0L60.91,58l.94,3.59-.51.08ZM60.91,58l.5,3.58.41,0L60.91,58Z"/></g><path id="_Path_12" data-name="&lt;Path&gt;" class="cls-11" d="M60.6,64.6l-5-5.48a4.22,4.22,0,0,0-1.29,3.53L60,67.1Z"/><g id="_Group_10" data-name="&lt;Group&gt;"><path id="_Compound_Path_9" data-name="&lt;Compound Path&gt;" d="M60,67.18l-5.74-4.51a4.16,4.16,0,0,1,1.27-3.58l5.07,5.48L60,67.18Zm-4.47-8a4.26,4.26,0,0,0-1.22,3.48L60,67l.6-2.44-5-5.44Z"/></g><path id="_Path_13" data-name="&lt;Path&gt;" class="cls-12" d="M63.5,67.61l-3.73-3.76c-1.57,0-.32,2.4-.25,2.7l4,3.39Z"/><g id="_Group_11" data-name="&lt;Group&gt;"><path id="_Compound_Path_10" data-name="&lt;Compound Path&gt;" d="M63.53,70l-4.14-3.71c-.22-.54-.67-1.62-.31-2.19a.78.78,0,0,1,.69-.32l3.75,3.78V70Zm-3.79-6.16a.83.83,0,0,0-.61.31c-.31.52.13,1.59.34,2.1.05.13.09.21.1.25l3.89,3.32V67.61l-3.72-3.74Z"/></g><polygon id="_Path_14" data-name="&lt;Path&gt;" class="cls-9" points="63.18 66.97 55.48 58.73 55.19 58.94 63.34 67.99 63.18 66.97"/><g id="_Group_12" data-name="&lt;Group&gt;"><path id="_Compound_Path_11" data-name="&lt;Compound Path&gt;" d="M63.38,68.12,63.3,68,55.15,59l.3-.27,7.76,8.25.17,1.18Zm-7.93-9.36-.24.21,8.06,8.91-.13-.9-7.69-8.22Z"/></g><polygon id="_Path_15" data-name="&lt;Path&gt;" class="cls-9" points="55.04 58.2 54.87 58.01 54.88 57.61 53.3 56.6 54.01 58.2 54.54 58.3 54.72 58.5 55.04 58.2"/><g id="_Group_13" data-name="&lt;Group&gt;"><polygon id="_Path_16" data-name="&lt;Path&gt;" points="54.7 58.55 54.52 58.32 54.01 58.25 53.26 56.63 54.91 57.58 54.91 57.83 54.85 57.61 53.27 56.63 54.04 58.18 54.57 58.26 54.72 58.44 55.02 58.18 55 58.13 55.07 58.23 54.7 58.55 54.7 58.55"/></g><path id="_Path_17" data-name="&lt;Path&gt;" class="cls-9" d="M54.23,58.78a3.41,3.41,0,0,1,1.16-1l.45.62-1,.81Z"/><g id="_Group_14" data-name="&lt;Group&gt;"><path id="_Compound_Path_12" data-name="&lt;Compound Path&gt;" d="M54.89,59.3l-.68-.48a3.06,3.06,0,0,1,1.16-1l.5.65-1,.86Zm.46-1.45a4.46,4.46,0,0,0-1.09,1l.62.4.92-.78-.45-.59Z"/></g><path id="_Path_18" data-name="&lt;Path&gt;" class="cls-11" d="M58.4,66.06l-6.3-5c-1.09,1.1-.18,4.5-.18,4.5l6.16,3.34Z"/><g id="_Group_15" data-name="&lt;Group&gt;"><path id="_Compound_Path_13" data-name="&lt;Compound Path&gt;" d="M58.11,68.94l-6.22-3.38c0-.16-.9-3.44.18-4.54l6.37,5-.33,2.92Zm-6-7.86c-1,1.06-.12,4.41-.11,4.45L58,68.81,58.37,66l-6.3-5Z"/></g><path id="_Path_19" data-name="&lt;Path&gt;" class="cls-12" d="M63.62,70.12,58.45,66c-1.77.26-.39,2.86-.28,3.14l5.48,3Z"/><g id="_Group_16" data-name="&lt;Group&gt;"><path id="_Compound_Path_14" data-name="&lt;Compound Path&gt;" d="M63.69,72.13l-5.53-3c-.32-.66-.92-2-.51-2.72a1,1,0,0,1,.79-.49l5.21,4.16,0,2ZM58.43,66a1,1,0,0,0-.71.46c-.39.71.23,2,.43,2.5L63.6,72V70.12L58.43,66Z"/></g><polygon id="_Path_20" data-name="&lt;Path&gt;" class="cls-9" points="63.42 69.27 52.21 60.85 51.96 61.11 63.73 70.31 63.42 69.27"/><g id="_Group_17" data-name="&lt;Group&gt;"><path id="_Compound_Path_15" data-name="&lt;Compound Path&gt;" d="M63.8,70.42l-.09-.09L51.93,61.15l.25-.32,11.27,8.41.35,1.18ZM52.19,60.88l-.21.27L63.66,70.2l-.28-.91L52.19,60.88Z"/></g><polygon id="_Path_21" data-name="&lt;Path&gt;" class="cls-9" points="51.68 60.4 51.47 60.25 51.42 59.85 49.68 59.13 50.66 60.58 51.21 60.58 51.41 60.75 51.68 60.4"/><g id="_Group_18" data-name="&lt;Group&gt;"><polygon id="_Path_22" data-name="&lt;Path&gt;" points="51.42 60.81 51.19 60.62 50.66 60.63 49.65 59.14 51.44 59.82 51.47 60.05 51.39 59.86 49.66 59.18 50.7 60.57 51.23 60.55 51.41 60.69 51.65 60.38 51.63 60.34 51.72 60.42 51.42 60.81 51.42 60.81"/></g><path id="_Path_23" data-name="&lt;Path&gt;" class="cls-9" d="M51,61.12A3.57,3.57,0,0,1,52,60l.54.54-.78,1Z"/><g id="_Group_19" data-name="&lt;Group&gt;"><path id="_Compound_Path_16" data-name="&lt;Compound Path&gt;" d="M51.73,61.53,51,61.16a3.07,3.07,0,0,1,1-1.21l.61.55-.81,1Zm.2-1.52a3.84,3.84,0,0,0-.9,1.14l.69.27.76-.92L51.93,60Z"/></g><path id="_Path_24" data-name="&lt;Path&gt;" class="cls-11" d="M58,69.12c-.08,0-8.12-4.59-8.12-4.59a2.65,2.65,0,0,0,.2,2.65,4,4,0,0,0,.3,2.39,3.82,3.82,0,0,0,1.19,2.21c.73,2.81,3.6,3,4.72.71Z"/><g id="_Group_20" data-name="&lt;Group&gt;"><path id="_Compound_Path_17" data-name="&lt;Compound Path&gt;" d="M54,74.09h0a2.68,2.68,0,0,1-2.51-2.31,3.8,3.8,0,0,1-1.17-2.21A3.19,3.19,0,0,1,50,67.64c0-.15,0-.3,0-.46a2.64,2.64,0,0,1-.2-2.66C52.6,66.07,57.84,69,58,69.08l-1.69,3.44A2.57,2.57,0,0,1,54,74.09Zm-4.18-9.52a2.76,2.76,0,0,0,.25,2.58,2.64,2.64,0,0,1,0,.5,3.39,3.39,0,0,0,.33,1.91,3.7,3.7,0,0,0,1.18,2.18A2.63,2.63,0,0,0,54,74h0a2.5,2.5,0,0,0,2.21-1.55l1.71-3.38h0c-.11,0-6.77-3.76-8.1-4.52Z"/></g><path id="_Path_25" data-name="&lt;Path&gt;" class="cls-12" d="M63.27,72.13l-5.5-3.23c-1.78.24,0,3.53.14,3.83l5.32,1.88Z"/><g id="_Group_21" data-name="&lt;Group&gt;"><path id="_Compound_Path_18" data-name="&lt;Compound Path&gt;" d="M63.26,74.67l-5.38-1.91-.11-.24c-.31-.66-1.13-2.4-.68-3.23a.88.88,0,0,1,.67-.43L63.3,72.1l0,2.57Zm-5.51-5.73a.75.75,0,0,0-.59.39c-.43.79.38,2.52.68,3.16l5.36,2.06,0-2.42-5.49-3.19Z"/></g><polygon id="_Path_26" data-name="&lt;Path&gt;" class="cls-9" points="62.35 70.95 49.91 64.34 49.69 64.63 62.83 71.94 62.35 70.95"/><g id="_Group_22" data-name="&lt;Group&gt;"><path id="_Compound_Path_19" data-name="&lt;Compound Path&gt;" d="M62.9,72,49.67,64.67l.21-.36,12.49,6.61L62.9,72Zm-13-7.68-.18.3,13,7.19L62.31,71,49.9,64.36Z"/></g><polygon id="_Path_27" data-name="&lt;Path&gt;" class="cls-9" points="49.31 63.97 49.09 63.85 48.97 63.48 47.12 63.02 48.33 64.3 48.88 64.22 49.1 64.35 49.31 63.97"/><g id="_Group_23" data-name="&lt;Group&gt;"><polygon id="_Path_28" data-name="&lt;Path&gt;" points="49.12 64.41 48.85 64.26 48.33 64.34 47.1 63.04 48.98 63.43 49.05 63.66 48.92 63.48 47.11 63.05 48.36 64.28 48.89 64.18 49.09 64.29 49.28 63.96 49.25 63.92 49.34 64 49.12 64.41 49.12 64.41"/></g><path id="_Path_29" data-name="&lt;Path&gt;" class="cls-9" d="M48.74,64.78a3.54,3.54,0,0,1,.78-1.27l.62.46L49.52,65Z"/><g id="_Group_24" data-name="&lt;Group&gt;"><path id="_Compound_Path_20" data-name="&lt;Compound Path&gt;" d="M49.54,65.07l-.81-.25a2.8,2.8,0,0,1,.76-1.32l.68.45-.63,1.12Zm0-1.52a4.14,4.14,0,0,0-.72,1.25l.74.18.6-1-.62-.41Z"/></g><path id="_Path_30" data-name="&lt;Path&gt;" class="cls-11" d="M53.38,60.16l.25.48c.17-.07,1.78-1.52,1.78-1.52l1.16,0,.33-.37a1,1,0,0,0-1.64.14Z"/><g id="_Group_25" data-name="&lt;Group&gt;"><path id="_Compound_Path_21" data-name="&lt;Compound Path&gt;" class="cls-13" d="M53.62,60.67l-.26-.47,1.87-1.4s1-.88,1.69-.12l-.33.41-1.18,0c-.14.15-1.59,1.46-1.75,1.53Zm2.53-2.3a1.31,1.31,0,0,0-.87.49L53.4,60.21l.26.37c.19-.12,1.12-.95,1.72-1.5l1.19,0,.29-.35a1.16,1.16,0,0,0-.71-.31Z"/></g><path id="_Path_31" data-name="&lt;Path&gt;" class="cls-12" d="M54.31,60.94a3.89,3.89,0,0,1,.92-1.45c.57.18,1.11.51,1.69-.81-.49.65-1.53,0-1.53,0L55,59l0,.18-1.35,1.24Z"/><g id="_Group_26" data-name="&lt;Group&gt;"><path id="_Path_32" data-name="&lt;Path&gt;" class="cls-14" d="M54.33,61l-.72-.51.51-.49-.46.49.62.38a4.13,4.13,0,0,1,.94-1.42,3,3,0,0,0,.7.17c.25,0,.57-.1.93-.88-.3.54-1.44,0-1.48,0l-.18.19.18-.25c.08,0,1.13.52,1.52,0-.34,1.05-.94,1.1-1.51.93-.31,0-1,.93-1.05,1.35V61Z"/></g><path id="_Path_33" data-name="&lt;Path&gt;" class="cls-11" d="M50.36,62.52l.07.48c.15-.09,1.56-1.64,1.56-1.64l1.14-.21.23-.36c-.8-.93-1.63.3-1.63.3Z"/><g id="_Group_27" data-name="&lt;Group&gt;"><path id="_Compound_Path_22" data-name="&lt;Compound Path&gt;" class="cls-13" d="M50.39,63.06l-.07-.52,1.38-1.47s1-1.1,1.69-.31l-.23.41L52,61.4c-.12.14-1.4,1.54-1.56,1.63l0,0Zm2.32-2.58c-.51,0-1,.63-1,.63l-1.37,1.45.07.37c.22-.19,1-1,1.52-1.6l1.15-.22.2-.35a.85.85,0,0,0-.61-.28Z"/></g><path id="_Path_34" data-name="&lt;Path&gt;" class="cls-12" d="M51.26,63.36a4.07,4.07,0,0,1,.63-1.74c.68.19,1.28.51,1.52-.91-.39.71-1.52.16-1.52.16l-.37.43,0,.23L50.43,63Z"/><g id="_Group_28" data-name="&lt;Group&gt;"><path id="_Path_35" data-name="&lt;Path&gt;" class="cls-14" d="M51.31,63.43l-.9-.38.3-.4-.25.39.75.26a4,4,0,0,1,.67-1.71,3.64,3.64,0,0,0,.76.16c.27,0,.57-.13.74-1-.17.61-1.47.21-1.5.19l-.11.16.09-.22a2.12,2.12,0,0,0,.86.2.69.69,0,0,0,.66-.35c-.09,1.15-.64,1.23-1.34,1a2.71,2.71,0,0,0-.75,1.66l0,.07Z"/></g><path id="_Path_36" data-name="&lt;Path&gt;" class="cls-11" d="M48.24,66.28l.26.51c.13-.11,1.33-2,1.33-2l1.09-.36.2-.45c-.87-.81-1.54.59-1.54.59Z"/><g id="_Group_29" data-name="&lt;Group&gt;"><path id="_Compound_Path_23" data-name="&lt;Compound Path&gt;" class="cls-13" d="M48.5,66.84l-.3-.54,1.36-1.76s.82-1.32,1.58-.59l-.2.49-1.1.38c-.11.18-1.18,1.9-1.31,2l0,0Zm2.07-3.08c-.57,0-1,.81-1,.82L48.27,66.3l.25.43c.16-.22.83-1.27,1.27-2l1.11-.39.18-.42a.93.93,0,0,0-.51-.2Z"/></g><path id="_Path_37" data-name="&lt;Path&gt;" class="cls-12" d="M49.42,67a4.82,4.82,0,0,1,.3-1.91c.68.2,1.26.26,1.41-1.15-.4.67-1.45.41-1.45.41l-.33.48.07.18-.89,1.73Z"/><g id="_Group_30" data-name="&lt;Group&gt;"><path id="_Path_38" data-name="&lt;Path&gt;" class="cls-14" d="M49.46,67.06l-.94-.28.35-.72-.3.7.8.2a4.78,4.78,0,0,1,.33-1.89c.6.12,1.2.57,1.39-1.12-.29.73-1.41.45-1.42.45l-.14.23.12-.29s.23,0,.48,0a1.06,1.06,0,0,0,1-.45c0,1.26-.68,1.42-1.39,1.21A7.16,7.16,0,0,0,49.45,67v.06Z"/></g><polygon id="_Path_39" data-name="&lt;Path&gt;" class="cls-9" points="62.26 74 59.15 73.04 57.81 70.74 53.03 70.51 53.19 72.23 57.26 73.01 57.65 73.7 62.33 75.01 62.26 74"/><g id="_Group_31" data-name="&lt;Group&gt;"><path id="_Compound_Path_24" data-name="&lt;Compound Path&gt;" d="M62.38,75.06l-4.73-1.31L57.24,73l-4.05-.76L53,70.51l4.82.19L59.2,73l3.08,1,.1,1.09ZM53,70.54l.2,1.69,4,.74.42.72L62.28,75l-.07-1-3.06-.91-1.38-2.34L53,70.54Z"/></g><polygon id="_Path_40" data-name="&lt;Path&gt;" class="cls-15" points="59.02 74.64 54.12 67.45 53.89 67.63 58.74 74.85 59.02 74.64"/><g id="_Group_32" data-name="&lt;Group&gt;"><path id="_Compound_Path_25" data-name="&lt;Compound Path&gt;" d="M58.74,74.91l-4.88-7.25.24-.24,5,7.2-.32.29Zm-4.65-7.43-.18.18,4.84,7.14.24-.18-4.9-7.14Z"/></g><path id="_Path_41" data-name="&lt;Path&gt;" class="cls-10" d="M54.58,67.74l-.51-.89a.31.31,0,0,0-.47-.09.33.33,0,0,0-.1.49l.47.82Z"/><g id="_Group_33" data-name="&lt;Group&gt;"><path id="_Compound_Path_26" data-name="&lt;Compound Path&gt;" d="M54,68.12l-.5-.84c-.09-.18-.12-.44.12-.55s.44,0,.51.11l.52.88-.65.4Zm-.15-1.43-.2.11a.31.31,0,0,0-.08.44L54,68l.59-.32-.76-1Z"/></g><polygon id="_Path_42" data-name="&lt;Path&gt;" class="cls-9" points="59.61 70.21 49.73 69.2 49.49 70.63 59.31 71.62 59.61 70.21"/><g id="_Group_34" data-name="&lt;Group&gt;"><path id="_Compound_Path_27" data-name="&lt;Compound Path&gt;" d="M59.35,71.66l-9.86-1,.2-1.5,9.92,1-.26,1.5Zm-9.63-2.42-.19,1.41,9.76.94.28-1.39-9.85-1Z"/></g><polygon id="_Path_43" data-name="&lt;Path&gt;" class="cls-9" points="49.56 68.83 49.3 70.83 49.7 70.83 50.01 68.99 49.56 68.83"/><g id="_Group_35" data-name="&lt;Group&gt;"><path id="_Compound_Path_28" data-name="&lt;Compound Path&gt;" d="M49.75,70.86H49.3l.22-2L50,69l-.25,1.9Zm-.21-2-.21,2,.35,0L50,69l-.43-.12Z"/></g><polygon id="_Path_44" data-name="&lt;Path&gt;" class="cls-9" points="51.2 69.15 51.09 70.95 51.35 70.97 51.55 69.39 51.2 69.15"/><g id="_Group_36" data-name="&lt;Group&gt;"><path id="_Compound_Path_29" data-name="&lt;Compound Path&gt;" d="M51.39,71l-.31,0,.08-1.84.41.2L51.39,71Zm-.22-1.84,0,1.77.22,0h0l.2-1.59-.34-.2Z"/></g><polygon id="_Path_45" data-name="&lt;Path&gt;" class="cls-9" points="57.89 69.92 57.65 71.61 58.13 71.58 58.32 69.92 57.89 69.92"/><g id="_Group_37" data-name="&lt;Group&gt;"><polygon id="_Path_46" data-name="&lt;Path&gt;" points="57.61 71.65 57.86 69.92 58.32 69.89 58.17 71.6 57.61 71.65 57.61 71.65"/></g><path id="_Path_47" data-name="&lt;Path&gt;" class="cls-9" d="M59.36,70l-.34,2,.55.08.15-1a.47.47,0,0,0,.45.37.46.46,0,0,0,.47-.46.45.45,0,0,0-.47-.44.42.42,0,0,0-.4.3l.1-.73Z"/><g id="_Group_38" data-name="&lt;Group&gt;"><path id="_Compound_Path_30" data-name="&lt;Compound Path&gt;" d="M59.59,72,59,72l.31-2h.55l-.06.71c.08-.44.88-.23.88.21s-.91.58-1,.11L59.59,72Zm.23-2h-.46l-.3,1.92.48,0,.13-1c.26.41.94.34.94-.09a.43.43,0,0,0-.81-.13l0-.75Z"/></g><polygon id="_Path_48" data-name="&lt;Path&gt;" class="cls-9" points="55.8 70.29 54.44 71.81 54.59 72.01 56.34 70.81 55.8 70.29"/><g id="_Group_39" data-name="&lt;Group&gt;"><path id="_Compound_Path_31" data-name="&lt;Compound Path&gt;" d="M54.59,72.06l-.17-.21,1.34-1.59.6.53-1.77,1.27Zm1.17-1.74-1.29,1.53.12.16v0l1.74-1.18-.56-.47Z"/></g><polygon id="_Path_49" data-name="&lt;Path&gt;" class="cls-9" points="52.63 74.09 53.99 72.57 53.84 72.38 52.1 73.58 52.63 74.09"/><g id="_Group_40" data-name="&lt;Group&gt;"><path id="_Compound_Path_32" data-name="&lt;Compound Path&gt;" d="M52.64,74.15l-.57-.55,1.78-1.26.18.2-1.39,1.61ZM54,72.54,52.12,73.6l.51.44L54,72.54Z"/></g><polygon id="_Path_50" data-name="&lt;Path&gt;" class="cls-9" points="56.19 73.72 54.53 72.43 54.37 72.56 55.67 74.21 56.19 73.72"/><g id="_Group_41" data-name="&lt;Group&gt;"><path id="_Compound_Path_33" data-name="&lt;Compound Path&gt;" d="M55.67,74.27l-1.34-1.69.24-.18,1.65,1.29-.55.58Zm-1.15-1.8,1.15,1.68.5-.46-1.65-1.22Z"/></g><polygon id="_Path_51" data-name="&lt;Path&gt;" class="cls-9" points="52.12 70.77 53.8 72.01 53.99 71.85 52.69 70.2 52.12 70.77"/><g id="_Group_42" data-name="&lt;Group&gt;"><path id="_Compound_Path_34" data-name="&lt;Compound Path&gt;" d="M53.8,72,52.1,70.8l.55-.63,1.4,1.69L53.8,72Zm-1.15-1.81-.51.57L53.8,72l.17-.14-1.32-1.58Z"/></g><polygon id="_Path_52" data-name="&lt;Path&gt;" class="cls-9" points="53.95 69.75 54.1 71.76 54.33 71.75 54.86 69.8 53.95 69.75"/><g id="_Group_43" data-name="&lt;Group&gt;"><path id="_Compound_Path_35" data-name="&lt;Compound Path&gt;" d="M54.07,71.8l-.17-2h1l-.5,2Zm.75-2-.88,0,.2,1.91h.18l.5-1.93Z"/></g><polygon id="_Path_53" data-name="&lt;Path&gt;" class="cls-9" points="54.49 74.62 54.33 72.61 54.08 72.59 53.78 74.62 54.49 74.62"/><g id="_Group_44" data-name="&lt;Group&gt;"><path id="_Compound_Path_36" data-name="&lt;Compound Path&gt;" d="M54.53,74.67h-.75l.27-2.12.28,0,.2,2.1Zm-.24-2.06-.47,2,.63,0-.16-2Z"/></g><polygon id="_Path_54" data-name="&lt;Path&gt;" class="cls-9" points="56.71 71.92 54.6 72.13 54.58 72.34 56.7 72.61 56.71 71.92"/><g id="_Group_45" data-name="&lt;Group&gt;"><path id="_Compound_Path_37" data-name="&lt;Compound Path&gt;" d="M56.75,72.66l-2.18-.28,0-.28,2.11-.23,0,.79Zm-.07-.74-2.07.27,2.06.38v-.65Z"/></g><polygon id="_Path_55" data-name="&lt;Path&gt;" class="cls-9" points="51.72 72.61 53.77 72.29 53.8 72.13 51.68 71.89 51.72 72.61"/><g id="_Group_46" data-name="&lt;Group&gt;"><polygon id="_Path_56" data-name="&lt;Path&gt;" points="51.66 72.66 51.64 71.89 53.81 72.1 53.41 72.19 51.68 71.93 51.74 72.56 52.44 72.46 51.66 72.66 51.66 72.66"/></g><path id="_Path_57" data-name="&lt;Path&gt;" class="cls-9" d="M54.77,72.14a.54.54,0,0,1-.56.54.54.54,0,1,1,.56-.54Z"/><g id="_Group_47" data-name="&lt;Group&gt;"><path id="_Compound_Path_38" data-name="&lt;Compound Path&gt;" d="M54.21,72.73a.59.59,0,0,1-.6-.59c0-.64,1.2-.63,1.19,0a.6.6,0,0,1-.59.59Zm0-1.08a.5.5,0,0,0-.53.49c0,.56,1,.56,1,0a.5.5,0,0,0-.52-.49Z"/></g><path id="_Compound_Path_39" data-name="&lt;Compound Path&gt;" class="cls-9" d="M57.17,72.14a3,3,0,1,1-3-2.85,2.91,2.91,0,0,1,3,2.85Zm-.6,0a2.37,2.37,0,1,1-2.36-2.28,2.33,2.33,0,0,1,2.36,2.28Z"/><g id="_Group_48" data-name="&lt;Group&gt;"><path id="_Compound_Path_40" data-name="&lt;Compound Path&gt;" d="M54.21,75a2.9,2.9,0,1,1,3-2.9,2.94,2.94,0,0,1-3,2.9Zm0-5.71a2.82,2.82,0,1,0,2.93,2.81,2.87,2.87,0,0,0-2.93-2.81Zm0,5.15a2.34,2.34,0,1,1,2.4-2.34,2.38,2.38,0,0,1-2.4,2.34Zm0-4.59a2.25,2.25,0,1,0,2.33,2.25,2.29,2.29,0,0,0-2.33-2.25Z"/></g><g id="_Group_49" data-name="&lt;Group&gt;"><path id="_Compound_Path_41" data-name="&lt;Compound Path&gt;" class="cls-1" d="M52.35,70.71l-.46-.35Zm3.32-.33.4-.42ZM56.52,74,56,73.58Zm-4.17.43.44-.44Z"/></g><polygon id="_Path_58" data-name="&lt;Path&gt;" class="cls-9" points="62.33 69.33 62.84 71.9 62.43 72.13 61.97 69.36 62.33 69.33"/><g id="_Group_50" data-name="&lt;Group&gt;"><path id="_Compound_Path_42" data-name="&lt;Compound Path&gt;" d="M62.39,72.19l-.46-2.83.39-.07.55,2.61-.48.29Zm-.11-2.86-.3.07.47,2.66.37-.19-.54-2.54Z"/></g><path id="_Path_59" data-name="&lt;Path&gt;" class="cls-10" d="M62.06,69c-.24-.09-.54.07-1-.57-.82.76,0,.87.07,1.62.24.1.39-.57,1-.65l1-.08L62.88,69Z"/><g id="_Group_51" data-name="&lt;Group&gt;"><path id="_Compound_Path_43" data-name="&lt;Compound Path&gt;" d="M61.14,70.08h-.06a1.6,1.6,0,0,0-.29-.6c-.19-.32-.36-.56.22-1.07a1.24,1.24,0,0,0,.85.51l.4,0,.62,0,.27.35-1,.14a1,1,0,0,0-.69.45c-.11.12-.19.2-.29.2ZM61,68.45c-.45.48-.32.67-.13,1a1.77,1.77,0,0,1,.28.62v0c.06,0,.13-.08.23-.18a1,1,0,0,1,.74-.47l1-.09L62.85,69l-.59,0-.41,0a1.13,1.13,0,0,1-.86-.54Z"/></g><path id="_Path_60" data-name="&lt;Path&gt;" class="cls-10" d="M62.39,69.5l-.08-.78c-.11-.26-.45,0-.45.13l.1.71Z"/><g id="_Group_52" data-name="&lt;Group&gt;"><path id="_Path_61" data-name="&lt;Path&gt;" d="M61.92,69.61l-.09-.76a.34.34,0,0,1,.32-.29l0,.15c-.17,0-.29.07-.29.14l.08.67.41-.06,0-.24.09.28-.52.11Z"/></g><path id="_Path_62" data-name="&lt;Path&gt;" class="cls-9" d="M56.66,75.88a.33.33,0,0,1-.17.27.31.31,0,0,1-.32,0,.32.32,0,0,1-.16-.27.32.32,0,0,1,.16-.28.31.31,0,0,1,.32,0,.33.33,0,0,1,.17.28Z"/><g id="_Group_53" data-name="&lt;Group&gt;"><path id="_Path_63" data-name="&lt;Path&gt;" class="cls-1" d="M56.66,75.88a.33.33,0,0,1-.17.27.31.31,0,0,1-.32,0,.32.32,0,0,1-.16-.27.32.32,0,0,1,.16-.28.31.31,0,0,1,.32,0A.33.33,0,0,1,56.66,75.88Z"/></g><path id="_Path_64" data-name="&lt;Path&gt;" class="cls-9" d="M55.83,75.29a.34.34,0,0,1-.16.27.38.38,0,0,1-.33,0,.3.3,0,0,1-.16-.27.29.29,0,0,1,.16-.27.33.33,0,0,1,.49.27Z"/><g id="_Group_54" data-name="&lt;Group&gt;"><path id="_Path_65" data-name="&lt;Path&gt;" class="cls-1" d="M55.83,75.29a.34.34,0,0,1-.16.27.38.38,0,0,1-.33,0,.3.3,0,0,1-.16-.27.29.29,0,0,1,.16-.27.33.33,0,0,1,.49.27Z"/></g><path id="_Path_66" data-name="&lt;Path&gt;" class="cls-9" d="M54.7,75.68a.34.34,0,0,1-.16.27.36.36,0,0,1-.32,0,.33.33,0,0,1-.17-.27.32.32,0,0,1,.17-.28.36.36,0,0,1,.32,0,.33.33,0,0,1,.16.28Z"/><g id="_Group_55" data-name="&lt;Group&gt;"><path id="_Path_67" data-name="&lt;Path&gt;" class="cls-1" d="M54.7,75.68a.34.34,0,0,1-.16.27.36.36,0,0,1-.32,0,.33.33,0,0,1-.17-.27.32.32,0,0,1,.17-.28.36.36,0,0,1,.32,0A.33.33,0,0,1,54.7,75.68Z"/></g><path id="_Path_68" data-name="&lt;Path&gt;" class="cls-9" d="M53,76.05a.33.33,0,0,1-.49.27.32.32,0,0,1-.16-.27.32.32,0,0,1,.16-.28.44.44,0,0,1,.32,0,.31.31,0,0,1,.17.28Z"/><g id="_Group_56" data-name="&lt;Group&gt;"><path id="_Path_69" data-name="&lt;Path&gt;" class="cls-1" d="M53,76.05a.33.33,0,0,1-.49.27.32.32,0,0,1-.16-.27.32.32,0,0,1,.16-.28.44.44,0,0,1,.32,0A.31.31,0,0,1,53,76.05Z"/></g><path id="_Path_70" data-name="&lt;Path&gt;" class="cls-9" d="M52.25,76.14a.35.35,0,0,1-.16.27.34.34,0,0,1-.34,0,.35.35,0,0,1-.16-.27.34.34,0,0,1,.16-.28.4.4,0,0,1,.34,0,.34.34,0,0,1,.16.28Z"/><g id="_Group_57" data-name="&lt;Group&gt;"><path id="_Path_71" data-name="&lt;Path&gt;" class="cls-1" d="M52.25,76.14a.35.35,0,0,1-.16.27.34.34,0,0,1-.34,0,.35.35,0,0,1-.16-.27.34.34,0,0,1,.16-.28.4.4,0,0,1,.34,0A.34.34,0,0,1,52.25,76.14Z"/></g><path id="_Path_72" data-name="&lt;Path&gt;" class="cls-9" d="M51.52,76.14a.31.31,0,0,1-.16.27.29.29,0,0,1-.31,0,.31.31,0,0,1-.16-.27.3.3,0,0,1,.16-.28.34.34,0,0,1,.31,0,.3.3,0,0,1,.16.28Z"/><g id="_Group_58" data-name="&lt;Group&gt;"><path id="_Path_73" data-name="&lt;Path&gt;" class="cls-1" d="M51.52,76.14a.31.31,0,0,1-.16.27.29.29,0,0,1-.31,0,.31.31,0,0,1-.16-.27.3.3,0,0,1,.16-.28.34.34,0,0,1,.31,0A.3.3,0,0,1,51.52,76.14Z"/></g><path id="_Path_74" data-name="&lt;Path&gt;" class="cls-9" d="M50.79,76.11a.35.35,0,0,1-.15.28.38.38,0,0,1-.33,0,.34.34,0,0,1-.17-.28.31.31,0,0,1,.17-.27.38.38,0,0,1,.33,0,.32.32,0,0,1,.15.27Z"/><g id="_Group_59" data-name="&lt;Group&gt;"><path id="_Path_75" data-name="&lt;Path&gt;" class="cls-1" d="M50.79,76.11a.35.35,0,0,1-.15.28.38.38,0,0,1-.33,0,.34.34,0,0,1-.17-.28.31.31,0,0,1,.17-.27.38.38,0,0,1,.33,0A.32.32,0,0,1,50.79,76.11Z"/></g><path id="_Path_76" data-name="&lt;Path&gt;" class="cls-9" d="M51.15,75.56a.3.3,0,0,1-.16.26.31.31,0,0,1-.32,0,.29.29,0,0,1-.17-.26.29.29,0,0,1,.17-.27.31.31,0,0,1,.32,0,.3.3,0,0,1,.16.27Z"/><g id="_Group_60" data-name="&lt;Group&gt;"><path id="_Path_77" data-name="&lt;Path&gt;" class="cls-1" d="M51.15,75.56a.3.3,0,0,1-.16.26.31.31,0,0,1-.32,0,.29.29,0,0,1-.17-.26.29.29,0,0,1,.17-.27.31.31,0,0,1,.32,0A.3.3,0,0,1,51.15,75.56Z"/></g><path id="_Path_78" data-name="&lt;Path&gt;" class="cls-9" d="M51.86,75.59a.29.29,0,0,1-.16.27.31.31,0,0,1-.32,0,.31.31,0,0,1-.17-.27.33.33,0,0,1,.17-.28.36.36,0,0,1,.32,0,.3.3,0,0,1,.16.28Z"/><g id="_Group_61" data-name="&lt;Group&gt;"><path id="_Path_79" data-name="&lt;Path&gt;" class="cls-1" d="M51.86,75.59a.29.29,0,0,1-.16.27.31.31,0,0,1-.32,0,.31.31,0,0,1-.17-.27.33.33,0,0,1,.17-.28.36.36,0,0,1,.32,0A.3.3,0,0,1,51.86,75.59Z"/></g><path id="_Path_80" data-name="&lt;Path&gt;" class="cls-9" d="M52.54,75.5a.29.29,0,0,1-.16.27.32.32,0,0,1-.33,0,.29.29,0,0,1-.16-.27.3.3,0,0,1,.16-.26.29.29,0,0,1,.33,0,.3.3,0,0,1,.16.26Z"/><g id="_Group_62" data-name="&lt;Group&gt;"><path id="_Path_81" data-name="&lt;Path&gt;" class="cls-1" d="M52.54,75.5a.29.29,0,0,1-.16.27.32.32,0,0,1-.33,0,.29.29,0,0,1-.16-.27.3.3,0,0,1,.16-.26.29.29,0,0,1,.33,0A.3.3,0,0,1,52.54,75.5Z"/></g><path id="_Path_82" data-name="&lt;Path&gt;" class="cls-9" d="M52.19,75a.31.31,0,0,1-.16.27.29.29,0,0,1-.31,0,.33.33,0,0,1-.18-.27.32.32,0,0,1,.18-.27.34.34,0,0,1,.31,0,.3.3,0,0,1,.16.27Z"/><g id="_Group_63" data-name="&lt;Group&gt;"><path id="_Path_83" data-name="&lt;Path&gt;" class="cls-1" d="M52.19,75a.31.31,0,0,1-.16.27.29.29,0,0,1-.31,0,.33.33,0,0,1-.18-.27.32.32,0,0,1,.18-.27.34.34,0,0,1,.31,0A.3.3,0,0,1,52.19,75Z"/></g><path id="_Path_84" data-name="&lt;Path&gt;" class="cls-9" d="M51.52,74.94a.31.31,0,0,1-.16.28.29.29,0,0,1-.31,0,.31.31,0,0,1-.16-.28.27.27,0,0,1,.16-.26.29.29,0,0,1,.31,0,.27.27,0,0,1,.16.26Z"/><g id="_Group_64" data-name="&lt;Group&gt;"><path id="_Path_85" data-name="&lt;Path&gt;" class="cls-1" d="M51.52,74.94a.31.31,0,0,1-.16.28.29.29,0,0,1-.31,0,.31.31,0,0,1-.16-.28.27.27,0,0,1,.16-.26.29.29,0,0,1,.31,0A.27.27,0,0,1,51.52,74.94Z"/></g><path id="_Path_86" data-name="&lt;Path&gt;" class="cls-10" d="M57.1,73.81c-.28-.12-.28.51-.28.51h.44c.19.08.35.36.22.5s-1-.19-1,0a1.18,1.18,0,0,0,1.69.81c.4-.36.5-1.33-.79-1.6Z"/><g id="_Group_65" data-name="&lt;Group&gt;"><path id="_Compound_Path_44" data-name="&lt;Compound Path&gt;" d="M57.69,75.81a1.28,1.28,0,0,1-.42-.07,1.24,1.24,0,0,1-.84-.92c0-.14.31-.1.6-.06a1,1,0,0,0,.42,0c0-.28-.1-.4-.21-.45h-.42a.69.69,0,0,1,.12-.6v0l.18,0,.27.24a1.22,1.22,0,0,1,1,.76.93.93,0,0,1-.26.89.71.71,0,0,1-.49.16Zm-1.08-1s-.1,0-.1,0a1.13,1.13,0,0,0,.8.83.8.8,0,0,0,.82-.07.82.82,0,0,0,.23-.8,1.15,1.15,0,0,0-1-.72l-.11.23a.5.5,0,0,1,.28.34c-.1.28-.26.26-.55.21a2.57,2.57,0,0,0-.4,0Zm-8-.67-.42-1.77h0l2.75,1.1,0,.08-2.71-1.18.49,1.75-.07,0Zm.52-.11-.64-1.37L49.16,74l-.07,0Zm1.13-.33-1.45-.78,1.5.71-.05.07Z"/></g><path id="_Path_87" data-name="&lt;Path&gt;" class="cls-12" d="M46.53,71a6.29,6.29,0,0,0-1.16.06c-.07,0,.25.34.18.48-.25.46-1.93.4-2.06.3s1.56-.34,1.57-.46-.26-.49-.21-.71.77-.41.77-.41Z"/><g id="_Group_66" data-name="&lt;Group&gt;"><path id="_Path_88" data-name="&lt;Path&gt;" class="cls-14" d="M44.16,72a1.85,1.85,0,0,1-.69-.08c0-.17.26-.24.9-.35a3.1,3.1,0,0,0,.67-.15,1.69,1.69,0,0,1-.23-.71c.06-.32.74-.42.81-.44l1,.74c-.51,0-.82.07-1,.1a1.56,1.56,0,0,1,.74-.11l-.7-.66c-.16,0-.68.15-.71.38a.75.75,0,0,0,.11.43,1.1,1.1,0,0,1,.1.29c0,.07-.14.11-.73.21a3.27,3.27,0,0,0-.86.21c.09.06,1.78.14,2-.3,0,0-.07-.19-.12-.28s0-.06,0-.07q.2.27.15.39c-.2.37-1.14.4-1.43.4Z"/></g><path id="_Path_89" data-name="&lt;Path&gt;" class="cls-15" d="M47.86,71.93l-2.24-1.86s-.1-.1-.18,0,0,.19,0,.19l2.31,1.91Z"/><g id="_Group_67" data-name="&lt;Group&gt;"><path id="_Compound_Path_45" data-name="&lt;Compound Path&gt;" d="M47.8,72.22l-2.35-1.94v0l.06-.28,2.39,1.93-.11.31ZM45.59,70.1l2.17,2,.07-.19L45.59,70.1Z"/></g><path id="_Path_90" data-name="&lt;Path&gt;" class="cls-9" d="M50,73.76l-1.83-1.59-.11-.45a3.47,3.47,0,0,0-.38.29,2,2,0,0,0-.25.35l.49,0,1.58,1.45Z"/><g id="_Group_68" data-name="&lt;Group&gt;"><path id="_Compound_Path_46" data-name="&lt;Compound Path&gt;" d="M49.51,73.87l-1.6-1.46h-.46c0-.06.11-.32.22-.43a3.34,3.34,0,0,1,.38-.28l.17.47h0L50,73.72l-.53.15Zm-1.57-1.52,1.59,1.44.47-.07c-.09,0-1.83-1.53-1.83-1.53L48,71.74a1.88,1.88,0,0,1-.32.29,2.45,2.45,0,0,0-.24.35l.46,0Z"/></g><path id="_Compound_Path_47" data-name="&lt;Compound Path&gt;" class="cls-9" d="M60,71.62v.73c-.24.08-.21.25-.21.51l0,2.09c-.09.13-.34.15-.46.26s-.11.32.44.45l.44,0c.65-.14.78-.36.45-.47a1.59,1.59,0,0,1-.49-.25v-.51l.44,0c.11,0,.32-.3.34-.52V72.87a.62.62,0,0,0-.61-.68v-.57Zm.72,1.2c0-.17-.26-.32-.35-.33a.47.47,0,0,0-.33.38v.43c0,.18.14.7.39.76s.29-.18.29-.34Z"/><g id="_Group_69" data-name="&lt;Group&gt;"><path id="_Compound_Path_48" data-name="&lt;Compound Path&gt;" d="M60.19,75.73l-.44,0c-.42-.1-.52-.23-.54-.33l.29-.31c.11,0,.2-.06.23-.13V72.86c0-.3,0-.46.21-.55l0-.69.42,0,0,.6c.21,0,.59.11.61.68V74c0,.22-.23.56-.37.56l-.44,0,0,.46a2.31,2.31,0,0,0,.43.19c.21.08.23.16.23.21s-.24.27-.66.37Zm.11-4.11-.35,0,0,.68c-.2.1-.2.21-.2.43l0,2.17a.54.54,0,0,1-.27.19l-.25.22s.08.17.48.27h.42c.42-.1.58-.21.58-.28a5.82,5.82,0,0,1-.65-.37v-.54l.47,0c.07,0,.27-.26.28-.47V72.87c0-.62-.49-.64-.53-.64l-.05-.61Zm.11,2.47h0c-.33,0-.45-.66-.45-.78v-.44a.47.47,0,0,1,.36-.42h0c.11,0,.39.17.39.37v.9c0,.16-.14.37-.3.37Zm-.09-1.6v0a.45.45,0,0,0-.29.35v.43c0,.2.16.69.35.72h0c.15,0,.24-.17.24-.3v-.9c0-.14-.23-.28-.3-.3v0Z"/></g><path id="_Path_91" data-name="&lt;Path&gt;" class="cls-7" d="M63.92,51.68c-3.41-3.42-6.09-1.75-6.73-1.28.42.08.8-.19,1-.21-.12.15-.37.53-.37.53A6,6,0,0,1,59,50.28a2.09,2.09,0,0,0-.31.41c.08,0,.66-.47.79-.48a1.59,1.59,0,0,0-.24.68l.51-.24c.14.09,0,.27.08.27A3.4,3.4,0,0,1,62,52Z"/><g id="_Group_70" data-name="&lt;Group&gt;"><path id="_Compound_Path_49" data-name="&lt;Compound Path&gt;" d="M62.05,51.94a3.84,3.84,0,0,0-2.25-1l0-.1v0a3.29,3.29,0,0,1,2.26,1Zm1.85-.24c-3.32-3.31-5.95-1.81-6.69-1.28a2.58,2.58,0,0,0,.74-.19l.11,0a1.27,1.27,0,0,1-.89.24c.74-.63,3.44-2.15,6.77,1.21l0,.05Zm-4.67-.78c-.06-.05,0-.42.13-.65a3.4,3.4,0,0,1-.28.21c-.29.21-.37.27-.44.24a1.07,1.07,0,0,1,.31-.47c-.06,0-.62.28-1.13.51,0,0,.17-.38.29-.56h.1l-.37.55a2.79,2.79,0,0,1,1.15-.5,3.06,3.06,0,0,0-.28.43,1.94,1.94,0,0,1,.32-.27,1.67,1.67,0,0,1,.41-.24,3.08,3.08,0,0,0-.2.72l.47-.28v.08l-.49.23Z"/></g><path id="_Path_92" data-name="&lt;Path&gt;" class="cls-7" d="M63.07,52.3c-.35-.83-6.83-2.19-8.14.11.5.12,1-.43,1-.43l-.05.51.88-.67-.32.68.71-.55,0,.55.85-.91-.11.54.75-.33-.09.45Z"/><g id="_Group_71" data-name="&lt;Group&gt;"><path id="_Path_93" data-name="&lt;Path&gt;" d="M56.45,52.54l.26-.73-.8.7,0-.52a1,1,0,0,1-1,.45c.68-1.31,2.81-1.39,4-1.33,1.91.1,4,.68,4.18,1.17l-.07,0c-.17-.42-2.11-1-4.11-1.12-1.18-.07-3.27,0-4,1.23.46.07.95-.47.95-.47l0,.54.81-.7-.26.73.63-.59,0,.58.77-.95,0,.57.7-.37,0,.5V51.8l-.7.36,0-.58-.77,1,0-.58-.64.59Z"/></g><path id="_Path_94" data-name="&lt;Path&gt;" class="cls-7" d="M62.79,52.42c-1.68-1.11-4.24-.35-4.24-.35-1.65.91-2.52.76-2.74,2.45a3.26,3.26,0,0,0,.62-.59l.32.65.1-.94.29.73.37-1.19.1.81.63-.81.28.23.27-.62.24.39s.42-.26.67-.09l.46-.53.12.36.4-.45.15.35.41-.37,0,.25,1.37,0Z"/><g id="_Group_72" data-name="&lt;Group&gt;"><path id="_Path_95" data-name="&lt;Path&gt;" d="M56.78,54.6l-.39-.66a2,2,0,0,1-.55.62c.1-1.34.65-1.58,1.57-2A11.89,11.89,0,0,0,58.53,52s2.61-.75,4.27.36l0,.07c-1.63-1.09-4.18-.37-4.2-.37a9.39,9.39,0,0,1-1.11.55c-.93.42-1.44.64-1.59,1.89.06-.09.41-.48.53-.62l.39.66,0-.93.34.72.32-1.19.17.82.55-.83.35.22.2-.62.31.42a.64.64,0,0,1,.66-.12l.42-.54.18.4.32-.48.22.36.42-.45,0,.36,1.33,0-1.37.06h-.05l0-.3-.35.41-.21-.36L60.3,53l-.17-.41-.41.56c-.25-.13-.66.1-.66.1l-.31-.42-.19.62-.36-.21-.55.8-.17-.83-.32,1.21-.33-.73,0,.94Z"/></g><path id="_Path_96" data-name="&lt;Path&gt;" class="cls-7" d="M62.4,52.61c-1.15,0-4.48,1.24-5.33,2.56a4.23,4.23,0,0,1,.54-.27l.16.51L58,54.9l0,.4c.14-.32.28-.36.52,0l.09-.49.12.47.23-.51s.14.56.22.53.37-1,.53-1l0,.61.23-.61.19.46,0-.65.21.5s.13-.5.3-.58l.32.3,1.49-1.07Z"/><g id="_Group_73" data-name="&lt;Group&gt;"><path id="_Path_97" data-name="&lt;Path&gt;" d="M57.82,55.43l-.24-.52a2.38,2.38,0,0,1-.5.29c.83-1.4,4.13-2.62,5.3-2.62h0v.08h0c-1.17,0-4.45,1.25-5.28,2.52a2.31,2.31,0,0,1,.5-.33l.22.55.14-.53.12.43c0-.19.07-.29.16-.3s.2,0,.34.25l0-.47.2.46.15-.52a4.3,4.3,0,0,0,.27.51c0-.14.34-.95.51-1l.09.62.16-.61.27.44,0-.62.28.46a.79.79,0,0,1,.26-.58l.38.31,1.42-1.08-1.44,1.13L60.74,54a1.6,1.6,0,0,0-.23.55l-.29-.48,0,.63L60,54.28l-.16.6-.11-.6a5.69,5.69,0,0,0-.45,1c-.18,0-.28-.43-.31-.55l-.15.53-.2-.48,0,.48a1.24,1.24,0,0,0-.33-.19c-.07,0-.12.08-.19.24L58,54.9l-.14.53Z"/></g><path id="_Path_98" data-name="&lt;Path&gt;" class="cls-7" d="M62.63,52.88c-1.55.6-2.93,2.72-2.82,3.62.68-.85.54-.72.84.25a4,4,0,0,1,.23-1l.21.64.07-.82h.22l-.06-.52.3.24c-.07-.31-.14-.39.17-.67,0,0-.39.07-.08-.66l.3.29s0-.33,0-.44l1.1-.38Z"/><g id="_Group_74" data-name="&lt;Group&gt;"><path id="_Compound_Path_50" data-name="&lt;Compound Path&gt;" d="M60.71,56.75l-.22-.4a.94.94,0,0,0-.14-.39h0c-.07,0-.21.18-.42.45a0,0,0,0,0,0,0c.27-.4.36-.5.44-.48s.13.15.21.43l.12.38a1.86,1.86,0,0,1,.17-1l.27.66v-.82l.14-.5.1,0-.08,0,.12.49-.28.82-.28-.62c0,.08-.11.62-.14,1Zm-.78-.83a4.92,4.92,0,0,1,2.69-3.07l0,.07a5.3,5.3,0,0,0-2.72,3Zm1.71-1.38c-.12-.13-.08-.32,0-.58l.32.26a.39.39,0,0,1,0-.4l1.11-.4-1.06.45a.76.76,0,0,0,0,.39L61.68,54a.89.89,0,0,0,0,.52Z"/></g><path id="_Path_99" data-name="&lt;Path&gt;" class="cls-7" d="M62.77,53.06l-.58,1.1.3.09-.67.5.57-.06a1.58,1.58,0,0,0-1,1.18l.89-.39a4,4,0,0,0-.85,1.22l.51-.44a1.81,1.81,0,0,0-.42,1.34l.37-.41A2.09,2.09,0,0,0,62.3,59a4.4,4.4,0,0,1,0-1.3l1,1-.56-1.47s.62.94,1,.85L63,56.92l.76.61-.86-1.28.81.23s-.59-.74-.55-1.18l.55.6a2.67,2.67,0,0,1-.14-.9l.28,0-.56-.63.39-.07,0-.42.27-.09v-.45Z"/><g id="_Group_75" data-name="&lt;Group&gt;"><path id="_Compound_Path_51" data-name="&lt;Compound Path&gt;" d="M62.33,59a1.93,1.93,0,0,1-.46-1.82l-.31.44a1.78,1.78,0,0,1,.36-1.38v0a3,3,0,0,0-.36,1.38l.32-.46A2.32,2.32,0,0,0,62.33,59a2.65,2.65,0,0,1,0-1.31l1.06,1-.62-1.4c.23.21.7.87,1,.79l-.8-1.14.83.57-.94-1.24.83.18a1.79,1.79,0,0,1-.56-1.16l.58.55a1.75,1.75,0,0,1-.18-.86l.34,0-.6-.56.39-.14-.07-.37.3-.14,0-.41.09.45-.3.12.07.39-.41.11.59.56-.33,0a5.58,5.58,0,0,0,.2.84l-.63-.56a3.08,3.08,0,0,0,.6,1.14l-.84-.17.91,1.22L62.93,57l.83,1.13c-.44.17-1-.75-1-.79l.62,1.42-1.06-1a7.8,7.8,0,0,0,0,1.27Zm0-1.26A6.88,6.88,0,0,0,62.63,56a4.88,4.88,0,0,1,.71-2.62l0,0A5,5,0,0,0,62.72,56a4.51,4.51,0,0,1-.35,1.76Zm-.89-1a2.91,2.91,0,0,1,.8-1.28l-.84.45a1.51,1.51,0,0,1,.94-1.25h0c0,.09-.83.4-.93,1.23l.82-.44c0,.07-.69.83-.8,1.27l.43-.45-.43.47Zm.34-1.92.65-.59h-.28L62.74,53l.07,0-.57,1.11.27,0-.67.57.53-.13-.55.16Z"/></g><path id="_Compound_Path_52" data-name="&lt;Compound Path&gt;" class="cls-9" d="M58.06,76.29c0-.14-.34-.08-.34-.24s.52,0,.59.11c.28-.27.41-.07.58,0a.53.53,0,0,1,.88-.08.56.56,0,0,1,.77.08.47.47,0,0,1,.75,0c.09-.15.2-.13.28,0a.46.46,0,0,1,.71,0c.16-.16.3,0,.49.09.13-.12.34-.11.34,0s-.26.08-.26.21.19.06.19.2-.29.15-.34,0c-.1.19-.46.12-.51-.05a.32.32,0,0,1-.53,0c-.14.11-.28.12-.35,0a.46.46,0,0,1-.75-.08h-.12a.39.39,0,0,1-.67,0,.57.57,0,0,1-.81,0c-.24.3-.6.28-.69,0-.16.12-.5.16-.5,0s.29-.07.29-.19Zm.73.06c0,.07-.1.12-.2.12s-.19,0-.19-.12.08-.12.19-.12.2.06.2.12Zm.79-.09c0,.07-.09.13-.23.13s-.22-.06-.22-.13.1-.14.22-.14.23.06.23.14Zm1.57.09c0,.07-.09.12-.2.12s-.21,0-.21-.12.09-.14.21-.14.2.05.2.14Zm-.83,0a.18.18,0,0,1-.2.16c-.12,0-.21-.07-.21-.16a.2.2,0,0,1,.21-.19.2.2,0,0,1,.2.19Zm1.78,0a.18.18,0,0,1-.36,0,.18.18,0,0,1,.36,0Zm-.55,0a.1.1,0,0,1-.11.1.11.11,0,0,1-.12-.1.13.13,0,0,1,.12-.11.12.12,0,0,1,.11.11Zm1.07,0a.14.14,0,1,1-.27,0,.14.14,0,1,1,.27,0Z"/><g id="_Group_76" data-name="&lt;Group&gt;"><path id="_Compound_Path_53" data-name="&lt;Compound Path&gt;" d="M61,76.74a.45.45,0,0,1-.4-.21c.33.19.54.19.72,0l0,0,.37,0a.29.29,0,0,0,.24.14l.06-.07.26,0c0,.08.11.14.23.14-.19,0-.28,0-.31-.13,0,.21-.38.2-.54,0l-.31,0,0,0a.47.47,0,0,1-.38.17Zm-2.38,0a.35.35,0,0,1-.34-.25c0,.09-.17.13-.3.13v-.11a.57.57,0,0,0,.33-.05.39.39,0,0,0,.67,0c.39.21.53.18.82,0,.17.14.39.37.67,0a.16.16,0,0,1,.1,0c-.48.44-.7.14-.78,0a.53.53,0,0,1-.79,0,.4.4,0,0,1-.37.23Zm-.65-.32v-.07c-.11-.16-.23-.19-.23-.3.35-.12.61,0,.65.09a.28.28,0,0,1,.25-.16l.31.18,0,0a.54.54,0,0,1,.92-.09c.05-.19.62-.14.78.09.15-.28.49-.27.76,0,.54-.24.75-.24,1,0-.32-.06-.5-.19-.67.08l0,.06-.33,0a.44.44,0,0,0-.69,0,.65.65,0,0,0-.77-.08c-.43-.27-.64-.27-.86.07l-.36-.12a.47.47,0,0,0-.25.12.79.79,0,0,0-.46-.18l.23.29-.18.13Z"/></g><polygon id="_Path_100" data-name="&lt;Path&gt;" class="cls-9" points="67.48 64.25 68.6 61.87 68.11 61.77 66.09 65.71 67.48 64.25"/><g id="_Group_77" data-name="&lt;Group&gt;"><path id="_Compound_Path_54" data-name="&lt;Compound Path&gt;" d="M65.93,65.94l2.15-4.19.53.07-1.09,2.44-1.59,1.68Zm2.18-4.14-1.86,3.69,1.21-1.27,1.1-2.38-.45,0Z"/></g><polygon id="_Path_101" data-name="&lt;Path&gt;" class="cls-10" points="70.04 59.07 68.81 62.42 68.19 62.42 70.04 59.07"/><g id="_Group_78" data-name="&lt;Group&gt;"><path id="_Compound_Path_55" data-name="&lt;Compound Path&gt;" d="M68.85,62.47h-.66L70,59.06l-1.16,3.41ZM70,59.06l-1.79,3.4.57-.06L70,59.06Z"/></g><polygon id="_Path_102" data-name="&lt;Path&gt;" class="cls-9" points="66.34 61.16 65.72 61.15 64.61 65.86 64.84 67.34 66.34 61.16"/><g id="_Group_79" data-name="&lt;Group&gt;"><path id="_Compound_Path_56" data-name="&lt;Compound Path&gt;" d="M64.84,67.55l-.28-1.69,1.12-4.73.66,0-1.5,6.44Zm1.46-6.4-.58,0-1.08,4.68.21,1.29,1.45-6Z"/></g><polygon id="_Path_103" data-name="&lt;Path&gt;" class="cls-9" points="65.81 66.02 67.7 60.95 66.99 60.92 64.79 67.1 65.81 66.02"/><g id="_Group_80" data-name="&lt;Group&gt;"><path id="_Compound_Path_57" data-name="&lt;Compound Path&gt;" d="M64.7,67.26,67,60.9l.74,0L65.85,66,64.7,67.26Zm3-6.32H67l-2.09,6,.89-.94,1.88-5.06Z"/></g><polygon id="_Path_104" data-name="&lt;Path&gt;" class="cls-10" points="68.58 58.08 67.8 61.59 67.17 61.59 68.58 58.08"/><g id="_Group_81" data-name="&lt;Group&gt;"><path id="_Compound_Path_58" data-name="&lt;Compound Path&gt;" d="M67.84,61.62h-.67l1.38-3.57-.71,3.57Zm.71-3.56L67.22,61.6l.55-.05.78-3.49Z"/></g><polygon id="_Path_105" data-name="&lt;Path&gt;" class="cls-10" points="66.98 58.02 66.55 61.64 66.11 61.63 66.98 58.02"/><g id="_Group_82" data-name="&lt;Group&gt;"><path id="_Compound_Path_59" data-name="&lt;Compound Path&gt;" d="M66.6,61.69l-.49,0L66.94,58l-.34,3.69ZM66.94,58l-.79,3.6h.38L66.94,58Z"/></g><path id="_Path_106" data-name="&lt;Path&gt;" class="cls-11" d="M67.33,64.6l5-5.48a4.18,4.18,0,0,1,1.27,3.53L67.94,67.1Z"/><g id="_Group_83" data-name="&lt;Group&gt;"><path id="_Compound_Path_60" data-name="&lt;Compound Path&gt;" d="M67.93,67.18l-.64-2.57,5-5.52a4.17,4.17,0,0,1,1.35,3.56l-5.74,4.53Zm4.4-8-5,5.47L68,67l5.64-4.43h0a4.18,4.18,0,0,0-1.28-3.45Z"/></g><path id="_Path_107" data-name="&lt;Path&gt;" class="cls-12" d="M64.43,67.61l3.73-3.76c1.57,0,.33,2.4.24,2.7l-4,3.39Z"/><g id="_Group_84" data-name="&lt;Group&gt;"><path id="_Compound_Path_61" data-name="&lt;Compound Path&gt;" d="M64.4,70V67.61l3.74-3.78h0a.81.81,0,0,1,.72.3c.35.57-.1,1.65-.33,2.19l-.1.26L64.4,70Zm3.76-6.14-3.69,3.76v2.2l3.9-3.34s0-.1.08-.23c.21-.51.67-1.58.33-2.1a.75.75,0,0,0-.63-.29Z"/></g><polygon id="_Path_108" data-name="&lt;Path&gt;" class="cls-9" points="64.75 66.97 72.45 58.73 72.75 58.94 64.61 67.99 64.75 66.97"/><g id="_Group_85" data-name="&lt;Group&gt;"><path id="_Compound_Path_62" data-name="&lt;Compound Path&gt;" d="M64.55,68.12,64.71,67l7.7-8.26.36.22-8.22,9.2Zm7.88-9.36L64.78,67l-.13.88,8.07-9-.29-.16Z"/></g><polygon id="_Path_109" data-name="&lt;Path&gt;" class="cls-9" points="72.9 58.2 73.07 58.01 73.05 57.61 74.63 56.6 73.93 58.2 73.39 58.3 73.22 58.5 72.9 58.2"/><g id="_Group_86" data-name="&lt;Group&gt;"><path id="_Compound_Path_63" data-name="&lt;Compound Path&gt;" d="M73.2,58.53l-.36-.33L73,58l0-.37,1.61-1L74,58.22l-.76.31Zm1.4-1.94-1.53,1.06,0,.37-.17.21.28.21.14-.17.57-.11.68-1.57Z"/></g><path id="_Path_110" data-name="&lt;Path&gt;" class="cls-9" d="M73.71,58.78a3.51,3.51,0,0,0-1.18-1l-.43.62,1,.81Z"/><g id="_Group_87" data-name="&lt;Group&gt;"><path id="_Compound_Path_64" data-name="&lt;Compound Path&gt;" d="M73.05,59.3l-1-.8.42-.7a3.34,3.34,0,0,1,1.23,1l-.68.54Zm-.53-1.44-.38.63.91.73.63-.46a4.41,4.41,0,0,0-1.16-.9Z"/></g><path id="_Path_111" data-name="&lt;Path&gt;" class="cls-11" d="M69.52,66.06l6.31-5c1.09,1.1.19,4.5.19,4.5l-6.17,3.34Z"/><g id="_Group_88" data-name="&lt;Group&gt;"><path id="_Compound_Path_65" data-name="&lt;Compound Path&gt;" d="M69.82,68.94l-.33-2.88,6.31-5c1.15,1.1.29,4.38.25,4.52l-6.23,3.4Zm6-7.86-6.24,5,.33,2.72L76,65.5s.85-3.36-.2-4.42Z"/></g><path id="_Path_112" data-name="&lt;Path&gt;" class="cls-12" d="M64.31,70.12,69.49,66c1.77.26.38,2.86.27,3.14l-5.47,3Z"/><g id="_Group_89" data-name="&lt;Group&gt;"><path id="_Path_113" data-name="&lt;Path&gt;" d="M64.24,72.13l0-2,5.2-4.2a1,1,0,0,1,.82.49c.41.74-.2,2.06-.42,2.58l-.1,0c.25-.58.84-1.89.45-2.58a.88.88,0,0,0-.73-.44l-5.15,4.14V72l4.12-2.24-4.21,2.36Z"/></g><polygon id="_Path_114" data-name="&lt;Path&gt;" class="cls-9" points="64.5 69.27 75.73 60.85 75.98 61.11 64.2 70.31 64.5 69.27"/><g id="_Group_90" data-name="&lt;Group&gt;"><path id="_Compound_Path_66" data-name="&lt;Compound Path&gt;" d="M64.13,70.42l.34-1.15L75.7,60.83l.31.26L64.13,70.42ZM75.7,60.88,64.52,69.31l-.25.9L76,61.08l-.26-.2Z"/></g><polygon id="_Path_115" data-name="&lt;Path&gt;" class="cls-9" points="76.25 60.4 76.46 60.25 76.51 59.85 78.26 59.13 77.27 60.58 76.72 60.58 76.51 60.75 76.25 60.4"/><g id="_Group_91" data-name="&lt;Group&gt;"><path id="_Compound_Path_67" data-name="&lt;Compound Path&gt;" d="M76.49,60.78l-.3-.38.25-.19,0-.36,1.76-.76-.93,1.51-.82.18Zm1.73-1.68-1.71.79v.37l-.23.16.24.29.18-.15h.58l1-1.45Z"/></g><path id="_Path_116" data-name="&lt;Path&gt;" class="cls-9" d="M77,61.12A3.49,3.49,0,0,0,76,60l-.55.54.79,1Z"/><g id="_Group_92" data-name="&lt;Group&gt;"><path id="_Compound_Path_68" data-name="&lt;Compound Path&gt;" d="M76.2,61.53l-.8-1L76,60a3.09,3.09,0,0,1,1,1.15l-.77.43ZM76,60l-.5.56.78.85.69-.33A4.17,4.17,0,0,0,76,60Z"/></g><path id="_Path_117" data-name="&lt;Path&gt;" class="cls-11" d="M70,69.12c.08,0,8.12-4.59,8.12-4.59a2.68,2.68,0,0,1-.19,2.65,4,4,0,0,1-.32,2.39,3.69,3.69,0,0,1-1.17,2.21c-.74,2.81-3.62,3-4.73.71Z"/><g id="_Group_93" data-name="&lt;Group&gt;"><path id="_Compound_Path_69" data-name="&lt;Compound Path&gt;" d="M74,74.09a2.58,2.58,0,0,1-2.28-1.57l-1.73-3.39c.15-.11,5.39-3.06,8.14-4.63a2.62,2.62,0,0,1-.15,2.7,3.49,3.49,0,0,0,0,.44,3.47,3.47,0,0,1-.34,2,3.84,3.84,0,0,1-1.2,2.21A2.65,2.65,0,0,1,74,74.09Zm4.12-9.54c-1.28.78-8,4.58-8.08,4.6l1.74,3.32A2.52,2.52,0,0,0,74,74a2.62,2.62,0,0,0,2.42-2.26,3.71,3.71,0,0,0,1.18-2.2,3.29,3.29,0,0,0,.35-1.91,1.83,1.83,0,0,1,0-.47,2.73,2.73,0,0,0,.2-2.63Z"/></g><path id="_Path_118" data-name="&lt;Path&gt;" class="cls-12" d="M64.65,72.13l5.52-3.23c1.77.24,0,3.53-.14,3.83L64.7,74.61Z"/><g id="_Group_94" data-name="&lt;Group&gt;"><path id="_Compound_Path_70" data-name="&lt;Compound Path&gt;" d="M64.66,74.67l0-2.54,5.52-3.27a.89.89,0,0,1,.71.43c.45.83-.38,2.57-.7,3.23l-.11.25-5.38,1.9Zm5.49-5.73-5.48,3.23.07,2.4L70,72.69c.37-.84,1.19-2.57.76-3.36a.77.77,0,0,0-.62-.39Z"/></g><polygon id="_Path_119" data-name="&lt;Path&gt;" class="cls-9" points="65.58 70.95 78.02 64.34 78.24 64.63 65.1 71.94 65.58 70.95"/><g id="_Group_95" data-name="&lt;Group&gt;"><path id="_Compound_Path_71" data-name="&lt;Compound Path&gt;" d="M65,72,65.55,71,78,64.3l.27.31L65,72Zm13-7.68L65.6,71l-.4.86,13-7.25L78,64.36Z"/></g><polygon id="_Path_120" data-name="&lt;Path&gt;" class="cls-9" points="78.63 63.97 78.85 63.85 78.97 63.48 80.81 63.02 79.6 64.3 79.06 64.22 78.83 64.35 78.63 63.97"/><g id="_Group_96" data-name="&lt;Group&gt;"><path id="_Compound_Path_72" data-name="&lt;Compound Path&gt;" d="M78.79,64.38,78.57,64l.25-.15.1-.35L80.8,63l-1.16,1.36-.59-.07-.26.12Zm2-1.4-1.8.53-.1.36-.22.14.18.29.18-.11.59.07L80.78,63Z"/></g><path id="_Path_121" data-name="&lt;Path&gt;" class="cls-9" d="M79.19,64.78a3.54,3.54,0,0,0-.78-1.27l-.62.46L78.41,65Z"/><g id="_Group_97" data-name="&lt;Group&gt;"><path id="_Compound_Path_73" data-name="&lt;Compound Path&gt;" d="M78.4,65.07,77.75,64l.65-.5a3.23,3.23,0,0,1,.83,1.3l-.83.29Zm0-1.53-.56.47.61,1,.75-.24a4.91,4.91,0,0,0-.8-1.2Z"/></g><path id="_Path_122" data-name="&lt;Path&gt;" class="cls-11" d="M74.55,60.16l-.26.48c-.15-.07-1.77-1.52-1.77-1.52l-1.15,0L71,58.7c.84-.91,1.64.14,1.64.14Z"/><g id="_Group_98" data-name="&lt;Group&gt;"><path id="_Compound_Path_74" data-name="&lt;Compound Path&gt;" class="cls-13" d="M74.32,60.67h0c-.16-.07-1.62-1.38-1.78-1.53l-1.13,0L71,58.73c.7-.9,1.66.05,1.69.09l1.86,1.32-.25.53Zm-2.54-2.3a1,1,0,0,0-.71.36l.34.31,1.11,0c.64.57,1.56,1.38,1.76,1.52l.24-.42-1.86-1.29a1.33,1.33,0,0,0-.88-.5Z"/></g><path id="_Path_123" data-name="&lt;Path&gt;" class="cls-12" d="M73.63,60.94a4,4,0,0,0-.93-1.45c-.57.18-1.12.51-1.68-.81.49.65,1.51,0,1.51,0L73,59l0,.18,1.34,1.24Z"/><g id="_Group_99" data-name="&lt;Group&gt;"><path id="_Path_124" data-name="&lt;Path&gt;" class="cls-14" d="M73.6,61l0-.06a4,4,0,0,0-.78-1.29,3,3,0,0,1,.85,1.22l.63-.45L72.51,58.7s-1.12.53-1.53,0c.74,1.34,1.1.94,1.54.8l.12,0c-1,.34-1.22.14-1.67-.84.58.38,1.54-.06,1.54-.06L73,59l1.32,1.41L73.6,61Z"/></g><path id="_Path_125" data-name="&lt;Path&gt;" class="cls-11" d="M77.57,62.52,77.5,63c-.16-.09-1.56-1.64-1.56-1.64l-1.14-.21-.23-.36c.79-.93,1.63.3,1.63.3Z"/><g id="_Group_100" data-name="&lt;Group&gt;"><path id="_Compound_Path_75" data-name="&lt;Compound Path&gt;" class="cls-13" d="M77.53,63.06l0,0c-.15-.09-1.44-1.49-1.58-1.64l-1.12-.21-.26-.37c.69-1,1.67.22,1.71.27L77.6,62.5l-.07.56Zm-2.32-2.58a.74.74,0,0,0-.6.33l.23.31,1.11.2c.54.58,1.3,1.41,1.53,1.61l0-.41-1.35-1.41s-.45-.63-1-.63Z"/></g><path id="_Path_126" data-name="&lt;Path&gt;" class="cls-12" d="M76.67,63.36A4.21,4.21,0,0,0,76,61.62c-.68.19-1.27.51-1.52-.91.39.71,1.52.16,1.52.16l.38.43-.06.23L77.5,63Z"/><g id="_Group_101" data-name="&lt;Group&gt;"><path id="_Path_127" data-name="&lt;Path&gt;" class="cls-14" d="M76.62,63.43v-.07a3.9,3.9,0,0,0-.49-1.52,3.25,3.25,0,0,1,.58,1.46l.77-.32-1.17-1.44.05-.25L76,60.9s-1.22.39-1.53-.16c.4,1.47.87,1.06,1.38.88a.16.16,0,0,1,.11.05c-1,.36-1.3.14-1.49-1,.46.46,1.53.12,1.54.11l.43.45,0,.26L77.53,63l-.91.45Z"/></g><path id="_Path_128" data-name="&lt;Path&gt;" class="cls-11" d="M79.69,66.28l-.26.51c-.13-.11-1.33-2-1.33-2L77,64.42,76.81,64c.87-.81,1.54.59,1.54.59Z"/><g id="_Group_102" data-name="&lt;Group&gt;"><path id="_Compound_Path_76" data-name="&lt;Compound Path&gt;" class="cls-13" d="M79.44,66.84l0,0c-.14-.1-1.21-1.82-1.33-2L77,64.45,76.78,64c.81-.89,1.58.52,1.6.57l1.33,1.7-.27.59Zm-2.07-3.08a.75.75,0,0,0-.52.25l.21.39,1.06.34c.46.72,1.11,1.77,1.3,2l.23-.47-1.34-1.67s-.39-.83-.94-.83Z"/></g><path id="_Path_129" data-name="&lt;Path&gt;" class="cls-12" d="M78.51,67a5,5,0,0,0-.3-1.91c-.69.2-1.26.26-1.41-1.15.4.67,1.46.41,1.46.41l.3.48L78.5,65l.9,1.73Z"/><g id="_Group_103" data-name="&lt;Group&gt;"><path id="_Compound_Path_77" data-name="&lt;Compound Path&gt;" class="cls-14" d="M78.47,67.06V67a5.45,5.45,0,0,0-.29-1.87,1.63,1.63,0,0,1-.55.11c-.51,0-.79-.38-.87-1.28a1.66,1.66,0,0,0,1.48.37l.34.49.85,1.91-1,.33Zm-.27-2a4.39,4.39,0,0,1,.37,1.88l.82-.24-1.17-2.3A1.35,1.35,0,0,1,76.77,64c.29,1.67.91,1.23,1.43,1.09Z"/></g><polygon id="_Path_130" data-name="&lt;Path&gt;" class="cls-9" points="65.68 74 68.77 73.04 70.13 70.74 74.9 70.51 74.73 72.23 70.67 73.01 70.28 73.7 65.59 75.01 65.68 74"/><g id="_Group_104" data-name="&lt;Group&gt;"><path id="_Compound_Path_78" data-name="&lt;Compound Path&gt;" d="M65.55,75.06,65.63,74l3.13-1,1.32-2.29,4.82-.25-.13,1.76-4.09.82-.36.67-4.77,1.34Zm9.32-4.56-4.74.27L68.8,73.06l-3.11,1,0,.92,4.62-1.29.36-.69,4.09-.79.15-1.69Z"/></g><polygon id="_Path_131" data-name="&lt;Path&gt;" class="cls-15" points="68.91 74.64 73.81 67.45 74.04 67.63 69.18 74.85 68.91 74.64"/><g id="_Group_105" data-name="&lt;Group&gt;"><path id="_Compound_Path_79" data-name="&lt;Compound Path&gt;" d="M69.2,74.91l-.32-.23,4.89-7.25.3.17L69.2,74.91Zm4.58-7.42-4.84,7.18.24.14L74,67.61l-.23-.12Z"/></g><path id="_Path_132" data-name="&lt;Path&gt;" class="cls-10" d="M73.35,67.74l.53-.89c.08-.16.24-.21.46-.09a.32.32,0,0,1,.09.49l-.47.82Z"/><g id="_Group_106" data-name="&lt;Group&gt;"><path id="_Compound_Path_80" data-name="&lt;Compound Path&gt;" d="M74,68.12l-.65-.35.52-.93a.33.33,0,0,1,.29-.18c.32.11.37.18.4.27a.49.49,0,0,1-.07.34l-.49.85Zm.16-1.38-.76,1L74,68l.44-.78a.51.51,0,0,0,.07-.3l-.33-.2Z"/></g><polygon id="_Path_133" data-name="&lt;Path&gt;" class="cls-9" points="68.32 70.21 78.2 69.2 78.44 70.63 68.62 71.62 68.32 70.21"/><g id="_Group_107" data-name="&lt;Group&gt;"><path id="_Compound_Path_81" data-name="&lt;Compound Path&gt;" d="M68.58,71.66l-.29-1.45,9.91-1.06.28,1.48-9.9,1Zm9.58-2.46-9.83,1,.32,1.35,9.78-1-.27-1.39Z"/></g><polygon id="_Path_134" data-name="&lt;Path&gt;" class="cls-9" points="78.38 68.83 78.63 70.83 78.22 70.83 77.93 68.99 78.38 68.83"/><g id="_Group_108" data-name="&lt;Group&gt;"><polygon id="_Path_135" data-name="&lt;Path&gt;" points="78.67 70.86 78.22 70.86 77.9 69 78.37 68.79 78.67 70.86 78.67 70.86"/></g><polygon id="_Path_136" data-name="&lt;Path&gt;" class="cls-9" points="76.73 69.15 76.84 70.95 76.59 70.97 76.38 69.39 76.73 69.15"/><g id="_Group_109" data-name="&lt;Group&gt;"><polygon id="_Path_137" data-name="&lt;Path&gt;" points="76.55 71.02 76.35 69.39 76.7 69.12 76.88 70.98 76.55 71.02 76.55 71.02"/></g><polygon id="_Path_138" data-name="&lt;Path&gt;" class="cls-9" points="70.04 69.92 70.28 71.61 69.79 71.58 69.61 69.92 70.04 69.92"/><g id="_Group_110" data-name="&lt;Group&gt;"><polygon id="_Path_139" data-name="&lt;Path&gt;" points="70.33 71.65 69.79 71.62 69.57 69.93 70.04 69.89 70.33 71.65 70.33 71.65"/></g><path id="_Path_140" data-name="&lt;Path&gt;" class="cls-9" d="M68.57,70l.35,2-.55.08-.15-1a.49.49,0,0,1-.47.37.47.47,0,0,1-.46-.46.45.45,0,0,1,.46-.44.46.46,0,0,1,.43.3L68.07,70Z"/><g id="_Group_111" data-name="&lt;Group&gt;"><path id="_Compound_Path_82" data-name="&lt;Compound Path&gt;" d="M68.33,72,68.18,71c0,.5-.93.4-.93-.1a.5.5,0,0,1,1-.16L68,70l.55-.08.38,2-.62.13ZM68.18,71l.21,1,.52-.07L68.53,70l-.46.07.14.68c-.34-.34-.89-.24-.89.16s.76.5.86.09Z"/></g><polygon id="_Path_141" data-name="&lt;Path&gt;" class="cls-9" points="72.14 70.29 73.49 71.81 73.33 72.01 71.58 70.81 72.14 70.29"/><g id="_Group_112" data-name="&lt;Group&gt;"><path id="_Compound_Path_83" data-name="&lt;Compound Path&gt;" d="M73.33,72.06l-1.76-1.22.53-.58,1.44,1.55-.21.25ZM72.1,70.31l-.48.53L73.32,72l.14-.15L72.1,70.31Z"/></g><polygon id="_Path_142" data-name="&lt;Path&gt;" class="cls-9" points="75.29 74.09 73.93 72.57 74.09 72.38 75.83 73.58 75.29 74.09"/><g id="_Group_113" data-name="&lt;Group&gt;"><path id="_Compound_Path_84" data-name="&lt;Compound Path&gt;" d="M75.29,74.15l-1.41-1.58.18-.21,1.8,1.18-.57.61Zm-1.22-1.74L75.29,74l.51-.49-1.73-1.14Z"/></g><polygon id="_Path_143" data-name="&lt;Path&gt;" class="cls-9" points="71.74 73.72 73.39 72.43 73.57 72.56 72.25 74.21 71.74 73.72"/><g id="_Group_114" data-name="&lt;Group&gt;"><path id="_Compound_Path_85" data-name="&lt;Compound Path&gt;" d="M72.26,74.27l-.54-.52,1.65-1.35.23.18-1.34,1.69Zm1.28-1.73-1.78,1.21.49.4,1.29-1.61Z"/></g><polygon id="_Path_144" data-name="&lt;Path&gt;" class="cls-9" points="75.81 70.77 74.14 72.01 73.93 71.85 75.25 70.2 75.81 70.77"/><g id="_Group_115" data-name="&lt;Group&gt;"><path id="_Compound_Path_86" data-name="&lt;Compound Path&gt;" d="M74.14,72l-.23-.16,1.3-1.71.62.57L74.14,72Zm1.08-1.81L74,71.87l.18.14,0,0,1.68-1.23-.57-.51Z"/></g><polygon id="_Path_145" data-name="&lt;Path&gt;" class="cls-9" points="73.98 69.75 73.83 71.76 73.61 71.75 73.07 69.8 73.98 69.75"/><g id="_Group_116" data-name="&lt;Group&gt;"><path id="_Compound_Path_87" data-name="&lt;Compound Path&gt;" d="M73.86,71.8H73.6l-.57-2,1-.09-.12,2.09Zm.1-2-.88.09.56,1.9h.15l.17-2Z"/></g><polygon id="_Path_146" data-name="&lt;Path&gt;" class="cls-9" points="73.44 74.62 73.6 72.61 73.84 72.59 74.15 74.62 73.44 74.62"/><g id="_Group_117" data-name="&lt;Group&gt;"><path id="_Compound_Path_88" data-name="&lt;Compound Path&gt;" d="M74.2,74.67h-.76l.13-2.1.27,0,.36,2.12Zm-.39-2.08-.34,2,.64,0-.3-2Z"/></g><polygon id="_Path_147" data-name="&lt;Path&gt;" class="cls-9" points="71.21 71.92 73.32 72.13 73.36 72.34 71.23 72.61 71.21 71.92"/><g id="_Group_118" data-name="&lt;Group&gt;"><path id="_Compound_Path_89" data-name="&lt;Compound Path&gt;" d="M71.19,72.66v-.74l2.15.22,0,.24-2.17.28Zm0-.71.06.62,2.08-.27L71.21,72Z"/></g><polygon id="_Path_148" data-name="&lt;Path&gt;" class="cls-9" points="76.23 72.61 74.18 72.29 74.13 72.13 76.25 71.89 76.23 72.61"/><g id="_Group_119" data-name="&lt;Group&gt;"><polygon id="_Path_149" data-name="&lt;Path&gt;" points="76.27 72.66 74.16 72.32 74.53 72.23 76.18 72.56 76.21 71.89 75.89 71.93 76.25 71.85 76.27 72.66 76.27 72.66"/></g><path id="_Path_150" data-name="&lt;Path&gt;" class="cls-9" d="M73.16,72.14a.56.56,0,1,0,.57-.53.55.55,0,0,0-.57.53Z"/><g id="_Group_120" data-name="&lt;Group&gt;"><path id="_Compound_Path_90" data-name="&lt;Compound Path&gt;" d="M73.73,72.73a.59.59,0,0,1-.6-.59c0-.63,1.19-.64,1.19,0a.59.59,0,0,1-.59.59Zm0-1.08a.5.5,0,0,0-.52.49c0,.56,1,.56,1,0a.5.5,0,0,0-.52-.49Z"/></g><path id="_Compound_Path_91" data-name="&lt;Compound Path&gt;" class="cls-9" d="M70.76,72.14a3,3,0,1,0,3-2.85,2.92,2.92,0,0,0-3,2.85Zm.59,0a2.37,2.37,0,1,0,2.38-2.28,2.34,2.34,0,0,0-2.38,2.28Z"/><g id="_Group_121" data-name="&lt;Group&gt;"><path id="_Compound_Path_92" data-name="&lt;Compound Path&gt;" d="M73.73,75a2.9,2.9,0,1,1,3-2.9,2.94,2.94,0,0,1-3,2.9Zm0-5.71a2.82,2.82,0,1,0,2.92,2.81,2.86,2.86,0,0,0-2.92-2.81Zm0,5.15a2.34,2.34,0,1,1,2.4-2.34,2.38,2.38,0,0,1-2.4,2.34Zm0-4.59a2.25,2.25,0,1,0,2.32,2.25,2.28,2.28,0,0,0-2.32-2.25Z"/></g><g id="_Group_122" data-name="&lt;Group&gt;"><path id="_Compound_Path_93" data-name="&lt;Compound Path&gt;" class="cls-1" d="M75.57,70.71l.47-.35Zm-3.32-.33L71.87,70ZM71.42,74l.47-.39Zm4.15.43L75.15,74Z"/></g><polygon id="_Path_151" data-name="&lt;Path&gt;" class="cls-9" points="65.61 69.33 65.09 71.9 65.51 72.13 65.96 69.36 65.61 69.33"/><g id="_Group_123" data-name="&lt;Group&gt;"><path id="_Compound_Path_94" data-name="&lt;Compound Path&gt;" d="M65.54,72.19l-.46-.25.49-2.62H66l-.42,2.86Zm.38-2.83h-.31l-.48,2.56.35.16.44-2.72Z"/></g><path id="_Path_152" data-name="&lt;Path&gt;" class="cls-10" d="M65.86,69c.25-.09.55.07,1-.57.82.76,0,.87-.08,1.62-.23.1-.37-.57-1-.65l-1-.08.23-.32Z"/><g id="_Group_124" data-name="&lt;Group&gt;"><path id="_Compound_Path_95" data-name="&lt;Compound Path&gt;" d="M66.79,70.08c-.1,0-.18-.08-.29-.2a1,1,0,0,0-.69-.45l-1-.08L65,69l1,0a1.11,1.11,0,0,0,.82-.51c.62.51.46.75.25,1.07a1.48,1.48,0,0,0-.26.58l-.08,0ZM65.05,69l-.21.31,1,0a1.08,1.08,0,0,1,.74.47c.09.1.16.18.22.18v0l0,0a1.46,1.46,0,0,1,.24-.6c.2-.29.33-.48-.17-1a1,1,0,0,1-.82.53l-.4,0Z"/></g><path id="_Path_153" data-name="&lt;Path&gt;" class="cls-10" d="M65.53,69.5l.1-.78c.09-.26.43,0,.43.13l-.08.71Z"/><g id="_Group_125" data-name="&lt;Group&gt;"><path id="_Path_154" data-name="&lt;Path&gt;" d="M66,69.61l-.51-.07.07-.82a1,1,0,0,1,.2-.07l-.21.85.38,0,.08-.68c0-.06-.08-.15-.18-.19h0c.18,0,.26.11.26.2l-.09.76Z"/></g><path id="_Path_155" data-name="&lt;Path&gt;" class="cls-9" d="M71.27,75.88a.33.33,0,0,0,.49.27.3.3,0,0,0,.16-.27.3.3,0,0,0-.16-.28.33.33,0,0,0-.49.28Z"/><g id="_Group_126" data-name="&lt;Group&gt;"><path id="_Path_156" data-name="&lt;Path&gt;" class="cls-1" d="M71.27,75.88a.33.33,0,0,0,.49.27.3.3,0,0,0,.16-.27.3.3,0,0,0-.16-.28.33.33,0,0,0-.49.28Z"/></g><path id="_Path_157" data-name="&lt;Path&gt;" class="cls-9" d="M72.1,75.29a.34.34,0,0,0,.16.27.38.38,0,0,0,.33,0,.3.3,0,0,0,.16-.27.29.29,0,0,0-.16-.27.33.33,0,0,0-.49.27Z"/><g id="_Group_127" data-name="&lt;Group&gt;"><path id="_Path_158" data-name="&lt;Path&gt;" class="cls-1" d="M72.1,75.29a.34.34,0,0,0,.16.27.38.38,0,0,0,.33,0,.3.3,0,0,0,.16-.27.29.29,0,0,0-.16-.27.33.33,0,0,0-.49.27Z"/></g><path id="_Path_159" data-name="&lt;Path&gt;" class="cls-9" d="M73.22,75.68a.31.31,0,0,0,.17.27.36.36,0,0,0,.32,0,.33.33,0,0,0,.17-.27.32.32,0,0,0-.17-.28.36.36,0,0,0-.32,0,.3.3,0,0,0-.17.28Z"/><g id="_Group_128" data-name="&lt;Group&gt;"><path id="_Path_160" data-name="&lt;Path&gt;" class="cls-1" d="M73.22,75.68a.31.31,0,0,0,.17.27.36.36,0,0,0,.32,0,.33.33,0,0,0,.17-.27.32.32,0,0,0-.17-.28.36.36,0,0,0-.32,0A.3.3,0,0,0,73.22,75.68Z"/></g><path id="_Path_161" data-name="&lt;Path&gt;" class="cls-9" d="M75,76.05a.32.32,0,0,0,.16.27.31.31,0,0,0,.32,0,.32.32,0,0,0,.16-.27.32.32,0,0,0-.16-.28.44.44,0,0,0-.32,0,.32.32,0,0,0-.16.28Z"/><g id="_Group_129" data-name="&lt;Group&gt;"><path id="_Path_162" data-name="&lt;Path&gt;" class="cls-1" d="M75,76.05a.32.32,0,0,0,.16.27.31.31,0,0,0,.32,0,.32.32,0,0,0,.16-.27.32.32,0,0,0-.16-.28.44.44,0,0,0-.32,0A.32.32,0,0,0,75,76.05Z"/></g><path id="_Path_163" data-name="&lt;Path&gt;" class="cls-9" d="M75.68,76.14a.35.35,0,0,0,.16.27.33.33,0,0,0,.49-.27.32.32,0,0,0-.16-.28.38.38,0,0,0-.33,0,.34.34,0,0,0-.16.28Z"/><g id="_Group_130" data-name="&lt;Group&gt;"><path id="_Path_164" data-name="&lt;Path&gt;" class="cls-1" d="M75.68,76.14a.35.35,0,0,0,.16.27.33.33,0,0,0,.49-.27.32.32,0,0,0-.16-.28.38.38,0,0,0-.33,0A.34.34,0,0,0,75.68,76.14Z"/></g><path id="_Path_165" data-name="&lt;Path&gt;" class="cls-9" d="M76.41,76.14a.37.37,0,0,0,.15.27.32.32,0,0,0,.33,0,.32.32,0,0,0,.17-.27.31.31,0,0,0-.17-.28.38.38,0,0,0-.33,0,.36.36,0,0,0-.15.28Z"/><g id="_Group_131" data-name="&lt;Group&gt;"><path id="_Path_166" data-name="&lt;Path&gt;" class="cls-1" d="M76.41,76.14a.37.37,0,0,0,.15.27.32.32,0,0,0,.33,0,.32.32,0,0,0,.17-.27.31.31,0,0,0-.17-.28.38.38,0,0,0-.33,0A.36.36,0,0,0,76.41,76.14Z"/></g><path id="_Path_167" data-name="&lt;Path&gt;" class="cls-9" d="M77.14,76.11a.36.36,0,0,0,.16.28.36.36,0,0,0,.32,0,.34.34,0,0,0,.17-.28.31.31,0,0,0-.17-.27.36.36,0,0,0-.32,0,.32.32,0,0,0-.16.27Z"/><g id="_Group_132" data-name="&lt;Group&gt;"><path id="_Path_168" data-name="&lt;Path&gt;" class="cls-1" d="M77.14,76.11a.36.36,0,0,0,.16.28.36.36,0,0,0,.32,0,.34.34,0,0,0,.17-.28.31.31,0,0,0-.17-.27.36.36,0,0,0-.32,0A.32.32,0,0,0,77.14,76.11Z"/></g><path id="_Path_169" data-name="&lt;Path&gt;" class="cls-9" d="M76.79,75.56a.33.33,0,0,0,.14.26.34.34,0,0,0,.34,0,.3.3,0,0,0,.16-.26.3.3,0,0,0-.16-.27.34.34,0,0,0-.34,0,.33.33,0,0,0-.14.27Z"/><g id="_Group_133" data-name="&lt;Group&gt;"><path id="_Path_170" data-name="&lt;Path&gt;" class="cls-1" d="M76.79,75.56a.33.33,0,0,0,.14.26.34.34,0,0,0,.34,0,.3.3,0,0,0,.16-.26.3.3,0,0,0-.16-.27.34.34,0,0,0-.34,0A.33.33,0,0,0,76.79,75.56Z"/></g><path id="_Path_171" data-name="&lt;Path&gt;" class="cls-9" d="M76.07,75.59a.29.29,0,0,0,.17.27.29.29,0,0,0,.31,0,.29.29,0,0,0,.17-.27.31.31,0,0,0-.17-.28.34.34,0,0,0-.31,0,.31.31,0,0,0-.17.28Z"/><g id="_Group_134" data-name="&lt;Group&gt;"><path id="_Path_172" data-name="&lt;Path&gt;" class="cls-1" d="M76.07,75.59a.29.29,0,0,0,.17.27.29.29,0,0,0,.31,0,.29.29,0,0,0,.17-.27.31.31,0,0,0-.17-.28.34.34,0,0,0-.31,0A.31.31,0,0,0,76.07,75.59Z"/></g><path id="_Path_173" data-name="&lt;Path&gt;" class="cls-9" d="M75.4,75.5a.28.28,0,0,0,.15.27.34.34,0,0,0,.34,0A.3.3,0,0,0,76,75.5a.31.31,0,0,0-.15-.26.3.3,0,0,0-.34,0,.29.29,0,0,0-.15.26Z"/><g id="_Group_135" data-name="&lt;Group&gt;"><path id="_Path_174" data-name="&lt;Path&gt;" class="cls-1" d="M75.4,75.5a.28.28,0,0,0,.15.27.34.34,0,0,0,.34,0A.3.3,0,0,0,76,75.5a.31.31,0,0,0-.15-.26.3.3,0,0,0-.34,0A.29.29,0,0,0,75.4,75.5Z"/></g><path id="_Path_175" data-name="&lt;Path&gt;" class="cls-9" d="M75.74,75a.33.33,0,0,0,.65,0,.32.32,0,0,0-.16-.27.38.38,0,0,0-.33,0,.32.32,0,0,0-.16.27Z"/><g id="_Group_136" data-name="&lt;Group&gt;"><path id="_Path_176" data-name="&lt;Path&gt;" class="cls-1" d="M75.74,75a.33.33,0,0,0,.65,0,.32.32,0,0,0-.16-.27.38.38,0,0,0-.33,0A.32.32,0,0,0,75.74,75Z"/></g><path id="_Path_177" data-name="&lt;Path&gt;" class="cls-9" d="M76.41,74.94a.37.37,0,0,0,.15.28.32.32,0,0,0,.33,0,.32.32,0,0,0,.17-.28.28.28,0,0,0-.17-.26.32.32,0,0,0-.33,0,.32.32,0,0,0-.15.26Z"/><g id="_Group_137" data-name="&lt;Group&gt;"><path id="_Path_178" data-name="&lt;Path&gt;" class="cls-1" d="M76.41,74.94a.37.37,0,0,0,.15.28.32.32,0,0,0,.33,0,.32.32,0,0,0,.17-.28.28.28,0,0,0-.17-.26.32.32,0,0,0-.33,0A.32.32,0,0,0,76.41,74.94Z"/></g><path id="_Path_179" data-name="&lt;Path&gt;" class="cls-10" d="M70.84,73.81c.27-.12.27.51.27.51h-.43c-.2.08-.35.36-.24.5s1-.19,1,0a1.18,1.18,0,0,1-1.69.81c-.4-.36-.5-1.33.79-1.6Z"/><g id="_Group_138" data-name="&lt;Group&gt;"><path id="_Compound_Path_96" data-name="&lt;Compound Path&gt;" d="M70.24,75.81a.69.69,0,0,1-.49-.16.9.9,0,0,1-.25-.89A1.21,1.21,0,0,1,70.56,74l.28-.24H71c.14.12.14.51.14.56l-.46,0a.53.53,0,0,0-.24.3c.06.17.31.14.46.1s.56-.08.6,0a1.23,1.23,0,0,1-.84.94,1.28,1.28,0,0,1-.42.07Zm.31-1.74a1.16,1.16,0,0,0-1,.71.85.85,0,0,0,.22.81.89.89,0,0,0,.84.07,1.11,1.11,0,0,0,.79-.85s-.33,0-.51,0-.43.07-.49,0c0-.35.11-.51.24-.56h.07l-.18-.22Zm6.52-.53,0-.08,2.7-1.18-2.67,1.26Z"/></g><path id="_Path_180" data-name="&lt;Path&gt;" class="cls-12" d="M81.39,71a6.4,6.4,0,0,1,1.17.06c.06,0-.25.34-.19.48.25.46,1.94.4,2.06.3s-1.56-.34-1.57-.46.26-.49.22-.71-.78-.41-.78-.41Z"/><g id="_Group_139" data-name="&lt;Group&gt;"><path id="_Path_181" data-name="&lt;Path&gt;" class="cls-14" d="M83.77,72c-.29,0-1.22,0-1.43-.4,0-.09,0-.23.12-.36s-.34-.16-.84-.16l0,0a2.79,2.79,0,0,1,.92,0c-.11.32-.19.45-.15.5.22.44,1.9.37,2,.3a3.16,3.16,0,0,0-.86-.21c-.58-.1-.72-.14-.72-.21a.5.5,0,0,1,.09-.29.88.88,0,0,0,.13-.43c0-.23-.56-.33-.76-.36l-.23.19.21-.26c.11,0,.79.1.85.42a.8.8,0,0,1-.13.47.69.69,0,0,0-.08.25,3.37,3.37,0,0,0,.65.14c.63.11.91.18.93.27s-.44.16-.72.16Z"/></g><path id="_Path_182" data-name="&lt;Path&gt;" class="cls-15" d="M80.08,71.93l2.23-1.86s.1-.1.18,0,0,.19,0,.19l-2.32,1.91Z"/><g id="_Group_140" data-name="&lt;Group&gt;"><path id="_Compound_Path_97" data-name="&lt;Compound Path&gt;" d="M80.13,72.22l-.1-.28L82.29,70l.27.1-2.43,2.08Zm2.3-2L80.1,72l0,.16,2.3-1.88Z"/></g><path id="_Path_183" data-name="&lt;Path&gt;" class="cls-9" d="M77.92,73.76s1.81-1.59,1.81-1.59l.14-.45a2.93,2.93,0,0,1,.36.29,2.26,2.26,0,0,1,.26.35l-.5,0-1.58,1.45Z"/><g id="_Group_141" data-name="&lt;Group&gt;"><path id="_Compound_Path_98" data-name="&lt;Compound Path&gt;" d="M78.43,73.87l-.52-.08c0-.1,1.8-1.65,1.8-1.65l.11-.43c.08,0,.33.16.44.26a4.48,4.48,0,0,1,.27.38l-.54.08-1.56,1.44Zm1.4-2.13-.06.45S78,73.72,77.94,73.78h.47L80,72.36l.49,0c-.06,0-.17-.21-.26-.29a4.62,4.62,0,0,0-.37-.29Z"/></g><path id="_Compound_Path_99" data-name="&lt;Compound Path&gt;" class="cls-9" d="M68,71.62v.73c.25.08.22.25.21.51l0,2.09c.08.13.34.15.47.26s.1.32-.44.45l-.44,0c-.65-.14-.79-.36-.46-.47a1.71,1.71,0,0,0,.49-.25v-.51l-.43,0c-.12,0-.32-.3-.33-.52V72.87c0-.62.46-.68.6-.68v-.57Zm-.7,1.2c0-.17.24-.32.35-.33a.48.48,0,0,1,.31.38v.43c0,.18-.14.7-.4.76s-.28-.18-.28-.34Z"/><g id="_Group_142" data-name="&lt;Group&gt;"><path id="_Compound_Path_100" data-name="&lt;Compound Path&gt;" d="M67.75,75.73h0c-.42-.1-.65-.23-.66-.37v0l.2-.18a1.21,1.21,0,0,0,.47-.22l0-.48-.39.07c-.14,0-.37-.34-.38-.56V72.87a.65.65,0,0,1,.63-.72l0-.53.42,0,0,.76c.22.05.21.21.21.43l0,2.17a.49.49,0,0,0,.23.11l.29.31c0,.1-.14.23-.53.33l-.44,0Zm0-1.32,0,.55a1,1,0,0,1-.45.25c-.21.22-.05.33.38.43h.43c.38-.1.45-.23.45-.27l-.23-.22a.48.48,0,0,1-.26-.16V72.86c0-.3,0-.41-.18-.48v-.76l-.35,0,.05.53a.65.65,0,0,0-.61.68V74c0,.21.22.47.3.47l.43,0Zm-.23-.32a.38.38,0,0,1-.32-.37v-.9c0-.2.28-.36.39-.37h0c.12,0,.34.23.35.42v.43c0,.13-.12.75-.44.79Zm.09-1.57c-.1,0-.32.16-.32.3v.9c0,.14.13.3.22.3s.36-.52.38-.72v-.43a.47.47,0,0,0-.28-.35Z"/></g><path id="_Path_184" data-name="&lt;Path&gt;" class="cls-7" d="M64,51.68c3.41-3.42,6.09-1.75,6.74-1.28-.43.08-.81-.19-1-.21.12.15.38.53.38.53A6,6,0,0,0,69,50.28a1.74,1.74,0,0,1,.33.41c-.08,0-.67-.47-.79-.48a1.68,1.68,0,0,1,.23.68l-.51-.24c-.13.09,0,.27-.07.27a3.38,3.38,0,0,0-2.23,1Z"/><g id="_Group_143" data-name="&lt;Group&gt;"><path id="_Compound_Path_101" data-name="&lt;Compound Path&gt;" d="M66,52a3,3,0,0,1,2.19-1.11h0V51A3.36,3.36,0,0,0,66,52ZM64,51.7,64,51.65c3.35-3.36,6-1.82,6.77-1.28a1.07,1.07,0,0,1-.8-.07c-.06,0,.19.41.19.41s0,0,0,0h0A5.81,5.81,0,0,0,69,50.32c.18,0,.35.33.36.34s-.17,0-.46-.18a2.54,2.54,0,0,0-.37-.23c.21.15.27.62.28.62l-.57-.18,0-.08.49.23c-.06-.08-.11-.44-.27-.59.1-.07.24,0,.46.16a1.51,1.51,0,0,0,.3.21,1.92,1.92,0,0,0-.28-.3c.13-.12.83.18,1.13.33-.09-.09-.26-.33-.35-.45l-.08-.11.36.14a1.37,1.37,0,0,0,.75.13c-.75-.47-3.38-2-6.7,1.34Z"/></g><path id="_Path_185" data-name="&lt;Path&gt;" class="cls-7" d="M64.86,52.3c.35-.83,6.83-2.19,8.15.11-.51.12-1-.43-1-.43l0,.51-.86-.67.32.68L70.81,52l0,.55L70,51.59l.11.54-.75-.33.09.45Z"/><g id="_Group_144" data-name="&lt;Group&gt;"><path id="_Path_186" data-name="&lt;Path&gt;" d="M70.86,52.5l-.9-.88.17.49-.8-.28.13.42-.15-.43.79.27-.16-.5.91.9L70.76,52l.75.53-.37-.63.93.61L72,52a1.59,1.59,0,0,0,.88.4.39.39,0,0,0,.15,0c-.71-1.16-2.82-1.23-4-1.17-2,.1-3.92.7-4.1,1.12l-.07,0c.22-.49,2.29-1.07,4.16-1.17,1.21-.06,3.33,0,4,1.27-.53.2-1-.35-1.06-.39l.12.5-.93-.64.37.64L70.77,52l.09.52Z"/></g><path id="_Path_187" data-name="&lt;Path&gt;" class="cls-7" d="M65.15,52.42c1.65-1.11,4.23-.35,4.23-.35,1.65.91,2.52.76,2.73,2.45a3.73,3.73,0,0,1-.6-.59l-.33.65-.11-.94-.26.73-.4-1.19-.09.81-.63-.81-.28.23-.27-.62-.24.39s-.42-.26-.67-.09l-.46-.53-.11.36-.41-.45-.15.35-.39-.37,0,.25-1.38,0Z"/><g id="_Group_145" data-name="&lt;Group&gt;"><path id="_Path_188" data-name="&lt;Path&gt;" d="M71.21,54.61l-.17-1-.2.75-.48-1.21V54l-.69-.81-.23.26-.32-.64-.18.41a1.92,1.92,0,0,0-.51-.12.25.25,0,0,0-.17,0l-.52-.55,0,.36-.48-.45-.09.34-.08-.07.08,0,.09-.32.46.46,0-.38.53.53c.2-.19.65.09.66.1l.19-.41.33.63.24-.25.67.82v-.79l.48,1.19.2-.72.19.94.26-.67a5.86,5.86,0,0,0,.65.57c-.23-1.2-.72-1.42-1.66-1.84a8.08,8.08,0,0,1-1.11-.55s-2.57-.73-4.2.37l0-.07c1.66-1.11,4.24-.37,4.26-.36.44.23.8.39,1.11.53.94.42,1.49.66,1.65,2-.21,0-.62-.52-.66-.58l-.28.67Z"/></g><path id="_Path_189" data-name="&lt;Path&gt;" class="cls-7" d="M65.51,52.61c1.17,0,4.5,1.24,5.37,2.56a5.19,5.19,0,0,0-.56-.27l-.18.51-.2-.51,0,.4c-.13-.32-.27-.36-.52,0l-.09-.49-.13.47-.22-.51s-.14.56-.22.53-.37-1-.53-1l0,.61-.23-.61-.19.46,0-.65-.21.5s-.13-.5-.29-.58l-.34.3-1.48-1.07Z"/><g id="_Group_146" data-name="&lt;Group&gt;"><path id="_Path_190" data-name="&lt;Path&gt;" d="M70.19,55.43l-.28-.53,0,.4c-.15-.14-.21-.21-.26-.22a.48.48,0,0,0-.26.22l-.16-.51-.06.48-.29-.52a.79.79,0,0,1-.15.55,5,5,0,0,0-.57-1v.56l-.31-.59-.13.46-.12-.67-.13.51c-.11-.13-.22-.49-.35-.55l-.3.28-1.52-1.05,1.52,1,.3-.29c.22.09.34.55.35.6l.15-.5.12.66.11-.47.31.6,0-.59c.22,0,.55.83.61,1,0,0,.09-.3.15-.52l.29.49.06-.47.16.51c.06-.22.17-.3.27-.27s.17.11.25.27l0-.39.28.52.09-.52c.08,0,.28.06.62.25-.88-1.22-4.17-2.47-5.34-2.47h0v-.08h0c1.18,0,4.48,1.22,5.36,2.56l-.6-.21-.12.5Z"/></g><path id="_Path_191" data-name="&lt;Path&gt;" class="cls-7" d="M65.31,52.88c1.53.6,2.92,2.72,2.81,3.62-.68-.85-.53-.72-.84.25a3.67,3.67,0,0,0-.24-1l-.2.64-.08-.82h-.21l.06-.52-.3.24c.07-.31.15-.39-.18-.67,0,0,.41.07.09-.66l-.3.29s.06-.33,0-.44l-1.1-.38Z"/><g id="_Group_147" data-name="&lt;Group&gt;"><path id="_Compound_Path_102" data-name="&lt;Compound Path&gt;" d="M67.32,56.77a7.12,7.12,0,0,0-.3-1l-.13.62,0,0,0,0,.12-.64c.19.09.28.81.31,1l0-.42c.08-.28.11-.41.2-.43s.22.11.49.46c.14-.72-1.23-2.84-2.75-3.44v-.07c1.59.62,3,2.76,2.85,3.65-.37-.36-.51-.54-.57-.54h0s-.08.18-.14.39l-.12.42Zm-1-1.42c0-.37,0-.45-.22-.66.2-.17.25-.32.08-.69l-.23.3c-.06-.11,0-.35-.12-.44l-1.07-.36,1.12.3c.13.14.08.44.08.48l.22-.32c.2.33.24.54.15.66a.63.63,0,0,1,0,.61l.22-.18v.08l0-.06-.24.28Z"/></g><path id="_Path_192" data-name="&lt;Path&gt;" class="cls-7" d="M65.15,53.06l.59,1.1-.31.09.68.5-.57-.06a1.55,1.55,0,0,1,1,1.18l-.87-.39a4,4,0,0,1,.85,1.22l-.5-.44a1.78,1.78,0,0,1,.41,1.34L66,57.19A2.09,2.09,0,0,1,65.63,59a4.36,4.36,0,0,0,0-1.3l-1,1,.54-1.47s-.6.94-1,.85L65,56.92l-.77.61.86-1.28-.8.23s.58-.74.53-1.18l-.54.6a2.67,2.67,0,0,0,.14-.9l-.29,0,.55-.63-.35-.07,0-.42-.27-.09v-.45Z"/><g id="_Group_148" data-name="&lt;Group&gt;"><path id="_Compound_Path_103" data-name="&lt;Compound Path&gt;" d="M65.67,59a6.24,6.24,0,0,0-.09-1.29l-.93,1,.45-1.39c-.13.26-.58.83-.92.77l.76-1.25-.7.69.81-1.36-.77.3c0-.06.52-.79.49-1.22l-.49.62a8.23,8.23,0,0,0,.08-.91l-.23.08.51-.69h-.35l0-.46-.25,0v-.51l0,.46.25.07,0,.44.34,0-.52.71L64.4,55a2,2,0,0,1-.11.93l.49-.63c.11.48-.45,1.2-.47,1.24l.75-.31-.82,1.36.72-.68-.72,1.25h0c.24,0,.74-.63.9-.89h0s0,.06,0,.12l-.44,1.37.92-1.07c.2.16.11,1.15.09,1.34A2.41,2.41,0,0,0,66,57.19l.45.39A2.06,2.06,0,0,0,66,56.29h0s.07,0,.12.08l.43.31a5.72,5.72,0,0,0-.9-1.18h.05l.88.31a1.66,1.66,0,0,0-1-1.09h0s0,0,.07,0l.5,0-.69-.44.3-.15-.62-1.05.09,0,.58,1.12-.33.14.69.43-.51,0a1.38,1.38,0,0,1,.93,1.11l-.88-.32a3,3,0,0,1,.86,1.17l-.45-.32a1.71,1.71,0,0,1,.36,1.22L66,57.2A1.94,1.94,0,0,1,65.67,59Zm0-1.32A3.36,3.36,0,0,1,65.21,56a4.89,4.89,0,0,0-.67-2.57l0,0A5,5,0,0,1,65.3,56a4.35,4.35,0,0,0,.33,1.72Z"/></g><path id="_Compound_Path_104" data-name="&lt;Compound Path&gt;" class="cls-9" d="M69.87,76.29c0-.14.33-.08.33-.24s-.51,0-.57.11c-.3-.27-.42-.07-.6,0a.52.52,0,0,0-.87-.08.56.56,0,0,0-.77.08.48.48,0,0,0-.76,0c-.08-.15-.19-.13-.27,0a.46.46,0,0,0-.71,0c-.15-.16-.3,0-.5.09-.12-.12-.33-.11-.33,0s.26.08.26.21-.19.06-.19.2.3.15.35,0a.3.3,0,0,0,.5-.05.34.34,0,0,0,.55,0,.22.22,0,0,0,.34,0,.45.45,0,0,0,.74-.08h.13a.38.38,0,0,0,.66,0,.56.56,0,0,0,.8,0c.25.3.61.28.7,0,.17.12.49.16.49,0s-.28-.07-.28-.19Zm-.72.06c0,.07.09.12.19.12s.18,0,.18-.12-.08-.12-.18-.12-.19.06-.19.12Zm-.8-.09c0,.07.1.13.23.13s.22-.06.22-.13-.1-.14-.22-.14-.23.06-.23.14Zm-1.57.09c0,.07.09.12.2.12s.22,0,.22-.12-.1-.14-.22-.14-.2.05-.2.14Zm.83,0c0,.09.09.16.21.16a.18.18,0,0,0,.2-.16.2.2,0,0,0-.2-.19.2.2,0,0,0-.21.19Zm-1.78,0a.18.18,0,0,0,.19.15.17.17,0,0,0,.17-.15.17.17,0,0,0-.17-.16.17.17,0,0,0-.19.16Zm.55,0a.11.11,0,0,0,.11.1.11.11,0,0,0,.12-.1.12.12,0,0,0-.23,0Zm-1.07,0a.13.13,0,0,0,.13.14.14.14,0,0,0,.14-.14.16.16,0,0,0-.14-.15.15.15,0,0,0-.13.15Z"/><g id="_Group_149" data-name="&lt;Group&gt;"><path id="_Compound_Path_105" data-name="&lt;Compound Path&gt;" d="M65.05,76.78h0l-.15-.13.2-.2-.27-.21.2,0,.15.23-.21.2.13.09.15-.16.26.12a.24.24,0,0,0,.24-.14l.3.09a.31.31,0,0,0,.25-.14l0,0,.39,0a.42.42,0,0,0,.67,0,.2.2,0,0,1,.13,0,.58.58,0,0,1-.86.06l-.31,0,0,0a.41.41,0,0,1-.62,0c0,.12-.12.2-.24.2h0l-.22-.14c0,.09,0,.14-.15.14Zm4.32,0a.58.58,0,0,1-.43-.23c-.08.16-.41.27-.8,0,0,.14-.34.42-.67,0,.61.25.6,0,.67-.06.39.19.53.22.8,0,.32.26.61.26.69,0a1.39,1.39,0,0,0,.36.08l-.15-.26.21-.15v.08l.15.26c-.32.14-.47.09-.55,0,0,.13-.12.22-.27.22Zm-2.73-.39h-.3l.18-.14-.2,0c-.19-.32-.51-.14-.64,0a.42.42,0,0,0-.44.06l-.11,0h0c.14-.11.22-.17.32-.17.44,0,.76-.14.9.11.71-.26.77-.25,1,0,0-.22.59-.3.78-.08.22-.32.61-.29.87.08l.28-.16a.49.49,0,0,1,.31.15c0-.11.23-.21.4-.21V76a.61.61,0,0,0-.4.14,1,1,0,0,0-.31-.11l-.35.12c-.22-.34-.5-.34-.81-.07a.61.61,0,0,0-.77.07c-.36-.22-.52-.23-.75,0l0,0h-.09l.1.13Z"/></g><path id="_Path_193" data-name="&lt;Path&gt;" class="cls-9" d="M64.41,71.26s.52-4.37.52-6.24c0-1.48-.35-4.77-.35-4.77h-1.5s-.23,3.28-.2,4.75c0,1.87.53,6.26.53,6.26Z"/><g id="_Group_150" data-name="&lt;Group&gt;"><path id="_Compound_Path_106" data-name="&lt;Compound Path&gt;" d="M64.44,71.29h-1c-.06-.08-.53-4.44-.56-6.28,0-1.47.18-4.71.19-4.76l1.54,0c0,.08.39,3.34.39,4.8,0,1.85-.52,6.19-.52,6.24v0Zm-1.36-11s-.2,3.24-.17,4.7c.05,1.84.53,6.21.53,6.25l.93,0c.06-.4.53-4.43.53-6.19,0-1.46-.35-4.72-.36-4.76l-1.46,0Z"/></g><polygon id="_Path_194" data-name="&lt;Path&gt;" class="cls-9" points="62.97 60.48 64.71 60.48 64.51 59.3 63.25 59.3 62.97 60.48"/><g id="_Group_151" data-name="&lt;Group&gt;"><path id="_Compound_Path_107" data-name="&lt;Compound Path&gt;" d="M64.75,60.51H63l.24-1.22,1.3,0,.24,1.25Zm-.27-1.21-1.23,0L63,60.48l1.66-.06-.18-1.12Z"/></g><polygon id="_Path_195" data-name="&lt;Path&gt;" class="cls-9" points="63.09 59.54 64.64 59.54 64.34 58.37 63.39 58.37 63.09 59.54"/><g id="_Group_152" data-name="&lt;Group&gt;"><path id="_Compound_Path_108" data-name="&lt;Compound Path&gt;" d="M64.68,59.58H63.09l.26-1.23,1,0,.34,1.26Zm-.37-1.2-.92,0-.27,1.14,1.47-.06-.28-1.11Z"/></g><polygon id="_Path_196" data-name="&lt;Path&gt;" class="cls-9" points="63.18 58.59 64.48 58.59 64.25 57.42 63.44 57.42 63.18 58.59"/><g id="_Group_153" data-name="&lt;Group&gt;"><path id="_Compound_Path_109" data-name="&lt;Compound Path&gt;" d="M64.54,58.62H63.18l.23-1.21.85,0,.28,1.24Zm-.3-1.19-.8,0-.21,1.13,1.21,0-.2-1.12Z"/></g><polygon id="_Path_197" data-name="&lt;Path&gt;" class="cls-9" points="64.32 57.28 63.41 57.28 63.31 57.7 64.38 57.7 64.32 57.28"/><g id="_Group_154" data-name="&lt;Group&gt;"><path id="_Compound_Path_110" data-name="&lt;Compound Path&gt;" d="M64.73,68.63H63.09l1.64-.08v.08Zm.09-.95H63.1l1.72-.08v.08Zm0-.94H63l1.81-.08v.08Zm.07-.86H63l2-.09v.09Zm0-.79h-2l2-.07v.07Zm0-1h-2l2-.08v.08Zm-.07-.93h-2l2-.08v.08Zm-.09-1H63l1.78-.08v.08Zm-.09-.85H63l1.61-.09v.09Z"/></g><path id="_Path_198" data-name="&lt;Path&gt;" class="cls-11" d="M63.92,70.9c-1.1,0-2,.42-2,.93a.86.86,0,0,0,.07.25,3,3,0,0,0,1.93.48,3.42,3.42,0,0,0,1.89-.43.53.53,0,0,0,.11-.3c0-.51-.89-.93-2-.93Z"/><g id="_Group_155" data-name="&lt;Group&gt;"><path id="_Compound_Path_111" data-name="&lt;Compound Path&gt;" class="cls-13" d="M63.92,72.6a3,3,0,0,1-2-.49l-.09-.28c0-.54.93-1,2.05-1s2,.45,2,1a.58.58,0,0,1-.12.33,3.33,3.33,0,0,1-1.93.44Zm0-1.65c-1.05,0-1.94.41-1.94.88.56.94,3.21.77,3.79.27a.45.45,0,0,0,.11-.27c0-.47-.9-.88-2-.88Z"/></g><path id="_Path_199" data-name="&lt;Path&gt;" class="cls-9" d="M66,71.89V75c0,.36-.9.65-2,.65s-2-.29-2-.65V71.89c0,.36.9.67,2,.67s2-.31,2-.67Z"/><g id="_Group_156" data-name="&lt;Group&gt;"><path id="_Compound_Path_112" data-name="&lt;Compound Path&gt;" d="M63.92,75.7c-1.13,0-2-.32-2-.7V71.89c.08.3.87.63,2,.63s2-.33,2-.63a.25.25,0,0,1,0,.08L66,75c0,.38-.9.7-2.06.7Zm-2-3.8L62,75c0,.29.79.61,2,.61s2-.32,2-.61V72c-.07.35-.9.6-2,.6s-2-.3-2-.69Z"/></g><path id="_Path_200" data-name="&lt;Path&gt;" class="cls-12" d="M61.92,71.89v.47l1,3,.77-2.3.87,2.38.62-2.26L66,74.72v-.84l-.74-1.48a1,1,0,0,1-.25.06l-.46,1.67-.63-1.57-.31,0-.65,1.59-.72-1.91c-.17-.1-.27-.21-.27-.33Z"/><g id="_Group_157" data-name="&lt;Group&gt;"><path id="_Compound_Path_113" data-name="&lt;Compound Path&gt;" class="cls-14" d="M64.54,75.59l-.9-2.52-.71,2.32-1-3v-.49h0a1.1,1.1,0,0,0,.31.3L63,74.12l.57-1.6h.34l.68,1.6.38-1.67.29-.09.77,1.5v.86l-.86-1.5-.58,2.37ZM61.9,72l.07.38,1,3,.71-2.31.88,2.28.6-2.14.86,1.5-.07-.81-.74-1.46L65,72.5l-.42,1.65-.71-1.59-.28,0L63,74.15l-.8-1.92A.44.44,0,0,1,61.9,72Z"/></g><path id="_Path_201" data-name="&lt;Path&gt;" class="cls-11" d="M66,74.41V75c0,.36-.9.65-2,.65s-2-.29-2-.65v-.59c0,.37.9.67,2,.67s2-.3,2-.67Z"/><g id="_Group_158" data-name="&lt;Group&gt;"><path id="_Compound_Path_114" data-name="&lt;Compound Path&gt;" class="cls-13" d="M63.92,75.7c-1.13,0-2-.32-2-.7v-.59c.08.3.87.62,2,.62s2-.32,2-.62a.06.06,0,0,1,0,0L66,75c0,.38-.9.7-2.06.7Zm-2-1.21L62,75c0,.29.79.61,2,.61s2-.32,2-.61v-.5c-.07.35-.9.61-2,.61s-1.93-.27-2-.62Z"/></g><path id="_Path_202" data-name="&lt;Path&gt;" class="cls-9" d="M64.75,75a4.2,4.2,0,0,1-.51,0v.58l.51,0Z"/><g id="_Group_159" data-name="&lt;Group&gt;"><path id="_Path_203" data-name="&lt;Path&gt;" class="cls-1" d="M64.75,75a4.2,4.2,0,0,1-.51,0v.58l.51,0Z"/></g><path id="_Path_204" data-name="&lt;Path&gt;" class="cls-9" d="M62.62,74.91v.58a2,2,0,0,0,.52.1V75a2.5,2.5,0,0,1-.52-.11Z"/><g id="_Group_160" data-name="&lt;Group&gt;"><path id="_Path_205" data-name="&lt;Path&gt;" class="cls-1" d="M62.62,74.91v.58a2,2,0,0,0,.52.1V75A2.5,2.5,0,0,1,62.62,74.91Z"/></g><path id="_Path_206" data-name="&lt;Path&gt;" class="cls-9" d="M61.92,74.41V75a.39.39,0,0,0,.23.29v-.57c-.15-.1-.24-.19-.24-.31Z"/><g id="_Group_161" data-name="&lt;Group&gt;"><path id="_Path_207" data-name="&lt;Path&gt;" class="cls-1" d="M61.92,74.41V75a.39.39,0,0,0,.23.29v-.57C62,74.62,61.92,74.53,61.92,74.41Z"/></g><path id="_Path_208" data-name="&lt;Path&gt;" class="cls-9" d="M66,74.48h0c0,.12-.16.21-.36.32v.57c.24-.11.38-.24.38-.37Z"/><g id="_Group_162" data-name="&lt;Group&gt;"><path id="_Path_209" data-name="&lt;Path&gt;" d="M63.92,75.7c-1.13,0-2-.32-2-.7V71.92L62,75c0,.29.79.61,2,.61a4.09,4.09,0,0,0,1.65-.28l-.06-.53c.24-.13.35-.23.39-.34h0V71.92a0,0,0,1,1,.08,0V75h0a.37.37,0,0,1-.15.26,3.44,3.44,0,0,1-1.91.44Z"/></g><path id="_Path_210" data-name="&lt;Path&gt;" class="cls-10" d="M65.48,71.69c0,.22-.69.41-1.56.41s-1.53-.19-1.53-.41.69-.4,1.53-.4,1.56.18,1.56.4Z"/><g id="_Group_163" data-name="&lt;Group&gt;"><path id="_Compound_Path_115" data-name="&lt;Compound Path&gt;" class="cls-6" d="M63.92,72.12c-.76,0-1.57-.16-1.57-.43,0-.55,3.16-.56,3.16,0,0,.28-.81.43-1.59.43Zm0-.8c-.88,0-1.5.2-1.5.37s.62.37,1.5.37,1.54-.2,1.54-.37-.63-.37-1.54-.37Z"/></g><path id="_Path_211" data-name="&lt;Path&gt;" class="cls-9" d="M63.42,72l.08.55.42,0L64,72Z"/><g id="_Group_164" data-name="&lt;Group&gt;"><path id="_Path_212" data-name="&lt;Path&gt;" class="cls-1" d="M63.42,72l.08.55.42,0L64,72Z"/></g><path id="_Path_213" data-name="&lt;Path&gt;" class="cls-9" d="M65.23,71.85l-.4.11,0,.53.39-.09Z"/><g id="_Group_165" data-name="&lt;Group&gt;"><path id="_Path_214" data-name="&lt;Path&gt;" class="cls-1" d="M65.23,71.85l-.4.11,0,.53.39-.09Z"/></g><path id="_Path_215" data-name="&lt;Path&gt;" class="cls-9" d="M62.86,71c-.12,0-.23.08-.32.11l.05.41.26-.08Z"/><g id="_Group_166" data-name="&lt;Group&gt;"><path id="_Path_216" data-name="&lt;Path&gt;" class="cls-1" d="M62.86,71c-.12,0-.23.08-.32.11l.05.41.26-.08Z"/></g><path id="_Path_217" data-name="&lt;Path&gt;" class="cls-9" d="M63.92,70.86h-.16l.1.51h.25l.11-.51Z"/><g id="_Group_167" data-name="&lt;Group&gt;"><path id="_Path_218" data-name="&lt;Path&gt;" class="cls-1" d="M63.92,70.86h-.16l.1.51h.25l.11-.51Z"/></g><path id="_Path_219" data-name="&lt;Path&gt;" class="cls-9" d="M65.09,71l0,.44.3.12,0-.46-.29-.1Z"/><g id="_Group_168" data-name="&lt;Group&gt;"><path id="_Path_220" data-name="&lt;Path&gt;" class="cls-1" d="M65.09,71l0,.44.3.12,0-.46Z"/></g><polygon id="_Path_221" data-name="&lt;Path&gt;" class="cls-9" points="62.24 72.25 62.32 71.69 61.91 71.46 61.92 72.11 62.24 72.25"/><g id="_Group_169" data-name="&lt;Group&gt;"><polygon id="_Path_222" data-name="&lt;Path&gt;" class="cls-1" points="62.24 72.25 62.32 71.69 61.91 71.46 61.92 72.11 62.24 72.25"/></g><polygon id="_Path_223" data-name="&lt;Path&gt;" class="cls-9" points="65.92 72.13 65.95 71.57 65.56 71.69 65.92 72.13"/><g id="_Group_170" data-name="&lt;Group&gt;"><polygon id="_Path_224" data-name="&lt;Path&gt;" class="cls-1" points="65.92 72.13 65.95 71.57 65.56 71.69 65.92 72.13"/></g><path id="_Path_225" data-name="&lt;Path&gt;" class="cls-7" d="M59,68.51a1,1,0,0,0-.87-.38,1,1,0,0,0-.88.38.42.42,0,0,1,0-.16c0-.3.41-.53.92-.53s.92.23.92.53a.3.3,0,0,1,0,.16Z"/><g id="_Group_171" data-name="&lt;Group&gt;"><path id="_Path_226" data-name="&lt;Path&gt;" class="cls-6" d="M58.92,68.53c-.23-.41-1.45-.41-1.66,0a.71.71,0,0,1,0-.2c.18-.2,1.38-.34,1.72.08v-.06c0-.49-1.51-.56-1.71-.12.14-.69,1.82-.47,1.82.12l-.07.1s0,0,0,0l0,0v0h0l0,0Z"/></g><path id="_Path_227" data-name="&lt;Path&gt;" class="cls-7" d="M58.89,69.15a1,1,0,0,1-.8,1c-.44,0-.79-.47-.79-1V68.6h1.59Z"/><g id="_Group_172" data-name="&lt;Group&gt;"><path id="_Compound_Path_116" data-name="&lt;Compound Path&gt;" class="cls-6" d="M58.09,70.26a1,1,0,0,1-.86-1.11V68.6l1.66-.06.06.61a1,1,0,0,1-.86,1.11Zm.73-1.66-1.52.06.05.49a.88.88,0,0,0,.74,1c.41,0,.73-.42.73-1V68.6Z"/></g><path id="_Path_228" data-name="&lt;Path&gt;" class="cls-10" d="M58.89,68.42c0,.22-.36.39-.8.39s-.79-.17-.79-.39.35-.4.79-.4.8.19.8.4Z"/><polygon id="_Path_229" data-name="&lt;Path&gt;" class="cls-7" points="57.91 68.86 57.77 67.42 58.38 67.42 58.28 68.86 57.91 68.86"/><g id="_Group_173" data-name="&lt;Group&gt;"><polygon id="_Path_230" data-name="&lt;Path&gt;" class="cls-16" points="58.32 68.91 57.91 68.91 57.73 67.42 58.38 67.38 58.32 68.91 58.32 68.91"/></g><path id="_Path_231" data-name="&lt;Path&gt;" class="cls-7" d="M59,68.44a1,1,0,0,1-.87.38,1,1,0,0,1-.88-.38.47.47,0,0,0,0,.16c0,.3.41.53.92.53s.92-.23.92-.53a.33.33,0,0,0,0-.16Z"/><g id="_Group_174" data-name="&lt;Group&gt;"><path id="_Compound_Path_117" data-name="&lt;Compound Path&gt;" class="cls-6" d="M58.09,69.18c-.54,0-1-.25-1-.58a.11.11,0,0,1,.08,0c.25.6,1.58.51,1.74.07,0,.33-.41.49-.85.49Zm0-.31a1.29,1.29,0,0,1-.78-.23c.51.1,1.43.14,1.6-.22a.51.51,0,0,1,0,.2,1.4,1.4,0,0,1-.86.25Z"/></g><polygon id="_Path_232" data-name="&lt;Path&gt;" class="cls-9" points="57.48 71.44 59.08 71.61 59.32 70.17 57.45 69.98 57.48 71.44"/><g id="_Group_175" data-name="&lt;Group&gt;"><polygon id="_Path_233" data-name="&lt;Path&gt;" points="59.12 71.61 57.48 71.48 57.48 71.41 59.08 71.56 59.29 70.17 57.44 70.03 59.32 70.14 59.12 71.61 59.12 71.61"/></g><polygon id="_Path_234" data-name="&lt;Path&gt;" class="cls-9" points="57.89 69.92 57.65 71.61 58.13 71.58 58.32 69.92 57.89 69.92"/><g id="_Group_176" data-name="&lt;Group&gt;"><polygon id="_Path_235" data-name="&lt;Path&gt;" points="57.61 71.65 57.86 69.92 58.32 69.89 58.17 71.6 57.61 71.65 57.61 71.65"/></g><path id="_Path_236" data-name="&lt;Path&gt;" class="cls-9" d="M70,68.41c.35-.06.9.44.92,1.06s-.74.47-.74.47c0,.2-.46.38-.81.39s.1-.62.1-.62a1.89,1.89,0,0,1,.07-1.2Z"/><g id="_Group_177" data-name="&lt;Group&gt;"><path id="_Path_237" data-name="&lt;Path&gt;" d="M69.39,70.38a.61.61,0,0,1-.07-.1c.5,0,.81-.18.83-.35s.47,0,.67-.21a1.18,1.18,0,0,0-.35-1.1.69.69,0,0,0-.46-.18l-.45.11a2,2,0,0,0-.06,1.1h1.1l-.53.09-.28,0-.29,0a1.47,1.47,0,0,0-.19.51.77.77,0,0,1,.13-.53,1.8,1.8,0,0,1,.08-1.21l.47-.12a.63.63,0,0,1,.52.19,1.31,1.31,0,0,1,.47.91.36.36,0,0,1-.12.3.89.89,0,0,1-.67.2c0,.2-.43.41-.8.41Z"/></g><path id="_Path_238" data-name="&lt;Path&gt;" class="cls-12" d="M70.19,68.77a.37.37,0,0,0-.16-.65h-.48c-.23,0-.62.26-.56.46a.28.28,0,0,0,.36.24c.09,0,.28-.25.37-.25s.37.26.47.19Z"/><g id="_Group_178" data-name="&lt;Group&gt;"><path id="_Compound_Path_118" data-name="&lt;Compound Path&gt;" class="cls-16" d="M69.27,68.88A.33.33,0,0,1,69,68.6c.18-.37.42-.51.6-.52H70c.12,0,.26.14.32.31a.38.38,0,0,1-.13.42.48.48,0,0,1-.31-.1l-.64.17Zm.76-.72h-.48a.73.73,0,0,0-.48.25c0,.31.07.37.2.37v0l.45-.29.43.19a.25.25,0,0,0,.12-.33.31.31,0,0,0-.24-.25Z"/></g><path id="_Path_239" data-name="&lt;Path&gt;" class="cls-11" d="M64,50.41c-.31-.13-1-.56-.79-.82l.32-.54c.43-1,0-.6-.07-.92s1.71-.07,1.73.62a3.26,3.26,0,0,0-.1,1.14l-.34.64a1.47,1.47,0,0,1-.75-.12Z"/><g id="_Group_179" data-name="&lt;Group&gt;"><path id="_Compound_Path_119" data-name="&lt;Compound Path&gt;" class="cls-13" d="M64.55,50.57a1.58,1.58,0,0,1-.61-.11c-.2-.1-.77-.42-.84-.71l.36-.72c.27-.62.18-.67.09-.71l-.13-.27c.31-.36,1.75.05,1.77.69a3.35,3.35,0,0,0-.11,1.15l-.34.64-.19,0ZM63.76,48a.47.47,0,0,0-.28.06c.26.22.33.31,0,1l-.31.55c0,.35.53.66.76.77a1.31,1.31,0,0,0,.58.11v0l.16,0,.3-.62a3,3,0,0,1,.08-1c0-.59-.87-.82-1.33-.82Z"/></g><polygon id="_Path_240" data-name="&lt;Path&gt;" class="cls-9" points="64.17 53 63.74 52.64 63.86 49.53 64.28 49.64 64.17 53"/><g id="_Group_180" data-name="&lt;Group&gt;"><path id="_Compound_Path_120" data-name="&lt;Compound Path&gt;" d="M64.21,53.09l-.49-.42.09-3.14.48.08-.08,3.48Zm-.36-3.53-.07,3.08.36.28.1-3.28-.39-.08Z"/></g><path id="_Path_241" data-name="&lt;Path&gt;" class="cls-12" d="M64.73,50.5a.75.75,0,0,0,.28-.91c-.44-.57-.72-.33-1.48-.58-.15.16-.46.46-.39.69,1,.46.6.07.93.13.17,0,.29.24.66.67Z"/><g id="_Group_181" data-name="&lt;Group&gt;"><path id="_Compound_Path_121" data-name="&lt;Compound Path&gt;" class="cls-14" d="M64.72,50.56l-.27-.33c-.18-.23-.28-.34-.39-.36l-.27.09a1.94,1.94,0,0,1-.68-.22c-.08-.26.17-.53.34-.71a5.24,5.24,0,0,1,.73.09,1.09,1.09,0,0,1,.87.44.79.79,0,0,1-.3,1l0,0Zm-.64-.77c.14,0,.24.14.43.39l.23.28A.81.81,0,0,0,65,50a.52.52,0,0,0,0-.43,1,1,0,0,0-.81-.42,3.2,3.2,0,0,1-.65-.15c-.15.2-.4.46-.34.65a2.35,2.35,0,0,0,.61.2l.29-.1Z"/></g><path id="_Compound_Path_122" data-name="&lt;Compound Path&gt;" class="cls-9" d="M48.31,74.91c-.29,0-.33.35-.22.63-1.19.34-2.23.76-3.28,1.06,0-.21.52-.81.52-.81s.26.4.26.4a1.65,1.65,0,0,1,.72-1.14,3.92,3.92,0,0,0-1.79.61,1.94,1.94,0,0,1,.54,0,6.44,6.44,0,0,0-1,1.32c.15.33,1.77.57,1.77.57s-.48.41-.48.41a2.67,2.67,0,0,0,1.9-.58,2.83,2.83,0,0,1-1.34-.54.8.8,0,0,1,.05.43s-.93-.27-1-.43L48.2,76c0,.18.25.53.5.46s.12-.38,0-.62a.32.32,0,0,0,.23.09.33.33,0,0,0,.33-.33.32.32,0,0,0-.33-.32.34.34,0,0,0-.32.22c0-.2-.15-.59-.35-.57Zm.83.67a.16.16,0,0,1-.32,0,.16.16,0,0,1,.32,0Z"/><g id="_Group_182" data-name="&lt;Group&gt;"><path id="_Compound_Path_123" data-name="&lt;Compound Path&gt;" d="M45.64,78a2.23,2.23,0,0,1-.27,0c.2-.23.43-.42.44-.46-.15,0-1.6-.21-1.76-.55a3.14,3.14,0,0,1,.68-1,8.19,8.19,0,0,0-.61,1c.12.23,1.29.46,1.74.53,0,.13-.31.37-.46.48l.24,0a3,3,0,0,0,1.61-.6A2.08,2.08,0,0,1,46,76.92a.43.43,0,0,1,0,.37,2.91,2.91,0,0,1-1.08-.41c0-.07,0-.07,1-.32l2.27-.62c.08.17.24.47.44.47s.17-.26.08-.57c.46,0,.57-.1.57-.26s-.48-.35-.59-.09c-.13-.34-.26-.54-.37-.54a.49.49,0,0,0-.2.59l-1.76.6c-.52.18-1,.34-1.54.5-.09-.25.42-.82.48-.88.21.07.32.39.32.42a1.44,1.44,0,0,1,.62-1.13c-.07.15-.58.57-.62,1.15-.1-.08-.21-.32-.31-.38-.16.23-.49.64-.45.78.44-.18,1-.36,1.47-.54s1.13-.38,1.75-.56a.43.43,0,0,1,0-.47l.23-.16h0c.22,0,.32.33.38.6,0-.35.66-.24.66.11A.37.37,0,0,1,49,76l-.25-.11c.14.24.18.57,0,.63h0a.59.59,0,0,1-.53-.49c-.57.2-1.52.46-2.24.66-.53.13-.91.24-1,.24a7.52,7.52,0,0,0,1,.35,1.83,1.83,0,0,0-.09-.39s0,0,0,0h0a3.43,3.43,0,0,0,1.32.46,2.46,2.46,0,0,1-1.64.7ZM44.53,75.7a3,3,0,0,1,1.7-.7v0a5.7,5.7,0,0,0-1.62.61,1.14,1.14,0,0,1,.28,0,.07.07,0,0,1,0,.06l-.35,0Z"/></g><path id="_Path_242" data-name="&lt;Path&gt;" class="cls-9" d="M82.91,76.24a4.28,4.28,0,0,0-.08-1c-.17,0-.39.31-.39.31a3.11,3.11,0,0,0-.38-1.79,6,6,0,0,1,1.8,1.61,3.05,3.05,0,0,0-.67-.18c.09.66.54,1,.72,1.31,0,0-.76.17-.67.79l-.51,0c-.16-.21.07-.56.07-.56l-3.39-1.42c-.22-.1-.71-.31-.64-.58s.88.11,1.08.18Z"/><g id="_Group_183" data-name="&lt;Group&gt;"><path id="_Path_243" data-name="&lt;Path&gt;" d="M82.72,77.38v0c-.18-.23.05-.58.06-.6L79.39,75.4c-.18-.09-.74-.32-.65-.64l.22,0c-.21.23,0,.41.47.6l3.38,1.42c0,.06-.19.37,0,.56h.48c-.12-.61.66-.81.66-.81a1,1,0,0,1-.25-.26,1.9,1.9,0,0,1-.5-1,2.31,2.31,0,0,1,.72.13,7.47,7.47,0,0,0-1.81-1.52,2.55,2.55,0,0,1,.44,1.63.5.5,0,0,1,.31-.23,2.15,2.15,0,0,1,.14,1L79.84,75a3.89,3.89,0,0,0-.88-.28,1.55,1.55,0,0,1,.77.15l3.18,1.34a5.69,5.69,0,0,0-.13-.93,2.3,2.3,0,0,0-.32.31h0s0,0,0-.07A3.77,3.77,0,0,0,82,73.82,4.77,4.77,0,0,1,83.9,75.4c-.2,0-.59-.14-.69-.14a2,2,0,0,0,.49.9,2.53,2.53,0,0,1,.25.35c-.06.06-.75.23-.68.81l-.55.06Z"/></g><path id="_Path_244" data-name="&lt;Path&gt;" class="cls-9" d="M79.64,75.65l.39-.73c.15-.2-.14-.4-.35-.16l-.45.67c-.21.37.21.46.41.22Z"/><g id="_Group_184" data-name="&lt;Group&gt;"><path id="_Path_245" data-name="&lt;Path&gt;" d="M79.38,75.82l-.22-.09a.32.32,0,0,1,0-.31l.46-.7.24-.11.17.33-.39.73a.36.36,0,0,1-.29.15Z"/></g><polygon id="_Path_246" data-name="&lt;Path&gt;" class="cls-10" points="55.81 77.33 55.79 76.53 54.83 76.58 54.77 77.45 55.81 77.33"/><g id="_Group_185" data-name="&lt;Group&gt;"><path id="_Compound_Path_124" data-name="&lt;Compound Path&gt;" d="M54.73,77.51l.06-.94,1-.09.07.84-1.13.19Zm1-1-.94.09v.79l1-.12-.05-.76Z"/></g><path id="_Path_247" data-name="&lt;Path&gt;" class="cls-10" d="M48.74,78.46l-1.29-.74c5.35.5,6.42-1.37,7.73-1.47.79-.06.9.88-.64.44l.41,1s-3.8,2.12-7.53,1.25Z"/><g id="_Group_186" data-name="&lt;Group&gt;"><path id="_Compound_Path_125" data-name="&lt;Compound Path&gt;" d="M49.32,79.18A7.93,7.93,0,0,1,47.41,79l1.32-.54-1.29-.65c.62,0,1.19,0,1.7,0A9.3,9.3,0,0,0,54,76.65a3.28,3.28,0,0,1,1.21-.43h0c.42,0,.6.17.6.34s-.43.41-1.25.17l.45.92a12,12,0,0,1-5.66,1.53Zm-1.87-1.41,1.32.65L47.45,79a15.4,15.4,0,0,0,1.87.15,12.75,12.75,0,0,0,5.6-1.47l-.41-.93c.84.07,1.19,0,1.19-.14s-.17-.27-.45-.27a3,3,0,0,0-1.27.45c-1.12.55-2.77,1.39-6.53,1Z"/></g><polygon id="_Path_248" data-name="&lt;Path&gt;" class="cls-10" points="72.01 77.33 72.03 76.53 73.22 76.56 73.26 77.43 72.01 77.33"/><g id="_Group_187" data-name="&lt;Group&gt;"><path id="_Compound_Path_126" data-name="&lt;Compound Path&gt;" d="M73.31,77.47,72,77.36l0-.83,1.23,0,.09,1Zm-.14-.91H72v.75l1.19.07-.06-.83Z"/></g><path id="_Path_249" data-name="&lt;Path&gt;" class="cls-10" d="M79.33,78.26l1.22-.67c-6.12.19-4.73-1-7.78-1.34-.8-.09-1.39.94.62.44l-.41,1h1a9.2,9.2,0,0,0,6.75,1Z"/><g id="_Group_188" data-name="&lt;Group&gt;"><path id="_Compound_Path_127" data-name="&lt;Compound Path&gt;" d="M78.65,79h0a8.62,8.62,0,0,1-4.72-1.28H73l.37-1a2.49,2.49,0,0,1-.87.19c-.18,0-.5-.07-.5-.25s.31-.41.68-.41a5.94,5.94,0,0,1,2.32.63c.85.41,1.75.84,5.57.71l-1.2.73,1.36.4a5.81,5.81,0,0,1-2.06.3ZM74,77.62a9.32,9.32,0,0,0,6.75,1.06l-1.39-.38,1.21-.75a5.53,5.53,0,0,1-1.18.1c-2.84,0-3.63-.38-4.4-.75a5.92,5.92,0,0,0-2.2-.6c-.39,0-.68.18-.68.32s.25.16.41.16a3.8,3.8,0,0,0,.89-.13l-.35,1,.94-.06Z"/></g><path id="_Path_250" data-name="&lt;Path&gt;" class="cls-10" d="M54.53,76.69v1.38A29.3,29.3,0,0,0,64,79.34a29,29,0,0,0,9.43-1.27V76.69S70.85,77.87,64,77.87s-9.44-1.18-9.44-1.18Z"/><g id="_Group_189" data-name="&lt;Group&gt;"><path id="_Compound_Path_128" data-name="&lt;Compound Path&gt;" d="M64,79.37a30.26,30.26,0,0,1-9.46-1.25l0-1.43s2.66,1.14,9.48,1.14,9.4-1.16,9.42-1.18l.07,1.42c-.07.06-3.48,1.3-9.49,1.3Zm-9.4-1.3A31.38,31.38,0,0,0,64,79.3,29.9,29.9,0,0,0,73.39,78l0-1.35c0,.07-2.67,1.23-9.4,1.23s-9.44-1.18-9.46-1.19l.06,1.34Z"/></g><path id="_Compound_Path_129" data-name="&lt;Compound Path&gt;" d="M55,78.08l.31-1,.12,0-.25.89.52.14,0,.12Zm1-.45,0-.19,0-.17.15,0,0,.16-.07.18Zm1.46-.07.14,0-.13.61a.57.57,0,0,1-.08.24.34.34,0,0,1-.16.12.61.61,0,0,1-.27,0,.38.38,0,0,1-.22-.1.21.21,0,0,1-.12-.16.85.85,0,0,1,0-.27l.13-.6.14,0-.12.57a1,1,0,0,0,0,.22.16.16,0,0,0,.07.11.26.26,0,0,0,.15.07.31.31,0,0,0,.24,0,.41.41,0,0,0,.12-.24Zm.16,1.11.18-1,.15,0,.42.91.14-.82.14,0-.18,1-.15,0-.42-.9-.14.81Zm1.11.17.15-1,.16,0-.16,1Zm.41-.47a.59.59,0,0,1,.2-.39.54.54,0,0,1,.39-.11A.69.69,0,0,1,60,78a.42.42,0,0,1,.14.22.41.41,0,0,1,0,.27.55.55,0,0,1-.1.28.52.52,0,0,1-.21.18.84.84,0,0,1-.27,0,.55.55,0,0,1-.27-.11.4.4,0,0,1-.15-.22.49.49,0,0,1-.05-.27Zm.16,0a.36.36,0,0,0,.06.3.44.44,0,0,0,.26.16.44.44,0,0,0,.28-.1.39.39,0,0,0,.13-.3.58.58,0,0,0,0-.23.28.28,0,0,0-.11-.16.54.54,0,0,0-.19-.07.36.36,0,0,0-.28.07.43.43,0,0,0-.14.33Zm1,.62.09-1h.15l.5.88.07-.83h.14l-.09,1-.14,0-.51-.86-.08.81Zm1.53.11,0-1.06.73,0v.13l-.6,0v.32l.52,0,0,.12-.5,0,0,.48Zm.8,0,.45-1h.15l.42,1.06h-.15l-.13-.32h-.46l-.12.3Zm.33-.42h.37l-.11-.3c0-.09-.06-.16-.07-.21a.4.4,0,0,1-.07.19Zm.83.44V78.13H64v1.05Zm.67,0v-.92h-.35l0-.12H65v.12h-.37v.92Zm1.09,0-.06-1.06h.14l0,.94.55,0v.14Zm.73,0L66.64,78h.16l.52,1h-.16l-.15-.3-.46,0-.09.33Zm.29-.46.37,0-.14-.28a1.2,1.2,0,0,1-.09-.21.8.8,0,0,1,0,.21Zm1.28.35-.13-1.06.75-.07V78l-.58.08,0,.32.51-.06v.13l-.51.06L68,79Zm.79-.62a.53.53,0,0,1,.1-.42.47.47,0,0,1,.35-.19.61.61,0,0,1,.27,0,.44.44,0,0,1,.21.17.43.43,0,0,1,.1.27.47.47,0,0,1,0,.29.82.82,0,0,1-.16.22l-.25.11a.5.5,0,0,1-.28,0,.52.52,0,0,1-.22-.17.56.56,0,0,1-.11-.26Zm.15,0a.41.41,0,0,0,.44.37.45.45,0,0,0,.25-.16.48.48,0,0,0,.06-.32.63.63,0,0,0-.08-.22.3.3,0,0,0-.16-.12.28.28,0,0,0-.21,0,.34.34,0,0,0-.24.14.44.44,0,0,0-.06.34Zm1.16.35-.2-1,.48-.09h.22a.2.2,0,0,1,.13.09.24.24,0,0,1,.09.14.34.34,0,0,1,0,.2.44.44,0,0,1-.22.14l.1,0,.15.11.23.25-.17,0-.19-.2c0-.05-.11-.09-.13-.12a.21.21,0,0,0-.09,0s0,0-.06,0h-.09l-.17,0,.09.45Zm0-.59.32-.06.13,0a.16.16,0,0,0,.09-.09.11.11,0,0,0,0-.08c0-.06,0-.09-.08-.13a.48.48,0,0,0-.18,0l-.33.06ZM71.73,78h.15a.51.51,0,0,1-.12.3.46.46,0,0,1-.25.15.72.72,0,0,1-.3,0,.38.38,0,0,1-.21-.16.62.62,0,0,1-.11-.26.39.39,0,0,1,0-.3.32.32,0,0,1,.13-.21.49.49,0,0,1,.25-.12.43.43,0,0,1,.28,0,.39.39,0,0,1,.2.18l-.13.07a.31.31,0,0,0-.14-.14.27.27,0,0,0-.18,0,.37.37,0,0,0-.21.09.31.31,0,0,0-.07.18.44.44,0,0,0,0,.2.53.53,0,0,0,.09.23.25.25,0,0,0,.15.12.5.5,0,0,0,.21,0,.54.54,0,0,0,.18-.11.32.32,0,0,0,.07-.22Zm.4.29-.3-1,.76-.2,0,.12-.63.16.1.32.58-.16,0,.11-.57.17.09.34.64-.18,0,.12Z"/></g></g></g></g></g></g></g></svg>