<svg id="Layer_1" data-name="Layer 1" xmlns="http://www.w3.org/2000/svg" xmlns:xlink="http://www.w3.org/1999/xlink" viewBox="0 0 128 128"><defs><style>.cls-1{fill:none;}.cls-2{clip-path:url(#clip-path);}.cls-3{clip-path:url(#clip-path-2);}.cls-4{fill:#fff;}.cls-5{fill:#f0953e;}.cls-6{fill:#3b8916;}.cls-7{fill:#16007e;}</style><clipPath id="clip-path"><circle class="cls-1" cx="64" cy="64" r="64"/></clipPath><clipPath id="clip-path-2"><rect id="_Clipping_Path_" data-name="&lt;Clipping Path&gt;" class="cls-1" x="-45.71" width="219.43" height="128"/></clipPath></defs><title>Flag_circle_India</title><g class="cls-2"><g id="INDIA"><g id="_Group_" data-name="&lt;Group&gt;"><g id="_Clip_Group_" data-name="&lt;Clip Group&gt;"><g class="cls-3"><rect id="_Path_" data-name="&lt;Path&gt;" class="cls-4" x="-45.71" width="219.43" height="128"/><rect id="_Path_2" data-name="&lt;Path&gt;" class="cls-5" x="-45.71" width="219.43" height="42.67"/><rect id="_Path_3" data-name="&lt;Path&gt;" class="cls-6" x="-45.71" y="85.35" width="219.43" height="42.65"/><g id="_Clip_Group_2" data-name="&lt;Clip Group&gt;"><g class="cls-3"><path id="_Compound_Path_" data-name="&lt;Compound Path&gt;" class="cls-7" d="M64,44.82A19.2,19.2,0,1,0,83.2,64,19.2,19.2,0,0,0,64,44.82m0,1.86-.49,9.66L64,61.83l.48-5.49L64,46.68a14.36,14.36,0,0,1,1.48.08s0,0,0,.05a.83.83,0,0,0,.79.85.81.81,0,0,0,.78-.72,13.32,13.32,0,0,1,1.42.33l-3,9.2-1,5.44,1.92-5.21,2-9.43c.46.16.92.28,1.38.46a.82.82,0,0,0-.06.28.79.79,0,0,0,.8.79.82.82,0,0,0,.73-.48c.43.2.85.43,1.29.69l-5.25,8.07-2.32,5.06,3.2-4.52L72.7,49c.39.23.8.49,1.21.75a.76.76,0,0,0-.18.51.8.8,0,0,0,.8.79.7.7,0,0,0,.63-.33c.38.33.74.66,1.07,1L69.08,58.2l-3.53,4.27,4.25-3.53,6.47-7.17c.33.35.67.69,1,1.07a.77.77,0,0,0-.28.61.79.79,0,0,0,.78.79.75.75,0,0,0,.47-.15A12,12,0,0,1,79,55.32l-8.58,4.39-4.52,3.22,5-2.3L79,55.34c.26.46.48.95.7,1.36a.86.86,0,0,0-.49.76.79.79,0,0,0,.78.79.59.59,0,0,0,.31-.07c.15.46.29.89.41,1.35l-9.44,2-5.17,1.92,5.44-.92,9.19-2.94c.12.41.23.92.32,1.38a.78.78,0,0,0-.69.79.8.8,0,0,0,.81.79h.07A11.4,11.4,0,0,1,81.32,64l-9.63-.46L66.17,64l5.52.54L81.32,64a11.33,11.33,0,0,1-.06,1.45h-.07a.82.82,0,0,0-.81.79.81.81,0,0,0,.68.79c-.09.49-.19,1-.31,1.41l-3.28-1-5.91-1.91-5.44-.92h0l5.17,1.91,9.44,2a8.9,8.9,0,0,1-.44,1.35l-.1,0H80a.78.78,0,0,0-.8.79.64.64,0,0,0,.07.31h0a.61.61,0,0,0,.22.3h0s0,0,.07,0h0s.05,0,.07,0h0s0,0,0,0A14.11,14.11,0,0,1,79,72.66l-8.1-5.24h0l-5-2.3h0L68.55,67l1.86,1.33h0L79,72.68a12.7,12.7,0,0,1-.79,1.25,1,1,0,0,0-.46-.12.76.76,0,0,0-.79.76.73.73,0,0,0,.29.62c-.32.35-.64.71-1,1L69.8,69.08l-4.24-3.52,3.52,4.26,7.15,6.46a10.26,10.26,0,0,1-1,1,.74.74,0,0,0-.5-.18.81.81,0,0,0-.79.79.9.9,0,0,0,.06.36c-.42.25-.85.54-1.27.82l-4.41-8.58-3.2-4.55h0l2.31,5L72.64,79c-.42.23-.84.46-1.27.67a.75.75,0,0,0-.72-.49.81.81,0,0,0-.8.79,1.12,1.12,0,0,0,.05.31,13.61,13.61,0,0,1-1.38.41l-2-9.45-1.92-5.13v0l1,5.44,3,9.19a9,9,0,0,1-1.42.31.8.8,0,0,0-.78-.66.77.77,0,0,0-.79.76v.1a11.75,11.75,0,0,1-1.45.08l.48-9.63L64,66.2l-.5,5.51L64,81.34a12,12,0,0,1-1.48-.08v-.1a.79.79,0,0,0-.81-.76.82.82,0,0,0-.78.66,12.55,12.55,0,0,1-1.38-.31l3-9.19.92-5.41-1.92,5.13-2,9.45c-.46-.1-.92-.26-1.39-.41a.85.85,0,0,0,.06-.31.8.8,0,0,0-.77-.79.86.86,0,0,0-.76.49c-.42-.21-.85-.44-1.27-.67l5.24-8.12,2.3-5-3.19,4.52L55.32,79c-.42-.28-.85-.54-1.24-.82a.66.66,0,0,0,.15-.43.8.8,0,0,0-.78-.82.76.76,0,0,0-.61.3,12.47,12.47,0,0,1-1.07-1l7.17-6.46,3.53-4.26h0l-4.25,3.52-6.48,7.15c-.36-.33-.68-.71-1-1a.9.9,0,0,0,.3-.64.77.77,0,0,0-.79-.77.89.89,0,0,0-.47.13A10.74,10.74,0,0,1,49,72.68l8.61-4.42,4.48-3.14-5,2.3L49,72.66c-.24-.41-.43-.82-.65-1.28a.73.73,0,0,0,.51-.71.79.79,0,0,0-.8-.82.72.72,0,0,0-.33.07c-.16-.43-.31-.91-.45-1.4l9.45-2,5.2-1.91-5.47.92-9.19,3c-.13-.46-.22-.92-.32-1.43a.77.77,0,0,0,.69-.77.8.8,0,0,0-.79-.79h-.09c0-.46-.07-.94-.07-1.45l9.64.51L61.82,64l-5.51-.49L46.67,64c0-.46,0-1,.07-1.43h.14a.78.78,0,0,0,.79-.79.8.8,0,0,0-.74-.79c.1-.46.19-1,.32-1.38l9.19,2.94,5.47.92-5.2-1.92-9.45-2q.21-.73.45-1.38a1.25,1.25,0,0,0,.29,0,.79.79,0,0,0,.79-.79.76.76,0,0,0-.47-.72c.2-.46.42-.89.66-1.33l8.1,5.29,5,2.3-4.5-3.22L49,55.32c.24-.41.51-.82.79-1.25a.68.68,0,0,0,.47.17.8.8,0,0,0,.79-.79,1,1,0,0,0-.29-.64c.29-.35.61-.69,1-1l6.47,7.17,4.27,3.53L58.94,58.2l-7.17-6.46c.35-.33.7-.66,1.07-1a.77.77,0,0,0,.61.31.81.81,0,0,0,.81-.82.93.93,0,0,0-.17-.48c.41-.24.81-.52,1.23-.75l4.39,8.59,3.19,4.49-2.3-5L55.36,49a13.08,13.08,0,0,1,1.26-.69.8.8,0,0,0,.74.51.78.78,0,0,0,.79-.77,1,1,0,0,0,0-.33c.45-.18.93-.3,1.39-.46l2,9.43,1.91,5.21-.93-5.44-3-9.2a13,13,0,0,1,1.4-.33.79.79,0,0,0,1.58-.13v-.07A11.64,11.64,0,0,1,64,46.68"/><path id="_Path_4" data-name="&lt;Path&gt;" class="cls-4" d="M64,61.14A2.88,2.88,0,1,1,61.14,64,2.87,2.87,0,0,1,64,61.14"/><path id="_Path_5" data-name="&lt;Path&gt;" class="cls-7" d="M64,61.8a2.19,2.19,0,0,1,2.2,2.2A2.22,2.22,0,0,1,64,66.25,2.25,2.25,0,0,1,61.78,64,2.22,2.22,0,0,1,64,61.8"/></g></g></g></g></g></g></g></svg>