<svg id="Layer_1" data-name="Layer 1" xmlns="http://www.w3.org/2000/svg" xmlns:xlink="http://www.w3.org/1999/xlink" viewBox="0 0 128 128"><defs><style>.cls-1{fill:none;}.cls-2{clip-path:url(#clip-path);}.cls-3{clip-path:url(#clip-path-2);}.cls-4{fill:#bc2034;}.cls-5{fill:#fff;}.cls-6{fill:#060606;}.cls-7{fill:#429a4b;}</style><clipPath id="clip-path"><circle class="cls-1" cx="64" cy="64" r="64"/></clipPath><clipPath id="clip-path-2"><rect id="_Clipping_Path_" data-name="&lt;Clipping Path&gt;" class="cls-1" x="-46" width="220" height="128"/></clipPath></defs><title>Flag_circle_Iraq</title><g class="cls-2"><g id="IRAQ"><g id="_Group_" data-name="&lt;Group&gt;"><g id="_Clip_Group_" data-name="&lt;Clip Group&gt;"><g class="cls-3"><rect id="_Path_" data-name="&lt;Path&gt;" class="cls-4" x="-46" width="220" height="42.67"/><rect id="_Path_2" data-name="&lt;Path&gt;" class="cls-5" x="-46" y="42.67" width="220" height="42.65"/><rect id="_Path_3" data-name="&lt;Path&gt;" class="cls-6" x="-46" y="85.33" width="220" height="42.67"/><g id="_Clip_Group_2" data-name="&lt;Clip Group&gt;"><g class="cls-3"><path id="_Path_4" data-name="&lt;Path&gt;" class="cls-7" d="M82.66,56.16a2.72,2.72,0,0,1-.66-.49c-.15-.23-.06-.23.54-.05A2.43,2.43,0,0,0,85,55.19l.62-.49.71.36a2.49,2.49,0,0,0,.92.28,2,2,0,0,0,1-1.17c0-.39.27-.28.41.13a1.36,1.36,0,0,1-.86,1.81,2.08,2.08,0,0,1-1.25-.1c-.66-.26-.77-.26-1.12,0a2.53,2.53,0,0,1-2.74.15"/><path id="_Path_5" data-name="&lt;Path&gt;" class="cls-7" d="M85.32,53.71a4.14,4.14,0,0,1-.47-1.92c.09-.28.18-.33.42-.25.43.15.54.43.48,1.45-.07.77-.17,1-.43.72"/><path id="_Path_6" data-name="&lt;Path&gt;" class="cls-7" d="M53.78,52.79c-.09.61,1.09,2.12,1.62,2.4-.37.15-.8.1-1.14.28-1.83,1.86-8.58,8.4-9.8,10,3.64.07,7.67-.08,11.09-.21,0-2.48,2.34-2.63,3.91-3.52.81,1.27,2.84,1.2,3.11,3.09v8.27H31.43a4.54,4.54,0,0,1-5.77,3.5c1-1,2.53-1.35,3.1-2.71.49-3-1-4.77-1.87-6.46a12.49,12.49,0,0,0,3.3-1.76C29.14,69,33,68.62,36,68.55c.09-1.13,0-2.46-.82-2.66,1.1-.38,1.29-.54,3.08-2v4.49c7,0,14.45-.08,21.55-.08,0-1.37.37-3.62-.72-3.62s0,2.88-.89,2.88H41.53c0-.63,0-1.94,0-2.86.7-.71.64-.63,5.44-5.49.49-.46,3.87-3.5,6.82-6.38"/><path id="_Path_7" data-name="&lt;Path&gt;" class="cls-7" d="M95.38,52.69a14.76,14.76,0,0,0,3.51,1.83c-.17.59-.69.82-.83,1.46V68.55c1.6.33,1.93-.54,2.7-1,.19,2,1.47,4,1.44,5.57H95.38Z"/><path id="_Compound_Path_" data-name="&lt;Compound Path&gt;" class="cls-7" d="M86.33,59.43s2.45-2.1,2.45-2.17V68.21h1.8c0-4.18,0-8.42,0-12.31A14.56,14.56,0,0,0,93,53.4V73.07H77.4c-.24-4.09-.28-8.3,4.47-7.41V64c-.15-.25-.41.08-.46-.25.77-.79,1-1,3-2.76,0,2.15,0,7.25,0,7.25H86.3s0-8.53,0-8.78m-5.87,8.66c.33.51,1.48.48,1.41-.36s-1.68-.41-1.41.36"/><path id="_Path_8" data-name="&lt;Path&gt;" class="cls-7" d="M35.24,74.45a1,1,0,0,1,.94.94.93.93,0,0,1-.94,1,1,1,0,0,1-1-1,1,1,0,0,1,1-.94"/><path id="_Path_9" data-name="&lt;Path&gt;" class="cls-7" d="M64.67,52.71a16,16,0,0,0,3.51,1.84c-.18.59-.69.79-.84,1.46V68.55c1.61.35,1.93-.54,2.68-1,.22,2,1.48,4,1.43,5.57H64.67Z"/></g></g></g></g></g></g></g></svg>