<svg id="Layer_1" data-name="Layer 1" xmlns="http://www.w3.org/2000/svg" xmlns:xlink="http://www.w3.org/1999/xlink" viewBox="0 0 128 128"><defs><style>.cls-1{fill:none;}.cls-2{clip-path:url(#clip-path);}.cls-3{clip-path:url(#clip-path-2);}.cls-4{fill:#fff;}.cls-5{fill:#49a044;}.cls-6{fill:#c7001b;}</style><clipPath id="clip-path"><circle class="cls-1" cx="64" cy="65.15" r="64"/></clipPath><clipPath id="clip-path-2"><rect id="_Clipping_Path_" data-name="&lt;Clipping Path&gt;" class="cls-1" x="-45.71" width="219.43" height="128"/></clipPath></defs><title>Flag_circle_Iran</title><g class="cls-2"><g id="IRAN"><g id="_Group_" data-name="&lt;Group&gt;"><g id="_Clip_Group_" data-name="&lt;Clip Group&gt;"><g class="cls-3"><rect id="_Path_" data-name="&lt;Path&gt;" class="cls-4" x="-45.71" width="219.43" height="128"/><rect id="_Path_2" data-name="&lt;Path&gt;" class="cls-5" x="-45.71" width="219.43" height="42.78"/><rect id="_Path_3" data-name="&lt;Path&gt;" class="cls-6" x="-45.71" y="85.25" width="219.43" height="42.75"/><polygon id="_Path_4" data-name="&lt;Path&gt;" class="cls-6" points="63.99 48.6 61.68 50.49 62.1 80.73 63.99 82.92 65.89 80.73 66.33 50.49 63.99 48.6"/><g id="_Clip_Group_2" data-name="&lt;Clip Group&gt;"><g class="cls-3"><path id="_Path_5" data-name="&lt;Path&gt;" class="cls-6" d="M68.65,45.38a3.19,3.19,0,0,1-4.41,1c-.07,0-.18-.1-.24-.15a3.24,3.24,0,0,1-4.49-.64c0-.08-.12-.18-.17-.26A2.77,2.77,0,0,0,64,48a2.77,2.77,0,0,0,4.65-2.63"/><path id="_Path_6" data-name="&lt;Path&gt;" class="cls-6" d="M69.81,49.6A18.88,18.88,0,0,1,52.37,79.55,17.52,17.52,0,0,0,69.81,49.6"/><path id="_Path_7" data-name="&lt;Path&gt;" class="cls-6" d="M58.16,49.6A18.89,18.89,0,0,0,75.62,79.55,17.52,17.52,0,0,1,58.16,49.6"/><path id="_Path_8" data-name="&lt;Path&gt;" class="cls-6" d="M72,49a18.91,18.91,0,0,1,4.18,26.41c-.31.41-.64.84-1,1.2A15,15,0,0,0,72,49"/><path id="_Path_9" data-name="&lt;Path&gt;" class="cls-6" d="M56,49a18.9,18.9,0,0,0-4.16,26.41,11.3,11.3,0,0,0,1,1.2A15,15,0,0,1,56,49"/><path id="_Compound_Path_" data-name="&lt;Compound Path&gt;" class="cls-4" d="M-5.32,40.71h1v-2h3v2h5v-3h-3v1h2v1h-3v-2h-5Zm2,0h1v-1h-1Zm-2-4.06h13v-1h-13Zm13,4.06h-3v-3h4v-2h1v4.08h1V35.63h1v4.08h1V35.63h1v5.08h-5v-2h-3v1h2Z"/><path id="_Compound_Path_2" data-name="&lt;Compound Path&gt;" class="cls-4" d="M14.62,40.71h1v-2h3v2h5v-3h-3v1h2v1h-3v-2h-5Zm2,0h1v-1h-1Zm-2-4.06h13v-1h-13Zm13,4.06h-3v-3h4v-2h1v4.08h1V35.63h1v4.08h1V35.63h1v5.08h-5v-2h-3v1h2Z"/><path id="_Compound_Path_3" data-name="&lt;Compound Path&gt;" class="cls-4" d="M34.57,40.71h1v-2h3v2h5v-3h-3v1h2v1h-3v-2h-5Zm2,0h1v-1h-1Zm-2-4.06h13v-1h-13Zm13,4.06h-3v-3h4v-2h1v4.08h1V35.63h1v4.08h1V35.63h1v5.08h-5v-2h-3v1h2Z"/><path id="_Compound_Path_4" data-name="&lt;Compound Path&gt;" class="cls-4" d="M54.51,40.71h1v-2h3v2h5v-3h-3v1h2v1h-3v-2h-5Zm2,0h1v-1h-1Zm-2-4.06h13v-1h-13Zm13,4.06h-3v-3h4v-2h1v4.08h1V35.63h1v4.08h1V35.63h1v5.08h-5v-2h-3v1h2Z"/><path id="_Compound_Path_5" data-name="&lt;Compound Path&gt;" class="cls-4" d="M74.46,40.71h1v-2h3v2h5v-3h-3v1h2v1h-3v-2h-5Zm2,0h1v-1h-1Zm-2-4.06h13v-1h-13Zm13,4.06h-3v-3h4v-2h1v4.08h1V35.63h1v4.08h1V35.63h1v5.08h-5v-2h-3v1h2Z"/><path id="_Compound_Path_6" data-name="&lt;Compound Path&gt;" class="cls-4" d="M94.42,40.71h1v-2h3v2h5v-3h-3v1h2v1h-3v-2h-5Zm2,0h1v-1h-1Zm-2-4.06h13v-1h-13Zm13,4.06h-3v-3h4v-2h1v4.08h1V35.63h1v4.08h1V35.63h1v5.08h-5v-2h-3v1h2Z"/><path id="_Compound_Path_7" data-name="&lt;Compound Path&gt;" class="cls-4" d="M114.36,40.71h1v-2h3v2h5v-3h-3v1h2v1h-3v-2h-5Zm2,0h1v-1h-1Zm-2-4.06h13v-1h-13Zm13,4.06h-3v-3h4v-2h1v4.08h1V35.63h1v4.08h1V35.63h1v5.08h-5v-2h-3v1h2Z"/><path id="_Compound_Path_8" data-name="&lt;Compound Path&gt;" class="cls-4" d="M-5.32,43.8h9v-2h-9Zm10,0h9v-2h-9Z"/><path id="_Compound_Path_9" data-name="&lt;Compound Path&gt;" class="cls-4" d="M14.62,43.8h9v-2h-9Zm10,0h9v-2h-9Z"/><path id="_Compound_Path_10" data-name="&lt;Compound Path&gt;" class="cls-4" d="M34.57,43.8h9v-2h-9Zm10,0h9v-2h-9Z"/><path id="_Compound_Path_11" data-name="&lt;Compound Path&gt;" class="cls-4" d="M54.51,43.8h9v-2h-9Zm10,0h9v-2h-9Z"/><path id="_Compound_Path_12" data-name="&lt;Compound Path&gt;" class="cls-4" d="M74.46,43.8h9v-2h-9Zm10,0h9v-2h-9Z"/><path id="_Compound_Path_13" data-name="&lt;Compound Path&gt;" class="cls-4" d="M94.42,43.8h9v-2h-9Zm10,0h9v-2h-9Z"/><path id="_Compound_Path_14" data-name="&lt;Compound Path&gt;" class="cls-4" d="M114.36,43.8h9v-2h-9Zm10,0h9v-2h-9Z"/><path id="_Compound_Path_15" data-name="&lt;Compound Path&gt;" class="cls-4" d="M-5.32,92.37h1v-2h3v2h5V89.31h-3v1h2v1h-3v-2h-5Zm2,0h1v-1h-1Zm-2-4.06h13v-1h-13Zm13,4.06h-3V89.31h4v-2h1v4.06h1V87.29h1v4.06h1V87.29h1v5.08h-5v-2h-3v1h2Z"/><path id="_Compound_Path_16" data-name="&lt;Compound Path&gt;" class="cls-4" d="M14.62,92.37h1v-2h3v2h5V89.31h-3v1h2v1h-3v-2h-5Zm2,0h1v-1h-1Zm-2-4.06h13v-1h-13Zm13,4.06h-3V89.31h4v-2h1v4.06h1V87.29h1v4.06h1V87.29h1v5.08h-5v-2h-3v1h2Z"/><path id="_Compound_Path_17" data-name="&lt;Compound Path&gt;" class="cls-4" d="M34.57,92.37h1v-2h3v2h5V89.31h-3v1h2v1h-3v-2h-5Zm2,0h1v-1h-1Zm-2-4.06h13v-1h-13Zm13,4.06h-3V89.31h4v-2h1v4.06h1V87.29h1v4.06h1V87.29h1v5.08h-5v-2h-3v1h2Z"/><path id="_Compound_Path_18" data-name="&lt;Compound Path&gt;" class="cls-4" d="M54.51,92.37h1v-2h3v2h5V89.31h-3v1h2v1h-3v-2h-5Zm2,0h1v-1h-1Zm-2-4.06h13v-1h-13Zm13,4.06h-3V89.31h4v-2h1v4.06h1V87.29h1v4.06h1V87.29h1v5.08h-5v-2h-3v1h2Z"/><path id="_Compound_Path_19" data-name="&lt;Compound Path&gt;" class="cls-4" d="M74.46,92.37h1v-2h3v2h5V89.31h-3v1h2v1h-3v-2h-5Zm2,0h1v-1h-1Zm-2-4.06h13v-1h-13Zm13,4.06h-3V89.31h4v-2h1v4.06h1V87.29h1v4.06h1V87.29h1v5.08h-5v-2h-3v1h2Z"/><path id="_Compound_Path_20" data-name="&lt;Compound Path&gt;" class="cls-4" d="M94.42,92.37h1v-2h3v2h5V89.31h-3v1h2v1h-3v-2h-5Zm2,0h1v-1h-1Zm-2-4.06h13v-1h-13Zm13,4.06h-3V89.31h4v-2h1v4.06h1V87.29h1v4.06h1V87.29h1v5.08h-5v-2h-3v1h2Z"/><path id="_Compound_Path_21" data-name="&lt;Compound Path&gt;" class="cls-4" d="M114.36,92.37h1v-2h3v2h5V89.31h-3v1h2v1h-3v-2h-5Zm2,0h1v-1h-1Zm-2-4.06h13v-1h-13Zm13,4.06h-3V89.31h4v-2h1v4.06h1V87.29h1v4.06h1V87.29h1v5.08h-5v-2h-3v1h2Z"/><path id="_Compound_Path_22" data-name="&lt;Compound Path&gt;" class="cls-4" d="M-5.32,86.27h9v-2h-9Zm10,0h9v-2h-9Z"/><path id="_Compound_Path_23" data-name="&lt;Compound Path&gt;" class="cls-4" d="M14.62,86.27h9v-2h-9Zm10,0h9v-2h-9Z"/><path id="_Compound_Path_24" data-name="&lt;Compound Path&gt;" class="cls-4" d="M34.57,86.27h9v-2h-9Zm10,0h9v-2h-9Z"/><path id="_Compound_Path_25" data-name="&lt;Compound Path&gt;" class="cls-4" d="M54.51,86.27h9v-2h-9Zm10,0h9v-2h-9Z"/><path id="_Compound_Path_26" data-name="&lt;Compound Path&gt;" class="cls-4" d="M74.46,86.27h9v-2h-9Zm10,0h9v-2h-9Z"/><path id="_Compound_Path_27" data-name="&lt;Compound Path&gt;" class="cls-4" d="M94.42,86.27h9v-2h-9Zm10,0h9v-2h-9Z"/><path id="_Compound_Path_28" data-name="&lt;Compound Path&gt;" class="cls-4" d="M114.36,86.27h9v-2h-9Zm10,0h9v-2h-9Z"/></g></g></g></g></g></g></g></svg>