<svg id="Layer_1" data-name="Layer 1" xmlns="http://www.w3.org/2000/svg" xmlns:xlink="http://www.w3.org/1999/xlink" viewBox="0 0 128 128"><defs><style>.cls-1{fill:none;}.cls-2{clip-path:url(#clip-path);}.cls-3{clip-path:url(#clip-path-2);}.cls-4{fill:#498940;}.cls-5{fill:#f0da26;}</style><clipPath id="clip-path"><circle class="cls-1" cx="64" cy="64" r="64"/></clipPath><clipPath id="clip-path-2"><rect id="_Clipping_Path_" data-name="&lt;Clipping Path&gt;" class="cls-1" x="-45.71" width="219.43" height="128"/></clipPath></defs><title>Flag_circle_Jamaica</title><g class="cls-2"><g id="JAMAICA"><g id="_Group_" data-name="&lt;Group&gt;"><g id="_Clip_Group_" data-name="&lt;Clip Group&gt;"><g class="cls-3"><polygon id="_Path_" data-name="&lt;Path&gt;" class="cls-4" points="-25.26 128 153.26 128 64 75.93 -25.26 128"/><polygon id="_Path_2" data-name="&lt;Path&gt;" class="cls-4" points="153.26 0 -25.26 0 64 52.08 153.26 0"/><polygon id="_Path_3" data-name="&lt;Path&gt;" points="-45.71 116.08 43.55 64 -45.71 11.93 -45.71 116.08"/><polygon id="_Path_4" data-name="&lt;Path&gt;" points="173.71 116.08 173.71 11.93 84.44 64 173.71 116.08"/><polygon id="_Path_5" data-name="&lt;Path&gt;" class="cls-5" points="-45.71 128 -45.71 128 -25.26 128 64 75.93 153.26 128 173.71 128 64 64 -45.71 128"/><polygon id="_Path_6" data-name="&lt;Path&gt;" class="cls-5" points="153.26 0 64 52.08 -25.26 0 -45.71 0 64 64 173.71 0 153.26 0"/><polygon id="_Path_7" data-name="&lt;Path&gt;" class="cls-5" points="173.71 0 64 64 173.71 128 173.71 116.08 84.44 64 173.71 11.93 173.71 0"/><polygon id="_Path_8" data-name="&lt;Path&gt;" class="cls-5" points="-45.71 11.93 43.55 64 -45.71 116.08 -45.71 128 64 64 -45.71 0 -45.71 11.93"/></g></g></g></g></g></svg>