<svg id="Layer_1" data-name="Layer 1" xmlns="http://www.w3.org/2000/svg" xmlns:xlink="http://www.w3.org/1999/xlink" viewBox="0 0 128 128"><defs><style>.cls-1{fill:none;}.cls-2{clip-path:url(#clip-path);}.cls-3{clip-path:url(#clip-path-2);}.cls-4{fill:#fff;}.cls-5{fill:#2a680b;}.cls-6{fill:#aa0017;}</style><clipPath id="clip-path"><circle class="cls-1" cx="64" cy="64" r="64"/></clipPath><clipPath id="clip-path-2"><rect id="_Clipping_Path_" data-name="&lt;Clipping Path&gt;" class="cls-1" x="-45.69" width="219.39" height="128"/></clipPath></defs><title>Flag_circle_Kenya</title><g class="cls-2"><g id="KENYA"><g id="_Group_" data-name="&lt;Group&gt;"><g id="_Clip_Group_" data-name="&lt;Clip Group&gt;"><g class="cls-3"><rect id="_Path_" data-name="&lt;Path&gt;" class="cls-4" x="-45.69" width="219.39" height="128"/><rect id="_Path_2" data-name="&lt;Path&gt;" x="-45.69" width="219.39" height="38.4"/><rect id="_Path_3" data-name="&lt;Path&gt;" class="cls-5" x="-45.69" y="89.6" width="219.39" height="38.4"/><g id="_Clip_Group_2" data-name="&lt;Clip Group&gt;"><g class="cls-3"><path id="_Path_4" data-name="&lt;Path&gt;" d="M40.21,102l1.4.79L78.92,38.1c2.2-.59,3.39-2.68,4.59-4.75a46.72,46.72,0,0,0,5.38-14.12A46.64,46.64,0,0,0,79.35,31C78.16,33,77,35.11,77.56,37.28Z"/><g id="_Group_2" data-name="&lt;Group&gt;"><path id="_Compound_Path_" data-name="&lt;Compound Path&gt;" d="M41.63,103l-1.48-.87L77.46,37.23c-.62-2.12.61-4.29,1.8-6.31a46.45,46.45,0,0,1,9.56-11.77A40.59,40.59,0,0,1,83.61,33.4c-1.2,2.07-2.43,4.19-4.66,4.77L41.63,103ZM88.78,19.2A52.05,52.05,0,0,0,79.45,31c-1.18,2-2.38,4.13-1.79,6.25L40.3,102.08l1.26.59L78.84,38.05c2.2-.64,3.42-2.74,4.58-4.75a46.12,46.12,0,0,0,5.36-14.1Z"/></g><path id="_Path_5" data-name="&lt;Path&gt;" class="cls-4" d="M40.21,102l1.4.79L78.92,38.1c2.2-.59,3.39-2.68,4.59-4.75a46.72,46.72,0,0,0,5.38-14.12A46.64,46.64,0,0,0,79.35,31C78.16,33,77,35.11,77.56,37.28Z"/><path id="_Path_6" data-name="&lt;Path&gt;" d="M85.89,102l-1.4.79L47.19,38.1c-2.2-.59-3.39-2.68-4.57-4.75a45.47,45.47,0,0,1-5.4-14.12A46.64,46.64,0,0,1,46.76,31c1.18,2.07,2.38,4.16,1.79,6.33Z"/><g id="_Group_3" data-name="&lt;Group&gt;"><path id="_Compound_Path_2" data-name="&lt;Compound Path&gt;" d="M84.45,103l0-.1L47.07,38.17c-2.14-.58-3.37-2.7-4.56-4.75a46.28,46.28,0,0,1-5.4-14.17,40.66,40.66,0,0,1,9.74,11.67c1.19,2,2.4,4.16,1.82,6.38L86,102l-1.53,1ZM37.15,19.33a54.61,54.61,0,0,0,5.53,14c1.19,2,2.4,4.11,4.53,4.69l37.33,64.68,1.29-.77L48.46,37.36C49,35.13,47.82,33,46.66,31a45.39,45.39,0,0,0-9.51-11.67Z"/></g><path id="_Path_7" data-name="&lt;Path&gt;" class="cls-4" d="M85.89,102l-1.4.79L47.19,38.1c-2.2-.59-3.39-2.68-4.57-4.75a45.47,45.47,0,0,1-5.4-14.12A46.64,46.64,0,0,1,46.76,31c1.18,2.07,2.38,4.16,1.79,6.33Z"/><path id="_Path_8" data-name="&lt;Path&gt;" class="cls-6" d="M-45.69,44.81v38.4H47.88c2.4,6.39,10.37,19.21,15.18,19.21S75.85,89.6,78.22,83.21h95.47V44.81H78.22c-2.37-6.41-10.36-19.2-15.16-19.2S50.28,38.4,47.88,44.81Z"/><path id="_Path_9" data-name="&lt;Path&gt;" d="M78.22,83.21a54.31,54.31,0,0,0,4-19.22,54.19,54.19,0,0,0-4-19.18c-2.37,6.38-4,12.79-4,19.18s1.61,12.82,4,19.22Z"/><path id="_Path_10" data-name="&lt;Path&gt;" d="M47.88,83.21a54.74,54.74,0,0,1-4-19.22,54.61,54.61,0,0,1,4-19.18,54.82,54.82,0,0,1,4,19.18,54.94,54.94,0,0,1-4,19.22Z"/><path id="_Path_11" data-name="&lt;Path&gt;" class="cls-4" d="M63.06,59.21c1.76,0,3.2,2.15,3.2,4.78s-1.44,4.82-3.2,4.82-3.2-2.14-3.2-4.82,1.42-4.78,3.2-4.78Z"/><path id="_Path_12" data-name="&lt;Path&gt;" class="cls-4" d="M63.86,68.69S67,75.07,67,85.46s-3.18,16.83-3.18,16.83Z"/><path id="_Path_13" data-name="&lt;Path&gt;" class="cls-4" d="M62.25,59.34s-3.19-6.41-3.19-16.83,3.19-16.77,3.19-16.77Z"/><path id="_Path_14" data-name="&lt;Path&gt;" class="cls-4" d="M62.25,68.69s-3.19,6.38-3.19,16.77,3.19,16.83,3.19,16.83Z"/><path id="_Path_15" data-name="&lt;Path&gt;" class="cls-4" d="M63.86,59.34S67,52.93,67,42.51s-3.18-16.77-3.18-16.77Z"/></g></g></g></g></g></g></g></svg>