<svg id="Layer_1" data-name="Layer 1" xmlns="http://www.w3.org/2000/svg" xmlns:xlink="http://www.w3.org/1999/xlink" viewBox="0 0 128 128"><defs><style>.cls-1{fill:none;}.cls-2{clip-path:url(#clip-path);}.cls-3{clip-path:url(#clip-path-2);}.cls-4{fill:#d41f3a;}.cls-5{fill:#f5eb31;}</style><clipPath id="clip-path"><circle class="cls-1" cx="64" cy="64" r="64"/></clipPath><clipPath id="clip-path-2"><rect id="_Clipping_Path_" data-name="&lt;Clipping Path&gt;" class="cls-1" x="-45.71" width="219.43" height="128"/></clipPath></defs><title>Flag_circle_Kyrgystan</title><g class="cls-2"><g id="KYRGYZSTAN"><g id="_Group_" data-name="&lt;Group&gt;"><g id="_Clip_Group_" data-name="&lt;Clip Group&gt;"><g class="cls-3"><rect id="_Path_" data-name="&lt;Path&gt;" class="cls-4" x="-45.71" width="219.43" height="128"/><g id="_Clip_Group_2" data-name="&lt;Clip Group&gt;"><g class="cls-3"><path id="_Compound_Path_" data-name="&lt;Compound Path&gt;" class="cls-5" d="M102.55,64.13c-5,1.22-10.32-2.74-14.93-1.89a.76.76,0,0,0,0-.16c4.43-2.11,11.79.23,14.47-4-4.69,2-10.58-1.05-15,.49a.8.8,0,0,0,0-.21c4-2.71,11.65-1.58,13.63-6.13C96.36,55,90.1,52.89,86,55a1,1,0,0,0-.07-.18c3.57-3.32,11.21-3.4,12.45-8.18-3.82,3.35-10.29,2.3-14,5l-.12-.21c3-3.8,10.52-5,11-10-3.23,3.88-9.76,3.88-13,7.13A1.29,1.29,0,0,0,82,48.5c2.44-4.22,9.59-6.62,9.3-11.55-2.6,4.35-9,5.37-11.75,9.07l-.19-.15c1.78-4.52,8.4-8,7.36-12.8-1.88,4.65-8,6.67-10.19,10.73a.62.62,0,0,0-.21-.13c1.07-4.72,7-9.19,5.26-13.74-1.13,4.85-6.88,7.82-8.36,12.13L73,42c.33-4.81,5.5-10.17,3-14.38-.33,5-5.55,8.81-6.34,13.3a1.19,1.19,0,0,0-.26,0c-.41-4.8,3.84-10.9.75-14.66.43,5-4.1,9.58-4.2,14.15a1.1,1.1,0,0,0-.25,0c-1.16-4.7,2.09-11.34-1.55-14.61,1.2,4.85-2.56,10.11-1.94,14.63a.69.69,0,0,1-.25,0c-1.89-4.45.28-11.55-3.83-14.18,2,4.6-1,10.37.39,14.74l-.25.07c-2.56-4.11-1.52-11.46-6-13.4C54.94,31.85,53,38,55,42.14c-.07,0-.16.08-.23.13-3.19-3.68-3.32-11.11-8-12.34,3.29,3.76,2.29,10.22,5,14a1,1,0,0,0-.22.12c-3.73-3.09-5-10.47-9.9-10.93,3.87,3.25,3.87,9.76,7.12,13a.48.48,0,0,0-.16.16C44.32,43.82,41.9,36.67,37,37c4.33,2.61,5.34,9.12,9.08,11.83,0,0-.08.1-.13.18-4.56-1.74-8.07-8.46-12.86-7.41,4.69,1.92,6.71,8.2,10.86,10.27l-.11.15c-4.78-.94-9.31-7.07-13.91-5.29,5,1.15,7.93,7.08,12.37,8.46a1.57,1.57,0,0,1-.07.18c-4.87-.16-10.33-5.57-14.6-3.07,5.09.36,9,5.8,13.59,6.41l0,.18c-4.84.64-11.12-3.88-15-.74,5.1-.43,9.8,4.37,14.48,4.21,0,.06,0,.11,0,.16C36,63.92,29.06,60.4,25.74,64.13c5-1.23,10.4,2.76,15,1.86a.81.81,0,0,1,0,.16c-4.4,2.19-11.85-.26-14.55,4,4.75-2,10.75,1.12,15.17-.57,0,0,0,.1,0,.13-4,2.91-11.77,1.66-13.78,6.28,4.39-2.76,10.84-.56,14.94-2.91l0,.08c-3.46,3.55-11.42,3.5-12.69,8.4,3.93-3.45,10.67-2.22,14.35-5.29,0,.06,0,.08,0,.11-2.84,4.06-10.76,5.28-11.24,10.31,3.33-4,10.22-3.88,13.36-7.45,0,0,0,0,.06,0-2.14,4.49-9.82,6.92-9.51,12,2.67-4.5,9.54-5.42,12-9.51,0,0,.05,0,.06.06-1.38,4.8-8.63,8.4-7.55,13.38,2-4.88,8.61-6.87,10.46-11.32,0,0,0,0,0,.06-.61,5-7.22,9.65-5.36,14.4,1.18-5.11,7.44-8.12,8.56-12.82,0,0,0,0,0,0,.2,5-5.63,10.65-3,15.07.36-5.26,6.08-9.2,6.43-14,0,0,0,0,.07,0,1,4.9-3.88,11.44-.65,15.4-.45-5.26,4.59-10.06,4.18-14.84h.06c1.74,4.67-2,11.9,1.78,15.27-1.28-5.08,2.94-10.6,1.79-15.27H66c2.46,4.37-.16,12.05,4.15,14.84-2.05-4.88,1.24-11-.6-15.4l.06,0c3.09,4,1.72,11.95,6.39,14-2.77-4.45-.49-11-3-15.07,0,0,0,0,.07,0,3.65,3.42,3.55,11.52,8.5,12.82-3.44-4-2.21-10.73-5.31-14.43,0,0,0,0,.06,0,4.14,2.81,5.3,10.81,10.39,11.32-4-3.35-3.86-10.27-7.49-13.41,0,0,0,0,.07,0,4.51,2.14,6.91,9.83,12,9.53-4.48-2.69-5.41-9.48-9.44-12,0,0,0,0,.07,0,4.74,1.43,8.33,8.58,13.27,7.5-4.81-1.94-6.8-8.48-11.15-10.39a.42.42,0,0,1,.06-.08c4.91.72,9.55,7.18,14.25,5.34-5-1.17-8-7.25-12.59-8.5a.42.42,0,0,0,0-.13c5,0,10.53,5.59,14.87,3.06-5.15-.35-9-5.84-13.72-6.43l0-.13c4.88-.74,11.21,3.88,15.1.72-5.12.43-9.81-4.35-14.5-4.22a.39.39,0,0,1,0-.15c4.69-1.46,11.63,2.07,15-1.66m-17.61,2.4a23.33,23.33,0,0,1-.59,3l.43.07a3,3,0,0,0-.48.13,17.8,17.8,0,0,1-1.06,2.89,1.19,1.19,0,0,0,.41.15,2.58,2.58,0,0,0-.48,0,19.63,19.63,0,0,1-1.5,2.7,1.83,1.83,0,0,0,.39.21c-.15,0-.33,0-.5,0a15.5,15.5,0,0,1-1.89,2.4,2.75,2.75,0,0,0,.35.31,4.94,4.94,0,0,0-.48-.13,22.37,22.37,0,0,1-2.25,2.1,2.89,2.89,0,0,0,.3.33,1.41,1.41,0,0,0-.45-.18,22.93,22.93,0,0,1-2.57,1.71l.26.36a1.71,1.71,0,0,0-.42-.26,18.89,18.89,0,0,1-2.8,1.33,1.77,1.77,0,0,0,.2.36l-.37-.31a22.71,22.71,0,0,1-3,.87,2.73,2.73,0,0,0,.13.41,2.3,2.3,0,0,0-.31-.36,19.64,19.64,0,0,1-3.07.36,2.12,2.12,0,0,0,.06.43c-.08-.13-.17-.28-.24-.41-.3,0-.6,0-.88,0a20.39,20.39,0,0,1-2.23-.13,2.8,2.8,0,0,0,0,.41l-.18-.43a23.45,23.45,0,0,1-3.05-.57,3.46,3.46,0,0,0-.07.41l-.1-.48a19.5,19.5,0,0,1-2.92-1c-.05.13-.09.28-.14.41,0-.15,0-.31,0-.49a29.48,29.48,0,0,1-2.72-1.48,2.42,2.42,0,0,0-.19.36c0-.15,0-.31,0-.46a21.48,21.48,0,0,1-2.45-1.91,1.32,1.32,0,0,0-.25.35c0-.18.09-.33.12-.46a26.42,26.42,0,0,1-2.12-2.27c-.1.1-.2.18-.31.31a3.56,3.56,0,0,0,.19-.49A21.74,21.74,0,0,1,46,74.57l-.36.23a4.44,4.44,0,0,0,.27-.38,21.73,21.73,0,0,1-1.33-2.81,1.32,1.32,0,0,0-.38.21,2.79,2.79,0,0,1,.32-.39,20.28,20.28,0,0,1-.87-3,1.34,1.34,0,0,1-.4.13,2.83,2.83,0,0,0,.37-.33,21.59,21.59,0,0,1-.39-3,3.8,3.8,0,0,0-.43,0c.16-.08.3-.18.42-.25,0-.29,0-.57,0-.87a19.56,19.56,0,0,1,.13-2.2,1.69,1.69,0,0,0-.45,0l.47-.2a19.56,19.56,0,0,1,.57-3.07c-.13,0-.27,0-.41,0a2.36,2.36,0,0,0,.46-.1,22.77,22.77,0,0,1,1-2.91,1.51,1.51,0,0,0-.4-.16,2.54,2.54,0,0,0,.49,0,20.64,20.64,0,0,1,1.5-2.68,1.94,1.94,0,0,0-.38-.2l.48,0a25.68,25.68,0,0,1,1.91-2.45c-.1,0-.22-.15-.35-.23a4.27,4.27,0,0,1,.48.13A17.25,17.25,0,0,1,51,47.86a1,1,0,0,0-.31-.31,3.14,3.14,0,0,1,.46.18A21.23,21.23,0,0,1,53.7,46a3.14,3.14,0,0,0-.24-.35,3,3,0,0,0,.41.25,18.86,18.86,0,0,1,2.81-1.3c0-.13-.13-.26-.2-.41a1.83,1.83,0,0,0,.37.33,19.85,19.85,0,0,1,3-.86c0-.13-.07-.26-.12-.41l.31.38a17.41,17.41,0,0,1,3.08-.38c0-.13,0-.28-.07-.44a2.44,2.44,0,0,0,.26.41h.87a16.19,16.19,0,0,1,2.21.13,3.52,3.52,0,0,0,0-.46c.07.18.12.31.19.46a25.09,25.09,0,0,1,3,.56,1.92,1.92,0,0,0,.07-.41,4.36,4.36,0,0,0,.12.46A30.29,30.29,0,0,1,72.68,45a2.12,2.12,0,0,0,.14-.4,3.88,3.88,0,0,0,0,.48,25.89,25.89,0,0,1,2.7,1.48,1.79,1.79,0,0,0,.21-.36,4.22,4.22,0,0,0,0,.49,28.61,28.61,0,0,1,2.43,1.89,1.3,1.3,0,0,0,.27-.36,3.14,3.14,0,0,0-.12.51A19.7,19.7,0,0,1,80.43,51c.09-.13.2-.2.31-.33-.07.18-.14.33-.19.46a19.72,19.72,0,0,1,1.74,2.58c.1-.1.23-.16.35-.26l-.27.41a16.36,16.36,0,0,1,1.31,2.81,3,3,0,0,0,.4-.2c-.11.12-.23.23-.33.35a19.32,19.32,0,0,1,.87,3,1.64,1.64,0,0,0,.42-.15c-.14.13-.26.23-.39.33A20.88,20.88,0,0,1,85,63.08l.43-.08c-.15.08-.29.18-.41.26v.87A20.63,20.63,0,0,1,85,66.35a3,3,0,0,0,.43,0,2.85,2.85,0,0,0-.44.16"/><path id="_Path_2" data-name="&lt;Path&gt;" class="cls-5" d="M62.12,52.1A26.83,26.83,0,0,0,52.71,50c-.25.26-.52.49-.76.74a26.24,26.24,0,0,1,9,2c.4-.23.79-.46,1.21-.66"/><path id="_Path_3" data-name="&lt;Path&gt;" class="cls-5" d="M74.15,48.88a16.89,16.89,0,0,0-20,0,28.46,28.46,0,0,1,10,2.25,28.3,28.3,0,0,1,10-2.25"/><path id="_Path_4" data-name="&lt;Path&gt;" class="cls-5" d="M59.28,53.78A25.77,25.77,0,0,0,51,51.84l-.55.69a25,25,0,0,1,7.85,2c.32-.23.65-.46,1-.72"/><path id="_Path_5" data-name="&lt;Path&gt;" class="cls-5" d="M66.53,58.46a12.79,12.79,0,0,0-1,.82,25.36,25.36,0,0,1,8,18A14,14,0,0,0,75,76.18a26,26,0,0,0-8.51-17.72"/><path id="_Path_6" data-name="&lt;Path&gt;" class="cls-5" d="M67.38,52.76a26.29,26.29,0,0,1,9-2c-.24-.25-.51-.48-.77-.74a26.67,26.67,0,0,0-9.38,2.07c.41.2.8.43,1.2.66"/><path id="_Path_7" data-name="&lt;Path&gt;" class="cls-5" d="M69.36,56.54a11.37,11.37,0,0,0-1.18.77A27.08,27.08,0,0,1,77.24,74a14.2,14.2,0,0,0,1.33-1.84,28,28,0,0,0-9.21-15.58"/><path id="_Path_8" data-name="&lt;Path&gt;" class="cls-5" d="M57,55.55a24.47,24.47,0,0,0-7.21-2,17.48,17.48,0,0,0-1.67,15.2A29.11,29.11,0,0,1,57,55.55"/><path id="_Path_9" data-name="&lt;Path&gt;" class="cls-5" d="M70,54.5a25.09,25.09,0,0,1,7.86-2l-.55-.69A25.64,25.64,0,0,0,69,53.78c.33.26.65.49,1,.72"/><path id="_Path_10" data-name="&lt;Path&gt;" class="cls-5" d="M57.06,77.84c0,.26,0,.51,0,.77a17.23,17.23,0,0,0,7.08,1.53,17.05,17.05,0,0,0,7-1.53c0-.26,0-.51,0-.77a24.63,24.63,0,0,0-7.06-17.29,24.53,24.53,0,0,0-7.09,17.29"/><path id="_Path_11" data-name="&lt;Path&gt;" class="cls-5" d="M64.15,53c-.41.23-.83.44-1.22.67.4.23.81.43,1.22.66.4-.23.81-.43,1.22-.66L64.15,53"/><path id="_Path_12" data-name="&lt;Path&gt;" class="cls-5" d="M71.32,55.55a29.13,29.13,0,0,1,8.89,13.2,17.48,17.48,0,0,0-1.67-15.2,24.53,24.53,0,0,0-7.22,2"/><path id="_Path_13" data-name="&lt;Path&gt;" class="cls-5" d="M62.76,59.28c-.34-.29-.66-.57-1-.82a26,26,0,0,0-8.52,17.72,16.16,16.16,0,0,0,1.52,1.13,25.42,25.42,0,0,1,8-18"/><path id="_Path_14" data-name="&lt;Path&gt;" class="cls-5" d="M63.14,57.28l1,.77c.32-.26.66-.51,1-.77-.33-.28-.67-.53-1-.76a9.19,9.19,0,0,0-1,.76"/><path id="_Path_15" data-name="&lt;Path&gt;" class="cls-5" d="M60.11,57.31c-.39-.28-.79-.54-1.18-.77a28.08,28.08,0,0,0-9.22,15.58A15.27,15.27,0,0,0,51.05,74a27.08,27.08,0,0,1,9.06-16.65"/><path id="_Path_16" data-name="&lt;Path&gt;" class="cls-5" d="M65.79,55.44c.35.23.67.49,1,.74A12.33,12.33,0,0,1,68,55.47c-.33-.26-.66-.49-1-.71-.4.2-.81.43-1.22.68"/><path id="_Path_17" data-name="&lt;Path&gt;" class="cls-5" d="M60.28,55.47a12.19,12.19,0,0,1,1.2.71c.34-.25.67-.51,1-.74a12,12,0,0,0-1.21-.68c-.33.22-.67.45-1,.71"/></g></g></g></g></g></g></g></svg>