<svg id="Layer_1" data-name="Layer 1" xmlns="http://www.w3.org/2000/svg" xmlns:xlink="http://www.w3.org/1999/xlink" viewBox="0 0 128 128"><defs><style>.cls-1{fill:none;}.cls-2{clip-path:url(#clip-path);}.cls-3{clip-path:url(#clip-path-2);}.cls-4{fill:#1a0095;}.cls-5{fill:#ba0019;}.cls-6{fill:#fff;}</style><clipPath id="clip-path"><circle class="cls-1" cx="64" cy="64" r="64"/></clipPath><clipPath id="clip-path-2"><rect id="_Clipping_Path_" data-name="&lt;Clipping Path&gt;" class="cls-1" x="-45.74" y="-0.12" width="219.47" height="128"/></clipPath></defs><title>Flag_circle_Cambodia</title><g class="cls-2"><g id="CAMBODIA"><g id="_Group_" data-name="&lt;Group&gt;"><g id="_Clip_Group_" data-name="&lt;Clip Group&gt;"><g class="cls-3"><rect id="_Path_" data-name="&lt;Path&gt;" class="cls-4" x="-45.74" y="-0.12" width="219.47" height="128"/><rect id="_Path_2" data-name="&lt;Path&gt;" class="cls-5" x="-45.74" y="31.88" width="219.47" height="63.99"/><rect id="_Path_3" data-name="&lt;Path&gt;" class="cls-6" x="23.3" y="63.76" width="81.39" height="13.16"/><g id="_Group_2" data-name="&lt;Group&gt;"><path id="_Compound_Path_" data-name="&lt;Compound Path&gt;" class="cls-5" d="M104.86,77.07H23.3l-.16-13.31,81.55-.18.17,13.49Zm-.32-13.31-81.24.13.17,13,81.07-.18v-13Z"/></g><polygon id="_Path_4" data-name="&lt;Path&gt;" class="cls-6" points="23.25 76.92 21.93 80.01 106.06 80.01 104.74 76.92 23.25 76.92"/><g id="_Group_3" data-name="&lt;Group&gt;"><path id="_Compound_Path_2" data-name="&lt;Compound Path&gt;" class="cls-5" d="M106.32,80.19H21.69l1.41-3.35,81.64-.1,1.58,3.45Zm-84.15-.36h83.65L104.61,77l-81.36.1-1.08,2.76Z"/></g><polygon id="_Path_5" data-name="&lt;Path&gt;" class="cls-6" points="87.55 76.92 85.95 80.01 105.09 80.01 103.48 76.92 87.55 76.92"/><g id="_Group_4" data-name="&lt;Group&gt;"><path id="_Compound_Path_3" data-name="&lt;Compound Path&gt;" class="cls-5" d="M105.35,80.19H85.67l1.73-3.37,16.08-.08,1.87,3.45ZM86.2,79.83h18.61L103.34,77l-15.8.08L86.2,79.83Z"/></g><polygon id="_Path_6" data-name="&lt;Path&gt;" class="cls-6" points="92.15 76.92 91.34 80.01 100.99 80.01 100.18 76.92 92.15 76.92"/><g id="_Group_5" data-name="&lt;Group&gt;"><path id="_Compound_Path_4" data-name="&lt;Compound Path&gt;" class="cls-5" d="M101.2,80.19H91.34L92,76.87l8.19-.13,1,3.45ZM100,76.94l-7.88.13-.65,3,9.29-.17L100,76.94Z"/></g><polygon id="_Path_7" data-name="&lt;Path&gt;" class="cls-6" points="93.58 76.92 93.06 80.01 99.28 80.01 98.77 76.92 93.58 76.92"/><g id="_Group_6" data-name="&lt;Group&gt;"><path id="_Compound_Path_5" data-name="&lt;Compound Path&gt;" class="cls-5" d="M99.49,80.19H93.06l.36-3.3,5.35-.15.72,3.45Zm-.88-3.25-5,.13L93.23,80l5.87-.15-.49-2.92Z"/></g><polygon id="_Path_8" data-name="&lt;Path&gt;" class="cls-6" points="55.62 76.92 53.94 80.01 74.05 80.01 72.39 76.92 55.62 76.92"/><g id="_Group_7" data-name="&lt;Group&gt;"><path id="_Compound_Path_6" data-name="&lt;Compound Path&gt;" class="cls-5" d="M74.33,80.19H53.67l1.8-3.37,16.91-.08,2,3.45ZM54.2,79.83H73.79L72.23,77l-16.61.08L54.2,79.83Z"/></g><rect id="_Path_9" data-name="&lt;Path&gt;" class="cls-6" x="22.86" y="63.56" width="82.3" height="3.09"/><g id="_Group_8" data-name="&lt;Group&gt;"><path id="_Compound_Path_7" data-name="&lt;Compound Path&gt;" class="cls-5" d="M105.32,66.83H22.86l-.17-3.27,82.47-.15.16,3.42ZM105,63.56l-82.13.18L23,66.65l82-.15V63.56Z"/></g><rect id="_Path_10" data-name="&lt;Path&gt;" class="cls-6" x="87.42" y="63.79" width="16.12" height="13.1"/><g id="_Group_9" data-name="&lt;Group&gt;"><path id="_Compound_Path_8" data-name="&lt;Compound Path&gt;" class="cls-5" d="M103.71,77.05H87.42l-.17-13.26,16.29-.15.17,13.41Zm-.32-13.26-16,.15.16,13,15.81-.18V63.79Z"/></g><rect id="_Path_11" data-name="&lt;Path&gt;" class="cls-6" x="98.96" y="69.92" width="1.62" height="6.97"/><g id="_Group_10" data-name="&lt;Group&gt;"><path id="_Compound_Path_9" data-name="&lt;Compound Path&gt;" class="cls-5" d="M100.73,77.05H99l-.16-7.13,1.78-.15.15,7.28Zm-.32-7.13L99,70.1l.16,6.79,1.29-.15V69.92Z"/></g><rect id="_Path_12" data-name="&lt;Path&gt;" class="cls-6" x="91.86" y="69.92" width="1.62" height="6.97"/><g id="_Group_11" data-name="&lt;Group&gt;"><path id="_Compound_Path_10" data-name="&lt;Compound Path&gt;" class="cls-5" d="M93.64,77.05H91.86l-.16-7.13,1.77-.15.17,7.28Zm-.33-7.13-1.45.18L92,76.89l1.29-.15V69.92Z"/></g><polygon id="_Path_13" data-name="&lt;Path&gt;" class="cls-6" points="59.73 76.92 58.89 80.01 68.99 80.01 68.15 76.92 59.73 76.92"/><g id="_Group_12" data-name="&lt;Group&gt;"><path id="_Compound_Path_11" data-name="&lt;Compound Path&gt;" class="cls-5" d="M69.21,80.19H58.89l.69-3.32,8.57-.13,1.06,3.45ZM68,76.94l-8.27.13L59,80l9.76-.17L68,76.94Z"/></g><polygon id="_Path_14" data-name="&lt;Path&gt;" class="cls-6" points="61.35 76.92 60.83 80.01 67.17 80.01 66.64 76.92 61.35 76.92"/><g id="_Group_13" data-name="&lt;Group&gt;"><path id="_Compound_Path_12" data-name="&lt;Compound Path&gt;" class="cls-5" d="M67.37,80.19H60.83l.37-3.32,5.44-.13.73,3.45Zm-.89-3.25-5.13.13L61,80l6-.17-.5-2.92Z"/></g><rect id="_Path_15" data-name="&lt;Path&gt;" class="cls-6" x="55.42" y="63.76" width="16.99" height="13.16"/><g id="_Group_14" data-name="&lt;Group&gt;"><path id="_Compound_Path_13" data-name="&lt;Compound Path&gt;" class="cls-5" d="M72.57,77.07H55.42l-.16-13.31,17.15-.18.16,13.49Zm-.31-13.31-16.84.13.16,13,16.68-.18v-13Z"/></g><rect id="_Path_16" data-name="&lt;Path&gt;" class="cls-6" x="68.96" y="69.92" width="1.62" height="6.97"/><g id="_Group_15" data-name="&lt;Group&gt;"><path id="_Compound_Path_14" data-name="&lt;Compound Path&gt;" class="cls-5" d="M70.74,77.05H69l-.16-7.13,1.77-.15.17,7.28Zm-.32-7.13L69,70.1l.16,6.79,1.3-.18V69.92Z"/></g><rect id="_Path_17" data-name="&lt;Path&gt;" class="cls-6" x="57.74" y="69.92" width="1.62" height="6.97"/><g id="_Group_16" data-name="&lt;Group&gt;"><path id="_Compound_Path_15" data-name="&lt;Compound Path&gt;" class="cls-5" d="M59.52,77.05H57.74l-.16-7.13,1.77-.15.17,7.28Zm-.34-7.13-1.44.18.15,6.79,1.29-.18V69.92Z"/></g><rect id="_Path_18" data-name="&lt;Path&gt;" class="cls-6" x="59.88" y="60.57" width="8.24" height="16.35"/><g id="_Group_17" data-name="&lt;Group&gt;"><path id="_Compound_Path_16" data-name="&lt;Compound Path&gt;" class="cls-5" d="M68.28,77.07h-8.4l-.16-16.5,8.4-.15.16,16.65ZM68,60.57l-8.07.18.17,16.17,7.9-.18V60.57Z"/></g><rect id="_Path_19" data-name="&lt;Path&gt;" class="cls-6" x="66.05" y="69.92" width="1.63" height="6.97"/><g id="_Group_18" data-name="&lt;Group&gt;"><path id="_Compound_Path_17" data-name="&lt;Compound Path&gt;" class="cls-5" d="M67.83,77.05H66.05l-.16-7.13,1.79-.15.15,7.28Zm-.32-7.13-1.46.18.17,6.79,1.29-.18V69.92Z"/></g><rect id="_Path_20" data-name="&lt;Path&gt;" class="cls-6" x="60.64" y="69.92" width="1.62" height="6.97"/><g id="_Group_19" data-name="&lt;Group&gt;"><path id="_Compound_Path_18" data-name="&lt;Compound Path&gt;" class="cls-5" d="M62.42,77.05H60.64l-.16-7.13,1.78-.15.16,7.28Zm-.33-7.13-1.45.18.17,6.79,1.28-.18V69.92Z"/></g><polygon id="_Path_21" data-name="&lt;Path&gt;" class="cls-6" points="60.42 63.2 63.9 68.21 67.58 63.2 60.42 63.2"/><g id="_Group_20" data-name="&lt;Group&gt;"><path id="_Compound_Path_19" data-name="&lt;Compound Path&gt;" class="cls-5" d="M63.9,68.49l-3.78-5.44H67.9l-4,5.44Zm-3.18-5.14L63.9,68l3.36-4.6Z"/></g><rect id="_Path_22" data-name="&lt;Path&gt;" class="cls-6" x="93.82" y="63.76" width="4.57" height="16.25"/><g id="_Group_21" data-name="&lt;Group&gt;"><path id="_Compound_Path_20" data-name="&lt;Compound Path&gt;" class="cls-5" d="M98.55,80.19H93.82l-.16-16.43,4.73-.18.16,16.61Zm-.31-16.43-4.42.13L94,80l4.26-.15V63.76Z"/></g><rect id="_Path_23" data-name="&lt;Path&gt;" class="cls-6" x="94.58" y="63.76" width="3.04" height="16.25"/><g id="_Group_22" data-name="&lt;Group&gt;"><path id="_Compound_Path_21" data-name="&lt;Compound Path&gt;" class="cls-5" d="M97.78,80.19h-3.2l-.16-16.43,3.2-.18.16,16.61Zm-.31-16.43-2.89.13L94.74,80l2.73-.15V63.76Z"/></g><polygon id="_Path_24" data-name="&lt;Path&gt;" class="cls-6" points="24.35 76.92 22.75 80.01 41.88 80.01 40.28 76.92 24.35 76.92"/><g id="_Group_23" data-name="&lt;Group&gt;"><path id="_Compound_Path_22" data-name="&lt;Compound Path&gt;" class="cls-5" d="M42.15,80.19H22.48l1.72-3.37,16.08-.08,1.87,3.45ZM23,79.83H41.62L40.15,77l-15.8.08L23,79.83Z"/></g><polygon id="_Path_25" data-name="&lt;Path&gt;" class="cls-6" points="28.17 76.92 27.42 80.01 36.41 80.01 35.66 76.92 28.17 76.92"/><g id="_Group_24" data-name="&lt;Group&gt;"><path id="_Compound_Path_23" data-name="&lt;Compound Path&gt;" class="cls-5" d="M36.62,80.19h-9.2l.6-3.32,7.65-.13.95,3.45Zm-1.11-3.25-7.34.13-.6,3,8.64-.17-.7-2.92Z"/></g><polygon id="_Path_26" data-name="&lt;Path&gt;" class="cls-6" points="29.51 76.92 29.03 80.01 34.77 80.01 34.29 76.92 29.51 76.92"/><g id="_Group_25" data-name="&lt;Group&gt;"><path id="_Compound_Path_24" data-name="&lt;Compound Path&gt;" class="cls-5" d="M35,80.19H29l.32-3.3,4.94-.15L35,80.19Zm-.83-3.25-4.62.13L29.18,80l5.4-.15-.45-2.92Z"/></g><rect id="_Path_27" data-name="&lt;Path&gt;" class="cls-6" x="24.22" y="63.76" width="16.01" height="13.16"/><g id="_Group_26" data-name="&lt;Group&gt;"><path id="_Compound_Path_25" data-name="&lt;Compound Path&gt;" class="cls-5" d="M40.39,77.07H24.22l-.17-13.31,16.18-.18.16,13.49Zm-.32-13.31-15.85.13.16,13,15.69-.18v-13Z"/></g><rect id="_Path_28" data-name="&lt;Path&gt;" class="cls-6" x="27.34" y="69.92" width="1.62" height="6.97"/><g id="_Group_27" data-name="&lt;Group&gt;"><path id="_Compound_Path_26" data-name="&lt;Compound Path&gt;" class="cls-5" d="M29.11,77.05H27.34l-.16-7.13L29,69.77l.16,7.28Zm-.32-7.13-1.45.18.16,6.79,1.29-.15V69.92Z"/></g><rect id="_Path_29" data-name="&lt;Path&gt;" class="cls-6" x="34.76" y="69.92" width="1.62" height="6.97"/><g id="_Group_28" data-name="&lt;Group&gt;"><path id="_Compound_Path_27" data-name="&lt;Compound Path&gt;" class="cls-5" d="M36.53,77.05H34.76l-.17-7.13,1.79-.15.15,7.28Zm-.32-7.13-1.45.18.16,6.79,1.29-.15V69.92Z"/></g><rect id="_Path_30" data-name="&lt;Path&gt;" class="cls-6" x="29.71" y="63.76" width="4.57" height="16.25"/><g id="_Group_29" data-name="&lt;Group&gt;"><path id="_Compound_Path_28" data-name="&lt;Compound Path&gt;" class="cls-5" d="M34.45,80.19H29.71l-.16-16.43,4.73-.18.17,16.61Zm-.34-16.43-4.4.13L29.87,80l4.24-.15V63.76Z"/></g><rect id="_Path_31" data-name="&lt;Path&gt;" class="cls-6" x="30.46" y="63.76" width="3.05" height="16.25"/><g id="_Group_30" data-name="&lt;Group&gt;"><path id="_Compound_Path_29" data-name="&lt;Compound Path&gt;" class="cls-5" d="M33.67,80.19H30.46L30.3,63.76l3.21-.18.16,16.61Zm-.33-16.43-2.88.13L30.63,80l2.71-.15V63.76Z"/></g><rect id="_Path_32" data-name="&lt;Path&gt;" class="cls-6" x="21.93" y="60.67" width="84.13" height="3.09"/><g id="_Group_31" data-name="&lt;Group&gt;"><path id="_Compound_Path_30" data-name="&lt;Compound Path&gt;" class="cls-5" d="M106.22,63.89H21.93l-.16-3.22,84.29-.15.16,3.37Zm-.33-3.22-84,.16.17,2.93,83.79-.18V60.67Z"/></g><rect id="_Path_33" data-name="&lt;Path&gt;" class="cls-6" x="19.6" y="79.24" width="88.47" height="3.98"/><g id="_Group_32" data-name="&lt;Group&gt;"><path id="_Compound_Path_31" data-name="&lt;Compound Path&gt;" class="cls-5" d="M108.24,83.38H19.6l-.17-4.14,88.64-.18.17,4.32Zm-.34-4.14-88.3.16.16,3.83,88.14-.18V79.24Z"/></g><rect id="_Path_34" data-name="&lt;Path&gt;" class="cls-6" x="18.25" y="80.09" width="91.17" height="3.98"/><g id="_Group_33" data-name="&lt;Group&gt;"><path id="_Compound_Path_32" data-name="&lt;Compound Path&gt;" class="cls-5" d="M109.59,84.25H18.25l-.16-4.16,91.33-.16.17,4.32Zm-.35-4.16-91,.17.16,3.81,90.83-.15V80.09Z"/></g><rect id="_Path_35" data-name="&lt;Path&gt;" class="cls-6" x="15.89" y="82.36" width="96.22" height="3.98"/><g id="_Group_34" data-name="&lt;Group&gt;"><path id="_Compound_Path_33" data-name="&lt;Compound Path&gt;" class="cls-5" d="M112.26,86.52H15.89l-.16-4.16,96.38-.15.15,4.31ZM112,82.36l-96.06.15L16,86.34,112,86.19V82.36Z"/></g><rect id="_Path_36" data-name="&lt;Path&gt;" class="cls-6" x="12.51" y="85.25" width="102.97" height="3.96"/><g id="_Group_35" data-name="&lt;Group&gt;"><path id="_Compound_Path_34" data-name="&lt;Compound Path&gt;" class="cls-5" d="M115.64,89.36H12.51l-.17-4.11L115.48,85l.16,4.32Zm-.32-4.11-102.81.1.16,3.85L115.32,89V85.25Z"/></g><rect id="_Path_37" data-name="&lt;Path&gt;" class="cls-6" x="9.15" y="89.23" width="109.68" height="3.93"/><g id="_Group_36" data-name="&lt;Group&gt;"><path id="_Compound_Path_35" data-name="&lt;Compound Path&gt;" class="cls-5" d="M119,93.32H9.15L9,89.23l109.85-.18.16,4.27Zm-.3-4.09L9.15,89.38l.17,3.78L118.7,93V89.23Z"/></g><rect id="_Path_38" data-name="&lt;Path&gt;" class="cls-6" x="29.71" y="79.24" width="4.57" height="13.95"/><g id="_Group_37" data-name="&lt;Group&gt;"><path id="_Compound_Path_36" data-name="&lt;Compound Path&gt;" class="cls-5" d="M34.45,93.34H29.71l-.16-14.1,4.73-.18.17,14.28Zm-.34-14.1-4.4.16.16,13.79L34.11,93V79.24Z"/></g><rect id="_Path_39" data-name="&lt;Path&gt;" class="cls-6" x="30.46" y="79.24" width="3.06" height="13.95"/><g id="_Group_38" data-name="&lt;Group&gt;"><path id="_Compound_Path_37" data-name="&lt;Compound Path&gt;" class="cls-5" d="M33.69,93.34H30.46l-.16-14.1,3.22-.18.17,14.28Zm-.34-14.1-2.89.16.17,13.79L33.35,93V79.24Z"/></g><rect id="_Path_40" data-name="&lt;Path&gt;" class="cls-6" x="93.71" y="79.24" width="4.58" height="13.95"/><g id="_Group_39" data-name="&lt;Group&gt;"><path id="_Compound_Path_38" data-name="&lt;Compound Path&gt;" class="cls-5" d="M98.45,93.34H93.71l-.16-14.1,4.74-.18.16,14.28Zm-.32-14.1-4.42.16.18,13.79L98.13,93V79.24Z"/></g><rect id="_Path_41" data-name="&lt;Path&gt;" class="cls-6" x="94.48" y="79.24" width="3.05" height="13.95"/><g id="_Group_40" data-name="&lt;Group&gt;"><path id="_Compound_Path_39" data-name="&lt;Compound Path&gt;" class="cls-5" d="M97.69,93.34H94.48l-.17-14.1,3.22-.18.16,14.28Zm-.33-14.1-2.88.16.17,13.79L97.36,93V79.24Z"/></g><rect id="_Path_42" data-name="&lt;Path&gt;" class="cls-6" x="62.31" y="63.76" width="3.67" height="29.43"/><g id="_Group_41" data-name="&lt;Group&gt;"><path id="_Compound_Path_40" data-name="&lt;Compound Path&gt;" class="cls-5" d="M66.15,93.34H62.31l-.16-29.58L66,63.58l.16,29.76Zm-.33-29.58-3.51.13.16,29.3L65.82,93V63.76Z"/></g><g id="_Clip_Group_2" data-name="&lt;Clip Group&gt;"><g class="cls-3"><path id="_Path_43" data-name="&lt;Path&gt;" class="cls-6" d="M88.46,63.87l0-8s.83,1.58,7.19,1.94c6-.2,7-1.17,7.3-2l-.24,8.17Z"/><g id="_Group_42" data-name="&lt;Group&gt;"><path id="_Compound_Path_41" data-name="&lt;Compound Path&gt;" class="cls-5" d="M102.9,64.07,88.46,64l-.12-8.22v-.61l.29.53s.94,1.54,7.07,1.84c5.84-.2,6.87-1.1,7.14-1.91l.31,0-.26,8.35ZM88.66,56.25l0,7.62,14-.11.24-7.38c-.67.74-2.36,1.38-7.13,1.53-4.68-.25-6.42-1.2-7-1.66Z"/></g><path id="_Path_44" data-name="&lt;Path&gt;" class="cls-6" d="M92.58,54.44l-2-1.58c.66-.41,1.89.3,1.89.3A4.81,4.81,0,0,1,96,50.58a4.84,4.84,0,0,1,3.48,2.58s1.21-.71,1.86-.3l-2,1.58Z"/><g id="_Group_43" data-name="&lt;Group&gt;"><path id="_Compound_Path_42" data-name="&lt;Compound Path&gt;" class="cls-5" d="M99.39,54.62H92.58L90.51,53a.6.6,0,0,1,.6-.41,3.72,3.72,0,0,1,1.42.41c-.09-.15.67-1.84,3.39-2.55,2.66.69,3.48,2.22,3.64,2.6a1.8,1.8,0,0,1,1.84-.3l-2,1.89Zm-8.28-1.71a1.09,1.09,0,0,0-.42.07l2,1.33,6.61,0L101,52.91h-.21a3.12,3.12,0,0,0-1.28.41,6.15,6.15,0,0,0-3.6-2.58,4.71,4.71,0,0,0-3.28,2.47c-.27.11-.93-.3-1.53-.3Z"/></g><path id="_Path_45" data-name="&lt;Path&gt;" class="cls-6" d="M91.57,58.55,89,56.33c.86-.59,2.43.41,2.43.41s.87-2.53,4.53-3.6c3.67,1.07,4.52,3.6,4.52,3.6s1.58-1,2.43-.41l-2.56,2.22Z"/><g id="_Group_44" data-name="&lt;Group&gt;"><path id="_Compound_Path_43" data-name="&lt;Compound Path&gt;" class="cls-5" d="M100.41,58.71H91.57L88.9,56.46a.78.78,0,0,1,.77-.49,4.32,4.32,0,0,1,1.83.62c-.12-.16.83-2.58,4.42-3.61,3.5,1,4.52,3.25,4.68,3.63A2.48,2.48,0,0,1,103,56.2l-2.6,2.51ZM89.67,56.3a1,1,0,0,0-.57.18l2.56,1.94,8.63-.05,2.46-2.09c-.14.07-.3,0-.5,0a3.67,3.67,0,0,0-1.69.59,7.72,7.72,0,0,0-4.64-3.6,6.37,6.37,0,0,0-4.33,3.5c-.25.1-1.16-.49-1.92-.49Z"/></g><path id="_Path_46" data-name="&lt;Path&gt;" class="cls-6" d="M96,42.1c.08,0,3,5.31,0,5.39s0-5.23,0-5.39Z"/><g id="_Group_45" data-name="&lt;Group&gt;"><path id="_Compound_Path_44" data-name="&lt;Compound Path&gt;" class="cls-5" d="M95.93,47.67a1.36,1.36,0,0,1-1.24-.59c-.72-1.15.54-3.75,1-4.75a1.73,1.73,0,0,0,.14-.28.64.64,0,0,1,.17.05h.16l0,.1A7.59,7.59,0,0,1,97.53,46,1.45,1.45,0,0,1,96,47.67Zm.1-5.24s0,0,0,0c-.41.89-1.66,3.45-1,4.47a1,1,0,0,0,1,.43v.13l.07-.13a1.16,1.16,0,0,0,1.09-.63c.51-1.13-.64-3.56-1.06-4.3Z"/></g><path id="_Path_47" data-name="&lt;Path&gt;" class="cls-6" d="M93.41,48.85,91.89,48a2.47,2.47,0,0,1,1.45.13s.49-.95,2.66-1.36c2.17.41,2.68,1.36,2.68,1.36a2.45,2.45,0,0,1,1.45-.13l-1.54.82Z"/><g id="_Group_46" data-name="&lt;Group&gt;"><path id="_Compound_Path_45" data-name="&lt;Compound Path&gt;" class="cls-5" d="M98.64,49H93.41l-1.89-1,.3-.13a3.21,3.21,0,0,1,1.54.16c0-.13.58-1,2.61-1.38A4.3,4.3,0,0,1,98.78,48a2.13,2.13,0,0,1,1.4-.16l.3.13-1.84,1Zm-6.23-.92,1.08.59h5.07l1-.59a2.94,2.94,0,0,0-.87.23A4.79,4.79,0,0,0,96,47c-2,.38-2.49,1.25-2.49,1.28-.2.07-.66-.13-1.07-.16Z"/></g><path id="_Path_48" data-name="&lt;Path&gt;" class="cls-6" d="M94.67,49.51l0-.66A2.25,2.25,0,0,1,96,47.49a2.18,2.18,0,0,1,1.37,1.36l0,.66Z"/><g id="_Group_47" data-name="&lt;Group&gt;"><path id="_Compound_Path_46" data-name="&lt;Compound Path&gt;" class="cls-5" d="M97.51,49.69H94.67l-.19-.82A2.18,2.18,0,0,1,96,47.36a2.25,2.25,0,0,1,1.58,1.46l0,.87Zm-1.56-2a2,2,0,0,0-1.16,1.23l0,.61,2.35-.13,0-.53h0A2,2,0,0,0,96,47.67Z"/></g><path id="_Path_49" data-name="&lt;Path&gt;" class="cls-6" d="M93.34,51.55l-.09-.87A3.85,3.85,0,0,1,96,48.85c2.24.56,2.75,1.83,2.75,1.83l-.07.87Z"/><g id="_Group_48" data-name="&lt;Group&gt;"><path id="_Compound_Path_47" data-name="&lt;Compound Path&gt;" class="cls-5" d="M98.82,51.71H93.34l-.23-1c0-.12.58-1.43,2.85-2,2.36.56,2.91,1.87,3,1.92l-.09,1.1ZM96,49a3.5,3.5,0,0,0-2.55,1.72l.08.81,5-.15.06-.74h0A3.75,3.75,0,0,0,96,49Z"/></g><path id="_Path_50" data-name="&lt;Path&gt;" class="cls-6" d="M93.34,52.93,93.25,52A3.8,3.8,0,0,1,96,50.2c2.24.54,2.75,1.81,2.75,1.81l-.07.92Z"/><g id="_Group_49" data-name="&lt;Group&gt;"><path id="_Compound_Path_48" data-name="&lt;Compound Path&gt;" class="cls-5" d="M98.82,53.09H93.34L93.11,52c0-.13.58-1.43,2.85-2,2.36.56,2.91,1.86,3,1.91l-.09,1.13ZM96,50.35a3.66,3.66,0,0,0-2.55,1.71l.08.85,5-.16.06-.74h0A3.84,3.84,0,0,0,96,50.35Z"/></g><path id="_Path_51" data-name="&lt;Path&gt;" class="cls-6" d="M93.41,57l-1.52-2.2c.51-.59,1.45.38,1.45.38A5.53,5.53,0,0,1,96,51.55a5.59,5.59,0,0,1,2.68,3.6s.93-1,1.45-.38L98.59,57Z"/><g id="_Group_50" data-name="&lt;Group&gt;"><path id="_Compound_Path_49" data-name="&lt;Compound Path&gt;" class="cls-5" d="M98.69,57.15H93.41l-1.64-2.28c.39-1,1.11-.28,1.47,0a5.62,5.62,0,0,1,2.7-3.5,5.56,5.56,0,0,1,2.82,3.5c.35-.31,1.11-.66,1.48-.26l-1.55,2.51Zm-6.41-2.4a.38.38,0,0,0-.27.12l1.53,2,5-.08L100,54.72a.42.42,0,0,1-.25,0,1.79,1.79,0,0,0-.93.53l-.23.23,0-.3a5.43,5.43,0,0,0-2.58-3.5,5.52,5.52,0,0,0-2.45,3.5l-.06.3-.2-.23c-.16-.13-.6-.53-1-.53Z"/></g><path id="_Path_52" data-name="&lt;Path&gt;" class="cls-6" d="M93.41,59.68l-1.52-2.2c.51-.59,1.45.43,1.45.43A5.46,5.46,0,0,1,96,54.29a5.52,5.52,0,0,1,2.68,3.62s.93-1,1.45-.43l-1.54,2.2Z"/><g id="_Group_51" data-name="&lt;Group&gt;"><path id="_Compound_Path_50" data-name="&lt;Compound Path&gt;" class="cls-5" d="M98.69,59.85H93.41l-1.64-2.27c.39-1,1.11-.3,1.47,0a5.71,5.71,0,0,1,2.7-3.47,5.59,5.59,0,0,1,2.82,3.47c.35-.3,1.12-.64,1.48-.2l-1.55,2.47Zm-6.41-2.4a.35.35,0,0,0-.27.13l1.53,2,5,0L100,57.4c-.08.1-.16.05-.26.05-.34,0-.78.41-.92.54l-.23.23,0-.31a5.52,5.52,0,0,0-2.58-3.5,5.61,5.61,0,0,0-2.45,3.5l-.06.31-.2-.23c-.16-.13-.6-.54-1-.54Z"/></g><path id="_Path_53" data-name="&lt;Path&gt;" class="cls-6" d="M93.34,63.76l-.09-2.24S93.78,58.3,96,57c2.24,1.33,2.75,4.55,2.75,4.55l-.07,2.24Z"/><g id="_Group_52" data-name="&lt;Group&gt;"><path id="_Compound_Path_51" data-name="&lt;Compound Path&gt;" class="cls-5" d="M98.84,63.89h-5.5l-.25-2.37c0-.18.57-3.33,2.84-4.68,2.42,1.35,3,4.5,3,4.65l-.07,2.4Zm-2.91-6.77c-2,1.28-2.5,4.37-2.51,4.4l.08,2.24,5-.15.06-2.12s-.53-3.09-2.65-4.37Z"/></g><path id="_Path_54" data-name="&lt;Path&gt;" class="cls-6" d="M93.41,63.76,91.89,62.1c.51-.43,1.45.28,1.45.28A4.31,4.31,0,0,1,96,59.68a4.37,4.37,0,0,1,2.68,2.7s.93-.71,1.45-.28l-1.54,1.66Z"/><g id="_Group_53" data-name="&lt;Group&gt;"><path id="_Compound_Path_52" data-name="&lt;Compound Path&gt;" class="cls-5" d="M98.68,63.89H93.41l-1.63-1.68c.13-.34.31-.41.5-.41a1.81,1.81,0,0,1,1,.35A4.49,4.49,0,0,1,96,59.55a4.51,4.51,0,0,1,2.81,2.6c.34-.23,1.07-.51,1.47-.18l-1.55,1.92Zm-6.4-1.76a.82.82,0,0,0-.29.08l1.54,1.45,5-.08,1.35-1.45a.38.38,0,0,1-.15,0,1.85,1.85,0,0,0-1,.41l-.19.12,0-.23A4.3,4.3,0,0,0,96,59.85a4.22,4.22,0,0,0-2.46,2.58l-.06.23-.2-.12a2,2,0,0,0-1-.41Z"/></g><path id="_Path_55" data-name="&lt;Path&gt;" class="cls-6" d="M28.66,53.85l-2-1.56c.65-.41,1.87.28,1.87.28S29.23,50.76,32,50c2.81.74,3.47,2.55,3.47,2.55s1.22-.69,1.88-.28l-2,1.56Z"/><g id="_Group_54" data-name="&lt;Group&gt;"><path id="_Compound_Path_53" data-name="&lt;Compound Path&gt;" class="cls-5" d="M35.49,54H28.66L26.58,52.4A.62.62,0,0,1,27.2,52a3.16,3.16,0,0,1,1.43.43c-.11-.15.66-1.84,3.36-2.58,2.67.72,3.5,2.25,3.64,2.61a1.91,1.91,0,0,1,1.84-.28l-2,1.84ZM27.2,52.32a.72.72,0,0,0-.43.08l2,1.32,6.62,0,1.73-1.38h-.22a3.29,3.29,0,0,0-1.28.38A6.36,6.36,0,0,0,32,50.15a4.73,4.73,0,0,0-3.27,2.48c-.27.07-.95-.31-1.52-.31Z"/></g><path id="_Path_56" data-name="&lt;Path&gt;" class="cls-6" d="M27.64,58l-2.56-2.22c.86-.56,2.45.44,2.45.44s.85-2.53,4.51-3.63c3.66,1.1,4.52,3.63,4.52,3.63s1.58-1,2.43-.44L36.44,58Z"/><g id="_Group_55" data-name="&lt;Group&gt;"><path id="_Compound_Path_54" data-name="&lt;Compound Path&gt;" class="cls-5" d="M36.48,58.12H27.64L25,55.87a.78.78,0,0,1,.77-.46,4.21,4.21,0,0,1,1.84.61c-.12-.18.82-2.58,4.4-3.65,3.51,1,4.54,3.27,4.69,3.68a2.52,2.52,0,0,1,2.4-.44l-2.6,2.51ZM25.75,55.74a1,1,0,0,0-.58.16l2.58,2,8.63,0,2.45-2.14c-.13.1-.3,0-.5.07a3.73,3.73,0,0,0-1.69.56A7.9,7.9,0,0,0,32,52.68a6.35,6.35,0,0,0-4.31,3.55c-.23.07-1.17-.49-1.93-.49Z"/></g><path id="_Path_57" data-name="&lt;Path&gt;" class="cls-6" d="M25.1,63.87l0-8s.81,1.58,7.18,1.94c6-.2,7-1.17,7.3-2l-.24,8.17Z"/><g id="_Group_56" data-name="&lt;Group&gt;"><path id="_Compound_Path_55" data-name="&lt;Compound Path&gt;" class="cls-5" d="M39.52,64.07,25.1,64,25,55.82v-.61l.3.53s.92,1.54,7,1.84c5.85-.2,6.88-1.1,7.14-1.91l.31,0-.26,8.35ZM25.29,56.25l0,7.62,14-.11.24-7.38c-.67.74-2.36,1.38-7.13,1.53-4.69-.25-6.43-1.2-7-1.66Z"/></g><path id="_Path_58" data-name="&lt;Path&gt;" class="cls-6" d="M32,42.1c.08,0,3.07,5.31,0,5.39s0-5.23,0-5.39Z"/><g id="_Group_57" data-name="&lt;Group&gt;"><path id="_Compound_Path_56" data-name="&lt;Compound Path&gt;" class="cls-5" d="M31.91,47.67a1.31,1.31,0,0,1-1.22-.59c-.73-1.15.52-3.75,1-4.75a1.45,1.45,0,0,0,.13-.28.58.58,0,0,1,.16.05h.17a.39.39,0,0,0,0,.1A7.68,7.68,0,0,1,33.52,46,1.45,1.45,0,0,1,32,47.67Zm.1-5.24a0,0,0,0,0,0,0c-.39.89-1.66,3.45-1,4.47a1.06,1.06,0,0,0,1,.43v.13l.06-.13a1.17,1.17,0,0,0,1.11-.63c.5-1.13-.65-3.56-1.07-4.3Z"/></g><path id="_Path_59" data-name="&lt;Path&gt;" class="cls-6" d="M29.39,48.85,27.88,48a2.45,2.45,0,0,1,1.44.13s.5-.95,2.67-1.36c2.17.41,2.67,1.36,2.67,1.36A2.47,2.47,0,0,1,36.11,48l-1.52.82Z"/><g id="_Group_58" data-name="&lt;Group&gt;"><path id="_Compound_Path_57" data-name="&lt;Compound Path&gt;" class="cls-5" d="M34.63,49H29.39L27.5,48l.32-.13a3.21,3.21,0,0,1,1.53.16c0-.13.58-1,2.61-1.38A4.37,4.37,0,0,1,34.78,48a2.07,2.07,0,0,1,1.39-.16l.3.13-1.84,1Zm-6.24-.92,1.08.59h5.08l1.05-.59a2.94,2.94,0,0,0-.87.23A4.79,4.79,0,0,0,32,47c-2,.38-2.5,1.25-2.5,1.28-.18.07-.64-.13-1.07-.16Z"/></g><path id="_Path_60" data-name="&lt;Path&gt;" class="cls-6" d="M30.67,49.51l-.05-.66A2.22,2.22,0,0,1,32,47.49a2.18,2.18,0,0,1,1.36,1.36l0,.66Z"/><g id="_Group_59" data-name="&lt;Group&gt;"><path id="_Compound_Path_58" data-name="&lt;Compound Path&gt;" class="cls-5" d="M33.48,49.69H30.67l-.22-.82a2.28,2.28,0,0,1,1.49-1.51,2.27,2.27,0,0,1,1.58,1.46l0,.87Zm-1.54-2a1.88,1.88,0,0,0-1.15,1.23l0,.61,2.36-.13,0-.53h0a2.07,2.07,0,0,0-1.27-1.18Z"/></g><path id="_Path_61" data-name="&lt;Path&gt;" class="cls-6" d="M29.32,51.55l-.08-.87s.52-1.27,2.75-1.83c2.23.56,2.74,1.83,2.74,1.83l-.07.87Z"/><g id="_Group_60" data-name="&lt;Group&gt;"><path id="_Compound_Path_59" data-name="&lt;Compound Path&gt;" class="cls-5" d="M34.8,51.71H29.32l-.23-1c0-.12.59-1.43,2.87-2,2.35.56,2.9,1.87,2.93,1.92l-.09,1.1ZM32,49a3.6,3.6,0,0,0-2.57,1.72l.09.81,5-.15.06-.74h0A3.71,3.71,0,0,0,32,49Z"/></g><path id="_Path_62" data-name="&lt;Path&gt;" class="cls-6" d="M29.32,52.93,29.24,52s.52-1.27,2.75-1.81c2.23.54,2.74,1.81,2.74,1.81l-.07.92Z"/><g id="_Group_61" data-name="&lt;Group&gt;"><path id="_Compound_Path_60" data-name="&lt;Compound Path&gt;" class="cls-5" d="M34.8,53.09H29.32L29.09,52c0-.13.59-1.43,2.87-2,2.35.56,2.9,1.86,2.93,1.91l-.09,1.13ZM32,50.35a3.62,3.62,0,0,0-2.55,1.71l.07.85,5-.16.06-.74h0A3.8,3.8,0,0,0,32,50.35Z"/></g><path id="_Path_63" data-name="&lt;Path&gt;" class="cls-6" d="M29.39,57l-1.51-2.2c.5-.59,1.44.38,1.44.38A5.56,5.56,0,0,1,32,51.55a5.56,5.56,0,0,1,2.67,3.6s.94-1,1.45-.38L34.59,57Z"/><g id="_Group_62" data-name="&lt;Group&gt;"><path id="_Compound_Path_61" data-name="&lt;Compound Path&gt;" class="cls-5" d="M34.68,57.15H29.39l-1.66-2.28c.41-1,1.15-.28,1.5,0a5.6,5.6,0,0,1,2.69-3.5,5.57,5.57,0,0,1,2.84,3.5c.35-.31,1.1-.66,1.47-.26l-1.55,2.51Zm-6.42-2.4a.37.37,0,0,0-.26.12l1.53,2,5-.08L36,54.72c-.06.05-.13,0-.23,0-.35,0-.79.4-.94.53l-.21.23-.06-.3a5.46,5.46,0,0,0-2.59-3.5,5.65,5.65,0,0,0-2.45,3.5l0,.3-.21-.23c-.16-.13-.59-.53-.95-.53Z"/></g><path id="_Path_64" data-name="&lt;Path&gt;" class="cls-6" d="M29.39,59.68l-1.51-2.2c.5-.59,1.44.43,1.44.43A5.49,5.49,0,0,1,32,54.29a5.49,5.49,0,0,1,2.67,3.62s.94-1,1.45-.43l-1.52,2.2Z"/><g id="_Group_63" data-name="&lt;Group&gt;"><path id="_Compound_Path_62" data-name="&lt;Compound Path&gt;" class="cls-5" d="M34.68,59.85H29.39l-1.66-2.27c.43-1,1.15-.3,1.5,0a5.68,5.68,0,0,1,2.69-3.47,5.61,5.61,0,0,1,2.84,3.47c.35-.3,1.1-.64,1.47-.2l-1.55,2.47Zm-6.42-2.4a.35.35,0,0,0-.26.13l1.53,2,5,0L36,57.4c-.06.1-.14.05-.23.05-.35,0-.79.41-.94.54l-.21.23-.06-.31a5.55,5.55,0,0,0-2.59-3.5,5.75,5.75,0,0,0-2.45,3.5l0,.31L29.21,58c-.16-.13-.59-.54-.95-.54Z"/></g><path id="_Path_65" data-name="&lt;Path&gt;" class="cls-6" d="M29.32,63.76l-.08-2.24S29.76,58.3,32,57c2.23,1.33,2.74,4.55,2.74,4.55l-.07,2.24Z"/><g id="_Group_64" data-name="&lt;Group&gt;"><path id="_Compound_Path_63" data-name="&lt;Compound Path&gt;" class="cls-5" d="M34.82,63.89h-5.5l-.25-2.37c0-.18.58-3.33,2.84-4.68,2.43,1.35,3,4.5,3,4.65l-.08,2.4Zm-2.91-6.77c-2,1.28-2.5,4.37-2.5,4.4l.07,2.24,5-.15.07-2.12s-.52-3.09-2.66-4.37Z"/></g><path id="_Path_66" data-name="&lt;Path&gt;" class="cls-6" d="M29.39,63.76,27.88,62.1c.5-.43,1.44.28,1.44.28A4.34,4.34,0,0,1,32,59.68a4.34,4.34,0,0,1,2.67,2.7s.94-.71,1.45-.28l-1.52,1.66Z"/><g id="_Group_65" data-name="&lt;Group&gt;"><path id="_Compound_Path_64" data-name="&lt;Compound Path&gt;" class="cls-5" d="M34.66,63.89H29.39l-1.63-1.68c.15-.34.31-.41.5-.41a1.84,1.84,0,0,1,1,.35,4.49,4.49,0,0,1,2.71-2.6,4.48,4.48,0,0,1,2.81,2.6c.33-.23,1.07-.51,1.46-.18l-1.55,1.92Zm-6.4-1.76a.58.58,0,0,0-.27.08l1.52,1.45,5-.08,1.35-1.45s-.1,0-.15,0a2.07,2.07,0,0,0-1,.41l-.19.12-.06-.23a4.27,4.27,0,0,0-2.57-2.58,4.29,4.29,0,0,0-2.47,2.58l-.06.23-.19-.12a2,2,0,0,0-1-.41Z"/></g><path id="_Path_67" data-name="&lt;Path&gt;" class="cls-6" d="M54.7,60.14H73.3A1.66,1.66,0,0,1,75,61.8a1.68,1.68,0,0,1-1.67,1.66H54.7A1.68,1.68,0,0,1,53,61.8a1.66,1.66,0,0,1,1.66-1.66Z"/><g id="_Group_66" data-name="&lt;Group&gt;"><path id="_Compound_Path_65" data-name="&lt;Compound Path&gt;" class="cls-5" d="M73.3,63.61H54.7a1.84,1.84,0,0,1-1.84-1.81A1.85,1.85,0,0,1,54.7,60H73.3a1.85,1.85,0,0,1,1.84,1.84,1.84,1.84,0,0,1-1.84,1.81ZM54.7,60.29a1.5,1.5,0,1,0,0,3H73.3a1.5,1.5,0,1,0,0-3Z"/></g><path id="_Path_68" data-name="&lt;Path&gt;" class="cls-6" d="M75.29,62.1l.14-11S75,53.8,73.74,53.8H54.26c-1.26,0-1.68-2.71-1.68-2.71l.12,11Z"/><g id="_Group_67" data-name="&lt;Group&gt;"><path id="_Compound_Path_66" data-name="&lt;Compound Path&gt;" class="cls-5" d="M75.45,62.23H52.7l-.29-11.14.31,0c.12.71.62,2.58,1.54,2.58H73.74c.92,0,1.42-1.87,1.53-2.58l.33,0-.15,11.14Zm-22.7-9.86.12,9.71,22.27-.16.12-9.55C75,53.16,74.5,54,73.74,54H54.26c-.75,0-1.22-.79-1.51-1.58Z"/></g><path id="_Path_69" data-name="&lt;Path&gt;" class="cls-6" d="M71,57.1l0-3.58s2.43-.66,2.09-1.58-3.27,1.17-3.27,1.17H58.14S55.23,51,54.88,51.94,57,53.52,57,53.52L57,57.1Z"/><g id="_Group_68" data-name="&lt;Group&gt;"><path id="_Compound_Path_67" data-name="&lt;Compound Path&gt;" class="cls-5" d="M71.13,57.28H57l-.21-3.73a3,3,0,0,1-2-1.13.6.6,0,0,1-.05-.54.53.53,0,0,1,.56-.35c.94,0,2.87,1.38,3,1.45l11.6,0a7.08,7.08,0,0,1,2.86-1.43.51.51,0,0,1,.56.35.57.57,0,0,1-.05.54c-.38.77-2.08,1.23-2.15,1.25l.08,3.43v.18ZM55.29,51.86c-.17,0-.23,0-.26.13a.37.37,0,0,0,0,.3c.26.51,1.5,1,2,1.08l.15,3.73,13.65-.16,0-3.42c.57-.28,1.81-.72,2.07-1.23a.35.35,0,0,0,0-.3c0-.08-.08-.13-.26-.13A7.75,7.75,0,0,0,70,53.24l-11.81,0a8.22,8.22,0,0,0-2.85-1.43Z"/></g><path id="_Path_70" data-name="&lt;Path&gt;" class="cls-6" d="M72.38,60.21l0-3.8S75.33,56,74.93,55,71,56.2,71,56.2H57S53.47,54.06,53.07,55s2.5,1.38,2.5,1.38l.06,3.8Z"/><g id="_Group_69" data-name="&lt;Group&gt;"><path id="_Compound_Path_68" data-name="&lt;Compound Path&gt;" class="cls-5" d="M72.53,60.37H55.63l-.21-4c-.09.1-2.07-.18-2.47-.95a.57.57,0,0,1,0-.51.62.62,0,0,1,.64-.33c1.1,0,3.41,1.38,3.51,1.43H71a9.51,9.51,0,0,1,3.43-1.43c.41,0,.57.18.63.33a.51.51,0,0,1,0,.51c-.39.74-2.38,1.07-2.61,1.13l.1,3.62v.16ZM53.55,55c-.27,0-.32.1-.34.13.29.74,1.82,1.1,2.38,1.17l.2,4L72.21,60l.05-3.62c.71-.23,2.24-.59,2.51-1.1,0-1.28-3.64,1-3.67,1L57,56.35c-.1,0-2.41-1.4-3.43-1.4Z"/></g><path id="_Path_71" data-name="&lt;Path&gt;" class="cls-6" d="M66,40.82V39.34c-1.71,0-1.29-1.63-1.29-2.27a1.57,1.57,0,0,0-.76-2.5c-1.37.71-1.27,1.89-.77,2.45,0,.69.58,2.32-1.31,2.32l0,1.48Z"/><g id="_Group_70" data-name="&lt;Group&gt;"><path id="_Compound_Path_69" data-name="&lt;Compound Path&gt;" class="cls-5" d="M66.2,41H61.94l-.18-1.66c.64-.18,1-.25,1.17-.51a1.86,1.86,0,0,0,.19-1.38c0-.18,0-.3,0-.43a1.45,1.45,0,0,1-.32-1.23,2,2,0,0,1,1.18-1.35,1.85,1.85,0,0,1,1.31,1.25,1.77,1.77,0,0,1-.35,1.48,1.46,1.46,0,0,1,0,.26,1.87,1.87,0,0,0,.25,1.43,1,1,0,0,0,.89.3l.15,1.66V41Zm-2.27-6.28a2,2,0,0,0-.86,1.12,1.27,1.27,0,0,0,.29,1,3,3,0,0,1,.07.51,2.17,2.17,0,0,1-.26,1.66,1.53,1.53,0,0,1-1.25.41l.18,1.35,3.78-.12V39.34a.92.92,0,0,1-1-.23,2.41,2.41,0,0,1-.33-1.71l0-.33a1.46,1.46,0,0,0-.68-2.35Z"/></g><path id="_Path_72" data-name="&lt;Path&gt;" class="cls-6" d="M68.94,50.68l0-2.88s1.71-.56,1.48-1.33-2.31.94-2.31.94H59.86s-2.09-1.71-2.32-.94S59,47.8,59,47.8l0,2.88Z"/><g id="_Group_71" data-name="&lt;Group&gt;"><path id="_Compound_Path_70" data-name="&lt;Compound Path&gt;" class="cls-5" d="M69.1,50.84h-10l-.2-3c-.06.1-1.75-.49-1.47-1.38a.42.42,0,0,1,.44-.33c.66,0,2,1.07,2.12,1.22l8.19-.05a4.52,4.52,0,0,1,2-1.17.41.41,0,0,1,.43.33c.28.89-1.39,1.48-1.57,1.56l.07,2.73v.13ZM57.83,46.42c-.29.59.84,1.1,1.25,1.25l.14,3,9.56-.15,0-2.73c.51-.28,1.64-.79,1.49-1.28-.61-.13-1.68.72-2,1l-8.39.05a6.27,6.27,0,0,0-2-1.17Z"/></g><path id="_Path_73" data-name="&lt;Path&gt;" class="cls-6" d="M69.92,53.24l0-3.12S72,49.74,71.74,49,69,50,69,50H59s-2.49-1.76-2.77-1S58,50.12,58,50.12l0,3.12Z"/><g id="_Group_72" data-name="&lt;Group&gt;"><path id="_Compound_Path_71" data-name="&lt;Compound Path&gt;" class="cls-5" d="M70.09,53.39h-12l-.2-3.27a2,2,0,0,1-1.72-.71.47.47,0,0,1,0-.46.45.45,0,0,1,.49-.31,7,7,0,0,1,2.52,1.18l9.85,0a6.13,6.13,0,0,1,2.42-1.15.48.48,0,0,1,.51.31.53.53,0,0,1,0,.46c-.34.61-1.71.84-1.86.89l.09,2.94v.15ZM56.6,49l-.18.31c.2.33,1.11.59,1.65.69l.17,3.27,11.53-.18,0-2.94c.52-.23,1.56-.48,1.78-.84L71.39,49a6.22,6.22,0,0,0-2.31,1.13l-10,0A7.18,7.18,0,0,0,56.6,49Z"/></g><path id="_Path_74" data-name="&lt;Path&gt;" class="cls-6" d="M67.2,46.09l0-1.89s1.11-.46,1-1-1.49.63-1.49.63H61.32s-1.34-1.17-1.49-.63,1,1,1,1l0,1.89Z"/><g id="_Group_73" data-name="&lt;Group&gt;"><path id="_Compound_Path_72" data-name="&lt;Compound Path&gt;" class="cls-5" d="M67.37,46.27H60.81l-.19-2.07c0,.1-1.14-.41-1-1.05l0-.08.32-.15c.44,0,1.24.71,1.41.84l5.26,0a2.68,2.68,0,0,1,1.3-.79h.12l.22.23c.19.64-.92,1.15-1,1.2l.09,1.74v.18Zm-7.35-3c-.14.31.5.67.83.79L61,46.09,67,45.93V44.17c.43-.25,1.07-.61,1-.92a5.58,5.58,0,0,0-1.24.74l-5.47,0a4.3,4.3,0,0,0-1.3-.79Z"/></g><path id="_Path_75" data-name="&lt;Path&gt;" class="cls-6" d="M67.84,47.82l0-1.91s1.34-.46,1.15-1-1.79.66-1.79.66H60.78s-1.61-1.2-1.79-.66,1.15,1,1.15,1l0,1.91Z"/><g id="_Group_74" data-name="&lt;Group&gt;"><path id="_Compound_Path_73" data-name="&lt;Compound Path&gt;" class="cls-5" d="M68,48H60.17L60,45.91c0,.13-.9-.21-1.12-.67l0-.07v-.28a.35.35,0,0,1,.37-.23,4.62,4.62,0,0,1,1.68.79l6.34,0a3.64,3.64,0,0,1,1.58-.76h.1l.26.23a.4.4,0,0,1,0,.35c-.22.49-1.11.8-1.22.82L68,47.82V48Zm-8.8-3c.07.41.66.69,1,.79l.14,2,7.35-.13,0-1.76c.44-.26,1-.54,1.15-.79-.37-.16-1.14.3-1.54.61l-6.53,0A4.71,4.71,0,0,0,59.2,45Z"/></g><path id="_Path_76" data-name="&lt;Path&gt;" class="cls-6" d="M66.27,42.74V41s.79-.38.68-.84-1.07.59-1.07.59H62.1s-1-1-1.06-.59.67.84.67.84l0,1.51Z"/><g id="_Group_75" data-name="&lt;Group&gt;"><path id="_Compound_Path_74" data-name="&lt;Compound Path&gt;" class="cls-5" d="M66.43,42.92l-4.7-.23L61.55,41c0,.08-.8-.36-.67-.89l0-.13.25-.11c.34,0,.87.57,1,.72l3.67,0c.06-.1.59-.67.93-.67H67l.15.24c.13.56-.66,1-.75,1l.07,1.58v.18Zm-5.26-2.68c0,.23.41.56.61.61l.11,1.66,4.21.08V41c.32-.23.75-.53.69-.79a4.38,4.38,0,0,0-.79.59l-3.91.05a3.64,3.64,0,0,0-.93-.61Z"/></g><path id="_Path_77" data-name="&lt;Path&gt;" class="cls-6" d="M66.71,43.94l0-1.51s1-.41.81-.84-1.26.54-1.26.54H61.71s-1.14-1-1.27-.54.82.84.82.84l0,1.51Z"/><g id="_Group_76" data-name="&lt;Group&gt;"><path id="_Compound_Path_75" data-name="&lt;Compound Path&gt;" class="cls-5" d="M66.87,44.09H61.29l-.18-1.66c-.09,0-1-.33-.82-.89l0-.1.28-.13c.38,0,1.07.59,1.21.71L66.28,42a2.31,2.31,0,0,1,1.12-.66h.11l.2.23c.16.56-.73.94-.91,1l.07,1.38v.15Zm-6.26-2.45c-.07.18.38.49.72.64l.12,1.66,5.1-.18,0-1.33c.44-.3.88-.61.83-.79a2.77,2.77,0,0,0-1,.62l-4.67,0a3.6,3.6,0,0,0-1.1-.64Z"/></g><path id="_Path_78" data-name="&lt;Path&gt;" class="cls-6" d="M62.56,44l-.85-1c.29-.25.8.18.8.18A2.42,2.42,0,0,1,64,41.72a2.36,2.36,0,0,1,1.48,1.53s.53-.43.81-.18l-.84,1Z"/><g id="_Group_77" data-name="&lt;Group&gt;"><path id="_Compound_Path_76" data-name="&lt;Compound Path&gt;" class="cls-5" d="M65.51,44.17h-3l-1.21-1.28.57-.07a1,1,0,0,1,.5.18,2.71,2.71,0,0,1,1.52-1.46A2.65,2.65,0,0,1,65.56,43a1,1,0,0,1,.5-.18l.33.13-.88,1.22Zm-3.59-1,.75.77,2.7-.08.79-.87c-.27.18-.51.36-.58.41l-.19.15-.06-.23a2.24,2.24,0,0,0-1.39-1.45,2.28,2.28,0,0,0-1.27,1.45l-.07.23-.18-.15a1.22,1.22,0,0,0-.5-.23Z"/></g><path id="_Path_79" data-name="&lt;Path&gt;" class="cls-6" d="M62,45.55l-1.19-.92c.4-.25,1.13.15,1.13.15A2.86,2.86,0,0,1,64,43.25a2.89,2.89,0,0,1,2.08,1.53s.73-.4,1.12-.15L66,45.55Z"/><g id="_Group_78" data-name="&lt;Group&gt;"><path id="_Compound_Path_77" data-name="&lt;Compound Path&gt;" class="cls-5" d="M66.08,45.73H62l-1.28-1c.12-.33.26-.35.41-.35a1.78,1.78,0,0,1,.84.25c-.06-.18.45-1.12,2-1.53a3.13,3.13,0,0,1,2.22,1.56,1,1,0,0,1,1.11-.18l-1.21,1.25Zm-4.91-1,.91.69,3.88,0,.88-.67a1.62,1.62,0,0,0-.68.21A4.08,4.08,0,0,0,64,43.4a2.59,2.59,0,0,0-1.88,1.46c-.23.08-.6-.13-.91-.13Z"/></g><path id="_Path_80" data-name="&lt;Path&gt;" class="cls-6" d="M61.68,48.26,60.34,47c.45-.34,1.28.23,1.28.23A3.56,3.56,0,0,1,64,45.17a3.5,3.5,0,0,1,2.37,2.07s.84-.57,1.3-.23l-1.36,1.25Z"/><g id="_Group_79" data-name="&lt;Group&gt;"><path id="_Compound_Path_78" data-name="&lt;Compound Path&gt;" class="cls-5" d="M66.37,48.44H61.68l-1.44-1.33c.13-.33.28-.38.45-.38a2.82,2.82,0,0,1,1,.33c-.09-.18.47-1.46,2.26-2a3.8,3.8,0,0,1,2.54,2,1.21,1.21,0,0,1,1.28-.18l-1.39,1.56Zm-5.68-1.38a.39.39,0,0,0-.25.07l1.36,1,4.44-.06,1.13-1a2.22,2.22,0,0,0-.91.33,5.12,5.12,0,0,0-2.52-2.07,3.48,3.48,0,0,0-2.16,2c-.25.1-.72-.23-1.09-.23Z"/></g><path id="_Path_81" data-name="&lt;Path&gt;" class="cls-6" d="M61.11,51.6,59.43,50c.56-.41,1.59.31,1.59.31a4.46,4.46,0,0,1,3-2.61,4.49,4.49,0,0,1,3,2.61s1-.72,1.59-.31L66.88,51.6Z"/><g id="_Group_80" data-name="&lt;Group&gt;"><path id="_Compound_Path_79" data-name="&lt;Compound Path&gt;" class="cls-5" d="M67,51.76H61.11l-1.8-1.64c.17-.36.34-.41.55-.41a2.56,2.56,0,0,1,1.23.44c-.1-.18.57-1.84,2.85-2.56a4.62,4.62,0,0,1,3.15,2.58,1.44,1.44,0,0,1,1.58-.28L67,51.76Zm-7.1-1.71a.44.44,0,0,0-.33.1l1.69,1.33,5.6,0L68.3,50a.27.27,0,0,1-.16,0,2.23,2.23,0,0,0-1.09.4,5.83,5.83,0,0,0-3.11-2.55,4.29,4.29,0,0,0-2.75,2.45c-.25.08-.84-.3-1.33-.3Z"/></g><polygon id="_Path_82" data-name="&lt;Path&gt;" class="cls-6" points="60.7 54.31 63.9 58.32 67.3 54.31 60.7 54.31"/><g id="_Group_81" data-name="&lt;Group&gt;"><path id="_Compound_Path_80" data-name="&lt;Compound Path&gt;" class="cls-5" d="M63.9,58.58l-3.55-4.4h7.3l-3.75,4.4ZM61,54.52l2.86,3.55L67,54.52Z"/></g><path id="_Path_83" data-name="&lt;Path&gt;" class="cls-6" d="M60.54,54.8l-2-1.79c.67-.46,1.93.33,1.93.33A5.09,5.09,0,0,1,64,50.48a5.12,5.12,0,0,1,3.56,2.86s1.26-.79,1.93-.33l-2,1.79Z"/><g id="_Group_82" data-name="&lt;Group&gt;"><path id="_Compound_Path_81" data-name="&lt;Compound Path&gt;" class="cls-5" d="M67.52,55h-7l-2.13-1.81A.65.65,0,0,1,59,52.7a3.22,3.22,0,0,1,1.47.51c-.12-.23.66-2.09,3.45-2.88a5.35,5.35,0,0,1,3.72,2.88,1.84,1.84,0,0,1,1.9-.33L67.52,55ZM59,53a.63.63,0,0,0-.44.13l2,1.51,6.77-.05L69.22,53A.9.9,0,0,1,69,53a3,3,0,0,0-1.31.46A6.48,6.48,0,0,0,64,50.63a5,5,0,0,0-3.36,2.76c-.27.1-1-.36-1.56-.36Z"/></g><polygon id="_Path_84" data-name="&lt;Path&gt;" class="cls-6" points="60.42 58.73 63.9 63.76 67.58 58.73 60.42 58.73"/><g id="_Group_83" data-name="&lt;Group&gt;"><path id="_Compound_Path_82" data-name="&lt;Compound Path&gt;" class="cls-5" d="M63.9,64l-3.79-5.44H67.9L63.9,64Zm-3.18-5.11,3.18,4.57,3.36-4.57Z"/></g><path id="_Path_85" data-name="&lt;Path&gt;" class="cls-6" d="M60.25,59.29l-2.2-2.22c.75-.56,2.09.43,2.09.43A6,6,0,0,1,64,53.88a6,6,0,0,1,3.86,3.62s1.35-1,2.09-.43l-2.19,2.22Z"/><g id="_Group_84" data-name="&lt;Group&gt;"><path id="_Compound_Path_83" data-name="&lt;Compound Path&gt;" class="cls-5" d="M67.81,59.45H60.25L57.94,57.2a.68.68,0,0,1,.68-.49,2.74,2.74,0,0,1,1.43.54,6.21,6.21,0,0,1,3.89-3.55,6.27,6.27,0,0,1,4,3.55c.43-.28,1.55-.72,2.1-.31l-2.23,2.51ZM58.62,57a.63.63,0,0,0-.46.18l2.21,2,7.31,0L69.77,57c-.09.11-.23,0-.39,0a3.05,3.05,0,0,0-1.43.57l-.18.15-.06-.2A5.9,5.9,0,0,0,63.94,54a5.91,5.91,0,0,0-3.65,3.55l0,.2-.19-.15A3.16,3.16,0,0,0,58.62,57Z"/></g><path id="_Path_86" data-name="&lt;Path&gt;" class="cls-6" d="M60.25,63.76l-2.2-2.22c.75-.59,2.09.41,2.09.41A6.08,6.08,0,0,1,64,58.32,6.08,6.08,0,0,1,67.86,62s1.35-1,2.09-.41l-2.19,2.22Z"/><g id="_Group_85" data-name="&lt;Group&gt;"><path id="_Compound_Path_84" data-name="&lt;Compound Path&gt;" class="cls-5" d="M67.81,63.89H60.25l-2.31-2.25a.66.66,0,0,1,.68-.43,3.09,3.09,0,0,1,1.43.48,6.32,6.32,0,0,1,3.89-3.52,6.38,6.38,0,0,1,4,3.52c.42-.25,1.55-.74,2.1-.28l-2.23,2.48Zm-9.19-2.37a.71.71,0,0,0-.46.15l2.21,2,7.31-.08,2.09-2.09a.92.92,0,0,1-.39,0A2.83,2.83,0,0,0,68,62.1l-.18.11L67.71,62a5.9,5.9,0,0,0-3.77-3.52A5.87,5.87,0,0,0,60.29,62l0,.21-.19-.11a2.92,2.92,0,0,0-1.43-.58Z"/></g><rect id="_Path_87" data-name="&lt;Path&gt;" class="cls-6" x="41.62" y="69.92" width="1.61" height="6.97"/><g id="_Group_86" data-name="&lt;Group&gt;"><path id="_Compound_Path_85" data-name="&lt;Compound Path&gt;" class="cls-5" d="M43.39,77.05H41.62l-.16-7.13,1.77-.15.16,7.28Zm-.32-7.13-1.45.18.17,6.79,1.28-.15V69.92Z"/></g><rect id="_Path_88" data-name="&lt;Path&gt;" class="cls-6" x="47.1" y="69.92" width="1.62" height="6.97"/><g id="_Group_87" data-name="&lt;Group&gt;"><path id="_Compound_Path_86" data-name="&lt;Compound Path&gt;" class="cls-5" d="M48.89,77.05H47.1l-.16-7.13,1.78-.15.17,7.28Zm-.32-7.13-1.47.18.17,6.79,1.3-.18V69.92Z"/></g><rect id="_Path_89" data-name="&lt;Path&gt;" class="cls-6" x="44.53" y="69.92" width="1.61" height="6.97"/><g id="_Group_88" data-name="&lt;Group&gt;"><path id="_Compound_Path_87" data-name="&lt;Compound Path&gt;" class="cls-5" d="M46.3,77.05H44.53l-.16-7.13,1.77-.15.16,7.28ZM46,69.92l-1.44.18.17,6.79L46,76.71V69.92Z"/></g><rect id="_Path_90" data-name="&lt;Path&gt;" class="cls-6" x="73.83" y="69.92" width="1.6" height="6.97"/><g id="_Group_89" data-name="&lt;Group&gt;"><path id="_Compound_Path_88" data-name="&lt;Compound Path&gt;" class="cls-5" d="M75.6,77.05H73.83l-.16-7.13,1.77-.15.16,7.28Zm-.32-7.13-1.45.18L74,76.89l1.29-.15V69.92Z"/></g><rect id="_Path_91" data-name="&lt;Path&gt;" class="cls-6" x="84.79" y="69.92" width="1.62" height="6.97"/><g id="_Group_90" data-name="&lt;Group&gt;"><path id="_Compound_Path_89" data-name="&lt;Compound Path&gt;" class="cls-5" d="M86.57,77.05H84.79l-.16-7.13,1.78-.15.16,7.28Zm-.32-7.13-1.46.18L85,76.89l1.3-.18V69.92Z"/></g><rect id="_Path_92" data-name="&lt;Path&gt;" class="cls-6" x="79.31" y="69.92" width="1.63" height="6.97"/><g id="_Group_91" data-name="&lt;Group&gt;"><path id="_Compound_Path_90" data-name="&lt;Compound Path&gt;" class="cls-5" d="M81.08,77.05H79.31l-.16-7.13,1.79-.15.14,7.28Zm-.32-7.13-1.45.18.16,6.79,1.29-.18V69.92Z"/></g><rect id="_Path_93" data-name="&lt;Path&gt;" class="cls-6" x="76.74" y="69.92" width="1.6" height="6.97"/><g id="_Group_92" data-name="&lt;Group&gt;"><path id="_Compound_Path_91" data-name="&lt;Compound Path&gt;" class="cls-5" d="M78.5,77.05H76.74l-.17-7.13,1.77-.15.16,7.28Zm-.32-7.13-1.44.18.16,6.79,1.28-.18V69.92Z"/></g><rect id="_Path_94" data-name="&lt;Path&gt;" class="cls-6" x="81.89" y="69.92" width="1.62" height="6.97"/><g id="_Group_93" data-name="&lt;Group&gt;"><path id="_Compound_Path_92" data-name="&lt;Compound Path&gt;" class="cls-5" d="M83.67,77.05H81.89l-.15-7.13,1.77-.15.16,7.28Zm-.33-7.13-1.45.18.16,6.79,1.29-.18V69.92Z"/></g><rect id="_Path_95" data-name="&lt;Path&gt;" class="cls-6" x="52.59" y="69.92" width="1.62" height="6.97"/><g id="_Group_94" data-name="&lt;Group&gt;"><path id="_Compound_Path_93" data-name="&lt;Compound Path&gt;" class="cls-5" d="M54.37,77.05H52.59l-.15-7.13,1.76-.15.17,7.28ZM54,69.92l-1.45.18.16,6.79L54,76.74V69.92Z"/></g><rect id="_Path_96" data-name="&lt;Path&gt;" class="cls-6" x="49.68" y="69.92" width="1.62" height="6.97"/><g id="_Group_95" data-name="&lt;Group&gt;"><path id="_Compound_Path_94" data-name="&lt;Compound Path&gt;" class="cls-5" d="M51.46,77.05H49.68l-.16-7.13,1.78-.15.16,7.28Zm-.32-7.13-1.46.18.16,6.79,1.3-.18V69.92Z"/></g><rect id="_Path_97" data-name="&lt;Path&gt;" class="cls-6" x="62.31" y="38.12" width="3.34" height="1.28"/><g id="_Group_96" data-name="&lt;Group&gt;"><path id="_Compound_Path_95" data-name="&lt;Compound Path&gt;" class="cls-5" d="M65.83,39.52H62.31l-.16-1.4,3.5-.18.18,1.58Zm-.34-1.4-3.18.15.16,1.12,3-.15V38.12Z"/></g><rect id="_Path_98" data-name="&lt;Path&gt;" class="cls-6" x="62.75" y="36.87" width="2.47" height="1.23"/><g id="_Group_97" data-name="&lt;Group&gt;"><path id="_Compound_Path_96" data-name="&lt;Compound Path&gt;" class="cls-5" d="M65.39,38.24H62.75l-.16-1.37,2.64-.18.16,1.55Zm-.33-1.37L62.75,37l.17,1.07,2.14-.15V36.87Z"/></g></g></g></g></g></g></g></g></svg>