<svg id="Layer_1" data-name="Layer 1" xmlns="http://www.w3.org/2000/svg" xmlns:xlink="http://www.w3.org/1999/xlink" viewBox="0 0 128 128"><defs><style>.cls-1{fill:none;}.cls-2{clip-path:url(#clip-path);}.cls-3{fill:#024fa2;}.cls-4{fill:#fff;}.cls-5{fill:#ed1c27;}</style><clipPath id="clip-path"><circle class="cls-1" cx="64" cy="64" r="64"/></clipPath></defs><title>Flag_circle_Korea North</title><g class="cls-2"><rect class="cls-3" x="-27" width="220" height="128"/><rect class="cls-4" x="-27" y="21.33" width="220" height="85.33"/><rect class="cls-5" x="-27" y="24.89" width="220" height="78.22"/><circle class="cls-4" cx="40.33" cy="64" r="28.44"/><g id="cone"><polygon id="triangle" class="cls-5" points="40.33 36.44 31.82 62.65 44.92 66.91 40.33 36.44"/><g id="use12"><polygon id="triangle-2" data-name="triangle" class="cls-5" points="40.33 36.44 48.85 62.65 35.74 66.91 40.33 36.44"/></g></g><g id="cone-2" data-name="cone"><polygon id="triangle-3" data-name="triangle" class="cls-5" points="66.54 55.48 38.98 55.48 38.98 69.26 66.54 55.48"/><g id="use14"><polygon id="triangle-4" data-name="triangle" class="cls-5" points="66.54 55.48 44.25 71.68 36.15 60.53 66.54 55.48"/></g></g><g id="cone-3" data-name="cone"><polygon id="triangle-5" data-name="triangle" class="cls-5" points="14.13 55.48 36.42 71.68 44.52 60.53 14.13 55.48"/><g id="use16"><polygon id="triangle-6" data-name="triangle" class="cls-5" points="14.13 55.48 41.68 55.48 41.68 69.26 14.13 55.48"/></g></g><g id="cone-4" data-name="cone"><polygon id="triangle-7" data-name="triangle" class="cls-5" points="56.53 86.29 48.02 60.09 34.91 64.34 56.53 86.29"/><g id="use18"><polygon id="triangle-8" data-name="triangle" class="cls-5" points="56.53 86.29 34.24 70.1 42.34 58.95 56.53 86.29"/></g></g><g id="star"><g id="cone-5" data-name="cone"><polygon id="triangle-9" data-name="triangle" class="cls-5" points="24.14 86.29 46.43 70.1 38.33 58.95 24.14 86.29"/><g id="use20"><polygon id="triangle-10" data-name="triangle" class="cls-5" points="24.14 86.29 32.65 60.09 45.76 64.34 24.14 86.29"/></g></g></g></g></svg>