<svg id="Layer_1" data-name="Layer 1" xmlns="http://www.w3.org/2000/svg" xmlns:xlink="http://www.w3.org/1999/xlink" viewBox="0 0 128 128"><defs><style>.cls-1{fill:none;}.cls-2{clip-path:url(#clip-path);}.cls-3{clip-path:url(#clip-path-2);}.cls-4{fill:#fff;}.cls-5{clip-path:url(#clip-path-3);}.cls-6{fill:#b50037;}.cls-7{fill:#1e3476;}</style><clipPath id="clip-path"><circle class="cls-1" cx="64" cy="64" r="64"/></clipPath><clipPath id="clip-path-2"><rect id="_Clipping_Path_" data-name="&lt;Clipping Path&gt;" class="cls-1" x="-26" y="0.03" width="180" height="127.74"/></clipPath><clipPath id="clip-path-3"><rect id="_Clipping_Path_2" data-name="&lt;Clipping Path&gt;" class="cls-1" x="-26" y="11.5" width="180" height="105"/></clipPath></defs><title>Flag_circle_Korea</title><g class="cls-2"><g id="KOREA_SOUTH" data-name="KOREA SOUTH"><g id="_Group_" data-name="&lt;Group&gt;"><g id="_Clip_Group_" data-name="&lt;Clip Group&gt;"><g class="cls-3"><rect id="_Path_" data-name="&lt;Path&gt;" class="cls-4" x="-26" width="180" height="128"/><polygon id="_Path_2" data-name="&lt;Path&gt;" points="93.12 28.8 99.79 38.82 96.16 41.25 89.48 31.23 93.12 28.8"/><polygon id="_Path_3" data-name="&lt;Path&gt;" points="101 40.64 107.69 50.66 104.04 53.06 97.37 43.07 101 40.64"/><rect id="_Path_4" data-name="&lt;Path&gt;" x="101.86" y="24.17" width="4.38" height="26.26" transform="translate(-3.22 63.96) rotate(-33.68)"/><polygon id="_Path_5" data-name="&lt;Path&gt;" points="104.04 21.51 110.72 31.55 107.08 33.96 100.4 23.94 104.04 21.51"/><polygon id="_Path_6" data-name="&lt;Path&gt;" points="111.93 33.37 118.59 43.38 114.96 45.81 108.29 35.8 111.93 33.37"/><rect id="_Path_7" data-name="&lt;Path&gt;" x="27.23" y="73.93" width="4.38" height="26.24" transform="translate(-43.36 30.95) rotate(-33.7)"/><polygon id="_Path_8" data-name="&lt;Path&gt;" points="18.5 78.56 25.16 88.55 21.53 90.98 14.86 80.99 18.5 78.56"/><rect id="_Path_9" data-name="&lt;Path&gt;" x="25.71" y="90.6" width="4.37" height="12.03" transform="translate(-48.87 31.66) rotate(-33.66)"/><polygon id="_Path_10" data-name="&lt;Path&gt;" points="13.04 82.21 27.59 104.04 23.96 106.47 9.39 84.64 13.04 82.21"/><polygon id="_Path_11" data-name="&lt;Path&gt;" points="20.32 50.66 34.88 28.8 38.52 31.23 23.96 53.06 20.32 50.66"/><rect id="_Path_12" data-name="&lt;Path&gt;" x="10.83" y="35.11" width="26.26" height="4.37" transform="translate(-20.37 36.55) rotate(-56.32)"/><polygon id="_Path_13" data-name="&lt;Path&gt;" points="9.39 43.38 23.96 21.51 27.59 23.94 13.04 45.81 9.39 43.38"/><polygon id="_Path_14" data-name="&lt;Path&gt;" points="89.48 96.75 96.16 86.75 99.79 89.18 93.12 99.17 89.48 96.75"/><polygon id="_Path_15" data-name="&lt;Path&gt;" points="97.37 84.95 104.04 74.92 107.69 77.34 101 87.36 97.37 84.95"/><rect id="_Path_16" data-name="&lt;Path&gt;" x="94.09" y="94.43" width="12.03" height="4.38" transform="translate(-35.81 126.34) rotate(-56.32)"/><polygon id="_Path_17" data-name="&lt;Path&gt;" points="102.83 88.55 109.51 78.56 113.15 80.99 106.47 90.98 102.83 88.55"/><polygon id="_Path_18" data-name="&lt;Path&gt;" points="100.4 104.04 107.08 94.04 110.72 96.45 104.04 106.47 100.4 104.04"/><polygon id="_Path_19" data-name="&lt;Path&gt;" points="108.29 92.22 114.96 82.21 118.59 84.64 111.93 94.63 108.29 92.22"/><g id="_Clip_Group_2" data-name="&lt;Clip Group&gt;"><g class="cls-5"><path id="_Path_20" data-name="&lt;Path&gt;" class="cls-6" d="M42.16,49.44a2.57,2.57,0,0,0-.28.44,3.37,3.37,0,0,1,.28-.44"/><path id="_Path_21" data-name="&lt;Path&gt;" class="cls-6" d="M78.57,42.15a26.26,26.26,0,0,0-36.41,7.29A13.12,13.12,0,1,0,64,64,13.12,13.12,0,1,1,85.83,78.56a26.25,26.25,0,0,0-7.26-36.41"/><path id="_Path_22" data-name="&lt;Path&gt;" class="cls-7" d="M42.16,49.44A13.12,13.12,0,1,0,64,64,13.12,13.12,0,1,1,85.83,78.56,26.24,26.24,0,1,1,42.16,49.44"/></g></g></g></g></g></g></g></svg>