<svg id="Layer_1" data-name="Layer 1" xmlns="http://www.w3.org/2000/svg" xmlns:xlink="http://www.w3.org/1999/xlink" viewBox="0 0 128 128"><defs><style>.cls-1{fill:none;}.cls-2{clip-path:url(#clip-path);}.cls-3{clip-path:url(#clip-path-2);}.cls-4{fill:#00b1cc;}.cls-5{fill:#fec601;}.cls-6{fill:#4fadc2;}</style><clipPath id="clip-path"><circle class="cls-1" cx="64" cy="64" r="64"/></clipPath><clipPath id="clip-path-2"><rect id="_Clipping_Path_" data-name="&lt;Clipping Path&gt;" class="cls-1" x="-50.71" width="219.43" height="128"/></clipPath></defs><title>Flag_circle_Kazakhstan</title><g class="cls-2"><g id="KAZAKHSTAN"><g id="_Group_" data-name="&lt;Group&gt;"><g id="_Clip_Group_" data-name="&lt;Clip Group&gt;"><g class="cls-3"><rect id="_Path_" data-name="&lt;Path&gt;" class="cls-4" x="-50.71" width="219.43" height="128"/><g id="_Clip_Group_2" data-name="&lt;Clip Group&gt;"><g class="cls-3"><path id="_Path_2" data-name="&lt;Path&gt;" class="cls-5" d="M63.84,87A30.47,30.47,0,0,1,33.47,59.48s-.67-.26-.78.36c-.19,1.45.43,6,.18,5.64-.4-.59-3.55-9-4.11-8.07C28,58.64,32.27,68.19,32,68.5c-.86,1-5.76-9.35-6.16-8.59-1.49,2.92,6.06,12.31,6,12.7-.16,1.25-5.75-5.06-6.22-4.4-1.06,1.54,6,7.1,6.38,7.54,1.11,1.25-3.86-2.25-4-1-.13,1,2.4,3,3.91,3.83s2,.61,2.44,1.35c.32.56-2.85-.36-2.75.33.16,1.38,3.48,1.1,4,1.71s-2.25.16-2.12.67c.18.89,3,1,3,1.4s-1.76.13-1.64.85,2.84.51,3.51,1-2.45,0,0,1.25a33.47,33.47,0,0,0,9,3.32c3.82.76,5.75-.08,5.9-.34s-1.81.21-4.51-.28a28.61,28.61,0,0,1-7.79-3.09c-.47-.23,1.43-.79,1-1.32s-1.93.07-2.52-.67c-.38-.48.73-.48.69-.79s-2.1-.77-2.48-1.3.94-.41,1-.77-1.31-.71-1.4-1,1.49-.25.75-.68-3-1-3.4-1.79,1.66.1,1.13-.62c-.37-.51-2.38-1.35-2.8-2.5-.28-.79,1.43-.1,1.46-.61,0-.79-1-.28-1.34-2.56-.12-.74,1.32-.22,1.32-.22l.22-.39a16.08,16.08,0,0,1,3.86,3.47c2.18,2.53,2.79,4.91,4.85,6.62,1,.84,1-.31,3.24,1.07A41.25,41.25,0,0,1,52.05,87c.34.28,1.86-.28,6.34.66,2.42.51,2.91,1.77,2.91,1.77a6.66,6.66,0,0,0,2-1.77c.26-.41.51,0,.59-.1.24-.23,0-.53,0-.53Z"/><g id="_Group_2" data-name="&lt;Group&gt;"><path id="_Compound_Path_" data-name="&lt;Compound Path&gt;" class="cls-5" d="M50.24,90.87a17.29,17.29,0,0,1-2.92-.31,34.35,34.35,0,0,1-9.06-3.35c-.75-.38-1-.61-1-.86S37.64,86,38,86c.13,0,.31,0,.35-.1a6.63,6.63,0,0,0-1.66-.31c-1-.13-1.91-.25-2-.69l0,0,.1-.31c.18-.26.64-.33,1-.38a3,3,0,0,0,.55-.16,5,5,0,0,0-.92-.28c-.88-.23-2-.48-2.11-1.12.19-.39.59-.41,1.24-.41.33,0,.89,0,1-.13-.19-.25-.83-.36-1.45-.46-1.16-.2-2.46-.43-2.58-1.35.34-.67,1-.44,1.75-.36.3,0,.58,0,.78,0,0-.38-.23-.43-.67-.61a7.56,7.56,0,0,1-1.48-.67c-1.41-.79-4.13-2.88-4-4a.42.42,0,0,1,.48-.38A8.59,8.59,0,0,1,31,75.39a6.23,6.23,0,0,0,1.12.51,7,7,0,0,1-.93-.69c-3.27-2.83-6.5-5.85-5.69-7,.63-.13,1.61.74,3.15,2.15,1.14,1,2.59,2.35,3,2.35a6.44,6.44,0,0,0-.93-1.53c-2-2.92-6.2-9-5-11.27.51-.12,1.08.85,2.57,3.4,1.18,2,3,5.18,3.56,5.18a18,18,0,0,0-.95-2.86c-1.54-4-2.77-7.45-2.28-8.25.66-.12,1.67,1.92,3.37,5.93.38.84.7,1.61.87,2a12.29,12.29,0,0,1-.2-1.46,29.69,29.69,0,0,1-.11-4,.55.55,0,0,1,.59-.51,1.18,1.18,0,0,1,.36.08A30.26,30.26,0,0,0,63.74,86.83a.54.54,0,0,1,.37.49v.05l-.16.25-.2-.12-.2.07a7.24,7.24,0,0,1-2.25,2,4,4,0,0,0-2.94-1.81,25,25,0,0,0-5-.57h-.82c-.33,0-.51,0-.64-.12l-1.33-1.13a27.68,27.68,0,0,0-4.13-3.22A3.48,3.48,0,0,0,44.57,82h-.45a1.27,1.27,0,0,1-.88-.36A13.42,13.42,0,0,1,40.6,78.2,21.6,21.6,0,0,0,38.36,75a15.85,15.85,0,0,0-3.84-3.45v.36c-.17.07-.6-.08-1-.08a.48.48,0,0,0-.32.08c.15,1.5.6,1.81.91,2.06a.68.68,0,0,1,.39.67c0,.33-.42.33-.57.33h-.5c-.27,0-.35,0-.37,0A4.2,4.2,0,0,0,35,77a3.65,3.65,0,0,1,.88.69l0,.07,0,.29c-.07.12-.23.12-.37.12l-.64,0c.06.64,1.16,1.1,2,1.45a7.24,7.24,0,0,1,1.12.46c.13,0,.28.18.26.34s-.24.22-.54.28a1.06,1.06,0,0,0-.42.15,2.7,2.7,0,0,0,.72.46c.43.23.71.41.69.61s-.34.33-.6.41a1.43,1.43,0,0,0-.46.18,3.48,3.48,0,0,0,1.48.87c.73.25,1,.41,1.07.61s-.23.31-.45.41a.61.61,0,0,0-.32.2c.32.46.89.46,1.42.49s.93,0,1.15.31l.08.28c0,.28-.41.51-.74.71a1.44,1.44,0,0,0-.41.33,29.14,29.14,0,0,0,7.75,3,13.72,13.72,0,0,0,2.78.28l1,0,.43,0c.23,0,.33,0,.4.1-.14.41-1.2.9-3.12.9Zm-18-10.78c-.39,0-.48,0-.51.1.09.79,1.35,1,2.35,1.2a2.7,2.7,0,0,1,1.58.49l0,.07,0,.23c-.12.23-.52.23-1.19.26-.33,0-.93,0-1,.15.09.44,1.15.72,1.91.92s1.09.28,1.11.51-.35.33-.76.39-.72.12-.86.28c0,.43,1,.56,1.72.64a5.25,5.25,0,0,1,1.72.38l.15.28c0,.15-.26.18-.55.25s-.46.08-.51.16,0,.18.87.59a32.83,32.83,0,0,0,9,3.29,13,13,0,0,0,2.87.33A4.79,4.79,0,0,0,53.13,90l-.59.15c-.28,0-.61,0-1,0a16.9,16.9,0,0,1-2.83-.26,28.54,28.54,0,0,1-7.84-3.09c-.13-.38.1-.51.39-.71a1.83,1.83,0,0,0,.64-.54c-.16-.31-.55-.31-1-.31a1.93,1.93,0,0,1-1.56-.48l-.11-.33c.05-.21.28-.28.48-.39s.28-.1.3-.15a6.84,6.84,0,0,0-.91-.41,3.11,3.11,0,0,1-1.56-.82l-.07-.33c.06-.18.33-.25.61-.35s.42-.11.42-.18a2.58,2.58,0,0,0-.56-.36c-.46-.26-.78-.41-.84-.64.11-.33.35-.38.62-.43a1.83,1.83,0,0,0,.35-.11,12,12,0,0,0-1.23-.53c-1-.36-2.07-.79-2.36-1.36l0-.07V78c.14-.23.49-.15.79-.13h.3c0-.25-.36-.46-.74-.74-.76-.51-1.69-1.1-2-1.91a.47.47,0,0,1,0-.39.75.75,0,0,1,.59-.17l.5,0c.14,0,.32,0,.33-.1s-.1-.31-.31-.46a2.72,2.72,0,0,1-1-2.07.45.45,0,0,1,.1-.36c.27-.33,1.37,0,1.39,0l0-.33h0c.27,0,1.93.94,4.09,3.44a23.61,23.61,0,0,1,2.26,3.27,12.15,12.15,0,0,0,2.58,3.37,1,1,0,0,0,.71.28h.45a4,4,0,0,1,2.07.77,28.26,28.26,0,0,1,4.15,3.19l1.34,1.18c.06.07.34.07.46.07l.82,0a24.53,24.53,0,0,1,5,.59c2.47.51,3,1.78,3,1.83s1.17-1,1.77-1.78a.4.4,0,0,1,.35-.26l.26.08,0-.38-.1.12A30.43,30.43,0,0,1,33.35,59.58h-.18c-.19,0-.31.05-.33.28A25.48,25.48,0,0,0,33,63.74c.13,1.51.15,1.74,0,1.82-.36-.21-.66-.92-1.2-2.22-.82-1.89-2.48-5.83-2.94-5.85-.47.74,1.28,5.31,2.3,8,1,2.52,1.09,2.93,1,3l-.25.12c-.67,0-1.93-2.06-3.78-5.26A18.67,18.67,0,0,0,25.9,60c-1,2.12,3.09,8.1,5.08,11,.86,1.28,1,1.51,1,1.66v.13l-.28.15c-.49,0-1.53-.92-3.19-2.4a11.74,11.74,0,0,0-2.75-2.22c-.8,1.18,4,5.34,5.63,6.69.41.36.68.59.74.67s.22.3.18.4c-.33.08-.69-.07-1.38-.46a9.51,9.51,0,0,0-2.56-1c-.2,0-.22.13-.23.16-.11.86,2.21,2.78,3.85,3.7a6.44,6.44,0,0,0,1.43.66,1.61,1.61,0,0,1,1.06.74c-.12.77-.69.41-1.26.34a6.65,6.65,0,0,0-1-.08Z"/></g><path id="_Path_3" data-name="&lt;Path&gt;" class="cls-5" d="M75.4,92.12c-.63-.13-.57.36-.57.36a1.44,1.44,0,0,1-.9,1.43c-.41.07-.21.38-.33.66l-1.68-.08A16.63,16.63,0,0,1,62,96s-.84.64-1.57,1.28-1.28.84-1.42,1.35.39.82,1.08.85a3.35,3.35,0,0,0,1.58-.61.85.85,0,0,0,.75.58A5.79,5.79,0,0,0,64.17,99a3.94,3.94,0,0,0,1.73.33,3.5,3.5,0,0,0,1.35-.56s.19.84.93.87,1.85-.9,1.85-.9a1.56,1.56,0,0,0,1.23.54,3.32,3.32,0,0,0,1.49-.89,2.52,2.52,0,0,0,1.62.12,4.29,4.29,0,0,0,1.56-1,1.56,1.56,0,0,0,1.33.36c.63-.2,1.06-1.1,1.06-1.1a3.93,3.93,0,0,0,2.82.13c.78-.36.59-1.61.59-1.61s4.65.66,4.46-2.37c0-.34-7.51-.23-10.79-.82Z"/><g id="_Group_3" data-name="&lt;Group&gt;"><path id="_Compound_Path_2" data-name="&lt;Compound Path&gt;" class="cls-5" d="M68.22,99.83h0a1.19,1.19,0,0,1-1-.92,1.91,1.91,0,0,1-1.25.59,8,8,0,0,1-1.79-.33,5.17,5.17,0,0,1-1.61.38,1,1,0,0,1-1-.66,2.09,2.09,0,0,1-1.44.69,1.55,1.55,0,0,1-1.15-.41.71.71,0,0,1-.09-.62c.11-.35.38-.56.79-.84l.66-.53c.76-.64,1.6-1.31,1.6-1.31,1,.08,1.9.13,2.77.13a15,15,0,0,0,7.2-1.63l1.73.07c-.07-.36-.06-.56.3-.66a1.35,1.35,0,0,0,.83-1.3.4.4,0,0,1,.08-.36.56.56,0,0,1,.41-.18,57,57,0,0,0,7.53.59c3.32.12,3.54.18,3.56.38a2.08,2.08,0,0,1-.53,1.66,4.3,4.3,0,0,1-3,1h0a6.33,6.33,0,0,1-1-.08,1.28,1.28,0,0,1-.55,1.61,4.88,4.88,0,0,1-2.9-.13,1.6,1.6,0,0,1-1,1.1,1.82,1.82,0,0,1-1.42-.39,2.54,2.54,0,0,1-1.44,1.05,3.38,3.38,0,0,1-1.73-.13,2.51,2.51,0,0,1-1.43.92h0a1.76,1.76,0,0,1-1.3-.61,2.72,2.72,0,0,1-1.74,1Zm-1.06-1.12c.22.13.4.84,1,.84l0,.13v-.1a4.19,4.19,0,0,0,1.75-.9c.18,0,.61.51,1.17.51a3.58,3.58,0,0,0,1.55-.84,6.87,6.87,0,0,0,1.12.15,1.31,1.31,0,0,0,.53-.07,4.31,4.31,0,0,0,1.49-1,3.24,3.24,0,0,0,1.14.38,2.22,2.22,0,0,0,1.22-1.1c.21,0,1,.28,1.88.28a2.48,2.48,0,0,0,1-.2c.7-.31.51-1.48.51-1.51a3.2,3.2,0,0,1,1.16-.08h0a4,4,0,0,0,2.85-.84,1.83,1.83,0,0,0,.45-1.45c-.14,0-1.75-.08-3.31-.16a66.45,66.45,0,0,1-7.38-.53l-.35,0A1.68,1.68,0,0,1,74,94c-.17,0-.18.1-.18.28a1.13,1.13,0,0,1-.08.33l-1.79,0c-2.56,1.45-6,1.94-10,1.53,0,0-.76.61-1.46,1.25a8.42,8.42,0,0,1-.71.54c-.37.28-.59.4-.68.71a.37.37,0,0,0,0,.36,1.32,1.32,0,0,0,.92.33h0a3.23,3.23,0,0,0,1.51-.61c.2.1.3.51.83.56h0a6.59,6.59,0,0,0,1.71-.36,6.72,6.72,0,0,0,1.55.33,3,3,0,0,0,1.49-.53Z"/></g><path id="_Path_4" data-name="&lt;Path&gt;" class="cls-5" d="M65.47,88.87a23.69,23.69,0,0,1,3.75-1c4.5-.95,6.06-.64,6.38-.92,3.56-4,6.18-4.27,8.76-5.29,2.07-1.73,2.75-4.21,4.93-6.74s3.47-2.73,3.47-2.73l.28.56s1.18-.87,1.11-.13c-.09,1.13-1,2.2-1,3,0,.52,1.6-.2,1.46.23-.37,1.2-1.64,1.92-2,2.4-.56.77,1.43-.25,1,.52s-2.4,1.58-3.18,2.06c-.48.29.53.36.42.69s-2.14,1.13-2.12,1.38.55.39.31.64c-.43.49-2.13.54-2.16.84s.36.59,0,1.08c-.6.76-1.06,0-1.32.61-.13.36,1,1,.23,1.2a7.68,7.68,0,0,0-2.69,1.17,21.44,21.44,0,0,1-2.72.75c-.59.12-3.77.53-3.63.79s2.15.23,6.39-.51A37.85,37.85,0,0,0,88.94,88c3.29-1-.84-1.12-.16-1.56s3.51-.23,3.62-.87-1.58-.51-1.54-.89,3.46-.38,3.66-1.3c.11-.51-1.94-.13-1.45-.74s3.22-.77,3.32-2c0-.69-2.24.18-1.94-.41.13-.23,1-.51,2-1.12,1.44-1,3.72-2.73,3.58-3.7-.12-1.23-4.73,2.8-4.32,1.27.13-.56,7.47-6.33,6.28-7.76-.83-1-6.06,5.29-6.24,4,0-.4,8.16-9.65,6.67-12.56-.4-.77-6.58,11.08-7.44,10.06-.23-.28,5.26-11.7,4.38-12.82C98.9,57.05,98,59,97.09,61s-2,4.42-2.18,4.72.24-4.47,0-5.92c-.09-.62-.75-.36-.75-.36C93.22,74.32,79,85.33,67.61,87c-2.94.41-3.87,1.81-7.12,3.65-1.07.59-2.74.87-4.18,1.69a8.39,8.39,0,0,0-3,2.78,1.67,1.67,0,0,0,.39,1.58c.32.11.3-.79.63-1s.33.36.75.33a1.82,1.82,0,0,0,.84-.41s8,0,11.45-.1a3.58,3.58,0,0,0,2.08-.74c-.13-.38-1.06-.18-1.65-.15-2.41-.16-5.59,0-7.85-.13a.37.37,0,0,1-.34-.41,16.92,16.92,0,0,1,1.45-1.69H60a3.56,3.56,0,0,1-1,.41c-.33,0-.47-.18-.33-.28a55.22,55.22,0,0,1,6.85-3.63Z"/><g id="_Group_4" data-name="&lt;Group&gt;"><path id="_Compound_Path_3" data-name="&lt;Compound Path&gt;" class="cls-5" d="M53.82,96.77h-.11c-.24-.08-.39-.51-.44-.67a1.42,1.42,0,0,1,0-1.07,8.38,8.38,0,0,1,3-2.83,14.08,14.08,0,0,1,2.39-1,11.84,11.84,0,0,0,1.83-.72c1-.58,1.81-1.12,2.51-1.61a10,10,0,0,1,4.64-2c12-1.71,25.52-13.13,26.44-27.35a.62.62,0,0,1,1,.33,30.21,30.21,0,0,1,0,3.93c0,.9-.1,1.82-.08,1.95a39,39,0,0,1,1.71-4L97,61c1.09-2.43,1.67-3.6,2.19-3.6h0l.22.17c.56.75-1.07,4.78-3.09,9.63a24,24,0,0,0-1.28,3.22c.61,0,2.77-3.52,4.34-6.08,1.85-3,2.57-4.08,2.9-4.08,1.34,2.37-3.18,8.35-5.39,11.26-.52.69-1,1.33-1.07,1.45a10.54,10.54,0,0,0,2.45-1.81c1.33-1.2,2.7-2.43,3.39-2.43h0l.3.13c.83,1-1.89,3.68-4.75,6.39a13.41,13.41,0,0,0-1.5,1.48c.32.2,1.07-.23,1.78-.64,1.31-.82,2.48-1.33,2.56-.69.09.79-1.11,2.09-3.64,3.86a12,12,0,0,1-1.34.71,1.6,1.6,0,0,0-.58.36,2.19,2.19,0,0,0,.65,0c.54-.05,1-.05,1.2.13l.11.26c-.08.81-1.15,1.15-2.12,1.45a3.13,3.13,0,0,0-1.24.56c0,.16.37.21.57.23.4,0,.73.08.87.26-.09.84-1.37,1.07-2.48,1.23a6,6,0,0,0-1.15.28,3.33,3.33,0,0,0,.53.12c.47.08,1.11.23,1,.77s-1,.54-2,.64a5.33,5.33,0,0,0-1.69.31,3.52,3.52,0,0,0,.54.17c.51.13,1,.29,1,.59s-.18.44-1.38.82a41.88,41.88,0,0,1-5.77,1.48,38.6,38.6,0,0,1-5.55.64c-.76,0-.92-.13-1-.23.1-.33.63-.44,2.61-.77.48-.07.94-.15,1.12-.2s.61-.16.93-.23a11.58,11.58,0,0,0,1.74-.49,7.75,7.75,0,0,1,2.76-1.2c.16-.12,0-.33-.07-.46s-.34-.43-.25-.66a.41.41,0,0,1,.46-.33l.29.12v-.12a.6.6,0,0,0,.55-.33.53.53,0,0,0,.08-.62,1.45,1.45,0,0,1-.08-.36c0-.25.36-.33.93-.46A2.44,2.44,0,0,0,89,83.43c-.17-.2-.32-.33-.35-.53s.25-.36,1-.77a3.94,3.94,0,0,0,1.09-.66c0-.08-.14-.13-.25-.21s-.3-.17-.3-.3v-.08l.19-.2.93-.51a5.83,5.83,0,0,0,2.2-1.49.56.56,0,0,0-.48-.07,2.67,2.67,0,0,1-.35,0l-.31-.15c-.05-.11,0-.23.12-.36s.33-.33.54-.54a4.18,4.18,0,0,0,1.43-1.81,4.53,4.53,0,0,0-.47,0c-.62.13-1,0-1-.23a3.2,3.2,0,0,1,.42-1.43A5,5,0,0,0,94,72.61c-.28-.16-.7.1-.92.25l-.47-.59A10.15,10.15,0,0,0,89.38,75a23.56,23.56,0,0,0-2.26,3.27,13.39,13.39,0,0,1-2.67,3.47c-.49.23-1,.36-1.42.54A15.15,15.15,0,0,0,75.69,87c-.17.15-.46.17-1.11.23a33.44,33.44,0,0,0-5.34.71,22.4,22.4,0,0,0-3.71,1,53.84,53.84,0,0,0-6.85,3.6,2.86,2.86,0,0,0,1.21-.33l1.22,0c-.58.92-1.29,1.71-1.32,1.83l.21.39v-.16c2.27.16,5.44,0,7.86.18l.41,0c.5,0,1.16-.23,1.34.28a3.1,3.1,0,0,1-2.19.87c-3.39.1-11.23.13-11.43.13a1.59,1.59,0,0,1-.86.41h0a.54.54,0,0,1-.47-.26.49.49,0,0,0-.47.41c-.09.26-.16.49-.37.49ZM94.47,59.58a.82.82,0,0,0-.25.05c-.83,14.2-14.46,25.7-26.59,27.43a9.73,9.73,0,0,0-4.52,2,23.93,23.93,0,0,1-2.54,1.61,9.13,9.13,0,0,1-1.86.74,12.82,12.82,0,0,0-2.34,1,8.47,8.47,0,0,0-2.9,2.74,1.07,1.07,0,0,0,0,.84,1,1,0,0,0,.31.54h0a.79.79,0,0,0,.12-.34,1.12,1.12,0,0,1,.4-.66c.34,0,.42.08.5.15s.15.18.27.18a1.6,1.6,0,0,0,.77-.35c.09-.06,8.11-.06,11.54-.18a3.07,3.07,0,0,0,2-.67,3.26,3.26,0,0,1-.48,0,4.3,4.3,0,0,0-.61,0l-.45,0c-2.44-.18-5.59,0-7.88-.18a.48.48,0,0,1-.33-.15.5.5,0,0,1-.12-.39A11.92,11.92,0,0,1,61,92.27l-1,.23h0a3,3,0,0,1-1,.41c-.29,0-.47-.08-.52-.23l0-.1.11-.16a53.33,53.33,0,0,1,6.93-3.65,23.88,23.88,0,0,1,3.75-1A32.28,32.28,0,0,1,74.55,87a2.92,2.92,0,0,0,1-.13A15.38,15.38,0,0,1,83,82c.45-.15.91-.31,1.36-.49a12.5,12.5,0,0,0,2.59-3.42,23.93,23.93,0,0,1,2.28-3.27c2.19-2.52,3.48-2.78,3.55-2.78l.41.61c0-.15.47-.48.79-.48l.27.1a.62.62,0,0,1,.07.33,4.55,4.55,0,0,1-.55,1.69,3,3,0,0,0-.42,1.27,1.13,1.13,0,0,0,.69,0,4.12,4.12,0,0,1,.45,0l.3.13a3.86,3.86,0,0,1-1.48,2.12,4.83,4.83,0,0,0-.51.51c0,.1.16.08.31,0s.32,0,.42,0h.08l.25.13a.38.38,0,0,1,0,.36,5.51,5.51,0,0,1-2.3,1.61c-.37.17-.7.35-.92.48.27.26.55.41.47.66s-.43.44-1.24.82a4.52,4.52,0,0,0-.89.54c0,.08.09.13.19.2l.18.26a2.25,2.25,0,0,1-1.48.79,7.73,7.73,0,0,0-.76.23c.17.46.27.77,0,1.12a.86.86,0,0,1-.76.44l-.29,0c-.09,0-.15,0-.24.18s.14.28.24.44.32.43.24.61-.16.18-.34.2a7.81,7.81,0,0,0-2.65,1.2,11.35,11.35,0,0,1-1.82.51l-1,.23-1.12.21a18.45,18.45,0,0,0-2.34.43c.3,0,1.14.26,6.17-.61a39.86,39.86,0,0,0,5.75-1.43c1.17-.41,1.2-.59,1.2-.59s-.59-.3-.82-.33c-.45-.15-.69-.26-.73-.41v-.08l.14-.15a4.32,4.32,0,0,1,1.8-.33c.69-.08,1.74-.21,1.79-.46s-.31-.36-.85-.46c-.37-.08-.72-.15-.7-.43s.41-.31,1.34-.46,2.21-.36,2.33-.82c-.07-.13-.45-.15-.68-.21-.4,0-.77-.07-.84-.28l0-.07.11-.28a3,3,0,0,1,1.38-.62c.87-.28,1.88-.61,1.93-1.25-.08-.18-.54-.15-1-.1s-.78.13-.91-.1c.09-.39.32-.54.72-.72A12.21,12.21,0,0,0,96.34,79c3.19-2.24,3.59-3.22,3.52-3.6-.55-.13-1.42.38-2.17.84a6.3,6.3,0,0,1-1.88.9l-.26-.1a.65.65,0,0,1,0-.44c0-.15.43-.53,1.57-1.61,1.93-1.78,5.49-5.1,4.71-6-.69,0-2.18,1.25-3.36,2.3-1.34,1.17-2.18,1.94-2.59,1.94h-.12L95.57,73c0-.15.15-.38,1.15-1.66,2.16-2.83,6.64-8.73,5.53-10.85a35.86,35.86,0,0,0-2.63,4c-2.3,3.73-3.86,6.18-4.56,6.18-.33-.26-.24-.51,1-3.55,1.37-3.27,3.65-8.71,3.13-9.4-.42,0-1.35,1.94-2,3.4l-.3.69c-.87,2-1.7,3.78-1.9,4.06-.31-.08-.31-.36-.23-2.1a32.24,32.24,0,0,0,0-3.88c0-.23-.14-.28-.35-.28Z"/></g><path id="_Path_5" data-name="&lt;Path&gt;" class="cls-6" d="M57.53,93.73c0-.16-.39,0-.66,0s-.46.18-.44.35.37.11.64,0,.47-.2.46-.38Z"/><g id="_Group_5" data-name="&lt;Group&gt;"><path id="_Path_6" data-name="&lt;Path&gt;" class="cls-6" d="M56.61,94.31h-.13l-.19-.2c0-.23.18-.43.54-.51a2.91,2.91,0,0,1,.54-.08h.12l.17.21c0,.2-.19.43-.55.51a2,2,0,0,1-.5.07Z"/></g><path id="_Path_7" data-name="&lt;Path&gt;" class="cls-5" d="M67.79,35.58a1.22,1.22,0,0,0,1.59-1,45.72,45.72,0,0,0-.22-5.85A48.05,48.05,0,0,0,66.74,34a1.22,1.22,0,0,0,1.05,1.61Z"/><path id="_Path_8" data-name="&lt;Path&gt;" class="cls-5" d="M71.32,36.65a1.23,1.23,0,0,0,1.78-.74A49.94,49.94,0,0,0,74,30.16a48.06,48.06,0,0,0-3.44,4.73,1.24,1.24,0,0,0,.74,1.76Z"/><path id="_Path_9" data-name="&lt;Path&gt;" class="cls-5" d="M74.58,38.41A1.26,1.26,0,0,0,76.47,38a51.28,51.28,0,0,0,2-5.44,50.53,50.53,0,0,0-4.27,4,1.25,1.25,0,0,0,.38,1.89Z"/><path id="_Path_10" data-name="&lt;Path&gt;" class="cls-5" d="M77.43,40.73a1.2,1.2,0,0,0,1.91,0,45.51,45.51,0,0,0,3-4.93,48.88,48.88,0,0,0-5,3,1.2,1.2,0,0,0,0,1.91Z"/><path id="_Path_11" data-name="&lt;Path&gt;" class="cls-5" d="M79.76,43.59a1.21,1.21,0,0,0,1.88.36,49,49,0,0,0,4-4.26,51.11,51.11,0,0,0-5.45,2,1.25,1.25,0,0,0-.39,1.89Z"/><path id="_Path_12" data-name="&lt;Path&gt;" class="cls-5" d="M81.5,46.84a1.24,1.24,0,0,0,1.77.74A49.69,49.69,0,0,0,88,44.16a53.12,53.12,0,0,0-5.76.92,1.22,1.22,0,0,0-.74,1.76Z"/><path id="_Path_13" data-name="&lt;Path&gt;" class="cls-5" d="M82.57,50.39a1.24,1.24,0,0,0,1.6,1A52.32,52.32,0,0,0,89.47,49a51.22,51.22,0,0,0-5.81-.23,1.26,1.26,0,0,0-1.09,1.61Z"/><path id="_Path_14" data-name="&lt;Path&gt;" class="cls-5" d="M82.93,54a1.23,1.23,0,0,0,1.37,1.35A48.18,48.18,0,0,0,90,54a48.18,48.18,0,0,0-5.65-1.35A1.23,1.23,0,0,0,82.93,54Z"/><path id="_Path_15" data-name="&lt;Path&gt;" class="cls-5" d="M82.57,57.72a1.23,1.23,0,0,0,1.09,1.58,45.88,45.88,0,0,0,5.81-.2,49.67,49.67,0,0,0-5.3-2.45,1.22,1.22,0,0,0-1.6,1.07Z"/><path id="_Path_16" data-name="&lt;Path&gt;" class="cls-5" d="M81.5,61.24A1.22,1.22,0,0,0,82.24,63a43,43,0,0,0,5.76.92,49.69,49.69,0,0,0-4.73-3.42,1.25,1.25,0,0,0-1.77.74Z"/><path id="_Path_17" data-name="&lt;Path&gt;" class="cls-5" d="M79.76,64.51a1.27,1.27,0,0,0,.39,1.89,56.45,56.45,0,0,0,5.45,2,48.66,48.66,0,0,0-4-4.29,1.25,1.25,0,0,0-1.88.38Z"/><path id="_Path_18" data-name="&lt;Path&gt;" class="cls-5" d="M77.43,67.35a1.25,1.25,0,0,0,0,1.94,55.1,55.1,0,0,0,5,3,44.51,44.51,0,0,0-3-5,1.22,1.22,0,0,0-1.91,0Z"/><path id="_Path_19" data-name="&lt;Path&gt;" class="cls-5" d="M74.58,69.67a1.26,1.26,0,0,0-.38,1.89,47.36,47.36,0,0,0,4.27,4,53.81,53.81,0,0,0-2-5.44,1.24,1.24,0,0,0-1.89-.41Z"/><path id="_Path_20" data-name="&lt;Path&gt;" class="cls-5" d="M71.32,71.43a1.26,1.26,0,0,0-.74,1.76A48.06,48.06,0,0,0,74,77.92a50.62,50.62,0,0,0-.92-5.75,1.25,1.25,0,0,0-1.78-.74Z"/><path id="_Path_21" data-name="&lt;Path&gt;" class="cls-5" d="M53.68,69.67a1.25,1.25,0,0,0-1.89.41,48.45,48.45,0,0,0-2,5.44,46,46,0,0,0,4.27-4,1.22,1.22,0,0,0-.35-1.89Z"/><path id="_Path_22" data-name="&lt;Path&gt;" class="cls-5" d="M50.83,67.35a1.22,1.22,0,0,0-1.92,0,43.34,43.34,0,0,0-3.06,5,55.1,55.1,0,0,0,4.95-3,1.25,1.25,0,0,0,0-1.94Z"/><path id="_Path_23" data-name="&lt;Path&gt;" class="cls-5" d="M48.48,64.51a1.25,1.25,0,0,0-1.88-.38,49,49,0,0,0-4,4.29,57.49,57.49,0,0,0,5.47-2,1.25,1.25,0,0,0,.38-1.89Z"/><path id="_Path_24" data-name="&lt;Path&gt;" class="cls-5" d="M46.74,61.24A1.26,1.26,0,0,0,45,60.5a50.67,50.67,0,0,0-4.72,3.42A43.13,43.13,0,0,0,46,63a1.22,1.22,0,0,0,.74-1.76Z"/><path id="_Path_25" data-name="&lt;Path&gt;" class="cls-5" d="M45.67,57.72a1.24,1.24,0,0,0-1.62-1.07,53,53,0,0,0-5.28,2.45,46,46,0,0,0,5.83.2,1.23,1.23,0,0,0,1.07-1.58Z"/><path id="_Path_26" data-name="&lt;Path&gt;" class="cls-5" d="M45.31,54A1.22,1.22,0,0,0,44,52.69,48.9,48.9,0,0,0,38.26,54,48.9,48.9,0,0,0,44,55.39,1.22,1.22,0,0,0,45.31,54Z"/><path id="_Path_27" data-name="&lt;Path&gt;" class="cls-5" d="M45.67,50.39a1.26,1.26,0,0,0-1.07-1.61,51.27,51.27,0,0,0-5.83.23,56.08,56.08,0,0,0,5.28,2.43,1.24,1.24,0,0,0,1.62-1Z"/><path id="_Path_28" data-name="&lt;Path&gt;" class="cls-5" d="M46.74,46.84A1.23,1.23,0,0,0,46,45.08a53.23,53.23,0,0,0-5.77-.92A50.67,50.67,0,0,0,45,47.58a1.25,1.25,0,0,0,1.79-.74Z"/><path id="_Path_29" data-name="&lt;Path&gt;" class="cls-5" d="M48.48,43.59a1.24,1.24,0,0,0-.38-1.89,52,52,0,0,0-5.47-2,49.39,49.39,0,0,0,4,4.26,1.19,1.19,0,0,0,1.88-.36Z"/><path id="_Path_30" data-name="&lt;Path&gt;" class="cls-5" d="M50.83,40.73a1.24,1.24,0,0,0,0-1.91,48.88,48.88,0,0,0-4.95-3,44.29,44.29,0,0,0,3.06,4.93,1.21,1.21,0,0,0,1.92,0Z"/><path id="_Path_31" data-name="&lt;Path&gt;" class="cls-5" d="M64.11,37.52A16.56,16.56,0,1,1,47.53,54.07,16.54,16.54,0,0,1,64.11,37.52Z"/><path id="_Path_32" data-name="&lt;Path&gt;" class="cls-5" d="M64.11,35.24a1.25,1.25,0,0,0,1.36-1.38,49.4,49.4,0,0,0-1.36-5.67,50.33,50.33,0,0,0-1.33,5.67,1.23,1.23,0,0,0,1.33,1.38Z"/><path id="_Path_33" data-name="&lt;Path&gt;" class="cls-5" d="M67.79,72.48a1.26,1.26,0,0,0-1.05,1.63,48.05,48.05,0,0,0,2.42,5.29,45.47,45.47,0,0,0,.22-5.82,1.26,1.26,0,0,0-1.59-1.1Z"/><path id="_Path_34" data-name="&lt;Path&gt;" class="cls-5" d="M64.11,72.84a1.24,1.24,0,0,0-1.33,1.38,49,49,0,0,0,1.33,5.66,48.13,48.13,0,0,0,1.36-5.66,1.25,1.25,0,0,0-1.36-1.38Z"/><path id="_Path_35" data-name="&lt;Path&gt;" class="cls-5" d="M60.46,72.48a1.27,1.27,0,0,0-1.6,1.1,49.49,49.49,0,0,0,.22,5.82,52.13,52.13,0,0,0,2.42-5.29,1.24,1.24,0,0,0-1-1.63Z"/><path id="_Path_36" data-name="&lt;Path&gt;" class="cls-5" d="M56.92,71.43a1.25,1.25,0,0,0-1.78.74,48.45,48.45,0,0,0-.92,5.75,48.06,48.06,0,0,0,3.44-4.73,1.23,1.23,0,0,0-.74-1.76Z"/><path id="_Path_37" data-name="&lt;Path&gt;" class="cls-5" d="M53.68,38.41A1.24,1.24,0,0,0,54,36.52a49,49,0,0,0-4.27-4,46.37,46.37,0,0,0,2,5.44,1.25,1.25,0,0,0,1.89.41Z"/><path id="_Path_38" data-name="&lt;Path&gt;" class="cls-5" d="M56.92,36.65a1.23,1.23,0,0,0,.74-1.76,48.06,48.06,0,0,0-3.44-4.73,47.82,47.82,0,0,0,.92,5.75,1.23,1.23,0,0,0,1.78.74Z"/><path id="_Path_39" data-name="&lt;Path&gt;" class="cls-5" d="M60.46,35.58a1.22,1.22,0,0,0,1-1.61,52.13,52.13,0,0,0-2.42-5.29,49.75,49.75,0,0,0-.22,5.85,1.21,1.21,0,0,0,1.6,1Z"/></g></g></g></g></g></g></g></svg>