<svg id="Layer_1" data-name="Layer 1" xmlns="http://www.w3.org/2000/svg" xmlns:xlink="http://www.w3.org/1999/xlink" viewBox="0 0 128 128"><defs><style>.cls-1{fill:none;}.cls-2{clip-path:url(#clip-path);}.cls-3{clip-path:url(#clip-path-2);}.cls-4{fill:#fff;}.cls-5{fill:#ed1b23;}.cls-6{fill:#00a651;}</style><clipPath id="clip-path"><circle class="cls-1" cx="64" cy="64" r="64"/></clipPath><clipPath id="clip-path-2"><rect id="_Clipping_Path_" data-name="&lt;Clipping Path&gt;" class="cls-1" x="-45.71" width="219.43" height="128"/></clipPath></defs><title>Flag_circle_Lebanon</title><g class="cls-2"><g id="LEBANON"><g id="_Group_" data-name="&lt;Group&gt;"><g id="_Clip_Group_" data-name="&lt;Clip Group&gt;"><g class="cls-3"><rect id="_Path_" data-name="&lt;Path&gt;" class="cls-4" x="-45.71" width="219.43" height="128"/><rect id="_Path_2" data-name="&lt;Path&gt;" class="cls-5" x="-45.71" y="96" width="219.43" height="32"/><rect id="_Path_3" data-name="&lt;Path&gt;" class="cls-5" x="-45.71" width="219.43" height="32"/><g id="_Clip_Group_2" data-name="&lt;Clip Group&gt;"><g class="cls-3"><path id="_Compound_Path_" data-name="&lt;Compound Path&gt;" class="cls-6" d="M63.12,32l-1,1.74A12.7,12.7,0,0,1,59,37a20.37,20.37,0,0,0-3,2.64l-1,1.2,1-.26A12.22,12.22,0,0,0,57.67,40c.34-.15.62-.1.62.18v0s0,0,0,0c-.15.64-1.94,2.05-3.38,2.63a10.67,10.67,0,0,0-3.66,2.63.22.22,0,0,1,0,.06v.07h0v0h0v0h0s0,0,0,0h0a1.66,1.66,0,0,0,1.11,0c.88-.2,1.24-.08,1.55.54.43.92.19,1.32-.85,1.32A4,4,0,0,0,49.82,50c-.17.69-.86,1.28-2.32,2-2.41,1.1-5.5,3.19-5.71,3.81a.1.1,0,0,0,0,.07c0,.9,2,.85,4.95-.15.66-.26,1,0,1.45,1.1.62,1.43.6,1.45-.82,3.29a5.16,5.16,0,0,1-2.84,2.15c-1.89.41-2.48.79-4.94,3.24A11,11,0,0,1,37,67.6a.45.45,0,0,0-.22,0v0h0v0h0s0,0,0,0h0a.18.18,0,0,1,0,0h0v0A3.69,3.69,0,0,0,39,68.85a7.58,7.58,0,0,0,2.9-1.33c1.85-1.3,1.94-1.32,2.69-.61a3.14,3.14,0,0,1,.77,1.84c0,.87-.47,1.28-2.89,2.5a25.06,25.06,0,0,0-5.57,4.17c-2.21,2.22-2.84,2.63-3.78,2.47a3.11,3.11,0,0,0-1-.1v0h0l0,0v0c0,.1.2.33.57.74a2.63,2.63,0,0,0,1.75.66c1.69,0,7.06-2,8.71-3.22s3-1.37,4.27-.66C49.2,76.51,46,78.79,40,80.57c-2.23.69-4.14,1.33-4.39,1.49h0l0,0h0v0c-.09.12,0,.51.29.87.64.84,3.8.86,6.51,0,1.08-.34,3.78-1.41,6-2.43,4-1.81,4-1.81,5.42-1,3.26,1.69,3,4.68-1,9.61a9.59,9.59,0,0,1-6,3.75c-1,.26-3.11,2.22-3.11,2.94a.42.42,0,0,0,0,.15h.7a3.34,3.34,0,0,0,.47-.46,5.58,5.58,0,0,1,4.39-1.94,9.87,9.87,0,0,0,6.05-2.71c1.55-1.45,3.12-1.89,4.29-1.2a2.13,2.13,0,0,0,2,.13c1.4-.54,2.1-.26,2.1.79A2.2,2.2,0,0,0,65,92.09a17.77,17.77,0,0,1,2.56,2c.57.57,1,.82,1.21.82h.12v0h0v0h0v-.13a3.28,3.28,0,0,0-.62-1.43,1.65,1.65,0,0,1-.34-1v0h0v0h0v0l0,0h0v0a13.56,13.56,0,0,1,3,.13c2.5.28,2.81.41,4.29,2.15A5.78,5.78,0,0,0,77.11,96h1c.23-.1.38-.23.41-.38h0v-.05h0v0h0a21.79,21.79,0,0,0-3.35-3.17c-4-3.39-4.65-4.62-4.67-9.29,0-2.79.13-3.53.78-4.22,1-1.15,1.58-1.09,4.08.21,1.89,1,2.48,1.05,6.78,1,4.6-.12,4.73-.1,7,1.28,1.29.77,2.9,1.76,3.53,2.25,1.44,1.1,2.9,1.17,3.23.18.41-1.15-2.31-3.4-7.43-6.16s-5.63-3.47-3.28-4.7c1.34-.71,1.42-.69,3.54.51,1.69.92,2.47,1.13,3.57.92l1.4-.3-3.08-2.53a28.54,28.54,0,0,1-3.62-3.25,5.54,5.54,0,0,0-4.32-2A3.24,3.24,0,0,1,81,65.94a.2.2,0,0,0,0,0h0c-.47-.84,1-1.28,5-1.43,5.4-.2,6.16-.84,2.42-2.07-1.48-.46-3.72-1.07-5-1.35-1.5-.28-2.34-.67-2.55-1.07a.38.38,0,0,1,0-.16v-.1a1,1,0,0,1,.24-.46c.24-.28,1.47-.23,3.53.13,2.31.36,3.58.46,3.82.2s-.83-1.1-3.19-2.4a32.36,32.36,0,0,1-6.1-4.34,20.52,20.52,0,0,0-4-3c-1.31-.61-1.73-1-1.57-1.53.3-.82,2.37-.82,3.69,0a7.65,7.65,0,0,0,3.15.61l2.17,0-1.43-.59c-1.44-.59-5.35-3.35-5.63-4l0,0v0h0v0a6.48,6.48,0,0,1,2.13-.07l2.18.1-3.13-2.38C74.34,40,72.93,39.3,71.32,39c-1.21-.26-2.6-.57-3.08-.69-1.3-.28-3.47-2.56-4.35-4.55ZM56,44.16h.15c.41,0,.7.07.83.25v0h0s0,.05,0,.05v.15s0,0,0,0a3.18,3.18,0,0,1-1,1.12c-.36.28-.57.41-.7.38h0v0h0a1.87,1.87,0,0,1-.1-.87c0-.87.17-1.12.87-1.12m10.53,1h0a1,1,0,0,1,1.11.79c.11.59-.14.77-1.11.77a1.7,1.7,0,0,1-1-.2.64.64,0,0,1-.1-.57c.08-.48.48-.76,1.09-.79m-3.08.26c.53,0,.73.31.73,1,0,.82-.3,1.07-1.77,1.46a4.92,4.92,0,0,1-2,.23h0c-.5-.57-.06-1.28,1.2-1.95a6.91,6.91,0,0,1,1.81-.71m7.07,0c.8,0,.9.36.51,1.43a1.26,1.26,0,0,1-1.22.69c-.77,0-.93-.15-.83-1s.43-1,1.21-1.12c.13,0,.24,0,.33,0M58.59,47.6h.08c.94,0,.34,1.79-.86,2.63s-2.24,1-2.57.75h0a.29.29,0,0,1-.06-.11h0v0s0,0,0,0h0c0-1,2.33-3.06,3.45-3.17m8.89,4.14c.46,0,.75.46.58,1.36a1.23,1.23,0,0,1-1.21.94c-.52.05-.84,0-1-.1h0s0,0,0,0,0,0,0,0h0v0c-.06-.25.19-.69.73-1.45a1.66,1.66,0,0,1,.9-.67M64,52H64c.9,0,1,.79.22,1.3a3.12,3.12,0,0,1-.86.38s0,0,0,0v0l-1.1-.33-1-.36,1.11-.51A6.94,6.94,0,0,1,64,52m7.63,1a3.37,3.37,0,0,1,1.35.28c.81.33,1,.62.81,1.51-.21,1.25-.87,1.38-3.14.64-1.13-.36-1.24-.51-.89-1.28a2.18,2.18,0,0,1,1.87-1.15m-16.9.33h.07c1.66,0,1.89.28,1.08,1.33a8.12,8.12,0,0,1-1.15,1.2c-.56.46-.72.41-1.07-.33s-.56-1.43-.35-1.76.65-.44,1.42-.44M50.31,54c.71,0,1.14.31,1.71,1.28l.8,1.38-1.19.43c-1.09.43-1.27.36-2.16-.9-.57-.84-.78-1.32-.63-1.68l.06-.1,0,0h0A1.92,1.92,0,0,1,50.17,54l.14,0m26.11,4.06a1.32,1.32,0,0,1,1.49,1.4c-.16,1.13-1.4,1.46-2.41.64-.61-.48-.64-.66-.16-1.38a1.52,1.52,0,0,1,1.08-.66M61.61,60.22h.08a.34.34,0,0,1,.18,0,.11.11,0,0,1,.09,0h0v0h0l0,0a1.13,1.13,0,0,1,.12.79c-.17,1.17-.94,1.51-1.27.54s0-1.43.71-1.46m-5,.87a2.15,2.15,0,0,1,1.43.64,1.15,1.15,0,0,1,.52.84v0a.13.13,0,0,0,0,0s0,0,0,.05a.14.14,0,0,0,0,0v0h0s0,.06-.06.06,0,0,0,0c-.22.15-.71.13-1.26-.28a2.62,2.62,0,0,1-.86-1.07v0h0a.33.33,0,0,1,.31-.38m7.88.18c.15,0,.31.12.57.41A4.86,4.86,0,0,1,66,63.29c.35,1.2-.2,1.71-1.26,1.14A1.62,1.62,0,0,1,64,61.88c.25-.41.41-.59.58-.61m2.75,1.63c.29,0,.68.39.78,1.13a1.29,1.29,0,0,1-.13.92h0v0h-.06c-.55,0-.89-.51-.89-1.4,0-.44.16-.64.34-.67M50,64.61a5.61,5.61,0,0,1,1.43.13,2.22,2.22,0,0,1,1.09.43,1.46,1.46,0,0,0,.09.13.24.24,0,0,0,0,.08.54.54,0,0,1,0,.18c-.08.33-.55.74-1.45,1.2a10.14,10.14,0,0,1-2.81,1c-1.33.28-1.51.18-2.07-1a11.71,11.71,0,0,1-.6-1.48h0v0h0v0c.28-.28,2.58-.56,4.28-.56m26.78,3.94c1.55-.11,2.39.94.71,2.24a3.05,3.05,0,0,1-3.67.11c-.71-.59-.67-.69.62-1.54a4.51,4.51,0,0,1,2.34-.81m5.65,1.2h.08a2.49,2.49,0,0,1,1.18.61c.75.59.75.64-.19,1.74a3.74,3.74,0,0,1-1.15,1h0c-.12,0-.81-.15-1.51-.25s-1.27-.41-1.27-.79V72a5.37,5.37,0,0,1,2.89-2.27M54,71.48h.25c1.07,0,1.65.87,1.65,2.45,0,2.18-1.31,2-1.91-.23-.53-1.91-.58-2.19,0-2.22m8.11.62a5.38,5.38,0,0,1,2.41.56v0h0v0h0v0h0a6.6,6.6,0,0,1-.93,1.51l-.93,1.23-.48-1.59a6.93,6.93,0,0,1-.36-1.68v0h0v0h0s0,0,0,0h0a.72.72,0,0,1,.22,0m-3.95.71a2.29,2.29,0,0,1,.55,0,1.37,1.37,0,0,1,1.06,1,1.61,1.61,0,0,1-.1,1.12s0,0,0,0,0,.05,0,.05a0,0,0,0,0,0,0,.45.45,0,0,0-.1,0h-.1c-.27,0-.6-.35-.9-1S58,73,58.06,72.86l0,0a.17.17,0,0,1,.12,0"/></g></g></g></g></g></g></g></svg>