<svg id="Layer_1" data-name="Layer 1" xmlns="http://www.w3.org/2000/svg" xmlns:xlink="http://www.w3.org/1999/xlink" viewBox="0 0 128 128"><defs><style>.cls-1{fill:none;}.cls-2{clip-path:url(#clip-path);}.cls-3{clip-path:url(#clip-path-2);}.cls-4{fill:#ae0037;}.cls-5{fill:#fff;}.cls-6{fill:#192967;}</style><clipPath id="clip-path"><circle class="cls-1" cx="64" cy="64" r="64"/></clipPath><clipPath id="clip-path-2"><rect id="_Clipping_Path_" data-name="&lt;Clipping Path&gt;" class="cls-1" width="219.39" height="128"/></clipPath></defs><title>Flag_circle_Liberia</title><g class="cls-2"><g id="LIBERIA"><g id="_Group_" data-name="&lt;Group&gt;"><g id="_Clip_Group_" data-name="&lt;Clip Group&gt;"><g class="cls-3"><polygon id="_Path_" data-name="&lt;Path&gt;" class="cls-4" points="58.18 0 0 69.81 0 81.45 5.83 87.25 0 93.1 0 104.71 5.83 110.56 0 116.36 0 128 219.38 128 219.38 116.36 213.58 110.56 219.38 104.71 219.38 93.1 213.58 87.25 219.38 81.45 219.38 69.81 213.58 63.99 219.38 58.22 219.38 46.57 213.58 40.75 219.38 34.93 219.38 23.29 213.58 17.46 219.38 11.64 219.38 0 58.18 0"/><path id="_Compound_Path_" data-name="&lt;Compound Path&gt;" class="cls-5" d="M0,116.36H219.39V104.71H0ZM0,93.1H219.39V81.45H0ZM58.18,11.64,0,58.22V69.81H219.39V58.22H58.18L46.54,46.57H219.39V34.93H46.54V23.29H219.39V11.64Z"/><rect id="_Path_2" data-name="&lt;Path&gt;" class="cls-6" width="58.18" height="58.22"/><polygon id="_Path_3" data-name="&lt;Path&gt;" class="cls-5" points="29.1 11.64 23.7 28.27 33.65 31.48 29.1 11.64"/><polygon id="_Path_4" data-name="&lt;Path&gt;" class="cls-5" points="29.1 11.64 34.48 28.27 24.52 31.48 29.1 11.64"/><polygon id="_Path_5" data-name="&lt;Path&gt;" class="cls-5" points="45.69 23.72 28.25 23.72 28.25 34.19 45.69 23.72"/><polygon id="_Path_6" data-name="&lt;Path&gt;" class="cls-5" points="45.69 23.72 31.57 33.96 25.43 25.51 45.69 23.72"/><polygon id="_Path_7" data-name="&lt;Path&gt;" class="cls-5" points="39.34 43.23 33.96 26.63 24 29.85 39.34 43.23"/><polygon id="_Path_8" data-name="&lt;Path&gt;" class="cls-5" points="39.34 43.23 25.24 32.96 31.38 24.49 39.34 43.23"/><polygon id="_Path_9" data-name="&lt;Path&gt;" class="cls-5" points="18.84 43.23 32.94 32.96 26.8 24.49 18.84 43.23"/><polygon id="_Path_10" data-name="&lt;Path&gt;" class="cls-5" points="18.84 43.23 24.22 26.63 34.2 29.85 18.84 43.23"/><polygon id="_Path_11" data-name="&lt;Path&gt;" class="cls-5" points="12.49 23.72 26.62 33.96 32.77 25.51 12.49 23.72"/><polygon id="_Path_12" data-name="&lt;Path&gt;" class="cls-5" points="12.49 23.72 29.95 23.72 29.95 34.19 12.49 23.72"/></g></g></g></g></g></svg>