<svg id="Layer_1" data-name="Layer 1" xmlns="http://www.w3.org/2000/svg" xmlns:xlink="http://www.w3.org/1999/xlink" viewBox="0 0 128 128"><defs><style>.cls-1{fill:none;}.cls-2{clip-path:url(#clip-path);}.cls-3{clip-path:url(#clip-path-2);}.cls-4{fill:#fff;}.cls-5{fill:#3d9546;}.cls-6{fill:#1f189b;}</style><clipPath id="clip-path"><circle class="cls-1" cx="64" cy="64" r="64"/></clipPath><clipPath id="clip-path-2"><rect id="_Clipping_Path_" data-name="&lt;Clipping Path&gt;" class="cls-1" x="-45.69" width="219.39" height="128"/></clipPath></defs><title>Flag_circle_Lesotho</title><g class="cls-2"><g id="LESOTHO"><g id="_Group_" data-name="&lt;Group&gt;"><g id="_Clip_Group_" data-name="&lt;Clip Group&gt;"><g class="cls-3"><rect id="_Path_" data-name="&lt;Path&gt;" class="cls-4" x="-45.69" width="219.39" height="128"/><rect id="_Path_2" data-name="&lt;Path&gt;" class="cls-5" x="-45.69" y="89.6" width="219.39" height="38.4"/><rect id="_Path_3" data-name="&lt;Path&gt;" class="cls-6" x="-45.69" width="219.39" height="38.4"/><g id="_Clip_Group_2" data-name="&lt;Clip Group&gt;"><g class="cls-3"><path id="_Path_4" data-name="&lt;Path&gt;" d="M63.91,40.8a2.4,2.4,0,0,0-1.44.82l.05,8.63-2.73,2.83H62v5L48.93,75.61,47,75l-3.37,7.2a41.08,41.08,0,0,0,20.43,5c13.29-.15,20.53-5.31,20.53-5.31l-3.52-7.12-1.68.74L66.16,58.06V53h2.21l-3-2.83,0-8.61a2.58,2.58,0,0,0-1.47-.74Z"/><g id="_Group_2" data-name="&lt;Group&gt;"><path id="_Compound_Path_" data-name="&lt;Compound Path&gt;" d="M63.58,87.3a41.62,41.62,0,0,1-20-5.06l3.35-7.32,2.07.61L61.92,58V53.08l-2.13.11,2.68-3-.1-8.55a2.41,2.41,0,0,1,1.54-.92c.75,0,1.49.77,1.55.77v8.68l3,2.76-2.28.15.12,5L79.47,75.48l1.6-.74,3.6,7.12c-.09.18-7.42,5.31-20.59,5.44ZM43.75,82.19a42.72,42.72,0,0,0,19.83,4.93h.5c13.09-.15,20.37-5.23,20.45-5.28l-3.51-7-1.59.79L66.09,58.14l0-5.16,2.3-.1L65.3,50.22V41.54h0a2.71,2.71,0,0,0-1.35-.66,2.53,2.53,0,0,0-1.42.79l.09,8.58-2.75,2.91L62,53,62.09,58,49,75.68l-2-.61-3.26,7.12Z"/></g><g id="_Group_3" data-name="&lt;Group&gt;"><path id="_Compound_Path_2" data-name="&lt;Compound Path&gt;" d="M68.75,61.92H59.12L59,61.64c-.12-.28-3.32-7-2.8-12s3.3-7.61,7.56-7.66h0c4.69,0,7.17,2.35,7.89,7.46.72,4.95-2.66,11.9-2.77,12.18l-.14.28Zm-9-.92h8.44c.62-1.33,3.15-7.25,2.59-11.39C70.08,45,68,42.92,63.91,42.92s-6.28,2.48-6.75,6.85c-.45,4.13,2,9.9,2.55,11.23Z"/></g><path id="_Path_5" data-name="&lt;Path&gt;" class="cls-4" d="M48.13,77.9c-.14.18-1.24,2.38-1.24,2.38l1.88-.41Z"/><polygon id="_Path_6" data-name="&lt;Path&gt;" class="cls-4" points="49.22 80.71 47.25 81.33 49.6 82.3 49.22 80.71"/><polygon id="_Path_7" data-name="&lt;Path&gt;" class="cls-4" points="50.1 77.95 51.09 80.86 53.48 80.15 52.84 78.77 50.1 77.95"/><polygon id="_Path_8" data-name="&lt;Path&gt;" class="cls-4" points="51.62 81.89 51.97 83.06 55.16 83.88 53.89 81.17 51.62 81.89"/><polygon id="_Path_9" data-name="&lt;Path&gt;" class="cls-4" points="55.16 79.44 56.28 82.14 58.7 81.2 57.92 80 55.16 79.44"/><polygon id="_Path_10" data-name="&lt;Path&gt;" class="cls-4" points="56.74 83.11 57.13 84.13 60.88 84.67 59.29 82.24 56.74 83.11"/><polygon id="_Path_11" data-name="&lt;Path&gt;" class="cls-4" points="60.34 80.2 61.7 82.63 65.19 81.33 64.79 80.41 60.34 80.2"/><polygon id="_Path_12" data-name="&lt;Path&gt;" class="cls-4" points="62.34 83.5 63.08 84.8 67.42 84.62 65.79 82.24 62.34 83.5"/><polygon id="_Path_13" data-name="&lt;Path&gt;" class="cls-4" points="66.9 80.33 68.11 82.32 70.86 80.99 70.11 79.92 66.9 80.33"/><polygon id="_Path_14" data-name="&lt;Path&gt;" class="cls-4" points="71.43 81.83 68.67 83.21 69.44 84.39 73.1 83.83 71.43 81.83"/><polygon id="_Path_15" data-name="&lt;Path&gt;" class="cls-4" points="72.32 79.72 73.77 81.48 76.06 79.67 75.29 78.82 72.32 79.72"/><polygon id="_Path_16" data-name="&lt;Path&gt;" class="cls-4" points="76.56 80.66 74.34 82.32 74.93 83.34 77.99 82.6 76.56 80.66"/><polygon id="_Path_17" data-name="&lt;Path&gt;" class="cls-4" points="79.6 77.16 80.14 77.95 78.63 80.2 77.03 78.21 79.6 77.16"/><polygon id="_Path_18" data-name="&lt;Path&gt;" class="cls-4" points="80.65 79.13 81.57 80.99 79.69 81.66 79.55 80.76 80.65 79.13"/></g></g></g></g></g></g></g></svg>