<svg id="Layer_1" data-name="Layer 1" xmlns="http://www.w3.org/2000/svg" xmlns:xlink="http://www.w3.org/1999/xlink" viewBox="0 0 128 128"><defs><style>.cls-1{fill:none;}.cls-2{clip-path:url(#clip-path);}.cls-3{fill:#ed312f;}.cls-4{fill:#54b362;}.cls-5{fill:#fff;}</style><clipPath id="clip-path"><circle class="cls-1" cx="64" cy="64" r="64"/></clipPath></defs><title>Flag_circle_Libya</title><g class="cls-2"><g id="LIBYA"><g id="_Group_" data-name="&lt;Group&gt;"><g id="_Group_2" data-name="&lt;Group&gt;"><rect id="_Path_" data-name="&lt;Path&gt;" x="-53" y="31.55" width="220" height="63.08"/><rect id="_Path_2" data-name="&lt;Path&gt;" class="cls-3" x="-53" width="220" height="33.44"/><rect id="_Path_3" data-name="&lt;Path&gt;" class="cls-4" x="-53" y="90.9" width="220" height="37.1"/></g><g id="_Group_3" data-name="&lt;Group&gt;"><polygon id="_Path_4" data-name="&lt;Path&gt;" class="cls-5" points="74.65 52.09 78.92 59.47 86.28 57 81.56 63.98 85.84 71.3 78.63 68.25 73.91 75.25 74.19 66.44 67 63.44 74.37 60.97 74.65 52.09"/><path id="_Path_5" data-name="&lt;Path&gt;" class="cls-5" d="M61.77,77.39c-7,0-12.66-6.14-12.66-13.64s5.66-13.62,12.66-13.62A12,12,0,0,1,69,52.52,13.65,13.65,0,0,0,58.31,47c-8,0-14.4,7.5-14.4,16.74s6.44,16.75,14.4,16.75A13.6,13.6,0,0,0,69.1,74.87,12.12,12.12,0,0,1,61.77,77.39Z"/></g></g></g></g></svg>