<svg id="Layer_1" data-name="Layer 1" xmlns="http://www.w3.org/2000/svg" xmlns:xlink="http://www.w3.org/1999/xlink" viewBox="0 0 128 128"><defs><style>.cls-1{fill:none;}.cls-2{clip-path:url(#clip-path);}.cls-3{fill:#c22228;}.cls-4{fill:#25974d;}</style><clipPath id="clip-path"><circle class="cls-1" cx="64" cy="64" r="64"/></clipPath></defs><title>Flag_circle_Morocco</title><g class="cls-2"><g id="MOROCCO"><g id="_Group_" data-name="&lt;Group&gt;"><g id="_Group_2" data-name="&lt;Group&gt;"><rect id="_Path_" data-name="&lt;Path&gt;" class="cls-3" x="-46" width="220" height="128"/><polygon id="_Path_2" data-name="&lt;Path&gt;" class="cls-4" points="57.81 56.31 37.76 56.32 60.58 73.75 64 71.14 50.16 60.55 56.49 60.53 57.81 56.31"/><polygon id="_Path_3" data-name="&lt;Path&gt;" class="cls-4" points="70.21 56.31 64 36.25 55.28 64.46 58.71 67.08 64 49.98 65.97 56.31 70.21 56.31"/><polygon id="_Path_4" data-name="&lt;Path&gt;" class="cls-4" points="74.03 68.71 90.26 56.31 62.03 56.31 60.73 60.53 77.83 60.53 72.73 64.46 74.03 68.71"/><polygon id="_Path_5" data-name="&lt;Path&gt;" class="cls-4" points="64 76.38 80.23 88.74 71.51 60.53 67.28 60.53 72.56 77.64 67.43 73.75 64 76.38"/><polygon id="_Path_6" data-name="&lt;Path&gt;" class="cls-4" points="53.97 68.69 47.78 88.76 70.6 71.32 69.29 67.08 55.46 77.66 57.4 71.33 53.97 68.69"/></g></g></g></g></svg>