<svg id="Layer_1" data-name="Layer 1" xmlns="http://www.w3.org/2000/svg" xmlns:xlink="http://www.w3.org/1999/xlink" viewBox="0 0 128 128"><defs><style>.cls-1{fill:none;}.cls-2{clip-path:url(#clip-path);}.cls-3{clip-path:url(#clip-path-2);}.cls-4{fill:#ffd300;}.cls-5{fill:#0044b0;}.cls-6{fill:#cd012a;}.cls-7{fill:#806332;}.cls-8{fill:#c0202c;}.cls-9{fill:#295f38;}.cls-10{fill:#2e5aa0;}</style><clipPath id="clip-path"><circle class="cls-1" cx="64" cy="64" r="64"/></clipPath><clipPath id="clip-path-2"><rect id="_Clipping_Path_" data-name="&lt;Clipping Path&gt;" class="cls-1" x="-45.71" width="219.42" height="128"/></clipPath></defs><title>Flag_circle_Moldova</title><g class="cls-2"><g id="MOLDOVA"><g id="_Group_" data-name="&lt;Group&gt;"><g id="_Clip_Group_" data-name="&lt;Clip Group&gt;"><g class="cls-3"><rect id="_Path_" data-name="&lt;Path&gt;" class="cls-4" x="-45.71" width="220" height="128"/><rect id="_Path_2" data-name="&lt;Path&gt;" class="cls-5" x="-45.71" width="73.33" height="128"/><rect id="_Path_3" data-name="&lt;Path&gt;" class="cls-6" x="100.96" width="73.33" height="128"/><g id="_Clip_Group_2" data-name="&lt;Clip Group&gt;"><g class="cls-3"><path id="_Path_4" data-name="&lt;Path&gt;" d="M56.64,28.65a1.68,1.68,0,0,0-1,.31.88.88,0,0,1,.61.86v1h-1a.88.88,0,0,1-.87-.63A1.85,1.85,0,0,0,54,31.3a1.8,1.8,0,0,0,.3,1.08.87.87,0,0,1,.87-.62h1v5a.88.88,0,0,1-.56.84c.48.08.92.74,1,1.1.12-.36.55-1,1-1.1a.91.91,0,0,1-.6-.84v-5h1a.9.9,0,0,1,.88.61,1.82,1.82,0,0,0,.28-1.07A1.88,1.88,0,0,0,59,30.22a.9.9,0,0,1-.88.63h-1v-1a.88.88,0,0,1,.65-.86,1.84,1.84,0,0,0-1.1-.31"/><path id="_Path_5" data-name="&lt;Path&gt;" class="cls-4" d="M56.64,28.88A1.9,1.9,0,0,0,56,29a1.1,1.1,0,0,1,.39.84v1.23h-.17l0,0h-1a1.05,1.05,0,0,1-.83-.39,1.63,1.63,0,0,0-.12.62,1.77,1.77,0,0,0,.12.63,1,1,0,0,1,.83-.4h1.24v5.22a1,1,0,0,1-.39.78,1.66,1.66,0,0,1,.42.36,1.68,1.68,0,0,1,.22.38,1.68,1.68,0,0,1,.22-.38,1.08,1.08,0,0,1,.41-.34,1,1,0,0,1-.39-.8V31.54h1.23a1.15,1.15,0,0,1,.85.38,2.4,2.4,0,0,0,0-1.23,1.12,1.12,0,0,1-.85.39h-1v0h-.17V29.82a1.12,1.12,0,0,1,.36-.83,1.83,1.83,0,0,0-.63-.11"/><polygon id="_Path_6" data-name="&lt;Path&gt;" class="cls-7" points="57.45 47.07 55.73 46.68 52.1 44.76 49.83 44.63 49.69 40.22 45.29 36.7 40.81 41.51 40.2 42.92 40.42 86.76 43.28 83.28 43.9 83.42 46.86 80.2 49.39 73.8 50.16 71.15 53.57 75.19 52.27 77.58 53.45 77.49 53.57 78.48 54.64 78.03 54.92 79.4 57.31 77 60.6 78.63 54.35 89.81 52.1 91.46 56.12 92.98 60.27 88.15 59.68 91.32 58.42 94.39 63.48 97.28 68.95 94.06 66.22 88.42 67.13 88.02 70.65 93.14 74.52 91.24 69.52 85.38 66.2 78.32 69.68 77.17 72.06 79.45 72.41 77.97 73.67 78.57 73.5 77.33 74.78 77.61 73.23 75.18 77.13 71.91 79.59 79.61 83.24 83.76 84 83.67 86.63 86.93 86.61 41.77 81.75 36.64 76.98 40.5 77.19 44.65 75.07 44.72 71.92 46.35 70.14 46.93 69.29 47.1 68.21 45.91 66.77 43.01 66.67 40.13 67.58 38.25 67.41 36.49 68.19 36.5 67.69 35.31 68.41 35.02 67.33 34.09 67.69 33.65 63.68 31.93 60.63 31.72 59.8 32.09 59.4 32.82 60.21 35.11 59.33 35.99 60.21 37.67 60.23 41.35 59.54 44.44 58.16 46.79 57.45 47.07"/><polygon id="_Path_7" data-name="&lt;Path&gt;" class="cls-8" points="52.81 77.64 49.77 82.28 48.31 82.24 46.79 82.95 46.29 84.59 46.53 85.35 48.17 87.13 49.52 86.38 50.58 85.21 50.84 84.18 54.68 79.2 54.49 77.96 53.67 78.49 53.34 77.47 52.81 77.64"/><polygon id="_Path_8" data-name="&lt;Path&gt;" class="cls-8" points="72.17 79.03 76.25 84.5 76.63 85.57 78.4 87.18 78.95 87.04 80.89 84.77 80.47 83.21 78.62 82.1 77.24 82.24 74.19 77.64 73.64 77.42 73.44 78.31 72.53 78.04 72.17 79.03"/><path id="_Compound_Path_" data-name="&lt;Compound Path&gt;" d="M61.57,31.48a3.34,3.34,0,0,0-1.67.3c-.41.28-.36.61-.5.73a1.88,1.88,0,0,1-1.16.27c-1.76,0-1.82,1.87-1.82,1.87A1.67,1.67,0,0,1,57.67,34C59,34,60,34.69,60,35c0,.11-.14.12-.14.12-.85,0-2.15-.48-2.84-.51v.27l0,0h0v0c1.54.55,3.1,1.3,3.1,4.63a11.32,11.32,0,0,1-1.3,5.92A6.08,6.08,0,0,1,57.25,47a14.69,14.69,0,0,1-2.55-1c-1.66-.91-2.51-1.82-4.45-1.9V42.56c0-.78.25-1.49.25-2.26-.79-.21-3.09-3-5.21-4.25-3.1,2-5.49,5.31-5.49,6.82,0,0,.09,32.63,0,44a4.93,4.93,0,0,1-.41,1.58c1.14-.49,3.21-3.33,3.66-4.4v.51a8.83,8.83,0,0,0,3.52-3.89c0,.16,0,.54,0,.54,1.54-1.34,3.48-9.26,3.48-9.26L50,70.27s-1.35,6.46-2.9,7.79V50.21l1.22,1.13,1.85-1.71V48.31l-1.64,1.52V45.9a5.77,5.77,0,0,0,.53-.87,12.5,12.5,0,0,0,2.12,2.73c.18-.67,1.26-1.31,1.26-1.31s.38,1.06,1,1.32a8.28,8.28,0,0,1,1.44-1.19,3.53,3.53,0,0,0-1.46.57c-.37-.08-.48-1.55-.48-1.55s-1.55.76-1.85,1.31c-.3-.07-.75-1.25-.94-1.74a10.22,10.22,0,0,1,1.16-.07,4.23,4.23,0,0,1,1.63.5c.67.31,1.36.71,1.94,1a7.37,7.37,0,0,0,2.35.45,14.41,14.41,0,0,1-1.3.78,8.51,8.51,0,0,0,3.19-.69,9.69,9.69,0,0,0,1.38-1,4.4,4.4,0,0,1-.89,1.61,4.23,4.23,0,0,0,3.17-1.65,5.93,5.93,0,0,0,.71,1.35,4.86,4.86,0,0,0,.74-1.35,4.28,4.28,0,0,0,3.19,1.65,5,5,0,0,1-.92-1.61,13.57,13.57,0,0,0,1.37,1,8.62,8.62,0,0,0,3.21.69A14.62,14.62,0,0,1,69.73,47a7.22,7.22,0,0,0,2.33-.45c.61-.27,1.33-.67,2-1a4.2,4.2,0,0,1,1.61-.5,10.06,10.06,0,0,1,1.16.07c-.17.49-.64,1.67-.95,1.74-.26-.55-1.82-1.31-1.82-1.31s-.13,1.47-.49,1.55a3.63,3.63,0,0,0-1.5-.57,7.91,7.91,0,0,1,1.46,1.19c.59-.26,1-1.32,1-1.32s1.08.64,1.25,1.31A12,12,0,0,0,77.88,45c.13.22.29.51.52.87v3.93l-1.63-1.52v1.32l1.85,1.71,1.2-1.13V78.06C78.31,76.73,77,70.27,77,70.27l-.11,1.66s1.94,7.92,3.48,9.26c0,0,0-.38,0-.54.55,1.06,1.8,3.11,3.51,3.89V84c.45,1.07,2.52,3.91,3.65,4.4a4.93,4.93,0,0,1-.41-1.58c-.09-11.35,0-44,0-44,0-1.51-2.38-4.81-5.49-6.82-2.12,1.24-4.41,4-5.23,4.25,0,.77.3,1.48.3,2.26v1.5c-2,.09-2.8,1-4.45,1.91a14,14,0,0,1-2.57,1,5.73,5.73,0,0,1-1.52-1.55,9.5,9.5,0,0,1-1.27-5c0-.76.85-1.59.85-2.21a8.93,8.93,0,0,0-.1-1.47c.32,0,.84.57.84.57s0-1.54-.51-1.8c0,0,.19-.21.91-.23a4,4,0,0,0-1.19-1.12A.57.57,0,0,1,68,34a3.14,3.14,0,0,1,.85-.28c-.29-.06-.62-.15-1-.26a22.78,22.78,0,0,1-2.67-1.09,7.79,7.79,0,0,0-3.59-.85m0,.45H62c1.63,0,2.74.74,4.26,1.41a10,10,0,0,0,1.11.43,1.39,1.39,0,0,0-.42.51,1.59,1.59,0,0,1,1,.7s-.65.08-.77.46a.94.94,0,0,1,.74.93l-.93-.3a12,12,0,0,1,.22,2.16c0,.58-.83,1.25-.83,2.21a9,9,0,0,0,1.3,5.17,4.81,4.81,0,0,0,.77,1.11c-1.57-.83-2.74-1.88-2.74-2.85V40.2H65.3v3.68a2.22,2.22,0,0,0,.19,1,13.22,13.22,0,0,0,1,2.48c-1.45-.79-2.19-1.77-2.19-2.12V40.2H64v5.14l.06.35a2.42,2.42,0,0,1-.56.67,4.93,4.93,0,0,1-.55-.67l.1-.35V40.2h-.43v5.07c0,.35-.7,1.33-2.18,2.12a14.62,14.62,0,0,0,1.07-2.48,2.57,2.57,0,0,0,.16-1V40.2h-.39v3.68c0,1-1.19,2-2.73,2.85a5,5,0,0,0,.74-1.11c.58-1,1.32-2.34,1.32-6.07a6.43,6.43,0,0,0-.57-3c-.11-.22-.27-.8.57-.8A4.16,4.16,0,0,1,62,36.5a1.41,1.41,0,0,0-.55-1,.56.56,0,0,1-.23-.41.87.87,0,0,1,.39-.51c.12,0-1.72-.37-1.72-1.2,0-.18.12-.3.49-.3s1.31.6,2,.6c.52,0,.74-.13,1.28-.13s2.06,1.27,2.51,1.22c-.52-.33-1.36-1.6-2.67-1.6-.46,0-.85.11-1.29.11s-1.06-.5-1.66-.5c-.37,0-.8,0-.88-.07s0-.3.1-.43.74-.35,1.31-.38h.47M45.29,37.47h0s2.9,2.64,3.87,3l0,.9V44a6.09,6.09,0,0,1-2-2v-.36a1,1,0,0,1,.36-.71l-.44-.15a1.21,1.21,0,0,0-.33.8v.22l-.14.14-.08.07-1,1.15-1.24-1.89v-.46a1.51,1.51,0,0,1,.46-.89l-.44-.15a1.83,1.83,0,0,0-.42,1v.37c-.31.31-1.42,1.48-1.42,1.48s-.57-1.22-.74-1.56a18,18,0,0,1,3.6-3.52m36.34,0A18.42,18.42,0,0,1,85.26,41c-.17.34-.74,1.56-.74,1.56l-1.44-1.48V40.7a1.9,1.9,0,0,0-.41-1l-.42.15a1.64,1.64,0,0,1,.42.89v.46l-1.23,1.89L80.37,42l-.06-.07-.13-.14v-.22a1.14,1.14,0,0,0-.36-.8l-.42.15a.91.91,0,0,1,.36.71V42a6,6,0,0,1-2.05,2V41.35l.05-.9c1-.34,3.87-3,3.87-3ZM41.19,41.79l.67,1.2v2.17l-1,.92V42.87a2.51,2.51,0,0,1,.35-1.08m44.54,0a2.29,2.29,0,0,1,.36,1.08v3.21l-1-.92V43Zm-41.9.29L45,43.82v1.35l-1.13,1.08Zm39.28,0v4.17L82,45.17V43.82Zm-39.68.31v3.85l-1.16-1.07V43.59Zm40.07,0,1.16,1.2v1.58L83.5,46.24ZM47,42.65a6,6,0,0,0,1.74,2A6,6,0,0,1,47,46.33Zm33,0v3.68a6.09,6.09,0,0,1-1.73-1.71,5.65,5.65,0,0,0,1.73-2m-33.43.2v3.39L45.4,45.17V44Zm33.83,0L81.53,44v1.2l-1.16,1.07ZM41.86,46.46v3.39l-1-1V47.41Zm43.23,0,1,.95V48.9l-1,1Zm-42.82,0,.66.62.5.46v1.21l-.5.46-.66.61Zm2.69,0v3.36l-.64-.61-.49-.48V47.56l.49-.47Zm.44,0,1.14,1.09v1.18l-.48.49-.66.6Zm2.72,0v3.38l-.67-.62-.5-.47V47.63a4.58,4.58,0,0,0,1.17-1.16m30.69,0A4.72,4.72,0,0,0,80,47.63v1.13l-.49.47-.67.62V46.47Zm2.72,0v3.36l-.64-.6-.52-.49V47.56Zm.44,0,.66.62.48.47v1.18l-.48.48-.66.61Zm2.69,0v3.36L84,49.22l-.5-.46V47.55l.5-.46ZM44,50.19l1.21,1.15,1.24-1.14V78.06s.09,1.38.12,2.28L44,83Zm39,0V83l-2.59-2.62c.08-.9.17-2.28.17-2.28V50.2l1.21,1.14Zm-39.68,0V81.92c0,.89-1.64,3-2.44,3.46V50.21l1.21,1.13Zm40.38,0,1.22,1.14,1.21-1.13V85.38c-.79-.47-2.43-2.57-2.43-3.46ZM53.34,75.11a21.85,21.85,0,0,1-1.62,2.81,4.16,4.16,0,0,0,.63,0c-.2.3-1.85,2.65-2.33,3.53s-.83.46-1.57.46a4.31,4.31,0,0,0-2.22,1.36,2.78,2.78,0,0,0-.41,1.33,2.44,2.44,0,0,0,.47,1.08.58.58,0,0,1,.14-.29s1.29,1.57,1.44,1.78a1.08,1.08,0,0,0,1.05,0,7.79,7.79,0,0,0,1.61-1.63c.27-.39.29-.82.6-1.24,1-1.38,3-4,3.46-4.65a2.73,2.73,0,0,1,.06.49,16.38,16.38,0,0,1,3-3L57,76.74a22.69,22.69,0,0,1-2,2.08s-.21-.87-.34-1.18a2.33,2.33,0,0,1-.87.44s-.1-.59-.19-1a1.79,1.79,0,0,1-1,.21c.56-.27,1.25-2,1.25-2l-.48-.24Zm20.25,0-.47.24s.69,1.69,1.26,2a1.88,1.88,0,0,1-1-.21c-.07.39-.16,1-.16,1a2.43,2.43,0,0,1-.91-.44c-.11.31-.33,1.18-.33,1.18a22.69,22.69,0,0,1-2-2.08l-.68.45a15.83,15.83,0,0,1,3,3,4.26,4.26,0,0,1,.1-.49c.45.62,2.44,3.27,3.46,4.65.28.42.31.85.58,1.24A7.63,7.63,0,0,0,78,87.27a1,1,0,0,0,1,0c.19-.21,1.44-1.78,1.44-1.78a.51.51,0,0,1,.16.29,2.44,2.44,0,0,0,.47-1.08,2.71,2.71,0,0,0-.43-1.33A4.17,4.17,0,0,0,78.48,82c-.74,0-1.07.37-1.55-.46S74.8,78.27,74.59,78a4.33,4.33,0,0,0,.63,0,21,21,0,0,1-1.63-2.81M53.16,77.8a2.31,2.31,0,0,0,.24,1.09l.91-.6s0,.28.14.69c-.41.52-2.59,3.51-3.68,5a5.12,5.12,0,0,0-.5,1.29s-.38-.19-.38-.53a6.71,6.71,0,0,1,0-.72,1.12,1.12,0,0,1-.83.33c0-.41.81-.84.83-1.43-.59.45-1.11.22-1.8.43s-1,.56-1.21.54a.34.34,0,0,1-.21-.38,3,3,0,0,1,1.68-1.07c.16,0,1.38.26,1.64-.12,1-1.58,2.67-4.14,2.84-4.38a.61.61,0,0,0,.28-.11m20.61,0a.56.56,0,0,0,.28.11c.16.24,1.82,2.8,2.83,4.38.27.38,1.5.09,1.64.12a3.11,3.11,0,0,1,1.68,1.07c0,.14-.06.37-.2.38s-.43-.3-1.19-.54-1.21,0-1.82-.43c0,.59.8,1,.8,1.43A1.15,1.15,0,0,1,77,84a6.71,6.71,0,0,1,.05.72c0,.34-.39.53-.39.53A5.88,5.88,0,0,0,76.16,84c-1.09-1.46-3.27-4.45-3.68-5,.1-.41.16-.69.16-.69l.88.6a2.12,2.12,0,0,0,.25-1.09m-13.5.59S55.42,89.57,51.1,91.3c0,0,1.88.79,4.18,2,.36.16.69.36,1,.54.3-.34.6-.74.91-1.14,1.38-1.84,2.72-4,2.72-4,.1.55-.64,2.28-1.86,4.38l-.77,1.31c.31.16.62.35.93.54,2.27,1.36,4.43,3,5.21,4.4.81-1.45,3-3,5.24-4.4a9.57,9.57,0,0,1,.94-.54c-.31-.45-.54-.89-.78-1.31-1.22-2.1-2-3.83-1.88-4.38,0,0,1.36,2.14,2.74,4,.3.4.61.8.89,1.14.36-.18.69-.38,1-.54,2.33-1.21,4.2-2,4.2-2-4.31-1.73-9.19-12.91-9.19-12.91l-.69.21s3.87,9.66,7.65,12.59a28,28,0,0,0-2.91,1.08A48.06,48.06,0,0,1,67,87,27.22,27.22,0,0,1,65,81.71c-.55,1.29.59,7.79,2.89,11.91a18.24,18.24,0,0,0-4.41,2.92,17.19,17.19,0,0,0-4.38-2.92C61.37,89.5,62.51,83,62,81.71A26.46,26.46,0,0,1,59.88,87a43,43,0,0,1-3.63,5.27,28,28,0,0,0-2.91-1.08C57.12,88.26,61,78.6,61,78.6ZM47.59,83.76a.21.21,0,0,1,.08.06.13.13,0,0,1,0,.18l-.41.34a.11.11,0,0,1-.18,0,.12.12,0,0,1,0-.19l.4-.35a.15.15,0,0,1,.11,0m31.77,0a.1.1,0,0,1,.09,0l.4.35a.12.12,0,0,1,0,.19.09.09,0,0,1-.16,0L79.28,84a.11.11,0,0,1,0-.18.12.12,0,0,1,.1-.06M48,84.11a.38.38,0,0,1,.28.13.33.33,0,0,1,0,.45l-1,.84a.31.31,0,0,1-.45,0,.33.33,0,0,1,0-.45l1-.85a.26.26,0,0,1,.17-.07m30.85,0a.22.22,0,0,1,.08,0,.32.32,0,0,1,.19.07l1,.85a.29.29,0,0,1,0,.45.31.31,0,0,1-.45,0l-1-.84a.29.29,0,0,1,0-.45.32.32,0,0,1,.18-.13m-30.31.67a.49.49,0,0,1,.32.12.32.32,0,0,1,0,.44l-1,.86a.29.29,0,0,1-.42-.06.31.31,0,0,1,0-.44l1-.85a.28.28,0,0,1,.16-.07m29.77,0a.08.08,0,0,1,.07,0,.24.24,0,0,1,.16.07l1,.85a.28.28,0,0,1,0,.44.32.32,0,0,1-.45.06l-1-.86a.3.3,0,0,1,0-.44.22.22,0,0,1,.21-.12m-29.15.65a.39.39,0,0,1,.31.1.34.34,0,0,1,0,.45l-1,.86a.27.27,0,0,1-.42-.06.3.3,0,0,1,0-.44l1-.86a.22.22,0,0,1,.14,0m28.51,0a.14.14,0,0,1,.09,0,.23.23,0,0,1,.15,0l1,.86a.28.28,0,0,1,0,.44.27.27,0,0,1-.42.06l-1-.86a.35.35,0,0,1,0-.45.44.44,0,0,1,.19-.1"/><polygon id="_Path_9" data-name="&lt;Path&gt;" points="50.16 85.94 52.43 87.18 51.88 89.71 49.61 88.47 50.16 85.94"/><path id="_Compound_Path_2" data-name="&lt;Compound Path&gt;" d="M39.59,61.69l-.83.38L48,82.32h1Zm10.9,23.89-.66.69.39.93.83-.39Z"/><polygon id="_Path_10" data-name="&lt;Path&gt;" class="cls-4" points="50.49 86.66 51.88 87.42 51.55 89 50.13 88.23 50.49 86.66"/><path id="_Path_11" data-name="&lt;Path&gt;" d="M42.46,77.65s.78,1.62,1.37,1.84a3.88,3.88,0,0,0-1.31.27,7.05,7.05,0,0,0,3.25,1.69,2.44,2.44,0,0,0,1.85-.55l-.23-1.34a5.29,5.29,0,0,0-2-1.36,13.82,13.82,0,0,0-2.91-.55"/><path id="_Path_12" data-name="&lt;Path&gt;" d="M48.31,74.78a4.75,4.75,0,0,0-1.36,2,4.07,4.07,0,0,0,.2,2.29l.9,1.69a5,5,0,0,0,1.78-1.67,4.21,4.21,0,0,0,.34-2.34,5.21,5.21,0,0,0-1.12.53,4.15,4.15,0,0,0-.74-2.48"/><path id="_Path_13" data-name="&lt;Path&gt;" d="M44.85,74.35a7,7,0,0,1-2.39.34,3.61,3.61,0,0,1-2.07-1s.92-.63,1.4-.55c-.52-.18-1.26-1.46-1.26-1.46a3.4,3.4,0,0,1,2,0,4.73,4.73,0,0,1,1.75,1.36Z"/><path id="_Path_14" data-name="&lt;Path&gt;" d="M45.27,68.38s.62,1.26.48,1.7a4.76,4.76,0,0,1,.9-.74,8.26,8.26,0,0,1,.05,3.3A3.14,3.14,0,0,1,45,74.39l-1.38-2.7a3,3,0,0,1,.22-1.81,5.7,5.7,0,0,1,1.44-1.5Z"/><path id="_Path_15" data-name="&lt;Path&gt;" d="M37.33,65a5.76,5.76,0,0,1,2.51.36,2.48,2.48,0,0,1,1.33,1.19l.5,1.33a4.34,4.34,0,0,1-2.58.13,4.82,4.82,0,0,1-1.94-1.79s.78-.3,1.08-.18c-.44-.19-.9-1-.9-1"/><path id="_Path_16" data-name="&lt;Path&gt;" d="M41.48,62.54a3.36,3.36,0,0,1,.62,1.6,2.55,2.55,0,0,1,.84-1,7.38,7.38,0,0,1,.6,3.08,3.24,3.24,0,0,1-1.23,2L41,65.77a4.35,4.35,0,0,1-.3-1.85,2.68,2.68,0,0,1,.83-1.38"/><path id="_Path_17" data-name="&lt;Path&gt;" d="M36.9,57.69a4.3,4.3,0,0,0,.17,2.18,3,3,0,0,0,.59.87,4,4,0,0,0-1.75-.51,4.54,4.54,0,0,0,1.29,2.19,3.58,3.58,0,0,0,2.27.54,4.51,4.51,0,0,0,.84-2.52,5.87,5.87,0,0,0-1.11-2.69,5,5,0,0,0-.42,1.48C38.5,58.58,36.9,57.69,36.9,57.69Z"/><path id="_Path_18" data-name="&lt;Path&gt;" class="cls-9" d="M37.31,58.53a4.06,4.06,0,0,0,.28,1.58,2.28,2.28,0,0,0,1.09.81,3.33,3.33,0,0,0-.31-1.59,2,2,0,0,0-1.06-.8"/><path id="_Path_19" data-name="&lt;Path&gt;" class="cls-9" d="M36.62,60.81a2.88,2.88,0,0,1,1.37.44,2.59,2.59,0,0,1,.72,1.21,1.89,1.89,0,0,1-1.12-.34,4.92,4.92,0,0,1-1-1.31"/><path id="_Path_20" data-name="&lt;Path&gt;" class="cls-9" d="M39.37,58.77a3.23,3.23,0,0,0-.26,1.4,4.29,4.29,0,0,0,.45,1.52,4.41,4.41,0,0,0,.36-1.58,2.71,2.71,0,0,0-.55-1.34"/><path id="_Path_21" data-name="&lt;Path&gt;" class="cls-9" d="M37.87,65.27A3.27,3.27,0,0,0,39,66.2a4.44,4.44,0,0,0,1.63.34,3.84,3.84,0,0,0-1.15-1,4.14,4.14,0,0,0-1.6-.3"/><path id="_Path_22" data-name="&lt;Path&gt;" class="cls-9" d="M38.09,66.68a2.36,2.36,0,0,0,.9.89,5.78,5.78,0,0,0,1.76.23,3.22,3.22,0,0,0-1-.84,5.36,5.36,0,0,0-1.64-.28"/><path id="_Path_23" data-name="&lt;Path&gt;" class="cls-9" d="M41.44,63.36a2.67,2.67,0,0,0-.31,1.22,3.11,3.11,0,0,0,.45,1.34,4.63,4.63,0,0,0,.25-1.44,2.18,2.18,0,0,0-.39-1.12"/><path id="_Path_24" data-name="&lt;Path&gt;" class="cls-9" d="M42.71,64.18A4.29,4.29,0,0,0,42,65.81a3.73,3.73,0,0,0,.36,1.69,3.15,3.15,0,0,0,.81-1.56,3.33,3.33,0,0,0-.48-1.76"/><path id="_Path_25" data-name="&lt;Path&gt;" class="cls-9" d="M41.08,71.82a1.57,1.57,0,0,0,.31.6,4.7,4.7,0,0,0,.69.66,2.06,2.06,0,0,1,.92,0,4.5,4.5,0,0,1,1.21.57,6.08,6.08,0,0,0-1.52-1.52,2.67,2.67,0,0,0-1.61-.28"/><path id="_Path_26" data-name="&lt;Path&gt;" class="cls-9" d="M41,73.71a4.09,4.09,0,0,1,1.74-.32,3.38,3.38,0,0,1,1.49.73,4.58,4.58,0,0,1-1.85.26A2.77,2.77,0,0,1,41,73.71"/><path id="_Path_27" data-name="&lt;Path&gt;" class="cls-9" d="M45,69.28a3.59,3.59,0,0,0-.9,1.66,2.22,2.22,0,0,0,.66,1.5,2.46,2.46,0,0,1,.13-.83,2.53,2.53,0,0,1,.39-.67,1.86,1.86,0,0,0,.08-.72,3.34,3.34,0,0,0-.36-.94"/><path id="_Path_28" data-name="&lt;Path&gt;" class="cls-9" d="M46.23,70.3a4.25,4.25,0,0,0-1,1.67,3.2,3.2,0,0,0,.17,1.78,2.82,2.82,0,0,0,.91-1.43,4.89,4.89,0,0,0-.08-2"/><path id="_Path_29" data-name="&lt;Path&gt;" class="cls-9" d="M48.23,75.5a6.07,6.07,0,0,1,.46,1.38,2.78,2.78,0,0,1,0,.84,7.09,7.09,0,0,0-.55.58,1.58,1.58,0,0,0-.24.78,3.59,3.59,0,0,1-.64-1.92,3.78,3.78,0,0,1,1-1.66"/><path id="_Path_30" data-name="&lt;Path&gt;" class="cls-9" d="M49.78,77.23a5.65,5.65,0,0,0-1.33,1.28,1.87,1.87,0,0,0-.17,1.31,1.49,1.49,0,0,0,1.07-.7,5.43,5.43,0,0,0,.43-1.89"/><path id="_Path_31" data-name="&lt;Path&gt;" class="cls-9" d="M43.52,79.89a10.64,10.64,0,0,1,2.21.18,2,2,0,0,1,1.15.65,3,3,0,0,1-1.79.23,3.51,3.51,0,0,1-1.57-1.06"/><path id="_Path_32" data-name="&lt;Path&gt;" class="cls-9" d="M43.28,78.27a3.87,3.87,0,0,0,1.43,1.3,4.56,4.56,0,0,0,2.38.25,4.74,4.74,0,0,0-1.66-1.22,6,6,0,0,0-2.15-.33"/><path id="_Path_33" data-name="&lt;Path&gt;" d="M47.72,80.84v.5c.83,0,1-.08,1.16.18a.73.73,0,0,0,.83.17A.66.66,0,0,0,50,80.8a.64.64,0,0,0-.76-.35c-.19,0-.31.18-.48.26a3.3,3.3,0,0,1-1.08.13"/><path id="_Path_34" data-name="&lt;Path&gt;" class="cls-4" d="M49.75,80.92h0a.38.38,0,0,1-.2.48.36.36,0,0,1-.49-.18h0a.37.37,0,0,1,.19-.48.33.33,0,0,1,.47.17Z"/><path id="_Path_35" data-name="&lt;Path&gt;" d="M47.62,80.46l.41.3c-.44.7-.55.76-.44,1.08a.75.75,0,0,1-.3.77.64.64,0,0,1-.92-.19.6.6,0,0,1,.09-.83c.14-.14.33-.16.47-.25a3.67,3.67,0,0,0,.69-.88"/><path id="_Path_36" data-name="&lt;Path&gt;" class="cls-4" d="M46.6,82.26h0a.39.39,0,0,0,.52.11.36.36,0,0,0,.09-.52h0a.34.34,0,0,0-.49-.1.38.38,0,0,0-.12.51Z"/><path id="_Path_37" data-name="&lt;Path&gt;" d="M44.85,74.58l0,.49c.83,0,1-.08,1.16.18a.71.71,0,0,0,.81.18.65.65,0,0,0,.33-.9.63.63,0,0,0-.75-.36,1.6,1.6,0,0,0-.46.27,3.34,3.34,0,0,1-1.11.14"/><path id="_Path_38" data-name="&lt;Path&gt;" class="cls-4" d="M46.88,74.66h0a.36.36,0,0,1-.16.48.37.37,0,0,1-.49-.18h0a.38.38,0,0,1,.19-.49.34.34,0,0,1,.46.19Z"/><path id="_Path_39" data-name="&lt;Path&gt;" d="M45,74.75l.36.35c-.55.62-.69.66-.61,1a.74.74,0,0,1-.44.72.64.64,0,0,1-.87-.33.6.6,0,0,1,.23-.8,1.39,1.39,0,0,1,.5-.19,3.2,3.2,0,0,0,.83-.75"/><path id="_Path_40" data-name="&lt;Path&gt;" class="cls-4" d="M43.74,76.36h0a.35.35,0,0,0,.47.19.4.4,0,0,0,.19-.49h0a.4.4,0,0,0-.5-.19.36.36,0,0,0-.16.48Z"/><path id="_Path_41" data-name="&lt;Path&gt;" d="M42.08,68.69l0,.51c.83,0,.95-.08,1.15.18a.71.71,0,0,0,.82.18.69.69,0,0,0,.36-.9.71.71,0,0,0-.8-.35c-.18,0-.3.19-.44.26a3.17,3.17,0,0,1-1.11.12"/><path id="_Path_42" data-name="&lt;Path&gt;" class="cls-4" d="M44.11,68.79h0a.35.35,0,0,1-.17.49.39.39,0,0,1-.49-.19h0a.39.39,0,0,1,.18-.49.36.36,0,0,1,.48.18Z"/><path id="_Path_43" data-name="&lt;Path&gt;" d="M42.28,68.6l.36.36c-.51.62-.67.66-.62,1a.67.67,0,0,1-.4.72.68.68,0,0,1-.9-.34.64.64,0,0,1,.23-.8,2.62,2.62,0,0,1,.51-.18,3,3,0,0,0,.82-.75"/><path id="_Path_44" data-name="&lt;Path&gt;" class="cls-4" d="M41,70.22h0a.38.38,0,0,0,.5.17.33.33,0,0,0,.17-.47h0a.36.36,0,0,0-.48-.2.4.4,0,0,0-.19.5Z"/><path id="_Path_45" data-name="&lt;Path&gt;" d="M39.11,62.5l0,.5c.82,0,1-.08,1.15.19a.71.71,0,0,0,.82.16.69.69,0,0,0,.33-.89.67.67,0,0,0-.79-.35c-.18,0-.28.18-.45.27a3.42,3.42,0,0,1-1.11.12"/><path id="_Path_46" data-name="&lt;Path&gt;" class="cls-4" d="M41.17,62.59h0a.34.34,0,0,1-.19.48.36.36,0,0,1-.47-.18h0a.36.36,0,1,1,.66-.3Z"/><path id="_Path_47" data-name="&lt;Path&gt;" d="M39.34,62.41l.36.35c-.54.62-.71.65-.64,1a.7.7,0,0,1-.38.73.66.66,0,0,1-.89-.34.61.61,0,0,1,.23-.81,1.78,1.78,0,0,1,.49-.17,3,3,0,0,0,.83-.75"/><path id="_Path_48" data-name="&lt;Path&gt;" class="cls-4" d="M38.07,64h0a.34.34,0,0,0,.47.18.36.36,0,0,0,.19-.49h0a.36.36,0,0,0-.5-.16.35.35,0,0,0-.16.47h0"/><path id="_Path_49" data-name="&lt;Path&gt;" class="cls-4" d="M44.32,73.09c-.3.13-.74-1.15-1.07-1.85s-1-1.85-.79-1.93.47.48.82,1.23,1.32,2.45,1,2.55"/><path id="_Path_50" data-name="&lt;Path&gt;" class="cls-4" d="M41.27,66.33c-.29.13-.62-.72-.93-1.43s-.64-1.24-.45-1.32.53.54.78,1.13.88,1.5.6,1.62"/><path id="_Path_51" data-name="&lt;Path&gt;" class="cls-4" d="M48.31,81.69c-.25.06-1.25-2.06-2.07-3.86S44.8,74.6,45,74.51s.86,1.59,1.69,3.39a21.33,21.33,0,0,1,1.61,3.79"/><polygon id="_Path_52" data-name="&lt;Path&gt;" class="cls-10" points="50.08 61.39 50.13 72.3 50.94 73.6 56.01 76.4 62.53 79.39 63.35 80.27 68.97 77.2 75.56 74.08 76.82 72.17 76.82 61.44 50.08 61.39"/><path id="_Path_53" data-name="&lt;Path&gt;" class="cls-8" d="M49.78,48.25l.33,1L50,61.77l.46.52,3.85.45,4.17-.6,4.1.62s.05.25.05.25.61-.09.81-.1.78.1.78.1,0-.23,0-.25l4.09-.62,4.18.6,3.86-.45.44-.52-.06-12.53.33-1-4.6,0-9.07.09-9.08-.09-4.62,0Z"/><polygon id="_Path_54" data-name="&lt;Path&gt;" class="cls-4" points="51.13 62.22 53.21 61.41 54.65 60.27 55.65 61.34 57.67 62.16 56.03 63.1 54.59 64.37 53.31 63.41 51.13 62.22"/><polygon id="_Path_55" data-name="&lt;Path&gt;" class="cls-4" points="72.26 60.33 71.32 61.34 69.3 62.16 71.2 63.35 72.41 64.43 73.74 63.35 75.88 62.28 73.67 61.41 72.26 60.33"/><polygon id="_Path_56" data-name="&lt;Path&gt;" class="cls-4" points="63.45 50 62.84 51.89 61.01 51.01 61.84 52.84 60.05 53.53 61.84 54.16 61.08 55.98 62.76 55.1 63.45 56.99 64.14 55.1 65.86 55.86 65.08 54.16 66.86 53.53 65.16 52.78 65.92 50.95 64.14 51.83 63.45 50"/><polygon id="_Path_57" data-name="&lt;Path&gt;" class="cls-4" points="68.3 49.68 68.88 51.71 69.76 54.29 69.87 56.74 68.88 58.51 67.05 59.27 66.06 59.58 64.86 58.95 63.53 59.75 62.07 58.88 60.87 59.7 60.13 59.2 58.8 59.02 57.3 57.43 56.96 54.59 58.8 49.56 56.53 51.39 54.59 54.02 54.59 57.5 55.97 59.82 58.5 61.47 59.16 61.65 57.97 63.86 60.05 64.48 61.13 65.55 61.7 67.7 61.57 72.3 60.94 73.36 59.57 74.32 59.49 75.19 61.01 76.14 62.31 77.21 64.28 77.27 65.99 76.08 67.44 75.26 67.05 74 65.53 72.8 65.22 69.14 65.66 65.49 67.86 64.11 68.99 63.73 67.82 61.47 69.63 60.84 71.65 59.06 72.59 55.54 72.03 53.4 70.63 51.63 68.3 49.68"/><polygon id="_Path_58" data-name="&lt;Path&gt;" class="cls-4" points="59.68 65.46 60.56 66.34 59.75 67.17 58.91 66.31 59.68 65.46"/><polygon id="_Path_59" data-name="&lt;Path&gt;" class="cls-4" points="67.27 65.37 66.39 66.28 67.18 67.14 68.12 66.31 67.27 65.37"/><polygon id="_Path_60" data-name="&lt;Path&gt;" class="cls-4" points="67.91 67.7 66.31 68.08 65.92 68.99 65.89 71.51 66.55 72.93 67.44 73.3 67.31 70 67.91 67.7"/><polygon id="_Path_61" data-name="&lt;Path&gt;" class="cls-4" points="59.05 67.72 59.61 70.53 59.61 73.24 60.41 72.68 60.94 71.45 61.04 69.31 60.63 68.01 59.05 67.72"/><polygon id="_Path_62" data-name="&lt;Path&gt;" class="cls-4" points="73.5 69.96 71.67 69.08 69.92 69.46 68.99 70.53 68.9 72.26 70.2 73.78 70.51 73.87 70.49 72.23 71.86 70.34 73.5 69.96"/><polygon id="_Path_63" data-name="&lt;Path&gt;" class="cls-4" points="56.12 69.37 55.94 68.61 54.95 68.04 54.13 68.36 53.73 69.22 53.95 69.96 53.09 69.87 52.41 70.53 52.32 71.41 52.79 71.97 53.45 72.21 53.82 72.18 53.49 72.95 53.76 73.75 54.54 74.19 55.45 73.96 55.92 73.08 56.65 73.58 57.58 73.39 58.16 72.48 57.76 71.63 57.31 71.28 57.95 70.94 58.22 69.91 57.36 68.93 56.53 69.05 56.12 69.37"/><path id="_Compound_Path_3" data-name="&lt;Compound Path&gt;" d="M58.88,49c-.14.93-4.79,2.84-4.79,6.71a6.33,6.33,0,0,0,4.62,6.12l-.19.35-1.11,2a5.87,5.87,0,0,1,2.94,1c1.21,1,1.08,3.26,1.08,4.86,0,1.27-.16,2.61-.8,3.17-.88.75-1.49.8-1.49,1.66s.58.88,1.49,1.35c1.16.61,1.11,1.44,2.82,1.44s1.69-.83,2.85-1.44c.92-.47,1.47-.62,1.47-1.35s-.58-.91-1.47-1.66c-.64-.56-.81-1.9-.81-3.17,0-1.6-.1-3.81,1.11-4.86a5.77,5.77,0,0,1,2.92-1l-1.12-2-.19-.35a6.33,6.33,0,0,0,4.63-6.12c0-3.87-4.65-5.78-4.77-6.71-.44,1.6,1.55,3.81,1.55,6.42,0,3.37-2.49,3.54-2.49,3.54-.6,0-.83.41-1,.41-.5,0-.74-.68-1.21-.68s-.81.72-1.42.72-.92-.72-1.4-.72-.71.64-1.18.68c-.24,0-.48-.41-1.07-.41,0,0-2.49-.17-2.49-3.54,0-2.61,2-4.82,1.57-6.42M68.4,62.14s3.13,1.36,3.94,2.54a23.25,23.25,0,0,1,4.1-2.39A10.87,10.87,0,0,1,72.34,60c-1.09,1.41-3.94,2.11-3.94,2.11m-9.88,0s-2.85-.7-3.9-2.11a11.1,11.1,0,0,1-4.12,2.26,24.67,24.67,0,0,1,4.12,2.39c.82-1.18,3.9-2.54,3.9-2.54m4.93-12.85-.8,2.3-2.19-1,1,2.2-2.27.8,2.27.81-1,2.19,2.19-1,.8,2.29.83-2.29,2.18,1-1-2.19,2.27-.81-2.27-.8,1-2.2-2.18,1Zm-5.26,1.08c.19.39-1.55,2.93-1.55,5,0,2.54,1.36,4,3.16,4,.36,0,.74.46,1.07.46.51,0,.87-.59,1.18-.59s.69.65,1.4.65,1-.65,1.42-.65.66.59,1.21.59c.33,0,.72-.46,1-.46,1.82,0,3.16-1.5,3.16-4,0-2.08-1.74-4.62-1.55-5,0,0,3.41,2.42,3.41,5.3,0,4.62-4.69,5.77-4.69,5.77l1,2.37a5.63,5.63,0,0,0-2.31.93C65,65.7,65,68.28,65,70c0,2.07.06,2.94.8,3.49s1.38.72,1.38,1.31-.6.74-1.4,1.09-1,1.08-2.3,1.08-1.38-.69-2.27-1.08-1.41-.56-1.41-1.09.6-.73,1.38-1.31S62,72.08,62,70c0-1.73,0-4.31-1.19-5.27a5.81,5.81,0,0,0-2.35-.93l1.07-2.37s-4.71-1.15-4.71-5.77c0-2.88,3.41-5.3,3.41-5.3m5.29.48L64,52.29l1.39-.66L64.73,53l1.45.52-1.45.51.66,1.4L64,54.8l-.55,1.45L63,54.8l-1.39.66.66-1.4-1.45-.51L62.22,53l-.66-1.4,1.39.66Zm-8.92,9.88A5.66,5.66,0,0,0,57,62.22,9.64,9.64,0,0,0,54.62,64v.06l0,0s-.05,0-.05,0V64a16.18,16.18,0,0,0-2.68-1.66,8,8,0,0,0,2.7-1.6m17.8,0a8.35,8.35,0,0,0,2.71,1.6A16.33,16.33,0,0,0,72.41,64v.1s0,0,0,0,0,0,0,0V64a10.33,10.33,0,0,0-2.42-1.78,5.6,5.6,0,0,0,2.44-1.49M59.71,65.18,58.6,66.29l1.11,1.12,1.11-1.12Zm7.51,0-1.09,1.11,1.09,1.12,1.13-1.12Zm-7.51.53.56.58-.56.59-.6-.59Zm7.51,0,.6.58-.6.59-.58-.59Zm-8.53,1.7a13.84,13.84,0,0,1,.59,6.41,2.84,2.84,0,0,0,1.9-2c.11-.74.3-3.49-.46-4Zm9.57,0-2,.4c-.75.47-.59,3.22-.45,4a2.83,2.83,0,0,0,1.87,2,14.89,14.89,0,0,1-.12-2.14,12.78,12.78,0,0,1,.74-4.27m-13.42.45a.61.61,0,0,0-.22,0,1.3,1.3,0,0,0-1,1.6,1.57,1.57,0,0,0,.12.3l-.31-.07h-.14A1.36,1.36,0,0,0,52,71a1.34,1.34,0,0,0,1.24,1.39,1.05,1.05,0,0,0,.31,0c0,.08-.12.18-.17.28a1.33,1.33,0,0,0,2.47,1,.76.76,0,0,0,.07-.31l.23.24a1.32,1.32,0,0,0,1.69-2l-.26-.17a1.46,1.46,0,0,0,.28-.14,1.31,1.31,0,0,0,.42-1.82,1.3,1.3,0,0,0-1.21-.61,1.31,1.31,0,0,0-.61.21,1.57,1.57,0,0,0-.26.19,1.62,1.62,0,0,0,0-.31,1.32,1.32,0,0,0-1.36-1M59.4,68l1.09.25c.41.55.33,1.46.33,2.72a2,2,0,0,1-.94,1.76A17.55,17.55,0,0,0,59.4,68m8.15,0a17.18,17.18,0,0,0-.5,4.73A2,2,0,0,1,66.11,71a5.32,5.32,0,0,1,.33-2.72Zm-12.6.4a1,1,0,0,1,1,.77,1.27,1.27,0,0,1,0,.34c0,.09,0,.18-.07.25a1.69,1.69,0,0,0-.5-.08,1.45,1.45,0,0,0-1.13.51,1.3,1.3,0,0,1-.19-.22.84.84,0,0,1-.12-.31,1,1,0,0,1,.73-1.24l.22,0m16.39.42a2.62,2.62,0,0,0-2.74,2.9,3.37,3.37,0,0,0,2.58,2.8,2.79,2.79,0,0,1-.43-1.26,2.63,2.63,0,0,1,2.75-2.89,4.06,4.06,0,0,1,.78.1,3.47,3.47,0,0,0-2.94-1.65M57,69.19a1,1,0,0,1,.81.48,1.05,1.05,0,0,1-.31,1.43,1.25,1.25,0,0,1-.31.12,1.37,1.37,0,0,1-.28,0v0A1.49,1.49,0,0,0,56,69.82a1,1,0,0,1,.14-.25.68.68,0,0,1,.25-.22,1.1,1.1,0,0,1,.58-.16m14.34.23a2.75,2.75,0,0,1,1.47.43,3.24,3.24,0,0,0-2.66,3.47,2.65,2.65,0,0,1-1-1.66,2,2,0,0,1,2.16-2.24M53.68,70a1.77,1.77,0,0,1,.33.08.94.94,0,0,1,.22.15,1.51,1.51,0,0,0-.3.92,1.48,1.48,0,0,0,.19.74.84.84,0,0,1-.27.13,1.05,1.05,0,0,1-.31,0,1,1,0,0,1,.14-2m1.76.16a1,1,0,0,1,0,2,1,1,0,1,1,0-2m1.47,1.13a1.64,1.64,0,0,1,.28.07,1.35,1.35,0,0,1,.29.16A1,1,0,0,1,57.6,73a1,1,0,0,1-1.45.13,1.27,1.27,0,0,1-.21-.25,1.39,1.39,0,0,1-.1-.26,1.49,1.49,0,0,0,1.07-1.29M54.18,72a1.5,1.5,0,0,0,1.26.67,2.43,2.43,0,0,0,.31,0c0,.1,0,.19,0,.3a2,2,0,0,1-.08.31,1,1,0,0,1-1.33.57,1,1,0,0,1-.59-1.34.68.68,0,0,1,.2-.27c0-.08.11-.13.2-.19m7.52,2.44c-.93,0-1.52.21-1.52.47s.59.48,1.52.48a.48.48,0,1,0,0-1m3.55,0a.48.48,0,1,0,0,1c.93,0,1.49-.19,1.49-.48s-.56-.47-1.49-.47"/><path id="_Compound_Path_4" data-name="&lt;Compound Path&gt;" class="cls-4" d="M48.56,47.91s1.24.9,1.24,1.84V71.9a1.93,1.93,0,0,0,.47,1.34,5.8,5.8,0,0,0,1.55,1.36,66.9,66.9,0,0,0,7.67,3.74c2.07.94,2.89,1.32,4,2.64,1.09-1.32,1.94-1.7,4-2.64a66.9,66.9,0,0,0,7.67-3.74,6.5,6.5,0,0,0,1.55-1.36,2,2,0,0,0,.45-1.34V49.75c0-.94,1.21-1.84,1.21-1.84H48.56Zm1.57.71H76.79a1.78,1.78,0,0,0-.38,1.13V71.9c0,.49-.47,1.62-3.38,3.07-4.79,2.38-8.47,3.49-9.58,4.85-1.08-1.36-4.76-2.47-9.55-4.85-2.89-1.45-3.4-2.58-3.4-3.07V49.75a1.81,1.81,0,0,0-.37-1.13"/><path id="_Path_64" data-name="&lt;Path&gt;" d="M62.79,34.37a.93.93,0,0,1-1,.79c-.57,0-1.05-.36-1.05-.79s.48-.79,1.05-.79a.92.92,0,0,1,1,.79Z"/><path id="_Path_65" data-name="&lt;Path&gt;" class="cls-8" d="M56.79,33.91A1.39,1.39,0,0,1,58,33.27l1.54,0c.17.42.87,1.1.87,1.81a3.1,3.1,0,0,0-2.77-1.31,2.12,2.12,0,0,0-.85.17"/><path id="_Path_66" data-name="&lt;Path&gt;" d="M59.42,34.09s-.49-.16-.49-.32.23-.23.37-.05a.6.6,0,0,1,.12.37"/><path id="_Path_67" data-name="&lt;Path&gt;" class="cls-8" d="M60.11,35.31a3.16,3.16,0,0,0-.52.7,4.91,4.91,0,0,1-1.18-.94,3,3,0,0,0,1.7.24"/><path id="_Compound_Path_5" data-name="&lt;Compound Path&gt;" d="M92.05,58.18l-1.58,1.16.17.38a.89.89,0,0,0-.43.34.85.85,0,0,0,.09.64,6.89,6.89,0,0,0-1.75,0c-.21.14.09,1.2,0,2.07-.19,1.24-.69,1.14-.71,1.37a1.7,1.7,0,0,0,.19.6s-.26.09-.33.21.07.54-.05.78C87,67,86,69,85.32,70.22c-.09.16-.33.24-.47.48a1,1,0,0,0,0,.54.75.75,0,0,0-.59.31,1.24,1.24,0,0,0-.05.72.55.55,0,0,0-.41.3c-.14.28.11.42,0,.54C83,74.81,82,76.82,81.33,78c-.22.44-1,.53-1.51,1.44A1.39,1.39,0,0,0,80,81s-.68.06-.86.41a.9.9,0,0,0,.46,1.14.89.89,0,0,0,1.18-.31c.17-.34-.18-.92-.18-.92A1.38,1.38,0,0,0,82,80.58c.46-.91,0-1.6.3-2,.64-1.22,1.66-3.22,2.53-4.92,0-.11.3,0,.43-.3a.44.44,0,0,0,0-.49,1.34,1.34,0,0,0,.56-.48.77.77,0,0,0-.09-.65,1,1,0,0,0,.45-.33c.1-.24,0-.47.1-.65.67-1.27,1.64-3.18,2.27-4.47.14-.23.51-.3.59-.49s0-.41,0-.41a1.5,1.5,0,0,0,.61-.2c.18-.15-.18-.49.69-1.37.64-.64,1.63-1,1.63-1.27s-1-1.42-1-1.42a.76.76,0,0,0,.55-.31.82.82,0,0,0,0-.56l.39-.07Zm-15,28.43a.5.5,0,0,0-.37.23.54.54,0,0,0,0,.43s-.49-.15-.66-.07a11.8,11.8,0,0,0,0,2.45,12.12,12.12,0,0,0,2-1.45c-.05-.18-.46-.5-.46-.5a.53.53,0,0,0,.36-.25c0-.13.07-.49-.39-.73a.86.86,0,0,0-.45-.11"/><path id="_Compound_Path_6" data-name="&lt;Compound Path&gt;" class="cls-4" d="M91.77,58.76l-.92.66.45.24.47.24Zm-.89,1.09a.57.57,0,1,0,.3.07.76.76,0,0,0-.3-.07M89.12,61c-.14,0-.26,0-.26,0s0,.91,0,1.64a1.9,1.9,0,0,1-.41,1.11c-.06.22-.5.48-.5.48l.34.32s.21-.34.57-1a16.5,16.5,0,0,0,.5-2.28A7.47,7.47,0,0,1,90.3,61s-.78-.05-1.18,0m1.45.21a3.35,3.35,0,0,0-1,.28A21.58,21.58,0,0,1,89,63.65a11.79,11.79,0,0,1-.58,1l.24.12.23.11s.13-.3.5-1c.46-.93,1.46-1.58,1.47-1.75a4,4,0,0,0-.32-1m.28.1a8.14,8.14,0,0,1,.31.92c0,.14-1.14,1-1.55,1.74s-.47,1-.47,1l.45.06a2.61,2.61,0,0,1,.07-.69,2,2,0,0,1,.71-.94c.55-.46,1.32-.86,1.32-1a10.77,10.77,0,0,0-.84-1.17M88.25,65a.39.39,0,0,0-.33.21A7.48,7.48,0,0,1,87.2,67c-.31.6-.43.84-.77,1.48l-.81,1.6a.32.32,0,0,0,.15.47.3.3,0,0,0,.43-.17s.5-.94.83-1.6.45-.88.76-1.49a7.84,7.84,0,0,1,1-1.61c.13-.2.1-.44-.21-.59a.47.47,0,0,0-.3-.06m-3,5.66a.35.35,0,0,0-.27.13c-.09.17.08.42.33.57s.58.11.67-.06-.07-.43-.36-.55a.65.65,0,0,0-.37-.09m-.41.82a.44.44,0,0,0-.42.19c-.13.23,0,.53.4.69a.57.57,0,0,0,.79-.09c.09-.21-.08-.51-.41-.69a1.21,1.21,0,0,0-.36-.1m-.55,1a.27.27,0,0,0-.25.14c-.08.16.06.4.33.55s.57.1.64-.06,0-.42-.31-.56a.87.87,0,0,0-.41-.07m-.23.87a.49.49,0,0,0-.27.19s-1.75,3.44-2.33,4.66c-.19.38-1,.62-1.36,1.25a1,1,0,1,0,1.7.89c.32-.65,0-1.45.24-1.84l2.35-4.64a.32.32,0,0,0-.14-.48.26.26,0,0,0-.19,0m-4.22,7.92a.5.5,0,0,0-.45.25.67.67,0,0,0,1.16.59.61.61,0,0,0-.33-.76.69.69,0,0,0-.38-.08m-2.78,5.51c-.08,0-.19,0-.21.11s.07.31.32.45.49.1.53,0-.06-.33-.3-.45a.63.63,0,0,0-.34-.08m-.82.65v1.68l1.4-1a1.6,1.6,0,0,0-.61-.55,1.52,1.52,0,0,0-.79-.15"/><path id="_Path_68" data-name="&lt;Path&gt;" class="cls-4" d="M62.48,34.37a.72.72,0,1,1-.71-.72.72.72,0,0,1,.71.72Z"/><path id="_Path_69" data-name="&lt;Path&gt;" d="M62.07,34.37a.33.33,0,0,1-.3.33.34.34,0,1,1,0-.67.33.33,0,0,1,.3.34"/></g></g></g></g></g></g></g></svg>