<svg id="Layer_1" data-name="Layer 1" xmlns="http://www.w3.org/2000/svg" xmlns:xlink="http://www.w3.org/1999/xlink" viewBox="0 0 128 128"><defs><style>.cls-1{fill:none;}.cls-2{clip-path:url(#clip-path);}.cls-3{clip-path:url(#clip-path-2);}.cls-4{fill:#caad42;}.cls-5{fill:#b31f31;}.cls-6{fill:#ab6a31;}.cls-7{fill:#355d8e;}.cls-8{fill:#718b42;}</style><clipPath id="clip-path"><circle class="cls-1" cx="64" cy="64" r="64"/></clipPath><clipPath id="clip-path-2"><rect id="_Clipping_Path_" data-name="&lt;Clipping Path&gt;" class="cls-1" x="-45.71" width="219.41" height="128"/></clipPath></defs><title>Flag_circle_Montenegro</title><g class="cls-2"><g id="MONTENEGRO"><g id="_Group_" data-name="&lt;Group&gt;"><g id="_Clip_Group_" data-name="&lt;Clip Group&gt;"><g class="cls-3"><rect id="_Path_" data-name="&lt;Path&gt;" class="cls-4" x="-45.71" width="219.41" height="128"/><rect id="_Path_2" data-name="&lt;Path&gt;" class="cls-5" x="-39.3" y="6.4" width="206.61" height="115.19"/><g id="_Clip_Group_2" data-name="&lt;Clip Group&gt;"><g class="cls-3"><path id="_Compound_Path_" data-name="&lt;Compound Path&gt;" class="cls-6" d="M91.81,63A15.52,15.52,0,0,0,97,60.5a5.79,5.79,0,0,0,2.35-3.32c.12-.65.21-1.16-.27-.78a26.55,26.55,0,0,1-2.88,2,10.46,10.46,0,0,1-2.4.95c-.52.14-.93.24-.43,0a9.77,9.77,0,0,0,3.44-2.06A7.72,7.72,0,0,0,99.12,53c0-1.16-.07-1.09-.44-.79s-1.73,2-2.48,2.58a23.51,23.51,0,0,1-2.59,1.83c-.6.36-1.46.76-.26-.06a12.34,12.34,0,0,0,4.38-5.25,9.39,9.39,0,0,0,.74-4.22c0-.26-.24-.76-.45-.3a24.23,24.23,0,0,1-2.93,4.79c-1.23,1.31-.93,1.06-1.2,1.27s-.74.58-.15-.15a16.69,16.69,0,0,0,2.43-4.12A13.79,13.79,0,0,0,97,44.21a7.63,7.63,0,0,0-.6-2.72c-.17-.39-.37-.68-.44-.23s-1,3.45-1.55,4.89a17.51,17.51,0,0,1-1.79,3.41c-.21.33-.76,1-.17-.12a20.53,20.53,0,0,0,1.88-7.35,12.25,12.25,0,0,0-.69-5.57,3.75,3.75,0,0,0-.78-1.14,23.37,23.37,0,0,1-.56,5.07A16.76,16.76,0,0,1,90.77,45s-.37.43-.12-.3a12.57,12.57,0,0,0,.7-3.34A15.82,15.82,0,0,0,91,35.52a7.49,7.49,0,0,0-1.65-3c-.3,2.85-.24,6.53-1.29,9.51-.2-.17-.46-.5-.55.16a16.21,16.21,0,0,1-1.88,5.16C84.37,49.7,83.85,50,83.85,50a8.78,8.78,0,0,0-.41-.89c-.17-.32-.26-.48-.48-.05A16.72,16.72,0,0,1,80.46,53C78.88,54.8,78,55.67,78,57a3.14,3.14,0,0,0,1.73,2.68c1,.61,1.11,1,1,1.7s-1,1-1.74,1a7.08,7.08,0,0,0-2,.14c-.34.2-.36.67-.7,1s-.48.54-.78.58l-.27,0C75.17,60.61,76.57,59,76.57,59l-3.89-4.57-.61.28c0-.05-.07-.12-.11-.18a3,3,0,0,1-.69-2.07,3,3,0,0,0,.93.1c.36-.08.08-.43,0-.77A6.45,6.45,0,0,1,72,49.85c.09-.45.13-.62.13-.62s.55.62.9.62.32-.36.38-.75a3.06,3.06,0,0,1,.8-1.73,2.64,2.64,0,0,0,1.33.43A3.48,3.48,0,0,0,78,46.87c.76-.73.74-.9.74-.9a10.81,10.81,0,0,0,2.49.55A2.64,2.64,0,0,0,84,45.27a2.44,2.44,0,0,0-.27-2.37c-.13-.17-.49-.32-.49,0a1.79,1.79,0,0,1-.64,1.6,1.83,1.83,0,0,1-1.76.21,5.78,5.78,0,0,0-2.49-.3,4.44,4.44,0,0,0-1,.21A5.1,5.1,0,0,1,79,43.52a1.36,1.36,0,0,1,1.57.4c.26.3.48.83.69.09A2.72,2.72,0,0,0,81,41.86a2,2,0,0,0-1.9-.8,4.2,4.2,0,0,0-1.07.2,2.22,2.22,0,0,0-1.43-1.36,5.67,5.67,0,0,0-3.7.81,3.82,3.82,0,0,1-1.72-.05,5.66,5.66,0,0,1-1.46-.72c.1-.34.3-.94.3-.94l.49-.18c.27-.09.22-.18.25-.39s-.49-.6-.49-.6-.08-.64.78-1.09.76-.36.76-.36.5.09.7-.07.19-.23.19-.23a1.1,1.1,0,0,0,.53-.35,1.08,1.08,0,0,0,.07-.83c-.1-.25-.24-.3-.09-.43a1.34,1.34,0,0,0,.28-.64v-.27s.29-.09.27-.54-.24-.62-.38-.66a.87.87,0,0,0-.23,0,1.5,1.5,0,0,0-.25-.62,5.62,5.62,0,0,0-.37-.5.37.37,0,0,0,.07-.41.72.72,0,0,0-.91-.53s-.66-.42-1-.58l-.39-.2a1,1,0,0,0-.13-.42.71.71,0,0,0-.52-.23.66.66,0,0,0-.28.09s-1.14-.3-1.6-.36a1.74,1.74,0,0,1-.49-.12,11.51,11.51,0,0,0-1.4-.57,3.77,3.77,0,0,1-.51-.1,2.11,2.11,0,0,0,.44-1.06A1.59,1.59,0,0,0,65,25.36a3.78,3.78,0,0,0-.43-.2v-.39l.74.08.07-1.22-.73.09.1-.74H63.24l.11.74-.73-.05.06,1.19.78-.09-.08.45a1.4,1.4,0,0,0-.53.22,1.41,1.41,0,0,0-.7,1.28,2.28,2.28,0,0,0,.35,1.07l-.49.09a10.88,10.88,0,0,0-1.38.57,2.44,2.44,0,0,1-.51.12c-.46.06-1.59.36-1.59.36a.74.74,0,0,0-.3-.09.72.72,0,0,0-.51.23,1,1,0,0,0-.13.42l-.39.2c-.32.16-1,.58-1,.58a.71.71,0,0,0-.41,0,.72.72,0,0,0-.48.53.37.37,0,0,0,.07.41,5.12,5.12,0,0,0-.39.5,1.55,1.55,0,0,0-.24.62,1,1,0,0,0-.23,0c-.14,0-.36.21-.38.66s.27.54.27.54,0,0,0,.27a1.17,1.17,0,0,0,.28.64c.14.13,0,.18-.09.43a1,1,0,0,0,.07.83,1.09,1.09,0,0,0,.52.35s0,.09.19.23.71.07.71.07-.11-.07.75.36.78,1.09.78,1.09-.52.38-.49.6,0,.3.25.39l.49.18s.21.6.3.93a5.51,5.51,0,0,1-1.46.73,3.73,3.73,0,0,1-1.7.05,5.72,5.72,0,0,0-3.71-.81,2.16,2.16,0,0,0-1.43,1.36,4.23,4.23,0,0,0-1.08-.2,2,2,0,0,0-1.9.8A2.72,2.72,0,0,0,46.64,44c.2.74.44.21.71-.09a1.31,1.31,0,0,1,1.55-.4,5,5,0,0,1,1.65,1.1,4.44,4.44,0,0,0-1-.21,5.69,5.69,0,0,0-2.47.3,1.88,1.88,0,0,1-1.79-.21,1.83,1.83,0,0,1-.65-1.6c0-.32-.34-.17-.46,0a2.45,2.45,0,0,0-.29,2.37,2.66,2.66,0,0,0,2.78,1.25A10.66,10.66,0,0,0,49.13,46s0,.17.74.9a3.49,3.49,0,0,0,2.42.93,2.58,2.58,0,0,0,1.31-.43,2.84,2.84,0,0,1,.82,1.73c.06.39,0,.75.38.75s.92-.62.92-.62,0,.17.1.62a6.81,6.81,0,0,1-.14,1.94c-.12.34-.37.69,0,.77a3.3,3.3,0,0,0,.92-.1,3.08,3.08,0,0,1-.68,2.07.69.69,0,0,0-.11.17l-.58-.27L51.32,59s1.4,1.61,1.32,5.23v0l-.28,0c-.3,0-.45-.24-.78-.58s-.36-.8-.7-1a7,7,0,0,0-2-.14c-.73,0-1.59-.28-1.73-1s0-1.09,1-1.7A3.12,3.12,0,0,0,49.83,57c.06-1.37-.83-2.24-2.41-4.07a16.18,16.18,0,0,1-2.49-3.89c-.23-.43-.32-.27-.49.05S44,50,44,50s-.53-.32-1.81-2.67a16.64,16.64,0,0,1-1.87-5.16c-.11-.66-.36-.33-.56-.16-1-3-1-6.66-1.28-9.51a7.41,7.41,0,0,0-1.64,3,16,16,0,0,0-.35,5.86,11.65,11.65,0,0,0,.71,3.34c.25.73-.13.3-.13.3a17.66,17.66,0,0,1-1.53-4.57A22.75,22.75,0,0,1,35,35.38a3.54,3.54,0,0,0-.8,1.14c-.42.84-.83,2.51-.7,5.57a20.75,20.75,0,0,0,1.88,7.35c.58,1.09,0,.45-.18.12a19,19,0,0,1-1.77-3.41c-.53-1.44-1.48-4.42-1.57-4.89s-.25-.16-.43.23a7.66,7.66,0,0,0-.59,2.72,13.45,13.45,0,0,0,.82,4.33,16.37,16.37,0,0,0,2.44,4.12c.58.73.11.36-.16.15s0,0-1.18-1.27a24.54,24.54,0,0,1-2.95-4.79c-.21-.46-.42,0-.44.3a9.29,9.29,0,0,0,.73,4.22,12.21,12.21,0,0,0,4.39,5.25c1.2.82.35.42-.28.06a24.46,24.46,0,0,1-2.58-1.83c-.74-.62-2.09-2.29-2.47-2.58s-.47-.37-.44.79a7.64,7.64,0,0,0,2.3,4.38A9.77,9.77,0,0,0,34.5,59.4c.51.21.08.11-.43,0a10.64,10.64,0,0,1-2.4-.95,28.71,28.71,0,0,1-2.88-2c-.47-.38-.41.13-.26.78a5.74,5.74,0,0,0,2.35,3.32A15.43,15.43,0,0,0,36.07,63c.74.21.21.21.21.21s-.29,0-1.81-.39A18.49,18.49,0,0,1,30,60.86c-.62-.39-.72-.53-.64.3a5.38,5.38,0,0,0,2.37,3.39,13.12,13.12,0,0,0,4.59,1.29c.66,0,.49.12.19.14a12,12,0,0,1-2.22-.11,17,17,0,0,1-2.92-.76l-.13-.54c-.06-.3-.22-.26-.32-.19a5.49,5.49,0,0,1-.52.31c-.35.17-.35,0-.37-.16S30,64,30,63.74s-.13-.24-.3-.17-.94.41-1.23.53,0,.36.12.63l.39.69-1,.26c-.23.07-.16.22-.1.39s.42,1,.51,1.21.31.09.31.09l.73-.43.24,1a2.8,2.8,0,0,0-.7.34c-.37.26-.27.6.17.72a2.42,2.42,0,0,1,1.54,1.4c.57,1,.72,2.9,1.06,5.84a6.86,6.86,0,0,0,2.5,4.64c.26.19.11.33.11.33a1.26,1.26,0,0,0-.14.94,1.43,1.43,0,0,0,.86,1,.3.3,0,0,1,.18.36,6.67,6.67,0,0,0,0,1.77,5.61,5.61,0,0,0,1.34,2.67c.25.23.28.34.24.43s-.2,0-.51.25a3.28,3.28,0,0,0-.9,1,1.83,1.83,0,0,0-.07,1.22c.07.55.89,1.06.89,1.06s-.14,0-.19.44a1.49,1.49,0,0,0,.64,1.16,3.11,3.11,0,0,0,1.07.45s.05.36.09.6.5.48.8.64a1.51,1.51,0,0,0,1.09,0c.25-.1.42,0,.56.27a4.68,4.68,0,0,1,.1,1.53c0,.38-.22.77-.1.95s.5.06.83-.15.46-.06.77.15a2.48,2.48,0,0,0,1,.37c.12,0,.07-.35.07-.63s0-.91.17-1a9.21,9.21,0,0,0,1-.26c.19-.09.44-.17.46-.35s-.27-.19-.87-.51a8.39,8.39,0,0,1-1.11-.75c-.38-.26-.2-.36-.2-.46s.19-.24.26-.4a1.28,1.28,0,0,0,0-.48s.31-.32.45-.48a5.85,5.85,0,0,1,.54-.6,12.91,12.91,0,0,0,.72-1.21c.2-.26.68-.55.94-.9A7.47,7.47,0,0,1,46.8,89c.42-.28,1.57-.82,1.57-.82a1.76,1.76,0,0,0,.28,1c.29.33.69-.26,2-1.19A9.73,9.73,0,0,1,53,86.78s.28.42.63.86.67,0,2.28-2.24a30.12,30.12,0,0,1,3.58-4,1.73,1.73,0,0,1,.37.16c0,.08-.06.17-.11.28A9.51,9.51,0,0,1,59,83.3c-.31.64-.79.78-1.34,1.65A4.25,4.25,0,0,0,57,87.29c-.06.88.43,1.06.43,1.06a5.81,5.81,0,0,0-1.05,1.39A9.86,9.86,0,0,0,56,91.53s-.12,0-.42.66-.83.7-1.6,1.48a8,8,0,0,1-2,1.34c-.41.23-.29.47-.19.79s.68.62,1.31.87a2.41,2.41,0,0,0,1.31.12c.45,0,.1.34-.09.52a2.48,2.48,0,0,0-.39,1.55c0,.7.58.54,1.24.44a8.29,8.29,0,0,0,1.44-.44l-.08.21a2.2,2.2,0,0,0-.11.91c0,.57.09.86.26,1s.5-.17.75-.23a7.91,7.91,0,0,1,1.22-.45,1.38,1.38,0,0,0,.81-.39,1.17,1.17,0,0,0-.17.6,5,5,0,0,0,0,1.35,2.82,2.82,0,0,0,.77,1.16c.4.36.5.19.78-.27a8.77,8.77,0,0,1,.91-1s0,.15.46,1.46a6.1,6.1,0,0,0,1.72,2.4,6.19,6.19,0,0,0,1.73-2.4c.41-1.31.44-1.46.44-1.46a7.38,7.38,0,0,1,.9,1c.3.46.4.63.81.27a2.89,2.89,0,0,0,.76-1.16,6,6,0,0,0,.06-1.35,1.1,1.1,0,0,0-.2-.6,1.5,1.5,0,0,0,.82.39,8.15,8.15,0,0,1,1.23.45c.25.06.57.38.75.23s.26-.42.26-1a2,2,0,0,0-.12-.91l-.07-.21a8.29,8.29,0,0,0,1.44.44c.66.1,1.2.26,1.23-.44a2.43,2.43,0,0,0-.38-1.55c-.19-.18-.54-.54-.09-.52a2.37,2.37,0,0,0,1.3-.12c.65-.25,1.2-.56,1.3-.87s.24-.56-.18-.79a7.77,7.77,0,0,1-2-1.34c-.78-.78-1.32-.87-1.6-1.48s-.43-.66-.43-.66a9.54,9.54,0,0,0-.36-1.79,5.76,5.76,0,0,0-1.06-1.39s.5-.18.44-1.06A4.25,4.25,0,0,0,70.2,85c-.55-.87-1-1-1.36-1.65a11.43,11.43,0,0,1-.68-1.41,2.31,2.31,0,0,1-.1-.28c.15-.08.32-.13.47-.2a28.21,28.21,0,0,1,3.6,4c1.61,2.23,1.92,2.68,2.27,2.26s.64-.89.64-.89A10.55,10.55,0,0,1,77.34,88c1.3.93,1.7,1.52,2,1.18a1.15,1.15,0,0,0,.2-.69s.76.23,1.62.53c.53.18,1.1.41,1.53.59a7.31,7.31,0,0,1,2.16,1.45,3.79,3.79,0,0,0,3.42.27c1.22-.38,4.47-1.44,5.77-2A7.41,7.41,0,0,0,96.41,88a4.49,4.49,0,0,0,.28-1.25,1.27,1.27,0,0,0-.38-.72c-.1-.07,0-.27,0-.44a1.44,1.44,0,0,0-.27-.87c-.21-.23-.18-.32-.16-.94a3.93,3.93,0,0,0-2.26-3.57.45.45,0,0,0-.14-.26,1.11,1.11,0,0,0-.28-.16s0-.77,0-1,.07-.14.16-.1a1.15,1.15,0,0,0,.44.3c.24,0,.38-.11.42-.36a10.09,10.09,0,0,1,.3-1c.09-.24,0-.28-.11-.31s-.43-.06-.59-.11-.15,0-.13-.11a6.11,6.11,0,0,1,.31-.53c.19-.32,0-.32-.18-.39s-1-.32-1.3-.36-.29.16-.29.27,0,.54,0,.7-.15.12-.24.07l-.47-.29c-.16-.14-.28,0-.35.16s-.26.93-.33,1.17,0,.39,0,.42a4.81,4.81,0,0,0,.77,0c.27,0,.12.15.12.15l-.38.62c-.07.18-.23.2-.45.2h-.55a5,5,0,0,0-2.45.82A3.88,3.88,0,0,0,86.5,82c-.17.38-.36.3-.52.42s-.6.62-.6.91.09.45-.35.74a1.72,1.72,0,0,0-.22,2.22,7.12,7.12,0,0,1,1,1.66c.2.31,0,.44-.15.44a2.45,2.45,0,0,1-.77-.48c-.28-.21-1.69-1.3-2.29-1.74s-.14-.41-.14-.41A1.13,1.13,0,0,0,83,85.6c.35-.15.41-.35.06-.45a4.43,4.43,0,0,1-1.22-.69c-.18-.19-.29-.38.08-.58s1.12-.69.5-.84-1.31-.3-1.91-.46-.65-.34-.65-.34l.38-.56s.32-.45,0-.5a8.39,8.39,0,0,1-2.07-.52,5,5,0,0,1-3-3.35l0,0c.31.61,1,1.73,2.09,1.76,1.45,0,1.62-.4,1.28-.88s-.71-.91-.82-1.06-.11-.33.27,0a3.6,3.6,0,0,0,3.3,1.43c2.2-.15,2.19-.56,2.19-.69,0-.42-.44-.49-.71-.76s-.21-.34.21-.16a5.84,5.84,0,0,0,3,0c.6-.13,2.14-.8,2.29-1.58a5.92,5.92,0,0,1-1.67-.36c-.69-.28-1.11-.52-.36-.38a6.8,6.8,0,0,0,3.38,0,2.16,2.16,0,0,0,1.68-1.9s-1.36-.3-1.87-.48a2.36,2.36,0,0,1-.65-.31,5.42,5.42,0,0,0,3.68-.27c1.77-.9,1.84-2.1,1.84-2.38a1.1,1.1,0,0,0,0-.38,14,14,0,0,1-2.8.38,6.08,6.08,0,0,1-1.56-.12s3.35-.1,5-1.12a4.08,4.08,0,0,0,1.79-3,19.79,19.79,0,0,1-3.1.81,12.06,12.06,0,0,1-2.23.11c-.29,0-.45-.11.2-.14a13.23,13.23,0,0,0,4.59-1.29,5.42,5.42,0,0,0,2.37-3.39c.08-.83,0-.69-.64-.3a18.77,18.77,0,0,1-4.45,1.93c-1.51.35-1.83.39-1.83.39s-.52,0,.24-.21M31.74,66.79l-.68.41-.34-.73c-.07-.16,0-.23.06-.23s.38-.08.59-.1l.09,0a3.86,3.86,0,0,0,.3.67h0m20.48,12a5.47,5.47,0,0,1-2.33,1.91,8.32,8.32,0,0,1-2.08.53c-.37,0-.05.49-.05.49l.38.55s0,.18-.65.34-1.3.3-1.91.47.17.67.52.85.26.4.07.58a4.29,4.29,0,0,1-1.22.67c-.34.13-.3.31.07.46a9,9,0,0,0,1.31.33,5.25,5.25,0,0,1-.63.48,4.65,4.65,0,0,1-2.29.78c-.69,0-1.77.07-3.16,0a14,14,0,0,1-1.52-.1s0-.46-.14-1.14a5.6,5.6,0,0,0-.82-2.08c-.33-.43-1-1.32-1-1.32s0-.18.06-.4a1.39,1.39,0,0,0-.13-.88,3.66,3.66,0,0,0-1-1s0-.45,0-.87a14.79,14.79,0,0,0-.55-2.82,29.06,29.06,0,0,0-2.08-3.74A10.42,10.42,0,0,1,32,69.38,4.28,4.28,0,0,1,32,67.61a3.42,3.42,0,0,1,.13-.34,3.3,3.3,0,0,0,.93.83c1.68,1,5,1.12,5,1.12a6.08,6.08,0,0,1-1.56.12A14,14,0,0,1,33.67,69a1.1,1.1,0,0,0,0,.38c0,.28.08,1.48,1.83,2.38a5.42,5.42,0,0,0,3.68.27,2.16,2.16,0,0,1-.65.31c-.5.18-1.86.48-1.86.48a2.15,2.15,0,0,0,1.67,1.9,6.83,6.83,0,0,0,3.39,0c.73-.14.32.09-.37.38a5.8,5.8,0,0,1-1.67.36c.16.78,1.71,1.45,2.29,1.58a5.78,5.78,0,0,0,3,0c.44-.18.35,0,.22.16s-.7.34-.7.76c0,.13,0,.54,2.18.69A3.64,3.64,0,0,0,50,77.12c.37-.36.34-.18.25,0s-.48.57-.81,1.06-.16.93,1.29.88c1.07,0,1.77-1.17,2.09-1.77v0a.31.31,0,0,1,.07.09c-.15.35-.39.93-.64,1.41m17.72-47.5-.31-.56a5.08,5.08,0,0,1,1.33,1,1.91,1.91,0,0,1,.55,1.13A4.23,4.23,0,0,1,71.45,34a1.45,1.45,0,0,0,0,.93,2,2,0,0,0,.18.25,5.66,5.66,0,0,0-.71.23c-.35.14-.8.26-1.06,0s-.31-.35-.15-.49a1.46,1.46,0,0,0,.81-1.32,4.77,4.77,0,0,0-.59-2.41M65.43,34a3.34,3.34,0,0,0,.12-1.91c-.11-.82-.28-1.53-.33-2.43a3.77,3.77,0,0,1,1.5.95,2.94,2.94,0,0,1,1.08,2c0,.39-.22.88-.24,1.27a1.5,1.5,0,0,0,.1.73,5.66,5.66,0,0,0-.61.34,1.3,1.3,0,0,1-.94.31,2.12,2.12,0,0,1-1-.36,1.35,1.35,0,0,0-.43-.16,1.71,1.71,0,0,0,.71-.77m-4.29-3.39a3.79,3.79,0,0,1,1.49-.95c0,.9-.2,1.61-.31,2.43A3.19,3.19,0,0,0,62.43,34a1.77,1.77,0,0,0,.71.77,1.76,1.76,0,0,0-.43.16,2.17,2.17,0,0,1-1,.36,1.3,1.3,0,0,1-.93-.31,5.66,5.66,0,0,0-.61-.34,1.74,1.74,0,0,0,.11-.73c0-.39-.25-.88-.25-1.27a3,3,0,0,1,1.08-2M58,35.5c-.25.21-.71.09-1,0a6.11,6.11,0,0,0-.72-.23,1.25,1.25,0,0,0,.18-.25,1.36,1.36,0,0,0,0-.93,3.91,3.91,0,0,1-.06-1.24,1.94,1.94,0,0,1,.54-1.13,5.29,5.29,0,0,1,1.32-1s-.09.19-.3.56a4.8,4.8,0,0,0-.58,2.42A1.44,1.44,0,0,0,58.14,35c.15.14.08.28-.16.49m11.7,8.44c-.86.47-1.36.36-1.33.72s.81.62.81.62a9.57,9.57,0,0,1-1.4,1.24,7.11,7.11,0,0,1-1.34.63s-.25,0-.12.43a1.57,1.57,0,0,0,.58.76l.3.14A20.25,20.25,0,0,1,65.64,50a4.26,4.26,0,0,1-1.13.65c-.39.16-.19.8-.11,1.08a1.36,1.36,0,0,0,.62.73c.2.06.27.2,0,.59s-.81,1.06-1.11,1.49h0c-.29-.42-.91-1.21-1.1-1.49s-.18-.53,0-.59a1.32,1.32,0,0,0,.62-.73c.08-.28.28-.92-.11-1.08A4.11,4.11,0,0,1,62.22,50a19.05,19.05,0,0,1-1.55-1.52l.29-.14a1.42,1.42,0,0,0,.59-.76c.15-.39-.1-.43-.1-.43a7,7,0,0,1-1.35-.63,11.28,11.28,0,0,1-1.41-1.24s.78-.28.82-.62-.46-.25-1.34-.72A2.68,2.68,0,0,1,57,42.86a2.85,2.85,0,0,0,1.49-1.35,2,2,0,0,0,.21-1l0,0a18.6,18.6,0,0,0,10.32,0l0,0a1.93,1.93,0,0,0,.2,1,2.89,2.89,0,0,0,1.5,1.35,2.67,2.67,0,0,1-1.14,1.08"/><path id="_Path_3" data-name="&lt;Path&gt;" class="cls-5" d="M51.93,45.32a5.77,5.77,0,0,0-2.22-.67,6.84,6.84,0,0,0-2.53.28,2.7,2.7,0,0,1-1.51,0,2,2,0,0,1-1.41-1.59,1.45,1.45,0,0,0,0,1.73,1.91,1.91,0,0,0,1.14.78c1.36.27,2.7-.56,3.83-.63a3.17,3.17,0,0,1,1.94.61.53.53,0,0,0,.62,0c.36-.19.47-.37.13-.56"/><path id="_Path_4" data-name="&lt;Path&gt;" class="cls-5" d="M83.62,43.39A2.1,2.1,0,0,1,82.19,45a2.7,2.7,0,0,1-1.51,0,6.92,6.92,0,0,0-2.54-.28,5.83,5.83,0,0,0-2.21.67c-.34.2-.23.37.13.56a.55.55,0,0,0,.63,0,3.13,3.13,0,0,1,1.93-.61c1.15.07,2.47.89,3.83.63a2,2,0,0,0,1.14-.79,1.47,1.47,0,0,0,0-1.72"/><path id="_Path_5" data-name="&lt;Path&gt;" class="cls-4" d="M74.94,63.4A8.19,8.19,0,0,1,76.17,59l-3.39-3.88c-3.22,1.25-6.2,1.32-8.85,0-2.63,1.34-5.6,1.27-8.83,0L51.69,59a8.1,8.1,0,0,1,1.25,4.43,24.16,24.16,0,0,1-.83,6A10.45,10.45,0,0,0,52.24,75a7.07,7.07,0,0,0,4.47,4.55c3,1.27,4.61,1.93,5.65,2.8a10,10,0,0,1,1.57,1.58,10.84,10.84,0,0,1,1.59-1.58c1-.87,2.63-1.53,5.64-2.8A7.07,7.07,0,0,0,75.63,75a10.26,10.26,0,0,0,.13-5.53,24.26,24.26,0,0,1-.82-6"/><path id="_Path_6" data-name="&lt;Path&gt;" class="cls-4" d="M48.86,85.07a14.28,14.28,0,0,1-1.44.62,2.23,2.23,0,0,1-.43.1,9.8,9.8,0,0,1-1.3,1,5.11,5.11,0,0,1-1.9.65c-.85.09-3.2.06-4.28,0a2.52,2.52,0,0,0-2.16.73,1.25,1.25,0,0,0,0,1.81.9.9,0,0,0,1.43-.07,1.07,1.07,0,0,0,0-1c-.09-.2.19-.26.48-.28a6.79,6.79,0,0,1,1.26.09,6.46,6.46,0,0,1,1.59.53c.35.18.15.21-.09.17a5.55,5.55,0,0,1-.93-.3,3.51,3.51,0,0,0-1.06-.24c-.27,0-.17.12-.12.21s.2.33.24.43-.09.52-.09.52l.14.25s.16-.25.23-.39,0-.39,0-.51.29-.12.47.09a1.74,1.74,0,0,1,.46,1,1.44,1.44,0,0,1-.08.86,1.23,1.23,0,0,1,.26.3,2.39,2.39,0,0,1-.06.61s.15.08.29-.18a7.62,7.62,0,0,0,.32-1c0-.18.17-.51.38-.25a1.78,1.78,0,0,1,.4.68,1.05,1.05,0,0,1,0,.26,4.57,4.57,0,0,0,.64-.73,5.42,5.42,0,0,1,.94-1c.48-.38,1.26-1.13,1.65-1.39s1.37-.78,1.68-1,.36-.2.42-.72a5.19,5.19,0,0,1,.43-1.36,3.41,3.41,0,0,0,.14-.5"/><path id="_Path_7" data-name="&lt;Path&gt;" class="cls-4" d="M48,84.66l-.32,0a4.24,4.24,0,0,1-.71-.23.37.37,0,0,0-.43.07,12,12,0,0,1-1.11.71h1.63a1.29,1.29,0,0,0,.94-.53"/><path id="_Path_8" data-name="&lt;Path&gt;" class="cls-4" d="M52.57,84.4v-.17l-.21-.47a3.14,3.14,0,0,0-.51.41c-.31.33-.65.8-.8,1-.28.36-.65.69-.33.13s.44-.8.69-1.16.46-.53.42-.55a5.15,5.15,0,0,0-.91-.14,3.6,3.6,0,0,1-1.42-.53c-.3-.18-.87-.48-.87-.48a15.71,15.71,0,0,1-1.58.58c-.44.11-.69.17-.28.39s.79.28,1,.4a3.1,3.1,0,0,0,1.23.33c.39,0,1,0,.8.28A4.63,4.63,0,0,0,48.94,86a5.43,5.43,0,0,0-.29,1.84,5.62,5.62,0,0,0,.05.69,8.74,8.74,0,0,1,1.74-1.33,20.5,20.5,0,0,1,2-1.18c.23-.11.35-.11.32-.4s-.18-1.06-.18-1.2"/><path id="_Path_9" data-name="&lt;Path&gt;" class="cls-4" d="M57.43,80.53l-.25-.11,0,0a4.26,4.26,0,0,0-1.24,1.08c-.31.52-.63.57-.28,0a5,5,0,0,1,.86-1.08l.27-.23a20.43,20.43,0,0,1-2-1.12,2.73,2.73,0,0,1-.43.66,3.13,3.13,0,0,1-.86.52,3.61,3.61,0,0,0,.64-.86,2.89,2.89,0,0,0,.21-.66,8.23,8.23,0,0,1-1.29-1.22,4.53,4.53,0,0,1-1.1,2,7.33,7.33,0,0,1-3,1.69s-.71.07-.13.22a3.5,3.5,0,0,0,2.06.21,8.63,8.63,0,0,0,1.33-.28c.15,0,.56,0,0,.19a7.47,7.47,0,0,1-2.33.36c-.49,0-1.17-.14-.46.22a2.93,2.93,0,0,0,1.43.53c.44,0,.61.13,1,.13a3.09,3.09,0,0,0,.84-.13c.3,0,.49,0,.49.16a2.4,2.4,0,0,0-.38,1.28A6.39,6.39,0,0,0,53,85.66a5.38,5.38,0,0,0,.38.85c.12.23.15.45.28,0s.38-1.16.49-1.63.16-.46.21-.71.29-.41.18,0-.27,1-.34,1.37-.3,1.1.06.53,1.7-2.07,1.92-2.33.41-.53.57-.75.63-.52.85-.85a7.67,7.67,0,0,1,1.05-1.08l-1.2-.52"/><path id="_Path_10" data-name="&lt;Path&gt;" class="cls-4" d="M31.32,65.42c0-.09-.2-.41-.23-.57a.14.14,0,0,0-.21-.07,3.55,3.55,0,0,1-.6.28c-.27.07-.31,0-.34-.17s-.08-.55-.12-.85-.1-.27-.22-.22l-.65.25c-.22.11-.15.21-.08.33s.33.66.44.85,0,.26-.13.32-.32.09-.58.19-.25.14-.23.24a4.82,4.82,0,0,0,.3.62c.1.17.19.06.19.06a3.25,3.25,0,0,1,.52-.38c.24-.12.26-.09.33.1s.33,1.12.39,1.29.14.17.27.11l.43-.12c.15-.05.2-.32.2-.32s-.53-1-.67-1.2,0-.29.12-.32a4.84,4.84,0,0,0,.67-.12c.28-.06.2-.22.2-.3"/><path id="_Path_11" data-name="&lt;Path&gt;" class="cls-4" d="M37.27,91.16c0-.23,0-.46-.18-.63a2.18,2.18,0,0,1-.48-.79c-.07-.3.08-.43,0-.6s-.24-.15-.45,0a1,1,0,0,0-.5.85,1.27,1.27,0,0,0,.89,1.32c.72.22.7,0,.67-.17"/><path id="_Path_12" data-name="&lt;Path&gt;" class="cls-4" d="M38,90.92s-.16-.09-.22,0-.05.21.13.51a1.4,1.4,0,0,0,.52.49c.22.14.08-.14,0-.21s0-.19,0-.25-.08-.16-.08-.37-.35-.2-.35-.2"/><path id="_Path_13" data-name="&lt;Path&gt;" class="cls-4" d="M38.86,93.34c.13-.2.24-.26.57-.41a3.77,3.77,0,0,1,1.12-.24.78.78,0,0,0,.57-.8.73.73,0,0,0-.6-.62c-.27,0-.5,0-.57.06a1,1,0,0,1-.51.39c-.27.08-.32.18-.49.23s0,.17-.19.28-.34,0-.58-.07a1.13,1.13,0,0,0-.49-.1L36.76,92H36.6c-.15,0-.18,0-.23.18a1,1,0,0,0,.17.77c.15.21.69.3,1,.41s.53.14.81.2.34,0,.48-.2"/><path id="_Path_14" data-name="&lt;Path&gt;" class="cls-4" d="M42.1,93.66c.29-.2.13-.52.06-.72s-.46-.24-.65-.24a.58.58,0,0,0-.43.1,1.24,1.24,0,0,1-.53.32c-.31.1-.54.21-.93.36s-.53.43-.7.55a.8.8,0,0,1-.5,0s-.25-.07-.32,0,0,.18.16.38.46.14.81.25.41,0,.55-.06a3.45,3.45,0,0,1,.47-.46,3,3,0,0,1,1-.18,2.57,2.57,0,0,0,1-.3"/><path id="_Path_15" data-name="&lt;Path&gt;" class="cls-4" d="M42.1,92.44c.13.11.26.25.36.08s.28-.54.17-.76a3.08,3.08,0,0,0-.27-.39s-.2.61-.29.78-.09.17,0,.29"/><path id="_Path_16" data-name="&lt;Path&gt;" class="cls-4" d="M41,90.59a2,2,0,0,0-.23-.78,4.21,4.21,0,0,1-.21.61,2.37,2.37,0,0,1-.32.43,3.78,3.78,0,0,0,.49.08c.14,0,.27,0,.27-.34"/><path id="_Path_17" data-name="&lt;Path&gt;" class="cls-4" d="M39,91.33a1.46,1.46,0,0,0,.72-.38.63.63,0,0,0,.16-.68.93.93,0,0,0-.48-.38h-.2a2.09,2.09,0,0,1-.27.53c-.14.17-.31.28-.3.51s0,.48.37.4"/><path id="_Path_18" data-name="&lt;Path&gt;" class="cls-4" d="M39.78,89.62a.68.68,0,0,0-.18-.49,1.82,1.82,0,0,1-.19-.2s0,.27-.06.42-.05.17-.05.17a1.44,1.44,0,0,0,.21.16c.09,0,.26.12.27-.06"/><path id="_Path_19" data-name="&lt;Path&gt;" class="cls-4" d="M35.15,80.11s.45,0,.25-1.59a10.19,10.19,0,0,0-1.66-4.1,19.7,19.7,0,0,1-1.63-3.53,10,10,0,0,1-.49-2.65,1.55,1.55,0,0,1,.27-1s.11-.16,0-.26-.28,0-.46.15a2.26,2.26,0,0,0-.41.7,1.2,1.2,0,0,0-.07.31,2.64,2.64,0,0,0-.86,0c-.55,0-.8.1-.82.2s.07.2.45.37a2.18,2.18,0,0,1,.83.47,8.21,8.21,0,0,1,.85,1.95A23.3,23.3,0,0,1,32,74.38a13.17,13.17,0,0,0,1.09,3.84c.19.39,1.19,2.26,2,1.89"/><path id="_Path_20" data-name="&lt;Path&gt;" class="cls-4" d="M36.13,82.89c-.37.2-.36,1.7-.19,2.48a5.6,5.6,0,0,0,1.15,2c.23.27.28.27.42.2a.42.42,0,0,1,.18-.06,3.35,3.35,0,0,0,.55-.3c.26-.21.16-.69.11-1.09a6.27,6.27,0,0,0-1-2.26c-.58-1-.88-1.17-1.24-1"/><path id="_Path_21" data-name="&lt;Path&gt;" class="cls-4" d="M36.54,81.68a.89.89,0,0,0-.91-.86.8.8,0,0,0-.56.17c-.51.46-.19,1.57.52,1.57a1.09,1.09,0,0,0,.74-.23.91.91,0,0,0,.21-.65"/><path id="_Path_22" data-name="&lt;Path&gt;" class="cls-4" d="M43.61,95.73a1.41,1.41,0,0,1-.59-.3,3,3,0,0,1-.84-.8c-.08-.19-.08-.19-.35-.1a4.3,4.3,0,0,1-1,.07c-.3,0,0,.36.24.67a3.38,3.38,0,0,1,.14,1.35,1,1,0,0,1,0,.24c-.06.15,0,.25,0,.29s.13,0,.34-.28a8.32,8.32,0,0,0,.58-.87l.38.1A2.78,2.78,0,0,0,43.68,96c.25-.08.14-.27-.07-.31"/><path id="_Path_23" data-name="&lt;Path&gt;" class="cls-4" d="M42.39,96.53c-.14,0-.21,0-.28.07A3.73,3.73,0,0,0,42,97a.2.2,0,0,0,.06.24l.2.15a.75.75,0,0,0,.23.18c.11.07.14-.11.14-.23s.07-.36.07-.52-.13-.21-.26-.24"/><path id="_Path_24" data-name="&lt;Path&gt;" class="cls-4" d="M38.87,46.1a9.84,9.84,0,0,0,1.46,3.23c.52.84.66,1.19.58,1.23s-.3-.37-.61-.75-.82-1.24-1.28-1.9a25.23,25.23,0,0,1-1.24-2.38c-.09-.16-.12-.25-.36-.05a3.87,3.87,0,0,0-.14,3.09A10.16,10.16,0,0,0,39,51c.35.42.79,1.06.72,1.12s-.19-.12-.6-.55-1.1-1.16-1.54-1.69a11.62,11.62,0,0,1-1-1.64c-.06-.12-.16-.08-.21,0s-.39.48-.29,1.42a4.51,4.51,0,0,0,1.43,2.72c.6.66,1.21,1.22,1.13,1.31s-.72-.47-1.15-.87-1.48-1.44-1.71-1.72-.57-.15-.56,1,1.27,2.26,1.79,2.91,1.16,1,1.1,1.1-.57-.19-.91-.42l-1.85-1.23c-.24-.18-.37.16-.06,1.23A4.84,4.84,0,0,0,37,58c.54.4,1.44.88,1.38,1s-.42,0-1-.27a10.18,10.18,0,0,0-1.58-.61c-.46-.13-.44.2-.44.2A2.28,2.28,0,0,0,36,59.93a3.58,3.58,0,0,0,2.12,1.14c.72.12.82.16.81.28s-.09.12-.26.12-.8.07-1.41.07-.92.14-.92.41,0,.62.88,1.23a6.29,6.29,0,0,0,2.35.8c.43.08.44.11.36.24s-.29.11-1,.18a1.54,1.54,0,0,0-1.18.51,1.12,1.12,0,0,0,.61,1.1,3.58,3.58,0,0,0,2.33.42c1.08-.06,1.35-.09,1.37.1s-.31.23-.85.31A2.57,2.57,0,0,0,40,67.2c-.3.24-.07.74.45,1.13a5,5,0,0,0,2.33.34c.53,0,1.36-.24,1.42-.1s-.39.36-.94.56-.72.31-.83.56,0,.44.64.69a3.09,3.09,0,0,0,2.12,0c.5-.24.77-.32.86-.24s0,.18-.1.31a2.39,2.39,0,0,1-1.08.6c-.57.15-.62.15-.82.6s.31.8,1.3.84a6.42,6.42,0,0,0,2.78-.62c.42-.24.58-.29.66-.2s.05.14-.17.3a5.79,5.79,0,0,1-1.23.73.51.51,0,0,0-.38.58c0,.22-.08.69.81.9a3.55,3.55,0,0,0,2.91-.62,2.37,2.37,0,0,0,.6-.56,7.1,7.1,0,0,1,.07-2.12,3.35,3.35,0,0,1-.92-.21,1.77,1.77,0,0,1-.87-1,.35.35,0,0,0-.52-.19,1.79,1.79,0,0,1-.73.14A2.14,2.14,0,0,1,47,68.92a1.9,1.9,0,0,1-.38-1.35c0-.28-.45-.07-.67-.07a2.93,2.93,0,0,1-1.41-.5,1.55,1.55,0,0,1-.63-1.13c0-.23-.28-.37-.45-.44a2.5,2.5,0,0,1-.86-.46A1.79,1.79,0,0,1,42,63.81c0-.21-.27-.23-1-.65a1.5,1.5,0,0,1-.71-1.6c0-.35.41-.63.41-.76s-.26-.15-.53-.32a1.51,1.51,0,0,1-1-1.43c0-1,.65-1.11.65-1.11a2.44,2.44,0,0,1-.4-.21c-.27-.16-1-.66-1-1.25a1.13,1.13,0,0,1,.46-1,3.66,3.66,0,0,1,.73-.27,1.26,1.26,0,0,1-.48-.68,1.55,1.55,0,0,1,.14-1.45,1.53,1.53,0,0,1,1.22-.41c.3,0,.56.16.67.06s.12-.16,0-.39a1.61,1.61,0,0,1,0-1,1.13,1.13,0,0,1,.88-.85,2.41,2.41,0,0,1,1.83.42c.24.13.14-.2.14-.45a8.55,8.55,0,0,0-1.11-1.77A18.19,18.19,0,0,1,41.36,46a15.84,15.84,0,0,1-1.18-3.55c-.1-.44-.28-.23-.28-.23s-.16.06-.59,1.1a6.94,6.94,0,0,0-.44,2.81"/><path id="_Path_25" data-name="&lt;Path&gt;" class="cls-4" d="M52.34,64.37a2,2,0,0,1-1.52-1c-.45-.66-1.16-.83-2.35-.8a1.9,1.9,0,0,1-2-1.38,1.92,1.92,0,0,1,1.28-2.37c1.22-.61,1.76-1.26,1.82-2.3S48.3,54.25,47,52.79a18.23,18.23,0,0,1-2.24-3.5,2,2,0,0,0-.37,1c0,.48.17,1,0,1.13s-.26-.21-1-.54-1.35-.36-1.79.18,0,1.44.4,1.88.76.76.66.92-.74-.25-1-.39a1.91,1.91,0,0,0-1.4-.59c-.71.06-1,.27-1,.86s.64,1.13,1.11,1.36.64.44.51.52-.22,0-.42-.06a2.29,2.29,0,0,0-1.17,0c-.35.14-.95.63-.39,1.27a3.87,3.87,0,0,0,1.93.9c.21,0,.35,0,.35.16s-.48.18-1.09.2a.83.83,0,0,0-.71,1.08c.09.47,1.13,1,1.7,1.06s.78,0,.83.16-.07.23-.39.34-1,.15-1.06.66a1,1,0,0,0,.34,1.17,1.81,1.81,0,0,0,1.49.32c.23,0,.52-.3.74-.06s-.2.41-.59.69-.38.8.29,1.16a2,2,0,0,0,1.61.14c.29-.08.65-.51.82-.25s-.56.37-.89.76a1,1,0,0,0,.44,1.43,2.18,2.18,0,0,0,1.89,0c.18-.17.41-.23.54-.1s-.06.51-.2.83a1.15,1.15,0,0,0,.58,1.64,2,2,0,0,0,2-.63.41.41,0,0,1,.47-.11c.14.07.07.21-.05.37A1,1,0,0,0,50.28,70a1.71,1.71,0,0,0,1.27.26c.14-.53.33-1.11.53-1.93h-.15c-.1,0-.11.15-.11.2s0,.1-.06.1-.09,0-.21.13-.23.19-.28.15.24-.23.32-.32.24-.26.26-.37.07-.19.23-.31l.13-.15c.1-.54.21-1.16.31-1.93.07-.51.09-1,.12-1.46Z"/><path id="_Path_26" data-name="&lt;Path&gt;" class="cls-4" d="M32.68,50a10.65,10.65,0,0,0,2.48,3.25s-.18-.52-.27-.87a2.05,2.05,0,0,1,0-.77,18.09,18.09,0,0,1-1.05-1.49,9.32,9.32,0,0,1-1-2.57,24.11,24.11,0,0,0,1.1,2.34,13.1,13.1,0,0,0,1,1.47s.2-.71.35-.76.24.08.36.25.23.14.23.14-.17-.34-.42-.76c-.12-.19-.28-.38-.4-.58a14,14,0,0,1-1.64-2.9c-.42-1.15-1.35-4-1.5-4.88s-.33-.38-.5.25A7.17,7.17,0,0,0,31.2,45,14.2,14.2,0,0,0,32.68,50"/><path id="_Path_27" data-name="&lt;Path&gt;" class="cls-4" d="M34,55.64c.38.28.94.66.94.66s-.07-.22-.14-.47a7.46,7.46,0,0,1-.08-.76L34,54.41a12.93,12.93,0,0,1-1.48-1.59c-.78-1-.16-.4.48.3a24.8,24.8,0,0,0,1.85,1.69v-.22a1,1,0,0,1,.2-.5c.11-.14.05-.16-.64-.7a19.61,19.61,0,0,1-3.18-3.71c-.72-1.18-1.52-2.81-1.52-2.81a8.57,8.57,0,0,0,1.08,5A10.19,10.19,0,0,0,34,55.64"/><path id="_Path_28" data-name="&lt;Path&gt;" class="cls-4" d="M41.63,70.65a1,1,0,0,0,.58-1.11s-.49.16-1,.32a10.49,10.49,0,0,1-2,.51c-.44,0-.44-.05-.46-.12s.35,0,1-.12a8,8,0,0,0,1.93-.82c.18-.13.16-.15-.12-.19a1.17,1.17,0,0,1-.63-.23c-.1-.09-.4,0-1.12.2a16.88,16.88,0,0,1-3.33.42,13.35,13.35,0,0,1-2.39-.22c-.19,0-.38.06.17,1s2.48,1.42,3.83,1.41a10.22,10.22,0,0,0,3.5-1"/><path id="_Path_29" data-name="&lt;Path&gt;" class="cls-4" d="M38,68.73A3.19,3.19,0,0,0,40,68.34a1,1,0,0,0-.18-.36,1.41,1.41,0,0,1-.15-.76l-.91.14a6,6,0,0,1-2,0c-.73-.12-.43-.19.18-.14A6.46,6.46,0,0,0,39,67c.37-.12.22-.25,0-.33a7,7,0,0,1-.92-.51,15.4,15.4,0,0,1-3.25,0,15.91,15.91,0,0,1-2.87-.63c-.31,0-.3.09-.3.09s-.08.14.45,1a4.49,4.49,0,0,0,2.49,1.67,12.68,12.68,0,0,0,3.51.44"/><path id="_Path_30" data-name="&lt;Path&gt;" class="cls-4" d="M37.69,65.48a1.91,1.91,0,0,1-.14-.36.54.54,0,0,1,.16-.5,12.59,12.59,0,0,0-1.36-.22,9.66,9.66,0,0,1-1.72-.35c-.65-.14-1.07-.32-1.05-.39s.21,0,.58.16a22.26,22.26,0,0,0,2.63.41,3.45,3.45,0,0,0,1.17.09,3.68,3.68,0,0,1,.54-.18L37.85,64a2.1,2.1,0,0,1-.85-.34c-.19-.12-.25-.17-1.1-.26a12.93,12.93,0,0,1-3-.92,13.33,13.33,0,0,1-3-1.46c-.31-.25-.29-.07-.2.25a3,3,0,0,0,.83,1.62,5.61,5.61,0,0,0,3.08,2,11.93,11.93,0,0,0,4.09.61"/><path id="_Path_31" data-name="&lt;Path&gt;" class="cls-4" d="M32,60.79a10.65,10.65,0,0,0,4.12,1.69c.1-.11-.1-.51,0-.74s.29-.3.7-.32.14-.12,0-.12a4,4,0,0,1-.81-.19,18.94,18.94,0,0,1-2.31-.63c-.94-.36-1.22-.61-1.2-.68s.44.23,1.3.55a16.9,16.9,0,0,0,2.44.58c.55.12.07-.13-.18-.28a2.8,2.8,0,0,1-.63-.71s-.6-.11-1.61-.41a13.22,13.22,0,0,1-2.68-1.12c-.28-.17-.57-.38-.87-.59-.57-.41-1.13-.84-1.36-1s-.24,0-.19.11a5.36,5.36,0,0,0,.81,1.63A7.06,7.06,0,0,0,32,60.79"/><path id="_Path_32" data-name="&lt;Path&gt;" class="cls-4" d="M31.7,57.4a12.07,12.07,0,0,0,3.38,1.87c.24.1.22-.05.17-.19s-.09-.6-.09-.6l-1.27-.73c-.66-.39-1.41-.92-1.89-1.27s-.21-.32-.05-.18.83.53,1.52.94,1.72,1,1.72,1a.77.77,0,0,1,.16-.37c.14-.13.49-.1.49-.1a2.38,2.38,0,0,1-.28-.34,5.52,5.52,0,0,0-1.28-.65A14.75,14.75,0,0,1,31.71,55c-.81-.7-2.42-2.45-2.53-2.58s-.17-.12-.18.06a2.25,2.25,0,0,0,.11,1.09,7.36,7.36,0,0,0,2.59,3.8"/><path id="_Path_33" data-name="&lt;Path&gt;" class="cls-4" d="M37.66,44.82c.19.39.4.69.54,1a7.24,7.24,0,0,1,.37.63.9.9,0,0,0,0-.37,2.66,2.66,0,0,1,0-.94,3.38,3.38,0,0,0,.06-.6,2.59,2.59,0,0,0-.11-.52c0-.21-.3-1.2-.42-1.88a16.42,16.42,0,0,1-.22-2.57c0-.87.13-.43.13,0a14.71,14.71,0,0,0,.17,2.06,22.1,22.1,0,0,0,.57,2.53,3.29,3.29,0,0,1,.14-.57c.13-.32.34-.72.51-1.13s.1-.49.1-.49-.59-2.81-.74-4.15-.41-4.86-.41-4.86c-.87.89-1.51,3.17-1.63,5.33A18.68,18.68,0,0,0,37,42a9.66,9.66,0,0,0,.68,2.83"/><path id="_Path_34" data-name="&lt;Path&gt;" class="cls-4" d="M35.73,49.28c0-.64.18-1.13.6-1.27a10.13,10.13,0,0,1-.69-1.55,11.85,11.85,0,0,1-.49-2c-.22-1.52-.41-3.07.05-.52a10.53,10.53,0,0,0,1,3.45l.63,1.07a5.11,5.11,0,0,1-.08-1.31A7.17,7.17,0,0,1,37,45.37a19.72,19.72,0,0,1-1.29-3.48,21.84,21.84,0,0,1-.8-4.67c0-1-.05-1.38-.05-1.38s-.82.62-1.09,3.71a18.59,18.59,0,0,0,.94,7.2c.41,1.12,1,2.53,1,2.53"/><path id="_Path_35" data-name="&lt;Path&gt;" class="cls-4" d="M44.61,72.9s-.12-.09-.5-.33-.27-1-.27-1-.11.09-.39.28a4.66,4.66,0,0,1-1,.56c-.39.16-.58.27-.82.34s-.18,0,0-.14a4.77,4.77,0,0,1,.78-.39A8.56,8.56,0,0,0,44,71.13a6.56,6.56,0,0,0-.68,0,3.92,3.92,0,0,1-1-.24A9,9,0,0,1,40.23,72a13.16,13.16,0,0,1-3.16.93,1.69,1.69,0,0,0,1,1.17,5.26,5.26,0,0,0,3.46,0,11.81,11.81,0,0,0,3.08-1.21"/><path id="_Path_36" data-name="&lt;Path&gt;" class="cls-4" d="M46.85,74.65a1.57,1.57,0,0,0-.26-1.23,4.13,4.13,0,0,0-.35.29,5.3,5.3,0,0,1-1.35,1c-.71.36-1,.33-.28,0a10,10,0,0,0,1.72-1.43l-.28-.1c-.27-.11-.73.08-2.66,1.22a7.32,7.32,0,0,1-3,1.21s.86,1,3.19,1,3.17-1.2,3.31-1.91"/><path id="_Path_37" data-name="&lt;Path&gt;" class="cls-4" d="M51.27,73.82a3.06,3.06,0,0,1-.61.58,4.52,4.52,0,0,1-1.26.38,1.65,1.65,0,0,1-.22.33,6.3,6.3,0,0,1-1,1.08c-.4.29-1,.49-1.08.4s.36-.22.77-.46a5,5,0,0,0,1-1c.27-.3-.13-.25-.13-.25a8.27,8.27,0,0,1-.93,0c-.44,0-.35,0-.48.22a5.57,5.57,0,0,1-.65.79c-.4.47-.79.9-1.17,1.37-.26.3-.07.39-.07.39s.12.19,1.16.31a3.25,3.25,0,0,0,2.06-.43,6.41,6.41,0,0,0,1.4-1.2,3.69,3.69,0,0,0,1.18-2.47"/><path id="_Path_38" data-name="&lt;Path&gt;" class="cls-4" d="M51.81,76.62a4.05,4.05,0,0,1-.38.48,5.38,5.38,0,0,1,.32-.81,4.37,4.37,0,0,1,.25-.36,5.74,5.74,0,0,1-.42-1.25,11.25,11.25,0,0,1-.92,2.17c-.53.85-1,1.15-.7,1.39a1.58,1.58,0,0,0,1.58,0,1.71,1.71,0,0,0,1-1.34,5.91,5.91,0,0,1-.33-.56,1.39,1.39,0,0,0-.35.33"/><path id="_Path_39" data-name="&lt;Path&gt;" class="cls-4" d="M90.84,58a4.76,4.76,0,0,0,1.8-2.32c.32-1.07.21-1.41,0-1.23l-1.86,1.23c-.33.23-.84.54-.91.42s.6-.49,1.11-1.1,1.78-1.79,1.78-2.91-.32-1.28-.55-1-1.28,1.3-1.71,1.72-1.06.95-1.13.87.5-.65,1.1-1.31a4.47,4.47,0,0,0,1.44-2.72c.1-.94-.14-1.27-.29-1.42s-.13-.1-.2,0a12.82,12.82,0,0,1-1,1.64c-.44.53-1.12,1.26-1.53,1.69s-.54.59-.62.55.39-.7.73-1.12a10.2,10.2,0,0,0,1.66-2.44,3.84,3.84,0,0,0-.13-3.09c-.24-.2-.28-.09-.36.05s-.77,1.71-1.23,2.38-1,1.53-1.31,1.9-.49.81-.58.75,0-.39.57-1.23A9.26,9.26,0,0,0,89,46.1a6.77,6.77,0,0,0-.44-2.81c-.41-1-.59-1.1-.59-1.1s-.18-.21-.27.23A17.41,17.41,0,0,1,86.53,46,18.44,18.44,0,0,1,85,48.69a8.31,8.31,0,0,0-1.1,1.77c0,.25-.11.58.13.45a2.42,2.42,0,0,1,1.83-.42,1.14,1.14,0,0,1,.88.85,1.68,1.68,0,0,1,0,1c-.1.23-.08.31,0,.39s.38-.06.69-.06a1.54,1.54,0,0,1,1.22.41,1.58,1.58,0,0,1,.13,1.45,1.2,1.2,0,0,1-.48.68,3.45,3.45,0,0,1,.73.27,1.15,1.15,0,0,1,.48,1c0,.59-.75,1.09-1,1.25l-.39.21s.65.11.64,1.11a1.52,1.52,0,0,1-1,1.43c-.26.17-.53.2-.53.32s.37.41.4.76a1.44,1.44,0,0,1-.68,1.6c-.81.42-1,.44-1.06.65A2,2,0,0,1,85.33,65a2.5,2.5,0,0,1-.86.46.7.7,0,0,0-.46.44A1.55,1.55,0,0,1,83.38,67a2.9,2.9,0,0,1-1.41.5c-.21,0-.64-.21-.67.07a1.83,1.83,0,0,1-.39,1.35,2.06,2.06,0,0,1-1.41.73,1.68,1.68,0,0,1-.72-.14c-.21-.08-.4-.08-.52.19a1.72,1.72,0,0,1-.88,1,3.38,3.38,0,0,1-.91.21A7.45,7.45,0,0,1,76.54,73a1.94,1.94,0,0,0,.6.56,3.54,3.54,0,0,0,2.91.62c.89-.21.79-.68.79-.9s0-.49-.38-.58A6.06,6.06,0,0,1,79.23,72c-.2-.16-.22-.22-.15-.3s.23,0,.66.21a6.48,6.48,0,0,0,2.76.61c1,0,1.51-.39,1.3-.84s-.24-.45-.8-.6a2.5,2.5,0,0,1-1.09-.6c-.11-.13-.18-.2-.11-.31s.37,0,.87.24a3.09,3.09,0,0,0,2.12,0c.65-.25.75-.46.64-.69s-.27-.35-.81-.56-1-.41-1-.56.87.06,1.41.1a4.67,4.67,0,0,0,2.32-.34c.53-.39.77-.89.46-1.13a2.68,2.68,0,0,0-1.25-.36c-.54-.08-.9-.14-.86-.31s.3-.16,1.38-.1A3.7,3.7,0,0,0,89.48,66a1.14,1.14,0,0,0,.6-1.1,1.54,1.54,0,0,0-1.18-.51c-.68-.07-.88-.06-1-.18s-.07-.16.35-.24a6.36,6.36,0,0,0,2.37-.8c.91-.61.89-1,.89-1.23s-.33-.41-.93-.41-1.27-.07-1.43-.07-.24,0-.25-.12.07-.16.8-.28a3.58,3.58,0,0,0,2.13-1.14,2.35,2.35,0,0,0,.58-1.64s0-.33-.46-.2a11,11,0,0,0-1.58.61c-.51.25-.9.4-1,.27s.84-.59,1.39-1"/><path id="_Path_40" data-name="&lt;Path&gt;" class="cls-4" d="M88.52,55.53a2.18,2.18,0,0,0-1.14,0c-.21.06-.32.16-.44.06s.08-.29.52-.52,1.19-.75,1.12-1.36-.33-.8-1-.86a1.92,1.92,0,0,0-1.39.59c-.21.14-.83.55-.94.39s.22-.48.64-.92.87-1.37.41-1.88-1-.5-1.8-.17-.81.66-1,.53,0-.65,0-1.13a1.94,1.94,0,0,0-.38-1,18.27,18.27,0,0,1-2.26,3.5c-1.25,1.46-2.52,2.74-2.48,3.78s.6,1.69,1.82,2.3,1.57,1.55,1.27,2.37a1.89,1.89,0,0,1-2.06,1.38c-1.18,0-1.88.14-2.34.8a2,2,0,0,1-1.52,1h-.3c0,.46.06,1,.12,1.46.1.77.21,1.39.32,1.93a1.58,1.58,0,0,0,.12.15c.18.12.22.2.23.31s.18.27.26.37.4.26.34.32-.19-.06-.31-.15-.13-.13-.22-.13,0,0,0-.1,0-.2-.11-.2H75.8c.18.82.37,1.4.51,1.93A1.7,1.7,0,0,0,77.58,70a1,1,0,0,0,.32-1.33c-.11-.16-.18-.3,0-.37a.39.39,0,0,1,.46.11,2,2,0,0,0,2,.63,1.16,1.16,0,0,0,.58-1.64c-.14-.32-.36-.69-.21-.83s.37-.07.56.1a2.13,2.13,0,0,0,1.87,0,1,1,0,0,0,.44-1.43c-.33-.39-1.07-.49-.9-.76s.56.17.83.25a2,2,0,0,0,1.61-.14c.67-.36.69-.89.29-1.16s-.82-.47-.59-.69.51,0,.74.06A1.81,1.81,0,0,0,87,62.53a.94.94,0,0,0,.35-1.17c-.12-.51-.74-.59-1.06-.66s-.44-.17-.39-.34.26-.07.82-.16,1.62-.59,1.71-1.06a.83.83,0,0,0-.72-1.08c-.61,0-1.12,0-1.1-.2s.14-.12.38-.16a3.92,3.92,0,0,0,1.92-.9c.55-.62,0-1.13-.42-1.27"/><path id="_Path_41" data-name="&lt;Path&gt;" class="cls-4" d="M92.71,53.28A10.54,10.54,0,0,0,95.18,50,14.31,14.31,0,0,0,96.68,45a7.4,7.4,0,0,0-.24-2.84c-.17-.62-.32-1.08-.48-.25s-1.1,3.74-1.52,4.89a15,15,0,0,1-1.63,2.9c-.12.2-.29.39-.41.58-.25.42-.42.76-.42.76s.11,0,.23-.14.23-.27.36-.25.35.76.35.76a15.76,15.76,0,0,0,1-1.47,24.6,24.6,0,0,0,1.13-2.34,10.09,10.09,0,0,1-1,2.57c-.67,1-1,1.49-1,1.49a2.3,2.3,0,0,1,0,.77,6.87,6.87,0,0,1-.27.87"/><path id="_Path_42" data-name="&lt;Path&gt;" class="cls-4" d="M98.19,46.87s-.78,1.63-1.51,2.81a18.91,18.91,0,0,1-3.18,3.71c-.69.54-.73.56-.63.7a.92.92,0,0,1,.18.5c0,.21,0,.22,0,.22a24.8,24.8,0,0,0,1.85-1.69c.63-.7,1.25-1.27.48-.3a10.47,10.47,0,0,1-1.51,1.59l-.75.66a6.6,6.6,0,0,1-.07.76,3.65,3.65,0,0,1-.15.47l.94-.66a10,10,0,0,0,3.27-3.76,8.55,8.55,0,0,0,1.06-5"/><path id="_Path_43" data-name="&lt;Path&gt;" class="cls-4" d="M91.14,38.25c-.11-2.16-.74-4.44-1.62-5.33,0,0-.24,3.52-.41,4.86s-.73,4.15-.73,4.15-.07.08.11.49.36.81.48,1.13a2.61,2.61,0,0,1,.16.57,24,24,0,0,0,.55-2.53,15.18,15.18,0,0,0,.18-2.06c0-.43.13-.87.14,0a15.18,15.18,0,0,1-.24,2.57c-.12.68-.37,1.67-.4,1.88a1.69,1.69,0,0,0-.11.52,1.88,1.88,0,0,0,.07.6,3.14,3.14,0,0,1,0,.94.86.86,0,0,0,0,.37,6.45,6.45,0,0,1,.35-.63c.15-.27.36-.57.54-1A8.79,8.79,0,0,0,90.89,42a18.89,18.89,0,0,0,.25-3.74"/><path id="_Path_44" data-name="&lt;Path&gt;" class="cls-4" d="M93.15,46.75a18.51,18.51,0,0,0,1-7.2c-.29-3.09-1.1-3.71-1.1-3.71s0,.39-.06,1.38a21.22,21.22,0,0,1-.8,4.67,21.72,21.72,0,0,1-1.27,3.48,8.24,8.24,0,0,1,.23,1.74A5.11,5.11,0,0,1,91,48.42l.65-1.07a11.11,11.11,0,0,0,1-3.45c.45-2.55.27-1,0,.52a12.8,12.8,0,0,1-.48,2A10.13,10.13,0,0,1,91.54,48c.42.14.57.63.59,1.27,0,0,.61-1.41,1-2.53"/><path id="_Path_45" data-name="&lt;Path&gt;" class="cls-4" d="M93.75,69.29a13.43,13.43,0,0,1-2.38.22A16.9,16.9,0,0,1,88,69.09c-.71-.17-1-.29-1.12-.2a1.13,1.13,0,0,1-.61.23c-.3,0-.34.06-.14.19a9,9,0,0,0,1.93.82c.62.12,1,.05,1,.12s0,.13-.46.12a10.59,10.59,0,0,1-2-.51c-.46-.16-.93-.33-.93-.32a.91.91,0,0,0,.57,1.11,9.9,9.9,0,0,0,3.48,1c1.36,0,3.29-.49,3.85-1.41s.34-1,.17-1"/><path id="_Path_46" data-name="&lt;Path&gt;" class="cls-4" d="M96,65.55a16.87,16.87,0,0,1-2.88.63,14.74,14.74,0,0,1-3.26,0,7.71,7.71,0,0,1-.92.51c-.25.08-.39.21,0,.33a6.52,6.52,0,0,0,2.08.27c.58,0,.91,0,.16.14a5.91,5.91,0,0,1-2,0l-.91-.14a1.41,1.41,0,0,1-.15.76c-.19.29-.19.36-.19.36a3.23,3.23,0,0,0,1.91.4,12.9,12.9,0,0,0,3.5-.45,4.6,4.6,0,0,0,2.51-1.66c.53-.85.46-1,.46-1s0-.13-.3-.09"/><path id="_Path_47" data-name="&lt;Path&gt;" class="cls-4" d="M98,61a12.85,12.85,0,0,1-3,1.46,12.93,12.93,0,0,1-3,.92c-.85.09-.91.14-1.09.26A2.22,2.22,0,0,1,90,64l-.66.14a3.68,3.68,0,0,1,.54.18,3.38,3.38,0,0,0,1.16-.09,21.93,21.93,0,0,0,2.63-.41c.39-.14.59-.24.6-.16s-.41.25-1,.39a10.69,10.69,0,0,1-1.73.35,11.35,11.35,0,0,0-1.37.22.53.53,0,0,1,.17.5,1.59,1.59,0,0,1-.16.36,12.19,12.19,0,0,0,4.11-.6,5.8,5.8,0,0,0,3.08-2,3.2,3.2,0,0,0,.83-1.62c.08-.32.1-.5-.21-.25"/><path id="_Path_48" data-name="&lt;Path&gt;" class="cls-4" d="M98.93,56.83c-.23.15-.79.58-1.38,1-.31.21-.58.42-.86.59A13.22,13.22,0,0,1,94,59.53a15.52,15.52,0,0,1-1.61.41,3,3,0,0,1-.61.71c-.26.16-.75.4-.19.28A16.21,16.21,0,0,0,94,60.35c.87-.32,1.27-.62,1.3-.55s-.26.32-1.2.68a16.59,16.59,0,0,1-2.32.63,4.18,4.18,0,0,1-.8.19c-.1,0-.37.09,0,.12s.59,0,.72.32-.11.63,0,.74a10.73,10.73,0,0,0,4.13-1.69,7,7,0,0,0,2.42-2.21,5.37,5.37,0,0,0,.81-1.64c0-.15.15-.36-.19-.11"/><path id="_Path_49" data-name="&lt;Path&gt;" class="cls-4" d="M92.52,57.92a.73.73,0,0,1,.17.37s1-.61,1.72-1,1.37-.81,1.52-.94.44-.15-.06.18-1.23.88-1.9,1.26l-1.26.74a5.79,5.79,0,0,1-.09.59c-.06.15-.07.3.18.2a12.09,12.09,0,0,0,3.37-1.87,7.39,7.39,0,0,0,2.6-3.8,2.31,2.31,0,0,0,.1-1.09c0-.18-.07-.21-.19-.06S97,54.33,96.15,55a14,14,0,0,1-2.56,1.8,5.76,5.76,0,0,0-1.28.65,2.38,2.38,0,0,1-.28.34s.36,0,.49.1"/><path id="_Path_50" data-name="&lt;Path&gt;" class="cls-4" d="M85.53,70.86a4.21,4.21,0,0,1-1,.24,5.69,5.69,0,0,0-.66,0,8.38,8.38,0,0,0,1.53,1.1,5,5,0,0,1,.77.39c.21.11.28.21,0,.14s-.43-.18-.83-.34a5,5,0,0,1-1-.56l-.4-.28s.13.74-.25,1l-.53.33a11.76,11.76,0,0,0,3.11,1.21,5.17,5.17,0,0,0,3.43,0,1.69,1.69,0,0,0,1-1.17A13.3,13.3,0,0,1,87.64,72a8.39,8.39,0,0,1-2.11-1.11"/><path id="_Path_51" data-name="&lt;Path&gt;" class="cls-4" d="M81.83,73.17l-.28.1a9.57,9.57,0,0,0,1.7,1.43c.71.37.44.4-.28,0a5.1,5.1,0,0,1-1.33-1,3,3,0,0,0-.36-.29A1.65,1.65,0,0,0,81,74.65c.14.71,1,1.83,3.33,1.91s3.19-1,3.19-1a7.44,7.44,0,0,1-3.06-1.2c-1.92-1.15-2.39-1.34-2.64-1.23"/><path id="_Path_52" data-name="&lt;Path&gt;" class="cls-4" d="M81.15,75.85a4.89,4.89,0,0,1-.62-.79c-.15-.22-.06-.26-.5-.22a8.44,8.44,0,0,1-.94,0s-.39,0-.11.25a4.8,4.8,0,0,0,1,1c.37.24.79.39.75.46s-.68-.11-1.09-.4a6.19,6.19,0,0,1-1-1.08,1.8,1.8,0,0,1-.21-.33,4.69,4.69,0,0,1-1.28-.38,2.68,2.68,0,0,1-.59-.58,3.76,3.76,0,0,0,1.18,2.47,6.59,6.59,0,0,0,1.38,1.2,3.34,3.34,0,0,0,2.08.43c1-.12,1.15-.31,1.15-.31s.18-.09-.06-.39l-1.19-1.37"/><path id="_Path_53" data-name="&lt;Path&gt;" class="cls-4" d="M76.29,74.68a5.73,5.73,0,0,1-.41,1.25c.06.09.16.23.23.36a4.58,4.58,0,0,1,.35.81,3.79,3.79,0,0,1-.4-.48,1.39,1.39,0,0,0-.35-.33,5.88,5.88,0,0,1-.32.56,1.76,1.76,0,0,0,.93,1.34,1.62,1.62,0,0,0,1.6,0c.3-.22-.17-.54-.71-1.39a11.93,11.93,0,0,1-.92-2.17"/><path id="_Path_54" data-name="&lt;Path&gt;" class="cls-4" d="M76.18,41.86a.46.46,0,0,1,.48.46.45.45,0,0,1-.48.42.44.44,0,0,1-.46-.42.46.46,0,0,1,.46-.46"/><path id="_Path_55" data-name="&lt;Path&gt;" class="cls-4" d="M70.39,42.08a4.56,4.56,0,0,0,.76.34,3.79,3.79,0,0,0,2.62-.23,7.42,7.42,0,0,1,2.28-.87c.49,0,.71.15,1.15.17a.32.32,0,0,0,.31-.14c.1-.18,0-.64-.61-1a3.51,3.51,0,0,0-2.53-.09,5.39,5.39,0,0,0-1.75.86c-.34.27-.75.66-.85.57s.19-.26.36-.44a2.22,2.22,0,0,1,.24-.23,4.4,4.4,0,0,1-2.84-.85,1.83,1.83,0,0,0,.86,1.92"/><path id="_Path_56" data-name="&lt;Path&gt;" class="cls-4" d="M80.16,41.48a2.47,2.47,0,0,0-2.06,0,6.78,6.78,0,0,0-1.17.53,1.06,1.06,0,0,1-.37,1c-.48.31-1,.13-1.07-.18a2.29,2.29,0,0,1-.17-.48,6,6,0,0,1-1.78.61,4.67,4.67,0,0,1-2.34-.07,14,14,0,0,1-1.09,1,10,10,0,0,1-.94.68.43.43,0,0,0,.28.22c.2.08.29.11.13.34a9.84,9.84,0,0,1-1.66,1.54,6.45,6.45,0,0,1-1.13.58,1.28,1.28,0,0,0,.53.54c.31.11.37.32.24.54a19,19,0,0,1-1.69,1.85,1.85,1.85,0,0,1-1,.53c-.2.05-.57.26-.16.72a2.33,2.33,0,0,0,2.31.35,4.81,4.81,0,0,0,1.86-1.39s-.2,1.61-.2,2.37a9.13,9.13,0,0,0,.21,2,2.9,2.9,0,0,0,.26.66A3,3,0,0,0,70.23,54a6.07,6.07,0,0,0,.55-2.07c0-.33,0-.52.31-.35a3.09,3.09,0,0,0,.62.31.76.76,0,0,0,.18,0,8.21,8.21,0,0,1-.18-1.43,5.13,5.13,0,0,1,.46-2.16c.27-.24.31.09.33.24a1.06,1.06,0,0,0,.7.8A3.8,3.8,0,0,1,74.26,47c.13-.14.21-.32.68-.14a3.22,3.22,0,0,0,2.22.18c.67-.27,1.17-1,1-1a3.11,3.11,0,0,1-1.83.25c-.78-.26-1.16-.51-.7-1a15.67,15.67,0,0,1,1.57-1.29,3.23,3.23,0,0,1,2.46-1,1.31,1.31,0,0,1,1,.71c.07.09.41.36.41-.3a2.06,2.06,0,0,0-1-1.83"/><path id="_Path_57" data-name="&lt;Path&gt;" class="cls-4" d="M71.57,54.48a9,9,0,0,1-.44-.86,4.7,4.7,0,0,1-.2.62,6.73,6.73,0,0,1-.64,1.1s.39-.08.8-.21a2.19,2.19,0,0,0,.71-.38,1,1,0,0,1-.23-.27"/><path id="_Path_58" data-name="&lt;Path&gt;" class="cls-4" d="M68.31,52a4,4,0,0,1-.85,1.24c-.58.58-1,.51-1,.51a4.16,4.16,0,0,0,.5-.32,4.41,4.41,0,0,0,.88-1.2,3.92,3.92,0,0,1-2.18.44s-.09.2-.23.56a5.81,5.81,0,0,1-.78,1.32c-.21.29,0,.34,0,.34a6,6,0,0,0,1.49.5,7,7,0,0,0,2.62.17s0-.13-.28-1.07A9.64,9.64,0,0,1,68.31,52"/><path id="_Path_59" data-name="&lt;Path&gt;" class="cls-4" d="M51.67,41.86a.48.48,0,0,1,.48.46.46.46,0,0,1-.48.42.44.44,0,0,1-.47-.42.46.46,0,0,1,.47-.46"/><path id="_Path_60" data-name="&lt;Path&gt;" class="cls-4" d="M50.66,41.48c.44,0,.68-.22,1.15-.16a7.29,7.29,0,0,1,2.27.87,3.83,3.83,0,0,0,2.63.23,3.46,3.46,0,0,0,.76-.35,1.83,1.83,0,0,0,.86-1.91,4.54,4.54,0,0,1-2.84.87,1.45,1.45,0,0,1,.24.21c.16.18.47.36.36.44s-.5-.3-.85-.57a5.18,5.18,0,0,0-1.75-.86,3.51,3.51,0,0,0-2.53.09c-.66.37-.7.83-.61,1a.3.3,0,0,0,.31.13"/><path id="_Path_61" data-name="&lt;Path&gt;" class="cls-4" d="M63,50.72a1.93,1.93,0,0,1-1-.53,16.5,16.5,0,0,1-1.68-1.85c-.14-.22-.08-.43.22-.55a1.35,1.35,0,0,0,.54-.53,6.08,6.08,0,0,1-1.13-.59,10.78,10.78,0,0,1-1.67-1.53c-.15-.23-.08-.26.15-.34a.43.43,0,0,0,.27-.22,7.73,7.73,0,0,1-.94-.68c-.46-.36-1.09-1-1.09-1a4.45,4.45,0,0,1-2.34,0,5.7,5.7,0,0,1-1.78-.59,2.29,2.29,0,0,1-.17.48A.7.7,0,0,1,51.3,43a1.06,1.06,0,0,1-.37-1,6.78,6.78,0,0,0-1.17-.53,2.52,2.52,0,0,0-2.06-.05,2.09,2.09,0,0,0-1,1.84c0,.66.35.39.43.3a1.22,1.22,0,0,1,1-.71,3.17,3.17,0,0,1,2.45,1,16.53,16.53,0,0,1,1.59,1.29c.46.48.08.73-.7,1A3.11,3.11,0,0,1,49.69,46c-.15.08.34.78,1,1a3.22,3.22,0,0,0,2.22-.18c.47-.19.56,0,.68.14a3.85,3.85,0,0,1,1.06,2.4,1.09,1.09,0,0,0,.71-.8c0-.15.07-.48.32-.24a5,5,0,0,1,.45,2.16A8.28,8.28,0,0,1,56,51.89h.17a2.85,2.85,0,0,0,.62-.31c.3-.17.32,0,.32.35A6.07,6.07,0,0,0,57.63,54a3,3,0,0,0,1.08,1.48,2.9,2.9,0,0,0,.26-.66,8.63,8.63,0,0,0,.21-2c0-.76-.19-2.38-.19-2.38a4.69,4.69,0,0,0,1.87,1.4,2.36,2.36,0,0,0,2.29-.35c.41-.46,0-.67-.16-.72"/><path id="_Path_62" data-name="&lt;Path&gt;" class="cls-4" d="M56.73,53.62a9,9,0,0,1-.44.86,1,1,0,0,1-.23.27,2.36,2.36,0,0,0,.7.38c.42.13.81.21.81.21a6.73,6.73,0,0,1-.64-1.1,4.7,4.7,0,0,1-.2-.62"/><path id="_Path_63" data-name="&lt;Path&gt;" class="cls-4" d="M62.45,53.24c-.14-.36-.23-.56-.23-.56A3.9,3.9,0,0,1,60,52.24a4.3,4.3,0,0,0,.89,1.2,3.91,3.91,0,0,0,.49.32s-.43.07-1-.51A4,4,0,0,1,59.55,52a9.64,9.64,0,0,1-.11,2.49c-.24.94-.28,1.06-.28,1.06a6.79,6.79,0,0,0,2.61-.16,5.47,5.47,0,0,0,1.5-.51s.16,0-.05-.33a6.17,6.17,0,0,1-.77-1.32"/><path id="_Path_64" data-name="&lt;Path&gt;" class="cls-4" d="M57.59,87.92a1.27,1.27,0,0,0,1.11-.46,10.9,10.9,0,0,0,.57-1.13l.33-.49A3.74,3.74,0,0,1,59.29,87a4.28,4.28,0,0,0-.22,1.81c.12.71.59.83.86.73a2.09,2.09,0,0,0,.8-.86c.11-.15.16-.36.26-.53.17-.36.34-.92.42-.91s.06.44,0,.72A9.3,9.3,0,0,0,61,89.74c0,.48,0,1.37.51,1.4s.74-.39,1-1.38.34-1.31.46-1.31.11.68.11,1a4.89,4.89,0,0,0,0,.66,3.34,3.34,0,0,0,.39,1.31.52.52,0,0,0,.42.17.56.56,0,0,0,.44-.17,5.75,5.75,0,0,0,.43-2c0-.3,0-1,.1-1s.18.31.46,1.31.52,1.42,1,1.38.55-.92.53-1.4a11.08,11.08,0,0,0-.43-1.82c-.14-.56.06-.51.43.19.12.22.23.49.35.66a1.72,1.72,0,0,0,.69.73c.28.09.74,0,.87-.74A11.69,11.69,0,0,0,68.38,86l.23.35a10.9,10.9,0,0,0,.57,1.13,1.25,1.25,0,0,0,1.1.46c.3-.11.34-.65.11-1.62s-1.08-1.52-1.71-2.3a8.9,8.9,0,0,1-1.08-2.17,7.48,7.48,0,0,0-2.09,1.47C64.23,84.65,64,85,64,85s-.29-.33-1.57-1.68a7.56,7.56,0,0,0-2.1-1.48,12.67,12.67,0,0,1-1.19,2.09c-.3.36-.69.63-1,1a3.23,3.23,0,0,0-.65,1.4c-.2,1-.17,1.51.12,1.62"/><path id="_Path_65" data-name="&lt;Path&gt;" class="cls-4" d="M57.55,91.21l.58-.52s.27-.22.2.21a6.7,6.7,0,0,0-.12,1.71c.08.39.14.72.62.44a3.55,3.55,0,0,0,.83-.7c.22-.25.45-.35.4,0a5.6,5.6,0,0,0-.14,1.71c.07.77.44.88.94.24a8.08,8.08,0,0,0,.93-1.58c.15-.31.44-.59.44,0,0,1.29.31,3.14,1.7,3.65,1.41-.51,1.71-2.36,1.71-3.65,0-.59.3-.31.44,0A9.5,9.5,0,0,0,67,94.33c.49.64.86.53,1-.24a6.25,6.25,0,0,0-.15-1.71c-.06-.38.17-.28.41,0a3,3,0,0,0,.81.7c.48.28.53,0,.62-.44a6.68,6.68,0,0,0-.11-1.71c-.08-.43.2-.21.2-.21l.56.52a1.72,1.72,0,0,0,.9.35,3.35,3.35,0,0,0-.32-2.14c-.56-.81-.76-1.07-.76-1.07a2.08,2.08,0,0,1-.56-.1A2.91,2.91,0,0,1,69.1,88v.74s.69.65.85.84.48.53,0,.21-.87-.64-.87-.64a2.13,2.13,0,0,1-.28.84.7.7,0,0,1-.58.16l-.12,0,0,.27a6.79,6.79,0,0,1,.48,1.1c.05.31,0,.28-.23-.12a11.67,11.67,0,0,0-.75-1.23c-.16-.28-.42-.48-.39-.12a3.26,3.26,0,0,1-.26,1.27,1.2,1.2,0,0,1-.19.32s.25.92.29,1.09,0,.37-.14.15-.57-1.12-.57-1.12a1.68,1.68,0,0,1-.72-.18,4.19,4.19,0,0,1-.42-.78,4.69,4.69,0,0,1-.41,1,2.43,2.43,0,0,1-.64.51s0,1.37,0,1.61,0,.35-.16.35-.1-.12-.13-.35-.06-1.61-.06-1.61a2.29,2.29,0,0,1-.63-.51,4.52,4.52,0,0,1-.43-1,4.43,4.43,0,0,1-.4.78,1.68,1.68,0,0,1-.72.18s-.42.91-.57,1.12-.18,0-.15-.15.3-1.09.3-1.09a2,2,0,0,1-.2-.32A2.94,2.94,0,0,1,60.7,90c0-.36-.24-.16-.41.12a13.72,13.72,0,0,0-.74,1.23c-.19.4-.28.43-.23.12a5.36,5.36,0,0,1,.48-1.1l0-.27-.1,0a.7.7,0,0,1-.59-.16c-.2-.16-.29-.84-.29-.84s-.39.31-.85.64-.15,0,0-.21.84-.84.84-.84V88a2.91,2.91,0,0,1-.48.27,2,2,0,0,1-.54.1s-.22.26-.77,1.07a3.21,3.21,0,0,0-.32,2.14,1.65,1.65,0,0,0,.88-.35"/><path id="_Path_66" data-name="&lt;Path&gt;" class="cls-4" d="M56.05,95.77c.33-.21.62-.45,1.39-1a3.42,3.42,0,0,0,1.05-1.07h-.28c-.15,0-.27-.2-.28-.4A9,9,0,0,1,58,92.23a2.08,2.08,0,0,0-.08-.87,4.55,4.55,0,0,1-.81.56c-.5.26-.71.14-.71.14l-.12-.5s-.22.44-.52,1a7,7,0,0,1-1.7,1.55,7.26,7.26,0,0,1-1.71,1.06c-.48.18-.19.41-.19.41a3.38,3.38,0,0,0,1.71.71,2.65,2.65,0,0,0,2.19-.5"/><path id="_Path_67" data-name="&lt;Path&gt;" class="cls-4" d="M60.4,95.27a.76.76,0,0,1-.8-.68,13.36,13.36,0,0,1,0-1.52,3.77,3.77,0,0,0-.31.31,1,1,0,0,1-.56.26,2.79,2.79,0,0,1-.22.44,2.58,2.58,0,0,1-.81.87,10.47,10.47,0,0,0-1.25.85,6.86,6.86,0,0,1-1.13.82,1.93,1.93,0,0,0-1,1.25c-.14.63,0,.84.46.8a4.87,4.87,0,0,0,1.36-.19A13.37,13.37,0,0,0,59,96.86a5.34,5.34,0,0,0,1.43-1.59"/><path id="_Path_68" data-name="&lt;Path&gt;" class="cls-4" d="M62.61,96a2.91,2.91,0,0,1-.46-.9c-.13-.49-.36-1.44-.36-1.44a7.44,7.44,0,0,1-.38.86,1.37,1.37,0,0,1-.73.73,1.63,1.63,0,0,1-.4.72,5.26,5.26,0,0,1-1.52,1.27A5.54,5.54,0,0,0,57,98.62a1.4,1.4,0,0,0-.24,1.43c.19.25.45,0,.84-.23a18.19,18.19,0,0,0,3-1.16,4.69,4.69,0,0,0,2-2.65"/><path id="_Path_69" data-name="&lt;Path&gt;" class="cls-4" d="M63.27,99.39a5.78,5.78,0,0,0,.48-2.14A2.86,2.86,0,0,1,63.4,97a5.21,5.21,0,0,1-.6-.76s-.24.52-.51,1a3.89,3.89,0,0,1-1,1.17A8.94,8.94,0,0,0,59.67,100a2.54,2.54,0,0,0,.08,2c.21.37.5.26.83,0a9.33,9.33,0,0,1,1-.86,10.7,10.7,0,0,0,1.74-1.69"/><path id="_Path_70" data-name="&lt;Path&gt;" class="cls-4" d="M75.55,95.15a6.88,6.88,0,0,1-1.71-1.06,7,7,0,0,1-1.71-1.55c-.31-.54-.51-1-.51-1l-.13.5s-.2.12-.7-.14a4.13,4.13,0,0,1-.81-.56,2,2,0,0,0-.09.87A6.17,6.17,0,0,1,70,93.34c0,.2-.14.4-.28.4H69.4a3.18,3.18,0,0,0,1,1.07c.76.51,1.06.75,1.4,1a2.62,2.62,0,0,0,2.17.5,3.69,3.69,0,0,0,1.74-.71s.27-.23-.2-.41"/><path id="_Path_71" data-name="&lt;Path&gt;" class="cls-4" d="M72.53,96.62a7.21,7.21,0,0,1-1.12-.82A10,10,0,0,0,70.14,95a2.54,2.54,0,0,1-.8-.87,2.79,2.79,0,0,1-.22-.44,1,1,0,0,1-.55-.26l-.31-.31a12.11,12.11,0,0,1,0,1.52.75.75,0,0,1-.79.68,5.51,5.51,0,0,0,1.43,1.59,13.69,13.69,0,0,0,2.77,1.62,4.77,4.77,0,0,0,1.35.19c.49,0,.59-.17.47-.8a2,2,0,0,0-1-1.25"/><path id="_Path_72" data-name="&lt;Path&gt;" class="cls-4" d="M69.12,97.25A5.26,5.26,0,0,1,67.6,96a1.63,1.63,0,0,1-.4-.72,1.41,1.41,0,0,1-.73-.73c-.28-.56-.39-.86-.39-.86l-.35,1.44a2.76,2.76,0,0,1-.45.9,4.67,4.67,0,0,0,2,2.65,17.57,17.57,0,0,0,3,1.16c.39.2.65.48.84.23a1.34,1.34,0,0,0-.25-1.43,5.51,5.51,0,0,0-1.71-1.37"/><path id="_Path_73" data-name="&lt;Path&gt;" class="cls-4" d="M66.57,98.39a3.94,3.94,0,0,1-1-1.17c-.26-.48-.51-1-.51-1a4.58,4.58,0,0,1-.6.76,2.86,2.86,0,0,1-.35.27,5.86,5.86,0,0,0,.49,2.14,10.64,10.64,0,0,0,1.73,1.69,11.45,11.45,0,0,1,1,.86c.31.31.61.42.83,0a2.64,2.64,0,0,0,.06-2,9.19,9.19,0,0,0-1.64-1.58"/><path id="_Path_74" data-name="&lt;Path&gt;" class="cls-4" d="M64.42,100.14A4.62,4.62,0,0,1,64,99.5a4.35,4.35,0,0,1-.48.64,12.15,12.15,0,0,1-1.22,1.08,4.47,4.47,0,0,0,.5,1.72,4.51,4.51,0,0,0,1.2,1.31,4.66,4.66,0,0,0,1.2-1.31,4.58,4.58,0,0,0,.49-1.72,12.15,12.15,0,0,1-1.22-1.08"/><path id="_Path_75" data-name="&lt;Path&gt;" class="cls-7" d="M94.6,86.45a1,1,0,0,1-.48-.21s-.14,0-.26.19a2,2,0,0,1-.54.48s-.61.15-.69.57.22.56.51.52a2.48,2.48,0,0,0,1.28-.56,2.59,2.59,0,0,0,.42-.72c.07-.15.1-.18-.24-.27"/><path id="_Path_76" data-name="&lt;Path&gt;" class="cls-7" d="M95.54,83.15a3.89,3.89,0,0,0-2-2.64s-.43,1.52-.56,2-.13.46.24.56l1.79.41c.23.07.63.28.49-.33"/><path id="_Path_77" data-name="&lt;Path&gt;" class="cls-7" d="M90.06,82.28c.28.06.25-.06.34-.43s.57-2.19.57-2.19a5.68,5.68,0,0,0-2.27.47,3.47,3.47,0,0,0-1.5,1.44,5.57,5.57,0,0,0,1,.28c.72.16,1.6.39,1.87.43"/><path id="_Path_78" data-name="&lt;Path&gt;" class="cls-7" d="M87.26,84.78a5,5,0,0,1-.59-.12,5.34,5.34,0,0,0,.72,1.61,2.12,2.12,0,0,0,1.86.88,1.8,1.8,0,0,0,1.74-.9,2.93,2.93,0,0,1,.31-.69s-1.68-.23-2.37-.4-1.24-.3-1.67-.38"/><path id="_Path_79" data-name="&lt;Path&gt;" class="cls-6" d="M73.85,64.52a7.64,7.64,0,0,1,1.09-4.86L72,56.25c-2.26,1.27-5.36,1.09-8.08-.15-2.7,1.24-5.83,1.42-8.07.15L53,59.66A7.52,7.52,0,0,1,54,64.52c-.44,2.6-1.36,6.7-1.12,8.38a8.15,8.15,0,0,0,2.62,4.62,15.25,15.25,0,0,0,4.3,2.33A12.2,12.2,0,0,1,63,81.65a10.66,10.66,0,0,1,1,.86,10.11,10.11,0,0,1,1-.86,11.86,11.86,0,0,1,3.11-1.8,15.25,15.25,0,0,0,4.3-2.33A8.28,8.28,0,0,0,75,72.9c.23-1.68-.69-5.78-1.13-8.38"/><path id="_Path_80" data-name="&lt;Path&gt;" class="cls-6" d="M67.92,49.86a4.87,4.87,0,0,1-1.47,1l0,.09a3,3,0,0,0,.84-.32,4.64,4.64,0,0,0,1.14-1,.3.3,0,0,0,0-.37,3.41,3.41,0,0,1-.47.6"/><path id="_Path_81" data-name="&lt;Path&gt;" class="cls-6" d="M69.72,50.85c0,.28-.1,2.23-.1,2.23s0,.68-.2.75c.09,0,.23,0,.28-.26s.41-2.85.41-2.85l-.21-.09s-.18-.07-.18.22"/><path id="_Path_82" data-name="&lt;Path&gt;" class="cls-6" d="M73,45.94a5,5,0,0,0-.86.58,2.24,2.24,0,0,1-.62.31c-.22.1-.14-.38,0-.78a4.88,4.88,0,0,1,.93-1.25c.34-.38,0-.26-.18-.11a7.75,7.75,0,0,0-1,1.25,8,8,0,0,0-.68,2.27,5.78,5.78,0,0,0,.53-.34c.26-.18.56-.33,1.06-.7a6,6,0,0,0,1-.94c.28-.29,0-.35-.25-.29"/><path id="_Path_83" data-name="&lt;Path&gt;" class="cls-6" d="M59.94,49.86a2.75,2.75,0,0,1-.47-.6.3.3,0,0,0,0,.37,4.72,4.72,0,0,0,1.15,1,3.05,3.05,0,0,0,.83.32l0-.09a4.87,4.87,0,0,1-1.46-1"/><path id="_Path_84" data-name="&lt;Path&gt;" class="cls-6" d="M58.24,53.08s-.1-1.95-.1-2.23-.19-.22-.19-.22l-.2.09s.36,2.49.41,2.85.19.28.28.26c-.17-.07-.18-.66-.2-.75"/><path id="_Path_85" data-name="&lt;Path&gt;" class="cls-6" d="M55.64,44.69c-.17-.15-.52-.27-.18.11a4.61,4.61,0,0,1,.92,1.25c.14.4.21.88,0,.78a2.24,2.24,0,0,1-.62-.31,5.41,5.41,0,0,0-.86-.58c-.19-.06-.53,0-.26.29a6.65,6.65,0,0,0,1.06.94c.49.37.78.52,1.05.7s.53.34.53.34a7.66,7.66,0,0,0-.68-2.27,7.75,7.75,0,0,0-1-1.25"/><path id="_Path_86" data-name="&lt;Path&gt;" class="cls-6" d="M63.91,89.62c.05,0,.05-.1.05-.33s.06-.76.1-1.08-.08-.29-.17-.27-.12.26-.12.4,0,.93,0,1.09.06.18.1.19"/><path id="_Path_87" data-name="&lt;Path&gt;" class="cls-6" d="M69.56,86.76c.2.46.25.39.16,0a4,4,0,0,0-.44-1.06,5.15,5.15,0,0,0-.75-.82,4.17,4.17,0,0,0,.35.58c.19.28.45.83.68,1.28"/><path id="_Path_88" data-name="&lt;Path&gt;" class="cls-6" d="M67.43,87.14a3.82,3.82,0,0,0,.57,1.1A6.7,6.7,0,0,0,67.67,87c-.16-.49-.4-.87-.45-.84s0,.31,0,.31a4.73,4.73,0,0,0,.16.66"/><path id="_Path_89" data-name="&lt;Path&gt;" class="cls-6" d="M65.73,88.49c.11.21.22.48.27.44a2.54,2.54,0,0,0-.15-.59,2.37,2.37,0,0,0-.19-.7c-.14-.28-.2-.14-.2,0a6.12,6.12,0,0,0,.18.67l.09.21"/><path id="_Path_90" data-name="&lt;Path&gt;" class="cls-6" d="M58.33,86.76A8.79,8.79,0,0,1,59,85.48a3.61,3.61,0,0,0,.34-.58,5.27,5.27,0,0,0-.74.82,4.44,4.44,0,0,0-.45,1.06c-.09.37,0,.44.18,0"/><path id="_Path_91" data-name="&lt;Path&gt;" class="cls-6" d="M60.46,87.14c.08-.29.13-.5.13-.5s.09-.28,0-.3-.27.18-.43.67a6.35,6.35,0,0,0-.32,1.23,4.05,4.05,0,0,0,.58-1.1"/><path id="_Path_92" data-name="&lt;Path&gt;" class="cls-6" d="M62.15,88.49l.08-.21a5.87,5.87,0,0,0,.19-.67c0-.11-.07-.25-.21,0a3.25,3.25,0,0,0-.19.7c0,.11-.2.56-.14.59s.17-.23.27-.44"/><path id="_Path_93" data-name="&lt;Path&gt;" class="cls-6" d="M56.93,93.63l-.23-.15a3.08,3.08,0,0,1-.33.39c-.19.2-.4.27-.55.47a2.07,2.07,0,0,1-.72.61c-.34.18-.48.23-.41.28s.3-.08.3-.08a1.45,1.45,0,0,0,.52-.25,3.87,3.87,0,0,0,.79-.61,8.56,8.56,0,0,0,.63-.66"/><path id="_Path_94" data-name="&lt;Path&gt;" class="cls-6" d="M58.74,95.77c.16-.17.33-.29.24-.37s-.21-.08-.35,0l-.76.69a5.34,5.34,0,0,1-.53.41,6.15,6.15,0,0,1-.81.48c-.21.13,0,.13,0,.13a2.4,2.4,0,0,1,.33-.14l.65-.27a3.15,3.15,0,0,0,.44-.27,10,10,0,0,0,.8-.7"/><path id="_Path_95" data-name="&lt;Path&gt;" class="cls-6" d="M60.84,97.22c.14-.27,0-.2-.24-.1a12.37,12.37,0,0,0-1,.85,7.44,7.44,0,0,1-.8.4c-.24.12-.24.19-.23.24s.12.06.21,0,.46-.24.46-.24a1.22,1.22,0,0,1,.28-.06,1.7,1.7,0,0,0,.62-.41c.3-.25.58-.41.71-.69"/><path id="_Path_96" data-name="&lt;Path&gt;" class="cls-6" d="M61.81,99.14a3.94,3.94,0,0,0-1.17,1.08c-.17.33-.29.57-.22.63s.23-.06.31-.21a3.8,3.8,0,0,1,.25-.34,10.88,10.88,0,0,1,.87-.77,2.27,2.27,0,0,0,.71-.8.6.6,0,0,0,0-.39,3.55,3.55,0,0,1-.77.8"/><path id="_Path_97" data-name="&lt;Path&gt;" class="cls-6" d="M72.78,95a2.15,2.15,0,0,1-.72-.61c-.14-.2-.36-.27-.55-.47a2.53,2.53,0,0,1-.32-.39l-.23.15a6.86,6.86,0,0,0,.63.66,4.61,4.61,0,0,0,.78.61,1.55,1.55,0,0,0,.52.25s.23.14.31.08-.08-.1-.42-.28"/><path id="_Path_98" data-name="&lt;Path&gt;" class="cls-6" d="M71.35,97a5.47,5.47,0,0,1-.8-.48L70,96.13c-.2-.18-.61-.57-.76-.69s-.25-.13-.34,0,.07.2.24.37a6.39,6.39,0,0,0,.79.7c.27.18.44.27.44.27L71,97c.16.06.32.14.32.14s.2,0,0-.13"/><path id="_Path_99" data-name="&lt;Path&gt;" class="cls-6" d="M69.09,98.37a8.49,8.49,0,0,1-.8-.4,10.88,10.88,0,0,0-1-.85c-.23-.1-.37-.17-.24.1a2.28,2.28,0,0,0,.72.69c.29.25.48.4.63.41a1.22,1.22,0,0,1,.27.06s.34.2.44.24.21,0,.22,0,0-.12-.23-.24"/><path id="_Path_100" data-name="&lt;Path&gt;" class="cls-6" d="M66.07,99.14a3.66,3.66,0,0,1-.76-.8.53.53,0,0,0,0,.39,2.07,2.07,0,0,0,.7.8,11.47,11.47,0,0,1,.88.77l.25.34c.07.15.25.26.31.21s-.06-.3-.22-.63a4.11,4.11,0,0,0-1.18-1.08"/><path id="_Path_101" data-name="&lt;Path&gt;" class="cls-6" d="M63.76,101.5c0,.25,0,.91.17.91s.14-.66.17-.91,0-.88,0-.88h-.42a8.74,8.74,0,0,0,0,.88"/><path id="_Path_102" data-name="&lt;Path&gt;" class="cls-7" d="M73.58,64.84a8.8,8.8,0,0,1,.84-5.06l-2.63-2.93c-2.21,1.15-4.91.85-7.86-.17-2.93,1-5.63,1.32-7.84.17l-2.63,2.93a8.57,8.57,0,0,1,.83,5.06c-.41,2.79-1.07,6-.93,7.82,0,.13,0,.26,0,.38h2.39a1.08,1.08,0,0,1,.41-.26,1.32,1.32,0,0,0,.33-.2s.06-.48.35-.58a1.26,1.26,0,0,1,.53-.11.44.44,0,0,0,.35-.16,3,3,0,0,0,.68-1,3.07,3.07,0,0,0,.26-1,4.54,4.54,0,0,1,.12-.81s-.06-.16-.3-.07-.29-.16-.31-.39a1.8,1.8,0,0,1,.12-1c.14-.23.2-.31.2-.31l-.11-.38s-1.53.3-1.78-.88-.32-1.75-.36-1.87-.07-.19-.28-.18-.62-.12-.93-.74-.34-.86-.24-1.1.25-.15.31-.08.45.67.61.49.07-.16-.15-.62a1.24,1.24,0,0,1-.14-.84,3.71,3.71,0,0,0-.07-.66.2.2,0,0,1,.29-.16.84.84,0,0,1,.32.24c.06.08.09.19.21.12s.06-.51.06-.64.17-.23.37-.13a.62.62,0,0,1,.3.49c0,.14,0,.29.1.29s.16-.24.17-.38.09-.39.23-.19a.94.94,0,0,1,.15.75c-.05.3,0,.15-.05.65a4.22,4.22,0,0,0-.14,1.13,2.41,2.41,0,0,0,.22,1.07c.18.47.33,1,.69,1l.46,0a3.11,3.11,0,0,1,.69-.94,2.84,2.84,0,0,1,1-.26c.3,0,.43-.12.43-.19s-.09-.1-.47-.16-.66-.13-.68-.42.06-.51-.18-.53a1.48,1.48,0,0,1-1.05-.6.82.82,0,0,1-.14-.69c0-.22.31-.65.49-.24s.28.45.44.55.35.1.25-.17a1.91,1.91,0,0,1-.15-.66.41.41,0,0,1,.34-.34c.17,0,.65-.19.92-.24l.26-.06s0-.2.36-.29a2.14,2.14,0,0,1,.79-.11,1.37,1.37,0,0,0,.73-.11,1.57,1.57,0,0,1,.77-.18,1,1,0,0,1,.5.2c.17.09.1.24.1.38s0,.21.25.21a1.41,1.41,0,0,1,.59.08c.23.09.5.18.32.41s-.19.46-.32.44-.09.12-.13.19-.09.14,0,.22.14.15.33.31.44.35.17.61a3.12,3.12,0,0,1-.74.49s-.26.12,0,.3.44.56.56.61l.3.21c.08,0,.07.29.07.29a1.79,1.79,0,0,1-.4.2,2.05,2.05,0,0,1-.68.19c-.21,0-.32,0-.25.21s.25.42.28.51a2.5,2.5,0,0,1,.09.34,4.82,4.82,0,0,0,.67.06,6.84,6.84,0,0,0,1.15-.06,6,6,0,0,1,1.58,0,6.87,6.87,0,0,1,.95.11,2.65,2.65,0,0,1,.35.15,8.66,8.66,0,0,0,1.47-.12c.53-.12.65-.46.57-.62s0-.44-1-.57-1.26-.08-2-.22-1.85-.5-2-1.41a1.29,1.29,0,0,1,.91-1.46c.36-.18,1.16-.45,1.53-.61a3.68,3.68,0,0,1,1.75-.21c.71.11,1.11.3,1.38.14s.51,0,.47.21a1.55,1.55,0,0,1-1.13,1,5.12,5.12,0,0,1-2.29.13c-.51-.14-.9-.36-1.22-.23a.61.61,0,0,0-.33,1c.34.48,2.09.62,2.56.66s2.21-.07,2.7.79a1.46,1.46,0,0,1-.48,2,7.49,7.49,0,0,1-1.53.41l-.44.06a2.89,2.89,0,0,1,.21.65c0,.2,0,.55.19.69a1.29,1.29,0,0,0,.88.21c.37,0,.82.21.85.54s.11.79.16,1.44,0,1.21,0,1.21a3.5,3.5,0,0,1-.12.5c-.09.25-.55,1.17-.55,1.17h2.56c0-.12,0-.25,0-.38.12-1.86-.54-5-1-7.82"/><path id="_Path_103" data-name="&lt;Path&gt;" class="cls-8" d="M53.7,74.29a7.28,7.28,0,0,0,3.1,3.82C59,79.43,59.93,79.24,62,80.59s1.92,1.57,1.94,1.57-.09-.23,2-1.57,3-1.16,5.19-2.48a7.26,7.26,0,0,0,3.09-3.82Z"/><path id="_Path_104" data-name="&lt;Path&gt;" class="cls-4" d="M55.49,63.26a.76.76,0,0,0,.75.28c.36,0,.45.23.51.5a5.92,5.92,0,0,0,.33,1.57c.25.62,1.11.66,1.11.66a4.14,4.14,0,0,1,.27-1c0-.06.14-.34-.18-.34s-.3-.12-.48-.42a5.71,5.71,0,0,1-.63-1.57,4.39,4.39,0,0,1,.16-1.54c.09-.27.1-.44,0-.51a.66.66,0,0,0-.29,0s.08.24,0,.28-.17-.12-.22-.3-.14-.14-.26-.13-.14.12,0,.24a.6.6,0,0,1,0,.35,3,3,0,0,0-.39-.25.35.35,0,0,0-.4.2,1.07,1.07,0,0,0,.34.73.76.76,0,0,1,.17.78c-.09.2-.43.16-.51.08a.2.2,0,0,0-.31,0c-.11.12-.2.17,0,.42"/><path id="_Path_105" data-name="&lt;Path&gt;" class="cls-4" d="M55.34,62.61l-.19-.17a1.21,1.21,0,0,0-.14-.2.63.63,0,0,0,0,.2.6.6,0,0,0,.16.32Z"/><path id="_Path_106" data-name="&lt;Path&gt;" class="cls-4" d="M55.87,60.89c.1,0,.19-.07.1-.19s-.15-.27-.24-.28a.34.34,0,0,0-.17,0,1.58,1.58,0,0,1,.13.36c0,.12.06.17.18.12"/><path id="_Path_107" data-name="&lt;Path&gt;" class="cls-4" d="M56.51,60.38c0,.1,0,.15.11.1a.23.23,0,0,0,.09-.28.9.9,0,0,0-.16-.17l-.08,0a2.32,2.32,0,0,1,0,.39"/><path id="_Path_108" data-name="&lt;Path&gt;" class="cls-4" d="M57.43,60.53a.86.86,0,0,0,0-.26.41.41,0,0,1-.07.23c-.06.08,0,.06,0,.14s.07,0,.08-.11"/><path id="_Path_109" data-name="&lt;Path&gt;" class="cls-4" d="M58.87,66.79c.19.42.65-.25,1.07-.78s.4-.12.35.32a1.89,1.89,0,0,0,.29,1.18c.15.3.29.13.36-.07a4.19,4.19,0,0,1,.28-.87c.13-.2.27,0,.28.16a2.37,2.37,0,0,0,.45.83c.21.24.3-.08.37-.38s.16-.74.22-.92.24,0,.24,0l.42.4c.28.27.32-.15.34-.36s0-.67,0-.75.31.12.7.29.34-.17.3-.36a2.08,2.08,0,0,0-.55-.9c-.29-.25-.34-.55-.24-.68s.45,0,.68,0a2.22,2.22,0,0,0,.49-.07.19.19,0,0,0,.17-.19,1.71,1.71,0,0,0-.35-.42,1.65,1.65,0,0,0-.68-.46,2.47,2.47,0,0,0-.7,0l0-.07c0-.08-.12-.08-.18,0a4.18,4.18,0,0,1-.3.3c-.11.08-.18.14-.24.1s0-.13,0-.13a1.26,1.26,0,0,0,.29-.4c.14-.28.18-.55.07-.67s-.41,0-.59,0-.27,0-.28-.06.17,0,.38-.07.34-.28.41-.49.12-.17.24-.06.25.1.28,0a2.34,2.34,0,0,1,.27-.51.63.63,0,0,0,.07-.69.53.53,0,0,0-.68-.06.76.76,0,0,0-.3.56c0,.31-.11.15-.11,0s-.15-.24-.09-.38a.28.28,0,0,0,0-.25.36.36,0,0,0-.32-.33,2.25,2.25,0,0,0-.92.08.29.29,0,0,0-.23.34,4.06,4.06,0,0,0-.46,0,5.19,5.19,0,0,0-.73.18c-.23,0-.32.09-.32.19a1.76,1.76,0,0,0,0,.3.71.71,0,0,1,.29.06c.09.05,0,.14-.07.19s-.16.05-.16.19.06.17.17.17a1.45,1.45,0,0,1,.63.13.47.47,0,0,1,.31.52c0,.14-.41.32-.61.32s-.25,0-.25.17.24.11.24.11.24,0,.69.07a1.1,1.1,0,0,1,.75.33c.21.18.05.23,0,.29a1.74,1.74,0,0,1-.39.23c-.16.05-.26.17-.41.21a3.35,3.35,0,0,0-1.13.26A1.69,1.69,0,0,0,58.86,65l.37-.19c.29-.15.66-.33,1-.53s.33.1.15.4.15.22.26.14a3.28,3.28,0,0,1,.54-.34c.32-.15.22.11.22.11a1.91,1.91,0,0,0-.14.66c0,.46.46,0,.69-.27s.32,0,.16.33-.49.61-.69.61-.31-.2-.33-.31.06-.45-.05-.52-.43,0-.68.14-.28,0-.33-.1.08-.16,0-.25-.18,0-.28.05-.33.16-.75.38-.41.35-.41.69.09.37.26.79"/><path id="_Path_110" data-name="&lt;Path&gt;" class="cls-4" d="M63.07,59.78a2.17,2.17,0,0,1,.26-.12,3.28,3.28,0,0,1,.39-.07c.17,0,.16-.15.11-.22s-.11-.12-.35-.12a1.43,1.43,0,0,0-.56.17,2.44,2.44,0,0,1-.29.1l.12.18a.24.24,0,0,0,.32.08"/><path id="_Path_111" data-name="&lt;Path&gt;" class="cls-4" d="M64.07,60.77a.83.83,0,0,0,.22,0,2.37,2.37,0,0,1,.33-.15.5.5,0,0,0,.34-.29c.09-.19-.11-.19-.41-.26s-.42,0-.45.12a1.89,1.89,0,0,1-.14.44c-.12.21,0,.18.11.18"/><path id="_Path_112" data-name="&lt;Path&gt;" class="cls-4" d="M64,61c-.28,0-.59.43-.71.49s-.05.16-.05.16a2.11,2.11,0,0,1,.12.33,2.52,2.52,0,0,1,0,.45.55.55,0,0,0,.2,0,.66.66,0,0,0,.42-.2,1.05,1.05,0,0,1,.51-.2,1.79,1.79,0,0,0,.57-.22c.25-.12-.12-.36-.39-.57A1,1,0,0,0,64,61"/><path id="_Path_113" data-name="&lt;Path&gt;" class="cls-4" d="M60.25,62c.22,0,.33-.13.33-.24s-.12-.27-.4-.24c-.7.05-1.36-.19-1.49-.87a.81.81,0,0,0,.19.9,1.69,1.69,0,0,0,1.37.45"/><path id="_Path_114" data-name="&lt;Path&gt;" class="cls-4" d="M57.88,72.94A.38.38,0,0,0,58,73h1.06c.2,0,.2-.21.2-.32s.1-.53.26-1.23A8.47,8.47,0,0,1,60,70c.1-.29-.1-.38-.18-.56a5.1,5.1,0,0,1-.22-.66c0-.15-.27-.13-.42-.13s-.16.24-.17.45-.13.83-.22,1.37a3.65,3.65,0,0,1-.89,1.42.64.64,0,0,1-.42.21.93.93,0,0,0-.48.09.55.55,0,0,0-.28.42c0,.16.25.25.25.25a1.29,1.29,0,0,0,.27-.23,1.08,1.08,0,0,1,.41-.14c.17,0,.18,0,.12.12s0,.11.08.34"/><path id="_Path_115" data-name="&lt;Path&gt;" class="cls-4" d="M56.27,72.88c-.1,0-.14.11-.18.16h.69a.56.56,0,0,0-.07-.16c-.08-.1-.3-.06-.44,0"/><path id="_Path_116" data-name="&lt;Path&gt;" class="cls-4" d="M57.21,72.85A.92.92,0,0,0,57,73h.74a.16.16,0,0,0-.06-.23c-.16-.13-.32,0-.44,0"/><path id="_Path_117" data-name="&lt;Path&gt;" class="cls-4" d="M63.7,72.55c-.09,0-.16.07-.28.15a.39.39,0,0,0-.16.3,0,0,0,0,0,0,0h.32s0,0,0,0,0-.17.18-.28,0-.17-.07-.17"/><path id="_Path_118" data-name="&lt;Path&gt;" class="cls-4" d="M64.32,72.88c0-.09,0-.18-.11-.17s-.19.14-.29.21a.68.68,0,0,0-.12.12h.48a.42.42,0,0,0,0-.16"/><path id="_Path_119" data-name="&lt;Path&gt;" class="cls-4" d="M67.21,69.44c.23-.16.19-.21.2-.39s0-.21-.08-.28a1.57,1.57,0,0,0-.75-.21,2.81,2.81,0,0,0-1.13.22c-.23.15-.34.71-.34,1s0,.35.13.35.22-.2.22-.2a7.43,7.43,0,0,1,.48.66.48.48,0,0,1,0,.57,2.06,2.06,0,0,1-.61.88c-.24.12-.41,0-.7,0a.61.61,0,0,0-.59.19c-.16.17,0,.3.09.3a.37.37,0,0,1,.34.13c.07.09,0,.31,0,.42h1.38a1.14,1.14,0,0,0,.48-.59,1.69,1.69,0,0,1,.5-.6c.15-.13.16-.23.16-.52a1.19,1.19,0,0,0-.19-.68,1.33,1.33,0,0,1-.15-.69c0-.17.34-.36.56-.52"/><path id="_Path_120" data-name="&lt;Path&gt;" class="cls-4" d="M64.94,66c.14.23.06.28-.14.32a2.6,2.6,0,0,1-.73,0c-.3,0-.3,0-.3.16a1.4,1.4,0,0,1-.21.74c-.18.25-.41.14-.55,0s-.21-.06-.28.12a2.53,2.53,0,0,1-.28.53c-.14.26-.24.28-.34.25s-.2-.18-.31-.18-.27-.23-.43-.48-.23,0-.33.25-.2.37-.41.35-.43-.4-.53-.62-.18-.45-.35-.45-.47.38-.65.47-.24.07-.33,0-.2,0-.31.32a.49.49,0,0,0,.15.61c.17.08.48-.14.68-.28a.7.7,0,0,1,.53-.12c.21,0,.19.37.29.88s.39.58.39.58.11.09.34-.3.26-.79.49-.79.23.05.46.37.42.54.55.3a2.8,2.8,0,0,1,.39-.71c.14-.1.28-.14.12.09s-.22.46.09.37,1.54-.6,2-.68A9.92,9.92,0,0,1,66.22,68c.66,0,.83-.06,1.08-.06s.27,0,.29-.21-.12-.14-.6-.14a6.9,6.9,0,0,0-1.15.11c-.34.06-.51,0-.45,0s.16-.14.56-.2a13.65,13.65,0,0,1,1.58-.12c.43,0,.3.12.27.4a4.9,4.9,0,0,0,0,.94,1.1,1.1,0,0,0,.26.69c.22.37,1,.6,1.23.72s.19,0,.17-.23.18-.19.37-.08a4.64,4.64,0,0,0,.77.26c.24.06.25.1.25.23s0,.39.06.64a.57.57,0,0,1-.07.48l-.55.6a2.79,2.79,0,0,0-.62.11c-.43.1-.56.29-.6.47s.09.23.1.3v.2h.09a1.45,1.45,0,0,1,.15-.23.72.72,0,0,1,.76-.11.3.3,0,0,1,.15.33h1c.13-.24.44-.85.52-1a1.33,1.33,0,0,0,.18-.69,11.5,11.5,0,0,0,0-1.62c0-.07,0-.28,0-.62s0-.61-.64-.67a1.45,1.45,0,0,1-1-.54c-.22-.22-.18-.73-.34-1.33s-.59-.7-1.35-.84a6.19,6.19,0,0,0-1.87-.11,12.78,12.78,0,0,1-1.64.1c-.38,0-.32.07-.18.29"/><path id="_Path_121" data-name="&lt;Path&gt;" class="cls-4" d="M68.57,72.92a.38.38,0,0,0-.15.12h.65a.2.2,0,0,0-.07-.17c-.09-.13-.28-.06-.43,0"/><path id="_Path_122" data-name="&lt;Path&gt;" class="cls-4" d="M69.72,72.88a.76.76,0,0,0-.21.16h.66V73a.32.32,0,0,0-.45-.09"/><path id="_Path_123" data-name="&lt;Path&gt;" class="cls-4" d="M53.43,73.28c0,.22.08.41.15.63H74.3a4.75,4.75,0,0,0,.14-.63Z"/><path id="_Path_124" data-name="&lt;Path&gt;" class="cls-4" d="M67.4,63.4c.65.42,2.73.45,3.7.64s.92.94.61,1.34-1.67.43-1.91.46a1.94,1.94,0,0,1,.33.39l.57-.06a3,3,0,0,0,1.62-.53,1,1,0,0,0,0-1.54,3.16,3.16,0,0,0-1.9-.58c-.73-.08-1.3-.12-2.14-.27s-1.22-.47-1.22-1a.94.94,0,0,1,.76-.82,2.12,2.12,0,0,1,1.31,0,4,4,0,0,0,1.89.07,1.3,1.3,0,0,0,1.13-.74,2,2,0,0,1-.59.06c-.46,0-.79-.19-1.61-.2a3.5,3.5,0,0,0-1.55.42c-.38.14-1.43.24-1.73.92s0,1,.7,1.45"/><path id="_Path_125" data-name="&lt;Path&gt;" class="cls-6" d="M62,59.87a.39.39,0,1,1-.39.39.4.4,0,0,1,.39-.39"/><path id="_Path_126" data-name="&lt;Path&gt;" class="cls-6" d="M70.34,60.93a4.27,4.27,0,0,0-1.18.09.52.52,0,0,0,.3.08,4,4,0,0,1,1,.07,1.3,1.3,0,0,0,.87-.15s-.45-.06-1-.09"/><path id="_Path_127" data-name="&lt;Path&gt;" class="cls-4" d="M87,84.13c.42.1,3.84.76,4.12.81s.53.13.6.06a.86.86,0,0,1,.44-.24.41.41,0,0,0,.28-.42,2.93,2.93,0,0,0,.11-.58c0-.28.19-.38.53,0a2.22,2.22,0,0,1,.46,1.35c.07.49.85.63,1.14.67s.46,0,.63-.33a3.78,3.78,0,0,0,.33-1.24c0-.36,0-.33-.37-.43s-2.16-.48-2.47-.57-.26-.28-.22-.51.76-2.47.76-2.47a4.79,4.79,0,0,0-2-.58s-.5,2.29-.6,2.63-.32.35-.69.3-3-.69-3-.69l-.21.5a4.25,4.25,0,0,0-.3,1.39c0,.29.11.28.52.37"/><path id="_Path_128" data-name="&lt;Path&gt;" class="cls-4" d="M96,86.21c-.36-.23-.62-.29-.8.14s-.2,1.06-.66,1.49a2.45,2.45,0,0,1-1.73.86c-.65,0-1-.2-.87-.92s1.14-1,1.37-1.36a.84.84,0,0,0-.18-1.11,1,1,0,0,0-1-.26,2.18,2.18,0,0,0-.73,1,2.9,2.9,0,0,1-.75,1.34,3.24,3.24,0,0,1-2.39.5,1.72,1.72,0,0,1-1.48-1.3A23.47,23.47,0,0,0,86,84.18a.54.54,0,0,0-.75,0,1.26,1.26,0,0,0-.44,1,1.31,1.31,0,0,0,.36,1.1,4,4,0,0,1,.89,1.34c.14.46.55,1.17,0,1.19a1.32,1.32,0,0,1-1.3-.39c-.43-.41-2.18-1.59-2.64-2s-.68-.5-.68-.5A4.42,4.42,0,0,1,79,85s.44,1.18.55,1.63a2.71,2.71,0,0,1,.07.69l2.43,1.21c.69.34,2.08,1.14,2.74,1.55s1.25,1.06,2.44.81,3.62-1,4.39-1.21a17.49,17.49,0,0,0,3.73-1.31c.79-.55.86-.53,1-1.08A.87.87,0,0,0,96,86.21"/><path id="_Path_129" data-name="&lt;Path&gt;" class="cls-4" d="M91.44,78a3.61,3.61,0,0,1,.59-.1c.41-.06.26.34.18.48a5.25,5.25,0,0,1-.36.73c-.17.29.05.33.17.37s.28.07.6.16.27-.16.29-.27,0-.77,0-1,.26-.17.32-.13l.46.25c.18.09.24,0,.28-.11s.12-.27.19-.52-.09-.21-.26-.21h-.64c-.27,0-.09-.26-.09-.26s.18-.32.34-.57.09-.26-.06-.31-.61-.15-.75-.18-.2,0-.2.07,0,.53,0,.72,0,.28-.25.29-.37-.13-.55-.32-.27-.13-.28-.06l-.2.84c-.05.15,0,.14.18.14"/><path id="_Path_130" data-name="&lt;Path&gt;" class="cls-4" d="M78.17,84.45c-.27-.28.4-.28.78-.28a2.94,2.94,0,0,0,1.23-.34c.2-.12.57-.19,1-.4s.17-.27-.26-.38a15.54,15.54,0,0,1-1.59-.59s-.56.3-.87.49a3.54,3.54,0,0,1-1.41.53,6.07,6.07,0,0,0-.93.14s.17.17.44.55.36.6.67,1.15,0,.22-.31-.11a8.8,8.8,0,0,0-.82-1,3.31,3.31,0,0,0-.49-.42l-.22.46v.17c0,.15-.13.89-.17,1.2s.07.3.31.41a21.09,21.09,0,0,1,2,1.17,8.28,8.28,0,0,1,1.75,1.33,5.36,5.36,0,0,0,.05-.68A5.27,5.27,0,0,0,79,86a4.76,4.76,0,0,0-.82-1.57"/><path id="_Path_131" data-name="&lt;Path&gt;" class="cls-4" d="M75.21,82.68a3.09,3.09,0,0,0,.84.13c.42,0,.59-.13,1-.13a3.15,3.15,0,0,0,1.44-.51c.69-.39,0-.28-.47-.24a7.5,7.5,0,0,1-2.32-.36c-.55-.2-.15-.23,0-.19a6.27,6.27,0,0,0,1.33.28,3.56,3.56,0,0,0,2.07-.2c.56-.15-.14-.23-.14-.23a7.33,7.33,0,0,1-3-1.69,4.42,4.42,0,0,1-1.09-2,10.71,10.71,0,0,1-1.29,1.24,2.51,2.51,0,0,0,.2.64,3.75,3.75,0,0,0,.64.87,2.87,2.87,0,0,1-.86-.53,3.06,3.06,0,0,1-.43-.66,14.27,14.27,0,0,1-2,1.12l.26.22a5.07,5.07,0,0,1,.87,1.11c.35.56,0,.51-.28,0a4.23,4.23,0,0,0-1.25-1.11h-.06a1.47,1.47,0,0,1-.22.1l-1.21.53a6.39,6.39,0,0,1,1.06,1.08c.22.33.68.62.83.85s.36.47.58.74,1.56,1.77,1.92,2.34.15-.14.06-.53-.22-.94-.35-1.38.14-.25.2,0,.09.26.2.73.37,1.14.49,1.63.16.24.28,0A5,5,0,0,0,75,85.7a7,7,0,0,0,.14-1.59,2.53,2.53,0,0,0-.38-1.27c0-.11.19-.21.48-.16"/><path id="_Path_132" data-name="&lt;Path&gt;" class="cls-4" d="M81,84.45a3.48,3.48,0,0,1-.71.23,2.35,2.35,0,0,1-.33,0,1.29,1.29,0,0,0,.94.53h1.62s-1-.58-1.09-.7a.4.4,0,0,0-.43-.09"/><path id="_Path_133" data-name="&lt;Path&gt;" class="cls-4" d="M92.71,83.76a3.61,3.61,0,0,1,0,.64c-.06.15-.16.38,0,.45s.37.15.48.11.07-.25,0-.44a1.61,1.61,0,0,0-.3-.6Z"/><path id="_Path_134" data-name="&lt;Path&gt;" class="cls-4" d="M95.52,85.61a.4.4,0,0,0,.3.22c.08,0,.22,0,.22-.15a.92.92,0,0,0-.11-.59c-.15-.18-.22-.32-.31,0s-.15.43-.1.56"/><path id="_Path_135" data-name="&lt;Path&gt;" class="cls-4" d="M85.75,83.76a3.09,3.09,0,0,1,.37.1,4.18,4.18,0,0,1,.07-.75c.07-.3.18-.51.08-.51s-.17.1-.25.23-.31.15-.39.52,0,.39.12.41"/><path id="_Path_136" data-name="&lt;Path&gt;" class="cls-6" d="M47.1,71.15a2.29,2.29,0,0,1-.74.35s-.2,0-.2.06.22,0,.47,0a2,2,0,0,0,.7-.38c.11-.08.3-.2.24-.35s-.15.11-.47.36"/><path id="_Path_137" data-name="&lt;Path&gt;" class="cls-6" d="M49.84,72.62a5.22,5.22,0,0,1-.6.49,2.31,2.31,0,0,1-.34.17.33.33,0,0,0-.21.17s0,0,.21,0a5.5,5.5,0,0,0,.92-.62c.18-.14.25-.19.2-.26s-.11,0-.18.05"/><path id="_Path_138" data-name="&lt;Path&gt;" class="cls-6" d="M38.66,52.78c.11.13.23.28.28.24s0-.11-.14-.27l-.21-.24a3,3,0,0,0-.29-.41c-.12-.11-.28-.16-.08.1a6.82,6.82,0,0,1,.44.58"/><path id="_Path_139" data-name="&lt;Path&gt;" class="cls-6" d="M37.82,54.64a4.07,4.07,0,0,1,.36.36c.13.13.24.29.32.22s-.2-.24-.33-.41a2.59,2.59,0,0,0-.37-.37,2.55,2.55,0,0,0-.34-.21,3.75,3.75,0,0,0,.36.41"/><path id="_Path_140" data-name="&lt;Path&gt;" class="cls-6" d="M38.13,57.64c.22.22.53.28.58.2s0-.16-.2-.25-.47-.28-.62-.37a2.38,2.38,0,0,1-.38-.32c-.1-.09-.21-.18-.24-.14s.28.39.38.44a1.89,1.89,0,0,1,.48.44"/><path id="_Path_141" data-name="&lt;Path&gt;" class="cls-6" d="M38.75,60c0-.08,0-.13-.16-.14l-.42,0s-.34-.15-.37-.08.3.2.42.23a1.09,1.09,0,0,1,.38.1.09.09,0,0,0,.15-.08"/><path id="_Path_142" data-name="&lt;Path&gt;" class="cls-6" d="M39,62.66c-.39,0-.71-.09-.72,0s.18.14.36.21a2.68,2.68,0,0,0,.78.1c.24,0,.3,0,.28-.17s-.32-.1-.7-.1"/><path id="_Path_143" data-name="&lt;Path&gt;" class="cls-6" d="M42,65.51c-.05-.05-.19,0-.39,0a3.27,3.27,0,0,1-.75.09h-.63s-.25,0-.25,0,.31,0,.78.1a3.46,3.46,0,0,0,1-.07c.22,0,.29-.14.23-.2"/><path id="_Path_144" data-name="&lt;Path&gt;" class="cls-6" d="M43.17,67.56a1.59,1.59,0,0,1-.57.1,4.37,4.37,0,0,0-.59.08s-.21,0-.18.11.11,0,.28,0,.3,0,.62,0a3,3,0,0,0,.68-.13c.18,0,.41-.12.29-.24s-.29,0-.53.12"/><path id="_Path_145" data-name="&lt;Path&gt;" class="cls-6" d="M45.54,69.1a7.33,7.33,0,0,1-.64.47,1.45,1.45,0,0,1-.29.18c-.2.09-.2.14-.17.2s.17-.09.27-.12a6,6,0,0,0,.66-.45c.2-.15.44-.28.39-.38s-.08,0-.22.1"/><path id="_Path_146" data-name="&lt;Path&gt;" class="cls-6" d="M41.6,49.16a4.11,4.11,0,0,0,.45.61c.41.51.2,0,.09-.1s-.69-1-.9-1.23-.24-.1-.13,0l.49.68"/><path id="_Path_147" data-name="&lt;Path&gt;" class="cls-6" d="M40.74,51.79c.06-.06-.08-.13-.31-.42s-.69-.89-.69-.89-.14-.28-.18-.25.15.47.34.66.45.56.58.72.19.23.26.18"/><path id="_Path_148" data-name="&lt;Path&gt;" class="cls-6" d="M41.88,56.7c0-.14-.47-.12-.67-.17s-.59-.12-.59-.12-.44-.07-.44,0,.07.1.32.15.61.15.88.19.5.1.5,0"/><path id="_Path_149" data-name="&lt;Path&gt;" class="cls-6" d="M40.74,54a4,4,0,0,0,.67.46c.17.08.29.21.39.11s-.08-.18-.34-.29a3.6,3.6,0,0,1-.4-.22L40.78,54c-.13-.07-.35-.16,0,.08"/><path id="_Path_150" data-name="&lt;Path&gt;" class="cls-6" d="M43.38,52.29a3,3,0,0,0-.34-.24s-.25-.22-.28-.16.26.3.4.43.42.5.54.44-.12-.31-.32-.47"/><path id="_Path_151" data-name="&lt;Path&gt;" class="cls-6" d="M41.66,59.14l-.42.13c-.17,0-.18.11.12.11a3.3,3.3,0,0,0,.71-.13c.32-.06.41-.09.37-.19s-.2-.06-.33,0-.45.12-.45.12"/><path id="_Path_152" data-name="&lt;Path&gt;" class="cls-6" d="M42.12,61.62c0,.07.21,0,.36-.06s.48-.21.67-.27.19-.09.19-.2-.21,0-.44.07a1.9,1.9,0,0,0-.55.32s-.21.08-.23.14"/><path id="_Path_153" data-name="&lt;Path&gt;" class="cls-6" d="M45.32,63.14c.22-.14.27-.23.19-.31s-.15,0-.32.09-.52.39-.52.39l-.32.13c-.13.07-.29.18-.24.24s.31,0,.45-.11.54-.29.76-.43"/><path id="_Path_154" data-name="&lt;Path&gt;" class="cls-6" d="M46.82,65.13c.1-.07.36-.16.49-.26s.18-.35.09-.39-.15.12-.35.28l-.95.62-.18.08c-.21.08-.11.13,0,.11a.76.76,0,0,0,.48-.17c.21-.16.29-.19.37-.27"/><path id="_Path_155" data-name="&lt;Path&gt;" class="cls-6" d="M49.06,67a2.67,2.67,0,0,0,.59-.44c.14-.12.31-.28.22-.35s-.23,0-.38.16-.56.57-.56.57a1.39,1.39,0,0,0-.28.19c-.22.18,0,.15.09.07a1,1,0,0,1,.32-.2"/><path id="_Path_156" data-name="&lt;Path&gt;" class="cls-6" d="M81.52,71.5a2.1,2.1,0,0,1-.73-.35c-.33-.25-.43-.51-.49-.36s.13.27.24.35a1.84,1.84,0,0,0,.71.38c.24,0,.48.12.48,0s-.21-.06-.21-.06"/><path id="_Path_157" data-name="&lt;Path&gt;" class="cls-6" d="M79,73.28a3.12,3.12,0,0,1-.34-.17,6.29,6.29,0,0,1-.59-.49c-.07-.07-.11-.11-.16-.05s0,.12.18.26a5.06,5.06,0,0,0,.91.62c.2,0,.24,0,.24,0a.48.48,0,0,0-.24-.17"/><path id="_Path_158" data-name="&lt;Path&gt;" class="cls-6" d="M89.21,52.78c.09-.12.23-.33.43-.58s0-.21-.06-.1-.3.41-.3.41-.07.07-.21.24-.2.2-.14.27.17-.11.28-.24"/><path id="_Path_159" data-name="&lt;Path&gt;" class="cls-6" d="M89.37,55.22c.09.07.19-.09.31-.22s.25-.25.37-.36.37-.41.37-.41a1.65,1.65,0,0,0-.34.21,2.28,2.28,0,0,0-.39.37c-.11.17-.39.32-.32.41"/><path id="_Path_160" data-name="&lt;Path&gt;" class="cls-6" d="M90.61,56.76s-.16.05-.26.14a1.53,1.53,0,0,1-.38.32c-.14.09-.42.28-.6.37s-.24.16-.2.25.35,0,.56-.2a2.59,2.59,0,0,1,.48-.44c.12-.05.44-.41.4-.44"/><path id="_Path_161" data-name="&lt;Path&gt;" class="cls-6" d="M89.69,59.85s-.23,0-.41,0-.15.06-.15.14.05.13.14.08a1.25,1.25,0,0,1,.37-.1c.14,0,.45-.17.42-.23s-.37.06-.37.06"/><path id="_Path_162" data-name="&lt;Path&gt;" class="cls-6" d="M88.86,62.66c-.37,0-.69,0-.71.1s0,.18.28.17a2.85,2.85,0,0,0,.79-.1c.17-.07.38-.15.36-.21s-.35,0-.72,0"/><path id="_Path_163" data-name="&lt;Path&gt;" class="cls-6" d="M87.7,65.64h-.62a3.53,3.53,0,0,1-.78-.09c-.2,0-.32-.09-.38,0s0,.17.23.2a3.49,3.49,0,0,0,1,.07c.46-.06.77,0,.77-.1s-.23,0-.23,0"/><path id="_Path_164" data-name="&lt;Path&gt;" class="cls-6" d="M85.88,67.74a5.47,5.47,0,0,0-.61-.08,1.67,1.67,0,0,1-.57-.1c-.24-.09-.43-.26-.53-.12s.12.22.29.24a2.92,2.92,0,0,0,.68.13c.31,0,.44,0,.63,0s.23.1.27,0-.16-.11-.16-.11"/><path id="_Path_165" data-name="&lt;Path&gt;" class="cls-6" d="M83.27,69.75a2.68,2.68,0,0,1-.3-.18s-.5-.34-.64-.47-.17-.21-.22-.1.2.23.38.38a6.52,6.52,0,0,0,.67.45c.11,0,.23.17.26.12s.06-.11-.15-.2"/><path id="_Path_166" data-name="&lt;Path&gt;" class="cls-6" d="M85.81,49.77c.41-.51.48-.61.48-.61s.38-.54.49-.68.06-.27-.14,0-.8,1.1-.92,1.23-.32.61.09.1"/><path id="_Path_167" data-name="&lt;Path&gt;" class="cls-6" d="M88.31,50.23s-.17.25-.17.25-.47.61-.71.89-.35.36-.3.42.13,0,.27-.18.37-.52.56-.72.41-.63.35-.66"/><path id="_Path_168" data-name="&lt;Path&gt;" class="cls-6" d="M86,56.7c0,.14.23.09.51,0s.63-.16.88-.19.33-.11.32-.15-.45,0-.45,0l-.58.12c-.2,0-.68,0-.68.17"/><path id="_Path_169" data-name="&lt;Path&gt;" class="cls-6" d="M87.09,54l-.28.14a2.34,2.34,0,0,1-.38.22c-.29.11-.44.18-.34.29s.2,0,.38-.11a4.56,4.56,0,0,0,.66-.46c.3-.24.09-.15,0-.08"/><path id="_Path_170" data-name="&lt;Path&gt;" class="cls-6" d="M84.17,52.76c.14.06.4-.31.54-.44s.45-.35.41-.43-.28.16-.28.16a1.75,1.75,0,0,0-.34.24c-.19.16-.47.39-.33.47"/><path id="_Path_171" data-name="&lt;Path&gt;" class="cls-6" d="M85.79,59.25a3.91,3.91,0,0,0,.72.13c.3,0,.29-.08.12-.11l-.41-.13s-.34-.08-.45-.12-.3-.06-.33,0,.06.13.35.19"/><path id="_Path_172" data-name="&lt;Path&gt;" class="cls-6" d="M85.54,61.48a2.2,2.2,0,0,0-.56-.32c-.25-.08-.44-.17-.44-.07s0,.15.19.2.5.23.65.27.39.12.37.06-.21-.14-.21-.14"/><path id="_Path_173" data-name="&lt;Path&gt;" class="cls-6" d="M83.51,63.44l-.3-.13s-.34-.24-.52-.39-.24-.16-.33-.09,0,.17.19.31a7.11,7.11,0,0,1,.76.43c.14.11.42.18.45.11s-.12-.17-.25-.24"/><path id="_Path_174" data-name="&lt;Path&gt;" class="cls-6" d="M82,65.46l-.19-.08-.93-.62c-.22-.16-.27-.31-.38-.28s0,.3.11.4.38.18.48.25.17.11.37.27a.8.8,0,0,0,.48.17c.16,0,.26,0,.06-.11"/><path id="_Path_175" data-name="&lt;Path&gt;" class="cls-6" d="M79.22,67.15A1.26,1.26,0,0,0,79,67s-.4-.43-.57-.57-.27-.25-.36-.16,0,.23.19.35a2.74,2.74,0,0,0,.6.44.83.83,0,0,1,.32.2c.07.08.31.11.09-.07"/><path id="_Path_176" data-name="&lt;Path&gt;" class="cls-4" d="M63.93,40.36a13.41,13.41,0,0,1-4.25-.55l-1,.22a13.67,13.67,0,0,0,5.29.87A13.7,13.7,0,0,0,69.22,40l-1-.22a13.45,13.45,0,0,1-4.25.55"/><path id="_Path_177" data-name="&lt;Path&gt;" class="cls-4" d="M69.4,39.1a8.64,8.64,0,0,0-1-.68c-.19-.09,0-.32,0-.43a4.18,4.18,0,0,1,1.23-.42c.42-.11.36-.2.36-.2s-.25-.3-1.8-.46-4.28-.13-4.28-.13-2.71,0-4.27.13-1.8.46-1.8.46-.07.09.35.2a4,4,0,0,1,1.23.42c0,.11.18.34,0,.43a11.18,11.18,0,0,0-1,.68c-.12.1-.13.26.06.26a1.78,1.78,0,0,0,.72-.09,25.85,25.85,0,0,1,9.39,0,1.77,1.77,0,0,0,.72.09c.19,0,.18-.16.05-.26"/><polygon id="_Path_178" data-name="&lt;Path&gt;" class="cls-4" points="58.02 37.73 57.33 38.28 58.16 38.65 59.08 38.01 58.02 37.73"/><polygon id="_Path_179" data-name="&lt;Path&gt;" class="cls-4" points="69.84 37.73 68.8 38.01 69.69 38.65 70.53 38.28 69.84 37.73"/><path id="_Path_180" data-name="&lt;Path&gt;" class="cls-4" d="M67.66,39.76a21.45,21.45,0,0,0-3.73-.25,26.18,26.18,0,0,0-3.7.25,11,11,0,0,0,3.7.4,11.22,11.22,0,0,0,3.73-.4"/><path id="_Path_181" data-name="&lt;Path&gt;" class="cls-7" d="M65.44,70.56c-.13-.19-.16-.18-.32,0s-.29-.31-.31-.59a10.38,10.38,0,0,1,.12-1.1,9,9,0,0,0-1.09.28c-.38.12-.73.16-1,.24a2.1,2.1,0,0,1-.64.1,4.22,4.22,0,0,0-.77-.06c-.29,0-.27.06-.53.33a2.09,2.09,0,0,0-.57.93,5.46,5.46,0,0,0-.35,1.59,3.87,3.87,0,0,1-.18.81H63l.14-.32a.77.77,0,0,1,.39-.37c.12,0,.23,0,.3-.21a.66.66,0,0,1,.38-.33,1.17,1.17,0,0,1,.75,0c.27.07.36-.13.43-.23s.12-.23.26-.43a.3.3,0,0,0,0-.35,1.2,1.2,0,0,1-.25-.29"/><path id="_Path_182" data-name="&lt;Path&gt;" class="cls-7" d="M70.65,70.65c-.06-.19,0-.22-.15-.24L70,70.29c-.16-.07-.14.36-.14.36a4.13,4.13,0,0,1-.81,0A2.91,2.91,0,0,1,68,70.08a2.2,2.2,0,0,1-.39-.43,1.42,1.42,0,0,1-.26.2c-.14.08-.21.35-.25.63s.33.59.36.88a2.23,2.23,0,0,1-.48,1c-.1.17-.24.49-.32.66h1.55a1.51,1.51,0,0,1,.18-.25.83.83,0,0,1,.44-.2.76.76,0,0,1,.06-.22c0-.14.21-.31.6-.46a3.55,3.55,0,0,1,.86-.18,1.5,1.5,0,0,0,.33-.36,1,1,0,0,0,0-.72"/><polygon id="_Path_183" data-name="&lt;Path&gt;" class="cls-4" points="63.61 25.16 64.42 25.1 64.34 24.38 65.22 24.52 65.25 23.81 64.34 23.88 64.5 23.14 63.49 23.13 63.66 23.88 62.78 23.81 62.78 24.52 63.65 24.4 63.61 25.16"/><path id="_Path_184" data-name="&lt;Path&gt;" class="cls-4" d="M65.38,26.31H64.29v-.94l-.33,0-.27,0v.94H62.55a1.22,1.22,0,0,0,0,.37.66.66,0,0,0,0,.15h2.93v-.15a1.68,1.68,0,0,0-.06-.37"/><path id="_Path_185" data-name="&lt;Path&gt;" class="cls-7" d="M64,28a1.47,1.47,0,0,0,1.4-.91H62.57A1.48,1.48,0,0,0,64,28"/><path id="_Path_186" data-name="&lt;Path&gt;" class="cls-7" d="M64.57,25.46v.65h.73a1.46,1.46,0,0,0-.73-.65"/><path id="_Path_187" data-name="&lt;Path&gt;" class="cls-7" d="M63.36,25.46a1.48,1.48,0,0,0-.72.65h.72Z"/><path id="_Path_188" data-name="&lt;Path&gt;" class="cls-6" d="M64.81,37.33,63.93,37s-.58.27-.89.43-.26.12-.36.33,0,.32.15.38l1.12.56,1.2-.56c.23-.12.19-.22.13-.39s-.2-.24-.47-.37"/><path id="_Path_189" data-name="&lt;Path&gt;" class="cls-6" d="M66.8,37.07a.82.82,0,1,1,0,1.64.82.82,0,1,1,0-1.64"/><path id="_Path_190" data-name="&lt;Path&gt;" class="cls-6" d="M61.05,37.07a.82.82,0,1,1-.86.82.85.85,0,0,1,.86-.82"/><polygon id="_Path_191" data-name="&lt;Path&gt;" class="cls-4" points="62.99 37.62 63.95 38.11 64.9 37.62 63.93 37.16 62.99 37.62"/><path id="_Path_192" data-name="&lt;Path&gt;" class="cls-4" d="M66.8,37.21a.51.51,0,0,1,.52.5.52.52,0,1,1-.52-.5"/><path id="_Path_193" data-name="&lt;Path&gt;" class="cls-4" d="M61.05,37.21a.51.51,0,0,1,.51.5.52.52,0,0,1-1,0,.51.51,0,0,1,.52-.5"/><path id="_Path_194" data-name="&lt;Path&gt;" class="cls-4" d="M59.25,35.05a1.35,1.35,0,0,0,.51.05.64.64,0,0,0-.13-.57c-.2-.18-.39-.32-.51-.44a1,1,0,0,1-.15-.17s0,.33,0,.54a.61.61,0,0,0,.3.59"/><path id="_Path_195" data-name="&lt;Path&gt;" class="cls-4" d="M59.7,35.33a.15.15,0,0,1,.17.14.17.17,0,0,1-.17.16.16.16,0,0,1-.15-.16.15.15,0,0,1,.15-.14"/><path id="_Path_196" data-name="&lt;Path&gt;" class="cls-4" d="M58.54,35.31l-.21.24a.63.63,0,0,1,.31.11.79.79,0,0,0,.5.16.22.22,0,0,0,.22-.28c0-.13-.12-.23-.41-.34s-.35,0-.41.11"/><path id="_Path_197" data-name="&lt;Path&gt;" class="cls-4" d="M59.14,36.31a2.39,2.39,0,0,1-1.26-.54.9.9,0,0,1-.8.81l0,0a3.81,3.81,0,0,0,.91.28,1.72,1.72,0,0,0,.67-.06,2.61,2.61,0,0,0,.8-.24c.32-.19.23-.72.23-.72s0,.39-.59.44"/><path id="_Path_198" data-name="&lt;Path&gt;" class="cls-4" d="M57,35.77a5.58,5.58,0,0,0-.69-.25c-.14,0-.35,0-.31.21s.3.38.55.39a.89.89,0,0,0,.54-.16c.16-.07.12-.11-.09-.19"/><path id="_Path_199" data-name="&lt;Path&gt;" class="cls-4" d="M55.34,34.86a1.21,1.21,0,0,0-.45-.22,1.21,1.21,0,0,0-.07.67.47.47,0,0,0,.51.32c.23,0,.56-.13.47-.3a1.27,1.27,0,0,0-.46-.47"/><path id="_Path_200" data-name="&lt;Path&gt;" class="cls-4" d="M55.56,35.89c.11,0,.2.06.2.13s-.09.13-.2.13-.18,0-.18-.13.08-.13.18-.13"/><path id="_Path_201" data-name="&lt;Path&gt;" class="cls-4" d="M56.09,34a3,3,0,0,1,.54-2.46,4.09,4.09,0,0,1,1.85-1.38,3.71,3.71,0,0,1,.4-.48A8.68,8.68,0,0,1,60,28.74s-.87.21-1.37.37v0a.61.61,0,0,1-.6.62.56.56,0,0,1-.34-.12,6.84,6.84,0,0,0-1.42.79.63.63,0,0,1,.09.33.61.61,0,0,1-.61.61.53.53,0,0,1-.27-.06l-.08.13a5.5,5.5,0,0,0-.43,1,.61.61,0,0,1,.26.53.59.59,0,0,1-.51.62,2.17,2.17,0,0,0,0,.4c0,.2.11.32.44.43s.83.7.83.7A1.44,1.44,0,0,0,56.09,34"/><path id="_Path_202" data-name="&lt;Path&gt;" class="cls-4" d="M58.22,29.41c.13-.1.15-.26.05-.34a.32.32,0,0,0-.41,0,.23.23,0,0,0,0,.36.31.31,0,0,0,.4,0"/><path id="_Path_203" data-name="&lt;Path&gt;" class="cls-4" d="M56,30.94a.32.32,0,0,0,.06-.45.34.34,0,0,0-.47,0,.29.29,0,0,0-.05.44.36.36,0,0,0,.46,0"/><path id="_Path_204" data-name="&lt;Path&gt;" class="cls-4" d="M54.62,32.51a.35.35,0,0,1,.36.34.36.36,0,0,1-.36.35.35.35,0,0,1-.34-.35.34.34,0,0,1,.34-.34"/><path id="_Path_205" data-name="&lt;Path&gt;" class="cls-4" d="M62.15,28a4.65,4.65,0,0,0-1,.42h0a.56.56,0,0,1,.62.51.66.66,0,0,1-.66.59.59.59,0,0,1-.58-.58.45.45,0,0,1,0-.2l-.48.32a4.73,4.73,0,0,0-1.92,2.12,4,4,0,0,0-.51,2.8c.23.66,1.11.8,1.13.8a.41.41,0,0,1-.11-.22c0-.13,0-.19,0-.44a2.89,2.89,0,0,0,0-.55.4.4,0,0,1,.31.11c.11.14.27.3.38.44a5.69,5.69,0,0,0,.42.4A1.19,1.19,0,0,0,60,34c0-.3-.19-.63-.23-1.14a3.73,3.73,0,0,1,.75-2.15,6.07,6.07,0,0,1,1.76-1.44.57.57,0,0,0,.35-.48c0-.12,0-.21.06-.52s-.25-.29-.55-.24"/><path id="_Path_206" data-name="&lt;Path&gt;" class="cls-4" d="M61.05,29.2a.38.38,0,0,0,.37-.34.32.32,0,0,0-.34-.29.33.33,0,0,0-.36.29.35.35,0,0,0,.33.34"/><path id="_Path_207" data-name="&lt;Path&gt;" class="cls-4" d="M62.7,35.71a.84.84,0,0,0,.71-.05.3.3,0,0,0,0-.48.56.56,0,0,0-.58,0l-.49.34a.75.75,0,0,0,.34.24"/><path id="_Path_208" data-name="&lt;Path&gt;" class="cls-4" d="M63.56,36a.49.49,0,0,1-.46.25,1,1,0,0,1-.82-.21,1.64,1.64,0,0,1-.33-.46h-.33a1.65,1.65,0,0,1-.27.59.89.89,0,0,1-.88,0c-.23-.16-.44-.36-.48-.33s0,.19.24.38a1,1,0,0,0,.77.33h2.12s.44,0,.56-.22.13-.43.07-.49-.1,0-.19.19"/><path id="_Path_209" data-name="&lt;Path&gt;" class="cls-4" d="M60.32,35.66a.44.44,0,0,0,.61-.09.76.76,0,0,0,.14-.2,2.47,2.47,0,0,1-.44-.21c-.16-.08-.25-.16-.4-.14s-.17,0-.17,0a.6.6,0,0,0,.26.6"/><path id="_Path_210" data-name="&lt;Path&gt;" class="cls-4" d="M64.42,35.18a.31.31,0,0,0,0,.48.84.84,0,0,0,.71.05.75.75,0,0,0,.35-.24L65,35.13a.56.56,0,0,0-.58,0"/><path id="_Path_211" data-name="&lt;Path&gt;" class="cls-4" d="M67.4,36.15a.91.91,0,0,1-.89,0,1.65,1.65,0,0,1-.27-.59h-.32a1.92,1.92,0,0,1-.33.46,1.06,1.06,0,0,1-.81.21A.5.5,0,0,1,64.3,36c-.09-.15-.13-.26-.19-.19s0,.23.07.49.56.22.56.22h2.12a1,1,0,0,0,.77-.32c.24-.2.28-.37.24-.39s-.25.17-.47.33"/><path id="_Path_212" data-name="&lt;Path&gt;" class="cls-4" d="M67.23,35.16a2.47,2.47,0,0,1-.44.21.76.76,0,0,0,.14.2c.11.14.29.25.62.09a.63.63,0,0,0,.26-.6.55.55,0,0,0-.18,0c-.15,0-.24.06-.4.14"/><path id="_Path_213" data-name="&lt;Path&gt;" class="cls-4" d="M68.91,34.46c0-.21,0-.54,0-.54a1,1,0,0,1-.15.17c-.12.12-.31.26-.52.44a.66.66,0,0,0-.12.57,1.24,1.24,0,0,0,.49-.05.59.59,0,0,0,.32-.59"/><path id="_Path_214" data-name="&lt;Path&gt;" class="cls-4" d="M68.31,35.47a.16.16,0,0,0-.15-.16.16.16,0,1,0,0,.31.15.15,0,0,0,.15-.15"/><path id="_Path_215" data-name="&lt;Path&gt;" class="cls-4" d="M68.72,35.82a.79.79,0,0,0,.5-.16.63.63,0,0,1,.31-.11l-.21-.24c-.07-.09-.14-.21-.41-.11s-.37.21-.41.34a.23.23,0,0,0,.22.28"/><path id="_Path_216" data-name="&lt;Path&gt;" class="cls-4" d="M70,35.77a2.39,2.39,0,0,1-1.26.54c-.54-.05-.59-.44-.59-.44s-.09.53.23.72a2.61,2.61,0,0,0,.8.24,1.72,1.72,0,0,0,.67.06,3.81,3.81,0,0,0,.91-.28l.05,0a.91.91,0,0,1-.81-.81"/><path id="_Path_217" data-name="&lt;Path&gt;" class="cls-4" d="M71.51,35.52a5.05,5.05,0,0,0-.69.25c-.22.08-.24.12-.09.19a.94.94,0,0,0,.54.16c.25,0,.52-.13.54-.39s-.16-.23-.3-.21"/><path id="_Path_218" data-name="&lt;Path&gt;" class="cls-4" d="M72.51,34.86a1.31,1.31,0,0,0-.45.47c-.1.17.24.29.47.3a.47.47,0,0,0,.51-.32,1.31,1.31,0,0,0-.07-.67,1.29,1.29,0,0,0-.46.22"/><path id="_Path_219" data-name="&lt;Path&gt;" class="cls-4" d="M72.28,35.89c.11,0,.2.06.2.13s-.09.13-.2.13-.17,0-.17-.13.08-.13.17-.13"/><path id="_Path_220" data-name="&lt;Path&gt;" class="cls-4" d="M72.62,33a.61.61,0,0,1,.26-.53,4.94,4.94,0,0,0-.44-1s0-.08-.07-.13a.51.51,0,0,1-.27.06.61.61,0,0,1-.61-.61.73.73,0,0,1,.08-.33,6.7,6.7,0,0,0-1.4-.79.64.64,0,0,1-.35.12.61.61,0,0,1-.6-.62v0c-.5-.16-1.38-.37-1.38-.37a8,8,0,0,1,1.13.89,5.32,5.32,0,0,1,.42.48,4.14,4.14,0,0,1,1.84,1.38A3,3,0,0,1,71.77,34a1.46,1.46,0,0,0,.1,1.16s.48-.61.82-.7.43-.23.46-.43a1.51,1.51,0,0,0,0-.4.58.58,0,0,1-.51-.62"/><path id="_Path_221" data-name="&lt;Path&gt;" class="cls-4" d="M69.63,29.41a.32.32,0,0,0,.41,0,.23.23,0,0,0,0-.36.33.33,0,0,0-.42,0c-.1.08-.07.24,0,.34"/><path id="_Path_222" data-name="&lt;Path&gt;" class="cls-4" d="M71.88,30.94a.38.38,0,0,0,.47,0,.3.3,0,0,0-.06-.44.3.3,0,1,0-.41.42"/><path id="_Path_223" data-name="&lt;Path&gt;" class="cls-4" d="M73.24,32.51a.34.34,0,0,1,.34.34.35.35,0,1,1-.69,0,.34.34,0,0,1,.35-.34"/><path id="_Path_224" data-name="&lt;Path&gt;" class="cls-4" d="M65.22,28.77a.59.59,0,0,0,.35.48,6.34,6.34,0,0,1,1.76,1.44,3.73,3.73,0,0,1,.75,2.15c0,.51-.24.84-.24,1.14a1.14,1.14,0,0,0,.17.55,4.43,4.43,0,0,0,.41-.4c.12-.14.28-.3.39-.44a.39.39,0,0,1,.31-.11,2.89,2.89,0,0,0,0,.55,3.07,3.07,0,0,1,.07.44c0,.12-.14.22-.12.22s.89-.14,1.12-.8a3.93,3.93,0,0,0-.52-2.8,4.57,4.57,0,0,0-1.92-2.12l-.47-.32a.45.45,0,0,1,0,.2.59.59,0,0,1-.58.58.68.68,0,0,1-.67-.59.57.57,0,0,1,.63-.51h0a4.65,4.65,0,0,0-1-.42c-.3-.05-.58-.07-.55.24a3.89,3.89,0,0,0,.06.52"/><path id="_Path_225" data-name="&lt;Path&gt;" class="cls-4" d="M63.93,33.87a2,2,0,0,1-.19.48.58.58,0,0,0-.16.45.39.39,0,0,0,.35.28.41.41,0,0,0,.36-.28.56.56,0,0,0-.17-.45,2,2,0,0,1-.19-.48"/><path id="_Path_226" data-name="&lt;Path&gt;" class="cls-4" d="M63.93,35.25a.18.18,0,0,1,.18.18.18.18,0,0,1-.18.19.19.19,0,0,1-.18-.19.19.19,0,0,1,.18-.18"/><path id="_Path_227" data-name="&lt;Path&gt;" class="cls-4" d="M63.29,34.5a3.13,3.13,0,0,0,.43-.57c.12-.21.21-.41.21-.41s.09.2.21.41a3.13,3.13,0,0,0,.43.57,1.71,1.71,0,0,0,.68-1.07,6.63,6.63,0,0,0-.17-2.7c-.11-.94-.2-2.59-.2-2.59a1.9,1.9,0,0,1-.95.26,1.87,1.87,0,0,1-1-.26s-.09,1.65-.21,2.59a6.62,6.62,0,0,0-.16,2.7,1.71,1.71,0,0,0,.68,1.07"/><path id="_Path_228" data-name="&lt;Path&gt;" class="cls-4" d="M66.43,28.86a.39.39,0,0,0,.38.34.35.35,0,0,0,.33-.34.33.33,0,0,0-.35-.29c-.21,0-.36.12-.36.29"/><path id="_Path_229" data-name="&lt;Path&gt;" class="cls-6" d="M58.78,31.79a.71.71,0,0,1,0,1.42.71.71,0,1,1,0-1.42"/><path id="_Path_230" data-name="&lt;Path&gt;" class="cls-6" d="M60,30.06a.76.76,0,0,0-.94.17.59.59,0,0,0,.11.87.71.71,0,0,0,.93-.17.59.59,0,0,0-.1-.87"/><path id="_Path_231" data-name="&lt;Path&gt;" class="cls-4" d="M58.75,32a.4.4,0,0,1,.41.39.4.4,0,0,1-.41.39.42.42,0,0,1-.42-.39.41.41,0,0,1,.42-.39"/><path id="_Path_232" data-name="&lt;Path&gt;" class="cls-4" d="M59.71,30.14a.49.49,0,0,0-.5.2c-.1.17,0,.34.25.38.44.09.66-.46.25-.58"/><path id="_Path_233" data-name="&lt;Path&gt;" class="cls-6" d="M63.93,31.87a.74.74,0,1,1,0,1.47.74.74,0,1,1,0-1.47"/><path id="_Path_234" data-name="&lt;Path&gt;" class="cls-6" d="M63.93,30.2a.7.7,0,1,1,0,1.4.7.7,0,1,1,0-1.4"/><path id="_Path_235" data-name="&lt;Path&gt;" class="cls-6" d="M63.93,28.58a.68.68,0,1,1,0,1.35.68.68,0,1,1,0-1.35"/><path id="_Path_236" data-name="&lt;Path&gt;" class="cls-6" d="M69.09,31.79a.71.71,0,1,0,.71.71.71.71,0,0,0-.71-.71"/><path id="_Path_237" data-name="&lt;Path&gt;" class="cls-6" d="M68.79,30.23a.76.76,0,0,0-.94-.17.58.58,0,0,0-.09.87.69.69,0,0,0,.92.17.58.58,0,0,0,.11-.87"/><path id="_Path_238" data-name="&lt;Path&gt;" class="cls-4" d="M69.11,32a.4.4,0,0,1,.42.39.41.41,0,0,1-.42.39.4.4,0,0,1-.41-.39.4.4,0,0,1,.41-.39"/><path id="_Path_239" data-name="&lt;Path&gt;" class="cls-4" d="M68.15,30.14c-.41.12-.19.67.25.58.24,0,.35-.21.24-.38a.47.47,0,0,0-.49-.2"/><path id="_Path_240" data-name="&lt;Path&gt;" class="cls-4" d="M63.93,32.1a.38.38,0,1,1-.4.38.38.38,0,0,1,.4-.38"/><path id="_Path_241" data-name="&lt;Path&gt;" class="cls-4" d="M63.93,30.4a.38.38,0,0,1,.39.37.39.39,0,0,1-.39.37.38.38,0,0,1-.39-.37.37.37,0,0,1,.39-.37"/><path id="_Path_242" data-name="&lt;Path&gt;" class="cls-4" d="M63.93,28.81a.34.34,0,0,1,.35.33.35.35,0,0,1-.35.32.33.33,0,0,1-.34-.32.33.33,0,0,1,.34-.33"/><path id="_Path_243" data-name="&lt;Path&gt;" class="cls-6" d="M87.66,82.37a.62.62,0,0,1,0,1.24.62.62,0,1,1,0-1.24"/><path id="_Path_244" data-name="&lt;Path&gt;" class="cls-6" d="M89.41,82.77a.64.64,0,1,1-.65.65.65.65,0,0,1,.65-.65"/><path id="_Path_245" data-name="&lt;Path&gt;" class="cls-6" d="M94.52,83.86a.66.66,0,0,1,.65.64.65.65,0,0,1-.65.64.64.64,0,1,1,0-1.28"/><path id="_Path_246" data-name="&lt;Path&gt;" class="cls-6" d="M91.16,83.19a.65.65,0,0,1,.65.64.65.65,0,0,1-1.29,0,.65.65,0,0,1,.64-.64"/><path id="_Path_247" data-name="&lt;Path&gt;" class="cls-6" d="M91.62,81.66a.63.63,0,0,1,.64.63.64.64,0,1,1-1.27,0,.63.63,0,0,1,.63-.63"/><path id="_Path_248" data-name="&lt;Path&gt;" class="cls-6" d="M92.08,80.13a.64.64,0,1,1-.64.65.64.64,0,0,1,.64-.65"/><path id="_Path_249" data-name="&lt;Path&gt;" class="cls-4" d="M87.7,82.61a.32.32,0,0,1,.32.32.32.32,0,1,1-.32-.32"/><path id="_Path_250" data-name="&lt;Path&gt;" class="cls-4" d="M89.46,83a.31.31,0,0,1,.32.31.32.32,0,1,1-.64,0,.31.31,0,0,1,.32-.31"/><path id="_Path_251" data-name="&lt;Path&gt;" class="cls-4" d="M94.57,84.11a.32.32,0,0,1,.31.33.33.33,0,0,1-.31.32.32.32,0,0,1-.32-.32.32.32,0,0,1,.32-.33"/><path id="_Path_252" data-name="&lt;Path&gt;" class="cls-4" d="M91.21,83.45a.32.32,0,1,1-.32.31.32.32,0,0,1,.32-.31"/><path id="_Path_253" data-name="&lt;Path&gt;" class="cls-4" d="M91.68,81.92a.31.31,0,0,1,.31.32.31.31,0,0,1-.31.32.33.33,0,0,1-.33-.32.32.32,0,0,1,.33-.32"/><path id="_Path_254" data-name="&lt;Path&gt;" class="cls-4" d="M92.13,80.39a.31.31,0,0,1,.31.32.32.32,0,1,1-.31-.32"/></g></g></g></g></g></g></g></svg>