<svg id="Layer_1" data-name="Layer 1" xmlns="http://www.w3.org/2000/svg" xmlns:xlink="http://www.w3.org/1999/xlink" viewBox="0 0 128 128"><defs><style>.cls-1{fill:none;}.cls-2{clip-path:url(#clip-path);}.cls-3{clip-path:url(#clip-path-2);}.cls-4{fill:#0065b2;}.cls-5{fill:#fff;}.cls-6{fill:#f8a755;}</style><clipPath id="clip-path"><circle class="cls-1" cx="64" cy="64" r="64"/></clipPath><clipPath id="clip-path-2"><rect id="_Clipping_Path_" data-name="&lt;Clipping Path&gt;" class="cls-1" width="219.4" height="128"/></clipPath></defs><title>Flag_circle_Marshall Islands</title><g class="cls-2"><g id="MARSHALL_ISLANDS" data-name="MARSHALL ISLANDS"><g id="_Group_" data-name="&lt;Group&gt;"><g id="_Clip_Group_" data-name="&lt;Clip Group&gt;"><g class="cls-3"><rect id="_Path_" data-name="&lt;Path&gt;" class="cls-4" width="219.4" height="128"/><polygon id="_Path_2" data-name="&lt;Path&gt;" class="cls-5" points="46.71 86.42 45.08 59.17 39.35 74.19 41.91 58.34 32.51 71.34 39.08 56.69 26.62 66.83 36.76 54.38 22.1 60.94 35.12 51.54 19.26 54.1 34.28 48.38 7.05 46.74 34.28 45.11 19.26 39.38 35.12 41.93 22.1 32.53 36.76 39.11 26.62 26.64 39.08 36.78 32.51 22.13 41.91 35.15 39.35 19.29 45.08 34.31 46.71 7.07 48.36 34.31 54.06 19.29 51.52 35.15 60.94 22.13 54.35 36.78 66.81 26.64 56.67 39.11 71.33 32.53 58.3 41.93 74.17 39.38 59.15 45.11 86.4 46.74 59.15 48.38 74.17 54.1 58.3 51.54 71.33 60.94 56.67 54.38 66.81 66.83 54.35 56.69 60.94 71.34 51.52 58.34 54.06 74.19 48.36 59.17 46.71 86.42"/><polygon id="_Path_3" data-name="&lt;Path&gt;" class="cls-5" points="0 121.86 0 125.96 219.4 52.23 219.4 2.06 0 121.86"/><polygon id="_Path_4" data-name="&lt;Path&gt;" class="cls-6" points="0 121.86 0 123.91 219.4 27.15 219.4 2.06 0 121.86"/></g></g></g></g></g></svg>