<svg id="Layer_1" data-name="Layer 1" xmlns="http://www.w3.org/2000/svg" xmlns:xlink="http://www.w3.org/1999/xlink" viewBox="0 0 128 128"><defs><style>.cls-1{fill:none;}.cls-2{clip-path:url(#clip-path);}.cls-3{clip-path:url(#clip-path-2);}.cls-4{fill:#c9002a;}.cls-5{fill:#63accc;}.cls-6{fill:#f5eb2e;}.cls-7{clip-path:url(#clip-path-4);}.cls-8{clip-path:url(#clip-path-5);}</style><clipPath id="clip-path"><circle class="cls-1" cx="64" cy="64" r="64"/></clipPath><clipPath id="clip-path-2"><rect id="_Clipping_Path_" data-name="&lt;Clipping Path&gt;" class="cls-1" x="-9" width="219.39" height="128"/></clipPath><clipPath id="clip-path-4"><path id="_Clipping_Path_3" data-name="&lt;Clipping Path&gt;" class="cls-1" d="M18.42,80.46a9.14,9.14,0,0,0,9.14,9.14V71.32a9.14,9.14,0,0,0-9.14,9.14"/></clipPath><clipPath id="clip-path-5"><rect id="_Clipping_Path_4" data-name="&lt;Clipping Path&gt;" class="cls-1" x="27.56" y="9.17" width="36.56" height="109.69"/></clipPath></defs><title>Flag_circle_Mongolia</title><g class="cls-2"><g id="MONGOLIA"><g id="_Group_" data-name="&lt;Group&gt;"><g id="_Clip_Group_" data-name="&lt;Clip Group&gt;"><g class="cls-3"><rect id="_Path_" data-name="&lt;Path&gt;" class="cls-4" x="-9" width="219.39" height="128"/><rect id="_Path_2" data-name="&lt;Path&gt;" class="cls-5" x="64.13" width="73.13" height="128"/><g id="_Clip_Group_2" data-name="&lt;Clip Group&gt;"><g class="cls-3"><path id="_Path_3" data-name="&lt;Path&gt;" class="cls-6" d="M27.56,36.56A10.06,10.06,0,1,1,17.5,46.65,10.07,10.07,0,0,1,27.56,36.56"/><path id="_Path_4" data-name="&lt;Path&gt;" class="cls-4" d="M27.56,31.1A11,11,0,1,1,16.61,42.05a11,11,0,0,1,11-10.95"/><path id="_Path_5" data-name="&lt;Path&gt;" class="cls-6" d="M27.56,36.56a7.32,7.32,0,1,1-7.3,7.33,7.33,7.33,0,0,1,7.3-7.33"/><path id="_Path_6" data-name="&lt;Path&gt;" class="cls-6" d="M27.4,20.22c-1.39,1-.36,2.63-.45,3.5s-.59,1.1-.79,1.86A3.92,3.92,0,0,0,26.22,28a4.28,4.28,0,0,1,.37,1s0,0,0,0V29h0s0,0,0,0,0,0,0,0h0v0h0c0,.05,0,.1,0,.15a1,1,0,0,1-.94.92.93.93,0,0,1-.91-.92v-.05s0,0,0,0h0v0h0v0h0v-.07h0a0,0,0,0,1,0,0h0V29h0c.13-.52.58-.92.56-1.56a2.32,2.32,0,0,0-.67-1.46,1.64,1.64,0,0,1,0-1.22c-.39.48-.85.84-.85,1.38a7,7,0,0,1,.22,1.35c0,.66-1.09,1.07-1.12,2.73a4.57,4.57,0,1,0,9.14,0c0-1.66-1.13-2.07-1.15-2.73s.2-1,.2-1.35c0-.54-.42-.9-.81-1.38a1.62,1.62,0,0,1,0,1.22,2.48,2.48,0,0,0-.69,1.46c0,.64.45,1,.6,1.56h0a.06.06,0,0,1,0,.05v.07s0,0,0,0v.13h0v0a.92.92,0,0,1-.91.92.9.9,0,0,1-.85-.61h0a.87.87,0,0,1-.07-.31c0-.05,0-.1,0-.15v-.05s0,0,0,0a.08.08,0,0,1,0-.05h0s0,0,0,0a4.53,4.53,0,0,1,.37-.84,5.74,5.74,0,0,0,.43-1.89,5.73,5.73,0,0,0-.92-3.14,9.47,9.47,0,0,1-1.22-1.82,1.17,1.17,0,0,1,.19-1"/><rect id="_Path_7" data-name="&lt;Path&gt;" class="cls-6" x="7.46" y="58.52" width="9.15" height="43.87"/><rect id="_Path_8" data-name="&lt;Path&gt;" class="cls-6" x="38.54" y="58.52" width="9.13" height="43.87"/><polyline id="_Path_9" data-name="&lt;Path&gt;" class="cls-6" points="18.42 58.52 36.7 58.52 27.57 64.01"/><rect id="_Path_10" data-name="&lt;Path&gt;" class="cls-6" x="18.42" y="65.83" width="18.28" height="3.65"/><rect id="_Path_11" data-name="&lt;Path&gt;" class="cls-6" x="18.42" y="91.44" width="18.28" height="3.65"/><polyline id="_Path_12" data-name="&lt;Path&gt;" class="cls-6" points="18.42 96.9 36.7 96.9 27.57 102.39"/><path id="_Path_13" data-name="&lt;Path&gt;" class="cls-6" d="M27.56,71.32a9.14,9.14,0,1,1-9.14,9.14,9.13,9.13,0,0,1,9.14-9.14"/></g></g><g id="_Clip_Group_3" data-name="&lt;Clip Group&gt;"><g class="cls-7"><g id="_Clip_Group_4" data-name="&lt;Clip Group&gt;"><g class="cls-8"><path id="_Path_14" data-name="&lt;Path&gt;" class="cls-4" d="M27.56,70.42a5.2,5.2,0,1,1-5.19,5.19,5.2,5.2,0,0,1,5.19-5.19"/><path id="_Path_15" data-name="&lt;Path&gt;" class="cls-6" d="M27.56,71.11a4.5,4.5,0,1,1-4.46,4.5,4.5,4.5,0,0,1,4.46-4.5"/><path id="_Path_16" data-name="&lt;Path&gt;" class="cls-4" d="M27.56,73.77a1.84,1.84,0,0,1,1.84,1.84,1.83,1.83,0,1,1-3.66,0,1.84,1.84,0,0,1,1.82-1.84"/><path id="_Path_17" data-name="&lt;Path&gt;" class="cls-4" d="M27.56,80.1a5.21,5.21,0,1,1-5.19,5.21,5.19,5.19,0,0,1,5.19-5.21"/><path id="_Path_18" data-name="&lt;Path&gt;" class="cls-6" d="M27.56,80.81a4.5,4.5,0,1,1-4.46,4.5,4.5,4.5,0,0,1,4.46-4.5"/><path id="_Path_19" data-name="&lt;Path&gt;" class="cls-4" d="M27.56,83.47a1.83,1.83,0,1,1-1.82,1.84,1.83,1.83,0,0,1,1.82-1.84"/></g></g></g></g></g></g></g></g></g></svg>