<svg id="Layer_1" data-name="Layer 1" xmlns="http://www.w3.org/2000/svg" xmlns:xlink="http://www.w3.org/1999/xlink" viewBox="0 0 128 128"><defs><style>.cls-1{fill:none;}.cls-2{clip-path:url(#clip-path);}.cls-3{clip-path:url(#clip-path-2);}.cls-4{fill:#3d9635;}.cls-5{fill:#f4c327;}</style><clipPath id="clip-path"><circle class="cls-1" cx="64" cy="64" r="64"/></clipPath><clipPath id="clip-path-2"><rect id="_Clipping_Path_" data-name="&lt;Clipping Path&gt;" class="cls-1" x="-45.69" width="219.39" height="128"/></clipPath></defs><title>Flag_circle_Mauritania</title><g class="cls-2"><g id="MAURITANIA"><g id="_Group_" data-name="&lt;Group&gt;"><g id="_Clip_Group_" data-name="&lt;Clip Group&gt;"><g class="cls-3"><rect id="_Path_" data-name="&lt;Path&gt;" class="cls-4" x="-45.69" width="219.39" height="128"/><g id="_Clip_Group_2" data-name="&lt;Clip Group&gt;"><g class="cls-3"><path id="_Path_2" data-name="&lt;Path&gt;" class="cls-5" d="M64,6.66A41.34,41.34,0,1,1,22.67,48,41.36,41.36,0,0,1,64,6.66"/><path id="_Path_3" data-name="&lt;Path&gt;" class="cls-4" d="M24,37.36a40,40,0,0,0,80,0v-32H24"/><polygon id="_Path_4" data-name="&lt;Path&gt;" class="cls-5" points="63.99 21.35 59.05 36.56 66.66 39.04 63.99 21.35"/><polygon id="_Path_5" data-name="&lt;Path&gt;" class="cls-5" points="63.99 21.35 68.93 36.56 61.33 39.04 63.99 21.35"/><polygon id="_Path_6" data-name="&lt;Path&gt;" class="cls-5" points="79.21 32.43 63.21 32.43 63.21 40.42 79.21 32.43"/><polygon id="_Path_7" data-name="&lt;Path&gt;" class="cls-5" points="79.21 32.43 66.26 41.8 61.56 35.31 79.21 32.43"/><polygon id="_Path_8" data-name="&lt;Path&gt;" class="cls-5" points="48.77 32.43 61.71 41.8 66.42 35.31 48.77 32.43"/><polygon id="_Path_9" data-name="&lt;Path&gt;" class="cls-5" points="48.77 32.43 64.78 32.43 64.78 40.42 48.77 32.43"/><polygon id="_Path_10" data-name="&lt;Path&gt;" class="cls-5" points="73.39 50.3 68.45 35.08 60.84 37.53 73.39 50.3"/><polygon id="_Path_11" data-name="&lt;Path&gt;" class="cls-5" points="73.39 50.3 60.45 40.91 65.15 34.42 73.39 50.3"/><polygon id="_Path_12" data-name="&lt;Path&gt;" class="cls-5" points="54.59 50.3 67.54 40.91 62.83 34.42 54.59 50.3"/><polygon id="_Path_13" data-name="&lt;Path&gt;" class="cls-5" points="54.59 50.3 59.53 35.08 67.14 37.53 54.59 50.3"/></g></g></g></g></g></g></g></svg>