<svg id="Layer_1" data-name="Layer 1" xmlns="http://www.w3.org/2000/svg" xmlns:xlink="http://www.w3.org/1999/xlink" viewBox="0 0 128 128"><defs><style>.cls-1,.cls-9{fill:none;}.cls-2{clip-path:url(#clip-path);}.cls-3{fill:#cf142b;}.cls-4{fill:#fff;}.cls-5{fill:#e60d2e;}.cls-10,.cls-6{fill:#96877d;}.cls-7{fill:#ccc;}.cls-8{fill:#d0d0d0;}.cls-9{stroke:#96877d;stroke-width:0.11px;}.cls-10{stroke:#000;stroke-width:0.04px;}</style><clipPath id="clip-path"><circle class="cls-1" cx="64" cy="64.01" r="64"/></clipPath></defs><title>Flag_circle_Malta</title><g class="cls-2"><rect class="cls-3" x="-87.86" width="215.86" height="128"/><rect class="cls-4" x="-45.72" width="109.72" height="128"/><path class="cls-5" d="M19.13,33.67v9.7h9.69a3.48,3.48,0,0,0,3.24,3.23v9.7h9.69V46.6A3.48,3.48,0,0,0,45,43.37h9.69v-9.7H45a3.47,3.47,0,0,0-3.24-3.23v-9.7H32.06v9.7a3.47,3.47,0,0,0-3.24,3.23Z"/><path class="cls-6" d="M19.77,34.32v8.4h9.7A3.47,3.47,0,0,0,32.7,46v9.7h8.41V46a3.47,3.47,0,0,0,3.23-3.23H54v-8.4h-9.7a3.48,3.48,0,0,0-3.23-3.24V21.39H32.7v9.69a3.48,3.48,0,0,0-3.23,3.24Z"/><path class="cls-7" d="M20.1,34.64V42.4h9.69A3.48,3.48,0,0,0,33,45.63v9.7h7.75v-9.7A3.48,3.48,0,0,0,44,42.4h9.69V34.64H44a3.47,3.47,0,0,0-3.24-3.23v-9.7H33v9.7a3.47,3.47,0,0,0-3.24,3.23Z"/><g id="vi"><path class="cls-6" d="M32.42,31.29A2,2,0,0,1,29.68,34a2,2,0,0,1,2.74-2.74Z"/><path class="cls-8" d="M29.56,33l.23-.23.92.45-.46-.91.23-.23.91,1.83L29.56,33Z"/><path class="cls-8" d="M30.94,31.63l.22-.22,1.38,1.37-.23.23Z"/></g><g id="vi-2" data-name="vi"><path class="cls-6" d="M44.13,34a2,2,0,0,1-2.74-2.74A2,2,0,0,1,44.13,34Z"/><path class="cls-8" d="M42.42,31.18l.23.23-.46.91.91-.46.23.23L41.5,33l.92-1.83Z"/><path class="cls-8" d="M43.79,32.55l.23.23-1.37,1.37-.23-.23Z"/></g><g id="vi-3" data-name="vi"><path class="cls-6" d="M41.39,45.75A2,2,0,0,1,44.13,43a2,2,0,0,1-2.74,2.75Z"/><path class="cls-8" d="M44.25,44l-.23.23-.92-.46.46.92-.23.23-.91-1.83,1.83.91Z"/><path class="cls-8" d="M42.88,45.4l-.23.23-1.37-1.37L41.5,44Z"/></g><g id="vi-4" data-name="vi"><path class="cls-6" d="M29.68,43a1.75,1.75,0,0,1,2.4.35,1.74,1.74,0,0,1,.34,2.4A2,2,0,0,1,29.68,43Z"/><path class="cls-8" d="M31.39,45.86l-.23-.23.46-.91-.91.45L30.48,45,32.31,44l-.92,1.83Z"/><path class="cls-8" d="M30,44.49l-.23-.23,1.37-1.37.23.23Z"/></g><circle class="cls-9" cx="36.91" cy="38.52" r="6.79"/><circle class="cls-9" cx="36.91" cy="38.52" r="5.17"/><circle cx="34.32" cy="44.01" r="0.32"/><circle cx="39.49" cy="44.01" r="0.32"/><path d="M36.69,44v.34h-.43c-.43,0-.43.34,0,.34h.43V45c0,.35.38.4.4,0l0-.36h.43c.43,0,.43-.34,0-.34h-.43V44a.22.22,0,1,0-.43,0Z"/><path d="M30.59,40.19l.45-.1L31,39.88c0-.05,0-.08-.06-.1a.25.25,0,0,0-.13,0v0l.38-.09v0c-.05,0-.08,0-.09,0a.1.1,0,0,0,0,.05.14.14,0,0,0,0,.09l0,.21.36-.09.11,0,0-.05a.11.11,0,0,0,0-.08v0h0l.12.49h0v0a.2.2,0,0,0-.07-.1H31.5l-.73.18a.25.25,0,0,0-.11,0s0,0,0,0a.11.11,0,0,0,0,.08v0h0l-.2-.84.24-.07v0a.35.35,0,0,0-.11.07.16.16,0,0,0,0,.09.31.31,0,0,0,0,.13l.06.25Zm-.29-2a.57.57,0,0,1,.2-.39.6.6,0,0,1,.44-.14.66.66,0,0,1,.43.19.55.55,0,0,1,.15.42.53.53,0,0,1-.2.39.62.62,0,0,1-.45.14.6.6,0,0,1-.44-.21.64.64,0,0,1-.13-.4Zm.07,0a.26.26,0,0,0,.1.25.61.61,0,0,0,.41.14.76.76,0,0,0,.45-.09.32.32,0,0,0,.13-.24.34.34,0,0,0-.12-.28.58.58,0,0,0-.39-.13.72.72,0,0,0-.45.09.32.32,0,0,0-.13.26Zm1.68-2.13-.11.29-.65.18,0,.06v0l.31.12a.22.22,0,0,0,.14,0s.05,0,.07-.08l0,0h0l-.18.46h0v0a.11.11,0,0,0,0-.11l-.11-.07-.71-.26a.19.19,0,0,0-.13,0,.11.11,0,0,0-.07.08l0,0h0l.15-.4a2.6,2.6,0,0,1,.12-.24A.42.42,0,0,1,31,36a.28.28,0,0,1,.18,0,.24.24,0,0,1,.15.13.36.36,0,0,1,0,.24l.4-.1a.71.71,0,0,0,.19-.08.34.34,0,0,0,.1-.13Zm-.85.56v0a.4.4,0,0,0,0-.26.26.26,0,0,0-.14-.15.31.31,0,0,0-.19,0,.28.28,0,0,0-.13.15.86.86,0,0,0,0,.13l.45.17Zm2.47-3.85.23.29,0,0a.43.43,0,0,0-.21-.11.36.36,0,0,0-.28.06.39.39,0,0,0-.19.33.66.66,0,0,0,.11.35.77.77,0,0,0,.22.22.52.52,0,0,0,.25.08A.38.38,0,0,0,34,34a.34.34,0,0,0,.09-.08.23.23,0,0,0,.07-.1L34,33.5a.25.25,0,0,0-.07-.09.07.07,0,0,0-.06,0,.16.16,0,0,0-.09,0l0,0,.38-.24,0,0,0,0a.08.08,0,0,0,0,.08.33.33,0,0,0,0,.12l.2.3-.12.17A.76.76,0,0,1,34,34a.6.6,0,0,1-.55.1.56.56,0,0,1-.31-.24.59.59,0,0,1-.1-.29.65.65,0,0,1,.06-.34.6.6,0,0,1,.22-.23l.1-.06.15,0,.06,0s0,0,0,0,0,0,0-.06l0,0Zm1.89.13-.43.12,0,.2a.17.17,0,0,0,0,.1s0,0,0,0h.12v0l-.36.09v0a.17.17,0,0,0,.09-.06.69.69,0,0,0,.05-.18l.15-1h0l.64.83a.41.41,0,0,0,.13.12.16.16,0,0,0,.12,0v0l-.44.12v0a.13.13,0,0,0,.09-.05.07.07,0,0,0,0,0,.64.64,0,0,0-.06-.1l-.12-.15Zm0-.05-.32-.41-.07.51.39-.1Zm2,0h0l-.12.31-.9,0v0h0a.11.11,0,0,0,.11,0,.31.31,0,0,0,0-.13l0-.75c0-.07,0-.11,0-.13a.11.11,0,0,0-.1,0h0v0l.53,0v0l-.13,0a.1.1,0,0,0-.05,0,.7.7,0,0,0,0,.13l0,.73s0,.08,0,.1l0,0h.22a.52.52,0,0,0,.19,0,.21.21,0,0,0,.1-.06.74.74,0,0,0,.1-.16Zm1.55.42h0l-.19.27-.86-.28v0h0a.16.16,0,0,0,.12,0,.33.33,0,0,0,.06-.12l.23-.71a.28.28,0,0,0,0-.14.1.1,0,0,0-.08-.06l0,0v0l.5.17v0l-.13,0-.06,0s0,.05-.06.12l-.23.69a.84.84,0,0,0,0,.1s0,0,0,0l.12,0,.08,0a.63.63,0,0,0,.19,0l.11,0,.14-.12Zm1.24.66L40,33.68l-.17.1-.09.07a0,0,0,0,0,0,0s0,.05.07.08l0,0-.3-.21,0,0,.1,0a.49.49,0,0,0,.17-.08l.89-.55,0,0-.23,1a.43.43,0,0,0,0,.18.18.18,0,0,0,.07.09l0,0-.37-.26,0,0a.18.18,0,0,0,.09,0s0,0,0,0a.24.24,0,0,0,0-.12l0-.17Zm0-.07.11-.5-.44.27.33.23Zm1.38.25.19.26-.28,1.09.54-.4c.06,0,.09-.08.09-.1a.1.1,0,0,0,0-.1l0,0,0,0,.24.32,0,0,0,0a.12.12,0,0,0-.09-.06s-.06,0-.12.06l-.78.58,0,0,.29-1.18-.57.43a.3.3,0,0,0-.1.1.14.14,0,0,0,0,.1l0,0,0,0-.24-.32,0,0,0,0a.14.14,0,0,0,.1.06.24.24,0,0,0,.11-.06l.65-.48a.89.89,0,0,0,0-.11.31.31,0,0,0,0-.08s0,0,0-.07l0,0Zm1.47,2.71-.26.1v0l.09-.06a.2.2,0,0,0,0-.09.74.74,0,0,0,0-.12L43,36.48l-.83.29c-.07,0-.11,0-.12.07a.11.11,0,0,0,0,.11v0h0l-.16-.46h0v0s0,.07.08.08.06,0,.12,0l.84-.3,0-.13a.38.38,0,0,0,0-.11l-.08,0a.3.3,0,0,0-.13,0v0l.26-.08.32.9Zm-.93,2.06v-.31l.52-.42V38l-.33,0-.14,0a.17.17,0,0,0,0,.1v0h0l0-.5h0v0a.13.13,0,0,0,.05.11h.13l.75,0c.07,0,.12,0,.13,0a.12.12,0,0,0,0-.1v0h0l0,.43a1,1,0,0,1,0,.27.24.24,0,0,1-.09.15.21.21,0,0,1-.17.07.23.23,0,0,1-.19-.06.42.42,0,0,1-.12-.21l-.32.26a.6.6,0,0,0-.14.15.25.25,0,0,0,0,.16Zm.56-.86v0a.38.38,0,0,0,.09.25.21.21,0,0,0,.18.07.23.23,0,0,0,.18-.08.21.21,0,0,0,0-.18.34.34,0,0,0,0-.13l-.48,0Zm.32,2.39-.11.4h0v-.09a.36.36,0,0,0,0-.09l-.09-.12-.36-.38-.28-.07a.24.24,0,0,0-.14,0,.17.17,0,0,0-.06.09v0h0l.13-.47h0v0a.11.11,0,0,0,0,.11l.11,0,.27.07.55-.19.12,0,.07-.07a.08.08,0,0,0,0-.05h0l-.13.48h0V40a.12.12,0,0,0,0,0l-.12,0-.43.14.29.31a.48.48,0,0,0,.11.08h0l0,0a.16.16,0,0,0,0-.06Z"/><path class="cls-10" d="M40.6,39.51a1.06,1.06,0,0,1,.3,0s0,.08,0,.11a.81.81,0,0,0,.25,0l-.11.08a.39.39,0,0,1,.16.1.5.5,0,0,1-.24,0A.27.27,0,0,1,41,40a.62.62,0,0,1-.36-.24"/><path class="cls-10" d="M40.15,39.36c-.06.16-.53-.14-.53-.14a.82.82,0,0,0,.51.37"/><path class="cls-10" d="M34.27,42.38h5.52l.42-.34-.71-.38-1.09-.37L38,41.05l-.81,0-.68.36-.92.11-.22.25-.69.06-1.08,0,1.8.28-1.49-.08.39.33Z"/><path class="cls-10" d="M37.24,40.8c-.69-.38-.89.54-1.19.76.4.07.7-.31,1.05-.49.26.71.67.24.67.24s.43.68,1,.37a.3.3,0,0,0,.33,0s.21,0,.25,0,.23-.1.23-.1.24,0,.28-.12c.36.06.82-.72.82-.72l.14-.28.21,0s0-.14-.1-.13-.07-.13-.17-.11-.06-.09-.06-.09c-.19.05-.2.55-.2.55s-.35.26-.47.33c0-.29-.48-.67-.39-.86s.41.29.68.2a.77.77,0,0,0,.42-.71,5.15,5.15,0,0,0-.26-.49H40.3l-.15-.37s-.33.21-.32.39.34.34.34.34a.49.49,0,0,1-.37.06c0,.19.22.15.3.16a.43.43,0,0,0,.18.2s.08.21-.13.19-.47-.51-.77-.28.14.67.14.67a1.11,1.11,0,0,0-.44.53c-.68-.58-1.08-.31-1.84-.15Z"/><path class="cls-10" d="M36.25,39.82c.28.27.08.72.19.8s.29,0,.29,0a2,2,0,0,0,.83-.09c.23.13.14-.06.28-.05.13.32.55.26.55.26a3.17,3.17,0,0,0-.63-.51,1.87,1.87,0,0,1-.8.11c-.11,0,0-.14-.09-.21.19-.2,0-.67-.07-.85-.43-.29-.95.21-.55.58Z"/><path class="cls-10" d="M34.35,39c-.35.1-1-.46-1.26-.24s-.16.74,0,1-.28.35-.41.5,0,.31,0,.31l.13.09,0,.19.07.23s.06.06.09,0,0,.23.15.25a1,1,0,0,1,0-.42s.26,0,.32-.09-.06-.35-.06-.35h.08a.43.43,0,0,1-.12-.24s.36-.12.36-.39-.59-.56-.37-.7.64.4,1,.14.13,0,.13,0,.16-.36-.2-.27Z"/><path class="cls-10" d="M36.2,35.19c-.48-.2-1.45-.21-2-.48a.4.4,0,0,0-.36.28c-.25,0-.41.38-.38.46-.45-.18-.66.54-.52.68-.39,0-.34.52-.37.65-.13.31,0,.41.27.3a.16.16,0,0,1-.13.23c.68.77,1.06-.48,1.65-.47a2.15,2.15,0,0,0,1-.58l.29,0,.52-1.11Z"/><circle class="cls-10" cx="36.82" cy="34.64" r="0.71"/><path class="cls-10" d="M35.58,40.19a1.62,1.62,0,0,1-1.24-1.12c.41-1.6,2.51-.77,2.69-2a3.59,3.59,0,0,1,.54-2.24,1,1,0,0,1,.47-.33.5.5,0,0,1,0,.29,7.12,7.12,0,0,1,1.14.17.48.48,0,0,1,.07.38c0,.12-.15.09-.15.09a.43.43,0,0,1-.42.12,1.3,1.3,0,0,1-.54.16s.76.81.64,1a1.67,1.67,0,0,1,.39.43,2.42,2.42,0,0,0,.69-.52,7.46,7.46,0,0,1,1,.35l.6.49s-.36.23-.51-.08c-.19,0-.6-.43-1.16-.29a1.26,1.26,0,0,1-.57.85,1.53,1.53,0,0,1,.8.1l.72.58.38.65s-.35.06-.48-.39c-.13.37-.14-.23-.66-.5a.39.39,0,0,1-.37-.08,3.33,3.33,0,0,1-1.34.26,11,11,0,0,0-1,.6c-.38.18-.49.09-.49.09h-.31c0,.19,0,.47-.18.52.1.11-.08.6-.27.68.09.32.35.41.62.57a.37.37,0,0,1,.39,0,1.88,1.88,0,0,1,.32.54,1.7,1.7,0,0,1-.43,0c-.1,0-.11-.15-.23-.12-.74-.66-1.13-.4-1.2-.55s.17-.55.1-.81Z"/><path class="cls-10" d="M33.8,37.26s.31.05.31.05l.49.31,1,.65.35.52-.64-.21-.89-.76L34,37.51s-.19-.2-.15-.25Z"/><path class="cls-10" d="M39.74,38.91c-.35-.09-1.2,1-1.2,1l.64.7S39.2,39.36,39.74,38.91Z"/><path class="cls-10" d="M35.51,36a.75.75,0,0,0,0,.93c0,.29.28.89.48,1a5.38,5.38,0,0,0,1.42.21,1.48,1.48,0,0,0,.76,1.28.31.31,0,0,0,0,.17c0,.05.26.07.27,0a.68.68,0,0,0,.57.13c0-.05-.66-.54-.81-.68a4.37,4.37,0,0,1-.44-1.23,1.34,1.34,0,0,0-.93-.4l0-.79,0-.9-.32-.16a.45.45,0,0,0,.1-.07c.07,0,.22-.12.24-.16s.14,0,.15,0a2.24,2.24,0,0,1,0-.26c.24-.21,0-.66-.4-.67s-.44.44-.44.47,0,.21,0,.24a.92.92,0,0,1-.15.11.58.58,0,0,0-.45,0c-.24.09-.52.22-.53.38a.48.48,0,0,0-.33.29c-.1,0-.23.06-.44.4-.38.17-.4,1-.4,1a.63.63,0,0,0-.1.23c0,.08,0,.15.08.14s.07.09.1.08a.13.13,0,0,0,.14.07s.15,0,.16,0,0-.22,0-.23.14.08.17,0,0-.1,0-.13-.12-.06-.14-.19a.64.64,0,0,1,.07-.3s.41-.32.45-.6c.31,0,.47-.24.56-.34Z"/><path class="cls-10" d="M34.8,34.85c.09-.23.43-.21.43-.21s.12-.31.58-.12c.17-.14.62,0,.62,0a.51.51,0,0,1,.39-.2.47.47,0,0,1,.45.49c-.22.06-.61-.18-.91-.11a2,2,0,0,0-.55.34c-.28,0-.57-.25-1-.24Z"/><path class="cls-10" d="M35.65,35.23c.11-.06.36-.17.53,0a2.8,2.8,0,0,0,.45.38l.31.13.15.08L37,37.21c-.29-.29-.56-.35-.76-.69-.11-.15,0-.51-.22-.75s-.4-.39-.36-.54Z"/><path class="cls-10" d="M36.4,35.64s.17,0,.21,0,.11,0,.13.09.1,0,.1.09.08.12.08.12l-.05.08a.22.22,0,0,1-.07-.12.22.22,0,0,1-.15-.09.13.13,0,0,1-.12-.1c-.06,0-.13-.08-.13-.08Z"/><path class="cls-10" d="M37.79,34.71c-.1-.1-.26,0-.26,0l-.44.75-.19.16,0,.59.16.55,0,.43s.22-.21.24-.33a1.55,1.55,0,0,0-.08-.47.76.76,0,0,1,0-.63c.16-.42.52-.76.61-1Z"/><path class="cls-10" d="M38.86,35.39a3.86,3.86,0,0,1-1.8,1.32c-.3.07-.19-.72-.19-.72l-.08,0s-.17.78.24.79a3.88,3.88,0,0,0,2-1.41Z"/><path class="cls-10" d="M39.33,41a.22.22,0,0,1-.24,0,.32.32,0,0,0-.26-.17s-.13-.35-.32-.25c0-.19-.24-.09-.24-.09s0-.26-.25-.23c.08-.3-.34-.28-.34-.28s0-.35-.64-.28c1.34-.6,2.4.94,2.4.94"/><path class="cls-10" d="M40,41.12s.31.35.47.35.18-.33.18-.33,0,.14.13.1a.14.14,0,0,0,.1.14s-.28.64-1.08,0"/><path class="cls-10" d="M37.54,41.26l-.1.44s-.14.13-.1.16.26,0,.26,0a1.14,1.14,0,0,0,.45-.14.31.31,0,0,0,.23.18.23.23,0,0,0,0-.11.38.38,0,0,0,.14,0s0-.13-.06-.18.06-.17-.11-.16-.42.28-.5.23.3-.22.2-.44"/></g></svg>