<svg id="Layer_1" data-name="Layer 1" xmlns="http://www.w3.org/2000/svg" xmlns:xlink="http://www.w3.org/1999/xlink" viewBox="0 0 128 128"><defs><style>.cls-1{fill:none;}.cls-2{clip-path:url(#clip-path);}.cls-3{clip-path:url(#clip-path-2);}.cls-4{fill:#4f9f3a;}.cls-5{fill:#bc0030;}</style><clipPath id="clip-path"><circle class="cls-1" cx="64" cy="64" r="64"/></clipPath><clipPath id="clip-path-2"><rect id="_Clipping_Path_" data-name="&lt;Clipping Path&gt;" class="cls-1" x="-45.69" width="219.38" height="128"/></clipPath></defs><title>Flag_circle_Malawi</title><g class="cls-2"><g id="MALAWI"><g id="_Group_" data-name="&lt;Group&gt;"><g id="_Clip_Group_" data-name="&lt;Clip Group&gt;"><g class="cls-3"><rect id="_Path_" data-name="&lt;Path&gt;" x="-45.69" width="219.38" height="63.99"/><rect id="_Path_2" data-name="&lt;Path&gt;" class="cls-4" x="-45.69" y="63.99" width="219.38" height="64.01"/><rect id="_Path_3" data-name="&lt;Path&gt;" class="cls-5" x="-45.69" y="42.67" width="219.38" height="42.67"/><g id="_Clip_Group_2" data-name="&lt;Clip Group&gt;"><g class="cls-3"><path id="_Path_4" data-name="&lt;Path&gt;" class="cls-5" d="M64,21.12A27.56,27.56,0,0,0,38.05,39.5H90A27.55,27.55,0,0,0,64,21.12"/><path id="_Compound_Path_" data-name="&lt;Compound Path&gt;" class="cls-5" d="M64,5.16c-.92,0-1.28,1.38-1.28,2.76,0,3.31.4,5.08,1.28,10,.88-4.95,1.28-6.72,1.28-10,0-1.38-.36-2.76-1.28-2.76m-3.78.13c-.93.07-1.16,1.5-1,2.88.29,3.32.85,5,2.14,9.91.44-5,.69-6.82.39-10.11-.11-1.41-.58-2.74-1.49-2.68m7.57,0c-.92-.06-1.39,1.27-1.5,2.68-.3,3.29-.05,5.1.39,10.11,1.31-4.88,1.85-6.59,2.15-9.91.12-1.38-.12-2.81-1-2.88M56.61,5.8h-.17c-.91.17-1,1.58-.77,3,.58,3.29,1.28,5,3,9.65,0-5,.11-6.82-.48-10.11C58,7,57.42,5.82,56.61,5.8m14.78,0C70.58,5.82,70,7,69.82,8.3c-.58,3.29-.48,5.11-.48,10.11,1.7-4.7,2.41-6.36,3-9.65.23-1.38.14-2.79-.77-3h-.17M52.9,6.59a.39.39,0,0,1-.16,0c-.9.26-.88,1.66-.52,3,.85,3.21,1.72,4.82,3.83,9.37-.43-5-.49-6.82-1.35-10-.34-1.25-1-2.42-1.8-2.37m22.2,0c-.82,0-1.46,1.12-1.8,2.37-.86,3.22-.92,5-1.35,10,2.11-4.55,3-6.16,3.83-9.37.36-1.36.38-2.76-.52-3a.41.41,0,0,1-.16,0M49.44,7.71a1.92,1.92,0,0,0-.32,0c-.86.33-.72,1.76-.25,3.07C50,13.94,51,15.45,53.5,19.76c-.87-4.9-1.09-6.69-2.23-9.85-.42-1.13-1.08-2.15-1.83-2.2m29.12,0c-.74,0-1.41,1.07-1.83,2.2-1.14,3.16-1.36,4.95-2.21,9.85C77,15.45,78,13.94,79.13,10.83c.47-1.31.61-2.74-.25-3.07a1.77,1.77,0,0,0-.32,0M45.92,9.14l-.3.08c-.84.38-.58,1.79,0,3.06,1.42,3,2.53,4.42,5.39,8.53-1.29-4.83-1.66-6.61-3.07-9.65-.51-1.05-1.27-2-2-2m36.16,0c-.75,0-1.51,1-2,2-1.41,3-1.78,4.82-3.07,9.65,2.88-4.11,4-5.52,5.39-8.53.58-1.27.84-2.68,0-3.06l-.3-.08M42.55,10.85a1.86,1.86,0,0,0-.31.1c-.8.49-.41,1.87.28,3,1.68,2.89,2.9,4.22,6.12,8-1.71-4.68-2.24-6.44-3.91-9.3-.6-1.07-1.44-2-2.18-1.89m42.75,0c-.7.05-1.47.92-2,1.89-1.67,2.86-2.21,4.62-3.92,9.3,3.23-3.83,4.45-5.16,6.12-8,.7-1.17,1.09-2.55.29-3a1.09,1.09,0,0,0-.46-.1m-45.8,2a.69.69,0,0,0-.45.16c-.76.53-.25,1.89.54,3,1.92,2.71,3.25,3.94,6.79,7.49-2.13-4.55-2.78-6.23-4.7-9-.64-.9-1.48-1.71-2.18-1.69m49,0c-.69,0-1.54.79-2.17,1.69-1.93,2.76-2.58,4.44-4.7,9C85.16,20,86.49,18.74,88.41,16c.79-1.14,1.3-2.5.55-3a.74.74,0,0,0-.46-.16m-52,2.28a1.06,1.06,0,0,0-.45.2c-.69.61-.09,1.89.81,2.94,2.14,2.58,3.59,3.65,7.42,6.86-2.5-4.34-3.31-5.94-5.46-8.5-.72-.87-1.62-1.56-2.32-1.5m54.9,0a3.76,3.76,0,0,0-2.16,1.5c-2.15,2.56-3,4.16-5.46,8.5,3.84-3.21,5.28-4.28,7.42-6.86.9-1.05,1.5-2.33.79-2.94a.86.86,0,0,0-.59-.2M33.82,17.64a.78.78,0,0,0-.58.26c-.65.64.07,1.84,1,2.83,2.35,2.38,3.89,3.32,8,6.21-2.88-4.11-3.83-5.64-6.19-8a3.76,3.76,0,0,0-2.28-1.31m60.36,0A3.73,3.73,0,0,0,91.9,19c-2.36,2.35-3.31,3.88-6.18,8,4.1-2.89,5.62-3.83,8-6.21,1-1,1.7-2.19,1.06-2.83a.75.75,0,0,0-.59-.26M31.41,20.38a.89.89,0,0,0-.73.33c-.6.66.23,1.84,1.3,2.73,2.55,2.14,4.15,3,8.49,5.49-3.22-3.86-4.29-5.29-6.85-7.46a4.26,4.26,0,0,0-2.21-1.09m65.18,0a4.26,4.26,0,0,0-2.21,1.09c-2.56,2.17-3.63,3.6-6.85,7.46,4.34-2.53,5.94-3.35,8.51-5.49,1-.89,1.88-2.07,1.28-2.73a.89.89,0,0,0-.73-.33m-67.53,3a.82.82,0,0,0-.7.36c-.54.74.4,1.83,1.55,2.62,2.73,1.95,4.39,2.61,8.94,4.68-3.55-3.53-4.74-4.83-7.49-6.77a4.13,4.13,0,0,0-2.3-.89m69.7,0a4.37,4.37,0,0,0-2.12.89C93.9,26.17,92.7,27.47,89.15,31c4.55-2.07,6.2-2.73,8.95-4.68,1.14-.79,2.08-1.88,1.55-2.62a.93.93,0,0,0-.89-.36M27.17,26.45a1,1,0,0,0-.85.44c-.46.79.56,1.78,1.76,2.5,2.89,1.66,4.62,2.19,9.33,3.91-3.84-3.25-5.16-4.45-8-6.13a4.8,4.8,0,0,0-2.19-.72m73.66,0a4.7,4.7,0,0,0-2.18.72c-2.9,1.68-4.22,2.88-8.06,6.13,4.72-1.72,6.44-2.25,9.33-3.91,1.2-.72,2.23-1.71,1.76-2.5a1,1,0,0,0-.85-.44M25.77,29.72a1.16,1.16,0,0,0-1.2.54c-.39.84.72,1.73,2,2.32,3,1.41,4.77,1.79,9.63,3.09-4.11-2.88-5.53-4-8.55-5.41a5,5,0,0,0-1.85-.54m76.46,0a5,5,0,0,0-1.85.54c-3,1.4-4.44,2.53-8.55,5.41,4.84-1.3,6.6-1.68,9.64-3.09,1.24-.59,2.37-1.48,2-2.32a1.16,1.16,0,0,0-1.2-.54m-78,3.42a1.13,1.13,0,0,0-1.16.64c-.31.87.87,1.66,2.17,2.12,3.14,1.15,4.92,1.38,9.86,2.27-4.34-2.55-5.84-3.52-9-4.64a5.6,5.6,0,0,0-1.89-.39m79.47,0a5.6,5.6,0,0,0-1.9.39c-3.14,1.12-4.65,2.09-9,4.64,4.94-.89,6.74-1.12,9.85-2.27,1.31-.46,2.5-1.25,2.17-2.12a1.08,1.08,0,0,0-1.14-.64m-80.23,3.5c-.77,0-1.39.18-1.54.77-.24.87,1,1.58,2.35,1.94l.54.15h6.86A34.87,34.87,0,0,0,25,36.84a8.17,8.17,0,0,0-1.48-.2m81,0a8.16,8.16,0,0,0-1.49.2,34.87,34.87,0,0,0-6.73,2.66h6.85l.54-.15c1.36-.36,2.59-1.07,2.37-1.94-.17-.59-.76-.77-1.54-.77"/></g></g></g></g></g></g></g></svg>