<svg id="Layer_1" data-name="Layer 1" xmlns="http://www.w3.org/2000/svg" xmlns:xlink="http://www.w3.org/1999/xlink" viewBox="0 0 128 128"><defs><style>.cls-1{fill:none;}.cls-2{clip-path:url(#clip-path);}.cls-3{clip-path:url(#clip-path-2);}.cls-4{fill:#d80031;}.cls-5{fill:#fff;}.cls-6{fill:#2530a9;}.cls-7{fill:#f5d028;}</style><clipPath id="clip-path"><circle class="cls-1" cx="64" cy="64" r="64"/></clipPath><clipPath id="clip-path-2"><rect id="_Clipping_Path_" data-name="&lt;Clipping Path&gt;" class="cls-1" width="219.42" height="128"/></clipPath></defs><title>Flag_circle_Malaysia</title><g class="cls-2"><g id="MALAYSIA"><g id="_Group_" data-name="&lt;Group&gt;"><g id="_Clip_Group_" data-name="&lt;Clip Group&gt;"><g class="cls-3"><rect id="_Path_" data-name="&lt;Path&gt;" class="cls-4" width="219.42" height="9.14"/><rect id="_Path_2" data-name="&lt;Path&gt;" class="cls-5" y="9.14" width="219.42" height="9.14"/><rect id="_Path_3" data-name="&lt;Path&gt;" class="cls-4" y="18.29" width="219.42" height="9.14"/><rect id="_Path_4" data-name="&lt;Path&gt;" class="cls-5" y="27.43" width="219.42" height="9.14"/><rect id="_Path_5" data-name="&lt;Path&gt;" class="cls-4" y="36.57" width="219.42" height="9.14"/><rect id="_Path_6" data-name="&lt;Path&gt;" class="cls-5" y="45.71" width="219.42" height="9.14"/><rect id="_Path_7" data-name="&lt;Path&gt;" class="cls-4" y="54.86" width="219.42" height="9.14"/><rect id="_Path_8" data-name="&lt;Path&gt;" class="cls-5" y="64" width="219.42" height="9.14"/><rect id="_Path_9" data-name="&lt;Path&gt;" class="cls-4" y="73.14" width="219.42" height="9.14"/><rect id="_Path_10" data-name="&lt;Path&gt;" class="cls-5" y="82.29" width="219.42" height="9.14"/><rect id="_Path_11" data-name="&lt;Path&gt;" class="cls-4" y="91.43" width="219.42" height="9.14"/><rect id="_Path_12" data-name="&lt;Path&gt;" class="cls-5" y="100.57" width="219.42" height="9.14"/><rect id="_Path_13" data-name="&lt;Path&gt;" class="cls-4" y="109.71" width="219.42" height="9.14"/><rect id="_Path_14" data-name="&lt;Path&gt;" class="cls-5" y="118.86" width="219.42" height="9.14"/><rect id="_Path_15" data-name="&lt;Path&gt;" class="cls-6" width="127.99" height="73.14"/><g id="_Clip_Group_2" data-name="&lt;Clip Group&gt;"><g class="cls-3"><path id="_Path_16" data-name="&lt;Path&gt;" class="cls-7" d="M34.28,36.57A24,24,0,0,1,70.84,16.11a27.43,27.43,0,1,0,0,40.92A24,24,0,0,1,34.28,36.57"/><polygon id="_Path_17" data-name="&lt;Path&gt;" class="cls-7" points="89.14 36.57 102.28 31.49 88.24 32.61 97.87 22.32 85.7 29.42 89.9 15.99 82.02 27.66 80 13.71 78.54 23.7 78.12 26.59 77.96 27.66 70.08 15.99 74.3 29.42 62.13 22.32 71.76 32.61 57.72 31.49 70.86 36.57 57.72 41.65 71.76 40.53 62.13 50.85 74.3 43.72 70.08 57.16 77.96 45.48 78.12 46.58 78.54 49.44 80 59.45 82.02 45.48 89.9 57.16 85.7 43.72 97.87 50.85 88.24 40.53 102.28 41.65 89.14 36.57"/></g></g></g></g></g></g></g></svg>