<svg id="Layer_1" data-name="Layer 1" xmlns="http://www.w3.org/2000/svg" xmlns:xlink="http://www.w3.org/1999/xlink" viewBox="0 0 128 128"><defs><style>.cls-1{fill:none;}.cls-2{clip-path:url(#clip-path);}.cls-3{clip-path:url(#clip-path-2);}.cls-4{fill:#1f357e;}.cls-5{fill:#3d9546;}.cls-6{fill:#fff;}.cls-7{fill:#c0003b;}.cls-8{fill:#f5cd28;}</style><clipPath id="clip-path"><circle class="cls-1" cx="64" cy="64" r="64"/></clipPath><clipPath id="clip-path-2"><rect id="_Clipping_Path_" data-name="&lt;Clipping Path&gt;" class="cls-1" width="219.43" height="128"/></clipPath></defs><title>Flag_circle_Namibia</title><g class="cls-2"><g id="NAMIBIA"><g id="_Group_" data-name="&lt;Group&gt;"><g id="_Clip_Group_" data-name="&lt;Clip Group&gt;"><g class="cls-3"><polygon id="_Path_" data-name="&lt;Path&gt;" class="cls-4" points="0 0 0 128 219.43 0 0 0"/><polygon id="_Path_2" data-name="&lt;Path&gt;" class="cls-5" points="219.43 0 0 128 219.43 128 219.43 0"/><g id="_Clip_Group_2" data-name="&lt;Clip Group&gt;"><g class="cls-3"><g id="_Group_2" data-name="&lt;Group&gt;"><polygon id="_Path_3" data-name="&lt;Path&gt;" class="cls-6" points="11.49 147.69 -11.49 108.31 207.94 -19.69 230.92 19.72 11.49 147.69 11.49 147.69"/></g><g id="_Group_3" data-name="&lt;Group&gt;"><polygon id="_Path_4" data-name="&lt;Path&gt;" class="cls-7" points="8.62 142.79 -8.62 113.21 210.8 -14.74 228.06 14.76 8.62 142.79 8.62 142.79"/></g></g></g><polygon id="_Path_5" data-name="&lt;Path&gt;" class="cls-8" points="64.78 45.89 55.37 44.28 56.98 53.68 49.63 47.58 46.31 56.54 42.99 47.58 35.64 53.68 37.26 44.28 27.84 45.89 33.94 38.54 24.98 35.22 33.94 31.87 27.84 24.52 37.26 26.18 35.64 16.75 42.99 22.86 46.31 13.89 49.63 22.86 56.98 16.75 55.37 26.18 64.78 24.52 58.67 31.87 67.65 35.22 58.67 38.54 64.78 45.89"/><g id="_Clip_Group_3" data-name="&lt;Clip Group&gt;"><g class="cls-3"><path id="_Path_6" data-name="&lt;Path&gt;" class="cls-4" d="M59.11,35.22a12.8,12.8,0,1,1-12.8-12.8,12.79,12.79,0,0,1,12.8,12.8"/><path id="_Path_7" data-name="&lt;Path&gt;" class="cls-8" d="M57,35.22a10.67,10.67,0,1,1-10.67-10.7A10.67,10.67,0,0,1,57,35.22"/></g></g></g></g></g></g></g></svg>