<svg id="Layer_1" data-name="Layer 1" xmlns="http://www.w3.org/2000/svg" xmlns:xlink="http://www.w3.org/1999/xlink" viewBox="0 0 128 128"><defs><style>.cls-1{fill:none;}.cls-2{clip-path:url(#clip-path);}.cls-3{clip-path:url(#clip-path-2);}.cls-4{fill:#4065ae;}.cls-5{fill:#fff;}.cls-6{fill:#f4cc29;}.cls-7{fill:#99d1f1;}.cls-8{fill:#487ba1;}.cls-9{fill:#bf1f3e;}.cls-10{fill:#5c7132;}.cls-11{fill:#263732;}.cls-12{fill:#92c33e;}.cls-13{fill:#ad2088;}.cls-14{fill:#f3cc2d;}.cls-15{fill:#6190bd;}.cls-16{fill:#2f4890;}</style><clipPath id="clip-path"><circle class="cls-1" cx="64" cy="64" r="64"/></clipPath><clipPath id="clip-path-2"><rect id="_Clipping_Path_" data-name="&lt;Clipping Path&gt;" class="cls-1" x="-45.71" width="219.42" height="128"/></clipPath></defs><title>Flag_circle_Nicaragua</title><g class="cls-2"><g id="NICARAGUA"><g id="_Group_" data-name="&lt;Group&gt;"><g id="_Clip_Group_" data-name="&lt;Clip Group&gt;"><g class="cls-3"><rect id="_Path_" data-name="&lt;Path&gt;" class="cls-4" x="-45.71" y="85.34" width="219.42" height="42.66"/><rect id="_Path_2" data-name="&lt;Path&gt;" class="cls-4" x="-45.71" width="219.42" height="42.67"/><rect id="_Path_3" data-name="&lt;Path&gt;" class="cls-5" x="-45.71" y="42.67" width="219.42" height="42.67"/><polygon id="_Path_4" data-name="&lt;Path&gt;" class="cls-6" points="51.13 71.43 64.01 49.14 76.86 71.43 51.13 71.43"/><polygon id="_Path_5" data-name="&lt;Path&gt;" class="cls-7" points="52.39 70.7 63.99 50.62 75.59 70.7 52.39 70.7"/><g id="_Clip_Group_2" data-name="&lt;Clip Group&gt;"><g class="cls-3"><g id="_Group_2" data-name="&lt;Group&gt;"><path id="_Path_6" data-name="&lt;Path&gt;" class="cls-7" d="M54.7,68.84a2.42,2.42,0,0,1-.47-.06l-.36-.09,0-.23.42.12a7.26,7.26,0,0,0,1.08.09,1.34,1.34,0,0,1-.64.17Z"/></g><g id="_Group_3" data-name="&lt;Group&gt;"><path id="_Path_7" data-name="&lt;Path&gt;" class="cls-7" d="M53.63,70.26l-.28-.14a1.43,1.43,0,0,0,.42-.41,1,1,0,0,1,.62,0,1.43,1.43,0,0,0,.39.07.92.92,0,0,0,.81,0l.33,0-.24.23a1,1,0,0,1-1,0,1,1,0,0,1-.38,0,.71.71,0,0,0-.46,0,3.06,3.06,0,0,0-.24.37Z"/></g><g id="_Group_4" data-name="&lt;Group&gt;"><path id="_Path_8" data-name="&lt;Path&gt;" class="cls-7" d="M55.87,70.48a6.78,6.78,0,0,0-.91,0l-.33-.11v.12c-.22,0-.31,0-.37,0l0,0v-.12a1,1,0,0,1,.42-.1H55c.39,0,.69,0,.91.25Z"/></g><g id="_Group_5" data-name="&lt;Group&gt;"><path id="_Path_9" data-name="&lt;Path&gt;" class="cls-7" d="M59.1,68.74c-.46,0-.6-.15-.69-.6a1.52,1.52,0,0,0-.71.08h-.35l-.1-.21h.4a1.06,1.06,0,0,1,.92,0c.13.49.23.54.57.56,0-.09.17-.17.31-.24l.27.08a2.4,2.4,0,0,0-.51.32Z"/></g><g id="_Group_6" data-name="&lt;Group&gt;"><path id="_Path_10" data-name="&lt;Path&gt;" class="cls-7" d="M58.35,69.93l-.27-.15c.15,0,.24-.21.42-.4a1,1,0,0,1,1-.26c.41.32.52.41.83.44a1.65,1.65,0,0,0,.48-.06l.36,0c-.11.23-.22.25-.33.27a3.39,3.39,0,0,1-.52,0,1.21,1.21,0,0,1-.77-.35.77.77,0,0,0-.92.1,3.57,3.57,0,0,0-.33.41Z"/></g><g id="_Group_7" data-name="&lt;Group&gt;"><path id="_Path_11" data-name="&lt;Path&gt;" class="cls-7" d="M60.69,70.66a2,2,0,0,1-.83-.21l-.3-.13a.61.61,0,0,1-.27.18l-.08-.17h.08s.1-.1.26-.19l.39.12a2,2,0,0,0,.75.19l.28,0a2.33,2.33,0,0,1,.41-.07.54.54,0,0,1-.36.28l-.33,0Z"/></g><g id="_Group_8" data-name="&lt;Group&gt;"><path id="_Path_12" data-name="&lt;Path&gt;" class="cls-7" d="M63.47,68.33a3,3,0,0,0-1-.1h-.4L62,68h.38a3,3,0,0,1,1.13.11h1.06l-1.1.21Z"/></g><g id="_Group_9" data-name="&lt;Group&gt;"><path id="_Path_13" data-name="&lt;Path&gt;" class="cls-7" d="M64,69.66a1.41,1.41,0,0,1-.79-.3l-.24-.16a1.51,1.51,0,0,0-.86-.32,1,1,0,0,1-.3.18l-.08-.16h.08c0-.06.09-.12.26-.21A1.72,1.72,0,0,1,63.1,69l.2.14a1.13,1.13,0,0,0,.66.27,3.72,3.72,0,0,1,.5-.21l-.17.31a.59.59,0,0,1-.33.11Z"/></g><g id="_Group_10" data-name="&lt;Group&gt;"><path id="_Path_14" data-name="&lt;Path&gt;" class="cls-7" d="M64.49,70.21a2.92,2.92,0,0,1-.82-.1.73.73,0,0,0-.75.09L62.79,70a.93.93,0,0,1,1-.12,3,3,0,0,0,1,.1l.38-.17a1.78,1.78,0,0,0,.48-.25l0,0h.26l-.23.21a1.1,1.1,0,0,1-.46.27,2.84,2.84,0,0,0-.35.16Z"/></g><g id="_Group_11" data-name="&lt;Group&gt;"><path id="_Path_15" data-name="&lt;Path&gt;" class="cls-7" d="M67.3,68.88a2.61,2.61,0,0,0-1.08-.1l-.1-.11.1-.11a3,3,0,0,1,1.11.13,1.08,1.08,0,0,0,.55-.46l.17-.18a1.63,1.63,0,0,1,.9.08,2.42,2.42,0,0,1-.82.1c-.29.37-.47.6-.83.65Z"/></g><g id="_Group_12" data-name="&lt;Group&gt;"><path id="_Path_16" data-name="&lt;Path&gt;" class="cls-7" d="M67.62,70.11l-.06-.21a3.22,3.22,0,0,1,.56-.12c.23-.28.42-.14.57,0a.62.62,0,0,0,.25.15,1.23,1.23,0,0,0,.65-.72.86.86,0,0,1-.64.93,1.27,1.27,0,0,1-.4-.18c-.14-.12-.18-.15-.34,0s-.59.15-.59.15Z"/></g><g id="_Group_13" data-name="&lt;Group&gt;"><path id="_Path_17" data-name="&lt;Path&gt;" class="cls-7" d="M68.54,69.26l-.09-.14h.08c0-.1.07-.16.23-.31l.21-.17a.83.83,0,0,1,.55-.29c.2-.26.43,0,.58.07-.33,0-.38,0-.49.11a.76.76,0,0,0-.5.25,1.12,1.12,0,0,1-.22.21l-.35.27Z"/></g><g id="_Group_14" data-name="&lt;Group&gt;"><path id="_Path_18" data-name="&lt;Path&gt;" class="cls-7" d="M70.17,70.12l-.19,0a6.48,6.48,0,0,1,.23-.77c.24-.18.4-.27.58-.23a.8.8,0,0,1,.39.42,2.35,2.35,0,0,1,.36.18,3,3,0,0,0,.44.22.44.44,0,0,1-.55,0,2.32,2.32,0,0,0-.38-.2c-.15-.25-.24-.34-.31-.37a.77.77,0,0,0-.38.14c0,.14-.17.62-.19.69Z"/></g><g id="_Group_15" data-name="&lt;Group&gt;"><path id="_Path_19" data-name="&lt;Path&gt;" class="cls-7" d="M72.1,68.88c-.28-.47-.39-.7-.66-.77a1.3,1.3,0,0,1-.12.45l-.26-.1a1.56,1.56,0,0,0,.33-.5c.49,0,.61.34.76.67a.85.85,0,0,0,.73-.14c-.1.38-.38.39-.78.39Z"/></g><g id="_Group_16" data-name="&lt;Group&gt;"><path id="_Path_20" data-name="&lt;Path&gt;" class="cls-7" d="M74.52,69.93a.75.75,0,0,1-.55-.25,1.28,1.28,0,0,0-.35-.24c-.17-.1-.29-.06-.48.36l-.2-.08c.11-.25.29-.58.52-.6l.28.17a.88.88,0,0,1,.37.24,1.53,1.53,0,0,0,.36.27c-.06-.16,0-.2.25-.24-.11.24-.14.24-.2.37Z"/></g><g id="_Group_17" data-name="&lt;Group&gt;"><path id="_Path_21" data-name="&lt;Path&gt;" class="cls-7" d="M66.29,70.28l-.09-.16h.08c0-.07.1-.12.26-.21a2,2,0,0,0,.65-.73,1.24,1.24,0,0,1,.55,0,5,5,0,0,0,.54.06.57.57,0,0,1-.57.15c-.13,0-.27,0-.42-.06a1.4,1.4,0,0,1-.56.69c-.25.16-.38.22-.44.26Z"/></g><g id="_Group_18" data-name="&lt;Group&gt;"><path id="_Path_22" data-name="&lt;Path&gt;" class="cls-7" d="M56.36,68.91h-.21c0-.12.11-.22.52-.43.15-.17.31-.11.45-.06l.23.25a.89.89,0,0,1-.3-.06v0l-.27,0c-.31.17-.41.23-.42.26Z"/></g><g id="_Group_19" data-name="&lt;Group&gt;"><path id="_Path_23" data-name="&lt;Path&gt;" class="cls-7" d="M57.57,70a.49.49,0,0,1-.24-.08.86.86,0,0,0-.32-.15,1.29,1.29,0,0,1-.29.19l-.08-.18h.08c0-.06.1-.11.26-.21a1,1,0,0,1,.46.16.87.87,0,0,0,.39.16.45.45,0,0,1-.26.11Z"/></g><g id="_Group_20" data-name="&lt;Group&gt;"><polygon id="_Path_24" data-name="&lt;Path&gt;" class="cls-5" points="64.05 66.13 63.95 50.81 64.05 50.81 64.05 66.13 64.05 66.13"/></g><g id="_Group_21" data-name="&lt;Group&gt;"><polygon id="_Path_25" data-name="&lt;Path&gt;" class="cls-5" points="58.47 60.3 58.47 60.2 69.53 60.2 58.47 60.3 58.47 60.3"/></g><g id="_Group_22" data-name="&lt;Group&gt;"><polygon id="_Path_26" data-name="&lt;Path&gt;" class="cls-5" points="72.32 65.02 59.9 57.97 59.96 57.86 72.32 65.02 72.32 65.02"/></g><g id="_Group_23" data-name="&lt;Group&gt;"><polygon id="_Path_27" data-name="&lt;Path&gt;" class="cls-5" points="55.72 65.13 68.17 57.83 68.23 57.91 55.72 65.13 55.72 65.13"/></g><g id="_Group_24" data-name="&lt;Group&gt;"><polygon id="_Path_28" data-name="&lt;Path&gt;" class="cls-5" points="61.55 64.66 61.45 64.61 66.14 56.5 61.55 64.66 61.55 64.66"/></g><g id="_Group_25" data-name="&lt;Group&gt;"><polygon id="_Path_29" data-name="&lt;Path&gt;" class="cls-5" points="66.97 65.28 61.65 56.27 61.75 56.21 66.97 65.28 66.97 65.28"/></g><path id="_Path_30" data-name="&lt;Path&gt;" class="cls-7" d="M65.71,60.25a1.71,1.71,0,0,1-3.42,0,1.71,1.71,0,0,1,3.42,0Z"/><path id="_Path_31" data-name="&lt;Path&gt;" class="cls-8" d="M73.51,67.06l-5.75.1s0,.84.41.88,5.13-.06,5.32.32-4.63.58-4.63.58,4.26,0,4.48.3-2.34.39-2.14.44,3-.05,3.27.26-1.26.53-1.26.53,2.31.23,2.37.22c-.55-1-2.07-3.63-2.07-3.63Z"/><path id="_Path_32" data-name="&lt;Path&gt;" class="cls-9" d="M63.14,59.13c-.18.13.44.21.39.61a4.42,4.42,0,0,1-.53.94c-.15.26.67,1.22,1.42.7a1.19,1.19,0,0,0,.41-1.64c-.6-.4-1-1-1.69-.61Z"/><g id="_Group_26" data-name="&lt;Group&gt;"><path id="_Path_33" data-name="&lt;Path&gt;" d="M64.23,61.33a1.71,1.71,0,0,0-.49-.48c-.19-.11-.49-.19-.57-.13a.12.12,0,0,1,0,.11s0,.05,0,0a1.06,1.06,0,0,1,0-.2c.13-.11.49,0,.64.13s.5.37.46.53Z"/></g><path id="_Path_34" data-name="&lt;Path&gt;" class="cls-10" d="M59.07,62.61c.68-.15.87.62,1.09.77s.8.19,1,.28l.73.48s.27-.7.56-.76,1.62.84,1.62.84.14-.84.49-.72a18.35,18.35,0,0,1,2.08,1.41.81.81,0,0,1,.46-.58c.38-.14,1.66.65,1.66.65s.14-.64.4-.64c.76,0,3.23,2.68,3.77,2.74.25,0-.9.37-.9.37s.2.16.09.32a29.64,29.64,0,0,1-3.52,0s.1.23,0,.3-14.84.24-14.84.24c1.37-2.38,4.09-5.43,5.31-5.72Z"/><path id="_Path_35" data-name="&lt;Path&gt;" class="cls-11" d="M64.89,68.22c.51-.14.16-1.57-2.67-3.75,4.47,3.1,1.63,3.53,6.2,3.65-.81.06-3.53.1-3.53.1Z"/><path id="_Path_36" data-name="&lt;Path&gt;" class="cls-11" d="M64.17,64.36s4.23,3.27,4.41,3.43l.89,0s-.58,0-5.3-3.46Z"/><path id="_Path_37" data-name="&lt;Path&gt;" class="cls-11" d="M66.69,65s3.55,2.78,3,2.8a21.94,21.94,0,0,0,2.38,0c-2.29-.13-1.83-.23-5.37-2.77Z"/><path id="_Path_38" data-name="&lt;Path&gt;" class="cls-11" d="M68.85,65.12,72,67.45a6.3,6.3,0,0,0,.74-.26c-.93.15-1.1-.27-3.88-2.07Z"/><path id="_Path_39" data-name="&lt;Path&gt;" class="cls-12" d="M59.63,62.92c.24.17.31.48.46.58a9.8,9.8,0,0,1,2.42,1.6c.79.83,2,1.88,1.57,2s-.84-.33-.84-.33.6,1-.2,1-2.78-2.91-2.78-2.91.94,2.7-.26,2.58-1.09-2.05-1.09-2.05-.32.93-.56.91,0-1.21,0-1.21-1.4,2.33-1.93,2.07,2.15-4.5,3.21-4.31Z"/><path id="_Path_40" data-name="&lt;Path&gt;" class="cls-12" d="M62.53,63.71c0-.21.17-.15.6.07S67.06,66.7,67,67s-4.25-2-4.44-3.27Z"/><path id="_Path_41" data-name="&lt;Path&gt;" class="cls-12" d="M65.12,64.17c-.28-.06,2.77,3,3.48,2.84s-3.29-2.79-3.48-2.84Z"/><path id="_Path_42" data-name="&lt;Path&gt;" class="cls-12" d="M67.21,64.43c-.33,0,3,2.95,3.67,2.79s-3.14-2.75-3.67-2.79Z"/><path id="_Path_43" data-name="&lt;Path&gt;" class="cls-12" d="M69.15,64.6c-.37.07,2.45,2.24,2.79,2.22s-2-2.37-2.79-2.22Z"/><path id="_Path_44" data-name="&lt;Path&gt;" class="cls-13" d="M59.41,58.55a6.19,6.19,0,0,1,9.17,0l-.69-1.21A5.7,5.7,0,0,0,64,55.9a5.77,5.77,0,0,0-3.89,1.41Z"/><path id="_Path_45" data-name="&lt;Path&gt;" class="cls-9" d="M67.45,56.59A5.59,5.59,0,0,0,64,55.53a5.5,5.5,0,0,0-3.44,1.07l-.58,1a5.49,5.49,0,0,1,4-1.53A5.55,5.55,0,0,1,68,57.58Z"/><path id="_Path_46" data-name="&lt;Path&gt;" class="cls-14" d="M67,55.72a5.41,5.41,0,0,0-3-.84,5,5,0,0,0-2.89.77l-.62,1.05a6.06,6.06,0,0,1,7.05,0Z"/><path id="_Path_47" data-name="&lt;Path&gt;" class="cls-12" d="M66.49,54.93l.55.92A5.43,5.43,0,0,0,64,55a5.3,5.3,0,0,0-3.05.88l.55-.93a4.37,4.37,0,0,1,2.5-.58,4.57,4.57,0,0,1,2.5.54Z"/><path id="_Path_48" data-name="&lt;Path&gt;" class="cls-15" d="M66.11,54.28l.46.77A6.42,6.42,0,0,0,64,54.51a5.74,5.74,0,0,0-2.64.7l.44-.77A4.53,4.53,0,0,1,64,54a5.37,5.37,0,0,1,2.12.32Z"/><path id="_Path_49" data-name="&lt;Path&gt;" class="cls-16" d="M65.87,53.85l.36.65A4.26,4.26,0,0,0,64,54a4.37,4.37,0,0,0-2.25.46l.37-.67A5.75,5.75,0,0,1,64,53.57a5.23,5.23,0,0,1,1.88.28Z"/><path id="_Path_50" data-name="&lt;Path&gt;" class="cls-5" d="M61.18,68.54l5.79,0s-1,.12-1,.24a13.27,13.27,0,0,0,2.06.16s-1.25.09-1.27.23.57.17.57.17-1.13.11-1.13.24a7,7,0,0,0,1.34.17,7.72,7.72,0,0,0-1.91.17c0,.15,1.28.45,1.28.45l-7.6.14s1.19-.18,1.19-.41-.84-.3-.84-.3a25.65,25.65,0,0,0,3.24-.08c.14-.14-.65-.25-.65-.25s1.24.07,1.31-.07-1.65-.39-1.65-.39,1,0,1.17-.15-1.92-.37-1.92-.37Z"/><path id="_Path_51" data-name="&lt;Path&gt;" class="cls-8" d="M60.08,68.68s-5.7.17-6.19.5,3.18.64,3.18.64-3.79,0-4.08.38,2.26.3,2.26.3l-2.86.2,1.37-2.35Z"/><path id="_Path_52" data-name="&lt;Path&gt;" class="cls-14" d="M47.39,69.06a.39.39,0,0,1-.24.48.38.38,0,0,1-.46-.25.37.37,0,0,1,.24-.48.35.35,0,0,1,.46.25Z"/><g id="_Group_27" data-name="&lt;Group&gt;"><path id="_Path_53" data-name="&lt;Path&gt;" class="cls-1" d="M47.39,69.06a.39.39,0,0,1-.24.48.38.38,0,0,1-.46-.25.37.37,0,0,1,.24-.48A.35.35,0,0,1,47.39,69.06Z"/></g><path id="_Compound_Path_" data-name="&lt;Compound Path&gt;" class="cls-14" d="M48,72.69c-.23.2-.4.34-.25.67l-.13.06-.6-1.3.12-.06c.11.23.19.26.3.21a.52.52,0,0,0,.19-.14l.37-.34-.45-1-.26,0a.77.77,0,0,0-.34.08c-.2.09-.18.28-.12.46l-.12,0-.46-1,.12-.06c.25.3.47.29.83.27l2.24-.21.42.47Zm1.14-2-1.37.12.38.81Z"/><path id="_Path_54" data-name="&lt;Path&gt;" class="cls-14" d="M50,75.91c-.22.18-.22.31,0,.55l-.11.07L49,75.35l.11-.08c.17.24.3.27.53.09l1.71-1.27h0l-2.66.83-.08-.12,1.5-2.28h0l-1.33,1c-.52.4-.58.47-.39.79l-.11.08-.6-.85.1-.06c.27.24.35.26.87-.13l1.26-.93c.24-.18.23-.32.07-.55l.11-.07.71,1-1.12,1.65,1.88-.58.69,1-.1.07c-.19-.22-.29-.28-.54-.1Z"/><path id="_Path_55" data-name="&lt;Path&gt;" class="cls-14" d="M50.5,77c.22.2.34.2.53,0l1.32-1.49c.19-.21.18-.35-.06-.55l.1-.1,1.82,1.64-.31.75-.13,0a1.53,1.53,0,0,0-.43-1.27c-.27-.25-.35-.16-.55.07l-.52.6,0,.05c.31.27.48.34.87.13l.1.1-.76.89-.14-.12a.6.6,0,0,0-.18-.85l-.07-.06-.58.65c-.16.17-.24.31,0,.5a1.72,1.72,0,0,0,1.38.37l0,.11-.73.37-1.82-1.65Z"/><path id="_Compound_Path_2" data-name="&lt;Compound Path&gt;" class="cls-14" d="M55.18,79.88c0,.32,0,.61.25.82l-.08.11-.84-.54c0-.12,0-.26,0-.38l.07-.57c.08-.57,0-.69-.18-.79l-.48.77c-.15.25-.12.39.13.55L54,80l-1.23-.78.07-.13c.24.16.38.15.53-.1l1-1.68c.14-.23.11-.37-.13-.53l.07-.1,1.48.92c.5.33.65.81.41,1.18s-.67.35-1.05.21a.93.93,0,0,1,0,.44Zm-.59-1.48c.55.37.85.28,1.08-.09s.09-.59-.28-.83-.28-.07-.41.14l-.46.75Z"/><path id="_Path_56" data-name="&lt;Path&gt;" class="cls-14" d="M56.88,78.72c.12-.26.07-.38-.2-.5l.06-.14,1.32.62-.05.13c-.27-.13-.41-.09-.51.17l-.82,1.8c-.11.27,0,.39.2.51l0,.13-1.33-.62.06-.12c.26.12.39.09.51-.18Z"/><path id="_Path_57" data-name="&lt;Path&gt;" class="cls-14" d="M60.12,80.28h-.18a1.2,1.2,0,0,0-.69-1.08c-.58-.19-1,.52-1.09,1-.31.94,0,1.49.46,1.63a1.11,1.11,0,0,0,1-.29l.08.11a1.4,1.4,0,0,1-1.44.4,1.43,1.43,0,0,1-.87-1.83A1.57,1.57,0,0,1,59.25,79a1.44,1.44,0,0,1,.33.18.85.85,0,0,0,.23.17,1.6,1.6,0,0,0,.31,0l.05,0Z"/><path id="_Compound_Path_3" data-name="&lt;Compound Path&gt;" class="cls-14" d="M62.17,82.14c0,.3,0,.51.42.58l0,.13-1.41-.23,0-.12c.26,0,.33,0,.36-.14a1,1,0,0,0,0-.25l-.08-.49-1-.16-.13.23a.79.79,0,0,0-.13.33c0,.2.13.31.31.36l0,.14-1.06-.19,0-.13c.39,0,.5-.23.68-.54l1.12-2,.62-.09Zm-1-2.1-.68,1.22.89.16Z"/><path id="_Path_58" data-name="&lt;Path&gt;" class="cls-14" d="M66.35,80.57l-.18.06a1.25,1.25,0,0,0-1-.76c-.61,0-.71.84-.68,1.32.07,1,.59,1.38,1,1.35a1,1,0,0,0,.82-.64l.12.07a1.39,1.39,0,0,1-1.19.9,1.42,1.42,0,0,1-1.47-1.38,1.58,1.58,0,0,1,1.31-1.78,1.4,1.4,0,0,1,.38.05.66.66,0,0,0,.26,0,.62.62,0,0,0,.29-.12l0,0Z"/><path id="_Path_59" data-name="&lt;Path&gt;" class="cls-14" d="M66.92,82.52c.28-.07.37-.19.29-.46l-.44-1.94c-.06-.27-.19-.33-.47-.27l0-.13,2.38-.56.42.69-.11.08a1.52,1.52,0,0,0-1.28-.38c-.35.09-.33.2-.25.51l.17.76h.09c.39-.09.55-.2.58-.63l.16-.05.28,1.17-.16,0c-.21-.38-.43-.42-.82-.33h-.08l.2.85c0,.23.1.38.39.32a1.74,1.74,0,0,0,1.09-.93l.11,0-.11.81-2.4.56Z"/><path id="_Path_60" data-name="&lt;Path&gt;" class="cls-14" d="M72,80l-.54-1.26c-.15-.31-.25-.49-.63-.35l-.06-.14,1-.42.06.12c-.33.22-.31.37-.16.7l.91,2.11-.34.14-2.42-1.49.62,1.46c.18.41.25.47.69.38l0,.12-1,.46-.06-.12c.34-.22.35-.35.19-.7l-.74-1.74a.84.84,0,0,0-.52-.06l-.06-.13.94-.41Z"/><path id="_Path_61" data-name="&lt;Path&gt;" class="cls-14" d="M73.93,76.33l.64.57-.1.12a1.34,1.34,0,0,0-1.17,0l1.31,1.92c.15.24.28.26.52.08l.08.12-1.2.83-.07-.11c.24-.16.27-.3.1-.54l-1.29-1.92a1.36,1.36,0,0,0-.39,1.11l-.14.06-.3-.81Z"/><path id="_Compound_Path_4" data-name="&lt;Compound Path&gt;" class="cls-14" d="M77.41,76.18c.3.08.58.17.84-.05l.1.1-.72.71a2.72,2.72,0,0,1-.37-.13l-.52-.19c-.54-.21-.69-.14-.81,0l.64.65c.2.2.33.2.54,0l.09.11-1,1-.1-.1c.21-.2.21-.34,0-.54l-1.37-1.42c-.21-.2-.35-.19-.55,0l-.09-.1L75.33,75a.77.77,0,1,1,1.18,1,.65.65,0,0,1,.43.07Zm-1.55.24c.48-.47.47-.78.16-1.09s-.55-.24-.87.07-.12.28,0,.44l.62.63Z"/><path id="_Compound_Path_5" data-name="&lt;Compound Path&gt;" class="cls-14" d="M79.48,73.5c.3.1.49.19.71-.1l.1.08-.82,1.16-.11-.07c.14-.23.12-.3,0-.38a.9.9,0,0,0-.22-.1l-.47-.15-.6.85.15.23a1.06,1.06,0,0,0,.25.27c.15.11.33,0,.45-.14l.11.09-.64.88-.1-.07a.87.87,0,0,0-.18-.87L76.88,73.3l.17-.6Zm-2.26,0L78,74.62l.51-.74Z"/><path id="_Path_62" data-name="&lt;Path&gt;" class="cls-14" d="M80.24,73.24c.14-.29.1-.42-.16-.54l-1.75-.89c-.25-.12-.38-.07-.51.2L77.7,72l.65-1.32.12.06c-.14.26-.09.41.16.52l1.76.89c.2.09.31.15.44-.13a1.79,1.79,0,0,0-.07-1.43l.08-.07.62.6-1.1,2.23Z"/><path id="_Path_63" data-name="&lt;Path&gt;" class="cls-14" d="M80.55,69.06a.36.36,0,0,1,.46-.24.37.37,0,0,1,.25.47.38.38,0,0,1-.46.25.38.38,0,0,1-.25-.48Z"/><path id="_Compound_Path_6" data-name="&lt;Compound Path&gt;" class="cls-14" d="M47.42,65.37c.24-.2.48-.37.44-.74H48l.15,1a3.37,3.37,0,0,1-.31.21l-.46.32c-.49.33-.51.5-.48.67l.9-.15c.28,0,.35-.16.31-.44l.14,0,.22,1.46-.13,0c-.05-.29-.16-.38-.43-.33l-1.94.3c-.29,0-.36.16-.31.46l-.13,0-.27-1.75c-.1-.61.17-1,.59-1.09s.71.29.85.67a.89.89,0,0,1,.32-.32Zm-.72,1.41c-.1-.68-.35-.84-.78-.76s-.51.32-.45.75c.05.27.15.27.38.24l.87-.16Z"/><path id="_Path_64" data-name="&lt;Path&gt;" class="cls-14" d="M47.88,64.47c0-.29-.08-.39-.36-.41l-2-.08c-.29,0-.38.1-.38.4l-.14,0,.09-2.47.77-.23.05.13a1.54,1.54,0,0,0-.69,1.14c0,.36.11.37.4.38l.8,0v-.09c0-.4,0-.59-.45-.75v-.16l1.18,0v.16c-.42.1-.52.31-.54.7v.09l.85,0c.23,0,.4,0,.41-.3a1.72,1.72,0,0,0-.61-1.31l.06-.11.75.33L48,64.47Z"/><path id="_Compound_Path_7" data-name="&lt;Compound Path&gt;" class="cls-14" d="M47,60.21l.83.19c.28.08.39,0,.46-.31l.12,0-.31,1.45-.14,0c.07-.28,0-.41-.27-.46l-1.91-.43c-.28-.06-.39,0-.45.3l-.13,0,.31-1.46c.2-.89.66-1.16,1-1.05.73.16.64.89.52,1.45Zm-.16,0,.06-.23c.1-.49,0-.75-.49-.86a.56.56,0,0,0-.75.49c-.08.31,0,.34.32.42Z"/><path id="_Path_65" data-name="&lt;Path&gt;" class="cls-14" d="M48.1,57.7c.67.3.95.16,1.13-.24.21-.57-.06-.87-.6-1.1l-1.32-.54c-.27-.11-.38,0-.5.23l-.12,0,.38-1,.12.06c-.11.27-.06.4.19.51l1.35.56a1,1,0,0,1,.59,1.44c-.3.76-.8,1-1.38.76l-1.42-.59c-.27-.11-.39,0-.5.23L45.9,58l.55-1.35.11,0c-.1.27-.06.4.21.52Z"/><path id="_Compound_Path_8" data-name="&lt;Compound Path&gt;" class="cls-14" d="M49.74,56.36l-.11-.07c.15-.24.13-.39-.1-.55l-1.66-1.06c-.23-.14-.37-.11-.52.13l-.12-.07L48,53.5c.57-.9,1-.92,1.26-.72a.83.83,0,0,1,.16,1h0c.32-.34.71-.65,1.17-.35s.48.73.06,1.4Zm-.72-2c.26-.44.25-.74-.11-1s-.61-.09-.81.25a.42.42,0,0,0-.1.28.31.31,0,0,0,.17.15l.73.47Zm.75.76c.3.19.42.28.64-.09a.61.61,0,0,0-.22-1c-.31-.2-.61-.26-1,.39l-.12.2Z"/><path id="_Path_66" data-name="&lt;Path&gt;" class="cls-14" d="M51.28,53.73c.2-.22.2-.36,0-.55l-1.44-1.33c-.22-.19-.35-.18-.55,0l-.1-.09,1-1.09.1.09c-.19.22-.19.36,0,.55l1.45,1.33c.18.17.27.24.47,0a1.72,1.72,0,0,0,.31-1.39l.1,0L53,52l-1.64,1.83Z"/><path id="_Path_67" data-name="&lt;Path&gt;" class="cls-14" d="M52,49.64c-.18-.22-.33-.22-.55,0l-.08-.11,1.11-.94.09.1c-.23.21-.25.33-.06.56l1.24,1.52c.2.22.33.22.55,0l.09.09-1.12,1-.08-.1c.21-.2.22-.33,0-.55Z"/><path id="_Path_68" data-name="&lt;Path&gt;" class="cls-14" d="M55.46,47.57l-.11.16a1.21,1.21,0,0,0-1.28-.18c-.51.34-.2,1.08,0,1.48.54.85,1.16.93,1.55.67a1,1,0,0,0,.42-1h.14a1.43,1.43,0,0,1-.63,1.37,1.37,1.37,0,0,1-1.93-.5,1.56,1.56,0,0,1,.3-2.18,1.26,1.26,0,0,1,.34-.15.92.92,0,0,0,.25-.08.64.64,0,0,0,.2-.24l0,0Z"/><path id="_Compound_Path_9" data-name="&lt;Compound Path&gt;" class="cls-14" d="M58.77,47.79c.2.24.3.42.65.29l0,.13-1.31.54-.07-.12c.23-.12.28-.18.23-.3a1.2,1.2,0,0,0-.13-.21l-.31-.38-1,.39v.28a1,1,0,0,0,.06.34c.07.2.27.2.45.14l.05.13-1,.4-.05-.12a.86.86,0,0,0,.3-.82l-.07-2.27.49-.42Zm-1.89-1.28,0,1.4.82-.34Z"/><path id="_Compound_Path_10" data-name="&lt;Compound Path&gt;" class="cls-14" d="M60.66,47.78c.29,0,.38-.14.35-.44l-.21-2c0-.29-.14-.37-.43-.34l0-.12,1.41-.16a1.81,1.81,0,0,1,.7,0,1.53,1.53,0,0,1,.32,2.77,1.73,1.73,0,0,1-.7.19l-1.39.15Zm1-.54c0,.3,0,.39.39.35s.85-.39.72-1.51-.51-1.22-1.06-1.16c-.31,0-.29.16-.28.41Z"/><path id="_Path_69" data-name="&lt;Path&gt;" class="cls-14" d="M63.71,47.45c.31,0,.41-.06.42-.36l.14-2c0-.27-.08-.37-.37-.4l0-.13,2.43.16.21.79-.13,0a1.55,1.55,0,0,0-1.12-.74c-.36,0-.36.1-.38.41l-.05.79H65c.41,0,.59,0,.76-.43h.16l-.08,1.19-.16,0c-.09-.42-.28-.53-.68-.55h-.09l0,.86c0,.25,0,.41.28.42a1.68,1.68,0,0,0,1.32-.57l.11.06-.36.75-2.45-.17Z"/><path id="_Path_70" data-name="&lt;Path&gt;" class="cls-14" d="M70.21,47.9l.44-1.3c.1-.34.14-.53-.23-.69l0-.13,1,.34-.06.12c-.38-.05-.47.09-.58.43l-.71,2.17-.36-.12L69,46l-.5,1.5c-.13.41-.12.51.26.73l0,.13L67.59,48l0-.13c.39.06.49,0,.61-.36l.61-1.81a.82.82,0,0,0-.37-.41l.06-.13,1,.33Z"/><path id="_Path_71" data-name="&lt;Path&gt;" class="cls-14" d="M71.93,47c.13-.26.07-.39-.19-.52l.08-.12L73.1,47l0,.12c-.27-.14-.4-.11-.52.16L71.66,49c-.15.27-.08.39.17.53l-.06.12L70.47,49l.06-.13c.26.14.4.1.52-.15Z"/><path id="_Path_72" data-name="&lt;Path&gt;" class="cls-14" d="M75.21,49.39,75,49.32a1.21,1.21,0,0,0-.35-1.23c-.52-.35-1.06.23-1.34.63-.54.82-.37,1.44,0,1.69a1,1,0,0,0,1,0l.05.13a1.35,1.35,0,0,1-1.49,0,1.41,1.41,0,0,1-.32-2,1.54,1.54,0,0,1,2.09-.61,1.17,1.17,0,0,1,.27.28,1.69,1.69,0,0,0,.19.19.63.63,0,0,0,.3.1h0Z"/><path id="_Compound_Path_11" data-name="&lt;Compound Path&gt;" class="cls-14" d="M76.34,52.52c-.15.28-.27.47,0,.72l-.11.1-1-1,.09-.1c.2.17.27.17.35.09a.6.6,0,0,0,.13-.21l.23-.45L75.29,51l-.24.13a.69.69,0,0,0-.3.2c-.14.13-.07.31,0,.46l-.09.09-.78-.75L74,51a.81.81,0,0,0,.87,0l2-1,.57.27Zm.4-2.25-1.26.6.64.62Z"/><path id="_Compound_Path_12" data-name="&lt;Compound Path&gt;" class="cls-14" d="M78.25,55.11a.79.79,0,0,0-.1.83L78,56l-.57-.84a2.9,2.9,0,0,1,.19-.34l.28-.49c.3-.5.24-.66.15-.81l-.76.53c-.24.17-.24.3-.08.54l-.1.07-.83-1.2.11-.08c.17.24.29.27.52.11l1.63-1.11c.23-.16.25-.31.09-.55l.1-.06,1,1.45c.33.5.28,1-.08,1.24a.79.79,0,0,1-1-.24.94.94,0,0,1-.16.42Zm0-1.6c.38.56.68.61,1,.35s.32-.52.07-.87-.23-.17-.42-.05l-.73.49Z"/><path id="_Compound_Path_13" data-name="&lt;Compound Path&gt;" class="cls-14" d="M79.74,58.44c-.26.2-.42.32-.3.66l-.12.06-.55-1.33.14-.06c.1.23.16.27.29.23a.52.52,0,0,0,.19-.14l.39-.33-.39-1-.28,0a1.32,1.32,0,0,0-.34,0c-.18.08-.19.29-.13.47l-.13,0-.41-1,.13-.06c.23.32.45.32.81.31l2.26-.08.39.49ZM81,56.53l-1.4,0,.34.84Z"/><path id="_Path_73" data-name="&lt;Path&gt;" class="cls-14" d="M82,61.3l-.08-.13c.41-.46.62-.75.55-1.12s-.53-.72-1.54-.51-1.31.58-1.22,1,.43.44.8.37.33-.16.29-.47l.15,0,.28,1.37-.15,0c-.11-.32-.2-.34-.5-.27l-.6.12a1.57,1.57,0,0,0-.2-.55,2,2,0,0,1-.24-.58,1.36,1.36,0,0,1,1.14-1.7A1.58,1.58,0,0,1,82.57,60a1,1,0,0,1,0,.34.7.7,0,0,0,0,.25.75.75,0,0,0,.18.31Z"/><path id="_Path_74" data-name="&lt;Path&gt;" class="cls-14" d="M80.91,62.91c-.72,0-.94.25-.93.69,0,.6.37.78,1,.76l1.43,0c.28,0,.37-.11.36-.41h.14l0,1h-.14c0-.31-.09-.4-.38-.4l-1.46,0c-.7,0-1.09-.29-1.1-1.08s.36-1.25,1-1.26l1.54,0c.27,0,.35-.11.35-.4h.13l0,1.47h-.12c0-.3-.11-.38-.39-.38Z"/><path id="_Compound_Path_14" data-name="&lt;Compound Path&gt;" class="cls-14" d="M80.15,67.56c-.32,0-.53,0-.59.42l-.13,0,.22-1.44.13,0c0,.27,0,.33.12.34a.7.7,0,0,0,.25,0l.49-.06.19-1-.26-.13a.91.91,0,0,0-.31-.12c-.21,0-.32.13-.37.31l-.12,0,.17-1.07.13,0c.05.39.23.5.54.67l2,1.14.09.61Zm2-1L81,65.9l-.13.89Z"/></g></g></g></g></g></g></g></svg>