<svg id="Layer_1" data-name="Layer 1" xmlns="http://www.w3.org/2000/svg" xmlns:xlink="http://www.w3.org/1999/xlink" viewBox="0 0 128 128"><defs><style>.cls-1{fill:none;}.cls-2{clip-path:url(#clip-path);}.cls-3{fill:#dc143c;}.cls-4{fill:#42559c;}.cls-5{fill:#be0027;}.cls-6{fill:#fff;}</style><clipPath id="clip-path"><circle class="cls-1" cx="64" cy="64" r="64"/></clipPath></defs><title>Flag_circle_Nepal</title><g class="cls-2"><path id="a" class="cls-3" d="M4,55.44H107.42L4-9.29V128.55H107.42L4,25.17Z"/><path id="a-2" data-name="a" class="cls-4" d="M4-9.29,107.42,55.44H34.31L4,25.17V-9.29M4,25.17v0M34.31,55.44l73.11,73.11H4V55.44H34.31M0-16.65V132.63h117.3l-7-7L44.15,59.52h77.46l-12-7.53L6.2-12.74,0-16.65Zm8.16,68V35L24.47,51.37Z"/><path id="a-3" data-name="a" class="cls-5" d="M4,55.44H107.42L4-9.29V128.55H107.42L4,25.17Z"/><path class="cls-6" d="M29.88,51.76A20.59,20.59,0,0,0,50.47,31.17a22.05,22.05,0,0,1-9.25,10.89l-1.76-1.31,3.45-2.59-4.17-1.07L41,33.36,36.64,34l.64-4.28-3.74,2.24-1.07-4.22-2.59,3.45L27.3,27.72l-1.09,4.21-3.72-2.21L23.13,34l-4.31-.64,2.24,3.74-4.2,1.07,3.44,2.58-1.72,1.33A21.85,21.85,0,0,1,9.31,31.22,20.59,20.59,0,0,0,29.9,51.81Z"/><path class="cls-6" d="M20,82.08l-9.24-1.14,5.6,7.41L7.76,92l8.56,3.61L10.72,103,20,101.9l-1.14,9.25,7.41-5.6,3.65,8.58,3.62-8.58L41,111.17l-1.14-9.24L49,103.08l-5.6-7.4L52,92.06,43.44,88.4,49,81l-9.23,1.12L41,72.88l-7.41,5.6-3.66-8.6-3.61,8.57-7.45-5.6L20,82.08Z"/></g></svg>