<svg id="Layer_1" data-name="Layer 1" xmlns="http://www.w3.org/2000/svg" xmlns:xlink="http://www.w3.org/1999/xlink" viewBox="0 0 128 128"><defs><style>.cls-1{fill:none;}.cls-2{clip-path:url(#clip-path);}.cls-3{clip-path:url(#clip-path-2);}.cls-4{fill:#1a237b;}.cls-5{fill:#fff;}.cls-6{fill:#bd0034;}</style><clipPath id="clip-path"><circle class="cls-1" cx="64" cy="64" r="64"/></clipPath><clipPath id="clip-path-2"><rect id="_Clipping_Path_" data-name="&lt;Clipping Path&gt;" class="cls-1" x="-49" width="219.43" height="128"/></clipPath></defs><title>Flag_circle_New Zealand</title><g class="cls-2"><g id="NEW_ZEALAND" data-name="NEW ZEALAND"><g id="_Group_" data-name="&lt;Group&gt;"><g id="_Clip_Group_" data-name="&lt;Clip Group&gt;"><g class="cls-3"><polygon id="_Path_" data-name="&lt;Path&gt;" class="cls-4" points="60.76 0 60.76 4.07 60.76 5.47 60.76 6.12 36.4 18.29 60.76 18.29 60.76 21.95 60.76 27.44 60.76 32.93 60.76 36.58 36.4 36.58 60.76 48.76 60.76 50.8 60.76 54.88 60.76 55.23 53.26 55.23 50.46 55.23 49.17 55.23 15 38.14 15 55.23 11.34 55.23 5.85 55.23 0.37 55.23 -3.29 55.23 -3.29 38.14 -37.46 55.23 -41.55 55.23 -49 55.23 -49 128 170.43 128 170.43 0 60.76 0"/><polygon id="_Path_2" data-name="&lt;Path&gt;" class="cls-4" points="15 0 15 16.74 48.45 0 15 0"/><polygon id="_Path_3" data-name="&lt;Path&gt;" class="cls-5" points="60.72 0 24.14 18.29 15.95 18.29 52.52 0 48.45 0 15 16.74 15 0 11.34 0 11.34 18.56 11.34 20.6 11.34 21.95 16.82 21.95 25 21.95 27.8 21.95 29.09 21.95 60.76 21.95 60.76 18.29 36.4 18.29 60.76 6.12 60.76 5.47 60.76 4.07 60.76 0 60.72 0"/><polygon id="_Path_4" data-name="&lt;Path&gt;" class="cls-5" points="-3.29 0 -3.29 16.74 -36.73 0 -49 0 -12.43 18.29 -20.61 18.29 -49 4.11 -49 6.15 -24.69 18.29 -49 18.29 -49 21.95 -17.39 21.95 -13.29 21.95 -5.12 21.95 0.37 21.95 0.37 20.6 0.37 19.21 0.37 18.56 0.37 0 -3.29 0"/><polygon id="_Path_5" data-name="&lt;Path&gt;" class="cls-5" points="25 32.93 16.82 32.93 11.34 32.93 11.34 34.27 11.34 35.66 11.34 36.31 11.34 55.23 15 55.23 15 38.14 49.17 55.23 50.46 55.23 53.26 55.23 60.76 55.23 60.76 54.88 24.14 36.58 32.31 36.58 60.76 50.8 60.76 48.76 36.4 36.58 60.76 36.58 60.76 32.93 29.09 32.93 25 32.93"/><polygon id="_Path_6" data-name="&lt;Path&gt;" class="cls-5" points="-5.12 32.93 -13.29 32.93 -16.09 32.93 -17.39 32.93 -49 32.93 -49 36.58 -24.69 36.58 -49 48.73 -49 54.86 -12.43 36.58 -4.26 36.58 -41.55 55.23 -37.46 55.23 -3.29 38.14 -3.29 55.23 0.37 55.23 0.37 36.31 0.37 34.27 0.37 32.93 -5.12 32.93"/><polygon id="_Path_7" data-name="&lt;Path&gt;" class="cls-6" points="60.72 0 52.52 0 15.95 18.29 24.14 18.29 60.72 0"/><polygon id="_Path_8" data-name="&lt;Path&gt;" class="cls-6" points="24.14 36.58 60.76 54.88 60.76 50.8 32.31 36.58 24.14 36.58"/><polygon id="_Path_9" data-name="&lt;Path&gt;" class="cls-6" points="0.37 0 0.37 18.56 0.37 19.21 0.37 20.6 0.37 21.95 -5.12 21.95 -13.29 21.95 -17.39 21.95 -49 21.95 -49 32.93 -17.39 32.93 -16.09 32.93 -13.29 32.93 -5.12 32.93 0.37 32.93 0.37 34.27 0.37 36.31 0.37 55.23 5.85 55.23 11.34 55.23 11.34 36.31 11.34 35.66 11.34 34.27 11.34 32.93 16.82 32.93 25 32.93 29.09 32.93 60.76 32.93 60.76 27.44 60.76 21.95 29.09 21.95 27.8 21.95 25 21.95 16.82 21.95 11.34 21.95 11.34 20.6 11.34 18.56 11.34 0 0.37 0"/><polygon id="_Path_10" data-name="&lt;Path&gt;" class="cls-5" points="103.32 37.36 109.27 37.36 111.13 31.69 112.97 37.36 118.91 37.36 114.1 40.87 115.94 46.54 111.13 43.03 106.28 46.54 108.14 40.87 103.32 37.36"/><polygon id="_Path_11" data-name="&lt;Path&gt;" class="cls-6" points="105.96 38.23 109.89 38.23 111.13 34.48 112.33 38.23 116.27 38.23 113.09 40.54 114.3 44.3 111.13 41.98 107.93 44.3 109.15 40.54 105.96 38.23"/><polygon id="_Path_12" data-name="&lt;Path&gt;" class="cls-5" points="79.45 61.36 85.41 61.36 87.27 55.68 89.11 61.36 95.07 61.36 90.26 64.86 92.08 70.53 87.27 67.03 82.45 70.53 84.29 64.86 79.45 61.36"/><polygon id="_Path_13" data-name="&lt;Path&gt;" class="cls-6" points="82.1 62.22 86.04 62.22 87.27 58.47 88.48 62.22 92.44 62.22 89.24 64.54 90.46 68.29 87.27 65.96 84.07 68.29 85.3 64.54 82.1 62.22"/><polygon id="_Path_14" data-name="&lt;Path&gt;" class="cls-5" points="124.61 55.41 129.93 55.41 131.57 50.36 133.21 55.41 138.5 55.41 134.22 58.51 135.86 63.57 131.57 60.46 127.27 63.57 128.92 58.51 124.61 55.41"/><polygon id="_Path_15" data-name="&lt;Path&gt;" class="cls-6" points="126.97 56.17 130.49 56.17 131.57 52.83 132.65 56.17 136.17 56.17 133.32 58.24 134.4 61.57 131.57 59.51 128.72 61.57 129.82 58.24 126.97 56.17"/><polygon id="_Path_16" data-name="&lt;Path&gt;" class="cls-5" points="102.45 99.01 109.07 99.01 111.13 92.71 113.16 99.01 119.79 99.01 114.44 102.92 116.47 109.22 111.13 105.32 105.77 109.22 107.81 102.92 102.45 99.01"/><polygon id="_Path_17" data-name="&lt;Path&gt;" class="cls-6" points="105.39 99.98 109.77 99.98 111.13 95.81 112.47 99.98 116.85 99.98 113.32 102.55 114.67 106.73 111.13 104.15 107.58 106.73 108.94 102.55 105.39 99.98"/></g></g></g></g></g></svg>