<svg id="Layer_1" data-name="Layer 1" xmlns="http://www.w3.org/2000/svg" xmlns:xlink="http://www.w3.org/1999/xlink" viewBox="0 0 128 128"><defs><style>.cls-1,.cls-14,.cls-15,.cls-16,.cls-17{fill:none;}.cls-2{clip-path:url(#clip-path);}.cls-22,.cls-3{fill:#db161b;}.cls-10,.cls-11,.cls-12,.cls-13,.cls-18,.cls-19,.cls-20,.cls-21,.cls-23,.cls-24,.cls-25,.cls-26,.cls-27,.cls-28,.cls-29,.cls-30,.cls-31,.cls-32,.cls-33,.cls-34,.cls-4,.cls-6,.cls-7,.cls-8,.cls-9{fill:#fff;}.cls-5{fill:green;}.cls-10,.cls-11,.cls-12,.cls-13,.cls-14,.cls-15,.cls-16,.cls-17,.cls-18,.cls-19,.cls-20,.cls-21,.cls-22,.cls-23,.cls-24,.cls-25,.cls-26,.cls-27,.cls-28,.cls-29,.cls-30,.cls-31,.cls-32,.cls-33,.cls-34,.cls-6,.cls-7,.cls-8,.cls-9{stroke:#db161b;}.cls-6{stroke-width:0.12px;}.cls-7{stroke-width:0.11px;}.cls-8{stroke-width:0.07px;}.cls-22,.cls-9{stroke-width:0.43px;}.cls-10{stroke-width:0.11px;}.cls-11{stroke-width:0.18px;}.cls-12,.cls-17{stroke-width:0.14px;}.cls-13{stroke-width:0.14px;}.cls-14{stroke-width:0.14px;}.cls-15{stroke-width:0.14px;}.cls-16{stroke-width:0.14px;}.cls-18{stroke-width:0.14px;}.cls-19{stroke-width:0.13px;}.cls-20{stroke-width:0.14px;}.cls-21{stroke-width:0.14px;}.cls-23{stroke-width:0.13px;}.cls-24{stroke-width:0.11px;}.cls-25{stroke-width:1.9px;}.cls-26{stroke-width:1.9px;}.cls-27{stroke-width:0.08px;}.cls-28{stroke-width:0.14px;}.cls-29{stroke-width:0.12px;}.cls-30{stroke-width:0.12px;}.cls-31{stroke-width:0.11px;}.cls-32{stroke-width:0.12px;}.cls-33{stroke-width:0.14px;}.cls-34{stroke-width:0.14px;}</style><clipPath id="clip-path"><circle class="cls-1" cx="64" cy="64" r="64"/></clipPath></defs><title>Flag_circle_Oman</title><g class="cls-2"><rect class="cls-3" width="220" height="128"/><rect class="cls-4" x="64" width="156" height="42.67"/><rect class="cls-5" x="64" y="85.33" width="156" height="42.67"/><g id="a"><path class="cls-6" d="M14.73,21.9h6.88a.66.66,0,0,1,.69.64v3.24a.67.67,0,0,1-.69.64H14.73a.67.67,0,0,1-.68-.64V22.54A.66.66,0,0,1,14.73,21.9Z"/><path class="cls-7" d="M14.91,22.08h6.53a.63.63,0,0,1,.65.59v3a.62.62,0,0,1-.65.59H14.91a.62.62,0,0,1-.65-.59v-3A.63.63,0,0,1,14.91,22.08Z"/><path class="cls-8" d="M17.9,23.22h.39l0,.18.33.16.25-.2.3.16-.28.18L19,24h.36v.33l-.29,0-.14.21.32.23-.25.2-.27-.21-.4.08,0,.31-.43,0,0-.29-.36-.15-.2.21L17,24.72l.18-.24L17,24.33h-.31l0-.43.31,0,.21-.25-.25-.19.33-.22.23.18.4-.05Z"/><ellipse class="cls-9" cx="18.02" cy="24.11" rx="0.43" ry="0.37"/><path class="cls-10" d="M15.32,22.27l-.64.57"/><path class="cls-10" d="M15.74,22.27l-.63.57"/><path class="cls-10" d="M16.16,22.27l-.63.57"/><path class="cls-10" d="M16.59,22.27l-.64.57"/><path class="cls-10" d="M17,22.27l-.63.57"/><path class="cls-10" d="M17.43,22.27l-.63.57"/><path class="cls-10" d="M17.86,22.27l-.64.57"/><path class="cls-10" d="M18.28,22.27l-.64.57"/><path class="cls-10" d="M18.7,22.27l-.63.57"/><path class="cls-10" d="M19.13,22.27l-.64.57"/><path class="cls-10" d="M19.55,22.27l-.64.57"/><path class="cls-10" d="M20,22.27l-.63.57"/><path class="cls-10" d="M18.28,22.27l-.64.57"/><path class="cls-10" d="M20.39,22.27l-.63.57"/><path class="cls-10" d="M20.82,22.27l-.64.57"/><path class="cls-10" d="M21.24,22.27l-.63.57"/><path class="cls-10" d="M21.66,22.27l-.63.57"/><path class="cls-10" d="M21,22.27l.63.57"/><path class="cls-10" d="M20.61,22.27l.63.57"/><path class="cls-10" d="M20.18,22.27l.64.57"/><path class="cls-10" d="M19.76,22.27l.63.57"/><path class="cls-10" d="M19.34,22.27l.63.57"/><path class="cls-10" d="M18.91,22.27l.64.57"/><path class="cls-10" d="M18.49,22.27l.64.57"/><path class="cls-10" d="M18.07,22.27l.63.57"/><path class="cls-10" d="M17.64,22.27l.64.57"/><path class="cls-10" d="M17.22,22.27l.64.57"/><path class="cls-10" d="M16.8,22.27l.63.57"/><path class="cls-10" d="M16.38,22.27l.63.57"/><path class="cls-10" d="M18.07,22.27l.63.57"/><path class="cls-10" d="M16,22.27l.64.57"/><path class="cls-10" d="M15.53,22.27l.63.57"/><path class="cls-10" d="M15.11,22.27l.63.57"/><path class="cls-10" d="M14.68,22.27l.64.57"/><path class="cls-10" d="M15.32,25.48l-.64.57"/><path class="cls-10" d="M15.74,25.48l-.63.57"/><path class="cls-10" d="M16.16,25.48l-.63.57"/><path class="cls-10" d="M16.59,25.48l-.64.57"/><path class="cls-10" d="M17,25.48l-.63.57"/><path class="cls-10" d="M17.43,25.48l-.63.57"/><path class="cls-10" d="M17.86,25.48l-.64.57"/><path class="cls-10" d="M18.28,25.48l-.64.57"/><path class="cls-10" d="M18.7,25.48l-.63.57"/><path class="cls-10" d="M19.13,25.48l-.64.57"/><path class="cls-10" d="M19.55,25.48l-.64.57"/><path class="cls-10" d="M20,25.48l-.63.57"/><path class="cls-10" d="M18.28,25.48l-.64.57"/><path class="cls-10" d="M20.39,25.48l-.63.57"/><path class="cls-10" d="M20.82,25.48l-.64.57"/><path class="cls-10" d="M21.24,25.48l-.63.57"/><path class="cls-10" d="M21.66,25.48l-.63.57"/><path class="cls-10" d="M21,25.48l.63.57"/><path class="cls-10" d="M20.61,25.48l.63.57"/><path class="cls-10" d="M20.18,25.48l.64.57"/><path class="cls-10" d="M19.76,25.48l.63.57"/><path class="cls-10" d="M19.34,25.48l.63.57"/><path class="cls-10" d="M18.91,25.48l.64.57"/><path class="cls-10" d="M18.49,25.48l.64.57"/><path class="cls-10" d="M18.07,25.48l.63.57"/><path class="cls-10" d="M17.64,25.48l.64.57"/><path class="cls-10" d="M17.22,25.48l.64.57"/><path class="cls-10" d="M16.8,25.48l.63.57"/><path class="cls-10" d="M16.38,25.48l.63.57"/><path class="cls-10" d="M18.07,25.48l.63.57"/><path class="cls-10" d="M16,25.48l.64.57"/><path class="cls-10" d="M15.53,25.48l.63.57"/><path class="cls-10" d="M15.11,25.48l.63.57"/><path class="cls-10" d="M14.68,25.48l.64.57"/></g><g id="a-2" data-name="a"><path class="cls-6" d="M49.27,21.9H42.39a.66.66,0,0,0-.69.64v3.24a.67.67,0,0,0,.69.64h6.88a.67.67,0,0,0,.68-.64V22.54A.66.66,0,0,0,49.27,21.9Z"/><path class="cls-7" d="M49.09,22.08H42.56a.63.63,0,0,0-.65.59v3a.62.62,0,0,0,.65.59h6.53a.62.62,0,0,0,.65-.59v-3A.63.63,0,0,0,49.09,22.08Z"/><path class="cls-8" d="M46.1,23.22h-.39l0,.18-.33.16-.25-.2-.3.16.28.18L45,24h-.36v.33l.29,0,.14.21-.32.23.25.2.27-.21.4.08,0,.31.43,0,0-.29.36-.15.2.21.31-.15-.18-.24.21-.15h.31l0-.43-.31,0-.21-.25.25-.19-.33-.22-.23.18-.4-.05Z"/><ellipse class="cls-9" cx="45.98" cy="24.11" rx="0.43" ry="0.37"/><path class="cls-10" d="M48.68,22.27l.64.57"/><path class="cls-10" d="M48.26,22.27l.63.57"/><path class="cls-10" d="M47.84,22.27l.63.57"/><path class="cls-10" d="M47.41,22.27l.64.57"/><path class="cls-10" d="M47,22.27l.63.57"/><path class="cls-10" d="M46.57,22.27l.63.57"/><path class="cls-10" d="M46.14,22.27l.64.57"/><path class="cls-10" d="M45.72,22.27l.64.57"/><path class="cls-10" d="M45.3,22.27l.63.57"/><path class="cls-10" d="M44.87,22.27l.64.57"/><path class="cls-10" d="M44.45,22.27l.64.57"/><path class="cls-10" d="M44,22.27l.63.57"/><path class="cls-10" d="M45.72,22.27l.64.57"/><path class="cls-10" d="M43.61,22.27l.63.57"/><path class="cls-10" d="M43.18,22.27l.64.57"/><path class="cls-10" d="M42.76,22.27l.63.57"/><path class="cls-10" d="M42.34,22.27l.63.57"/><path class="cls-10" d="M43,22.27l-.63.57"/><path class="cls-10" d="M43.39,22.27l-.63.57"/><path class="cls-10" d="M43.82,22.27l-.64.57"/><path class="cls-10" d="M44.24,22.27l-.63.57"/><path class="cls-10" d="M44.66,22.27l-.63.57"/><path class="cls-10" d="M45.09,22.27l-.64.57"/><path class="cls-10" d="M45.51,22.27l-.64.57"/><path class="cls-10" d="M45.93,22.27l-.63.57"/><path class="cls-10" d="M46.36,22.27l-.64.57"/><path class="cls-10" d="M46.78,22.27l-.64.57"/><path class="cls-10" d="M47.2,22.27l-.63.57"/><path class="cls-10" d="M47.62,22.27l-.63.57"/><path class="cls-10" d="M45.93,22.27l-.63.57"/><path class="cls-10" d="M48.05,22.27l-.64.57"/><path class="cls-10" d="M48.47,22.27l-.63.57"/><path class="cls-10" d="M48.89,22.27l-.63.57"/><path class="cls-10" d="M49.32,22.27l-.64.57"/><path class="cls-10" d="M48.68,25.48l.64.57"/><path class="cls-10" d="M48.26,25.48l.63.57"/><path class="cls-10" d="M47.84,25.48l.63.57"/><path class="cls-10" d="M47.41,25.48l.64.57"/><path class="cls-10" d="M47,25.48l.63.57"/><path class="cls-10" d="M46.57,25.48l.63.57"/><path class="cls-10" d="M46.14,25.48l.64.57"/><path class="cls-10" d="M45.72,25.48l.64.57"/><path class="cls-10" d="M45.3,25.48l.63.57"/><path class="cls-10" d="M44.87,25.48l.64.57"/><path class="cls-10" d="M44.45,25.48l.64.57"/><path class="cls-10" d="M44,25.48l.63.57"/><path class="cls-10" d="M45.72,25.48l.64.57"/><path class="cls-10" d="M43.61,25.48l.63.57"/><path class="cls-10" d="M43.18,25.48l.64.57"/><path class="cls-10" d="M42.76,25.48l.63.57"/><path class="cls-10" d="M42.34,25.48l.63.57"/><path class="cls-10" d="M43,25.48l-.63.57"/><path class="cls-10" d="M43.39,25.48l-.63.57"/><path class="cls-10" d="M43.82,25.48l-.64.57"/><path class="cls-10" d="M44.24,25.48l-.63.57"/><path class="cls-10" d="M44.66,25.48l-.63.57"/><path class="cls-10" d="M45.09,25.48l-.64.57"/><path class="cls-10" d="M45.51,25.48l-.64.57"/><path class="cls-10" d="M45.93,25.48l-.63.57"/><path class="cls-10" d="M46.36,25.48l-.64.57"/><path class="cls-10" d="M46.78,25.48l-.64.57"/><path class="cls-10" d="M47.2,25.48l-.63.57"/><path class="cls-10" d="M47.62,25.48l-.63.57"/><path class="cls-10" d="M45.93,25.48l-.63.57"/><path class="cls-10" d="M48.05,25.48l-.64.57"/><path class="cls-10" d="M48.47,25.48l-.63.57"/><path class="cls-10" d="M48.89,25.48l-.63.57"/><path class="cls-10" d="M49.32,25.48l-.64.57"/></g><g id="b"><path class="cls-11" d="M27,31.39c-10.27,10-14.64,11.3-12.59,12.11s8.67-4.37,15.54-11.25,11.09-13,9-13.82S37.91,20.71,27,31.39Z"/><path class="cls-12" d="M18.35,38.68l3.59.94c-3.38,3.21-7.19,4.53-8.25,4S15.6,41.7,18.35,38.68Z"/><path class="cls-13" d="M18.35,39.06l3,.75c-3.3,3.08-6.56,4-7.4,3.59S15.67,42,18.35,39.06Z"/><path class="cls-14" d="M29.4,31c0,.05,0,.26-.06.35a2.51,2.51,0,0,1,0,.3c0,.08,0,.15-.14.18A.38.38,0,0,1,29,32a1,1,0,0,1-.26.14.54.54,0,0,1-.31,0L28.16,32c0-.08,0-.18-.05-.26a1.34,1.34,0,0,1,.05.3.55.55,0,0,1-.1.26"/><path class="cls-14" d="M28.42,32.51l0,0c.06.06,0,0-.11,0a1.13,1.13,0,0,0-.34-.1h-.37a1.11,1.11,0,0,0-.34,0c-.07.07-.19.1-.26.16a.42.42,0,0,0-.16.19c-.07.06-.12.16-.19.21s-.08.1-.13.18a.4.4,0,0,1,.29.1c.11.05-.09,0-.13-.1a.73.73,0,0,0-.23,0c-.12,0-.2,0-.32,0a.27.27,0,0,1-.18,0"/><path class="cls-14" d="M27,33.67a1.26,1.26,0,0,1-.39,0,.45.45,0,0,1-.24-.16c0-.07,0,.11,0,.18s-.06.14-.13.24l-.23.14a.88.88,0,0,1-.24.11,1.08,1.08,0,0,0-.24.12c-.09.05-.08.12-.13.21a.26.26,0,0,0,.11.23.66.66,0,0,0,.15.21c.07.11.14.16,0,.19s-.14,0-.24,0"/><path class="cls-14" d="M25.35,35.3a2.88,2.88,0,0,1-.4-.12h-.36a.82.82,0,0,0-.29.09.7.7,0,0,1-.24.17,1.27,1.27,0,0,0-.21.25.91.91,0,0,0-.05.31,2.33,2.33,0,0,0,.05.28.63.63,0,0,0,.16.27.06.06,0,0,0,0,.05"/><path class="cls-15" d="M24.1,36.91s0,.06-.08.11a.22.22,0,0,1-.22.09c-.12,0-.11,0-.19-.08a.93.93,0,0,1-.13-.18c0-.05-.06-.12-.09-.16l-.12-.15a.19.19,0,0,0-.09,0c.11,0,.12.06.19.11l.09.17a1.5,1.5,0,0,1,0,.24.51.51,0,0,1,0,.25.4.4,0,0,1-.13.13.93.93,0,0,0-.13.15l-.17.11a.36.36,0,0,1-.2.07.45.45,0,0,1-.23-.07l-.18-.13a.47.47,0,0,1-.13-.15.25.25,0,0,0-.23,0,.53.53,0,0,0-.13.13l-.11.07"/><path class="cls-16" d="M22,37.67l.19.11a2.5,2.5,0,0,1,.09.25,1.72,1.72,0,0,1,0,.33,1.25,1.25,0,0,1-.11.29,1.91,1.91,0,0,1-.21.14l-.3,0a.39.39,0,0,1-.28,0,.73.73,0,0,1-.26-.09L21,38.58c0-.06-.12-.12-.18-.2a1,1,0,0,1-.14-.21c0,.1.08.19.11.28a.43.43,0,0,1,.1.25,1.1,1.1,0,0,1,0,.32,1.17,1.17,0,0,1-.05.27v.07"/><path class="cls-17" d="M18.61,39.73v0c0-.09,0,0,0,.14A.41.41,0,0,0,19,40c.12-.09.12-.15.34-.2a.82.82,0,0,1,.41.14.56.56,0,0,1,.3.23c0,.11.07.19-.08.23a.77.77,0,0,1-.41.13c-.17,0-.29,0-.37.07s-.11.18-.11.37a2.63,2.63,0,0,0-.08.3.72.72,0,0,1-.33.06c0-.1-.09-.29-.12-.4a.7.7,0,0,0-.11-.36,1.2,1.2,0,0,0-.26-.24.51.51,0,0,0-.22-.13c.14.07.16.14.18.3a.61.61,0,0,1-.37.1.35.35,0,0,1-.34-.17,1.34,1.34,0,0,1-.11.37,3.27,3.27,0,0,0-.18.33c0,.16.1.17.11.37s0,.25.15.33.08.06.18.07a.88.88,0,0,1-.48-.1c-.11-.06-.2-.14-.3-.2a1.41,1.41,0,0,0-.45-.2c-.17,0-.29,0-.37.07a.5.5,0,0,0-.22.33.45.45,0,0,0,0,.4.27.27,0,0,1,0,.33c-.08.11-.21.12-.41.17a1.63,1.63,0,0,1-.37-.07"/><path class="cls-18" d="M38.7,22.33c4.56-7.87,7.58-14.56,6.75-14.94s-5.2,5.69-9.76,13.55Z"/><path class="cls-19" d="M38.4,22.19c4.39-7.59,7.42-14,6.76-14.3S40.39,13.5,36,21.08"/><path class="cls-20" d="M37.64,18.23c-.53.89-1.1,1.9-1.65,2.85l2.41,1.11c.55-1,1.15-2,1.65-2.85Z"/><path class="cls-20" d="M37.85,18.54c-.54.88-.91,1.56-1.46,2.51l1.81.83c.55-.95.95-1.61,1.45-2.51Z"/><polygon class="cls-21" points="39.16 19.57 37.95 19.01 36.89 20.85 38.09 21.41 39.16 19.57"/><path class="cls-20" d="M39.16,19.57l-2.27,1.28"/><path class="cls-20" d="M38.09,21.41,38,19"/><path class="cls-20" d="M44.59,10.18l-1.2-.55"/><ellipse class="cls-22" cx="44.52" cy="9.02" rx="0.35" ry="0.31" transform="translate(-0.88 10.42) rotate(-13.21)"/></g><g id="b-2" data-name="b"><path class="cls-11" d="M37,31.39c10.27,10,14.64,11.3,12.59,12.11s-8.67-4.37-15.54-11.25S23,19.24,25,18.43,26.09,20.71,37,31.39Z"/><path class="cls-12" d="M45.65,38.68l-3.59.94c3.38,3.21,7.19,4.53,8.25,4S48.4,41.7,45.65,38.68Z"/><path class="cls-13" d="M45.65,39.06l-3,.75c3.3,3.08,6.56,4,7.4,3.59S48.33,42,45.65,39.06Z"/><path class="cls-14" d="M34.6,31c0,.05,0,.26.06.35a2.51,2.51,0,0,0,0,.3c0,.08,0,.15.14.18A.38.38,0,0,0,35,32a1,1,0,0,0,.26.14.54.54,0,0,0,.31,0l.24-.16c0-.08,0-.18,0-.26a1.34,1.34,0,0,0,0,.3.55.55,0,0,0,.1.26"/><path class="cls-14" d="M35.58,32.51l0,0c-.06.06,0,0,.11,0a1.13,1.13,0,0,1,.34-.1h.37a1.11,1.11,0,0,1,.34,0c.07.07.19.1.26.16a.42.42,0,0,1,.16.19c.07.06.12.16.19.21s.08.1.13.18a.4.4,0,0,0-.29.1c-.11.05.09,0,.13-.1a.73.73,0,0,1,.23,0c.12,0,.2,0,.32,0a.27.27,0,0,0,.18,0"/><path class="cls-14" d="M37,33.67a1.26,1.26,0,0,0,.39,0,.45.45,0,0,0,.24-.16c0-.07,0,.11,0,.18s.06.14.13.24l.23.14a.88.88,0,0,0,.24.11,1.08,1.08,0,0,1,.24.12c.09.05.08.12.13.21a.26.26,0,0,1-.11.23.66.66,0,0,1-.15.21c-.07.11-.14.16,0,.19s.14,0,.24,0"/><path class="cls-14" d="M38.65,35.3a2.88,2.88,0,0,0,.4-.12h.36a.82.82,0,0,1,.29.09.7.7,0,0,0,.24.17,1.27,1.27,0,0,1,.21.25.91.91,0,0,1,.05.31,2.33,2.33,0,0,1-.05.28.63.63,0,0,1-.16.27.06.06,0,0,1-.05.05"/><path class="cls-15" d="M39.9,36.91s0,.06.08.11a.22.22,0,0,0,.22.09c.12,0,.11,0,.19-.08a.93.93,0,0,0,.13-.18c0-.05.06-.12.09-.16l.12-.15a.19.19,0,0,1,.09,0c-.11,0-.12.06-.19.11l-.09.17a1.5,1.5,0,0,0,0,.24.51.51,0,0,0,0,.25.4.4,0,0,0,.13.13.93.93,0,0,1,.13.15l.17.11a.36.36,0,0,0,.2.07.45.45,0,0,0,.23-.07l.18-.13a.47.47,0,0,0,.13-.15.25.25,0,0,1,.23,0,.53.53,0,0,1,.13.13l.11.07"/><path class="cls-16" d="M42,37.67l-.19.11a2.5,2.5,0,0,0-.09.25,1.72,1.72,0,0,0,0,.33,1.25,1.25,0,0,0,.11.29,1.91,1.91,0,0,0,.21.14l.3,0a.39.39,0,0,0,.28,0,.73.73,0,0,0,.26-.09l.23-.14c0-.06.12-.12.18-.2a1,1,0,0,0,.14-.21c0,.1-.08.19-.11.28a.43.43,0,0,0-.1.25,1.1,1.1,0,0,0,0,.32,1.17,1.17,0,0,0,0,.27v.07"/><path class="cls-17" d="M45.39,39.73v0c0-.09,0,0,0,.14A.41.41,0,0,1,45,40c-.12-.09-.12-.15-.34-.2a.82.82,0,0,0-.41.14.56.56,0,0,0-.3.23c0,.11-.07.19.08.23a.77.77,0,0,0,.41.13c.17,0,.29,0,.37.07s.11.18.11.37a2.63,2.63,0,0,1,.08.3.72.72,0,0,0,.33.06c0-.1.09-.29.12-.4a.7.7,0,0,1,.11-.36,1.2,1.2,0,0,1,.26-.24.51.51,0,0,1,.22-.13c-.14.07-.16.14-.18.3a.61.61,0,0,0,.37.1.35.35,0,0,0,.34-.17,1.34,1.34,0,0,0,.11.37,3.27,3.27,0,0,1,.18.33c0,.16-.1.17-.11.37s0,.25-.15.33-.08.06-.18.07a.88.88,0,0,0,.48-.1c.11-.06.2-.14.3-.2a1.41,1.41,0,0,1,.45-.2c.17,0,.29,0,.37.07a.5.5,0,0,1,.22.33.45.45,0,0,1,0,.4.27.27,0,0,0,0,.33c.08.11.21.12.41.17a1.63,1.63,0,0,0,.37-.07"/><path class="cls-18" d="M25.3,22.33c-4.56-7.87-7.58-14.56-6.75-14.94s5.2,5.69,9.76,13.55Z"/><path class="cls-19" d="M25.6,22.19c-4.39-7.59-7.42-14-6.76-14.3S23.61,13.5,28,21.08"/><path class="cls-20" d="M26.36,18.23c.53.89,1.1,1.9,1.65,2.85L25.6,22.19c-.55-1-1.15-2-1.65-2.85Z"/><path class="cls-20" d="M26.15,18.54c.54.88.91,1.56,1.46,2.51l-1.81.83c-.55-.95-.95-1.61-1.45-2.51Z"/><polygon class="cls-21" points="24.84 19.57 26.05 19.01 27.11 20.85 25.91 21.41 24.84 19.57"/><path class="cls-20" d="M24.84,19.57l2.27,1.28"/><path class="cls-20" d="M25.91,21.41l.14-2.4"/><path class="cls-20" d="M19.41,10.18l1.2-.55"/><ellipse class="cls-22" cx="19.48" cy="9.02" rx="0.31" ry="0.35" transform="translate(6.25 25.92) rotate(-76.79)"/></g><path class="cls-23" d="M28.86,18.12c0,6.61,0,9.09-.45,9.43s-13.3,0-13.3,1.89,10.57,3.77,13.75,3.77q6.35,0,6.34-5.66V18.12Z"/><path class="cls-24" d="M28.86,20V21a21.06,21.06,0,0,0,6.34,0V20A21.73,21.73,0,0,1,28.86,20Z"/><path class="cls-24" d="M28.86,18.12v.95a21.73,21.73,0,0,0,6.34,0v-.95A21.06,21.06,0,0,1,28.86,18.12Z"/><path class="cls-24" d="M28.86,19.07V20a21.73,21.73,0,0,0,6.34,0v-.94A21.73,21.73,0,0,1,28.86,19.07Z"/><path class="cls-24" d="M28.86,21v.95a21.73,21.73,0,0,0,6.34,0V21A21.06,21.06,0,0,1,28.86,21Z"/><ellipse class="cls-25" cx="29.14" cy="19.6" rx="0.29" ry="0.2"/><ellipse class="cls-25" cx="30.3" cy="19.71" rx="0.29" ry="0.2"/><ellipse class="cls-26" cx="31.45" cy="19.81" rx="0.29" ry="0.2"/><ellipse class="cls-26" cx="32.61" cy="19.81" rx="0.29" ry="0.2"/><ellipse class="cls-25" cx="33.76" cy="19.71" rx="0.29" ry="0.2"/><ellipse class="cls-25" cx="34.91" cy="19.6" rx="0.29" ry="0.2"/><path class="cls-10" d="M28.86,22.84l6.34,5.09"/><path class="cls-10" d="M29.49,22.84l5.71,4.52"/><path class="cls-10" d="M30.34,23,35.2,26.8"/><path class="cls-10" d="M31,23l4.23,3.2"/><path class="cls-10" d="M31.61,23l3.59,2.64"/><path class="cls-10" d="M32.24,23l3,2.07"/><path class="cls-10" d="M32.87,23l2.33,1.51"/><path class="cls-10" d="M33.51,23l1.69,1.13"/><path class="cls-10" d="M34.14,23l1.06.75"/><path class="cls-10" d="M34.78,23l.42.37"/><path class="cls-10" d="M28.86,23.4l6.34,5.1"/><path class="cls-10" d="M35.2,22.84l-7,5.66"/><path class="cls-10" d="M34.57,22.84l-6.14,4.9"/><path class="cls-10" d="M33.72,23,28.86,26.8"/><path class="cls-10" d="M33.09,23l-4.23,3.2"/><path class="cls-10" d="M32.45,23l-3.59,2.64"/><path class="cls-10" d="M31.82,23l-3,2.07"/><path class="cls-10" d="M31.18,23l-2.32,1.51"/><path class="cls-10" d="M30.55,23l-1.69,1.13"/><path class="cls-10" d="M29.91,23l-1.05.75"/><path class="cls-10" d="M29.28,23l-.42.37"/><path class="cls-10" d="M35.2,23.4l-7,5.66"/><path class="cls-10" d="M35.2,24l-7,5.66"/><path class="cls-10" d="M35.2,24.54l-7,5.66"/><path class="cls-10" d="M35.2,25.1l-7,5.66"/><path class="cls-10" d="M35.2,25.67l-7,5.66"/><path class="cls-10" d="M35.2,26.23l-7,5.66"/><path class="cls-10" d="M35.2,26.8l-7,5.66"/><path class="cls-10" d="M35.2,27.37l-7,5.65"/><path class="cls-10" d="M35.2,27.93l-6.56,5.28"/><path class="cls-10" d="M35.2,28.5l-5.92,4.71"/><path class="cls-10" d="M35,29.25,30.34,33"/><path class="cls-10" d="M34.78,30,31,33"/><path class="cls-10" d="M34.36,31l-1.91,1.51"/><path class="cls-10" d="M28.86,24,35,28.87"/><path class="cls-10" d="M28.86,24.54,35,29.44"/><path class="cls-10" d="M28.86,25.1l5.92,4.72"/><path class="cls-10" d="M28.86,25.67l5.92,4.71"/><path class="cls-10" d="M28.86,26.23l5.71,4.53"/><path class="cls-10" d="M28.64,26.61l5.72,4.53"/><path class="cls-10" d="M28.64,27.18l5.29,4.15"/><path class="cls-10" d="M28.43,27.55l5.29,4.15"/><path class="cls-10" d="M28.22,27.93l5.08,4"/><path class="cls-10" d="M28.22,28.5l4.87,3.77"/><path class="cls-10" d="M28.22,29.06l4.23,3.4"/><path class="cls-24" d="M28.86,21.9v.94a21.73,21.73,0,0,0,6.34,0V21.9A21.73,21.73,0,0,1,28.86,21.9Z"/><path class="cls-10" d="M28.22,29.63l3.81,3"/><path class="cls-10" d="M28.22,30.2l3.39,2.63"/><path class="cls-10" d="M28.22,30.76l3,2.26"/><path class="cls-10" d="M28.22,31.33,30.34,33"/><path class="cls-10" d="M28.22,31.89l1.69,1.32"/><path class="cls-10" d="M28.22,32.46l1.06.75"/><ellipse class="cls-25" cx="29.14" cy="22.43" rx="0.29" ry="0.2"/><ellipse class="cls-25" cx="30.3" cy="22.53" rx="0.29" ry="0.2"/><ellipse class="cls-26" cx="31.45" cy="22.64" rx="0.29" ry="0.2"/><ellipse class="cls-26" cx="32.61" cy="22.64" rx="0.29" ry="0.2"/><ellipse class="cls-25" cx="33.76" cy="22.53" rx="0.29" ry="0.2"/><ellipse class="cls-25" cx="34.91" cy="22.43" rx="0.29" ry="0.2"/><path class="cls-10" d="M19.76,31.7l7.61-4"/><path class="cls-10" d="M19.34,31.51l7.19-3.77"/><path class="cls-10" d="M19.13,31.14l6.55-3.4"/><path class="cls-10" d="M18.91,30.76l5.72-3"/><path class="cls-10" d="M18.49,30.38l5.29-2.64"/><path class="cls-10" d="M18.7,29.82l3.6-1.89"/><path class="cls-10" d="M18.49,29.44l2.75-1.51"/><path class="cls-10" d="M18.49,28.87l1.9-.94"/><path class="cls-10" d="M20.39,31.89l7.2-3.77"/><path class="cls-10" d="M21,32.08,27.8,28.5"/><path class="cls-10" d="M21.66,32.27,28,28.87"/><path class="cls-10" d="M22.3,32.46l5.29-2.83"/><path class="cls-10" d="M23.14,32.46,27.8,30"/><path class="cls-10" d="M23.78,32.65l4-2.08"/><path class="cls-10" d="M24.41,32.83l3.18-1.69"/><path class="cls-10" d="M25.26,32.83l2.54-1.32"/><path class="cls-10" d="M26.11,33l1.69-.94"/><path class="cls-10" d="M27,33,28,32.46"/><path class="cls-24" d="M28.43,27.55H27.37a15.39,15.39,0,0,0,0,5.66h1.06A15.39,15.39,0,0,1,28.43,27.55Z"/><path class="cls-10" d="M16,30.2l2.54-1.89"/><path class="cls-10" d="M16,28.87l2.54,2.27"/><path class="cls-27" d="M19.76,27.93l-1.27.19a7,7,0,0,0,0,3.39l1.27.38A9.44,9.44,0,0,1,19.76,27.93Z"/><path class="cls-28" d="M35.19,18.5v-.95c-.95,0-1.58-.56-1.58-1.13H30.44c0,.56-.63,1.13-1.58,1.13v.94Z"/><rect class="cls-29" x="30.67" y="15.3" width="2.72" height="1.13"/><rect class="cls-29" x="30.89" y="14.16" width="2.26" height="1.13"/><rect class="cls-29" x="30.89" y="13.03" width="2.26" height="1.13"/><rect class="cls-29" x="31.12" y="11.52" width="1.81" height="1.51"/><rect class="cls-30" x="31.04" y="10.2" width="1.97" height="1.32"/><ellipse class="cls-9" cx="32.13" cy="8.98" rx="2.62" ry="1.79"/><path class="cls-31" d="M33.45,8.88a3.14,3.14,0,0,0,.65,1.32,3.66,3.66,0,0,1-2,.57,2.75,2.75,0,0,1-2-.57,3.14,3.14,0,0,0,.65-1.32c0-.49-.65-1.13-.65-1.13a3.73,3.73,0,0,1,3.93,0S33.45,8.39,33.45,8.88Z"/><path class="cls-31" d="M33,8.88a4.4,4.4,0,0,0,.65,1.51,2.22,2.22,0,0,1-1.53.38c-.72,0-1.18.05-1.53-.38a4.36,4.36,0,0,0,.66-1.51,3.19,3.19,0,0,0-.66-1.32,2.3,2.3,0,0,1,1.53-.37,2.27,2.27,0,0,1,1.53.37A3.21,3.21,0,0,0,33,8.88Z"/><ellipse class="cls-9" cx="29.51" cy="9.07" rx="0.66" ry="0.57"/><ellipse class="cls-9" cx="34.76" cy="9.07" rx="0.66" ry="0.57"/><ellipse class="cls-9" cx="32.13" cy="9.07" rx="0.66" ry="0.57"/><ellipse class="cls-9" cx="32.13" cy="7.19" rx="0.66" ry="0.57"/><ellipse class="cls-9" cx="30.21" cy="17.94" rx="0.68" ry="0.57"/><ellipse class="cls-9" cx="33.84" cy="17.94" rx="0.68" ry="0.57"/><path class="cls-32" d="M30.44,16.43h3.17L32,18.12Z"/><ellipse class="cls-9" cx="32.02" cy="17.75" rx="0.91" ry="0.75"/><path class="cls-33" d="M28.8,23.41h4.34a.24.24,0,0,1,.26.2v.73a.24.24,0,0,1-.26.2H28.8a.24.24,0,0,1-.26-.2v-.73A.24.24,0,0,1,28.8,23.41Z"/><path class="cls-12" d="M34.88,22.46a1,1,0,0,0-1.05,1v.86a1.06,1.06,0,0,0,2.11,0v-.86A1,1,0,0,0,34.88,22.46Zm0,.38a.72.72,0,0,0-.63.79v.5a.65.65,0,1,0,1.27,0v-.5A.72.72,0,0,0,34.88,22.84Z"/><path class="cls-12" d="M29.38,22.65a.72.72,0,0,0-.63.79v.88a.65.65,0,1,0,1.27,0v-.88A.72.72,0,0,0,29.38,22.65Zm0-.37a1,1,0,0,0-1.05,1V24.5a1.06,1.06,0,0,0,2.11,0V23.26A1,1,0,0,0,29.38,22.28Z"/><path class="cls-12" d="M27.69,23a.72.72,0,0,0-.63.79V24a.65.65,0,1,0,1.27,0v-.2A.73.73,0,0,0,27.69,23Zm0-.38a1,1,0,0,0-1.06,1v.56a1.06,1.06,0,0,0,2.12,0v-.56A1,1,0,0,0,27.69,22.65Z"/><path class="cls-34" d="M25.15,22.51a1,1,0,0,0-1.14.88v1a1.18,1.18,0,0,0,2.29,0v-1A1,1,0,0,0,25.15,22.51Zm0-.42c-1,0-1.9.49-1.9,1.1v1.38c0,.61.85,1.1,1.9,1.1s1.91-.49,1.91-1.1V23.19C27.06,22.58,26.21,22.09,25.15,22.09Z"/><path class="cls-34" d="M38.9,22.7a1,1,0,0,0-1.14.88v1a1.18,1.18,0,0,0,2.28,0v-1A1,1,0,0,0,38.9,22.7Zm0-.42c-1,0-1.9.49-1.9,1.1v1.38c0,.61.85,1.1,1.9,1.1s1.91-.49,1.91-1.1V23.38C40.81,22.77,40,22.28,38.9,22.28Z"/><path class="cls-33" d="M35.44,23.41h2.27c.07,0,.13.09.13.2v.73c0,.11-.06.2-.13.2H35.44c-.07,0-.13-.09-.13-.2v-.73C35.31,23.5,35.37,23.41,35.44,23.41Z"/><path class="cls-33" d="M33.06,23.22h1.32s.08.12.08.27v1c0,.15,0,.27-.08.27H33.06s-.08-.12-.08-.27v-1C33,23.34,33,23.22,33.06,23.22Z"/><path class="cls-33" d="M26.08,23.22H27.4c.05,0,.08.12.08.27v1c0,.15,0,.27-.08.27H26.08s-.08-.12-.08-.27v-1C26,23.34,26,23.22,26.08,23.22Z"/><path class="cls-33" d="M21.51,23h2.64c.09,0,.16.15.16.33v1.22c0,.19-.07.34-.16.34H21.51c-.09,0-.16-.15-.16-.34V23.36C21.35,23.18,21.42,23,21.51,23Z"/><path class="cls-33" d="M39.9,23.22h2.45c.08,0,.15.15.15.33v1.22c0,.19-.07.34-.15.34H39.9c-.08,0-.15-.15-.15-.34V23.55C39.75,23.37,39.82,23.22,39.9,23.22Z"/></g></svg>