<svg id="Layer_1" data-name="Layer 1" xmlns="http://www.w3.org/2000/svg" xmlns:xlink="http://www.w3.org/1999/xlink" viewBox="0 0 128 128"><defs><style>.cls-1{fill:none;}.cls-2{clip-path:url(#clip-path);}.cls-3{fill:#fff;}.cls-4{fill:#005293;}.cls-5{fill:#d21034;}</style><clipPath id="clip-path"><circle class="cls-1" cx="64.29" cy="64" r="64"/></clipPath></defs><title>Flag_circle_Panama</title><g class="cls-2"><path class="cls-3" d="M-45.71,0H173.71V128H-45.71Z"/><polygon class="cls-4" points="45.1 42.89 54.5 36.06 42.88 36.06 39.29 25 35.69 36.06 24.07 36.06 33.47 42.89 29.88 53.94 39.29 47.11 48.69 53.94 45.1 42.89"/><path class="cls-4" d="M-45.71,64h110v64h-110Z"/><path class="cls-5" d="M64.29,0H173.71V64H64.29Z"/><polygon class="cls-5" points="94.81 91.89 104.22 85.06 92.59 85.06 89 74 85.41 85.06 73.78 85.06 83.19 91.89 79.59 102.94 89 96.11 98.41 102.94 94.81 91.89"/></g></svg>