<svg id="Layer_1" data-name="Layer 1" xmlns="http://www.w3.org/2000/svg" xmlns:xlink="http://www.w3.org/1999/xlink" viewBox="0 0 128 128"><defs><style>.cls-1{fill:none;}.cls-2{clip-path:url(#clip-path);}.cls-3{clip-path:url(#clip-path-2);}.cls-4{fill:#bc0030;}.cls-5{fill:#fef200;}.cls-6{fill:#fff;}</style><clipPath id="clip-path"><circle class="cls-1" cx="64" cy="64" r="64"/></clipPath><clipPath id="clip-path-2"><rect id="_Clipping_Path_" data-name="&lt;Clipping Path&gt;" class="cls-1" x="-62.71" width="219.42" height="128"/></clipPath></defs><title>Flag_circle_Papua New Guinea</title><g class="cls-2"><g id="PAPUA_NEW_GUINEA" data-name="PAPUA NEW GUINEA"><g id="_Group_" data-name="&lt;Group&gt;"><g id="_Clip_Group_" data-name="&lt;Clip Group&gt;"><g class="cls-3"><rect id="_Path_" data-name="&lt;Path&gt;" x="-62.71" width="219.42" height="128"/><polygon id="_Path_2" data-name="&lt;Path&gt;" class="cls-4" points="-62.71 0 156.71 128 156.71 0 -62.71 0"/><g id="_Clip_Group_2" data-name="&lt;Clip Group&gt;"><g class="cls-3"><path id="_Path_3" data-name="&lt;Path&gt;" class="cls-5" d="M79.58,37.2c-1.24,1.62-4.23-1.64-7.81-1.72s-6.11,3.43-7.15,4.62-4.39,7.45-4.31,8.11,2.08-1.86,2.82-2.3c.08.88-.81,1.93-.6,2.23s2.6-1.79,3.43-1.86c.23.6-.45,1.19-.22,2.08.29.3,1.63-1.48,2.53-1.85.15.66-.83,1.93-.3,2.74.37.08,2.61-2.52,3.34-2.83s-.35,2.46,0,2.68c.68-.44,2.77-2.82,3.44-3.12S74.68,49,75,49a22.57,22.57,0,0,0,3.13-3.86c.22-.46-.22,4.31,2.09,6.84s5.79,5.43,6.18,5.43c.44-.81-.16-2.53.2-2.45,1.06,1.12,3,2.75,3.45,2.75S89.71,56,90.31,56a25.12,25.12,0,0,0,11.31,7.51c-.45-1.26-1.42-2.38-1.49-3a18.53,18.53,0,0,0,2.31.75c.31-.07-3.27-4.47-3-5.07.81-.06,1.19.46,1.48.09-.36-.6-3.5-4.1-3.5-4.92s1,.14,1.27,0-1.19-3.28-.88-3.65,3.57,2,4.38,2,.23-2.92.61-3.06,3.12,1.56,3.72,1.56.51-1.26.74-1.11,6.69,6.62,4.46,14.22c-2.23,5.43-6.69,8.34-13.25,6,.37.58,3.86,3.49,7.67,2.45s8.42-4,7.89-11.46-3-8.49-3.35-9.61.61.3,1.41.59-.14-1.56-.37-2.37,2.46,1.71,3.13,1.93-1.57-6.11-2.24-6.55.67.15,1.13.29-4.1-6.92-5.08-6.92.83-.37,1.36-.37-5.22-4.61-6.19-4.61,2.09-1.2,2.38-1.27c.54.07-6.62-3.8-13,.07-.36-.29,3-2.63,3.13-3.65,0-.26-1.12-.81-1.19-1.11s1.79-1.19,1.86-1.86c-.45-.6-1.26-.36-1.72-.53-.1-.55,1.58-1.93,1.42-2.53-.12-.33-1.34-.44-1.63-.21s.77-1.56.6-2.09c-.15-.23-.75-.08-1.35.07-.38-.07,1.94-3.27,1.5-3.72s-6.71,3.28-9,7.44-.52,7.53-.82,8.94S85.24,33,84.29,33s-3.2-1.5-4-2.24-.91-1.26-2-1.55-3.42.58-4.31.66-4.4-.66-4.62-.45,3.42,1.57,4.24,2,.9,1,1.49,1.41,6.19,2,4.39,4.33"/><path id="_Path_4" data-name="&lt;Path&gt;" class="cls-5" d="M101.4,47.69c1.78,1.79,13.84,9.83,13.84,19.65s-8.77,9.54-11.31,9.24c2.82,2.38,13.56,1.93,13.56-9.24,0-9.82-13.85-19.65-15.64-20.55s-2.24-.88-.45.9"/><polygon id="_Path_5" data-name="&lt;Path&gt;" class="cls-6" points="-6.22 39.67 -4.35 46.08 2.1 46.08 -3 49.99 -1.13 56.24 -6.22 52.31 -11.31 56.05 -9.44 49.99 -14.54 46.08 -8.25 46.08 -6.22 39.67"/><polygon id="_Path_6" data-name="&lt;Path&gt;" class="cls-6" points="13.24 62.9 15.12 69.31 21.56 69.31 16.48 73.21 18.33 79.45 13.24 75.54 8.16 79.28 10.01 73.21 4.93 69.31 11.21 69.31 13.24 62.9"/><polygon id="_Path_7" data-name="&lt;Path&gt;" class="cls-6" points="-6.22 98.45 -4.35 104.86 2.1 104.86 -3 108.78 -1.13 115.01 -6.22 111.09 -11.31 114.82 -9.44 108.78 -14.54 104.86 -8.25 104.86 -6.22 98.45"/><polygon id="_Path_8" data-name="&lt;Path&gt;" class="cls-6" points="2.51 84.84 3.44 88.04 6.67 88.04 4.13 90.01 5.07 93.13 2.51 91.17 -0.04 93.04 0.9 90.01 -1.65 88.04 1.5 88.04 2.51 84.84"/></g></g></g></g></g></g></g></svg>