<svg id="Layer_1" data-name="Layer 1" xmlns="http://www.w3.org/2000/svg" xmlns:xlink="http://www.w3.org/1999/xlink" viewBox="0 0 128 128"><defs><style>.cls-1{fill:none;}.cls-2{clip-path:url(#clip-path);}.cls-3{clip-path:url(#clip-path-2);}.cls-4{fill:#2534a4;}.cls-5{fill:#bc0030;}.cls-6{fill:#fff;}.cls-7{fill:#fef200;}</style><clipPath id="clip-path"><circle class="cls-1" cx="64" cy="64" r="64"/></clipPath><clipPath id="clip-path-2"><rect id="_Clipping_Path_" data-name="&lt;Clipping Path&gt;" class="cls-1" x="-33" width="219.44" height="128"/></clipPath></defs><title>Flag_circle_Philippines</title><g class="cls-2"><g id="PHILIPPINES"><g id="_Group_" data-name="&lt;Group&gt;"><g id="_Clip_Group_" data-name="&lt;Clip Group&gt;"><g class="cls-3"><rect id="_Path_" data-name="&lt;Path&gt;" class="cls-4" x="-33" width="219.44" height="64"/><rect id="_Path_2" data-name="&lt;Path&gt;" class="cls-5" x="-33" y="64" width="219.44" height="64"/><polygon id="_Path_3" data-name="&lt;Path&gt;" class="cls-6" points="-33 0 -33 128 78.41 64 -33 0"/><path id="_Compound_Path_" data-name="&lt;Compound Path&gt;" class="cls-7" d="M7.38,51l2.18-8L8.07,41.07,6.29,50.82Zm-4.6,0L1.43,40,4,37l2.56,2.45L5.35,50.82Zm-2,.13-2.16-8L.07,41.17,1.82,51Z"/><path id="_Compound_Path_2" data-name="&lt;Compound Path&gt;" class="cls-7" d="M15.74,57.41l7.27-4L23.34,51l-8.25,5.49Zm-3.19-3.34,7-8.59,3.92-.2,0,3.55-9,7ZM11,52.71l4.25-7.1,2.4-.25-5.79,8Z"/><path id="_Compound_Path_3" data-name="&lt;Compound Path&gt;" class="cls-7" d="M17,67.42l8,2.2,1.87-1.51-9.74-1.79Zm0-4.6,11-1.35,3,2.58-2.45,2.58L17.17,65.38Zm-.14-2,8-2.17,1.89,1.48L17,61.88Z"/><path id="_Compound_Path_4" data-name="&lt;Compound Path&gt;" class="cls-7" d="M10.94,75.57l4.21,7.12,2.39.29-5.75-8.1Zm3.24-3.3L23,79l.32,3.91-3.54.15-7.29-8.86Zm1.32-1.55,7.21,4,.33,2.4-8.21-5.54Z"/><path id="_Compound_Path_5" data-name="&lt;Compound Path&gt;" class="cls-7" d="M.66,77.08l-2.11,8L.06,87,1.75,77.2Zm4.61,0L6.69,88l-2.54,3L1.54,88.59,2.69,77.2Zm2-.13,2.2,8L8,86.81,6.23,77.05Z"/><g id="_Clip_Group_2" data-name="&lt;Clip Group&gt;"><g class="cls-3"><path id="_Path_4" data-name="&lt;Path&gt;" class="cls-7" d="M4,50.52A13.49,13.49,0,0,1,17.48,64,13.54,13.54,0,0,1,4,77.54,13.53,13.53,0,0,1-9.52,64,13.48,13.48,0,0,1,4,50.52"/><polygon id="_Path_5" data-name="&lt;Path&gt;" class="cls-7" points="50.44 68.65 53.83 64.03 50.42 59.4 55.86 61.19 59.21 56.54 59.18 62.26 64.65 64 59.18 65.74 59.22 71.48 55.89 66.83 50.44 68.65"/></g></g></g></g></g></g></g></svg>