<svg id="Layer_1" data-name="Layer 1" xmlns="http://www.w3.org/2000/svg" xmlns:xlink="http://www.w3.org/1999/xlink" viewBox="0 0 128 128"><defs><style>.cls-1{fill:none;}.cls-2{clip-path:url(#clip-path);}.cls-3{clip-path:url(#clip-path-2);}.cls-4{fill:#fff;}.cls-5{fill:#2a680b;}</style><clipPath id="clip-path"><circle class="cls-1" cx="64" cy="64" r="64"/></clipPath><clipPath id="clip-path-2"><rect id="_Clipping_Path_" data-name="&lt;Clipping Path&gt;" class="cls-1" x="-24.69" width="219.37" height="128"/></clipPath></defs><title>Flag_circle_Pakistan</title><g class="cls-2"><g id="PAKISTAN"><g id="_Group_" data-name="&lt;Group&gt;"><g id="_Clip_Group_" data-name="&lt;Clip Group&gt;"><g class="cls-3"><rect id="_Path_" data-name="&lt;Path&gt;" class="cls-4" x="-24.69" width="219.37" height="128"/><rect id="_Path_2" data-name="&lt;Path&gt;" class="cls-5" x="30.13" width="164.55" height="128"/><g id="_Clip_Group_2" data-name="&lt;Clip Group&gt;"><g class="cls-3"><path id="_Path_3" data-name="&lt;Path&gt;" class="cls-4" d="M77.56,32.16A31.33,31.33,0,1,1,46.29,63.48,31.29,31.29,0,0,1,77.56,32.16"/><path id="_Path_4" data-name="&lt;Path&gt;" class="cls-5" d="M66.52,34.89a28.7,28.7,0,1,1-2.4,40.55,28.61,28.61,0,0,1,2.4-40.55"/><polygon class="cls-4" points="97.1 49.22 100.92 42.69 94 45.71 88.97 40.04 88.97 40.04 88.97 40.04 89.72 47.6 82.78 50.65 90.16 52.26 90.92 59.81 94.74 53.26 102.14 54.9 97.1 49.22"/></g></g></g></g></g></g></g></svg>