<svg id="Layer_1" data-name="Layer 1" xmlns="http://www.w3.org/2000/svg" xmlns:xlink="http://www.w3.org/1999/xlink" viewBox="0 0 128 128"><defs><style>.cls-1{fill:none;}.cls-2{clip-path:url(#clip-path);}.cls-3{clip-path:url(#clip-path-2);}.cls-4{fill:#ea0020;}.cls-5{fill:#2a680b;}.cls-6{fill:#fcff2c;}.cls-7{fill:#fff;}.cls-8{fill:#1a0095;}</style><clipPath id="clip-path"><circle class="cls-1" cx="64" cy="64" r="64"/></clipPath><clipPath id="clip-path-2"><rect id="_Clipping_Path_" data-name="&lt;Clipping Path&gt;" class="cls-1" x="-30" width="219.44" height="128"/></clipPath></defs><title>Flag_circle_Portugal</title><g class="cls-2"><g id="PORTUGAL"><g id="_Group_" data-name="&lt;Group&gt;"><g id="_Clip_Group_" data-name="&lt;Clip Group&gt;"><g class="cls-3"><rect id="_Path_" data-name="&lt;Path&gt;" class="cls-4" x="46.75" width="142.68" height="128"/><rect id="_Path_2" data-name="&lt;Path&gt;" class="cls-5" x="-30" width="76.75" height="128"/><g id="_Clip_Group_2" data-name="&lt;Clip Group&gt;"><g class="cls-3"><path id="_Path_3" data-name="&lt;Path&gt;" class="cls-6" d="M71.76,83.85c-9.66-.28-53.95-28-54.25-32.36l2.43-4.07c4.41,6.39,49.68,33.29,54.14,32.34l-2.32,4.09Z"/><path id="_Compound_Path_" data-name="&lt;Compound Path&gt;" class="cls-6" d="M19.43,46.85C18.56,49.19,31,56.88,45.94,66S73.78,80.7,74.75,79.9a7.19,7.19,0,0,0,.42-.82c-.17.29-.62.36-1.29.16-4-1.16-14.57-6-27.62-13.92S21.86,50.11,20.1,47a2,2,0,0,1-.2-.91h0l-.37.66-.07.1ZM72,84c-.16.29-.46.32-1,.25-3.62-.41-14.58-5.75-27.56-13.51-15.1-9-27.56-17.29-26.2-19.45l.35-.65.09,0C16.4,54.3,42.23,69.09,43.74,70c15,9.27,27.54,14.68,28.66,13.27L72,84Z"/><g id="_Group_2" data-name="&lt;Group&gt;"><path id="_Compound_Path_2" data-name="&lt;Compound Path&gt;" d="M71.39,84.35l-.45,0c-3.68-.41-14.77-5.85-27.6-13.53C26.22,60.54,17.61,54.36,17,51.91a.92.92,0,0,1,.08-.68l.36-.64v.2l-.19.54a.67.67,0,0,0-.07.55c.58,2.39,9.16,8.54,26.24,18.77C56.24,78.32,67.3,83.74,71,84.14c.53,0,.81,0,1-.2l.23-.42a1.19,1.19,0,0,1-.48.08c-3,0-14.34-5-28-13.51-.16-.08-.51-.29-1-.6C26,59.66,17.52,53.42,17.49,50.94c.35,1.63,4.25,6,25.27,18.39.54.32.9.52,1,.62,13.6,8.43,24.86,13.46,27.87,13.46a1,1,0,0,0,.66-.17h0a.23.23,0,0,1,0,.2l-.19.59a.7.7,0,0,1-.68.31Zm3-4.29c-2.23,0-14.46-5.45-28.51-14-16.1-9.79-27.41-16.9-26.55-19.23l.43-.77a.07.07,0,0,1,0,.05l-.25.7C18.65,49.25,33.17,58.1,46,65.9c14,8.54,26.21,14,28.43,14a.47.47,0,0,0,.28-.06c.08-.15.16-.31.25-.45a1.68,1.68,0,0,1-1.08,0C69.42,78.05,58.5,72.86,46.21,65.4,34.31,58.19,21.89,50.35,20,47.05a2.18,2.18,0,0,1-.2-.95c.18.32.26.67.37.86,1.87,3.28,15,11.5,26.13,18.28C58.59,72.7,69.48,77.89,73.9,79.15c.6.18,1,.13,1.2-.12.19.06.19.07-.18.73-.19.27-.32.3-.51.3Z"/></g><path id="_Path_4" data-name="&lt;Path&gt;" class="cls-6" d="M46.79,54.16c9.68-.08,21.61-1.32,28.47-4.06l-1.48-2.41c-4,2.25-16.05,3.72-27.06,4-13-.11-22.21-1.33-26.83-4.44l-1.4,2.57c8.48,3.59,17.15,4.35,28.3,4.39Z"/><path id="_Compound_Path_3" data-name="&lt;Compound Path&gt;" class="cls-6" d="M75.67,50.15c-.24.38-4.72,1.93-11.31,3.07a116.33,116.33,0,0,1-17.6,1.27,124,124,0,0,1-16.84-1.07,49.37,49.37,0,0,1-11.83-3.13c.13-.24.21-.43.34-.65A52,52,0,0,0,30,52.71a125.19,125.19,0,0,0,16.72,1.07,117.72,117.72,0,0,0,17.45-1.3c6.77-1.1,10.48-2.49,11-3.16l.48.83Zm-1.3-2.43c-.74.58-4.38,1.87-10.82,2.91A116,116,0,0,1,46.84,51.8a108.87,108.87,0,0,1-16.14-1,43.67,43.67,0,0,1-11.27-2.84c.14-.21.26-.41.4-.64,1,.5,4.33,1.86,11,2.8a117.4,117.4,0,0,0,16.06,1,115.43,115.43,0,0,0,16.59-1.18c6.46-.9,9.94-2.54,10.47-3l.47.79Z"/><g id="_Group_3" data-name="&lt;Group&gt;"><path id="_Compound_Path_4" data-name="&lt;Compound Path&gt;" d="M46.55,54.58A124,124,0,0,1,29.9,53.51a49.67,49.67,0,0,1-11.72-3.09l0-.41.21-.42a56.67,56.67,0,0,0,11.69,3,122.54,122.54,0,0,0,16.61,1.08,119.92,119.92,0,0,0,17.54-1.3c6.69-1.09,10.42-2.47,10.93-3.12l.63.84c-.29.53-4.93,2.08-11.37,3.19a115.78,115.78,0,0,1-17.62,1.28ZM18.4,49.71l-.23.62a59.68,59.68,0,0,0,11.77,3,124.94,124.94,0,0,0,16.61,1.06v.1l.21-.1a115.18,115.18,0,0,0,17.58-1.27c6.78-1.17,11.06-2.71,11.25-3l-.47-.73c-.35.64-3.78,2-10.89,3.2a119,119,0,0,1-17.48,1.3A123.31,123.31,0,0,1,30,52.79,51.23,51.23,0,0,1,18.4,49.71Zm28.33,2.17a113.79,113.79,0,0,1-16-1A43.61,43.61,0,0,1,19.94,48.2l-.52-.2.22-.58c0-.06.18-.23.23-.23.57.29,3.78,1.78,10.92,2.79a115.23,115.23,0,0,0,15.94,1A116.65,116.65,0,0,0,63.41,49.8c6.17-.86,9.82-2.45,10.44-2.94l.6.8c-.74.69-4.3,2-10.88,3.06a114.63,114.63,0,0,1-16.73,1.16ZM19.78,47.36l-.25.6L20,48a43.4,43.4,0,0,0,10.71,2.64,113,113,0,0,0,16,1v.09l.11-.09a115.6,115.6,0,0,0,16.7-1.18c6.54-1,10.08-2.32,10.77-2.89L73.82,47c-.34.41-3.7,2.09-10.38,3a115.23,115.23,0,0,1-16.6,1.18,114.76,114.76,0,0,1-16.09-1c-7.15-1-10.4-2.5-11-2.79Z"/></g><path id="_Path_5" data-name="&lt;Path&gt;" class="cls-6" d="M15.05,65.82C21,69,34.21,70.64,46.7,70.75,58.09,70.77,72.91,69,78.46,66l-.16-3.21c-1.73,2.72-17.62,5.32-31.71,5.22S19.39,65.77,15,62.94l0,2.88Z"/><path id="_Compound_Path_5" data-name="&lt;Compound Path&gt;" class="cls-6" d="M78.76,65.36v.76c-.82,1-6.06,2.51-12.61,3.57A130.72,130.72,0,0,1,46.56,71,124.56,124.56,0,0,1,28,69.76c-7.53-1.11-12.34-3-13.31-3.6v-.89c2.92,1.93,10.77,3.34,13.41,3.78a123.17,123.17,0,0,0,18.49,1.27A130.62,130.62,0,0,0,66,69c4.7-.68,11.41-2.45,12.72-3.63Zm0-2.73v.77c-.82,1-6.05,2.51-12.61,3.57a130.52,130.52,0,0,1-19.59,1.35A122.94,122.94,0,0,1,28,67c-7.52-1.11-12.34-3-13.31-3.59l0-.89c2.9,1.93,10.75,3.34,13.39,3.78A121.85,121.85,0,0,0,46.56,67.6,127.78,127.78,0,0,0,66,66.26c4.72-.68,11.42-2.44,12.72-3.63Z"/><g id="_Group_4" data-name="&lt;Group&gt;"><path id="_Compound_Path_6" data-name="&lt;Compound Path&gt;" d="M46.56,71.12A122.12,122.12,0,0,1,28,69.83c-7.2-1-12.17-2.9-13.34-3.6l0-1c3.06,1.86,11.11,3.29,13.51,3.68a123.22,123.22,0,0,0,18.48,1.27A130.36,130.36,0,0,0,66,68.89c4.68-.68,11.36-2.43,12.67-3.6l.16.83c-.88,1.09-6.22,2.61-12.7,3.65a129.37,129.37,0,0,1-19.6,1.35ZM14.62,65.34l.14.82c.69.36,5.35,2.35,13.22,3.5a124.44,124.44,0,0,0,18.58,1.28A130.34,130.34,0,0,0,66.13,69.6c6.32-1,11.73-2.54,12.57-3.53l0-.71c-1.18,1.25-7.91,3-12.61,3.7a128.25,128.25,0,0,1-19.5,1.33,121.85,121.85,0,0,1-18.49-1.26c-3.1-.5-10.6-1.88-13.45-3.79Zm31.94,3.07A122.52,122.52,0,0,1,28,67.11c-7.22-1-12.19-2.92-13.34-3.6l0-1c3,1.86,11.1,3.29,13.5,3.68a123.53,123.53,0,0,0,18.48,1.28A128.49,128.49,0,0,0,66,66.17c4.68-.68,11.36-2.43,12.67-3.6l.16.83C78,64.49,72.64,66,66.17,67.06a130.63,130.63,0,0,1-19.61,1.35ZM14.62,62.62l.14.82c.68.35,5.31,2.34,13.23,3.5a125,125,0,0,0,18.57,1.27,131.28,131.28,0,0,0,19.57-1.33c6.35-1,11.75-2.54,12.57-3.54l0-.71c-1.18,1.27-7.93,3.05-12.61,3.72a128.9,128.9,0,0,1-19.5,1.34,123.56,123.56,0,0,1-18.49-1.27c-3.1-.51-10.6-1.89-13.45-3.8Z"/></g><path id="_Path_6" data-name="&lt;Path&gt;" class="cls-6" d="M46.68,83.31C33,83.23,21.29,79.58,18.81,79l1.8,2.81c4.37,1.85,15.81,4.59,26.2,4.28S66.29,85,72.69,81.86l1.84-2.94c-4.36,2-19.2,4.37-27.85,4.39Z"/><path id="_Compound_Path_7" data-name="&lt;Compound Path&gt;" class="cls-6" d="M73.39,81.2l-.83,1.22a73,73,0,0,1-9.79,2.51A87,87,0,0,1,46.69,86.4c-12.11-.17-22-2.55-26.7-4.56l-.37-.65.06-.1.63.24c8.31,3,17.63,4.16,26.45,4.38a89.32,89.32,0,0,0,15.76-1.47c7-1.39,9.78-2.45,10.64-2.91l.23-.13ZM75,78.55s0,0,0,0c-.2.35-.41.7-.62,1A67.92,67.92,0,0,1,62,82.37a99.11,99.11,0,0,1-15.18,1.29C31.16,83.26,21,80.19,18.6,79.44l-.36-.7A118.88,118.88,0,0,0,46.84,83a108.16,108.16,0,0,0,15.08-1.3,78.83,78.83,0,0,0,12.31-2.73s0,0,0-.07l.8-.3Z"/><g id="_Group_5" data-name="&lt;Group&gt;"><path id="_Compound_Path_8" data-name="&lt;Compound Path&gt;" d="M46.69,86.49h0C34.34,86.32,24.57,83.92,20,81.91l-.43-.69s.13-.22.17-.22h0l.65.26c7.4,2.64,16.29,4.12,26.41,4.35h0A90.12,90.12,0,0,0,62.5,84.15c7.78-1.55,10.09-2.61,10.62-2.91a.5.5,0,0,1,.16,0s0,0,0,0l.09,0h0s.1,0,.09,0l-.83,1.24A73.33,73.33,0,0,1,62.79,85a89,89,0,0,1-16.1,1.47Zm-27-5.32.43.62C25,83.9,35.16,86.15,46.7,86.32a87.71,87.71,0,0,0,16-1.48,72.5,72.5,0,0,0,9.78-2.49c.17-.29.38-.59.59-.9-.7.34-3.17,1.4-10.58,2.88A89.93,89.93,0,0,1,47,85.8h0c-10.4-.25-19.31-1.73-26.74-4.38l-.64-.25Zm27.2,2.58h0a105.88,105.88,0,0,1-28.26-4.23l-.42-.73a126.36,126.36,0,0,0,28.68,4.07,101.75,101.75,0,0,0,13.69-1.11l1.38-.18a80.55,80.55,0,0,0,12.14-2.68l.91-.42,0,.06-.71.41a67.83,67.83,0,0,1-12.3,2.79l-1.36.2A102,102,0,0,1,46.84,83a119.32,119.32,0,0,1-28.62-4.21l.47.57a106.88,106.88,0,0,0,28.15,4.17,91.08,91.08,0,0,0,13.37-1L62,82.29a69.1,69.1,0,0,0,12.37-2.76l.57-1-.48,1.11A65.86,65.86,0,0,1,62,82.46l-1.79.25a90.3,90.3,0,0,1-13.4,1Z"/></g><path id="_Compound_Path_9" data-name="&lt;Compound Path&gt;" class="cls-6" d="M46.69,35.54A28.46,28.46,0,1,1,18.26,64,28.46,28.46,0,0,1,46.69,35.54Zm0-2.82A31.28,31.28,0,1,1,15.46,64,31.33,31.33,0,0,1,46.69,32.72Z"/><path id="_Compound_Path_10" data-name="&lt;Compound Path&gt;" class="cls-6" d="M46.72,32.35A31.69,31.69,0,1,1,15.05,64,31.74,31.74,0,0,1,46.72,32.35Zm0,.7a31,31,0,1,1-31,31,31.1,31.1,0,0,1,31-31Z"/><g id="_Group_6" data-name="&lt;Group&gt;"><path id="_Compound_Path_11" data-name="&lt;Compound Path&gt;" d="M46.72,95.82A31.78,31.78,0,1,1,78.47,64,31.8,31.8,0,0,1,46.72,95.82Zm0-63.38A31.6,31.6,0,1,0,78.29,64a31.62,31.62,0,0,0-31.57-31.6Zm0,62.68A31.09,31.09,0,1,1,77.77,64a31.1,31.1,0,0,1-31,31.08Zm0-62A30.9,30.9,0,1,0,77.58,64a30.92,30.92,0,0,0-30.86-30.9Z"/></g><path id="_Compound_Path_12" data-name="&lt;Compound Path&gt;" class="cls-6" d="M46.75,35a29,29,0,1,1-29,29,29.14,29.14,0,0,1,29-29Zm0,.7A28.33,28.33,0,1,1,18.44,64,28.44,28.44,0,0,1,46.75,35.68Z"/><g id="_Group_7" data-name="&lt;Group&gt;"><path id="_Compound_Path_13" data-name="&lt;Compound Path&gt;" d="M46.75,93.13A29.12,29.12,0,1,1,75.84,64,29.14,29.14,0,0,1,46.75,93.13Zm0-58.06A28.94,28.94,0,1,0,75.65,64a29,29,0,0,0-28.9-28.95Zm0,57.36A28.42,28.42,0,1,1,75.14,64,28.44,28.44,0,0,1,46.75,92.43Zm0-56.66A28.24,28.24,0,1,0,75,64,28.27,28.27,0,0,0,46.75,35.77Z"/></g><rect id="_Path_7" data-name="&lt;Path&gt;" class="cls-6" x="45.43" y="32.2" width="2.77" height="63.75"/><path id="_Compound_Path_14" data-name="&lt;Compound Path&gt;" class="cls-6" d="M47.76,31.85h.68V96.27h-.68V31.85Zm-2.72,0h.71V96.27H45V31.85Z"/><g id="_Group_8" data-name="&lt;Group&gt;"><path id="_Compound_Path_15" data-name="&lt;Compound Path&gt;" d="M48.44,96.36h-.68l-.1-64.51.78-.08.1,64.5s0,0,0,0,0,0-.06,0Zm-.1-64.51-.58.1.09,64.32.49-.09V31.85ZM45.76,96.36H45L45,31.85l.78-.08.1,64.5s0,0,0,0,0,0-.06,0Zm-.1-64.51L45,32l.1,64.32.52-.09V31.85Z"/></g><path id="_Path_8" data-name="&lt;Path&gt;" class="cls-6" d="M14.94,62.69c4-3.66,18.62-6,31.62-6S75,59.45,78.3,62.62l0,2.72c-2.81-2.63-14.76-5.79-31.74-5.83s-29.32,3.21-31.65,5.9V62.69Z"/><g id="_Group_9" data-name="&lt;Group&gt;"><path id="_Path_9" data-name="&lt;Path&gt;" d="M15,65.17l-.19-2.35c0-.11.19-.11.19,0v2.35Z"/></g><g id="_Group_10" data-name="&lt;Group&gt;"><path id="_Path_10" data-name="&lt;Path&gt;" d="M78.49,65.27l-.19-2.36c0-.09.19-.09.19,0v2.36Z"/></g><path id="_Compound_Path_16" data-name="&lt;Compound Path&gt;" class="cls-6" d="M46.73,59.13A111.93,111.93,0,0,1,67.22,61c5.94,1.19,10.11,2.67,11.54,4.35v.83c-1.72-2.08-7.34-3.61-11.68-4.47a107.6,107.6,0,0,0-20.35-1.82A113.66,113.66,0,0,0,26,61.69c-4.51.91-10.53,2.7-11.3,4.45v-.86c.42-1.21,4.9-3,11.19-4.29a113.2,113.2,0,0,1,20.89-1.86Zm0-2.71a110.08,110.08,0,0,1,20.48,1.83c5.94,1.19,10.11,2.68,11.54,4.34v.82c-1.71-2.08-7.34-3.6-11.66-4.46a108,108,0,0,0-20.36-1.82A114.15,114.15,0,0,0,26,59c-4.34.83-10.61,2.69-11.33,4.43v-.85c.43-1.2,5-3.1,11.21-4.29a113.87,113.87,0,0,1,20.88-1.85Z"/><g id="_Group_11" data-name="&lt;Group&gt;"><path id="_Compound_Path_17" data-name="&lt;Compound Path&gt;" d="M14.65,66.23h0s-.07,0-.07-.08v-.86c.44-1.35,5.18-3.17,11.27-4.39A113.19,113.19,0,0,1,46.73,59a110.87,110.87,0,0,1,20.51,1.83c6.2,1.24,10.22,2.76,11.59,4.37l0,.9c-2-2.14-8.23-3.67-11.8-4.38A107.47,107.47,0,0,0,47,59.94a114.61,114.61,0,0,0-21,1.85c-4.93,1-10.54,2.77-11.23,4.38a.1.1,0,0,1-.1.06Zm32.08-6.47A109.69,109.69,0,0,1,67.1,61.57c3.58.72,9.87,2.26,11.73,4.5l-.16-.76c-1.34-1.54-5.31-3-11.47-4.26a110,110,0,0,0-20.31-1.83,114.11,114.11,0,0,0-21,1.86c-6.75,1.35-10.76,3.18-11.11,4.23v.49c1.33-1.8,7.55-3.47,11.18-4.2a114.44,114.44,0,0,1,20.79-1.84ZM14.66,63.51h0a.1.1,0,0,1-.08-.09v-.86c.46-1.36,5.31-3.22,11.27-4.39a114.49,114.49,0,0,1,20.9-1.85,110.21,110.21,0,0,1,20.5,1.83c6.2,1.24,10.22,2.76,11.61,4.38v.88c-2-2.13-8.22-3.66-11.79-4.38A110,110,0,0,0,46.9,57.22,113.9,113.9,0,0,0,26,59.07c-5,1-10.64,2.8-11.25,4.38a.12.12,0,0,1-.1.06ZM46.74,57A109,109,0,0,1,67.1,58.86c3.6.72,9.89,2.26,11.73,4.49l-.16-.76c-1.34-1.53-5.31-3-11.47-4.26A109,109,0,0,0,47,56.5a114.85,114.85,0,0,0-21.09,1.85c-6.49,1.27-10.76,3.16-11.12,4.24v.49C16,61.33,22,59.64,26,58.89A113.74,113.74,0,0,1,46.74,57Z"/></g><path id="_Path_11" data-name="&lt;Path&gt;" class="cls-6" d="M46.59,42.56c11.77-.07,22,1.66,26.75,4.06l1.72,3c-4.09-2.21-15.17-4.5-28.47-4.16-10.81.07-22.39,1.19-28.19,4.28l2.05-3.42c4.77-2.47,16-3.73,26.14-3.73Z"/><g id="_Group_12" data-name="&lt;Group&gt;"><path id="_Path_12" data-name="&lt;Path&gt;" class="cls-1" d="M73.63,47.1,74.8,49Z"/></g><path id="_Compound_Path_18" data-name="&lt;Compound Path&gt;" class="cls-6" d="M46.74,45A106.83,106.83,0,0,1,65.11,46.3c4.81.89,9.4,2.24,10.06,3l.5.9C74.08,49.13,70.11,48,65,47a103,103,0,0,0-18.28-1.26A105.71,105.71,0,0,0,28.19,47c-5.35,1-9.07,2.44-10,3.11l.5-1a32.74,32.74,0,0,1,9.36-2.86A109,109,0,0,1,46.74,45Zm0-2.72a103.08,103.08,0,0,1,17.74,1.24c3.9.75,7.77,1.94,9.16,3l.76,1.17c-1.27-1.4-6-2.73-10.22-3.47A112.23,112.23,0,0,0,46.73,43,106.43,106.43,0,0,0,28.9,44.3c-4.61.88-7.59,1.91-8.85,2.73l.65-1a31.65,31.65,0,0,1,8.1-2.45,107.54,107.54,0,0,1,17.93-1.31Z"/><g id="_Group_13" data-name="&lt;Group&gt;"><path id="_Compound_Path_19" data-name="&lt;Compound Path&gt;" d="M75.67,50.25l0,0c-1.57-1-5.44-2.16-10.63-3.15a100.35,100.35,0,0,0-17.68-1.27H46A102.15,102.15,0,0,0,28.2,47.08c-5.33,1-9,2.41-9.94,3.09l.37-1.07A33.48,33.48,0,0,1,28,46.2c4.73-.86,10.15-1.24,18.7-1.29h.4a105,105,0,0,1,18,1.3c4.89.91,9.43,2.25,10.09,3l.53.91a.13.13,0,0,1,0,.12l-.08,0ZM47.14,45.09h-.4c-8.53.06-13.93.43-18.67,1.28a34.22,34.22,0,0,0-9.32,2.86l-.45.91c.79-.82,4.51-2.24,9.86-3.24A104.78,104.78,0,0,1,46,45.64h1.28A100.06,100.06,0,0,1,65,46.9c4.91.94,8.66,2,10.39,3l-.32-.6c-.63-.68-5.21-2-10-2.91a105.47,105.47,0,0,0-18-1.3ZM74.39,47.8s0,0-.07,0C73,46.32,68,45,64.14,44.32a110.48,110.48,0,0,0-17.41-1.25,107.24,107.24,0,0,0-17.81,1.32c-4.1.78-7.4,1.8-8.82,2.73L20.63,46a31.29,31.29,0,0,1,8.14-2.49,106,106,0,0,1,18-1.31h.52a102.63,102.63,0,0,1,17.23,1.23c4.19.81,7.88,2,9.22,3l.77,1.21a.09.09,0,0,1,0,.12l-.06,0ZM46.73,42.89a108.76,108.76,0,0,1,17.45,1.25c3.53.62,8,1.77,9.79,3.09l-.41-.65c-1.29-.95-5-2.17-9.11-3a102.16,102.16,0,0,0-17.2-1.23h-.52a106.34,106.34,0,0,0-17.92,1.31,31.53,31.53,0,0,0-8.06,2.43l-.63,1C21.44,46,24.76,45,28.88,44.22a103.38,103.38,0,0,1,17.85-1.33Z"/></g><path id="_Path_13" data-name="&lt;Path&gt;" class="cls-6" d="M62.47,77.22A81.67,81.67,0,0,0,46.73,76c-19.64.23-26,4-26.76,5.19L18.5,78.8c5-3.62,15.69-5.65,28.33-5.45a101.5,101.5,0,0,1,17,1.46l-1.35,2.41Z"/><g id="_Group_14" data-name="&lt;Group&gt;"><path id="_Path_14" data-name="&lt;Path&gt;" class="cls-1" d="M18.83,79.14l1,1.66Z"/></g><path id="_Compound_Path_20" data-name="&lt;Compound Path&gt;" class="cls-6" d="M46.61,75.67a96.61,96.61,0,0,1,16,1.28l-.37.66a82.3,82.3,0,0,0-15.61-1.19,75.26,75.26,0,0,0-21,2.44c-2,.56-5.37,1.86-5.7,2.93l-.36-.62c.11-.62,2.12-1.94,5.89-3,7.3-2.09,14.14-2.44,21.1-2.5Zm.24-2.75A97.94,97.94,0,0,1,64,74.42l-.39.69A89.85,89.85,0,0,0,46.9,73.64c-7.28,0-15,.53-22,2.58-2.26.67-6.18,2.09-6.3,3.22l-.37-.67c.09-1,3.46-2.36,6.51-3.25,7.06-2.06,14.79-2.58,22.11-2.6Z"/><g id="_Group_15" data-name="&lt;Group&gt;"><path id="_Compound_Path_21" data-name="&lt;Compound Path&gt;" d="M20,81.87s-.06,0-.07,0l-.38-.63c.11-.76,2.25-2.08,6-3.13,7-2,13.49-2.44,21.12-2.5a96.16,96.16,0,0,1,16,1.28l-.32.79a88.26,88.26,0,0,0-15-1.15H45.8A73.53,73.53,0,0,0,25.69,79c-2.15.6-5.3,1.88-5.62,2.87a.09.09,0,0,1-.08.05h0Zm26.63-6.1c-7.61,0-14.11.49-21.08,2.48-3.81,1.08-5.73,2.39-5.83,2.94l.27.42c.66-1.2,4.28-2.44,5.68-2.84A74.57,74.57,0,0,1,45.8,76.32h1.53a81.72,81.72,0,0,1,14.92,1.21l.28-.63a111.3,111.3,0,0,0-15.92-1.13Zm-28,3.75a.1.1,0,0,1-.08,0l-.37-.65c.09-1.4,5.05-2.95,6.56-3.39,6-1.75,13.07-2.57,22.14-2.6a99.28,99.28,0,0,1,17.21,1.51l-.33.81A95.83,95.83,0,0,0,46.9,73.73c-9,0-16,.82-22,2.56-2.93.87-6.12,2.21-6.24,3.15a.11.11,0,0,1-.07.08ZM46.85,73c-9.05,0-16.07.85-22.09,2.59-3.85,1.12-6.37,2.38-6.44,3.17l.25.44c.63-1.38,5.7-2.91,6.3-3.08,6-1.74,13-2.56,22-2.57A91.6,91.6,0,0,1,63.67,75l.3-.63A109.35,109.35,0,0,0,46.85,73Z"/></g><path id="_Compound_Path_22" data-name="&lt;Compound Path&gt;" d="M41,74.84a.35.35,0,0,1,.1-.23.25.25,0,0,1,.22-.1.3.3,0,0,1,.13,0,.16.16,0,0,1,.08.1.27.27,0,0,1,0,.16.49.49,0,0,1,0,.16.4.4,0,0,1-.1.12.38.38,0,0,1-.16,0,.22.22,0,0,1-.14,0A.28.28,0,0,1,41,75a.36.36,0,0,1,0-.15Zm.08,0a.21.21,0,0,0,0,.16.11.11,0,0,0,.12,0A.21.21,0,0,0,41.4,75a.38.38,0,0,0,.07-.18.16.16,0,0,0,0-.12.1.1,0,0,0-.05-.07.35.35,0,0,0-.11,0,.51.51,0,0,0-.15.07.57.57,0,0,0-.07.2Zm.75.09.07,0a.19.19,0,0,0,0,.08H42a.09.09,0,0,0,.07,0,.07.07,0,0,0,0,0s0,0,0,0l-.07,0a.42.42,0,0,1-.11,0s0,0,0,0,0,0,0-.06a.05.05,0,0,1,0,0l0,0,.05,0a.07.07,0,0,1,.06,0s.07,0,.09,0a0,0,0,0,1,0,0s0,0,0,0l-.08,0a.07.07,0,0,0,0,0,.11.11,0,0,0-.07,0l-.07,0a.05.05,0,0,0,0,0h0s0,0,0,0H42l.11,0,0,0v0a.19.19,0,0,1,0,.08l-.07.05-.09,0c-.06,0-.09,0-.12,0a.3.3,0,0,1,0-.1Zm.72-.06.07,0a.2.2,0,0,1-.2.14.17.17,0,0,1-.14,0,.31.31,0,0,1,0-.18.23.23,0,0,1,.08-.16.17.17,0,0,1,.14-.06.14.14,0,0,1,.16.21h0l-.3,0a.18.18,0,0,0,0,.1s0,0,.09,0a.07.07,0,0,0,.06,0s0,0,0-.08Zm-.21-.09h.23a.13.13,0,0,0,0-.08s0,0-.09,0a.1.1,0,0,0-.07,0,.09.09,0,0,0-.05.09Zm.35.26h.06a.08.08,0,0,0,0,0l.07,0,.08,0s0,0,0-.07,0,0,0-.09a.16.16,0,0,1-.12.06.1.1,0,0,1-.12-.06.17.17,0,0,1,0-.14.33.33,0,0,1,0-.12.11.11,0,0,1,.07-.08.15.15,0,0,1,.09,0,.11.11,0,0,1,.12.06v-.06h.06l0,.38a.46.46,0,0,1,0,.14l-.07.06a.3.3,0,0,1-.12,0,.14.14,0,0,1-.11,0s-.06,0,0-.09Zm.08-.26a.16.16,0,0,0,0,.12s0,0,.07,0,0,0,.09,0a.49.49,0,0,0,0-.11c0-.08,0-.11,0-.13a.1.1,0,0,0-.16,0,.89.89,0,0,0-.05.13Zm.37.19,0-.43h.07v.07s0,0,0-.06l.08,0h.07s0,0,0,.07.08-.08.14-.08l.09,0a.23.23,0,0,1,0,.12l0,.29h-.07l0-.27v-.06s0,0,0,0h0l-.09,0a.58.58,0,0,0-.05.11l0,.25h-.07l0-.28a.22.22,0,0,0,0-.08h-.1s0,0,0,.06,0,0,0,.09l0,.21Zm1-.17h.07a.16.16,0,0,1-.08.1A.19.19,0,0,1,44,75a.14.14,0,0,1-.12,0,.21.21,0,0,1-.05-.16.31.31,0,0,1,.09-.17.16.16,0,0,1,.14-.06.22.22,0,0,1,.13,0,.2.2,0,0,1,0,.17,0,0,0,0,1,0,0h-.3a.41.41,0,0,0,0,.12s.05,0,.08,0a.15.15,0,0,0,.07,0,.1.1,0,0,0,.05-.06Zm-.21-.11h.24s0-.08,0-.08a.12.12,0,0,0-.08-.06s-.06,0-.08,0,0,.05,0,.09Zm.35.24.06-.42h.07v0s.07,0,.13,0,.06,0,.08,0a0,0,0,0,1,0,0s0,0,0,.06v.06l0,.26-.07,0,0-.26V74.6s0,0,0,0h-.06s0,0-.08,0a.19.19,0,0,0,0,.11l0,.23Zm.62-.08v.06H44.8s0,0,0,0,0,0,0,0a.45.45,0,0,1,0-.08l0-.25H44.7l0,0h.05l0-.11.07,0,0,.16.07,0v.06h-.07l0,.25a.1.1,0,0,0,0,0,0,0,0,0,0,0,0h.06Zm.07-.15c0-.09,0-.15.09-.17a.16.16,0,0,1,.13-.06.13.13,0,0,1,.13.06s0,.08,0,.16a.19.19,0,0,1,0,.12l-.07.08a.3.3,0,0,1-.12,0,.18.18,0,0,1-.13,0,.19.19,0,0,1,0-.16Zm.07,0a.13.13,0,0,0,0,.11s0,0,.07,0,.06,0,.1,0a.44.44,0,0,0,.06-.12.2.2,0,0,0,0-.12.1.1,0,0,0-.09,0,.16.16,0,0,0-.1,0,.22.22,0,0,0,0,.13Zm.9.07H46l-.1.09s0,0-.11,0a.15.15,0,0,1-.14-.06.25.25,0,0,1,0-.16c0-.08,0-.14.08-.16a.17.17,0,0,1,.15-.07.17.17,0,0,1,.13.07s0,.08,0,.16h-.31c0,.06,0,.09,0,.11s.05,0,.08,0l.07,0,.06-.06Zm-.22-.12h.23a.34.34,0,0,0,0-.1l-.08,0-.09,0a.24.24,0,0,0,0,.1Zm.35.24.09-.59h.07l-.09.59Zm.25-.5,0-.09h.07l0,.09Zm-.08.5.07-.43h.08l-.08.43Zm.18,0,.07-.43h.07v.07a.15.15,0,0,1,.05-.06.24.24,0,0,1,.09,0l.07,0,0,.06a.16.16,0,0,1,.14-.09.09.09,0,0,1,.08,0s0,.06,0,.12l0,.29h-.07l0-.28v-.06l0,0s0,0-.06,0l-.07,0s0,.06,0,.1l-.05.25h-.06l0-.28s0-.07,0-.07a.07.07,0,0,0-.06,0,.08.08,0,0,0-.06,0s0,0,0,.06a.19.19,0,0,0,0,.08l0,.22Zm.76-.5V74.3h.06v.09Zm-.09.5.07-.43h.07l-.07.43Zm.18,0,.07-.41h.07l0,.05a.21.21,0,0,1,.15-.07l.07,0a.06.06,0,0,1,0,.05s0,0,0,0v.09l-.06.26h-.06l0-.26a.25.25,0,0,0,0-.08,0,0,0,0,0,0,0s0,0,0,0a.24.24,0,0,0-.1,0,.19.19,0,0,0-.06.11l0,.22Zm.7,0-.06,0h-.08a.14.14,0,0,1-.11,0,.11.11,0,0,1,0-.08.14.14,0,0,1,0-.06.12.12,0,0,0,0,0,.07.07,0,0,0,.06,0h.06l.12,0a0,0,0,0,1,0,0s0-.06,0-.07l-.07,0-.07,0a.08.08,0,0,0,0,.07h-.06a.09.09,0,0,1,0-.08s0,0,.07,0H48l0,0s0,0,0,0,0,0,0,.07l0,.11a.43.43,0,0,0,0,.12v.06H48a.08.08,0,0,1,0-.06Zm0-.15h-.11s-.05,0-.06,0,0,0,0,0a.15.15,0,0,0,0,0,.06.06,0,0,0,0,0s0,0,.05,0h.08l0,0s0,0,0-.08Zm.41.21v-.06a.1.1,0,0,1-.12.06.11.11,0,0,1-.09,0s0,0,0-.08v-.12a.84.84,0,0,1,0-.12s0,0,.07-.07a.15.15,0,0,1,.09,0h.08s0,0,0,0l0-.21h.07l-.11.59Zm-.17-.21s0,.09,0,.12l.07,0a.19.19,0,0,0,.1,0,.28.28,0,0,0,0-.12.17.17,0,0,0,0-.14s0,0-.08,0a.12.12,0,0,0-.08,0s0,.06,0,.12Zm.37,0a.22.22,0,0,1,.09-.16.2.2,0,0,1,.14-.05c.06,0,.11,0,.12.07s0,.08,0,.16a.83.83,0,0,1,0,.12.21.21,0,0,1-.08.06.19.19,0,0,1-.11,0,.2.2,0,0,1-.13-.07.22.22,0,0,1,0-.17Zm.07,0a.16.16,0,0,0,0,.12.11.11,0,0,0,.08,0,.16.16,0,0,0,.1,0,.67.67,0,0,0,.06-.12.21.21,0,0,0,0-.14s0,0-.08,0-.06,0-.09,0a.3.3,0,0,0-.06.14Zm.57.22.08-.43h.06v.06l0,0a.11.11,0,0,1,0,0s.06,0,.08,0l0,.06,0,0c-.06,0-.07,0-.08,0l0,0s0,0,0,.08l0,.22Zm.57-.12h.08a.28.28,0,0,1-.09.1.16.16,0,0,1-.12,0,.11.11,0,0,1-.12-.07s0-.08,0-.16a.4.4,0,0,1,.08-.16.26.26,0,0,1,.16-.06.16.16,0,0,1,.12.06.22.22,0,0,1,0,.18h-.32c0,.06,0,.09,0,.11s0,0,.08,0l.08,0,0-.06Zm-.2-.12h.23v-.08a.1.1,0,0,0-.09,0,.09.09,0,0,0-.08,0,.21.21,0,0,0-.06.1Zm.34.12H50a.07.07,0,0,0,0,.07h.13s0,0,0,0a0,0,0,0,0,0,0s0,0-.07,0-.08,0-.09,0a0,0,0,0,1-.05,0v-.06a.21.21,0,0,1,0-.06l0,0a.1.1,0,0,1,.06,0h.14l.05,0a.23.23,0,0,1,0,.07l-.07,0a.13.13,0,0,0,0-.06.09.09,0,0,0-.06,0,.08.08,0,0,0-.07,0s0,0,0,0,0,0,0,0,0,0,0,0,0,0,0,0l.1,0,0,0v.07s0,0,0,.06,0,0-.07.06h-.08a.12.12,0,0,1-.11,0,.14.14,0,0,1,0-.11Zm.36.32.11-.6h.07v.06a.09.09,0,0,1,0,0,.11.11,0,0,1,.07,0s.06,0,.1,0,0,0,0,.09v.11a1.33,1.33,0,0,1-.06.12.31.31,0,0,1-.09.07.12.12,0,0,1-.09,0l-.06,0,0,0,0,.21Zm.14-.38a.25.25,0,0,0,0,.13.16.16,0,0,0,.07,0,.08.08,0,0,0,.08,0,.2.2,0,0,0,.06-.13.16.16,0,0,0,0-.12.07.07,0,0,0-.06,0,.18.18,0,0,0-.09,0,.22.22,0,0,0-.06.12Zm.65.1h.06s0,.09-.08.1a.14.14,0,0,1-.11,0c-.07,0-.12,0-.14-.06a.23.23,0,0,1,0-.17c0-.07,0-.13.1-.15a.17.17,0,0,1,.15-.06.1.1,0,0,1,.11.07s0,.09,0,.16v0h-.31s0,.08,0,.1,0,0,.08,0H51l.06-.07Zm-.2-.13.23,0s0-.07,0-.09a.07.07,0,0,0-.06,0l-.1,0a.12.12,0,0,0,0,.09Zm.44-.23v-.08h.07l0,.08Zm-.11.5.09-.43h.07l-.09.45Zm.34,0V75h-.11s0,0,0,0a.2.2,0,0,1,0-.08l0-.25h0v-.07h0l0-.11.08,0,0,.15h.07v.06h-.06l-.06.25v0h0s0,0,0,0Zm.33,0-.09,0H51.7a.17.17,0,0,1-.1,0s0-.06,0-.1a.39.39,0,0,1,0-.06s0,0,0,0l.06,0h.05l.13,0v-.08l-.08,0s0,0-.07,0l0,.07h-.07a.29.29,0,0,1,0-.08l.08,0,.09,0a.18.18,0,0,1,.09,0l0,0s0,0,0,.06a.22.22,0,0,0,0,.06l0,.1a.84.84,0,0,1,0,.12.43.43,0,0,0,0,0h-.07v0Zm0-.16-.1,0s-.05,0-.05,0h0s0,0,0,0a.13.13,0,0,0,0,.07l.06,0,.06,0s.05,0,.07,0a.19.19,0,0,0,0-.08v0Zm.38,0a.32.32,0,0,1,.11-.17.23.23,0,0,1,.14,0,.11.11,0,0,1,.12.07.17.17,0,0,1,0,.14c0,.06,0,.1,0,.14s-.06,0-.09.07a.15.15,0,0,1-.09,0,.2.2,0,0,1-.14-.05.26.26,0,0,1,0-.18Zm.08,0c0,.06,0,.1,0,.13a.07.07,0,0,0,.07,0,.12.12,0,0,0,.09,0,.41.41,0,0,0,.07-.11.18.18,0,0,0,0-.13s0,0-.07,0a.14.14,0,0,0-.1,0,.36.36,0,0,0-.06.11Zm.54.4.13-.58h.06l0,.06a.18.18,0,0,1,.07,0h.07a.11.11,0,0,1,.09,0s0,0,0,.07a.24.24,0,0,1,0,.12.22.22,0,0,1,0,.11.17.17,0,0,1-.07.09l-.11,0,0,0,0,0-.06.2Zm.14-.37A.18.18,0,0,0,53,75a.07.07,0,0,0,.06,0l.1,0a.29.29,0,0,0,0-.13.28.28,0,0,0,0-.13s0,0-.07,0a.19.19,0,0,0-.09,0,.27.27,0,0,0-.06.12Zm.33.25.1-.44h.05v.07s0,0,.05,0l.06,0s0,0,.06,0l0,0h-.1s0,0,0,0,0,0,0,.08l-.05.23h-.07Zm.28-.2a.43.43,0,0,1,.1-.19l.14,0a.17.17,0,0,1,.13.07.27.27,0,0,1,0,.16A.32.32,0,0,1,54,75a.14.14,0,0,1-.08.07l-.1,0a.2.2,0,0,1-.13-.06.23.23,0,0,1,0-.17Zm.07,0a.14.14,0,0,0,0,.13.08.08,0,0,0,.07,0s.07,0,.09,0a.22.22,0,0,0,.07-.12v-.12a.11.11,0,0,0-.18,0s0,.06-.07.11Zm.45-.26,0-.09h.06l0,.09Zm-.22.66,0-.06H54s0,0,0-.08l.1-.45h.07l-.1.46a.23.23,0,0,1,0,.11.13.13,0,0,1-.08,0Zm.6-.27h.07a.1.1,0,0,1-.08.09.18.18,0,0,1-.13,0,.16.16,0,0,1-.12-.07.2.2,0,0,1,0-.16.23.23,0,0,1,.09-.15.14.14,0,0,1,.15-.06c.06,0,.11,0,.11.06s0,.09,0,.17v0l-.3,0a.18.18,0,0,0,0,.11s0,0,.07,0a.08.08,0,0,0,.07,0,.1.1,0,0,0,.05-.07Zm-.19-.13h.23a.13.13,0,0,0,0-.09.09.09,0,0,0-.07,0,.12.12,0,0,0-.09,0,.09.09,0,0,0-.05.08Z"/><path id="_Compound_Path_23" data-name="&lt;Compound Path&gt;" d="M55,75H55a.3.3,0,0,1-.07.11.38.38,0,0,1-.13,0,.15.15,0,0,1-.14-.08.19.19,0,0,1,0-.15.15.15,0,0,1,.06-.13.09.09,0,0,1,.07-.06.21.21,0,0,1,.1,0,.38.38,0,0,1,.11.05.16.16,0,0,1,0,.11H55a.08.08,0,0,0,0-.06s0,0-.06,0a.1.1,0,0,0-.09,0s0,.07-.06.13a.24.24,0,0,0,0,.12.08.08,0,0,0,.08,0l.07,0A.11.11,0,0,0,55,75Zm.25.11v.07h-.05l-.07,0s0,0,0,0a.13.13,0,0,1,0-.08l0-.25h0l0-.06h0l0-.12.08,0,0,.15h.07l0,.06h-.07l-.05.25v.06h.05ZM55.3,75a.22.22,0,0,1,.09-.18.17.17,0,0,1,.14,0,.15.15,0,0,1,.13.06.24.24,0,0,1,0,.17.33.33,0,0,1-.05.12s0,0-.09.07l-.11,0a.19.19,0,0,1-.12-.07.13.13,0,0,1,0-.16Zm.07,0c0,.06,0,.09,0,.13l.07,0a.19.19,0,0,0,.1,0A.27.27,0,0,0,55.6,75a.17.17,0,0,0,0-.12.1.1,0,0,0-.09,0,.11.11,0,0,0-.09,0,.15.15,0,0,0-.05.12Zm.81.28,0,0a.18.18,0,0,1-.13,0,.14.14,0,0,1-.09,0,.25.25,0,0,1,0-.07.16.16,0,0,1,0-.12A.35.35,0,0,1,56,75l.09-.09h.16l0,.06,0-.21h.07l-.13.58ZM56,75.08a.41.41,0,0,0,0,.12.09.09,0,0,0,.06,0,.15.15,0,0,0,.09,0s0-.06.06-.11a.28.28,0,0,0,0-.13.07.07,0,0,0-.07,0s-.06,0-.08,0a.27.27,0,0,0-.07.13Zm.66.13.07,0s0,.07-.1.09a.17.17,0,0,1-.12,0,.16.16,0,0,1-.12-.08.26.26,0,0,1,0-.16.37.37,0,0,1,.1-.16.19.19,0,0,1,.14,0c.08,0,.1,0,.12.07a.22.22,0,0,1,0,.18h0l-.3,0c0,.06,0,.09,0,.12a.06.06,0,0,0,.06.05s.06,0,.07,0,0,0,.07-.06Zm-.2-.13h.23V75a.18.18,0,0,0-.09-.06l-.08,0s-.05.05-.06.09Zm1,.14.06,0a.3.3,0,0,1-.11.14.35.35,0,0,1-.17,0,.2.2,0,0,1-.13-.06.35.35,0,0,1-.07-.12.47.47,0,0,1,0-.16.38.38,0,0,1,.19-.25.25.25,0,0,1,.14,0,.15.15,0,0,1,.13.06.23.23,0,0,1,.06.15h-.08s0-.08,0-.09,0,0-.08-.06a.35.35,0,0,0-.11,0,.26.26,0,0,0-.09.09.21.21,0,0,0,0,.11.31.31,0,0,0,0,.13.12.12,0,0,0,0,.09s.06,0,.09,0a.31.31,0,0,0,.13,0,.52.52,0,0,0,.08-.11Zm.13,0a.36.36,0,0,1,.11-.17l.14,0a.15.15,0,0,1,.12.08.15.15,0,0,1,0,.16.33.33,0,0,1,0,.12s0,.06-.08.06a.14.14,0,0,1-.11,0c-.06,0-.1,0-.12-.07a.27.27,0,0,1,0-.18Zm.07,0a.27.27,0,0,0,0,.13.19.19,0,0,0,.07.06.12.12,0,0,0,.1,0,.19.19,0,0,0,.08-.11.2.2,0,0,0,0-.12.07.07,0,0,0-.07-.06.19.19,0,0,0-.1,0,.3.3,0,0,0-.07.11Zm.33.27.16-.59h.07l-.15.59Zm.45,0v-.05a.21.21,0,0,1-.15.05h-.07l0,0v0a.2.2,0,0,1,0-.07l.07-.26h.07l-.07.23s0,.07,0,.08a.1.1,0,0,0,0,0s0,0,0,0h.07s.06,0,.07,0,0,0,0-.07l.06-.24h.07l-.12.42Zm.15,0,.11-.42h.07l0,.06.07,0a.11.11,0,0,1,.08,0s.05,0,.05,0,0,0,0,.07a.17.17,0,0,1,.14-.07s.07,0,.08,0a.18.18,0,0,1,0,.11l-.09.3-.07,0,.07-.26a.12.12,0,0,0,0-.07l0,0,0,0a.11.11,0,0,0-.1,0,.2.2,0,0,0-.06.09l-.06.24h-.06l.07-.28s0,0,0-.07a.07.07,0,0,0-.05,0l0,0s0,0,0,0,0,0,0,.09l-.06.22Zm.72.09h-.06l.15-.58h.08l-.07.2a.15.15,0,0,1,.13,0l.07,0s0,0,0,0,0,.05,0,.07,0,.06,0,.09a.27.27,0,0,1-.1.17.23.23,0,0,1-.14,0c-.05,0-.07,0-.09-.08v0Zm0-.21a.49.49,0,0,0,0,.11.07.07,0,0,0,.07.06s.06,0,.09,0a.35.35,0,0,0,.07-.12.12.12,0,0,0,0-.12.06.06,0,0,0-.06-.06.09.09,0,0,0-.09,0,.15.15,0,0,0-.07.11Zm.59.26a.12.12,0,0,0-.08,0h-.09s-.07,0-.09-.06a.09.09,0,0,1,0-.09s0,0,0-.06l.05,0,0,0H60v0a.06.06,0,0,0,0-.06.11.11,0,0,0-.07,0h-.07a.17.17,0,0,0-.06.06l-.06,0s0,0,.05-.06,0,0,.07,0H60a.15.15,0,0,1,.07,0l0,0a.11.11,0,0,1,0,.06.18.18,0,0,1,0,.06l0,.1a.4.4,0,0,0,0,.13v.06l-.07,0v0Zm0-.18h-.18l0,0s0,0,0,0a.06.06,0,0,0,0,.06.11.11,0,0,0,.06,0,.08.08,0,0,0,.07,0,.06.06,0,0,0,.06,0,.59.59,0,0,1,0-.08v0Zm.11.25.13-.42h.06l0,.06a.19.19,0,0,1,.16-.05l.05,0s0,0,0,0v0a.11.11,0,0,1,0,.07l-.07.26h-.07l.07-.26s0,0,0-.07,0,0,0,0h0a.27.27,0,0,0-.09,0,.16.16,0,0,0-.07.11l-.07.24-.07,0Zm.47-.14a.29.29,0,0,1,.1-.18.35.35,0,0,1,.14,0,.16.16,0,0,1,.13.07.25.25,0,0,1,0,.17.39.39,0,0,1-.06.13l-.1.05a.15.15,0,0,1-.1,0,.16.16,0,0,1-.11-.08.17.17,0,0,1,0-.17Zm.07,0q0,.09,0,.12s0,0,.07.06a.1.1,0,0,0,.09,0s0,0,.07-.12a.14.14,0,0,0,0-.13.08.08,0,0,0-.07,0,.12.12,0,0,0-.09,0s-.06.06-.07.12Z"/><g id="_Group_16" data-name="&lt;Group&gt;"><path id="_Path_15" data-name="&lt;Path&gt;" class="cls-4" d="M62.29,77.71a.08.08,0,0,1-.07,0,.15.15,0,0,1-.07-.2l1.74-3.07c0-.07.12-.1.19,0a.12.12,0,0,1,.06.19l-1.72,3.07a.15.15,0,0,1-.13.09Z"/></g><path id="_Path_16" data-name="&lt;Path&gt;" class="cls-6" d="M20.18,46.25C29.9,46.12,74.82,73.72,75,78.8l-2.78,4.28c-1.27-5.9-46.85-32.76-54.37-32.26l2.37-4.57Z"/><g id="_Group_17" data-name="&lt;Group&gt;"><path id="_Path_17" data-name="&lt;Path&gt;" d="M72.47,82.88l2.21-3.76a.1.1,0,0,1,.12,0,.08.08,0,0,1,0,.12l-2.35,3.67Z"/></g><g id="_Group_18" data-name="&lt;Group&gt;"><path id="_Path_18" data-name="&lt;Path&gt;" d="M18,50.61l2-4.16a.11.11,0,0,1,.14,0,.07.07,0,0,1,0,.11L18,50.61Z"/></g><path id="_Compound_Path_24" data-name="&lt;Compound Path&gt;" class="cls-6" d="M17.53,50.65c1.81-1.22,15.07,4.7,28.95,13.09S73.56,81.62,72.38,83.4L72,84l-.19.16s.24-.28,0-.93c-.58-1.95-10-9.45-25.54-18.85-15.19-9.06-27.83-14.53-29.11-13l.4-.78Zm57.7,28.47c1.14-2.26-11.16-11.53-26.41-20.56C33.2,49.7,22,44.48,19.9,46.05l-.47.82s0,0,.12-.13a2,2,0,0,1,1.27-.31c3.54,0,13.64,4.71,27.83,12.84,6.21,3.63,26.24,16.48,26.17,20.1,0,.3,0,.37-.09.53l.5-.78Z"/><g id="_Group_19" data-name="&lt;Group&gt;"><path id="_Compound_Path_25" data-name="&lt;Compound Path&gt;" d="M71.86,84.22l-.09-.12s0,0,0,0,.2-.19,0-.82c-.61-2-10.53-9.74-25.51-18.8C33.35,56.81,21.51,51.25,18,51.25a1,1,0,0,0-.8.23l0,0a.28.28,0,0,1,0-.13l.19-.7a1.46,1.46,0,0,1,.83-.2c3.53,0,15.95,5.81,28.24,13.24,12.48,7.56,25.41,16.62,26,19.28a.68.68,0,0,1-.07.52l-.39.62-.12.06-.07.09ZM18,51.07c3.53,0,15.42,5.56,28.28,13.24,15.23,9.2,25,16.82,25.59,18.89a1.84,1.84,0,0,1,.13.62l.29-.48a.39.39,0,0,0,0-.36c-.57-2.59-13.77-11.82-25.89-19.17-12.28-7.4-24.66-13.22-28.17-13.22a1.27,1.27,0,0,0-.7.14l-.23.47a1.11,1.11,0,0,1,.65-.13ZM74.77,79.9a.06.06,0,0,1,0,0h0l0-.11h0l-.06.08.06-.08a1,1,0,0,0,0-.29c.07-3.7-20.35-16.75-26.12-20.12-14.13-8.1-24.26-12.78-27.79-12.83a1.92,1.92,0,0,0-1.2.29h0a1.45,1.45,0,0,1,1.17-.47c3.63,0,13.77,4.73,27.94,12.85C52.79,61.57,75,75.43,74.91,79.37v.07l.24-.37C76.21,77,64.61,68,48.77,58.63,32,49.13,21.8,44.72,20,46.11l-.39.71c-.07,0-.23.08-.23,0l.48-.87A1.78,1.78,0,0,1,21,45.68c4.38,0,17.57,7,27.86,12.79,13.78,8.16,27.72,18.18,26.45,20.68l-.46.71a.09.09,0,0,1-.08,0Z"/></g><path id="_Path_19" data-name="&lt;Path&gt;" class="cls-7" d="M27.75,67.53a19.16,19.16,0,0,0,19,19,19,19,0,0,0,19-19h0V42.2l-38,0V67.53Z"/><g id="_Group_20" data-name="&lt;Group&gt;"><path id="_Compound_Path_26" data-name="&lt;Compound Path&gt;" d="M46.7,86.62A19.26,19.26,0,0,1,27.64,67.53V42.16l38.08-.06.11,25.45A19.15,19.15,0,0,1,46.7,86.62ZM65.61,42.2l-37.86.06.11,25.27A19,19,0,0,0,46.7,86.4,18.9,18.9,0,0,0,65.61,67.55V42.2Z"/></g><path id="_Compound_Path_27" data-name="&lt;Compound Path&gt;" class="cls-4" d="M28.47,67.57v0a18.21,18.21,0,0,0,36.42,0h0V43H28.48V67.57Zm29.09-17.2V67.66h0A10.24,10.24,0,0,1,57.47,69a10.5,10.5,0,0,1-3.11,6.3,10.88,10.88,0,0,1-18.51-7.71V50.32l21.71,0Z"/><g id="_Group_21" data-name="&lt;Group&gt;"><path id="_Compound_Path_28" data-name="&lt;Compound Path&gt;" d="M46.69,85.82a18.3,18.3,0,0,1-12.93-5.37,18.12,18.12,0,0,1-5.38-12.86L28.4,43l36.49-.08L65,67.6A18.28,18.28,0,0,1,46.69,85.82ZM64.8,43l-36.32.08.07,24.48a18.13,18.13,0,0,0,36.25,0V43ZM46.68,78.59a11.1,11.1,0,0,1-10.93-11V50.24l21.81,0L57.65,66v1.66A10.24,10.24,0,0,1,57.55,69a10.62,10.62,0,0,1-3.13,6.36,10.83,10.83,0,0,1-7.74,3.2ZM35.92,50.41v17.2a10.76,10.76,0,0,0,18.38,7.66A10.61,10.61,0,0,0,57.4,69a10,10,0,0,0,.07-1.34l0-17.3-21.57,0Z"/></g><path id="_Path_20" data-name="&lt;Path&gt;" class="cls-8" d="M44.39,64.77h0a2.72,2.72,0,0,0,.7,1.83,2.34,2.34,0,0,0,1.7.76,2.25,2.25,0,0,0,1.69-.76,2.67,2.67,0,0,0,.72-1.83V61.33H44.4v3.44Z"/><path id="_Path_21" data-name="&lt;Path&gt;" class="cls-7" d="M48.15,62.17a.48.48,0,1,0,.47.48.47.47,0,0,0-.47-.48Z"/><path id="_Path_22" data-name="&lt;Path&gt;" class="cls-7" d="M46.82,63.44a.48.48,0,0,0-.47.49.46.46,0,0,0,.47.46.47.47,0,0,0,.48-.46.49.49,0,0,0-.48-.49Z"/><path id="_Path_23" data-name="&lt;Path&gt;" class="cls-7" d="M48.15,64.77a.5.5,0,0,0-.49.48.49.49,0,0,0,.49.48.47.47,0,0,0,.47-.48.48.48,0,0,0-.47-.48Z"/><path id="_Path_24" data-name="&lt;Path&gt;" class="cls-7" d="M45.55,64.79a.47.47,0,1,0,0,.94.47.47,0,1,0,0-.94Z"/><path id="_Path_25" data-name="&lt;Path&gt;" class="cls-7" d="M45.55,62.17a.47.47,0,1,0,.48.46.47.47,0,0,0-.48-.46Z"/><path id="_Path_26" data-name="&lt;Path&gt;" class="cls-8" d="M44.37,73h0a2.61,2.61,0,0,0,.71,1.82,2.26,2.26,0,0,0,1.69.75,2.3,2.3,0,0,0,1.7-.75A2.6,2.6,0,0,0,49.16,73V69.59H44.37V73Z"/><path id="_Path_27" data-name="&lt;Path&gt;" class="cls-7" d="M48.13,70.43a.47.47,0,1,0,0,.94.47.47,0,1,0,0-.94Z"/><path id="_Path_28" data-name="&lt;Path&gt;" class="cls-7" d="M46.79,71.7a.47.47,0,1,0,.47.48.47.47,0,0,0-.47-.48Z"/><path id="_Path_29" data-name="&lt;Path&gt;" class="cls-7" d="M48.13,73a.48.48,0,1,0,0,1,.48.48,0,0,0,0-1Z"/><path id="_Path_30" data-name="&lt;Path&gt;" class="cls-7" d="M45.52,73a.48.48,0,0,0,0,1,.48.48,0,1,0,0-1Z"/><path id="_Path_31" data-name="&lt;Path&gt;" class="cls-7" d="M45.52,70.42a.48.48,0,1,0,.49.47.49.49,0,0,0-.49-.47Z"/><path id="_Path_32" data-name="&lt;Path&gt;" class="cls-8" d="M37.74,64.79h0a2.7,2.7,0,0,0,.71,1.82,2.26,2.26,0,0,0,3.38,0,2.63,2.63,0,0,0,.71-1.81V61.35H37.75v3.44Z"/><path id="_Path_33" data-name="&lt;Path&gt;" class="cls-7" d="M41.5,62.18a.48.48,0,0,0-.47.48.48.48,0,0,0,.47.48.49.49,0,0,0,.48-.48.5.5,0,0,0-.48-.48Z"/><path id="_Path_34" data-name="&lt;Path&gt;" class="cls-7" d="M40.16,63.47a.47.47,0,0,0-.47.46.48.48,0,1,0,1,0,.46.46,0,0,0-.48-.46Z"/><path id="_Path_35" data-name="&lt;Path&gt;" class="cls-7" d="M41.5,64.8a.47.47,0,0,0,0,.94.47.47,0,0,0,0-.94Z"/><path id="_Path_36" data-name="&lt;Path&gt;" class="cls-7" d="M38.9,64.8a.48.48,0,0,0,0,1,.48.48,0,1,0,0-1Z"/><path id="_Path_37" data-name="&lt;Path&gt;" class="cls-7" d="M38.89,62.18a.48.48,0,0,0-.46.48.47.47,0,0,0,.46.48.48.48,0,0,0,.48-.48.49.49,0,0,0-.48-.48Z"/><path id="_Path_38" data-name="&lt;Path&gt;" class="cls-8" d="M51,64.79h0a2.64,2.64,0,0,0,.7,1.82,2.3,2.3,0,0,0,1.7.76,2.27,2.27,0,0,0,1.69-.76,2.59,2.59,0,0,0,.71-1.82V61.35H51l0,3.44Z"/><path id="_Path_39" data-name="&lt;Path&gt;" class="cls-7" d="M54.79,62.18a.47.47,0,0,0-.48.48.48.48,0,1,0,.48-.48Z"/><path id="_Path_40" data-name="&lt;Path&gt;" class="cls-7" d="M53.45,63.46a.48.48,0,0,0-.48.47.49.49,0,0,0,1,0,.49.49,0,0,0-.49-.47Z"/><path id="_Path_41" data-name="&lt;Path&gt;" class="cls-7" d="M54.78,64.79a.47.47,0,0,0-.47.48.46.46,0,0,0,.47.47.48.48,0,0,0,.48-.47.49.49,0,0,0-.48-.48Z"/><path id="_Path_42" data-name="&lt;Path&gt;" class="cls-7" d="M52.19,64.8a.47.47,0,1,0,.47.47.47.47,0,0,0-.47-.47Z"/><path id="_Path_43" data-name="&lt;Path&gt;" class="cls-7" d="M52.19,62.18a.49.49,0,0,0-.49.48.5.5,0,0,0,.49.48.48.48,0,0,0,.47-.48.47.47,0,0,0-.47-.48Z"/><path id="_Path_44" data-name="&lt;Path&gt;" class="cls-8" d="M44.39,56.46h0a2.68,2.68,0,0,0,.7,1.81,2.32,2.32,0,0,0,1.7.76,2.25,2.25,0,0,0,1.69-.76,2.7,2.7,0,0,0,.72-1.81V53H44.39v3.45Z"/><path id="_Path_45" data-name="&lt;Path&gt;" class="cls-7" d="M48.15,53.84a.49.49,0,0,0-.48.48.47.47,0,0,0,.48.46.46.46,0,0,0,.47-.46.48.48,0,0,0-.47-.48Z"/><path id="_Path_46" data-name="&lt;Path&gt;" class="cls-7" d="M46.82,55.13a.47.47,0,1,0,.46.46.46.46,0,0,0-.46-.46Z"/><path id="_Path_47" data-name="&lt;Path&gt;" class="cls-7" d="M48.14,56.46a.48.48,0,0,0-.48.46.5.5,0,0,0,.48.49.48.48,0,0,0,.48-.49.47.47,0,0,0-.48-.46Z"/><path id="_Path_48" data-name="&lt;Path&gt;" class="cls-7" d="M45.55,56.46a.47.47,0,0,0-.47.46.48.48,0,1,0,.47-.46Z"/><path id="_Path_49" data-name="&lt;Path&gt;" class="cls-7" d="M45.55,53.84a.47.47,0,0,0-.48.48.48.48,0,0,0,1,0,.47.47,0,0,0-.48-.48Z"/><path id="_Path_50" data-name="&lt;Path&gt;" class="cls-6" d="M30.82,49.43a2.27,2.27,0,0,1,1.3-2.2,2.19,2.19,0,0,1,1.37,2.2Z"/><path id="_Path_51" data-name="&lt;Path&gt;" class="cls-6" d="M29.74,47.27l-.22,2h1.33c0-1.68,1.27-2,1.29-1.94a1.92,1.92,0,0,1,1.32,1.94h1.33l-.26-2-4.79,0Z"/><g id="_Group_22" data-name="&lt;Group&gt;"><path id="_Compound_Path_29" data-name="&lt;Compound Path&gt;" d="M34.87,49.38H33.46a2.12,2.12,0,0,0-1.32-2,1.74,1.74,0,0,0-1.21,1.88l-1.41.07.13-2.12,4.88-.07.34,2.2ZM32,47.31l-2.26,0L29.6,49.3l1.25-.08A1.73,1.73,0,0,1,32,47.31Zm.26,0a2.06,2.06,0,0,1,1.28,2l1.15-.07-.23-2-2.2,0Z"/></g><path id="_Path_52" data-name="&lt;Path&gt;" class="cls-6" d="M29.44,49.3h5.41a.25.25,0,0,1,.21.26.23.23,0,0,1-.21.25H29.44a.23.23,0,0,1-.21-.25.25.25,0,0,1,.21-.26Z"/><g id="_Group_23" data-name="&lt;Group&gt;"><path id="_Compound_Path_30" data-name="&lt;Compound Path&gt;" d="M34.85,49.89H29.44a.33.33,0,0,1,0-.66h5.41a.33.33,0,0,1,0,.66Zm-5.41-.51v.33h5.41a.13.13,0,0,0,.13-.15l-5.54-.18Z"/></g><path id="_Path_53" data-name="&lt;Path&gt;" class="cls-6" d="M31.4,49.3a1.41,1.41,0,0,1,.72-1.37,1.42,1.42,0,0,1,.75,1.37Z"/><g id="_Group_24" data-name="&lt;Group&gt;"><path id="_Compound_Path_31" data-name="&lt;Compound Path&gt;" d="M33,49.37H31.4c-.07-1.18.66-1.5.7-1.51A1.4,1.4,0,0,1,33,49.3v.07ZM32.1,48a1.41,1.41,0,0,0-.61,1.29l1.32-.08A1.35,1.35,0,0,0,32.1,48Z"/></g><path id="_Path_54" data-name="&lt;Path&gt;" class="cls-6" d="M29.55,46.43h5.19a.22.22,0,0,1,.2.23.2.2,0,0,1-.2.21H29.55a.21.21,0,0,1-.21-.21.22.22,0,0,1,.21-.23Z"/><g id="_Group_25" data-name="&lt;Group&gt;"><path id="_Compound_Path_32" data-name="&lt;Compound Path&gt;" d="M34.74,46.94H29.55a.28.28,0,0,1-.29-.28.29.29,0,0,1,.29-.3h5.19a.28.28,0,0,1,.28.3.27.27,0,0,1-.28.28Zm-5.19-.43v.28h5.19a.12.12,0,0,0,.12-.13l-5.31-.15Z"/></g><path id="_Path_55" data-name="&lt;Path&gt;" class="cls-6" d="M29.65,46.87h5a.23.23,0,0,1,0,.46h-5a.24.24,0,0,1,0-.46Z"/><g id="_Group_26" data-name="&lt;Group&gt;"><path id="_Compound_Path_33" data-name="&lt;Compound Path&gt;" d="M34.62,47.42h-5a.3.3,0,0,1-.26-.32.29.29,0,0,1,.26-.31h5a.29.29,0,0,1,.28.31.3.3,0,0,1-.28.32Zm-5-.48v.31h5c.06,0,.11-.07.11-.15l-5.08-.16Z"/></g><path id="_Path_56" data-name="&lt;Path&gt;" class="cls-6" d="M31.26,43.49h.39v.28h.29v-.28h.4v.28h.29v-.28H33v.64a.18.18,0,0,1-.18.17H31.44a.18.18,0,0,1-.18-.17v-.64Z"/><g id="_Group_27" data-name="&lt;Group&gt;"><path id="_Compound_Path_34" data-name="&lt;Compound Path&gt;" d="M32.85,44.37H31.37l-.2-.24v-.64l.48-.09.08.37.21-.09-.08-.19.48-.09.09.37.2-.09-.08-.19L33,43.4l.08.82-.26.15Zm-1.27-.88-.32.07.08.57,1.51.17.11-.17v-.64l-.33.07.08.21-.37.08-.08-.36-.32.07.08.21-.37.08-.07-.36Z"/></g><polygon id="_Path_57" data-name="&lt;Path&gt;" class="cls-6" points="32.74 44.35 32.84 46.42 31.44 46.42 31.55 44.34 32.74 44.35 32.74 44.35"/><g id="_Group_28" data-name="&lt;Group&gt;"><path id="_Compound_Path_35" data-name="&lt;Compound Path&gt;" d="M32.91,46.49H31.44l0-2.15,1.28-.07.17,2.22Zm-.25-2.14-1.12.06v2l1.21-.08-.08-2Z"/></g><path id="_Path_58" data-name="&lt;Path&gt;" class="cls-6" d="M33,44.5h.38v.27h.28v-.28H34v.28h.28v-.28h.38v.64a.18.18,0,0,1-.17.18H33.15a.19.19,0,0,1-.18-.18V44.5Z"/><g id="_Group_29" data-name="&lt;Group&gt;"><path id="_Compound_Path_36" data-name="&lt;Compound Path&gt;" d="M34.52,45.38H33.06l-.17-.25V44.5l.46-.09.09.36.19-.07-.07-.21.47-.08.08.36.2-.07-.08-.21.46-.08.09.8-.26.17Zm-1.25-.88-.3.08.08.55,1.47.18.1-.18v-.64l-.31.08.07.2-.35.08L34,44.49l-.32.08.07.2-.35.08-.08-.35Z"/></g><polygon id="_Path_59" data-name="&lt;Path&gt;" class="cls-6" points="34.45 45.31 34.49 46.42 33.17 46.42 33.21 45.31 34.45 45.31"/><g id="_Group_30" data-name="&lt;Group&gt;"><path id="_Compound_Path_37" data-name="&lt;Compound Path&gt;" d="M34.58,46.49H33.17l0-1.2,1.31-.08.13,1.28Zm-.21-1.18-1.16.07,0,1,1.15-.08,0-1Z"/></g><path id="_Path_60" data-name="&lt;Path&gt;" class="cls-6" d="M29.57,44.5H30v.28h.28v-.29h.4v.28h.28v-.29h.39v.64a.18.18,0,0,1-.19.18H29.75a.2.2,0,0,1-.18-.18V44.5Z"/><g id="_Group_31" data-name="&lt;Group&gt;"><path id="_Compound_Path_38" data-name="&lt;Compound Path&gt;" d="M31.12,45.38H29.67l-.17-.25V44.5l.46-.09.08.37.2-.08-.08-.21.48-.08.08.37.2-.08-.08-.21.47-.08.08.8-.27.17Zm-1.24-.88-.31.08.07.55,1.48.18.11-.18v-.64l-.31.08.08.21-.36.08-.08-.36-.32.07.08.21-.36.08-.08-.36Z"/></g><polygon id="_Path_61" data-name="&lt;Path&gt;" class="cls-6" points="31.05 45.31 31.09 46.42 29.79 46.42 29.82 45.31 31.05 45.31"/><g id="_Group_32" data-name="&lt;Group&gt;"><path id="_Compound_Path_39" data-name="&lt;Compound Path&gt;" d="M31.19,46.5h-1.4l-.05-1.21,1.31-.08.14,1.29ZM31,45.31l-1.16.07,0,1L31,46.36l0-1Z"/></g><path id="_Path_62" data-name="&lt;Path&gt;" d="M32,45a.14.14,0,1,1,.27,0v.48H32V45Z"/><path id="_Path_63" data-name="&lt;Path&gt;" d="M33.7,45.71a.13.13,0,1,1,.26,0v.38H33.7v-.38Z"/><path id="_Path_64" data-name="&lt;Path&gt;" d="M30.29,45.71a.14.14,0,1,1,.28,0v.39h-.28v-.39Z"/><path id="_Path_65" data-name="&lt;Path&gt;" class="cls-6" d="M45.87,43.49h.4v.28h.28v-.28H47v.28h.29v-.28h.4v.64a.17.17,0,0,1-.17.17H46.06a.19.19,0,0,1-.19-.17v-.64Z"/><g id="_Group_33" data-name="&lt;Group&gt;"><path id="_Compound_Path_40" data-name="&lt;Compound Path&gt;" d="M47.48,44.38H46l-.19-.25v-.64l.48-.09.08.37.2-.08-.08-.2L47,43.4l.08.37.21-.08-.08-.2.48-.09.08.82-.25.16Zm-1.29-.89-.32.07.09.57,1.52.17.09-.17v-.64l-.32.07.07.21-.36.08-.08-.36-.33.07.08.21-.36.08-.08-.36Z"/></g><polygon id="_Path_66" data-name="&lt;Path&gt;" class="cls-6" points="47.35 44.35 47.44 46.42 46.07 46.42 46.17 44.35 47.35 44.35 47.35 44.35"/><g id="_Group_34" data-name="&lt;Group&gt;"><path id="_Compound_Path_41" data-name="&lt;Compound Path&gt;" d="M47.51,46.49H46.07V44.34l1.27-.06.16,2.21Zm-.24-2.14-1.1.08,0,2,1.21-.08-.08-2Z"/></g><path id="_Path_67" data-name="&lt;Path&gt;" class="cls-6" d="M47.59,44.5H48v.27h.29v-.28h.39v.28h.27v-.28h.4v.64a.16.16,0,0,1-.16.18H47.76a.18.18,0,0,1-.17-.18V44.5Z"/><g id="_Group_35" data-name="&lt;Group&gt;"><path id="_Compound_Path_42" data-name="&lt;Compound Path&gt;" d="M49.14,45.38H47.68l-.18-.25V44.5l.46-.09.08.37.21-.08-.08-.21.47-.08.08.37.19-.08-.07-.21.47-.08.08.8-.25.17Zm-1.25-.88-.3.08.07.55,1.48.18.1-.18v-.64l-.33.08.09.21-.36.08-.08-.37-.31.08.07.21-.36.08-.07-.36Z"/></g><polygon id="_Path_68" data-name="&lt;Path&gt;" class="cls-6" points="49.07 45.31 49.12 46.42 47.79 46.42 47.83 45.31 49.07 45.31"/><g id="_Group_36" data-name="&lt;Group&gt;"><path id="_Compound_Path_43" data-name="&lt;Compound Path&gt;" d="M47.72,46.5l0-1.21,1.31-.08.13,1.21-1.48.08ZM49,45.31l-1.15.07,0,1h1.25l-.14-1Z"/></g><path id="_Path_69" data-name="&lt;Path&gt;" class="cls-6" d="M44.2,44.5h.38v.28h.28V44.5h.39v.28h.27V44.5h.41v.65a.16.16,0,0,1-.16.16H44.37a.18.18,0,0,1-.17-.18V44.5Z"/><g id="_Group_37" data-name="&lt;Group&gt;"><path id="_Compound_Path_44" data-name="&lt;Compound Path&gt;" d="M45.76,45.38H44.3l-.18-.25V44.5l.46-.09.07.37.21-.08-.08-.2.47-.09.08.37.19-.08-.07-.2.47-.09.09.8-.25.17ZM44.5,44.5l-.3.08.08.55,1.48.18.08-.16V44.5l-.32.08.09.2-.36.08-.09-.36-.3.08.09.2-.37.08-.08-.36Z"/></g><polygon id="_Path_70" data-name="&lt;Path&gt;" class="cls-6" points="45.68 45.31 45.71 46.42 44.39 46.42 44.43 45.31 45.68 45.31"/><g id="_Group_38" data-name="&lt;Group&gt;"><path id="_Compound_Path_45" data-name="&lt;Compound Path&gt;" d="M45.79,46.5h-1.4l0-1.19,1.32-.09.11,1.28Zm-.19-1.19-1.16.07,0,1,1.16-.06,0-1Z"/></g><path id="_Path_71" data-name="&lt;Path&gt;" class="cls-6" d="M45.45,49.43a2.22,2.22,0,0,1,1.29-2.2,2.23,2.23,0,0,1,1.35,2.22l-2.64,0Z"/><path id="_Path_72" data-name="&lt;Path&gt;" class="cls-6" d="M44.36,47.27l-.22,2h1.32a1.79,1.79,0,0,1,1.3-1.94,2,2,0,0,1,1.32,1.94h1.31l-.23-2-4.8,0Z"/><g id="_Group_39" data-name="&lt;Group&gt;"><path id="_Compound_Path_46" data-name="&lt;Compound Path&gt;" d="M49.49,49.38H48.08a2.09,2.09,0,0,0-1.33-2,1.79,1.79,0,0,0-1.22,1.88l-1.4.08.15-2.12,4.88-.08.33,2.2Zm-2.88-2.07-2.25,0-.15,1.94,1.24-.08a1.75,1.75,0,0,1,1.16-1.91Zm.27,0a2.08,2.08,0,0,1,1.29,2l1.14-.07-.23-2-2.2,0Z"/></g><path id="_Path_73" data-name="&lt;Path&gt;" class="cls-6" d="M44,49.3h5.43c.11,0,.2.13.2.26a.23.23,0,0,1-.2.25H44a.23.23,0,0,1-.19-.25c0-.13.09-.26.19-.26Z"/><g id="_Group_40" data-name="&lt;Group&gt;"><path id="_Compound_Path_47" data-name="&lt;Compound Path&gt;" d="M49.47,49.89H44a.34.34,0,0,1,0-.66h5.43a.33.33,0,0,1,0,.66ZM44,49.38v.35h5.43c.07,0,.12-.07.12-.17L44,49.38Z"/></g><path id="_Path_74" data-name="&lt;Path&gt;" class="cls-6" d="M46,49.3a1.41,1.41,0,0,1,.71-1.37,1.45,1.45,0,0,1,.76,1.37Z"/><g id="_Group_41" data-name="&lt;Group&gt;"><path id="_Compound_Path_48" data-name="&lt;Compound Path&gt;" d="M47.58,49.38H46c-.09-1.18.65-1.51.69-1.52a1.44,1.44,0,0,1,.86,1.44v.08ZM46.72,48a1.41,1.41,0,0,0-.61,1.29l1.31-.07a1.34,1.34,0,0,0-.7-1.22Z"/></g><path id="_Path_75" data-name="&lt;Path&gt;" class="cls-6" d="M44.17,46.43h5.19a.22.22,0,0,1,.2.23.2.2,0,0,1-.2.21H44.17a.21.21,0,0,1-.21-.21.22.22,0,0,1,.21-.23Z"/><g id="_Group_42" data-name="&lt;Group&gt;"><path id="_Compound_Path_49" data-name="&lt;Compound Path&gt;" d="M49.36,47h-5.2a.29.29,0,0,1-.27-.3.28.28,0,0,1,.27-.3h5.2a.28.28,0,0,1,.28.3.3.3,0,0,1-.28.3Zm-5.2-.45v.29h5.2a.14.14,0,0,0,.12-.14l-5.32-.15Z"/></g><path id="_Path_76" data-name="&lt;Path&gt;" class="cls-6" d="M44.28,46.87h5c.11,0,.19.1.19.24a.2.2,0,0,1-.19.22h-5a.21.21,0,0,1-.2-.22.22.22,0,0,1,.2-.24Z"/><g id="_Group_43" data-name="&lt;Group&gt;"><path id="_Compound_Path_50" data-name="&lt;Compound Path&gt;" d="M49.24,47.42h-5a.31.31,0,0,1-.28-.31.3.3,0,0,1,.28-.31h5a.29.29,0,0,1,.27.31.3.3,0,0,1-.27.31Zm-5-.46v.29h5c.07,0,.11-.06.11-.14L44.28,47Z"/></g><path id="_Path_77" data-name="&lt;Path&gt;" d="M46.63,45a.14.14,0,1,1,.27,0v.49h-.27V45Z"/><path id="_Path_78" data-name="&lt;Path&gt;" d="M48.32,45.71a.13.13,0,1,1,.26,0v.39h-.26v-.39Z"/><path id="_Path_79" data-name="&lt;Path&gt;" d="M44.92,45.72a.13.13,0,1,1,.26,0v.38h-.26v-.38Z"/><path id="_Path_80" data-name="&lt;Path&gt;" class="cls-6" d="M60.33,43.5h.4v.28H61v-.29h.41v.29h.27v-.29h.4v.65a.16.16,0,0,1-.17.16H60.51a.18.18,0,0,1-.18-.16V43.5Z"/><g id="_Group_44" data-name="&lt;Group&gt;"><path id="_Compound_Path_51" data-name="&lt;Compound Path&gt;" d="M61.92,44.38H60.44l-.19-.24V43.5l.48-.09.06.37.22-.07-.08-.22.49-.08.08.37.19-.07-.08-.22.48-.08.08.81-.25.16Zm-1.27-.88-.32.07.08.57,1.51.16.1-.16v-.65l-.33.08.09.21-.36.08-.08-.37-.33.08.08.21-.36.08-.08-.36Z"/></g><polygon id="_Path_81" data-name="&lt;Path&gt;" class="cls-6" points="61.82 44.35 61.91 46.42 60.53 46.42 60.61 44.35 61.82 44.35"/><g id="_Group_45" data-name="&lt;Group&gt;"><path id="_Compound_Path_52" data-name="&lt;Compound Path&gt;" d="M62,46.51H60.53V44.35l1.29-.07L62,46.51Zm-.26-2.16-1.12.09v2l1.21-.07-.09-2Z"/></g><path id="_Path_82" data-name="&lt;Path&gt;" class="cls-6" d="M62,44.52h.4v.27h.27V44.5h.39v.29h.28V44.5h.4v.65a.15.15,0,0,1-.16.16H62.22a.17.17,0,0,1-.17-.16l0-.63Z"/><g id="_Group_46" data-name="&lt;Group&gt;"><path id="_Compound_Path_53" data-name="&lt;Compound Path&gt;" d="M63.61,45.4H62.14L62,45.15v-.63l.47-.09.07.36.2-.09-.09-.2.48-.09.09.38.19-.09-.07-.2.47-.09.08.81-.24.18Zm-1.26-.88-.32.07.09.56,1.49.16.08-.16V44.5l-.32.08.09.21-.37.07L63,44.5l-.31.08.08.21-.35.07-.08-.34Z"/></g><polygon id="_Path_83" data-name="&lt;Path&gt;" class="cls-6" points="63.53 45.31 63.57 46.42 62.24 46.42 62.28 45.31 63.53 45.31"/><g id="_Group_47" data-name="&lt;Group&gt;"><path id="_Compound_Path_54" data-name="&lt;Compound Path&gt;" d="M63.64,46.51h-1.4l0-1.2,1.32-.09.11,1.29Zm-.2-1.2-1.15.09,0,1,1.15-.07,0-1Z"/></g><path id="_Path_84" data-name="&lt;Path&gt;" class="cls-6" d="M58.65,44.52H59v.27h.29v-.27h.38v.27H60v-.27h.38v.63a.17.17,0,0,1-.18.18H58.83a.19.19,0,0,1-.18-.18v-.63Z"/><g id="_Group_48" data-name="&lt;Group&gt;"><path id="_Compound_Path_55" data-name="&lt;Compound Path&gt;" d="M60.2,45.4H58.75l-.18-.25v-.63l.46-.09.08.36.21-.08-.08-.19.46-.09.08.36.22-.08-.09-.19.47-.09.08.79-.26.18ZM59,44.52l-.31.07.08.56,1.47.18.1-.18v-.63l-.3.07.07.2-.37.08-.08-.35-.3.07.06.2-.35.08L59,44.52Z"/></g><polygon id="_Path_85" data-name="&lt;Path&gt;" class="cls-6" points="60.13 45.33 60.18 46.43 58.85 46.43 58.9 45.33 60.13 45.33"/><g id="_Group_49" data-name="&lt;Group&gt;"><path id="_Compound_Path_56" data-name="&lt;Compound Path&gt;" d="M60.26,46.51H58.85l-.05-1.2,1.33-.09.13,1.29Zm-.21-1.18-1.15.07,0,1,1.15-.07,0-1Z"/></g><path id="_Path_86" data-name="&lt;Path&gt;" class="cls-6" d="M59.89,49.43a2.22,2.22,0,0,1,1.3-2.18,2.19,2.19,0,0,1,1.35,2.2l-2.65,0Z"/><path id="_Path_87" data-name="&lt;Path&gt;" class="cls-6" d="M58.8,47.27l-.2,2h1.31a1.82,1.82,0,0,1,1.31-2,2,2,0,0,1,1.3,2h1.33l-.23-2Z"/><g id="_Group_50" data-name="&lt;Group&gt;"><path id="_Compound_Path_57" data-name="&lt;Compound Path&gt;" d="M64,49.38H62.52a2.06,2.06,0,0,0-1.3-2A1.75,1.75,0,0,0,60,49.31l-1.4.07.13-2.11,4.89-.08L64,49.38Zm-2.88-2.06-2.27,0-.13,2,1.24-.08a1.76,1.76,0,0,1,1.16-1.91Zm.25,0a2,2,0,0,1,1.28,2l1.16-.07-.22-2-2.22,0Z"/></g><path id="_Path_88" data-name="&lt;Path&gt;" class="cls-6" d="M58.5,49.31h5.42a.24.24,0,0,1,.21.26.23.23,0,0,1-.21.25H58.5c-.12,0-.2-.11-.2-.25s.08-.26.2-.26Z"/><g id="_Group_51" data-name="&lt;Group&gt;"><path id="_Compound_Path_58" data-name="&lt;Compound Path&gt;" d="M63.92,49.9H58.5a.31.31,0,0,1-.28-.33.31.31,0,0,1,.28-.34h5.42a.34.34,0,0,1,0,.67Zm-5.42-.51v.36h5.42c.07,0,.13-.09.13-.18l-5.55-.18Z"/></g><path id="_Path_89" data-name="&lt;Path&gt;" class="cls-6" d="M60.47,49.3A1.39,1.39,0,0,1,61.19,48,1.4,1.4,0,0,1,62,49.3Z"/><g id="_Group_52" data-name="&lt;Group&gt;"><path id="_Compound_Path_59" data-name="&lt;Compound Path&gt;" d="M62,49.38H60.47c-.07-1.17.66-1.51.7-1.51A1.39,1.39,0,0,1,62,49.31v.07ZM61.17,48a1.49,1.49,0,0,0-.62,1.28l1.32-.07a1.35,1.35,0,0,0-.7-1.21Z"/></g><path id="_Path_90" data-name="&lt;Path&gt;" class="cls-6" d="M58.62,46.43h5.2a.22.22,0,0,1,.19.24.2.2,0,0,1-.19.21h-5.2a.21.21,0,0,1-.2-.21.23.23,0,0,1,.2-.24Z"/><g id="_Group_53" data-name="&lt;Group&gt;"><path id="_Compound_Path_60" data-name="&lt;Compound Path&gt;" d="M63.82,47h-5.2a.29.29,0,0,1-.28-.29.29.29,0,0,1,.28-.31h5.2a.28.28,0,0,1,.26.31.27.27,0,0,1-.26.29Zm-5.2-.45v.3h5.2a.13.13,0,0,0,.12-.14l-5.32-.16Z"/></g><path id="_Path_91" data-name="&lt;Path&gt;" class="cls-6" d="M58.72,46.88h5a.22.22,0,0,1,.19.23.2.2,0,0,1-.19.22h-5a.2.2,0,0,1-.19-.22.22.22,0,0,1,.19-.23Z"/><g id="_Group_54" data-name="&lt;Group&gt;"><path id="_Compound_Path_61" data-name="&lt;Compound Path&gt;" d="M63.7,47.42h-5a.29.29,0,0,1-.26-.31.28.28,0,0,1,.26-.3h5a.28.28,0,0,1,.27.3.3.3,0,0,1-.27.31Zm-5-.46v.29h5a.13.13,0,0,0,.11-.14L58.72,47Z"/></g><path id="_Path_92" data-name="&lt;Path&gt;" d="M61.07,45a.15.15,0,1,1,.29,0v.5h-.29V45Z"/><path id="_Path_93" data-name="&lt;Path&gt;" d="M62.77,45.73a.14.14,0,1,1,.27,0v.37h-.27v-.37Z"/><path id="_Path_94" data-name="&lt;Path&gt;" d="M59.36,45.73a.15.15,0,1,1,.29,0v.38h-.29v-.38Z"/><path id="_Path_95" data-name="&lt;Path&gt;" class="cls-6" d="M31.28,58.31h.37v.29h.29v-.3h.42v.3h.27v-.3H33V59a.17.17,0,0,1-.19.16H31.44a.16.16,0,0,1-.16-.16v-.64Z"/><g id="_Group_55" data-name="&lt;Group&gt;"><path id="_Compound_Path_62" data-name="&lt;Compound Path&gt;" d="M32.85,59.18H31.37L31.19,59v-.64l.46-.09.08.38.21-.08-.07-.22.49-.08.07.38.2-.08-.07-.22.48-.08.07.8-.26.16Zm-1.27-.87-.3.07.07.57,1.5.16L33,59V58.3l-.33.08.08.22-.35.06-.09-.36-.33.08.08.22-.37.06-.07-.35Z"/></g><polygon id="_Path_96" data-name="&lt;Path&gt;" class="cls-6" points="32.74 59.16 32.84 61.23 31.46 61.23 31.55 59.16 32.75 59.16 32.74 59.16"/><g id="_Group_56" data-name="&lt;Group&gt;"><path id="_Compound_Path_63" data-name="&lt;Compound Path&gt;" d="M32.92,61.31H31.46V59.16l1.28-.07.18,2.22Zm-.25-2.15-1.13.08v2l1.22-.07-.09-2Z"/></g><path id="_Path_97" data-name="&lt;Path&gt;" class="cls-6" d="M33,59.31h.37v.29h.28v-.29H34v.29h.28v-.29h.4V60a.17.17,0,0,1-.18.16H33.15A.17.17,0,0,1,33,60v-.65Z"/><g id="_Group_57" data-name="&lt;Group&gt;"><path id="_Compound_Path_64" data-name="&lt;Compound Path&gt;" d="M34.53,60.19H33.08L32.9,60v-.65l.45-.07.09.36.19-.09-.07-.2.47-.08.08.37.2-.09-.06-.2.46-.08.07.8-.25.16Zm-1.25-.88-.3.08.07.57,1.48.16.11-.16v-.65l-.33.08.07.21-.35.07L34,59.31l-.33.08.09.21-.37.07-.07-.36Z"/></g><polygon id="_Path_98" data-name="&lt;Path&gt;" class="cls-6" points="34.46 60.12 34.51 61.23 33.17 61.23 33.21 60.12 34.46 60.12"/><g id="_Group_58" data-name="&lt;Group&gt;"><path id="_Compound_Path_65" data-name="&lt;Compound Path&gt;" d="M34.58,61.3H33.17l0-1.18L34.46,60l.12,1.26Zm-.2-1.18-1.17.07,0,1,1.16-.07,0-1Z"/></g><path id="_Path_99" data-name="&lt;Path&gt;" class="cls-6" d="M29.58,59.33H30v.27h.29v-.29h.39v.29h.28v-.29h.39V60a.16.16,0,0,1-.17.16H29.76a.18.18,0,0,1-.18-.16v-.63Z"/><g id="_Group_59" data-name="&lt;Group&gt;"><path id="_Compound_Path_66" data-name="&lt;Compound Path&gt;" d="M31.15,60.2H29.69L29.52,60v-.63l.44-.09.08.36.21-.07-.08-.22.47-.07.08.36.21-.07-.08-.22.46-.07.08.8-.24.16Zm-1.26-.87-.31.06.07.57,1.5.16.09-.16v-.65l-.31.08.07.21-.36.08-.07-.37-.32.08.07.21-.36.08-.07-.35Z"/></g><polygon id="_Path_100" data-name="&lt;Path&gt;" class="cls-6" points="31.07 60.12 31.12 61.24 29.79 61.24 29.82 60.12 31.07 60.12"/><g id="_Group_60" data-name="&lt;Group&gt;"><path id="_Compound_Path_67" data-name="&lt;Compound Path&gt;" d="M31.19,61.31h-1.4l0-1.19L31.07,60l.12,1.27ZM31,60.12l-1.18.08.05,1L31,61.17l0-1.05Z"/></g><path id="_Path_101" data-name="&lt;Path&gt;" class="cls-6" d="M30.82,64.25a2.23,2.23,0,0,1,1.3-2.19,2.16,2.16,0,0,1,1.37,2.2Z"/><path id="_Path_102" data-name="&lt;Path&gt;" class="cls-6" d="M29.75,62.09l-.22,2h1.32a1.81,1.81,0,0,1,1.3-2,1.94,1.94,0,0,1,1.31,2h1.33l-.23-2Z"/><g id="_Group_61" data-name="&lt;Group&gt;"><path id="_Compound_Path_68" data-name="&lt;Compound Path&gt;" d="M34.88,64.19H33.46a2.05,2.05,0,0,0-1.32-1.95,1.74,1.74,0,0,0-1.21,1.88l-1.4.07.14-2.11L34.56,62l.32,2.2ZM32,62.12l-2.25,0-.15,2L30.85,64A1.77,1.77,0,0,1,32,62.12Zm.26,0a2,2,0,0,1,1.28,2L34.69,64l-.21-2-2.22,0Z"/></g><path id="_Path_103" data-name="&lt;Path&gt;" class="cls-6" d="M29.44,64.12h5.42a.23.23,0,0,1,.2.25.24.24,0,0,1-.2.26H29.44a.24.24,0,0,1-.21-.26.23.23,0,0,1,.21-.25Z"/><g id="_Group_62" data-name="&lt;Group&gt;"><path id="_Compound_Path_69" data-name="&lt;Compound Path&gt;" d="M34.86,64.71H29.44a.34.34,0,0,1,0-.67h5.42a.31.31,0,0,1,.29.33.32.32,0,0,1-.29.34Zm-5.42-.52v.35h5.42c.07,0,.13-.07.13-.17l-5.55-.18Z"/></g><path id="_Path_104" data-name="&lt;Path&gt;" class="cls-6" d="M31.4,64.11a1.41,1.41,0,0,1,.74-1.36,1.44,1.44,0,0,1,.76,1.36Z"/><g id="_Group_63" data-name="&lt;Group&gt;"><path id="_Compound_Path_70" data-name="&lt;Compound Path&gt;" d="M33,64.19H31.4c-.06-1.17.66-1.51.74-1.51A1.43,1.43,0,0,1,33,64.12v.07Zm-.87-1.36a1.45,1.45,0,0,0-.62,1.28L32.82,64a1.36,1.36,0,0,0-.71-1.21Z"/></g><path id="_Path_105" data-name="&lt;Path&gt;" class="cls-6" d="M29.55,61.24h5.2a.21.21,0,0,1,.19.22c0,.14-.08.23-.19.23h-5.2a.21.21,0,0,1-.2-.23.22.22,0,0,1,.2-.22Z"/><g id="_Group_64" data-name="&lt;Group&gt;"><path id="_Compound_Path_71" data-name="&lt;Compound Path&gt;" d="M34.75,61.78h-5.2a.3.3,0,0,1-.28-.32.29.29,0,0,1,.28-.3h5.2a.29.29,0,0,1,.27.3.3.3,0,0,1-.27.32Zm-5.2-.46v.28h5.2a.13.13,0,0,0,.12-.14l-5.32-.14Z"/></g><path id="_Path_106" data-name="&lt;Path&gt;" class="cls-6" d="M29.67,61.69h4.95a.23.23,0,0,1,0,.46H29.67a.21.21,0,0,1-.2-.23.21.21,0,0,1,.2-.23Z"/><g id="_Group_65" data-name="&lt;Group&gt;"><path id="_Compound_Path_72" data-name="&lt;Compound Path&gt;" d="M34.62,62.23H29.67a.3.3,0,0,1-.28-.31.32.32,0,0,1,.28-.32h4.95a.31.31,0,0,1,.28.32.29.29,0,0,1-.28.31Zm-4.95-.45v.28h4.95a.13.13,0,0,0,.12-.14l-5.07-.14Z"/></g><path id="_Path_107" data-name="&lt;Path&gt;" d="M32,59.82a.14.14,0,1,1,.28,0v.49H32v-.49Z"/><path id="_Path_108" data-name="&lt;Path&gt;" d="M33.7,60.54a.14.14,0,1,1,.27,0v.37H33.7v-.37Z"/><path id="_Path_109" data-name="&lt;Path&gt;" d="M30.31,60.54a.13.13,0,1,1,.26,0v.37h-.26v-.37Z"/><path id="_Path_110" data-name="&lt;Path&gt;" class="cls-6" d="M59.49,73.94l.27.29-.2.19.2.19.2-.19.28.28-.19.2.2.21.19-.2.3.29-.46.45a.18.18,0,0,1-.24,0l-1-1a.18.18,0,0,1,0-.25l.45-.45Z"/><g id="_Group_66" data-name="&lt;Group&gt;"><path id="_Compound_Path_73" data-name="&lt;Compound Path&gt;" d="M60.17,75.77,60,75.69l-1-1,0-.3.46-.45.4.28-.2.3.2.08.09-.18.39.28-.2.31.21.1.08-.21.4.28-.62.64ZM59.42,74l-.34.44,1.09,1.25.06-.11.45-.45L60.39,75l-.08.19L60,75l.19-.31-.28-.18-.09.2-.32-.2.2-.3L59.42,74Z"/></g><polygon id="_Path_111" data-name="&lt;Path&gt;" class="cls-6" points="59.91 75.6 58.53 77.12 57.55 76.15 59.08 74.74 59.91 75.6"/><g id="_Group_67" data-name="&lt;Group&gt;"><path id="_Compound_Path_74" data-name="&lt;Compound Path&gt;" d="M58.53,77.24l-1-1L59,74.69l.94.85-1.44,1.7Zm.5-2.43L57.6,76.2l.92.81,1.34-1.47L59,74.81Z"/></g><path id="_Path_112" data-name="&lt;Path&gt;" class="cls-6" d="M60,75.87l.27.27-.19.19.19.2.2-.2.29.27-.2.21.2.2.19-.2.28.28-.44.45a.18.18,0,0,1-.25,0l-1-1a.2.2,0,0,1,0-.25l.45-.44Z"/><g id="_Group_68" data-name="&lt;Group&gt;"><path id="_Compound_Path_75" data-name="&lt;Compound Path&gt;" d="M60.63,77.67l-.19-.08-1-1,0-.3.44-.45.39.27-.2.31.2.09.09-.2.4.28-.21.31.21.08.08-.2.4.29-.64.63Zm-.72-1.75-.32.45,1,1.22,0-.11.47-.44-.28-.17-.08.2-.32-.2.2-.31-.28-.18-.09.21-.3-.2.19-.31-.28-.16Z"/></g><polygon id="_Path_113" data-name="&lt;Path&gt;" class="cls-6" points="60.44 77.48 59.7 78.3 58.77 77.37 59.58 76.6 60.44 77.48 60.44 77.48"/><g id="_Group_69" data-name="&lt;Group&gt;"><path id="_Compound_Path_76" data-name="&lt;Compound Path&gt;" d="M59.7,78.41l-1-1,.82-.88,1,.88-.81,1Zm-.18-1.75-.69.76.87.76.69-.76-.87-.76Z"/></g><path id="_Path_114" data-name="&lt;Path&gt;" class="cls-6" d="M57.56,73.46l.28.27-.19.21.19.2.21-.2.27.27-.19.2.19.2.21-.21.27.29-.45.46a.2.2,0,0,1-.24,0l-1-1a.17.17,0,0,1,0-.24l.43-.46Z"/><g id="_Group_70" data-name="&lt;Group&gt;"><path id="_Compound_Path_77" data-name="&lt;Compound Path&gt;" d="M58.23,75.27l-.17-.07-1-1v-.32l.45-.46.38.28-.19.32.19.08.09-.2.39.27-.2.32.2.07.08-.19.41.28-.64.64Zm-.71-1.75-.33.46,1,1.22.06-.11.46-.46-.29-.17-.08.21-.31-.2.2-.32L58,74l-.09.19-.31-.2.2-.31-.27-.16Z"/></g><polygon id="_Path_115" data-name="&lt;Path&gt;" class="cls-6" points="58.06 75.09 57.3 75.91 56.37 74.97 57.17 74.21 58.06 75.09"/><g id="_Group_71" data-name="&lt;Group&gt;"><path id="_Compound_Path_78" data-name="&lt;Compound Path&gt;" d="M57.3,76l-1-1,.82-.89,1,.89-.81,1Zm-.18-1.75-.71.77.89.76L58,75l-.87-.77Z"/></g><path id="_Path_116" data-name="&lt;Path&gt;" class="cls-6" d="M55,77.83a2.19,2.19,0,0,1,2.46-.63,2.2,2.2,0,0,1-.6,2.53L55,77.83Z"/><path id="_Path_117" data-name="&lt;Path&gt;" class="cls-6" d="M55.74,75.53l-1.6,1.3.93.93a1.81,1.81,0,0,1,2.32-.46,2,2,0,0,1-.47,2.3l.94,1,1.28-1.63-3.4-3.39Z"/><g id="_Group_72" data-name="&lt;Group&gt;"><path id="_Compound_Path_79" data-name="&lt;Compound Path&gt;" d="M57.88,80.66l-1-1a2.1,2.1,0,0,0,.45-2.32h0a1.69,1.69,0,0,0-.76-.18,2,2,0,0,0-1.43.65l-1-.92,1.6-1.41,3.51,3.39-1.32,1.79Zm-.38-3.31a2.07,2.07,0,0,1,.15.6A2.17,2.17,0,0,1,57,79.66l.88.77,1.22-1.56L57.5,77.35Zm-1.82-1.76-1.49,1.3.94.81a2,2,0,0,1,2.17-.54l-1.62-1.57Z"/></g><path id="_Path_118" data-name="&lt;Path&gt;" class="cls-6" d="M54.08,76.77l3.83,3.83a.24.24,0,0,1,0,.32.25.25,0,0,1-.33,0l-3.83-3.84a.23.23,0,0,1,0-.33.22.22,0,0,1,.32,0Z"/><g id="_Group_73" data-name="&lt;Group&gt;"><path id="_Compound_Path_80" data-name="&lt;Compound Path&gt;" d="M57.69,81.09,57.5,81l-3.84-3.83a.34.34,0,0,1,0-.44l.25-.11,4,3.91a.3.3,0,0,1,0,.43l-.25.12Zm-3.91-4,3.91,4,.14-.13-3.81-4-.3.29.06-.07Z"/></g><path id="_Path_119" data-name="&lt;Path&gt;" class="cls-6" d="M55.47,78.15A1.39,1.39,0,0,1,57,77.71a1.4,1.4,0,0,1-.42,1.48l-1.06-1Z"/><g id="_Group_74" data-name="&lt;Group&gt;"><path id="_Compound_Path_81" data-name="&lt;Compound Path&gt;" d="M56.53,79.31,55.42,78.2c.81-1,1.54-.58,1.56-.58a1.43,1.43,0,0,1-.39,1.63l-.06.06Zm.06-1.58a1.48,1.48,0,0,0-1.05.47l1,.88a1.34,1.34,0,0,0,.36-1.34s-.11,0-.29,0Z"/></g><path id="_Path_120" data-name="&lt;Path&gt;" class="cls-6" d="M56.19,74.81l3.67,3.67a.21.21,0,0,1,0,.3.23.23,0,0,1-.31,0l-3.67-3.68a.21.21,0,0,1,0-.29.22.22,0,0,1,.31,0Z"/><g id="_Group_75" data-name="&lt;Group&gt;"><path id="_Compound_Path_82" data-name="&lt;Compound Path&gt;" d="M59.69,78.94l-.2-.08-3.67-3.68a.29.29,0,0,1,0-.4l.42,0,3.68,3.69a.32.32,0,0,1,0,.4l-.22.11Zm-3.56-4.08-.19.21,3.75,3.78.1-.12-3.66-3.87Z"/></g><path id="_Path_121" data-name="&lt;Path&gt;" class="cls-6" d="M56,75.2l3.52,3.51a.22.22,0,0,1,0,.3.21.21,0,0,1-.29,0l-3.51-3.51a.21.21,0,0,1,0-.29c.09-.08.22-.11.29,0Z"/><g id="_Group_76" data-name="&lt;Group&gt;"><path id="_Compound_Path_83" data-name="&lt;Compound Path&gt;" d="M59.27,79.16l-.19-.08-3.51-3.5a.3.3,0,0,1,0-.41l.41,0,3.51,3.51a.3.3,0,0,1,0,.41l-.23.09Zm-3.37-3.9-.21.19,3.58,3.63.11-.11L55.9,75.26Z"/></g><path id="_Path_122" data-name="&lt;Path&gt;" d="M59,75.5c.12-.15.32,0,.18.19l-.34.36-.19-.2L59,75.5Z"/><path id="_Path_123" data-name="&lt;Path&gt;" d="M59.63,77.2a.14.14,0,1,1,.19.19l-.26.27-.2-.19.27-.27Z"/><path id="_Path_124" data-name="&lt;Path&gt;" d="M57.22,74.79a.14.14,0,1,1,.2.2l-.27.26-.2-.19.27-.27Z"/><path id="_Path_125" data-name="&lt;Path&gt;" class="cls-6" d="M60.32,58.31h.39v.29H61v-.29h.4v.29h.29v-.29h.4V59a.19.19,0,0,1-.17.18H60.49a.18.18,0,0,1-.17-.18v-.64Z"/><g id="_Group_77" data-name="&lt;Group&gt;"><path id="_Compound_Path_84" data-name="&lt;Compound Path&gt;" d="M61.91,59.19h-1.5L60.24,59v-.64l.47-.09.08.38.2-.09-.09-.2.49-.09.09.38.2-.09-.09-.2.49-.09.08.81-.25.16Zm-1.29-.88-.3.08.07.56,1.52.18L62,59v-.64l-.31.07.07.22-.36.07-.08-.36-.32.07.08.22-.36.07-.09-.36Z"/></g><polygon id="_Path_126" data-name="&lt;Path&gt;" class="cls-6" points="61.79 59.18 61.88 61.24 60.51 61.23 60.59 59.16 61.79 59.18"/><g id="_Group_78" data-name="&lt;Group&gt;"><path id="_Compound_Path_85" data-name="&lt;Compound Path&gt;" d="M62,61.31H60.51V59.16l1.27-.07L62,61.31Zm-.25-2.13-1.12.06v2l1.21-.07-.09-2Z"/></g><path id="_Path_127" data-name="&lt;Path&gt;" class="cls-6" d="M62,59.33h.39v.27h.26v-.29h.4v.29h.29v-.29h.38V60a.16.16,0,0,1-.16.16H62.2A.18.18,0,0,1,62,60v-.63Z"/><g id="_Group_79" data-name="&lt;Group&gt;"><path id="_Compound_Path_86" data-name="&lt;Compound Path&gt;" d="M63.58,60.2H62.12L61.94,60v-.63l.47-.09.08.36.18-.09-.07-.2.47-.08.09.37.2-.09-.09-.2.47-.08.09.81-.25.16Zm-1.25-.87-.31.06.07.57,1.49.16.08-.16v-.65l-.3.08.07.21-.36.08L63,59.31l-.32.08.08.21-.34.08-.08-.35Z"/></g><polygon id="_Path_128" data-name="&lt;Path&gt;" class="cls-6" points="63.5 60.12 63.54 61.24 62.22 61.24 62.25 60.12 63.5 60.12"/><g id="_Group_80" data-name="&lt;Group&gt;"><path id="_Compound_Path_87" data-name="&lt;Compound Path&gt;" d="M63.62,61.31h-1.4l0-1.19L63.5,60l.12,1.27Zm-.2-1.19-1.17.08,0,1,1.16-.08,0-1Z"/></g><path id="_Path_129" data-name="&lt;Path&gt;" class="cls-6" d="M58.63,59.33H59v.27h.29v-.29h.39v.29H60v-.29h.39V60a.16.16,0,0,1-.18.16H58.8a.16.16,0,0,1-.17-.16v-.63Z"/><g id="_Group_81" data-name="&lt;Group&gt;"><path id="_Compound_Path_88" data-name="&lt;Compound Path&gt;" d="M60.18,60.2H58.72L58.55,60v-.63l.45-.09.08.36.21-.09-.08-.2.47-.08.08.37.21-.09-.08-.2.47-.08.08.81-.26.16Zm-1.24-.87-.31.06.07.57,1.48.16.1-.16v-.65l-.31.08.08.21-.37.08-.07-.37-.32.08.07.21-.36.08-.06-.35Z"/></g><polygon id="_Path_130" data-name="&lt;Path&gt;" class="cls-6" points="60.1 60.12 60.16 61.24 58.83 61.24 58.87 60.12 60.1 60.12"/><g id="_Group_82" data-name="&lt;Group&gt;"><path id="_Compound_Path_89" data-name="&lt;Compound Path&gt;" d="M58.75,61.32l0-1.2L60.11,60l.13,1.19-1.49.09ZM60,60.12l-1.16.08,0,1h1.25l-.13-1Z"/></g><path id="_Path_131" data-name="&lt;Path&gt;" class="cls-6" d="M59.88,64.25a2.2,2.2,0,0,1,1.29-2.19,2.19,2.19,0,0,1,1.35,2.2Z"/><path id="_Path_132" data-name="&lt;Path&gt;" class="cls-6" d="M58.79,62.09l-.22,2h1.32a1.82,1.82,0,0,1,1.3-2,2,2,0,0,1,1.31,2h1.33l-.23-2Z"/><g id="_Group_83" data-name="&lt;Group&gt;"><path id="_Compound_Path_90" data-name="&lt;Compound Path&gt;" d="M63.92,64.19H62.5a2.06,2.06,0,0,0-1.31-1.95A1.78,1.78,0,0,0,60,64.12l-1.4.07.13-2.11L63.58,62l.34,2.19Zm-2.86-2.06-2.27,0-.14,2L59.89,64a1.73,1.73,0,0,1,1.17-1.91Zm.26,0a2,2,0,0,1,1.26,2l1.15-.07-.22-2-2.19,0Z"/></g><path id="_Path_133" data-name="&lt;Path&gt;" class="cls-6" d="M58.48,64.13H63.9a.25.25,0,0,1,.21.26.24.24,0,0,1-.21.24H58.48a.24.24,0,0,1-.21-.24.25.25,0,0,1,.21-.26Z"/><g id="_Group_84" data-name="&lt;Group&gt;"><path id="_Compound_Path_91" data-name="&lt;Compound Path&gt;" d="M63.9,64.71H58.48a.33.33,0,0,1,0-.66H63.9a.33.33,0,0,1,0,.66Zm-5.42-.5v.33H63.9a.15.15,0,0,0,.14-.15l-5.56-.18Z"/></g><path id="_Path_134" data-name="&lt;Path&gt;" class="cls-6" d="M60.44,64.12a1.4,1.4,0,0,1,.74-1.36,1.45,1.45,0,0,1,.76,1.36Z"/><g id="_Group_85" data-name="&lt;Group&gt;"><path id="_Compound_Path_92" data-name="&lt;Compound Path&gt;" d="M62,64.19H60.44c-.06-1.18.67-1.5.71-1.51A1.42,1.42,0,0,1,62,64.12v.07Zm-.87-1.36a1.47,1.47,0,0,0-.62,1.29L61.84,64a1.29,1.29,0,0,0-.69-1.21Z"/></g><path id="_Path_135" data-name="&lt;Path&gt;" class="cls-6" d="M58.6,61.24h5.2a.22.22,0,0,1,.19.22.21.21,0,0,1-.19.23H58.6a.22.22,0,0,1-.21-.23.23.23,0,0,1,.21-.22Z"/><g id="_Group_86" data-name="&lt;Group&gt;"><path id="_Compound_Path_93" data-name="&lt;Compound Path&gt;" d="M63.8,61.78H58.6a.32.32,0,0,1-.29-.32.3.3,0,0,1,.29-.29h5.2a.28.28,0,0,1,.27.29.3.3,0,0,1-.27.32Zm-5.2-.45v.27h5.2c.07,0,.11-.06.11-.14l-5.31-.13Z"/></g><path id="_Path_136" data-name="&lt;Path&gt;" class="cls-6" d="M58.7,61.69h5a.22.22,0,0,1,.2.24.21.21,0,0,1-.2.22h-5a.2.2,0,0,1-.18-.22c0-.13.08-.24.18-.24Z"/><g id="_Group_87" data-name="&lt;Group&gt;"><path id="_Compound_Path_94" data-name="&lt;Compound Path&gt;" d="M63.66,62.23h-5a.29.29,0,0,1-.27-.3.31.31,0,0,1,.27-.33h5a.32.32,0,0,1,.29.33.3.3,0,0,1-.29.3Zm-5-.45v.3h5c.07,0,.12-.08.12-.15l-5.08-.15Z"/></g><path id="_Path_137" data-name="&lt;Path&gt;" d="M61.06,59.82c0-.19.28-.2.28,0v.51h-.28v-.51Z"/><path id="_Path_138" data-name="&lt;Path&gt;" d="M62.75,60.54a.14.14,0,1,1,.27,0v.37h-.27v-.37Z"/><path id="_Path_139" data-name="&lt;Path&gt;" d="M59.36,60.54c0-.2.26-.2.25,0v.39h-.25v-.39Z"/><path id="_Path_140" data-name="&lt;Path&gt;" class="cls-6" d="M32.7,75.17,33,74.9l.19.19.21-.2-.21-.2.29-.29.21.21.2-.21-.2-.21.28-.28.45.46a.16.16,0,0,1,0,.24l-1,1a.18.18,0,0,1-.25,0l-.45-.45Z"/><g id="_Group_88" data-name="&lt;Group&gt;"><path id="_Compound_Path_95" data-name="&lt;Compound Path&gt;" d="M33.26,75.75l-.18-.08-.44-.44.28-.39.3.19.1-.2-.2-.09.3-.39.31.19.08-.2-.2-.09.28-.39.63.51-.07.3-1.19,1.08Zm-.34-.8-.16.28.5.43.08-.12,1-1L33.89,74l-.16.28.19.09-.19.33-.31-.21-.2.28.22.09-.22.32-.3-.2Z"/></g><polygon id="_Path_141" data-name="&lt;Path&gt;" class="cls-6" points="34.35 74.73 35.87 76.14 34.9 77.1 33.51 75.58 34.35 74.73"/><g id="_Group_89" data-name="&lt;Group&gt;"><path id="_Compound_Path_96" data-name="&lt;Compound Path&gt;" d="M34.9,77.22l-1.45-1.6.85-1,1.63,1.4-1,1.15Zm-.6-2.43-.74.85L34.9,77l.91-.9L34.3,74.79Z"/></g><path id="_Path_142" data-name="&lt;Path&gt;" class="cls-6" d="M34.62,74.67l.28-.27.19.2.2-.2-.21-.2.29-.27.2.19.2-.19-.2-.21.28-.27.45.46a.15.15,0,0,1,0,.23l-1,1a.17.17,0,0,1-.25,0l-.44-.45Z"/><g id="_Group_90" data-name="&lt;Group&gt;"><path id="_Compound_Path_97" data-name="&lt;Compound Path&gt;" d="M35.18,75.25,35,75.18l-.45-.45.26-.38.32.19.08-.19-.2-.09.28-.39.32.2.08-.2-.21-.09.29-.4.58.5,0,.31-1.17,1.06Zm-.35-.79-.15.27.5.44.09-.11,1-1-.44-.58-.17.27.2.09-.19.31-.32-.2-.17.28.2.09-.19.3-.32-.19Z"/></g><polygon id="_Path_143" data-name="&lt;Path&gt;" class="cls-6" points="36.24 74.19 37.05 74.95 36.13 75.89 35.36 75.08 36.24 74.19"/><g id="_Group_91" data-name="&lt;Group&gt;"><path id="_Compound_Path_98" data-name="&lt;Compound Path&gt;" d="M36.12,76l-.81-.88.88-1,.92.76-1,1.1Zm.07-1.75-.78.87.71.65L37,74.9l-.8-.65Z"/></g><path id="_Path_144" data-name="&lt;Path&gt;" class="cls-6" d="M32.22,77.07l.27-.26.21.2.2-.2-.21-.21.28-.27.2.19.21-.19-.21-.2.27-.28.46.45a.16.16,0,0,1,0,.23l-1,1a.18.18,0,0,1-.24,0l-.46-.46Z"/><g id="_Group_92" data-name="&lt;Group&gt;"><path id="_Compound_Path_99" data-name="&lt;Compound Path&gt;" d="M32.8,77.65l-.18-.07-.46-.44.27-.39.33.2.08-.2-.21-.09.29-.39.3.21.1-.2-.21-.09.28-.39.57.48v.31L32.8,77.65Zm-.37-.79-.16.28.53.43.06-.11,1-1-.45-.59-.17.29.2.09-.2.3-.3-.2-.17.28.19.09-.18.3-.33-.19Z"/></g><polygon id="_Path_145" data-name="&lt;Path&gt;" class="cls-6" points="33.84 76.59 34.65 77.35 33.73 78.29 32.97 77.48 33.84 76.59"/><g id="_Group_93" data-name="&lt;Group&gt;"><path id="_Compound_Path_100" data-name="&lt;Compound Path&gt;" d="M33.73,78.4l-.83-.87.89-1,.93.76-1,1.11Zm.07-1.75-.79.88.72.65.87-.88-.8-.65Z"/></g><path id="_Path_146" data-name="&lt;Path&gt;" class="cls-6" d="M36.58,79.68A2.23,2.23,0,0,1,36,77.21a2.17,2.17,0,0,1,2.51.6l-1.89,1.87Z"/><path id="_Path_147" data-name="&lt;Path&gt;" class="cls-6" d="M34.3,78.92l1.28,1.59.93-.94a1.79,1.79,0,0,1-.45-2.31,2,2,0,0,1,2.3.47l.94-1-1.62-1.27L34.3,78.92Z"/><g id="_Group_94" data-name="&lt;Group&gt;"><path id="_Compound_Path_101" data-name="&lt;Compound Path&gt;" d="M35.57,80.62,34.23,79l3.4-3.52,1.71,1.27-.92,1.06a2.59,2.59,0,0,0-1.54-.62,1.8,1.8,0,0,0-.79.18h0a1.77,1.77,0,0,0,.48,2.17l-1,1.11Zm.34-3.27L34.34,79l1.24,1.41.88-.88a1.83,1.83,0,0,1-.71-1.65,2.37,2.37,0,0,1,.16-.51Zm1-.35a2.25,2.25,0,0,1,1.54.66l.82-.92-1.61-1.17-1.51,1.59a1.8,1.8,0,0,1,.76-.16Z"/></g><path id="_Path_148" data-name="&lt;Path&gt;" class="cls-6" d="M35.52,80.57l3.82-3.82a.24.24,0,0,1,.33,0,.26.26,0,0,1,0,.33l-3.84,3.83a.23.23,0,0,1-.32,0,.24.24,0,0,1,0-.33Z"/><g id="_Group_95" data-name="&lt;Group&gt;"><path id="_Compound_Path_102" data-name="&lt;Compound Path&gt;" d="M35.74,81.06,35.5,81a.36.36,0,0,1,0-.45l3.81-3.83c.29-.08.38,0,.45,0a.35.35,0,0,1,0,.44l-4,3.9Zm3.75-4.29-3.91,3.87,0,.26.19.07.07-.1L39.65,77l0-.27Z"/></g><path id="_Path_149" data-name="&lt;Path&gt;" class="cls-6" d="M36.91,79.17a1.39,1.39,0,0,1-.45-1.47,1.41,1.41,0,0,1,1.49.43l-1,1Z"/><g id="_Group_96" data-name="&lt;Group&gt;"><path id="_Compound_Path_103" data-name="&lt;Compound Path&gt;" d="M36.91,79.29l-.06-.06a1.46,1.46,0,0,1-.46-1.56c.1-.1.8-.41,1.62.4l-1.1,1.22Zm-.42-1.51a1.41,1.41,0,0,0,.42,1.29l1-1a1.61,1.61,0,0,0-1.41-.29Z"/></g><path id="_Path_150" data-name="&lt;Path&gt;" class="cls-6" d="M33.56,78.46l3.67-3.67a.2.2,0,0,1,.31,0,.23.23,0,0,1,0,.31l-3.67,3.66a.2.2,0,0,1-.3,0,.22.22,0,0,1,0-.3Z"/><g id="_Group_97" data-name="&lt;Group&gt;"><path id="_Compound_Path_104" data-name="&lt;Compound Path&gt;" d="M33.75,78.91l-.23-.14V78.4l3.67-3.67h.42a.32.32,0,0,1,0,.42l-3.86,3.75Zm0-.17v.08l.07-.11,3.67-3.66,0-.25h-.17l-3.75,3.71,0,.24.17,0Z"/></g><path id="_Path_151" data-name="&lt;Path&gt;" class="cls-6" d="M34,78.7l3.5-3.52a.23.23,0,0,1,.3,0,.2.2,0,0,1,0,.3L34.27,79A.22.22,0,0,1,34,79a.22.22,0,0,1,0-.3Z"/><g id="_Group_98" data-name="&lt;Group&gt;"><path id="_Compound_Path_105" data-name="&lt;Compound Path&gt;" d="M34.16,79.15l-.24-.1a.31.31,0,0,1,0-.41l3.53-3.52.39,0a.29.29,0,0,1,0,.4l-3.7,3.6Zm0-.16v.08l.06-.1,3.52-3.52,0-.25H37.6L34,78.76,34,79Z"/></g><path id="_Path_152" data-name="&lt;Path&gt;" d="M34.3,75.67c-.14-.14,0-.34.2-.19l.33.35-.18.19-.35-.35Z"/><path id="_Path_153" data-name="&lt;Path&gt;" d="M36,75a.13.13,0,1,1,.19-.18l.27.27-.19.18L36,75Z"/><path id="_Path_154" data-name="&lt;Path&gt;" d="M33.59,77.38a.14.14,0,1,1,.2-.19l.26.27-.18.19-.28-.27Z"/></g></g></g></g></g></g></g></svg>