<svg id="Layer_1" data-name="Layer 1" xmlns="http://www.w3.org/2000/svg" xmlns:xlink="http://www.w3.org/1999/xlink" viewBox="0 0 128 128"><defs><style>.cls-1{fill:none;}.cls-2{clip-path:url(#clip-path);}.cls-3{clip-path:url(#clip-path-2);}.cls-4{fill:#fff;}.cls-5{fill:#2f3e98;}.cls-6{fill:#bc1f33;}.cls-7{fill:#2d6a34;}.cls-8{fill:#4561ac;}.cls-9{fill:#f4cc29;}.cls-10{fill:#f7e524;}</style><clipPath id="clip-path"><circle class="cls-1" cx="64" cy="64" r="64"/></clipPath><clipPath id="clip-path-2"><rect id="_Clipping_Path_" data-name="&lt;Clipping Path&gt;" class="cls-1" x="-45.72" width="219.45" height="128"/></clipPath></defs><title>Flag_circle_Paraguay</title><g class="cls-2"><g id="PARAGUAY"><g id="_Group_" data-name="&lt;Group&gt;"><g id="_Clip_Group_" data-name="&lt;Clip Group&gt;"><g class="cls-3"><rect id="_Path_" data-name="&lt;Path&gt;" class="cls-4" x="-45.72" y="42.66" width="219.45" height="42.67"/><rect id="_Path_2" data-name="&lt;Path&gt;" class="cls-5" x="-45.72" y="85.34" width="219.45" height="42.66"/><rect id="_Path_3" data-name="&lt;Path&gt;" class="cls-6" x="-45.72" width="219.45" height="42.66"/><g id="_Clip_Group_2" data-name="&lt;Clip Group&gt;"><g class="cls-3"><path id="_Path_4" data-name="&lt;Path&gt;" class="cls-4" d="M80.26,64A16.27,16.27,0,1,1,64,47.75,16.26,16.26,0,0,1,80.26,64Z"/><g id="_Group_2" data-name="&lt;Group&gt;"><path id="_Compound_Path_" data-name="&lt;Compound Path&gt;" d="M64,80.52A16.53,16.53,0,1,1,80.52,64,16.54,16.54,0,0,1,64,80.52ZM64,48A16,16,0,1,0,80,64,16,16,0,0,0,64,48Z"/></g><path id="_Compound_Path_2" data-name="&lt;Compound Path&gt;" class="cls-6" d="M64,50.06A13.94,13.94,0,1,0,77.93,64,13.94,13.94,0,0,0,64,50.06Zm0,24.39A10.46,10.46,0,1,1,74.44,64,10.46,10.46,0,0,1,64,74.45Z"/><g id="_Group_3" data-name="&lt;Group&gt;"><path id="_Compound_Path_3" data-name="&lt;Compound Path&gt;" d="M64,78A14,14,0,1,1,78,64,14,14,0,0,1,64,78Zm0-27.87A13.92,13.92,0,1,0,77.91,64,13.94,13.94,0,0,0,64,50.08Zm0,24.39A10.47,10.47,0,1,1,74.46,64,10.48,10.48,0,0,1,64,74.47Zm0-20.91A10.44,10.44,0,1,0,74.43,64,10.46,10.46,0,0,0,64,53.56Z"/></g><path id="_Path_5" data-name="&lt;Path&gt;" class="cls-7" d="M66.18,56.4s6.28,2.69,5.18,8.28-4.58,5.54-6,6.16-2.31,1.49-2.86,1.37a5.92,5.92,0,0,1-1.24-.53,1.07,1.07,0,0,0,1,1.08c1.1.16,2.55-1.45,3.24-1.64s5-.64,6-6.31c1.22-6.06-5.33-8.23-5.39-8.41Z"/><g id="_Group_4" data-name="&lt;Group&gt;"><path id="_Compound_Path_4" data-name="&lt;Compound Path&gt;" d="M62.52,72.79h-.18a1.1,1.1,0,0,1-1.05-1.1h0a7.3,7.3,0,0,0,1.27.52,3.09,3.09,0,0,0,1.38-.57,12.74,12.74,0,0,1,1.46-.81c.24-.1.53-.18.85-.28,1.67-.49,4.19-1.24,5.1-5.86.84-4.3-2.75-6.91-4.34-7.83l-.5-.25c-.24-.14-.33-.17-.34-.19a3.45,3.45,0,0,1,.87.41l0,0c3.68,1.86,5.25,4.62,4.58,8-.64,3.5-2.6,5.62-5.8,6.28a3.38,3.38,0,0,0-1.21.67,4.18,4.18,0,0,1-2.06,1Zm-1.23-1.1a1.12,1.12,0,0,0,1.06,1h.17a4.19,4.19,0,0,0,2-1,4.19,4.19,0,0,1,1-.63c3.41-.71,5.34-2.81,6-6.3.66-3.32-.91-6.08-4.55-8,1.61.9,5.21,3.5,4.38,7.84-.92,4.64-3.46,5.38-5.12,5.88-.33.1-.62.18-.86.28a12.1,12.1,0,0,0-1.46.81,3.28,3.28,0,0,1-1.28.58,5.35,5.35,0,0,1-1.37-.55Z"/></g><path id="_Path_6" data-name="&lt;Path&gt;" class="cls-7" d="M69.35,57.59c.12.46.12.84,0,.85s-.3-.36-.41-.82-.12-.84,0-.86.3.37.41.83Z"/><g id="_Group_5" data-name="&lt;Group&gt;"><path id="_Path_7" data-name="&lt;Path&gt;" d="M69.35,58.46c-.13,0-.32-.43-.42-.83a1.42,1.42,0,0,1-.05-.85h.06a1.26,1.26,0,0,0,0,.82c.13.51.31.81.39.81v0l0,0a1.5,1.5,0,0,0,0-.82,2.23,2.23,0,0,0-.33-.76,1.38,1.38,0,0,1,.35.76c.11.39.14.73,0,.83l-.06,0Z"/></g><path id="_Path_8" data-name="&lt;Path&gt;" class="cls-7" d="M69.13,57.64c.22.44.32.84.21.86s-.35-.29-.58-.72-.3-.82-.19-.86.36.28.56.72Z"/><g id="_Group_6" data-name="&lt;Group&gt;"><path id="_Path_9" data-name="&lt;Path&gt;" d="M69.32,58.52c-.12,0-.38-.37-.57-.73a1.43,1.43,0,0,1-.23-.84h.06c-.07.14,0,.45.21.84s.44.72.53.72h0a1.42,1.42,0,0,0-.22-.85,2.29,2.29,0,0,0-.44-.66,1.56,1.56,0,0,1,.47.65,1.52,1.52,0,0,1,.24.85l-.07,0Z"/></g><path id="_Path_10" data-name="&lt;Path&gt;" class="cls-7" d="M68.52,58.06c.44.12.78.34.78.44s-.38.12-.83,0-.79-.34-.78-.46.37-.11.83,0Z"/><g id="_Group_7" data-name="&lt;Group&gt;"><path id="_Path_11" data-name="&lt;Path&gt;" d="M69.08,58.6a2.14,2.14,0,0,1-.61-.1c-.41-.12-.8-.33-.8-.47l.2,0c-.15.16.16.34.6.47a2,2,0,0,0,.61.12h0l.21-.09c0-.09-.3-.29-.78-.42A2.34,2.34,0,0,0,68,58a1.51,1.51,0,0,1,.48.07c.4.1.8.32.79.45l-.23.1Z"/></g><path id="_Path_12" data-name="&lt;Path&gt;" class="cls-7" d="M68.6,57.84c.41.26.7.57.64.66s-.42,0-.82-.32-.68-.57-.63-.66.41,0,.81.32Z"/><g id="_Group_8" data-name="&lt;Group&gt;"><path id="_Path_13" data-name="&lt;Path&gt;" d="M69.17,58.54a1.75,1.75,0,0,1-.75-.34c-.37-.24-.72-.57-.66-.7h.1c-.1.11.14.39.58.67a1.7,1.7,0,0,0,.73.34v0l.06,0c0-.08-.21-.37-.63-.66a2.54,2.54,0,0,0-.72-.34,1.59,1.59,0,0,1,.73.32c.36.24.71.56.66.68l-.1,0Z"/></g><path id="_Path_14" data-name="&lt;Path&gt;" class="cls-7" d="M68.87,57.73c.35.35.56.7.48.77s-.41-.14-.75-.5-.57-.7-.49-.78.42.14.76.51Z"/><g id="_Group_9" data-name="&lt;Group&gt;"><path id="_Compound_Path_5" data-name="&lt;Compound Path&gt;" d="M69.31,58.54a1.61,1.61,0,0,1-.73-.53c-.31-.32-.58-.71-.48-.81s.48.21.78.52.58.7.47.8l0,0Zm-1.15-1.32c-.1.07.08.39.44.77s.6.51.71.51v0l0,0c.06-.06-.12-.38-.48-.77a1.8,1.8,0,0,0-.7-.51Z"/></g><path id="_Path_15" data-name="&lt;Path&gt;" class="cls-7" d="M69.3,58.5a1.25,1.25,0,0,1-.29.16c-.05,0-.13-.07-.29,0a.77.77,0,0,0-.31.32c0,.09,0,.13.23,0s.25-.23.35-.3a2.79,2.79,0,0,1,.34-.18,2.64,2.64,0,0,1,.23-.36c.07-.1.31-.27.4-.47s.05-.3,0-.25a1.07,1.07,0,0,0-.33.34c-.06.11,0,.27-.08.38s-.19.32-.21.32Z"/><g id="_Group_10" data-name="&lt;Group&gt;"><path id="_Path_16" data-name="&lt;Path&gt;" d="M68.47,59.09l-.07,0a.57.57,0,0,1,.31-.41H69l.31-.15.21-.32h0l.08-.38a.83.83,0,0,1,.33-.34l.08.27a1.53,1.53,0,0,1-.29.33l-.22.27c0,.09-.13.18-.14.22l-.35.2a.92.92,0,0,1-.34.3l-.18.05Z"/></g><path id="_Path_17" data-name="&lt;Path&gt;" class="cls-7" d="M71.25,59.15c0,.72-.11,1.26-.27,1.23s-.3-.65-.31-1.37.1-1.25.26-1.22.3.66.32,1.36Z"/><g id="_Group_11" data-name="&lt;Group&gt;"><path id="_Path_18" data-name="&lt;Path&gt;" d="M71,60.38h0c-.2,0-.32-.73-.33-1.37a2.38,2.38,0,0,1,.2-1.19.1.1,0,0,1,.07,0A1.89,1.89,0,0,0,70.68,59c0,.77.16,1.3.3,1.34v0l.06-.05a2.64,2.64,0,0,0,.18-1.18A3.64,3.64,0,0,0,71.06,58a2.73,2.73,0,0,1,.19,1.16,2.22,2.22,0,0,1-.19,1.2l-.07,0Z"/></g><path id="_Path_19" data-name="&lt;Path&gt;" class="cls-7" d="M70.92,59.14c.17.73.17,1.32,0,1.33s-.41-.58-.56-1.3-.15-1.33,0-1.33.4.58.56,1.3Z"/><g id="_Group_12" data-name="&lt;Group&gt;"><path id="_Path_20" data-name="&lt;Path&gt;" d="M70.92,60.47c-.19,0-.43-.66-.57-1.3a2.37,2.37,0,0,1,0-1.32h.06a2,2,0,0,0,0,1.32c.15.77.4,1.29.53,1.29h0l0,0a2.47,2.47,0,0,0-.06-1.28A3.58,3.58,0,0,0,70.49,58a2.76,2.76,0,0,1,.45,1.18,2.39,2.39,0,0,1,0,1.3l-.07,0Z"/></g><path id="_Path_21" data-name="&lt;Path&gt;" class="cls-7" d="M69.92,59.46c.57.37,1,.83.94,1s-.56,0-1.14-.4-1-.83-.93-1,.55,0,1.13.41Z"/><g id="_Group_13" data-name="&lt;Group&gt;"><path id="_Path_22" data-name="&lt;Path&gt;" d="M70.74,60.52a2.45,2.45,0,0,1-1-.47c-.59-.4-1-.84-.94-1l.11,0c-.1.2.26.61.84,1a2.37,2.37,0,0,0,1,.45v0l.1-.06c0-.13-.31-.56-.92-1a4.81,4.81,0,0,0-.77-.4,2.43,2.43,0,0,1,.78.38c.58.39,1,.83.94,1l-.13.06Z"/></g><path id="_Path_23" data-name="&lt;Path&gt;" class="cls-7" d="M70.12,59.17c.47.57.76,1.12.67,1.25s-.56-.25-1-.83-.76-1.13-.66-1.24.56.24,1,.82Z"/><g id="_Group_14" data-name="&lt;Group&gt;"><path id="_Compound_Path_6" data-name="&lt;Compound Path&gt;" d="M70.73,60.46c-.16,0-.58-.36-1-.86s-.78-1.11-.66-1.27.64.32,1.06.82.78,1.14.66,1.27l-.07,0Zm-1.58-2.13c-.13.13.12.64.62,1.25s.8.84,1,.84v0l0,0c.09-.09-.15-.6-.66-1.22s-.81-.85-1-.85Z"/></g><path id="_Path_24" data-name="&lt;Path&gt;" class="cls-7" d="M70.53,59.13c.35.67.55,1.27.41,1.34s-.52-.4-.89-1.08-.54-1.25-.41-1.33.53.4.89,1.07Z"/><g id="_Group_15" data-name="&lt;Group&gt;"><path id="_Compound_Path_7" data-name="&lt;Compound Path&gt;" d="M70.91,60.5c-.17,0-.52-.46-.87-1.09s-.56-1.27-.4-1.36.55.44.89,1.07.58,1.28.41,1.36l0,0Zm-1.23-2.43c-.14.07,0,.61.39,1.32s.7,1.08.84,1.08h0c.11-.06-.05-.61-.42-1.32s-.69-1.07-.83-1.07Z"/></g><path id="_Path_25" data-name="&lt;Path&gt;" class="cls-7" d="M70.87,60.46a4.62,4.62,0,0,1-.46.08c-.08,0-.17-.16-.41-.12a1,1,0,0,0-.53.32c-.07.12,0,.2.33.15s.41-.23.56-.27a2.15,2.15,0,0,1,.52-.1c.1-.11.32-.31.45-.44s.53-.24.72-.49.17-.41,0-.38a1.42,1.42,0,0,0-.55.36c-.11.14-.1.38-.23.5l-.4.39Z"/><g id="_Group_16" data-name="&lt;Group&gt;"><path id="_Compound_Path_8" data-name="&lt;Compound Path&gt;" d="M69.65,60.93l-.2-.07a.19.19,0,0,1,0-.1l.15.15.13,0a1.06,1.06,0,0,0,.4-.19,2.17,2.17,0,0,1,.7-.2,4.2,4.2,0,0,1,.3-.3,1.22,1.22,0,0,1,.38-.27,1.52,1.52,0,0,0,.48-.35.51.51,0,0,0,.12-.23.38.38,0,0,1-.09.25,1.59,1.59,0,0,1-.5.36,1,1,0,0,0-.23.14l-.44.42a2.09,2.09,0,0,0-.53.11,1.34,1.34,0,0,1-.57.28l-.15,0Zm-.13-.21a.68.68,0,0,1,.48-.31l.33.07a2,2,0,0,0,.54,0l.38-.38a.51.51,0,0,0,.14-.25.43.43,0,0,1,.11-.25,1.18,1.18,0,0,1,.55-.36s0,0,.07.08a.85.85,0,0,0-.61.3.55.55,0,0,0-.1.25.47.47,0,0,1-.13.25l-.41.39-.46.09-.33-.14a1,1,0,0,0-.56.3Z"/></g><path id="_Path_26" data-name="&lt;Path&gt;" class="cls-7" d="M72.27,61.76c-.11.7-.34,1.21-.49,1.14s-.17-.7,0-1.41.33-1.22.48-1.14.18.7.06,1.41Z"/><g id="_Group_17" data-name="&lt;Group&gt;"><path id="_Compound_Path_9" data-name="&lt;Compound Path&gt;" d="M71.81,62.92h0c-.18-.07-.16-.78-.06-1.42s.29-1.16.46-1.16.22.79.11,1.43-.31,1.16-.47,1.16Zm.39-2.56c-.14,0-.34.44-.46,1.15s-.08,1.32,0,1.37h0c.12,0,.32-.42.44-1.14s.09-1.32,0-1.38Z"/></g><path id="_Path_27" data-name="&lt;Path&gt;" class="cls-7" d="M72,61.68c0,.75-.1,1.33-.25,1.3s-.29-.64-.31-1.38.08-1.34.24-1.31.29.64.32,1.39Z"/><g id="_Group_18" data-name="&lt;Group&gt;"><path id="_Path_28" data-name="&lt;Path&gt;" d="M71.73,63h0c-.19,0-.31-.75-.32-1.4a2.55,2.55,0,0,1,.17-1.31h0a.07.07,0,0,1,.06,0,2.12,2.12,0,0,0-.21,1.29c0,.81.17,1.34.31,1.37l0,0a2.71,2.71,0,0,0,.17-1.26,4.19,4.19,0,0,0-.19-1.26A3.17,3.17,0,0,1,72,61.68,2.73,2.73,0,0,1,71.8,63l-.07,0Z"/></g><path id="_Path_29" data-name="&lt;Path&gt;" class="cls-7" d="M70.92,61.78c.49.5.82,1,.74,1.17s-.55-.12-1-.61-.82-1-.74-1.17.54.13,1,.61Z"/><g id="_Group_19" data-name="&lt;Group&gt;"><path id="_Path_30" data-name="&lt;Path&gt;" d="M71.57,63a2,2,0,0,1-.95-.67c-.52-.49-.84-1-.75-1.18H70c-.11.17.15.65.67,1.16a2.11,2.11,0,0,0,.94.66h0l.07-.05c.07-.12-.21-.62-.73-1.14a3.23,3.23,0,0,0-.79-.61,2.52,2.52,0,0,1,.81.59c.5.5.83,1,.73,1.18l-.09,0Z"/></g><path id="_Path_31" data-name="&lt;Path&gt;" class="cls-7" d="M71.16,61.55c.36.65.55,1.27.43,1.36s-.5-.36-.86-1-.55-1.26-.43-1.36.51.35.86,1Z"/><g id="_Group_20" data-name="&lt;Group&gt;"><path id="_Compound_Path_10" data-name="&lt;Compound Path&gt;" d="M71.56,62.94c-.16,0-.51-.44-.84-1s-.57-1.28-.43-1.39.55.41.89,1,.57,1.26.43,1.38l0,0Zm-1.21-2.4c-.14.1,0,.65.39,1.35s.67,1,.82,1v0l0,0c.1-.07-.06-.64-.44-1.33s-.66-1-.8-1Z"/></g><path id="_Path_32" data-name="&lt;Path&gt;" class="cls-7" d="M71.57,61.58c.24.73.3,1.36.16,1.41s-.44-.5-.67-1.22-.3-1.35-.16-1.41.44.5.67,1.22Z"/><g id="_Group_21" data-name="&lt;Group&gt;"><path id="_Compound_Path_11" data-name="&lt;Compound Path&gt;" d="M71.71,63c-.18,0-.48-.63-.66-1.23s-.33-1.36-.17-1.43h0c.19,0,.46.54.69,1.23s.32,1.36.15,1.43Zm-.79-2.63c-.13,0-.08.61.16,1.39s.51,1.21.63,1.21v0l0,0c.11-.06.08-.61-.17-1.38s-.51-1.22-.64-1.22Z"/></g><path id="_Path_33" data-name="&lt;Path&gt;" class="cls-7" d="M71.66,63H71.2c-.08,0-.12-.2-.37-.2a.92.92,0,0,0-.59.22c-.08.1,0,.21.29.21S71,63,71.14,63a2.25,2.25,0,0,1,.52,0c.11-.09.38-.25.51-.34a3.41,3.41,0,0,0,.8-.35c.2-.17.25-.38.07-.37a1.13,1.13,0,0,0-.59.24c-.16.11-.17.36-.33.46a4.88,4.88,0,0,1-.46.29Z"/><g id="_Group_22" data-name="&lt;Group&gt;"><path id="_Path_34" data-name="&lt;Path&gt;" d="M71.16,63l.28,0,.12,0H71.2c-.15-.13-.21-.2-.37-.2h0a.9.9,0,0,0-.5.14.66.66,0,0,1,.8,0l.29.07a.88.88,0,0,0,.48-.15c.29-.19.34-.28.37-.36a.58.58,0,0,1,.18-.25A1.18,1.18,0,0,1,73,62l.06.07a.88.88,0,0,0-.64.2.57.57,0,0,0-.15.23.8.8,0,0,1-.18.23l-.22.14-.09.06L72,62.8a1.68,1.68,0,0,1,.45-.23,1.18,1.18,0,0,0,.53-.25.47.47,0,0,0,.16-.21.34.34,0,0,1-.14.25,2,2,0,0,1-.53.25l-.28.08-.49.34Z"/></g><path id="_Path_35" data-name="&lt;Path&gt;" class="cls-7" d="M72.34,64.64c-.38.61-.78,1-.89.87s.12-.72.51-1.33.77-1,.88-.85-.11.72-.5,1.31Z"/><g id="_Group_23" data-name="&lt;Group&gt;"><path id="_Path_36" data-name="&lt;Path&gt;" d="M71.51,65.55l-.07,0c-.12-.14.15-.79.49-1.34s.68-.9.86-.9a.33.33,0,0,1,0,.06c-.19,0-.55.35-.86.86a2.38,2.38,0,0,0-.5,1.3l.05,0c.13,0,.45-.29.82-.88a3.2,3.2,0,0,0,.51-1.16,2.43,2.43,0,0,1-.49,1.17c-.32.53-.67.9-.84.9Z"/></g><path id="_Path_37" data-name="&lt;Path&gt;" class="cls-7" d="M72.08,64.45c-.26.7-.58,1.2-.72,1.12s0-.72.26-1.42.59-1.21.72-1.12,0,.72-.26,1.42Z"/><g id="_Group_24" data-name="&lt;Group&gt;"><path id="_Compound_Path_12" data-name="&lt;Compound Path&gt;" d="M71.4,65.59l-.05,0c-.15-.09,0-.81.26-1.43s.55-1.13.71-1.13,0,.81-.21,1.45-.55,1.13-.71,1.13ZM72.33,63c-.16,0-.43.41-.7,1.12s-.38,1.32-.26,1.39h0c.11,0,.41-.4.67-1.11s.38-1.32.27-1.4Z"/></g><path id="_Path_38" data-name="&lt;Path&gt;" class="cls-7" d="M71.11,64.12c.24.67.34,1.28.22,1.39s-.45-.34-.7-1-.35-1.27-.22-1.38.43.35.7,1Z"/><g id="_Group_25" data-name="&lt;Group&gt;"><path id="_Compound_Path_13" data-name="&lt;Compound Path&gt;" d="M71.28,65.54c-.16,0-.44-.43-.66-1s-.35-1.28-.22-1.39h0c.22,0,.49.42.71,1s.34,1.29.22,1.4l-.06,0Zm-.83-2.41c-.15.1-.08.68.19,1.38s.51,1,.64,1v0l0,0a2.16,2.16,0,0,0-.23-1.36c-.25-.64-.52-1-.64-1Z"/></g><path id="_Path_39" data-name="&lt;Path&gt;" class="cls-7" d="M71.42,64c.08.76,0,1.4-.13,1.44s-.32-.53-.41-1.28,0-1.4.16-1.43.31.52.38,1.27Z"/><g id="_Group_26" data-name="&lt;Group&gt;"><path id="_Compound_Path_14" data-name="&lt;Compound Path&gt;" d="M71.27,65.46c-.18,0-.34-.67-.39-1.3s0-1.4.14-1.45h0c.19,0,.35.66.4,1.29s0,1.41-.15,1.46Zm-.22-2.72c-.14,0-.21.61-.14,1.42s.24,1.27.36,1.27v0c.12,0,.2-.61.13-1.42s-.25-1.26-.36-1.26Z"/></g><path id="_Path_40" data-name="&lt;Path&gt;" class="cls-7" d="M71.77,64.21c-.07.78-.26,1.38-.4,1.36s-.21-.63-.14-1.4.26-1.39.41-1.37.21.64.13,1.41Z"/><g id="_Group_27" data-name="&lt;Group&gt;"><path id="_Compound_Path_15" data-name="&lt;Compound Path&gt;" d="M71.37,65.59l-.05,0a2.65,2.65,0,0,1-.1-1.38c.07-.69.23-1.39.41-1.39a2.19,2.19,0,0,1,.17,1.43c-.07.69-.24,1.38-.43,1.38Zm.29-2.75c-.15,0-.32.51-.41,1.33a3,3,0,0,0,.09,1.37l0,0h0c.13,0,.31-.52.39-1.36a3.05,3.05,0,0,0-.08-1.37Z"/></g><path id="_Path_41" data-name="&lt;Path&gt;" class="cls-7" d="M71.33,65.52a2.27,2.27,0,0,1-.43-.19c-.06,0,0-.23-.26-.33A.83.83,0,0,0,70,65c-.11,0-.08.18.19.31s.47,0,.61.09a1.87,1.87,0,0,1,.47.23c.13,0,.44-.08.6-.11s.57.11.85,0,.37-.26.21-.33a1.33,1.33,0,0,0-.63,0c-.18,0-.29.26-.47.29s-.52.1-.53.08Z"/><g id="_Group_28" data-name="&lt;Group&gt;"><path id="_Compound_Path_16" data-name="&lt;Compound Path&gt;" d="M71.3,65.6h0a2.46,2.46,0,0,0-.46-.22,1.67,1.67,0,0,1,.48.19,1.71,1.71,0,0,1,.41-.07l.44,0a1.83,1.83,0,0,0,.34,0,1,1,0,0,0,.47-.17c0,.08-.11.14-.23.17a2.28,2.28,0,0,1-.59,0H71.9a4.56,4.56,0,0,0-.58.1Zm0-.06a3.25,3.25,0,0,1-.44-.19c-.09-.18-.13-.27-.27-.34a.83.83,0,0,0-.35-.07L70,65c0,.07.08.15.23.23a.72.72,0,0,0,.36.07l.23,0a1.69,1.69,0,0,1-.6-.09C70,65.2,70,65.11,70,65l.33-.13a.79.79,0,0,1,.36.09.36.36,0,0,1,.23.25,1.5,1.5,0,0,0,.46.26.51.51,0,0,0,.28,0c.33,0,.4-.11.47-.17a.58.58,0,0,1,.25-.15,1.25,1.25,0,0,1,.64,0,.25.25,0,0,1,0,.08.73.73,0,0,0-.65-.07c-.3.21-.37.27-.47.28l-.52.09Z"/></g><path id="_Path_42" data-name="&lt;Path&gt;" class="cls-7" d="M71.56,67.58c-.62.55-1.17.82-1.26.64s.35-.74,1-1.28,1.19-.8,1.27-.63-.37.75-1,1.27Z"/><g id="_Group_29" data-name="&lt;Group&gt;"><path id="_Path_43" data-name="&lt;Path&gt;" d="M70.41,68.29l-.13-.07c-.07-.18.36-.76,1-1.29a2.86,2.86,0,0,1,1.18-.69.25.25,0,0,1,0,.07,2.65,2.65,0,0,0-1.18.65c-.66.56-1.05,1.11-1,1.26l.08,0a2.74,2.74,0,0,0,1.15-.69,4.75,4.75,0,0,0,.85-.92,3.32,3.32,0,0,1-.84.95,2.71,2.71,0,0,1-1.16.69Z"/></g><path id="_Path_44" data-name="&lt;Path&gt;" class="cls-7" d="M71.35,67.28c-.52.68-1,1.1-1.17,1s.23-.79.75-1.47,1-1.11,1.17-1-.23.8-.75,1.48Z"/><g id="_Group_30" data-name="&lt;Group&gt;"><path id="_Path_45" data-name="&lt;Path&gt;" d="M70.24,68.29l-.07,0c-.14-.16.27-.89.75-1.51s.92-1,1.11-1a.61.61,0,0,1,0,.06h0c-.24,0-.68.41-1.13,1-.55.73-.84,1.36-.75,1.46l0,0c.18,0,.64-.42,1.1-1A4.28,4.28,0,0,0,72.08,66a3.79,3.79,0,0,1-.72,1.28c-.46.58-.92,1-1.12,1Z"/></g><path id="_Path_46" data-name="&lt;Path&gt;" class="cls-7" d="M70.37,66.57c0,.82,0,1.53-.21,1.6s-.39-.53-.44-1.36,0-1.52.21-1.59.37.53.44,1.35Z"/><g id="_Group_31" data-name="&lt;Group&gt;"><path id="_Compound_Path_17" data-name="&lt;Compound Path&gt;" d="M70.12,68.19c-.18,0-.35-.57-.42-1.38s0-1.54.22-1.61h0c.24,0,.41.69.47,1.37,0,.84-.05,1.56-.24,1.6l0,0Zm-.16-3c-.19.06-.3.71-.23,1.58s.26,1.36.39,1.36h0c.15-.06.27-.71.21-1.59s-.26-1.34-.4-1.34Z"/></g><path id="_Path_47" data-name="&lt;Path&gt;" class="cls-7" d="M70.76,66.54c-.17.87-.44,1.56-.62,1.54s-.18-.7,0-1.56.46-1.53.64-1.53.17.69,0,1.55Z"/><g id="_Group_32" data-name="&lt;Group&gt;"><path id="_Path_48" data-name="&lt;Path&gt;" d="M70.14,68.1l-.07,0a2.79,2.79,0,0,1,0-1.54c.16-.77.43-1.56.65-1.56a.07.07,0,0,0,0,.06,2.82,2.82,0,0,0-.65,1.51,3.08,3.08,0,0,0,0,1.51l0,0h0c.15,0,.43-.61.6-1.53a3.82,3.82,0,0,0,.1-1.39,3.2,3.2,0,0,1-.07,1.41c-.14.74-.42,1.54-.63,1.54Z"/></g><path id="_Path_49" data-name="&lt;Path&gt;" class="cls-7" d="M71.09,66.89c-.35.83-.74,1.44-.91,1.37s0-.78.33-1.59.72-1.43.89-1.37,0,.78-.31,1.59Z"/><g id="_Group_33" data-name="&lt;Group&gt;"><path id="_Compound_Path_18" data-name="&lt;Compound Path&gt;" d="M70.21,68.28h0a2.6,2.6,0,0,1,.31-1.63c.31-.79.69-1.38.88-1.38s0,.89-.28,1.63-.69,1.38-.88,1.38Zm1.18-3c-.17,0-.53.52-.87,1.36a3.24,3.24,0,0,0-.36,1.55l0,0c.15,0,.51-.51.85-1.37s.45-1.53.34-1.58Z"/></g><path id="_Path_50" data-name="&lt;Path&gt;" class="cls-7" d="M70.16,68.17a3.22,3.22,0,0,1-.41-.35c0-.08,0-.27-.17-.46a.93.93,0,0,0-.65-.25c-.15,0-.17.15.09.39s.5.22.64.33a3.6,3.6,0,0,1,.45.41c.16,0,.49.08.68.1a4.32,4.32,0,0,0,.95.33c.29,0,.48-.14.33-.27a1.55,1.55,0,0,0-.68-.27c-.23,0-.41.19-.63.15a2.3,2.3,0,0,1-.6-.11Z"/><g id="_Group_34" data-name="&lt;Group&gt;"><path id="_Compound_Path_19" data-name="&lt;Compound Path&gt;" d="M71.76,68.68h0a1.47,1.47,0,0,1-.65-.21,1.48,1.48,0,0,0-.3-.1,5.25,5.25,0,0,0-.68-.11,3,3,0,0,0-.45-.41,1.66,1.66,0,0,1,.46.38l.47.07a1.48,1.48,0,0,1,.5.15,1.68,1.68,0,0,0,.65.19l0,0v0a.52.52,0,0,0,.27,0,.36.36,0,0,1-.27.09Zm.31-.2a1.06,1.06,0,0,0-.68-.32c-.14-.08-.23,0-.3.06a.69.69,0,0,1-.28.08l-.34,0c-.3,0-.32,0-.32-.07a3.9,3.9,0,0,1-.41-.36.79.79,0,0,0-.17-.47.9.9,0,0,0-.52-.23.75.75,0,0,1,.54.22.49.49,0,0,1,.16.36,2,2,0,0,0,.42.46.77.77,0,0,0,.3,0l.29,0a.72.72,0,0,0,.32-.07.77.77,0,0,1,.27-.07,1.14,1.14,0,0,1,.72.25.32.32,0,0,1,0,.1Z"/></g><path id="_Path_51" data-name="&lt;Path&gt;" class="cls-7" d="M69.56,70.16c-.91.15-1.6.09-1.58-.13s.76-.5,1.65-.64,1.58-.1,1.55.11-.76.51-1.62.66Z"/><g id="_Group_35" data-name="&lt;Group&gt;"><path id="_Compound_Path_20" data-name="&lt;Compound Path&gt;" d="M68.65,70.27c-.35,0-.58,0-.66-.15s0-.05,0-.07c.2.23.79.22,1.54.1A4.39,4.39,0,0,0,71,69.69a3.85,3.85,0,0,1-1.44.49,5.27,5.27,0,0,1-.91.09Zm-.45-.44a3.66,3.66,0,0,1,1.43-.46,2.57,2.57,0,0,1,1.55,0s0,0,0,.07c-.17-.24-.77-.21-1.53-.09a4.52,4.52,0,0,0-1.43.43Z"/></g><path id="_Path_52" data-name="&lt;Path&gt;" class="cls-7" d="M69.51,69.74c-.88.34-1.63.45-1.64.26s.64-.65,1.51-1S71,68.57,71,68.77s-.64.64-1.53,1Z"/><g id="_Group_36" data-name="&lt;Group&gt;"><path id="_Compound_Path_21" data-name="&lt;Compound Path&gt;" d="M68.11,70.11c-.16,0-.25,0-.27-.11,0-.22.64-.66,1.54-1s1.63-.45,1.67-.23-.63.64-1.53,1a4.89,4.89,0,0,1-1.41.35Zm2.58-1.36a3.9,3.9,0,0,0-1.3.28c-1,.36-1.55.79-1.52,1l.24.07a4.2,4.2,0,0,0,1.4-.35c.94-.35,1.54-.78,1.51-1l-.33,0Z"/></g><path id="_Path_53" data-name="&lt;Path&gt;" class="cls-7" d="M69,68.5c-.38.81-.87,1.45-1.09,1.41s-.06-.73.33-1.55.85-1.45,1.07-1.4.07.73-.31,1.54Z"/><g id="_Group_37" data-name="&lt;Group&gt;"><path id="_Compound_Path_22" data-name="&lt;Compound Path&gt;" d="M67.88,69.92h0a.43.43,0,0,1,0-.07l0,0c.23,0,.7-.6,1.06-1.38a4.3,4.3,0,0,0,.4-1.18,3.49,3.49,0,0,1-.37,1.2c-.39.78-.85,1.4-1.09,1.4Zm-.09-.3a3.81,3.81,0,0,1,.38-1.28c.38-.78.85-1.41,1.09-1.41l0,.09h0c-.29,0-.75.6-1.1,1.35a4.45,4.45,0,0,0-.41,1.25Z"/></g><path id="_Path_54" data-name="&lt;Path&gt;" class="cls-7" d="M69.34,68.71c-.63.72-1.28,1.21-1.44,1.09s.21-.77.84-1.49,1.27-1.2,1.45-1.09-.21.78-.85,1.49Z"/><g id="_Group_38" data-name="&lt;Group&gt;"><path id="_Compound_Path_23" data-name="&lt;Compound Path&gt;" d="M68,69.85l-.08,0s0,0,0-.08l.09.06a3.4,3.4,0,0,0,1.37-1.1,6.1,6.1,0,0,0,.76-1,4,4,0,0,1-.74,1.06c-.56.65-1.15,1.13-1.39,1.13Zm0-.29a4.11,4.11,0,0,1,.81-1.26,3.4,3.4,0,0,1,1.42-1.11.29.29,0,0,1,0,.09h0c-.31,0-.86.45-1.39,1a4.54,4.54,0,0,0-.85,1.24Z"/></g><path id="_Path_55" data-name="&lt;Path&gt;" class="cls-7" d="M69.46,69.22c-.78.59-1.49.94-1.6.79s.41-.75,1.17-1.34,1.49-.94,1.61-.79-.41.76-1.18,1.34Z"/><g id="_Group_39" data-name="&lt;Group&gt;"><path id="_Compound_Path_24" data-name="&lt;Compound Path&gt;" d="M68,70.06l-.12,0a.41.41,0,0,0,0-.09v0L68,70a3.79,3.79,0,0,0,1.49-.82,5.6,5.6,0,0,0,.92-.83,2,2,0,0,0,.26-.37.89.89,0,0,1-.23.39,8.28,8.28,0,0,1-.93.84,4,4,0,0,1-1.51.82Zm-.08-.21A4.16,4.16,0,0,1,69,68.65a4,4,0,0,1,1.52-.82l0,0a5.94,5.94,0,0,0-1.55.8,4.38,4.38,0,0,0-1.16,1.17Z"/></g><path id="_Path_56" data-name="&lt;Path&gt;" class="cls-7" d="M67.87,69.92a5.66,5.66,0,0,1-.19-.58c0-.1.19-.24.08-.55a1,1,0,0,0-.49-.62c-.15-.09-.24.06-.13.44s.37.5.44.68a4.56,4.56,0,0,1,.21.66,5,5,0,0,1,.6.5c.18.13.4.63.73.84s.56.15.49-.07a1.67,1.67,0,0,0-.55-.64c-.19-.14-.48-.06-.66-.22s-.53-.41-.53-.44Z"/><g id="_Group_40" data-name="&lt;Group&gt;"><path id="_Compound_Path_25" data-name="&lt;Compound Path&gt;" d="M69.45,71.42a.71.71,0,0,1-.34-.11,2.34,2.34,0,0,1-.51-.58,1.43,1.43,0,0,0-.23-.28L67.79,70a3.94,3.94,0,0,0-.22-.63,2,2,0,0,1,.24.62c.09,0,.26.21.42.33a1.67,1.67,0,0,1,.39.43,2,2,0,0,0,.51.56.64.64,0,0,0,.32.13h0l0,0Zm.12-.14a1.44,1.44,0,0,0-.52-.69.87.87,0,0,0-.31-.11.48.48,0,0,1-.35-.11l-.25-.19c-.27-.22-.28-.24-.28-.26h0a3.27,3.27,0,0,1-.19-.58.78.78,0,0,0,.08-.55,1.38,1.38,0,0,0-.31-.49.85.85,0,0,1,.33.49.55.55,0,0,1,0,.42,2.89,2.89,0,0,0,.13.7,3,3,0,0,0,.3.24l.24.2a.52.52,0,0,0,.33.11.76.76,0,0,1,.34.11,1.7,1.7,0,0,1,.53.64l0,.07Zm-2-2a1.83,1.83,0,0,1-.44-.68.59.59,0,0,1,0-.44.35.35,0,0,1,.11,0c-.12.08-.12.23-.07.41a1,1,0,0,0,.3.46c0,.09.08.15.11.22Z"/></g><path id="_Path_57" data-name="&lt;Path&gt;" class="cls-7" d="M66.89,71.6c-.9,0-1.64-.18-1.63-.45s.73-.47,1.65-.49,1.64.19,1.64.44-.74.48-1.66.5Z"/><g id="_Group_41" data-name="&lt;Group&gt;"><path id="_Path_58" data-name="&lt;Path&gt;" d="M66.81,71.61a2.65,2.65,0,0,1-1.51-.32v-.1a2.21,2.21,0,0,0,1.51.39v0l.08,0c.92,0,1.64-.22,1.64-.48s-.69-.42-1.54-.42a4.23,4.23,0,0,0-1.43.21,3.08,3.08,0,0,1,1.35-.25h0c1,0,1.66.21,1.66.46s-.74.5-1.68.51Z"/></g><path id="_Path_59" data-name="&lt;Path&gt;" class="cls-7" d="M66.69,70.12c-.58.75-1.21,1.21-1.4,1.06s.11-.9.69-1.64,1.19-1.22,1.4-1.06-.12.89-.69,1.64Z"/><g id="_Group_42" data-name="&lt;Group&gt;"><path id="_Path_60" data-name="&lt;Path&gt;" d="M65.4,71.22l-.12,0c-.21-.16.11-.88.69-1.65s1-1.09,1.3-1.09l.07,0c-.33-.09-.88.44-1.35,1.06s-.88,1.46-.69,1.61l.1,0c.25,0,.78-.46,1.28-1.08a4.5,4.5,0,0,0,.72-1.31,3.17,3.17,0,0,1-.7,1.33c-.5.64-1,1.09-1.3,1.09Z"/></g><path id="_Path_61" data-name="&lt;Path&gt;" class="cls-7" d="M66.92,70.88c-.85.37-1.6.47-1.7.21s.51-.72,1.36-1.09,1.62-.45,1.7-.22-.52.74-1.36,1.1Z"/><g id="_Group_43" data-name="&lt;Group&gt;"><path id="_Compound_Path_26" data-name="&lt;Compound Path&gt;" d="M65.57,71.25c-.21,0-.33,0-.38-.15s.52-.74,1.38-1.1,1.63-.47,1.72-.22-.5.74-1.37,1.11a3.89,3.89,0,0,1-1.35.36Zm2.36-1.58a3.89,3.89,0,0,0-1.35.34c-.83.36-1.44.86-1.35,1.08s.88.12,1.68-.22,1.45-.86,1.36-1.08-.15-.12-.34-.12Z"/></g><path id="_Path_62" data-name="&lt;Path&gt;" class="cls-7" d="M67.36,56.55c.43.37.67.72.56.79s-.52-.21-.94-.58-.67-.73-.57-.8.53.2,1,.59Z"/><g id="_Group_44" data-name="&lt;Group&gt;"><path id="_Path_63" data-name="&lt;Path&gt;" d="M67.88,57.36a2.41,2.41,0,0,1-.92-.6c-.37-.33-.6-.64-.58-.76h.06c0,.13.17.4.55.74a2.22,2.22,0,0,0,.89.59h0l0,0c0-.13-.16-.4-.56-.77a3.25,3.25,0,0,0-.73-.53,2.88,2.88,0,0,1,.76.51c.36.32.6.64.59.77l-.09.06Z"/></g><path id="_Path_64" data-name="&lt;Path&gt;" class="cls-7" d="M66.86,57c.56.07,1,.22,1.06.35s-.41.15-1,.07-1-.23-1.06-.35.42-.15,1-.07Z"/><g id="_Group_45" data-name="&lt;Group&gt;"><path id="_Compound_Path_27" data-name="&lt;Compound Path&gt;" d="M67.48,57.45c-.15,0-.34,0-.55,0-.51-.07-1.05-.22-1.07-.37.15-.26.62-.14,1-.09s1,.21,1.07.36-.31.14-.45.14Zm-1.16-.51c-.23,0-.39,0-.42.08s.44.28,1,.36a1.58,1.58,0,0,0,1,0c0-.12-.44-.28-1.05-.36a3.4,3.4,0,0,0-.53,0Z"/></g><path id="_Path_65" data-name="&lt;Path&gt;" class="cls-7" d="M67.06,56.7c.54.27.92.56.86.66s-.54,0-1.07-.33-.91-.57-.86-.65.53,0,1.07.32Z"/><g id="_Group_46" data-name="&lt;Group&gt;"><path id="_Compound_Path_28" data-name="&lt;Compound Path&gt;" d="M67.84,57.41a2.94,2.94,0,0,1-1-.37c-.46-.23-.84-.49-.87-.62l.1,0c0,.16.36.41.78.63a3.23,3.23,0,0,0,1,.35h0l0,0,0,0Zm.07-.07a2.09,2.09,0,0,0-.86-.63,4,4,0,0,0-.74-.3,2.38,2.38,0,0,1,.76.28,2.26,2.26,0,0,1,.88.63l0,0Z"/></g><path id="_Path_66" data-name="&lt;Path&gt;" class="cls-7" d="M59.63,70a24.07,24.07,0,0,1,2.58.73c1.2.43,3,1.93,3.52,2a1.56,1.56,0,0,0,1.61-1c-.86.23-1.36.56-2.17.12a21.71,21.71,0,0,0-2.25-1.4,25.73,25.73,0,0,0-3.09-1Z"/><g id="_Group_47" data-name="&lt;Group&gt;"><path id="_Compound_Path_29" data-name="&lt;Compound Path&gt;" d="M65.82,72.77h-.09A6.15,6.15,0,0,1,64.42,72a13.06,13.06,0,0,0-2.21-1.28A24.65,24.65,0,0,0,59.63,70l.18-.49h0a22.67,22.67,0,0,1,3.12,1,10,10,0,0,1,1.7,1.06,3.44,3.44,0,0,0,.54.36,2,2,0,0,0,1.68,0l.48-.16a1.51,1.51,0,0,1-1.51,1ZM59.65,70a18.42,18.42,0,0,1,2.57.72A11.64,11.64,0,0,1,64.45,72a6.24,6.24,0,0,0,1.28.74h.09a1.49,1.49,0,0,0,1.49-.94l-.46.17a2,2,0,0,1-1.69,0,6.13,6.13,0,0,1-.56-.36,8.05,8.05,0,0,0-1.69-1,22.6,22.6,0,0,0-3.09-1l-.17.46Z"/></g><path id="_Path_67" data-name="&lt;Path&gt;" class="cls-7" d="M61.1,57.52s1.58-.83,1.58-.83l-1.74.44-.2.32Z"/><g id="_Group_48" data-name="&lt;Group&gt;"><path id="_Compound_Path_30" data-name="&lt;Compound Path&gt;" d="M61.11,57.53l-.37-.07.19-.35,1.75-.44s-1.52.83-1.57.86Zm1.57-.86L61,57.13l-.2.32.36,0c.06,0,.35-.2,1.57-.83Z"/></g><path id="_Path_68" data-name="&lt;Path&gt;" class="cls-7" d="M62.61,57.91c-.61-.12-1.57-.32-2.16-.37.42-.46,1-1.24,1.34-1.72a15,15,0,0,0-.75,1.5,15.41,15.41,0,0,0,1.57.59Z"/><g id="_Group_49" data-name="&lt;Group&gt;"><path id="_Compound_Path_31" data-name="&lt;Compound Path&gt;" d="M62.61,57.91l-.47-.07c-.56-.11-1.22-.25-1.69-.29.4-.47,1-1.25,1.33-1.75l-.2.46a6,6,0,0,0-.51,1.06,7.64,7.64,0,0,0,1,.39l.53.18v0Zm-.83-2.11a15.73,15.73,0,0,1-1.32,1.75,10.32,10.32,0,0,1,1.69.25l.26,0-.34-.11a7.15,7.15,0,0,1-1-.4,6.38,6.38,0,0,1,.5-1.08l.24-.45Z"/></g><path id="_Path_69" data-name="&lt;Path&gt;" class="cls-7" d="M60.82,57.61l1.41-1.09-1.64.74-.14.34Z"/><g id="_Group_50" data-name="&lt;Group&gt;"><path id="_Compound_Path_32" data-name="&lt;Compound Path&gt;" d="M60.82,57.64l-.37,0,.13-.36,1.64-.74s-1.35,1.08-1.4,1.12Zm1.4-1.13-1.62.76-.14.34h.35l1.41-1.09Z"/></g><path id="_Path_70" data-name="&lt;Path&gt;" class="cls-7" d="M62.33,57.89c-.62-.11-1.57-.34-2.19-.39a19.34,19.34,0,0,0,1.32-1.77,15.06,15.06,0,0,0-.72,1.54c.44.23,1.11.43,1.59.62Z"/><g id="_Group_51" data-name="&lt;Group&gt;"><path id="_Path_71" data-name="&lt;Path&gt;" d="M62.33,57.91l-.49-.09a12,12,0,0,0-1.7-.3c.39-.49.94-1.26,1.29-1.75h0a13.72,13.72,0,0,1-1.25,1.73,13.35,13.35,0,0,1,1.68.28l.28.06-.34-.13a5.92,5.92,0,0,1-1-.42,5,5,0,0,1,.5-1.13l.15-.32-.12.32a10.51,10.51,0,0,0-.51,1.12,8.54,8.54,0,0,0,1,.4l.54.19v0Z"/></g><polygon id="_Path_72" data-name="&lt;Path&gt;" class="cls-7" points="60.59 57.71 62.24 57.01 60.46 57.3 60.23 57.59 60.59 57.71"/><g id="_Group_52" data-name="&lt;Group&gt;"><path id="_Compound_Path_33" data-name="&lt;Compound Path&gt;" d="M60.59,57.73l-.37-.12.23-.31,1.79-.3c-.44.2-1.61.69-1.64.72ZM62.24,57l-1.78.32-.22.28.35.09c.07,0,.37-.17,1.65-.69Z"/></g><path id="_Path_73" data-name="&lt;Path&gt;" class="cls-7" d="M62.14,57.91A20.92,20.92,0,0,0,60,57.75c.34-.53.8-1.41,1.09-2a12.59,12.59,0,0,0-.53,1.65c.44.19,1.14.31,1.63.46Z"/><g id="_Group_53" data-name="&lt;Group&gt;"><path id="_Compound_Path_34" data-name="&lt;Compound Path&gt;" d="M62.14,57.91l-.55,0c-.52,0-1.12-.11-1.55-.11h0c.51,0,1.06,0,1.55.09l.35,0-.36-.09a7.06,7.06,0,0,1-1.09-.32,6.59,6.59,0,0,1,.37-1.21L61,56l-.06.28a7.93,7.93,0,0,0-.37,1.19,7.35,7.35,0,0,0,1.07.3l.56.14v0Zm-1.82-.76c.21-.44.47-.91.67-1.28l0,0c-.18.39-.42.85-.65,1.26Z"/></g><path id="_Path_74" data-name="&lt;Path&gt;" class="cls-7" d="M60.41,57.71s1.13-1.37,1.13-1.37l-1.43,1.07-.06.36Z"/><g id="_Group_54" data-name="&lt;Group&gt;"><path id="_Compound_Path_35" data-name="&lt;Compound Path&gt;" d="M60,57.79l.07-.38,1.44-1.08c-.29.39-1.09,1.34-1.12,1.39l-.39.07Zm1.51-1.46-1.41,1.1-.07.32.35-.06,1.13-1.36Z"/></g><path id="_Path_75" data-name="&lt;Path&gt;" class="cls-7" d="M62.13,58a22.88,22.88,0,0,0-2.34,0c.31-.59.7-1.59,1-2.2-.11.56-.35,1.31-.39,1.83a16.49,16.49,0,0,0,1.78.38Z"/><g id="_Group_55" data-name="&lt;Group&gt;"><path id="_Path_76" data-name="&lt;Path&gt;" d="M62.13,58l-.56,0c-.61,0-1.31,0-1.78,0,.27-.59.65-1.53.91-2.13h0c-.26.71-.63,1.58-.9,2.12a7.34,7.34,0,0,1,1.77,0h.37l-.42-.07a7,7,0,0,1-1.17-.27,6,6,0,0,1,.24-1.29l.08-.34,0,.35a6.91,6.91,0,0,0-.26,1.26,9.79,9.79,0,0,0,1.17.26l.6.11v0Z"/></g><path id="_Path_77" data-name="&lt;Path&gt;" class="cls-7" d="M60.19,58s1.36-1.31,1.36-1.31l-1.65.92-.11.39Z"/><g id="_Group_56" data-name="&lt;Group&gt;"><path id="_Compound_Path_36" data-name="&lt;Compound Path&gt;" d="M60.19,58.05h-.4l.1-.41,1.65-.93c-.5.53-1.31,1.3-1.33,1.34Zm1.35-1.34-1.63.95L59.8,58h.39c.05-.06.29-.3,1.35-1.31Z"/></g><path id="_Path_78" data-name="&lt;Path&gt;" class="cls-7" d="M61.84,58c-.73,0-1.84,0-2.55,0,.47-.67,1.11-1.77,1.5-2.45a21.56,21.56,0,0,0-.81,2c.5.17,1.29.24,1.86.36Z"/><g id="_Group_57" data-name="&lt;Group&gt;"><path id="_Path_79" data-name="&lt;Path&gt;" d="M59.27,58.1v0c.45-.66,1.11-1.75,1.48-2.42h0a26.94,26.94,0,0,1-1.43,2.42A9.83,9.83,0,0,1,60.6,58h1.16l-.56-.08A7.91,7.91,0,0,1,60,57.68a9.51,9.51,0,0,1,.54-1.46l.23-.53-.2.56A14,14,0,0,0,60,57.67a8.23,8.23,0,0,0,1.22.24l.62.11-.6,0H60.6c-.47,0-.94,0-1.3,0Z"/></g><path id="_Path_80" data-name="&lt;Path&gt;" class="cls-7" d="M59.72,58.14s1.75-1.48,1.75-1.48l-2,1.05-.2.43Z"/><g id="_Group_58" data-name="&lt;Group&gt;"><path id="_Compound_Path_37" data-name="&lt;Compound Path&gt;" d="M59.27,58.15l.21-.46,2-1c-.57.52-1.69,1.46-1.73,1.51Zm2.19-1.51-2,1.08-.18.4h.39l1.74-1.48Z"/></g><path id="_Path_81" data-name="&lt;Path&gt;" class="cls-7" d="M61.57,58.08a23.44,23.44,0,0,0-2.51.41c.37-.73.84-1.89,1.15-2.61A16.87,16.87,0,0,0,59.68,58a14.65,14.65,0,0,0,1.89.11Z"/><g id="_Group_59" data-name="&lt;Group&gt;"><path id="_Path_82" data-name="&lt;Path&gt;" d="M59,58.5v0c.37-.7.83-1.82,1.12-2.53h0c-.29.76-.73,1.82-1.08,2.5.55-.13,1.28-.23,1.91-.31l.58-.08h-.63A6.91,6.91,0,0,1,59.68,58,9.41,9.41,0,0,1,60,56.46l.11-.41-.09.43A11.75,11.75,0,0,0,59.7,58c.33.05.79.05,1.24.07.22,0,.43,0,.63,0l-.57.1c-.65.09-1.41.2-1.94.33Z"/></g><path id="_Path_83" data-name="&lt;Path&gt;" class="cls-7" d="M59.49,58.43s1.36-1.87,1.36-1.87l-1.7,1.52-.08.46Z"/><g id="_Group_60" data-name="&lt;Group&gt;"><path id="_Compound_Path_38" data-name="&lt;Compound Path&gt;" d="M59.05,58.58l.1-.5,1.68-1.53c-.34.53-1.3,1.83-1.32,1.88l-.46.15Zm1.77-2-1.65,1.54-.09.43.4-.1s.13-.21,1.34-1.87Z"/></g><path id="_Path_84" data-name="&lt;Path&gt;" class="cls-7" d="M61.17,58.3c-.71.07-1.83.13-2.52.28.4-.71,1-1.84,1.28-2.55-.2.64-.53,1.49-.64,2.07a14.6,14.6,0,0,0,1.88.2Z"/><g id="_Group_61" data-name="&lt;Group&gt;"><path id="_Compound_Path_39" data-name="&lt;Compound Path&gt;" d="M58.62,58.59v0c.41-.71,1-1.84,1.28-2.53l-.18.64c-.17.5-.34,1-.43,1.43.35.07.79.1,1.22.14a4.19,4.19,0,0,1,.65,0l-.61.08c-.63.05-1.38.12-1.91.22ZM59.91,56a21.61,21.61,0,0,1-1.24,2.51c.54-.09,1.27-.16,1.89-.21l.61,0-.65,0a6.41,6.41,0,0,1-1.23-.14,9.47,9.47,0,0,1,.41-1.45l.21-.64Z"/></g><path id="_Path_85" data-name="&lt;Path&gt;" class="cls-7" d="M59.25,58.63S61,57.13,61,57.13l-2,1-.18.45Z"/><g id="_Group_62" data-name="&lt;Group&gt;"><path id="_Compound_Path_40" data-name="&lt;Compound Path&gt;" d="M58.8,58.65l.2-.47,2-1c-.56.52-1.67,1.46-1.69,1.5l-.47,0ZM61,57.13,59,58.2l-.18.41h.4s.17-.16,1.7-1.47Z"/></g><path id="_Path_86" data-name="&lt;Path&gt;" class="cls-7" d="M61,58.38c-.72.16-1.84.34-2.52.56.33-.73.76-1.91,1-2.64-.13.65-.37,1.53-.42,2.11a15.47,15.47,0,0,0,1.92,0Z"/><g id="_Group_63" data-name="&lt;Group&gt;"><path id="_Path_87" data-name="&lt;Path&gt;" d="M58.42,59v0c.32-.67.7-1.75,1-2.47v0a23.35,23.35,0,0,1-.91,2.43c.52-.16,1.28-.31,1.92-.43l.56-.11a4.4,4.4,0,0,1-.65.05,5.88,5.88,0,0,1-1.26,0,13.76,13.76,0,0,1,.26-1.54l.07-.25,0,.27a13.38,13.38,0,0,0-.28,1.51,10.8,10.8,0,0,0,1.24,0H61l-.56.13a18.8,18.8,0,0,0-1.95.46Z"/></g><path id="_Path_88" data-name="&lt;Path&gt;" class="cls-7" d="M59,58.7s1.08-2,1.08-2l-1.48,1.76v.45Z"/><g id="_Group_64" data-name="&lt;Group&gt;"><path id="_Compound_Path_41" data-name="&lt;Compound Path&gt;" d="M58.54,58.91l0-.49,1.49-1.76c-.35.7-1.06,2-1.07,2.05l-.44.2Zm1.51-2.24-1.46,1.77,0,.43.39-.19s.09-.2,1.09-2Z"/></g><path id="_Path_89" data-name="&lt;Path&gt;" class="cls-7" d="M61,58.5c-.78.2-2,.46-2.7.73.28-.82.61-2.17.79-3a19.79,19.79,0,0,0-.18,2.35A18.83,18.83,0,0,0,61,58.5Z"/><g id="_Group_65" data-name="&lt;Group&gt;"><path id="_Compound_Path_42" data-name="&lt;Compound Path&gt;" d="M58.24,59.26v0c.29-.83.6-2.17.8-3l0,.68a11.49,11.49,0,0,0-.12,1.67h.3c.33,0,.7,0,1.06-.06a6.35,6.35,0,0,1,.72-.06l-.65.19c-.69.17-1.49.37-2,.57l0,0Zm.81-3a27.83,27.83,0,0,1-.76,3c.55-.19,1.34-.39,2-.56l.64-.15-.71.08a9.47,9.47,0,0,1-1.38,0A10.24,10.24,0,0,1,59,56.93l.07-.68Z"/></g><path id="_Path_90" data-name="&lt;Path&gt;" class="cls-7" d="M58.76,59.17s1.37-2,1.37-2l-1.77,1.65-.07.52Z"/><g id="_Group_66" data-name="&lt;Group&gt;"><path id="_Compound_Path_43" data-name="&lt;Compound Path&gt;" d="M58.27,59.32l.08-.54,1.76-1.67c-.34.58-1.31,2-1.34,2.07l-.5.14Zm1.84-2.19-1.74,1.66,0,.49.43-.13s.13-.23,1.36-2Z"/></g><path id="_Path_91" data-name="&lt;Path&gt;" class="cls-7" d="M60.66,58.73c-.76.24-1.93.55-2.65.87.24-.83.51-2.17.65-3a21,21,0,0,0-.08,2.34,16.85,16.85,0,0,0,2.08-.21Z"/><g id="_Group_67" data-name="&lt;Group&gt;"><path id="_Path_92" data-name="&lt;Path&gt;" d="M58,59.63v0c.24-.85.5-2.17.65-3v.7a9.55,9.55,0,0,0-.06,1.06,9.38,9.38,0,0,1,0-1.06l0-.7a29,29,0,0,1-.61,3,19.48,19.48,0,0,1,2-.66l.65-.2a4.24,4.24,0,0,1-.69.13,8.3,8.3,0,0,1-1.25.13s0,0,0,0A11.44,11.44,0,0,0,60,58.81c.26,0,.49-.08.71-.1l-.66.23a19.76,19.76,0,0,0-2,.68Z"/></g><path id="_Path_93" data-name="&lt;Path&gt;" class="cls-7" d="M58.47,59.48s1.05-2.26,1.05-2.26L58,59.15l0,.52Z"/><g id="_Group_68" data-name="&lt;Group&gt;"><path id="_Compound_Path_44" data-name="&lt;Compound Path&gt;" d="M58,59.7v-.55l1.5-1.93c-.26.62-1,2.19-1,2.26L58,59.7Zm1.49-2.48-1.46,2v.48l.42-.19s.08-.23,1-2.24Z"/></g><path id="_Path_94" data-name="&lt;Path&gt;" class="cls-7" d="M60.39,59c-.79.18-2,.41-2.72.66.3-.82.68-2.12.9-2.93a23,23,0,0,0-.29,2.32,18.91,18.91,0,0,0,2.11,0Z"/><g id="_Group_69" data-name="&lt;Group&gt;"><path id="_Path_95" data-name="&lt;Path&gt;" d="M57.63,59.71v0c.31-.8.68-2.09.91-2.9h0a24.46,24.46,0,0,1-.87,2.87c.56-.17,1.33-.33,2-.48l.67-.15a5.09,5.09,0,0,1-.71.06,6.39,6.39,0,0,1-1.38,0,9,9,0,0,1,.19-1.68l.08-.57-.06.57a12.92,12.92,0,0,0-.2,1.67c.36,0,.89,0,1.37,0,.24,0,.5,0,.73,0l-.69.17a17.66,17.66,0,0,0-2,.51Z"/></g><path id="_Path_96" data-name="&lt;Path&gt;" class="cls-7" d="M58.23,59.69s1.71-1.77,1.71-1.77l-2,1.31-.15.5Z"/><g id="_Group_70" data-name="&lt;Group&gt;"><path id="_Compound_Path_45" data-name="&lt;Compound Path&gt;" d="M57.74,59.74l.17-.51,2-1.32c-.45.5-1.66,1.74-1.69,1.78l-.5.05Zm2.19-1.83-2,1.33-.13.47.45,0s.17-.19,1.7-1.76Z"/></g><path id="_Path_97" data-name="&lt;Path&gt;" class="cls-7" d="M60,59.33c-.77.11-2,.22-2.7.41.37-.81.82-2.1,1.09-2.9A19.86,19.86,0,0,0,58,59.18a15.21,15.21,0,0,0,2.05.15Z"/><g id="_Group_71" data-name="&lt;Group&gt;"><path id="_Path_98" data-name="&lt;Path&gt;" d="M57.3,59.76l0,0c.32-.75.74-1.94,1-2.74v0c-.29.91-.68,2-1,2.7.55-.13,1.33-.23,2-.32l.64-.07h-.69A8.91,8.91,0,0,1,58,59.2a9.28,9.28,0,0,1,.29-1.74l0-.29,0,.3a12.89,12.89,0,0,0-.3,1.71,7,7,0,0,0,1.34.1l.7,0-.65.12c-.69.09-1.5.18-2.05.3l0,0Z"/></g><path id="_Path_99" data-name="&lt;Path&gt;" class="cls-7" d="M57.88,59.51s1.17-2.2,1.17-2.2l-1.57,1.86,0,.52Z"/><g id="_Group_72" data-name="&lt;Group&gt;"><path id="_Compound_Path_46" data-name="&lt;Compound Path&gt;" d="M57.43,59.71l0-.54L59,57.3c-.29.61-1.13,2.16-1.13,2.21l-.48.2ZM59,57.3l-1.56,1.87v.48l.4-.15S58,59.26,59,57.3Z"/></g><path id="_Path_100" data-name="&lt;Path&gt;" class="cls-7" d="M60.12,59.07c-.84.34-2.13.83-2.93,1.24.27-1,.55-2.56.71-3.52a23,23,0,0,0-.07,2.72,20,20,0,0,0,2.29-.44Z"/><g id="_Group_73" data-name="&lt;Group&gt;"><path id="_Compound_Path_47" data-name="&lt;Compound Path&gt;" d="M57.17,60.35v0c.26-1,.53-2.56.7-3.53v.79a16.24,16.24,0,0,0,0,1.94,12.66,12.66,0,0,0,1.5-.27l.79-.18-.71.32a20.14,20.14,0,0,0-2.2.95l0,0Zm.71-3.56c-.14,1-.4,2.49-.65,3.5.58-.31,1.43-.64,2.17-.95l.71-.28a7.54,7.54,0,0,1-.77.21,10.89,10.89,0,0,1-1.51.26,14.22,14.22,0,0,1,0-2l.05-.78Z"/></g><path id="_Path_101" data-name="&lt;Path&gt;" class="cls-7" d="M57.74,60.17s1.38-2.52,1.38-2.52L57.28,59.8l-.05.58Z"/><g id="_Group_74" data-name="&lt;Group&gt;"><path id="_Compound_Path_48" data-name="&lt;Compound Path&gt;" d="M57.21,60.41l0-.63,1.85-2.14c-.45.86-1.35,2.48-1.37,2.54l-.53.23Zm1.9-2.77L57.29,59.8l0,.56.47-.2s.12-.24,1.4-2.52Z"/></g><path id="_Path_102" data-name="&lt;Path&gt;" class="cls-7" d="M59.8,59.39c-.82.39-2.1.92-2.86,1.39.21-1,.42-2.57.54-3.52a26.37,26.37,0,0,0,0,2.69,19.91,19.91,0,0,0,2.28-.56Z"/><g id="_Group_75" data-name="&lt;Group&gt;"><path id="_Path_103" data-name="&lt;Path&gt;" d="M56.91,60.8l0,0c.21-1,.4-2.53.53-3.48h0c-.1,1-.3,2.47-.51,3.44a21.84,21.84,0,0,1,2.16-1.05l.68-.31-.77.24a8.11,8.11,0,0,1-1.5.34,11,11,0,0,1-.07-2v-.65l0,.65a16.83,16.83,0,0,0,0,1.94A11.49,11.49,0,0,0,59,59.58c.26-.08.53-.15.77-.2l-.67.33c-.74.34-1.61.73-2.19,1.08Z"/></g><path id="_Path_104" data-name="&lt;Path&gt;" class="cls-7" d="M57.44,60.56s1-2.72,1-2.72l-1.53,2.43,0,.59Z"/><g id="_Group_76" data-name="&lt;Group&gt;"><path id="_Compound_Path_49" data-name="&lt;Compound Path&gt;" d="M57,60.89l0-.62,1.54-2.43c-.33.91-1,2.66-1,2.72l-.51.33Zm1.5-3-1.51,2.43.05.56.44-.29s.07-.23,1-2.7Z"/></g><path id="_Path_105" data-name="&lt;Path&gt;" class="cls-7" d="M59.45,59.62A31.62,31.62,0,0,0,56.59,61c.21-1,.4-2.55.51-3.53,0,.83,0,2,.07,2.7a23.12,23.12,0,0,0,2.28-.58Z"/><g id="_Group_77" data-name="&lt;Group&gt;"><path id="_Compound_Path_50" data-name="&lt;Compound Path&gt;" d="M56.57,61.05v0c.2-1,.4-2.56.51-3.52l0,.82a18.16,18.16,0,0,0,.06,1.88,12.16,12.16,0,0,0,1.48-.39c.28-.07.55-.16.79-.21L58.8,60A20.51,20.51,0,0,0,56.6,61Zm.52-3.55A33.56,33.56,0,0,1,56.61,61c.57-.35,1.44-.74,2.16-1.09l.66-.3a6.78,6.78,0,0,1-.76.25,8.28,8.28,0,0,1-1.5.36,11.26,11.26,0,0,1-.08-1.89V57.5Z"/></g><path id="_Path_106" data-name="&lt;Path&gt;" class="cls-7" d="M57.21,60.89s1.59-2.4,1.59-2.4l-2,1.95-.09.6Z"/><g id="_Group_78" data-name="&lt;Group&gt;"><path id="_Compound_Path_51" data-name="&lt;Compound Path&gt;" d="M56.68,61.06l.1-.62,2-2c-.51.82-1.52,2.34-1.55,2.41l-.55.17Zm2.09-2.58-2,2-.09.56.47-.15s.14-.24,1.58-2.39Z"/></g><path id="_Path_107" data-name="&lt;Path&gt;" class="cls-7" d="M59.36,59.48c-.72.59-1.87,1.45-2.54,2.08,0-1-.12-2.54-.21-3.49.19.78.37,1.89.62,2.56a19.38,19.38,0,0,0,2.13-1.15Z"/><g id="_Group_79" data-name="&lt;Group&gt;"><path id="_Path_108" data-name="&lt;Path&gt;" d="M56.81,61.6v0c0-.92-.1-2.28-.18-3.24v0c.12,1.11.2,2.33.2,3.18.49-.48,1.27-1.07,1.91-1.57l.6-.48c-.2.14-.45.29-.7.43a7.85,7.85,0,0,1-1.41.72,9.27,9.27,0,0,1-.48-1.84l0-.25.08.25a13.46,13.46,0,0,0,.47,1.83c.38-.16.89-.46,1.37-.73.26-.15.5-.3.72-.41l-.58.5c-.66.52-1.44,1.12-1.93,1.6l0,0Z"/></g><path id="_Path_109" data-name="&lt;Path&gt;" class="cls-7" d="M57.29,61s.19-2.88.19-2.88l-.76,2.81.21.52Z"/><g id="_Group_80" data-name="&lt;Group&gt;"><path id="_Compound_Path_52" data-name="&lt;Compound Path&gt;" d="M56.91,61.47l-.21-.54.76-2.81c0,.79-.16,2.81-.16,2.87l-.39.48Zm.55-3.35-.73,2.81.2.48.35-.42s0-.19.18-2.87Z"/></g><path id="_Path_110" data-name="&lt;Path&gt;" class="cls-7" d="M59.15,59.74c-.72.59-1.87,1.44-2.54,2.07,0-1-.11-2.53-.2-3.49A25.85,25.85,0,0,0,57,60.87a18.21,18.21,0,0,0,2.13-1.13Z"/><g id="_Group_81" data-name="&lt;Group&gt;"><path id="_Path_111" data-name="&lt;Path&gt;" d="M56.6,61.86v0c0-1-.11-2.43-.19-3.39v0c.11,1,.23,2.4.23,3.34.48-.46,1.22-1,1.86-1.53l.65-.51c-.2.15-.45.28-.69.43a10.64,10.64,0,0,1-1.43.72,11.74,11.74,0,0,1-.46-1.82l-.11-.47.13.47a11.46,11.46,0,0,0,.46,1.8,11.31,11.31,0,0,0,1.38-.74l.72-.39-.62.53c-.66.51-1.41,1.09-1.9,1.56l0,0Z"/></g><path id="_Path_112" data-name="&lt;Path&gt;" class="cls-7" d="M57.1,61.48s.73-2.81.73-2.81l-1.26,2.59.1.57Z"/><g id="_Group_82" data-name="&lt;Group&gt;"><path id="_Compound_Path_53" data-name="&lt;Compound Path&gt;" d="M56.66,61.87l-.1-.61,1.27-2.59c-.23.95-.71,2.75-.71,2.81l-.46.39Zm1.17-3.2-1.25,2.59.1.54.41-.33s0-.25.74-2.8Z"/></g><path id="_Path_113" data-name="&lt;Path&gt;" class="cls-7" d="M59.08,59.83c-.69.67-1.78,1.69-2.4,2.41-.1-1-.41-2.59-.59-3.57A24.59,24.59,0,0,0,57,61.23a21.06,21.06,0,0,0,2.08-1.4Z"/><g id="_Group_83" data-name="&lt;Group&gt;"><path id="_Path_114" data-name="&lt;Path&gt;" d="M56.67,62.28v0c-.1-1-.4-2.51-.58-3.47h0c.22,1,.49,2.45.6,3.42.45-.54,1.16-1.22,1.78-1.82l.59-.57c-.2.17-.44.35-.7.53a9.93,9.93,0,0,1-1.36.9,11.5,11.5,0,0,1-.69-1.8l-.16-.52.19.51A14.93,14.93,0,0,0,57,61.22a9.71,9.71,0,0,0,1.35-.91c.24-.18.49-.35.71-.5l-.57.6c-.63.61-1.35,1.3-1.8,1.84l0,0Z"/></g><path id="_Path_115" data-name="&lt;Path&gt;" class="cls-7" d="M57.12,61.84s.12-3,.12-3l-.74,2.9.25.54Z"/><g id="_Group_84" data-name="&lt;Group&gt;"><path id="_Compound_Path_54" data-name="&lt;Compound Path&gt;" d="M56.73,62.34l-.23-.58.73-2.91c0,1-.11,2.93-.11,3l-.39.5Zm.5-3.48-.71,2.9.23.52.34-.45s0-.27.14-3Z"/></g><path id="_Path_116" data-name="&lt;Path&gt;" class="cls-7" d="M58.87,60.31c-.75.62-1.92,1.52-2.57,2.18,0-1-.2-2.63-.3-3.62a23.25,23.25,0,0,0,.68,2.65,24.1,24.1,0,0,0,2.19-1.21Z"/><g id="_Group_85" data-name="&lt;Group&gt;"><path id="_Compound_Path_55" data-name="&lt;Compound Path&gt;" d="M56.27,62.53v0c0-1-.18-2.63-.3-3.62l.22.78a13.21,13.21,0,0,0,.52,1.86,11.75,11.75,0,0,0,1.42-.79c.26-.15.5-.3.72-.41l-.61.53c-.67.54-1.44,1.17-1.93,1.66l0,0ZM56,58.87c.14,1,.3,2.54.34,3.59a22.56,22.56,0,0,1,1.92-1.64l.62-.51a6.48,6.48,0,0,1-.7.43,9.7,9.7,0,0,1-1.45.79,10.29,10.29,0,0,1-.54-1.88L56,58.87Z"/></g><path id="_Path_117" data-name="&lt;Path&gt;" class="cls-8" d="M69.26,63.36A5.25,5.25,0,1,1,64,58.12a5.25,5.25,0,0,1,5.26,5.24Z"/><path id="_Path_118" data-name="&lt;Path&gt;" class="cls-7" d="M56.88,62.19s1-2.81,1-2.81l-1.56,2.49,0,.6Z"/><g id="_Group_86" data-name="&lt;Group&gt;"><path id="_Compound_Path_56" data-name="&lt;Compound Path&gt;" d="M56.4,62.51l0-.64,1.56-2.5c-.33,1-1,2.75-1,2.82l-.51.32Zm1.51-3.13-1.53,2.5,0,.58.46-.29s.08-.25,1-2.79Z"/></g><path id="_Path_119" data-name="&lt;Path&gt;" class="cls-7" d="M58.85,60.33c-.65.69-1.7,1.71-2.27,2.45-.11-1-.4-2.62-.57-3.6a22.25,22.25,0,0,0,.87,2.58,21.65,21.65,0,0,0,2-1.43Z"/><g id="_Group_87" data-name="&lt;Group&gt;"><path id="_Path_120" data-name="&lt;Path&gt;" d="M56.57,62.83v0c-.11-1-.38-2.47-.55-3.46v0c.22,1.1.47,2.46.56,3.42a21.82,21.82,0,0,1,1.7-1.87l.55-.58a7.22,7.22,0,0,1-.65.55,9.07,9.07,0,0,1-1.31.92,12.47,12.47,0,0,1-.66-1.86l-.12-.38.16.37a13.25,13.25,0,0,0,.63,1.85,13,13,0,0,0,1.27-.93l.68-.52-.52.59c-.6.62-1.3,1.34-1.73,1.9l0,0Z"/></g><path id="_Path_121" data-name="&lt;Path&gt;" class="cls-7" d="M56.93,62.32s-.13-3-.13-3l-.48,3,.27.51Z"/><g id="_Group_88" data-name="&lt;Group&gt;"><path id="_Compound_Path_57" data-name="&lt;Compound Path&gt;" d="M56.59,62.87l-.28-.55.48-3c.07,1,.14,2.91.15,3l-.35.55Zm.2-3.52-.44,3,.25.48.31-.48s0-.28-.12-3Z"/></g><path id="_Path_122" data-name="&lt;Path&gt;" class="cls-7" d="M58.53,60.56c-.63.69-1.65,1.72-2.19,2.47-.14-1-.47-2.63-.68-3.62A24.9,24.9,0,0,0,56.6,62a21.93,21.93,0,0,0,1.93-1.44Z"/><g id="_Group_89" data-name="&lt;Group&gt;"><path id="_Path_123" data-name="&lt;Path&gt;" d="M56.32,63.07v0c-.14-1-.47-2.61-.67-3.59v0c.24,1,.55,2.5.7,3.53.42-.55,1.08-1.27,1.64-1.89l.53-.56c-.18.17-.4.35-.62.53a10.41,10.41,0,0,1-1.29.94,11.59,11.59,0,0,1-.71-1.81l-.23-.69.27.67A14.61,14.61,0,0,0,56.61,62a11.07,11.07,0,0,0,1.26-.94c.24-.19.45-.37.65-.51l-.5.59c-.58.63-1.25,1.34-1.67,1.91l0,0Z"/></g><path id="_Path_124" data-name="&lt;Path&gt;" class="cls-7" d="M56.77,62.62s.32-3,.32-3l-.89,2.86.2.59Z"/><g id="_Group_90" data-name="&lt;Group&gt;"><path id="_Compound_Path_58" data-name="&lt;Compound Path&gt;" d="M56.38,63.08l-.19-.62.89-2.86c-.09,1-.3,2.95-.3,3l-.4.47Zm.7-3.48-.86,2.86.18.55.36-.4s0-.26.32-3Z"/></g><path id="_Path_125" data-name="&lt;Path&gt;" class="cls-7" d="M58.39,60.67c-.57.75-1.51,1.88-2,2.68-.22-1-.68-2.57-1-3.52a22.78,22.78,0,0,0,1.14,2.47,22.37,22.37,0,0,0,1.81-1.63Z"/><g id="_Group_91" data-name="&lt;Group&gt;"><path id="_Path_126" data-name="&lt;Path&gt;" d="M56.4,63.39l0,0c-.22-1-.66-2.49-.94-3.45l0,0c.31,1,.73,2.42.94,3.38.38-.58,1-1.35,1.5-2l.47-.62c-.15.18-.36.38-.56.58a9.19,9.19,0,0,1-1.22,1.06,13.75,13.75,0,0,1-.87-1.76l-.2-.5.24.48a13.51,13.51,0,0,0,.83,1.77,10.92,10.92,0,0,0,1.2-1.07c.2-.2.41-.4.6-.56l-.48.64c-.52.68-1.13,1.46-1.51,2.05v0Z"/></g><path id="_Path_127" data-name="&lt;Path&gt;" class="cls-7" d="M56.76,62.9s-.2-3-.2-3l-.38,3,.27.53Z"/><g id="_Group_92" data-name="&lt;Group&gt;"><path id="_Compound_Path_59" data-name="&lt;Compound Path&gt;" d="M56.45,63.44l-.29-.56.38-3c.1,1,.22,3,.23,3l-.32.54Zm.09-3.55-.35,3,.26.49.28-.47s0-.28-.19-3Z"/></g><path id="_Path_128" data-name="&lt;Path&gt;" class="cls-7" d="M58.34,60.84c-.55.79-1.43,2-1.88,2.81-.27-1-.8-2.56-1.12-3.5a23.69,23.69,0,0,0,1.25,2.42,20.34,20.34,0,0,0,1.75-1.73Z"/><g id="_Group_93" data-name="&lt;Group&gt;"><path id="_Compound_Path_60" data-name="&lt;Compound Path&gt;" d="M56.45,63.69l0,0c-.23-.92-.69-2.28-1-3.23l-.08-.27.37.69a16.86,16.86,0,0,0,.92,1.73,15,15,0,0,0,1.13-1.13c.2-.22.41-.42.58-.61l-.42.68c-.5.7-1.08,1.52-1.43,2.14l0,0Zm-1.13-3.54.11.27c.33.93.79,2.26,1,3.17.35-.61.93-1.4,1.4-2.11l.46-.64c-.16.2-.35.4-.55.62a9.37,9.37,0,0,1-1.17,1.13,11.49,11.49,0,0,1-.94-1.73l-.34-.71Z"/></g><path id="_Path_129" data-name="&lt;Path&gt;" class="cls-7" d="M56.94,63.19s.3-3,.3-3L56.38,63l.19.58Z"/><g id="_Group_94" data-name="&lt;Group&gt;"><path id="_Compound_Path_61" data-name="&lt;Compound Path&gt;" d="M56.56,63.63,56.37,63l.86-2.86c-.08,1-.28,3-.28,3l-.39.44Zm.67-3.48L56.4,63l.17.56.36-.38s0-.27.3-3Z"/></g><path id="_Path_130" data-name="&lt;Path&gt;" class="cls-7" d="M58.23,61.13c-.47.86-1.23,2.15-1.62,3.05-.35-1-1-2.44-1.43-3.32a24.82,24.82,0,0,0,1.47,2.24c.51-.49,1.09-1.38,1.58-2Z"/><g id="_Group_95" data-name="&lt;Group&gt;"><path id="_Path_131" data-name="&lt;Path&gt;" d="M56.61,64.22l0,0c-.34-1-1-2.4-1.41-3.29h0c.44.89,1.08,2.28,1.43,3.23.28-.64.78-1.5,1.18-2.24l.43-.77c-.15.23-.32.45-.5.7a11.6,11.6,0,0,1-1.06,1.3,11.22,11.22,0,0,1-1.07-1.57L55.21,61l.4.56a15.53,15.53,0,0,0,1,1.56,12,12,0,0,0,1-1.3c.17-.23.35-.46.52-.67l-.4.78c-.42.77-.91,1.65-1.19,2.29l0,0Z"/></g><polygon id="_Path_132" data-name="&lt;Path&gt;" class="cls-7" points="56.82 63.44 55.99 60.56 56.27 63.59 56.66 64.02 56.82 63.44"/><g id="_Group_96" data-name="&lt;Group&gt;"><path id="_Compound_Path_62" data-name="&lt;Compound Path&gt;" d="M56.66,64.06l-.4-.46-.29-3c.3,1,.84,2.81.87,2.87l-.18.63ZM56,60.56l.32,3,.36.39.16-.54s-.08-.24-.84-2.88Z"/></g><path id="_Path_133" data-name="&lt;Path&gt;" class="cls-7" d="M58.22,61.46c-.5.86-1.29,2.15-1.7,3-.35-.95-1-2.41-1.45-3.3a24,24,0,0,0,1.51,2.23c.52-.48,1.12-1.36,1.64-2Z"/><g id="_Group_97" data-name="&lt;Group&gt;"><path id="_Compound_Path_63" data-name="&lt;Compound Path&gt;" d="M56.52,64.54l0,0c-.34-1-1-2.41-1.44-3.31l.45.64a11.36,11.36,0,0,0,1.08,1.58,13.69,13.69,0,0,0,1-1.26c.19-.25.38-.5.56-.7l-.41.77c-.44.76-.95,1.64-1.25,2.28l0,0Zm-1.46-3.35a32.39,32.39,0,0,1,1.46,3.27c.3-.65.81-1.52,1.24-2.26l.44-.75c-.15.23-.36.47-.53.71a10.58,10.58,0,0,1-1.08,1.27,12.26,12.26,0,0,1-1.12-1.58l-.41-.66Z"/></g><path id="_Path_134" data-name="&lt;Path&gt;" class="cls-7" d="M56.87,64s-.31-3-.31-3l-.29,3,.31.51Z"/><g id="_Group_98" data-name="&lt;Group&gt;"><path id="_Compound_Path_64" data-name="&lt;Compound Path&gt;" d="M56.58,64.53,56.26,64l.28-3c.13,1,.32,3,.34,3l-.3.57Zm0-3.57-.24,3,.28.5.28-.5s0-.26-.32-3Z"/></g><path id="_Path_135" data-name="&lt;Path&gt;" class="cls-7" d="M58.25,61.72c-.49.85-1.31,2.13-1.73,3-.34-1-1-2.44-1.39-3.34a24.78,24.78,0,0,0,1.46,2.27,23.13,23.13,0,0,0,1.66-1.93Z"/><g id="_Group_99" data-name="&lt;Group&gt;"><path id="_Path_136" data-name="&lt;Path&gt;" d="M56.52,64.76l0,0c-.32-1-1-2.44-1.38-3.34h0c.43.89,1.06,2.31,1.4,3.29.32-.68.88-1.57,1.34-2.34l.38-.62c-.15.22-.34.45-.54.71a11.38,11.38,0,0,1-1.1,1.22,10.69,10.69,0,0,1-1.07-1.59l-.4-.65.42.63a13.27,13.27,0,0,0,1.06,1.59,13,13,0,0,0,1.06-1.23c.2-.25.39-.48.57-.68l-.34.64a26.45,26.45,0,0,0-1.36,2.37l0,0Z"/></g><path id="_Path_137" data-name="&lt;Path&gt;" class="cls-7" d="M56.84,64.23s-.57-3-.57-3v3l.33.48Z"/><g id="_Group_100" data-name="&lt;Group&gt;"><path id="_Compound_Path_65" data-name="&lt;Compound Path&gt;" d="M56.6,64.81l-.36-.51,0-3c.23,1,.58,2.91.6,3l-.26.59Zm-.34-3.56v3l.33.44.23-.52-.56-3Z"/></g><path id="_Path_138" data-name="&lt;Path&gt;" class="cls-7" d="M58,62.15c-.54.81-1.41,2-1.87,2.87-.29-1-.87-2.5-1.23-3.42.41.72.91,1.77,1.35,2.36A21.61,21.61,0,0,0,58,62.15Z"/><g id="_Group_101" data-name="&lt;Group&gt;"><path id="_Path_139" data-name="&lt;Path&gt;" d="M56.16,65.06v0c-.28-.94-.81-2.35-1.18-3.29v0c.43,1,.91,2.32,1.19,3.22.34-.64.9-1.45,1.39-2.17l.45-.67c-.15.2-.35.42-.54.65A9.79,9.79,0,0,1,56.3,64a12,12,0,0,1-1-1.68L55.11,62l.21.31a14.18,14.18,0,0,0,1,1.68,12.62,12.62,0,0,0,1.14-1.16c.2-.23.4-.46.58-.65l-.43.71c-.5.72-1.07,1.56-1.41,2.19l0,0Z"/></g><path id="_Path_140" data-name="&lt;Path&gt;" class="cls-7" d="M56.58,64.55s.24-3,.24-3L56,64.39l.19.6Z"/><g id="_Group_102" data-name="&lt;Group&gt;"><path id="_Compound_Path_66" data-name="&lt;Compound Path&gt;" d="M56.2,65,56,64.4l.81-2.88c-.05,1-.22,3-.22,3L56.2,65Zm.61-3.49L56,64.4l.18.55.37-.4s0-.28.24-3Z"/></g><path id="_Path_141" data-name="&lt;Path&gt;" class="cls-7" d="M58.07,62.22c-.46.89-1.21,2.21-1.58,3.12-.39-1-1.12-2.38-1.55-3.25a22.94,22.94,0,0,0,1.56,2.17,22.79,22.79,0,0,0,1.57-2Z"/><g id="_Group_103" data-name="&lt;Group&gt;"><path id="_Path_142" data-name="&lt;Path&gt;" d="M56.49,65.38l0,0c-.35-.9-1-2.18-1.44-3l0,0c.54,1,1.11,2.16,1.45,3,.28-.67.74-1.54,1.15-2.29l.42-.79c-.15.24-.32.47-.49.72a10.16,10.16,0,0,1-1.07,1.33,10.4,10.4,0,0,1-1.13-1.51l-.17-.26.2.24a11.62,11.62,0,0,0,1.12,1.51c.3-.33.67-.85,1-1.33l.52-.7-.39.8c-.41.77-.89,1.67-1.17,2.33v0Z"/></g><path id="_Path_143" data-name="&lt;Path&gt;" class="cls-7" d="M56.49,64.81s-1-2.83-1-2.83l.36,3,.41.41Z"/><g id="_Group_104" data-name="&lt;Group&gt;"><path id="_Compound_Path_67" data-name="&lt;Compound Path&gt;" d="M56.31,65.42,55.89,65l-.36-3c.34.94.93,2.76,1,2.81l-.19.63ZM55.53,62l.39,3,.38.37.16-.57s-.09-.2-.93-2.81Z"/></g><path id="_Path_144" data-name="&lt;Path&gt;" class="cls-7" d="M58,62.46c-.32,1-.87,2.43-1.11,3.4-.52-.86-1.44-2.1-2-2.85a19.3,19.3,0,0,0,1.87,1.78c.43-.61.85-1.63,1.24-2.33Z"/><g id="_Group_105" data-name="&lt;Group&gt;"><path id="_Compound_Path_68" data-name="&lt;Compound Path&gt;" d="M56.86,65.9l0,0c-.48-.77-1.27-1.86-1.84-2.62L54.83,63l.54.53a12.23,12.23,0,0,0,1.35,1.24c.24-.39.52-1,.79-1.5.16-.3.3-.59.42-.82l-.23.77c-.3.86-.65,1.89-.83,2.63v0Zm-2-2.89.19.22c.57.75,1.35,1.81,1.82,2.58.18-.72.53-1.74.83-2.6l.26-.75c-.1.26-.25.54-.39.83a9.36,9.36,0,0,1-.82,1.5,9.41,9.41,0,0,1-1.37-1.24L54.83,63Z"/></g><path id="_Path_145" data-name="&lt;Path&gt;" class="cls-7" d="M57.31,65s-1-2.79-1-2.79l.45,3,.4.4Z"/><g id="_Group_106" data-name="&lt;Group&gt;"><path id="_Compound_Path_69" data-name="&lt;Compound Path&gt;" d="M57.16,65.67l-.43-.42-.44-3c.36.94,1,2.74,1,2.77l-.17.65Zm-.87-3.42.47,3,.39.36L57.3,65s-.11-.21-1-2.78Z"/></g><path id="_Path_146" data-name="&lt;Path&gt;" class="cls-7" d="M57.94,62.76c-.31,1-.85,2.44-1.07,3.4-.53-.85-1.47-2.07-2-2.83a21.87,21.87,0,0,0,1.89,1.77c.42-.61.84-1.65,1.22-2.34Z"/><g id="_Group_107" data-name="&lt;Group&gt;"><path id="_Compound_Path_70" data-name="&lt;Compound Path&gt;" d="M56.87,66.21v0c-.54-.84-1.46-2.07-2-2.82l.57.52a15.72,15.72,0,0,0,1.33,1.23,13.57,13.57,0,0,0,.8-1.54c.15-.29.27-.57.39-.81l-.24.84c-.28.86-.62,1.86-.79,2.58v0Zm-2-2.87c.59.73,1.5,1.93,2,2.78.17-.72.5-1.7.78-2.55l.27-.83a4.17,4.17,0,0,1-.37.82,10.59,10.59,0,0,1-.82,1.55,9.84,9.84,0,0,1-1.35-1.23l-.55-.54Z"/></g><path id="_Path_147" data-name="&lt;Path&gt;" class="cls-7" d="M57.31,65.51S56,62.9,56,62.9l.77,2.9.45.32Z"/><g id="_Group_108" data-name="&lt;Group&gt;"><path id="_Compound_Path_71" data-name="&lt;Compound Path&gt;" d="M57.24,66.16l-.47-.35L56,62.91c.45.87,1.28,2.54,1.32,2.59l-.09.66ZM56,62.91l.78,2.89.43.3.08-.59s-.12-.18-1.29-2.6Z"/></g><path id="_Path_148" data-name="&lt;Path&gt;" class="cls-7" d="M57.83,63c-.19,1-.55,2.55-.66,3.54-.63-.78-1.69-1.84-2.34-2.51a22.29,22.29,0,0,0,2.06,1.48c.35-.67.65-1.75.94-2.51Z"/><g id="_Group_109" data-name="&lt;Group&gt;"><path id="_Compound_Path_72" data-name="&lt;Compound Path&gt;" d="M57.18,66.57l0,0A30.38,30.38,0,0,0,55,64.24l-.2-.22.59.42a12.44,12.44,0,0,0,1.48,1,11.74,11.74,0,0,0,.62-1.62c.12-.31.21-.62.32-.88l-.16.87c-.18.89-.41,1.95-.49,2.68v0ZM54.82,64l.23.18c.64.67,1.54,1.59,2.1,2.27.09-.73.31-1.75.49-2.63l.19-.86c-.07.27-.18.57-.29.87a11.27,11.27,0,0,1-.63,1.64,10,10,0,0,1-1.51-1L54.82,64Z"/></g><path id="_Path_149" data-name="&lt;Path&gt;" class="cls-7" d="M57.4,65.91S56.71,63,56.71,63l.1,3,.37.44Z"/><g id="_Group_110" data-name="&lt;Group&gt;"><path id="_Compound_Path_73" data-name="&lt;Compound Path&gt;" d="M57.18,66.53,56.8,66l-.12-3c.26,1,.71,2.86.74,2.91l-.24.62ZM56.68,63l.14,3,.35.42.22-.55s-.09-.24-.71-2.91Z"/></g><path id="_Path_150" data-name="&lt;Path&gt;" class="cls-7" d="M57.84,63.31c-.1,1-.32,2.6-.33,3.6-.7-.67-1.85-1.6-2.55-2.18a14.65,14.65,0,0,0,2.18,1.18,22.84,22.84,0,0,0,.7-2.6Z"/><g id="_Group_111" data-name="&lt;Group&gt;"><path id="_Path_151" data-name="&lt;Path&gt;" d="M57.52,67l0,0c-.65-.64-1.73-1.53-2.44-2.1h0a28.81,28.81,0,0,1,2.42,2c0-.76.14-1.84.25-2.76l.09-.82c0,.29-.12.61-.2.94a13.88,13.88,0,0,1-.48,1.69,10.33,10.33,0,0,1-1.61-.83l-.29-.17.32.13a10.83,10.83,0,0,0,1.58.85c.16-.46.31-1.09.45-1.69.07-.31.16-.64.23-.92l-.06.82c-.1.94-.24,2-.25,2.79v0Z"/></g><path id="_Path_152" data-name="&lt;Path&gt;" class="cls-7" d="M57.43,66.14S55.59,64,55.59,64L57,66.58l.51.17Z"/><g id="_Group_112" data-name="&lt;Group&gt;"><path id="_Compound_Path_74" data-name="&lt;Compound Path&gt;" d="M57.51,66.77,57,66.6,55.57,64c.65.7,1.83,2,1.87,2.09l.07.65ZM55.58,64,57,66.57l.48.17-.06-.6h0S57.26,66,55.58,64Z"/></g><path id="_Path_153" data-name="&lt;Path&gt;" class="cls-7" d="M57.88,63.66c-.11,1-.34,2.6-.35,3.62-.69-.69-1.84-1.63-2.55-2.22a18.68,18.68,0,0,0,2.18,1.22,22.81,22.81,0,0,0,.72-2.62Z"/><g id="_Group_113" data-name="&lt;Group&gt;"><path id="_Path_154" data-name="&lt;Path&gt;" d="M57.54,67.3h0c-.65-.66-1.72-1.54-2.43-2.12h0a30.67,30.67,0,0,1,2.4,2c0-.74.14-1.76.25-2.66l.1-.91c0,.27-.12.58-.19.9a10.48,10.48,0,0,1-.49,1.73,10.08,10.08,0,0,1-1.6-.85l-.28-.17.3.14a9.52,9.52,0,0,0,1.57.85,16.94,16.94,0,0,0,.47-1.71c.07-.31.15-.63.22-.9l-.07.93c-.11.92-.23,2-.25,2.7v0Z"/></g><path id="_Path_155" data-name="&lt;Path&gt;" class="cls-7" d="M57.64,66.63s-1.42-2.54-1.42-2.54l.9,2.84.46.32Z"/><g id="_Group_114" data-name="&lt;Group&gt;"><path id="_Compound_Path_75" data-name="&lt;Compound Path&gt;" d="M57.59,67.28,57.1,67l-.9-2.87c.41.67,1.4,2.48,1.45,2.52l-.06.67ZM56.2,64.09l.92,2.84.45.29.06-.59s-.13-.19-1.43-2.54Z"/></g><path id="_Path_156" data-name="&lt;Path&gt;" class="cls-7" d="M58,64.09c-.06,1-.23,2.63-.2,3.63-.71-.65-1.92-1.51-2.64-2a18.73,18.73,0,0,0,2.23,1.07A25.71,25.71,0,0,0,58,64.09Z"/><g id="_Group_115" data-name="&lt;Group&gt;"><path id="_Path_157" data-name="&lt;Path&gt;" d="M57.79,67.75l0,0c-.68-.59-1.79-1.41-2.51-2h0a30.23,30.23,0,0,1,2.46,1.91c0-.75.08-1.8.14-2.72l.07-.87c0,.28-.11.6-.16.92a17.49,17.49,0,0,1-.4,1.74A8.62,8.62,0,0,1,55.75,66l-.28-.15.29.12a10.58,10.58,0,0,0,1.61.74c.14-.46.27-1.09.4-1.72.06-.32.11-.64.18-.91l0,.87c-.07.94-.14,2-.13,2.76v0Z"/></g><path id="_Path_158" data-name="&lt;Path&gt;" class="cls-7" d="M57.83,67.09s-1.76-2.23-1.76-2.23l1.28,2.65.49.21Z"/><g id="_Group_116" data-name="&lt;Group&gt;"><path id="_Compound_Path_76" data-name="&lt;Compound Path&gt;" d="M57.86,67.74l-.53-.21-1.27-2.65c.61.73,1.72,2.17,1.77,2.2l0,.66Zm-1.8-2.86,1.3,2.62.47.2,0-.59h0l-1.75-2.23Z"/></g><path id="_Path_159" data-name="&lt;Path&gt;" class="cls-7" d="M58,64.56c-.08,1-.21,2.63-.18,3.63-.72-.64-1.91-1.49-2.65-2a15.48,15.48,0,0,0,2.24,1.06c.25-.73.41-1.86.59-2.66Z"/><g id="_Group_117" data-name="&lt;Group&gt;"><path id="_Compound_Path_77" data-name="&lt;Compound Path&gt;" d="M57.83,68.22l0,0c-.73-.64-1.92-1.48-2.67-2l.66.31a9,9,0,0,0,1.6.72c.14-.46.27-1.13.39-1.76.05-.31.12-.62.18-.89l0,.83c-.06.94-.13,2.05-.11,2.81v0Zm-2.67-2a31.34,31.34,0,0,1,2.63,2c0-.77.05-1.86.12-2.78l.06-.82c0,.27-.09.58-.14.89a14.18,14.18,0,0,1-.42,1.78,9.61,9.61,0,0,1-1.63-.72l-.62-.34Z"/></g><path id="_Path_160" data-name="&lt;Path&gt;" class="cls-7" d="M58,67.48s-1.22-2.69-1.22-2.69l.67,2.93.44.36Z"/><g id="_Group_118" data-name="&lt;Group&gt;"><path id="_Compound_Path_78" data-name="&lt;Compound Path&gt;" d="M57.88,68.12l-.46-.38-.69-2.95c.44.89,1.22,2.62,1.26,2.67l-.11.66Zm-1.15-3.33.71,2.93.42.33.11-.57s-.13-.21-1.24-2.69Z"/></g><path id="_Path_161" data-name="&lt;Path&gt;" class="cls-7" d="M58,64.86c0,1,0,2.65.17,3.64-.77-.53-2-1.22-2.82-1.66a16.56,16.56,0,0,0,2.33.76c.18-.77.21-1.9.32-2.74Z"/><g id="_Group_119" data-name="&lt;Group&gt;"><path id="_Path_162" data-name="&lt;Path&gt;" d="M58.22,68.54l0,0c-.74-.51-1.92-1.16-2.7-1.61l0,0a27.63,27.63,0,0,1,2.67,1.54c-.1-.74-.12-1.79-.14-2.72l0-.89c0,.3,0,.62-.06,1a12.38,12.38,0,0,1-.24,1.78A8.12,8.12,0,0,1,56,67.11L55.69,67l.35.09a9.27,9.27,0,0,0,1.66.51,13.46,13.46,0,0,0,.21-1.77c0-.33.07-.66.1-1l.06.89c0,.94,0,2,.15,2.75v0Z"/></g><path id="_Path_163" data-name="&lt;Path&gt;" class="cls-7" d="M58.2,67.37S56,65.83,56,65.83l1.89,2.09.55,0Z"/><g id="_Group_120" data-name="&lt;Group&gt;"><path id="_Compound_Path_79" data-name="&lt;Compound Path&gt;" d="M58.41,68l-.57,0-1.9-2.1c.63.4,2.21,1.5,2.26,1.52l.21.61Zm-2.47-2.13,1.93,2.08.49,0-.18-.56h0s-1.41-1-2.24-1.54Z"/></g><path id="_Path_164" data-name="&lt;Path&gt;" class="cls-7" d="M58.11,65c.08,1,.17,2.62.35,3.6-.81-.49-2.11-1.14-2.91-1.54a16.59,16.59,0,0,0,2.36.67c.15-.78.13-1.91.2-2.73Z"/><g id="_Group_121" data-name="&lt;Group&gt;"><path id="_Path_165" data-name="&lt;Path&gt;" d="M58.48,68.63l0,0c-.75-.48-2-1.06-2.76-1.47h0a30.7,30.7,0,0,1,2.72,1.43c-.13-.76-.2-1.85-.28-2.77L58.08,65a6.84,6.84,0,0,1,0,.9,11.23,11.23,0,0,1-.16,1.83,8.3,8.3,0,0,1-1.71-.44l-.26-.08.28,0a12.1,12.1,0,0,0,1.69.46A16,16,0,0,0,58,65.89c0-.32,0-.63,0-.9l.11.81c.06.92.15,2,.28,2.79v0Z"/></g><path id="_Path_166" data-name="&lt;Path&gt;" class="cls-7" d="M58.43,67.94s-1.86-2.14-1.86-2.14L58,68.37l.51.19Z"/><g id="_Group_122" data-name="&lt;Group&gt;"><path id="_Compound_Path_80" data-name="&lt;Compound Path&gt;" d="M58.52,68.58l-.54-.2L56.56,65.8c.63.71,1.84,2.08,1.89,2.12l.07.66Zm-2-2.78L58,68.37l.48.17-.06-.6h0s-.17-.14-1.86-2.14Z"/></g><path id="_Path_167" data-name="&lt;Path&gt;" class="cls-7" d="M58.27,65.38c.13,1,.29,2.62.5,3.59-.82-.45-2.14-1-3-1.37a19,19,0,0,0,2.38.53c.11-.78.05-1.92.08-2.75Z"/><g id="_Group_123" data-name="&lt;Group&gt;"><path id="_Path_168" data-name="&lt;Path&gt;" d="M58.8,69h0c-.78-.44-2-1-2.83-1.33h0a30.72,30.72,0,0,1,2.8,1.27c-.17-.77-.29-1.86-.41-2.8l-.09-.76c0,.29,0,.61,0,.94a14.56,14.56,0,0,1-.07,1.81,7.1,7.1,0,0,1-1.68-.33l-.36-.09.36.06a12,12,0,0,0,1.67.35c.05-.5.05-1.16.05-1.8,0-.33,0-.65,0-.94l.12.76c.12,1,.25,2.08.41,2.83l0,0Z"/></g><path id="_Path_169" data-name="&lt;Path&gt;" class="cls-7" d="M58.82,68.3s-2.24-1.58-2.24-1.58l1.89,2.14.52,0Z"/><g id="_Group_124" data-name="&lt;Group&gt;"><path id="_Compound_Path_81" data-name="&lt;Compound Path&gt;" d="M59,68.92l-.54,0-1.9-2.13c.76.51,2.2,1.52,2.25,1.55l.19.63Zm-2.44-2.18,1.91,2.12.49,0-.17-.58h0s-1.23-.84-2.23-1.56Z"/></g><path id="_Path_170" data-name="&lt;Path&gt;" class="cls-7" d="M58.34,65.81c.2,1,.46,2.6.73,3.56-.83-.39-2.19-.82-3-1.1a17.15,17.15,0,0,0,2.39.3c0-.79-.09-1.92-.11-2.76Z"/><g id="_Group_125" data-name="&lt;Group&gt;"><path id="_Path_171" data-name="&lt;Path&gt;" d="M59.1,69.39l0,0c-.8-.35-2.07-.76-2.91-1h0a25.19,25.19,0,0,1,2.87,1c-.2-.72-.4-1.77-.57-2.67l-.16-.86q.06.43.09,1a12.46,12.46,0,0,1,.05,1.8,9.35,9.35,0,0,1-1.71-.17l-.35-.06.36,0a10.24,10.24,0,0,0,1.56.18,5.22,5.22,0,0,0,0-1.78c0-.35,0-.67,0-1l.2.84c.15.92.37,2,.56,2.72l0,0Z"/></g><path id="_Path_172" data-name="&lt;Path&gt;" class="cls-7" d="M59.06,68.62s-1.85-2.2-1.85-2.2L58.59,69l.52.21Z"/><g id="_Group_126" data-name="&lt;Group&gt;"><path id="_Compound_Path_82" data-name="&lt;Compound Path&gt;" d="M59.12,69.26l-.53-.21-1.4-2.61c.64.72,1.82,2.13,1.88,2.17l0,.65Zm-1.93-2.82L58.6,69l.48.18,0-.59h0s-.15-.16-1.85-2.18Z"/></g><path id="_Path_173" data-name="&lt;Path&gt;" class="cls-7" d="M58.46,66.08c.3,1,.69,2.55,1.06,3.47-.87-.26-2.24-.53-3.11-.69a19.18,19.18,0,0,0,2.41,0c0-.8-.26-1.91-.36-2.76Z"/><g id="_Group_127" data-name="&lt;Group&gt;"><path id="_Path_174" data-name="&lt;Path&gt;" d="M59.56,69.58l0,0a30.34,30.34,0,0,0-3.05-.68h0a28.26,28.26,0,0,1,3,.64c-.25-.68-.54-1.69-.8-2.56l-.24-.86c.07.28.11.62.17.94a11.08,11.08,0,0,1,.21,1.8,7.93,7.93,0,0,1-1.71,0l-.49,0h.49a11.59,11.59,0,0,0,1.7,0,14,14,0,0,0-.24-1.77c0-.33-.1-.67-.13-1l.28.84c.25.89.54,1.92.81,2.6l0,0Z"/></g><path id="_Path_175" data-name="&lt;Path&gt;" class="cls-7" d="M59.15,68.63s-2.57-.56-2.57-.56L59,69.29l.5-.19Z"/><g id="_Group_128" data-name="&lt;Group&gt;"><path id="_Compound_Path_83" data-name="&lt;Compound Path&gt;" d="M59,69.3l-2.46-1.22c.87.15,2.51.53,2.58.53l.39.49-.51.2Zm-2.46-1.22L59,69.28l.5-.19-.38-.46s-2.48-.51-2.58-.55Z"/></g><path id="_Path_176" data-name="&lt;Path&gt;" class="cls-7" d="M58.63,66.4c.29,1,.68,2.53,1,3.45-.87-.26-2.25-.53-3.1-.69a15.87,15.87,0,0,0,2.4,0,26.85,26.85,0,0,0-.35-2.73Z"/><g id="_Group_129" data-name="&lt;Group&gt;"><path id="_Path_177" data-name="&lt;Path&gt;" d="M59.7,69.88l0,0c-.8-.24-2.07-.49-2.9-.66h0a27.16,27.16,0,0,1,2.87.63c-.26-.71-.57-1.73-.81-2.63l-.24-.8c.07.28.13.59.18.9A13.18,13.18,0,0,1,59,69.13a6.78,6.78,0,0,1-1.71.06H57l.27,0,.87,0h0a4.2,4.2,0,0,0,.83-.06,17.41,17.41,0,0,0-.23-1.8c0-.32-.1-.64-.15-.92l.28.8c.24.9.54,2,.81,2.65v0Z"/></g><path id="_Path_178" data-name="&lt;Path&gt;" class="cls-7" d="M59.59,68.89s-2.47-1.18-2.47-1.18l2.21,1.79.53-.06Z"/><g id="_Group_130" data-name="&lt;Group&gt;"><path id="_Compound_Path_84" data-name="&lt;Compound Path&gt;" d="M59.31,69.52l-2.21-1.8c.68.29,2.42,1.14,2.49,1.16l.28.56-.56.08Zm-2.21-1.8,2.23,1.76.53,0-.3-.53h0S57.67,68,57.1,67.72Z"/></g><path id="_Path_179" data-name="&lt;Path&gt;" class="cls-7" d="M58.5,66.57c.49.91,1.2,2.32,1.75,3.14-.9-.07-2.3,0-3.16,0a16.47,16.47,0,0,0,2.32-.54c-.17-.78-.64-1.82-.91-2.61Z"/><g id="_Group_131" data-name="&lt;Group&gt;"><path id="_Compound_Path_85" data-name="&lt;Compound Path&gt;" d="M57.09,69.74v0h0l.68-.13a9.63,9.63,0,0,0,1.65-.42c-.13-.49-.37-1.11-.59-1.7-.13-.32-.25-.62-.34-.89l.43.73c.43.83,1,1.8,1.35,2.41-.88,0-2.18,0-3,0l-.06,0-.07,0Zm1.4-3.16c.11.25.24.56.35.87a13.65,13.65,0,0,1,.59,1.73,9.41,9.41,0,0,1-1.67.43l-.48.09c.87,0,2.13-.06,3,0a21.91,21.91,0,0,1-1.36-2.38l-.4-.74Z"/></g><path id="_Path_180" data-name="&lt;Path&gt;" class="cls-7" d="M60,69.17s-2.57-.71-2.57-.71l2.41,1.36.51-.15Z"/><g id="_Group_132" data-name="&lt;Group&gt;"><path id="_Compound_Path_86" data-name="&lt;Compound Path&gt;" d="M59.81,69.83h0l-2.4-1.36c.69.16,2.5.67,2.56.69l.37.5-.52.17ZM57.4,68.47l2.42,1.32.49-.14L60,69.18s-2.29-.63-2.56-.71Z"/></g><path id="_Path_181" data-name="&lt;Path&gt;" class="cls-7" d="M58.77,67c.49.89,1.21,2.32,1.76,3.13-.9-.07-2.29,0-3.16,0a16.2,16.2,0,0,0,2.33-.57c-.18-.77-.66-1.8-.93-2.59Z"/><g id="_Group_133" data-name="&lt;Group&gt;"><path id="_Compound_Path_87" data-name="&lt;Compound Path&gt;" d="M57.39,70.13h0l.69-.15a9.37,9.37,0,0,0,1.63-.42,17.74,17.74,0,0,0-.62-1.74c-.11-.29-.23-.58-.32-.84l.47.81c.44.8.92,1.71,1.32,2.31H59.6c-.75,0-1.56,0-2.16.06h0ZM58.75,67c.13.24.23.54.36.84a14.75,14.75,0,0,1,.61,1.75,10.14,10.14,0,0,1-1.66.45l-.5.09c.86,0,2.14-.08,3,0a24.27,24.27,0,0,1-1.34-2.28L58.75,67Z"/></g><path id="_Path_182" data-name="&lt;Path&gt;" class="cls-7" d="M60.29,69.37s-2.38-1.43-2.38-1.43L60,70h.54Z"/><g id="_Group_134" data-name="&lt;Group&gt;"><path id="_Compound_Path_88" data-name="&lt;Compound Path&gt;" d="M60.55,70H60L57.9,68c.81.46,2.34,1.38,2.4,1.41l.25.59ZM57.9,68l2.1,2h.51l-.23-.54h0s-1.51-.9-2.38-1.43Z"/></g><path id="_Path_183" data-name="&lt;Path&gt;" class="cls-7" d="M59,67.18c.57.83,1.42,2.16,2,2.91-.9.07-2.26.3-3.1.45a16.55,16.55,0,0,0,2.22-.87c-.25-.76-.83-1.74-1.16-2.49Z"/><g id="_Group_135" data-name="&lt;Group&gt;"><path id="_Compound_Path_89" data-name="&lt;Compound Path&gt;" d="M57.91,70.57v0h0l.63-.22a8.56,8.56,0,0,0,1.59-.66A12.65,12.65,0,0,0,59.36,68c-.14-.31-.29-.59-.41-.85l.5.68c.51.76,1.1,1.65,1.56,2.22-.87.07-2.18.31-3,.45h0l0,0Zm1-3.38c.15.25.29.53.44.82a12.24,12.24,0,0,1,.75,1.65,8.56,8.56,0,0,1-1.6.67l-.45.17A27,27,0,0,1,61,70.08a21.26,21.26,0,0,1-1.6-2.21L59,67.19Z"/></g><path id="_Path_184" data-name="&lt;Path&gt;" class="cls-7" d="M60.47,69.59s-2.57-.07-2.57-.07l2.54.76.45-.28Z"/><g id="_Group_136" data-name="&lt;Group&gt;"><path id="_Path_185" data-name="&lt;Path&gt;" d="M60.45,70.3l-2.57-.76s2,0,2.51,0l0,0c-.58,0-2.51-.06-2.51-.06l2.54.73.45-.3-.11-.09.12.12-.45.3Z"/></g><path id="_Path_186" data-name="&lt;Path&gt;" class="cls-7" d="M62,57.09s1.86-.31,1.86-.31l-1.86,0-.31.17Z"/><g id="_Group_137" data-name="&lt;Group&gt;"><path id="_Compound_Path_90" data-name="&lt;Compound Path&gt;" d="M62,57.1,61.65,57l.31-.2,1.86-.05S62,57.09,62,57.1Zm1.86-.34L62,56.83l-.3.18.3.07,1.86-.32Z"/></g><path id="_Path_187" data-name="&lt;Path&gt;" class="cls-7" d="M63,57.48c-.54-.15-1.34-.42-1.9-.55.58-.23,1.45-.65,2-.9a13.8,13.8,0,0,0-1.32.84,10.84,10.84,0,0,0,1.23.61Z"/><g id="_Group_138" data-name="&lt;Group&gt;"><path id="_Path_188" data-name="&lt;Path&gt;" d="M63,57.5l-.5-.16c-.47-.14-1-.31-1.4-.4.58-.25,1.45-.68,2-.92h0c-.53.28-1.4.69-2,.92a12,12,0,0,1,1.41.38l.27.08-.2-.09a5.78,5.78,0,0,1-.83-.43,6.52,6.52,0,0,1,1-.63l.37-.23-.37.26c-.33.2-.7.43-.92.6a6.92,6.92,0,0,0,.81.39l.42.2v0Z"/></g><path id="_Path_189" data-name="&lt;Path&gt;" class="cls-7" d="M61.88,57.15s1.8-.48,1.8-.48l-1.86.22-.28.2Z"/><g id="_Group_139" data-name="&lt;Group&gt;"><path id="_Compound_Path_91" data-name="&lt;Compound Path&gt;" d="M61.88,57.16l-.34-.06.28-.22,1.86-.23s-1.74.48-1.79.51Zm1.8-.51-1.86.27-.28.18.34,0,1.8-.48Z"/></g><path id="_Path_190" data-name="&lt;Path&gt;" class="cls-7" d="M63.07,57.61c-.63-.06-1.6-.18-2.21-.18.46-.41,1.12-1.11,1.51-1.54-.26.41-.69.94-.89,1.31a15.4,15.4,0,0,0,1.59.41Z"/><g id="_Group_140" data-name="&lt;Group&gt;"><path id="_Path_191" data-name="&lt;Path&gt;" d="M63.06,57.63l-.53-.05c-.57-.06-1.21-.13-1.67-.13.45-.44,1.09-1.12,1.51-1.56l0,0c-.39.46-1,1.12-1.48,1.54a12.53,12.53,0,0,1,1.66.09l.3,0-.31-.07a7.76,7.76,0,0,1-1-.28,6.08,6.08,0,0,1,.6-.94l.26-.35-.23.37a7.1,7.1,0,0,0-.6.92c.27.08.64.17,1,.25l.55.13v0Z"/></g><path id="_Path_192" data-name="&lt;Path&gt;" class="cls-7" d="M61.22,57.28l1.87-.2L61.27,57l-.34.15Z"/><g id="_Group_141" data-name="&lt;Group&gt;"><path id="_Path_193" data-name="&lt;Path&gt;" d="M61.22,57.3l-.29-.12.32-.18,1.84,0s-1.82.24-1.87.26Z"/></g><path id="_Path_194" data-name="&lt;Path&gt;" class="cls-7" d="M62.61,57.69c-.59-.11-1.45-.3-2-.37.55-.28,1.35-.74,1.84-1a11.8,11.8,0,0,0-1.18.92c.35.17.95.32,1.37.47Z"/><g id="_Group_142" data-name="&lt;Group&gt;"><path id="_Path_195" data-name="&lt;Path&gt;" d="M62.6,57.7l-.53-.1c-.5-.1-1.07-.21-1.51-.26.55-.3,1.33-.76,1.82-1h0a18.91,18.91,0,0,1-1.79,1,11.21,11.21,0,0,1,1.5.23l.26,0-.2-.06a6.3,6.3,0,0,1-.91-.33,5.46,5.46,0,0,1,.82-.66l.32-.23-.31.25a7.86,7.86,0,0,0-.82.64c.23.09.58.21.91.3l.46.15v0Z"/></g><path id="_Path_196" data-name="&lt;Path&gt;" class="cls-7" d="M61.06,57.26s1.64-.71,1.64-.71L60.89,57l-.2.21Z"/><g id="_Group_143" data-name="&lt;Group&gt;"><path id="_Compound_Path_92" data-name="&lt;Compound Path&gt;" d="M61.06,57.27h-.37l.19-.24,1.8-.48s-1.57.7-1.61.73Zm1.62-.73L60.9,57l-.2.22.36,0s.31-.15,1.62-.7Z"/></g><path id="_Path_197" data-name="&lt;Path&gt;" class="cls-7" d="M62.54,57.9a13.86,13.86,0,0,0-1.67-.67c.36-.35.88-.93,1.2-1.3a10.76,10.76,0,0,0-.71,1.2c.32.27.83.53,1.18.77Z"/><g id="_Group_144" data-name="&lt;Group&gt;"><path id="_Path_198" data-name="&lt;Path&gt;" d="M62.53,57.91l-.34-.15c-.44-.19-1-.4-1.32-.52.33-.36.83-.92,1.15-1.29h0a11,11,0,0,1-1.13,1.28,8.76,8.76,0,0,1,1.32.49l.15.06-.22-.13a4.82,4.82,0,0,1-.78-.53,4.53,4.53,0,0,1,.49-.87L62,56l-.14.26c-.16.3-.37.61-.48.87.21.16.5.34.78.51l.39.24v0Z"/></g><path id="_Path_199" data-name="&lt;Path&gt;" class="cls-7" d="M61.15,57.39s1.29-.56,1.29-.56L61,57l-.17.24Z"/><g id="_Group_145" data-name="&lt;Group&gt;"><path id="_Compound_Path_93" data-name="&lt;Compound Path&gt;" d="M61.15,57.4l-.29-.12L61,57l1.4-.2c-.48.25-1.24.57-1.26.59Zm1.27-.59L61,57l-.16.24.27.09,1.27-.55Z"/></g><path id="_Path_200" data-name="&lt;Path&gt;" class="cls-7" d="M60.07,69.34s-2.64,0-2.64,0l2.68.65.44-.28Z"/><g id="_Group_146" data-name="&lt;Group&gt;"><path id="_Compound_Path_94" data-name="&lt;Compound Path&gt;" d="M60.11,70.05l-2.68-.66c.72,0,2.57,0,2.63-.06l.5.39-.45.33Zm0-.68s-.26,0-2.63,0l2.68.62.43-.29-.48-.35Z"/></g><path id="_Path_201" data-name="&lt;Path&gt;" class="cls-7" d="M60.55,69.52s-2.69-.63-2.69-.63l2.59,1.27L61,70Z"/><g id="_Group_147" data-name="&lt;Group&gt;"><path id="_Compound_Path_95" data-name="&lt;Compound Path&gt;" d="M60.45,70.18h0l-2.58-1.27c.91.19,2.62.59,2.69.59L61,70l-.51.18Zm-2.59-1.27,2.59,1.24L61,70l-.41-.47h0c-.1,0-2.57-.59-2.68-.62Z"/></g><path id="_Path_202" data-name="&lt;Path&gt;" class="cls-7" d="M61,69.7l-2.68-.14,2.68.81.45-.26Z"/><g id="_Group_148" data-name="&lt;Group&gt;"><path id="_Compound_Path_96" data-name="&lt;Compound Path&gt;" d="M61,70.38l-2.68-.8s2.37.11,2.65.11l.49.4-.46.29Zm-2.68-.79,2.68.76.44-.26L61,69.71c-.41,0-2.67-.13-2.67-.13Z"/></g><path id="_Path_203" data-name="&lt;Path&gt;" class="cls-7" d="M59.3,67.81c.69.76,1.74,2,2.47,2.67-.9.13-2.25.49-3.1.71a14.84,14.84,0,0,0,2.15-1.06c-.35-.71-1.06-1.61-1.52-2.32Z"/><g id="_Group_149" data-name="&lt;Group&gt;"><path id="_Compound_Path_97" data-name="&lt;Compound Path&gt;" d="M58.69,71.21l0,0h0l.62-.29a7.65,7.65,0,0,0,1.52-.78c-.25-.44-.62-1-1-1.52l-.53-.77.57.58a26.45,26.45,0,0,0,1.92,2.06c-.86.16-2.13.49-3,.72h0l-.07,0Zm.6-3.39c.18.22.37.48.57.75a14.2,14.2,0,0,1,1,1.55,8,8,0,0,1-1.53.82l-.43.18c.83-.21,2.06-.53,2.9-.66a27.59,27.59,0,0,1-1.94-2l-.54-.61Z"/></g><path id="_Path_204" data-name="&lt;Path&gt;" class="cls-7" d="M61.37,69.83S58.69,69,58.69,69l2.51,1.49.53-.11Z"/><g id="_Group_150" data-name="&lt;Group&gt;"><path id="_Compound_Path_98" data-name="&lt;Compound Path&gt;" d="M61.2,70.47h0L58.69,69c.91.27,2.61.84,2.68.85l.38.51-.55.14ZM58.69,69l2.51,1.47.53-.11-.38-.48h0c-.06,0-2.39-.78-2.66-.88Z"/></g><path id="_Path_205" data-name="&lt;Path&gt;" class="cls-7" d="M59.56,68c.75.7,1.89,1.81,2.67,2.39-.86.26-2.14.78-2.93,1.11a16.22,16.22,0,0,0,2-1.32c-.42-.69-1.22-1.52-1.72-2.18Z"/><g id="_Group_151" data-name="&lt;Group&gt;"><path id="_Compound_Path_99" data-name="&lt;Compound Path&gt;" d="M59.3,71.5v0h0l.57-.36a8.42,8.42,0,0,0,1.41-1,17,17,0,0,0-1.13-1.4l-.6-.73.67.57a26.92,26.92,0,0,0,2,1.79c-.85.28-2.08.79-2.86,1.12h0l-.05,0Zm.24-3.5c.19.2.42.46.63.7.41.5.84,1,1.12,1.43a8.71,8.71,0,0,1-1.41,1l-.4.25c.78-.33,2-.81,2.74-1a24.09,24.09,0,0,1-2-1.77L59.54,68Z"/></g><path id="_Path_206" data-name="&lt;Path&gt;" class="cls-7" d="M61.58,70s-2.53.5-2.53.5l2.67.18.38-.37Z"/><g id="_Group_152" data-name="&lt;Group&gt;"><path id="_Compound_Path_100" data-name="&lt;Compound Path&gt;" d="M61.73,70.69h0l-2.67-.17c.68-.16,2.46-.51,2.52-.52l.54.3-.38.39ZM61.58,70s-.21.06-2.53.51l2.66.15.37-.37-.5-.29Z"/></g><path id="_Path_207" data-name="&lt;Path&gt;" class="cls-7" d="M61.06,69.85s-2.65.2-2.65.2l2.72.47.42-.33Z"/><g id="_Group_153" data-name="&lt;Group&gt;"><path id="_Compound_Path_101" data-name="&lt;Compound Path&gt;" d="M61.13,70.52l-2.72-.46c.71-.09,2.58-.21,2.63-.23l.53.35-.44.34ZM61,69.85s-.25,0-2.63.21l2.72.44.41-.32-.5-.33Z"/></g><path id="_Path_208" data-name="&lt;Path&gt;" class="cls-7" d="M61.54,70s-2.73-.42-2.73-.42l2.67,1.08.5-.2Z"/><g id="_Group_154" data-name="&lt;Group&gt;"><path id="_Compound_Path_102" data-name="&lt;Compound Path&gt;" d="M61.48,70.64h0l-2.66-1.08s2.62.4,2.73.4l.45.46-.51.22Zm-2.67-1.08,2.67,1,.48-.19L61.52,70h0c-.13,0-2.61-.42-2.71-.44Z"/></g><path id="_Path_209" data-name="&lt;Path&gt;" class="cls-7" d="M62,70.12s-2.69.06-2.69.06l2.74.61.43-.28Z"/><g id="_Group_155" data-name="&lt;Group&gt;"><path id="_Compound_Path_103" data-name="&lt;Compound Path&gt;" d="M62.05,70.81l-2.74-.62c.73,0,2.62-.06,2.68-.08l.5.39-.44.31ZM62,70.15l-2.68,0,2.74.59.42-.28L62,70.15Z"/></g><path id="_Path_210" data-name="&lt;Path&gt;" class="cls-7" d="M60.16,68.37c.76.7,1.89,1.85,2.67,2.48-.89.19-2.2.65-3,.92a14.36,14.36,0,0,0,2.05-1.2,24.33,24.33,0,0,0-1.69-2.2Z"/><g id="_Group_156" data-name="&lt;Group&gt;"><path id="_Compound_Path_104" data-name="&lt;Compound Path&gt;" d="M59.81,71.79v0h0l.6-.32a12,12,0,0,0,1.45-.87,16.66,16.66,0,0,0-1.11-1.46c-.21-.25-.42-.5-.6-.74l.67.59c.66.66,1.45,1.4,2,1.87-.87.22-2.14.67-3,.93h0l0,0Zm.35-3.42c.2.21.39.47.6.73a11.12,11.12,0,0,1,1.11,1.47,7.61,7.61,0,0,1-1.46.88L60,71.7a29,29,0,0,1,2.84-.87,21.74,21.74,0,0,1-2-1.85l-.63-.61Z"/></g><path id="_Path_211" data-name="&lt;Path&gt;" class="cls-7" d="M62.37,70.24s-2.72-.69-2.72-.69l2.61,1.32.52-.15Z"/><g id="_Group_157" data-name="&lt;Group&gt;"><path id="_Compound_Path_105" data-name="&lt;Compound Path&gt;" d="M62.26,70.88l-2.61-1.32c.9.21,2.65.66,2.72.66l.42.49-.53.17Zm-2.61-1.32,2.62,1.29.5-.16-.4-.44h0c-.1,0-2.62-.65-2.72-.69Z"/></g><path id="_Path_212" data-name="&lt;Path&gt;" class="cls-7" d="M60.42,68.52c.81.64,2,1.66,2.86,2.2-.84.31-2.08.93-2.84,1.3a17.91,17.91,0,0,0,1.86-1.45,23.74,23.74,0,0,0-1.88-2Z"/><g id="_Group_158" data-name="&lt;Group&gt;"><path id="_Compound_Path_106" data-name="&lt;Compound Path&gt;" d="M60.45,72v0l0,0-.06,0L61,71.6a8.35,8.35,0,0,0,1.31-1.06c-.32-.41-.8-.88-1.24-1.34-.24-.23-.46-.47-.66-.67l.73.54c.72.57,1.55,1.25,2.15,1.64-.79.32-1.93.89-2.72,1.27l-.11.06Zm0-3.51c.22.19.44.41.67.65a13.55,13.55,0,0,1,1.23,1.37A7.76,7.76,0,0,1,61,71.63l-.41.3c.77-.38,1.89-.94,2.67-1.22a24.5,24.5,0,0,1-2.16-1.61l-.7-.57Z"/></g><path id="_Path_213" data-name="&lt;Path&gt;" class="cls-7" d="M62.61,70.38s-2.5.67-2.5.67h2.68l.35-.39Z"/><g id="_Group_159" data-name="&lt;Group&gt;"><path id="_Compound_Path_107" data-name="&lt;Compound Path&gt;" d="M60.11,71.07v0c.67-.17,2.42-.64,2.49-.67l.56.28-.35.42Zm2.5-.67s-.26.08-2.37.64h2.55l.34-.38-.52-.25Z"/></g><polygon id="_Path_214" data-name="&lt;Path&gt;" class="cls-9" points="66.83 66.98 63.99 65 61.15 66.98 62.21 63.82 59.72 61.86 62.93 61.86 63.99 58.71 65.07 61.86 68.27 61.86 65.78 63.82 66.83 66.98"/><g id="_Group_160" data-name="&lt;Group&gt;"><path id="_Compound_Path_108" data-name="&lt;Compound Path&gt;" d="M66.87,67,64,65l-2.82,2,1-3.16-2.48-2,3.21,0,1-3.13,1.1,3.15,3.2,0-2.48,2L66.87,67ZM64,58.71l-1,3.15H59.72l2.5,2L61.16,67,64,65l2.84,1.94-1.07-3.11,2.5-2-3.18,0L64,58.71Z"/></g><path id="_Path_215" data-name="&lt;Path&gt;" class="cls-10" d="M74.62,66.49l.91.34,1.53-.27-.12.31-.79.14a3.49,3.49,0,0,1-.44,0l.31.35.5.61-.12.3-1-1.23-.92-.34Z"/><path id="_Path_216" data-name="&lt;Path&gt;" class="cls-10" d="M77.2,63l0,.26-1.31.15a2.06,2.06,0,0,1-.56,0,.63.63,0,0,1-.36-.23.69.69,0,0,1-.19-.45,1.09,1.09,0,0,1,.06-.49.74.74,0,0,1,.29-.29,2.22,2.22,0,0,1,.57-.15l1.33-.14,0,.28-1.33.14a1.37,1.37,0,0,0-.45.1.35.35,0,0,0-.19.19.6.6,0,0,0,0,.31.51.51,0,0,0,.19.4,1,1,0,0,0,.6.06Z"/><path id="_Path_217" data-name="&lt;Path&gt;" class="cls-10" d="M75.35,60.29l.26-.06.17.84-.84.18a1.93,1.93,0,0,1-.35-.35,1,1,0,0,1-.16-.42,1,1,0,0,1,0-.56.93.93,0,0,1,.34-.44,1.43,1.43,0,0,1,.59-.25,1.38,1.38,0,0,1,.64,0,1,1,0,0,1,.5.25,1.2,1.2,0,0,1,.24.51,1.48,1.48,0,0,1,0,.42.59.59,0,0,1-.17.32.92.92,0,0,1-.34.23l-.12-.23a.84.84,0,0,0,.26-.17.55.55,0,0,0,.11-.23.53.53,0,0,0,0-.28.66.66,0,0,0-.13-.31.39.39,0,0,0-.21-.17.85.85,0,0,0-.24-.09,1.87,1.87,0,0,0-.47,0,1.47,1.47,0,0,0-.49.19.69.69,0,0,0-.25.34.86.86,0,0,0,0,.39.59.59,0,0,0,.15.32.74.74,0,0,0,.21.22l.41-.09Z"/><polygon id="_Path_218" data-name="&lt;Path&gt;" class="cls-10" points="65.66 52.98 66.06 50.7 66.32 50.75 65.98 52.77 66.96 52.94 66.92 53.2 65.66 52.98"/><polygon id="_Path_219" data-name="&lt;Path&gt;" class="cls-10" points="63.4 52.82 63.4 50.51 64.88 50.51 64.88 50.79 63.68 50.79 63.68 51.49 64.81 51.49 64.81 51.77 63.68 51.77 63.68 52.56 64.94 52.56 64.94 52.82 63.4 52.82"/><path id="_Path_220" data-name="&lt;Path&gt;" class="cls-10" d="M57,54.28l.26-.11a.94.94,0,0,1,.14.63.77.77,0,0,1-.28.5.84.84,0,0,1-.51.23.83.83,0,0,1-.52-.13A1.69,1.69,0,0,1,55.6,55a1.63,1.63,0,0,1-.32-.56,1,1,0,0,1,0-.54,1,1,0,0,1,.29-.43.76.76,0,0,1,.51-.2,1,1,0,0,1,.53.19l-.15.22a.84.84,0,0,0-.39-.15.56.56,0,0,0-.35.15.6.6,0,0,0-.2.35.84.84,0,0,0,0,.41,1.81,1.81,0,0,0,.24.37,2.46,2.46,0,0,0,.39.35.64.64,0,0,0,.39.09.58.58,0,0,0,.34-.14.48.48,0,0,0,.19-.36.69.69,0,0,0-.12-.48Z"/><polygon id="_Path_221" data-name="&lt;Path&gt;" class="cls-10" points="56.03 56.31 54.31 54.78 54.51 54.57 56.22 56.1 56.03 56.31"/><polygon id="_Path_222" data-name="&lt;Path&gt;" class="cls-10" points="54.93 57.63 53.09 56.22 53.25 56 54.88 57.24 55.49 56.44 55.7 56.61 54.93 57.63"/><path id="_Path_223" data-name="&lt;Path&gt;" class="cls-10" d="M51.49,59l.1-.25,1.23.5a1.38,1.38,0,0,1,.49.27.57.57,0,0,1,.22.36.87.87,0,0,1-.05.49.91.91,0,0,1-.28.39.63.63,0,0,1-.39.13,2,2,0,0,1-.58-.14L51,60.23,51.1,60l1.23.49a2.75,2.75,0,0,0,.44.12.44.44,0,0,0,.27-.07.45.45,0,0,0,.17-.25.54.54,0,0,0,0-.46.93.93,0,0,0-.5-.33Z"/><polygon id="_Path_224" data-name="&lt;Path&gt;" class="cls-10" points="52.83 64.58 50.53 64.59 50.52 63.12 50.78 63.12 50.8 64.33 51.49 64.32 51.49 63.19 51.77 63.19 51.78 64.31 52.56 64.31 52.56 63.06 52.82 63.05 52.83 64.58"/><path id="_Compound_Path_109" data-name="&lt;Compound Path&gt;" class="cls-10" d="M61.46,53.16,61,50.89l.69-.14a1,1,0,0,1,.37,0,.56.56,0,0,1,.33.1.86.86,0,0,1,.31.34,2.1,2.1,0,0,1,.19.52,1.87,1.87,0,0,1,0,.46.88.88,0,0,1-.07.36.57.57,0,0,1-.14.24.85.85,0,0,1-.2.17,1.7,1.7,0,0,1-.32.1Zm.22-.32.43-.09a.87.87,0,0,0,.3-.1.45.45,0,0,0,.15-.16.61.61,0,0,0,.09-.32,1.71,1.71,0,0,0,0-.44,1.21,1.21,0,0,0-.22-.52.55.55,0,0,0-.3-.21.88.88,0,0,0-.35,0l-.44.09Z"/><path id="_Compound_Path_110" data-name="&lt;Compound Path&gt;" class="cls-10" d="M68.94,54.08,70,52l.68.36a.83.83,0,0,1,.26.17.41.41,0,0,1,.18.21.67.67,0,0,1,.05.26,1.28,1.28,0,0,1-.09.32.76.76,0,0,1-.39.36.71.71,0,0,1-.62-.1l-.47-.24-.43.83Zm.8-.94.47.24a.51.51,0,0,0,.38.07.47.47,0,0,0,.25-.22.57.57,0,0,0,0-.25.28.28,0,0,0-.08-.2,1.05,1.05,0,0,0-.22-.14l-.47-.24Z"/><path id="_Compound_Path_111" data-name="&lt;Compound Path&gt;" class="cls-10" d="M70.11,54.68l2.14-1.19.22.2L71.55,56l-.23-.2.29-.68L71,54.51l-.64.37Zm1.09-.31.51.46.26-.61.2-.45a3.12,3.12,0,0,1-.35.25Z"/><path id="_Compound_Path_112" data-name="&lt;Compound Path&gt;" class="cls-10" d="M71.77,56.25l1.83-1.42.55.72a1.11,1.11,0,0,1,.21.37.57.57,0,0,1,0,.33.67.67,0,0,1-.22.27.61.61,0,0,1-.42.14.67.67,0,0,1-.43-.22.79.79,0,0,1,0,.2,1.84,1.84,0,0,1-.13.37l-.27.66-.21-.26.22-.52c.05-.14.1-.27.12-.34a.54.54,0,0,0,0-.35s0-.07-.09-.13l-.18-.24-.82.62ZM73,55.67l.35.46a.82.82,0,0,0,.21.21.38.38,0,0,0,.21,0,.44.44,0,0,0,.2-.08.43.43,0,0,0,.15-.27.55.55,0,0,0-.11-.32l-.42-.5Z"/><path id="_Compound_Path_113" data-name="&lt;Compound Path&gt;" class="cls-10" d="M73,57.82l2.41-.43.13.25-1.6,1.84-.15-.25.5-.56-.42-.75-.73.15Zm1.13,0,.33.62.46-.51.34-.37a2.83,2.83,0,0,1-.44.14Z"/><path id="_Compound_Path_114" data-name="&lt;Compound Path&gt;" class="cls-10" d="M75,63.81l2.22,1,0,.29-2.38.6,0-.31.73-.16.08-.85-.67-.3Zm.89.68-.07.69L76.5,65l.49-.09a2.75,2.75,0,0,1-.42-.16Z"/><path id="_Compound_Path_115" data-name="&lt;Compound Path&gt;" class="cls-10" d="M53.2,66.7,51,67.2l-.21-.89a1,1,0,0,1,0-.41.41.41,0,0,1,.16-.27.69.69,0,0,1,.76-.12.69.69,0,0,1,.3.39.77.77,0,0,1,.07-.19,1.7,1.7,0,0,1,.26-.29l.53-.48.07.33-.41.37a3.12,3.12,0,0,0-.26.26.59.59,0,0,0-.13.17.68.68,0,0,0,0,.14.42.42,0,0,0,0,.14l.07.32,1-.23Zm-1.32,0-.13-.57a.66.66,0,0,0-.1-.28.34.34,0,0,0-.16-.13h-.22a.31.31,0,0,0-.24.16.49.49,0,0,0,0,.35l.14.63Z"/><path id="_Compound_Path_116" data-name="&lt;Compound Path&gt;" class="cls-10" d="M52.92,62.53l-2.31-.19.06-.78a1.68,1.68,0,0,1,.07-.3.43.43,0,0,1,.13-.24.46.46,0,0,1,.23-.15.85.85,0,0,1,.32,0,.92.92,0,0,1,.48.21.75.75,0,0,1,.16.62l-.05.53.93.07Zm-1.18-.37,0-.53a.5.5,0,0,0-.08-.38.47.47,0,0,0-.31-.14.43.43,0,0,0-.25,0,.23.23,0,0,0-.14.16.73.73,0,0,0,0,.24l-.05.53Z"/><path id="_Compound_Path_117" data-name="&lt;Compound Path&gt;" class="cls-10" d="M53.89,59.12,52,57.84l.43-.65a.6.6,0,0,1,.27-.26.45.45,0,0,1,.31-.08.63.63,0,0,1,.28.11.53.53,0,0,1,.21.21.5.5,0,0,1,0,.3.55.55,0,0,1,.34-.13.73.73,0,0,1,.35.12.77.77,0,0,1,.22.22,1.46,1.46,0,0,1,.1.23.48.48,0,0,1,0,.26.65.65,0,0,1-.16.29Zm-1-1,.24-.37a.81.81,0,0,0,.13-.23.39.39,0,0,0,0-.19.36.36,0,0,0-.14-.16.37.37,0,0,0-.2-.07.16.16,0,0,0-.17,0,1.25,1.25,0,0,0-.21.25l-.21.33Zm.9.59.28-.42.09-.17a.45.45,0,0,0,0-.16.2.2,0,0,0,0-.15.37.37,0,0,0-.13-.15.46.46,0,0,0-.22-.08.44.44,0,0,0-.22.07.79.79,0,0,0-.18.23l-.27.39Z"/><path id="_Compound_Path_118" data-name="&lt;Compound Path&gt;" class="cls-10" d="M57.7,54.68l-.56-2.37.25-.16,1.92,1.51-.26.18-.57-.47-.72.44.18.72Zm0-1.12.57-.36-.51-.43c-.17-.13-.28-.24-.37-.32a2.58,2.58,0,0,1,.13.42Z"/></g></g></g></g></g></g></g></svg>