<svg id="Layer_1" data-name="Layer 1" xmlns="http://www.w3.org/2000/svg" xmlns:xlink="http://www.w3.org/1999/xlink" viewBox="0 0 128 128"><defs><style>.cls-1{fill:none;}.cls-2{clip-path:url(#clip-path);}.cls-3{fill:#056c38;}.cls-4{fill:#fff;}</style><clipPath id="clip-path"><circle class="cls-1" cx="64" cy="64" r="64"/></clipPath></defs><title>Flag_circle_Saudi Arabia</title><g class="cls-2"><path class="cls-3" d="M-46,0H174V128H-46Z"/><path class="cls-4" d="M88,88h0c-1.54.33-1.5,1.68-.5,2.28-16.33,0-41.37-.23-46.74-.23-3,0-12.52-.31-12.7-.31,2,2.52,5,3,8.86,3.08l50.4-.07a2.51,2.51,0,0,0,.59,3l0,0,.07,0h0a1.05,1.05,0,0,0,1.13-.55c1,.08,6.8.15,7.33,0h0a1.5,1.5,0,0,0,1.39.79c1.19-.21,2.13-.32,2.16-2.36,0,0-.12-3.48-2.83-3.26-.64.08-2.43.23-2.43.23-2.08-.21-3.61-.23-5.94-.3.21-.23.59-1.17.13-1.51a1,1,0,0,0-.56-.12h-.05l0,0v0c-.12-.14-.18-.5-.26-.59h0Zm1.11,5h0c2.38.1,4.61,0,7,.12a.65.65,0,0,1,0,1l0,0H95.9l-2,0a.36.36,0,0,0,0-.1c-.18-.46-1.51-.43-1.83-.07v0l0,0s0,0,0,0a.06.06,0,0,0,0,0,.13.13,0,0,0,0,.06A21.9,21.9,0,0,1,89,94c-.31-.32-.27-.91.09-1Z"/><path class="cls-4" d="M96.46,55.18c.33.16,1.2-.82,1.17-2,.09-.64-.25-3-1.11-3.37a.85.85,0,0,0-.32,0,.8.8,0,0,0-.68,1.08c-.12.36.61,1.66.8,2.34.18.49-.22,1.87.14,2ZM28.27,35.36c1.06.46,3,.27,3-1.3,0-.14,0-.61-.05-.74a.47.47,0,0,0-.5-.29h0a.58.58,0,0,0-.44.42c0,.16.08.42-.08.49s-.42,0-.41-.4a.71.71,0,0,0-.17-.37.34.34,0,0,0-.24-.06c-.14,0-.14,0-.22.15a1.06,1.06,0,0,0-.08.37.22.22,0,0,1-.21.22c-.14,0-.11,0-.22-.06s-.14-.09-.14-.2a1.18,1.18,0,0,0-.08-.39.46.46,0,0,0-.25-.13c-.58,0-.62.61-.59.84a1.42,1.42,0,0,0,.72,1.43ZM19.8,35.3c.16.37-.16,1.57.17,1.68s.74-.83.9-1.71c.09-.48,0-2.13-1.19-2.47a.71.71,0,0,0-.2,0c-.46,0-1,.26-.78.77-.11.28.92,1.23,1.1,1.76Zm37.34.44a7.26,7.26,0,0,0,.65-2.8c-.09-.49-.32-.72-.58-.7s-.56.3-.79.84A13,13,0,0,0,56,35.65c-.16.64.73.91,1.13.09Zm-7.54-.42c.3.4.59.36,1.19.08a1.17,1.17,0,0,0,.58-.78c.15-.66-.75.31-.87-.43s.38-1,.92-1.62c0-.31,0-.56-.2-.57a1.13,1.13,0,0,0-.46.16,3.13,3.13,0,0,0-1.43,2.22c0,.58-.15.57.27.94ZM18.76,45.73c3.09.28,1.38-4.8,2.5-5.73.21-.45.6-.46.63.11v4.32c0,1.4,1,1.82,1.76,2.11.81-.06,1.34,0,1.66.68l.38,7.48s1.88.49,2-4.2c.08-2.76-.6-5.07-.2-5.61,0-.52.75-.55,1.26-.3.8.53,1.16,1.17,2.41.92,1.91-.49,3.06-1.34,3.09-2.69A10.71,10.71,0,0,0,33.34,39c.09-.24-.36-.84-.28-1.08.35.5.86.46,1,0a3.86,3.86,0,0,0-1.64-2.34,1.22,1.22,0,0,0-2,.71,5.93,5.93,0,0,0,1.56,4.16,3.76,3.76,0,0,1,.39,2.07,1.26,1.26,0,0,1-1.56-.28s-1.52-1.05-1.52-1.28c.4-2.38.08-2.65-.14-3.31-.15-.91-.62-1.2-1-1.82a.72.72,0,0,0-1.14,0c-.67,1.07-.36,3.37.13,4.4s.88,1.54.63,1.54c-.21.54-.64.42-1-.2a14.53,14.53,0,0,1-.53-4c-.14-1.06-.29-3.34-1.05-3.91a.72.72,0,0,0-.67-.32.94.94,0,0,0-.72.55,18.54,18.54,0,0,0,.07,3.09,30.12,30.12,0,0,1,.94,5c.07,2.35-1.46,1-1.39-.15a9.91,9.91,0,0,0-.06-4.49.89.89,0,0,0-1.15-.65c-.48,0-1.73,1.23-2.08,3.3a18.88,18.88,0,0,0-.42,2c-.17,1.07-.94,1.83-1.48-.15-.46-1.44-.75-5-1.52-4.16-.23,2.77-.49,7.64,2.06,8.14ZM38.65,41h0a12.64,12.64,0,0,0,3,0h0c.85-.29,4.89-4.54,4.89-4.54-.21-.17-.4-.29-.61-.46s-.2-.35,0-.53a1.4,1.4,0,0,0,.16-2.25,2.74,2.74,0,0,0-1.21-.22,2.31,2.31,0,0,0-1,.24,1.58,1.58,0,0,0-.31,2.23c.53.23,1.07.73.71,1-1.52,1.49-5.47,4-5.67,4.45h0v0h0v0Zm6-6.67h0a.75.75,0,0,1,.69.48c.16.31.08.61-.17.67a.75.75,0,0,1-.74-.46c-.16-.32-.08-.63.17-.69Zm5.58,9.16c1.24.47,2-1.69,2.53-4.06.34-.67.61-.74.78-.4,0,3.15.25,3.85,1.13,4.81a3,3,0,0,0,3.71.06l1.53-1.41a1,1,0,0,1,1.27-.06c.46.39.4,1.07,1.4,1.53.85.31,2.64.08,3.06-.59.56-.88.69-1.19.95-1.52.4-.49,1.09-.28,1.09-.11s-.47.54-.19,1c.47.33.58.1.86,0,1-.44,1.75-2.43,1.75-2.43,0-.74-.42-.68-.71-.53s-.41.29-.79.5-1.43.37-1.89-.3a25.8,25.8,0,0,1-.85-2.72c0-.07-.63-1.27,0-1.35.3.06.94.2,1-.29.31-.48-.67-1.84-1.34-2.53a1.54,1.54,0,0,0-2.16-.06c-.55.46-.47,1-.57,1.47a2.14,2.14,0,0,0,.5,2c.55,1,1.53,2.25,1.21,4a1.8,1.8,0,0,1-1.58.74c-.42-.09-1.11-.25-1.47-2.73-.28-1.88.06-4.51-.8-5.74-.19-.46-.36-.91-.64-.88s-.38.22-.66.7a2.74,2.74,0,0,0-.45,2.81,7.83,7.83,0,0,1,.5,4.39,9.32,9.32,0,0,1-.92,1.19,1.59,1.59,0,0,1-1.94.24,1.92,1.92,0,0,1-1.15-1.5c0-1.62.14-4.28-.18-4.84a1,1,0,0,0-1.59-.3c-1.61,1.35-2.4,3.64-2.89,5.46-.44,1.32-.92.94-1.25.4-.81-.7-.87-6.18-1.85-5.28-1.57,4.14.9,8.66,2.61,8.22Zm-6.46-2.94A1.9,1.9,0,0,0,43,43.25a1.48,1.48,0,0,0,1.51.45c.92.1,1.47-1.59,1.47-1.59s0-.47-1.06.42c-.46.1-.53-.07-.64-.31a2,2,0,0,1,.14-1.32c.11-.26,0-.43-.21-.45a1,1,0,0,0-.5.13Zm60.44,21.1c-.2-.22-.65-.09-1-.11-.15,0-.63-.08-.4-.45a2.68,2.68,0,0,0,.39-.68c.14-.29,0-.49-.5-.65a4,4,0,0,0-.63-.06l-.69.06c-.31.06-.42.19-.48.54,0,.54.38.51.74.72.21.25.35.47,0,.87l-.93.74c-.16.26-.26.65.23.77.92.24,3-1,3-1.06a.58.58,0,0,0,.2-.68Zm6.58-22.31a8.84,8.84,0,0,1-.21-1.7c.14-.33.85,0,1.11-.34s-1.84-3-2.61-4.06c-.15-.28-.25-.51-.38-.5s-.24.17-.44.56a4.82,4.82,0,0,0-.45,3.14A160.34,160.34,0,0,1,110,56.91a6.29,6.29,0,0,1-.43,1.68,14,14,0,0,1-2.13,2.29c-.71.49-2.21.95-2.69,1.31-1.56.82-1.57,1.78-.31,1.81,2.16-.23,4.73-.39,6.49-2.85a8.9,8.9,0,0,0,1-3.7c.17-6.69-.09-13.23-1.18-18.07ZM17.05,52.5l8-3.55c-.44-.61,0-1.15-1.68-1.19-2.54,0-6.26,3.06-6.35,4.74Zm1.43,7.67c-.67,1.25-.95.4-1-.3a14.72,14.72,0,0,1,.2-3.51c.08-.5.08-.67,0-.67s-.19.18-.36.38c-1.51,2.22-1.64,5.53-.81,6.51a1.83,1.83,0,0,0,1.71.53c1-.38,1.37-2.15,1.14-2.8-.32-.46-.57-.53-.88-.13Zm18.94-3.33c1.1-3.38,0-5.92.34-6.23h.1c1.36,1.35,3.26.17,3.68-.29a.64.64,0,0,1,.94-.09c1.06.7,2.92.37,3.3-.87a23.88,23.88,0,0,0,.46-3.75,4.34,4.34,0,0,0-1.47.57.33.33,0,0,0-.1.17l-.18,1.08,0,.09a.26.26,0,0,1-.13.1c-.24.13-.67.07-.69-.27-.33-1.37-1.68-1.55-2.5.58-.55.41-1.56.49-1.66-.12.13-1.43-.5-1.62-1.75-1l-1.2-8.37c.52,0,1,.34,1.48-.21-.52-1.49-1.61-4.5-2.23-4.78h0l-.08-.09s0,0,0,0,0,0,0,0-.05,0-.08,0a.5.5,0,0,0-.17,0h0c-.15,0-.32.09-.52.14a1.41,1.41,0,0,0-1.08,1.73l2.06,12a1,1,0,0,1-.94,1.11c-1-.64-1.27-1.92-3-1.86A3.27,3.27,0,0,0,29,48.86a5.57,5.57,0,0,0,0,2.84,2.65,2.65,0,0,0,2.86.65c.76-.29,1.39-1,1.66-.81h0c.17.26,0,2.52-3.58,4.27-2.19.91-3.94,1.12-4.88-.53-.58-1,.05-4.95-1.39-4-4.23,10.07,9.93,11.47,11.51.42.1-.31.41-.63.63-.55s.19.16.22.38c-.33,10-10.95,10.7-12.76,7.55a8.85,8.85,0,0,1-.62-3.38,1.69,1.69,0,0,0-.44-1.09c-.43-.29-1,.49-1.13,1.83A11.14,11.14,0,0,0,21,58.83c.57,7.91,14.24,4.51,16.46-2ZM32.14,50h0c-.11.12-.48.08-.75.08a.77.77,0,0,1-.68-.31c-.09-.27.19-.53.32-.73h0l0-.06a.84.84,0,0,1,.44-.18h.11a.69.69,0,0,1,.65.44.73.73,0,0,1-.14.76ZM90.76,63l-2.38.24ZM77.35,42.45c1.06.47,3.05.26,3-1.31,0-.13,0-.6,0-.73a.47.47,0,0,0-.5-.29.57.57,0,0,0-.44.42c0,.16.08.41-.07.49s-.44,0-.42-.4a.75.75,0,0,0-.18-.38.37.37,0,0,0-.23-.06c-.15,0-.15.05-.23.16a1.27,1.27,0,0,0-.08.36c0,.16-.07.21-.2.23s-.11,0-.22-.06-.15-.09-.15-.21a1.17,1.17,0,0,0-.07-.38c-.06-.08-.15-.09-.26-.12-.57,0-.61.6-.57.83a1.37,1.37,0,0,0,.71,1.44Zm17.05,4c0-.91.11-2.13.17-2.89,0-.29.09-.6.39-.68s.82.28.82,0a3.65,3.65,0,0,0-.54-1.85,1,1,0,0,0-.79-.4,1.17,1.17,0,0,0-1.22.94c0,.39.19.6.16.95s-.28.33-.81.09c.08-.08-.35-.63-.35-.63a1.4,1.4,0,0,0-1.33.23,1.7,1.7,0,0,0-.12,1.48c.59,1,2.64,2.76,3.62,2.77ZM87.81,59.16c.74,0,1.59-1.55,2-3.09a24.26,24.26,0,0,0-.19-4.67C89.51,50.16,88,40,87.74,39.08c-.36-1.78,1.43-.23,1.24-1.27-.62-1.31-2.17-3.22-2.66-4.35-.18-.31-.2-.59-.35-.57s-.22.14-.47.44a9.09,9.09,0,0,0-.58,4.44c1.55,7.47,3.14,14.28,2.89,21.4Zm-5.53-1.52a20.09,20.09,0,0,1-6.82,4.58c-.29.3.72,1.57,2,1.56,2.17-.23,4.07-1.35,5.83-4.3a7.14,7.14,0,0,0,1.33-3.3,66.72,66.72,0,0,0-1.45-16.73,2.5,2.5,0,0,1,.06-1.17c.14-.16.61,0,.87-.38s-1-3.24-1.76-4.35c-.16-.28-.25-.5-.39-.49s-.23.16-.43.55a5.88,5.88,0,0,0-.77,3.15c1,6.59,1.35,12.36,2,19a2.47,2.47,0,0,1-.51,1.93Zm4.45-2.7M78.06,36.36c.38,1-.28,1.9.11,2s.86-1,1-2.07a3.12,3.12,0,0,0-1.4-3,1.66,1.66,0,0,1-.22,0c-.54,0-1.14.3-.91.92-.14.35,1.16,1.51,1.37,2.14Zm19.1,10.1h-.09l-5,3.33c-.49.4-.24,1.8,0,1.63.35.12,5.28-3,5.19-3.31.21,0,.32-1.59-.08-1.65Zm-3.45-9q2.24,2.53,4.37,5.16c.31,3.67.39,7,.71,10.73-.05,1.57-.57,3.66-1.07,3.86a1.24,1.24,0,0,1-1.27,0A14.36,14.36,0,0,1,94.6,54.9a1.19,1.19,0,0,0-1.8,0c-1.48,1.33-2.16,3.8-3.16,5.51-.26.38-1,.7-1.81,0a7,7,0,0,1-1.1-5.43l0,.09c-1.84,1.91-1,5.08-.61,5.76a4.72,4.72,0,0,0,2.28,2.4A1.69,1.69,0,0,0,90.76,63c1.08-1,1.1-3.68,1.61-4.21a1,1,0,0,1,1.68-.37A4.12,4.12,0,0,0,95.6,59.6a2.76,2.76,0,0,0,3.4.23,3.73,3.73,0,0,0,1.82-2c.51-1.26.26-7.85.14-11.52l2.27,3a68.69,68.69,0,0,1,.37,9.43c-.08.61,2.29-1.8,2.27-2.95V53c1.15,1.69,2.26,3.4,3.31,5.14.65-.31.43-3.71,0-4.18-1.1-1.7-2.51-3.54-3.6-5-.22-1.8-.51-3.91-.64-4.56-.21-1-.42-2.53-.73-3.73a11.75,11.75,0,0,1-.27-2.11c.13-.34.61,0,.85-.38s-1.24-4.17-2-5.26c-.29-.49-.81-.32-1.47.47-.6.53-.38,1.72-.15,2.85.6,2.88,1.14,5.82,1.56,8.75L100,41.43l-.12-.57c0-.06-.13-2.36-.25-2.91,0-.22-.07-.29.18-.26a1.48,1.48,0,0,0,.48.29c.27.05.51-.38.34-.77l-2.52-4.29a.75.75,0,0,0-.35-.21c-.13,0-.27,0-.43.26a1.63,1.63,0,0,0-.63,1.27c.08,1,.27,2.06.35,3.07l.08.41a4,4,0,0,0-.28-.3c-2.15-2.08,1-.34-.41-2a16.08,16.08,0,0,0-2.54-2.3c-.51-.3-.82-.88-1,.1a16.4,16.4,0,0,0-.07,2.59,3.35,3.35,0,0,0,.84,1.61Zm12.46,1.67c.17.49-.26,2.07.1,2.21s.79-1.09,1-2.24c.1-.64-.41-2.86-1.28-3.25a.65.65,0,0,0-.21,0,.76.76,0,0,0-.82,1c-.12.37,1.06,1.63,1.25,2.31ZM68.71,61.92a.71.71,0,0,0,.9.09,18.58,18.58,0,0,1,3.1-1c.38,0,.36-.93-.24-1a3.76,3.76,0,0,0-2.27.63c-.48.09-.56-.16-.67-.4-.12-.6.27-1,.19-1.47a1.09,1.09,0,0,0-.58-.22.72.72,0,0,0-.35.08,6.39,6.39,0,0,0-1.42,1.12c-.21.15-.19.27-.12.52s.45.24.77.08.64.2.6.68a.81.81,0,0,0,.09.85Zm4.85-9.43h0v-.08l-.47-.25-9.18,0-.25-.1,0,0h0v0h0v-.07h0a.63.63,0,0,1,.29-.16c2.19-.27,6.08-.86,6.34-4.31,0-1.8-.83-3-3.23-3.31a3.06,3.06,0,0,0-2.81,3.42c-.08.47.17,1.38-.34,1.48-3.38.29-7.06,2.23-7.19,3.63h-.15a.81.81,0,0,1-.46-.86,15.79,15.79,0,0,0-2.31-7.24c-.48-.44-.69-.62-.82-.64h-.07l0,0h0a5.15,5.15,0,0,1-.5.42c-.46.48-.54.82-.51,1.78,0,.09.87,2.27,1.59,3.8A11,11,0,0,1,54,55a13,13,0,0,1-5.61,5.4,3.21,3.21,0,0,1-2.35,0h0a1.28,1.28,0,0,1-.62-1.23h0c1.85-1.19,4-2.15,5.63-5.37a5.06,5.06,0,0,0,.15-3.86,3.51,3.51,0,0,0-.95-1.79h0c.32-.14,1.14.42,1.26.07a5.51,5.51,0,0,0-1.61-2.74,1.44,1.44,0,0,0-2-.11c-.68.35-.82,1.61-.49,2.7.36.83,1.34,1,2,2.64h0c0,.09.24,1.24-.11,1.7-.28.82-4,3.5-4.22,3.66,0,0,0,0,0,0h-.06c0-.08,0-.24,0-.51,0-.5.21-1.64.19-1.83h0c-1.21.73-1.61,3-1.84,3.6-3.08,2-6.57,3.42-8.59,5.41C33.77,64.2,42,61,43,60.56l0,0c.18.19.19.84.74,1.42a4.6,4.6,0,0,0,4.47,1.32c3-1,4.7-2.87,6.45-4.94.25-.34.64-.6,1-.34,1.2,2.48,4.67,4.24,9.15,4.42,1-1.16.54-1.73.12-2-.13-.09-2.23-.84-2.56-1.59s.3-1.32,1.3-1.78a48.56,48.56,0,0,0,8.44-1.49A6.56,6.56,0,0,1,73.08,53a1.24,1.24,0,0,1,.48-.47ZM66,47.17s0,0,0-.07,0,0,0,0h0l0-.05a.69.69,0,0,1,.23-.09,1.39,1.39,0,0,1,.72.18c.36.19.59.49.56.7v0l0,0v0h0v0l0,.06a1,1,0,0,1-1-.08c-.36-.19-.59-.49-.56-.7v0Zm-3.68,8.48c-1,.31-1.93.55-1.93,1.87.13.65.1,1,0,1.14l0,.05h-.05l0,0h-.05a1.91,1.91,0,0,1-.82-.3A4.82,4.82,0,0,1,56.81,55a.91.91,0,0,1,1-.92h.11a31.12,31.12,0,0,0,3.84.4c1.07.07,1.59.84.59,1.16ZM40.77,52.76c0,.38,1.12.84,1.19,1.7.17.36-.24,1.51.1,1.62s.75-.79.92-1.65c.09-.46-.4-2.09-1.23-2.38a1.26,1.26,0,0,0-.39,0c-.4,0-.75.22-.59.74Zm18.5-5.3c1.06.46,3.58.19,3-1.31,0-.14,0-.61-.06-.73a.44.44,0,0,0-.5-.29.57.57,0,0,0-.44.41c0,.16.08.42-.07.5s-.43,0-.42-.4a.78.78,0,0,0-.17-.38.37.37,0,0,0-.23-.06c-.14,0-.15,0-.23.16a1,1,0,0,0-.08.36c0,.15-.08.21-.2.23s-.11,0-.22-.06-.15-.09-.15-.21a1.38,1.38,0,0,0-.06-.38c-.06-.08-.16-.09-.27-.12-.58,0-.61.6-.58.83a1.4,1.4,0,0,0,.72,1.44Zm9-10.73c1.77,2.19,3.48,4.4,5.13,6.68.25,1.7.44,3.36.57,5A94.83,94.83,0,0,1,74,60.36c.74,0,1.92-1.09,2.33-2.74a74.3,74.3,0,0,0-.12-8.25c0-.56,0-1.23-.1-1.92,2,3,3.88,6.12,5.6,9.3.67-.29.52-3.74.13-4.23-1.46-2.9-3.48-5.76-4.12-6.86-.23-.39-1-1.5-2-2.78-.17-1.83-.36-3.37-.48-3.84-.3-1.93.86.22.7-.9-.38-1.93-1.53-3.24-2.9-5-.43-.57-.42-.69-1.1.14a3.44,3.44,0,0,0-.29,2.21c-.22-.3-.46-.59-.71-.87l-2.23-1.74a2.49,2.49,0,0,0-1.34-.48.61.61,0,0,0-.56.54,5.24,5.24,0,0,0,.1,2,7.15,7.15,0,0,0,1.25,1.74ZM72,36.61c0,.18.09.37.12.56.1.41.19.81.28,1.22-.38-.5-.71-.9-.85-1-.88-1,0-.63.45-.74Z"/></g></svg>