<svg id="Layer_1" data-name="Layer 1" xmlns="http://www.w3.org/2000/svg" xmlns:xlink="http://www.w3.org/1999/xlink" viewBox="0 0 128 128"><defs><style>.cls-1{fill:none;}.cls-2{clip-path:url(#clip-path);}.cls-3{clip-path:url(#clip-path-2);}.cls-4{fill:#325d37;}.cls-5{fill:#2d4db6;}.cls-6{fill:#fef200;}.cls-7{fill:#fff;}</style><clipPath id="clip-path"><circle class="cls-1" cx="64" cy="64" r="64"/></clipPath><clipPath id="clip-path-2"><rect id="_Clipping_Path_" data-name="&lt;Clipping Path&gt;" class="cls-1" x="-20" width="219.42" height="128"/></clipPath></defs><title>Flag_circle_Solomon Islands</title><g class="cls-2"><g id="SOLOMON_ISLANDS" data-name="SOLOMON ISLANDS"><g id="_Group_" data-name="&lt;Group&gt;"><g id="_Clip_Group_" data-name="&lt;Clip Group&gt;"><g class="cls-3"><polygon id="_Path_" data-name="&lt;Path&gt;" class="cls-4" points="-8.96 128 199.42 128 199.42 6.44 -8.96 128"/><polygon id="_Path_2" data-name="&lt;Path&gt;" class="cls-5" points="-20 0 -20 121.55 188.37 0 -20 0"/><polygon id="_Path_3" data-name="&lt;Path&gt;" class="cls-6" points="-20 128 -20 128 -8.96 128 199.42 6.44 199.42 0 199.42 0 -20 128"/><polygon id="_Path_4" data-name="&lt;Path&gt;" class="cls-6" points="188.37 0 -20 121.55 -20 128 199.42 0 199.42 0 188.37 0"/><polygon id="_Path_5" data-name="&lt;Path&gt;" class="cls-7" points="18.39 28.49 15.01 38.95 20.22 40.64 18.39 28.49"/><polygon id="_Path_6" data-name="&lt;Path&gt;" class="cls-7" points="18.39 28.49 21.78 38.95 16.57 40.64 18.39 28.49"/><polygon id="_Path_7" data-name="&lt;Path&gt;" class="cls-7" points="28.84 36.07 17.85 36.07 17.85 41.58 28.84 36.07"/><polygon id="_Path_8" data-name="&lt;Path&gt;" class="cls-7" points="28.84 36.07 19.95 42.53 16.74 38.1 28.84 36.07"/><polygon id="_Path_9" data-name="&lt;Path&gt;" class="cls-7" points="7.96 36.07 16.84 42.53 20.06 38.1 7.96 36.07"/><polygon id="_Path_10" data-name="&lt;Path&gt;" class="cls-7" points="7.96 36.07 18.93 36.07 18.93 41.58 7.96 36.07"/><polygon id="_Path_11" data-name="&lt;Path&gt;" class="cls-7" points="24.85 48.36 21.45 37.92 16.23 39.62 24.85 48.36"/><polygon id="_Path_12" data-name="&lt;Path&gt;" class="cls-7" points="24.85 48.36 15.96 41.91 19.19 37.47 24.85 48.36"/><polygon id="_Path_13" data-name="&lt;Path&gt;" class="cls-7" points="11.95 48.36 20.82 41.91 17.6 37.47 11.95 48.36"/><polygon id="_Path_14" data-name="&lt;Path&gt;" class="cls-7" points="11.95 48.36 15.34 37.92 20.56 39.62 11.95 48.36"/><polygon id="_Path_15" data-name="&lt;Path&gt;" class="cls-7" points="38.55 48.68 35.17 59.11 40.4 60.81 38.55 48.68"/><polygon id="_Path_16" data-name="&lt;Path&gt;" class="cls-7" points="38.55 48.68 41.95 59.11 36.74 60.81 38.55 48.68"/><polygon id="_Path_17" data-name="&lt;Path&gt;" class="cls-7" points="49 56.26 38.03 56.26 38.03 61.74 49 56.26"/><polygon id="_Path_18" data-name="&lt;Path&gt;" class="cls-7" points="49 56.26 40.13 62.72 36.9 58.27 49 56.26"/><polygon id="_Path_19" data-name="&lt;Path&gt;" class="cls-7" points="28.14 56.26 37.01 62.72 40.24 58.27 28.14 56.26"/><polygon id="_Path_20" data-name="&lt;Path&gt;" class="cls-7" points="28.14 56.26 39.1 56.26 39.1 61.74 28.14 56.26"/><polygon id="_Path_21" data-name="&lt;Path&gt;" class="cls-7" points="45.01 68.52 41.62 58.08 36.39 59.79 45.01 68.52"/><polygon id="_Path_22" data-name="&lt;Path&gt;" class="cls-7" points="45.01 68.52 36.13 62.07 39.36 57.64 45.01 68.52"/><polygon id="_Path_23" data-name="&lt;Path&gt;" class="cls-7" points="32.12 68.52 40.99 62.07 37.77 57.64 32.12 68.52"/><polygon id="_Path_24" data-name="&lt;Path&gt;" class="cls-7" points="32.12 68.52 35.51 58.08 40.72 59.79 32.12 68.52"/><polygon id="_Path_25" data-name="&lt;Path&gt;" class="cls-7" points="-1.78 48.68 -5.17 59.11 0.05 60.81 -1.78 48.68"/><polygon id="_Path_26" data-name="&lt;Path&gt;" class="cls-7" points="-1.78 48.68 1.62 59.11 -3.6 60.81 -1.78 48.68"/><polygon id="_Path_27" data-name="&lt;Path&gt;" class="cls-7" points="8.65 56.26 -2.31 56.26 -2.31 61.74 8.65 56.26"/><polygon id="_Path_28" data-name="&lt;Path&gt;" class="cls-7" points="8.65 56.26 -0.21 62.72 -3.44 58.27 8.65 56.26"/><polygon id="_Path_29" data-name="&lt;Path&gt;" class="cls-7" points="4.66 68.52 1.29 58.08 -3.94 59.79 4.66 68.52"/><polygon id="_Path_30" data-name="&lt;Path&gt;" class="cls-7" points="4.66 68.52 -4.2 62.07 -0.97 57.64 4.66 68.52"/><polygon id="_Path_31" data-name="&lt;Path&gt;" class="cls-7" points="-8.21 68.52 0.64 62.07 -2.58 57.64 -8.21 68.52"/><polygon id="_Path_32" data-name="&lt;Path&gt;" class="cls-7" points="-8.21 68.52 -4.83 58.08 0.38 59.79 -8.21 68.52"/><polygon id="_Path_33" data-name="&lt;Path&gt;" class="cls-7" points="-1.78 8.33 -5.17 18.78 0.05 20.48 -1.78 8.33"/><polygon id="_Path_34" data-name="&lt;Path&gt;" class="cls-7" points="-1.78 8.33 1.62 18.78 -3.6 20.48 -1.78 8.33"/><polygon id="_Path_35" data-name="&lt;Path&gt;" class="cls-7" points="8.65 15.9 -2.31 15.9 -2.31 21.41 8.65 15.9"/><polygon id="_Path_36" data-name="&lt;Path&gt;" class="cls-7" points="8.65 15.9 -0.21 22.36 -3.44 17.91 8.65 15.9"/><polygon id="_Path_37" data-name="&lt;Path&gt;" class="cls-7" points="4.66 28.19 1.29 17.75 -3.94 19.45 4.66 28.19"/><polygon id="_Path_38" data-name="&lt;Path&gt;" class="cls-7" points="4.66 28.19 -4.2 21.74 -0.97 17.3 4.66 28.19"/><polygon id="_Path_39" data-name="&lt;Path&gt;" class="cls-7" points="-8.21 28.19 0.64 21.74 -2.58 17.3 -8.21 28.19"/><polygon id="_Path_40" data-name="&lt;Path&gt;" class="cls-7" points="-8.21 28.19 -4.83 17.75 0.38 19.45 -8.21 28.19"/><polygon id="_Path_41" data-name="&lt;Path&gt;" class="cls-7" points="38.55 8.33 35.17 18.78 40.4 20.48 38.55 8.33"/><polygon id="_Path_42" data-name="&lt;Path&gt;" class="cls-7" points="38.55 8.33 41.95 18.78 36.74 20.48 38.55 8.33"/><polygon id="_Path_43" data-name="&lt;Path&gt;" class="cls-7" points="49 15.9 38.03 15.9 38.03 21.41 49 15.9"/><polygon id="_Path_44" data-name="&lt;Path&gt;" class="cls-7" points="49 15.9 40.13 22.36 36.9 17.91 49 15.9"/><polygon id="_Path_45" data-name="&lt;Path&gt;" class="cls-7" points="28.14 15.9 37.01 22.36 40.24 17.91 28.14 15.9"/><polygon id="_Path_46" data-name="&lt;Path&gt;" class="cls-7" points="28.14 15.9 39.1 15.9 39.1 21.41 28.14 15.9"/><polygon id="_Path_47" data-name="&lt;Path&gt;" class="cls-7" points="45.01 28.19 41.62 17.75 36.39 19.45 45.01 28.19"/><polygon id="_Path_48" data-name="&lt;Path&gt;" class="cls-7" points="45.01 28.19 36.13 21.74 39.36 17.3 45.01 28.19"/><polygon id="_Path_49" data-name="&lt;Path&gt;" class="cls-7" points="32.12 28.19 40.99 21.74 37.77 17.3 32.12 28.19"/><polygon id="_Path_50" data-name="&lt;Path&gt;" class="cls-7" points="32.12 28.19 35.51 17.75 40.72 19.45 32.12 28.19"/></g></g></g></g></g></svg>