<svg id="Layer_1" data-name="Layer 1" xmlns="http://www.w3.org/2000/svg" xmlns:xlink="http://www.w3.org/1999/xlink" viewBox="0 0 128 128"><defs><style>.cls-1{fill:none;}.cls-2{clip-path:url(#clip-path);}.cls-3{clip-path:url(#clip-path-2);}.cls-4{fill:#da1841;}.cls-5{fill:#fff;}</style><clipPath id="clip-path"><circle class="cls-1" cx="64" cy="64" r="64"/></clipPath><clipPath id="clip-path-2"><rect id="_Clipping_Path_" data-name="&lt;Clipping Path&gt;" class="cls-1" width="219.39" height="128"/></clipPath></defs><title>Flag_circle_Singapore</title><g class="cls-2"><g id="SINGAPORE"><g id="_Group_" data-name="&lt;Group&gt;"><g id="_Clip_Group_" data-name="&lt;Clip Group&gt;"><g class="cls-3"><rect id="_Path_" data-name="&lt;Path&gt;" class="cls-4" width="219.39" height="64.01"/><rect id="_Path_2" data-name="&lt;Path&gt;" class="cls-5" y="64.01" width="219.39" height="63.99"/><g id="_Clip_Group_2" data-name="&lt;Clip Group&gt;"><g class="cls-3"><path id="_Path_3" data-name="&lt;Path&gt;" class="cls-5" d="M65.83,32a24.06,24.06,0,1,1-24.06-24A24.06,24.06,0,0,1,65.83,32"/><path id="_Path_4" data-name="&lt;Path&gt;" class="cls-4" d="M73.4,32A22.75,22.75,0,1,1,50.66,9.27,22.72,22.72,0,0,1,73.4,32"/><polygon id="_Path_5" data-name="&lt;Path&gt;" class="cls-5" points="44.75 32.58 41.49 30.08 38.2 32.58 39.47 28.55 36.19 26.04 40.24 26.07 41.49 22.01 42.74 26.07 46.77 26.04 43.49 28.55 44.75 32.58"/><polygon id="_Path_6" data-name="&lt;Path&gt;" class="cls-5" points="70.4 32.58 67.13 30.08 63.87 32.58 65.12 28.55 61.84 26.04 65.89 26.07 67.13 22.01 68.37 26.07 72.42 26.04 69.14 28.55 70.4 32.58"/><polygon id="_Path_7" data-name="&lt;Path&gt;" class="cls-5" points="57.58 23.08 54.32 20.55 51.05 23.08 52.3 19.02 49.02 16.55 53.07 16.55 54.32 12.49 55.57 16.55 59.62 16.52 56.33 19.02 57.58 23.08"/><polygon id="_Path_8" data-name="&lt;Path&gt;" class="cls-5" points="49.55 47.82 46.27 45.32 43.01 47.82 44.27 43.77 40.99 41.29 45.03 41.29 46.27 37.23 47.52 41.29 51.56 41.29 48.29 43.77 49.55 47.82"/><polygon id="_Path_9" data-name="&lt;Path&gt;" class="cls-5" points="65.6 47.82 62.32 45.32 59.06 47.82 60.32 43.77 57.05 41.29 61.1 41.29 62.32 37.23 63.57 41.29 67.61 41.29 64.34 43.77 65.6 47.82"/></g></g></g></g></g></g></g></svg>