<svg id="Layer_1" data-name="Layer 1" xmlns="http://www.w3.org/2000/svg" xmlns:xlink="http://www.w3.org/1999/xlink" viewBox="0 0 128 128"><defs><style>.cls-1{fill:none;}.cls-2{clip-path:url(#clip-path);}.cls-3{fill:#ee1c25;}.cls-4{fill:#0b4ea2;}.cls-5{fill:#fff;}</style><clipPath id="clip-path"><circle class="cls-1" cx="64" cy="64" r="64"/></clipPath></defs><title>Flag_circle_Slovakia</title><g class="cls-2"><rect class="cls-3" x="-39" y="-0.02" width="220.01" height="128"/><rect class="cls-4" x="-39" y="-0.02" width="220.01" height="85.33"/><rect class="cls-5" x="-39" y="-0.02" width="220.01" height="42.67"/><path class="cls-5" d="M42.47,98.86C31,93.33,14.58,82.36,14.58,60.67s1-31.57,1-31.57h53.7s1,9.87,1,31.57S53.94,93.33,42.47,98.86Z"/><path class="cls-3" d="M42.47,96c-10.53-5.07-25.58-15.13-25.58-35s.95-29,.95-29H67.1s1,9.05,1,29S53,90.91,42.47,96Z"/><path class="cls-5" d="M44.72,55.72c2.85.05,8.41.16,13.36-1.5,0,0-.13,1.77-.13,3.84s.13,3.83.13,3.83c-4.54-1.52-10.15-1.55-13.36-1.51v11h-4.5v-11c-3.21,0-8.82,0-13.37,1.51,0,0,.14-1.77.14-3.83s-.14-3.84-.14-3.84c5,1.66,10.52,1.55,13.37,1.5V48.81a31.91,31.91,0,0,0-10.58,1.52s.13-1.77.13-3.83-.13-3.84-.13-3.84a31.83,31.83,0,0,0,10.57,1.52,62.06,62.06,0,0,0-1.41-9.89s2.62.21,3.67.21,3.67-.21,3.67-.21a60.81,60.81,0,0,0-1.41,9.89,31.74,31.74,0,0,0,10.56-1.52s-.13,1.77-.13,3.84.13,3.83.13,3.83a31.83,31.83,0,0,0-10.57-1.52v6.91Z"/><path class="cls-4" d="M42.47,70.19c-5.3,0-8.14,7.35-8.14,7.35a6.51,6.51,0,0,0-5.9-3.49c-2.93,0-5.09,2.61-6.46,5C27.3,87.54,35.79,92.76,42.47,96c6.67-3.22,15.17-8.44,20.5-16.91-1.37-2.41-3.53-5-6.46-5a6.51,6.51,0,0,0-5.9,3.49s-2.84-7.35-8.14-7.35Z"/></g></svg>