<svg id="Layer_1" data-name="Layer 1" xmlns="http://www.w3.org/2000/svg" xmlns:xlink="http://www.w3.org/1999/xlink" viewBox="0 0 128 128"><defs><style>.cls-1,.cls-11,.cls-14,.cls-16,.cls-17,.cls-20,.cls-26,.cls-28,.cls-29,.cls-30,.cls-34,.cls-38,.cls-39,.cls-53,.cls-54,.cls-55,.cls-6,.cls-63{fill:none;}.cls-2{clip-path:url(#clip-path);}.cls-3{fill:#5eb6e4;}.cls-15,.cls-4,.cls-41,.cls-5{fill:#fff;}.cls-11,.cls-12,.cls-14,.cls-15,.cls-16,.cls-17,.cls-18,.cls-19,.cls-20,.cls-21,.cls-22,.cls-23,.cls-24,.cls-25,.cls-26,.cls-27,.cls-28,.cls-29,.cls-30,.cls-31,.cls-32,.cls-33,.cls-38,.cls-41,.cls-42,.cls-43,.cls-44,.cls-45,.cls-46,.cls-47,.cls-48,.cls-49,.cls-5,.cls-50,.cls-51,.cls-53,.cls-54,.cls-55,.cls-56,.cls-57,.cls-58,.cls-59,.cls-6,.cls-60,.cls-61,.cls-62,.cls-63,.cls-64,.cls-65,.cls-7,.cls-8,.cls-9{stroke:#000;}.cls-12,.cls-14,.cls-18,.cls-19,.cls-21,.cls-22,.cls-29,.cls-33,.cls-41,.cls-43,.cls-46,.cls-47,.cls-5,.cls-7,.cls-8{stroke-width:0.2px;}.cls-28,.cls-42,.cls-6,.cls-60{stroke-width:0.23px;}.cls-11,.cls-25,.cls-26,.cls-27,.cls-28,.cls-29,.cls-30,.cls-31,.cls-32,.cls-33,.cls-34,.cls-38,.cls-39,.cls-41,.cls-42,.cls-43,.cls-44,.cls-45,.cls-46,.cls-47,.cls-48,.cls-49,.cls-50,.cls-51,.cls-53,.cls-54,.cls-55,.cls-56,.cls-57,.cls-58,.cls-59,.cls-60,.cls-61,.cls-62,.cls-63,.cls-64,.cls-65,.cls-7,.cls-8,.cls-9{stroke-linecap:round;}.cls-11,.cls-21,.cls-22,.cls-24,.cls-25,.cls-26,.cls-27,.cls-28,.cls-29,.cls-30,.cls-31,.cls-32,.cls-33,.cls-34,.cls-38,.cls-39,.cls-41,.cls-42,.cls-43,.cls-44,.cls-45,.cls-46,.cls-47,.cls-48,.cls-49,.cls-50,.cls-51,.cls-53,.cls-54,.cls-55,.cls-56,.cls-57,.cls-58,.cls-59,.cls-60,.cls-61,.cls-62,.cls-63,.cls-64,.cls-65,.cls-7,.cls-8,.cls-9{stroke-linejoin:round;}.cls-13,.cls-18,.cls-22,.cls-23,.cls-8{fill:#f1bf31;}.cls-9{stroke-width:0.14px;}.cls-10,.cls-19,.cls-25,.cls-27,.cls-31,.cls-33,.cls-56,.cls-60{fill:#d99f31;}.cls-11{stroke-width:0.13px;}.cls-15{stroke-width:0.2px;}.cls-16{stroke-width:0.22px;}.cls-17,.cls-23,.cls-34{stroke-width:0.19px;}.cls-20{stroke-width:0.22px;}.cls-24,.cls-44{stroke-width:0.1px;}.cls-25{stroke-width:0.15px;}.cls-26,.cls-27,.cls-39,.cls-45,.cls-51{stroke-width:0.17px;}.cls-30{stroke-width:0.18px;}.cls-31{stroke-width:0.2px;}.cls-32{fill:#f1f1f2;stroke-width:0.36px;}.cls-34{stroke:#f1bf31;}.cls-35{fill:#a0cfeb;}.cls-36{fill:#94bb79;}.cls-37,.cls-43,.cls-50,.cls-59,.cls-62,.cls-64{fill:#658d5c;}.cls-38,.cls-56{stroke-width:0.27px;}.cls-39{stroke:#4c819a;}.cls-40{fill:#bdbfc1;}.cls-46{fill:#466343;}.cls-47,.cls-51,.cls-52{fill:#a48253;}.cls-48,.cls-63{stroke-width:0.13px;}.cls-49,.cls-50{stroke-width:0.2px;}.cls-53{stroke-width:0.28px;}.cls-54{stroke-width:0.3px;}.cls-55{stroke-width:0.3px;}.cls-57,.cls-64{stroke-width:0.18px;}.cls-58,.cls-59{stroke-width:0.21px;}.cls-61,.cls-62{stroke-width:0.18px;}.cls-65{stroke-width:0.21px;}</style><clipPath id="clip-path"><circle class="cls-1" cx="64" cy="64" r="64"/></clipPath></defs><title>Flag_circle_San Marino</title><g class="cls-2"><rect class="cls-3" x="-46" width="220" height="128"/><rect class="cls-4" x="-46" width="220" height="64"/><g id="coa"><g id="crown"><circle class="cls-5" cx="76.68" cy="36.53" r="0.86"/><circle class="cls-5" cx="77.16" cy="33.5" r="1.08"/><circle class="cls-5" cx="58.96" cy="30.23" r="0.83"/><circle class="cls-5" cx="50.87" cy="33.5" r="1.08"/><circle class="cls-5" cx="55.82" cy="30.58" r="0.9"/><circle class="cls-5" cx="51.35" cy="36.53" r="0.86"/><circle class="cls-5" cx="52.67" cy="31.39" r="1.04"/><circle class="cls-5" cx="69.07" cy="30.23" r="0.83"/><circle class="cls-5" cx="72.21" cy="30.58" r="0.9"/><circle class="cls-5" cx="75.37" cy="31.39" r="1.04"/><circle class="cls-6" cx="76.68" cy="36.53" r="0.95"/><circle class="cls-6" cx="77.16" cy="33.5" r="1.2"/><circle class="cls-6" cx="58.96" cy="30.23" r="0.92"/><circle class="cls-6" cx="50.87" cy="33.5" r="1.2"/><circle class="cls-6" cx="55.82" cy="30.58" r="0.99"/><circle class="cls-6" cx="51.35" cy="36.53" r="0.95"/><circle class="cls-6" cx="52.67" cy="31.39" r="1.15"/><circle class="cls-6" cx="69.07" cy="30.23" r="0.92"/><circle class="cls-6" cx="72.21" cy="30.58" r="0.99"/><circle class="cls-6" cx="75.37" cy="31.39" r="1.15"/><path class="cls-7" d="M62.4,28.16c-2.88,3.32-7.93,1.7-10.23,3-4,2.24.35,7.57,1.17,8.59l4.37-1.14c-1.61-1.28-4.82-3.46-3.85-5.23s6.26,0,8.57-3.85c.48-.82.11-1.52,0-1.36Z"/><path class="cls-8" d="M62.4,28.26c-2.88,3.32-7.77,1.73-10.07,3-4,2.25.52,7.44,1.34,8.46l3.77-1.14c-1.6-1.28-4.65-3.53-3.68-5.3s6.36,0,8.67-3.88c.48-.82.11-1.32,0-1.16Z"/><path class="cls-9" d="M62.66,28.52c-3.12,4.2-7.79,2.08-9.8,3.72-2.27,1.86,1,5.5,2.63,6.95l.25-.09c-1.29-1.23-5.13-4.88-2.69-6.84,1.75-1.42,6.68.43,9.62-3.64Z"/><path class="cls-10" d="M55,36.55a3,3,0,0,0-.26.71c-1.34-1.59-2.33-3.23-1.28-4.59s3.29-.68,5.73-1.53a6.48,6.48,0,0,0,3.15-2c-.09.24-.19.53-.29.83-2.47,3.15-7.41,1.64-8.36,3.36-.55,1,.24,2.19,1.31,3.25Z"/><path d="M53.78,36.26a1.14,1.14,0,0,0,.58-.41l.19.23a1.06,1.06,0,0,1-.41.37,1.41,1.41,0,0,1-.69.15c-.07-.11-.15-.21-.22-.31A1.43,1.43,0,0,0,53.78,36.26ZM53.18,35a1.32,1.32,0,0,0,.54-.17l.11.22a1.62,1.62,0,0,1-1.19.19L52.52,35a2.1,2.1,0,0,0,.66,0Zm.33-1a1.85,1.85,0,0,1-1.17-.6,2.58,2.58,0,0,1,.08-.26,1.66,1.66,0,0,0,1.11.64A1.64,1.64,0,0,0,53.51,34Zm.39-1a1.85,1.85,0,0,1-.74-.8l.18-.12a1.63,1.63,0,0,0,.73.78Zm.85-1.31a1.18,1.18,0,0,0,.45.74l-.23,0a1.37,1.37,0,0,1-.42-.76l.2,0Zm1.51-.13a1.31,1.31,0,0,0,.45.58s0,0,0,.06l-.24,0a1.48,1.48,0,0,1-.45-.66Zm1.48-.15a1.76,1.76,0,0,0,.57.55L58,32a2,2,0,0,1-.51-.57l.21,0Zm1.32-.27a1.67,1.67,0,0,0,.69.41l-.28.1a2,2,0,0,1-.63-.45l.22-.06Zm1.33-.51a1.92,1.92,0,0,0,.62.27l-.22.14a1.9,1.9,0,0,1-.6-.31l.2-.1Zm1-.62a2.27,2.27,0,0,0,.46.16l-.15.16a1.55,1.55,0,0,1-.48-.19l.17-.13Z"/><path class="cls-11" d="M62.67,28.68a1.23,1.23,0,0,1-.24.71c-2.31,3.87-7.74,2.09-8.74,3.91s2.06,4,3.68,5.24a7.32,7.32,0,0,1-.9.27l-.28.15-.42.14c-1.3-1.23-5.13-4.84-2.69-6.81,1.75-1.42,6.65.46,9.59-3.61Z"/><path class="cls-7" d="M65.6,28.16c2.88,3.32,7.93,1.7,10.23,3,4,2.24-.35,7.57-1.17,8.59L70.3,38.6c1.6-1.28,4.81-3.46,3.85-5.23s-6.27,0-8.58-3.85c-.48-.82-.11-1.52,0-1.36Z"/><path class="cls-8" d="M65.64,28.26c2.87,3.32,7.76,1.73,10.06,3,4,2.25-.52,7.44-1.34,8.46L70.59,38.6c1.61-1.28,4.65-3.53,3.68-5.3s-6.36,0-8.66-3.88c-.49-.82-.12-1.32,0-1.16Z"/><path class="cls-9" d="M72.29,39.1c1.3-1.23,5.14-4.88,2.7-6.84-1.76-1.42-6.69.43-9.62-3.64v-.1c3.11,4.2,7.79,2.08,9.8,3.72,2.26,1.85-1.06,5.49-2.66,6.94Z"/><path class="cls-10" d="M73,36.55a2.94,2.94,0,0,1,.27.71c1.33-1.59,2.33-3.23,1.28-4.59s-3.3-.68-5.74-1.53a6.45,6.45,0,0,1-3.14-2c.09.24.18.53.28.83,2.48,3.15,7.42,1.64,8.36,3.36.56,1-.23,2.19-1.31,3.25Z"/><path d="M74.25,36.39a1.38,1.38,0,0,1-.69-.41c-.06.08-.13.15-.19.22a1.52,1.52,0,0,0,1.12.51l.22-.29a1.37,1.37,0,0,1-.46,0Zm.6-1.36a1.27,1.27,0,0,1-.53-.17,2.26,2.26,0,0,1-.11.22,1.66,1.66,0,0,0,.52.2,1.83,1.83,0,0,0,.66,0,1.69,1.69,0,0,0,.12-.28,2.1,2.1,0,0,1-.66,0Zm-.33-1a1.85,1.85,0,0,0,1.17-.6,2.58,2.58,0,0,0-.08-.26,1.63,1.63,0,0,1-1.11.64.82.82,0,0,1,0,.22Zm-.38-1a1.88,1.88,0,0,0,.73-.8l-.18-.12a1.65,1.65,0,0,1-.72.78l.17.14Zm-.85-1.31a1.19,1.19,0,0,1-.46.74l.24,0a1.3,1.3,0,0,0,.41-.76l-.19,0Zm-1.52-.13a1.29,1.29,0,0,1-.44.58.06.06,0,0,0,0,.06l.23,0A1.33,1.33,0,0,0,72,31.6Zm-1.47-.15a1.8,1.8,0,0,1-.58.55L70,32a2.13,2.13,0,0,0,.51-.57l-.21,0ZM69,31.17a1.9,1.9,0,0,1-.7.41l.28.1a1.91,1.91,0,0,0,.63-.45L69,31.17Zm-1.33-.51a2,2,0,0,1-.62.27l.21.14a1.8,1.8,0,0,0,.6-.31Zm-1-.62a2.36,2.36,0,0,1-.47.16c0,.05.1.11.16.16a2,2,0,0,0,.48-.19,1.09,1.09,0,0,1-.17-.13Z"/><path class="cls-11" d="M65.37,28.68a1.16,1.16,0,0,0,.24.71c2.3,3.87,7.74,2.09,8.73,3.91s-2.06,4-3.68,5.24a8.54,8.54,0,0,0,.9.27l.29.15.41.14c1.3-1.23,5.13-4.84,2.7-6.81-1.76-1.42-6.66.46-9.59-3.61Z"/><path class="cls-12" d="M64,35.56H62.56a8.79,8.79,0,0,0,0-2.33c-.15-.76-.76-1.64-.76-2.28a11.93,11.93,0,0,1,.69-2.44h3.11A12.35,12.35,0,0,1,66.23,31a16.48,16.48,0,0,1-.73,2.28,8.61,8.61,0,0,0,0,2.33Z"/><path class="cls-13" d="M64,35.56H62.56a8.44,8.44,0,0,0,0-2.33c-.15-.77-.67-1.37-.73-2.15a5.18,5.18,0,0,1,.86-2.57h2.58a5.37,5.37,0,0,1,.83,2.57,21.62,21.62,0,0,1-.71,2.15,8.27,8.27,0,0,0,0,2.33Z"/><path class="cls-10" d="M61.86,30.81a.71.71,0,0,1,.28-.06.53.53,0,0,1,.45.21A8.12,8.12,0,0,1,64,30.77a7.94,7.94,0,0,1,1.42.19.53.53,0,0,1,.45-.21.74.74,0,0,1,.25.05v.28a21.62,21.62,0,0,1-.71,2.15,5.81,5.81,0,0,0,0,1.5L64,35.38l-1.37-.65a6.3,6.3,0,0,0,0-1.5c-.15-.77-.67-1.37-.73-2.15a2.44,2.44,0,0,1,0-.27Z"/><path d="M65.51,31.32c-.06.2-.16.52-.25.85a4.57,4.57,0,0,0-.18.86,10.77,10.77,0,0,0,.27,2.53h-.06A9.29,9.29,0,0,1,64.8,33a8,8,0,0,1,.43-1.73,1.88,1.88,0,0,0,0-1.4c-.15-.4-.4-.8-.6-1.38h.27c.21.57.45,1,.59,1.38a2,2,0,0,1,0,1.43Zm-2.82,4.24A10.77,10.77,0,0,0,63,33a4.44,4.44,0,0,0-.17-.86c-.09-.33-.19-.65-.26-.85a3.07,3.07,0,0,1,.16-1.87,6.14,6.14,0,0,1,.43-.94h.29a4,4,0,0,0-.6,2.79A7.45,7.45,0,0,1,63.24,33a9.22,9.22,0,0,1-.49,2.53Z"/><path class="cls-14" d="M64,35.56H62.56a8.44,8.44,0,0,0,0-2.33c-.15-.77-.67-1.37-.73-2.15a5.18,5.18,0,0,1,.86-2.57h2.58a5.37,5.37,0,0,1,.83,2.57,21.62,21.62,0,0,1-.71,2.15,8.27,8.27,0,0,0,0,2.33Z"/><ellipse class="cls-15" cx="64" cy="30" rx="0.73" ry="0.53"/><ellipse class="cls-16" cx="64" cy="29.97" rx="0.82" ry="0.58"/><circle class="cls-15" cx="64" cy="31.62" r="0.79"/><circle class="cls-16" cx="64" cy="31.62" r="0.88"/><path class="cls-17" d="M55.55,43.58a1.67,1.67,0,0,1-.29-.41,1.84,1.84,0,0,1-.06-.4l-.81-1.29,1.82-1.73,3.45-1L64,38.45h0l4.35.31,3.45,1,1.81,1.73-.8,1.29a1.84,1.84,0,0,1-.06.4,1.61,1.61,0,0,1-.3.41l-4-1.37L64,42l-4.42.2Z"/><path class="cls-18" d="M55.65,43.43a1.81,1.81,0,0,1-.22-.35,1.88,1.88,0,0,1-.08-.6l-1-1,1.82-1.73,3.45-1L64,38.45l4.35.31,3.46,1,1.81,1.73-1,1a1.88,1.88,0,0,1-.08.6,1.81,1.81,0,0,1-.22.35l-3.95-1.22L64,42l-4.42.2-4,1.22Z"/><path class="cls-12" d="M55.22,44.22c0-1.5,3.93-2.72,8.78-2.72s8.78,1.22,8.78,2.72h0c0,1.28-3.93,2.31-8.78,2.31s-8.78-1-8.78-2.31Z"/><path class="cls-18" d="M55.51,44.22c0-1.45,3.8-2.63,8.48-2.63s8.5,1.18,8.5,2.63h0c0,1.24-3.8,2.25-8.48,2.25s-8.5-1-8.5-2.25Z"/><ellipse class="cls-19" cx="64" cy="44.46" rx="7.85" ry="2"/><path class="cls-6" d="M71.79,44.73c-1.47.63-4.36,1-7.78,1s-6.31-.34-7.78-1"/><path class="cls-20" d="M71.66,44a24.76,24.76,0,0,1-7.65.86A24.8,24.8,0,0,1,56.36,44"/><path class="cls-14" d="M70.92,43.5a27.06,27.06,0,0,1-6.91.72,27.12,27.12,0,0,1-6.91-.72"/><path class="cls-14" d="M69.86,43.11a31.92,31.92,0,0,1-5.85.47,31.92,31.92,0,0,1-5.85-.47"/><path class="cls-14" d="M68.07,42.73a35.65,35.65,0,0,1-4.06.21A35.78,35.78,0,0,1,60,42.73"/><ellipse class="cls-14" cx="64" cy="44.46" rx="7.78" ry="1.94"/><path class="cls-21" d="M54.35,41.12a5.85,5.85,0,0,0-3.13-2.31,3.07,3.07,0,0,1,1-.45,2.57,2.57,0,0,1,1.7.15,3.61,3.61,0,0,1,.3-2.37,3.36,3.36,0,0,1,2.07.78,4.47,4.47,0,0,1,.45-2.11A3.65,3.65,0,0,1,59,36a4.25,4.25,0,0,1,1-2.29,3.94,3.94,0,0,1,2.09,1.82,4.54,4.54,0,0,1,2-2.83,4.55,4.55,0,0,1,2,2.83,3.94,3.94,0,0,1,2.09-1.82,4.19,4.19,0,0,1,1,2.29,3.67,3.67,0,0,1,2.19-1.15,4.47,4.47,0,0,1,.45,2.11,2.63,2.63,0,0,1,2.18-.52,3,3,0,0,1,.2,2.11,2.55,2.55,0,0,1,1.7-.15,3,3,0,0,1,1,.45,6.42,6.42,0,0,0-3.16,2.31C72.93,39.65,69.08,38,64,38s-8.95,1.62-9.67,3.09Z"/><path class="cls-22" d="M54.35,41a5.45,5.45,0,0,0-2.6-2.17,2,2,0,0,1,1.06-.29,2.54,2.54,0,0,1,1.27.21,4,4,0,0,1,.2-2.4,3.7,3.7,0,0,1,2.11.84A4.51,4.51,0,0,1,56.87,35,4,4,0,0,1,59,36.22a4.63,4.63,0,0,1,1-2.32,4,4,0,0,1,2.09,1.81A4.24,4.24,0,0,1,64,33a4.28,4.28,0,0,1,1.92,2.75A4,4,0,0,1,68,33.9a4,4,0,0,1,1,2.32A4,4,0,0,1,71.16,35a4.57,4.57,0,0,1,.49,2.15,2.94,2.94,0,0,1,2.23-.61A3.61,3.61,0,0,1,74,38.71a2.48,2.48,0,0,1,1.26-.21,2,2,0,0,1,1.06.29A5.43,5.43,0,0,0,73.69,41C73,39.48,69.08,38,64,38s-8.95,1.48-9.67,3Z"/><path class="cls-12" d="M54,41.42C54,39.55,58.43,38,64,38s9.87,1.65,9.87,3.28c0,.4-.34.74-.8,1a1.21,1.21,0,0,0,.07-.37c0-1.64-3.56-3-9.14-3s-9.13,1.33-9.13,3a1.19,1.19,0,0,0,.06.37c-.46-.28-1-.46-1-.85Z"/><path class="cls-23" d="M54.23,41.25c0-1.41,4.2-3.18,9.78-3.18s9.78,1.77,9.78,3.18c0,.4-.44.44-.48.32-.47-1.44-3.72-2.71-9.3-2.71s-8.83,1.27-9.3,2.71c0,.12-.48.08-.48-.32Z"/><path class="cls-24" d="M63.91,36.71c0-.5.1-1.61.1-1.61a.79.79,0,0,1,0-.17s.06,1.28.09,1.78.06,1.29.06,1.29h-.34s0-.79.07-1.29Zm8.2,2.89c.09-.17.2-.39.28-.56.16-.36.45-.92.45-.92s0,0,0,0-.36.51-.56.83l-.37.55Zm-2.73-1c.05-.11.28-.61.45-.94s.59-1,.59-1,0,0,0,0-.27.58-.43,1-.37,1-.37,1H69.5Zm-2.47-.44c.06-.24.18-.72.28-1.06s.22-.74.38-1.2h0c-.09.48-.13.76-.22,1.24s-.13.83-.17,1.05Zm-8.39.48H58.4s-.22-.6-.38-1-.42-1-.42-1,0,0,0,0,.38.57.59,1,.4.83.45.94Zm2.32-.45c0-.22-.11-.71-.17-1.05s-.13-.76-.22-1.24h0c.16.46.24.73.38,1.2s.22.82.28,1.06ZM55.9,39.62,55.61,39c-.16-.36-.45-.92-.45-.92s0,0,0,0,.36.51.56.83l.38.56Z"/><path class="cls-25" d="M55.81,42.12c-.07-.41-.42-.74-.7-.69a.83.83,0,0,0-.58.86.87.87,0,0,0,.85.65.69.69,0,0,0,.43-.82Z"/><path class="cls-13" d="M55.36,41.62a.53.53,0,0,1,.12.33.51.51,0,0,1-.51.51.56.56,0,0,1-.26-.07l0-.11a.65.65,0,0,1,.44-.72h.05a.33.33,0,0,1,.19.06Z"/><path class="cls-26" d="M55.66,42.13c-.06-.36-.3-.61-.54-.57a.65.65,0,0,0-.44.72.69.69,0,0,0,.67.56c.24,0,.37-.36.31-.71Z"/><path class="cls-27" d="M58.75,41.14l-.13-.76-.51-.26s-.55.15-.9.27-.9.37-.9.37l-.12.22.16.87.28.25,1.93-.57.19-.39Z"/><path class="cls-13" d="M56.63,41.69l1.54-.48.1-.16-.13-.8-.06-.06-1.71.63.13.73Z"/><path class="cls-28" d="M56.63,41.69l1.54-.48.1-.16-.1-.64m.54.73-.44-.09"/><path class="cls-13" d="M61,40.32a.33.33,0,0,1,.3-.35.32.32,0,0,1,.34.29.31.31,0,0,1-.29.35A.32.32,0,0,1,61,40.32Zm-.74.71a.33.33,0,0,1,.29-.35.32.32,0,0,1,.35.29.31.31,0,0,1-.29.35A.32.32,0,0,1,60.21,41Zm-.76-.57a.33.33,0,0,1,.29-.35.3.3,0,0,1,.32.29.29.29,0,0,1-.26.35.32.32,0,0,1-.35-.29Zm.65-.71a.32.32,0,1,1,.64,0,.32.32,0,0,1-.29.34A.32.32,0,0,1,60.1,39.75Z"/><path class="cls-10" d="M61,40.4a.33.33,0,0,1,.28-.2.29.29,0,0,1,.32.21.31.31,0,0,1-.27.2A.32.32,0,0,1,61,40.4Zm-.85-.56a.31.31,0,0,0,.33.2.22.22,0,1,0-.06-.41.3.3,0,0,0-.27.21Zm-.65.7a.32.32,0,0,0,.33.21.28.28,0,0,0,.25-.2.29.29,0,0,0-.31-.21.32.32,0,0,0-.27.2Zm.76.57a.32.32,0,0,0,.33.21.3.3,0,0,0,.27-.21.31.31,0,0,0-.33-.2A.32.32,0,0,0,60.23,41.11Z"/><path class="cls-29" d="M61,40.32a.33.33,0,0,1,.3-.35.32.32,0,0,1,.34.29.31.31,0,0,1-.29.35A.32.32,0,0,1,61,40.32Zm-.74.71a.33.33,0,0,1,.29-.35.32.32,0,0,1,.35.29.31.31,0,0,1-.29.35A.32.32,0,0,1,60.21,41Zm-.76-.57a.33.33,0,0,1,.29-.35.3.3,0,0,1,.32.29.29.29,0,0,1-.26.35.32.32,0,0,1-.35-.29Zm.65-.71a.32.32,0,1,1,.64,0,.32.32,0,0,1-.29.34A.32.32,0,0,1,60.1,39.75Z"/><path class="cls-10" d="M62.48,40.62v-.83l.48-.45h2.12l.48.45v.83l-.48.42H63Z"/><path class="cls-13" d="M65.12,39.43l-.17.18v.79l-.14.13h-1.6l-.13-.13v-.76l-.15-.2Z"/><path class="cls-26" d="M62.48,40.62v-.83l.48-.45h2.12l.48.45v.83l-.48.42H63Z"/><path class="cls-28" d="M62.61,40.58l.47-.18m2.34.2L65,40.4M63,41l.19-.45M65,41l-.19-.45m.14-.92v.79l-.14.13h-1.6l-.13-.13V39.6"/><path class="cls-13" d="M67.07,40.32a.33.33,0,0,0-.29-.35.32.32,0,0,0-.35.29.31.31,0,0,0,.29.35.32.32,0,0,0,.35-.29Zm.74.71a.32.32,0,0,0-.64-.06.32.32,0,0,0,.29.35A.32.32,0,0,0,67.81,41Zm.76-.57a.33.33,0,0,0-.29-.35.3.3,0,0,0-.32.29.3.3,0,0,0,.26.35.32.32,0,0,0,.35-.29Zm-.65-.71a.32.32,0,0,0-.29-.35.33.33,0,0,0-.35.3.32.32,0,0,0,.29.34.31.31,0,0,0,.35-.29Z"/><path class="cls-10" d="M67.05,40.4a.32.32,0,0,0-.28-.2.3.3,0,0,0-.32.2.3.3,0,0,0,.27.21A.32.32,0,0,0,67.05,40.4Zm.25-.56a.32.32,0,0,0,.27.2.31.31,0,0,0,.33-.2.3.3,0,0,0-.27-.21.32.32,0,0,0-.33.21Zm.68.71a.27.27,0,0,0,.24.2.22.22,0,1,0,.06-.41A.28.28,0,0,0,68,40.55Zm-.79.56a.3.3,0,0,0,.27.21.32.32,0,0,0,.33-.21.31.31,0,0,0-.27-.2A.31.31,0,0,0,67.19,41.11Z"/><path class="cls-29" d="M67.07,40.32a.33.33,0,0,0-.29-.35.32.32,0,0,0-.35.29.31.31,0,0,0,.29.35.32.32,0,0,0,.35-.29Zm.74.71a.32.32,0,0,0-.64-.06.32.32,0,0,0,.29.35A.32.32,0,0,0,67.81,41Zm.76-.57a.33.33,0,0,0-.29-.35.3.3,0,0,0-.32.29.3.3,0,0,0,.26.35.32.32,0,0,0,.35-.29Zm-.65-.71a.32.32,0,0,0-.29-.35.33.33,0,0,0-.35.3.32.32,0,0,0,.29.34.31.31,0,0,0,.35-.29Z"/><path class="cls-27" d="M69.27,41.14l.13-.76.51-.26s.55.15.9.27.9.37.9.37l.13.22-.16.87-.29.25-1.93-.57-.19-.39Z"/><path class="cls-13" d="M71.39,41.69l-1.54-.48-.1-.16.13-.8.06-.06,1.71.63-.13.73Z"/><path class="cls-28" d="M71.39,41.69l-1.54-.48-.1-.16.1-.64m-.4,1.05.4-.25"/><path class="cls-25" d="M72.19,42.12c.07-.41.43-.74.7-.69a.83.83,0,0,1,.58.86.87.87,0,0,1-.85.65.69.69,0,0,1-.43-.82Z"/><path class="cls-13" d="M72.52,42a.53.53,0,0,1,.12-.33.35.35,0,0,1,.19-.06h0a.65.65,0,0,1,.44.72l0,.11a.56.56,0,0,1-.26.07.51.51,0,0,1-.51-.51Z"/><path class="cls-26" d="M72.34,42.13c.06-.36.31-.61.54-.57a.65.65,0,0,1,.44.72.69.69,0,0,1-.67.56C72.41,42.8,72.28,42.48,72.34,42.13Z"/><path class="cls-30" d="M69.18,41.15l.14-.83.54-.27s.6.16,1,.29,1,.39,1,.39l.14.24-.18.93-.3.28-2.07-.62-.2-.41Zm-6.81-1.4.51-.47h2.27l.51.47v.9l-.51.45H62.88l-.51-.45v-.9Zm-3.53,1.4-.14-.83-.54-.27s-.6.16-1,.29-1,.39-1,.39L56.1,41l.17.93.31.28,2.06-.62.2-.41Z"/><path class="cls-31" d="M65.73,20.45a.69.69,0,0,1,.66.72.72.72,0,0,1-.66.75c-.49,0-1.21-.59-1.18-.12V22l.26,2.17c.64.14-2.25.14-1.61,0L63.48,22V21.8c0-.47-.71.12-1.19.12a.72.72,0,0,1-.66-.75.69.69,0,0,1,.66-.72c.37,0,.79.35,1.05.18.42-.25-.08-.83-.08-1.22a.75.75,0,0,1,1.5,0c0,.39-.51.95-.09,1.22.25.17.67-.18,1-.18Z"/><path class="cls-13" d="M63.46,19.52a.56.56,0,0,1-.09-.17.71.71,0,0,1,.65-.51.67.67,0,0,1,.36.12c0,.08-.2.09-.36.23S63.66,19.76,63.46,19.52Zm.11,1.09a.24.24,0,0,1,0,.13c0,.24-.41.43-.91.43a1,1,0,0,1-.87-.32.68.68,0,0,1,.57-.31c.35,0,.83.3,1.08.14a.27.27,0,0,0,.08-.07Zm.7,0a.4.4,0,0,1,.14-.29.3.3,0,0,0,.14.33c.23.16.71-.14,1.07-.14a.7.7,0,0,1,.57.3,1.09,1.09,0,0,1-.93.38c-.55,0-1-.26-1-.58Z"/><path class="cls-29" d="M65.62,20.54a.65.65,0,1,1,0,1.29c-.35,0-1.22-.62-1.2-.15v.25L64.58,24c.6.13-1.73.13-1.12,0l.14-2.1,0-.24c0-.47-.88.15-1.21.15a.65.65,0,1,1,0-1.29c.35,0,.83.3,1.08.14s-.15-.8-.15-1.16a.68.68,0,1,1,1.35,0c0,.36-.53.91-.14,1.16.23.16.71-.14,1.07-.14Z"/><circle class="cls-32" cx="64" cy="24.81" r="1.69"/><path d="M64.31,25.87a1.71,1.71,0,0,0,.29-.48c0-.13.17-.07.14,0a1.66,1.66,0,0,1-.27.53Zm-1.85-1,.1-.09.14-.09a.07.07,0,0,0-.07-.12l-.21.13Zm0,.25.08.16.37-.35a.07.07,0,0,0-.09-.11,1.64,1.64,0,0,0-.26.2Zm.12.38.11.12a5.39,5.39,0,0,0,.53-.48c.07-.08,0-.19-.1-.11l-.53.47Zm2.3.28a.74.74,0,0,0,.2-.37.07.07,0,1,1,.14,0,.87.87,0,0,1-.21.43ZM63.58,26a5.19,5.19,0,0,0,.57-.76.07.07,0,0,1,.09,0,.07.07,0,0,1,0,.1,3.35,3.35,0,0,1-.35.56c-.11.15-.2.25-.2.25Zm-.48-.3a4.55,4.55,0,0,0,.44-.45c.06-.07.19,0,.12.09a3.07,3.07,0,0,1-.38.44Z"/><path class="cls-33" d="M65.31,28.51H62.73a1.17,1.17,0,0,1-1.47.32,1.06,1.06,0,0,1-.49-.68s1.08,0,1.09-.92.56-1.6,1.36-1.51a1.48,1.48,0,0,1,.8.42,1.41,1.41,0,0,1,.8-.42c.8-.09,1.35.54,1.35,1.5s1.09.93,1.09.93a1,1,0,0,1-.48.68,1.17,1.17,0,0,1-1.47-.32Z"/><path class="cls-10" d="M65.31,28.51h-.09a2.52,2.52,0,0,1-1.2.57,2.57,2.57,0,0,1-1.21-.57h-.08s-.91.64-1.54.16a.79.79,0,0,1-.28-.42s1.08-.06,1.08-1,.52-1.36,1.23-1.36a1.26,1.26,0,0,1,.8.34,1.22,1.22,0,0,1,.8-.34c.7,0,1.22.4,1.22,1.36s1.09,1,1.09,1a.78.78,0,0,1-.29.42c-.63.48-1.53-.16-1.53-.16Z"/><path class="cls-34" d="M62.11,26.67a2.14,2.14,0,0,0,0,.62,1,1,0,0,1-.31.75,1.89,1.89,0,0,1-.78.33m4.86-1.7a1.89,1.89,0,0,1,0,.62,1,1,0,0,0,.31.75,1.82,1.82,0,0,0,.77.33"/><path class="cls-13" d="M64,29c-1.35-.31-1.52-1.14-1.48-1.13a2.85,2.85,0,0,0,1.5.93,3,3,0,0,0,1.5-.93S65.38,28.68,64,29Zm-1.65-2.38c0-.32.53-.59,1.26-.67a1.59,1.59,0,0,1,.41.26,1.38,1.38,0,0,1,.4-.26c.73.08,1.26.35,1.26.67,0,.77-.88,1.15-1.67,1.15s-1.66-.38-1.66-1.15Z"/><path class="cls-29" d="M65.31,28.51h-.09a2.52,2.52,0,0,1-1.2.57,2.57,2.57,0,0,1-1.21-.57h-.08s-.91.64-1.54.16a.79.79,0,0,1-.28-.42s1.08-.06,1.08-1,.52-1.36,1.23-1.36a1.26,1.26,0,0,1,.8.34,1.22,1.22,0,0,1,.8-.34c.7,0,1.22.4,1.22,1.36s1.09,1,1.09,1a.78.78,0,0,1-.29.42c-.63.48-1.53-.16-1.53-.16Z"/><path class="cls-7" d="M65.63,27.87a1.63,1.63,0,0,1-3.22,0s.16.89,1.61,1.21C65.47,28.76,65.63,27.87,65.63,27.87Z"/></g><g id="shield"><path class="cls-35" d="M63.74,48.53c2.89-.05,15.32-2.13,15.32,15.13,0,16.49-15,23-15,23A26.59,26.59,0,0,1,49,62.41c0-16,14.78-13.88,14.78-13.88Z"/><path class="cls-36" d="M68.63,74.32a6.12,6.12,0,0,1,7.43,1.16A28.27,28.27,0,0,1,64,86.71,27,27,0,0,1,52.14,75.44a6.12,6.12,0,0,1,7.71-.93,6.13,6.13,0,0,1,8.78-.19Z"/><path class="cls-37" d="M71.25,73.63A4.56,4.56,0,0,1,74,75.4c-.5.82-1.45,2.13-2,2.85a32,32,0,0,0-3.43-3.86s.12-.06.15-.07c.24-.13.45-.25.67-.35a6.11,6.11,0,0,1,1.35-.36,4.7,4.7,0,0,1,.52,0ZM66.09,84.47c-1,.5-1.71.83-2.08,1-.37-.15-1.12-.48-2.08-1a34.12,34.12,0,0,1-8.37-10.12,5.93,5.93,0,0,1,2.93-.77,3.07,3.07,0,0,1,.72.23c1.69.8,3.78,3.08,3,3.52-.56.32-2.19-.21-2.27.42,0,.24,3,1.91,4.73,3.38,1.42,1.2,3.63,3.16,3.41,3.34ZM69.78,83a115.07,115.07,0,0,0-9.92-8.47,6.1,6.1,0,0,1,4-1.92h.08c2.1.3,4,2.55,3.23,3-.56.32-2.18-.21-2.27.42,0,.21,2.17,1.54,3.46,2.65a31.87,31.87,0,0,1,3,2.9c-.53.51-1.06,1-1.58,1.42Z"/><path d="M68.71,74.23a3.09,3.09,0,0,1,.58.7c0,.06,0,.21-.12.1l-.63-.61a5.83,5.83,0,0,0-2.63-1.55c-.09,0-.13-.06-.12-.12a.14.14,0,0,1,.15-.11,6,6,0,0,1,2.77,1.59Zm-7.44,1.18a.11.11,0,0,1,0,.13.08.08,0,0,1-.12,0c-.77-.55-1.14-.77-1.58-1a.06.06,0,0,1,0-.1s0,0,.08,0a.29.29,0,0,1,.24,0,11.81,11.81,0,0,1,1.38,1Z"/><path class="cls-38" d="M68.63,74.32a6.16,6.16,0,0,1,3-.87,6,6,0,0,1,4.47,2m-24,0a6.06,6.06,0,0,1,4.45-2,6.18,6.18,0,0,1,3.29,1.09,5.85,5.85,0,0,1,8.78-.19"/><path class="cls-39" d="M57.15,49.18H71.44M55.25,50H73.19m-19.25.79H74.37M53,51.55H75.27m-23.11.8H76m-24.47.79h25M51,53.93H77m-26.49.79H77.43m-27.25.79H77.77m-27.89.8H78.05m-28.42.79H78.29m-28.86.79H78.49m-10.72.79H78.65m-29.38,0H60.22m11.09.79h7.47m-29.64,0H56.7m16,.8h6.19m-29.83,0h6.24M74,61.06H79m-30,0h4.9m21.46.79H79m-30,0h3.64m23.71.79h2.73M49,62.64h2.78m25.45.79h1.87M49,63.43h1.81"/><g id="tower1"><path d="M54.75,64.08V62.54l1.65-.64,1.66.44v1.74Z"/><path class="cls-4" d="M58.29,71.09l.72,3a6.07,6.07,0,0,0-2.45-.51L56.4,61.27l.66.19v1.29l.83.21V61.68L59,62v2.1l-.72,1.07v5.94Z"/><path class="cls-40" d="M56.4,70.86V61.27h0l-.66.29v1.27l-.83.33V61.88l-1.12.48v2l.81,1,0,5.85-.83,3a6.18,6.18,0,0,1,2.61-.66V70.86Z"/><path class="cls-28" d="M56.37,70.84l-1.75.37m-.37,1.85,2.14-.46,2.32.25m-2.4-1.11-1.89.38m3.77-5.26-1.79-.37L54.59,67m3.6.66-1.79-.34-1.81.52m0-1.67,1.81-.59,1.79.38m-3.6,2.71,1.81-.48,1.79.32m-3.58,1,1.79-.44,1.8.29m-3.59,1L56.4,70l1.82.27M57.56,65v.81m-.66-.12v.83m.66.18v.84m-1.69-.92v.84m0,.88v.83m-.79.29v.77m0-4.14v.77m.79-2v.84m.54-2.34,2.6.63m-2.6-.63-2.62.94"/><path class="cls-38" d="M56.4,73.55V61.27"/><path d="M57.73,71.4l-.8-.11V68.78c0-.31.19-.5.36-.5s.43.33.43.63Z"/><path class="cls-29" d="M58.29,71.09l.72,3a6.14,6.14,0,0,0-5.22.15l.83-3,0-5.85-.81-1v-2l1.12-.48v1.28l.83-.33V61.56l.66-.29.66.19v1.29l.83.21V61.69L59,62v2.1l-.72,1.08v5.93ZM59,74a6.36,6.36,0,0,0-2.39-.47,6.25,6.25,0,0,0-2.7.61l.82-2.86,0-5.87v0l-.79-.95v-2l1-.42v1.18c0,.06,0,.08.09.06l.83-.33s0,0,0-.06V61.6l.6-.26.59.17v1.24s0,.06,0,.06l.82.22A.07.07,0,0,0,58,63V61.77L59,62v2l-.71,1.06,0,0v5.94L59,74Zm.26.1c0,.06-.16,0-.22,0a6.18,6.18,0,0,0-2.43-.5,6,6,0,0,0-2.74.65c-.06,0-.24.09-.23,0l1-3,0-5.81-.79-1s0,0,0,0v-2s0,0,0-.06l1.13-.48a.06.06,0,0,1,.09.06v1.18l.7-.27V61.56a.11.11,0,0,1,0-.06l.67-.29h0l.66.19s.05,0,.05.06V62.7l.69.18V61.69a.07.07,0,0,1,.09-.07l1.12.3s0,0,0,.06v2.14l-.71,1.06v5.9l.85,3Zm-2.8-9.3,1.78.41m-1.78-.41-1.81.61"/></g><g id="tower2"><path d="M62.19,62.93V61.35l1.65-.59,1.65.51v1.66Z"/><path class="cls-4" d="M65.73,70l.72,2.94a6,6,0,0,0-2.12-.38l-.52,0,0-12.47.66.23v1.29l.83.23V60.59l1.12.37v2.09l-.72,1V70Z"/><path class="cls-40" d="M63.84,72.57V60.11h0l-.66.26v1.29l-.83.29V60.68l-1.12.44v2.06l.81,1,0,5.88-.83,3.35a6,6,0,0,1,2.61-.82Z"/><path class="cls-28" d="M63.74,70.58l-1.82.35m4.15.82-2.24-.28-2.21.42m.9-4.48v.8m.8.73v.83m0-6v.84m-.8.3v.81m.8-.22v.83m1.68-.7v.83m-.66-1.84v.83M65,63.93v.82m-3,4.45,1.8-.38,1.81.33M62,67.52l1.81-.45,1.78.39M62,66.69l1.81-.49,1.78.41M62,65.85l1.81-.52,1.78.44M62,65l1.81-.54,1.78.46m0,3.38-1.8-.36-1.8.43m1.79,1.31-1.78.37m4.39-7-2.61-.76-2.61.89m4.4.9-1.78-.48L62,64.17"/><path class="cls-38" d="M63.84,72.57V60.11"/><path d="M65.16,70.27l-.79-.12V67.63c0-.3.19-.48.36-.48s.43.34.43.49Z"/><path class="cls-29" d="M66.39,72.83a6.36,6.36,0,0,0-2.06-.34,6.21,6.21,0,0,0-3,.78l.82-3.2,0-5.9s0,0,0,0l-.79-1v-2l1-.4V62c0,.06,0,.08.09.07l.82-.3s0,0,0-.06V60.41l.59-.23.6.2v1.25a.08.08,0,0,0,0,.06l.83.23a.07.07,0,0,0,.09-.06V60.68l1,.32v2l-.71,1,0,0V70l.73,2.83Zm.26.09c0,.07-.16,0-.22,0a6.11,6.11,0,0,0-5.17.46c-.06,0-.24.1-.23,0L62,70l0-5.85-.79-1,0,0V61.12s0,0,.05-.06l1.12-.44c.05,0,.09,0,.09.06v1.18l.69-.25V60.37s0-.06,0-.06l.66-.26h0l.66.22a.09.09,0,0,1,0,.07v1.24l.69.19V60.59c0-.05,0-.07.09-.06l1.12.36a.09.09,0,0,1,0,.07v2.13l-.71,1V70l.85,2.93ZM65.73,70l.72,2.94a6,6,0,0,0-2.12-.38,6.15,6.15,0,0,0-3.1.84l.83-3.35,0-5.88-.81-1V61.12l1.12-.44V62l.83-.29V60.37l.66-.26.66.23v1.29l.83.23V60.59l1.12.37v2.09l-.72,1V70Z"/></g><g id="tower3"><path d="M69.63,64.12V62.38l1.65-.46,1.65.54v1.66Z"/><path class="cls-4" d="M73.17,71.15,73.89,74a6.18,6.18,0,0,0-2.29-.44h-.35l0-12.29.66.22v1.29l.83.28V61.8l1.12.38v2.07l-.72,1v5.88Z"/><path class="cls-40" d="M71.28,70.86V61.27l-.66.21v1.29l-.83.24V61.73l-1.12.37v2.08l.81,1,0,5.88-.83,3.21a6.07,6.07,0,0,1,2.61-.74v-2.7Z"/><path class="cls-28" d="M69,73l2.24-.35,2.28.3m-2.36-1.18L69.3,72m1.45-7.13v.83M70,66v.81m0,2.58v.81m.79-1.85v.84m0-2.57v.84m1.69-.66v.84m-.66-1.87v.84m.66-1.5v.82m-3,4.36L71.28,70l1.82.34m-3.63-2.56,1.81-.39,1.79.42m0,.85-1.79-.4-1.81.37m3.6-1.66-1.79-.45-1.81.42m3.6-.82-1.79-.47-1.81.44m3.6-.79-1.79-.52-1.8.46m-.81-1,2.61-.73,2.61.8m-2.61,6.59-1.78.28m0-1.68,1.79-.34,1.8.38"/><path class="cls-38" d="M71.28,73.56V61.27"/><path d="M72.6,71.45l-.79-.13V68.81c0-.31.19-.48.36-.48s.43.33.43.48Z"/><path class="cls-29" d="M73.83,73.89a6.27,6.27,0,0,0-5.09.28l.82-3.06,0-5.9a.23.23,0,0,1,0,0l-.79-1v-2l1-.31V63c0,.05,0,.08.08.07l.83-.25s0,0,0-.06V61.52l.59-.18.6.2v1.24a.1.1,0,0,0,0,.07l.83.28s.08,0,.08-.07V61.89l1,.34v2l-.72,1v5.92l.73,2.74Zm-.66-2.74L73.89,74a6.18,6.18,0,0,0-2.29-.44,6,6,0,0,0-2.93.75l.83-3.21,0-5.88-.81-1V62.1l1.12-.37V63l.83-.24V61.48l.66-.21.66.22v1.29l.83.28V61.8l1.12.38v2.07l-.72,1v5.88ZM74.09,74c0,.06-.16,0-.22,0a5.92,5.92,0,0,0-2.27-.44,6,6,0,0,0-2.9.74c-.06,0-.21,0-.19-.11l.92-3.07,0-5.84-.79-1s0,0,0,0V62.1a.12.12,0,0,1,.05-.07l1.12-.36s.09,0,.09.06v1.19l.69-.2V61.48a.09.09,0,0,1,0-.07l.66-.2h0l.66.22s.05,0,.05.06v1.25l.69.23V61.8a.06.06,0,0,1,.09-.06l1.12.38s0,0,0,.06v2.1l-.71,1v5.86L74.09,74Z"/></g><g id="feather"><path class="cls-7" d="M57.48,57.32c-.06-.55-.28-1.43-1-1.32,0,1,1.25,4.54-.14,4.79l0,0c0-1.63-1.61-3.41-1.3-4.83a1.78,1.78,0,0,1,1.86-1.44,1.54,1.54,0,0,1,.7,2.89l-.07,0Z"/><path class="cls-41" d="M57.57,57.07c-.14-.61-.48-1.41-1.25-1.27l0,.07c0,1,1.32,4.14.1,4.69,0-1.79-1.64-2.94-1.23-4.62a1.77,1.77,0,0,1,1.71-1.35,1.31,1.31,0,0,1,.72,2.48Z"/><path d="M55.38,56.47a1.29,1.29,0,0,1,.95-.77c.08,0,.14.06.18.15h-.17a1.48,1.48,0,0,0,0,.21,1.1,1.1,0,0,0-.81.48c-.15.18-.23.1-.16-.08Z"/><path class="cls-42" d="M55.47,56.58l.9-.37m-.84.7.9-.39m-.82.74.89-.43m-.72.75.81-.41m-.54.72.63-.36m-.18.58.28-.16"/><path d="M57.42,55.38c-.48-.7-1.67-.31-2,.14,0,0-.1,0-.15,0h0a2.61,2.61,0,0,1,.3-.4,1.48,1.48,0,0,1,2,.21.1.1,0,0,1,0,.13.09.09,0,0,1-.12,0Z"/></g><g id="feather-2" data-name="feather"><path class="cls-7" d="M65,56.17c-.06-.55-.27-1.44-1-1.33,0,1,1.25,4.55-.14,4.79l0-.05c0-1.63-1.61-3.4-1.3-4.82a1.77,1.77,0,0,1,1.86-1.44,1.53,1.53,0,0,1,.7,2.88l-.08,0Z"/><path class="cls-41" d="M65.11,55.92c-.14-.62-.48-1.41-1.25-1.28l0,.07c0,1,1.32,4.14.1,4.69,0-1.78-1.64-2.94-1.23-4.62a1.92,1.92,0,0,1,1-1.2,2,2,0,0,1,.68-.15,1.32,1.32,0,0,1,.72,2.49Z"/><path d="M62.91,55.32a1.33,1.33,0,0,1,1-.78c.08,0,.14.06.17.15h0l-.13,0a1.41,1.41,0,0,0,0,.2,1.17,1.17,0,0,0-.82.48c-.14.18-.22.11-.16-.07Z"/><path class="cls-42" d="M63,55.43l.91-.37m-.84.69.9-.38m-.82.73.89-.42m-.72.75.81-.42m-.54.72.63-.35M64,57l.28-.15"/><path d="M65,54.22c-.47-.7-1.67-.3-2,.14,0,0-.11,0-.15,0h0a2.38,2.38,0,0,1,.31-.4,1.48,1.48,0,0,1,2,.21.08.08,0,0,1,0,.12.1.1,0,0,1-.13,0Z"/></g><g id="feather-3" data-name="feather"><path class="cls-7" d="M72.55,57.32c-.06-.55-.27-1.43-1-1.32,0,1,1.25,4.54-.14,4.79l0,0c0-1.63-1.61-3.41-1.29-4.83a1.78,1.78,0,0,1,1.86-1.44,1.54,1.54,0,0,1,.7,2.89l-.08,0Z"/><path class="cls-41" d="M72.65,57.07c-.14-.61-.48-1.41-1.25-1.27l-.05.07c0,1,1.32,4.14.1,4.69,0-1.79-1.65-2.94-1.23-4.62a2,2,0,0,1,1-1.21,2.06,2.06,0,0,1,.68-.14,1.31,1.31,0,0,1,.73,2.48Z"/><path d="M70.45,56.47a1.32,1.32,0,0,1,1-.77c.08,0,.14.06.17.15h-.17c0,.07,0,.14,0,.21a1.12,1.12,0,0,0-.82.48c-.15.18-.22.1-.16-.08Z"/><path class="cls-42" d="M70.54,56.58l.91-.37m-.84.7.9-.39m-.83.74.9-.43m-.72.75.8-.41m-.53.72.63-.36m-.18.58.28-.16"/><path d="M72.49,55.38c-.47-.7-1.67-.31-2,.14,0,0-.1,0-.14,0h0a2.7,2.7,0,0,1,.31-.4,1.49,1.49,0,0,1,2,.21.1.1,0,0,1,0,.13.1.1,0,0,1-.13,0Z"/></g><path class="cls-7" d="M73.87,51.31c.69.46,3.16,1.85,3.52,9.74C78.1,76.43,65,85.4,65,85.4S81.58,78.35,81.58,61h0c0-7.29-2.9-15.19-8.64-15.19H69.78L65.2,48a1.46,1.46,0,0,0-2.28,0l-4.58-2.14H55.08c-5.74,0-8.63,7.9-8.63,15.19h0C46.45,78.35,63,85.4,63,85.4s-13.08-9-12.37-24.35c.36-7.89,2.83-9.28,3.52-9.74L58,52.6l4.89-2.86a1.52,1.52,0,0,0,1.15.59,1.43,1.43,0,0,0,1.15-.59l4.86,2.9Z"/><path class="cls-33" d="M70.71,45.68l-6.65,2.89-6.65-2.89-2.33.17c-5.74,0-8.63,7.9-8.63,15.19h0C46.45,78.35,63,85.4,63,85.4s-13.25-9-12.54-24.35c.37-7.89,2.9-9.48,3.59-9.93l4.26,1.18,5.75-3.4,5.75,3.4L74,51.12c.69.45,3.22,2,3.59,9.93C78.27,76.43,65,85.4,65,85.4S81.58,78.35,81.58,61h0c0-7.29-2.9-15.19-8.64-15.19Z"/><path d="M72,48.83a1.46,1.46,0,0,0-1.38,1.44,2,2,0,0,0,.49,1.36l-.18.19a2.3,2.3,0,0,1-.59-1.56,1.71,1.71,0,0,1,1.62-1.66Zm-15.9-.23a1.71,1.71,0,0,1,1.62,1.66,2.3,2.3,0,0,1-.59,1.56l-.18-.19a2,2,0,0,0,.49-1.36A1.46,1.46,0,0,0,56,48.83Zm-1.86,1.59a8,8,0,0,0-2.78,3.61c0,.08-.09.1-.14.08s-.06-.08,0-.14a8.46,8.46,0,0,1,2.89-3.88l.07.33Zm1.53-2.74c-2.82,0-4.91,2-6.32,5.65a.14.14,0,0,1-.17.09s-.06-.1,0-.17c1.41-3.73,3.56-5.8,6.52-5.8a5.52,5.52,0,0,1,3.35,1l0,.35a5.15,5.15,0,0,0-3.4-1.13Zm0,.76c-2.46,0-4.38,2.08-5.58,5.13,0,.07-.09.11-.16.08s0-.1,0-.16C51.12,50.17,53.13,48,55.74,48a4.71,4.71,0,0,1,3.38,1.32l0,.3a4.43,4.43,0,0,0-3.33-1.39Zm2.82,2.69a2.59,2.59,0,0,0-2.85-2c-2.06,0-3.76,1.87-4.88,4.7,0,.06-.07.1-.13.08s-.07-.09,0-.16c1.09-2.87,2.84-4.92,5.05-4.92a2.77,2.77,0,0,1,3,2.1l-.14.23Zm10.89,0-.14-.21a2.77,2.77,0,0,1,3-2.14c2.65,0,4.68,3,5.74,6.9,0,.08,0,.16-.06.17a.13.13,0,0,1-.14-.11c-1.06-3.85-3.08-6.65-5.53-6.66a2.6,2.6,0,0,0-2.86,2.05Zm9.26,4.64c0,.09,0,.16-.07.18s-.12,0-.14-.12c-1-4.35-3.19-7.33-6.22-7.33a4.35,4.35,0,0,0-3.34,1.27l0-.31A4.56,4.56,0,0,1,72.28,48c3.23,0,5.47,3.18,6.43,7.52Zm.81.12c0,.08,0,.16-.08.17s-.12-.05-.14-.13c-1-4.76-3.36-8.26-7.07-8.26a5.1,5.1,0,0,0-3.35,1.23l0-.35a5.37,5.37,0,0,1,3.32-1.13c3.9,0,6.33,3.69,7.29,8.46Zm-6.75-6c2,.25,3.85,2.63,4.63,5.76,0,.08,0,.16-.07.18s-.13,0-.15-.13c-.88-3.38-2.62-5.26-4.43-5.49l0-.32Z"/><path class="cls-29" d="M68.13,51.31a3.33,3.33,0,0,1-.63-2.19m-.06,1.78a2.91,2.91,0,0,1-.5-1.78m-.18,1.38a2.57,2.57,0,0,1-.37-1.38m-.29,1a2.21,2.21,0,0,1-.24-1M60,51.31a3.33,3.33,0,0,0,.63-2.19m.06,1.78a2.91,2.91,0,0,0,.5-1.78m.18,1.38a2.57,2.57,0,0,0,.37-1.38m.29,1a2.21,2.21,0,0,0,.24-1"/><circle class="cls-10" cx="64.06" cy="48.9" r="1.32"/><path class="cls-29" d="M62.75,48.59a1.34,1.34,0,0,1,1.31-1,1.37,1.37,0,0,1,1.25.82m.07.87a1.36,1.36,0,0,1-1.32,1,1.34,1.34,0,0,1-1.26-.87m1.61.35a1,1,0,0,1-.35.07.9.9,0,0,1-.9-.87m1.68.42a.93.93,0,0,1-.43.38m-.26-.41h-.09a.44.44,0,0,1-.44-.39m-.45-.27a.77.77,0,0,1,.1-.22"/><path class="cls-29" d="M62.75,48.59a1.21,1.21,0,0,1,1.31-1.14c.58,0,1.25.41,1.25.92m.07.87a1.3,1.3,0,0,1-1.32,1.08c-.58,0-1.26-.41-1.26-.93"/><path class="cls-7" d="M69,51.67a3.71,3.71,0,0,0,3,1.51,2.55,2.55,0,0,0,2.78-2.55,1.86,1.86,0,0,0-1.92-1.85,1.71,1.71,0,0,0-1.6,1.69,1.51,1.51,0,0,0,.39,1.12,2.35,2.35,0,0,1-2-2.35,2.42,2.42,0,0,1,2.41-2.48c5-.41,8,5.13,8.62,12.78.84,10.92-5,19.62-14,24.59-1.25.69-2.23,1.25-2.65,1.43v1.36a34.43,34.43,0,0,0,9.82-6.07,26,26,0,0,0,8.49-21.3c-.43-6.17-2.35-10.31-4.7-12.35-4-3.49-9.53-2.1-9.53,2A4,4,0,0,0,69,51.67Zm-9.94,0a3.71,3.71,0,0,1-3,1.51,2.55,2.55,0,0,1-2.78-2.55,1.87,1.87,0,0,1,1.93-1.85,1.7,1.7,0,0,1,1.59,1.69,1.51,1.51,0,0,1-.39,1.12,2.34,2.34,0,0,0,2-2.35A2.42,2.42,0,0,0,56,46.76c-5-.41-8,5.13-8.62,12.78-.84,10.92,5,19.62,14,24.59,1.25.69,2.23,1.25,2.65,1.43v1.36a34.43,34.43,0,0,1-9.82-6.07,26.07,26.07,0,0,1-8.49-21.3c.43-6.17,2.35-10.31,4.71-12.35,4-3.49,9.52-2.1,9.52,2A3.9,3.9,0,0,1,59,51.67Z"/><path class="cls-8" d="M64,86.82a34.87,34.87,0,0,1-9.82-6.24A25.57,25.57,0,0,1,46,59.45c.43-6.17,2.25-10.07,4.6-12.12,4-3.49,9.23-1.9,9.23,1.91A3.81,3.81,0,0,1,56,53.05a2.43,2.43,0,0,1-2.48-2.58,1.56,1.56,0,0,1,3.12.07A1.77,1.77,0,0,1,56,51.76a2.61,2.61,0,0,0,2.49-2.52A2.66,2.66,0,0,0,56,46.6c-5-.42-8.21,5.25-8.75,12.94-.78,10.92,5.18,19.75,14.13,24.72A27.89,27.89,0,0,0,64,85.56a27.89,27.89,0,0,0,2.66-1.3c9-5,14.91-13.8,14.13-24.72C80.26,51.85,77,46.18,72.05,46.6a2.66,2.66,0,0,0-2.54,2.64A2.61,2.61,0,0,0,72,51.76a1.77,1.77,0,0,1-.65-1.22,1.56,1.56,0,0,1,3.12-.07A2.43,2.43,0,0,1,72,53.05a3.81,3.81,0,0,1-3.8-3.81c0-3.81,5.2-5.4,9.23-1.91,2.35,2.05,4.18,6,4.6,12.12a25.54,25.54,0,0,1-8.19,21.13A34.87,34.87,0,0,1,64,86.82Z"/></g><g id="laurel"><path class="cls-7" d="M43.19,76.32s-.7-.28-1-.43c-.54-.27-1.76-1.77-3.11-2.55-2.08-1.21-4.1-.9-5.94-1.69A6.41,6.41,0,0,0,37,76.24c1.77.76,4.62.11,4.93.13a9.1,9.1,0,0,1,1.29.41l0-.46Z"/><path class="cls-7" d="M35.67,78.73l0-.06A28.76,28.76,0,0,0,39,78c2.45-.62,3.6-.12,5.59,1.24a1.77,1.77,0,0,0,.41.26,2,2,0,0,0,.84,0h0l.47.37s0,0,0,.06a5.37,5.37,0,0,1-1.39,0c-.64-.06-2,1.46-3.84,1.46a6.85,6.85,0,0,1-5.43-2.72Z"/><path class="cls-43" d="M46.14,79.85a10.73,10.73,0,0,0-1.13.08c-1.09.18-2.18,1.38-3.84,1.42-2.22.07-3.62-1-5.13-2.47,2.2-.33,3.9-1.6,6.18-.88,1.16.36,2.53,1.83,3.63,1.62l.29.23Z"/><path class="cls-44" d="M44.77,79.56a25.13,25.13,0,0,1-3.15.32,23.62,23.62,0,0,1-4.95-.81,23.6,23.6,0,0,0,4.95,1,25.62,25.62,0,0,0,3.15-.26v-.2Z"/><path class="cls-26" d="M39.37,56a.41.41,0,0,0,0-.23,1.77,1.77,0,0,0-.16-.3,2,2,0,0,1-.19-.36,1,1,0,0,1-.11-.39l.3-.09a1.51,1.51,0,0,0,.24.56l.17.2.05,0,.09.09-.25.56s-.12,0-.1-.08Z"/><path class="cls-45" d="M50.79,83c0-.41.07-.26.5-.08.1,0,0,.13,0,.18-.26.16-.49.51-.6.43-.3-.21-.11-.22.15-.53Z"/><path class="cls-7" d="M40.35,54.39a28.09,28.09,0,0,0-1.27,11.68c1.37,8.08,8,15.65,14.11,16.87a17.77,17.77,0,0,1,10.64,6,35,35,0,0,1,4.09,5.7c.72,1.21-.52,1.45-1,.45A23.43,23.43,0,0,0,62.83,89a17.36,17.36,0,0,0-10-5.35C46.89,82.46,40,74.87,38.62,66.8a29.53,29.53,0,0,1,1.29-12.22l.44-.19"/><path class="cls-7" d="M49.13,82.63c-.92.1-1.54,1.43-2.46,2.27a5.44,5.44,0,0,1-6.15.67c-.07,0-.11-.14,0-.16,2.15-.49,2.43-3.43,6.92-3.14.53,0,.75.14,1.28.14l.43.22Z"/><path class="cls-7" d="M45.72,69l0,0c0,1.31,1,3.1,1.26,4.55A6,6,0,0,1,46.44,77,5,5,0,0,0,46,78.12a1.35,1.35,0,0,0,.3.73c.05.08.34.47.31.54-1.19-1-.49-.35-1-1.3-.26-.49-.56-.94-.81-1.43-1.34-2.61-1.36-5.56.87-7.7Z"/><path class="cls-7" d="M54.31,83.19a2.33,2.33,0,0,1-1.5-1c-.54-1-.43-1.81-1-2.85-1-2-3.07-2.18-4.08-4-.21,1.68-.44,4.19,2.18,6a18.16,18.16,0,0,0,2.67,1,2.32,2.32,0,0,1,.54.62l1.17.24Z"/><path class="cls-43" d="M53.17,82.89a4.92,4.92,0,0,0-.63-.58c-.54-.39-1.69-.42-2.57-1.06a5,5,0,0,1-2.19-3.2,7.39,7.39,0,0,1,0-2.35c1.09,1.59,3,1.74,4,3.65.62,1.16.54,2.92,1.81,3.63l-.44-.09Z"/><path class="cls-45" d="M42.74,74.11a1.49,1.49,0,0,0-.17.38c0,.13.24.53.22.39a.81.81,0,0,1,.1-.57l-.15-.2Z"/><path class="cls-43" d="M43.19,76.32a6.29,6.29,0,0,1-1-.3c-.54-.27-1.73-1.84-3.11-2.62-2-1.12-3.7-.89-5.64-1.45A5.81,5.81,0,0,0,37,76.14c1.76.79,4.62.11,4.93.13a8.41,8.41,0,0,1,1.29.44l0-.39Z"/><path class="cls-46" d="M46,78.7a9.38,9.38,0,0,0-1.08-2.08,7.6,7.6,0,0,1-.85-2.7,5.2,5.2,0,0,1,1.6-4.64,2.83,2.83,0,0,0,.2,1c.56,1.73,1.34,3.16,1.09,5-.13.93-.88,2.24-.91,2.81a1.68,1.68,0,0,0,.29.88L46,78.7Z"/><path class="cls-7" d="M40.94,73.2c-1.43-2.39-4.8-1.32-7-3.33A6.41,6.41,0,0,1,32.16,66,12.29,12.29,0,0,1,32,63.66a.07.07,0,0,1,.12,0,15.39,15.39,0,0,0,2.32,1.76,10.35,10.35,0,0,1,3.87,4.76c1.36,2.79,2.59,1.2,2.61,3Z"/><path class="cls-44" d="M45.43,70A21.37,21.37,0,0,0,45,73.92a21.58,21.58,0,0,0,.77,4h-.14a19.42,19.42,0,0,1-.76-4A19,19,0,0,1,45.43,70Z"/><path class="cls-43" d="M38.82,71.68c-.78-.24-1.66-.39-2.6-.62a5.12,5.12,0,0,1-2.28-1.3,5.61,5.61,0,0,1-1.6-3.56,10.76,10.76,0,0,1-.09-2.27,1.16,1.16,0,0,0,.33.4c.69.49,1.4.83,2.09,1.33a8.4,8.4,0,0,1,1.52,1.27,11.21,11.21,0,0,1,1.57,2.29,16.2,16.2,0,0,0,1.09,2Z"/><path class="cls-47" d="M38.85,71.23a3.43,3.43,0,0,0,1.51.76l.33.82h0a3.94,3.94,0,0,0-1.87-1.13Z"/><circle class="cls-33" cx="36.68" cy="65.02" r="0.94"/><path class="cls-13" d="M36.79,64.19a1.12,1.12,0,0,0-.07.38c0,.41.24.75.54.75a.48.48,0,0,0,.24-.07.85.85,0,0,0,0-.23A.83.83,0,0,0,36.79,64.19Z"/><circle class="cls-38" cx="36.68" cy="65.02" r="1.01"/><path class="cls-7" d="M39.47,64.6s.44-1.63.85-2.65c1-2.4,2.68-2.49,3.55-4.39a5.83,5.83,0,0,1,0,4.79,8.59,8.59,0,0,1-3.55,3.39l-.87-1.14Z"/><path class="cls-46" d="M43.86,58c1.27,3.49-.41,6-3.5,7.73l-.82-1.13c.53-2.24.91-3.34,2.62-4.93.68-.63,1.27-.83,1.7-1.67Z"/><path class="cls-47" d="M40.26,54.54a27.72,27.72,0,0,0-1.21,11.54c1.37,8.1,8,15.7,14.13,16.93a18.21,18.21,0,0,1,10.61,5.9,26.35,26.35,0,0,1,2.51,3.32c.58.91,1.08,1.9,1.57,2.69.07.12-.58.4-.65.28-.52-.83-1-1.88-1.59-2.85A34.73,34.73,0,0,0,62.78,89c-2.15-2.54-5-4.45-10-5.44-5.87-1.17-12.7-8.67-14.06-16.72a30.74,30.74,0,0,1,1-11.91l.46-.34Z"/><path class="cls-7" d="M39.62,70.39c-.26-.26-.64-.5-.89-.76-2.36-2.44-1.74-6.71.84-8.79.09-.07.16,0,.17.07a10.64,10.64,0,0,0,.58,2.61c.79,2.16.91,3.4.2,5.24a3,3,0,0,0,0,2.12l-.9-.49Z"/><path class="cls-48" d="M47.92,80.9c-1.51-.52-3.06-.38-4.32-1.68a5.83,5.83,0,0,1-1.38-5.15c0-.07.07-.12.11-.07a4.53,4.53,0,0,0,.92,1c1.5,1.11,3.36,1.67,4,3.36.13.34.17.7.29,1,.41,1.16,1.08,1.52,2,2.15Z"/><path class="cls-43" d="M49.09,81.52c-1.41-1.2-3.94-.77-5.46-2.39a5.73,5.73,0,0,1-1.3-4.69c1.34,1.2,2.9,1.52,4.12,2.87,1.44,1.58.22,2.64,2.92,4.17l-.28,0Z"/><path class="cls-7" d="M41.57,73v0c.35-.42.1-1.67,0-2.17a6.14,6.14,0,0,1-.08-2.49,7.22,7.22,0,0,1,1.29-2.78,9.74,9.74,0,0,0,1.17-2s0,0,.06,0a9.41,9.41,0,0,1,.61,2.27,6.38,6.38,0,0,1-.13,3.17,5.87,5.87,0,0,1-1.42,2.46,5.08,5.08,0,0,0-1,1.32,3.45,3.45,0,0,0-.11.89L41.57,73Z"/><path class="cls-49" d="M39.24,59.25s0,0,.23-.12a1.32,1.32,0,0,0,.52-.61,18.6,18.6,0,0,1,1.68-3.93A17,17,0,0,1,45.17,51a7.49,7.49,0,0,1-.85,5.1,9.59,9.59,0,0,1-3.84,2.77,2.15,2.15,0,0,0-1.09.59,2.11,2.11,0,0,0-.28.64l.13-.87Z"/><path class="cls-7" d="M38.92,59.47s-.11,0-.25-.21a1.53,1.53,0,0,1-.29-.83c0-.67.64-2.7.33-4.23C38.1,51.28,37.18,50.11,37,49,37,48.6,34.6,52,35.32,55.12a8.9,8.9,0,0,0,2.43,3.52,2.52,2.52,0,0,1,.76,1,2.93,2.93,0,0,1,.14,1l.27-1.16Z"/><path class="cls-7" d="M40.32,54.45A3.33,3.33,0,0,1,41,53.31a17.5,17.5,0,0,0,3.07-2.86,7.86,7.86,0,0,0,1-5.32,16.94,16.94,0,0,0-3.49,3.43c-1.06,1.5-1.29,4.42-1.38,5a6.81,6.81,0,0,1-.35,1.26l.48-.35Z"/><path class="cls-50" d="M39.25,59.73l0-.42a1.45,1.45,0,0,0,.75-.77,24.85,24.85,0,0,1,1.72-4A11.69,11.69,0,0,1,45,51.37a7.49,7.49,0,0,1-.85,4.86,8.78,8.78,0,0,1-3.74,2.6,2,2,0,0,0-1.2.9Z"/><path class="cls-7" d="M34.37,56.85a6.63,6.63,0,0,1,2.87,4.56c.06.27.41,1.46.48,1.6.18.35.54.51.76.8a6.79,6.79,0,0,1,.1.73s0,0-.06,0c-.29-.26-.43-.66-.76-.9a13.28,13.28,0,0,0-1.66-.59,5.68,5.68,0,0,1-2.53-2.2,6.81,6.81,0,0,1-.7-4.42,5.18,5.18,0,0,1,.21-1s0,0,.06,0a5.52,5.52,0,0,0,1.23,1.44Z"/><path class="cls-43" d="M38.4,63.87l.05.43c-.86-1.17-1.15-.82-2.34-1.32a5.62,5.62,0,0,1-2.49-2.16,6.89,6.89,0,0,1-.5-5c.48.95,2.38,1.9,3.1,3.09a9.71,9.71,0,0,1,1,2.54,13,13,0,0,0,.42,1.66,3.69,3.69,0,0,0,.77.81Z"/><path class="cls-43" d="M41.68,73c.32-.49,0-1.73-.06-2.3a7,7,0,0,1,0-2.5c.23-1.44,1.14-2.4,1.94-3.57a5.23,5.23,0,0,0,.44-.71c.93,2.6,1.19,5.25-.83,7.44-.3.33-1,1-1.14,1.37a3.63,3.63,0,0,0-.1.66L41.68,73Z"/><path class="cls-47" d="M49.35,82.23s-.12.18-.65.18l.26.26.17,0a1.43,1.43,0,0,1,1,0"/><path class="cls-46" d="M48.7,82.41a12.36,12.36,0,0,0-3.55.08c-2,.52-2.85,2.41-4.36,3.08a5.09,5.09,0,0,0,5.9-.79C47.47,84.17,48,83,49,82.67Z"/><path class="cls-29" d="M65.15,92a.49.49,0,0,1,.36-.41.37.37,0,0,1,.45.13"/><path class="cls-51" d="M51.3,83l-.23.15a1.79,1.79,0,0,0-.34.29l-.2,0a2.44,2.44,0,0,0,.32-.36s0-.24,0-.24l.44.18Z"/><path class="cls-37" d="M40,54.52a21.59,21.59,0,0,0,.56-3.23c.43-2.24,1.06-3,2.68-4.47a19.27,19.27,0,0,1,1.61-1.25,7.49,7.49,0,0,1,.07,1.83c-.32,3.17-1.67,3.92-3.93,5.86-.44.38-.56.9-1,1.26Z"/><path class="cls-52" d="M40.1,54.25c.06-.08.11-.13.14-.12s0,.06,0,.13a1.23,1.23,0,0,1-.25.26l.09-.27Z"/><path class="cls-29" d="M40,54.52a21.59,21.59,0,0,0,.56-3.23c.43-2.24,1.06-3,2.68-4.47a19.27,19.27,0,0,1,1.61-1.25,7.49,7.49,0,0,1,.07,1.83c-.32,3.17-1.67,3.92-3.93,5.86-.44.38-.56.9-1,1.26Z"/><path d="M40.15,54.64l.21-.57c.12-.31.09.09.09.09l-.07.34-.23.14Z"/><path class="cls-37" d="M38.84,59.51l-.17.53a2.11,2.11,0,0,0-.88-1.45c-2.17-2-3.1-4.28-2.19-7a5.34,5.34,0,0,1,1.3-2.2,10.54,10.54,0,0,1,.92,2,9.44,9.44,0,0,1,.75,5.42c-.1.81-.49,1.8,0,2.52a.58.58,0,0,0,.23.21Z"/><path class="cls-29" d="M38.84,59.51l-.17.53a2.11,2.11,0,0,0-.88-1.45c-2.17-2-3.1-4.28-2.19-7a5.34,5.34,0,0,1,1.3-2.2,10.54,10.54,0,0,1,.92,2,9.44,9.44,0,0,1,.75,5.42c-.1.81-.49,1.8,0,2.52a.58.58,0,0,0,.23.21Z"/><path class="cls-52" d="M38.78,60.69a3.24,3.24,0,0,0,0-.85,2.65,2.65,0,0,0-.15-.39,1.27,1.27,0,0,0,.32.12,7.29,7.29,0,0,1-.14,1.12Z"/><path class="cls-52" d="M39.66,55.54c-.12.05-.51-.49-.55-.86s-.19-.2-.17.07c0,.52.64,1.07.56,1.4a1.69,1.69,0,0,0,.16-.61Z"/><path class="cls-26" d="M39.66,55.54c-.12.05-.51-.49-.55-.86s-.19-.2-.17.07c0,.52.58,1,.49,1.3"/><circle class="cls-10" cx="38.71" cy="54.08" r="0.94"/><path class="cls-13" d="M38.76,54c-.25-.18-.36-.46-.25-.63s.42-.15.68,0,.37.46.25.63-.42.16-.68,0Z"/><circle class="cls-53" cx="38.7" cy="54.11" r="0.98"/><circle class="cls-10" cx="43.51" cy="73.48" r="0.98"/><path class="cls-13" d="M43.4,73.38c-.21-.29-.22-.64,0-.78s.53,0,.74.26a.57.57,0,0,1,0,.78C43.94,73.78,43.61,73.67,43.4,73.38Z"/><circle class="cls-54" cx="43.51" cy="73.48" r="1.03"/><path class="cls-29" d="M65.45,92.28a.43.43,0,0,1,.36-.38.39.39,0,0,1,.45.2m1.54,3.33c-.64.13-1-.67-.81-.87a.77.77,0,0,1,.75,0,.45.45,0,0,1,.06.84Z"/><path class="cls-52" d="M67.8,95.43c-.53.13-1-.58-.81-.74a.56.56,0,0,1,.65,0C68.11,94.89,68.08,95.36,67.8,95.43Z"/><path class="cls-29" d="M67.8,95.43c-.53.13-1-.58-.81-.74a.56.56,0,0,1,.65,0C68.11,94.89,68.08,95.36,67.8,95.43Z"/><path class="cls-44" d="M40,54.65a25.4,25.4,0,0,1,2.15-5.24,34.1,34.1,0,0,1,2.24-3.13,35.7,35.7,0,0,0-2.12,3.19,25.54,25.54,0,0,0-2.07,5l-.2.17Z"/><path class="cls-44" d="M36.81,50.31a23.23,23.23,0,0,0,.14,5,23.06,23.06,0,0,0,1.55,4.19s.07.05-.28-.87a21.63,21.63,0,0,1-1.1-3.33,25.12,25.12,0,0,1-.31-5Z"/><path class="cls-44" d="M33.94,58.28A17,17,0,0,0,34.7,60a9.63,9.63,0,0,0,3.4,3.79l0-.15A10.64,10.64,0,0,1,34.83,60c-.39-.64-.89-1.7-.89-1.7Z"/><path class="cls-44" d="M39.78,59a26.16,26.16,0,0,0,2.95-3.22,29.87,29.87,0,0,0,2-3.46,26.79,26.79,0,0,1-1.83,3.5A25.83,25.83,0,0,1,40.05,59Z"/><path class="cls-44" d="M41.7,73.13A32.53,32.53,0,0,0,43,69.58a15,15,0,0,0,.9-4.68,14.84,14.84,0,0,1-.68,4.41A26,26,0,0,1,42,72.91l-.33.22Z"/><path class="cls-44" d="M40.58,64.14a11.7,11.7,0,0,0,2.13-2.44,8,8,0,0,0,1-2.73,6.35,6.35,0,0,1-.88,2.74,15.23,15.23,0,0,1-2.21,2.62l-.06-.19Z"/><path class="cls-44" d="M38.91,71.44a22.71,22.71,0,0,1-2-1.39,21.39,21.39,0,0,1-4.39-5.34,18,18,0,0,0,4.29,5.47,24.7,24.7,0,0,0,2.07,1.43v-.17Z"/><path class="cls-29" d="M39.08,71.77a.23.23,0,0,1-.11-.34"/><path class="cls-44" d="M48.78,81.07a23.26,23.26,0,0,1-4.38-3.42c-.52-.53-1.26-1.42-1.26-1.42a11.8,11.8,0,0,0,1.09,1.45,25.36,25.36,0,0,0,4.39,3.47l.16-.08Z"/><path class="cls-44" d="M52.9,82.5a17.69,17.69,0,0,1-3.25-3,10.14,10.14,0,0,1-1.19-2.1,11.42,11.42,0,0,0,1.36,2.1A20.69,20.69,0,0,0,52.9,82.3v.2Z"/><path class="cls-44" d="M41.8,85.38c3.3-.46,4.58-2.39,7.39-2.82-.3,0-.24-.1-.51,0-2.48.53-4,2.4-6.88,2.87Z"/><circle class="cls-10" cx="45.82" cy="81.54" r="0.98"/><path class="cls-13" d="M46.78,81.35a.36.36,0,0,1,0,.09.64.64,0,0,1-.87.1.65.65,0,0,1-.36-.81.4.4,0,0,1,.18-.16h.13a1,1,0,0,1,1,.79Z"/><circle class="cls-55" cx="45.82" cy="81.54" r="1.03"/><path class="cls-52" d="M49.24,82a.49.49,0,0,1,.14.12c.06.06.08.14,0,.18a.34.34,0,0,0,.1.11.72.72,0,0,0,.37.09l.43.09.3.11-.74-.37L49.24,82Z"/><path class="cls-44" d="M42.19,76.28s-1.82-.48-4.14-1.35a12.83,12.83,0,0,1-3.9-2.32,14.58,14.58,0,0,0,3.9,2.19,35.08,35.08,0,0,0,4.14,1.28v.2Z"/><circle class="cls-56" cx="50.07" cy="84.26" r="1.04"/><path class="cls-13" d="M50.81,84.9a.86.86,0,0,1-1-.49A.81.81,0,0,1,50,83.3h.1a1,1,0,0,1,1,1,1,1,0,0,1-.23.64Z"/><circle class="cls-29" cx="50.07" cy="84.26" r="0.98"/><path class="cls-52" d="M40.45,70.94s.11.34.19.55l.18.4s-.24,0-.24,0-.18-1-.18-1Z"/><path class="cls-37" d="M40.32,71.14a13.4,13.4,0,0,0-1.52-1.58,4.82,4.82,0,0,1-1.35-2.66,5.87,5.87,0,0,1,2.12-5.79c.12,1.73,1.1,3.16,1.31,4.89.3,2.47-1.27,2.94-.18,5.36l-.38-.22Z"/><path class="cls-52" d="M40.08,70.65s0,.11.05.24a2.07,2.07,0,0,1,.19.25l.31.18-.16-.57-.39-.1Z"/><path class="cls-29" d="M40.32,71.14a13.4,13.4,0,0,0-1.52-1.58,4.82,4.82,0,0,1-1.35-2.66,5.87,5.87,0,0,1,2.12-5.79c.12,1.73,1.1,3.16,1.31,4.89.3,2.47-1.27,2.94-.18,5.36"/><path class="cls-44" d="M40.32,70.63a7.35,7.35,0,0,1-1.16-2.71c-.57-2.09-.57-4.62,0-5.54-.53.92-.64,3.44-.12,5.54a8.69,8.69,0,0,0,1.18,2.89l.14-.18Z"/><path class="cls-29" d="M40.23,71c-.17-.21.05-.54.25-.25"/></g><g id="oak"><path class="cls-45" d="M88.46,55s0,0,0-.06a2,2,0,0,0,.13-.24,1.67,1.67,0,0,0,.13-.6l.36.07a7,7,0,0,0-.31,1.43c0,.08-.1.1-.13,0L88.46,55Z"/><path class="cls-7" d="M89.41,58.73a1.28,1.28,0,0,0,.4-1c0-.56-.43-1-.46-1.56,0-.33.27-.37.33-.62s-.85-1-.61-1.67c.17-.46.54-.24.67-.71s-.3-1.22.28-1.56c.28-.16.7.08.82-.36s0-1.34.67-1.41c.86-.08,1,1.67,1.14,1.8s.39-.11.62,0c.63.25,0,1.41-.26,1.8,1.59.06.14,1-.11,1.5.07.16.48.22.54.46s-.07.3-.19.4A8.65,8.65,0,0,1,92,56.5l-.06,0c0,.15.39.57-.15.75-1,.34-1.66.56-2.06,1.59-.1.28-.14,1.12-.16,1l-.14-1.18Z"/><path class="cls-43" d="M89.57,59.54l-.18-.78.13-.1a1.93,1.93,0,0,0,.32-1c0-.6-.4-.94-.42-1.44,0-.26.27-.35.32-.59s-.8-1.07-.58-1.66c.16-.4.53-.19.68-.71s-.26-1.27.23-1.54c.29-.16.72.1.86-.42s0-1.08.59-1.13c.76-.08.87,1.45,1.07,1.6s.4-.05.61,0,.24.56.17.81a6.59,6.59,0,0,1-.35.81c0,.06,0,.11,0,.14s.37,0,.44.3-.45.75-.58,1,.28.28.33.57-1.31.87-1.42,1.06.35.55-.09.7c-1.09.36-2.19,1-2.17,2.34Z"/><path class="cls-44" d="M89.47,58.85a20.94,20.94,0,0,0,1.8-4.24,25.06,25.06,0,0,0,.4-3.19,25.32,25.32,0,0,1-.3,3.19,20.31,20.31,0,0,1-1.81,4.47l-.09-.23Z"/><path class="cls-45" d="M89.52,61.2s0,0,0-.05l.44-.47a.64.64,0,0,0,.12-.23.34.34,0,0,0,0-.12.07.07,0,0,1,.09,0l.46.15c.07,0,.07.08,0,.12a2.88,2.88,0,0,0-.48.41,1.81,1.81,0,0,0-.47.8c0,.08-.12.08-.13,0l-.09-.55Z"/><path class="cls-51" d="M89.67,61.74a2.07,2.07,0,0,1,.49-.83,3.28,3.28,0,0,1,.49-.41l-.46-.16a.82.82,0,0,1-.17.38l-.44.47.09.55Z"/><path class="cls-7" d="M87.83,52.77a18.27,18.27,0,0,1,1.08,2.94,29.31,29.31,0,0,1,.72,11.09C88.26,74.87,81,82.43,75.06,83.61A17.1,17.1,0,0,0,65.12,89a22.44,22.44,0,0,0-3.7,6c-.45.92-1.92,1.1-1.29-.19A36,36,0,0,1,64,88.86a18.32,18.32,0,0,1,10.62-6c6.09-1.22,13.11-8.76,14.48-16.84A27.16,27.16,0,0,0,88,54l-.13-1.26"/><path class="cls-57" d="M84.75,51.27s-1.72-.06-.89-1.36c-.79-.39-1.74-1.09-.72-1.67,0-.2-.65-.39-.6-.85,0-.27.36-.39.39-.5s-.89-1.22-.62-1.52c.41-.46,1.31.09,1.72.34.11-.06.26-.19.36-.26.6-.39.64.57.8.87.08.14.55-.24.87-.07.55.29.31,1,.44,1.49.14,0,.34-.13.48-.14.89-.06.41,1.51.37,2,1.42-.21.33,1.25.41,2.5,0,.35-.09,1.11-.35.82-.85-.93-3.18-.67-2.66-1.66Z"/><path class="cls-58" d="M84.55,56.43c-.31,0-1-.12-1.11-.41-.2-.46.34-.62.31-.65-.19-.26-1.07-.42-1.07-.77s.41-.42.34-.65-.7-.78-.47-1.12.86.14,1.15.14c.13,0,.32-.3.58-.31s.6.73.75.71.25-.24.4-.28c.48-.14.61.37.72.7.22.66.46-.12.82,0,.9.39.53,2.16.79,2.37s.45.11.56.29c.25.38-.09,1.15.1,1.85a5.55,5.55,0,0,0,1,1.09s.14.81.12.77a3.24,3.24,0,0,0-1.19-1.48c-.68-.51-1.7-.1-1.94-.37s0-.58-.1-.71a8.12,8.12,0,0,0-1,0,.83.83,0,0,1-.74-1.22Z"/><path class="cls-59" d="M89.28,59.35l.09.51c-1.45-2.08-2.63-1.25-2.94-1.59s.07-.44-.13-.64-1.42.23-1.78-.71c-.08-.2.19-.52.06-.55-.31-.06-.73,0-.94-.33-.09-.12-.16-.28,0-.4a1.71,1.71,0,0,0,.18-.2c.19-.28-1-.49-1-.91,0-.24.31-.33.2-.62s-.45-.68-.27-1,.69.09,1,.12.36-.3.58-.31.49.64.76.61.55-.43.83-.08.2,1,.66.75c.11,0,.27-.18.4-.13.74.32.55,1.51.73,2.14.1.34.45.27.58.48a.82.82,0,0,1,.12.34,1.51,1.51,0,0,1,0,.3,2.77,2.77,0,0,0,.09,1.18,1.79,1.79,0,0,0,.85,1Z"/><path class="cls-7" d="M89.62,65.67l.07-.06c.26,0,.43-.53.51-.73.32-.84-.25-2.23.71-2.23,0-.35.13-1.2.44-1.43s.45.05.67,0c.17-.33.24-1,.71-1,.15,0,.46.21.51.18s.27-.73.65-.83.44.18.53.12a2.08,2.08,0,0,0,.38-.35c.48-.52,1.09-.52,1.07.17a2.77,2.77,0,0,1-.25.82c0,.07.31.23.36.33.17.33-.43.72-.57,1,0,0,.32.1.37.17.4.56-.76,1.18-1.06,1.52-.11.14.28.44.23.68-.22.94-1.68.59-2,.74-.11,0-.15.56-.24.68-.41.56-2-.12-2.4.23a4.48,4.48,0,0,0-.66,1.24c-.05.08-.14.06-.13,0l.1-1.15Z"/><path class="cls-43" d="M89.71,65.71c.31,0,.49-.56.58-.8a3.09,3.09,0,0,0,.19-.95c0-.48-.33-1.32.42-1.21,0,0,.15-1.12.48-1.38s.58-.07.67-.14.13-.85.6-.93c.18,0,.5.14.64.07s.23-.6.56-.69.47.17.61.09.5-.74.9-.62.29.81.17,1.09.15.27.23.42-.35.71-.42,1c0,.09.2.2.26.26.33.36-.53,1-.76,1.19-.07.06-.22.18-.23.27s.2.35.14.59c-.19.83-1.34.59-1.8.74-.18.06-.21.43-.32.59-.37.5-2,0-2.39.41a2.84,2.84,0,0,0-.6,1l.07-.91Z"/><path class="cls-44" d="M90,65.5a27,27,0,0,0,3-2.66,31.84,31.84,0,0,0,2-2.59s-1.13,1.68-2,2.65a30.68,30.68,0,0,1-3,2.9s0-.29,0-.3Z"/><path class="cls-7" d="M90.39,60.68c-.45-.26-.38-1.64.27-2.26s2.07,1,1.6,1.66c-.27.36-1.4.87-1.87.6Z"/><path class="cls-7" d="M92.27,59.85c-.28.22-.92-.07-1.24-.4s-.47-.75-.3-1c.35-.41,1.33-1,1.79-.61S92.51,59.64,92.27,59.85Z"/><path class="cls-47" d="M92.18,60c-.25.34-1.34.78-1.74.54s-.35-1.46.29-2.07c.4-.39,1.89.93,1.45,1.53Z"/><path class="cls-60" d="M92.43,58c.38.32,0,1.59-.23,1.78s-.77-.06-1.1-.39-.44-.72-.33-.86c.36-.42,1.27-.86,1.66-.53Z"/><path class="cls-13" d="M92.14,58a.81.81,0,0,0-.19.56c0,.36.18.65.4.66a2.81,2.81,0,0,0,.08-.31,1.58,1.58,0,0,0,0-.52.47.47,0,0,0-.12-.31h0a.49.49,0,0,0-.21-.08Z"/><path class="cls-61" d="M84,61.18c-.12-.38-.71-.64-.77-1.1,0-.21.2-.57.18-.63-.1-.33-.66-.76-.37-1.17s.88,0,1.32.14c.07,0,.09-.27.26-.31.67-.18,1.25.9,1.42,1,.52.19.92-.72,1.2,1.27.22-.05.52-.1.65.12.55.94.23,3,1.33,3.51l0,.07c0,.08,0,.68-.21.49-.27-.34-.49-.82-1-.9s-2.74.71-2.8-.3c0-.12.16-.28.11-.39-.13-.28-1.47-.19-1.61-.93,0-.29.15-.56.23-.84Z"/><path class="cls-62" d="M89.08,64.41c-.81-1.27-1.18-.79-2.42-.69-.28,0-1.24.06-1.22-.42,0-.14.11-.17,0-.34-.18-.35-1.3-.28-1.46-.93-.09-.34.09-.79,0-.92-.16-.42-.85-.82-.65-1.37a.83.83,0,0,0,.08-.22c0-.24-.45-.8-.23-1.16s.71-.09,1,.07.18-.11.34-.16.64.17.83.35a5.67,5.67,0,0,0,.53.55c.2.09.54,0,.77.07s.35.95.38,1.17l0,0c.19,0,.47,0,.59.14.51.85.26,2.87,1.37,3.48l-.07.35Z"/><path class="cls-44" d="M89,64.35a24.74,24.74,0,0,0-2.75-3.71A23.81,23.81,0,0,0,84,58.75a22.68,22.68,0,0,1,2.27,2,22.5,22.5,0,0,1,2.45,3.62Z"/><path class="cls-7" d="M87.44,68.11a2.53,2.53,0,0,0,.3,0c.65.18-.28,2.07-.34,2.48,0,.11.06.47,0,.49l-.14.8a4.3,4.3,0,0,0-.11-1c-.23-.39-.94-.18-1.31-.24-.61-.09-.13-.61-.4-.72-.43-.17-1.34.08-1.45-.57,0-.24.12-.5.1-.71-.31-.36-1.11-.44-1-1.08,0-.22.36-.45.35-.59s-.68-.66-.52-1,.29-.22.3-.34-.53-1-.07-1.19,1,.36,1.43.39c.2,0,.38-.32.69-.25s.36.51.51.75c.15,0,.29-.15.45-.17.68-.07.57,1,.75,1.4,0,.05.23-.08.31,0s.19.21.22.35c.06.41-.16.85-.1,1.23Z"/><path class="cls-7" d="M91.76,69.75c.13,1.29-1.61,0-2.57.53-.29.15-1,.67-.91.54l.24-.6c.08-.07.34-.07.43-.11a2,2,0,0,0,.68-.79c.27-.49.09-1,.25-1.42.24-.55.63,0,.79-.16.31-.22.36-1.35,1.11-1.36a.47.47,0,0,1,.33.1c.16-.23.21-.51.51-.6s.37.12.58.12.7-1.06,1.17-.94.2,1,.16,1.38c.06.06.13.06.22.18.36.48-.2,1-.39,1.37,0,.11.19.1.22.25.13.58-1,.65-1.09.81s.09.11.08.24c-.06.71-1.72.52-1.81.46Z"/><path class="cls-7" d="M80.55,74c0-.25-.48-.62-.26-1s.57-.13.73-.27c.14-.43-.09-1,.51-1.15.3-.07.47.24.57.47a4.9,4.9,0,0,0,.22.65c.12,0,.41-.17.56-.15.41.06.09.82.21,1s.31,0,.45.08c.41.14.09.82.09,1.12s.29.23.32.53c0,.54-.42.6-.68,1,0,0,0,.08,0,.13.45.55.19.81-.31,1.17s-1.49.7-1.15,1.61c0,0-.3.61-.33.41s.1-.6,0-.93-1.14-.8-1.18-1.17.27-.3.3-.54-.92-.52-.81-1c.06-.29.37-.37.5-.6s-1.07-1-.15-1.24a1.31,1.31,0,0,0,.4-.1Z"/><path class="cls-43" d="M81.44,79.56a2.37,2.37,0,0,0,0-.88c-.1-.37-.92-.84-1-1.16s.13-.26.16-.52-.8-.57-.7-1c.06-.29.42-.43.39-.69s-.45-.5-.36-.87.4-.18.59-.34-.41-.66-.21-1,.58-.13.7-.3-.1-.91.49-1.05.56.9.76,1,.27-.11.56-.07.07.75.18,1,.32,0,.52.12,0,.8,0,1,.26.24.28.54c0,.48-.41.6-.65.89a.16.16,0,0,0,0,.24c.43.46.13.74-.29,1-.66.47-1.43.73-1.1,1.68l-.38.33Z"/><path class="cls-7" d="M92,71.91c.32-.09.77-.4,1.08-.15.6.47-.44,1.31-.63,1.75,0,.16.33.22.31.55,0,.57-.8.45-1.16.65,0,.11.13.2.13.3,0,.82-1.23.51-1.7.66-.15,0,.1.48-.43.68a1.68,1.68,0,0,1-.8,0,4.12,4.12,0,0,0-.86-.1,2.19,2.19,0,0,1-.36,0c-.05,0-.09,0-.07-.09l1.35-4c0-.09.61.13.74.13s.29-.3.39-.39c.35-.32.52.13.81.13s.82-1.19,1.2-.15Z"/><path class="cls-45" d="M85.3,72.55c0-.16-.35.35-.35.35l.4.37c.2.17.54.42.54.42l0-.25S85.33,73,85.3,72.55Z"/><path class="cls-7" d="M84.94,70.94a.44.44,0,0,1,0,.43,2,2,0,0,1-.2.35c-.31.41-1,.77-1.3.56s-.85-1.87-.4-2.16S84.54,70.37,84.94,70.94Z"/><path class="cls-7" d="M83.32,71.69a1.9,1.9,0,0,1,.52-.5c.27-.21,1-.57,1.26-.28s.59,1.54.12,2-1.59-.08-2-.61A.49.49,0,0,1,83.32,71.69Z"/><path class="cls-47" d="M83.9,71.29c.42-.31.89-.48,1.07-.29a1.46,1.46,0,0,1,.17,1.76c-.34.28-1.12.26-1.79-.59-.14-.18.13-.57.55-.88Z"/><path class="cls-60" d="M84.83,70.88c.23.41-1,1.57-1.41,1.29s-.67-1.64-.39-1.89,1.61.24,1.8.6Z"/><path class="cls-13" d="M83.34,70.29a.44.44,0,0,0-.23.08s0,0,0,0c.16.08.46.16.77.29s.73.45.86.38a.27.27,0,0,0,0-.15,1,1,0,0,0-.27-.26,2.93,2.93,0,0,0-.5-.26,1.8,1.8,0,0,0-.52-.13Z"/><path class="cls-46" d="M87.9,76.15c.61,0,1.2.24,1.57.11.55-.2.21-.63.48-.66s1.61.08,1.61-.59c0-.13-.11-.18-.06-.32s1-.1,1.09-.64c0-.34-.29-.35-.24-.55s1.13-1.23.59-1.66c-.37-.29-1,.22-1,.07s-.09-.36-.33-.38-.58.54-.81.54-.34-.24-.57-.22-.36.51-.63.51a2.68,2.68,0,0,1-.68-.15l-1.34,4,.36,0Z"/><path class="cls-63" d="M88.56,74.58a15.68,15.68,0,0,0,2-.91,17.14,17.14,0,0,0,1.71-1.22m-3.71,2.13a13.07,13.07,0,0,0,2-.84,14,14,0,0,0,1.71-1.29"/><path class="cls-45" d="M80.49,80.86a4.77,4.77,0,0,1,.7-.12.53.53,0,0,1,.32.1l.23-.42a7.55,7.55,0,0,1-.89.06Z"/><path class="cls-29" d="M77.48,85.34c-.4-.48.92-1.74,1.41-1.38s.79,1.35.44,1.67a1.69,1.69,0,0,1-1.85-.29Z"/><path class="cls-45" d="M76.87,83.75h-.15A1,1,0,0,0,76,83.3c-.12,0-.14-.16,0-.19l.45-.12c.08,0,.27.15.32.19s.53.16.37.32l-.26.25Z"/><path class="cls-29" d="M76.77,83.46c.19-.28,1.34-.34,2,.25.42.36.08.88-.31,1.21s-1,.6-1.22.39A1.62,1.62,0,0,1,76.77,83.46Z"/><path class="cls-43" d="M88.13,71.07a5,5,0,0,1,1-.81c.87-.44,2.29.27,2.5-.13.11-.2,0-.35.08-.4s1.68.25,1.75-.45c0-.13-.17-.19,0-.33s1.11-.2,1-.66c0-.15-.24-.19-.19-.34s.79-.84.48-1.27c-.09-.12-.32-.1-.31-.25.06-.47.22-1.2-.17-1.24s-.91.81-1.08.84-.32-.16-.53-.09-.39.61-.52.61-.13-.14-.35-.14c-.66,0-.71,1.08-1,1.34-.18.15-.3,0-.48,0-.46.09-.33,1.24-.57,1.61a3.87,3.87,0,0,1-.88.85,1,1,0,0,1-.32,0l-.35.82Z"/><path class="cls-51" d="M75.77,83.2a3.68,3.68,0,0,0,.7.16,3.36,3.36,0,0,0,.48,0,.34.34,0,0,1-.24-.07s-.33-.28-.33-.28l-.61.22Z"/><path class="cls-47" d="M76.88,83.55c.31-.35,1.21-.31,1.87.27.33.28.11.72-.28,1.06s-.89.54-1,.39a1.53,1.53,0,0,1-.54-1.72Z"/><path class="cls-60" d="M77.55,85.31c-.15-.17.09-.68.4-1s.73-.42.83-.31c.38.41.78,1.14.47,1.51s-1.37.15-1.7-.23Z"/><path class="cls-13" d="M78.73,84.16h0c-.32.07-.5.49-.4.94a1,1,0,0,0,.25.5h0a.78.78,0,0,0,.61-.14.63.63,0,0,0,0-.62,2.56,2.56,0,0,0-.44-.68Z"/><path class="cls-51" d="M88.71,55.56A8.48,8.48,0,0,1,89,54.12a.68.68,0,0,1,.2-.29l-.56-.07a.47.47,0,0,1,.14.31,1.83,1.83,0,0,1-.27.88l.18.61Z"/><path class="cls-64" d="M88.1,54.42A6.86,6.86,0,0,0,87.43,53a1.9,1.9,0,0,0-1.16-.68c-.52-.17-1.34-.3-1.38-.72s0-.33-.13-.37c-.49-.13-1.09-.29-1-.76s.29-.55.08-.65-1.1-.62-1-1,.46-.41.31-.66-.5-.38-.47-.7.31-.3.3-.5-.77-1.08-.32-1.45,1.12.27,1.3.34.4-.31.67-.25.36.6.46.79.57-.1.87.06c.5.26.32,1.18.46,1.37s.5-.11.76,0,.06,1.57.08,1.79.33,0,.49.16c.45.35-.09,1.41,0,2.3,0,.31.11.79.11.79l.23,1.58Z"/><path class="cls-7" d="M84.67,85.15c.14.24.4.41.52.66s0,.7-.42.67c-.18,0-.35-.15-.52-.16s-.55.53-.94.51c-.54,0-.79-.68-1.12-1-.26-.06-.45.33-.74.28-.6-.11-.57-1-.77-1.47-.17-.12-.41.14-.74-.1-.51-.36-.25-1.49-.79-1.8a3.35,3.35,0,0,0-1.41-.14l.56-.3s.15,0,.18,0a17.21,17.21,0,0,0,3.13,0c.46,0,.38.37.46.45h0a2.77,2.77,0,0,1,1.45.3c.49.37,0,.69,0,.77h0l.11,0L84,84a1.46,1.46,0,0,1,.69.4c.24.31,0,.45,0,.73Z"/><path class="cls-46" d="M78.33,82.39a27.71,27.71,0,0,0,3.31,0c.4,0,.27.32.41.43s2,0,1.61.73a1.94,1.94,0,0,0-.15.24v.08c.19.15.85.17,1.14.54.18.22-.28.58-.08.72.37.27,1.21,1.48-.31,1.12-.37-.09-.81.93-1.61,0a4.39,4.39,0,0,0-.41-.5c-.23-.16-.51.2-.78.16-.51-.09-.54-1-.72-1.34-.25-.18-.46,0-.76-.18-.67-.47.16-2.11-2-1.87l.37-.19Z"/><path class="cls-44" d="M78.13,82.43a16.44,16.44,0,0,1,3.25,1,16.16,16.16,0,0,1,2.54,1.8,14.93,14.93,0,0,0-2.51-1.9,14.61,14.61,0,0,0-3.11-1l-.17.06Z"/><path class="cls-7" d="M83.44,80.26c.53.49-.28,2.14-.88,2a1.61,1.61,0,0,1-1.32-1.72,1.72,1.72,0,0,1,2.2-.32Z"/><path class="cls-29" d="M82.47,82.13c-.27-.2-.16-.89.08-1.31s.53-.62.78-.55c.68.22,1.35,1.12,1.09,1.67S82.75,82.33,82.47,82.13Z"/><path class="cls-47" d="M83.39,80.31c.49.45-.29,2-.82,1.86a1.39,1.39,0,0,1-1.14-1.5,1.53,1.53,0,0,1,2-.36Z"/><path class="cls-7" d="M86.6,81.44c-.09.12-.27.33-.47.33-.82,0-.76-.71-1.19-1.17-.14,0-.25.13-.53.07s-.4-1-1-1.22a1.74,1.74,0,0,0-1.49.3l.77-.6c.75.29,1.43-1.3,2.28-1.09.25.06.26.22.54.2.62-.06,1.26-.47,2-.22.46.15-.13.75.44.68.37,0,.91,0,1,.42.06.25-.07.36,0,.54s1.45.54.72.9c.12.33.67.54.38.94s-.86,0-1,.11-.07.25-.13.32c-.24.3-.88-.31-1.15-.37-.27.92-.76.49-1.19-.14Z"/><path class="cls-43" d="M83.51,79.45c.57.16.58,1,.91,1.12s.32-.09.53,0,.38,1.15,1.29,1a.52.52,0,0,0,.36-.28s.33.55.68.6c.51.08.36-.38.49-.4s.59.42,1,.42c.21,0,.18-.37.41-.37s.67.22.85,0-.32-.74-.36-.87.16-.12.14-.24c-.08-.44-.79-.51-.85-.67s.1-.31,0-.55c-.1-.41-.68-.42-1-.36-.6.13,0-.52-.49-.7-.74-.31-1.82.28-2.1.17a1.33,1.33,0,0,0-.42-.13c-.67-.12-1.29.86-1.71,1.06l.21.26Z"/><path class="cls-44" d="M83.3,79.15a10.67,10.67,0,0,1,3.27.29A10.62,10.62,0,0,1,89,80.91,10.93,10.93,0,0,0,86.4,79.5a10.72,10.72,0,0,0-3.17-.16l.07-.19Z"/><path class="cls-44" d="M81.48,79.29a31.61,31.61,0,0,0,.36-4.3c0-1-.21-2.59-.21-2.59s.27,1.63.31,2.69a28.48,28.48,0,0,1-.29,4l-.17.2Z"/><path class="cls-7" d="M79.49,79.19c0,.12.42.23.39.65s-.83.36-1.19.6c-.14.1.16.54,0,.76s-1.24.15-1.31.24.31.65-.16.91c-.64.37-2-.21-2.75.45,0,0-.33.36-.34.36a13.72,13.72,0,0,1-1.41.29c.66-.28,1.71-.55,1.92-1a7.72,7.72,0,0,0,.11-1.53c.11-.62.57-.37.72-.57s-.11-1,.38-1.43.72-.09,1-.32-.17-1,.48-1.25c.39-.13.8.3.89.28s.53-.78,1-.68.27.74.25,1c.82.11.38.72,0,1.2Z"/><path class="cls-43" d="M72.84,83.38s1.75-.73,1.89-1.09c.22-.57,0-1.42.29-1.62s.4-.07.53-.26,0-1.11.43-1.48c.3-.23.56,0,.93-.28s-.11-1,.49-1.17c.35-.13.7.3.87.25.34-.09.52-.75,1-.68s.2.46.17.84c0,.22.33.12.44.42s-.23.7-.44.88.36.28.33.6-.92.49-1.13.56,0,.49-.2.72-1,.14-1.15.31.14.57-.19.83-1.71.09-1.93.17c-.66.25-1.19.5-1.19.5l-1.15.5Z"/><path class="cls-44" d="M74.71,82.36a17.6,17.6,0,0,0,2.89-2.61c.54-.68,1.26-1.71,1.26-1.71s-.69,1.07-1.22,1.77a18.65,18.65,0,0,1-2.9,2.77l0-.22Z"/><path class="cls-44" d="M89,70.11A16,16,0,0,0,92.18,68a19.35,19.35,0,0,0,1.69-1.91,19.24,19.24,0,0,1-1.69,2,15.32,15.32,0,0,1-3.26,2.21l.1-.23Z"/><path class="cls-46" d="M87.45,71.1l-.17.56c0-.78,0-1.15-.94-1.1a2.06,2.06,0,0,1-.43,0c-.47-.07-.11-.35-.26-.56s-1.41,0-1.51-.65c0-.24.23-.52,0-.71s-1-.52-1-1c0-.21.32-.37.28-.57s-.59-.72-.46-1,.29-.16.31-.38-.41-.85,0-1,.84.24,1.27.27c.25,0,.42-.28.68-.22s.34.62.56.73.32-.16.43-.17c.6-.07.46,1.1.67,1.37.08.1.24,0,.34,0,.38.12,0,1.4.13,1.57s.25,0,.33,0c.32.09.1.9,0,1.1-.11.45-.52,1.34-.33,1.76Z"/><path class="cls-44" d="M87.43,71A14.7,14.7,0,0,0,86,67.42a14.58,14.58,0,0,0-2.2-2.32,14.35,14.35,0,0,1,2.1,2.32A14.37,14.37,0,0,1,87.26,71Z"/><path class="cls-44" d="M88.7,58.81a22.55,22.55,0,0,0-2.57-3.42,23.08,23.08,0,0,0-2.77-2.13A22.93,22.93,0,0,1,86,55.43a23.37,23.37,0,0,1,2.45,3.38Z"/><path class="cls-47" d="M88.1,53.43a21.28,21.28,0,0,1,.78,2.31,29.43,29.43,0,0,1,.69,11c-1.36,8-8.68,15.53-14.53,16.7a17.31,17.31,0,0,0-10,5.44,20.06,20.06,0,0,0-2.39,3.22c-.6,1-1,1.91-1.54,2.8h0l-.14,0-.41,0a1.73,1.73,0,0,1-.35,0h0c.08-.11.15-.23.23-.35.51-.85,1-1.67,1.54-2.65a20.2,20.2,0,0,1,2.22-3.07A18,18,0,0,1,74.68,83c6.14-1.23,13.15-8.84,14.52-17A26.11,26.11,0,0,0,88,53.94l.14-.51Z"/><path class="cls-44" d="M87.86,53a17,17,0,0,0-1.6-3.19,31.6,31.6,0,0,0-2.89-3.61,32,32,0,0,1,2.73,3.6A17.45,17.45,0,0,1,88,54.13L87.86,53Z"/><path class="cls-52" d="M88.16,54.2s-.08-.19-.12-.32a4.66,4.66,0,0,1-.15-.69s.12.3.21.5.19.52.19.52Z"/><path class="cls-7" d="M88.4,67.63C88,67.31,87,66.35,87,65.86s.55-.48.68-.56c0-.24-.83-.83-.5-1.35.21-.35.69-.25.87-.39.13-.38-.4-1.34,0-1.86.25-.31.44-.08.56-.11s0-.33,0-.49.13-.58.47-.6.79.58,1,.91c0,0,.3-.06.35-.09.58-.28.37,1.52.38,1.79.14,0,.41-.08.53,0,.62.37-.61,2.29-.74,2.74-.06.19.65,0,.11.72-.32.4-.72.75-1.07,1.12l-1.3-.05Z"/><path class="cls-43" d="M88.6,69.11a1.27,1.27,0,0,0-.32-1.56,3,3,0,0,1-1.17-1.72c0-.59.59-.23.62-.51S87,64.49,87.24,64c.18-.29.67-.26.8-.41s-.31-1.35.09-1.86c.23-.29.4,0,.55-.09s-.09-.94.45-1,.91.86,1,.83.37-.23.56-.05a5.58,5.58,0,0,1,.12,1.67,1.2,1.2,0,0,1,.47,0c.48.29-.37,2-.61,2.45s.39.45.08.86c-.5.67-1.51,1.48-1.67,2.47"/><path class="cls-44" d="M89.18,68.68s.38-2.44.48-3.72a16.34,16.34,0,0,0-.15-2.79,20.71,20.71,0,0,1,0,2.72c-.1,1.28-.67,4.34-.67,4.34l.29-.55Z"/><path class="cls-7" d="M83.64,77.73c.21-.54-.41-2.14.06-2.42.27-.16.44.14.7-.12s-.19-1.58.42-2c.36-.23.64.1,1-.21s.23-1,.81-1.19c.39-.1.56.17.9.21s1.27-1.32,1.88-1,.07,1.07-.05,1.56c-.07.25.47.21.42.64s-.49.78-.49.94.45.29.47.62c0,.63-1,.72-1.33,1-.18.14.23.59,0,1s-1.41.13-1.6.23,0,.83-.2,1.1c-.31.43-1.8,0-2.36.11a2.09,2.09,0,0,0-1.53.83l.93-1.33Z"/><path class="cls-43" d="M82.7,78.6a2.44,2.44,0,0,0,.79-.64,1.32,1.32,0,0,0,.23-1c0-.32-.28-1.42,0-1.6s.4.14.72-.16-.18-1.65.37-2c.34-.21.64.16,1-.19s.22-1,.74-1.17c.33-.08.59.18.9.22s1.24-1.21,1.78-.91a.49.49,0,0,1,.26.57c0,.28-.2.52-.27.8s.4.32.36.69-.46.69-.46.92.38.41.4.72c0,.59-1.17.6-1.27.92s.14.55-.09.93-1.11.05-1.45.18-.11.75-.28,1c-.47.7-2.74-.28-3.68,1l-.11-.32Z"/><path class="cls-44" d="M82.77,78.69a45.88,45.88,0,0,0,3.74-3.58c1-1.18,2.4-3.19,2.4-3.19a39.14,39.14,0,0,1-2.27,3.22,39.55,39.55,0,0,1-3.41,3.38l-.46.17Z"/><path class="cls-52" d="M82.55,78.74l.4-.12a3,3,0,0,1-.21.23l-.18.16v-.27Z"/><path class="cls-60" d="M82.53,82.08c-.19-.14-.14-.78.1-1.21s.58-.57.72-.51c.53.25,1.19,1.08,1,1.54s-1.54.37-1.8.18Z"/><path class="cls-13" d="M83.49,80.58a.57.57,0,0,0-.16.11.75.75,0,0,0,.23,1,1,1,0,0,0,.56.27h0a.27.27,0,0,0,.09-.1.82.82,0,0,0-.2-.73,2.1,2.1,0,0,0-.53-.54Z"/><path class="cls-7" d="M88.88,54.31c-.5-.17-.84-1.1-.63-1.92s2.29-.49,2.06.48c-.17.77-1,1.59-1.43,1.44Z"/><path class="cls-7" d="M90.26,52.58c-.08.49-.72.54-1,.48s-.92-.4-.85-.8c.15-.86.85-1.53,1.25-1.46s.73,1,.62,1.78Z"/><path class="cls-47" d="M88.93,54.15c-.43-.06-.76-.93-.55-1.73s2-.28,1.8.42-.84,1.38-1.25,1.31Z"/><path class="cls-60" d="M89.63,50.93c.35,0,.71.84.59,1.63,0,.39-.65.37-1,.31s-.89-.29-.83-.6c.14-.85.88-1.39,1.2-1.34Z"/><path class="cls-13" d="M89.57,51h0c0,.14.11.35.15.58s0,.82.26.79.19-.13.19-.34h0a1.7,1.7,0,0,0-.13-.57.76.76,0,0,0-.38-.47Z"/><path class="cls-29" d="M60.22,95.3c-.17-.25.21-1,1-.9.34,0,.17.54-.25.84s-.59.3-.75.06Z"/><path class="cls-47" d="M60.22,95.3c-.17-.25.07-.77.86-.8.29,0,.31.44-.11.74s-.59.3-.75.06Z"/><path class="cls-29" d="M62.92,92a.53.53,0,0,0-.37-.42.43.43,0,0,0-.47.14m.5.67a.44.44,0,0,0-.36-.38.39.39,0,0,0-.44.2"/></g><g id="motto"><path class="cls-4" d="M64.36,91.13a22.57,22.57,0,0,0,4.28-.45c-.33,1.12-1,3.26,1.65,3.26,1.93,0,4-1.16,5.95-.14,4.34,2.22,7.61.64,10.25-2.34a17.67,17.67,0,0,1-4,.33,5.09,5.09,0,0,0,1.65-3,6.13,6.13,0,0,1-4,1.13c-1.32,0-2.17-.8-3.9-1.07.1-.6.2-1.21.36-2s-.08-1.66-1.42-1.82c-2.9-.34-5.72,1.34-10.85,1.42-5.18-.08-8.73-1.76-11.63-1.42-1.34.16-1.59.91-1.42,1.82s.26,1.45.36,2C50,89.15,49.13,90,47.81,90a6.13,6.13,0,0,1-4-1.13,5.08,5.08,0,0,0,1.66,3,17.71,17.71,0,0,1-4-.33c2.64,3,5.91,4.56,10.25,2.34,2-1,4,.14,5.95.14,2.64,0,2-2.14,1.65-3.26a26.21,26.21,0,0,0,5,.46Z"/><path d="M50.71,91.16c-.19.09-.29,0-.07-.15a6,6,0,0,1,1.29-.46s0,0,0,0l0,.13a0,0,0,0,1,0,0,6.14,6.14,0,0,0-1.25.42Zm.11.63c-.19.08-.29,0-.07-.15a6.07,6.07,0,0,1,1.33-.51s0,0,0,0l0,.12a0,0,0,0,1,0,0,6.6,6.6,0,0,0-1.32.47Zm6.89,1.15c-.82-.09-1.79-.34-2.83-.48a6.3,6.3,0,0,0-3.8.5l-.15,0a.07.07,0,0,1-.07,0s0,0,0-.07l.09-.06a6.49,6.49,0,0,1,3.93-.58c1,.14,2,.35,2.83.44.47,0,1,0,1.17-.31,0-.07.18.08.13.15-.26.42-.88.46-1.33.42Zm-7.16-2.36-.1,0s-.05,0-.06,0a.07.07,0,0,1,0-.07.16.16,0,0,1,.08,0A6.29,6.29,0,0,1,51.84,90c.07,0,.11,0,.12.07a.1.1,0,0,1-.07.12,8.11,8.11,0,0,0-1.34.41Zm-.12-.64-.08,0a.07.07,0,0,1-.07,0s0,0,0-.07l.07,0a4.63,4.63,0,0,1,1.4-.43.12.12,0,0,1,.13.06.08.08,0,0,1-.07.11,6,6,0,0,0-1.4.39Zm7.29,1.92c-.57-.06-1.21-.18-1.88-.29a.1.1,0,0,1-.09-.13.09.09,0,0,1,.12-.08c.67.11,1.31.23,1.87.29a1.38,1.38,0,0,0,.62-.08.1.1,0,0,1,.14.06.1.1,0,0,1-.06.14A1.54,1.54,0,0,1,57.72,91.86Zm-3,1.12a6.37,6.37,0,0,0-3.58.55l-.12,0s-.07,0-.09,0,0,0,0-.05l0,0,.1-.07a6.28,6.28,0,0,1,3.73-.6c1,.11,1.89.33,2.85.4.08,0,.11.08.13.15s.06.17-.25.14c-1-.11-1.82-.34-2.8-.49Zm3-.63c-1.07-.11-2.49-.48-3.84-.54a.11.11,0,0,1-.12-.1c0-.06,0-.1.12-.1,1.36.06,2.79.39,3.86.5a1.46,1.46,0,0,0,1-.23c.06,0,.22.16.16.21a1.69,1.69,0,0,1-1.22.26Zm-6.77,0c-.19.09-.29,0-.08-.15a6.39,6.39,0,0,1,1.66-.58.15.15,0,0,1,.14.09.1.1,0,0,1-.1.12,6.71,6.71,0,0,0-1.62.52Z"/><path d="M77.31,91.16c.19.09.29,0,.07-.15a6,6,0,0,0-1.29-.46s0,0,0,0l0,.13a0,0,0,0,0,0,0,6.14,6.14,0,0,1,1.25.42Zm-.11.63c.19.08.29,0,.07-.15a6.07,6.07,0,0,0-1.33-.51s0,0,0,0l0,.12a0,0,0,0,0,0,0,6.6,6.6,0,0,1,1.32.47Zm-6.89,1.15c.82-.09,1.79-.34,2.83-.48A6.33,6.33,0,0,1,77,93a.38.38,0,0,0,.14,0,.07.07,0,0,0,.07,0s0,0,0-.07L77,92.82a6.48,6.48,0,0,0-3.93-.58c-1,.14-2,.35-2.83.44-.47,0-1,0-1.17-.31,0-.07-.17.08-.13.15.26.42.88.46,1.33.42Zm7.17-2.36.09,0s.05,0,.06,0a.07.07,0,0,0,0-.07.18.18,0,0,0-.07,0A6.61,6.61,0,0,0,76.18,90c-.07,0-.11,0-.12.07a.1.1,0,0,0,.07.12,8.54,8.54,0,0,1,1.35.41Zm.11-.64.09,0a.06.06,0,0,0,.06,0s0,0,0-.07l-.07,0a4.63,4.63,0,0,0-1.4-.43.12.12,0,0,0-.13.06.09.09,0,0,0,.07.11,6,6,0,0,1,1.4.39ZM70.3,91.86c.57-.06,1.21-.18,1.89-.29a.1.1,0,0,0,.08-.13.09.09,0,0,0-.12-.08c-.67.11-1.31.23-1.87.29a1.38,1.38,0,0,1-.62-.08.1.1,0,0,0-.14.06.1.1,0,0,0,.06.14,1.54,1.54,0,0,0,.72.09Zm3,1.12a6.37,6.37,0,0,1,3.58.55l.13,0a.09.09,0,0,0,.08,0s0,0,0-.05,0,0,0,0l-.1-.07a6.25,6.25,0,0,0-3.72-.6c-1,.11-1.9.33-2.86.4-.08,0-.11.08-.13.15s-.06.17.25.14c1-.11,1.82-.34,2.8-.49Zm-3-.63c1.07-.11,2.49-.48,3.84-.54a.11.11,0,0,0,.12-.1c0-.06,0-.1-.12-.1-1.36.06-2.79.39-3.86.5a1.46,1.46,0,0,1-1-.23c-.06,0-.22.16-.16.21a1.7,1.7,0,0,0,1.22.26Zm6.77,0c.2.09.29,0,.08-.15a6.39,6.39,0,0,0-1.66-.58.12.12,0,0,0-.13.09.09.09,0,0,0,.09.12A6.71,6.71,0,0,1,77.08,92.37Z"/><path class="cls-7" d="M64,91.16a27.7,27.7,0,0,1-5.62-.69c-4.59-.83-5.59-.2-5.59.59a.28.28,0,0,0,.41.26.49.49,0,0,0,.15-.19c-.16,0-.26-.06-.23-.26.1-.58,1.29-.85,5.26-.2a31.14,31.14,0,0,0,5.62.59v-.1Zm0,0a27.7,27.7,0,0,0,5.62-.69c4.59-.83,5.59-.2,5.59.59a.28.28,0,0,1-.41.26.49.49,0,0,1-.15-.19c.16,0,.26-.06.23-.26-.1-.58-1.29-.85-5.26-.2a31,31,0,0,1-5.62.59v-.1Z"/><path class="cls-65" d="M51.71,88.92a9.42,9.42,0,0,0-2.08.63A5.93,5.93,0,0,1,44,89a4.3,4.3,0,0,0,1,2.2c.13.15.53.55.53.55s.05.12,0,.12a15.46,15.46,0,0,1-3.66-.2c2.94,3.23,5.89,4,9.91,2.08,2.11-1,3.87.13,6,.13s2-1.46,1.53-3.11l.27,0c.36,1,.93,3.53-1.8,3.33-2.1-.16-3.79-1.23-5.91-.22-3.26,1.56-5.62,1.53-8.46-.57a9.57,9.57,0,0,1-1.91-1.79c-.09-.15,0-.23.15-.19a12.55,12.55,0,0,0,3.54.32,4.71,4.71,0,0,1-1.4-2.84c0-.11.06-.13.16-.08a6.8,6.8,0,0,0,3.91,1.11c1.06,0,3.21-1.19,3.86-1.07l0,.14Z"/><path class="cls-7" d="M76.31,88.92a9.42,9.42,0,0,1,2.08.63A5.93,5.93,0,0,0,84,89a4.22,4.22,0,0,1-1,2.2c-.13.15-.53.55-.53.55s0,.12,0,.12a15.43,15.43,0,0,0,3.66-.2c-2.94,3.23-5.89,4-9.91,2.08-2.11-1-3.87.13-6,.13s-2-1.46-1.53-3.11l-.27,0c-.36,1-.93,3.53,1.8,3.33,2.11-.16,3.79-1.23,5.91-.22,3.26,1.56,5.62,1.53,8.46-.57a9.57,9.57,0,0,0,1.91-1.79c.09-.15,0-.23-.15-.19a12.55,12.55,0,0,1-3.54.32,4.71,4.71,0,0,0,1.4-2.84c0-.11-.06-.13-.16-.08a6.8,6.8,0,0,1-3.91,1.11c-1.06,0-3.21-1.19-3.86-1.07l0,.14Z"/><path class="cls-65" d="M63.89,86.43a27.21,27.21,0,0,1-6.43-.84,14.09,14.09,0,0,0-4.69-.51c-1.1.15-1.55.63-1.36,1.74.23,1.38.43,2.77.69,4.14.14.79.56.9,1.31.77,1.07-.19,4.51-1,5.28,0s0,1.61-1,1.62c-.15,0-.1-.09,0-.09,1,0,1.68-.57,1-1.45s-3.89-.25-5.2.06c-.83.19-1.38.09-1.54-.94a37.83,37.83,0,0,0-.79-4.2c-.75-3.08,4.75-1.65,6.33-1.28a30.81,30.81,0,0,0,6.53.9,30.81,30.81,0,0,0,6.53-.9c1.58-.37,7.08-1.8,6.33,1.28a37.83,37.83,0,0,0-.79,4.2c-.16,1-.71,1.13-1.54.94-1.31-.31-4.53-1-5.2-.06s0,1.45,1,1.45c0,0,.1.1-.05.09-1,0-1.75-.69-1-1.62s4.21-.21,5.28,0c.75.13,1.17,0,1.31-.77.25-1.37.46-2.76.69-4.14.19-1.11-.26-1.59-1.36-1.74a14.07,14.07,0,0,0-4.69.51,27.29,27.29,0,0,1-6.43.84Z"/><g id="text"><path d="M55.79,89l-.9-.06-.2-2.75.67.08.14,2.14.56,0c.23,0,.6.08.6.08l0,.55L55.79,89Z"/><path d="M57.24,89.16l-.16-2.65.68.11.15,2.65Z"/><path d="M59.27,87.93l.22,0c.35.06.37-.06.37-.2s-.08-.28-.43-.34l-.17,0v.53Zm0,1,.32.06c.37.06.46,0,.46-.19s-.14-.34-.54-.41l-.25,0V89Zm.39.59-1.06-.18,0-2.61,1,.16c.65.11,1,.4,1,.9a.51.51,0,0,1-.24.42.85.85,0,0,1,.45.68c0,.49-.29.77-1.08.63Z"/><path d="M62.19,89.93c-.35,0-.92-.11-.92-.11l0-1.32,0-1.32,1.51.16v.52l-.85-.09v.55l.89.09v.49l-.89-.09v.56l.57.07.61,0V90s-.57,0-.93-.07Z"/><path d="M64.41,88.58c.35,0,.51-.16.51-.4s-.12-.36-.44-.35h-.3v.76ZM65.89,90a1.43,1.43,0,0,1-1.08-.59L64.52,89h-.31l0,.93h-.66l0-2.65h1c.58,0,1,.25,1,.84a.79.79,0,0,1-.4.7l.25.27a1.14,1.14,0,0,0,.59.31l-.13.51Z"/><path d="M65.92,87.83V87.3L68.25,87v.52l-.83.12v2.11l-.67.09V87.71Z"/><path d="M69.68,87.29c-.08.29-.17.58-.25.86a3.53,3.53,0,0,0,.55-.1c-.08-.26-.16-.51-.23-.77Zm.71,1.92-.26-.7a1.93,1.93,0,0,1-.43.1l-.45.06-.28.81-.68.13.82-2.27-.29.06v-.53c.61-.1,1.2-.21,1.78-.33l0,.52-.29,0,.75,2-.7.13Z"/><path d="M72.17,89.05a1.64,1.64,0,0,1-.86-.18l.19-.49a1.48,1.48,0,0,0,.67.11c.32,0,.47-.1.47-.24s-.07-.17-.19-.23-.29-.11-.46-.17c-.33-.13-.67-.32-.67-.78s.59-.78,1.05-.79a2,2,0,0,1,.86.17l-.17.47a2.71,2.71,0,0,0-.68-.1c-.26,0-.41.14-.41.24s.07.13.2.19l.46.19c.34.14.69.35.68.77,0,.59-.6.83-1.14.84Z"/></g></g></g></g></svg>