<svg id="Layer_1" data-name="Layer 1" xmlns="http://www.w3.org/2000/svg" xmlns:xlink="http://www.w3.org/1999/xlink" viewBox="0 0 128 128"><defs><style>.cls-1{fill:none;}.cls-2{clip-path:url(#clip-path);}.cls-3{clip-path:url(#clip-path-2);}.cls-4{fill:#fff;}.cls-5{fill:#bc1f33;}.cls-6{fill:#409d61;}</style><clipPath id="clip-path"><circle class="cls-1" cx="64" cy="64" r="64"/></clipPath><clipPath id="clip-path-2"><rect id="_Clipping_Path_" data-name="&lt;Clipping Path&gt;" class="cls-1" x="-45.69" width="219.39" height="128"/></clipPath></defs><title>Flag_circle_Syria</title><g class="cls-2"><g id="SYRIA"><g id="_Group_" data-name="&lt;Group&gt;"><g id="_Clip_Group_" data-name="&lt;Clip Group&gt;"><g class="cls-3"><rect id="_Path_" data-name="&lt;Path&gt;" class="cls-4" x="-45.69" width="219.39" height="128"/><rect id="_Path_2" data-name="&lt;Path&gt;" class="cls-5" x="-45.69" width="219.39" height="42.67"/><polygon id="_Path_3" data-name="&lt;Path&gt;" class="cls-6" points="94.4 50.15 97.5 59.72 107.58 59.72 99.44 65.65 102.56 75.22 94.4 69.3 86.25 75.22 89.36 65.65 81.22 59.72 91.28 59.72 94.4 50.15"/><polygon id="_Path_4" data-name="&lt;Path&gt;" class="cls-6" points="33.6 50.15 36.72 59.72 46.79 59.72 38.65 65.65 41.76 75.22 33.6 69.3 25.46 75.22 28.57 65.65 20.42 59.72 30.5 59.72 33.6 50.15"/><rect id="_Path_5" data-name="&lt;Path&gt;" x="-45.69" y="85.33" width="219.39" height="42.67"/></g></g></g></g></g></svg>