<svg id="Layer_1" data-name="Layer 1" xmlns="http://www.w3.org/2000/svg" xmlns:xlink="http://www.w3.org/1999/xlink" viewBox="0 0 128 128"><defs><style>.cls-1,.cls-7{fill:none;}.cls-2{clip-path:url(#clip-path);}.cls-3{fill:#176734;}.cls-4{fill:#fff;}.cls-5{fill:#ca2026;}.cls-6{fill:#f5c115;}.cls-7{stroke:#f5c115;stroke-width:3.41px;}</style><clipPath id="clip-path"><circle class="cls-1" cx="64" cy="64" r="64"/></clipPath></defs><title>Flag_circle_Tajikistan</title><g class="cls-2"><rect class="cls-3" x="-45.71" width="219.43" height="128"/><rect class="cls-4" x="-45.71" width="219.43" height="91.43"/><rect class="cls-5" x="-45.71" width="219.43" height="36.57"/><path class="cls-6" d="M59.17,62.3a2.29,2.29,0,0,1,3.12-.83,2.32,2.32,0,0,1,1.14,1.91v9.14h1.72V63.38a2.29,2.29,0,0,1,2.35-2.22,2.32,2.32,0,0,1,1.91,1.14,5.39,5.39,0,0,0-10.24-3.4,5.35,5.35,0,0,0,0,3.4"/><path class="cls-4" d="M60.39,59.91a3.67,3.67,0,0,1,3.9,1.75,3.65,3.65,0,0,1,3.89-1.75,3.93,3.93,0,0,0-7.79,0"/><path id="w" class="cls-6" d="M63.43,68.87a7,7,0,0,1-11.68,4.45,7.22,7.22,0,0,1-9.38,4,7.41,7.41,0,0,1-1.54-.84c.67,6.66,10.65,5.3,11.4-1.18,3.13,5.51,10,3.93,12.05-2.81Z"/><path id="w-2" data-name="w" class="cls-6" d="M65.15,68.87a6.95,6.95,0,0,0,11.67,4.45,7.23,7.23,0,0,0,10.92,3.19c-.66,6.66-10.65,5.3-11.39-1.18-3.14,5.51-10,3.93-12-2.81Z"/><path id="r" class="cls-6" d="M56.76,80.7c-1.39,3-4.18,3.52-6.61,1.09a5.94,5.94,0,0,1,2-.88A3.31,3.31,0,0,1,53,78.29a4,4,0,0,1,1.64,2.17,3.53,3.53,0,0,1,2.17.24Z"/><path id="r-2" data-name="r" class="cls-6" d="M67.66,80.36c-1.87,2.74-4.7,2.79-6.71,0a6,6,0,0,1,2.15-.54,3.29,3.29,0,0,1,1.19-2.46,4,4,0,0,1,1.26,2.41,3.57,3.57,0,0,1,2.11.59Z"/><path id="r-3" data-name="r" class="cls-6" d="M78.47,81.79c-2.29,2.4-5.09,2-6.62-1.08a6,6,0,0,1,2.2-.19,3.32,3.32,0,0,1,1.58-2.23,4,4,0,0,1,.85,2.58,3.71,3.71,0,0,1,2,.92Z"/><path class="cls-7" d="M46.55,87.41a62.07,62.07,0,0,1,35.47,0"/><polygon id="s" class="cls-6" points="64.29 39.31 66.97 47.58 59.94 42.47 68.63 42.47 61.6 47.58 64.29 39.31"/><g id="h"><polygon id="s-2" data-name="s" class="cls-6" points="51.49 42.74 54.17 51.01 47.14 45.9 55.83 45.9 48.8 51.01 51.49 42.74"/><polygon id="s-3" data-name="s" class="cls-6" points="42.12 52.11 44.8 60.38 37.77 55.27 46.46 55.27 39.43 60.38 42.12 52.11"/><polygon id="s-4" data-name="s" class="cls-6" points="38.69 64.91 41.37 73.18 34.34 68.07 43.03 68.07 36 73.18 38.69 64.91"/></g><g id="h-2" data-name="h"><polygon id="s-5" data-name="s" class="cls-6" points="77.09 42.74 74.4 51.01 81.43 45.9 72.74 45.9 79.77 51.01 77.09 42.74"/><polygon id="s-6" data-name="s" class="cls-6" points="86.46 52.11 83.77 60.38 90.8 55.27 82.11 55.27 89.14 60.38 86.46 52.11"/><polygon id="s-7" data-name="s" class="cls-6" points="89.89 64.91 87.2 73.18 94.23 68.07 85.54 68.07 92.57 73.18 89.89 64.91"/></g></g></svg>