<svg id="Layer_1" data-name="Layer 1" xmlns="http://www.w3.org/2000/svg" xmlns:xlink="http://www.w3.org/1999/xlink" viewBox="0 0 128 128"><defs><style>.cls-1{fill:none;}.cls-2{clip-path:url(#clip-path);}.cls-3{clip-path:url(#clip-path-2);}.cls-4{fill:#d22028;}.cls-5{fill:#fff;}</style><clipPath id="clip-path"><circle class="cls-1" cx="64" cy="64" r="64"/></clipPath><clipPath id="clip-path-2"><rect id="_Clipping_Path_" data-name="&lt;Clipping Path&gt;" class="cls-1" x="-45.7" width="219.4" height="128"/></clipPath></defs><title>Flag_circle_Tunisia</title><g class="cls-2"><g id="TUNISIA"><g id="_Group_" data-name="&lt;Group&gt;"><g id="_Clip_Group_" data-name="&lt;Clip Group&gt;"><g class="cls-3"><rect id="_Path_" data-name="&lt;Path&gt;" class="cls-4" x="-45.7" width="219.4" height="128"/><g id="_Clip_Group_2" data-name="&lt;Clip Group&gt;"><g class="cls-3"><path id="_Path_2" data-name="&lt;Path&gt;" class="cls-5" d="M64,32A32,32,0,1,1,32,64,32,32,0,0,1,64,32"/><path id="_Path_3" data-name="&lt;Path&gt;" class="cls-4" d="M64,40A24,24,0,1,1,40,64,24,24,0,0,1,64,40"/><path id="_Path_4" data-name="&lt;Path&gt;" class="cls-5" d="M70.41,44.8A19.19,19.19,0,1,1,51.19,64,19.2,19.2,0,0,1,70.41,44.8"/><polyline id="_Path_5" data-name="&lt;Path&gt;" class="cls-4" points="56.01 63.98 69.71 68.44 71.93 61.6"/><polyline id="_Path_6" data-name="&lt;Path&gt;" class="cls-4" points="56.01 63.98 69.71 59.56 71.93 66.4"/><polyline id="_Path_7" data-name="&lt;Path&gt;" class="cls-4" points="65.95 50.29 65.95 64.69 73.14 64.69"/><polyline id="_Path_8" data-name="&lt;Path&gt;" class="cls-4" points="65.95 50.29 74.42 61.96 68.58 66.2"/><polyline id="_Path_9" data-name="&lt;Path&gt;" class="cls-4" points="65.95 77.69 74.42 66.02 68.58 61.8"/><polyline id="_Path_10" data-name="&lt;Path&gt;" class="cls-4" points="65.95 77.69 65.95 63.28 73.14 63.28"/><polyline id="_Path_11" data-name="&lt;Path&gt;" class="cls-4" points="82.04 55.52 68.35 59.99 70.58 66.86"/><polyline id="_Path_12" data-name="&lt;Path&gt;" class="cls-4" points="82.04 55.52 73.59 67.17 67.75 62.95"/><polyline id="_Path_13" data-name="&lt;Path&gt;" class="cls-4" points="82.04 72.48 73.59 60.81 67.75 65.05"/><polyline id="_Path_14" data-name="&lt;Path&gt;" class="cls-4" points="82.04 72.48 68.35 68.01 70.58 61.14"/></g></g></g></g></g></g></g></svg>