<svg id="Layer_1" data-name="Layer 1" xmlns="http://www.w3.org/2000/svg" xmlns:xlink="http://www.w3.org/1999/xlink" viewBox="0 0 128 128"><defs><style>.cls-1{fill:none;}.cls-2{clip-path:url(#clip-path);}.cls-3{clip-path:url(#clip-path-2);}.cls-4{fill:#0097c9;}.cls-5{fill:#ffcf00;}.cls-5,.cls-9{fill-rule:evenodd;}.cls-6{fill:#001f7e;}.cls-7{fill:#fff;}.cls-8,.cls-9{fill:#d00c26;}</style><clipPath id="clip-path"><circle class="cls-1" cx="64" cy="64" r="64"/></clipPath><clipPath id="clip-path-2"><rect id="_Clipping_Path_" data-name="&lt;Clipping Path&gt;" class="cls-1" x="-44" width="219.44" height="128"/></clipPath></defs><title>Flag_circle_Tuvalu</title><g class="cls-2"><g id="TUVALU"><g id="_Group_" data-name="&lt;Group&gt;"><g id="_Clip_Group_" data-name="&lt;Clip Group&gt;"><g class="cls-3"><rect id="_Path_" data-name="&lt;Path&gt;" class="cls-4" x="-44" width="219.44" height="128"/><polygon id="_Path_2" data-name="&lt;Path&gt;" class="cls-5" points="82.33 115.2 76.03 110.88 69.7 115.2 72.1 108.21 65.78 103.89 73.6 103.91 76.03 96.91 78.44 103.91 86.24 103.89 79.92 108.21 82.33 115.2"/><polygon id="_Path_3" data-name="&lt;Path&gt;" class="cls-5" points="92.25 70.92 98.58 75.25 104.88 70.92 102.46 77.92 108.79 82.23 100.98 82.23 98.58 89.22 96.16 82.23 88.35 82.23 94.67 77.92 92.25 70.92"/><polygon id="_Path_4" data-name="&lt;Path&gt;" class="cls-5" points="115.29 39.06 121.6 43.39 127.92 39.06 125.51 46.05 131.84 50.37 124.03 50.36 121.6 57.36 119.2 50.36 111.4 50.37 117.72 46.05 115.29 39.06"/><polygon id="_Path_5" data-name="&lt;Path&gt;" class="cls-5" points="115.29 87.59 121.6 91.93 127.92 87.59 125.51 94.59 131.84 98.91 124.03 98.9 121.6 105.89 119.2 98.9 111.4 98.91 117.72 94.59 115.29 87.59"/><polygon id="_Path_6" data-name="&lt;Path&gt;" class="cls-5" points="92.25 93.24 98.58 97.56 104.88 93.24 102.46 100.22 108.79 104.54 100.98 104.53 98.58 111.53 96.16 104.53 88.35 104.54 94.67 100.22 92.25 93.24"/><rect id="_Path_7" data-name="&lt;Path&gt;" class="cls-6" x="-44" width="109.72" height="54.86"/><polygon id="_Path_8" data-name="&lt;Path&gt;" class="cls-7" points="53.45 0 -44 48.72 -44 54.86 -31.73 54.86 65.72 6.13 65.72 0 53.45 0"/><polygon id="_Path_9" data-name="&lt;Path&gt;" class="cls-7" points="-44 0 -44 6.13 53.45 54.86 65.72 54.86 65.72 48.72 -31.73 0 -44 0"/><polygon id="_Path_10" data-name="&lt;Path&gt;" class="cls-7" points="1.7 0 1.7 18.28 -44 18.28 -44 36.57 1.7 36.57 1.7 54.86 19.99 54.86 19.99 36.57 65.72 36.57 65.72 18.28 19.99 18.28 19.99 0 1.7 0"/><polygon id="_Path_11" data-name="&lt;Path&gt;" class="cls-8" points="5.37 0 5.37 21.94 -44 21.94 -44 32.91 5.37 32.91 5.37 54.86 16.34 54.86 16.34 32.91 65.72 32.91 65.72 21.94 16.34 21.94 16.34 0 5.37 0"/><polygon id="_Path_12" data-name="&lt;Path&gt;" class="cls-9" points="20.97 18.28 29.15 18.28 65.72 0 57.53 0 20.97 18.28"/><polygon id="_Path_13" data-name="&lt;Path&gt;" class="cls-9" points="65.72 54.86 65.72 50.77 37.32 36.57 29.15 36.57 65.72 54.86"/><polygon id="_Path_14" data-name="&lt;Path&gt;" class="cls-8" points="-7.44 36.57 -44 54.86 -35.83 54.86 0.75 36.57 -7.44 36.57"/></g></g></g></g></g></svg>