<svg id="Layer_1" data-name="Layer 1" xmlns="http://www.w3.org/2000/svg" xmlns:xlink="http://www.w3.org/1999/xlink" viewBox="0 0 128 128"><defs><style>.cls-1{fill:none;}.cls-2{clip-path:url(#clip-path);}.cls-3{fill:#fe0000;}.cls-4{fill:#000095;}.cls-5{fill:#fff;}</style><clipPath id="clip-path"><circle class="cls-1" cx="64" cy="64" r="64"/></clipPath></defs><title>Flag_circle_Taiwan</title><circle class="cls-1" cx="-63.5" cy="150.16" r="64"/><g class="cls-2"><rect class="cls-3" x="0.5" width="218.92" height="128"/><rect class="cls-4" x="0.5" width="63.5" height="69.42"/><path id="four_rays" data-name="four rays" class="cls-5" d="M44.23,38.05,38.91,58l-5.33-20,5.33-20L43.42,35m-4.51,8.38,20-5.33-20-5.33-20,5.33,9.4,2.55"/><path id="four_rays-2" data-name="four rays" class="cls-5" d="M43.52,40.72,28.92,55.35l5.37-20L48.9,20.75M36.24,42.67l20,5.37L41.57,33.44l-20-5.38"/><path id="four_rays-3" data-name="four rays" class="cls-5" d="M41.57,42.67,21.61,48l14.63-14.6,20-5.38M34.29,40.72,48.9,55.35l-5.38-20L28.92,20.75l2.69,9.88"/><circle class="cls-4" cx="38.91" cy="38.05" r="11.32"/><circle class="cls-5" cx="38.91" cy="38.05" r="9.99"/></g></svg>