<svg id="Layer_1" data-name="Layer 1" xmlns="http://www.w3.org/2000/svg" xmlns:xlink="http://www.w3.org/1999/xlink" viewBox="0 0 128 128"><defs><style>.cls-1{fill:none;}.cls-2{clip-path:url(#clip-path);}.cls-3{clip-path:url(#clip-path-2);}.cls-4{fill:#00a650;}.cls-5{fill:#7dafdd;}.cls-6{fill:#fcf317;}</style><clipPath id="clip-path"><circle class="cls-1" cx="64" cy="64" r="64"/></clipPath><clipPath id="clip-path-2"><rect id="_Clipping_Path_" data-name="&lt;Clipping Path&gt;" class="cls-1" x="-45.71" width="219.43" height="128"/></clipPath></defs><title>Flag_circle_Tanzania</title><g class="cls-2"><g id="TANZANIA"><g id="_Group_" data-name="&lt;Group&gt;"><g id="_Clip_Group_" data-name="&lt;Clip Group&gt;"><g class="cls-3"><polygon id="_Path_" data-name="&lt;Path&gt;" class="cls-4" points="-45.71 0 -45.71 97.17 121.57 0 -45.71 0"/><polygon id="_Path_2" data-name="&lt;Path&gt;" class="cls-5" points="6.42 128 173.71 128 173.71 30.8 6.42 128"/><polygon id="_Path_3" data-name="&lt;Path&gt;" class="cls-6" points="121.57 0 -45.71 97.17 -45.71 107.06 138.28 0 121.57 0"/><polygon id="_Path_4" data-name="&lt;Path&gt;" class="cls-6" points="-10.28 128 6.42 128 173.71 30.8 173.71 20.89 -10.28 128"/><polygon id="_Path_5" data-name="&lt;Path&gt;" points="138.28 0 -45.71 107.06 -45.71 127.85 -45.63 127.92 -45.59 128 -10.28 128 173.71 20.89 173.71 0.13 173.63 0.05 173.59 0 138.28 0"/></g></g></g></g></g></svg>