<svg id="Layer_1" data-name="Layer 1" xmlns="http://www.w3.org/2000/svg" xmlns:xlink="http://www.w3.org/1999/xlink" viewBox="0 0 128 128"><defs><style>.cls-1{fill:none;}.cls-2{clip-path:url(#clip-path);}.cls-3{clip-path:url(#clip-path-2);}.cls-4{fill:#f8e82a;}.cls-5{fill:#cc3220;}.cls-6{fill:#fffcff;}.cls-7{fill:#cc2920;}.cls-8{fill:#9ba49a;}.cls-9{fill:#fff;}</style><clipPath id="clip-path"><circle class="cls-1" cx="64" cy="64" r="64"/></clipPath><clipPath id="clip-path-2"><rect id="_Clipping_Path_" data-name="&lt;Clipping Path&gt;" class="cls-1" x="-45.71" width="219.41" height="128"/></clipPath></defs><title>Flag_circle_Uganda</title><g class="cls-2"><g id="UGANDA"><g id="_Group_" data-name="&lt;Group&gt;"><g id="_Clip_Group_" data-name="&lt;Clip Group&gt;"><g class="cls-3"><rect id="_Path_" data-name="&lt;Path&gt;" x="-45.71" width="219.41" height="128"/><rect id="_Path_2" data-name="&lt;Path&gt;" class="cls-4" x="-45.71" y="21.35" width="219.41" height="21.3"/><rect id="_Path_3" data-name="&lt;Path&gt;" class="cls-5" x="-45.71" y="42.65" width="219.41" height="21.35"/><rect id="_Path_4" data-name="&lt;Path&gt;" class="cls-4" x="-45.71" y="85.35" width="219.41" height="21.32"/><rect id="_Path_5" data-name="&lt;Path&gt;" class="cls-5" x="-45.71" y="106.67" width="219.41" height="21.33"/><g id="_Clip_Group_2" data-name="&lt;Clip Group&gt;"><g class="cls-3"><path id="_Path_6" data-name="&lt;Path&gt;" class="cls-6" d="M84,64A19.93,19.93,0,1,1,64,44.08,19.95,19.95,0,0,1,84,64Z"/><g id="_Group_2" data-name="&lt;Group&gt;"><path id="_Compound_Path_" data-name="&lt;Compound Path&gt;" d="M64,84A20,20,0,1,1,84,64,20.05,20.05,0,0,1,64,84Zm0-39.86A19.84,19.84,0,1,0,83.82,64,19.85,19.85,0,0,0,64,44.16Z"/></g><path id="_Path_7" data-name="&lt;Path&gt;" class="cls-7" d="M60.48,48.73,59.2,46.35a3.53,3.53,0,0,1,2.66-.89c0,.08-.13,2.63-.13,2.63Z"/><g id="_Group_3" data-name="&lt;Group&gt;"><path id="_Compound_Path_2" data-name="&lt;Compound Path&gt;" d="M60.43,48.86,59.08,46.4a3.44,3.44,0,0,1,2.78-1,20.45,20.45,0,0,1,0,2.73l-1.41.77Zm1.33-3.4a3.83,3.83,0,0,0-2.49,1l1.26,2.14L61.7,48c-.06,0,.06-2.45.06-2.53Z"/></g><path id="_Path_8" data-name="&lt;Path&gt;" class="cls-4" d="M61.73,48.11l.17-2.65A5.59,5.59,0,0,1,66.05,47l-1.44,2.07Z"/><g id="_Group_4" data-name="&lt;Group&gt;"><path id="_Compound_Path_3" data-name="&lt;Compound Path&gt;" d="M64.66,49.21l-3-1,.11-2.83h.28a5.54,5.54,0,0,1,4,1.61c.05.1.05.1-1.43,2.17l0,.07Zm-2.57-3.65-.25,2.55,2.74.85c.22-.33,1.33-1.89,1.38-2a5.5,5.5,0,0,0-3.87-1.43Z"/></g><path id="_Path_9" data-name="&lt;Path&gt;" class="cls-7" d="M64.66,49.09,66,47a4.29,4.29,0,0,1,1.38,2.6s-2.08.51-2.08.49l-.61-1Z"/><g id="_Group_5" data-name="&lt;Group&gt;"><path id="_Compound_Path_4" data-name="&lt;Compound Path&gt;" d="M65.27,50.21l-.09-.08c0-.05-.55-.94-.6-1L65.88,47a3.88,3.88,0,0,1,1.6,2.63,11.65,11.65,0,0,1-2.21.61Zm-.52-1.1a5.67,5.67,0,0,1,.58.9c.34-.08,1.88-.44,2-.49a4.48,4.48,0,0,0-1.39-2.4l-1.16,2Z"/></g><path id="_Path_10" data-name="&lt;Path&gt;" d="M61.15,82.77a8.4,8.4,0,0,1,7.27-2.2c-.71-1.17-3.06-1-3.06-1s-.73-5.52-.17-5.77a10,10,0,0,1,3,0,1,1,0,0,0,.44-1.4c-.44-.57-1.71-2.66-1.19-3.07s3.37.23,3.37.23l-8-10.24s-.83-3.88.81-5.72c2-1.63,1.77-3.42,1.71-3.4a3,3,0,0,0-4.84-1.43,1.9,1.9,0,0,0-.36,2.33s-2.86.76-3,1.27,3.26-.1,3.26-.1L60,54.53s-6.5,5.92-1.52,11a2,2,0,0,0,.16-.23A8.7,8.7,0,0,0,62.26,68c1.71,1.76,1.57,1.51,1.57,1.51s.33,2.78,0,3.32a25.74,25.74,0,0,0-5.5-.06c-.6.18-2.87.08-2.3,3.78l.83-1.89s-.08,1.33.47,1.84a4.24,4.24,0,0,1,.53-2.37s.11,1.53.44,1.73.36-2.47,2.24-2.24a22.6,22.6,0,0,0,3.24.18s.64,5.33.42,5.82c-1.36-.33-4.59.15-4.81.94a9.53,9.53,0,0,1,2.81.13S60.67,82,61.15,82.77Z"/><g id="_Group_6" data-name="&lt;Group&gt;"><path id="_Path_11" data-name="&lt;Path&gt;" d="M61.12,83l0-.12c-.47-.77.64-1.87,1-2.2-.18,0-.73-.05-1.61-.05-.28,0-.64,0-1,0,.13-1.13,3.59-1.46,4.84-1.15,0-.28-.28-3.53-.55-5.65a13.47,13.47,0,0,1-3.17-.13h0c-1.24,0-1.59,1.08-1.8,1.72-.13.35-.21.53-.35.53-.39-.2-.55-1.17-.61-1.66a7,7,0,0,0-.3,2.15c-.75-.41-.72-1.76-.69-1.82l-.64,1.92c-.7-3.37,1-3.7,1.9-3.86.12,0,.22,0,.26-.07a12.9,12.9,0,0,1,2-.11,25.08,25.08,0,0,1,3.56.18,20.46,20.46,0,0,0-.15-3.16h0A9.78,9.78,0,0,1,62.19,68c-1.71-.44-3.32-2.35-3.59-2.64l.15-.15a8.43,8.43,0,0,0,3.53,2.61c1.33,1.35,1.55,1.5,1.6,1.5.11.54.37,2.94.06,3.48a42.67,42.67,0,0,0-5.54,0l-.32,0c-.84.18-2.41.46-1.94,3.6l.64-1.92c.19.08.15,1.36.64,1.79A3.56,3.56,0,0,1,57.77,74c.25.69.41,1.61.63,1.76a1.49,1.49,0,0,1,.12-.43c.23-.72.61-1.87,1.82-1.87a19.55,19.55,0,0,0,3.46.16,32.77,32.77,0,0,1,.53,6c-.39,0-.77,0-1.19,0-1.57,0-3.49.43-3.6,1a1.75,1.75,0,0,1,.89-.15,10.25,10.25,0,0,1,1.8.12c-.34.54-1.2,1.48-1.06,2.1a8.68,8.68,0,0,1,7.28-2.15c-.69-.76-2.35-.81-2.87-.81l-.31-.11c-.19-1.32-.69-5.62-.11-5.9a13.66,13.66,0,0,1,3,0c.08,0,.27-.15.39-.38a.81.81,0,0,0-.06-.84c-.28-.36-1.39-2.12-1.3-2.89a.47.47,0,0,1,.14-.33c.5-.36,3.37.2,3.46.23L62.68,59.33c0-.18-.82-4,.84-5.85,1.8-1.46,1.75-3.07,1.67-3.25-.28-1.81-3.1-2.8-4.66-1.4a1.83,1.83,0,0,0-.35,2.2c-1.43.51-2.89,1-2.94,1.35h0s.06,0,.51,0a21.58,21.58,0,0,0,2.59-.28l-.22,2.4c-.07.1-3.26,3.07-3.37,6.54a5.8,5.8,0,0,0,1.84,4.37v0a.55.55,0,0,1,0,.2,5.71,5.71,0,0,1-2-4.54c.09-3.58,3.37-6.62,3.41-6.64l.29-2.2a7.2,7.2,0,0,1-2.5.39c-.49,0-.64-.08-.7-.16.09-.69,2.41-1.38,3-1.48-.17-.1-.67-1.1.33-2.32,1.72-1.56,4.73-.44,5,1.48.1.25.16,1.91-1.73,3.5-1.57,1.76-.78,5.56-.78,5.62l8,10.21c-.11.15-1.72-.2-2.72-.2-.43,0-.6.07-.63.12-.16.77.77,2.38,1.17,2.86a1,1,0,0,1,.08,1.08c-.13.25-.36.53-.58.53a19.91,19.91,0,0,0-2-.15,3.34,3.34,0,0,0-.9.1c-.31.16-.12,3,.21,5.7.81-.1,2.44,0,3.05,1a5.55,5.55,0,0,1-1.41.1,8.15,8.15,0,0,0-5.88,2.25l-.1.12Z"/></g><path id="_Path_12" data-name="&lt;Path&gt;" class="cls-8" d="M61.9,53.71s-4.71,5.21-2.67,9.17c.09-.57,0-.9.12-.9-.12,0,.58.51.54.39a3.69,3.69,0,0,0-.24-.9l.67.15c-.14-.22-.27-.45-.39-.66a9,9,0,0,1,.91.08s-.31-.85-.22-.85l.76.06c-1.34-2.4-.09-4.42.52-6.54Z"/><g id="_Group_7" data-name="&lt;Group&gt;"><path id="_Compound_Path_5" data-name="&lt;Compound Path&gt;" class="cls-8" d="M59.27,63.21l-.17-.28c-2-4,2.68-9.25,2.71-9.3A2.79,2.79,0,0,1,61.57,55c-.59,1.68-1.16,3.26-.09,5.15-.12.16-.74.11-.86.11.08,0,.22.38.33.71l-1,0,.49.56-.57,0v0a3.43,3.43,0,0,1,.14.79c-.24.13-.71-.31-.71-.31a1.37,1.37,0,0,1,0,.82l0,.31Zm2.51-9.48c-.35.64-4.12,5.19-2.63,8.81a1.56,1.56,0,0,0,.05-.33l.12-.3c.17.07.52.35.6.38a2,2,0,0,1-.33-.79l-.08-.21.83.23-.5-.53,1,0c-.44-.69-.39-.79-.34-.84a4.25,4.25,0,0,1,.85,0c-1.18-1.81-.59-3.5,0-5.18.15-.41.29-.82.4-1.23Z"/></g><path id="_Path_13" data-name="&lt;Path&gt;" class="cls-8" d="M63.55,49.24s.25,1.81-.72,2.3c-.16.13-.79.33-.69.69.12.51.39.41.76.3,1-.15,2.23-2.35.65-3.29Z"/><g id="_Group_8" data-name="&lt;Group&gt;"><path id="_Compound_Path_6" data-name="&lt;Compound Path&gt;" class="cls-8" d="M62.53,52.74c-.27,0-.41-.18-.49-.49s.33-.58.57-.74c1.06-.53.83-2.25.83-2.27a1.32,1.32,0,0,1,.92,1.68,2.15,2.15,0,0,1-1.44,1.72,2.44,2.44,0,0,1-.39.1Zm1-3.37a2.06,2.06,0,0,1-.67,2.27c-.43.23-.69.38-.65.56s.19.31.3.31h0l.3,0a2,2,0,0,0,1.33-1.59,1.37,1.37,0,0,0-.61-1.5Z"/></g><path id="_Path_14" data-name="&lt;Path&gt;" class="cls-9" d="M61.81,50.77a.37.37,0,0,1-.41.36.35.35,0,0,1-.37-.36.38.38,0,0,1,.37-.38.41.41,0,0,1,.41.38Z"/><path id="_Path_15" data-name="&lt;Path&gt;" class="cls-7" d="M60.27,52.28c-.23.2-1.54,1.56-.26,2.07,1.33-.39,1-.64,1.25-.92,0-.62-.66-.77-1-1.15Z"/><g id="_Group_9" data-name="&lt;Group&gt;"><path id="_Compound_Path_7" data-name="&lt;Compound Path&gt;" d="M60,54.45l0,0a.88.88,0,0,1-.61-.64c-.09-.63.66-1.4.85-1.58a3.76,3.76,0,0,1,.54.31c.3.23.64.46.64.92l-.16.28c-.1.25-.24.46-1.18.71l0,0Zm.19-2.1c-.1.18-.71.9-.61,1.41,0,.2.15.33.42.46.91-.26,1-.41,1-.59a.41.41,0,0,1,.16-.25c0-.31-.27-.49-.58-.69a3.47,3.47,0,0,1-.42-.34Z"/></g><path id="_Path_16" data-name="&lt;Path&gt;" class="cls-8" d="M63.14,65.15a3.36,3.36,0,0,0,0,2.2c1.14-.46,1.66-.34,2-.08a9.33,9.33,0,0,1-2.08-2.12Z"/><g id="_Group_10" data-name="&lt;Group&gt;"><path id="_Path_17" data-name="&lt;Path&gt;" class="cls-8" d="M63.14,67.5l0-.1A3.35,3.35,0,0,1,63,65.2s0,0,0,0a7.53,7.53,0,0,0,.19,2,2.27,2.27,0,0,1,1.82-.16,5.85,5.85,0,0,1-2-1.83,24.54,24.54,0,0,0,2.26,2,6.25,6.25,0,0,1-.83,0,3.29,3.29,0,0,0-1.24.31l-.09,0Z"/></g><path id="_Path_18" data-name="&lt;Path&gt;" class="cls-9" d="M65.08,70.28l.1,2.56a3.46,3.46,0,0,0,1.28,0c.39-.18,0-1.77-1.38-2.56Z"/><g id="_Group_11" data-name="&lt;Group&gt;"><path id="_Compound_Path_8" data-name="&lt;Compound Path&gt;" class="cls-9" d="M65.93,73a4.13,4.13,0,0,1-.77-.08L65,70.28a2.75,2.75,0,0,1,1.72,2.3c0,.23-.14.31-.2.33a1.2,1.2,0,0,1-.58.11Zm-.54-.23a3.16,3.16,0,0,0,1-.06A2.63,2.63,0,0,0,65,70.38l.24,2.41Z"/></g><path id="_Path_19" data-name="&lt;Path&gt;" class="cls-8" d="M71.53,70.61a9.15,9.15,0,0,0-5.84-5,4.4,4.4,0,0,1-3.27-5.69c.17-.38.31-1,1.52-.38S70.67,62.9,71.45,63s.13,7.69.08,7.58Z"/><g id="_Group_12" data-name="&lt;Group&gt;"><path id="_Compound_Path_9" data-name="&lt;Compound Path&gt;" d="M71.53,70.72l-.12-.08a9.12,9.12,0,0,0-5.74-4.88,4.29,4.29,0,0,1-3.45-3.45,3.53,3.53,0,0,1,.13-2.47c.18-.46.55-.92,1.62-.39l1.39.64c2.07,1,5.53,2.74,6.12,2.84s.44,4.57.29,6.48c-.13,1.31-.13,1.31-.24,1.31ZM63.11,59.4c-.36,0-.44.26-.56.49a3.8,3.8,0,0,0-.1,2.53,4.08,4.08,0,0,0,3.27,3.14,9,9,0,0,1,5.73,4.7c.17-1.33.52-6.31,0-7.05-.64-.18-3.41-1.53-6.23-2.91l-1.38-.64a1.75,1.75,0,0,0-.78-.26Z"/></g><path id="_Path_20" data-name="&lt;Path&gt;" class="cls-7" d="M67.54,65.63c-.06,0,5.57,3.35,3.87,6.18a2.71,2.71,0,0,0,1.11-2.93s1.31,3.45-1.9,5.13c.36.26.58.18.58.18l-.55.59s-.23.38,1.9-.67c-.6.49-.63.85-.63.85s.16.46,1.55-.82A10.56,10.56,0,0,0,72.1,76c3.08-.25,9.73-10.21-2.12-13.17l.55.56Z"/><g id="_Group_13" data-name="&lt;Group&gt;"><path id="_Compound_Path_10" data-name="&lt;Compound Path&gt;" d="M71.91,76.13,72,76l.1,0L72,75.93a5.76,5.76,0,0,1,.8-1.15,1.2,1.2,0,0,1-.73.35H72l-.2-.15c0-.1.06-.46.67-.94a4.05,4.05,0,0,1-1.78.92l-.16-.26.47-.48c-.12.07-.28,0-.47-.16A4,4,0,0,0,72.64,70a2.6,2.6,0,0,1-1.16,1.89c.49-1.22.41-3.11-3.77-6-.26-.23-.26-.23-.26-.29l3-2.35-.56-.38c6.4,1.36,7.06,4.85,6.93,6.8C76.6,73,73.76,76,72.12,76.13Zm1.49-2c-.4.74-.85,1.35-1.09,1.76,1.58-.36,4.1-3.14,4.34-6.18.23-3.22-2.13-5.62-6.69-6.74.71.43.71.43.66.51l-2.91,2.19s.08.06.13.08c3.44,2.4,4.71,4.47,3.66,6.13a3,3,0,0,0,.91-2.94h0a1.3,1.3,0,0,1,.1.18,3.9,3.9,0,0,1-1.88,5c.24,0,.38,0,.46,0v0h0l-.39.69c.14-.08.53-.18,1.8-.82A2.79,2.79,0,0,0,72,75c.2,0,.53-.16,1.37-.87Z"/></g><path id="_Path_21" data-name="&lt;Path&gt;" class="cls-9" d="M67.79,64.66c.78.57,1,.74,1.13,1a4.43,4.43,0,0,0-1.33-.07A18.55,18.55,0,0,0,65.79,64a8.19,8.19,0,0,1-1.38-.74c-.58-.3-1.13-2.32,1-1.76A27.07,27.07,0,0,0,68,62.62c.9.31,1.78.59,2.68.87.5.56,1,1.12,1.53,1.74a32.41,32.41,0,0,0-3.08-1.38,5.08,5.08,0,0,1,1.19,1.43,16.64,16.64,0,0,0-2.55-.62Z"/><g id="_Group_14" data-name="&lt;Group&gt;"><path id="_Path_22" data-name="&lt;Path&gt;" d="M69.09,65.81l-.19,0a4.78,4.78,0,0,0-1.06-.13l-.32,0a18.48,18.48,0,0,0-1.78-1.53h0a6.67,6.67,0,0,1-1.4-.77,1.37,1.37,0,0,1-.54-1.38c.09-.33.53-.84,1.69-.56C67.66,62.42,68,62.54,68,62.54l2.68.82,1.59,1.79c-1.18-.36-2.94-1.2-3.16-1.23a3.22,3.22,0,0,1,1.27,1.33l.11.18-.39-.1a20.15,20.15,0,0,0-2.29-.54l0-.23a17.37,17.37,0,0,1,2.34.56,5.73,5.73,0,0,0-1.06-1.2c.39-.18,2.91,1,3.19,1.2l-.89-.71-.79-.84L68,62.72a19.48,19.48,0,0,1-2.63-1.12c-.73-.2-1.26-.1-1.38.36a1.23,1.23,0,0,0,.46,1.17,6,6,0,0,0,1.32.77,13.32,13.32,0,0,1,1.87,1.56,3.37,3.37,0,0,1,1,.05,6.4,6.4,0,0,0-.86-.67v0c.83.35,1.09.53,1.16.79l.08.2Z"/></g><path id="_Path_23" data-name="&lt;Path&gt;" d="M57.09,52.48a18,18,0,0,1,3-.53Z"/><g id="_Group_15" data-name="&lt;Group&gt;"><path id="_Path_24" data-name="&lt;Path&gt;" class="cls-9" d="M57.11,52.56l0-.18a19.58,19.58,0,0,1,3-.56,23.13,23.13,0,0,1-3,.74Z"/></g></g></g></g></g></g></g></g></svg>