<svg id="Layer_1" data-name="Layer 1" xmlns="http://www.w3.org/2000/svg" xmlns:xlink="http://www.w3.org/1999/xlink" viewBox="0 0 128 128"><defs><style>.cls-1{fill:none;}.cls-2{clip-path:url(#clip-path);}.cls-3{clip-path:url(#clip-path-2);}.cls-4{fill:#fff;}.cls-5{fill:#bd0034;}.cls-6{fill:#1a237b;}</style><clipPath id="clip-path"><circle class="cls-1" cx="64" cy="64" r="64"/></clipPath><clipPath id="clip-path-2"><rect id="_Clipping_Path_" data-name="&lt;Clipping Path&gt;" class="cls-1" x="-45.72" width="219.44" height="128"/></clipPath></defs><title>Flag_circle_United Kingdom</title><g class="cls-2"><g id="UNITED_KINGDOM" data-name="UNITED KINGDOM"><g id="_Group_" data-name="&lt;Group&gt;"><g id="_Clip_Group_" data-name="&lt;Clip Group&gt;"><g class="cls-3"><rect id="_Path_" data-name="&lt;Path&gt;" class="cls-4" x="-45.72" width="219.44" height="128"/><polygon id="_Path_2" data-name="&lt;Path&gt;" class="cls-5" points="101.21 46.28 173.72 5.69 173.72 0 168.72 0 86.05 46.28 101.21 46.28"/><polygon id="_Path_3" data-name="&lt;Path&gt;" class="cls-5" points="97.79 84.29 173.72 126.78 173.72 118.29 112.96 84.29 97.79 84.29"/><polygon id="_Path_4" data-name="&lt;Path&gt;" class="cls-5" points="-45.72 9.74 19.23 46.28 34.41 46.28 -45.72 1.25 -45.72 9.74"/><polygon id="_Path_5" data-name="&lt;Path&gt;" class="cls-5" points="30.97 84.29 -45.72 127.26 -45.72 128 -31.86 128 46.15 84.29 30.97 84.29"/><polygon id="_Path_6" data-name="&lt;Path&gt;" class="cls-6" points="158.7 0 81.87 0 81.87 43.03 158.7 0"/><polygon id="_Path_7" data-name="&lt;Path&gt;" class="cls-6" points="47.95 0 -28.58 0 47.95 43.03 47.95 0"/><polygon id="_Path_8" data-name="&lt;Path&gt;" class="cls-6" points="173.72 46.28 173.72 16.91 121.6 46.28 173.72 46.28"/><polygon id="_Path_9" data-name="&lt;Path&gt;" class="cls-6" points="173.72 113.34 173.72 84.29 121.6 84.29 173.72 113.34"/><polygon id="_Path_10" data-name="&lt;Path&gt;" class="cls-6" points="-24.23 128 47.95 128 47.95 87.55 -24.23 128"/><polygon id="_Path_11" data-name="&lt;Path&gt;" class="cls-6" points="81.87 128 154.28 128 81.87 87.55 81.87 128"/><polygon id="_Path_12" data-name="&lt;Path&gt;" class="cls-6" points="-45.72 84.29 -45.72 114.65 8.21 84.29 -45.72 84.29"/><polygon id="_Path_13" data-name="&lt;Path&gt;" class="cls-6" points="-45.72 46.28 8.21 46.28 -45.72 15.87 -45.72 46.28"/><polygon id="_Path_14" data-name="&lt;Path&gt;" class="cls-5" points="54.73 0 54.73 53.88 -45.72 53.88 -45.72 76.7 54.73 76.7 54.73 128 75.08 128 75.08 76.7 173.72 76.7 173.72 53.88 75.08 53.88 75.08 0 54.73 0"/></g></g></g></g></g></svg>