<svg id="Layer_1" data-name="Layer 1" xmlns="http://www.w3.org/2000/svg" xmlns:xlink="http://www.w3.org/1999/xlink" viewBox="0 0 128 128"><defs><style>.cls-1{fill:none;}.cls-2{clip-path:url(#clip-path);}.cls-3{clip-path:url(#clip-path-2);}.cls-4{fill:#ca2027;}.cls-5{fill:#fff;}.cls-6{fill:#2b3560;}</style><clipPath id="clip-path"><circle class="cls-1" cx="64" cy="64" r="64"/></clipPath><clipPath id="clip-path-2"><rect id="_Clipping_Path_" data-name="&lt;Clipping Path&gt;" class="cls-1" x="-36" width="219.44" height="128"/></clipPath></defs><title>Flag_circle_United States</title><g class="cls-2"><g id="USA"><g id="_Group_" data-name="&lt;Group&gt;"><g id="_Clip_Group_" data-name="&lt;Clip Group&gt;"><g class="cls-3"><rect id="_Path_" data-name="&lt;Path&gt;" class="cls-4" x="-36" y="118.16" width="219.44" height="9.84"/><rect id="_Path_2" data-name="&lt;Path&gt;" class="cls-5" x="-36" y="108.31" width="219.44" height="9.85"/><rect id="_Path_3" data-name="&lt;Path&gt;" class="cls-4" x="-36" y="98.48" width="219.44" height="9.83"/><rect id="_Path_4" data-name="&lt;Path&gt;" class="cls-5" x="-36" y="88.62" width="219.44" height="9.86"/><rect id="_Path_5" data-name="&lt;Path&gt;" class="cls-4" x="-36" y="78.77" width="219.44" height="9.85"/><rect id="_Path_6" data-name="&lt;Path&gt;" class="cls-5" x="-36" y="68.93" width="219.44" height="9.84"/><rect id="_Path_7" data-name="&lt;Path&gt;" class="cls-4" x="-36" y="59.07" width="219.44" height="9.86"/><rect id="_Path_8" data-name="&lt;Path&gt;" class="cls-5" x="-36" y="49.24" width="219.44" height="9.83"/><rect id="_Path_9" data-name="&lt;Path&gt;" class="cls-4" x="-36" y="39.39" width="219.44" height="9.84"/><rect id="_Path_10" data-name="&lt;Path&gt;" class="cls-5" x="-36" y="29.55" width="219.44" height="9.85"/><rect id="_Path_11" data-name="&lt;Path&gt;" class="cls-4" x="-36" y="19.69" width="219.44" height="9.86"/><rect id="_Path_12" data-name="&lt;Path&gt;" class="cls-5" x="-36" y="9.86" width="219.44" height="9.83"/><rect id="_Path_13" data-name="&lt;Path&gt;" class="cls-4" x="-36" width="219.44" height="9.86"/><rect id="_Path_14" data-name="&lt;Path&gt;" class="cls-6" x="-36" width="100.21" height="68.93"/><polygon id="_Path_15" data-name="&lt;Path&gt;" class="cls-5" points="-2.81 13.66 -1.97 16.27 0.79 16.27 -1.45 17.88 -0.59 20.48 -2.81 18.88 -5.02 20.48 -4.17 17.88 -6.4 16.27 -3.66 16.27 -2.81 13.66"/><polygon id="_Path_16" data-name="&lt;Path&gt;" class="cls-5" points="-2.81 25.17 -1.97 27.76 0.79 27.76 -1.45 29.38 -0.59 31.97 -2.81 30.39 -5.02 31.97 -4.17 29.38 -6.4 27.76 -3.66 27.76 -2.81 25.17"/><polygon id="_Path_17" data-name="&lt;Path&gt;" class="cls-5" points="-2.81 36.67 -1.97 39.28 0.79 39.28 -1.45 40.88 -0.59 43.49 -2.81 41.88 -5.02 43.49 -4.17 40.88 -6.4 39.28 -3.66 39.28 -2.81 36.67"/><polygon id="_Path_18" data-name="&lt;Path&gt;" class="cls-5" points="-2.81 48.19 -1.97 50.79 0.79 50.79 -1.45 52.39 -0.59 54.98 -2.81 53.38 -5.02 54.98 -4.17 52.39 -6.4 50.79 -3.66 50.79 -2.81 48.19"/><polygon id="_Path_19" data-name="&lt;Path&gt;" class="cls-5" points="5.31 7.59 6.17 10.22 8.88 10.22 6.66 11.82 7.54 14.43 5.31 12.82 3.09 14.43 3.93 11.82 1.73 10.22 4.46 10.22 5.31 7.59"/><polygon id="_Path_20" data-name="&lt;Path&gt;" class="cls-5" points="5.31 19.1 6.17 21.71 8.88 21.71 6.66 23.31 7.54 25.92 5.31 24.31 3.09 25.92 3.93 23.31 1.73 21.71 4.46 21.71 5.31 19.1"/><polygon id="_Path_21" data-name="&lt;Path&gt;" class="cls-5" points="5.31 30.62 6.17 33.21 8.88 33.21 6.66 34.82 7.54 37.44 5.31 35.82 3.09 37.44 3.93 34.82 1.73 33.21 4.46 33.21 5.31 30.62"/><polygon id="_Path_22" data-name="&lt;Path&gt;" class="cls-5" points="5.31 42.11 6.17 44.72 8.88 44.72 6.66 46.33 7.54 48.93 5.31 47.33 3.09 48.93 3.93 46.33 1.73 44.72 4.46 44.72 5.31 42.11"/><polygon id="_Path_23" data-name="&lt;Path&gt;" class="cls-5" points="5.31 53.62 6.17 56.23 8.88 56.23 6.66 57.83 7.54 60.44 5.31 58.83 3.09 60.44 3.93 57.83 1.73 56.23 4.46 56.23 5.31 53.62"/><polygon id="_Path_24" data-name="&lt;Path&gt;" class="cls-5" points="13.33 13.66 14.17 16.27 16.91 16.27 14.7 17.88 15.52 20.48 13.33 18.88 11.12 20.48 11.95 17.88 9.74 16.27 12.47 16.27 13.33 13.66"/><polygon id="_Path_25" data-name="&lt;Path&gt;" class="cls-5" points="13.33 25.17 14.17 27.76 16.91 27.76 14.7 29.38 15.52 31.97 13.33 30.39 11.12 31.97 11.95 29.38 9.74 27.76 12.47 27.76 13.33 25.17"/><polygon id="_Path_26" data-name="&lt;Path&gt;" class="cls-5" points="13.33 36.67 14.17 39.28 16.91 39.28 14.7 40.88 15.52 43.49 13.33 41.88 11.12 43.49 11.95 40.88 9.74 39.28 12.47 39.28 13.33 36.67"/><polygon id="_Path_27" data-name="&lt;Path&gt;" class="cls-5" points="13.33 48.19 14.17 50.79 16.91 50.79 14.7 52.39 15.52 54.98 13.33 53.38 11.12 54.98 11.95 52.39 9.74 50.79 12.47 50.79 13.33 48.19"/><polygon id="_Path_28" data-name="&lt;Path&gt;" class="cls-5" points="21.42 7.59 22.28 10.22 25.01 10.22 22.8 11.82 23.66 14.43 21.42 12.82 19.23 14.43 20.06 11.82 17.85 10.22 20.58 10.22 21.42 7.59"/><polygon id="_Path_29" data-name="&lt;Path&gt;" class="cls-5" points="21.42 19.1 22.28 21.71 25.01 21.71 22.8 23.31 23.66 25.92 21.42 24.31 19.23 25.92 20.06 23.31 17.85 21.71 20.58 21.71 21.42 19.1"/><polygon id="_Path_30" data-name="&lt;Path&gt;" class="cls-5" points="21.42 30.62 22.28 33.21 25.01 33.21 22.8 34.82 23.66 37.44 21.42 35.82 19.23 37.44 20.06 34.82 17.85 33.21 20.58 33.21 21.42 30.62"/><polygon id="_Path_31" data-name="&lt;Path&gt;" class="cls-5" points="21.42 42.11 22.28 44.72 25.01 44.72 22.8 46.33 23.66 48.93 21.42 47.33 19.23 48.93 20.06 46.33 17.85 44.72 20.58 44.72 21.42 42.11"/><polygon id="_Path_32" data-name="&lt;Path&gt;" class="cls-5" points="21.42 53.62 22.28 56.23 25.01 56.23 22.8 57.83 23.66 60.44 21.42 58.83 19.23 60.44 20.06 57.83 17.85 56.23 20.58 56.23 21.42 53.62"/><polygon id="_Path_33" data-name="&lt;Path&gt;" class="cls-5" points="29.44 13.66 30.29 16.27 33.04 16.27 30.82 17.88 31.66 20.48 29.44 18.88 27.23 20.48 28.09 17.88 25.87 16.27 28.61 16.27 29.44 13.66"/><polygon id="_Path_34" data-name="&lt;Path&gt;" class="cls-5" points="29.44 25.17 30.29 27.76 33.04 27.76 30.82 29.38 31.66 31.97 29.44 30.39 27.23 31.97 28.09 29.38 25.87 27.76 28.61 27.76 29.44 25.17"/><polygon id="_Path_35" data-name="&lt;Path&gt;" class="cls-5" points="29.44 36.67 30.29 39.28 33.04 39.28 30.82 40.88 31.66 43.49 29.44 41.88 27.23 43.49 28.09 40.88 25.87 39.28 28.61 39.28 29.44 36.67"/><polygon id="_Path_36" data-name="&lt;Path&gt;" class="cls-5" points="29.44 48.19 30.29 50.79 33.04 50.79 30.82 52.39 31.66 54.98 29.44 53.38 27.23 54.98 28.09 52.39 25.87 50.79 28.61 50.79 29.44 48.19"/><polygon id="_Path_37" data-name="&lt;Path&gt;" class="cls-5" points="37.56 7.59 38.42 10.22 41.15 10.22 38.95 11.82 39.77 14.43 37.56 12.82 35.37 14.43 36.2 11.82 33.99 10.22 36.72 10.22 37.56 7.59"/><polygon id="_Path_38" data-name="&lt;Path&gt;" class="cls-5" points="37.56 19.1 38.42 21.71 41.15 21.71 38.95 23.31 39.77 25.92 37.56 24.31 35.37 25.92 36.2 23.31 33.99 21.71 36.72 21.71 37.56 19.1"/><polygon id="_Path_39" data-name="&lt;Path&gt;" class="cls-5" points="37.56 30.62 38.42 33.21 41.15 33.21 38.95 34.82 39.77 37.44 37.56 35.82 35.37 37.44 36.2 34.82 33.99 33.21 36.72 33.21 37.56 30.62"/><polygon id="_Path_40" data-name="&lt;Path&gt;" class="cls-5" points="37.56 42.11 38.42 44.72 41.15 44.72 38.95 46.33 39.77 48.93 37.56 47.33 35.37 48.93 36.2 46.33 33.99 44.72 36.72 44.72 37.56 42.11"/><polygon id="_Path_41" data-name="&lt;Path&gt;" class="cls-5" points="37.56 53.62 38.42 56.23 41.15 56.23 38.95 57.83 39.77 60.44 37.56 58.83 35.37 60.44 36.2 57.83 33.99 56.23 36.72 56.23 37.56 53.62"/><polygon id="_Path_42" data-name="&lt;Path&gt;" class="cls-5" points="45.58 13.66 46.41 16.27 49.16 16.27 46.96 17.88 47.78 20.48 45.58 18.88 43.35 20.48 44.2 17.88 42.01 16.27 44.73 16.27 45.58 13.66"/><polygon id="_Path_43" data-name="&lt;Path&gt;" class="cls-5" points="45.58 25.17 46.41 27.76 49.16 27.76 46.96 29.38 47.78 31.97 45.58 30.39 43.35 31.97 44.2 29.38 42.01 27.76 44.73 27.76 45.58 25.17"/><polygon id="_Path_44" data-name="&lt;Path&gt;" class="cls-5" points="45.58 36.67 46.41 39.28 49.16 39.28 46.96 40.88 47.78 43.49 45.58 41.88 43.35 43.49 44.2 40.88 42.01 39.28 44.73 39.28 45.58 36.67"/><polygon id="_Path_45" data-name="&lt;Path&gt;" class="cls-5" points="45.58 48.19 46.41 50.79 49.16 50.79 46.96 52.39 47.78 54.98 45.58 53.38 43.35 54.98 44.2 52.39 42.01 50.79 44.73 50.79 45.58 48.19"/><polygon id="_Path_46" data-name="&lt;Path&gt;" class="cls-5" points="53.68 7.59 54.55 10.22 57.27 10.22 55.06 11.82 55.91 14.43 53.68 12.82 51.48 14.43 52.31 11.82 50.1 10.22 52.84 10.22 53.68 7.59"/><polygon id="_Path_47" data-name="&lt;Path&gt;" class="cls-5" points="53.68 19.1 54.55 21.71 57.27 21.71 55.06 23.31 55.91 25.92 53.68 24.31 51.48 25.92 52.31 23.31 50.1 21.71 52.84 21.71 53.68 19.1"/><polygon id="_Path_48" data-name="&lt;Path&gt;" class="cls-5" points="53.68 30.62 54.55 33.21 57.27 33.21 55.06 34.82 55.91 37.44 53.68 35.82 51.48 37.44 52.31 34.82 50.1 33.21 52.84 33.21 53.68 30.62"/><polygon id="_Path_49" data-name="&lt;Path&gt;" class="cls-5" points="53.68 42.11 54.55 44.72 57.27 44.72 55.06 46.33 55.91 48.93 53.68 47.33 51.48 48.93 52.31 46.33 50.1 44.72 52.84 44.72 53.68 42.11"/><polygon id="_Path_50" data-name="&lt;Path&gt;" class="cls-5" points="53.68 53.62 54.55 56.23 57.27 56.23 55.06 57.83 55.91 60.44 53.68 58.83 51.48 60.44 52.31 57.83 50.1 56.23 52.84 56.23 53.68 53.62"/></g></g></g></g></g></svg>