<svg id="Layer_1" data-name="Layer 1" xmlns="http://www.w3.org/2000/svg" xmlns:xlink="http://www.w3.org/1999/xlink" viewBox="0 0 128 128"><defs><style>.cls-1{fill:none;}.cls-2{clip-path:url(#clip-path);}.cls-3{clip-path:url(#clip-path-2);}.cls-4{fill:#fff;}.cls-5{fill:#1e429a;}.cls-6{fill:#e8bf22;}.cls-6,.cls-8{fill-rule:evenodd;}.cls-7,.cls-8{fill:#292c2f;}</style><clipPath id="clip-path"><circle class="cls-1" cx="64" cy="64" r="64"/></clipPath><clipPath id="clip-path-2"><rect id="_Clipping_Path_" data-name="&lt;Clipping Path&gt;" class="cls-1" x="-8" width="219.45" height="128"/></clipPath></defs><title>Flag_circle_Uruguay</title><g class="cls-2"><g id="_Group_" data-name="&lt;Group&gt;"><g id="_Group_2" data-name="&lt;Group&gt;"><g id="_Clip_Group_" data-name="&lt;Clip Group&gt;"><g class="cls-3"><rect id="_Path_" data-name="&lt;Path&gt;" class="cls-4" x="-8" width="219.45" height="128"/><path id="_Compound_Path_" data-name="&lt;Compound Path&gt;" class="cls-5" d="M-8,113.77H211.45V99.55H-8Zm0-28.43H211.45V71.1H-8ZM63.14,56.88H211.45V42.66H63.14Zm0-28.45H211.45V14.22H63.14Z"/><g id="_Clip_Group_2" data-name="&lt;Clip Group&gt;"><g class="cls-3"><path id="_Path_2" data-name="&lt;Path&gt;" class="cls-6" d="M27.67,35.66l.63,10.5c-9.7,7-3.71,11.14-10.73,13.41,4.74-4.74-1.44-4.74,3.91-15.47"/><path id="_Compound_Path_2" data-name="&lt;Compound Path&gt;" class="cls-7" d="M27.89,35.66l.61,10.5h-.42l-.82-10.5Zm.61,10.5h0v.22l-.2-.22Zm0,.22C23.34,50.08,22.72,53,22.11,55h-.63c.63-2.27,1.45-5.36,6.6-9.08ZM22.11,55c-.63,2.26-1,3.7-4.33,4.74l-.21-.43c3.1-1,3.51-2.47,3.91-4.31Zm-4.33,4.74-1,.4.63-.61h.2Zm-.41-.21c2.06-2.27,2.06-3.51,1.64-5.16h.62c.21,1.65.41,3.09-1.85,5.37ZM19,54.41c-.21-2.06-.61-4.73,2.28-10.31l.41.21c-2.69,5.57-2.47,8-2.07,10.1Z"/><path id="_Compound_Path_3" data-name="&lt;Compound Path&gt;" class="cls-7" d="M24.37,43.69A23.39,23.39,0,0,0,21.08,54l-.62-.2A28.27,28.27,0,0,1,24,43.49ZM21.08,54c-.41,2.69-.83,4.74-3.3,5.78l-.21-.43c2.27-1,2.47-2.89,2.89-5.55Z"/><path id="_Path_3" data-name="&lt;Path&gt;" class="cls-6" d="M27.67,35.66l-.82-10.73c9.69-7,3.72-11.14,10.73-13.39C33,16.49,39,16.49,33.66,27"/><path id="_Compound_Path_4" data-name="&lt;Compound Path&gt;" class="cls-7" d="M27.26,35.66l-.61-10.52.41-.21.83,10.73Zm-.61-10.52v-.21h.2Zm0-.21c5.14-3.71,6-6.58,6.37-8.85l.64.2c-.64,2.26-1.45,5.15-6.6,8.86ZM33,16.08c.64-2.07,1-3.72,4.35-4.75l.21.41c-3.11,1-3.52,2.48-3.92,4.54Zm4.35-4.75,1-.21-.63.62-.19-.2Zm.4.41c-2.06,2.27-2.06,3.3-1.64,5l-.62.2c-.21-1.86-.42-3.1,1.86-5.57Zm-1.64,5c.19,2.05.62,4.73-2.28,10.5l-.4-.2c2.68-5.57,2.47-8.25,2.06-10.1Z"/><path id="_Compound_Path_5" data-name="&lt;Compound Path&gt;" class="cls-7" d="M30.77,27.4a28,28,0,0,0,3.5-10.1h.41a27.25,27.25,0,0,1-3.5,10.32Zm3.5-10.1c.41-2.87.62-4.73,3.1-6l.21.41c-2.28,1-2.49,2.89-2.9,5.56Z"/><path id="_Path_4" data-name="&lt;Path&gt;" class="cls-6" d="M27.67,35.66,17,36.27c-7-9.68-11.13-3.71-13.4-10.72,5,4.75,4.74-1.24,15.46,3.92"/><path id="_Compound_Path_6" data-name="&lt;Compound Path&gt;" class="cls-7" d="M27.67,35.86,17,36.68v-.62l10.52-.62ZM17,36.68h0l-.21-.2.21-.21Zm-.21-.2c-3.5-5.16-6.38-5.77-8.65-6.39v-.42c2.47.63,5.36,1.24,9.07,6.6ZM8.09,30.09c-2.06-.62-3.72-1-4.74-4.32l.4-.22c1,3.09,2.48,3.51,4.34,4.12ZM3.35,25.77l-.41-.84.81.62h-.2Zm.4-.22c2.28,2.07,3.31,1.85,5,1.65l.2.42c-1.85.21-3.09.41-5.56-1.85Zm5,1.65c2-.41,4.74-.82,10.52,2.06l-.43.41c-5.56-2.67-8-2.27-9.89-2.05Z"/><path id="_Compound_Path_7" data-name="&lt;Compound Path&gt;" class="cls-7" d="M19.43,32.56a24.37,24.37,0,0,0-10.11-3.5v-.63a25.34,25.34,0,0,1,10.31,3.71ZM9.32,29.06c-2.89-.42-4.74-.82-6-3.29l.4-.22c1,2.28,2.89,2.69,5.57,2.88Z"/><path id="_Path_5" data-name="&lt;Path&gt;" class="cls-6" d="M27.67,35.66l10.53-.83c7,9.69,11.12,3.91,13.38,10.72C46.64,41,46.84,47,36.13,41.62"/><path id="_Compound_Path_8" data-name="&lt;Compound Path&gt;" class="cls-7" d="M27.47,35.44l10.73-.82V35l-10.53.83Zm10.73-.82h.2l-.2.21Zm.2,0c3.5,5.16,6.39,6,8.65,6.6v.4C44.58,41,41.69,40.19,38,35Zm8.65,6.6c2.06.4,3.72.82,4.75,4.33h-.41c-1-3.1-2.48-3.51-4.34-3.93Zm4.75,4.33.4.83-.81-.62.19-.21Zm-.41.21c-2.07-2.07-3.3-1.87-5-1.66l-.2-.41c1.86-.41,3.09-.61,5.57,1.64Zm-5-1.66c-2,.21-4.74.62-10.3-2.26l.19-.41c5.58,2.88,8.06,2.46,9.91,2.26Z"/><path id="_Compound_Path_9" data-name="&lt;Compound Path&gt;" class="cls-7" d="M35.71,38.74A27.43,27.43,0,0,0,46,42.25l-.2.41a25,25,0,0,1-10.31-3.5ZM46,42.25c2.68.41,4.54.61,5.78,3.3l-.41.21c-1-2.48-2.89-2.68-5.57-3.1Z"/><path id="_Path_6" data-name="&lt;Path&gt;" class="cls-6" d="M27.67,35.66l-7,8C8.71,41.62,10,48.86,3.55,45.55c6.81-.22,2.48-4.33,13.61-8.25"/><path id="_Compound_Path_10" data-name="&lt;Compound Path&gt;" class="cls-7" d="M27.67,35.66l-6.8,8-.41-.2,7-8.05Zm-6.8,8-.2.2v-.2Zm-.2.2c-6.19-1-8.87.42-10.72,1.66l-.42-.41c2.05-1.25,4.74-2.89,11.14-1.86ZM10,45.55c-1.86,1-3.31,1.85-6.6.21l.2-.43c3.09,1.45,4.33.83,6-.19Zm-6.6.21-.83-.43h1v.22Zm.2-.43c3.09-.19,3.71-1,4.74-2.47l.42.42c-1,1.44-1.87,2.48-5.16,2.48Zm4.74-2.47c1.24-1.64,2.88-3.7,8.87-5.77l.21.42c-6,2.06-7.64,4.11-8.66,5.77Z"/><path id="_Compound_Path_11" data-name="&lt;Compound Path&gt;" class="cls-7" d="M19.63,39.16A26,26,0,0,0,10,43.89l-.22-.4a26.21,26.21,0,0,1,9.7-4.75ZM10,43.89c-2.28,1.66-3.72,2.89-6.4,1.87v-.43c2.48.83,3.91-.19,6.18-1.84Z"/><path id="_Path_7" data-name="&lt;Path&gt;" class="cls-6" d="M27.67,35.66l6.8-8c12,1.85,10.72-5.37,17.11-2.07-6.79.22-2.47,4.54-13.6,8.25"/><path id="_Compound_Path_12" data-name="&lt;Compound Path&gt;" class="cls-7" d="M27.47,35.44l6.8-8,.41.43-7,7.83Zm6.8-8h.2v.22Zm.2,0c6.19,1,8.88-.61,10.72-1.63l.41.4c-2,1.23-4.73,2.68-11.13,1.66Zm10.72-1.63c2.07-1.24,3.31-1.86,6.61-.41l-.22.41c-3.08-1.46-4.32-.63-6,.4Zm6.61-.41.83.41L51.58,26v-.41Zm-.22.6c-3.08,0-3.7,1-4.74,2.28L46.43,28c1.25-1.44,1.87-2.48,5.15-2.67Zm-4.74,2.28C45.6,29.88,44,31.94,38,34l-.21-.42c6-1.86,7.64-4.12,8.66-5.56Z"/><path id="_Compound_Path_13" data-name="&lt;Compound Path&gt;" class="cls-7" d="M35.51,31.94a20.94,20.94,0,0,0,9.68-4.74l.22.42a23.37,23.37,0,0,1-9.7,4.94Zm9.68-4.74c2.28-1.65,3.92-2.67,6.39-1.84v.41c-2.47-.84-3.9.4-6.17,1.85Z"/><path id="_Path_8" data-name="&lt;Path&gt;" class="cls-6" d="M27.67,35.66l-8-7c1.85-11.94-5.36-10.71-2.06-17.1.21,6.81,4.54,2.48,8.25,13.6"/><path id="_Compound_Path_14" data-name="&lt;Compound Path&gt;" class="cls-7" d="M27.47,35.86l-8-7,.41-.42,7.83,7Zm-8-7h0v-.21h.2Zm0-.21c.82-6.18-.63-8.86-1.65-10.71l.4-.2c1.05,2.05,2.69,4.52,1.66,10.91ZM17.78,17.93c-1.24-1.85-2.07-3.3-.41-6.39l.41.2c-1.45,2.89-.62,4.13.4,6Zm-.41-6.39.41-.83v.83h-.41Zm.41,0c.21,3.09,1,3.71,2.47,4.74L20,16.7c-1.44-1-2.47-1.86-2.67-5.16Zm2.47,4.74C21.9,17.51,24,19.17,26,25.14l-.41.22c-2.06-6-4.13-7.43-5.57-8.66Z"/><path id="_Compound_Path_15" data-name="&lt;Compound Path&gt;" class="cls-7" d="M24,27.62a21.24,21.24,0,0,0-4.74-9.69l.4-.2a22.81,22.81,0,0,1,5,9.89Zm-4.74-9.69c-1.66-2.27-2.69-3.71-1.86-6.39h.41C17,14,18,15.46,19.63,17.73Z"/><path id="_Path_9" data-name="&lt;Path&gt;" class="cls-6" d="M27.67,35.66l7.84,6.79c-1.85,12,5.36,10.72,2.07,17.12C37.37,53,33,57.3,29.33,46"/><path id="_Compound_Path_16" data-name="&lt;Compound Path&gt;" class="cls-7" d="M27.67,35.44l8,6.81-.2.41-8-6.8Zm8,6.81.21.2-.21.21-.2-.21Zm0,.41c-.82,6.2.61,8.66,1.66,10.72l-.43.21c-1-2.06-2.67-4.73-1.64-11.14Zm1.66,10.72c1.23,1.86,2.06,3.31.4,6.4l-.4-.21c1.44-2.88.61-4.33-.43-6Zm.4,6.4-.4.82v-1h.21Zm-.4-.21c-.22-2.88-1-3.71-2.48-4.74l.2-.21c1.45,1,2.49,1.64,2.68,5Zm-2.48-4.74c-1.65-1-3.71-2.69-5.77-8.87h.41c2.06,5.77,4.13,7.42,5.56,8.66Z"/><path id="_Compound_Path_17" data-name="&lt;Compound Path&gt;" class="cls-7" d="M31.18,43.49a23.28,23.28,0,0,0,4.74,9.68l-.41.42a23,23,0,0,1-4.74-9.9Zm4.74,9.68c1.66,2.28,2.68,3.92,1.85,6.61l-.4-.21c.83-2.48-.22-3.92-1.86-6Z"/><polyline id="_Path_10" data-name="&lt;Path&gt;" class="cls-6" points="27.67 35.66 32.21 35.66 27.67 61.63 22.93 35.66 27.67 35.66 27.67 61.63"/><path id="_Compound_Path_18" data-name="&lt;Compound Path&gt;" class="cls-7" d="M27.67,35.44h4.54v.42H27.67Zm4.54,0h.4v.22h-.4Zm.4.22-4.72,26h-.63l4.74-26Zm-4.72,26-.22,1.24-.41-1.24h.63Zm-.63,0-4.73-26h.61l4.75,26ZM22.53,35.44h.4v.22h-.4Zm.4,0h4.74v.42H22.93Zm4.74,0h.22v.22h-.22Zm.22,26.19h-.63v-26h.63Z"/><polyline id="_Path_11" data-name="&lt;Path&gt;" class="cls-6" points="27.67 35.66 22.93 35.66 27.67 9.47 32.21 35.66 27.67 35.66 27.67 9.47"/><path id="_Compound_Path_19" data-name="&lt;Compound Path&gt;" class="cls-7" d="M27.67,35.86H22.93v-.42h4.74Zm-4.74,0h-.4v-.2h.4Zm-.4-.2L27.26,9.48l.63.21-4.75,26ZM27.26,9.48l.41-1.24.22,1.24h-.63Zm.63,0,4.72,26.18H32l-4.74-26Zm4.72,26.38h-.4v-.2h.4Zm-.4,0H27.67v-.42h4.54Zm-4.54,0h-.41v-.2h.41ZM27.26,9.48h.63V35.66h-.63Z"/><polyline id="_Path_12" data-name="&lt;Path&gt;" class="cls-6" points="27.67 35.66 27.67 40.39 1.49 35.66 27.67 30.91 27.67 35.66 1.49 35.66"/><path id="_Compound_Path_20" data-name="&lt;Compound Path&gt;" class="cls-7" d="M27.89,40.39h-.63V35.66h.63Zm0,0v.21h-.42l.2-.21Zm-.42.21-26-4.74.21-.42,26,4.75Zm-26-4.74-1.25-.2,1.25-.22v.42Zm0-.42,26-4.73.2.41-26,4.74Zm26-4.73.42-.22v.42h-.22Zm.42,4.95h-.63V30.91h.63Zm0,.2h-.22v-.2h.22Zm-.22,0H1.49v-.42H27.67Z"/><polyline id="_Path_13" data-name="&lt;Path&gt;" class="cls-6" points="27.67 35.66 27.67 30.91 53.65 35.66 27.67 40.39 27.67 35.66 53.65 35.66"/><path id="_Compound_Path_21" data-name="&lt;Compound Path&gt;" class="cls-7" d="M27.26,30.91h.63v4.75h-.63Zm0,0v-.42l.41.22v.2Zm.41-.2,26,4.73-.2.42-26-4.74Zm26,4.73,1.25.22-1.25.2v-.42Zm0,.42-26,4.74-.2-.41,26-4.75Zm-26,4.74h-.41v-.21h.41Zm-.41-4.94h.63v4.73h-.63Zm0-.22h.41v.22h-.41Zm.41,0h26v.42h-26Z"/><polyline id="_Path_14" data-name="&lt;Path&gt;" class="cls-6" points="27.67 35.66 30.97 38.95 9.12 54 24.17 32.14 27.67 35.66 9.12 54"/><path id="_Compound_Path_22" data-name="&lt;Compound Path&gt;" class="cls-7" d="M27.67,35.44l3.51,3.3-.41.42-3.3-3.3Zm3.51,3.3.2.21-.41.21V39Zm-.21.42L9.32,54.2l-.2-.4L30.77,38.74ZM9.32,54.2l-1,.84.62-1.24.21.2Zm-.41-.4L24,32.14l.4.21L9.32,54.2ZM24,32.14l.2-.2.2.2H24Zm.4,0,3.3,3.3-.2.42L24,32.35Zm3.3,3.3.22.22-.22.2v-.42Zm0,.42L9.32,54.2l-.2-.4L27.47,35.44Z"/><polyline id="_Path_15" data-name="&lt;Path&gt;" class="cls-6" points="27.67 35.66 24.17 32.14 46.02 17.11 30.97 38.95 27.67 35.66 46.02 17.11"/><path id="_Compound_Path_23" data-name="&lt;Compound Path&gt;" class="cls-7" d="M27.47,35.86,24,32.35l.4-.21,3.3,3.3ZM24,32.35v-.21h.2Zm.2-.21L45.82,16.9l.2.4L24.37,32.35ZM45.82,16.9l1-.62-.61,1L46,17.11Zm.41.4-15,21.86-.41-.42L45.82,17.11Zm-15,21.86-.21.22-.2-.22L31,39Zm-.41,0-3.3-3.3.2-.42,3.51,3.3Zm-3.3-3.3-.21-.2.21-.22.2.22Zm0-.42L45.82,17.11l.41.19L27.67,35.86Z"/><polyline id="_Path_16" data-name="&lt;Path&gt;" class="cls-6" points="27.67 35.66 24.17 38.95 9.12 17.11 30.97 32.14 27.67 35.66 9.12 17.11"/><path id="_Compound_Path_24" data-name="&lt;Compound Path&gt;" class="cls-7" d="M27.67,35.86l-3.3,3.3-.4-.42,3.5-3.3Zm-3.3,3.3-.2.22-.2-.22.2-.21Zm-.4,0L8.91,17.3l.41-.19L24.37,38.74ZM8.91,17.3l-.62-1,1,.62-.2.21Zm.41-.4L31,32.14l-.2.21L9.12,17.3ZM31,32.14h.41l-.2.21Zm.21.21-3.51,3.51-.2-.42,3.3-3.3Zm-3.51,3.51h-.2l.2-.2Zm-.2,0L9.12,17.3l.2-.19L27.67,35.44Z"/><polyline id="_Path_17" data-name="&lt;Path&gt;" class="cls-6" points="27.67 35.66 30.97 32.14 46.02 54 24.17 38.95 27.67 35.66 46.02 54"/><path id="_Compound_Path_25" data-name="&lt;Compound Path&gt;" class="cls-7" d="M27.47,35.44l3.3-3.3.41.21-3.51,3.51Zm3.3-3.3.2-.2.21.2h-.41Zm.41,0,15,21.66-.41.4-15-21.85Zm15,21.66L46.84,55l-1-.84L46,54Zm-.41.4-21.65-15,.2-.42L46,53.8Zm-21.65-15L24,39v-.21l.2.21Zm-.2-.42,3.5-3.3.2.42-3.3,3.3Zm3.5-3.3.2-.2v.42Zm.2,0L46.23,53.8l-.41.4L27.47,35.86Z"/><path id="_Path_18" data-name="&lt;Path&gt;" class="cls-6" d="M36.32,35.66A8.57,8.57,0,0,0,27.67,27a8.63,8.63,0,0,0-8.87,8.66,8.76,8.76,0,0,0,17.52,0"/><path id="_Compound_Path_26" data-name="&lt;Compound Path&gt;" class="cls-7" d="M35.92,35.66a7.69,7.69,0,0,0-2.47-6l.4-.41a9,9,0,0,1,2.69,6.4Zm-2.47-6a7.52,7.52,0,0,0-5.78-2.47v-.61a8.92,8.92,0,0,1,6.18,2.67ZM27.67,27.2a7.62,7.62,0,0,0-6,2.47l-.41-.41a9,9,0,0,1,6.38-2.67Zm-6,2.47a7.63,7.63,0,0,0-2.47,6H18.6a9,9,0,0,1,2.69-6.4Zm-2.47,6a8.17,8.17,0,0,0,2.47,6l-.41.22a8.53,8.53,0,0,1-2.69-6.18Zm2.47,6a8.28,8.28,0,0,0,6,2.48v.42a9,9,0,0,1-6.38-2.68Zm6,2.48a8.21,8.21,0,0,0,5.78-2.48l.4.22a8.88,8.88,0,0,1-6.18,2.68Zm5.78-2.48a8.25,8.25,0,0,0,2.47-6h.62a8.53,8.53,0,0,1-2.69,6.18Z"/><path id="_Path_19" data-name="&lt;Path&gt;" class="cls-8" d="M33.85,32.14c-.4.63-.83-.41-2.67-.41-2.06,0-2.27,1-2.68.83-.2-.21,1.64-1.65,2.27-1.65a4,4,0,0,1,3.08,1.23"/><path id="_Path_20" data-name="&lt;Path&gt;" class="cls-8" d="M31.59,32.77c.62.62.2,1.66-.41,1.66s-1.65-1-1-1.66"/><path id="_Path_21" data-name="&lt;Path&gt;" class="cls-8" d="M29.12,33.59c0-1,.83-1.24,2.06-1.24s1.84,1,2.27,1.24c-.43,0-1-.82-2.27-.82s-1.23,0-2.06.82"/><path id="_Path_22" data-name="&lt;Path&gt;" class="cls-8" d="M29.33,33.8c.2-.41.62.41,1.64.41a2.86,2.86,0,0,0,1.86-.62c.41-.4-.83,1-1.65,1s-2.06-.61-1.85-.82"/><path id="_Path_23" data-name="&lt;Path&gt;" class="cls-8" d="M32,34.21c1-.41.41-1.24,0-1.44.21.2.83,1,0,1.44"/><path id="_Path_24" data-name="&lt;Path&gt;" class="cls-8" d="M27.67,39c.41,0,.63-.21,1.24-.21s2.06,1,2.88.64c-1.84.81-1,.19-4.12.19h-.41"/><path id="_Path_25" data-name="&lt;Path&gt;" class="cls-8" d="M32.21,40.19a12,12,0,0,0-1-1.45,2.21,2.21,0,0,1,1,1.45"/><path id="_Path_26" data-name="&lt;Path&gt;" class="cls-8" d="M27.67,40.8c1.86,0,1.66-.41,4.12-1.42-1.84.19-2.26.81-4.12.81h-.41"/><path id="_Path_27" data-name="&lt;Path&gt;" class="cls-8" d="M27.67,37.92c.41,0,.63-.41,1.24-.41a2.9,2.9,0,0,1,1.86.62c.2,0-.2-.62-.82-.62-.62-.21-.42-1.24-1-1.45,0,.42.21.42.21.84s-.62.4-.82,0c.2.61-.41.61-.63.61"/><path id="_Path_28" data-name="&lt;Path&gt;" class="cls-8" d="M21.29,32.14c.41.63.82-.41,2.68-.41,2.05,0,2.26,1,2.68.83.2-.21-1.65-1.65-2.28-1.65a4,4,0,0,0-3.08,1.23"/><path id="_Path_29" data-name="&lt;Path&gt;" class="cls-8" d="M23.55,32.77c-.62.62-.21,1.66.42,1.66s1.64-1,1-1.66"/><path id="_Path_30" data-name="&lt;Path&gt;" class="cls-8" d="M26,33.59c0-1-.83-1.24-2.05-1.24s-1.86,1-2.27,1.24c.61,0,1-.82,2.27-.82s1.22,0,2.05.82"/><path id="_Path_31" data-name="&lt;Path&gt;" class="cls-8" d="M25.82,33.8c-.21-.41-.63.41-1.65.41a2.84,2.84,0,0,1-1.86-.62c-.41-.4.83,1,1.66,1,1,0,2.05-.61,1.85-.82"/><path id="_Path_32" data-name="&lt;Path&gt;" class="cls-8" d="M23.14,34.21c-1-.41-.42-1.24,0-1.44-.21.2-.83,1,0,1.44"/><path id="_Path_33" data-name="&lt;Path&gt;" class="cls-8" d="M27.67,39c-.61,0-.82-.21-1.44-.21s-2.06,1-2.89.64c1.85.81,1,.19,4.33.19h.22"/><path id="_Path_34" data-name="&lt;Path&gt;" class="cls-8" d="M22.93,40.19a15.46,15.46,0,0,0,1-1.45,3.24,3.24,0,0,0-1,1.45"/><path id="_Path_35" data-name="&lt;Path&gt;" class="cls-8" d="M27.67,40.8c-2.06,0-1.65-.41-4.33-1.42,1.85.19,2.27.81,4.33.81h.22"/><path id="_Path_36" data-name="&lt;Path&gt;" class="cls-8" d="M27.67,37.92c-.61,0-.82-.41-1.44-.41a2.9,2.9,0,0,0-1.86.62c-.2,0,.22-.62.82-.62.63-.21.42-1.24,1-1.45,0,.42-.21.42-.21.84s.63.4.83,0c-.2.61.41.61.82.61"/><path id="_Path_37" data-name="&lt;Path&gt;" class="cls-8" d="M27.67,41.62c-.41,0-1.44.22,0,.22,1.24,0,.22-.22,0-.22"/></g></g></g></g></g></g></g></svg>