<svg id="Layer_1" data-name="Layer 1" xmlns="http://www.w3.org/2000/svg" xmlns:xlink="http://www.w3.org/1999/xlink" viewBox="0 0 128 128"><defs><style>.cls-1{fill:none;}.cls-2{clip-path:url(#clip-path);}.cls-3{clip-path:url(#clip-path-2);}.cls-4{fill:#4495af;}.cls-5{fill:#bc1f33;}.cls-6{fill:#fff;}.cls-7{fill:#4fb548;}</style><clipPath id="clip-path"><circle class="cls-1" cx="64" cy="64" r="64"/></clipPath><clipPath id="clip-path-2"><rect id="_Clipping_Path_" data-name="&lt;Clipping Path&gt;" class="cls-1" x="-48.69" width="219.38" height="128"/></clipPath></defs><title>Flag_circle_Uzbekistan</title><g class="cls-2"><g id="UZBEKISTAN"><g id="_Group_" data-name="&lt;Group&gt;"><g id="_Clip_Group_" data-name="&lt;Clip Group&gt;"><g class="cls-3"><rect id="_Path_" data-name="&lt;Path&gt;" class="cls-4" x="-48.69" width="219.38" height="40.98"/><rect id="_Path_2" data-name="&lt;Path&gt;" class="cls-5" x="-48.69" y="40.98" width="219.38" height="2.55"/><rect id="_Path_3" data-name="&lt;Path&gt;" class="cls-6" x="-48.69" y="43.54" width="219.38" height="40.96"/><rect id="_Path_4" data-name="&lt;Path&gt;" class="cls-5" x="-48.69" y="84.49" width="219.38" height="2.55"/><rect id="_Path_5" data-name="&lt;Path&gt;" class="cls-7" x="-48.69" y="87.04" width="219.38" height="40.96"/><g id="_Clip_Group_2" data-name="&lt;Clip Group&gt;"><g class="cls-3"><path id="_Path_6" data-name="&lt;Path&gt;" class="cls-6" d="M2.5,20.5A15.35,15.35,0,0,1-12.86,35.82,15.34,15.34,0,0,1-28.21,20.5,15.38,15.38,0,0,1-12.86,5.13,15.39,15.39,0,0,1,2.5,20.5"/><path id="_Path_7" data-name="&lt;Path&gt;" class="cls-4" d="M6.84,20.5A12.78,12.78,0,0,1-5.94,33.27,12.79,12.79,0,0,1-18.74,20.5,12.81,12.81,0,0,1-5.94,7.69,12.8,12.8,0,0,1,6.84,20.5"/><polygon id="_Path_8" data-name="&lt;Path&gt;" class="cls-6" points="26.05 5.13 25.1 8.07 26.55 8.53 26.05 5.13"/><polygon id="_Path_9" data-name="&lt;Path&gt;" class="cls-6" points="26.05 5.13 27 8.07 25.53 8.53 26.05 5.13"/><polygon id="_Path_10" data-name="&lt;Path&gt;" class="cls-6" points="28.98 7.25 25.89 7.25 25.89 8.81 28.98 7.25"/><polygon id="_Path_11" data-name="&lt;Path&gt;" class="cls-6" points="28.98 7.25 26.47 9.06 25.59 7.81 28.98 7.25"/><polygon id="_Path_12" data-name="&lt;Path&gt;" class="cls-6" points="23.13 7.25 25.61 9.06 26.52 7.81 23.13 7.25"/><polygon id="_Path_13" data-name="&lt;Path&gt;" class="cls-6" points="23.13 7.25 26.21 7.25 26.21 8.81 23.13 7.25"/><polygon id="_Path_14" data-name="&lt;Path&gt;" class="cls-6" points="27.84 10.7 26.91 7.76 25.44 8.22 27.84 10.7"/><polygon id="_Path_15" data-name="&lt;Path&gt;" class="cls-6" points="27.84 10.7 25.38 8.89 26.26 7.63 27.84 10.7"/><polygon id="_Path_16" data-name="&lt;Path&gt;" class="cls-6" points="24.23 10.7 26.73 8.89 25.83 7.63 24.23 10.7"/><polygon id="_Path_17" data-name="&lt;Path&gt;" class="cls-6" points="24.23 10.7 25.19 7.76 26.64 8.22 24.23 10.7"/><polygon id="_Path_18" data-name="&lt;Path&gt;" class="cls-6" points="38.34 5.13 37.38 8.07 38.85 8.53 38.34 5.13"/><polygon id="_Path_19" data-name="&lt;Path&gt;" class="cls-6" points="38.34 5.13 39.27 8.07 37.82 8.53 38.34 5.13"/><polygon id="_Path_20" data-name="&lt;Path&gt;" class="cls-6" points="41.25 7.25 38.17 7.25 38.17 8.81 41.25 7.25"/><polygon id="_Path_21" data-name="&lt;Path&gt;" class="cls-6" points="41.25 7.25 38.76 9.06 37.85 7.81 41.25 7.25"/><polygon id="_Path_22" data-name="&lt;Path&gt;" class="cls-6" points="35.41 7.25 37.89 9.06 38.8 7.81 35.41 7.25"/><polygon id="_Path_23" data-name="&lt;Path&gt;" class="cls-6" points="35.41 7.25 38.47 7.25 38.47 8.81 35.41 7.25"/><polygon id="_Path_24" data-name="&lt;Path&gt;" class="cls-6" points="40.13 10.7 39.18 7.76 37.74 8.22 40.13 10.7"/><polygon id="_Path_25" data-name="&lt;Path&gt;" class="cls-6" points="40.13 10.7 37.65 8.89 38.56 7.63 40.13 10.7"/><polygon id="_Path_26" data-name="&lt;Path&gt;" class="cls-6" points="36.51 10.7 39.02 8.89 38.1 7.63 36.51 10.7"/><polygon id="_Path_27" data-name="&lt;Path&gt;" class="cls-6" points="36.51 10.7 37.47 7.76 38.94 8.22 36.51 10.7"/><polygon id="_Path_28" data-name="&lt;Path&gt;" class="cls-6" points="50.63 5.13 49.68 8.07 51.12 8.53 50.63 5.13"/><polygon id="_Path_29" data-name="&lt;Path&gt;" class="cls-6" points="50.63 5.13 51.58 8.07 50.1 8.53 50.63 5.13"/><polygon id="_Path_30" data-name="&lt;Path&gt;" class="cls-6" points="53.54 7.25 50.48 7.25 50.48 8.81 53.54 7.25"/><polygon id="_Path_31" data-name="&lt;Path&gt;" class="cls-6" points="53.54 7.25 51.05 9.06 50.15 7.81 53.54 7.25"/><polygon id="_Path_32" data-name="&lt;Path&gt;" class="cls-6" points="47.7 7.25 50.17 9.06 51.09 7.81 47.7 7.25"/><polygon id="_Path_33" data-name="&lt;Path&gt;" class="cls-6" points="47.7 7.25 50.76 7.25 50.76 8.81 47.7 7.25"/><polygon id="_Path_34" data-name="&lt;Path&gt;" class="cls-6" points="52.42 10.7 51.46 7.76 50.01 8.22 52.42 10.7"/><polygon id="_Path_35" data-name="&lt;Path&gt;" class="cls-6" points="52.42 10.7 49.94 8.89 50.83 7.63 52.42 10.7"/><polygon id="_Path_36" data-name="&lt;Path&gt;" class="cls-6" points="48.82 10.7 51.3 8.89 50.4 7.63 48.82 10.7"/><polygon id="_Path_37" data-name="&lt;Path&gt;" class="cls-6" points="48.82 10.7 49.77 7.76 51.23 8.22 48.82 10.7"/><polygon id="_Path_38" data-name="&lt;Path&gt;" class="cls-6" points="13.76 17.41 12.8 20.32 14.26 20.81 13.76 17.41"/><polygon id="_Path_39" data-name="&lt;Path&gt;" class="cls-6" points="13.76 17.41 14.71 20.32 13.25 20.81 13.76 17.41"/><polygon id="_Path_40" data-name="&lt;Path&gt;" class="cls-6" points="16.67 19.53 13.61 19.53 13.61 21.07 16.67 19.53"/><polygon id="_Path_41" data-name="&lt;Path&gt;" class="cls-6" points="16.67 19.53 14.2 21.32 13.29 20.09 16.67 19.53"/><polygon id="_Path_42" data-name="&lt;Path&gt;" class="cls-6" points="10.84 19.53 13.33 21.32 14.22 20.09 10.84 19.53"/><polygon id="_Path_43" data-name="&lt;Path&gt;" class="cls-6" points="10.84 19.53 13.92 19.53 13.92 21.07 10.84 19.53"/><polygon id="_Path_44" data-name="&lt;Path&gt;" class="cls-6" points="15.55 22.95 14.62 20.04 13.16 20.53 15.55 22.95"/><polygon id="_Path_45" data-name="&lt;Path&gt;" class="cls-6" points="15.55 22.95 13.09 21.17 13.98 19.94 15.55 22.95"/><polygon id="_Path_46" data-name="&lt;Path&gt;" class="cls-6" points="11.95 22.95 14.44 21.17 13.53 19.94 11.95 22.95"/><polygon id="_Path_47" data-name="&lt;Path&gt;" class="cls-6" points="11.95 22.95 12.89 20.04 14.36 20.53 11.95 22.95"/><polygon id="_Path_48" data-name="&lt;Path&gt;" class="cls-6" points="26.05 17.41 25.1 20.32 26.55 20.81 26.05 17.41"/><polygon id="_Path_49" data-name="&lt;Path&gt;" class="cls-6" points="26.05 17.41 27 20.32 25.53 20.81 26.05 17.41"/><polygon id="_Path_50" data-name="&lt;Path&gt;" class="cls-6" points="28.98 19.53 25.89 19.53 25.89 21.07 28.98 19.53"/><polygon id="_Path_51" data-name="&lt;Path&gt;" class="cls-6" points="28.98 19.53 26.47 21.32 25.59 20.09 28.98 19.53"/><polygon id="_Path_52" data-name="&lt;Path&gt;" class="cls-6" points="23.13 19.53 25.61 21.32 26.52 20.09 23.13 19.53"/><polygon id="_Path_53" data-name="&lt;Path&gt;" class="cls-6" points="23.13 19.53 26.21 19.53 26.21 21.07 23.13 19.53"/><polygon id="_Path_54" data-name="&lt;Path&gt;" class="cls-6" points="27.84 22.95 26.91 20.04 25.44 20.53 27.84 22.95"/><polygon id="_Path_55" data-name="&lt;Path&gt;" class="cls-6" points="27.84 22.95 25.38 21.17 26.26 19.94 27.84 22.95"/><polygon id="_Path_56" data-name="&lt;Path&gt;" class="cls-6" points="24.23 22.95 26.73 21.17 25.83 19.94 24.23 22.95"/><polygon id="_Path_57" data-name="&lt;Path&gt;" class="cls-6" points="24.23 22.95 25.19 20.04 26.64 20.53 24.23 22.95"/><polygon id="_Path_58" data-name="&lt;Path&gt;" class="cls-6" points="38.34 17.41 37.38 20.32 38.85 20.81 38.34 17.41"/><polygon id="_Path_59" data-name="&lt;Path&gt;" class="cls-6" points="38.34 17.41 39.27 20.32 37.82 20.81 38.34 17.41"/><polygon id="_Path_60" data-name="&lt;Path&gt;" class="cls-6" points="41.25 19.53 38.17 19.53 38.17 21.07 41.25 19.53"/><polygon id="_Path_61" data-name="&lt;Path&gt;" class="cls-6" points="41.25 19.53 38.76 21.32 37.85 20.09 41.25 19.53"/><polygon id="_Path_62" data-name="&lt;Path&gt;" class="cls-6" points="35.41 19.53 37.89 21.32 38.8 20.09 35.41 19.53"/><polygon id="_Path_63" data-name="&lt;Path&gt;" class="cls-6" points="35.41 19.53 38.47 19.53 38.47 21.07 35.41 19.53"/><polygon id="_Path_64" data-name="&lt;Path&gt;" class="cls-6" points="40.13 22.95 39.18 20.04 37.74 20.53 40.13 22.95"/><polygon id="_Path_65" data-name="&lt;Path&gt;" class="cls-6" points="40.13 22.95 37.65 21.17 38.56 19.94 40.13 22.95"/><polygon id="_Path_66" data-name="&lt;Path&gt;" class="cls-6" points="36.51 22.95 39.02 21.17 38.1 19.94 36.51 22.95"/><polygon id="_Path_67" data-name="&lt;Path&gt;" class="cls-6" points="36.51 22.95 37.47 20.04 38.94 20.53 36.51 22.95"/><polygon id="_Path_68" data-name="&lt;Path&gt;" class="cls-6" points="50.63 17.41 49.68 20.32 51.12 20.81 50.63 17.41"/><polygon id="_Path_69" data-name="&lt;Path&gt;" class="cls-6" points="50.63 17.41 51.58 20.32 50.1 20.81 50.63 17.41"/><polygon id="_Path_70" data-name="&lt;Path&gt;" class="cls-6" points="53.54 19.53 50.48 19.53 50.48 21.07 53.54 19.53"/><polygon id="_Path_71" data-name="&lt;Path&gt;" class="cls-6" points="53.54 19.53 51.05 21.32 50.15 20.09 53.54 19.53"/><polygon id="_Path_72" data-name="&lt;Path&gt;" class="cls-6" points="47.7 19.53 50.17 21.32 51.09 20.09 47.7 19.53"/><polygon id="_Path_73" data-name="&lt;Path&gt;" class="cls-6" points="47.7 19.53 50.76 19.53 50.76 21.07 47.7 19.53"/><polygon id="_Path_74" data-name="&lt;Path&gt;" class="cls-6" points="52.42 22.95 51.46 20.04 50.01 20.53 52.42 22.95"/><polygon id="_Path_75" data-name="&lt;Path&gt;" class="cls-6" points="52.42 22.95 49.94 21.17 50.83 19.94 52.42 22.95"/><polygon id="_Path_76" data-name="&lt;Path&gt;" class="cls-6" points="48.82 22.95 51.3 21.17 50.4 19.94 48.82 22.95"/><polygon id="_Path_77" data-name="&lt;Path&gt;" class="cls-6" points="48.82 22.95 49.77 20.04 51.23 20.53 48.82 22.95"/><polygon id="_Path_78" data-name="&lt;Path&gt;" class="cls-6" points="1.48 29.7 0.54 32.63 1.99 33.09 1.48 29.7"/><polygon id="_Path_79" data-name="&lt;Path&gt;" class="cls-6" points="1.48 29.7 2.43 32.63 0.97 33.09 1.48 29.7"/><polygon id="_Path_80" data-name="&lt;Path&gt;" class="cls-6" points="4.39 31.84 1.31 31.84 1.31 33.35 4.39 31.84"/><polygon id="_Path_81" data-name="&lt;Path&gt;" class="cls-6" points="4.39 31.84 1.9 33.63 1.01 32.38 4.39 31.84"/><polygon id="_Path_82" data-name="&lt;Path&gt;" class="cls-6" points="-1.46 31.84 1.05 33.63 1.95 32.38 -1.46 31.84"/><polygon id="_Path_83" data-name="&lt;Path&gt;" class="cls-6" points="-1.46 31.84 1.62 31.84 1.62 33.35 -1.46 31.84"/><polygon id="_Path_84" data-name="&lt;Path&gt;" class="cls-6" points="3.28 35.26 2.34 32.35 0.87 32.81 3.28 35.26"/><polygon id="_Path_85" data-name="&lt;Path&gt;" class="cls-6" points="3.28 35.26 0.81 33.48 1.71 32.2 3.28 35.26"/><polygon id="_Path_86" data-name="&lt;Path&gt;" class="cls-6" points="-0.33 35.26 2.16 33.48 1.24 32.2 -0.33 35.26"/><polygon id="_Path_87" data-name="&lt;Path&gt;" class="cls-6" points="-0.33 35.26 0.61 32.35 2.07 32.81 -0.33 35.26"/><polygon id="_Path_88" data-name="&lt;Path&gt;" class="cls-6" points="13.76 29.7 12.8 32.63 14.26 33.09 13.76 29.7"/><polygon id="_Path_89" data-name="&lt;Path&gt;" class="cls-6" points="13.76 29.7 14.71 32.63 13.25 33.09 13.76 29.7"/><polygon id="_Path_90" data-name="&lt;Path&gt;" class="cls-6" points="16.67 31.84 13.61 31.84 13.61 33.35 16.67 31.84"/><polygon id="_Path_91" data-name="&lt;Path&gt;" class="cls-6" points="16.67 31.84 14.2 33.63 13.29 32.38 16.67 31.84"/><polygon id="_Path_92" data-name="&lt;Path&gt;" class="cls-6" points="10.84 31.84 13.33 33.63 14.22 32.38 10.84 31.84"/><polygon id="_Path_93" data-name="&lt;Path&gt;" class="cls-6" points="10.84 31.84 13.92 31.84 13.92 33.35 10.84 31.84"/><polygon id="_Path_94" data-name="&lt;Path&gt;" class="cls-6" points="15.55 35.26 14.62 32.35 13.16 32.81 15.55 35.26"/><polygon id="_Path_95" data-name="&lt;Path&gt;" class="cls-6" points="15.55 35.26 13.09 33.48 13.98 32.2 15.55 35.26"/><polygon id="_Path_96" data-name="&lt;Path&gt;" class="cls-6" points="11.95 35.26 14.44 33.48 13.53 32.2 11.95 35.26"/><polygon id="_Path_97" data-name="&lt;Path&gt;" class="cls-6" points="11.95 35.26 12.89 32.35 14.36 32.81 11.95 35.26"/><polygon id="_Path_98" data-name="&lt;Path&gt;" class="cls-6" points="26.05 29.7 25.1 32.63 26.55 33.09 26.05 29.7"/><polygon id="_Path_99" data-name="&lt;Path&gt;" class="cls-6" points="26.05 29.7 27 32.63 25.53 33.09 26.05 29.7"/><polygon id="_Path_100" data-name="&lt;Path&gt;" class="cls-6" points="28.98 31.84 25.89 31.84 25.89 33.35 28.98 31.84"/><polygon id="_Path_101" data-name="&lt;Path&gt;" class="cls-6" points="28.98 31.84 26.47 33.63 25.59 32.38 28.98 31.84"/><polygon id="_Path_102" data-name="&lt;Path&gt;" class="cls-6" points="23.13 31.84 25.61 33.63 26.52 32.38 23.13 31.84"/><polygon id="_Path_103" data-name="&lt;Path&gt;" class="cls-6" points="23.13 31.84 26.21 31.84 26.21 33.35 23.13 31.84"/><polygon id="_Path_104" data-name="&lt;Path&gt;" class="cls-6" points="27.84 35.26 26.91 32.35 25.44 32.81 27.84 35.26"/><polygon id="_Path_105" data-name="&lt;Path&gt;" class="cls-6" points="27.84 35.26 25.38 33.48 26.26 32.2 27.84 35.26"/><polygon id="_Path_106" data-name="&lt;Path&gt;" class="cls-6" points="24.23 35.26 26.73 33.48 25.83 32.2 24.23 35.26"/><polygon id="_Path_107" data-name="&lt;Path&gt;" class="cls-6" points="24.23 35.26 25.19 32.35 26.64 32.81 24.23 35.26"/><polygon id="_Path_108" data-name="&lt;Path&gt;" class="cls-6" points="38.34 29.7 37.38 32.63 38.85 33.09 38.34 29.7"/><polygon id="_Path_109" data-name="&lt;Path&gt;" class="cls-6" points="38.34 29.7 39.27 32.63 37.82 33.09 38.34 29.7"/><polygon id="_Path_110" data-name="&lt;Path&gt;" class="cls-6" points="41.25 31.84 38.17 31.84 38.17 33.35 41.25 31.84"/><polygon id="_Path_111" data-name="&lt;Path&gt;" class="cls-6" points="41.25 31.84 38.76 33.63 37.85 32.38 41.25 31.84"/><polygon id="_Path_112" data-name="&lt;Path&gt;" class="cls-6" points="35.41 31.84 37.89 33.63 38.8 32.38 35.41 31.84"/><polygon id="_Path_113" data-name="&lt;Path&gt;" class="cls-6" points="35.41 31.84 38.47 31.84 38.47 33.35 35.41 31.84"/><polygon id="_Path_114" data-name="&lt;Path&gt;" class="cls-6" points="40.13 35.26 39.18 32.35 37.74 32.81 40.13 35.26"/><polygon id="_Path_115" data-name="&lt;Path&gt;" class="cls-6" points="40.13 35.26 37.65 33.48 38.56 32.2 40.13 35.26"/><polygon id="_Path_116" data-name="&lt;Path&gt;" class="cls-6" points="36.51 35.26 39.02 33.48 38.1 32.2 36.51 35.26"/><polygon id="_Path_117" data-name="&lt;Path&gt;" class="cls-6" points="36.51 35.26 37.47 32.35 38.94 32.81 36.51 35.26"/><polygon id="_Path_118" data-name="&lt;Path&gt;" class="cls-6" points="50.63 29.7 49.68 32.63 51.12 33.09 50.63 29.7"/><polygon id="_Path_119" data-name="&lt;Path&gt;" class="cls-6" points="50.63 29.7 51.58 32.63 50.1 33.09 50.63 29.7"/><polygon id="_Path_120" data-name="&lt;Path&gt;" class="cls-6" points="53.54 31.84 50.48 31.84 50.48 33.35 53.54 31.84"/><polygon id="_Path_121" data-name="&lt;Path&gt;" class="cls-6" points="53.54 31.84 51.05 33.63 50.15 32.38 53.54 31.84"/><polygon id="_Path_122" data-name="&lt;Path&gt;" class="cls-6" points="47.7 31.84 50.17 33.63 51.09 32.38 47.7 31.84"/><polygon id="_Path_123" data-name="&lt;Path&gt;" class="cls-6" points="47.7 31.84 50.76 31.84 50.76 33.35 47.7 31.84"/><polygon id="_Path_124" data-name="&lt;Path&gt;" class="cls-6" points="52.42 35.26 51.46 32.35 50.01 32.81 52.42 35.26"/><polygon id="_Path_125" data-name="&lt;Path&gt;" class="cls-6" points="52.42 35.26 49.94 33.48 50.83 32.2 52.42 35.26"/><polygon id="_Path_126" data-name="&lt;Path&gt;" class="cls-6" points="48.82 35.26 51.3 33.48 50.4 32.2 48.82 35.26"/><polygon id="_Path_127" data-name="&lt;Path&gt;" class="cls-6" points="48.82 35.26 49.77 32.35 51.23 32.81 48.82 35.26"/></g></g></g></g></g></g></g></svg>