<svg id="Layer_1" data-name="Layer 1" xmlns="http://www.w3.org/2000/svg" xmlns:xlink="http://www.w3.org/1999/xlink" viewBox="0 0 128 128"><defs><style>.cls-1,.cls-10,.cls-8{fill:none;}.cls-2{clip-path:url(#clip-path);}.cls-11,.cls-3,.cls-5{fill:#fff;}.cls-12,.cls-4,.cls-6{fill:#ffe000;}.cls-10,.cls-11,.cls-12,.cls-13,.cls-5,.cls-6,.cls-7,.cls-8,.cls-9{stroke:#000;stroke-linejoin:round;}.cls-5,.cls-6,.cls-7,.cls-8{stroke-linecap:round;}.cls-10,.cls-11,.cls-12,.cls-13,.cls-5,.cls-6,.cls-8,.cls-9{stroke-width:0.11px;}.cls-7{fill:red;stroke-width:0.85px;}.cls-9{fill:#ccc;}.cls-13{fill:#fa0204;}</style><clipPath id="clip-path"><circle class="cls-1" cx="64" cy="64" r="64"/></clipPath></defs><title>Flag_circle_Vatican City</title><g class="cls-2"><rect class="cls-3" width="128" height="128"/><rect class="cls-4" width="64" height="128"/><g id="coa"><g id="tiara"><g id="band"><path class="cls-5" d="M93,53.55l.69.16,1.09.18.5,0-.09,2.12a13.57,13.57,0,0,1-.33,2.08,9.65,9.65,0,0,1-.67,1.41l-.32.5L91.9,58.38a6.26,6.26,0,0,0,.45-.72,7.59,7.59,0,0,0,.32-1l.19-1.1L93,54.16ZM90.54,60l1.76,1.53a3.58,3.58,0,0,1-.57.42,3.13,3.13,0,0,1-1.34.31,2.46,2.46,0,0,1-1-.27,4.32,4.32,0,0,1-1.84-1.22,1.23,1.23,0,0,1-.2-.75,2.86,2.86,0,0,1,.26-.84,1.91,1.91,0,0,0,.22.51,2,2,0,0,0,.75.52,1.68,1.68,0,0,0,.66.19,2,2,0,0,0,.87-.14,1.88,1.88,0,0,0,.38-.26Z"/><path class="cls-5" d="M87.76,48.76a3.24,3.24,0,0,1,.18.43,2.72,2.72,0,0,1,.13.79,3.44,3.44,0,0,1-.14.79,6.35,6.35,0,0,1-.44,1.12c-.1.23-.25.44-.36.67s-.3.76-.45,1.14-.29.62-.39.95A8.78,8.78,0,0,0,86,56a7.49,7.49,0,0,0-.1,1.17,7.07,7.07,0,0,0,.1,1.38,5,5,0,0,0,.41,1.31,3.66,3.66,0,0,0,.63.92,3.61,3.61,0,0,0,.72.57,7.27,7.27,0,0,0,.76.33c.36.14,1.09.39,1.09.39a5.48,5.48,0,0,1-1.35-.91,2.88,2.88,0,0,1-.55-1.22,4.8,4.8,0,0,1,0-1.56,8.41,8.41,0,0,1,.39-1.63c.18-.56.43-1.1.66-1.64s.35-.77.51-1.17.37-.93.52-1.41a3.94,3.94,0,0,0,.23-.88,3.36,3.36,0,0,0-.09-1,4,4,0,0,0-.5-1.3,1.79,1.79,0,0,0-.63-.56,1.27,1.27,0,0,0-.8-.17c-.09,0-.23.15-.23.15Z"/><path class="cls-5" d="M90,51.65a10.11,10.11,0,0,0,.22-1.16,5.57,5.57,0,0,0,0-1,4,4,0,0,0-.21-1.1,2.89,2.89,0,0,0-.66-1,3.16,3.16,0,0,0-1-.62,4,4,0,0,0-1.19-.2,5.93,5.93,0,0,0-1,0,2.94,2.94,0,0,0-.59.12,5,5,0,0,0-.5.24l1.28,2.08a3.78,3.78,0,0,1,.62-.29,2.17,2.17,0,0,1,.72-.05,2,2,0,0,1,.72.13,2.45,2.45,0,0,1,.75.57,3.25,3.25,0,0,1,.63.93,4.08,4.08,0,0,1,.2,1c0,.08,0,.23,0,.23Z"/><path class="cls-6" d="M90.24,50a4.43,4.43,0,0,0-.44-1,2.7,2.7,0,0,0-.94-.84,5,5,0,0,0-1.32-.27l.49.9-.85,0L86.73,48l-.81.37-.41-.67.87-.4-.4-.65.87-.08.37.63a6.83,6.83,0,0,1,1,.07,2.14,2.14,0,0,1,.64.23,2.45,2.45,0,0,1,.53.38,2.85,2.85,0,0,1,.5.6,4.54,4.54,0,0,1,.28.71Z"/><path class="cls-6" d="M84.49,47.38l1.36,2M85.08,47l-.64.38-.6.46,1.31,2,.58-.45.6-.34Z"/><path class="cls-6" d="M87.56,55.48l.76-1.56.81.32.33-.81-.81-.38.42-.9-.6-.27-.45.87-.81-.34-.36.85.79.33-.73,1.55Z"/><path class="cls-6" d="M93.64,55h.77v.89l.75,0-.13.9-.7,0a7,7,0,0,1-.21.79,7.52,7.52,0,0,1-.41.74l-.83-.21a7.65,7.65,0,0,0,.41-.72c.1-.23.24-.71.24-.71l-.84-.1.14-.86.77.05Z"/></g><g id="band-2" data-name="band"><path class="cls-5" d="M99.57,53.55l-.68.16-1.09.18-.5,0,.09,2.12a14.49,14.49,0,0,0,.32,2.08,10.5,10.5,0,0,0,.68,1.41l.32.5,1.93-1.67a6.26,6.26,0,0,1-.45-.72,8.19,8.19,0,0,1-.33-1l-.19-1.1-.1-1.39ZM102,60l-1.76,1.53a3.58,3.58,0,0,0,.57.42,3.13,3.13,0,0,0,1.34.31,2.46,2.46,0,0,0,.95-.27,4.28,4.28,0,0,0,1.83-1.22,1.17,1.17,0,0,0,.21-.75,2.78,2.78,0,0,0-.27-.84,2.15,2.15,0,0,1-.21.51,2.07,2.07,0,0,1-.75.52,1.73,1.73,0,0,1-.66.19A1.49,1.49,0,0,1,102,60Z"/><path class="cls-5" d="M104.78,48.76a4.64,4.64,0,0,0-.19.43,3.09,3.09,0,0,0-.12.79,2.62,2.62,0,0,0,.14.79,6.32,6.32,0,0,0,.43,1.12c.11.23.26.44.37.67s.29.76.45,1.14.29.62.39.95A8.78,8.78,0,0,1,106.5,56a8.93,8.93,0,0,1,.1,1.17,7.07,7.07,0,0,1-.1,1.38,5,5,0,0,1-.41,1.31,3.66,3.66,0,0,1-.63.92,3.61,3.61,0,0,1-.72.57,6.6,6.6,0,0,1-.77.33c-.35.14-1.08.39-1.08.39a5.48,5.48,0,0,0,1.35-.91,2.88,2.88,0,0,0,.55-1.22,5.1,5.1,0,0,0,0-1.56,8.41,8.41,0,0,0-.39-1.63c-.18-.56-.43-1.1-.66-1.64s-.35-.77-.51-1.17-.37-.93-.52-1.41a3.94,3.94,0,0,1-.23-.88,3.06,3.06,0,0,1,.09-1,4,4,0,0,1,.5-1.3,1.79,1.79,0,0,1,.63-.56,1.26,1.26,0,0,1,.8-.17c.09,0,.23.15.23.15Z"/><path class="cls-5" d="M102.53,51.65s-.19-.77-.23-1.16a6.69,6.69,0,0,1,0-1,3.7,3.7,0,0,1,.21-1.1,2.89,2.89,0,0,1,.66-1,3,3,0,0,1,1-.62,4,4,0,0,1,1.19-.2,5.93,5.93,0,0,1,1,0,2.71,2.71,0,0,1,.58.12,4,4,0,0,1,.5.24l-1.27,2.08a3.78,3.78,0,0,0-.62-.29,2.17,2.17,0,0,0-.72-.05,1.92,1.92,0,0,0-.72.13,2.45,2.45,0,0,0-.75.57,3.06,3.06,0,0,0-.63.93,3.69,3.69,0,0,0-.2,1c0,.08,0,.23,0,.23Z"/><path class="cls-6" d="M102.29,50a5,5,0,0,1,.44-1,2.64,2.64,0,0,1,1-.84,5,5,0,0,1,1.32-.27l-.49.9.85,0,.44-.74.82.37.41-.67-.87-.4.4-.65-.87-.08-.38.63a6.72,6.72,0,0,0-1,.07,2.14,2.14,0,0,0-.64.23,2.45,2.45,0,0,0-.53.38,2.85,2.85,0,0,0-.5.6,4.54,4.54,0,0,0-.28.71Z"/><path class="cls-6" d="M108.05,47.38l-1.36,2m.77-2.33.63.38.61.46-1.31,2-.58-.45-.6-.34Z"/><path class="cls-6" d="M105,55.48l-.76-1.56-.81.32-.33-.81.81-.38-.42-.9.59-.27.45.87.82-.34.36.85-.79.33.73,1.55Z"/><path class="cls-6" d="M98.9,55h-.77v.89l-.75,0,.13.9.69,0a7.9,7.9,0,0,0,.22.79,7.52,7.52,0,0,0,.41.74l.83-.21s-.3-.47-.42-.72-.24-.71-.24-.71l.85-.1-.15-.86-.76.05Z"/></g><path class="cls-5" d="M91.93,42.73,90.76,44l.72,2.16.41,1.52-1.18,1.1,2.16,3,6.85-.65,2.2-2.36-.84-.76,0-1.84.72-2.16-1.08-1.1-1-2.6a8.13,8.13,0,0,0-.37-1.06,4.11,4.11,0,0,0-.39-.54,3.85,3.85,0,0,0-.55-.59,4,4,0,0,0-.62-.39,3.07,3.07,0,0,0-.72-.31,4.3,4.3,0,0,0-.8-.07,4.44,4.44,0,0,0-.81.07,3.19,3.19,0,0,0-.71.31,3.6,3.6,0,0,0-.62.39,3.85,3.85,0,0,0-.55.59,4.11,4.11,0,0,0-.39.54,8.13,8.13,0,0,0-.37,1.06Z"/><ellipse id="svg_167" data-name="svg 167" class="cls-7" cx="96.28" cy="52.77" rx="4.15" ry="1.23"/><path class="cls-6" d="M100.7,51.12a2,2,0,0,0-.21-.17,3.4,3.4,0,0,0-.5-.26,6.21,6.21,0,0,0-.74-.2c-.29-.06-.57-.13-.86-.17s-.68-.06-1-.07-1.09,0-1.09,0-.73,0-1.1,0-.68,0-1,.07-.58.11-.86.17a6.21,6.21,0,0,0-.74.2A3.06,3.06,0,0,0,92,51l-.21.17m9.3-1.82a1.07,1.07,0,0,0-.37-.25.41.41,0,0,0-.28.07.54.54,0,0,0-.2.31.61.61,0,0,0,0,.33.35.35,0,0,0,.17.22,1.36,1.36,0,0,0,.66-.08Zm.21-.15a.42.42,0,0,1,.41.28M91.41,49.3v.6a1.33,1.33,0,0,0,.65.08c.09,0,.14-.13.18-.22a.58.58,0,0,0-.17-.64.36.36,0,0,0-.28-.07,1.07,1.07,0,0,0-.37.25Zm-.22-.15a.41.41,0,0,0-.4.28m8.42,0-.36,0m-5.52,0,.36,0m3.22,0a1,1,0,0,1-.32-.18m-1,.18A1.13,1.13,0,0,0,96,49.3m6-.82a.91.91,0,0,1-.31.16l-.05,0a2.16,2.16,0,0,1-.15.35,2.43,2.43,0,0,1-.28.26,1.33,1.33,0,0,0-.33-.21.43.43,0,0,0-.25,0,.5.5,0,0,0-.2.18.51.51,0,0,0-.11.31.89.89,0,0,0,.16.34l-.11.19-.15.11a4.54,4.54,0,0,1-.81-.32.88.88,0,0,1-.19-.39.76.76,0,0,0,.24-.21.41.41,0,0,0,0-.36.45.45,0,0,0-.36-.17.4.4,0,0,0-.27.12.41.41,0,0,0-.11.29c0,.11.21.25.21.25s-.08.19-.17.23a2.65,2.65,0,0,1-.64.21,1.83,1.83,0,0,1-.7,0,.8.8,0,0,1-.38-.24.28.28,0,0,1,0-.13,1.55,1.55,0,0,0,.38-.15.67.67,0,0,0,.25-.33.6.6,0,0,0-.13-.4.78.78,0,0,0-.32-.25.53.53,0,0,0-.18,0l0,0a.65.65,0,0,1-.21.16h0l0,0h0l-.1,0a.52.52,0,0,1,.21.12.21.21,0,0,1,0,.14.28.28,0,0,1,0,.09.39.39,0,0,1,0,.14.34.34,0,0,1-.07.15l-.07.06h0a.35.35,0,0,1-.14.06.61.61,0,0,1-.18,0,.7.7,0,0,0,.32-.07h0a.49.49,0,0,0,.14-.21.36.36,0,0,0,0-.1.36.36,0,0,0-.09-.31.87.87,0,0,0-.4-.1.84.84,0,0,0-.4.1.35.35,0,0,0-.1.18.57.57,0,0,0,0,.13.36.36,0,0,0,0,.1.46.46,0,0,0,.13.21h0a.71.71,0,0,0,.33.07.6.6,0,0,1-.18,0,.47.47,0,0,1-.15-.06h0l-.06-.06a.34.34,0,0,1-.07-.15.39.39,0,0,1,0-.14.27.27,0,0,1,0-.09.29.29,0,0,1,0-.14A.52.52,0,0,1,96,48.6l-.1,0h0l-.05,0h0a.65.65,0,0,1-.21-.16l0,0a.53.53,0,0,0-.18,0,.72.72,0,0,0-.32.25A.6.6,0,0,0,95,49a.61.61,0,0,0,.25.33,1.55,1.55,0,0,0,.38.15.53.53,0,0,1,0,.13.78.78,0,0,1-.39.24,1.78,1.78,0,0,1-.69,0,2.86,2.86,0,0,1-.65-.21c-.08,0-.16-.23-.16-.23s.19-.14.2-.25a.37.37,0,0,0-.11-.29.36.36,0,0,0-.26-.12.45.45,0,0,0-.36.17.41.41,0,0,0,0,.36.76.76,0,0,0,.24.21.88.88,0,0,1-.19.39,4.54,4.54,0,0,1-.81.32l-.15-.11-.11-.19a1.07,1.07,0,0,0,.16-.34.51.51,0,0,0-.11-.31.58.58,0,0,0-.2-.18.46.46,0,0,0-.26,0,1.58,1.58,0,0,0-.33.21,1.89,1.89,0,0,1-.27-.26,2.58,2.58,0,0,1-.16-.35l0,0a.91.91,0,0,1-.31-.16l-.19,0s-.17.09-.17.17.16.17.23.26l.18.24a.68.68,0,0,1,.14.23c0,.1,0,.21,0,.31a.43.43,0,0,0,.29.25c.11,0,.32-.11.32-.11v.85l.44.39.41.87-.16.22,0,.42a2.55,2.55,0,0,1,1.37-.73,11.17,11.17,0,0,1,2.46-.2h.31a12.86,12.86,0,0,1,2.77.19,2.55,2.55,0,0,1,1.37.73l0-.42-.17-.22.42-.87.43-.39v-.85s.21.14.32.11a.45.45,0,0,0,.29-.25c0-.1,0-.21,0-.31a.68.68,0,0,1,.14-.23l.18-.24c.07-.09.23-.14.23-.26s-.18-.17-.18-.17l-.19,0Zm-6.3-.11a1.28,1.28,0,0,0,.21.16h0l.08,0a1.36,1.36,0,0,0,.34,0h0a1.36,1.36,0,0,0,.34,0l.08,0h0a1.92,1.92,0,0,0,.21-.16.41.41,0,0,0,0-.09.43.43,0,0,0,0-.37c-.06-.13-.22-.2-.34-.27a2.67,2.67,0,0,0-.34-.16,2.14,2.14,0,0,0-.34.16c-.12.07-.28.14-.34.27a.43.43,0,0,0,0,.37.41.41,0,0,0,0,.09Z"/><path class="cls-6" d="M101.45,46.73a6.18,6.18,0,0,0-.71-.29,8.94,8.94,0,0,0-1.36-.31c-.53-.11-1.07-.13-1.59-.26-.17,0-.32-.11-.49-.15a1.68,1.68,0,0,0-.7-.07,1.17,1.17,0,0,0-.33.19,1.36,1.36,0,0,0-.33-.19,1.68,1.68,0,0,0-.7.07c-.17,0-.32.12-.49.15-.52.13-1.07.15-1.6.26a9.52,9.52,0,0,0-1.36.31,6.62,6.62,0,0,0-.7.29m8.39-1.92a1.5,1.5,0,0,0,.31-.21.41.41,0,0,0,.11-.23.38.38,0,0,0-.09-.27.39.39,0,0,0-.27-.1.35.35,0,0,0-.22.08.38.38,0,0,0-.13.24.46.46,0,0,0,0,.23A1.66,1.66,0,0,0,99.48,44.81Zm-6.42,0a1.32,1.32,0,0,0,.23-.26.35.35,0,0,0-.07-.47A.35.35,0,0,0,93,44a.38.38,0,0,0-.27.1.34.34,0,0,0-.09.27.36.36,0,0,0,.11.23A1.5,1.5,0,0,0,93.06,44.81Zm-1.75.77-.5.66a.66.66,0,0,0,0,.25,1,1,0,0,0,.25.24l0,.91-.48.83H90.6l.31.16h0c.18,0,.3-.23.46-.32a4.68,4.68,0,0,1,.64-.3,7.36,7.36,0,0,1,.93-.34,7,7,0,0,1,1.2-.31,7.3,7.3,0,0,1,.94-.06h.31a7.89,7.89,0,0,1,.83.15,7.4,7.4,0,0,1,.83-.15,5.84,5.84,0,0,1,1.25.05,7,7,0,0,1,1.2.31,8,8,0,0,1,.93.34,6.13,6.13,0,0,1,.64.3c.16.09.28.3.46.32h0l.31-.16h0l-.48-.83,0-.91a1.24,1.24,0,0,0,.25-.24.66.66,0,0,0,0-.25l-.51-.66a1.63,1.63,0,0,1-.42.31.61.61,0,0,1-.27,0,1.07,1.07,0,0,1-.28-.19,3.85,3.85,0,0,1-.55-.52,2.75,2.75,0,0,1-.22-.37,3.65,3.65,0,0,1-.88.52,1.85,1.85,0,0,1-1,0,.88.88,0,0,1-.22-.13,2.07,2.07,0,0,0-2.24,0,.88.88,0,0,1-.22.13,1.85,1.85,0,0,1-1,0,3.65,3.65,0,0,1-.88-.52,2.21,2.21,0,0,1-.23.37,3,3,0,0,1-.55.52.88.88,0,0,1-.27.19.66.66,0,0,1-.28,0,1.84,1.84,0,0,1-.42-.31Z"/><path class="cls-6" d="M101.67,45.31a2.44,2.44,0,0,0,0-.36.83.83,0,0,0-.14-.3,1.53,1.53,0,0,0-.23-.25m-.07,1.18a.68.68,0,0,0,.21,0,1,1,0,0,0,.26-.27s.28.2.44.18a.33.33,0,0,0,.18-.15.34.34,0,0,0,0-.24.45.45,0,0,0-.12-.16c-.1-.08-.27-.07-.34-.18a.39.39,0,0,1,0-.3,2.14,2.14,0,0,1,.32-.54c.07-.11.22-.18.24-.32s-.09-.19-.09-.19a1.37,1.37,0,0,0-.32,0,1.07,1.07,0,0,0-.48.26,1.17,1.17,0,0,0-.18.41c0,.11-.11.33-.11.33a1.31,1.31,0,0,0-.37.05.75.75,0,0,0-.37.33.55.55,0,0,0,0,.38.64.64,0,0,0,.26.3,1.72,1.72,0,0,0,.41.12Zm-10-1.18a2,2,0,0,0-.24.25.81.81,0,0,0-.13.3,1.52,1.52,0,0,0,0,.36m-.72-1.93s-.09.12-.08.19.16.21.24.32a2.48,2.48,0,0,1,.32.54.44.44,0,0,1,0,.3c-.06.11-.23.1-.33.18s-.11.1-.12.16a.34.34,0,0,0,0,.24.3.3,0,0,0,.18.15c.16,0,.44-.18.44-.18a1,1,0,0,0,.26.27.62.62,0,0,0,.2,0,1.9,1.9,0,0,0,.42-.12.57.57,0,0,0,.25-.3.46.46,0,0,0,0-.38.71.71,0,0,0-.37-.33,1.27,1.27,0,0,0-.37-.05s-.06-.22-.1-.33a1.17,1.17,0,0,0-.18-.41,1.13,1.13,0,0,0-.48-.26,1.47,1.47,0,0,0-.33,0Zm5.76.6.36-.1.35.1m-.61.86a1.38,1.38,0,0,1-.33-.42.33.33,0,0,1,0-.24A.76.76,0,0,1,96,44a1.16,1.16,0,0,1-.38-.29.34.34,0,0,1,0-.26.73.73,0,0,1,.25-.35,2.1,2.1,0,0,1,.48-.22,2.1,2.1,0,0,1,.48.22.71.71,0,0,1,.24.35.34.34,0,0,1,0,.26,1.16,1.16,0,0,1-.38.29.76.76,0,0,1,.25.19.33.33,0,0,1,0,.24,1.38,1.38,0,0,1-.33.42H96Zm1-1.15a2.75,2.75,0,0,1,.76.48.34.34,0,0,1,.1.23,2,2,0,0,1-.44.77l-.85-.35H96l-.84.35a2,2,0,0,1-.44-.77.33.33,0,0,1,.09-.23,2.91,2.91,0,0,1,.77-.48"/><path class="cls-6" d="M95.65,39.91l.34-.27h0a.87.87,0,0,1-.2-.18.36.36,0,0,1,0-.25.4.4,0,0,1,.19-.29,2.73,2.73,0,0,1,.66,0,.4.4,0,0,1,.14.54.71.71,0,0,1-.19.18h0l.34.27m2.24.21-.11.2m1.38-.85-.32,0m.36.38-.49,0m-.06-.58c.06,0,.18.12.2.19a.4.4,0,0,1-.14.39c-.1.09-.39.07-.39.07M91.83,41.4l.72-.17c.34-.09.68-.18,1-.24a9.68,9.68,0,0,1,1.19-.15c.5,0,1.5,0,1.5,0s1,0,1.49,0A9.44,9.44,0,0,1,99,41c.35.06.69.15,1,.24l.72.17m-7.29-1.28.11.2m-1.38-.85.31,0m-.36.38.49,0m-.27.69.8-.2a8.7,8.7,0,0,1,.89-.15c.34,0,.68-.07,1-.09s1.23,0,1.23,0,.82,0,1.23,0,.69,0,1,.09.59.09.89.15l.8.2M93,40a.76.76,0,0,1-.4-.07.42.42,0,0,1-.13-.39c0-.1.24-.22.24-.22m2.68,3.15a12.82,12.82,0,0,0-1.52.15,10.28,10.28,0,0,0-1.54.41c-.47.18-1,1-1.36.65-.09-.07,0-.21.07-.31a1.87,1.87,0,0,1,.33-.54c.1-.11.34-.13.36-.28s-.15-.17-.18-.28a.68.68,0,0,1,0-.42c.06-.18.28-.27.33-.44s-.11-.33,0-.48.48-.11.51-.31-.17-.13-.2-.22,0-.14,0-.21a.67.67,0,0,0,0-.28c0-.07-.16-.09-.18-.17a.22.22,0,0,1,0-.23s.15,0,.18,0-.11-.23-.16-.34a2.17,2.17,0,0,1-.17-.42c0-.11-.13-.29,0-.35s.23.14.34.22a1.68,1.68,0,0,1,.4.35c.07.11,0,.28.12.37s.33,0,.45.12a.4.4,0,0,1,.16.36c0,.12-.32.12-.29.24s.28.14.43.11.15-.09.22-.14.1-.1.17-.12a1,1,0,0,1,.23,0l-.09,0s-.14-.11-.15-.19a.24.24,0,0,1,.07-.21.32.32,0,0,1,.23-.09.26.26,0,0,1,.2.08.35.35,0,0,1,.07.2.27.27,0,0,1-.1.16.65.65,0,0,1-.2.06l.1,0,.26.36,1.13-.06s.14-.15.11-.22-.11-.12-.24-.11c-.36,0-.44-.29-.42-.51s.23-.31.4-.38.46.15.53,0-.25-.21-.29-.36a.23.23,0,0,1,0-.2.81.81,0,0,1,.4-.33.77.77,0,0,1,.22,0,.68.68,0,0,1,.21,0,.73.73,0,0,1,.4.33.28.28,0,0,1,0,.2c0,.15-.36.22-.29.36s.36-.06.53,0,.39.19.4.38-.06.52-.42.51c-.14,0-.21,0-.24.11s.11.22.11.22l1.13.06.26-.36.09,0a.55.55,0,0,1-.19-.06.27.27,0,0,1-.1-.16.25.25,0,0,1,.07-.2.26.26,0,0,1,.2-.08.33.33,0,0,1,.23.09.27.27,0,0,1,.07.21c0,.08-.15.19-.15.19l-.09,0a1,1,0,0,1,.23,0,.88.88,0,0,1,.17.12c.07.05.13.13.21.14s.41,0,.44-.11-.26-.12-.29-.24a.4.4,0,0,1,.16-.36c.11-.1.33,0,.44-.12s.06-.26.13-.37a1.68,1.68,0,0,1,.4-.35c.11-.08.22-.29.34-.22s0,.24,0,.35a3.07,3.07,0,0,1-.17.42c-.05.11-.22.22-.16.34s.14,0,.18,0a.24.24,0,0,1,0,.23c0,.08-.15.1-.18.17a.67.67,0,0,0,0,.28c0,.07,0,.14,0,.21s-.2.12-.19.22.42.14.51.31-.08.33,0,.48.28.26.33.44a.75.75,0,0,1,0,.42c0,.11-.2.17-.18.28s.26.17.36.28a1.87,1.87,0,0,1,.33.54c0,.1.16.24.07.31-.39.32-.89-.47-1.36-.65a10.28,10.28,0,0,0-1.54-.41,12.82,12.82,0,0,0-1.52-.15c-.3,0-.89,0-.89,0s-.59,0-.89,0Z"/><path class="cls-6" d="M96.7,36.77h-.86m.72-1.44c.11-.24-.09-.41-.29-.59-.2.18-.4.35-.29.59m.6,2c.17,0,.37.18.49.07s0-.16,0-.23-.36-.19-.37-.37.22-.22.27-.36a.36.36,0,0,0,0-.23c-.12-.28-.62-.29-.7-.58,0-.12.25-.27.29-.29s.41.11.59,0,.26-.17.26-.3-.16-.27-.29-.33-.69.25-.85,0,.36-.48.3-.73-.3-.22-.3-.22-.26.1-.3.22.45.51.3.73-.59-.13-.85,0-.29.18-.29.33a.38.38,0,0,0,.26.3c.18.08.41-.11.59,0s.33.17.29.29c-.09.29-.58.3-.7.58a.36.36,0,0,0,0,.23c.05.14.28.21.27.36s-.31.21-.37.37-.06.18,0,.23.32-.06.49-.07h.62Z"/><path class="cls-8" d="M100.3,52l-.46-.18c-.28-.1-.56-.2-.85-.28a6.11,6.11,0,0,0-.85-.18,16.41,16.41,0,0,0-1.87,0,16.41,16.41,0,0,0-1.87,0,6.11,6.11,0,0,0-.85.18c-.29.08-.57.18-.85.28l-.46.18m8.58-9.45-.77-.29c-.22-.08-.43-.15-.66-.21a7.81,7.81,0,0,0-.82-.14,12.09,12.09,0,0,0-1.21-.12c-.36,0-1.09,0-1.09,0l-1.1,0q-.6,0-1.2.12a8,8,0,0,0-.83.14c-.22.06-.44.13-.65.21l-.77.29m-.6,5.12,1.12-.37c.39-.12.77-.26,1.17-.35a14.24,14.24,0,0,1,1.44-.2c.47,0,1.42-.1,1.42-.1s.94,0,1.41.1a14,14,0,0,1,1.45.2c.39.09.78.23,1.17.35l1.12.37"/></g><g id="silverkey"><g id="keybase"><path class="cls-9" d="M82.44,49.88l4.29,3.69s-.21.47-.31.72a5.49,5.49,0,0,0-.21.69C86.12,55.33,86,56,86,56l-5-4.59a1.53,1.53,0,0,1,1.42-1.56Z"/><path class="cls-9" d="M81.83,52.18l-1,1.16.64.62-1,1-.64-.64-1.08,1.15v1.44l2.46,1.93.85-.63,0-1.38.65.37.66-.4,0,1.24-.54-.39-.58.76-.06,1.36L84,61.4l2.25-2-.17-.6-.1-.54,0-1.07L86,56Z"/><path class="cls-9" d="M80.8,53.34l0,1.27.66-.65Z"/><path class="cls-10" d="M84.08,59.93,84,61.38m-.79-5.93,0,1.35m-.63-.74,0,1.1M82,55.62l0,1.23m-.91.64,0,1.3m1-.41L84.08,60,86,58.27m-7.26-2.84,2.44,2.09L82,56.8l-.64-.53.71-.67.55.47.62-.63.8.78-.73.57.68.62-.64.6"/><path class="cls-9" d="M98.07,63.7l2.07,1.9.46,1.33-2.67-.28-1.51-1.5-1.61-1.49-7-6s.14-.56.24-.83.29-.78.44-1.17c0-.1.13-.29.13-.29l7.77,6.9Z"/><path class="cls-9" d="M99.83,64a46,46,0,0,0,3.68,3.86c.58.73,1,1.42.11,2.36s-1.83.4-2.6-.11a52.52,52.52,0,0,0-4-3.46Z"/><path class="cls-9" d="M99.15,66.7,97.66,66m1.73-1.63c.11.34,0,.72.16,1a4.45,4.45,0,0,0,.59.85,2.28,2.28,0,0,0-.43.1c-.2.07-.51.11-.56.32s.17.34.3.48a1.78,1.78,0,0,0,.44.32,2.91,2.91,0,0,0,.82.38c.37.06,1.07-.46,1.13-.09,0,.16-.31.06-.45.13-.33.16-.5.51-.21.76s.48.1.73.12.5-.12.7,0,.54.47.41.72-.61.24-.85.08-.12-.41-.15-.61V68.8"/><circle class="cls-9" cx="108.84" cy="74.36" r="5.51"/><path class="cls-11" d="M106.77,74.59a1.72,1.72,0,1,0,1.72,1.72l.6,0a1.72,1.72,0,1,0,1.72-1.72l0-.34a1.72,1.72,0,1,0-1.71-1.72l-.6-.05a1.72,1.72,0,1,0-1.72,1.72Z"/><circle class="cls-9" cx="108.84" cy="72.91" r="0.62"/><circle class="cls-9" cx="110.31" cy="74.36" r="0.62"/><circle class="cls-9" cx="108.86" cy="75.68" r="0.62"/><circle class="cls-9" cx="107.34" cy="74.36" r="0.62"/><path class="cls-11" d="M108.73,77.68a2.17,2.17,0,0,1-.93.94,2.7,2.7,0,0,0,1.86,0A2.28,2.28,0,0,1,108.73,77.68Zm-3.25-3.4a2.16,2.16,0,0,1-.93-.94,2.67,2.67,0,0,0,0,1.87,2.19,2.19,0,0,1,.93-.93Zm6.76.15a2.22,2.22,0,0,0,.94-.93,2.7,2.7,0,0,1,0,1.86,2.28,2.28,0,0,0-.94-.93ZM108.91,71a2.09,2.09,0,0,0-.93-.93,2.65,2.65,0,0,1,1.86,0A2.25,2.25,0,0,0,108.91,71Z"/></g><g id="keydeco"><path class="cls-12" d="M82.44,49.87a1,1,0,0,0,0-.31.83.83,0,0,0-.28-.43.78.78,0,0,0-.38-.2,1.06,1.06,0,0,0-.47,0,1.55,1.55,0,0,0-.29.14l-.63.26-.23.75a1.93,1.93,0,0,0-.17.37.9.9,0,0,0,0,.43.93.93,0,0,0,.27.43.77.77,0,0,0,.44.17,1.12,1.12,0,0,0,.35-.08,1.56,1.56,0,0,1,1.42-1.57Z"/><path class="cls-12" d="M81,49.1l-1.64-.72-.14.13.9,1.62s.25-.37.4-.54.48-.49.48-.49Z"/><circle class="cls-12" cx="79.21" cy="48.24" r="0.68"/><path class="cls-12" d="M83.83,51.08a20.13,20.13,0,0,0,.68,3.56l1.32,1.21a17.62,17.62,0,0,1-.78-3.72Z"/><path class="cls-12" d="M85.82,52.79l-3.63-.27,1.16,1.06,3.31.14,0-.17Z"/><path class="cls-12" d="M90.3,56.8a2.64,2.64,0,0,0-1.61,1.58c-.27,0-.52,0-.61-.17a2.47,2.47,0,0,1,1.52-2C90.23,56.06,90.11,56.55,90.3,56.8Z"/><path class="cls-12" d="M91.47,57.9a2.61,2.61,0,0,0-1.61,1.58c-.27,0-.52,0-.61-.17a2.45,2.45,0,0,1,1.52-2c.63-.12.51.37.7.62Z"/><path class="cls-12" d="M104.76,69a3.09,3.09,0,0,0-.64.06,1.58,1.58,0,0,1-.51,1.12,1.43,1.43,0,0,1-1,.51h0s-.12.75.11,1,1.15.16,1.15.16l.08-.05a5.51,5.51,0,0,1,1.35-1.69l0,0s.13-.7-.1-.91a.35.35,0,0,0-.46,0Z"/><circle class="cls-12" cx="113.08" cy="69.91" r="0.75"/><circle class="cls-12" cx="113.34" cy="78.6" r="0.75"/><circle class="cls-12" cx="104.9" cy="79.09" r="0.75"/></g></g><g id="goldkey"><g id="keybase-2" data-name="keybase"><path class="cls-12" d="M110.12,49.88l-4.29,3.69s.21.47.3.72a4.26,4.26,0,0,1,.22.69c.09.35.18,1.05.18,1.05l5-4.59a1.53,1.53,0,0,0-1.42-1.56Z"/><path class="cls-12" d="M110.73,52.18l1,1.16-.64.62,1,1,.65-.64,1.08,1.15v1.44l-2.46,1.93-.86-.63,0-1.38-.65.37-.66-.4,0,1.24.54-.39.58.76.06,1.36-1.86,1.66-2.25-2,.17-.6.1-.54.05-1.07L106.54,56Z"/><path class="cls-12" d="M111.76,53.34l0,1.27-.67-.65Z"/><path class="cls-10" d="M108.48,59.93l.08,1.45m.79-5.93,0,1.35m.63-.74,0,1.1m.61-1.54,0,1.23m.91.64,0,1.3m-1.05-.41L108.48,60l-1.91-1.68m7.26-2.84-2.44,2.09-.81-.72.64-.53-.71-.67-.55.47-.62-.63-.8.78.73.57-.68.62.64.6"/><path class="cls-12" d="M94.49,63.7l-2.07,1.9L92,66.93l2.66-.28,1.52-1.5,1.61-1.49,7-6s-.15-.56-.24-.83-.29-.78-.45-1.17l-.12-.29-7.78,6.9Z"/><path class="cls-12" d="M92.73,64a46,46,0,0,1-3.68,3.86c-.58.73-1,1.42-.11,2.36s1.83.4,2.6-.11a52.52,52.52,0,0,1,4-3.46Z"/><path class="cls-12" d="M93.41,66.7,94.9,66m-1.74-1.63c-.1.34,0,.72-.15,1a4.35,4.35,0,0,1-.6.85,2.32,2.32,0,0,1,.44.1c.2.07.51.11.56.32s-.17.34-.3.48a1.78,1.78,0,0,1-.44.32,2.91,2.91,0,0,1-.82.38c-.38.06-1.07-.46-1.14-.09,0,.16.32.06.46.13.33.16.49.51.2.76s-.47.1-.72.12-.5-.12-.7,0-.54.47-.41.72.61.24.84.08.13-.41.16-.61V68.8"/><circle class="cls-12" cx="83.72" cy="74.36" r="5.51"/><path class="cls-11" d="M85.79,74.59a1.72,1.72,0,1,1-1.72,1.72l-.6,0a1.72,1.72,0,1,1-1.72-1.72l0-.34a1.72,1.72,0,1,1,1.72-1.72l.6-.05a1.72,1.72,0,1,1,1.72,1.72Z"/><circle class="cls-12" cx="83.72" cy="72.91" r="0.62"/><circle class="cls-12" cx="82.25" cy="74.36" r="0.62"/><circle class="cls-12" cx="83.7" cy="75.68" r="0.62"/><circle class="cls-12" cx="85.22" cy="74.36" r="0.62"/><path class="cls-11" d="M83.83,77.68a2.17,2.17,0,0,0,.93.94,2.7,2.7,0,0,1-1.86,0A2.28,2.28,0,0,0,83.83,77.68Zm3.25-3.4a2.16,2.16,0,0,0,.93-.94,2.67,2.67,0,0,1,0,1.87,2.25,2.25,0,0,0-.93-.93Zm-6.77.15a2.25,2.25,0,0,1-.93-.93,2.7,2.7,0,0,0,0,1.86,2.31,2.31,0,0,1,.93-.93ZM83.65,71a2.09,2.09,0,0,1,.93-.93,2.67,2.67,0,0,0-1.87,0A2.22,2.22,0,0,1,83.65,71Z"/></g><g id="keydeco-2" data-name="keydeco"><path class="cls-9" d="M110.11,49.87a1.51,1.51,0,0,1,0-.31,1,1,0,0,1,.28-.43.86.86,0,0,1,.39-.2,1.06,1.06,0,0,1,.47,0,2,2,0,0,1,.29.14l.63.26.23.75a1.93,1.93,0,0,1,.17.37.9.9,0,0,1,0,.43.84.84,0,0,1-.26.43.77.77,0,0,1-.44.17,1.12,1.12,0,0,1-.35-.08,1.56,1.56,0,0,0-1.43-1.57Z"/><path class="cls-9" d="M111.53,49.1l1.64-.72.14.13-.9,1.62s-.25-.37-.4-.54-.48-.49-.48-.49Z"/><circle class="cls-9" cx="113.35" cy="48.24" r="0.68"/><path class="cls-9" d="M108.73,51.08a20.16,20.16,0,0,1-.69,3.56l-1.32,1.21a16.45,16.45,0,0,0,.78-3.72Z"/><path class="cls-9" d="M106.73,52.79l3.64-.27-1.16,1.06-3.32.14,0-.17Z"/><path class="cls-9" d="M102.26,56.8a2.66,2.66,0,0,1,1.61,1.58c.27,0,.52,0,.61-.17a2.47,2.47,0,0,0-1.52-2C102.33,56.06,102.44,56.55,102.26,56.8Z"/><path class="cls-9" d="M101.09,57.9a2.64,2.64,0,0,1,1.61,1.58c.27,0,.52,0,.61-.17a2.47,2.47,0,0,0-1.52-2c-.63-.12-.51.37-.7.62Z"/><path class="cls-9" d="M87.8,69a3.09,3.09,0,0,1,.64.06,1.61,1.61,0,0,0,.5,1.12,1.47,1.47,0,0,0,1,.51h0s.12.75-.11,1-1.15.16-1.15.16l-.08-.05a5.51,5.51,0,0,0-1.35-1.69l0,0s-.13-.7.09-.91a.36.36,0,0,1,.47,0Z"/><circle class="cls-9" cx="79.48" cy="69.91" r="0.75"/><circle class="cls-9" cx="79.22" cy="78.6" r="0.75"/><circle class="cls-9" cx="87.66" cy="79.09" r="0.75"/></g></g><g id="cord"><path id="piece1" class="cls-13" d="M96.71,61.43c0,.23-.19.31-.57.31s-.54-.1-.54-.33.17-.29.54-.29S96.71,61.2,96.71,61.43Z"/><path id="piece1-2" data-name="piece1" class="cls-13" d="M97,62c0,.22-.19.31-.56.31s-.55-.1-.55-.33.17-.29.55-.29S97,61.81,97,62Z"/><path class="cls-13" d="M97.05,62.83c-.07.21-.28.23-.63.11s-.48-.28-.4-.5.25-.21.6-.09.51.26.43.48Z"/><path id="piece2" class="cls-13" d="M97.06,63.41c0,.23-.25.28-.61.2s-.51-.21-.47-.43.23-.25.59-.18.54.19.49.41Z"/><path id="piece2-2" data-name="piece2" class="cls-13" d="M97.23,64.1c0,.22-.25.27-.62.2s-.51-.21-.46-.44.22-.24.59-.17.53.19.49.41Z"/><path class="cls-13" d="M98.94,63.15c-.11,0-.1-.23-.07-.34s.36-.39.36-.39a.94.94,0,0,1,0,.35c0,.16-.17.42-.33.38Z"/><path class="cls-13" d="M98.54,63.49c-.12,0-.14-.23-.11-.35s.41-.39.41-.39a.89.89,0,0,1,0,.37c-.06.16-.17.41-.33.37Z"/><path class="cls-13" d="M98.08,64.16c-.18,0-.16-.38-.11-.56s.16-.39.31-.35.17.36.13.53-.17.42-.33.38Z"/><path class="cls-13" d="M97.54,64.67c-.18,0-.26-.32-.22-.5s.23-.44.41-.4.26.35.21.54S97.71,64.71,97.54,64.67Z"/><path class="cls-13" d="M97.44,65a.38.38,0,0,1-.48.23.52.52,0,0,1-.36-.53.39.39,0,0,1,.52-.22.51.51,0,0,1,.32.52Z"/><path class="cls-13" d="M93.83,62.89a1.35,1.35,0,0,1,.31.21c.1.1.22.14.16.29s-.25.1-.35,0a1.39,1.39,0,0,1-.12-.5Z"/><path class="cls-13" d="M94.91,63.27c.22,0,.21.3.1.46a.87.87,0,0,1-.69.33c-.24,0-.21-.33-.08-.49a.82.82,0,0,1,.67-.3Z"/><path id="piece3" class="cls-13" d="M95.65,63.75c.2.1.14.35,0,.48a.87.87,0,0,1-.75.17c-.22-.1-.13-.37,0-.5a.87.87,0,0,1,.72-.15Z"/><path id="piece3-2" data-name="piece3" class="cls-13" d="M96.24,64.21c.21.09.15.34,0,.47a.84.84,0,0,1-.75.17c-.22-.09-.13-.36,0-.5a.85.85,0,0,1,.71-.14Z"/><path class="cls-13" d="M96.44,64.61c.21,0,.26.32.2.5s-.32.45-.53.42-.26-.35-.18-.54.31-.41.51-.38Z"/><path class="cls-13" d="M97,65.23c.17.1.13.41,0,.58s-.42.36-.6.26-.12-.44,0-.61.4-.32.57-.23Z"/><path class="cls-13" d="M93.3,63.54c.18,0,.31.25.3.45s-.14.52-.33.54S93,64.25,93,64s.15-.49.33-.5Z"/><path class="cls-13" d="M93.89,64.06c.18,0,.21.33.15.52s-.29.46-.48.41-.21-.36-.13-.56.29-.41.46-.37Z"/><path class="cls-13" d="M94.44,64.42c.21,0,.25.42.18.65s-.35.57-.57.52-.25-.46-.16-.7.34-.52.55-.47Z"/><path class="cls-13" d="M94.88,64.87c.21,0,.38.3.4.54s-.13.66-.35.69-.39-.34-.4-.6.14-.6.35-.63Z"/><path id="piece4" class="cls-13" d="M95.41,65.25c.19,0,.34.25.36.45s-.12.54-.32.56-.36-.28-.36-.49.13-.5.32-.52Z"/><path id="piece4-2" data-name="piece4" class="cls-13" d="M96,65.69c.19,0,.35.24.36.45s-.12.54-.32.56-.35-.28-.36-.49.13-.5.32-.52Z"/><path id="piece5" class="cls-13" d="M99.26,64.62c-.14.12-.41,0-.54-.12s-.22-.45-.07-.58.43,0,.56.16.19.42.05.54Z"/><path id="piece5-2" data-name="piece5" class="cls-13" d="M99,65.16c-.14.12-.41,0-.53-.12s-.23-.45-.08-.57.44,0,.56.15.19.42,0,.54Z"/><path id="piece5-3" data-name="piece5" class="cls-13" d="M98.43,65.62c-.14.12-.41,0-.53-.13s-.23-.44-.08-.57.44,0,.56.15.19.43.05.55Z"/><path class="cls-13" d="M98.24,65.91c0,.17-.34.23-.52.19s-.43-.25-.38-.44.37-.23.56-.18S98.28,65.73,98.24,65.91Z"/><path class="cls-13" d="M97.47,65.78c.16.11.12.45,0,.63s-.39.4-.55.29-.11-.48,0-.67.37-.36.52-.25Z"/><path class="cls-13" d="M96.73,66.18c.16.09.12.4,0,.57s-.42.37-.59.26-.12-.43,0-.61.4-.32.57-.22Z"/><path id="piece6" class="cls-13" d="M95.1,67.25c-.15.14,0,.48.12.65s.5.35.65.2,0-.51-.15-.68-.48-.3-.62-.17Z"/><path id="piece6-2" data-name="piece6" class="cls-13" d="M94.79,67.84c-.15.14,0,.48.12.65s.5.34.65.2,0-.51-.15-.69-.48-.3-.62-.16Z"/><path id="piece7" class="cls-13" d="M94.65,68.39c-.18.07-.2.43-.13.64s.34.51.53.43.2-.47.12-.69-.34-.46-.52-.38Z"/><path id="piece7-2" data-name="piece7" class="cls-13" d="M94.2,69c-.18.07-.2.43-.13.64s.34.51.53.43.21-.47.12-.69-.33-.46-.52-.38Z"/><path id="piece8" class="cls-13" d="M93.88,69.72c-.19,0-.27.4-.23.62s.25.55.46.51.27-.43.22-.67-.26-.5-.45-.46Z"/><path id="piece8-2" data-name="piece8" class="cls-13" d="M93.45,70.4c-.19,0-.27.4-.23.62s.25.55.46.5.27-.43.22-.66-.26-.5-.45-.46Z"/><path id="piece9" class="cls-13" d="M93.09,71.09c-.2,0-.34.34-.34.57s.14.59.35.58.35-.37.34-.61-.15-.54-.35-.54Z"/><path id="piece9-2" data-name="piece9" class="cls-13" d="M92.65,71.91c-.2,0-.34.34-.34.56s.15.59.35.58.35-.37.34-.61-.15-.54-.35-.53Z"/><path id="piece9-3" data-name="piece9" class="cls-13" d="M92.14,72.67c-.2,0-.34.33-.34.56s.14.59.35.58.35-.37.34-.61-.15-.54-.35-.53Z"/><path id="piece9-4" data-name="piece9" class="cls-13" d="M91.61,73.32c-.2,0-.34.33-.34.56s.14.59.35.58.35-.37.34-.61-.15-.54-.35-.53Z"/><path id="piece9-5" data-name="piece9" class="cls-13" d="M91.06,73.92c-.2,0-.34.34-.34.56s.14.59.35.59.35-.38.34-.62-.15-.54-.35-.53Z"/><path id="piece9-6" data-name="piece9" class="cls-13" d="M90.46,74.41c-.2,0-.35.34-.35.57s.15.59.36.58.35-.37.34-.61-.16-.54-.35-.54Z"/><path id="piece9-7" data-name="piece9" class="cls-13" d="M89.88,74.94c-.2,0-.34.34-.34.57s.14.59.35.58.35-.37.34-.61-.15-.54-.35-.54Z"/><path class="cls-13" d="M89.21,75.21l-.22.88s.12.31.25.29.3-.38.34-.61S89.21,75.21,89.21,75.21Z"/><path class="cls-13" d="M103,75.77c.06.26.64.48.64.48l-.28-1.18C103.12,75.07,103,75.6,103,75.77Z"/><path class="cls-13" d="M102.94,74.82c-.18-.07-.44.17-.54.38s-.1.6.1.67.47-.2.56-.42.07-.56-.12-.63Z"/><path id="piece10" class="cls-13" d="M102.3,74.3c-.2,0-.37.3-.39.53s.09.6.3.61.38-.34.39-.58-.1-.55-.3-.56Z"/><path id="piece10-2" data-name="piece10" class="cls-13" d="M101.73,73.71c-.2,0-.37.31-.39.54s.09.6.3.61.38-.34.4-.58-.11-.56-.31-.57Z"/><path id="piece10-3" data-name="piece10" class="cls-13" d="M101.2,73.05c-.2,0-.37.31-.39.54s.09.6.3.61.38-.34.39-.58-.1-.56-.3-.57Z"/><path id="piece10-4" data-name="piece10" class="cls-13" d="M100.66,72.5c-.2,0-.37.3-.39.53s.09.6.3.61.38-.34.39-.58-.11-.55-.3-.56Z"/><path id="piece10-5" data-name="piece10" class="cls-13" d="M100.22,71.74c-.2,0-.37.3-.39.53s.09.6.3.61.38-.34.39-.58-.11-.55-.3-.56Z"/><path id="piece10-6" data-name="piece10" class="cls-13" d="M99.74,71.05c-.2,0-.37.31-.39.53s.09.6.3.61.38-.34.39-.58-.11-.55-.3-.56Z"/><path id="piece10-7" data-name="piece10" class="cls-13" d="M99.3,70.33c-.2,0-.37.3-.39.53s.09.6.3.61.38-.34.39-.58-.11-.55-.3-.56Z"/><path id="piece10-8" data-name="piece10" class="cls-13" d="M98.91,69.49c-.2,0-.37.3-.39.53s.09.6.3.61.38-.34.4-.58-.11-.55-.31-.56Z"/><path id="piece10-9" data-name="piece10" class="cls-13" d="M98.48,68.72c-.2,0-.37.31-.39.53s.1.6.31.61.38-.34.39-.58-.11-.55-.31-.56Z"/><path id="piece10-10" data-name="piece10" class="cls-13" d="M98.13,67.82c-.19,0-.37.3-.39.53s.1.6.31.61.38-.34.39-.58-.11-.55-.31-.56Z"/><path class="cls-13" d="M97.33,66.9s-.07,1.13.34,1.21.46-.64.46-.64Z"/><path id="piece11" class="cls-13" d="M96.4,79.91c-.12.16,0,.48.21.62s.55.27.68.1-.06-.5-.25-.65-.52-.23-.64-.07Z"/><path id="piece11-2" data-name="piece11" class="cls-13" d="M97.18,79.82c-.12.15,0,.48.21.62s.55.27.68.1-.07-.5-.26-.65-.51-.23-.63-.07Z"/><path id="piece11-3" data-name="piece11" class="cls-13" d="M98,79.66c-.13.16,0,.48.21.63s.54.26.67.1-.06-.51-.25-.66-.51-.22-.63-.07Z"/><path id="piece12" class="cls-13" d="M98.7,79.61c-.09.18.11.47.31.59s.58.18.68,0-.14-.49-.35-.61-.54-.15-.64,0Z"/><path id="piece12-2" data-name="piece12" class="cls-13" d="M99.55,79.48c-.09.17.11.46.31.58s.58.18.68,0-.14-.49-.35-.61-.54-.15-.64,0Z"/><path id="piece13" class="cls-13" d="M100.29,79.26c-.08.18.15.45.35.55s.6.13.68-.06-.18-.48-.4-.58-.55-.09-.63.09Z"/><path id="piece13-2" data-name="piece13" class="cls-13" d="M101.09,79c-.08.18.16.45.36.56s.59.12.68-.07-.19-.48-.4-.57-.56-.1-.64.08Z"/><path id="piece14" class="cls-13" d="M101.89,78.77c-.07.18.18.44.39.53s.6.09.68-.1-.22-.47-.44-.55-.56-.07-.63.12Z"/><path id="piece14-2" data-name="piece14" class="cls-13" d="M102.71,78.5c-.07.19.18.45.39.54s.6.09.67-.11-.21-.46-.44-.55-.55-.06-.62.12Z"/><path id="piece14-3" data-name="piece14" class="cls-13" d="M103.49,78.17c-.07.19.18.45.39.54s.6.09.68-.11-.21-.46-.44-.55-.56-.06-.63.12Z"/><path id="piece14-4" data-name="piece14" class="cls-13" d="M104.34,77.83c-.07.18.17.44.38.53s.6.09.68-.11-.21-.46-.44-.55-.56-.06-.62.13Z"/><path id="piece14-5" data-name="piece14" class="cls-13" d="M105.19,77.55c-.07.19.18.45.38.53s.61.1.68-.1-.21-.47-.44-.55-.56-.06-.62.12Z"/><path id="piece14-6" data-name="piece14" class="cls-13" d="M105.29,76.88c-.07.19.18.45.39.54s.6.09.67-.11-.21-.46-.44-.55-.55-.06-.62.12Z"/><path class="cls-13" d="M105.1,76.68s.57.09.63-.12-.66-.54-.66-.54Z"/><path id="piece15" class="cls-13" d="M89.59,78.41c-.17.11-.13.47,0,.66s.42.44.6.33.11-.49,0-.7-.41-.39-.57-.29Z"/><path id="piece15-2" data-name="piece15" class="cls-13" d="M90.39,78.74c-.17.11-.13.47,0,.66s.42.44.6.33.12-.49,0-.7-.4-.39-.57-.29Z"/><path id="piece15-3" data-name="piece15" class="cls-13" d="M91.16,78.86c-.17.11-.13.46,0,.66s.42.44.6.33.12-.49,0-.7-.4-.39-.57-.29Z"/><path id="piece15-4" data-name="piece15" class="cls-13" d="M92,79.07c-.17.11-.13.46,0,.66s.42.44.6.33.12-.49,0-.7-.4-.39-.57-.29Z"/><path id="piece15-5" data-name="piece15" class="cls-13" d="M92.76,79.18c-.17.11-.13.46,0,.66s.42.44.6.33.12-.5,0-.7-.4-.39-.57-.29Z"/><path id="piece15-6" data-name="piece15" class="cls-13" d="M93.51,79.34c-.17.1-.13.46,0,.66s.42.44.6.33.12-.5,0-.7-.4-.4-.57-.29Z"/><path id="piece15-7" data-name="piece15" class="cls-13" d="M94.28,79.55c-.17.1-.13.46,0,.66s.42.44.6.33.11-.5,0-.7-.4-.4-.57-.29Z"/><path id="piece15-8" data-name="piece15" class="cls-13" d="M95,79.69c-.17.1-.13.46,0,.66s.42.44.6.33.11-.5,0-.71-.4-.39-.57-.28Z"/><path id="piece15-9" data-name="piece15" class="cls-13" d="M95.82,79.8c-.17.11-.13.47,0,.66s.42.44.59.33.12-.49,0-.7-.41-.39-.57-.29Z"/><path class="cls-13" d="M87.32,76c-.18-.09-.47.12-.58.32s-.16.59,0,.68.48-.15.59-.37.13-.54,0-.63Z"/><path class="cls-13" d="M87.05,76.66c-.18-.06-.44.19-.52.4s-.08.6.11.67.47-.21.55-.44,0-.56-.14-.63Z"/><path class="cls-13" d="M87.3,77.32c-.19,0-.42.23-.49.45s0,.61.18.66.44-.26.5-.5,0-.56-.19-.61Z"/><path class="cls-13" d="M87.92,77.6c-.19-.06-.43.21-.5.42s0,.61.15.67.45-.25.52-.48,0-.56-.17-.61Z"/><path id="piece16" class="cls-13" d="M88.33,77.7c-.2,0-.27.4-.22.62s.26.55.46.5.27-.44.21-.67-.26-.5-.45-.45Z"/><path id="piece16-2" data-name="piece16" class="cls-13" d="M89,78c-.19,0-.27.4-.22.62s.27.55.47.5.26-.44.2-.68-.26-.49-.45-.44Z"/><path id="piece6-3" data-name="piece6" class="cls-13" d="M95.46,66.78c-.14.14,0,.48.12.65s.5.34.65.2,0-.51-.15-.69-.47-.3-.62-.16Z"/><path id="piece6-4" data-name="piece6" class="cls-13" d="M95.3,67.53c-.15.14,0,.48.11.65s.51.34.66.2,0-.51-.16-.69-.47-.3-.61-.16Z"/><path id="piece6-5" data-name="piece6" class="cls-13" d="M95.31,68.39c-.15.14,0,.48.12.65s.5.34.65.2,0-.51-.16-.69-.47-.3-.61-.16Z"/><path id="piece6-6" data-name="piece6" class="cls-13" d="M95.3,69.29c-.15.14,0,.48.11.65s.51.34.66.2,0-.51-.16-.69-.47-.3-.61-.16Z"/><path id="piece6-7" data-name="piece6" class="cls-13" d="M95.34,70.17c-.15.13,0,.48.11.65s.5.34.66.2,0-.51-.16-.69-.47-.3-.61-.16Z"/><path id="piece6-8" data-name="piece6" class="cls-13" d="M95.19,71c-.14.14,0,.48.12.65s.5.35.65.2,0-.51-.15-.68-.47-.3-.62-.17Z"/><path id="piece6-9" data-name="piece6" class="cls-13" d="M95.3,71.89c-.15.14,0,.48.11.65s.51.34.66.2,0-.51-.16-.69-.47-.3-.61-.16Z"/><path id="piece6-10" data-name="piece6" class="cls-13" d="M95.19,72.62c-.14.14,0,.48.12.65s.5.35.65.2,0-.51-.15-.68-.47-.3-.62-.17Z"/><path id="piece6-11" data-name="piece6" class="cls-13" d="M95.3,73.35c-.15.14,0,.48.11.65s.51.34.66.2,0-.51-.16-.69-.47-.3-.61-.16Z"/><path id="piece6-12" data-name="piece6" class="cls-13" d="M95.3,74.22c-.15.13,0,.47.11.65s.51.34.66.19,0-.51-.16-.68-.47-.3-.61-.16Z"/><path id="piece6-13" data-name="piece6" class="cls-13" d="M95.25,75.07c-.15.14,0,.48.11.65s.5.34.65.2,0-.51-.15-.69-.47-.3-.62-.16Z"/><path id="piece6-14" data-name="piece6" class="cls-13" d="M95.26,75.88c-.15.14,0,.48.12.65s.5.35.65.2,0-.51-.16-.68-.47-.3-.61-.17Z"/><path id="piece6-15" data-name="piece6" class="cls-13" d="M95.28,76.75c-.14.14,0,.48.12.65s.5.34.65.2,0-.51-.15-.69-.47-.3-.62-.16Z"/><path id="piece6-16" data-name="piece6" class="cls-13" d="M95.28,77.59c-.14.14,0,.48.12.65s.5.35.65.2,0-.51-.15-.68-.47-.3-.62-.17Z"/><path id="piece6-17" data-name="piece6" class="cls-13" d="M95.26,78.43c-.15.14,0,.48.12.65s.5.35.65.2,0-.51-.16-.68-.47-.3-.61-.17Z"/><path id="piece6-18" data-name="piece6" class="cls-13" d="M95.21,79.29c-.15.13,0,.47.11.65s.5.34.66.19,0-.51-.16-.68-.47-.3-.61-.16Z"/><path id="piece6-19" data-name="piece6" class="cls-13" d="M95.21,80.22c-.15.13,0,.48.11.65s.5.34.66.2,0-.51-.16-.69-.47-.3-.61-.16Z"/><path id="piece6-20" data-name="piece6" class="cls-13" d="M95.18,81.19c-.14.13,0,.48.12.65s.5.34.65.2,0-.51-.15-.69-.48-.3-.62-.16Z"/><path id="piece6-21" data-name="piece6" class="cls-13" d="M95.18,82.09c-.14.14,0,.48.12.65s.5.35.65.2,0-.51-.15-.68-.48-.3-.62-.17Z"/><path id="piece6-22" data-name="piece6" class="cls-13" d="M95.18,82.93c-.14.14,0,.48.12.65s.5.35.65.2,0-.51-.15-.68-.48-.3-.62-.17Z"/><path id="piece6-23" data-name="piece6" class="cls-13" d="M95.15,83.88c-.14.14,0,.48.12.65s.5.34.65.2,0-.51-.15-.69-.47-.3-.62-.16Z"/><path id="piece17" class="cls-13" d="M97.26,66.84c.11.16-.05.46-.22.59s-.5.24-.61.07.08-.49.25-.62.48-.19.58,0Z"/><path id="piece17-2" data-name="piece17" class="cls-13" d="M97.38,67.53c.1.15-.06.46-.22.59s-.51.23-.62.07.08-.49.26-.63.48-.19.58,0Z"/><path id="piece17-3" data-name="piece17" class="cls-13" d="M97.36,68.29c.11.16,0,.46-.21.59s-.51.24-.62.07.08-.49.26-.62.47-.2.57,0Z"/><path id="piece17-4" data-name="piece17" class="cls-13" d="M97.35,69.07c.11.15,0,.46-.22.59s-.5.23-.61.07.08-.49.25-.63.48-.19.58,0Z"/><path id="piece17-5" data-name="piece17" class="cls-13" d="M97.34,69.78c.1.15-.06.46-.22.59s-.51.23-.62.07.08-.49.26-.62.48-.2.58,0Z"/><path id="piece17-6" data-name="piece17" class="cls-13" d="M97.38,70.54c.1.16-.06.46-.22.59s-.51.24-.62.07.08-.49.26-.62.48-.2.58,0Z"/><path id="piece17-7" data-name="piece17" class="cls-13" d="M97.33,71.28c.1.15-.06.46-.22.59s-.51.23-.62.07.08-.49.26-.62.47-.2.58,0Z"/><path class="cls-13" d="M97.3,72.06c.12.16-.06.48-.24.62s-.56.24-.68.06.09-.5.29-.64.52-.2.63,0Z"/><path id="piece18" class="cls-13" d="M97.26,72.81c.14.13,0,.47-.12.65s-.5.34-.65.19,0-.51.15-.68.47-.3.62-.16Z"/><path id="piece18-2" data-name="piece18" class="cls-13" d="M97.28,73.67c.15.14,0,.48-.12.65s-.5.35-.65.2,0-.51.15-.68.48-.3.62-.17Z"/><path id="piece18-3" data-name="piece18" class="cls-13" d="M97.29,74.53c.15.13,0,.47-.11.65s-.5.34-.66.2,0-.52.16-.69.47-.3.61-.16Z"/><path id="piece18-4" data-name="piece18" class="cls-13" d="M97.27,75.44c.14.14,0,.48-.12.65s-.5.35-.65.2,0-.51.15-.68.48-.3.62-.17Z"/><path id="piece18-5" data-name="piece18" class="cls-13" d="M97.29,76.3c.15.14,0,.48-.11.65s-.5.34-.66.2,0-.51.16-.69.47-.3.61-.16Z"/><path id="piece18-6" data-name="piece18" class="cls-13" d="M97.27,77.16c.14.14,0,.48-.12.65s-.5.35-.65.2,0-.51.15-.68.48-.3.62-.17Z"/><path id="piece18-7" data-name="piece18" class="cls-13" d="M97.28,78c.15.14,0,.48-.12.65s-.5.34-.65.2,0-.51.15-.69.48-.29.62-.16Z"/><path id="piece18-8" data-name="piece18" class="cls-13" d="M97.28,78.91c.15.14,0,.48-.12.65s-.5.34-.65.2,0-.51.15-.69.48-.3.62-.16Z"/><path id="piece18-9" data-name="piece18" class="cls-13" d="M97.24,79.79c.15.14,0,.48-.12.65s-.5.34-.65.2,0-.51.16-.69.47-.3.61-.16Z"/><path id="piece18-10" data-name="piece18" class="cls-13" d="M97.29,80.59c.15.14,0,.48-.11.65s-.5.35-.66.2,0-.51.16-.68.47-.3.61-.17Z"/><path id="piece18-11" data-name="piece18" class="cls-13" d="M97.29,81.43c.15.14,0,.48-.11.65s-.5.35-.66.2,0-.51.16-.68.47-.3.61-.17Z"/><path id="piece18-12" data-name="piece18" class="cls-13" d="M97.27,82.34c.14.14,0,.48-.12.65s-.5.34-.65.2,0-.51.15-.69.48-.3.62-.16Z"/><path id="piece18-13" data-name="piece18" class="cls-13" d="M97.27,83.23c.14.14,0,.48-.12.65s-.5.34-.65.2,0-.51.15-.69.48-.3.62-.16Z"/><path class="cls-13" d="M95.88,90a3.31,3.31,0,0,0,2,0l-.74-1.19"/><path class="cls-12" d="M97.52,86.94l-1.35-.35s0-1.49.87-1.36c.7.1.51,1.71.48,1.71Z"/><circle class="cls-12" cx="96.86" cy="84.68" r="0.55"/><path class="cls-13" d="M97.39,87.6a3.07,3.07,0,0,1,.21,2.27m.32.15a2.5,2.5,0,0,0-2,0c-.19,0-.7-3.54,1.09-3.45S98,90,97.92,90Z"/><path class="cls-13" d="M94.41,90.77a2,2,0,0,0,2.31,0L95,89"/><circle class="cls-12" cx="95.61" cy="85.33" r="0.55"/><path class="cls-12" d="M96.29,87.1l-1.39,0s-.18-1.13.68-1.18.74,1.21.71,1.21Z"/><path class="cls-13" d="M95.62,90.53a4.21,4.21,0,0,1-.22-2.1M95,90.57a2.7,2.7,0,0,1-.13-2.18m1.84,2.41a2.84,2.84,0,0,0-2.29,0c-.22,0-.79-4,1.23-3.89,1.85.09,1.19,3.92,1.06,3.91Z"/></g></g></g></svg>