<svg id="Layer_1" data-name="Layer 1" xmlns="http://www.w3.org/2000/svg" xmlns:xlink="http://www.w3.org/1999/xlink" viewBox="0 0 128 128"><defs><style>.cls-1{fill:none;}.cls-2{clip-path:url(#clip-path);}.cls-3{clip-path:url(#clip-path-2);}.cls-4{fill:#edd030;}.cls-5{fill:#2e3e98;}.cls-6{fill:#bc1f37;}.cls-7{fill:#fff;}</style><clipPath id="clip-path"><circle class="cls-1" cx="64" cy="64" r="64"/></clipPath><clipPath id="clip-path-2"><rect id="_Clipping_Path_" data-name="&lt;Clipping Path&gt;" class="cls-1" x="-45.72" y="-1.22" width="219.44" height="128"/></clipPath></defs><title>Flag_circle_Venezuela</title><g class="cls-2"><g id="_Clip_Group_" data-name="&lt;Clip Group&gt;"><g class="cls-3"><rect id="_Path_" data-name="&lt;Path&gt;" class="cls-4" x="-45.72" y="-1.22" width="219.44" height="42.66"/><rect id="_Path_2" data-name="&lt;Path&gt;" class="cls-5" x="-45.72" y="41.44" width="219.44" height="42.67"/><rect id="_Path_3" data-name="&lt;Path&gt;" class="cls-6" x="-45.72" y="84.11" width="219.44" height="42.66"/><polygon id="_Path_4" data-name="&lt;Path&gt;" class="cls-7" points="54.44 56.63 56.15 44.49 61.91 55.32 50.88 49.94 62.96 47.81 54.44 56.63"/><polygon id="_Path_5" data-name="&lt;Path&gt;" class="cls-7" points="66.08 55.32 71.83 44.49 73.55 56.63 65.03 47.81 77.1 49.94 66.08 55.32"/><polygon id="_Path_6" data-name="&lt;Path&gt;" class="cls-7" points="43.97 61.86 41.42 49.85 50.53 58.06 38.33 56.78 48.96 50.64 43.97 61.86"/><polygon id="_Path_7" data-name="&lt;Path&gt;" class="cls-7" points="77.45 58.06 86.57 49.85 84.02 61.86 79.02 50.64 89.66 56.78 77.45 58.06"/><polygon id="_Path_8" data-name="&lt;Path&gt;" class="cls-7" points="35.9 70.34 29.4 59.92 40.78 64.52 28.87 67.49 36.77 58.09 35.9 70.34"/><polygon id="_Path_9" data-name="&lt;Path&gt;" class="cls-7" points="87.21 64.52 98.59 59.92 92.09 70.34 91.23 58.09 99.12 67.49 87.21 64.52"/><polygon id="_Path_10" data-name="&lt;Path&gt;" class="cls-7" points="31.23 81.07 21.56 73.51 33.83 73.94 23.65 80.81 27.85 69.28 31.23 81.07"/><polygon id="_Path_11" data-name="&lt;Path&gt;" class="cls-7" points="94.17 73.94 106.43 73.51 96.77 81.07 100.15 69.28 104.34 80.81 94.17 73.94"/></g></g></g></svg>