<svg id="Layer_1" data-name="Layer 1" xmlns="http://www.w3.org/2000/svg" xmlns:xlink="http://www.w3.org/1999/xlink" viewBox="0 0 128 128"><defs><style>.cls-1{fill:none;}.cls-2{clip-path:url(#clip-path);}.cls-3{clip-path:url(#clip-path-2);}.cls-4{fill:#ed1b23;}.cls-5{fill:#0065b1;}.cls-6{fill:#fff;}</style><clipPath id="clip-path"><circle class="cls-1" cx="64" cy="64" r="64"/></clipPath><clipPath id="clip-path-2"><rect id="_Clipping_Path_" data-name="&lt;Clipping Path&gt;" class="cls-1" x="-28" y="-2" width="219.42" height="138"/></clipPath></defs><title>Flag_circle_Samoa</title><g class="cls-2"><g id="SAMOA"><g id="_Group_" data-name="&lt;Group&gt;"><g id="_Clip_Group_" data-name="&lt;Clip Group&gt;"><g class="cls-3"><rect id="_Path_" data-name="&lt;Path&gt;" class="cls-4" x="-28" y="-2" width="219.42" height="138"/><rect id="_Path_2" data-name="&lt;Path&gt;" class="cls-5" x="-28" y="-2" width="93.33" height="68.62"/><polygon id="_Path_3" data-name="&lt;Path&gt;" class="cls-6" points="30.61 48.69 35.65 64.17 22.48 54.61 38.76 54.61 25.58 64.17 30.61 48.69"/><polygon id="_Path_4" data-name="&lt;Path&gt;" class="cls-6" points="12.71 25.1 16.73 37.5 6.19 29.83 19.23 29.83 8.67 37.5 12.71 25.1"/><polygon id="_Path_5" data-name="&lt;Path&gt;" class="cls-6" points="48.93 22.67 52.7 34.28 42.83 27.1 55.03 27.1 45.16 34.28 48.93 22.67"/><polygon id="_Path_6" data-name="&lt;Path&gt;" class="cls-6" points="30.61 10.46 34.64 22.83 24.11 15.18 37.12 15.18 26.59 22.83 30.61 10.46"/><polygon id="_Path_7" data-name="&lt;Path&gt;" class="cls-6" points="39.56 37.71 42.1 45.45 35.5 40.67 43.63 40.67 37.05 45.45 39.56 37.71"/></g></g></g></g></g></svg>