<svg id="Layer_1" data-name="Layer 1" xmlns="http://www.w3.org/2000/svg" xmlns:xlink="http://www.w3.org/1999/xlink" viewBox="0 0 128 128"><defs><style>.cls-1{fill:none;}.cls-2{fill:#fff;}.cls-3{clip-path:url(#clip-path);}.cls-4{clip-path:url(#clip-path-2);}.cls-5{fill:#d03033;}.cls-6{fill:#1f189b;}.cls-7{fill:#f2b126;}.cls-8{fill:#32784c;}</style><clipPath id="clip-path"><circle class="cls-1" cx="64" cy="64" r="64"/></clipPath><clipPath id="clip-path-2"><rect id="_Clipping_Path_" data-name="&lt;Clipping Path&gt;" class="cls-2" x="-16.41" width="219.41" height="128"/></clipPath></defs><title>Flag_circle_South Africa Rep</title><g class="cls-3"><g id="SOUTH_AFRICA" data-name="SOUTH AFRICA"><g id="_Group_" data-name="&lt;Group&gt;"><g id="_Clip_Group_" data-name="&lt;Clip Group&gt;"><rect id="_Clipping_Path_2" data-name="&lt;Clipping Path&gt;" class="cls-2" x="-16.41" width="219.41" height="128"/><g class="cls-4"><polygon id="_Path_" data-name="&lt;Path&gt;" class="cls-5" points="22.03 0 86.03 42.65 203 42.65 203 0 22.03 0"/><polygon id="_Path_2" data-name="&lt;Path&gt;" class="cls-2" points="98.83 51.18 203 51.18 203 42.65 86.03 42.65 98.83 51.18"/><polygon id="_Path_3" data-name="&lt;Path&gt;" class="cls-2" points="86.03 85.35 203 85.35 203 76.8 98.83 76.8 86.03 85.35"/><polygon id="_Path_4" data-name="&lt;Path&gt;" class="cls-6" points="86.03 85.35 22.03 128 203 128 203 85.35 86.03 85.35"/><polygon id="_Path_5" data-name="&lt;Path&gt;" points="-16.41 42.65 9.11 42.65 -16.41 25.61 -16.41 42.65"/><polygon id="_Path_6" data-name="&lt;Path&gt;" points="-16.41 42.65 -16.41 85.35 9.11 85.35 41.12 63.97 9.11 42.65 -16.41 42.65"/><polygon id="_Path_7" data-name="&lt;Path&gt;" points="-16.41 85.35 -16.41 102.36 9.11 85.35 -16.41 85.35"/><polygon id="_Path_8" data-name="&lt;Path&gt;" class="cls-7" points="-16.41 25.61 41.12 63.97 -16.41 102.36 -16.41 112.6 56.5 63.97 -16.41 15.38 -16.41 25.61"/><polygon id="_Path_9" data-name="&lt;Path&gt;" class="cls-8" points="-16.41 0 -16.41 15.38 56.5 63.97 -16.41 112.6 -16.41 128 6.65 128 83.45 76.8 203 76.8 203 51.18 83.45 51.18 6.65 0 -16.41 0"/></g></g></g></g></g></svg>