<svg id="Layer_1" data-name="Layer 1" xmlns="http://www.w3.org/2000/svg" xmlns:xlink="http://www.w3.org/1999/xlink" viewBox="0 0 128 128"><defs><style>.cls-1{fill:none;}.cls-2{clip-path:url(#clip-path);}.cls-3{clip-path:url(#clip-path-2);}.cls-4{fill:#128b00;}.cls-5{fill:#ef7e00;}.cls-6{fill:#de1a06;}.cls-7{fill:#fff;}</style><clipPath id="clip-path"><circle class="cls-1" cx="64" cy="64" r="64"/></clipPath><clipPath id="clip-path-2"><rect id="_Clipping_Path_" data-name="&lt;Clipping Path&gt;" class="cls-1" x="-91.43" width="219.43" height="128"/></clipPath></defs><title>Flag_circle_Zambia</title><g class="cls-2"><g id="ZAMBIA"><g id="_Group_" data-name="&lt;Group&gt;"><g id="_Clip_Group_" data-name="&lt;Clip Group&gt;"><g class="cls-3"><rect id="_Path_" data-name="&lt;Path&gt;" class="cls-4" x="-91.43" width="219.43" height="128"/><rect id="_Path_2" data-name="&lt;Path&gt;" class="cls-5" x="102.24" y="52.53" width="25.76" height="75.47"/><rect id="_Path_3" data-name="&lt;Path&gt;" x="76.53" y="52.51" width="25.72" height="75.47"/><rect id="_Path_4" data-name="&lt;Path&gt;" class="cls-6" x="50.26" y="52.56" width="26.29" height="75.44"/><g id="_Clip_Group_2" data-name="&lt;Clip Group&gt;"><g class="cls-3"><path id="_Path_5" data-name="&lt;Path&gt;" class="cls-5" d="M110.75,18.75s9.69-4.14,10.62-5c.42.48-3.89,5.69-12.26,7.63,7.61-1.81,14.1-7.46,15.4-7.25.41,0,.31,5.49-17.11,10.19,12-3.17,19-9,19-8.33.07.16-1.22,4.57-11.74,8,2.94-.66,10.93-5.57,10.83-4.57.27.33-7.71,10.6-22.13,7.25,11.52,3,19-4.21,20-4.08.21.05-2.14,6.33-16.67,6.71,7-.74,5-.05,5-.05a9.3,9.3,0,0,1-9,1c3.89,1.05,4.32,1.1,4.38,1.46-.26.43-3.45,1.07-6.51-.61,2.46,1,4.7,1.2,4.74,1.58a3.19,3.19,0,0,1-3.06.38c-1.4-.63-14.39-8.6-14.39-8.6l22.12-6.08Z"/><g id="_Group_2" data-name="&lt;Group&gt;"><path id="_Compound_Path_" data-name="&lt;Compound Path&gt;" d="M103.3,33.56a2.58,2.58,0,0,1-1.18-.26c-1.4-.66-13.87-8.3-14.41-8.63a.14.14,0,0,1-.07-.18c0-.1,0-.15.12-.15l22.11-6.08.93.31c3.22-1.43,9.73-4.32,10.44-5a.38.38,0,0,1,.15,0,.11.11,0,0,1,.11.08.41.41,0,0,1,0,.3c-.09.54-1,1.69-2.58,3,.77-.43,1.45-.84,2.08-1.25,1.69-1,2.85-1.74,3.43-1.74.08,0,.3.23.32.31.07.69-.45,2.12-2.56,3.86,1.07-.62,1.92-1.15,2.56-1.51,1-.61,1.32-.82,1.53-.82,0,0,.23.21.23.26a7.5,7.5,0,0,1-2.82,3.63,5.29,5.29,0,0,1,1.59-.54.52.52,0,0,1,.26.1l.07.31a10.66,10.66,0,0,1-2.7,3,.71.71,0,0,1,.38-.13c.09,0,.25.16.23.26,0,.74-2.3,4.93-11.44,6.36v.05c0,.18-.1.28-.39.38a9.53,9.53,0,0,1-5.09,1.76c.37.16.5.29.57.49-.21.43-1,.66-2.06.71.16.08.25.18.25.28-.09.34-1.11.85-2.11.85Zm-15-9c2.11,1.3,12.75,7.84,14,8.4a3.5,3.5,0,0,0,2.81-.33,8.35,8.35,0,0,1-1.3-.23,8.65,8.65,0,0,1-3.36-1.1c-.1,0-.12-.13-.1-.23a.22.22,0,0,1,.24-.08,20.31,20.31,0,0,0,3.24,1,5.62,5.62,0,0,0,3.09-.33h0c-.07,0-.38-.1-1.71-.46a9.53,9.53,0,0,1-2.63-.72.17.17,0,0,1-.08-.23.16.16,0,0,1,.2-.12l2.6.71a8.92,8.92,0,0,0,.91,0,9.5,9.5,0,0,0,5.32-1.71h-.3c-1.4.15-2.89.28-4.46.33-.09-.05-.18-.07-.18-.18s0-.17.15-.17c2.12-.23,3.6-.36,4.46-.36,9.58-1.25,12-5.54,12-6.16a5.43,5.43,0,0,1-1.3.92c-.73.41-1.66,1-2.77,1.53a20.36,20.36,0,0,1-4.46,1.72,21.12,21.12,0,0,1-11.4.07c-.12,0-.17-.13-.14-.18a.19.19,0,0,1,.22-.15,23.7,23.7,0,0,0,11.21-.08,23.49,23.49,0,0,0,4.4-1.71c4.19-2.19,6.26-5,6.34-5.31A22.67,22.67,0,0,0,121.93,21a31.52,31.52,0,0,1-5.42,2.6c-.72.28-1.36.51-1.83.64a.18.18,0,0,1-.23-.15.17.17,0,0,1,.12-.21c.64-.18,1.25-.43,1.8-.64,1.38-.56,3-1.4,4.52-2.17l.88-.4c3.51-2.2,4.35-4.19,4.43-4.58a6.23,6.23,0,0,1-1.2.85c-1.26.76-3.32,2-6.08,3.34a49.87,49.87,0,0,1-8.84,3.53c-.85.25-1.73.51-2.63.74h0a.2.2,0,0,1-.23-.13.3.3,0,0,1,.13-.26c.93-.23,1.79-.46,2.62-.71a60.66,60.66,0,0,0,8.81-3.53c5.43-2.91,5.78-5.36,5.62-5.64A17.2,17.2,0,0,0,121.24,16c-1.63,1-3.67,2.22-6,3.37a26.31,26.31,0,0,1-6.06,2.17.16.16,0,0,1-.22-.12.17.17,0,0,1,.14-.23h0a29.92,29.92,0,0,0,6-2.17c3.6-1.89,5.52-4,6-4.86-2,1.2-9.91,4.6-10.25,4.73l-1-.28L88.28,24.57Z"/></g><path id="_Path_6" data-name="&lt;Path&gt;" class="cls-5" d="M84.75,40.35a1.81,1.81,0,0,0-2,1.74s-.17.1-.08.94a8.29,8.29,0,0,1,.5-.74,3,3,0,0,0,2.52-.81c-1.31,1.35-.53,1.83-.53,1.83s-.3,1,.67,1.28a.83.83,0,0,1-.12-.79A1.56,1.56,0,0,0,87,42c0,1.53.88,1.89.88,1.89a.93.93,0,0,0,.89.92,1.34,1.34,0,0,1-.37-1.1,1.57,1.57,0,0,0,.18-2.27,3.71,3.71,0,0,0,1.07-1.28,7.39,7.39,0,0,1-1.18-.61,12,12,0,0,1,0-2.45L88,34.4l-1.38,4.16a1.88,1.88,0,0,1-1.84,1.79Z"/><g id="_Group_3" data-name="&lt;Group&gt;"><path id="_Compound_Path_2" data-name="&lt;Compound Path&gt;" d="M88.77,45h0a1.1,1.1,0,0,1-1.05-1.07c-.07,0-.46-.16-.71-.87a1.58,1.58,0,0,1-1.19.94,3.55,3.55,0,0,0,.19.54.15.15,0,0,1,0,.2.16.16,0,0,1-.19.08,1.09,1.09,0,0,1-.7-.49,1.25,1.25,0,0,1-.13-.94c-.06,0-.18-.15-.2-.44a1.26,1.26,0,0,1,.15-.71,3.7,3.7,0,0,1-1.7.31,5.49,5.49,0,0,0-.38.64.25.25,0,0,1-.19.07.17.17,0,0,1-.14-.15c-.12-.79,0-1.05.1-1.13a1.91,1.91,0,0,1,2.13-1.78,1.77,1.77,0,0,0,1.69-1.59v0a.47.47,0,0,1,0-.16l1.34-4c0-.08.1-.1.19-.1a.15.15,0,0,1,.17.13L88.63,37a11.51,11.51,0,0,0,0,2.4c.31.18,1.1.51,1.1.51a.43.43,0,0,1,.09.13s0,.1,0,.15a6,6,0,0,1-1,1.26,1.75,1.75,0,0,1-.31,2.34,1.29,1.29,0,0,0,.35.8.2.2,0,0,1,0,.23.2.2,0,0,1-.17.1ZM87,41.81c.13,0,.19,0,.19.15a2,2,0,0,0,.75,1.74c.11.15.13.46.36.69a2.47,2.47,0,0,1-.09-.74,1.46,1.46,0,0,0,.22-2.12.19.19,0,0,1,0-.16c0-.07,0-.13.09-.13a3.11,3.11,0,0,0,.91-1,5.25,5.25,0,0,1-1.05-.58,8.35,8.35,0,0,1-.07-2.58l-.36-1.89-1.11,3.39h0a2.14,2.14,0,0,1-2.06,2,1.67,1.67,0,0,0-1.83,1.56.82.82,0,0,0-.07.36,1,1,0,0,1,.19-.29,6,6,0,0,1,.61,0,3.05,3.05,0,0,0,1.9-.84.21.21,0,0,1,.29,0,.23.23,0,0,1,0,.25c-.62.64-.73,1-.71,1.25s.13.34.16.34c0,.2,0,.63.12.92a.15.15,0,0,1,.07.1,1.21,1.21,0,0,1,.07-.49A1.56,1.56,0,0,0,86.83,42a.21.21,0,0,1,.17-.23Z"/></g><path id="_Path_7" data-name="&lt;Path&gt;" class="cls-5" d="M94.35,34.38s1.45,1.6,2.81,1.53c.5-.44-1.06-1.36-1.06-1.59.55.52,2.91,2.53,4.41,1.82.59-.87-1.09-.77-2.91-3,1.27.84,4.47,2.73,6,2,.64-.72-3.32-2.81-4.65-4.5l-3.44-1.76-4.64,3.78Z"/><g id="_Group_4" data-name="&lt;Group&gt;"><path id="_Compound_Path_3" data-name="&lt;Compound Path&gt;" d="M99.77,36.47a4.51,4.51,0,0,1-2.31-.87v.1a1.09,1.09,0,0,1-.17.34h-.1a4.33,4.33,0,0,1-3-1.54l-3.47-1.68a.22.22,0,0,1-.08-.16s0-.1,0-.15l4.66-3.8L99,30.44a14.52,14.52,0,0,0,2.61,2.27c1.33,1,2.16,1.67,2.21,2.18a2.42,2.42,0,0,1-.12.35c-1.43.72-3.56-.4-5-1.3A8,8,0,0,0,100,35c.45.31.74.46.78.74a.69.69,0,0,1-.15.54,1.6,1.6,0,0,1-.87.23ZM96.1,34.15a.18.18,0,0,1,.12.05c.41.38,2.88,2.4,4.2,1.73,0-.3-.27-.43-.6-.66a8,8,0,0,1-2.36-2.07c-.08-.08-.08-.18,0-.23a.13.13,0,0,1,.22,0c.63.38,4.38,2.65,5.81,2A8.07,8.07,0,0,0,101.39,33a14,14,0,0,1-2.62-2.28L95.41,29,91.2,32.64l3.22,1.56a4.26,4.26,0,0,0,2.63,1.5c0-.2-.42-.61-.69-.81s-.45-.41-.45-.57a.17.17,0,0,1,.12-.15.1.1,0,0,1,.07,0Z"/></g><path id="_Path_8" data-name="&lt;Path&gt;" class="cls-5" d="M89.09,21.4s1.59-.94,7.92-.46c.65.08,4.28-1.25,5.46-1.63,1.83-.36,7.67-1.64,9.25-2.81,1.11-.13-.31,2-1.71,2.55s-6.92,2.56-8.84,2.3c2.3,0,1,1.92-2.82,1,1.85,1,1.16,1.17,1.16,1.17s-3.24.18-4.1-.56c2.19.82,1.28,1.1,1.28,1.1a8.23,8.23,0,0,1-3.24-.26c1.58.49.78.8.78.8a5.54,5.54,0,0,1-2.35-.18c-1.09-.41-2.7-3.07-2.79-3.07Z"/><g id="_Group_5" data-name="&lt;Group&gt;"><path id="_Compound_Path_4" data-name="&lt;Compound Path&gt;" d="M93.38,24.87a5,5,0,0,1-1.57-.22c-.85-.31-2-1.89-2.56-2.74a4.26,4.26,0,0,0-.26-.38.11.11,0,0,1-.12-.1c0-.1.07-.16.12-.21s1.69-1,8-.46h0a32.42,32.42,0,0,0,4.63-1.35l.76-.28c2.4-.44,7.79-1.71,9.2-2.79.48-.05.67.11.71.34.12.64-1.06,2.12-2.23,2.53a37.18,37.18,0,0,1-7.72,2.29c.14.16.17.28.14.36,0,.56-1.3,1.13-3.22.87.49.36.56.59.54.74s-.18.26-.26.28A18.34,18.34,0,0,1,97,23.7a.24.24,0,0,1,.07.23.9.9,0,0,1-.28.36,16.63,16.63,0,0,1-2.16.05v.08c0,.23-.19.33-.33.4s-.41.05-.9.05Zm-4-3.42a3,3,0,0,1,.15.26c.51.71,1.65,2.3,2.38,2.58a4.9,4.9,0,0,0,1.45.23,3.7,3.7,0,0,0,.79-.08c.08,0,0-.1-.37-.28L93.38,24c-.1,0-.12-.15-.1-.23s.14-.13.22-.07a1.89,1.89,0,0,1,.47.12,7.74,7.74,0,0,0,1.56.13c.64,0,1.16-.05,1.16-.05s0-.13-.52-.38a1.91,1.91,0,0,1-.87-.41.16.16,0,0,1,0-.23c0-.08.16-.13.23-.08.35.16.66.26.86.36a17.32,17.32,0,0,0,3.15.23,3.47,3.47,0,0,0-1.2-.89c-.11-.06-.13-.11-.11-.21a.27.27,0,0,1,.22-.13,7.4,7.4,0,0,0,1.88.23c1.27,0,1.84-.35,1.86-.58,0-.08-.16-.23-.64-.29a1.77,1.77,0,0,1-.33,0c-.11,0-.19-.1-.16-.2a.2.2,0,0,1,.16-.18h0l.35,0c2.2,0,7.09-1.71,8.37-2.3,1.08-.41,2.08-1.73,2-2.17-1.72,1.13-7.53,2.43-9.45,2.79l-.74.25a25.64,25.64,0,0,1-4.69,1.36C95.72,21,94.66,21,93.75,21a14.17,14.17,0,0,0-4.35.46Z"/></g><path id="_Path_9" data-name="&lt;Path&gt;" class="cls-5" d="M91.65,35.27l.2,4.16a3.08,3.08,0,0,1-.2.33c-.13.13-3-.43-2.58,1.74,0,.92,0,1.1.63,1.64a3.11,3.11,0,0,1-.12-1s.81.43,1.62-.87c-.58,1.3-.17,1.79,0,1.81.11.23-.24,1.28.83,1.26a1,1,0,0,1-.22-1s1.14-.18.75-2.22c.39-.38.55,0,.55,0s.14,1.22,1.11,1c.46.25-.06.89-.06.89a1,1,0,0,0,.92-.56c.22-.64.45-1.71-.7-2.17-.16-.43.44-.46.44-.46s.76.26,1,.64.17-1-.77-1.15c-1.13,0-1.22-.26-1.22-.31s-.19-3-.28-3.88Z"/><g id="_Group_6" data-name="&lt;Group&gt;"><path id="_Compound_Path_5" data-name="&lt;Compound Path&gt;" d="M92,44.54c-.92,0-1-.77-1-1.15L90.82,43a1.29,1.29,0,0,1-.08-.89,1.1,1.1,0,0,1-1,.3,2.19,2.19,0,0,0,.11.69c0,.08,0,.13-.1.21a.19.19,0,0,1-.19,0c-.67-.56-.71-.81-.71-1.76a1.52,1.52,0,0,1,.26-1.28,2.5,2.5,0,0,1,1.94-.61h.38c.15,0,.25-.28.25-.28l-.25-4.06,2-.33A31.06,31.06,0,0,1,93.94,39s.14.13,1,.18a1.29,1.29,0,0,1,1,1.3c0,.15-.35.23-.43.05a1.89,1.89,0,0,0-.88-.51s-.19,0-.23.13c.57.23,1.25.84.71,2.35a1.15,1.15,0,0,1-1.09.71.14.14,0,0,1-.14-.1.17.17,0,0,1,0-.21,1,1,0,0,0,.19-.51,1.31,1.31,0,0,1-1.26-1.22,4.11,4.11,0,0,1-.42,1.94,1.39,1.39,0,0,1-.63.46c.05,0,0,.38.27.64a.28.28,0,0,1,0,.23.26.26,0,0,1-.19.1Zm-.75-3.45,0,0c.1.05.15.12.1.23-.43,1.1-.22,1.5-.14,1.55a.7.7,0,0,1,.14.49c0,.36,0,.59.28.72a1.12,1.12,0,0,1,0-.77c.16-.13.38-.15.57-.46a2.15,2.15,0,0,0,.14-1.69c.54-.79.86-.28,1-.1s.1.9.68.9a.67.67,0,0,1,.34,0,.51.51,0,0,1,.25.36.66.66,0,0,1-.06.46.87.87,0,0,0,.39-.39c.36-1,.17-1.6-.61-1.91a.61.61,0,0,1-.08-.56.93.93,0,0,1,.6-.28,3.42,3.42,0,0,1,.78.38,1.16,1.16,0,0,0-.07-.15.81.81,0,0,0-.54-.34c-.33,0-1.38,0-1.38-.51,0-.12-.18-3-.28-3.85l-1.63.25.4,4a1.3,1.3,0,0,1-.29.46.88.88,0,0,1-.31.08h-.38c-.31,0-1.25,0-1.63.48a1.21,1.21,0,0,0-.22,1,2.15,2.15,0,0,0,.18,1.07,1.74,1.74,0,0,1,0-.44.16.16,0,0,1,.11-.15.17.17,0,0,1,.17,0s.66.36,1.35-.77a.18.18,0,0,1,.17-.1Z"/></g><path id="_Path_10" data-name="&lt;Path&gt;" class="cls-5" d="M95.6,38.82c0-.23-1.94-2.86-1.44-3.19.5.1,1.32,1.3,2,.94-.2-.48-.79-.23-1.46-1.4-.68-1.36-.79-3.43-3.14-5.62,1.52,2.35,5,3.73,5.14,3s-3-3.27-2.88-3.91c.62,1.28,3.82,4.14,6.17,3.91.16-.56-1.9-1.66-2.48-2.71-1.48-1-5.51-4.49-5.59-5.29a9.81,9.81,0,0,0-2.81-3,1.41,1.41,0,0,1-.24-.48c-.91-2.15.31-2.84,1-2.94A3.11,3.11,0,0,0,91,18c-.49-.17-1-.38-1.48-.56.63.46,2.29.08,1.9,1.41.73-.28,2.28-2.1-1.69-2.51-1.33-1.48-6.67-2.37-8,4.17a6.51,6.51,0,0,0,.52.43c-1.71-.82-6.26-1.45-7.89-1.74-4.46-1.27-9-4.34-9.49-4s2.66,3.29,2.49,3.37a76,76,0,0,0-7.81-3.88C57.85,14,56.15,12.54,56,12.85c-.61,1.27,2.71,4.52,3.32,4.93s5.53,2.63,5.45,2.65c-7.37-3.34-8.59-4-8.95-4.34-.66-.15-2.26-2.27-2.68-2.17-.26.25.23,3.63,3.74,5.16.6.41,7.56,2.91,7.47,3.09s-8-3.3-8.27-3.37c-1.55-.64-3.44-2.74-3.77-2.51s.88,2.51,2.41,3.22c.81.36,3.93,1.92,6.73,2.91.19,0-5-2-7.56-3C52.73,18.75,52.19,18,52,18.13s.43,3.53,8.49,5.44c.22.1,2.87-.64,2.72-.53s-2.6.58-2.86.58a6.45,6.45,0,0,0-1.66.23c-.08.21.52,1.43,4.7,1.2.54-.05,3.41-1.09,3.17-.86s-4,1.35-4.22,1.37a5.92,5.92,0,0,0-1.66.31c-.07.21,1,1.07,3.25,1.2,2,.1,5.73-1.2,5.67-1.12s-3.66,1.3-3.73,1.38-1.45.12-1.47.25,1.88,2.1,7.72.1c-.58.8-3.41,1.36-3.41,1.51a2.48,2.48,0,0,0,1.61.92,4.73,4.73,0,0,0,1.8,0,7.39,7.39,0,0,0,3.8-2c.19.41-3.74,2.42-3.55,2.6.85.79,3.66-.1,3.87-.2s5.41-3.07,5.38-3.42c.11.46-6.76,4.16-6.67,4.31.44.72,2.77-.05,2.9-.1l3.07-1.66c.07,0-3.38,2-3.07,2.35-.17,1.35,5.37-.95,5.82-1.2C83.89,30.6,81,32,81,32.64c.93,1.61,3.89,1.1,4.36.76.22-.15-.28,1.18-.11,1a4.52,4.52,0,0,0,.88-1.2c-.08.43-.41,1.09-.6,1.91s-.24,1.69-.5,2.63c-.08.41,1.83-.84,1.55-3.78.16,1.53-.6,4.39-.41,4.57.41.31,1.52-1.43,1.63-2.6a5.78,5.78,0,0,0,1.6,2.12,5.32,5.32,0,0,0-.27-1.74,40.44,40.44,0,0,0,.22-4.6c1.61,3.07,2.22,4.37,1.8,6.7.47.2,1.24-1.64,1.16-2.56a3.81,3.81,0,0,0,3.29,2.94Z"/><g id="_Group_7" data-name="&lt;Group&gt;"><path id="_Compound_Path_6" data-name="&lt;Compound Path&gt;" d="M95.55,39A4,4,0,0,1,92.4,36.6a4.39,4.39,0,0,1-.78,1.78.53.53,0,0,1-.41.21c-.06,0-.23-.1-.23-.18.41-2.09,0-3.29-1.49-6.08a35.66,35.66,0,0,1-.22,4,3.18,3.18,0,0,1,.24,1.23l0,.48c-.7-.12-1.3-1-1.67-1.66-.29,1-1.07,2.35-1.62,2.35-.31-.18-.28-.43-.09-1.56,0-.1,0-.17,0-.28-.38.72-.85,1.1-1.08,1.1a.88.88,0,0,1-.24-.23,10.59,10.59,0,0,0,.3-1.56c.08-.38.14-.76.24-1.09a6.86,6.86,0,0,1,.23-.92,2.71,2.71,0,0,1-.33.38c-.28-.13-.25-.26-.14-.64a1.29,1.29,0,0,0,.09-.48c-.06.25-.87.43-1.75.43a2.94,2.94,0,0,1-2.63-1.15c0-.31.33-.69.78-1-1.56.59-3.43,1.05-3.86.59a.37.37,0,0,1-.11-.36c0-.21.25-.49.64-.77l-.41.21c-.14.1-2.66.74-3.08.05-.08-.13-.1-.15.56-.54-1.06.23-2.6.36-3.11-.13,0-.2.09-.38.56-.69a5.38,5.38,0,0,1-.69.18,6,6,0,0,1-1.84,0c-1-.23-1.79-.87-1.76-1.12s.14-.16.85-.41a16.21,16.21,0,0,0,1.86-.62,14.78,14.78,0,0,1-3.82.59c-2,0-2.93-.61-3.13-.94a1,1,0,0,1-.08-.28c.08-.13.19-.16,1-.23.22,0,.55-.06.6-.08a3.26,3.26,0,0,1,.78-.31,12.46,12.46,0,0,1-2.44.33c-2.15-.12-3.29-.76-3.56-1.14,0-.39.19-.46,1.52-.64.14,0,.5-.11,1-.26-3.34.15-4.22-.64-4.43-1-.12-.13-.17-.31-.12-.39s.73-.25,1.23-.3c-5.85-1.51-7.73-3.89-7.93-5.06,0-.26,0-.36.06-.44.36-.05.47.11.73.31a7.51,7.51,0,0,0,1.29.92s0,0,0,.05a5.25,5.25,0,0,1-1.89-2.78.61.61,0,0,1,.1-.33c.42,0,.79.28,1.51.84.28.23.61.51.94.77A6,6,0,0,1,53,14.68c-.08-.25-.12-.71,0-.84.4,0,.85.33,1.52,1a5.34,5.34,0,0,0,1.29,1.1,13.78,13.78,0,0,0,3,1.58c-1.13-1-3.54-3.58-3-4.75.43-.15.76.1,1.4.48a15,15,0,0,0,2.36,1.26c2.24,1,4.65,2.12,7.22,3.57a1.39,1.39,0,0,0-.29-.3c-1.33-1.44-1.92-2.2-1.84-2.53A2,2,0,0,1,65,15a10.11,10.11,0,0,1,2.58,1.15A47.44,47.44,0,0,0,74.39,19l.66.1a43.43,43.43,0,0,1,6.69,1.38c.89-4.93,3.88-5.42,5.14-5.42a4,4,0,0,1,3,1.1c1.66.13,2.57.59,2.66,1.33a1.6,1.6,0,0,1-1,1.43,6.53,6.53,0,0,0-.21-.79.86.86,0,0,0-.16-.1s-.05.05-.05.05a1.91,1.91,0,0,1-.78.12c-.12,0-.26,0-.45,0a1.63,1.63,0,0,0-1,.69A2.31,2.31,0,0,0,89,21a1,1,0,0,0,.22.43A10.25,10.25,0,0,1,92,24.52c.12.74,3.91,4.11,5.6,5.23A6.22,6.22,0,0,0,99,31.26c.69.54,1.22,1,1.12,1.38a1,1,0,0,1-.43.1,6.6,6.6,0,0,1-3.76-1.58c.58.69.94,1.15.86,1.45,0,.1-.11.28-.48.28a6.29,6.29,0,0,1-2.94-1.27,13.07,13.07,0,0,1,1,2.27,8.51,8.51,0,0,0,.45,1.2,1.92,1.92,0,0,0,1,1,.87.87,0,0,1,.47.44c-.17.25-.28.28-.44.28a2,2,0,0,1-1.13-.62,1.57,1.57,0,0,0-.59-.38A11.93,11.93,0,0,0,95.32,38c.36.56.42.69.42.79l-.19.15ZM92.31,35.7a.18.18,0,0,1,.17.13,3.63,3.63,0,0,0,3,2.81,1.88,1.88,0,0,1-.4-.46c-.83-1.35-1.42-2.37-1-2.66a1.25,1.25,0,0,1,.83.41,1.82,1.82,0,0,0,.94.57h0c.11,0,0-.06-.17-.16a2.47,2.47,0,0,1-1.13-1.1,8.48,8.48,0,0,1-.47-1.3A12.24,12.24,0,0,0,92.67,31a6.74,6.74,0,0,1-1.27-1.4.2.2,0,0,1,0-.18.13.13,0,0,1,.2,0,8.7,8.7,0,0,1,1.25,1.4,7,7,0,0,0,3.42,1.76c.25-.3-.6-1.27-1.24-1.94-.94-1-1.54-1.66-1.42-2a.13.13,0,0,1,.12-.12.13.13,0,0,1,.14.1c.66,1.33,3.82,4,6,3.8l-1.15-1A6.14,6.14,0,0,1,97.38,30c-1.25-.82-5.54-4.42-5.62-5.34A10.09,10.09,0,0,0,89,21.71a1.07,1.07,0,0,1-.31-.59,2.63,2.63,0,0,1-.12-2.32,1.69,1.69,0,0,1,1.21-.8,4.14,4.14,0,0,0,.5-.05h.25l-.28-.12a2,2,0,0,1-.83-.34.13.13,0,0,1-.06-.17.16.16,0,0,1,.2-.08l.83.28c.45.08.91.15,1.11.51a.81.81,0,0,1,.08.79c.1-.28.66-.74.59-1.27s-.95-.95-2.48-1.1a4.08,4.08,0,0,0-2.85-1.08c-1.18,0-4,.52-5,5.11.11,0,.21.1.44.28a.14.14,0,0,1,.06.21.21.21,0,0,1-.2.05c-1.46-.72-5.18-1.3-7.2-1.58l-.64-.13a43.13,43.13,0,0,1-6.85-2.91A13,13,0,0,0,65,15.27c-.1.28,1.15,1.66,1.72,2.28.76.81.83.91.81,1-3-1.54-5.62-2.71-8.06-3.76a17.66,17.66,0,0,1-2.41-1.3,4.72,4.72,0,0,0-1-.59c-.5,1.13,2.7,4.32,3.34,4.7.31.18,1.75.87,3.08,1.51,1.49.71,2.08,1,2.3,1.12,0,0,0,0,0,0l0,0c.12.05.12.11.09.13l-.11-.05-.09.15c-.13-.07-1.31-.64-2.33-1.12-.5-.23-1-.49-1.45-.69-4.27-1.86-4.93-2.22-5.24-2.55-.28,0-.8-.57-1.36-1.1a4.24,4.24,0,0,0-1.14-1,5.27,5.27,0,0,0,.28,1.28,6.15,6.15,0,0,0,3.49,3.57,2.27,2.27,0,0,0,.78.39l.4.15c.71.31,1.68.66,2.63,1.05C64.55,22,64.55,22,64.46,22.24c0,0-.09,0-.22,0l0,0a.1.1,0,0,0-.06-.05c-.5-.13-1.9-.72-6.14-2.48l-.39-.18h0c-.89-.35-1.53-.61-1.61-.66a10.7,10.7,0,0,1-2.47-1.66,4.78,4.78,0,0,0-1.18-.79,5.45,5.45,0,0,0,2.4,3l.76.31c.69.33,1.73.81,2.84,1.3l2.23.87a7.32,7.32,0,0,1,.79.35s.09,0,.11,0v0c.12.07.12.1.12.12h-.17l0,.11c-.05,0-.41-.13-1-.39L60,22c-.61-.25-1.21-.48-1.75-.74C56.73,20.71,55,20,53.82,19.51a6.46,6.46,0,0,1-1.35-1c-.17-.11-.33-.29-.38-.29a3.09,3.09,0,0,0,.25.72c.49.84,2.19,3.06,8.21,4.47a3.61,3.61,0,0,0,.86-.15l.94-.21a4.67,4.67,0,0,1,.87-.18c0,.05.15.21.08.26s-1.83.43-1.83.43c-.33.08-.61.13-.78.16l-.33,0a7,7,0,0,0-1.58.21c.44.43,1.39,1.12,4.59.91a13.47,13.47,0,0,0,1.78-.48A7.82,7.82,0,0,1,66.54,24s.17.23.13.28c-.19.18-4.11,1.4-4.32,1.43a7,7,0,0,0-1.54.25,5.53,5.53,0,0,0,3.13,1h0a22,22,0,0,0,5.12-1c.86-.26.62-.18.64-.08a.19.19,0,0,1,0,.18,15.7,15.7,0,0,1-2.23.84c-.76.26-1.45.51-1.54.56s-.25.06-.71.13c-.26,0-.69.08-.75.1a4.72,4.72,0,0,0,3,.74,15,15,0,0,0,4.63-.86.14.14,0,0,1,.18.05.15.15,0,0,1,0,.18,6.85,6.85,0,0,1-2.78,1.27c-.28.11-.59.21-.67.23a7.14,7.14,0,0,0,1.57.69,6.23,6.23,0,0,0,1.73,0,7.59,7.59,0,0,0,3.73-2c.36.35-.19.74-2,1.86a9.38,9.38,0,0,0-1.3.87,3.44,3.44,0,0,0,1,.15,9.19,9.19,0,0,0,2.61-.51A47.8,47.8,0,0,0,81.51,27c0-.08,0-.13.12-.13s.16.08.18.13c0,.31-.57.77-4.53,3.06-1,.62-2.11,1.23-2.21,1.36a3.06,3.06,0,0,0,.74.08,6.17,6.17,0,0,0,1.94-.39l.72-.36c.89-.48,2.3-1.25,2.37-1.27a.11.11,0,0,1,.18.05.11.11,0,0,1,0,.18h0a12.69,12.69,0,0,0-3,2.19.44.44,0,0,0,.5.31,17,17,0,0,0,4.65-1.38c.49-.25.53-.25.56-.25a.17.17,0,0,1,.15.1.21.21,0,0,1-.08.18,3.84,3.84,0,0,1-.52.23c-1.21.63-2.08,1.3-2.08,1.53a2.74,2.74,0,0,0,2.36,1,4.27,4.27,0,0,0,1.75-.33c.33.1.29.28.21.69a.21.21,0,0,0,0,.13c.11-.26.4-.64.54-1a.19.19,0,0,1,.19-.08.18.18,0,0,1,.09.18,3.7,3.7,0,0,1-.23.82,10.16,10.16,0,0,0-.36,1.1,10.7,10.7,0,0,0-.19,1.09,10.46,10.46,0,0,1-.31,1.56,4.34,4.34,0,0,0,1.27-2.55c0-.36,0-.72,0-1h0a.52.52,0,0,1,.09-.28.27.27,0,0,1,.14,0s0,0,0,0v0a5.27,5.27,0,0,1,0,1.3c0,.64-.17,1.36-.26,2a4.92,4.92,0,0,0-.15,1.25,4.09,4.09,0,0,0,1.33-2.56.11.11,0,0,1,.12-.1.12.12,0,0,1,.16.08,5.87,5.87,0,0,0,1.54,2l-.25-.36A2.67,2.67,0,0,0,89,36.39c.14-1.12.17-2.58.22-4.24v-.41a.11.11,0,0,1,.11-.12c.08,0,.12,0,.14.05,1.57,3,2.3,4.37,1.8,6.82l.13-.28a4.21,4.21,0,0,0,.78-2.33.2.2,0,0,1,.11-.18Z"/></g><path id="_Path_11" data-name="&lt;Path&gt;" class="cls-5" d="M69,19.38a4.31,4.31,0,0,1-2.45.74c.3,1.36,3.15.31,3.15.31a7.12,7.12,0,0,1-2.34,1.76c.59.49,3,.28,3.44.08a8.22,8.22,0,0,0,1.13-1.2S69.39,24,69,24c0,.33,2.65.2,3.2-.29a11.61,11.61,0,0,1,2-1.25S70.5,25,70.33,25c1.38.35,4.15-.44,5.92-1.56-2.62,1.76-2.85,2.07-4.18,2.66,1.19.28,1.78,1.07,5.79-.69a9.49,9.49,0,0,0,3.6-3,23.46,23.46,0,0,1-6.17,5.1c-.14.29,2.65,1.51,6.26-2.24Z"/><g id="_Group_8" data-name="&lt;Group&gt;"><path id="_Path_12" data-name="&lt;Path&gt;" d="M76.55,28a2.39,2.39,0,0,1-1.26-.28.81.81,0,0,1-.12-.36c.9-.59,1.75-1.15,2.61-1.79-3.3,1.43-4.27,1.12-5.21.79L72,26.23a.18.18,0,0,1-.12-.15A.28.28,0,0,1,72,26a12.71,12.71,0,0,0,2.33-1.38.61.61,0,0,0,.14-.1,7.57,7.57,0,0,1-4.16.63c-.08,0-.13-.05-.11-.15a.14.14,0,0,1,.14-.13,9.42,9.42,0,0,0,1.08-.71,4.74,4.74,0,0,1-2.4.05.84.84,0,0,1-.12-.23,7.76,7.76,0,0,0,1.52-1.43c-.88.18-2.63.26-3.18-.18a8.55,8.55,0,0,0,1.92-1.56,3.55,3.55,0,0,1-2.3,0,1,1,0,0,1-.49-.64,5.24,5.24,0,0,0,2.51-.92.16.16,0,0,1,.19.05.13.13,0,0,1,0,.21,4.12,4.12,0,0,1-2.51.79c.19,0,.3.15.48.25.81.44,2.61-.2,2.61-.23a.15.15,0,0,1,.16.08.1.1,0,0,1,0,.15,6.76,6.76,0,0,1-2.38,1.82,9.74,9.74,0,0,0,3.32-.23.74.74,0,0,0,.27-.18c.26-.31.56-.67.84-1A.12.12,0,0,1,72,21a.11.11,0,0,1,0,.18,6.27,6.27,0,0,1-.86,1c-.83.94-1.8,1.94-2.13,2,.45,0,2.61-.1,3.08-.53a13.16,13.16,0,0,1,2-1.25c.1-.06.17,0,.19.05s0,.1,0,.15c-2.08,1.46-3,2.12-3.5,2.4a10.41,10.41,0,0,0,5.4-1.58.17.17,0,0,1,.19.05.14.14,0,0,1,0,.2c-.8.51-1.38.92-1.83,1.25a15.11,15.11,0,0,1-2,1.23.34.34,0,0,1,.14.05c.93.28,1.88.61,5.17-.82a10,10,0,0,0,2-1.35,11.17,11.17,0,0,0,1.55-1.69.15.15,0,0,1,.2,0,.16.16,0,0,1,0,.2,11.13,11.13,0,0,1-1.69,1.82,36.57,36.57,0,0,1-4.51,3.34c.11,0,.36.08.82.13.7.08,2.75,0,5.21-2.61a.15.15,0,0,1,.2,0,.14.14,0,0,1,0,.21C79.55,27.48,77.7,28,76.55,28Z"/></g><path id="_Path_13" data-name="&lt;Path&gt;" class="cls-5" d="M88.43,27.43a3.82,3.82,0,0,0,1.2,2,3,3,0,0,1,1,1.71Z"/><g id="_Group_9" data-name="&lt;Group&gt;"><path id="_Path_14" data-name="&lt;Path&gt;" d="M90.65,31.31c-.08,0-.11,0-.14-.13a2.67,2.67,0,0,0-1-1.61,4.32,4.32,0,0,1-1.23-2.12.11.11,0,0,1,.1-.15.16.16,0,0,1,.18.1,4.07,4.07,0,0,0,1.17,1.94,2.85,2.85,0,0,1,1.06,1.82.11.11,0,0,1-.11.15Z"/></g><path id="_Path_15" data-name="&lt;Path&gt;" class="cls-5" d="M87.92,20a3.58,3.58,0,0,0,1.33,1.69,10.07,10.07,0,0,1,2.65,3.06,38,38,0,0,1,.69,3.94Z"/><g id="_Group_10" data-name="&lt;Group&gt;"><path id="_Path_16" data-name="&lt;Path&gt;" d="M92.59,28.86h0a.22.22,0,0,1-.12-.18,36.71,36.71,0,0,0-.63-3.86,11.54,11.54,0,0,0-2.61-3,3.59,3.59,0,0,1-1.38-1.74.14.14,0,0,1,.08-.2.15.15,0,0,1,.19.13,3.37,3.37,0,0,0,1.28,1.58,11.66,11.66,0,0,1,2.7,3.14,32,32,0,0,1,.67,4,.14.14,0,0,1-.13.13Z"/></g><path id="_Path_17" data-name="&lt;Path&gt;" class="cls-5" d="M81.76,21.61c.08.38-1.43,2.35.64,4.64-1.86,2.28-1.86,2.56-1.86,2.56s1,.58,2.88-1c3.08,3.76,2,5.49,2,5.49Z"/><g id="_Group_11" data-name="&lt;Group&gt;"><path id="_Path_18" data-name="&lt;Path&gt;" d="M85.47,33.46a.09.09,0,0,1-.06,0,.15.15,0,0,1-.07-.18s.92-1.73-2-5.34C81.6,29.57,80.51,29,80.46,29c-.1-.36.61-1.33,1.83-2.81A3.48,3.48,0,0,1,81.51,22c0-.15.11-.33.11-.38a.15.15,0,0,1,.12-.18c.11,0,.14,0,.16.13a.93.93,0,0,1-.11.51,3.53,3.53,0,0,0,.71,4.06,19.49,19.49,0,0,0-1.84,2.66h.22a3.72,3.72,0,0,0,2.44-1.13c3.32,3.84,2.32,5.62,2.27,5.7s-.06.08-.12.08Z"/></g><path id="_Path_19" data-name="&lt;Path&gt;" class="cls-5" d="M85.25,30.65s-.32-.41.22-1.94c.44.56.94.66,1.17.89s2.52.56,2.68,2.09Z"/><g id="_Group_12" data-name="&lt;Group&gt;"><path id="_Path_20" data-name="&lt;Path&gt;" d="M89.32,31.87a.19.19,0,0,1-.16-.15c-.09-1.07-1.4-1.53-2.11-1.79-.28-.1-.46-.15-.5-.25a1.9,1.9,0,0,1-.33-.16,3,3,0,0,1-.88-.71,3.2,3.2,0,0,0,0,1.76c0,.08,0,.13,0,.18a.15.15,0,0,1-.2,0s-.31-.51.2-2a9.81,9.81,0,0,1,1,.59,1.21,1.21,0,0,1,.38.23,1.43,1.43,0,0,0,.39.15c.77.28,2.22.77,2.33,2a.17.17,0,0,1-.14.18Z"/></g><path id="_Path_21" data-name="&lt;Path&gt;" class="cls-5" d="M87.94,16.45c0-.13-.44-1.15-2.19.1.94.08,1.84.59,2.19-.1Z"/><g id="_Group_13" data-name="&lt;Group&gt;"><path id="_Compound_Path_7" data-name="&lt;Compound Path&gt;" d="M87.3,16.93h0a4,4,0,0,1-.75-.1,4.59,4.59,0,0,0-.8-.13l-.41,0,.3-.23a3,3,0,0,1,1.57-.67.84.84,0,0,1,.9.67.79.79,0,0,1-.81.48Zm-1.13-.46.42.08a2.46,2.46,0,0,0,.71.1h0a.53.53,0,0,0,.53-.28h0a1.49,1.49,0,0,0-1.66.1Z"/></g><path id="_Path_22" data-name="&lt;Path&gt;" class="cls-5" d="M104.61,21c.07,0,5.19,1.15,6.89.59-2.18,2.91-6.54.92-6.54.92,2.16.66,2.24.61,2.92,1.22.21.54-3.94.28-5.28-.48,3.78,1.2,3.88,1.12,4,1.58.16.64-6.23-.18-6.78-1A30.78,30.78,0,0,0,103.39,26c-1.15.49-3.29,1-7.2-1.78,5.15,4.72,9.82,4.41,10.52,5.26-1.77,2.65-8.73-1.56-11.94-3.73s7,5.21,8,5.06c-.48.71-3.85.1-4.06-.23Z"/><g id="_Group_14" data-name="&lt;Group&gt;"><path id="_Path_23" data-name="&lt;Path&gt;" d="M101.48,31.31h0c-1.06,0-2.72-.33-2.93-.66l.28-.16a6.86,6.86,0,0,0,3,.51,2.36,2.36,0,0,0,.58-.1c-1.72-.61-7.37-4.67-8.25-5.36h0a.58.58,0,0,1-.08-.1c.13-.23.13-.23.83.23,3,2,10,6.3,11.74,3.75-.19-.05-.78-.18-1.58-.41a19.5,19.5,0,0,1-8.92-4.65.17.17,0,0,1,0-.23.14.14,0,0,1,.19,0c3.79,2.68,5.85,2.3,7.09,1.76a1.88,1.88,0,0,1-1-.28,12.24,12.24,0,0,1-2.27-1.38.93.93,0,0,1-.39-.31.1.1,0,0,1,0-.17.09.09,0,0,1,.16,0l.36.23a13.15,13.15,0,0,0,3.77.86,5.39,5.39,0,0,0,2.44,0c-.08-.23-.08-.26-2-.84l-.22-.08a5,5,0,0,1-1.72-.51.16.16,0,0,1-.08-.21c0-.07.13-.1.19-.1l1.71.56a8.67,8.67,0,0,0,3.39.08,3,3,0,0,0-1.14-.56,10.84,10.84,0,0,1-1.69-.51.25.25,0,0,1-.09-.21.2.2,0,0,1,.2,0l.8.21c.36.13.64.18.87.25a4.63,4.63,0,0,0,4.44-1,24.1,24.1,0,0,1-6.59-.72l.12-.25c.21.07,5.17,1.12,6.8.58a.14.14,0,0,1,.18.08.15.15,0,0,1,0,.18,4.43,4.43,0,0,1-4,1.61,3.43,3.43,0,0,1,.39.33s0,.1,0,.15a.31.31,0,0,1-.09.18,4.11,4.11,0,0,1-2,.15c.7.26.75.36.84.69,0,.05-.12.26-.18.31a16,16,0,0,1-5.36-.51,10.77,10.77,0,0,0,1.3.71c.33.16.66.36,1,.54-1.07.72-2.72,1.12-5.45-.33a18.52,18.52,0,0,0,7.06,3.17,4.2,4.2,0,0,1,1.76.68c-1.28,2.05-5,.64-8.49-1.25,2,1.33,4,2.63,4.34,2.53a.17.17,0,0,1,.14.08.19.19,0,0,1,0,.18c-.16.23-.61.38-1.35.38Z"/></g><path id="_Path_24" data-name="&lt;Path&gt;" class="cls-5" d="M105.91,25.92a16,16,0,0,1-2.63,0Z"/><g id="_Group_15" data-name="&lt;Group&gt;"><path id="_Path_25" data-name="&lt;Path&gt;" d="M104.16,26.13a5.87,5.87,0,0,1-.89,0c-.11,0-.16-.08-.16-.15s.13-.16.19-.13a15,15,0,0,0,2.6-.08c.09,0,.15.05.18.16a.16.16,0,0,1-.15.15,16.37,16.37,0,0,1-1.77.08Z"/></g><path id="_Path_26" data-name="&lt;Path&gt;" class="cls-5" d="M67.45,18.57s3.91,2.07,5.54,1.91a2.45,2.45,0,0,1-1.09.59,4.83,4.83,0,0,0,3.27.38c-.41.41-.94.9-.94.9A4.19,4.19,0,0,0,77.37,22a12.05,12.05,0,0,0-.78,1.08l1.14.07Z"/><g id="_Group_16" data-name="&lt;Group&gt;"><path id="_Path_27" data-name="&lt;Path&gt;" d="M77.73,23.34h0l-1.15-.07c-.1-.18,0-.49.33-.87a4.15,4.15,0,0,1-2.73.05c-.05-.15.23-.46.55-.77A5,5,0,0,1,72,21.25c-.07,0-.17-.13-.14-.15s0-.16,0-.16a4,4,0,0,0,.69-.3,20.4,20.4,0,0,1-5.2-1.92.21.21,0,0,1,0-.23.13.13,0,0,1,.18,0s3.92,2.07,5.48,1.89a.17.17,0,0,1,.14.08.2.2,0,0,1,0,.18,2.9,2.9,0,0,1-.77.49,4.76,4.76,0,0,0,2.82.23c.07,0,.11,0,.14.07a.09.09,0,0,1,0,.15c-.33.34-.73.69-.9.85a6.06,6.06,0,0,1,.76,0,4.63,4.63,0,0,0,2.16-.51.17.17,0,0,1,.19,0c0,.08,0,.16,0,.18a6.58,6.58,0,0,0-.79,1.1l1-.15a.12.12,0,0,1,.13.15.14.14,0,0,1-.15.15Z"/></g><path id="_Path_28" data-name="&lt;Path&gt;" class="cls-7" d="M16.15,83.23c.13,0,.46-.18.17-.18s-.45.18-.17.18Z"/></g></g></g></g></g></g></g></svg>