<svg id="Layer_1" data-name="Layer 1" xmlns="http://www.w3.org/2000/svg" xmlns:xlink="http://www.w3.org/1999/xlink" viewBox="0 0 220 128"><defs><style>.cls-1{fill:none;}.cls-2{clip-path:url(#clip-path);}.cls-3{fill:#cb1d23;}.cls-4{fill:#f7de29;}</style><clipPath id="clip-path"><rect id="_Clipping_Path_" data-name="&lt;Clipping Path&gt;" class="cls-1" width="219.47" height="128"/></clipPath></defs><title>Flag_rect_China</title><g id="CHINA"><g id="_Group_" data-name="&lt;Group&gt;"><g id="_Clip_Group_" data-name="&lt;Clip Group&gt;"><g class="cls-2"><rect id="_Path_" data-name="&lt;Path&gt;" class="cls-3" width="219.47" height="128"/><polygon id="_Path_2" data-name="&lt;Path&gt;" class="cls-4" points="21.11 46.34 25.23 33.56 14.4 25.62 27.82 25.59 32.01 12.85 36.18 25.59 49.6 25.65 38.76 33.56 42.86 46.34 31.99 38.44 21.11 46.34"/><polygon id="_Path_3" data-name="&lt;Path&gt;" class="cls-4" points="58.53 53.23 63.07 55.07 66.22 51.32 65.88 56.2 70.41 58.04 65.67 59.24 65.32 64.06 62.72 59.95 57.98 61.1 61.11 57.37 58.53 53.23"/><polygon id="_Path_4" data-name="&lt;Path&gt;" class="cls-4" points="83.06 28.69 78.25 27.84 75.94 32.16 75.27 27.33 70.44 26.44 74.83 24.32 74.17 19.46 77.57 22.96 81.96 20.84 79.67 25.16 83.06 28.69"/><polygon id="_Path_5" data-name="&lt;Path&gt;" class="cls-4" points="72.85 50.55 74.34 45.9 70.4 43.02 75.29 43.02 76.8 38.37 78.32 43.02 83.21 43.02 79.27 45.9 80.75 50.55 76.8 47.69 72.85 50.55"/><polygon id="_Path_6" data-name="&lt;Path&gt;" class="cls-4" points="58.78 8.12 63.2 10.19 66.54 6.62 65.96 11.47 70.37 13.56 65.59 14.48 64.98 19.34 62.6 15.07 57.81 15.96 61.13 12.39 58.78 8.12"/></g></g></g></g></svg>