<svg id="Layer_1" data-name="Layer 1" xmlns="http://www.w3.org/2000/svg" xmlns:xlink="http://www.w3.org/1999/xlink" viewBox="0 0 220 128"><defs><style>.cls-1{fill:none;}.cls-2{clip-path:url(#clip-path);}.cls-3{fill:#ae0037;}.cls-4{fill:#fff;}.cls-5{fill:#192967;}</style><clipPath id="clip-path"><rect id="_Clipping_Path_" data-name="&lt;Clipping Path&gt;" class="cls-1" width="220" height="128"/></clipPath></defs><title>Flag_rect_Liberia</title><g id="_Group_" data-name="&lt;Group&gt;"><g id="_Clip_Group_" data-name="&lt;Clip Group&gt;"><g class="cls-2"><polygon id="_Path_" data-name="&lt;Path&gt;" class="cls-3" points="58.18 0 0 69.81 0 128 220 128 220 0 58.18 0"/><path id="_Compound_Path_" data-name="&lt;Compound Path&gt;" class="cls-4" d="M0,116.36H220V104.71H0ZM0,93.1H220V81.45H0ZM58.18,11.64,0,58.22V69.81H220V58.22H58.18L46.54,46.57H220V34.93H46.54V23.29H220V11.64Z"/><rect id="_Path_2" data-name="&lt;Path&gt;" class="cls-5" width="58.18" height="58.22"/><polygon class="cls-4" points="35.43 31.16 45.69 23.72 33.01 23.72 29.1 11.64 25.17 23.72 12.49 23.72 22.75 31.16 18.84 43.23 29.09 35.77 39.34 43.23 35.43 31.16"/></g></g></g></svg>