<svg id="Layer_1" data-name="Layer 1" xmlns="http://www.w3.org/2000/svg" xmlns:xlink="http://www.w3.org/1999/xlink" viewBox="0 0 220 128"><defs><style>.cls-1{fill:none;}.cls-2{clip-path:url(#clip-path);}.cls-3{fill:#2534a4;}.cls-4{fill:#bc0030;}.cls-5{fill:#fff;}.cls-6{fill:#fef200;}</style><clipPath id="clip-path"><rect id="_Clipping_Path_" data-name="&lt;Clipping Path&gt;" class="cls-1" width="220" height="128"/></clipPath></defs><title>Flag_rect_Philippines</title><g id="PHILIPPINES"><g id="_Group_" data-name="&lt;Group&gt;"><g id="_Clip_Group_" data-name="&lt;Clip Group&gt;"><g class="cls-2"><rect id="_Path_" data-name="&lt;Path&gt;" class="cls-3" width="220" height="64"/><rect id="_Path_2" data-name="&lt;Path&gt;" class="cls-4" y="64" width="220" height="64"/><polygon id="_Path_3" data-name="&lt;Path&gt;" class="cls-5" points="0 0 0 128 111.41 64 0 0"/><polygon id="_Path_4" data-name="&lt;Path&gt;" class="cls-6" points="15.05 115.69 10.11 112.81 5.86 116.66 7.07 111.07 2.09 108.23 7.8 107.64 8.96 102.05 11.26 107.29 16.96 106.65 12.68 110.48 15.05 115.69"/><path id="_Compound_Path_" data-name="&lt;Compound Path&gt;" class="cls-6" d="M30.07,52.43,25.9,45.25,23.48,45,29.2,53.1ZM26.82,55.7,18.07,49,17.74,45l3.55-.12,7.25,8.88Zm-1.33,1.56-7.23-4.09L18,50.8l8.17,5.56Z"/><path id="_Compound_Path_2" data-name="&lt;Compound Path&gt;" class="cls-6" d="M40.38,51l2.18-8-1.49-1.89-1.78,9.75Zm-4.6,0L34.43,40,37,37l2.56,2.45L38.35,50.82Zm-2,.13-2.16-8,1.49-1.91L34.82,51Z"/><path id="_Compound_Path_3" data-name="&lt;Compound Path&gt;" class="cls-6" d="M48.74,57.41l7.27-4L56.34,51l-8.25,5.49Zm-3.19-3.34,7-8.59,3.92-.2,0,3.55-9,7ZM44,52.71l4.25-7.1,2.4-.25-5.79,8Z"/><path id="_Compound_Path_4" data-name="&lt;Compound Path&gt;" class="cls-6" d="M50,67.42l8,2.2,1.87-1.51-9.74-1.79Zm0-4.6,11-1.35,3,2.58-2.45,2.58L50.17,65.38Zm-.14-2,8-2.17,1.89,1.48L50,61.88Z"/><path id="_Compound_Path_5" data-name="&lt;Compound Path&gt;" class="cls-6" d="M43.94,75.57l4.21,7.12,2.39.29-5.75-8.1Zm3.24-3.3L56,79l.32,3.91-3.54.15-7.29-8.86Zm1.32-1.55,7.21,4,.33,2.4-8.21-5.54Z"/><path id="_Compound_Path_6" data-name="&lt;Compound Path&gt;" class="cls-6" d="M33.66,77.08l-2.11,8L33.06,87l1.69-9.79Zm4.61,0,1.42,11-2.54,3-2.61-2.46L35.69,77.2Zm2-.13,2.2,8L41,86.81l-1.81-9.76Z"/><path id="_Compound_Path_7" data-name="&lt;Compound Path&gt;" class="cls-6" d="M25.32,70.79,18.13,74.9l-.3,2.41L26,71.66Zm3.26,3.3-6.86,8.68-3.91.28-.1-3.55,9-7.15Zm1.52,1.33L26,82.62l-2.4.25,5.68-8.12Z"/><path id="_Compound_Path_8" data-name="&lt;Compound Path&gt;" class="cls-6" d="M23.9,60.71l-8-2.12L14,60.07l9.78,1.71Zm0,4.59L13,66.73l-3-2.55,2.43-2.61,11.39,1.15Zm.14,2-8,2.19-1.91-1.48,9.76-1.81Z"/><g id="_Clip_Group_2" data-name="&lt;Clip Group&gt;"><g class="cls-2"><path id="_Path_5" data-name="&lt;Path&gt;" class="cls-6" d="M37,50.52A13.51,13.51,0,1,1,23.48,64,13.49,13.49,0,0,1,37,50.52"/><polygon id="_Path_6" data-name="&lt;Path&gt;" class="cls-6" points="83.44 68.65 86.83 64.03 83.42 59.4 88.86 61.19 92.21 56.54 92.18 62.26 97.65 64 92.18 65.74 92.22 71.48 88.89 66.83 83.44 68.65"/><polygon id="_Path_7" data-name="&lt;Path&gt;" class="cls-6" points="15.05 10.9 10.11 13.79 5.86 9.93 7.07 15.55 2.09 18.39 7.8 18.95 8.96 24.57 11.26 19.33 16.96 19.95 12.68 16.14 15.05 10.9"/></g></g></g></g></g></g></svg>