<svg id="Layer_1" data-name="Layer 1" xmlns="http://www.w3.org/2000/svg" viewBox="0 0 220 128"><defs><style>.cls-1{fill:#fff;}.cls-2{fill:#0000bf;}.cls-3{fill:#d50000;}.cls-4{fill:#ffdf00;}</style></defs><title>Flag_rect_Slovenia</title><path class="cls-1" d="M0,0H220V128H0Z"/><path class="cls-2" d="M0,42.67H220V128H0Z"/><path class="cls-3" d="M0,85.33H220V128H0Z"/><path class="cls-3" d="M30.52,24.61c-.4.17-.79.35-1.18.54L30.57,44.5A21.79,21.79,0,0,0,46.05,64h0A21.79,21.79,0,0,0,61.53,44.5l1.22-19.35c-.38-.19-.78-.37-1.17-.54h0L60.33,44.42A20.58,20.58,0,0,1,46.05,62.74h0A20.58,20.58,0,0,1,31.77,44.42L30.52,24.61h0"/><path class="cls-2" d="M61.58,24.61a38.41,38.41,0,0,0-31.06,0l1.25,19.81A20.58,20.58,0,0,0,46.05,62.74h0A20.58,20.58,0,0,0,60.33,44.42"/><path class="cls-4" d="M47,30.6l.69-.94-1.16.13-.47-1.07-.47,1.07-1.16-.13.69.94-.69.94,1.16-.12.47,1.06.47-1.06,1.16.12"/><path class="cls-4" d="M42.6,24.76l.69-.94-1.16.12-.47-1.06-.47,1.06L40,23.82l.68.94L40,25.7l1.15-.13.47,1.07.47-1.07,1.16.13"/><path class="cls-4" d="M51.37,24.76l.69-.94-1.16.12-.47-1.06L50,23.94l-1.15-.12.68.94-.68.94L50,25.57l.47,1.07.47-1.07,1.16.13"/><path class="cls-1" d="M58.58,47.31,52.31,39l-2.5,3.34-3.76-7.52L42.29,42.3,39.78,39l-6.26,8.35a4.17,4.17,0,0,0,4.18,4.17,4.12,4.12,0,0,0,2.09-.56h0a4.25,4.25,0,0,1,4.18,0,4.17,4.17,0,0,0,2.09.56h0a4.17,4.17,0,0,0,2.09-.56,4.18,4.18,0,0,1,3.17-.41,4,4,0,0,1,1,.41h0a4.12,4.12,0,0,0,2.09.56,4.18,4.18,0,0,0,4.18-4.17"/><path class="cls-1" d="M35,51.84c.29.57.61,1.13,1,1.67h0a4.12,4.12,0,0,0,2.83.24,4.2,4.2,0,0,0,1-.41s0,0,0,0a4.12,4.12,0,0,1,2.09-.56h0a4.17,4.17,0,0,1,2.09.56,4.18,4.18,0,0,0,3.17.41,4,4,0,0,0,1-.41s0,0,0,0a4.12,4.12,0,0,1,2.09-.56h0a4.17,4.17,0,0,1,2.09.56,4.18,4.18,0,0,0,3.17.41,4.12,4.12,0,0,0,.67-.24,18.28,18.28,0,0,0,.94-1.67h0a4.73,4.73,0,0,0-.6.29h0a4.3,4.3,0,0,1-1,.42,4.23,4.23,0,0,1-3.17-.42,4.16,4.16,0,0,0-2.08-.56h0a4.22,4.22,0,0,0-2.09.56h0a4.49,4.49,0,0,1-1,.42A4.23,4.23,0,0,1,44,52.13a4.17,4.17,0,0,0-2.09-.56h0a4.22,4.22,0,0,0-2.09.56h0a4.69,4.69,0,0,1-1,.42,4.23,4.23,0,0,1-3.17-.42,4.85,4.85,0,0,0-.61-.29h0"/><path class="cls-1" d="M55.07,55.05a20.5,20.5,0,0,1-1.58,1.78,19.42,19.42,0,0,1-7.44,4.64h0a19.27,19.27,0,0,1-7.44-4.64A20.5,20.5,0,0,1,37,55.05,4.32,4.32,0,0,0,38.78,55a4.69,4.69,0,0,0,1-.42h0A4.22,4.22,0,0,1,41.87,54h0a4.17,4.17,0,0,1,2.09.56,4.23,4.23,0,0,0,3.17.42,4.49,4.49,0,0,0,1-.42h0A4.22,4.22,0,0,1,50.23,54h0a4.17,4.17,0,0,1,2.09.56,4.23,4.23,0,0,0,2.76.51h0"/></svg>