<svg id="Layer_1" data-name="Layer 1" xmlns="http://www.w3.org/2000/svg" xmlns:xlink="http://www.w3.org/1999/xlink" viewBox="0 0 220 128"><defs><style>.cls-1{fill:#fff;}.cls-2{clip-path:url(#clip-path);}.cls-3{fill:#d03033;}.cls-4{fill:#1f189b;}.cls-5{fill:#f2b126;}.cls-6{fill:#32784c;}</style><clipPath id="clip-path"><rect id="_Clipping_Path_" data-name="&lt;Clipping Path&gt;" class="cls-1" width="220" height="128"/></clipPath></defs><title>Flag_rect_South Africa Rep</title><g id="SOUTH_AFRICA" data-name="SOUTH AFRICA"><g id="_Group_" data-name="&lt;Group&gt;"><g id="_Clip_Group_" data-name="&lt;Clip Group&gt;"><rect id="_Clipping_Path_2" data-name="&lt;Clipping Path&gt;" class="cls-1" width="220" height="128"/><g class="cls-2"><polygon id="_Path_" data-name="&lt;Path&gt;" class="cls-3" points="38.45 0 102.45 42.65 220 42.65 220 0 38.45 0"/><polygon id="_Path_2" data-name="&lt;Path&gt;" class="cls-1" points="115.25 51.18 220 51.18 220 42.65 102.45 42.65 115.25 51.18"/><polygon id="_Path_3" data-name="&lt;Path&gt;" class="cls-1" points="102.45 85.35 220 85.35 220 76.8 115.25 76.8 102.45 85.35"/><polygon id="_Path_4" data-name="&lt;Path&gt;" class="cls-4" points="102.45 85.35 38.45 128 220 128 220 85.35 102.45 85.35"/><polygon id="_Path_5" data-name="&lt;Path&gt;" points="0 42.65 25.53 42.65 0 25.61 0 42.65"/><polygon id="_Path_6" data-name="&lt;Path&gt;" points="0 42.65 0 85.35 25.53 85.35 57.53 63.97 25.53 42.65 0 42.65"/><polygon id="_Path_7" data-name="&lt;Path&gt;" points="0 85.35 0 102.36 25.53 85.35 0 85.35"/><polygon id="_Path_8" data-name="&lt;Path&gt;" class="cls-5" points="0 25.61 57.53 63.97 0 102.36 0 112.6 72.92 63.97 0 15.38 0 25.61"/><polygon id="_Path_9" data-name="&lt;Path&gt;" class="cls-6" points="0 0 0 15.38 72.92 63.97 0 112.6 0 128 23.07 128 99.87 76.8 220 76.8 220 51.18 99.87 51.18 23.07 0 0 0"/></g></g></g></g></svg>