<svg id="Layer_1" data-name="Layer 1" xmlns="http://www.w3.org/2000/svg" xmlns:xlink="http://www.w3.org/1999/xlink" viewBox="0 0 220 128"><defs><style>.cls-1{fill:none;}.cls-2{clip-path:url(#clip-path);}.cls-3{fill:#498940;}.cls-4{fill:#f0da26;}</style><clipPath id="clip-path"><rect id="_Clipping_Path_" data-name="&lt;Clipping Path&gt;" class="cls-1" width="219.43" height="128"/></clipPath></defs><title>Flag_rect_Jamaica</title><g id="JAMAICA"><g id="_Group_" data-name="&lt;Group&gt;"><g id="_Clip_Group_" data-name="&lt;Clip Group&gt;"><g class="cls-2"><polygon id="_Path_" data-name="&lt;Path&gt;" class="cls-3" points="20.45 128 198.97 128 109.71 75.93 20.45 128"/><polygon id="_Path_2" data-name="&lt;Path&gt;" class="cls-3" points="198.97 0 20.45 0 109.71 52.08 198.97 0"/><polygon id="_Path_3" data-name="&lt;Path&gt;" points="0 116.08 89.26 64 0 11.93 0 116.08"/><polygon id="_Path_4" data-name="&lt;Path&gt;" points="219.43 116.08 219.43 11.93 130.16 64 219.43 116.08"/><polygon id="_Path_5" data-name="&lt;Path&gt;" class="cls-4" points="0 128 0 128 20.45 128 109.71 75.93 198.97 128 219.43 128 109.71 64 0 128"/><polygon id="_Path_6" data-name="&lt;Path&gt;" class="cls-4" points="198.97 0 109.71 52.08 20.45 0 0 0 109.71 64 219.43 0 198.97 0"/><polygon id="_Path_7" data-name="&lt;Path&gt;" class="cls-4" points="219.43 0 109.71 64 219.43 128 219.43 116.08 130.16 64 219.43 11.93 219.43 0"/><polygon id="_Path_8" data-name="&lt;Path&gt;" class="cls-4" points="0 11.93 89.26 64 0 116.08 0 128 109.71 64 0 0 0 11.93"/></g></g></g></g></svg>