<svg id="Layer_1" data-name="Layer 1" xmlns="http://www.w3.org/2000/svg" viewBox="0 0 220 128"><defs><style>.cls-1{fill:#dc143c;}.cls-2{fill:#42559c;}.cls-3{fill:#be0027;}.cls-4{fill:#fff;}</style></defs><title>Flag_rect_Nepal</title><path id="a" class="cls-1" d="M3.46,61.82H92.1L3.46,6.31V124.5H92.1L3.46,35.86Z"/><path id="a-2" data-name="a" class="cls-2" d="M3.46,6.31,92.1,61.82H29.42l-26-26V6.31m0,29.55v0m26,26L92.1,124.5H3.46V61.82h26M0,0V128H100.54l-6-6L37.85,65.31h66.42L94,58.86,5.31,3.35,0,0ZM7,58.32v-14l14,14Z"/><path id="a-3" data-name="a" class="cls-3" d="M3.46,61.82H92.1L3.46,6.31V124.5H92.1L3.46,35.86Z"/><path class="cls-4" d="M25.62,58.66A17.66,17.66,0,0,0,43.27,41a18.87,18.87,0,0,1-7.93,9.34l-1.51-1.12,3-2.22-3.58-.92,1.89-3.2-3.69.53L32,39.75l-3.21,1.92-.92-3.62-2.21,3-2.22-3-.93,3.6-3.19-1.89.55,3.69-3.7-.54,1.92,3.2-3.6.92,2.95,2.22-1.47,1.13A18.67,18.67,0,0,1,8,41.05,17.65,17.65,0,0,0,25.63,58.7Z"/><path class="cls-4" d="M17.11,84.66l-7.92-1L14,90,6.65,93.17,14,96.27l-4.8,6.35,7.92-1-1,7.93,6.36-4.8,3.13,7.36,3.1-7.36,6.38,4.82-1-7.92,7.92,1-4.8-6.35,7.34-3.11-7.34-3.13,4.8-6.35-7.92,1,1-7.92-6.35,4.8L25.62,74.2l-3.1,7.34-6.39-4.8,1,7.92Z"/></svg>