<svg id="Layer_1" data-name="Layer 1" xmlns="http://www.w3.org/2000/svg" xmlns:xlink="http://www.w3.org/1999/xlink" viewBox="0 0 220 128"><defs><style>.cls-1{fill:none;}.cls-2{clip-path:url(#clip-path);}.cls-3{fill:#4065ae;}.cls-4{fill:#fff;}.cls-5{fill:#f4cc29;}.cls-6{fill:#99d1f1;}.cls-7{fill:#487ba1;}.cls-8{fill:#bf1f3e;}.cls-9{fill:#5c7132;}.cls-10{fill:#263732;}.cls-11{fill:#92c33e;}.cls-12{fill:#ad2088;}.cls-13{fill:#f3cc2d;}.cls-14{fill:#6190bd;}.cls-15{fill:#2f4890;}</style><clipPath id="clip-path"><rect id="_Clipping_Path_" data-name="&lt;Clipping Path&gt;" class="cls-1" width="220" height="128"/></clipPath></defs><title>Flag_rect_Nicaragua</title><g id="NICARAGUA"><g id="_Group_" data-name="&lt;Group&gt;"><g id="_Clip_Group_" data-name="&lt;Clip Group&gt;"><g class="cls-2"><rect id="_Path_" data-name="&lt;Path&gt;" class="cls-3" y="85.34" width="220" height="42.66"/><rect id="_Path_2" data-name="&lt;Path&gt;" class="cls-3" width="220" height="42.67"/><rect id="_Path_3" data-name="&lt;Path&gt;" class="cls-4" y="42.67" width="220" height="42.67"/><polygon id="_Path_4" data-name="&lt;Path&gt;" class="cls-5" points="96.84 71.43 109.71 49.14 122.57 71.43 96.84 71.43"/><polygon id="_Path_5" data-name="&lt;Path&gt;" class="cls-6" points="98.1 70.7 109.7 50.62 121.3 70.7 98.1 70.7"/><g id="_Clip_Group_2" data-name="&lt;Clip Group&gt;"><g class="cls-2"><g id="_Group_2" data-name="&lt;Group&gt;"><path id="_Path_6" data-name="&lt;Path&gt;" class="cls-6" d="M100.4,68.84a2.63,2.63,0,0,1-.47-.06l-.35-.09,0-.23.42.12a7.23,7.23,0,0,0,1.07.09,1.31,1.31,0,0,1-.64.17Z"/></g><g id="_Group_3" data-name="&lt;Group&gt;"><path id="_Path_7" data-name="&lt;Path&gt;" class="cls-6" d="M99.33,70.26l-.27-.14a1.43,1.43,0,0,0,.42-.41,1,1,0,0,1,.62,0,1.36,1.36,0,0,0,.39.07.92.92,0,0,0,.81,0l.33,0-.24.23a1,1,0,0,1-1,0,1,1,0,0,1-.38,0,.71.71,0,0,0-.46,0c-.11.15-.2.29-.25.37Z"/></g><g id="_Group_4" data-name="&lt;Group&gt;"><path id="_Path_8" data-name="&lt;Path&gt;" class="cls-6" d="M101.57,70.48a6.56,6.56,0,0,0-.9,0l-.33-.11v.12c-.22,0-.31,0-.37,0l0,0v-.12a1,1,0,0,1,.42-.1h.33c.39,0,.69,0,.9.25Z"/></g><g id="_Group_5" data-name="&lt;Group&gt;"><path id="_Path_9" data-name="&lt;Path&gt;" class="cls-6" d="M104.8,68.74c-.45,0-.59-.15-.69-.6a1.5,1.5,0,0,0-.7.08h-.36L103,68h.39a1.06,1.06,0,0,1,.92,0c.14.49.23.54.57.56,0-.09.17-.17.32-.24l.27.08a2.59,2.59,0,0,0-.52.32Z"/></g><g id="_Group_6" data-name="&lt;Group&gt;"><path id="_Path_10" data-name="&lt;Path&gt;" class="cls-6" d="M104.06,69.93l-.27-.15c.15,0,.24-.21.42-.4a1,1,0,0,1,1.05-.26c.41.32.51.41.83.44a1.65,1.65,0,0,0,.48-.06l.35,0c-.1.23-.21.25-.32.27a3.41,3.41,0,0,1-.53,0,1.21,1.21,0,0,1-.76-.35.77.77,0,0,0-.92.1,2.7,2.7,0,0,0-.33.41Z"/></g><g id="_Group_7" data-name="&lt;Group&gt;"><path id="_Path_11" data-name="&lt;Path&gt;" class="cls-6" d="M106.39,70.66a2,2,0,0,1-.83-.21l-.29-.13a.61.61,0,0,1-.27.18l-.09-.17H105s.1-.1.26-.19l.39.12a2,2,0,0,0,.74.19l.29,0a2,2,0,0,1,.41-.07.54.54,0,0,1-.36.28l-.34,0Z"/></g><g id="_Group_8" data-name="&lt;Group&gt;"><path id="_Path_12" data-name="&lt;Path&gt;" class="cls-6" d="M109.18,68.33a3,3,0,0,0-1-.1h-.4l-.08-.21h.38a3.06,3.06,0,0,1,1.13.11h1.06l-1.1.21Z"/></g><g id="_Group_9" data-name="&lt;Group&gt;"><path id="_Path_13" data-name="&lt;Path&gt;" class="cls-6" d="M109.67,69.66a1.38,1.38,0,0,1-.79-.3l-.24-.16a1.51,1.51,0,0,0-.86-.32,1,1,0,0,1-.3.18l-.08-.16h.08c0-.06.09-.12.25-.21a1.73,1.73,0,0,1,1.08.35l.2.14a1.11,1.11,0,0,0,.66.27,2.87,2.87,0,0,1,.5-.21l-.18.31a.53.53,0,0,1-.32.11Z"/></g><g id="_Group_10" data-name="&lt;Group&gt;"><path id="_Path_14" data-name="&lt;Path&gt;" class="cls-6" d="M110.19,70.21a2.8,2.8,0,0,1-.81-.1.72.72,0,0,0-.75.09L108.5,70a.93.93,0,0,1,1-.12,3,3,0,0,0,1,.1l.38-.17a1.57,1.57,0,0,0,.47-.25l0,0h.27l-.24.21a1,1,0,0,1-.45.27,2.29,2.29,0,0,0-.35.16Z"/></g><g id="_Group_11" data-name="&lt;Group&gt;"><path id="_Path_15" data-name="&lt;Path&gt;" class="cls-6" d="M113,68.88a2.64,2.64,0,0,0-1.09-.1l-.09-.11.09-.11a2.93,2.93,0,0,1,1.11.13c.24-.06.37-.23.55-.46l.18-.18a1.64,1.64,0,0,1,.9.08,2.45,2.45,0,0,1-.82.1c-.29.37-.47.6-.83.65Z"/></g><g id="_Group_12" data-name="&lt;Group&gt;"><path id="_Path_16" data-name="&lt;Path&gt;" class="cls-6" d="M113.33,70.11l-.06-.21a3,3,0,0,1,.56-.12c.23-.28.42-.14.56,0a.79.79,0,0,0,.25.15,1.21,1.21,0,0,0,.66-.72.86.86,0,0,1-.64.93,1.16,1.16,0,0,1-.4-.18c-.14-.12-.18-.15-.34,0s-.59.15-.59.15Z"/></g><g id="_Group_13" data-name="&lt;Group&gt;"><path id="_Path_17" data-name="&lt;Path&gt;" class="cls-6" d="M114.25,69.26l-.09-.14h.07c0-.1.08-.16.24-.31l.21-.17a.8.8,0,0,1,.55-.29c.2-.26.43,0,.57.07-.32,0-.37,0-.48.11a.76.76,0,0,0-.5.25,1.12,1.12,0,0,1-.22.21l-.35.27Z"/></g><g id="_Group_14" data-name="&lt;Group&gt;"><path id="_Path_18" data-name="&lt;Path&gt;" class="cls-6" d="M115.88,70.12l-.2,0c0-.07.16-.58.23-.77.25-.18.41-.27.59-.23a.8.8,0,0,1,.39.42,2.35,2.35,0,0,1,.36.18,2.58,2.58,0,0,0,.44.22.44.44,0,0,1-.55,0,2.81,2.81,0,0,0-.38-.2c-.16-.25-.25-.34-.32-.37a.78.78,0,0,0-.37.14c0,.14-.17.62-.19.69Z"/></g><g id="_Group_15" data-name="&lt;Group&gt;"><path id="_Path_19" data-name="&lt;Path&gt;" class="cls-6" d="M117.8,68.88c-.27-.47-.38-.7-.65-.77a1.1,1.1,0,0,1-.13.45l-.25-.1c.11-.07.18-.25.32-.5.5,0,.62.34.76.67a.87.87,0,0,0,.74-.14c-.1.38-.38.39-.79.39Z"/></g><g id="_Group_16" data-name="&lt;Group&gt;"><path id="_Path_20" data-name="&lt;Path&gt;" class="cls-6" d="M120.23,69.93a.75.75,0,0,1-.55-.25,1.19,1.19,0,0,0-.36-.24c-.16-.1-.28-.06-.48.36l-.19-.08c.11-.25.28-.58.52-.6l.27.17a.91.91,0,0,1,.38.24,1.53,1.53,0,0,0,.36.27c-.07-.16,0-.2.25-.24-.12.24-.14.24-.2.37Z"/></g><g id="_Group_17" data-name="&lt;Group&gt;"><path id="_Path_21" data-name="&lt;Path&gt;" class="cls-6" d="M112,70.28l-.1-.16H112c0-.07.09-.12.26-.21a2,2,0,0,0,.65-.73,1.19,1.19,0,0,1,.54,0,4.87,4.87,0,0,0,.55.06.57.57,0,0,1-.57.15c-.14,0-.28,0-.42-.06a1.45,1.45,0,0,1-.56.69l-.44.26Z"/></g><g id="_Group_18" data-name="&lt;Group&gt;"><path id="_Path_22" data-name="&lt;Path&gt;" class="cls-6" d="M102.07,68.91h-.22c0-.12.12-.22.53-.43.15-.17.3-.11.45-.06l.22.25a1,1,0,0,1-.3-.06v0l-.26,0c-.32.17-.41.23-.42.26Z"/></g><g id="_Group_19" data-name="&lt;Group&gt;"><path id="_Path_23" data-name="&lt;Path&gt;" class="cls-6" d="M103.28,70a.49.49,0,0,1-.24-.08.86.86,0,0,0-.32-.15,1.29,1.29,0,0,1-.29.19l-.08-.18h.08c0-.06.1-.11.25-.21a1,1,0,0,1,.47.16.88.88,0,0,0,.38.16.41.41,0,0,1-.25.11Z"/></g><g id="_Group_20" data-name="&lt;Group&gt;"><polygon id="_Path_24" data-name="&lt;Path&gt;" class="cls-4" points="109.76 66.13 109.66 50.81 109.76 50.81 109.76 66.13 109.76 66.13"/></g><g id="_Group_21" data-name="&lt;Group&gt;"><polygon id="_Path_25" data-name="&lt;Path&gt;" class="cls-4" points="104.18 60.3 104.18 60.2 115.24 60.2 104.18 60.3 104.18 60.3"/></g><g id="_Group_22" data-name="&lt;Group&gt;"><polygon id="_Path_26" data-name="&lt;Path&gt;" class="cls-4" points="118.03 65.02 105.61 57.97 105.67 57.86 118.03 65.02 118.03 65.02"/></g><g id="_Group_23" data-name="&lt;Group&gt;"><polygon id="_Path_27" data-name="&lt;Path&gt;" class="cls-4" points="101.43 65.13 113.88 57.83 113.93 57.91 101.43 65.13 101.43 65.13"/></g><g id="_Group_24" data-name="&lt;Group&gt;"><polygon id="_Path_28" data-name="&lt;Path&gt;" class="cls-4" points="107.26 64.66 107.16 64.61 111.85 56.5 107.26 64.66 107.26 64.66"/></g><g id="_Group_25" data-name="&lt;Group&gt;"><polygon id="_Path_29" data-name="&lt;Path&gt;" class="cls-4" points="112.68 65.28 107.36 56.27 107.45 56.21 112.68 65.28 112.68 65.28"/></g><path id="_Path_30" data-name="&lt;Path&gt;" class="cls-6" d="M111.42,60.25a1.71,1.71,0,0,1-3.42,0,1.71,1.71,0,0,1,3.42,0Z"/><path id="_Path_31" data-name="&lt;Path&gt;" class="cls-7" d="M119.21,67.06l-5.74.1s0,.84.41.88,5.13-.06,5.32.32-4.63.58-4.63.58,4.26,0,4.48.3-2.34.39-2.15.44,3-.05,3.28.26-1.27.53-1.27.53,2.32.23,2.38.22l-2.08-3.63Z"/><path id="_Path_32" data-name="&lt;Path&gt;" class="cls-8" d="M108.85,59.13c-.18.13.44.21.39.61a4.42,4.42,0,0,1-.53.94c-.15.26.67,1.22,1.42.7a1.19,1.19,0,0,0,.41-1.64c-.6-.4-1-1-1.69-.61Z"/><g id="_Group_26" data-name="&lt;Group&gt;"><path id="_Path_33" data-name="&lt;Path&gt;" d="M109.94,61.33a1.71,1.71,0,0,0-.49-.48c-.19-.11-.49-.19-.57-.13s0,.09,0,.11,0,.05,0,0a1.06,1.06,0,0,1,0-.2c.13-.11.49,0,.64.13s.5.37.46.53Z"/></g><path id="_Path_34" data-name="&lt;Path&gt;" class="cls-9" d="M104.78,62.61c.68-.15.87.62,1.08.77s.81.19,1,.28l.73.48s.26-.7.56-.76,1.61.84,1.61.84.14-.84.49-.72a17.71,17.71,0,0,1,2.09,1.41.81.81,0,0,1,.46-.58c.37-.14,1.66.65,1.66.65s.14-.64.4-.64c.76,0,3.23,2.68,3.77,2.74.25,0-.9.37-.9.37s.2.16.08.32a29.47,29.47,0,0,1-3.51,0s.1.23,0,.3-14.84.24-14.84.24c1.37-2.38,4.09-5.43,5.31-5.72Z"/><path id="_Path_35" data-name="&lt;Path&gt;" class="cls-10" d="M110.6,68.22c.51-.14.15-1.57-2.67-3.75,4.47,3.1,1.63,3.53,6.2,3.65-.81.06-3.53.1-3.53.1Z"/><path id="_Path_36" data-name="&lt;Path&gt;" class="cls-10" d="M109.87,64.36s4.24,3.27,4.42,3.43l.89,0s-.58,0-5.31-3.46Z"/><path id="_Path_37" data-name="&lt;Path&gt;" class="cls-10" d="M112.4,65s3.55,2.78,3,2.8a22.11,22.11,0,0,0,2.39,0c-2.3-.13-1.83-.23-5.37-2.77Z"/><path id="_Path_38" data-name="&lt;Path&gt;" class="cls-10" d="M114.55,65.12l3.15,2.33a6.3,6.3,0,0,0,.74-.26c-.94.15-1.1-.27-3.89-2.07Z"/><path id="_Path_39" data-name="&lt;Path&gt;" class="cls-11" d="M105.33,62.92c.25.17.32.48.47.58a9.8,9.8,0,0,1,2.41,1.6c.8.83,2,1.88,1.58,2s-.84-.33-.84-.33.6,1-.21,1S106,64.93,106,64.93s.94,2.7-.27,2.58-1.08-2.05-1.08-2.05-.33.93-.56.91,0-1.21,0-1.21-1.4,2.33-1.93,2.07,2.14-4.5,3.2-4.31Z"/><path id="_Path_40" data-name="&lt;Path&gt;" class="cls-11" d="M108.23,63.71c0-.21.18-.15.61.07s3.93,2.92,3.84,3.2-4.25-2-4.45-3.27Z"/><path id="_Path_41" data-name="&lt;Path&gt;" class="cls-11" d="M110.83,64.17c-.28-.06,2.77,3,3.48,2.84s-3.29-2.79-3.48-2.84Z"/><path id="_Path_42" data-name="&lt;Path&gt;" class="cls-11" d="M112.92,64.43c-.33,0,3,2.95,3.67,2.79s-3.15-2.75-3.67-2.79Z"/><path id="_Path_43" data-name="&lt;Path&gt;" class="cls-11" d="M114.85,64.6c-.36.07,2.46,2.24,2.8,2.22s-2-2.37-2.8-2.22Z"/><path id="_Path_44" data-name="&lt;Path&gt;" class="cls-12" d="M105.12,58.55a6.19,6.19,0,0,1,9.17,0l-.69-1.21a6,6,0,0,0-7.77,0Z"/><path id="_Path_45" data-name="&lt;Path&gt;" class="cls-8" d="M113.16,56.59a6.14,6.14,0,0,0-6.91,0l-.57,1a5.49,5.49,0,0,1,4-1.53,5.55,5.55,0,0,1,4,1.53Z"/><path id="_Path_46" data-name="&lt;Path&gt;" class="cls-13" d="M112.73,55.72a5.39,5.39,0,0,0-3-.84,5,5,0,0,0-2.9.77l-.61,1.05a5.12,5.12,0,0,1,3.52-1.13,5.19,5.19,0,0,1,3.53,1.13Z"/><path id="_Path_47" data-name="&lt;Path&gt;" class="cls-11" d="M112.2,54.93l.55.92a5.47,5.47,0,0,0-3-.83,5.3,5.3,0,0,0-3,.88l.55-.93a4.37,4.37,0,0,1,2.5-.58,4.57,4.57,0,0,1,2.5.54Z"/><path id="_Path_48" data-name="&lt;Path&gt;" class="cls-14" d="M111.81,54.28l.47.77a6.42,6.42,0,0,0-2.58-.54,5.69,5.69,0,0,0-2.64.7l.44-.77a4.48,4.48,0,0,1,2.2-.48,5.28,5.28,0,0,1,2.11.32Z"/><path id="_Path_49" data-name="&lt;Path&gt;" class="cls-15" d="M111.58,53.85l.36.65a5.66,5.66,0,0,0-4.47,0l.37-.67a5.75,5.75,0,0,1,1.86-.26,5.3,5.3,0,0,1,1.88.28Z"/><path id="_Path_50" data-name="&lt;Path&gt;" class="cls-4" d="M106.89,68.54l5.79,0s-1,.12-1,.24a13.5,13.5,0,0,0,2.07.16s-1.25.09-1.27.23.57.17.57.17-1.14.11-1.14.24a7.11,7.11,0,0,0,1.35.17,7.8,7.8,0,0,0-1.92.17c0,.15,1.29.45,1.29.45l-7.6.14s1.19-.18,1.19-.41-.84-.3-.84-.3a25.65,25.65,0,0,0,3.24-.08c.14-.14-.65-.25-.65-.25s1.24.07,1.31-.07-1.65-.39-1.65-.39,1,0,1.17-.15-1.92-.37-1.92-.37Z"/><path id="_Path_51" data-name="&lt;Path&gt;" class="cls-7" d="M105.79,68.68s-5.7.17-6.2.5,3.19.64,3.19.64-3.79,0-4.09.38,2.27.3,2.27.3l-2.86.2,1.37-2.35Z"/><path id="_Path_52" data-name="&lt;Path&gt;" class="cls-13" d="M93.1,69.06a.37.37,0,1,1-.71.23.38.38,0,0,1,.25-.48.35.35,0,0,1,.46.25Z"/><g id="_Group_27" data-name="&lt;Group&gt;"><path id="_Path_53" data-name="&lt;Path&gt;" class="cls-1" d="M93.1,69.06a.37.37,0,1,1-.71.23.38.38,0,0,1,.25-.48A.35.35,0,0,1,93.1,69.06Z"/></g><path id="_Compound_Path_" data-name="&lt;Compound Path&gt;" class="cls-13" d="M93.7,72.69c-.23.2-.4.34-.25.67l-.13.06-.6-1.3.11-.06c.12.23.2.26.31.21a.62.62,0,0,0,.19-.14l.37-.34-.45-1-.26,0a.74.74,0,0,0-.34.08c-.2.09-.19.28-.12.46l-.12,0-.46-1,.12-.06c.25.3.47.29.83.27l2.24-.21.42.47Zm1.14-2-1.38.12.39.81Z"/><path id="_Path_54" data-name="&lt;Path&gt;" class="cls-13" d="M95.71,75.91c-.22.18-.22.31,0,.55l-.11.07-.87-1.18.11-.08c.18.24.3.27.54.09L97,74.09h0l-2.66.83-.08-.12,1.5-2.28h0l-1.33,1c-.53.4-.58.47-.39.79l-.11.08-.6-.85.1-.06c.27.24.35.26.87-.13l1.26-.93c.24-.18.23-.32.07-.55l.11-.07.7,1-1.11,1.65,1.88-.58.69,1-.1.07c-.19-.22-.29-.28-.54-.1Z"/><path id="_Path_55" data-name="&lt;Path&gt;" class="cls-13" d="M96.2,77c.23.2.35.2.54,0l1.32-1.49c.19-.21.17-.35-.06-.55l.09-.1,1.83,1.64-.31.75-.13,0a1.53,1.53,0,0,0-.43-1.27c-.27-.25-.36-.16-.55.07l-.53.6.06.05c.31.27.48.34.87.13l.1.1-.77.89-.13-.12a.6.6,0,0,0-.18-.85l-.07-.06-.58.65c-.16.17-.24.31,0,.5a1.72,1.72,0,0,0,1.38.37l0,.11-.73.37-1.83-1.65Z"/><path id="_Compound_Path_2" data-name="&lt;Compound Path&gt;" class="cls-13" d="M100.89,79.88c0,.32,0,.61.24.82l-.07.11-.85-.54c0-.12,0-.26,0-.38l.07-.57c.08-.57,0-.69-.18-.79l-.48.77c-.15.25-.13.39.13.55l-.07.11-1.23-.78.07-.13c.24.16.38.15.53-.1l1-1.68c.14-.23.11-.37-.14-.53l.07-.1,1.49.92c.5.33.65.81.41,1.18a.81.81,0,0,1-1,.21.93.93,0,0,1,0,.44Zm-.59-1.48c.55.37.85.28,1.08-.09s.09-.59-.28-.83c-.22-.14-.29-.07-.41.14l-.46.75Z"/><path id="_Path_56" data-name="&lt;Path&gt;" class="cls-13" d="M102.59,78.72c.11-.26.07-.38-.2-.5l.06-.14,1.32.62,0,.13c-.27-.13-.41-.09-.51.17l-.82,1.8c-.11.27-.06.39.2.51l0,.13-1.32-.62,0-.12c.27.12.4.09.52-.18Z"/><path id="_Path_57" data-name="&lt;Path&gt;" class="cls-13" d="M105.83,80.28h-.18A1.22,1.22,0,0,0,105,79.2c-.58-.19-.95.52-1.09,1-.31.94,0,1.49.46,1.63a1.09,1.09,0,0,0,1-.29l.09.11A1.4,1.4,0,0,1,104,82a1.43,1.43,0,0,1-.87-1.83A1.56,1.56,0,0,1,105,79a1.17,1.17,0,0,1,.32.18,1.33,1.33,0,0,0,.23.17,1.71,1.71,0,0,0,.32,0l0,0Z"/><path id="_Compound_Path_3" data-name="&lt;Compound Path&gt;" class="cls-13" d="M107.88,82.14c.05.3.05.51.42.58l0,.13-1.41-.23,0-.12c.26,0,.33,0,.36-.14a1.06,1.06,0,0,0,0-.25l-.07-.49-1-.16-.13.23a.81.81,0,0,0-.14.33c0,.2.14.31.32.36l0,.14-1.06-.19,0-.13c.38,0,.5-.23.68-.54l1.11-2,.62-.09Zm-1-2.1-.68,1.22.89.16Z"/><path id="_Path_58" data-name="&lt;Path&gt;" class="cls-13" d="M112.06,80.57l-.18.06a1.27,1.27,0,0,0-1-.76c-.61,0-.71.84-.68,1.32.07,1,.58,1.38,1,1.35a1.06,1.06,0,0,0,.82-.64l.12.07a1.4,1.4,0,0,1-1.19.9,1.42,1.42,0,0,1-1.47-1.38,1.57,1.57,0,0,1,1.31-1.78,1.32,1.32,0,0,1,.37.05.74.74,0,0,0,.27,0,.72.72,0,0,0,.29-.12l0,0Z"/><path id="_Path_59" data-name="&lt;Path&gt;" class="cls-13" d="M112.63,82.52c.28-.07.37-.19.29-.46l-.44-1.94c-.06-.27-.19-.33-.47-.27l0-.13,2.38-.56.41.69-.1.08a1.52,1.52,0,0,0-1.28-.38c-.35.09-.33.2-.26.51l.18.76h.08c.39-.09.56-.2.59-.63l.15-.05.29,1.17-.16,0c-.21-.38-.43-.42-.83-.33h-.07l.19.85c.06.23.11.38.4.32a1.74,1.74,0,0,0,1.09-.93l.1,0-.1.81-2.4.56Z"/><path id="_Path_60" data-name="&lt;Path&gt;" class="cls-13" d="M117.72,80l-.54-1.26c-.15-.31-.25-.49-.63-.35l-.06-.14,1-.42.07.12c-.33.22-.31.37-.16.7l.91,2.11-.34.14-2.42-1.49.62,1.46c.18.41.25.47.69.38l0,.12-1.06.46,0-.12c.34-.22.35-.35.19-.7l-.74-1.74a.87.87,0,0,0-.53-.06l0-.13.94-.41Z"/><path id="_Path_61" data-name="&lt;Path&gt;" class="cls-13" d="M119.64,76.33l.63.57-.09.12A1.34,1.34,0,0,0,119,77l1.3,1.92c.16.24.29.26.53.08l.07.12-1.19.83-.07-.11c.24-.16.27-.3.1-.54l-1.3-1.92a1.38,1.38,0,0,0-.38,1.11l-.15.06-.3-.81Z"/><path id="_Compound_Path_4" data-name="&lt;Compound Path&gt;" class="cls-13" d="M123.12,76.18c.3.08.58.17.84-.05l.09.1-.72.71a3.17,3.17,0,0,1-.36-.13l-.53-.19c-.53-.21-.68-.14-.8,0l.63.65c.21.2.34.2.55,0l.09.11-1,1-.1-.1c.21-.2.21-.34,0-.54l-1.37-1.42c-.21-.2-.35-.19-.55,0l-.09-.1L121,75c.45-.42.92-.45,1.24-.15a.88.88,0,0,1,0,1.1.65.65,0,0,1,.43.07Zm-1.56.24c.49-.47.48-.78.17-1.09s-.56-.24-.87.07-.13.28,0,.44l.62.63Z"/><path id="_Compound_Path_5" data-name="&lt;Compound Path&gt;" class="cls-13" d="M125.18,73.5c.31.1.5.19.71-.1l.11.08-.82,1.16-.11-.07c.13-.23.12-.3,0-.38a1.12,1.12,0,0,0-.22-.1l-.47-.15-.61.85L124,75a1.06,1.06,0,0,0,.25.27c.15.11.33,0,.45-.14l.11.09-.64.88-.1-.07a.85.85,0,0,0-.19-.87l-1.25-1.88.17-.6Zm-2.26,0,.79,1.16.5-.74Z"/><path id="_Path_62" data-name="&lt;Path&gt;" class="cls-13" d="M126,73.24c.13-.29.1-.42-.16-.54L124,71.81c-.25-.12-.38-.07-.51.2l-.12-.06.64-1.32.13.06c-.14.26-.09.41.15.52l1.77.89c.2.09.31.15.44-.13a1.79,1.79,0,0,0-.07-1.43l.08-.07.62.6-1.1,2.23Z"/><path id="_Path_63" data-name="&lt;Path&gt;" class="cls-13" d="M126.26,69.06a.36.36,0,0,1,.46-.24.37.37,0,0,1,.25.47.37.37,0,1,1-.71-.23Z"/><path id="_Compound_Path_6" data-name="&lt;Compound Path&gt;" class="cls-13" d="M93.13,65.37c.24-.2.48-.37.44-.74h.14l.15,1a3.37,3.37,0,0,1-.31.21l-.46.32c-.49.33-.51.5-.48.67l.9-.15c.28,0,.35-.16.31-.44l.14,0,.21,1.46-.12,0c0-.29-.16-.38-.43-.33l-1.94.3c-.29,0-.36.16-.32.46l-.12,0L91,66.39c-.1-.61.17-1,.59-1.09s.71.29.85.67a.89.89,0,0,1,.32-.32Zm-.72,1.41c-.1-.68-.36-.84-.78-.76s-.51.32-.46.75c0,.27.16.27.39.24l.86-.16Z"/><path id="_Path_64" data-name="&lt;Path&gt;" class="cls-13" d="M93.59,64.47c0-.29-.08-.39-.36-.41l-2-.08c-.29,0-.38.1-.38.4l-.14,0,.09-2.47.77-.23,0,.13A1.52,1.52,0,0,0,91,62.93c0,.36.11.37.39.38l.81,0v-.09c0-.4,0-.59-.45-.75v-.16l1.18,0v.16c-.42.1-.52.31-.55.7v.09l.86,0c.23,0,.4,0,.41-.3A1.72,1.72,0,0,0,93,61.78l0-.11.76.33-.1,2.47Z"/><path id="_Compound_Path_7" data-name="&lt;Compound Path&gt;" class="cls-13" d="M92.74,60.21l.84.19c.28.08.38,0,.45-.31l.13,0-.31,1.45-.14,0c.07-.28,0-.41-.27-.46l-1.92-.43c-.27-.06-.38,0-.44.3l-.14,0,.32-1.46c.2-.89.65-1.16,1-1.05.73.16.64.89.52,1.45Zm-.16,0,.07-.23c.1-.49,0-.75-.49-.86a.57.57,0,0,0-.76.49c-.07.31.06.34.33.42Z"/><path id="_Path_65" data-name="&lt;Path&gt;" class="cls-13" d="M93.8,57.7c.67.3,1,.16,1.13-.24.22-.57-.05-.87-.59-1.1L93,55.82c-.27-.11-.38,0-.5.23l-.13,0,.39-1,.12.06c-.11.27-.07.4.19.51l1.35.56A1,1,0,0,1,95,57.62c-.31.76-.8,1-1.38.76l-1.42-.59c-.27-.11-.39,0-.5.23L91.61,58l.55-1.35.11,0c-.1.27-.06.4.21.52Z"/><path id="_Compound_Path_8" data-name="&lt;Compound Path&gt;" class="cls-13" d="M95.45,56.36l-.11-.07a.34.34,0,0,0-.11-.55l-1.65-1.06c-.24-.14-.37-.11-.52.13l-.12-.07.79-1.24c.57-.9,1-.92,1.26-.72s.29.7.16,1h0c.31-.34.71-.65,1.17-.35s.48.73.06,1.4Zm-.73-2c.27-.44.26-.74-.1-1s-.61-.09-.82.25a.47.47,0,0,0-.09.28.33.33,0,0,0,.16.15l.74.47Zm.76.76c.3.19.42.28.63-.09a.61.61,0,0,0-.21-1c-.32-.2-.62-.26-1,.39l-.13.2Z"/><path id="_Path_66" data-name="&lt;Path&gt;" class="cls-13" d="M97,53.73c.21-.22.21-.36,0-.55l-1.44-1.33c-.23-.19-.35-.18-.55,0l-.1-.09,1-1.09.1.09c-.2.22-.2.36,0,.55l1.45,1.33c.18.17.27.24.46,0a1.69,1.69,0,0,0,.32-1.39l.1,0,.42.74-1.64,1.83Z"/><path id="_Path_67" data-name="&lt;Path&gt;" class="cls-13" d="M97.69,49.64c-.18-.22-.34-.22-.55,0l-.09-.11,1.12-.94.09.1c-.23.21-.26.33-.06.56l1.24,1.52c.19.22.33.22.55,0l.08.09-1.11,1-.09-.1c.22-.2.23-.33.06-.55Z"/><path id="_Path_68" data-name="&lt;Path&gt;" class="cls-13" d="M101.17,47.57l-.11.16a1.21,1.21,0,0,0-1.28-.18c-.51.34-.2,1.08,0,1.48.53.85,1.16.93,1.55.67a1,1,0,0,0,.42-1h.13a1.4,1.4,0,0,1-.62,1.37,1.39,1.39,0,0,1-1.94-.5,1.57,1.57,0,0,1,.3-2.18,1.61,1.61,0,0,1,.34-.15.88.88,0,0,0,.26-.08.91.91,0,0,0,.2-.24l0,0Z"/><path id="_Compound_Path_9" data-name="&lt;Compound Path&gt;" class="cls-13" d="M104.48,47.79c.2.24.3.42.65.29l.05.13-1.31.54-.07-.12c.23-.12.28-.18.23-.3a1.2,1.2,0,0,0-.13-.21l-.32-.38-1,.39v.28a1.37,1.37,0,0,0,.07.34c.07.2.27.2.45.14l0,.13-1,.4,0-.12a.86.86,0,0,0,.3-.82l-.07-2.27.48-.42Zm-1.89-1.28,0,1.4.82-.34Z"/><path id="_Compound_Path_10" data-name="&lt;Compound Path&gt;" class="cls-13" d="M106.37,47.78c.29,0,.38-.14.35-.44l-.21-2c0-.29-.14-.37-.44-.34v-.12l1.41-.16a1.75,1.75,0,0,1,.69,0,1.53,1.53,0,0,1,.33,2.77,1.77,1.77,0,0,1-.7.19l-1.4.15Zm1-.54c0,.3,0,.39.4.35s.85-.39.72-1.51-.52-1.22-1.06-1.16c-.31,0-.29.16-.28.41Z"/><path id="_Path_69" data-name="&lt;Path&gt;" class="cls-13" d="M109.42,47.45c.31,0,.41-.06.42-.36l.14-2c0-.27-.08-.37-.37-.4v-.13l2.44.16.21.79-.13,0a1.55,1.55,0,0,0-1.12-.74c-.36,0-.36.1-.39.41l0,.79h.07c.41,0,.59,0,.76-.43h.16l-.08,1.19-.16,0c-.09-.42-.29-.53-.68-.55h-.1l0,.86c0,.25,0,.41.28.42a1.65,1.65,0,0,0,1.31-.57l.11.06-.35.75-2.45-.17Z"/><path id="_Path_70" data-name="&lt;Path&gt;" class="cls-13" d="M115.91,47.9l.45-1.3c.1-.34.14-.53-.24-.69l0-.13,1,.34-.06.12c-.39-.05-.47.09-.58.43l-.71,2.17-.36-.12L114.67,46l-.51,1.5c-.12.41-.11.51.27.73l-.05.13L113.3,48l0-.13c.39.06.5,0,.62-.36l.6-1.81a.76.76,0,0,0-.36-.41l.06-.13,1,.33Z"/><path id="_Path_71" data-name="&lt;Path&gt;" class="cls-13" d="M117.64,47c.13-.26.07-.39-.19-.52l.08-.12,1.28.67,0,.12c-.27-.14-.4-.11-.52.16L117.36,49c-.14.27-.07.39.18.53l-.06.12-1.3-.66.06-.13c.26.14.4.1.52-.15Z"/><path id="_Path_72" data-name="&lt;Path&gt;" class="cls-13" d="M120.91,49.39l-.18-.07a1.17,1.17,0,0,0-.35-1.23c-.51-.35-1.06.23-1.33.63-.54.82-.37,1.44,0,1.69a1,1,0,0,0,1,0l0,.13a1.35,1.35,0,0,1-1.49,0,1.41,1.41,0,0,1-.32-2,1.53,1.53,0,0,1,2.08-.61.88.88,0,0,1,.27.28c.07.07.14.15.19.19a.67.67,0,0,0,.3.1h0Z"/><path id="_Compound_Path_11" data-name="&lt;Compound Path&gt;" class="cls-13" d="M122.05,52.52c-.15.28-.27.47,0,.72l-.11.1-1-1,.09-.1c.2.17.27.17.35.09a.6.6,0,0,0,.13-.21l.23-.45L121,51l-.25.13a.83.83,0,0,0-.3.2c-.14.13-.07.31,0,.46l-.09.09-.77-.75.09-.1c.35.19.54.1.87,0l2-1,.56.27Zm.39-2.25-1.25.6.64.62Z"/><path id="_Compound_Path_12" data-name="&lt;Compound Path&gt;" class="cls-13" d="M124,55.11a.75.75,0,0,0-.1.83l-.11.08-.57-.84a2.79,2.79,0,0,1,.18-.34l.29-.49c.3-.5.24-.66.15-.81l-.76.53c-.24.17-.24.3-.08.54l-.11.07-.83-1.2.12-.08c.16.24.29.27.52.11l1.62-1.11c.24-.16.26-.31.09-.55l.11-.06,1,1.45c.32.5.28,1-.09,1.24a.78.78,0,0,1-1-.24.85.85,0,0,1-.17.42Zm0-1.6c.37.56.67.61,1,.35s.32-.52.07-.87-.23-.17-.43-.05l-.72.49Z"/><path id="_Compound_Path_13" data-name="&lt;Compound Path&gt;" class="cls-13" d="M125.45,58.44c-.26.2-.43.32-.3.66l-.12.06-.55-1.33.14-.06c.1.23.16.27.28.23a.66.66,0,0,0,.2-.14l.39-.33-.39-1-.28,0a1.32,1.32,0,0,0-.34,0,.35.35,0,0,0-.13.47l-.14,0-.41-1,.14-.06c.23.32.45.32.8.31l2.26-.08.4.49Zm1.25-1.91-1.4,0,.34.84Z"/><path id="_Path_73" data-name="&lt;Path&gt;" class="cls-13" d="M127.67,61.3l-.09-.13c.41-.46.62-.75.55-1.12s-.52-.72-1.53-.51-1.31.58-1.22,1,.42.44.79.37.34-.16.3-.47l.14,0,.29,1.37-.15,0c-.11-.32-.2-.34-.51-.27l-.59.12a1.57,1.57,0,0,0-.2-.55,2,2,0,0,1-.25-.58,1.37,1.37,0,0,1,1.15-1.7A1.57,1.57,0,0,1,128.27,60a.78.78,0,0,1,0,.34.71.71,0,0,0,0,.25.89.89,0,0,0,.19.31Z"/><path id="_Path_74" data-name="&lt;Path&gt;" class="cls-13" d="M126.61,62.91c-.72,0-.93.25-.92.69,0,.6.37.78,1,.76l1.43,0c.28,0,.37-.11.35-.41h.14l0,1h-.14c0-.31-.1-.4-.38-.4l-1.47,0c-.69,0-1.08-.29-1.09-1.08s.35-1.25,1-1.26l1.53,0c.28,0,.36-.11.36-.4h.13l0,1.47h-.13c0-.3-.1-.38-.38-.38Z"/><path id="_Compound_Path_14" data-name="&lt;Compound Path&gt;" class="cls-13" d="M125.85,67.56c-.31,0-.53,0-.58.42l-.13,0,.22-1.44.13,0c0,.27,0,.33.12.34a.7.7,0,0,0,.25,0l.49-.06.19-1-.26-.13a.88.88,0,0,0-.32-.12c-.2,0-.31.13-.36.31l-.12,0,.17-1.07.13,0c0,.39.23.5.53.67l2,1.14.09.61Zm2.06-1-1.21-.69-.14.89Z"/></g></g></g></g></g></g></svg>