<svg id="Layer_1" data-name="Layer 1" xmlns="http://www.w3.org/2000/svg" xmlns:xlink="http://www.w3.org/1999/xlink" viewBox="0 0 220 128"><defs><style>.cls-1{fill:none;}.cls-2{clip-path:url(#clip-path);}.cls-3{fill:#3e8b11;}.cls-4{fill:#df7a21;}.cls-5{fill:#cb0423;}.cls-6{fill:#fff;}</style><clipPath id="clip-path"><rect id="_Clipping_Path_" data-name="&lt;Clipping Path&gt;" class="cls-1" width="220" height="128"/></clipPath></defs><title>Flag_rect_Zambia</title><g id="ZAMBIA"><g id="_Group_" data-name="&lt;Group&gt;"><g id="_Clip_Group_" data-name="&lt;Clip Group&gt;"><g class="cls-2"><rect id="_Path_" data-name="&lt;Path&gt;" class="cls-3" width="220" height="128"/><rect id="_Path_2" data-name="&lt;Path&gt;" class="cls-4" x="193.67" y="52.53" width="26.33" height="75.47"/><rect id="_Path_3" data-name="&lt;Path&gt;" x="167.95" y="52.51" width="25.72" height="75.47"/><rect id="_Path_4" data-name="&lt;Path&gt;" class="cls-5" x="141.69" y="52.56" width="26.29" height="75.44"/><g id="_Clip_Group_2" data-name="&lt;Clip Group&gt;"><g class="cls-2"><path id="_Path_5" data-name="&lt;Path&gt;" class="cls-4" d="M202.18,18.75s9.69-4.14,10.62-5c.42.48-3.89,5.69-12.26,7.63,7.61-1.81,14.1-7.46,15.4-7.25.41,0,.31,5.49-17.11,10.19,12-3.17,19-9,19-8.33.08.16-1.21,4.57-11.73,8,2.94-.66,10.93-5.57,10.83-4.57.27.33-7.72,10.6-22.13,7.25,11.52,3,19-4.21,20.05-4.08.21.05-2.14,6.33-16.67,6.71,7-.74,5-.05,5-.05a9.3,9.3,0,0,1-9,1c3.89,1.05,4.31,1.1,4.38,1.46-.26.43-3.45,1.07-6.51-.61,2.46,1,4.69,1.2,4.73,1.58a3.17,3.17,0,0,1-3,.38c-1.4-.63-14.39-8.6-14.39-8.6l22.12-6.08Z"/><g id="_Group_2" data-name="&lt;Group&gt;"><path id="_Compound_Path_" data-name="&lt;Compound Path&gt;" d="M194.73,33.56a2.66,2.66,0,0,1-1.19-.26c-1.39-.66-13.86-8.3-14.4-8.63a.14.14,0,0,1-.08-.18.13.13,0,0,1,.13-.15l22.11-6.08.93.31c3.22-1.43,9.73-4.32,10.44-5a.34.34,0,0,1,.14,0,.12.12,0,0,1,.12.08.46.46,0,0,1,0,.3c-.09.54-1,1.69-2.58,3,.77-.43,1.44-.84,2.08-1.25,1.69-1,2.85-1.74,3.42-1.74.09,0,.31.23.32.31.08.69-.44,2.12-2.55,3.86,1.07-.62,1.91-1.15,2.55-1.51,1-.61,1.33-.82,1.54-.82,0,0,.22.21.22.26a7.43,7.43,0,0,1-2.82,3.63,5.41,5.41,0,0,1,1.6-.54s.23.05.25.1l.08.31a10.6,10.6,0,0,1-2.71,3,.74.74,0,0,1,.39-.13c.09,0,.25.16.23.26,0,.74-2.3,4.93-11.44,6.36v.05c0,.18-.11.28-.39.38a9.53,9.53,0,0,1-5.09,1.76c.37.16.5.29.57.49-.21.43-1.05.66-2.07.71.17.08.26.18.26.28-.09.34-1.11.85-2.11.85Zm-15-9c2.12,1.3,12.76,7.84,14,8.4a3.5,3.5,0,0,0,2.81-.33,8.4,8.4,0,0,1-1.31-.23,8.66,8.66,0,0,1-3.35-1.1c-.11,0-.12-.13-.11-.23A.24.24,0,0,1,192,31a20.31,20.31,0,0,0,3.24,1,5.62,5.62,0,0,0,3.09-.33h0c-.08,0-.38-.1-1.71-.46a9.53,9.53,0,0,1-2.63-.72.17.17,0,0,1-.08-.23c0-.1.13-.15.19-.12l2.61.71a8.88,8.88,0,0,0,.9,0,9.51,9.51,0,0,0,5.33-1.71h-.31c-1.39.15-2.88.28-4.45.33-.09-.05-.18-.07-.18-.18s0-.17.15-.17c2.12-.23,3.6-.36,4.46-.36,9.57-1.25,12-5.54,12-6.16a5.43,5.43,0,0,1-1.3.92c-.73.41-1.66,1-2.77,1.53a20.75,20.75,0,0,1-4.46,1.72,21.12,21.12,0,0,1-11.4.07c-.12,0-.17-.13-.14-.18a.18.18,0,0,1,.21-.15A23.69,23.69,0,0,0,206,26.48a23.31,23.31,0,0,0,4.41-1.71c4.19-2.19,6.26-5,6.33-5.31A23.12,23.12,0,0,0,213.36,21a31.89,31.89,0,0,1-5.42,2.6c-.72.28-1.36.51-1.83.64a.18.18,0,0,1-.23-.15.16.16,0,0,1,.11-.21c.64-.18,1.26-.43,1.8-.64,1.38-.56,3-1.4,4.53-2.17l.88-.4c3.51-2.2,4.35-4.19,4.43-4.58a6.59,6.59,0,0,1-1.2.85c-1.27.76-3.32,2-6.08,3.34a50.18,50.18,0,0,1-8.84,3.53c-.85.25-1.73.51-2.63.74h0a.2.2,0,0,1-.23-.13.3.3,0,0,1,.13-.26c.93-.23,1.79-.46,2.62-.71a61.11,61.11,0,0,0,8.81-3.53c5.43-2.91,5.78-5.36,5.62-5.64A17.2,17.2,0,0,0,212.67,16c-1.63,1-3.67,2.22-6,3.37a26.23,26.23,0,0,1-6.07,2.17.16.16,0,0,1-.21-.12.17.17,0,0,1,.14-.23h0a29.92,29.92,0,0,0,6-2.17c3.6-1.89,5.51-4,6-4.86-2,1.2-9.91,4.6-10.26,4.73l-1-.28L179.7,24.57Z"/></g><path id="_Path_6" data-name="&lt;Path&gt;" class="cls-4" d="M176.18,40.35a1.81,1.81,0,0,0-2,1.74s-.17.1-.08.94a8.29,8.29,0,0,1,.5-.74,2.92,2.92,0,0,0,2.51-.81c-1.3,1.35-.52,1.83-.52,1.83s-.31,1,.66,1.28a.85.85,0,0,1-.11-.79A1.56,1.56,0,0,0,178.43,42c0,1.53.88,1.89.88,1.89a.93.93,0,0,0,.89.92,1.34,1.34,0,0,1-.37-1.1A1.57,1.57,0,0,0,180,41.4a3.84,3.84,0,0,0,1.07-1.28,7.79,7.79,0,0,1-1.19-.61,12.61,12.61,0,0,1,0-2.45l-.47-2.66L178,38.56a1.9,1.9,0,0,1-1.84,1.79Z"/><g id="_Group_3" data-name="&lt;Group&gt;"><path id="_Compound_Path_2" data-name="&lt;Compound Path&gt;" d="M180.2,45h0a1.1,1.1,0,0,1-1.05-1.07c-.08,0-.46-.16-.71-.87a1.58,1.58,0,0,1-1.19.94,2.64,2.64,0,0,0,.19.54.15.15,0,0,1,0,.2.16.16,0,0,1-.19.08,1.09,1.09,0,0,1-.7-.49,1.25,1.25,0,0,1-.13-.94c-.07,0-.18-.15-.21-.44a1.38,1.38,0,0,1,.16-.71,3.72,3.72,0,0,1-1.7.31,3.41,3.41,0,0,0-.38.64.26.26,0,0,1-.2.07c-.06,0-.14-.07-.14-.15-.11-.79,0-1.05.11-1.13a1.91,1.91,0,0,1,2.13-1.78,1.75,1.75,0,0,0,1.68-1.59v0a.32.32,0,0,1,0-.16l1.34-4c0-.08.1-.1.19-.1a.15.15,0,0,1,.17.13l.47,2.65a10.83,10.83,0,0,0,0,2.4c.31.18,1.1.51,1.1.51a.43.43,0,0,1,.09.13.38.38,0,0,1,0,.15,6,6,0,0,1-1,1.26,1.75,1.75,0,0,1-.31,2.34,1.23,1.23,0,0,0,.35.8.2.2,0,0,1,.05.23.2.2,0,0,1-.17.1Zm-1.77-3.14c.12,0,.19,0,.19.15a2,2,0,0,0,.75,1.74c.1.15.13.46.36.69a2.14,2.14,0,0,1-.09-.74,1.48,1.48,0,0,0,.22-2.12c0-.05-.06-.11,0-.16s0-.13.09-.13a3.11,3.11,0,0,0,.91-1,5.25,5.25,0,0,1-1.05-.58,8.68,8.68,0,0,1-.08-2.58l-.35-1.89-1.12,3.39h0a2.13,2.13,0,0,1-2,2,1.67,1.67,0,0,0-1.83,1.56.82.82,0,0,0-.07.36,1,1,0,0,1,.19-.29,6.07,6.07,0,0,1,.61,0,3.08,3.08,0,0,0,1.9-.84.19.19,0,0,1,.28,0,.23.23,0,0,1,0,.25c-.61.64-.72,1-.7,1.25a.4.4,0,0,0,.15.34c.06.2,0,.63.13.92a.2.2,0,0,1,.07.1,1,1,0,0,1,.07-.49A1.56,1.56,0,0,0,178.26,42a.21.21,0,0,1,.17-.23Z"/></g><path id="_Path_7" data-name="&lt;Path&gt;" class="cls-4" d="M185.78,34.38s1.44,1.6,2.81,1.53c.5-.44-1.06-1.36-1.06-1.59.55.52,2.91,2.53,4.41,1.82.58-.87-1.09-.77-2.92-3,1.28.84,4.47,2.73,6,2,.64-.72-3.32-2.81-4.65-4.5l-3.45-1.76-4.63,3.78Z"/><g id="_Group_4" data-name="&lt;Group&gt;"><path id="_Compound_Path_3" data-name="&lt;Compound Path&gt;" d="M191.2,36.47a4.58,4.58,0,0,1-2.32-.87v.1a1.06,1.06,0,0,1-.16.34h-.1a4.38,4.38,0,0,1-3-1.54l-3.46-1.68a.2.2,0,0,1-.09-.16s0-.1.05-.15l4.66-3.8,3.63,1.73a14.52,14.52,0,0,0,2.61,2.27c1.32,1,2.15,1.67,2.21,2.18,0,0-.11.3-.12.35-1.43.72-3.56-.4-5.06-1.3a8.44,8.44,0,0,0,1.36,1c.44.31.74.46.78.74a.66.66,0,0,1-.16.54,1.55,1.55,0,0,1-.86.23Zm-3.67-2.32a.18.18,0,0,1,.12.05c.4.38,2.88,2.4,4.2,1.73,0-.3-.27-.43-.6-.66a8,8,0,0,1-2.37-2.07.14.14,0,0,1,0-.23.12.12,0,0,1,.21,0c.64.38,4.38,2.65,5.81,2-.1-.39-1.13-1.2-2.1-1.94a13.7,13.7,0,0,1-2.62-2.28L186.84,29l-4.21,3.63,3.21,1.56a4.28,4.28,0,0,0,2.63,1.5c0-.2-.42-.61-.68-.81s-.45-.41-.45-.57a.17.17,0,0,1,.11-.15.12.12,0,0,1,.08,0Z"/></g><path id="_Path_8" data-name="&lt;Path&gt;" class="cls-4" d="M180.52,21.4s1.58-.94,7.92-.46c.65.08,4.27-1.25,5.46-1.63,1.83-.36,7.66-1.64,9.25-2.81,1.11-.13-.31,2-1.71,2.55s-6.92,2.56-8.84,2.3c2.3,0,1,1.92-2.82,1,1.85,1,1.16,1.17,1.16,1.17s-3.24.18-4.1-.56c2.18.82,1.28,1.1,1.28,1.1a8.28,8.28,0,0,1-3.25-.26c1.59.49.78.8.78.8a5.54,5.54,0,0,1-2.35-.18c-1.08-.41-2.69-3.07-2.78-3.07Z"/><g id="_Group_5" data-name="&lt;Group&gt;"><path id="_Compound_Path_4" data-name="&lt;Compound Path&gt;" d="M184.81,24.87a5,5,0,0,1-1.57-.22c-.86-.31-2-1.89-2.57-2.74a3.06,3.06,0,0,0-.25-.38.11.11,0,0,1-.12-.1c0-.1.07-.16.12-.21s1.68-1,8-.46h0a32.79,32.79,0,0,0,4.63-1.35l.76-.28c2.4-.44,7.78-1.71,9.2-2.79.47-.05.67.11.7.34.13.64-1.06,2.12-2.22,2.53a37.36,37.36,0,0,1-7.72,2.29.41.41,0,0,1,.14.36c0,.56-1.3,1.13-3.22.87.49.36.56.59.54.74s-.18.26-.26.28a18.34,18.34,0,0,1-2.58-.05.23.23,0,0,1,.06.23.82.82,0,0,1-.28.36,16.38,16.38,0,0,1-2.15.05v.08c0,.23-.2.33-.34.4a8.49,8.49,0,0,1-.89.05Zm-4-3.42c0,.08.11.16.15.26.51.71,1.65,2.3,2.37,2.58a5,5,0,0,0,1.46.23,3.7,3.7,0,0,0,.79-.08c.08,0,0-.1-.37-.28l-.42-.13c-.1,0-.13-.15-.1-.23s.14-.13.22-.07a1.89,1.89,0,0,1,.47.12A7.74,7.74,0,0,0,187,24c.63,0,1.16-.05,1.16-.05s0-.13-.53-.38a1.82,1.82,0,0,1-.86-.41.16.16,0,0,1-.06-.23c.06-.08.17-.13.23-.08.36.16.67.26.87.36a17.28,17.28,0,0,0,3.14.23,3.32,3.32,0,0,0-1.2-.89.17.17,0,0,1-.1-.21.27.27,0,0,1,.22-.13,7.4,7.4,0,0,0,1.88.23c1.27,0,1.83-.35,1.86-.58,0-.08-.17-.23-.64-.29a1.77,1.77,0,0,1-.33,0c-.12,0-.19-.1-.17-.2a.2.2,0,0,1,.17-.18h0l.35,0c2.2,0,7.09-1.71,8.37-2.3,1.08-.41,2.08-1.73,2-2.17-1.73,1.13-7.54,2.43-9.45,2.79l-.74.25a25.87,25.87,0,0,1-4.69,1.36c-1.35-.08-2.41-.11-3.32-.11a14.17,14.17,0,0,0-4.35.46Z"/></g><path id="_Path_9" data-name="&lt;Path&gt;" class="cls-4" d="M183.07,35.27l.21,4.16s-.12.21-.21.33-3-.43-2.58,1.74c0,.92,0,1.1.64,1.64a3.11,3.11,0,0,1-.12-1s.81.43,1.62-.87c-.58,1.3-.17,1.79,0,1.81.11.23-.25,1.28.83,1.26a1,1,0,0,1-.22-1s1.14-.18.75-2.22c.39-.38.55,0,.55,0s.14,1.22,1.11,1c.46.25-.06.89-.06.89a1,1,0,0,0,.92-.56c.21-.64.44-1.71-.7-2.17-.16-.43.44-.46.44-.46s.76.26,1,.64.17-1-.78-1.15c-1.12,0-1.21-.26-1.21-.31s-.19-3-.28-3.88Z"/><g id="_Group_6" data-name="&lt;Group&gt;"><path id="_Compound_Path_5" data-name="&lt;Compound Path&gt;" d="M183.38,44.54c-.92,0-1-.77-1-1.15l-.17-.41a1.37,1.37,0,0,1-.07-.89,1.12,1.12,0,0,1-1,.3,2.28,2.28,0,0,0,.12.69c0,.08,0,.13-.1.21a.19.19,0,0,1-.19,0c-.67-.56-.71-.81-.71-1.76a1.52,1.52,0,0,1,.26-1.28,2.5,2.5,0,0,1,1.94-.61h.38c.14,0,.24-.28.24-.28l-.24-4.06,2-.33a31.46,31.46,0,0,1,.5,4.06s.14.13,1,.18a1.28,1.28,0,0,1,1,1.3c0,.15-.34.23-.42.05a1.94,1.94,0,0,0-.88-.51s-.19,0-.23.13c.56.23,1.25.84.7,2.35a1.13,1.13,0,0,1-1.08.71.13.13,0,0,1-.14-.1.17.17,0,0,1,0-.21,1,1,0,0,0,.19-.51,1.31,1.31,0,0,1-1.26-1.22,4.1,4.1,0,0,1-.43,1.94,1.33,1.33,0,0,1-.62.46c.05,0,0,.38.27.64a.19.19,0,0,1-.14.33Zm-.75-3.45,0,0c.1.05.15.12.1.23-.44,1.1-.22,1.5-.14,1.55a.7.7,0,0,1,.14.49c0,.36,0,.59.28.72a1.15,1.15,0,0,1,0-.77c.17-.13.39-.15.58-.46a2.19,2.19,0,0,0,.14-1.69c.53-.79.85-.28.94-.1s.1.9.69.9a.62.62,0,0,1,.33,0,.55.55,0,0,1,.26.36.66.66,0,0,1-.06.46.87.87,0,0,0,.39-.39c.36-1,.17-1.6-.61-1.91a.58.58,0,0,1-.08-.56.93.93,0,0,1,.6-.28A3.63,3.63,0,0,1,187,40c0-.08-.08-.13-.08-.15a.77.77,0,0,0-.53-.34c-.33,0-1.38,0-1.38-.51,0-.12-.18-3-.28-3.85l-1.64.25.41,4a1.3,1.3,0,0,1-.29.46,1,1,0,0,1-.31.08h-.38c-.31,0-1.25,0-1.64.48a1.21,1.21,0,0,0-.21,1c0,.58,0,.84.18,1.07a1.74,1.74,0,0,1,0-.44.15.15,0,0,1,.11-.15.17.17,0,0,1,.17,0s.66.36,1.35-.77a.17.17,0,0,1,.17-.1Z"/></g><path id="_Path_10" data-name="&lt;Path&gt;" class="cls-4" d="M187,38.82c0-.23-1.94-2.86-1.44-3.19.5.1,1.31,1.3,2,.94-.21-.48-.79-.23-1.46-1.4-.69-1.36-.79-3.43-3.14-5.62,1.52,2.35,5,3.73,5.13,3s-3-3.27-2.87-3.91c.61,1.28,3.82,4.14,6.17,3.91.15-.56-1.9-1.66-2.48-2.71-1.48-1-5.51-4.49-5.59-5.29a9.81,9.81,0,0,0-2.81-3,1.41,1.41,0,0,1-.24-.48c-.91-2.15.3-2.84,1-2.94a3.11,3.11,0,0,0,1.16-.18c-.5-.17-1-.38-1.48-.56.63.46,2.29.08,1.9,1.41.73-.28,2.27-2.1-1.7-2.51-1.32-1.48-6.66-2.37-8,4.17a6.51,6.51,0,0,0,.52.43c-1.71-.82-6.26-1.45-7.89-1.74-4.46-1.27-9-4.34-9.49-4s2.66,3.29,2.49,3.37A75.12,75.12,0,0,0,151,14.66c-1.71-.64-3.4-2.12-3.58-1.81-.62,1.27,2.7,4.52,3.32,4.93s5.53,2.63,5.45,2.65c-7.37-3.34-8.59-4-8.95-4.34-.67-.15-2.26-2.27-2.68-2.17-.26.25.23,3.63,3.74,5.16.6.41,7.56,2.91,7.47,3.09s-8-3.3-8.28-3.37c-1.54-.64-3.43-2.74-3.76-2.51s.88,2.51,2.41,3.22c.8.36,3.93,1.92,6.73,2.91.19,0-5-2-7.56-3-1.14-.63-1.67-1.43-1.85-1.25s.43,3.53,8.49,5.44c.22.1,2.87-.64,2.72-.53s-2.61.58-2.86.58a6.38,6.38,0,0,0-1.66.23c-.08.21.52,1.43,4.7,1.2.53-.05,3.41-1.09,3.16-.86s-4,1.35-4.21,1.37a5.92,5.92,0,0,0-1.66.31c-.08.21,1,1.07,3.24,1.2,2,.1,5.74-1.2,5.67-1.12s-3.65,1.3-3.72,1.38-1.45.12-1.47.25,1.87,2.1,7.72.1c-.58.8-3.41,1.36-3.41,1.51a2.48,2.48,0,0,0,1.61.92,4.73,4.73,0,0,0,1.8,0,7.33,7.33,0,0,0,3.79-2c.2.41-3.74,2.42-3.55,2.6.86.79,3.67-.1,3.87-.2s5.42-3.07,5.39-3.42c.11.46-6.76,4.16-6.68,4.31.45.72,2.78-.05,2.9-.1l3.08-1.66c.06,0-3.38,2-3.08,2.35-.16,1.35,5.38-.95,5.83-1.2.21-.15-2.69,1.25-2.69,1.89.94,1.61,3.9,1.1,4.37.76.22-.15-.28,1.18-.11,1a4.52,4.52,0,0,0,.88-1.2c-.08.43-.41,1.09-.6,1.91s-.25,1.69-.5,2.63c-.08.41,1.83-.84,1.54-3.78.17,1.53-.6,4.39-.4,4.57.4.31,1.52-1.43,1.63-2.6a5.78,5.78,0,0,0,1.6,2.12,5.32,5.32,0,0,0-.27-1.74,42.91,42.91,0,0,0,.22-4.6c1.6,3.07,2.22,4.37,1.8,6.7.47.2,1.23-1.64,1.16-2.56A3.81,3.81,0,0,0,187,38.82Z"/><g id="_Group_7" data-name="&lt;Group&gt;"><path id="_Compound_Path_6" data-name="&lt;Compound Path&gt;" d="M187,39a4,4,0,0,1-3.15-2.37,4.53,4.53,0,0,1-.78,1.78.53.53,0,0,1-.41.21c-.06,0-.23-.1-.23-.18.41-2.09,0-3.29-1.49-6.08a35.66,35.66,0,0,1-.22,4,3.18,3.18,0,0,1,.24,1.23l0,.48c-.7-.12-1.3-1-1.67-1.66-.3,1-1.08,2.35-1.62,2.35-.31-.18-.29-.43-.09-1.56,0-.1,0-.17,0-.28-.38.72-.85,1.1-1.08,1.1a.94.94,0,0,1-.25-.23,9.53,9.53,0,0,0,.31-1.56c.08-.38.14-.76.24-1.09a5.62,5.62,0,0,1,.23-.92,2.71,2.71,0,0,1-.33.38c-.28-.13-.25-.26-.14-.64a1.54,1.54,0,0,0,.09-.48c-.07.25-.87.43-1.75.43a2.93,2.93,0,0,1-2.63-1.15c0-.31.33-.69.78-1-1.56.59-3.44,1.05-3.86.59a.37.37,0,0,1-.11-.36c0-.21.25-.49.64-.77l-.41.21c-.14.1-2.66.74-3.08.05-.08-.13-.1-.15.56-.54-1.06.23-2.6.36-3.11-.13,0-.2.08-.38.56-.69a5.38,5.38,0,0,1-.69.18,6,6,0,0,1-1.84,0c-1-.23-1.79-.87-1.76-1.12s.14-.16.85-.41a15.46,15.46,0,0,0,1.85-.62,14.71,14.71,0,0,1-3.81.59c-2,0-2.93-.61-3.13-.94a1,1,0,0,1-.08-.28c.08-.13.19-.16,1-.23.22,0,.55-.06.6-.08a3,3,0,0,1,.78-.31,12.56,12.56,0,0,1-2.44.33c-2.16-.12-3.29-.76-3.56-1.14,0-.39.19-.46,1.52-.64.14,0,.5-.11,1-.26-3.33.15-4.21-.64-4.43-1-.11-.13-.16-.31-.11-.39s.73-.25,1.22-.3c-5.84-1.51-7.72-3.89-7.93-5.06-.05-.26,0-.36.07-.44.36-.05.47.11.73.31a7.51,7.51,0,0,0,1.29.92s0,0,0,.05a5.31,5.31,0,0,1-1.89-2.78.72.72,0,0,1,.11-.33c.42,0,.79.28,1.5.84l.95.77a6,6,0,0,1-1.67-3.1c-.08-.25-.12-.71,0-.84.41,0,.86.33,1.52,1a5.54,5.54,0,0,0,1.29,1.1,14.37,14.37,0,0,0,3,1.58c-1.13-1-3.54-3.58-3-4.75.43-.15.76.1,1.4.48A15,15,0,0,0,151,14.51c2.24,1,4.65,2.12,7.22,3.57a1.22,1.22,0,0,0-.3-.3c-1.32-1.44-1.91-2.2-1.83-2.53a2,2,0,0,1,.33-.26A10.11,10.11,0,0,1,159,16.14a47,47,0,0,0,6.8,2.89l.65.1a43.31,43.31,0,0,1,6.7,1.38c.89-4.93,3.88-5.42,5.14-5.42a4,4,0,0,1,3,1.1c1.66.13,2.58.59,2.67,1.33A1.62,1.62,0,0,1,183,19a6.53,6.53,0,0,0-.21-.79.86.86,0,0,0-.16-.1s-.06.05-.06.05a1.84,1.84,0,0,1-.77.12c-.12,0-.26,0-.45,0a1.61,1.61,0,0,0-1,.69,2.24,2.24,0,0,0,.14,2.07,1.15,1.15,0,0,0,.21.43,10.39,10.39,0,0,1,2.8,3.07c.12.74,3.91,4.11,5.59,5.23a6.47,6.47,0,0,0,1.42,1.51c.69.54,1.21,1,1.11,1.38a1,1,0,0,1-.42.1,6.63,6.63,0,0,1-3.77-1.58c.59.69.95,1.15.87,1.45,0,.1-.11.28-.48.28a6.25,6.25,0,0,1-2.94-1.27,13.07,13.07,0,0,1,1,2.27,8.51,8.51,0,0,0,.45,1.2,2,2,0,0,0,1,1,.89.89,0,0,1,.48.44c-.17.25-.28.28-.44.28a2,2,0,0,1-1.13-.62,1.65,1.65,0,0,0-.59-.38A10.35,10.35,0,0,0,186.75,38c.36.56.42.69.42.79L187,39Zm-3.24-3.27a.17.17,0,0,1,.16.13,3.65,3.65,0,0,0,3,2.81,1.9,1.9,0,0,1-.41-.46c-.83-1.35-1.41-2.37-1-2.66a1.25,1.25,0,0,1,.83.41,1.78,1.78,0,0,0,.94.57h0c.1,0,0-.06-.18-.16a2.46,2.46,0,0,1-1.12-1.1,8.48,8.48,0,0,1-.47-1.3A12.24,12.24,0,0,0,184.1,31a6.74,6.74,0,0,1-1.27-1.4.2.2,0,0,1,0-.18.12.12,0,0,1,.19,0,8.31,8.31,0,0,1,1.26,1.4,7,7,0,0,0,3.42,1.76c.25-.3-.6-1.27-1.24-1.94-.95-1-1.55-1.66-1.42-2a.12.12,0,0,1,.12-.12.13.13,0,0,1,.14.1c.66,1.33,3.81,4,6.05,3.8l-1.15-1a5.79,5.79,0,0,1-1.44-1.5c-1.25-.82-5.54-4.42-5.62-5.34a10.23,10.23,0,0,0-2.72-2.91,1.07,1.07,0,0,1-.31-.59A2.6,2.6,0,0,1,180,18.8a1.72,1.72,0,0,1,1.22-.8,4.38,4.38,0,0,0,.5-.05H182l-.28-.12a2,2,0,0,1-.83-.34.13.13,0,0,1-.06-.17.16.16,0,0,1,.2-.08l.83.28c.45.08.91.15,1.11.51a.84.84,0,0,1,.08.79c.1-.28.66-.74.59-1.27s-.95-.95-2.48-1.1a4.1,4.1,0,0,0-2.85-1.08c-1.19,0-4.05.52-5,5.11.12,0,.22.1.45.28a.14.14,0,0,1,.05.21.18.18,0,0,1-.19.05c-1.47-.72-5.18-1.3-7.2-1.58l-.64-.13a43.26,43.26,0,0,1-6.86-2.91,13,13,0,0,0-2.47-1.13c-.11.28,1.15,1.66,1.72,2.28.75.81.83.91.81,1-3-1.54-5.62-2.71-8.06-3.76a18.41,18.41,0,0,1-2.42-1.3,4.49,4.49,0,0,0-1-.59c-.5,1.13,2.71,4.32,3.35,4.7.31.18,1.75.87,3.08,1.51,1.49.71,2.08,1,2.29,1.12,0,0,0,0,.06,0l0,0c.11.05.11.11.09.13a.33.33,0,0,1-.12-.05l-.08.15c-.13-.07-1.31-.64-2.33-1.12-.5-.23-1-.49-1.45-.69-4.27-1.86-4.93-2.22-5.24-2.55-.28,0-.8-.57-1.37-1.1a4.1,4.1,0,0,0-1.13-1,5.27,5.27,0,0,0,.28,1.28,6.12,6.12,0,0,0,3.48,3.57,2.54,2.54,0,0,0,.78.39l.41.15c.7.31,1.67.66,2.63,1.05C156,22,156,22,155.89,22.24c0,0-.09,0-.22,0l0,0a.1.1,0,0,0-.06-.05c-.5-.13-1.91-.72-6.15-2.48l-.38-.18h0c-.89-.35-1.53-.61-1.61-.66a11,11,0,0,1-2.48-1.66,4.79,4.79,0,0,0-1.17-.79,5.45,5.45,0,0,0,2.4,3l.75.31c.69.33,1.74.81,2.85,1.3l2.22.87a7.78,7.78,0,0,1,.8.35c.05,0,.08,0,.11,0v0c.11.07.11.1.11.12h-.16l0,.11c-.05,0-.41-.13-1-.39l-.41-.13c-.61-.25-1.21-.48-1.75-.74-1.52-.56-3.28-1.27-4.43-1.76a6.2,6.2,0,0,1-1.35-1c-.17-.11-.33-.29-.39-.29a4.66,4.66,0,0,0,.26.72c.49.84,2.18,3.06,8.21,4.47a3.61,3.61,0,0,0,.86-.15l.94-.21a4.67,4.67,0,0,1,.87-.18c0,.05.15.21.08.26s-1.83.43-1.83.43c-.33.08-.61.13-.78.16s-.28,0-.33,0a6.85,6.85,0,0,0-1.58.21c.44.43,1.39,1.12,4.59.91a13.47,13.47,0,0,0,1.78-.48A7.82,7.82,0,0,1,158,24c.05,0,.17.23.13.28-.19.18-4.11,1.4-4.32,1.43a7,7,0,0,0-1.54.25,5.52,5.52,0,0,0,3.12,1h0a22,22,0,0,0,5.12-1c.86-.26.61-.18.64-.08a.27.27,0,0,1,0,.18,16.71,16.71,0,0,1-2.24.84c-.75.26-1.44.51-1.53.56s-.25.06-.71.13c-.26,0-.69.08-.76.1a4.8,4.8,0,0,0,3,.74,15,15,0,0,0,4.63-.86.14.14,0,0,1,.18.05.15.15,0,0,1,0,.18,6.91,6.91,0,0,1-2.78,1.27c-.28.11-.59.21-.67.23a7.14,7.14,0,0,0,1.57.69,6.22,6.22,0,0,0,1.73,0,7.59,7.59,0,0,0,3.73-2c.35.35-.2.74-2,1.86a9.38,9.38,0,0,0-1.3.87,3.44,3.44,0,0,0,1,.15,9.28,9.28,0,0,0,2.61-.51A47.48,47.48,0,0,0,172.93,27a.12.12,0,0,1,.13-.13c0-.05.16.08.18.13,0,.31-.57.77-4.53,3.06-1,.62-2.11,1.23-2.21,1.36a3.06,3.06,0,0,0,.74.08,6.25,6.25,0,0,0,1.94-.39l.72-.36c.89-.48,2.29-1.25,2.37-1.27a.11.11,0,0,1,.18.05.11.11,0,0,1,0,.18h0a12.77,12.77,0,0,0-3,2.19c.09.23.21.31.5.31a16.8,16.8,0,0,0,4.64-1.38c.5-.25.54-.25.57-.25a.18.18,0,0,1,.15.1.24.24,0,0,1-.08.18,3.84,3.84,0,0,1-.52.23c-1.21.63-2.08,1.3-2.08,1.53a2.74,2.74,0,0,0,2.36,1,4.27,4.27,0,0,0,1.75-.33c.33.1.29.28.2.69a.3.3,0,0,0,0,.13c.11-.26.39-.64.53-1,.06,0,.11-.1.2-.08a.18.18,0,0,1,.09.18,3.7,3.7,0,0,1-.23.82,10.16,10.16,0,0,0-.36,1.1,10.7,10.7,0,0,0-.19,1.09,10.46,10.46,0,0,1-.31,1.56,4.36,4.36,0,0,0,1.26-2.55c0-.36,0-.72,0-1h0A.52.52,0,0,1,178,34a.25.25,0,0,1,.14,0s0,0,0,0v0a4.72,4.72,0,0,1,0,1.3c0,.64-.16,1.36-.25,2a4.92,4.92,0,0,0-.15,1.25,4.09,4.09,0,0,0,1.32-2.56.12.12,0,0,1,.13-.1.12.12,0,0,1,.16.08,5.87,5.87,0,0,0,1.54,2l-.26-.36a2.79,2.79,0,0,0-.21-1.18c.14-1.12.16-2.58.21-4.24v-.41a.11.11,0,0,1,.12-.12.1.1,0,0,1,.14.05c1.57,3,2.3,4.37,1.8,6.82l.13-.28a4.21,4.21,0,0,0,.78-2.33.2.2,0,0,1,.11-.18Z"/></g><path id="_Path_11" data-name="&lt;Path&gt;" class="cls-4" d="M160.4,19.38a4.32,4.32,0,0,1-2.46.74c.31,1.36,3.16.31,3.16.31a7.12,7.12,0,0,1-2.34,1.76c.59.49,3,.28,3.44.08a8.22,8.22,0,0,0,1.13-1.2S160.82,24,160.43,24c0,.33,2.66.2,3.21-.29a11.61,11.61,0,0,1,2-1.25S161.93,25,161.76,25c1.38.35,4.15-.44,5.91-1.56-2.61,1.76-2.84,2.07-4.17,2.66,1.19.28,1.77,1.07,5.78-.69a9.39,9.39,0,0,0,3.6-3,23.4,23.4,0,0,1-6.16,5.1c-.14.29,2.65,1.51,6.25-2.24Z"/><g id="_Group_8" data-name="&lt;Group&gt;"><path id="_Path_12" data-name="&lt;Path&gt;" d="M168,28a2.39,2.39,0,0,1-1.26-.28.81.81,0,0,1-.12-.36c.9-.59,1.75-1.15,2.61-1.79-3.3,1.43-4.27,1.12-5.21.79l-.55-.15a.17.17,0,0,1-.12-.15.22.22,0,0,1,.09-.13,12.71,12.71,0,0,0,2.33-1.38.61.61,0,0,0,.14-.1,7.59,7.59,0,0,1-4.17.63c-.07,0-.12-.05-.1-.15a.14.14,0,0,1,.14-.13,8.83,8.83,0,0,0,1.07-.71,4.75,4.75,0,0,1-2.4.05,1.23,1.23,0,0,1-.11-.23,7.76,7.76,0,0,0,1.52-1.43c-.88.18-2.63.26-3.18-.18a8.49,8.49,0,0,0,1.91-1.56,3.52,3.52,0,0,1-2.29,0,1,1,0,0,1-.49-.64,5.18,5.18,0,0,0,2.5-.92c.08,0,.14,0,.19.05a.13.13,0,0,1,0,.21,4.13,4.13,0,0,1-2.52.79c.2,0,.31.15.49.25.8.44,2.6-.2,2.6-.23a.16.16,0,0,1,.17.08c0,.05,0,.1,0,.15a6.6,6.6,0,0,1-2.37,1.82,9.74,9.74,0,0,0,3.32-.23.74.74,0,0,0,.27-.18,12.67,12.67,0,0,1,.84-1,.12.12,0,0,1,.19,0,.11.11,0,0,1,0,.18,6.27,6.27,0,0,1-.86,1c-.83.94-1.8,1.94-2.13,2,.45,0,2.6-.1,3.08-.53a13.16,13.16,0,0,1,2-1.25c.1-.06.16,0,.19.05s0,.1,0,.15c-2.08,1.46-3.05,2.12-3.49,2.4a10.41,10.41,0,0,0,5.4-1.58.17.17,0,0,1,.19.05.14.14,0,0,1,0,.2c-.81.51-1.38.92-1.83,1.25a15.11,15.11,0,0,1-2,1.23.34.34,0,0,1,.14.05c.93.28,1.88.61,5.17-.82a9.88,9.88,0,0,0,2-1.35,11.25,11.25,0,0,0,1.56-1.69.14.14,0,0,1,.19,0,.14.14,0,0,1,.05.2,10.79,10.79,0,0,1-1.68,1.82,36.57,36.57,0,0,1-4.51,3.34c.1,0,.36.08.82.13.7.08,2.74,0,5.21-2.61a.15.15,0,0,1,.2,0,.17.17,0,0,1,0,.21C171,27.48,169.13,28,168,28Z"/></g><path id="_Path_13" data-name="&lt;Path&gt;" class="cls-4" d="M179.86,27.43a3.82,3.82,0,0,0,1.2,2,3,3,0,0,1,1,1.71Z"/><g id="_Group_9" data-name="&lt;Group&gt;"><path id="_Path_14" data-name="&lt;Path&gt;" d="M182.08,31.31c-.08,0-.12,0-.14-.13a2.67,2.67,0,0,0-1-1.61,4.38,4.38,0,0,1-1.24-2.12.12.12,0,0,1,.1-.15.15.15,0,0,1,.18.1,4.14,4.14,0,0,0,1.18,1.94,2.91,2.91,0,0,1,1.06,1.82.12.12,0,0,1-.12.15Z"/></g><path id="_Path_15" data-name="&lt;Path&gt;" class="cls-4" d="M179.35,20a3.6,3.6,0,0,0,1.32,1.69,10,10,0,0,1,2.66,3.06c.13.46.71,3.58.69,3.94Z"/><g id="_Group_10" data-name="&lt;Group&gt;"><path id="_Path_16" data-name="&lt;Path&gt;" d="M184,28.86H184a.2.2,0,0,1-.12-.18,36.88,36.88,0,0,0-.64-3.86,11.27,11.27,0,0,0-2.6-3,3.59,3.59,0,0,1-1.38-1.74.14.14,0,0,1,.08-.2c.06,0,.16,0,.19.13a3.37,3.37,0,0,0,1.28,1.58,11.85,11.85,0,0,1,2.7,3.14,32,32,0,0,1,.67,4,.14.14,0,0,1-.13.13Z"/></g><path id="_Path_17" data-name="&lt;Path&gt;" class="cls-4" d="M173.19,21.61c.08.38-1.43,2.35.64,4.64C172,28.53,172,28.81,172,28.81s1,.58,2.89-1c3.08,3.76,2,5.49,2,5.49Z"/><g id="_Group_11" data-name="&lt;Group&gt;"><path id="_Path_18" data-name="&lt;Path&gt;" d="M176.89,33.46s0,0,0,0a.15.15,0,0,1-.07-.18s.92-1.73-2.05-5.34C173,29.57,171.94,29,171.89,29c-.1-.36.61-1.33,1.82-2.81a3.51,3.51,0,0,1-.78-4.14c0-.15.12-.33.12-.38a.14.14,0,0,1,.12-.18c.11,0,.13,0,.16.13a1,1,0,0,1-.11.51,3.53,3.53,0,0,0,.71,4.06,17.18,17.18,0,0,0-1.84,2.66h.22a3.72,3.72,0,0,0,2.44-1.13c3.32,3.84,2.32,5.62,2.27,5.7s-.06.08-.13.08Z"/></g><path id="_Path_19" data-name="&lt;Path&gt;" class="cls-4" d="M176.68,30.65s-.32-.41.21-1.94c.45.56,1,.66,1.18.89s2.51.56,2.68,2.09Z"/><g id="_Group_12" data-name="&lt;Group&gt;"><path id="_Path_20" data-name="&lt;Path&gt;" d="M180.75,31.87a.2.2,0,0,1-.17-.15c-.09-1.07-1.39-1.53-2.1-1.79-.28-.1-.46-.15-.5-.25a1.9,1.9,0,0,1-.33-.16,2.87,2.87,0,0,1-.88-.71,3.2,3.2,0,0,0,0,1.76c.05.08,0,.13,0,.18a.15.15,0,0,1-.2,0s-.31-.51.2-2a11,11,0,0,1,1,.59,1.21,1.21,0,0,1,.38.23,1.48,1.48,0,0,0,.38.15c.78.28,2.23.77,2.34,2a.17.17,0,0,1-.14.18Z"/></g><path id="_Path_21" data-name="&lt;Path&gt;" class="cls-4" d="M179.37,16.45c0-.13-.45-1.15-2.2.1,1,.08,1.84.59,2.2-.1Z"/><g id="_Group_13" data-name="&lt;Group&gt;"><path id="_Compound_Path_7" data-name="&lt;Compound Path&gt;" d="M178.73,16.93h0a3.86,3.86,0,0,1-.75-.1,4.55,4.55,0,0,0-.81-.13l-.4,0,.3-.23a3,3,0,0,1,1.57-.67.84.84,0,0,1,.9.67.79.79,0,0,1-.81.48Zm-1.13-.46.42.08a2.46,2.46,0,0,0,.71.1h0a.53.53,0,0,0,.53-.28h0a1.49,1.49,0,0,0-1.66.1Z"/></g><path id="_Path_22" data-name="&lt;Path&gt;" class="cls-4" d="M196,21c.08,0,5.2,1.15,6.9.59-2.18,2.91-6.54.92-6.54.92,2.16.66,2.24.61,2.91,1.22.22.54-3.93.28-5.27-.48,3.78,1.2,3.88,1.12,4,1.58.16.64-6.23-.18-6.78-1A30.78,30.78,0,0,0,194.82,26c-1.15.49-3.29,1-7.2-1.78,5.15,4.72,9.82,4.41,10.52,5.26-1.77,2.65-8.73-1.56-11.94-3.73s7,5.21,7.94,5.06c-.47.71-3.84.1-4.06-.23Z"/><g id="_Group_14" data-name="&lt;Group&gt;"><path id="_Path_23" data-name="&lt;Path&gt;" d="M192.91,31.31h0c-1.06,0-2.72-.33-2.94-.66l.28-.16a7,7,0,0,0,3,.51,2.27,2.27,0,0,0,.57-.1c-1.71-.61-7.37-4.67-8.25-5.36h0a.58.58,0,0,1-.08-.1c.13-.23.13-.23.83.23,3,2,10,6.3,11.74,3.75-.19-.05-.78-.18-1.59-.41a19.53,19.53,0,0,1-8.91-4.65.16.16,0,0,1,0-.23.15.15,0,0,1,.2,0c3.79,2.68,5.84,2.3,7.08,1.76a1.87,1.87,0,0,1-1-.28,12.59,12.59,0,0,1-2.28-1.38,1,1,0,0,1-.38-.31.1.1,0,0,1,0-.17.09.09,0,0,1,.16,0l.36.23a13,13,0,0,0,3.77.86,5.39,5.39,0,0,0,2.44,0c-.08-.23-.08-.26-2-.84l-.21-.08a5,5,0,0,1-1.73-.51.17.17,0,0,1-.07-.21c0-.07.12-.1.19-.1l1.71.56a8.61,8.61,0,0,0,3.38.08,2.9,2.9,0,0,0-1.13-.56,10.84,10.84,0,0,1-1.69-.51.25.25,0,0,1-.09-.21.19.19,0,0,1,.19,0l.81.21c.35.13.64.18.87.25a4.63,4.63,0,0,0,4.44-1,24.1,24.1,0,0,1-6.59-.72l.12-.25c.21.07,5.17,1.12,6.8.58a.14.14,0,0,1,.18.08.15.15,0,0,1,0,.18,4.43,4.43,0,0,1-4,1.61,4.6,4.6,0,0,1,.39.33s0,.1,0,.15a.26.26,0,0,1-.09.18,4.07,4.07,0,0,1-2,.15c.71.26.76.36.85.69,0,.05-.12.26-.18.31a16,16,0,0,1-5.36-.51,10.77,10.77,0,0,0,1.3.71c.33.16.66.36,1,.54-1.07.72-2.72,1.12-5.45-.33a18.52,18.52,0,0,0,7.06,3.17,4.26,4.26,0,0,1,1.76.68c-1.28,2.05-5.06.64-8.49-1.25,2,1.33,4,2.63,4.34,2.53a.19.19,0,0,1,.14.08.19.19,0,0,1,0,.18c-.17.23-.61.38-1.35.38Z"/></g><path id="_Path_24" data-name="&lt;Path&gt;" class="cls-4" d="M197.34,25.92a16,16,0,0,1-2.63,0Z"/><g id="_Group_15" data-name="&lt;Group&gt;"><path id="_Path_25" data-name="&lt;Path&gt;" d="M195.59,26.13a6,6,0,0,1-.9,0c-.1,0-.15-.08-.15-.15s.13-.16.19-.13a14.84,14.84,0,0,0,2.59-.08c.09,0,.16.05.18.16a.15.15,0,0,1-.14.15,16.5,16.5,0,0,1-1.77.08Z"/></g><path id="_Path_26" data-name="&lt;Path&gt;" class="cls-4" d="M158.88,18.57s3.9,2.07,5.54,1.91a2.45,2.45,0,0,1-1.09.59,4.82,4.82,0,0,0,3.27.38c-.41.41-.94.9-.94.9A4.19,4.19,0,0,0,168.8,22a12.05,12.05,0,0,0-.78,1.08l1.14.07Z"/><g id="_Group_16" data-name="&lt;Group&gt;"><path id="_Path_27" data-name="&lt;Path&gt;" d="M169.16,23.34h0L168,23.27c-.11-.18,0-.49.33-.87a4.15,4.15,0,0,1-2.73.05c-.06-.15.23-.46.54-.77a5,5,0,0,1-2.75-.43c-.07,0-.17-.13-.14-.15s0-.16.05-.16a4,4,0,0,0,.69-.3,20.4,20.4,0,0,1-5.2-1.92.21.21,0,0,1,0-.23.13.13,0,0,1,.18,0c.05,0,3.92,2.07,5.48,1.89a.17.17,0,0,1,.14.08.23.23,0,0,1,0,.18,2.8,2.8,0,0,1-.78.49,4.8,4.8,0,0,0,2.83.23c.07,0,.11,0,.14.07a.09.09,0,0,1,0,.15c-.34.34-.73.69-.9.85a6,6,0,0,1,.76,0,4.62,4.62,0,0,0,2.15-.51.18.18,0,0,1,.2,0c0,.08,0,.16,0,.18a7.11,7.11,0,0,0-.8,1.1l1.05-.15a.12.12,0,0,1,.13.15.14.14,0,0,1-.15.15Z"/></g><path id="_Path_28" data-name="&lt;Path&gt;" class="cls-6" d="M107.58,83.23c.13,0,.46-.18.17-.18-.14,0-.45.18-.17.18Z"/></g></g></g></g></g></g></svg>