<svg id="Layer_1" data-name="Layer 1" xmlns="http://www.w3.org/2000/svg" viewBox="0 0 220 128"><defs><style>.cls-1{fill:#da121a;}.cls-2{fill:#fcdd09;}.cls-3{fill:#078930;}.cls-4{fill:#0f47af;}.cls-5{stroke:#fcdd09;stroke-width:1.02px;}</style></defs><title>Flag_rect_Ethiopia</title><path class="cls-1" d="M0,0H220V128H0Z"/><path class="cls-2" d="M0,0H220V85.33H0Z"/><path class="cls-3" d="M0,0H220V42.67H0Z"/><circle class="cls-4" cx="110" cy="64" r="42.67"/><g id="a"><path class="cls-2" d="M110,29.87l-1.5,4.6,6.17,19h-8.22l-.93,2.85h26.37l3.92-2.85H117.66Z"/><path class="cls-5" d="M119.2,51.34l10.86-15"/></g><g id="a-2" data-name="a"><path class="cls-2" d="M142.46,53.45h-4.84L121.48,65.18l-2.55-7.82h-3l8.15,25.08L128,85.29,122.4,68Z"/><path class="cls-5" d="M124.88,68.83l17.58,5.72"/></g><g id="a-3" data-name="a"><path class="cls-2" d="M130.06,91.61,128.57,87,112.42,75.28l6.65-4.83-.92-2.85L96.82,83.1l-1.5,4.6L110,77Z"/><path class="cls-5" d="M110,79.64V98.13"/></g><g id="a-4" data-name="a"><path class="cls-2" d="M89.94,91.61l3.91-2.84,6.17-19,6.65,4.83,2.42-1.76L87.76,57.36H82.92L97.6,68Z"/><path class="cls-5" d="M95.12,68.83,77.54,74.55"/></g><g id="a-5" data-name="a"><path class="cls-2" d="M77.54,53.45l3.91,2.85h20l-2.54,7.82,2.42,1.76,8.15-25.08-1.5-4.61-5.6,17.26Z"/><path class="cls-5" d="M100.8,51.34l-10.86-15"/></g></svg>