<svg id="Layer_1" data-name="Layer 1" xmlns="http://www.w3.org/2000/svg" xmlns:xlink="http://www.w3.org/1999/xlink" viewBox="0 0 220 128"><defs><style>.cls-1{fill:none;}.cls-2{clip-path:url(#clip-path);}.cls-3{fill:#fff;}.cls-4{fill:#dd7d21;}.cls-5{fill:#2c6752;}</style><clipPath id="clip-path"><rect id="_Clipping_Path_" data-name="&lt;Clipping Path&gt;" class="cls-1" width="219.43" height="128"/></clipPath></defs><title>Flag_rect_Cyprus</title><g id="CYPRUSS"><g id="_Group_" data-name="&lt;Group&gt;"><g id="_Clip_Group_" data-name="&lt;Clip Group&gt;"><g class="cls-2"><rect id="_Path_" data-name="&lt;Path&gt;" class="cls-3" width="219.43" height="128"/><g id="_Clip_Group_2" data-name="&lt;Clip Group&gt;"><g class="cls-2"><path id="_Path_2" data-name="&lt;Path&gt;" class="cls-4" d="M93.83,38.88a4.85,4.85,0,0,0,.31,2.21c.12.32.24,6.13-.62,7.69a5.77,5.77,0,0,1-3.27,2.63c-.69.17-2.84-1.35-4.82-2a5.81,5.81,0,0,0-2.76-.53,7.35,7.35,0,0,0-3.25,1.17c-.35-.07-.45-.21-.66,0a6.43,6.43,0,0,0-1.25,1.58c-.22.51-.74,2.53-1.38,2.73s-2.35,1.93-3.46,2a5.48,5.48,0,0,1-1.6-.1c-.75,0-.84-.84-1.58-1.25a2.54,2.54,0,0,1-.92-.75s-.22-.83-.55-.83-.61,1.47-.61,1.89a5.68,5.68,0,0,0,1.25,2.32c.42.32.42,2.21.22,2.73s.42,1.08.52,1.59-.65.94-.32,1a1.58,1.58,0,0,1,.74,1.38c0,.63,1.56.85,1.89,1.47a9.18,9.18,0,0,1,.55,2.33c.08.62.45.31.5,1.89.52.24,1.25.74,1.9,1s.53,1.06,1.37,1.37.83,0,1.26.13-.19.2.55.41,1-.11,1.65.2,1,1,1.38,1.28,2.23.74,2.32.83a6,6,0,0,0,1.47.53,3.11,3.11,0,0,0,.86-.42,2.89,2.89,0,0,0,1.36,0c.64-.2,1.07-.84,1.48-.84s.51.2,1,.2a4.46,4.46,0,0,0,1-.2,2.65,2.65,0,0,1,1.69.2c.74.44,2.42,2.43,2.42,3.27a5.23,5.23,0,0,1-.12,1.27,2.8,2.8,0,0,1,1.16.09c.34.21.29-.17,2.63.21-.14-.57-2.41-2.21-.3-4.52s2.25-1.36,2.73-1.8,2.44-1.65,5.68-.51c3.18-.51.86-1,2.63-1.06a3.12,3.12,0,0,1,1.59.22,1.22,1.22,0,0,1,1.38-.64,2.55,2.55,0,0,1,1.9-1c.11-.7,2.39-1.59,3.66-1.67.55-.49,1.14-2.59,4-1.58.09-.68.56-1.79,1.34-2,.18-1.42-.37-4.29,1.07-5.26,1.41-1.3,2.77-1,5.15-.94,1.66.33,2.41,1.55,3,1.68a1.43,1.43,0,0,0,1.34-.33c.65-.41-.09-1.27.44-1.27a3.33,3.33,0,0,0,1.16,0c.85-.08.73-.38,1.25-.51.85.43,1.8.11,2.23.43s.48.28,1.36.39a1.49,1.49,0,0,0,1.17.55s-.64-.22-.42-.55a1.73,1.73,0,0,0-.42-1.66,7.29,7.29,0,0,1-1-1c-.32-.41.1-.41-.42-.93s-1.69-1.06-2-1.69-.22-1-.76-1.57-2.64-2.32-2.73-4.21.09-3.73,1.38-4.32c0-1.12.19-1.27,1.35-1.91s1.28-.21,2-.21a2.49,2.49,0,0,0,1.9-.42c.73-.52.09-1.68,2-3.36s2.66-2.54,3.3-2.63,2.91-1.72,3.85-1.59a15.13,15.13,0,0,1,2.24-2.42c.86-.64,1.77-.64,2.2-1.16s.33-1.47,1.59-2.3,2.33-1.4,2.85-1.8,1.67-.11,2.11-.52.42-2,.85-2.34-1.38.74-2.35,1.16A7.55,7.55,0,0,1,155,25.51c-1.16-.11-.52.64-1.16.85s-1.68.1-2.11.52a17.07,17.07,0,0,1-1.77,1.9c-.65.41-1,.31-1.6.63s-1.16.62-1.68.84a7.6,7.6,0,0,1-2.11.12s-1.38,1.77-2,2.42-1.35.51-2,.83-6,3.78-9.67,4.32-2-.32-3.18,0-2.83,2.53-4.21,2.62a10.16,10.16,0,0,1-2.08,0c-.33,0-2,1.07-3.08.85a7.78,7.78,0,0,1-3.17.32c-.44,0-1.25.54-2.41,0-.89-.29-.89.35-2.63-.2s-2.94.2-3.79-.21-.73-.76-1.38-.76-.61.43-1.37.43-.85-.43-1.47-.43a12.11,12.11,0,0,1-2.32.33c-.94-.12-1.25-.54-1.89-.54a30.15,30.15,0,0,1-4.11-1.47Z"/><path id="_Path_3" data-name="&lt;Path&gt;" class="cls-5" d="M104.59,103.23a12.92,12.92,0,0,1,6-2.2c2.49-.43,5.12-1.17,6.5-1.53s-4.67,1.76-6.21,2.18-6.24,1.55-6.24,1.55Z"/><path id="_Path_4" data-name="&lt;Path&gt;" class="cls-5" d="M114.62,99.33c-.5-3.13.74-6.42,3.57-7.74.67,2.28-1.36,6.13-3.57,7.74Z"/><path id="_Path_5" data-name="&lt;Path&gt;" class="cls-5" d="M119.46,97.71c-1.52-2.62,1-6,2.93-7.61.89,1.57-.66,6.26-2.93,7.61Z"/><path id="_Path_6" data-name="&lt;Path&gt;" class="cls-5" d="M123.91,95.69c-1.61-2.23.31-6.14,2.35-7.68.79,2.21,0,6.16-2.35,7.68Z"/><path id="_Path_7" data-name="&lt;Path&gt;" class="cls-5" d="M128.38,92.88c-1.48-2.1-.44-5.37,1.69-7.5,1.52,1.76.21,5.56-1.69,7.5Z"/><path id="_Path_8" data-name="&lt;Path&gt;" class="cls-5" d="M132,90.08c-1.24-2,.28-6.76,2.27-8.08.86,1.77.22,6.75-2.27,8.08Z"/><path id="_Path_9" data-name="&lt;Path&gt;" class="cls-5" d="M134.82,89.32c-.36-2.85,4.62-6,6.65-5.91-.22,2.32-2.35,4.88-6.65,5.91Z"/><path id="_Path_10" data-name="&lt;Path&gt;" class="cls-5" d="M132,92.54c2.35-2.4,6.89-2.4,8.5-1.9-.43,1.4-5.79,4.45-8.5,1.9Z"/><path id="_Path_11" data-name="&lt;Path&gt;" class="cls-5" d="M128.82,95c3.29-.88,5.42-1.59,7.39.45-1.39,1.76-6.73,1.24-7.39-.45Z"/><path id="_Path_12" data-name="&lt;Path&gt;" class="cls-5" d="M124.12,97.09c3.15-1.69,7,.8,7.54,2.24-3.51,1.47-7.61-1.87-7.54-2.24Z"/><path id="_Path_13" data-name="&lt;Path&gt;" class="cls-5" d="M119.8,99.5a7.12,7.12,0,0,1,7.47,2c-1.53.74-5.54,1.54-7.47-2Z"/><path id="_Path_14" data-name="&lt;Path&gt;" class="cls-5" d="M115.87,100.74a8.06,8.06,0,0,1,7.14,3.55c-4.19.41-5.81-.86-7.14-3.55Z"/><path id="_Path_15" data-name="&lt;Path&gt;" class="cls-5" d="M114.81,103.23a12.72,12.72,0,0,0-5.93-2.2c-2.49-.43-5.12-1.17-6.52-1.53s4.7,1.76,6.24,2.18,6.21,1.55,6.21,1.55Z"/><path id="_Path_16" data-name="&lt;Path&gt;" class="cls-5" d="M104.79,99.33c.52-3.13-.72-6.42-3.58-7.74-.64,2.28,1.39,6.13,3.58,7.74Z"/><path id="_Path_17" data-name="&lt;Path&gt;" class="cls-5" d="M100,97.71c1.55-2.62-1-6-2.94-7.61-.88,1.57.67,6.26,2.94,7.61Z"/><path id="_Path_18" data-name="&lt;Path&gt;" class="cls-5" d="M95.49,95.69c1.63-2.23-.28-6.14-2.33-7.68-.8,2.21,0,6.16,2.33,7.68Z"/><path id="_Path_19" data-name="&lt;Path&gt;" class="cls-5" d="M91,92.88c1.47-2.1.45-5.37-1.67-7.5-1.52,1.76-.22,5.56,1.67,7.5Z"/><path id="_Path_20" data-name="&lt;Path&gt;" class="cls-5" d="M87.46,90.08c1.26-2-.28-6.76-2.28-8.08-.88,1.77-.21,6.75,2.28,8.08Z"/><path id="_Path_21" data-name="&lt;Path&gt;" class="cls-5" d="M84.58,89.32c.39-2.85-4.59-6-6.62-5.91.21,2.32,2.31,4.88,6.62,5.91Z"/><path id="_Path_22" data-name="&lt;Path&gt;" class="cls-5" d="M87.39,92.54c-2.35-2.4-6.88-2.4-8.49-1.9.45,1.4,5.79,4.45,8.49,1.9Z"/><path id="_Path_23" data-name="&lt;Path&gt;" class="cls-5" d="M90.61,95c-3.29-.88-5.43-1.59-7.39.45,1.36,1.76,6.73,1.24,7.39-.45Z"/><path id="_Path_24" data-name="&lt;Path&gt;" class="cls-5" d="M95.28,97.09c-3.14-1.69-6.94.8-7.52,2.24,3.51,1.47,7.59-1.87,7.52-2.24Z"/><path id="_Path_25" data-name="&lt;Path&gt;" class="cls-5" d="M99.59,99.5a7.09,7.09,0,0,0-7.45,2c1.55.74,5.56,1.54,7.45-2Z"/><path id="_Path_26" data-name="&lt;Path&gt;" class="cls-5" d="M103.57,100.74a8,8,0,0,0-7.15,3.55c4.22.41,5.82-.86,7.15-3.55Z"/></g></g></g></g></g></g></svg>