<svg id="Layer_1" data-name="Layer 1" xmlns="http://www.w3.org/2000/svg" xmlns:xlink="http://www.w3.org/1999/xlink" viewBox="0 0 220 128"><defs><style>.cls-1{fill:none;}.cls-2{clip-path:url(#clip-path);}.cls-3{fill:#fff;}.cls-4{fill:#3d9546;}.cls-5{fill:#1f189b;}</style><clipPath id="clip-path"><rect id="_Clipping_Path_" data-name="&lt;Clipping Path&gt;" class="cls-1" width="220" height="128"/></clipPath></defs><title>Flag_rect_Lesotho</title><g id="LESOTHO"><g id="_Group_" data-name="&lt;Group&gt;"><g id="_Clip_Group_" data-name="&lt;Clip Group&gt;"><g class="cls-2"><rect id="_Path_" data-name="&lt;Path&gt;" class="cls-3" width="220" height="128"/><rect id="_Path_2" data-name="&lt;Path&gt;" class="cls-4" y="89.6" width="220" height="38.4"/><rect id="_Path_3" data-name="&lt;Path&gt;" class="cls-5" width="220" height="38.4"/><g id="_Clip_Group_2" data-name="&lt;Clip Group&gt;"><g class="cls-2"><path d="M126.81,74.82l0,0h0l0-.05-1.59.74L112,58.06l-.13-5L113,53h1.07l-.07-.06h.15l-3-2.76V41.47a3,3,0,0,0-1.55-.77,2.41,2.41,0,0,0-1.54.92l.1,8.55-1.5,1.69-1.18,1.22h.09l-.09.11,2.13-.11V58L94.68,75.53l-2.07-.61-3.34,7.32a41.56,41.56,0,0,0,20,5.06h.5c13.17-.13,20.5-5.26,20.59-5.44ZM114,52.88l-1.27-1.2,1.38,1.2Zm-8.39.28.07-.08h.85Z"/><g id="_Group_2" data-name="&lt;Group&gt;"><path id="_Compound_Path_" data-name="&lt;Compound Path&gt;" d="M114.44,61.92h-9.62l-.12-.28c-.11-.28-3.32-7-2.8-12s3.3-7.61,7.56-7.66h0c4.69,0,7.18,2.35,7.89,7.46.72,4.95-2.65,11.9-2.77,12.18l-.14.28Zm-9-.92h8.44c.63-1.33,3.16-7.25,2.59-11.39-.66-4.62-2.78-6.69-6.83-6.69s-6.28,2.48-6.75,6.85c-.45,4.13,2,9.9,2.55,11.23Z"/></g><path id="_Path_4" data-name="&lt;Path&gt;" class="cls-3" d="M93.82,77.9c-.14.18-1.24,2.38-1.24,2.38l1.88-.41Z"/><polygon id="_Path_5" data-name="&lt;Path&gt;" class="cls-3" points="94.91 80.71 92.94 81.33 95.29 82.3 94.91 80.71"/><polygon id="_Path_6" data-name="&lt;Path&gt;" class="cls-3" points="95.79 77.95 96.78 80.86 99.17 80.15 98.53 78.77 95.79 77.95"/><polygon id="_Path_7" data-name="&lt;Path&gt;" class="cls-3" points="97.31 81.89 97.67 83.06 100.86 83.88 99.58 81.17 97.31 81.89"/><polygon id="_Path_8" data-name="&lt;Path&gt;" class="cls-3" points="100.86 79.44 101.97 82.14 104.39 81.2 103.61 80 100.86 79.44"/><polygon id="_Path_9" data-name="&lt;Path&gt;" class="cls-3" points="102.43 83.11 102.82 84.13 106.58 84.67 104.98 82.24 102.43 83.11"/><polygon id="_Path_10" data-name="&lt;Path&gt;" class="cls-3" points="106.03 80.2 107.39 82.63 110.88 81.33 110.48 80.41 106.03 80.2"/><polygon id="_Path_11" data-name="&lt;Path&gt;" class="cls-3" points="108.03 83.5 108.77 84.8 113.11 84.62 111.48 82.24 108.03 83.5"/><polygon id="_Path_12" data-name="&lt;Path&gt;" class="cls-3" points="112.59 80.33 113.8 82.32 116.55 80.99 115.81 79.92 112.59 80.33"/><polygon id="_Path_13" data-name="&lt;Path&gt;" class="cls-3" points="117.12 81.83 114.36 83.21 115.13 84.39 118.8 83.83 117.12 81.83"/><polygon id="_Path_14" data-name="&lt;Path&gt;" class="cls-3" points="118.02 79.72 119.46 81.48 121.76 79.67 120.98 78.82 118.02 79.72"/><polygon id="_Path_15" data-name="&lt;Path&gt;" class="cls-3" points="122.25 80.66 120.03 82.32 120.62 83.34 123.69 82.6 122.25 80.66"/><polygon id="_Path_16" data-name="&lt;Path&gt;" class="cls-3" points="125.29 77.16 125.83 77.95 124.32 80.2 122.73 78.21 125.29 77.16"/><polygon id="_Path_17" data-name="&lt;Path&gt;" class="cls-3" points="126.34 79.13 127.26 80.99 125.38 81.66 125.24 80.76 126.34 79.13"/></g></g></g></g></g></g></svg>