<svg id="Layer_1" data-name="Layer 1" xmlns="http://www.w3.org/2000/svg" viewBox="0 0 220 128"><defs><style>.cls-1{fill:#d0103a;}.cls-2{fill:#fedf00;}.cls-3{fill:#0018a8;}.cls-21,.cls-4{fill:#c7b37f;}.cls-10,.cls-11,.cls-12,.cls-13,.cls-14,.cls-15,.cls-16,.cls-17,.cls-18,.cls-19,.cls-20,.cls-22,.cls-23,.cls-29,.cls-31,.cls-33,.cls-5,.cls-6,.cls-7,.cls-8,.cls-9{fill:none;}.cls-10,.cls-11,.cls-12,.cls-13,.cls-14,.cls-15,.cls-16,.cls-17,.cls-18,.cls-19,.cls-20,.cls-24,.cls-33,.cls-5,.cls-6,.cls-7,.cls-8,.cls-9{stroke:#703d29;}.cls-5{stroke-linejoin:round;}.cls-10,.cls-5{stroke-width:0.23px;}.cls-10,.cls-18,.cls-22,.cls-29,.cls-6,.cls-9{stroke-linecap:round;}.cls-16,.cls-6{stroke-width:0.23px;}.cls-7{stroke-width:0.28px;}.cls-8,.cls-9{stroke-width:0.25px;}.cls-11{stroke-width:0.23px;}.cls-12{stroke-width:0.26px;}.cls-13{stroke-width:0.3px;}.cls-14{stroke-width:0.2px;}.cls-15{stroke-width:0.22px;}.cls-17{stroke-width:0.19px;}.cls-18,.cls-19,.cls-20,.cls-22,.cls-23,.cls-29,.cls-31{stroke-width:0.22px;}.cls-20{stroke-linecap:square;}.cls-21,.cls-22,.cls-23{stroke:#c7b37f;}.cls-21,.cls-28,.cls-30{stroke-width:0.11px;}.cls-24,.cls-25{fill:#703d29;}.cls-24{stroke-width:0.06px;}.cls-26,.cls-28{fill:#d52b1e;}.cls-27{fill:#fff;}.cls-28{stroke:#d52b1e;}.cls-29,.cls-30,.cls-31{stroke:#fedf00;}.cls-30{fill:#fcd900;}.cls-32{fill:#0065bd;}.cls-33{stroke-width:0.18px;}</style></defs><title>Flag_rect_Andorra</title><path class="cls-1" d="M-.26,0h220V128H-.26Z"/><path class="cls-2" d="M-.26,0h149.6V128H-.26Z"/><path class="cls-3" d="M-.26,0h70.4V128H-.26Z"/><path class="cls-4" d="M103,28.28c2.65,0,3.74,2.28,6.39,2.28a7.41,7.41,0,0,0,4-1.34,5,5,0,0,1,2.77-.86,2.54,2.54,0,0,1,2.49,1.35,4,4,0,0,1,.47,2.32,14.43,14.43,0,0,1-.94,2.85,3.28,3.28,0,0,0-.45,1.44c0,1.41,1.92,1.89,3.22,1.91a6,6,0,0,0,4.14-1.44c-.8,0-1.69-.65-1.69-1.45a1.87,1.87,0,0,1,1.49-1.77c.17,0,.44.1.59,0s.11-.35.3-.5a1.81,1.81,0,0,1,1.25-.55,1.26,1.26,0,0,1,.86.26c.15.1.21.24.39.24.4,0,.59-.25,1-.25a1.48,1.48,0,0,1,.8.19c.23.12.22.51.49.51a9.29,9.29,0,0,1,1.19-.28,1.93,1.93,0,0,1,1.66.85c.13.15.21.47.35.47a2.12,2.12,0,0,1,1.28.56,2.27,2.27,0,0,1,.37.45c.09.14.23.5.39.56a2,2,0,0,1,.58.21,2.07,2.07,0,0,1,1,1.67,3.08,3.08,0,0,1-.16.73c-.65,2.26-2.19,3-3.74,4.93a3.84,3.84,0,0,0-1.19,2.55,2.65,2.65,0,0,0,.46.94c-.09-.5.14-1.11.67-1.14a1.35,1.35,0,0,1,1.38,1.22,1.76,1.76,0,0,1-.12.63,3.32,3.32,0,0,1,1.37-.49,4.75,4.75,0,0,1,.65,0,5.54,5.54,0,0,1,3.2,1.33,7.23,7.23,0,0,1,2.53,5.76c-.29,1.82-.11,5.1-4.75,6.41a2.05,2.05,0,0,1,1.44,1.8,1.56,1.56,0,0,1-1.52,1.6,1.48,1.48,0,0,1-1.18-.47,5,5,0,0,0-.65,5.35A4.62,4.62,0,0,0,137,70.92a1.59,1.59,0,0,1,1.34-.9,1.36,1.36,0,0,1,1.37.74c.07.17,0,.3.09.47s.29.25.4.46,0,.6.16.94.31.25.4.46A2,2,0,0,1,141,74a1.88,1.88,0,0,1-2,1.77,7.08,7.08,0,0,0-.79-.09,8.4,8.4,0,0,1,1.49,1.55,6,6,0,0,1,1,3,3.82,3.82,0,0,1,0,.59,7.52,7.52,0,0,1-.93,3.85,6.94,6.94,0,0,1-2.43,2.93,12.07,12.07,0,0,1-5.5,2.17,25.28,25.28,0,0,1-3.77.5c-1.89.12-3,.12-4.85.25-2.47.17-4.18.52-5.94,2.27a2.66,2.66,0,0,1,1.4,2.22A2.2,2.2,0,0,1,117,97.13c-.23.08-.4,0-.62.13s-.25.43-.5.59a2.12,2.12,0,0,1-1.3.34,2.79,2.79,0,0,1-2.21-.87c-.76.63-1,1.2-1.87,1.68-.28.15-.42.37-.74.37-.51,0-.74-.32-1.15-.62a7.81,7.81,0,0,1-1.53-1.4,3.79,3.79,0,0,1-2.14.84,2.29,2.29,0,0,1-1.37-.37c-.25-.15-.28-.38-.53-.53s-.47-.1-.75-.22a2.51,2.51,0,0,1-1.71-2.35,2.22,2.22,0,0,1,1.53-2c-1.72-1.73-3.42-2-5.85-2.18-1.88-.12-3-.13-4.82-.25a32.22,32.22,0,0,1-3.79-.5,9.16,9.16,0,0,1-2.8-.71c-3.52-1.64-5.76-3.89-6.22-7.75a6.44,6.44,0,0,1,2.17-5.5c-.36-.09-.61,0-1-.09a2,2,0,0,1-1.52-1.89,1.56,1.56,0,0,1,.18-.88c.12-.22.35-.26.41-.5s0-.54.12-.84.28-.24.37-.43c.31-.64.7-1.15,1.4-1.15a1.45,1.45,0,0,1,1.31.83c.59-.27.75-.71,1.09-1.27A4.63,4.63,0,0,0,84,66.92,5.39,5.39,0,0,0,83.71,65a2.65,2.65,0,0,0-.63-1.25,1.47,1.47,0,0,1-1.18.47,1.79,1.79,0,0,1-1.74-1.83,1.65,1.65,0,0,1,1-1.59,10.66,10.66,0,0,0-1.59-.87,5.75,5.75,0,0,1-1.8-2,5.21,5.21,0,0,1-.69-1.65,6.66,6.66,0,0,1-.37-2.12,3.57,3.57,0,0,1,0-.56,7.17,7.17,0,0,1,1.59-4.07,5.63,5.63,0,0,1,4.12-2.27,5,5,0,0,1,.67,0,2.41,2.41,0,0,1,1,.28c.13.07.37.3.37.14s-.09-.27-.09-.45a1.3,1.3,0,0,1,1.23-1.37c.52,0,.73.46,1,.9a1.36,1.36,0,0,0,.25-.77c0-1.19-.64-1.79-1.37-2.71-1.6-2-3.61-2.94-3.61-5.5a1.84,1.84,0,0,1,1-1.68c.19-.12.45,0,.63-.12s.14-.31.24-.47a2.17,2.17,0,0,1,.53-.56c.36-.32.68-.22,1.09-.5.2-.14.25-.32.4-.51a1.85,1.85,0,0,1,1.57-.81,2.06,2.06,0,0,1,.89.14c.11,0,.32.21.35.18a1.53,1.53,0,0,1,.49-.4,1.36,1.36,0,0,1,.76-.2c.38,0,.63.21,1,.21.14,0,.17-.14.28-.21a1.48,1.48,0,0,1,1-.36,1.6,1.6,0,0,1,.95.34c.31.2.36.47.68.65s.33.06.53.13a2,2,0,0,1,1.56,1.82,1.47,1.47,0,0,1-.5,1.2c-.3.26-.59.21-1,.34a5.56,5.56,0,0,0,3.89,1.23c1.45,0,3.22-.59,3.22-2,0-.67-.37-1-.64-1.65a6.49,6.49,0,0,1-.73-2.94,3.36,3.36,0,0,1,.66-2.3,2.39,2.39,0,0,1,2.23-1Z"/><path class="cls-5" d="M93.37,36a1.24,1.24,0,0,0,.84.84,1.31,1.31,0,0,0,1.32-.48A1.52,1.52,0,0,0,95.71,35a1.65,1.65,0,0,0-.59-.76L93.37,36v0Z"/><path class="cls-6" d="M137.6,62.49a.8.8,0,0,0-1.54,0,1.3,1.3,0,0,0,1.74,1.43,1.35,1.35,0,0,0,.86-.66,1.68,1.68,0,0,0,.13-1.29,1.58,1.58,0,0,0-.29-.56,1.69,1.69,0,0,0-.44-.42,2,2,0,0,0-1.15-.21c-1.91,0-3.59,2.26-4.15,4.61a10.11,10.11,0,0,0-.09,4.14,7.73,7.73,0,0,0,2,3.87,8.73,8.73,0,0,0,2,1.42,9.43,9.43,0,0,0,1.43.59,2.74,2.74,0,0,0,1.36,0,1.56,1.56,0,0,0,1.09-2.38,1.42,1.42,0,0,0-2.5-.24,1.17,1.17,0,0,0-.14.53,1,1,0,0,0,.35.8c.49.31,1.28.22,1.24-.65"/><path class="cls-7" d="M131.67,75.49A3.9,3.9,0,0,1,134,74.24a4.56,4.56,0,0,1,2.82.66,6.38,6.38,0,0,1,3.42,3.88,5.81,5.81,0,0,1,.29,2A8.76,8.76,0,0,1,139.8,84c-.3.57-1.06,3.08-5.27,4.81-2.46,1-6.23,1.24-8.83,1.35-3.57.14-6.87.27-8.79,2.63"/><path class="cls-8" d="M132.57,79.54a1.27,1.27,0,0,1,.29-1.15,1.57,1.57,0,0,1,2-.31,2.79,2.79,0,0,1,.87.72c.11.15.29.39.39.55a4.66,4.66,0,0,1,.38.86,5.32,5.32,0,0,1-2.26,6.05,12.36,12.36,0,0,1-4.94,1.4c-.88.11-1.38.1-2.26.14-.71,0-1.32,0-1.9,0h-1.39a23.37,23.37,0,0,0-2.48,0c-1,.08-1.75.1-2.6.24-.55.1-1.2.18-1.87.34-.21,0-.41.08-.62.14l-.42.13a13.8,13.8,0,0,0-3.35,1.43,6.9,6.9,0,0,0-.86.6c-.14.14-.32.28-.46.42a4.34,4.34,0,0,0-1.49,2.29,3.32,3.32,0,0,0,0,.55c0,.62.5,1.46,1.85,1.73m1.9-58.48a1.51,1.51,0,0,1,.28,1.35,1.24,1.24,0,0,1-1.22,1,1.82,1.82,0,0,1-1.55-2.65c1.09-1.83,3.19-.8,5.14.11a4.26,4.26,0,0,1-.24-1.21c0-1.44,1.12-2.1,1.54-3.43.26-.8.36-1.49-.22-2.05a1.52,1.52,0,0,0-1.76-.23c-1.32.52-2.91,2-5.71,2.06s-4.41-1.54-5.73-2.06a1.52,1.52,0,0,0-1.76.23c-.58.56-.48,1.25-.22,2.05.42,1.33,1.49,2,1.54,3.43a4.26,4.26,0,0,1-.24,1.21c2-.91,4.13-2,5.14-.11a1.83,1.83,0,0,1-1.55,2.65,1.26,1.26,0,0,1-1.22-1,1.48,1.48,0,0,1,.28-1.35"/><path class="cls-9" d="M107.87,36.27a1.84,1.84,0,0,1,.84,1.71,1.66,1.66,0,0,1-1,1.56m.82-1.31a1.13,1.13,0,0,1-.78,1.09"/><path class="cls-4" d="M94.87,34l.24.17.26.27.17.34.08.29,0,.38,0,.26-.08.29-.17.2-.21.23-.29.15-.38.09-.32,0-.34-.16-.31-.22-.19-.27-.14-.35V35.6L94.87,34Z"/><path class="cls-10" d="M94.34,35.34a.59.59,0,0,0-1-.34,1.08,1.08,0,0,0,.7,1.62,1.26,1.26,0,0,0,1.31-.48,1.5,1.5,0,0,0,.19-1.38,1.57,1.57,0,0,0-.6-.74,1.92,1.92,0,0,0-2.94.65c-.64,1.55.75,2.71,2,3.58a8.29,8.29,0,0,0,4.84,1.28c3.14,0,5.54-1.54,7.1-2.39a.72.72,0,0,1,.92.07.68.68,0,0,1-.09.94"/><path class="cls-11" d="M85,78l-.7.25-.72.55-.3.43-.4.68-.17.51-.14.64-.06.48M89.05,78l0,.62-.1.43-.31.73-.48.64-.51.41-.38.18-.53.12"/><path class="cls-12" d="M109.65,94.45a2.11,2.11,0,0,1-1.82,1.46l-.22,0"/><path class="cls-13" d="M138.69,76.26a6.27,6.27,0,0,1,1.65,2.67,6,6,0,0,1,.29,2,9,9,0,0,1-.68,3.24c-.3.56-1.07,3.07-5.27,4.81-2.46,1-6.23,1.24-8.83,1.34-3.52.14-6.78.27-8.71,2.54"/><path class="cls-14" d="M132.94,78.55a1.7,1.7,0,0,1,2-.38,2.08,2.08,0,0,1,.82.71"/><path class="cls-13" d="M137.79,75.43a5,5,0,0,0,.5.17,2.4,2.4,0,0,0,1.35,0,1.65,1.65,0,0,0,1.09-2.38,1.87,1.87,0,0,0-.59-.73"/><path class="cls-10" d="M82.34,50a5.57,5.57,0,0,0-1.65,1.09,9.6,9.6,0,0,0-.9,2.34M95.64,35.65a1.15,1.15,0,0,1-1,1.09"/><path class="cls-15" d="M136.25,47.33a6.49,6.49,0,0,1,6.38,6.79c0,5.48-3.38,6.38-4.75,6.74"/><path class="cls-16" d="M136.68,47.33c2.8-.13,5.69,1.94,5.82,7.09a6.08,6.08,0,0,1-4.12,6.21"/><path class="cls-17" d="M135.11,66.71l0-.55.18-.87.26-.68.29-.56.38-.45m2.67-1.17,0,.54-.15.36-.24.35-.28.21-.41.15-.37,0-.28,0m-4.92-18.16.12-.58.26-.54.33-.54.58-.73L134,43l.74-.74.63-.64.4-.47.53-.64.47-.71.28-.58.16-.75,0-.93-.08-.27M132.94,81.3l.55-.12.42-.22.23-.23.17-.26.11-.43v-.3M80,75.56l.41,0,.53,0,.53-.18M83.22,62.8l-.07.48L83,63.5l-.16.2-.23.17-.24.11-.33.05-.22,0m3.4-5.37-.12.75-.14.32-.3.41-.4.31-.41.2-.8.2M88.35,47.2l-.16.45L88,48l-.26.36-.36.33-.43.2L86.6,49l-.22,0m.13-2.13v.34"/><path class="cls-18" d="M87.15,58.34a2.43,2.43,0,0,1-.72.45m51.74,15.4s.13,0,.17.07c.48.29,1.44-.07,1.16-.82"/><path class="cls-19" d="M136.48,63.68a1.48,1.48,0,0,0,1.51.44,1.37,1.37,0,0,0,.86-.67,1.66,1.66,0,0,0-.16-1.85,2.2,2.2,0,0,0-.46-.49l-.12-.08m2.21,11.69a2,2,0,0,0,0-.25,1.34,1.34,0,0,0-.44-1,1.93,1.93,0,0,0-.3-.27m.16.16a1.32,1.32,0,0,0-1.19-1.21m-1.43,1a5.32,5.32,0,0,1-.45-.38,5.4,5.4,0,0,1-1.48-3.66,4.88,4.88,0,0,1,1.23-3.44M117,92.74l.61-.57.43-.32.8-.5.76-.36.53-.14,1.06-.24,1.23-.18M112.3,97.08a6.07,6.07,0,0,1-2.62,2.12,6.07,6.07,0,0,1-2.62-2.12"/><path class="cls-18" d="M107.82,95.66a3.38,3.38,0,0,1-.76,1.42"/><path class="cls-19" d="M107.93,94.94l-.15.75m-.8,1.44-.33.33-.58.32-.67.21m-1.94-61.13a2.11,2.11,0,0,0,.16-.89c0-1.44-1.11-2.09-1.54-3.43-.26-.79-.36-1.48.22-2.05a1.52,1.52,0,0,1,1.76-.22c1.33.52,2.93,2,5.73,2.05-2.8,0-4.4-1.53-5.73-2.05a1.59,1.59,0,0,0-1.81.15c-.58.57-.43,1.33-.17,2.12.43,1.34,1.44,2,1.48,3.43a2.08,2.08,0,0,1-.18.89m6.4-4.64c2.75-.14,5.12-2,5.88-2.15a1.51,1.51,0,0,1,1.55.38,1.5,1.5,0,0,0-1.71-.18c-1.32.52-2.91,2-5.71,2.05m27.36,38.8A5.36,5.36,0,0,1,135,66.88a5,5,0,0,1,1.23-3.44M112.2,97a6.14,6.14,0,0,1-2.62,2.12A6,6,0,0,1,107,97"/><path class="cls-18" d="M105.16,37.58l.8-.44a.81.81,0,0,1,1,.07.71.71,0,0,1,0,1"/><path class="cls-19" d="M101.05,39.51a16.11,16.11,0,0,0,4.59-1.89m11.09,56.43a.92.92,0,0,1,.26.33,1.53,1.53,0,0,1,.11.29.73.73,0,0,1-.67.9,1.16,1.16,0,0,1-1.21-.69M101,39.41a15.82,15.82,0,0,0,4.59-1.89m33.55,36.75a1.09,1.09,0,0,1-1-.08c-.18-.08-.39-.21-.64-.35a7.2,7.2,0,0,1-2.89-3.11,6.53,6.53,0,0,1-.59-1.54,6.38,6.38,0,0,1-.17-1.15,8.71,8.71,0,0,1,.22-2.13,6.84,6.84,0,0,1,1.4-3.12,1.69,1.69,0,0,1,1.47-.89M87.48,48.39a2.43,2.43,0,0,1,.91,2,3.93,3.93,0,0,1-3.08,3.42,2.8,2.8,0,0,1-2.17-.26"/><path class="cls-19" d="M87.84,52a1.17,1.17,0,0,1,.55,1.12,2.19,2.19,0,0,1-.64,1.29,4.25,4.25,0,0,1-3,1.37,3.49,3.49,0,0,1-2.07-.6,3.11,3.11,0,0,1-1.32-1.85"/><path class="cls-19" d="M87.81,54.3a2,2,0,0,1,.58,1.56,3.08,3.08,0,0,1-1.26,2.45,4.54,4.54,0,0,1-.67.48M131,51.2v1.21m-.1-1.51v1.71m.1-5.41v2.24m-.1-2.74v3.06m-.65,28.18a6.54,6.54,0,0,1-1.44,2,6.81,6.81,0,0,1-2,1.4,8.46,8.46,0,0,1-2.26.75,11,11,0,0,1-2.36.29,15.87,15.87,0,0,1-2.18,0c-.9-.07-1.41-.19-2.32-.27a17.52,17.52,0,0,0-1.92-.13,11,11,0,0,0-2,.14,7.77,7.77,0,0,0-1.77.5,7.11,7.11,0,0,0-2.19,1.32,7.37,7.37,0,0,0-2.19-1.32,7.85,7.85,0,0,0-1.78-.5,10.1,10.1,0,0,0-2-.14,17.69,17.69,0,0,0-1.92.13c-.91.08-1.41.2-2.32.27a17.63,17.63,0,0,1-2.18,0A11,11,0,0,1,95.05,82a8.46,8.46,0,0,1-2.26-.75,6.81,6.81,0,0,1-2-1.4l-.21-.21M105.08,98l.61-.07m10.41-.81.62-.06.59-.24.42-.25.56-.67.12-.25.09-.58,0-.26m16.12-47c.27-.91-.06-1.87-.94-1.84M88.36,62a2.87,2.87,0,0,1-1.24,1.61m1.25-16.06a2.23,2.23,0,0,1-1.26,1.38,1.82,1.82,0,0,1-1.76-.29"/><path class="cls-18" d="M83.55,50.88c.53.28,1.06-.13,1-.81a1,1,0,0,0-.86-.76"/><path class="cls-19" d="M85.73,79.85c.12.1.14.24.29.27s.41.13.65-.18a1.16,1.16,0,0,0-.17-1.34,1.69,1.69,0,0,0-2-.32,2.56,2.56,0,0,0-.88.72,5.94,5.94,0,0,0-.39.55,3.82,3.82,0,0,0-.37.85,5.29,5.29,0,0,0,1.42,5.39"/><path class="cls-18" d="M116.69,94a1.86,1.86,0,0,1,.22.27,1.32,1.32,0,0,1,.1.3.73.73,0,0,1-.68.89,1.09,1.09,0,0,1-1.16-.69"/><path class="cls-19" d="M133.61,34.52a2.54,2.54,0,0,1,2.15,2.42,4.51,4.51,0,0,1-1.31,3.17c-.86,1.17-3.66,3.3-3.66,5.73,0,1.47.41,2.42,1.47,2.89a1.84,1.84,0,0,0,1.85-.35,1.37,1.37,0,0,0-.4-2.38c-1.12-.21-1.34,1.57-.24,1.45m6.13,23.74a1.26,1.26,0,0,0-2.5.22,1.3,1.3,0,0,0,.35.9"/><path class="cls-19" d="M131.7,48.39a2.43,2.43,0,0,0-.91,2,3.93,3.93,0,0,0,3.08,3.42,2.83,2.83,0,0,0,2.14-.09M82.38,50.14a3.23,3.23,0,0,0-1.67,1.18,6,6,0,0,0-.79,2.09A6.9,6.9,0,0,0,80,55.7a5.42,5.42,0,0,0,.79,1.94,2.19,2.19,0,0,0,.36.42,2.14,2.14,0,0,0,.39.3m22,31.64c1.67.74,2.89,1.3,3.92,2.93a3.37,3.37,0,0,1,.42,1.68,3.48,3.48,0,0,1-1.15,2.61,2.85,2.85,0,0,1-2.29.71A1.78,1.78,0,0,1,103,97m-16-38.68A3,3,0,0,1,88.39,61,2.85,2.85,0,0,1,87,63.51"/><path class="cls-18" d="M86.2,62.59c1.4,1.74,2.15,2.78,2.19,4.86a6.52,6.52,0,0,1-1.75,4.68"/><path class="cls-19" d="M113.09,39.52a1.37,1.37,0,0,0,.55-.76,1.43,1.43,0,0,0-.1-1.34,1.51,1.51,0,0,1,.27,1.35,1.32,1.32,0,0,1-.55.76M131,69.15V74.7h0s0,.53,0,.86-.06.41-.1.59"/><path class="cls-19" d="M130.85,68.62v6h0a7.24,7.24,0,0,1-.05.85c0,.35-.1.64-.16.91m.19-14.76v5M131,62v4.06m0-9.23v3.05m-.1-3.4v3.75m.1-6.51V54.9m-.1-1.42v1.71m-.63,22.41-.12.24a6.39,6.39,0,0,1-1.43,2,6.55,6.55,0,0,1-2,1.4,8.53,8.53,0,0,1-2.25.76,12.58,12.58,0,0,1-2.36.29,17.58,17.58,0,0,1-2.18-.06c-.91-.06-1.42-.19-2.32-.27-.75-.06-1.17-.12-1.93-.12a9.29,9.29,0,0,0-2,.14,7.35,7.35,0,0,0-1.78.49,7.45,7.45,0,0,0-2.19,1.32,7.45,7.45,0,0,0-2.19-1.32,7.35,7.35,0,0,0-1.78-.49,9.29,9.29,0,0,0-2-.14,17.7,17.7,0,0,0-1.93.12c-.91.08-1.41.21-2.32.27a17.64,17.64,0,0,1-2.18.06A12.58,12.58,0,0,1,95,82a8.53,8.53,0,0,1-2.25-.76,6.55,6.55,0,0,1-2-1.4,7.67,7.67,0,0,1-.84-1m-.7-1.09a3.46,3.46,0,0,1-.77,2.64,2.59,2.59,0,0,1-1.71.91A1.73,1.73,0,0,1,84.9,80.2"/><path class="cls-19" d="M87.61,77.17a3.77,3.77,0,0,1,.64.88,2.68,2.68,0,0,1,0,2.12,1,1,0,0,1-.1.16m-7,6.19A10.48,10.48,0,0,0,84.89,89c2.45,1,6.22,1.25,8.82,1.35,3.46.14,6.65.28,8.59,2.42m6-1.4a5.06,5.06,0,0,1,1.4,1.94m-2.53,3.93a1.75,1.75,0,0,1-.24.23,2.84,2.84,0,0,1-2.29.7,2.12,2.12,0,0,1-1.47-.88m-1.84-1,.1.12a2.62,2.62,0,0,0,1.76.85m9.23,0a6,6,0,0,1-2.61,2.12,6,6,0,0,1-2.62-2.12l-.11-.16m5.36.16.25.24a2.86,2.86,0,0,0,2.3.7,1.89,1.89,0,0,0,1.4-.89.93.93,0,0,0,.15-.25"/><path class="cls-19" d="M116.29,97l-.26.41-.39.32-.59.24-.53,0"/><path class="cls-19" d="M117.67,93.13a2.67,2.67,0,0,1,.79,1,2.27,2.27,0,0,1,.17.82,2,2,0,0,1-.49,1.42,2.58,2.58,0,0,1-1.85.85.43.43,0,0,1-.16,0m.06-.09a2.35,2.35,0,0,1-1.78-.75M136.3,73a8.11,8.11,0,0,1-1.65-2.21,6.71,6.71,0,0,1-.59-1.54,5.6,5.6,0,0,1-.17-1.15A9.27,9.27,0,0,1,134.1,66a7.22,7.22,0,0,1,1.4-3.11,4.14,4.14,0,0,1,.72-.77m-.47-26.06A2,2,0,0,1,137.42,38c0,1.34-.47,1.89-1.52,3.2-.91,1.13-3.63,3.11-3.56,5a1.89,1.89,0,0,0,.4,1m-1.09,1.19a2.25,2.25,0,0,0,.71.47,1.69,1.69,0,0,0,1.46-.1m-7.28-14.85a2,2,0,0,1,.75.89c.64,1.54-.75,2.7-2,3.58a7.41,7.41,0,0,1-2.85,1.12"/><path class="cls-19" d="M125.07,36.85a1.42,1.42,0,0,1-1.08-.51,1.25,1.25,0,0,1-.24-.34m-5.11,1.68a1.5,1.5,0,0,1-.45-.33,1.41,1.41,0,0,1-.28-1.51c.22-.65,1.27-2.48,1.32-3.74.08-1.94-.67-3.08-1.83-3.52"/><path class="cls-18" d="M119.13,31.67l0,.72-.2.75-.38,1-.29.65-.3.65-.15.46-.06.33,0,.32M130.82,80a1.09,1.09,0,0,0,.2.28,2.67,2.67,0,0,0,1.88,1,1.48,1.48,0,0,0,1.64-1.1c.16-1-.17-1.26-.68-1.54a1.19,1.19,0,0,0-.66-.09"/><path class="cls-19" d="M81.19,75.63a2.34,2.34,0,0,1-1.26,0,1.84,1.84,0,0,1-1.36-2.38m4.6-10.94a.59.59,0,0,1,.14.37,1.29,1.29,0,0,1-1.74,1.42,2,2,0,0,1-1-.78,1.66,1.66,0,0,1-.21-.79m7.58-8.14a1.74,1.74,0,0,1,.43.61m-.39-2.93a1.33,1.33,0,0,1,.4.45"/><path class="cls-18" d="M88.38,53.69a2.81,2.81,0,0,1-.53.81,4.22,4.22,0,0,1-3,1.38,3.49,3.49,0,0,1-2.07-.6,3.33,3.33,0,0,1-1.41-1.92"/><path class="cls-19" d="M87.55,48.45a2.62,2.62,0,0,1,.81,1.16"/><path class="cls-18" d="M88.37,51.18a4.05,4.05,0,0,1-3,2.7,3.12,3.12,0,0,1-2.29-.37"/><path class="cls-19" d="M82.25,51a1.72,1.72,0,0,0,1.85,1.6c1.62,0,2.6-2.32,1.17-4"/><path class="cls-18" d="M78.62,58.84a5,5,0,0,0,.79.8,5.82,5.82,0,0,0,2,1.14m1.82.17a2.22,2.22,0,0,0,2.1-2.51,2.09,2.09,0,0,0-1.61-1.74"/><path class="cls-19" d="M85.63,46a1,1,0,0,1,1,1"/><path class="cls-18" d="M85.48,37.38a3.9,3.9,0,0,0,1.73,2M136.77,50a1.58,1.58,0,0,1-1.4,2.44,1.79,1.79,0,0,1-1.53-.87"/><path class="cls-19" d="M131,39.45v5.43"/><path class="cls-18" d="M83.53,50.87c.5.36,1.14-.25.89-.89-.17-.44-.78-.9-1.64-.32a1.54,1.54,0,0,0,1.13,2.7c1.62,0,2.6-2.33,1.16-4s-3.9-1.22-5.54.09a7.32,7.32,0,0,0-2.43,4,7.46,7.46,0,0,0-.2,1.75,7.61,7.61,0,0,0,.17,1.43,7.14,7.14,0,0,0,1.05,2.59,4.76,4.76,0,0,0,.45.56c.28.28.37.43.65.67a5.19,5.19,0,0,0,3.59,1.31,2.23,2.23,0,0,0,2.36-2.53,1.57,1.57,0,0,0-2.32-1.33,1.12,1.12,0,0,0,.24,2c.58.17,1.09-.56.68-1m44.54-24.73c.93-.51,1.64-.41,2.17.32A3.36,3.36,0,0,1,131,36a3.05,3.05,0,0,1-1.19,2"/><path class="cls-18" d="M130.55,33.58a2,2,0,0,1,2.84.53,3.15,3.15,0,0,1,.55,2.1,3.88,3.88,0,0,1-2,3.17"/><path class="cls-19" d="M135.54,36a1.76,1.76,0,0,1,1.58,1.78c0,1.31-.37,1.88-1.42,3.19-.91,1.13-3.63,3.12-3.56,5a1.54,1.54,0,0,0,1.15,1.43"/><path class="cls-18" d="M135.65,50.87c-.5.36-1.13-.22-.86-.84a1,1,0,0,1,1.61-.37,1.54,1.54,0,0,1-1.13,2.7c-1.62,0-2.71-2.27-1.16-4s4-1.26,5.67,0a6.94,6.94,0,0,1,2.4,4.08c.37,2.43.32,5.41-2.18,7.25a6,6,0,0,1-3.64,1A2.26,2.26,0,0,1,134,58.24a1.6,1.6,0,0,1,2.33-1.33,1,1,0,0,1-.24,2c-.6.07-1.09-.56-.68-1"/><path class="cls-19" d="M134.79,50c.27-1.2,1.3-1.31,2.13-1.3,2.26,0,3.83,2.72,3.85,5.32,0,3.29-1.39,5.22-3.79,5.32-.62,0-1.69-.27-1.71-1"/><path class="cls-20" d="M136.19,49.5c2.38.53,3.22,2.68,3.22,4.73,0,1.68-.16,4-3.42,4.77"/><path class="cls-19" d="M140.13,72.53A1.36,1.36,0,0,0,139.05,71,1.34,1.34,0,0,0,138,73.33"/><path class="cls-18" d="M135.33,70.49a5.66,5.66,0,0,0,2.15,2m-.43,3.63c-1.13-.74-3.27-1.71-5.2-.75a2.67,2.67,0,0,0-1.47,1.5,3.42,3.42,0,0,0,.61,3.29,2.59,2.59,0,0,0,1.71.91,1.52,1.52,0,0,0,1.65-1.1,1.17,1.17,0,0,0-.69-1.42c-.22-.08-.95-.06-1.1.46a.91.91,0,0,0,.08.69"/><path class="cls-18" d="M116.78,94.21c.36.74,0,1.11-.55,1.17a1.07,1.07,0,0,1-1.18-1,1.51,1.51,0,0,1,1.51-1.62,1.91,1.91,0,0,1,1.71,1.2,2.72,2.72,0,0,1,.17.81,2,2,0,0,1-.49,1.43,2.6,2.6,0,0,1-1.85.85,2.64,2.64,0,0,1-2.59-2.69c0-2.65,3.93-4.09,5.49-4.47a29.77,29.77,0,0,1,6.16-.79c1.23-.07,2.13,0,3.49-.18a20.24,20.24,0,0,0,3.1-.47,9.48,9.48,0,0,0,4.31-2.19,6.41,6.41,0,0,0,2-2.81,5.84,5.84,0,0,0-.43-4.79,4.9,4.9,0,0,0-3.55-2.32A2.86,2.86,0,0,0,131,78a2.64,2.64,0,0,0,0,2.12,2.07,2.07,0,0,0,1.64,1,1.52,1.52,0,0,0,1.65-1.1,1.17,1.17,0,0,0-.69-1.42c-.22-.08-.95-.06-1.1.46a.91.91,0,0,0,.08.69"/><path class="cls-18" d="M115.66,90a7.55,7.55,0,0,0-3.93,2.93,3.58,3.58,0,0,0,.74,4.29,2.84,2.84,0,0,0,2.29.71,1.78,1.78,0,0,0,1.39-.89"/><path class="cls-19" d="M132.12,58.36A2.76,2.76,0,0,0,130.79,61a2.85,2.85,0,0,0,1.37,2.56"/><path class="cls-18" d="M133,62.59c-1.4,1.74-2.15,2.78-2.19,4.86a6.56,6.56,0,0,0,1.74,4.68"/><path class="cls-19" d="M125.5,33.59l.12-.18A1.62,1.62,0,0,1,128,32.9a2.92,2.92,0,0,1,.89,3.07,3,3,0,0,1-1.39,1.88"/><path class="cls-18" d="M90.87,33.17a1.66,1.66,0,0,0-2.17.32A3.3,3.3,0,0,0,89.36,38"/><path class="cls-19" d="M88.63,33.58a2,2,0,0,0-2.84.53,3.15,3.15,0,0,0-.55,2.1,3.88,3.88,0,0,0,2,3.17"/><path class="cls-19" d="M85.57,34.52a2.34,2.34,0,0,0-2.07,2.29,4.61,4.61,0,0,0,1.23,3.3c.86,1.17,3.66,3.3,3.66,5.73,0,1.47-.41,2.42-1.47,2.89a1.84,1.84,0,0,1-1.85-.35,1.37,1.37,0,0,1,.4-2.38c1.12-.21,1.34,1.57.23,1.45"/><path class="cls-19" d="M83.63,36a1.87,1.87,0,0,0-1.73,1.74c0,1.31.53,1.92,1.58,3.23.91,1.13,3.47,3.08,3.4,5,0,.71-.51,1.59-1,1.49"/><path class="cls-18" d="M81.58,62.49a.8.8,0,0,1,1.54,0,1.3,1.3,0,0,1-1.74,1.43,1.35,1.35,0,0,1-.86-.66A1.68,1.68,0,0,1,80.38,62a1.8,1.8,0,0,1,.3-.56,1.43,1.43,0,0,1,.44-.42,2,2,0,0,1,1.15-.21c1.91,0,3.59,2.26,4.15,4.61a10.11,10.11,0,0,1,.09,4.14,7.66,7.66,0,0,1-2,3.87,8.51,8.51,0,0,1-2,1.42,9.71,9.71,0,0,1-1.42.59,2.43,2.43,0,0,1-1.36,0,1.65,1.65,0,0,1-1.09-2.38,1.41,1.41,0,0,1,2.5-.24,1.17,1.17,0,0,1,.14.53,1,1,0,0,1-.35.8c-.49.31-1.28.22-1.25-.65"/><path class="cls-19" d="M80.09,74.27a1.09,1.09,0,0,0,1-.08c.18-.08.39-.21.64-.35a7.2,7.2,0,0,0,2.89-3.11,6.1,6.1,0,0,0,.58-1.54A5.62,5.62,0,0,0,85.39,68a8.71,8.71,0,0,0-.22-2.13,7,7,0,0,0-1.4-3.12,1.69,1.69,0,0,0-1.47-.89M79.05,72.53A1.36,1.36,0,0,1,80.13,71a1.34,1.34,0,0,1,1.08,2.37"/><path class="cls-19" d="M79.58,71.19a1.26,1.26,0,0,1,1.24-1.07,1.28,1.28,0,0,1,1.26,1.29,1.33,1.33,0,0,1-.36.9"/><path class="cls-19" d="M82,71.12a5.35,5.35,0,0,0,2.13-4.24,4.91,4.91,0,0,0-1.23-3.44"/><path class="cls-18" d="M83.85,70.49a5.66,5.66,0,0,1-2.15,2"/><path class="cls-19" d="M87.26,75.4a2.12,2.12,0,0,0-2-1.21,4.72,4.72,0,0,0-2.83.66A6.4,6.4,0,0,0,79,78.73a6.14,6.14,0,0,0-.28,2A8.56,8.56,0,0,0,79.43,84c.29.57,1.06,3.08,5.26,4.81,2.46,1,6.23,1.24,8.83,1.35,3.58.14,6.88.27,8.79,2.63"/><path class="cls-18" d="M82.13,76.15c1.13-.74,3.27-1.71,5.2-.75a2.67,2.67,0,0,1,1.47,1.5,3.4,3.4,0,0,1-.62,3.29,2.57,2.57,0,0,1-1.71.91A1.49,1.49,0,0,1,84.83,80a1.16,1.16,0,0,1,.69-1.42c.22-.08.94-.06,1.1.46a.91.91,0,0,1-.08.69"/><path class="cls-19" d="M86.61,79.54a1.17,1.17,0,0,0-.29-1.15,1.79,1.79,0,0,0-2-.31,2.69,2.69,0,0,0-.87.72c-.11.15-.3.39-.39.55a4,4,0,0,0-.38.86,5.39,5.39,0,0,0,2.26,6.05,10.27,10.27,0,0,0,4.94,1.4c.88.08,1.38.1,2.26.14.71,0,1.32,0,1.9,0H95.4a23.34,23.34,0,0,1,2.48,0c1,.08,1.76.1,2.6.24.56.1,1.2.18,1.88.34.21,0,.41.08.62.14l.41.13a13.71,13.71,0,0,1,3.36,1.43,5,5,0,0,1,.85.6c.18.17.33.28.47.42a4.34,4.34,0,0,1,1.49,2.29,3.32,3.32,0,0,1,0,.55c0,.62-.5,1.46-1.86,1.73"/><path class="cls-19" d="M102.4,94.21c-.36.74,0,1.11.55,1.17a1.08,1.08,0,0,0,1.18-1,1.51,1.51,0,0,0-1.51-1.62,1.9,1.9,0,0,0-1.71,1.2,2.21,2.21,0,0,0-.17.81,2,2,0,0,0,.49,1.43,2.58,2.58,0,0,0,1.85.85,2.64,2.64,0,0,0,2.58-2.69c0-2.65-3.93-4.09-5.49-4.47A29.65,29.65,0,0,0,94,89.07c-1.23-.07-2.14,0-3.49-.18a20.06,20.06,0,0,1-3.1-.47,9.43,9.43,0,0,1-4.31-2.19,6.51,6.51,0,0,1-2-2.81,5.88,5.88,0,0,1,.43-4.79,4.93,4.93,0,0,1,3.56-2.32A2.87,2.87,0,0,1,88.15,78a2.72,2.72,0,0,1,0,2.12,2.07,2.07,0,0,1-1.65,1A1.49,1.49,0,0,1,84.83,80a1.16,1.16,0,0,1,.69-1.42c.22-.08.94-.06,1.1.46a.91.91,0,0,1-.08.69"/><path class="cls-18" d="M93.67,33.59l-.12-.18a1.62,1.62,0,0,0-2.36-.51A3,3,0,0,0,90.3,36a3,3,0,0,0,1.4,1.88"/><path class="cls-19" d="M125.81,36.18a6.05,6.05,0,0,1-4.84,2,5,5,0,0,1-2.6-.71,1.52,1.52,0,0,1-.65-1.87c.22-.65,1.26-2.48,1.32-3.75.07-1.93-.67-3-1.83-3.4-2.15-.76-4.46,1.37-5.85,1.83a4.7,4.7,0,0,1-1.76.27,4.77,4.77,0,0,1-1.78-.27c-1.39-.46-3.7-2.59-5.85-1.83-1.16.41-1.91,1.47-1.83,3.4,0,1.27,1.1,3.1,1.32,3.75a1.53,1.53,0,0,1-.65,1.87,5,5,0,0,1-2.6.71,6,6,0,0,1-4.84-2"/><path class="cls-18" d="M102,89.4a8.92,8.92,0,0,1,1.8.7,7.59,7.59,0,0,1,3.89,3,3.42,3.42,0,0,1,.41,1.67,4.19,4.19,0,0,1-.1.85"/><path class="cls-19" d="M102.06,96.83a2.9,2.9,0,0,0,1.12.29,2.65,2.65,0,0,0,2.58-2.69A3.27,3.27,0,0,0,104.51,92"/><path class="cls-18" d="M102.38,94.21a.81.81,0,0,0,.64,1.26,1.07,1.07,0,0,0,1.2-1A1.53,1.53,0,0,0,103.5,93"/><path class="cls-19" d="M133.84,34.53A2.41,2.41,0,0,1,135.9,37a4.52,4.52,0,0,1-1.33,3c-.46.54-.95,1-1.54,1.61"/><path class="cls-18" d="M132.53,33.37a2.39,2.39,0,0,1,1,.84,3.13,3.13,0,0,1,.54,2.1,4,4,0,0,1-2,3.07m-1.64-6,.22.22a3,3,0,0,1,.53,2.48A2.81,2.81,0,0,1,129.82,38m-1.74-5a2.85,2.85,0,0,1,.88,3.08,2.92,2.92,0,0,1-1.45,1.81M131.34,52a1.67,1.67,0,0,0,.51.67A4.72,4.72,0,0,0,134,53.88a2.69,2.69,0,0,0,2.17-.3m-56,18.57a1.33,1.33,0,0,1,1.12.76,1,1,0,0,1,.14.53.91.91,0,0,1-.35.76.82.82,0,0,1-1.33-.69"/><path class="cls-19" d="M82.75,60.83c1.7.31,3.33,2.36,3.86,4.59a10.09,10.09,0,0,1,.09,4.14,7.74,7.74,0,0,1-2,3.87,6.58,6.58,0,0,1-.73.62l-.37.25m-2.72-4.17a1.39,1.39,0,0,1,1.3,1.38,1.28,1.28,0,0,1-.35.9"/><path class="cls-19" d="M80.4,70.94a1.5,1.5,0,0,1,1.41,1.44,1.35,1.35,0,0,1-.51,1.05"/><path class="cls-18" d="M87.05,63.64a6.69,6.69,0,0,1,1.31,2.66m0,2.92a5.75,5.75,0,0,1-.49,1.39,6.11,6.11,0,0,1-1.23,1.59"/><path class="cls-19" d="M87.15,58.43a3.23,3.23,0,0,1,1.21,1.65"/><path class="cls-18" d="M88.38,56.76a3.43,3.43,0,0,1-1.16,1.58m-3.15-5.9.75-.2.43-.33.29-.4.24-.62.1-.51"/><path class="cls-19" d="M82.57,49.83a4.44,4.44,0,0,0-.84.29,3.12,3.12,0,0,0-1.21,1,5.63,5.63,0,0,0-.79,2.09,6.81,6.81,0,0,0,0,2.29,5.48,5.48,0,0,0,.8,1.93,3.06,3.06,0,0,0,.35.46,1.54,1.54,0,0,0,1.54.58"/><path class="cls-18" d="M86.73,46.57c-.12.44-.36,1-1.06.93"/><path class="cls-19" d="M84.19,49.56a2.86,2.86,0,0,0-3.47.07,4.81,4.81,0,0,0-.54.41,3.2,3.2,0,0,0-.5.54,6.3,6.3,0,0,0-.48.84,4.48,4.48,0,0,0-.32.91,6.5,6.5,0,0,0-.22,2.15c0,.34.07.64.12.92a6.69,6.69,0,0,0,.76,2.13,3.5,3.5,0,0,0,2.66,1.84c.62.07,1.67-.22,1.71-1"/><path class="cls-18" d="M124.79,35.31a.61.61,0,0,1,1-.34,1.1,1.1,0,0,1-.67,1.66,1.32,1.32,0,0,1-1.32-.48,1.55,1.55,0,0,1-.18-1.39,1.54,1.54,0,0,1,.59-.73,1.91,1.91,0,0,1,3,.65c.64,1.54-.76,2.7-2,3.57a8.29,8.29,0,0,1-4.84,1.28c-3.15,0-5.54-1.54-7.1-2.39a.72.72,0,0,0-.92.07.69.69,0,0,0,.08.94"/><path class="cls-18" d="M125.42,34.78a.55.55,0,0,1,.52.28,1.1,1.1,0,0,1-.69,1.65m6.13,17.72c-1.2,1.31-.1,3.55.8,4,.31.24.44.12.69.26"/><path class="cls-19" d="M131.44,51.94a1.23,1.23,0,0,0-.55,1.11,1.81,1.81,0,0,0,.49,1.38,4.82,4.82,0,0,0,3.17,1.29,3.49,3.49,0,0,0,2.07-.6,3.11,3.11,0,0,0,1.32-1.85m-7.17,21.24a7.28,7.28,0,0,1-.05.86,6.34,6.34,0,0,1-.72,2.37,6.27,6.27,0,0,1-1.43,2,6.84,6.84,0,0,1-2,1.41,9,9,0,0,1-2.26.75,11.81,11.81,0,0,1-2.36.29,15.88,15.88,0,0,1-2.18-.06c-.91-.06-1.41-.19-2.32-.27-.75-.06-1.17-.12-1.92-.12a10,10,0,0,0-2,.14,7.85,7.85,0,0,0-1.78.5,7.26,7.26,0,0,0-2.19,1.31,7.13,7.13,0,0,0-2.19-1.31,7.85,7.85,0,0,0-1.78-.5,10,10,0,0,0-2-.14c-.75,0-1.18.06-1.93.12s-1.41.21-2.32.27a15.83,15.83,0,0,1-2.18.06,11.81,11.81,0,0,1-2.36-.29,8.89,8.89,0,0,1-2.25-.75,6.59,6.59,0,0,1-2-1.41,6.14,6.14,0,0,1-1.44-2,6.34,6.34,0,0,1-.72-2.37c0-.33,0-.85,0-.86v-35h42.36v35Z"/><path class="cls-21" d="M85,79.51a.86.86,0,0,1,1.72,0h0a.86.86,0,0,1-1.72,0Zm-5.28-6.07a.63.63,0,1,1,.61.77A.71.71,0,0,1,79.69,73.44Z"/><path class="cls-4" d="M82.69,58.18a.61.61,0,0,1,.59-.63.63.63,0,0,1,0,1.26A.61.61,0,0,1,82.69,58.18ZM93.22,35.62a.55.55,0,1,1,1.08-.12.61.61,0,0,1-.47.7A.6.6,0,0,1,93.22,35.62Z"/><path class="cls-22" d="M82,61.74a.8.8,0,0,0-.29.2.75.75,0,0,0-.18.28,1.57,1.57,0,0,0-.08.41m1.62,9.2.31-.37c.09-.13.15-.2.23-.33s.11-.19.18-.31l.23-.46m-.43,4.8a5.05,5.05,0,0,0-.53.24,2.77,2.77,0,0,0-.37.22,4,4,0,0,0-.43.28l-.42.34m5.14-13-.28-.29c-.12-.11-.18-.18-.31-.29l-.32-.24"/><path class="cls-23" d="M87.12,58.64a3.17,3.17,0,0,1-.42.19,2,2,0,0,1-.51.11"/><path class="cls-22" d="M81.36,53a4.28,4.28,0,0,0,.15.51,2.77,2.77,0,0,0,.31.59,3.25,3.25,0,0,0,.44.54,3,3,0,0,0,.48.38,5,5,0,0,0,.51.27m-.34-2c.17.09.25.15.43.23a2.92,2.92,0,0,0,.42.13,2.88,2.88,0,0,0,.59.07,3.08,3.08,0,0,0,.64,0m2.46-14c-.27-.16-.44-.23-.7-.41a3.55,3.55,0,0,1-.64-.52,3.31,3.31,0,0,1-.4-.44,4.34,4.34,0,0,1-.28-.46M88,36.26a4.19,4.19,0,0,0,.22.59,2.6,2.6,0,0,0,.49.7,5.57,5.57,0,0,0,.94.72m.5-2a3.11,3.11,0,0,0,.22.53,2,2,0,0,0,.28.42,2.86,2.86,0,0,0,.46.46,5.26,5.26,0,0,0,.65.38"/><path class="cls-24" d="M114.31,33.44c0-.58-.59-.64-.81-.64-.63,0-.81.39-1.6.82a4.36,4.36,0,0,1-4.61,0c-.8-.43-.93-.81-1.56-.81a.81.81,0,0,0-.78.84,2.29,2.29,0,0,0,0,.3s.07,0,.09.07a.79.79,0,0,1,.17-.58.76.76,0,0,1,.56-.29c.64,0,.87.41,1.66.83a4.37,4.37,0,0,0,4.62,0c.79-.42,1-.86,1.65-.86a.47.47,0,0,1,.45.36.86.86,0,0,1,0,.29s0,0,0,0a.9.9,0,0,0,.06-.38Z"/><path class="cls-25" d="M90.63,82.39c.18-.19.31-.12.34-.21s0-.07-.1-.1-.2,0-.29-.09l-.3-.13s-.13-.06-.16,0,.35.13.22.49a1.46,1.46,0,0,1-.28.41l-.91,1s-.06.07-.08.06,0-.06,0-.09l0-1.41a2,2,0,0,1,.06-.58c.06-.16.25,0,.29-.13s0-.07-.11-.11-.16,0-.38-.12l-.34-.15c-.06,0-.15-.09-.19,0s0,.07,0,.08a.31.31,0,0,1,.16.32l0,2.56c0,.18,0,.24.05.25s.07,0,.14-.09l1.81-2Z"/><path class="cls-25" d="M91.69,82.79c.12-.37.34-.15.38-.28s0-.06-.11-.1l-.46-.12-.39-.15s-.12,0-.14,0,.39.15.28.51l-.59,1.88c-.12.37-.34.19-.38.33a0,0,0,0,0,0,.06l.4.1.53.19c.08,0,.12,0,.13,0s-.41-.07-.26-.56l.59-1.86Zm1.27.37c.07-.23.18-.2.31-.16.36.1.47.45.36.84-.07.23-.16.45-.7.29-.1,0-.23-.07-.2-.17l.23-.8Zm-1,1.7c-.15.49-.4.28-.44.4s.06.09.1.1.36.09.55.15a2.66,2.66,0,0,1,.3.11c.08,0,.11,0,.13,0s-.36-.08-.24-.51l.2-.68c0-.13,0-.17.22-.11s.23.1.26.3l.11.71c0,.26.09.54.37.63s.4,0,.43-.1a.05.05,0,0,0,0-.07h-.12a.15.15,0,0,1-.11-.1c-.1-.57-.24-1.23-.23-1.26s.13,0,.26-.1a.66.66,0,0,0,.35-.43.77.77,0,0,0-.63-1l-.72-.19-.41-.14s-.09,0-.1,0,.39.11.26.55L92,84.86Zm2.89.84c-.11.48-.47.19-.51.35s0,.09.11.11l.5.11c.24,0,.36.1.5.13s.18.06.2,0-.46-.11-.34-.6l.43-1.8c0-.19.09-.2.23-.17l.31.07c.42.09.19.5.34.54s.09-.14.09-.19l.05-.38s0-.1,0-.11c-.34-.08-.58-.12-1.11-.25s-.76-.2-1.09-.28c0,0-.07,0-.08.08l-.19.52s-.06.13,0,.15.18-.51.58-.42l.31.08c.14,0,.17.06.13.25l-.45,1.85Zm4.37-1.11c.14-.22.28-.17.3-.26s0-.07-.11-.08l-.31,0-.31-.08s-.15,0-.16,0,.37.06.3.44a1.56,1.56,0,0,1-.21.45L98,86.2s0,.08-.07.07,0-.06,0-.09l-.23-1.39a1.82,1.82,0,0,1,0-.58c0-.17.24-.07.26-.18s0-.07-.12-.09-.17,0-.4,0L97,83.8s-.16-.06-.17,0,0,.07,0,.07a.33.33,0,0,1,.22.29l.47,2.52c0,.18.06.23.1.24s.06,0,.12-.12l1.44-2.24Zm.2,2.31c0,.1,0,.14.08.18a2.91,2.91,0,0,0,.6.25.83.83,0,0,0,1-.76.89.89,0,0,0-.49-1c-.44-.32-.64-.41-.59-.68a.4.4,0,0,1,.48-.36c.62.11.55.87.63.89s.1,0,.11-.13l0-.55c0-.09,0-.15,0-.16s-.15,0-.2,0-.24-.2-.53-.25a.81.81,0,0,0-.45,1.51c.54.39.76.48.7.82a.49.49,0,0,1-.59.44c-.4-.07-.57-.48-.62-.88,0-.06,0-.1-.07-.11s-.07.11-.07.17l0,.57Zm5.44-1.53c.12-.23.27-.2.28-.3s0-.06-.13-.06h-.31l-.31,0s-.15,0-.16.05.37,0,.34.41a1.14,1.14,0,0,1-.15.47l-.61,1.21s0,.08,0,.08,0-.06-.05-.09l-.37-1.36a1.93,1.93,0,0,1-.1-.57c0-.18.23-.1.24-.21s0-.06-.13-.07l-.4,0-.37,0c-.06,0-.17,0-.18.05s0,.06.06.06a.32.32,0,0,1,.24.27l.73,2.45c.06.18.09.22.13.22s.06,0,.11-.12l1.19-2.38Z"/><path class="cls-25" d="M105.47,87.36c0,.42-.35.34-.36.51s.08,0,.12,0l.32,0,.43,0s.14,0,.14,0-.47.08-.46-.71V85.77s0-.07,0-.07,0,0,.06.06l1.76,2.15a.12.12,0,0,0,.1,0s0,0,0-.12l0-2.3c0-.43.32-.33.32-.45s0-.06-.07-.06-.16,0-.39,0l-.42,0a.06.06,0,0,0-.06.06c0,.14.45.07.44.44V86.9q0,.15,0,.15s-.07,0-.11-.11l-1.47-1.82c-.07-.08,0-.11-.14-.11s-.29,0-.39,0l-.21,0s-.06,0-.06.07c0,.19.41-.07.41.72l0,1.56Zm3.58-1.85c0-.39.28-.24.28-.38s0-.06-.13-.06l-.47,0-.42,0s-.13,0-.13.05.4,0,.4.41v2c0,.39-.27.28-.27.42s0,0,0,0h.41c.29,0,.43,0,.56,0s.12,0,.12-.06-.41,0-.41-.45Zm1.55,1.91c0,.49-.42.29-.41.45s.06.09.13.09l.51,0h.52c.11,0,.18,0,.18-.09s-.47,0-.48-.49V85.51c0-.2,0-.22.18-.22h.32c.42,0,.31.43.46.43s0-.16,0-.21l0-.37s0-.1-.06-.1l-1.13,0h-1.13c-.06,0-.06.06-.06.1l-.06.54s0,.14,0,.14,0-.54.47-.54h.31c.15,0,.19,0,.19.21l0,1.91Zm2.15-.78c-.07,0-.12,0-.12,0a.4.4,0,0,1,0-.15l.23-.75s0,0,0,0,0,0,0,0l.36.72a.39.39,0,0,1,.06.15s-.05,0-.12,0l-.5,0Zm.63.17c.1,0,.12,0,.27.35a.73.73,0,0,1,.09.26c0,.25-.25.23-.24.35s0,0,.12,0,.24,0,.4,0,.35,0,.48,0,.13,0,.13-.07-.2,0-.34-.24L113.1,85c-.06-.12-.07-.13-.1-.12s-.06.08-.08.15l-.81,2.55c-.07.24-.26.23-.25.32s.06,0,.11,0l.32,0h.35c.08,0,.2,0,.19-.08s-.4,0-.43-.31a1.65,1.65,0,0,1,.06-.32c.06-.28.14-.3.2-.31l.72-.06Zm2.86-1.7c0-.28,0-.28.42-.34.71-.1.48.42.65.4s0-.15,0-.2l-.07-.4a.07.07,0,0,0-.08-.07c-.32,0-.57.09-.83.13l-1,.11a.08.08,0,0,0-.07.08c0,.16.42,0,.47.34l.25,1.91c.06.49-.24.31-.22.5,0,0,0,0,.08,0s.35-.06.46-.07l.44,0c.09,0,.17,0,.16-.09s-.41,0-.47-.41l-.08-.6c0-.24-.06-.28.11-.3l.27,0c.38,0,.34.39.46.38s0-.16,0-.21l-.12-.72c0-.11-.06-.1-.08-.09s0,.38-.35.42l-.23,0c-.16,0-.16,0-.19-.19l-.07-.57Zm1.35.94a1.24,1.24,0,0,0,1.47,1.13,1.4,1.4,0,0,0,1.09-1.81,1.25,1.25,0,0,0-1.5-1.13,1.4,1.4,0,0,0-1.06,1.81Zm.4-.32c-.11-.58,0-1.17.58-1.3s1,.29,1.17,1.18c.12.67,0,1.25-.6,1.38S118.1,86.32,118,85.73Zm2.87-1.43c-.06-.24,0-.26.18-.29.37-.09.64.16.73.55.06.23.09.46-.45.59-.11,0-.24.06-.27,0l-.19-.81Zm0,2c.12.5-.2.44-.17.57s.09,0,.13,0,.36-.11.55-.15a2.56,2.56,0,0,1,.31-.06c.08,0,.11,0,.1-.09s-.35.11-.45-.32l-.17-.69c0-.14-.06-.16.13-.21a.3.3,0,0,1,.38.14l.45.55c.17.21.34.43.63.36.14,0,.36-.18.33-.3a.06.06,0,0,0-.07,0,.93.93,0,0,0-.1,0s-.1,0-.15,0c-.38-.45-.82-1-.83-1s.09-.1.17-.21a.67.67,0,0,0,.09-.55.76.76,0,0,0-1-.54l-.72.19-.42.08c-.05,0-.08,0-.07.08s.39-.1.5.35l.42,1.76Zm3-.67c.13.48-.33.39-.29.55s.08.06.15,0,.26-.09.5-.15l.5-.11c.1,0,.18,0,.15-.13s-.45.12-.58-.37l-.46-1.79c-.05-.19,0-.22.12-.26l.31-.08c.41-.12.41.35.55.31s0-.17,0-.21l-.13-.36s0-.09-.08-.08c-.34.09-.57.17-1.09.3l-1.1.27c-.06,0,0,.07,0,.11l.07.54s0,.14.09.12-.08-.53.32-.63l.3-.08c.15,0,.19,0,.24.16l.47,1.84Zm1.89-2.52c-.1-.37.21-.3.17-.44s0,0-.14,0l-.46.14c-.12,0-.26.06-.4.1s-.13,0-.11.09.41-.09.51.27l.53,1.9c.1.38-.18.35-.14.49a0,0,0,0,0,0,0l.39-.12.55-.14c.08,0,.11-.05.1-.09s-.39.17-.52-.32l-.53-1.89Zm.79.92a1.25,1.25,0,0,0,1.62.92A1.4,1.4,0,0,0,129,83a1.27,1.27,0,0,0-1.65-.92,1.42,1.42,0,0,0-.8,1.94Zm.36-.37c-.19-.56-.2-1.16.39-1.37s1,.15,1.32,1c.21.65.19,1.24-.41,1.45S127.05,84.19,126.86,83.62Zm2.62-1.86c-.09-.23,0-.27.14-.32.35-.14.65.07.8.45.09.22.15.44-.37.65-.1,0-.23.09-.27,0l-.3-.77Zm.27,1.94c.19.48-.13.46-.09.58s.1,0,.14,0l.52-.23c.15-.06.25-.08.3-.1s.1-.06.09-.1-.33.15-.5-.25L130,83c0-.14-.08-.16.1-.23a.29.29,0,0,1,.39.08l.53.49c.19.18.4.38.67.27s.33-.23.29-.35a.07.07,0,0,0-.08,0s-.06,0-.09.06a.12.12,0,0,1-.15,0c-.44-.38-1-.82-1-.84s.08-.12.14-.24a.66.66,0,0,0,0-.56.76.76,0,0,0-1.1-.39l-.69.29c-.22.09-.25.08-.41.14a.08.08,0,0,0,0,.09c0,.14.37-.15.54.28l.66,1.68Z"/><path class="cls-26" d="M90.53,41.65h18.08V59.7H90.53Z"/><path id="a" class="cls-27" d="M99,55.86A4.8,4.8,0,0,1,98.82,57a2.79,2.79,0,0,1-.4.89,2.76,2.76,0,0,1-.84.86,2.09,2.09,0,0,1-1.3.38c-1.21-.11-1.77-1.42-2-2.48s-1.11-1.75-1.64-1.34a.73.73,0,0,0-.07,1,2,2,0,0,0,.9.61l-.64.82a2,2,0,0,1-1.66-1.62,1.75,1.75,0,0,1,1.08-1.88,1.85,1.85,0,0,1,2.27,1.15c.49,1,.7,2.73,2.07,2.46.75-.15,1.1-1.23,1.1-1.73l.54-.58.8.25,0,0Z"/><path id="a-2" data-name="a" class="cls-27" d="M100.13,55.86a4.3,4.3,0,0,0,.19,1.16,2.79,2.79,0,0,0,.4.89,2.86,2.86,0,0,0,.83.86,2.12,2.12,0,0,0,1.31.38c1.21-.11,1.77-1.42,2-2.48s1.12-1.75,1.65-1.34a.73.73,0,0,1,.06,1,1.93,1.93,0,0,1-.9.61l.65.82A2,2,0,0,0,108,56.17a1.75,1.75,0,0,0-1.08-1.88,1.85,1.85,0,0,0-2.27,1.15c-.49,1-.71,2.73-2.07,2.46-.75-.15-1.1-1.23-1.1-1.73l-.54-.58-.81.25,0,0Z"/><path class="cls-2" d="M101.19,48.19l2.37-2.56a1.05,1.05,0,0,0,.35-.75l-.49.07-.11-.25,0-.25.65-.14c0-.1,0-.18,0-.3s.05-.17.07-.28l-.72.05c0-.12,0-.19.07-.31a1.66,1.66,0,0,1,.11-.24l.42-.07.41,0A2.05,2.05,0,0,1,107.5,43a1.81,1.81,0,0,1-.42,2.89,1.39,1.39,0,0,1-1.51-.25l.43-.85a.66.66,0,0,0,1.06-.55,1,1,0,0,0-1-1,1.1,1.1,0,0,0-1.08.68,2.48,2.48,0,0,0-.12.77,6,6,0,0,1-.11.84,2,2,0,0,1-.52.79l-2.43,2.63L92.39,59.13l-.71-.66,9.51-10.28Z"/><path class="cls-27" d="M94.23,49.09a37.84,37.84,0,0,0,2.62,7.35,7,7,0,0,1,2.72-.61,6.38,6.38,0,0,1,2.72.61,38.14,38.14,0,0,0,2.61-7.35l-5.33-6.86Z"/><path class="cls-2" d="M100.09,44.55l3.7,4.76a35.24,35.24,0,0,1-2,5.8,9.43,9.43,0,0,0-1.7-.29V44.55Zm-1,0-3.71,4.76a35.24,35.24,0,0,0,2,5.8,9.43,9.43,0,0,1,1.7-.29V44.55Z"/><path class="cls-2" d="M110.53,41.65h18.08V59.7H110.53Z"/><path class="cls-26" d="M113.07,41.65h2.69V59.7h-2.69Zm5.16,0h2.7V59.7h-2.7Zm5.17,0h2.69V59.7H123.4Z"/><path class="cls-2" d="M90.59,75.35a4.81,4.81,0,0,0,.48,1.45A5.52,5.52,0,0,0,92,78.12a5.19,5.19,0,0,0,1.37,1,6,6,0,0,0,1.51.55,11,11,0,0,0,3.64.35,20.21,20.21,0,0,0,2.26-.23c.85-.11,1.48-.18,2.44-.22a12.15,12.15,0,0,1,1.35,0,11.51,11.51,0,0,1,1.61.22,17.49,17.49,0,0,1,2.41.7V61.64H90.52V74.51s0,.63.07.84Z"/><path class="cls-28" d="M92.69,78.65l.85.5,1.16.41V61.63h-2Zm10,.82V61.63h-2V79.76s1.38-.18,2-.22Zm4-17.84h-2v17.9a15.43,15.43,0,0,1,2,.37Zm-8,0V80a15.86,15.86,0,0,1-2,0V61.63Z"/><path class="cls-2" d="M128.55,75.34a4.51,4.51,0,0,1-.48,1.46,5.14,5.14,0,0,1-.94,1.32,5.43,5.43,0,0,1-1.37,1,6.13,6.13,0,0,1-1.5.55,11.35,11.35,0,0,1-3.65.35,22.49,22.49,0,0,1-2.26-.24c-.84-.11-1.48-.18-2.44-.22-.47,0-.91,0-1.35,0a11.71,11.71,0,0,0-1.61.22,17.52,17.52,0,0,0-2.43.71V61.63h18.09V74.51s0,.63-.07.83Z"/><g id="b"><path class="cls-26" d="M115.16,63.14l-.13.06c-.07.07-.1.12-.17.18a2.75,2.75,0,0,1-.28.19.38.38,0,0,0-.13.09c-.06.07,0,.14-.06.22a1,1,0,0,1-.14.21c-.08.09-.14.13-.23.22s-.13.16-.24.22l-.08,0h-.12c-.09,0-.12.13-.18.16a.69.69,0,0,1,0,.13c0,.07.16.27.18.32s.06.15.12.17a.76.76,0,0,0,.29,0,2.16,2.16,0,0,1,.44.1c.14.06.19.13.33.19a1.31,1.31,0,0,0,.28.09.53.53,0,0,0,.22,0,.89.89,0,0,0,.14,0h0v.08h0l.45.2,0,.08a.42.42,0,0,0,0,.19,1.84,1.84,0,0,0,.32.7c.14,0,.18.19.26.33l-.08.07a2,2,0,0,0-.36.4c-.17.26-.28.26-.07.61s.18.24.34.53a1.84,1.84,0,0,1,.17.43,2.13,2.13,0,0,1,.07.44l.21.08.14-.15.14-.26v-.2a.18.18,0,0,1-.06-.17c0-.08.12-.06.16-.14s-.07-.16-.14-.24-.32-.18-.36-.4c0-.06,0-.1.08-.16s.25-.22.43-.4a.4.4,0,0,0,.22,0c.06,0,.11,0,.31.08a.5.5,0,0,0,.27,0l.08,0s0,.09,0,.15a3,3,0,0,0,0,.77.45.45,0,0,1,.06.12.38.38,0,0,1,0,.15c0,.15,0,.25,0,.41a2.47,2.47,0,0,1,0,.38.42.42,0,0,1-.09.24c-.07.08-.14.09-.22.15l0,.22.25.1.28.07.15-.06a.23.23,0,0,1,0-.14.2.2,0,0,1,.1-.12c.08,0,.17,0,.2,0s0-.07,0-.16a2.41,2.41,0,0,0-.07-.37,3.06,3.06,0,0,1,0-.6c0-.14,0-.21,0-.34s.11-.29.16-.49,0-.35.08-.54a5.3,5.3,0,0,0,2-.08l.17-.06a1.81,1.81,0,0,0,.6.36,1.47,1.47,0,0,0,0,.21c0,.07,0,.11,0,.16a.13.13,0,0,0,.09.06.12.12,0,0,0,.14,0s0-.1.06-.17v-.15a.58.58,0,0,0,.19,0h.19s0,.08,0,.1,0,.1,0,.15a.16.16,0,0,0,.23.07c.07,0,.06-.11.07-.19v-.17l.23-.08a.88.88,0,0,1,0,.17,1.29,1.29,0,0,1-.06.21,1.43,1.43,0,0,1-.16.3c-.09.14-.13.22-.23.35a1.49,1.49,0,0,0-.12.14c-.06.08-.08.13-.13.2a1.17,1.17,0,0,1-.21.23c-.15.13-.25,0-.46.19l0,.23.32.11.28.06.09-.06a.24.24,0,0,1,0-.16.24.24,0,0,1,.17-.09c.08,0,.17,0,.23,0s.08-.2.14-.32a2.78,2.78,0,0,1,.66-.86c.13-.13.25-.17.36-.32s.12-.1.12-.19,0-.09-.05-.15,0-.22,0-.22c.34.16.21.14.28.31s0,.23,0,.37.1.25.12.41a1.79,1.79,0,0,1-.07.51,1.67,1.67,0,0,1-.11.44.78.78,0,0,1-.25.34l-.13.09,0,.23.25.08.36.1.08-.08c0-.14,0-.35.09-.37s.15,0,.17-.07a.9.9,0,0,0,0-.13,9.61,9.61,0,0,1,.14-1c.05-.22.05-.26.09-.42a1.42,1.42,0,0,1,.09-.37c.16-.46,0-.53-.24-.81a.73.73,0,0,1-.15-.33c0-.18,0-.33,0-.6s0-.42,0-.64l.08,0a.9.9,0,0,0,.52-.54.71.71,0,0,0,.07-.32c0-.08,0-.15,0-.23a1,1,0,0,0-.07-.21.55.55,0,0,0-.13-.18,1.21,1.21,0,0,0-.59-.33,3.39,3.39,0,0,0-.91-.12,5.9,5.9,0,0,0-.94,0c-.44,0-.69.11-1.13.16a9.83,9.83,0,0,1-1.08.09c-.5,0-1-.1-1.27-.07-.54,0-.55.16-1.36.23-.28,0-.57,0-.85,0l-.47-.15a.54.54,0,0,0,.32-.23c.06-.08,0-.15.12-.23a1.68,1.68,0,0,1,.18-.21.58.58,0,0,0-.21-.1.5.5,0,0,0-.21,0,.65.65,0,0,0-.27.08.46.46,0,0,0-.18.13,3.27,3.27,0,0,0-.48-.27,1.89,1.89,0,0,0-.66-.2Zm.43,2.62h0Z"/><path class="cls-29" d="M124.87,65.91l-.17.06a1.48,1.48,0,0,1-.57.11c-.58,0-.94-.24-1.54-.19-.31,0-.44.26-.76.34a2.38,2.38,0,0,1-.37.06l.11-.22a3.38,3.38,0,0,1-.47.05,1.23,1.23,0,0,1-.33,0l.22-.2a1.27,1.27,0,0,1-.28-.08.72.72,0,0,1-.24-.14l.38-.07c.34-.09.45-.26.85-.3a7.14,7.14,0,0,1,1.68.16,1.91,1.91,0,0,0,1.22-.06.42.42,0,0,0,.24-.39.46.46,0,0,0-.19-.4.45.45,0,0,0-.24-.08"/><path class="cls-30" d="M115.2,64a.45.45,0,0,0-.3.07c-.1.06-.12.15-.19.25.1,0,.15.08.25,0a.3.3,0,0,0,.17-.11.34.34,0,0,0,.09-.25Z"/><path class="cls-29" d="M117.67,66.85s.06.11.09.18a3,3,0,0,1,.12.32c0,.18,0,.28.05.46,0,0,0,.06,0,.09v.24m1.5-1.52s-.05.17-.08.29c-.07.3-.15.46-.21.76,0,0,0,.1,0,.14m-2.39-.87c.18,0,.12.74.4.9"/><path class="cls-31" d="M123,68.17l.08,0a1.81,1.81,0,0,0,.59-.4"/><path class="cls-29" d="M121.27,67.78h0c.77-.19,1.29-.58,1.66-.63"/><path class="cls-29" d="M122.05,66.81h.19c.32,0,.37.15.6.28.41.22.46.5.94.73l.07,0,.19.09"/><path class="cls-30" d="M113.64,64.82h.15c.07,0,.11,0,.18-.06a.25.25,0,0,1,.15,0,.12.12,0,0,1,.06.08.11.11,0,0,1-.1.19c-.06,0-.1,0-.12-.06a.08.08,0,0,1,0-.08.25.25,0,0,1-.17,0,.23.23,0,0,1-.14-.11Z"/><path class="cls-32" d="M115.27,66.94a3.75,3.75,0,0,1-.43-.19c.07,0,.13,0,.19-.12a.86.86,0,0,0,.13-.29c0-.11,0-.21.15-.29a.29.29,0,0,1,.24,0,.29.29,0,0,1,.19.17c0,.12,0,.19-.06.32a1.17,1.17,0,0,0,0,.32c0,.08,0,.11.08.2a3.28,3.28,0,0,1-.45-.08Zm-.22.21a.14.14,0,0,1,.14-.14.13.13,0,0,1,.14.13.14.14,0,0,1-.14.14.14.14,0,0,1-.14-.13Zm-.38-3.64,0,0a.51.51,0,0,1-.13-.24.84.84,0,0,1-.07-.26,1.77,1.77,0,0,1,0-.23,1.47,1.47,0,0,0,0-.21.45.45,0,0,0,0-.2s-.09-.08-.07-.1.05,0,.09,0a.35.35,0,0,1,.21.1.36.36,0,0,1,.14.23,3,3,0,0,1,.09.32.46.46,0,0,0,.07.16.76.76,0,0,0,.11.14h0l-.17.18a.67.67,0,0,1-.19.12h0Zm.79,2.34.49.23a2.07,2.07,0,0,0,.77-.86,3.26,3.26,0,0,0,.3-1l-.4-.13-.07,0a3.92,3.92,0,0,1-.36.92,2.8,2.8,0,0,1-.58.67l-.15.1Zm1.08,4a2.92,2.92,0,0,1,.21-.28,2.37,2.37,0,0,1,.29-.25.18.18,0,0,1,.1,0,1.35,1.35,0,0,1,0,.33,2.13,2.13,0,0,1-.07.27.85.85,0,0,1-.09.22.38.38,0,0,1-.11.11c-.11-.16-.29-.29-.29-.42Zm7.27.41a2.08,2.08,0,0,1,.32.12,2.14,2.14,0,0,1,.32.2.43.43,0,0,1,0,.11,1.27,1.27,0,0,1-.34,0h-.28a.6.6,0,0,1-.23,0,.91.91,0,0,1-.14-.07C123.61,70.49,123.68,70.28,123.81,70.25Zm-2.15-.45a2.08,2.08,0,0,1,.32.12,1.73,1.73,0,0,1,.32.2s0,.07,0,.11a1.86,1.86,0,0,1-.34.06h-.27a.93.93,0,0,1-.24,0l-.13-.07c.12-.15.19-.36.32-.39Zm-3.82.47a1.85,1.85,0,0,1,.33.12,2.8,2.8,0,0,1,.32.2.21.21,0,0,1,0,.11,1.14,1.14,0,0,1-.33,0,1.31,1.31,0,0,1-.28,0,.6.6,0,0,1-.23,0l-.14-.07C117.65,70.51,117.71,70.3,117.84,70.27Zm-2-6.56a.26.26,0,0,1-.15-.35s.09,0,.13-.09a.28.28,0,0,0,0-.18.8.8,0,0,0,0-.21,1.81,1.81,0,0,1,0-.23.47.47,0,0,1,.08-.35.38.38,0,0,1,.18-.13s0,.11,0,.18a.72.72,0,0,0,.07.25,2.8,2.8,0,0,0,.15.3.69.69,0,0,1,.09.3.46.46,0,0,1,0,.26.42.42,0,0,1-.14.18.59.59,0,0,1-.17.1.32.32,0,0,1-.14,0Z"/></g><g id="b-2" data-name="b"><path class="cls-26" d="M115.16,71.19l-.13.06c-.07.07-.1.12-.17.18a2.75,2.75,0,0,1-.28.19.38.38,0,0,0-.13.09c-.06.07,0,.14-.06.22a1,1,0,0,1-.14.21c-.08.09-.14.13-.23.22s-.13.16-.24.22l-.08,0h-.12c-.09,0-.12.13-.18.16a.69.69,0,0,1,0,.13c0,.07.16.27.18.32s.06.15.12.17a.76.76,0,0,0,.29,0,2.16,2.16,0,0,1,.44.1c.14.06.19.13.33.19a1.31,1.31,0,0,0,.28.09.53.53,0,0,0,.22,0,.89.89,0,0,0,.14,0h0v.08h0l.45.2,0,.08a.42.42,0,0,0,0,.19,1.84,1.84,0,0,0,.32.7c.14,0,.18.19.26.33l-.08.07a2,2,0,0,0-.36.4c-.17.26-.28.26-.07.61s.18.24.34.53a1.84,1.84,0,0,1,.17.43,2.13,2.13,0,0,1,.07.44l.21.08.14-.15.14-.26v-.2a.18.18,0,0,1-.06-.17c0-.08.12-.06.16-.14s-.07-.16-.14-.24-.32-.18-.36-.4c0-.06,0-.1.08-.16s.25-.21.43-.4a.4.4,0,0,0,.22,0c.06,0,.11,0,.31.08a.5.5,0,0,0,.27,0l.08,0s0,.09,0,.15a3,3,0,0,0,0,.77.45.45,0,0,1,.06.12.38.38,0,0,1,0,.15c0,.15,0,.25,0,.41a2.47,2.47,0,0,1,0,.38.42.42,0,0,1-.09.24c-.07.08-.14.09-.22.15l0,.22.25.1.28.07.15-.06a.23.23,0,0,1,0-.14.2.2,0,0,1,.1-.12c.08,0,.17,0,.2,0s0-.07,0-.16a2.41,2.41,0,0,0-.07-.37,3.06,3.06,0,0,1,0-.6c0-.14,0-.21,0-.34s.11-.29.16-.49,0-.35.08-.54a5.3,5.3,0,0,0,2-.08l.17-.06a1.81,1.81,0,0,0,.6.36,1.47,1.47,0,0,0,0,.21c0,.07,0,.11,0,.16a.13.13,0,0,0,.09.06.12.12,0,0,0,.14,0s0-.1.06-.17v-.15a.58.58,0,0,0,.19,0h.19s0,.08,0,.1,0,.1,0,.15a.16.16,0,0,0,.23.07c.07,0,.06-.11.07-.19v-.17l.23-.08a.88.88,0,0,1,0,.17,1.29,1.29,0,0,1-.06.21,1.43,1.43,0,0,1-.16.3c-.09.14-.13.22-.23.35a1.49,1.49,0,0,0-.12.14c-.06.08-.08.13-.13.2a1.17,1.17,0,0,1-.21.23c-.15.13-.25,0-.46.19l0,.23.32.11.28.06.09-.06a.24.24,0,0,1,0-.16.24.24,0,0,1,.17-.09c.08,0,.17,0,.23,0s.08-.2.14-.32a2.78,2.78,0,0,1,.66-.86c.13-.13.25-.17.36-.32s.12-.1.12-.19,0-.09-.05-.15,0-.22,0-.22c.34.16.21.14.28.31s0,.23,0,.37.1.25.12.41a1.79,1.79,0,0,1-.07.51,1.67,1.67,0,0,1-.11.44.78.78,0,0,1-.25.34l-.13.09,0,.23.25.08.36.1.08-.08c0-.14,0-.35.09-.37s.15,0,.17-.07a.9.9,0,0,0,0-.13,9.61,9.61,0,0,1,.14-1c.05-.22.05-.26.09-.42a1.42,1.42,0,0,1,.09-.37c.16-.46,0-.53-.24-.81a.73.73,0,0,1-.15-.33c0-.18,0-.33,0-.6s0-.42,0-.64l.08,0a.9.9,0,0,0,.52-.54.71.71,0,0,0,.07-.32c0-.08,0-.15,0-.23a1,1,0,0,0-.07-.21.55.55,0,0,0-.13-.18,1.12,1.12,0,0,0-.59-.32,3,3,0,0,0-.91-.13,5.9,5.9,0,0,0-.94,0c-.44,0-.69.11-1.13.16a9.83,9.83,0,0,1-1.08.09c-.5,0-1-.1-1.27-.07-.54,0-.55.16-1.36.23-.28,0-.57,0-.85,0l-.47-.15a.54.54,0,0,0,.32-.23c.06-.08,0-.15.12-.23a1.68,1.68,0,0,1,.18-.21.58.58,0,0,0-.21-.1.5.5,0,0,0-.21,0,.65.65,0,0,0-.27.08.46.46,0,0,0-.18.13,3.27,3.27,0,0,0-.48-.27,1.89,1.89,0,0,0-.66-.2Zm.43,2.62h0Z"/><path class="cls-29" d="M124.87,74l-.17.06a1.48,1.48,0,0,1-.57.11c-.58,0-.94-.24-1.54-.19-.31,0-.44.26-.76.34a2.38,2.38,0,0,1-.37.06l.11-.22a3.38,3.38,0,0,1-.47,0,1.23,1.23,0,0,1-.33,0l.22-.2a1.27,1.27,0,0,1-.28-.08.72.72,0,0,1-.24-.14l.38-.07c.34-.09.45-.26.85-.3a7.14,7.14,0,0,1,1.68.16,1.91,1.91,0,0,0,1.22-.06.42.42,0,0,0,.24-.39.46.46,0,0,0-.19-.4.45.45,0,0,0-.24-.08"/><path class="cls-30" d="M115.2,72a.45.45,0,0,0-.3.07c-.1.06-.12.15-.19.25.1,0,.15.08.25.05a.3.3,0,0,0,.17-.11.34.34,0,0,0,.09-.25Z"/><path class="cls-29" d="M117.67,74.9l.09.18a3,3,0,0,1,.12.32c0,.18,0,.28.05.46s0,.06,0,.09v.24m1.5-1.52s-.05.17-.08.29c-.07.3-.15.46-.21.76,0,0,0,.1,0,.14M116.73,75c.18,0,.12.74.4.9"/><path class="cls-31" d="M123,76.22l.08,0a1.81,1.81,0,0,0,.59-.4"/><path class="cls-29" d="M121.27,75.83h0c.77-.19,1.29-.58,1.66-.63"/><path class="cls-29" d="M122.05,74.86h.19c.32,0,.37.15.6.28.41.22.46.5.94.73l.07,0L124,76"/><path class="cls-30" d="M113.64,72.87h.15c.07,0,.11,0,.18-.06a.25.25,0,0,1,.15,0,.12.12,0,0,1,.06.08.11.11,0,0,1-.1.19c-.06,0-.1,0-.12-.06a.08.08,0,0,1,0-.08.25.25,0,0,1-.17,0,.23.23,0,0,1-.14-.11Z"/><path class="cls-32" d="M115.27,75a3.75,3.75,0,0,1-.43-.19c.07,0,.13,0,.19-.12a.86.86,0,0,0,.13-.29c0-.11,0-.21.15-.29a.29.29,0,0,1,.24,0,.29.29,0,0,1,.19.17c0,.12,0,.19-.06.32a1.17,1.17,0,0,0,0,.32c0,.08,0,.11.08.2a3.28,3.28,0,0,1-.45-.08Zm-.22.21a.14.14,0,0,1,.14-.14.13.13,0,0,1,.14.13.14.14,0,0,1-.14.14.14.14,0,0,1-.14-.13Zm-.38-3.64,0,0a.51.51,0,0,1-.13-.24.84.84,0,0,1-.07-.26,1.77,1.77,0,0,1,0-.23,1.47,1.47,0,0,0,0-.21.45.45,0,0,0,0-.2s-.09-.08-.07-.1.05,0,.09,0a.35.35,0,0,1,.21.1.36.36,0,0,1,.14.23,3,3,0,0,1,.09.32.46.46,0,0,0,.07.16.76.76,0,0,0,.11.14h0l-.17.18a.67.67,0,0,1-.19.12h0Zm.79,2.34.49.23a2.07,2.07,0,0,0,.77-.86,3.26,3.26,0,0,0,.3-1l-.4-.13-.07,0a3.92,3.92,0,0,1-.36.92,2.8,2.8,0,0,1-.58.67l-.15.1Zm1.08,4a2.92,2.92,0,0,1,.21-.28,2.37,2.37,0,0,1,.29-.25.18.18,0,0,1,.1,0,1.35,1.35,0,0,1,0,.33A2.13,2.13,0,0,1,117,78a.85.85,0,0,1-.09.22.38.38,0,0,1-.11.11c-.11-.16-.29-.29-.29-.42Zm7.27.41a2.08,2.08,0,0,1,.32.12,2.14,2.14,0,0,1,.32.2.43.43,0,0,1,0,.11,1.86,1.86,0,0,1-.34.06h-.28a.91.91,0,0,1-.23,0l-.14-.07C123.61,78.54,123.68,78.33,123.81,78.3Zm-2.15-.45A2.08,2.08,0,0,1,122,78a1.73,1.73,0,0,1,.32.2s0,.07,0,.11a1.86,1.86,0,0,1-.34.06h-.27a.93.93,0,0,1-.24,0l-.13-.07c.12-.15.19-.36.32-.39Zm-3.82.47a1.85,1.85,0,0,1,.33.12,2.8,2.8,0,0,1,.32.2.21.21,0,0,1,0,.11,1.14,1.14,0,0,1-.33,0,1.31,1.31,0,0,1-.28,0,.6.6,0,0,1-.23,0,.91.91,0,0,1-.14-.07C117.65,78.56,117.71,78.35,117.84,78.32Zm-2-6.56a.26.26,0,0,1-.15-.35s.09,0,.13-.09a.28.28,0,0,0,0-.18.8.8,0,0,0,0-.21,1.81,1.81,0,0,1,0-.23.47.47,0,0,1,.08-.35.38.38,0,0,1,.18-.13s0,.11,0,.18a.72.72,0,0,0,.07.25,2.8,2.8,0,0,0,.15.3.69.69,0,0,1,.09.3.46.46,0,0,1,0,.26.42.42,0,0,1-.14.18.59.59,0,0,1-.17.1.32.32,0,0,1-.14,0Z"/></g><path class="cls-33" d="M90.53,41.65h18.08V59.7H90.53Zm20,0h18.08V59.7H110.53ZM90.59,75.35a4.81,4.81,0,0,0,.48,1.45A5.52,5.52,0,0,0,92,78.12a5.19,5.19,0,0,0,1.37,1,6,6,0,0,0,1.51.55,11,11,0,0,0,3.64.35,20.21,20.21,0,0,0,2.26-.23c.85-.11,1.48-.18,2.44-.22a12.15,12.15,0,0,1,1.35,0,11.51,11.51,0,0,1,1.61.22,17.49,17.49,0,0,1,2.41.7V61.64H90.52V74.51s0,.63.07.84Zm38,0a4.51,4.51,0,0,1-.48,1.46,5.14,5.14,0,0,1-.94,1.32,5.43,5.43,0,0,1-1.37,1,6.13,6.13,0,0,1-1.5.55,11.35,11.35,0,0,1-3.65.35,22.49,22.49,0,0,1-2.26-.24c-.84-.11-1.48-.18-2.44-.22-.47,0-.91,0-1.35,0a11.71,11.71,0,0,0-1.61.22,17.52,17.52,0,0,0-2.43.71V61.63h18.09V74.51s0,.63-.07.83Z"/></svg>