<svg id="Layer_1" data-name="Layer 1" xmlns="http://www.w3.org/2000/svg" xmlns:xlink="http://www.w3.org/1999/xlink" viewBox="0 0 220 128"><defs><style>.cls-1{fill:none;}.cls-2{clip-path:url(#clip-path);}.cls-3{fill:#4495af;}.cls-4{fill:#bc1f33;}.cls-5{fill:#fff;}.cls-6{fill:#4fb548;}</style><clipPath id="clip-path"><rect id="_Clipping_Path_" data-name="&lt;Clipping Path&gt;" class="cls-1" x="0.31" width="219.38" height="128"/></clipPath></defs><title>Flag_rect_Uzbekistan</title><g id="UZBEKISTAN"><g id="_Group_" data-name="&lt;Group&gt;"><g id="_Clip_Group_" data-name="&lt;Clip Group&gt;"><g class="cls-2"><rect id="_Path_" data-name="&lt;Path&gt;" class="cls-3" x="0.31" width="219.38" height="40.98"/><rect id="_Path_2" data-name="&lt;Path&gt;" class="cls-4" x="0.31" y="40.98" width="219.38" height="2.55"/><rect id="_Path_3" data-name="&lt;Path&gt;" class="cls-5" x="0.31" y="43.54" width="219.38" height="40.96"/><rect id="_Path_4" data-name="&lt;Path&gt;" class="cls-4" x="0.31" y="84.49" width="219.38" height="2.55"/><rect id="_Path_5" data-name="&lt;Path&gt;" class="cls-6" x="0.31" y="87.04" width="219.38" height="40.96"/><g id="_Clip_Group_2" data-name="&lt;Clip Group&gt;"><g class="cls-2"><path class="cls-5" d="M43.06,33.27a12.79,12.79,0,1,1,0-25.58,12.5,12.5,0,0,1,1.74.13,15.34,15.34,0,1,0,0,25.32A12.53,12.53,0,0,1,43.06,33.27Z"/><polygon class="cls-5" points="76.17 8.56 77.98 7.25 75.74 7.25 75.05 5.13 74.36 7.25 72.13 7.25 73.93 8.56 73.23 10.7 75.05 9.38 76.84 10.7 76.17 8.56"/><polygon class="cls-5" points="88.44 8.57 90.25 7.25 88.01 7.25 87.34 5.13 86.65 7.25 84.42 7.25 86.21 8.56 85.51 10.7 87.33 9.38 89.13 10.7 88.44 8.57"/><polygon class="cls-5" points="100.73 8.57 102.54 7.25 100.31 7.25 99.63 5.13 98.94 7.25 96.7 7.25 98.5 8.57 97.82 10.7 99.62 9.38 101.42 10.7 100.73 8.57"/><polygon class="cls-5" points="63.87 20.83 65.67 19.53 63.45 19.53 62.76 17.41 62.07 19.53 59.84 19.53 61.64 20.83 60.95 22.95 62.76 21.66 64.55 22.95 63.87 20.83"/><polygon class="cls-5" points="76.16 20.83 77.98 19.53 75.74 19.53 75.05 17.41 74.36 19.53 72.13 19.53 73.93 20.83 73.23 22.95 75.05 21.66 76.84 22.95 76.16 20.83"/><polygon class="cls-5" points="88.44 20.83 90.25 19.53 88.02 19.53 87.34 17.41 86.64 19.53 84.42 19.53 86.21 20.83 85.51 22.95 87.33 21.66 89.13 22.95 88.44 20.83"/><polygon class="cls-5" points="100.72 20.84 102.54 19.53 100.32 19.53 99.63 17.41 98.94 19.53 96.7 19.53 98.51 20.84 97.82 22.95 99.62 21.66 101.42 22.95 100.72 20.84"/><polygon class="cls-5" points="51.59 33.13 53.39 31.84 51.17 31.84 50.48 29.7 49.79 31.84 47.55 31.84 49.36 33.14 48.67 35.26 50.48 33.96 52.28 35.26 51.59 33.13"/><polygon class="cls-5" points="63.87 33.14 65.67 31.84 63.45 31.84 62.76 29.7 62.06 31.84 59.84 31.84 61.64 33.13 60.95 35.26 62.76 33.96 64.55 35.26 63.87 33.14"/><polygon class="cls-5" points="76.16 33.13 77.98 31.84 75.74 31.84 75.05 29.7 74.36 31.84 72.13 31.84 73.93 33.14 73.23 35.26 75.05 33.96 76.84 35.26 76.16 33.13"/><polygon class="cls-5" points="88.44 33.14 90.25 31.84 88.02 31.84 87.34 29.7 86.64 31.84 84.42 31.84 86.21 33.14 85.51 35.26 87.33 33.97 89.13 35.26 88.44 33.14"/><polygon class="cls-5" points="100.72 33.15 102.54 31.84 100.32 31.84 99.63 29.7 98.93 31.84 96.7 31.84 98.51 33.15 97.82 35.26 99.62 33.96 101.42 35.26 100.72 33.15"/></g></g></g></g></g></g></svg>