<svg id="Layer_1" data-name="Layer 1" xmlns="http://www.w3.org/2000/svg" xmlns:xlink="http://www.w3.org/1999/xlink" viewBox="0 0 220 128"><defs><style>.cls-1{fill:none;}.cls-2{clip-path:url(#clip-path);}.cls-3{fill:#00a650;}.cls-4{fill:#7dafdd;}.cls-5{fill:#eac126;}.cls-6{fill:#fcf317;}</style><clipPath id="clip-path"><polygon id="_Clipping_Path_" data-name="&lt;Clipping Path&gt;" class="cls-1" points="0 0 220.06 0 220 128 0 128 0 0"/></clipPath></defs><title>Flag_rect_Tanzania</title><g id="TANZANIA"><g id="_Group_" data-name="&lt;Group&gt;"><g id="_Clip_Group_" data-name="&lt;Clip Group&gt;"><g class="cls-2"><polygon id="_Path_" data-name="&lt;Path&gt;" class="cls-3" points="0 0 0 97.17 167.28 0 0 0"/><polygon id="_Path_2" data-name="&lt;Path&gt;" class="cls-4" points="52.14 128 220 128 219.97 30.5 52.14 128"/><polygon id="_Path_3" data-name="&lt;Path&gt;" class="cls-5" points="219.94 0 219.98 0.05 220.06 0 219.94 0"/><polygon id="_Path_4" data-name="&lt;Path&gt;" class="cls-5" points="0 128 0.08 127.92 0 127.85 0 128"/><polygon id="_Path_5" data-name="&lt;Path&gt;" class="cls-6" points="167.28 0 0 97.17 0 107.06 183.99 0 167.28 0"/><polygon id="_Path_6" data-name="&lt;Path&gt;" class="cls-5" points="0 128 0 128 0.12 128 0.08 127.92 0 128"/><polygon id="_Path_7" data-name="&lt;Path&gt;" class="cls-5" points="220.06 0 219.98 0.05 220.06 0.13 220.06 0"/><polygon id="_Path_8" data-name="&lt;Path&gt;" class="cls-6" points="35.44 128 52.14 128 220 30.5 220 20.59 35.44 128"/><polygon id="_Path_9" data-name="&lt;Path&gt;" points="183.99 0 0 107.06 0 127.85 0.08 127.92 0.12 128 35.44 128 220 20.56 220.06 0.13 219.98 0.05 219.94 0 183.99 0"/></g></g></g></g></svg>