<svg id="Layer_1" data-name="Layer 1" xmlns="http://www.w3.org/2000/svg" xmlns:xlink="http://www.w3.org/1999/xlink" viewBox="0 0 220 128"><defs><style>.cls-1{fill:none;}.cls-2{clip-path:url(#clip-path);}.cls-3{fill:#2d318d;}.cls-4{fill:#bf1f3e;}.cls-5,.cls-9{fill:#fff;}.cls-6,.cls-7{fill:#2e6d36;}.cls-10,.cls-11,.cls-14,.cls-6,.cls-8,.cls-9{fill-rule:evenodd;}.cls-15,.cls-8{fill:#e4b22b;}.cls-10,.cls-12{fill:#2c3584;}.cls-11,.cls-13{fill:#c02027;}.cls-14{fill:#4c3614;}</style><clipPath id="clip-path"><rect id="_Clipping_Path_" data-name="&lt;Clipping Path&gt;" class="cls-1" width="220" height="128"/></clipPath></defs><title>Flag_rect_Haiti</title><g id="HAITI"><g id="_Group_" data-name="&lt;Group&gt;"><g id="_Clip_Group_" data-name="&lt;Clip Group&gt;"><g class="cls-2"><rect id="_Path_" data-name="&lt;Path&gt;" class="cls-3" width="220" height="128"/><rect id="_Path_2" data-name="&lt;Path&gt;" class="cls-4" y="64.01" width="220" height="63.99"/><rect id="_Path_3" data-name="&lt;Path&gt;" class="cls-5" x="88.95" y="47.45" width="41.53" height="33.07"/><g id="_Clip_Group_2" data-name="&lt;Clip Group&gt;"><g class="cls-2"><path id="_Path_4" data-name="&lt;Path&gt;" class="cls-6" d="M118.07,71.36l-8.47.25-8.45.1s-4.33,1.59-6.1,2-1.54.94-2.91,1.24a10.86,10.86,0,0,1-1.86.37,3,3,0,0,0-1.33.65v4.59h41.53V76.16a7.94,7.94,0,0,0-1.33-.57,13.29,13.29,0,0,0-2.1-.68c-1.37-.3-1.14-.89-2.91-1.24a47.5,47.5,0,0,1-6.07-2.31Z"/><g id="_Group_2" data-name="&lt;Group&gt;"><path id="_Compound_Path_" data-name="&lt;Compound Path&gt;" class="cls-7" d="M130.52,80.56H89l0-4.63a3.12,3.12,0,0,1,1.38-.69,6.29,6.29,0,0,0,1.11-.19l.75-.18a3.07,3.07,0,0,0,1.2-.54,4.06,4.06,0,0,1,1.71-.71,63.81,63.81,0,0,0,6.1-2l8.45-.09,8.47-.25a46.59,46.59,0,0,0,6.07,2.3,3.89,3.89,0,0,1,1.69.71,3.17,3.17,0,0,0,1.23.54,11.62,11.62,0,0,1,1.62.5l.49.18a8.87,8.87,0,0,1,1.33.57l0,4.44ZM118.06,71.4l-8.46.25-8.45.09s-4.35,1.6-6.1,2a4,4,0,0,0-1.66.69,2.82,2.82,0,0,1-1.23.56l-.74.17a4.76,4.76,0,0,1-1.14.19A3.32,3.32,0,0,0,89,76v4.56l41.46,0V76.16a10,10,0,0,0-1.29-.53l-.49-.19A10.43,10.43,0,0,0,127,75a3.06,3.06,0,0,1-1.24-.56,3.94,3.94,0,0,0-1.66-.69,46.32,46.32,0,0,1-6.07-2.3Z"/></g><polygon id="_Path_5" data-name="&lt;Path&gt;" class="cls-6" points="109.16 53.3 108.97 57.28 110.24 57.28 110.05 53.33 111.37 53.15 111.23 51.58 107.93 51.7 107.95 53.13 109.16 53.3"/><g id="_Group_3" data-name="&lt;Group&gt;"><path id="_Compound_Path_2" data-name="&lt;Compound Path&gt;" class="cls-7" d="M110.28,57.32H109l.16-4L108,53.17l0-1.47,3.33-.18.19,1.62-1.37.23.23,4Zm.91-5.74-3.26.16.06,1.39,1.19.13-.18,4,1.19,0L110,53.33l1.35-.23-.18-1.52Z"/></g><polygon id="_Path_6" data-name="&lt;Path&gt;" class="cls-8" points="106.16 64.25 105.05 61.87 105.53 61.77 107.54 65.71 106.16 64.25"/><g id="_Group_4" data-name="&lt;Group&gt;"><path id="_Compound_Path_3" data-name="&lt;Compound Path&gt;" d="M107.71,65.94l-1.58-1.67L105,61.88l.52-.15,2.18,4.21Zm-2.22-4.16-.43.12,1.13,2.33,1.21,1.26-1.91-3.71Z"/></g><polygon id="_Path_7" data-name="&lt;Path&gt;" class="cls-9" points="103.6 59.07 104.83 62.42 105.45 62.42 103.6 59.07"/><g id="_Group_5" data-name="&lt;Group&gt;"><path id="_Compound_Path_4" data-name="&lt;Compound Path&gt;" d="M105.53,62.47h-.7l-1.26-3.38,2,3.38Zm-2-3.38,1.29,3.33.52,0-1.81-3.31Z"/></g><polygon id="_Path_8" data-name="&lt;Path&gt;" class="cls-8" points="107.31 61.16 107.91 61.15 109.05 65.86 108.81 67.34 107.31 61.16"/><g id="_Group_6" data-name="&lt;Group&gt;"><path id="_Compound_Path_5" data-name="&lt;Compound Path&gt;" d="M108.81,67.55l-1.54-6.38.64-.07,1.17,4.74-.27,1.71Zm-.92-6.4-.58,0,1.5,6,.19-1.31-1.11-4.69Z"/></g><polygon id="_Path_9" data-name="&lt;Path&gt;" class="cls-8" points="107.84 66.02 105.95 60.95 106.66 60.92 108.85 67.1 107.84 66.02"/><g id="_Group_7" data-name="&lt;Group&gt;"><path id="_Compound_Path_6" data-name="&lt;Compound Path&gt;" d="M109,67.26,107.8,66,105.91,61l.74-.09,2.3,6.38Zm-2.33-6.33L106,61l1.93,5,.86.93-2.12-6Z"/></g><polygon id="_Path_10" data-name="&lt;Path&gt;" class="cls-9" points="105.06 58.08 105.84 61.59 106.47 61.59 105.06 58.08"/><g id="_Group_8" data-name="&lt;Group&gt;"><path id="_Compound_Path_7" data-name="&lt;Compound Path&gt;" d="M106.53,61.62h-.69L105,58.08l1.5,3.54ZM105,58.08l.86,3.51.53,0L105,58.08Z"/></g><polygon id="_Path_11" data-name="&lt;Path&gt;" class="cls-9" points="106.67 58.02 107.09 61.64 107.53 61.63 106.67 58.02"/><g id="_Group_9" data-name="&lt;Group&gt;"><path id="_Compound_Path_8" data-name="&lt;Compound Path&gt;" d="M107.06,61.69l0,0L106.62,58l.95,3.59-.51.08ZM106.62,58l.51,3.58.4,0L106.62,58Z"/></g><path id="_Path_12" data-name="&lt;Path&gt;" class="cls-10" d="M106.31,64.6l-5-5.48A4.19,4.19,0,0,0,100,62.65l5.69,4.45Z"/><g id="_Group_10" data-name="&lt;Group&gt;"><path id="_Compound_Path_9" data-name="&lt;Compound Path&gt;" d="M105.73,67.18,100,62.67a4.14,4.14,0,0,1,1.26-3.58l5.07,5.48-.6,2.61Zm-4.47-8a4.24,4.24,0,0,0-1.21,3.48l5.63,4.4.59-2.44-5-5.44Z"/></g><path id="_Path_13" data-name="&lt;Path&gt;" class="cls-11" d="M109.22,67.61l-3.74-3.76c-1.57,0-.31,2.4-.24,2.7l4,3.39Z"/><g id="_Group_11" data-name="&lt;Group&gt;"><path id="_Compound_Path_10" data-name="&lt;Compound Path&gt;" d="M109.25,70l-4.15-3.71c-.21-.54-.67-1.62-.31-2.19a.81.81,0,0,1,.69-.32l3.76,3.78V70Zm-3.8-6.16a.8.8,0,0,0-.6.31c-.32.52.12,1.59.33,2.1a1.71,1.71,0,0,1,.1.25l3.9,3.32V67.61l-3.73-3.74Z"/></g><polygon id="_Path_14" data-name="&lt;Path&gt;" class="cls-8" points="108.9 66.97 101.19 58.73 100.9 58.94 109.05 67.99 108.9 66.97"/><g id="_Group_12" data-name="&lt;Group&gt;"><path id="_Compound_Path_11" data-name="&lt;Compound Path&gt;" d="M109.09,68.12,109,68,100.86,59l.3-.27,7.76,8.25.17,1.18Zm-7.93-9.36-.24.21L109,67.88l-.14-.9-7.69-8.22Z"/></g><polygon id="_Path_15" data-name="&lt;Path&gt;" class="cls-8" points="100.76 58.2 100.58 58.01 100.6 57.61 99.01 56.6 99.72 58.2 100.26 58.3 100.43 58.5 100.76 58.2"/><g id="_Group_13" data-name="&lt;Group&gt;"><polygon id="_Path_16" data-name="&lt;Path&gt;" points="100.42 58.55 100.24 58.32 99.72 58.25 98.97 56.63 100.62 57.58 100.62 57.83 100.56 57.61 98.99 56.63 99.75 58.18 100.28 58.26 100.43 58.44 100.73 58.18 100.72 58.13 100.78 58.23 100.42 58.55 100.42 58.55"/></g><path id="_Path_17" data-name="&lt;Path&gt;" class="cls-8" d="M100,58.78a3.32,3.32,0,0,1,1.16-1l.44.62-1,.81Z"/><g id="_Group_14" data-name="&lt;Group&gt;"><path id="_Compound_Path_12" data-name="&lt;Compound Path&gt;" d="M100.61,59.3l-.69-.48a3.06,3.06,0,0,1,1.16-1l.51.65-1,.86Zm.46-1.45a4.53,4.53,0,0,0-1.1,1l.63.4.92-.78-.45-.59Z"/></g><path id="_Path_18" data-name="&lt;Path&gt;" class="cls-10" d="M104.11,66.06l-6.3-5c-1.08,1.1-.18,4.5-.18,4.5l6.16,3.34Z"/><g id="_Group_15" data-name="&lt;Group&gt;"><path id="_Compound_Path_13" data-name="&lt;Compound Path&gt;" d="M103.83,68.94l-6.22-3.38c-.06-.16-.91-3.44.18-4.54l6.36,5-.32,2.92Zm-6-7.86c-1,1.06-.13,4.41-.12,4.45l6.09,3.28.32-2.77-6.29-5Z"/></g><path id="_Path_19" data-name="&lt;Path&gt;" class="cls-11" d="M109.34,70.12,104.17,66c-1.78.26-.39,2.86-.29,3.14l5.48,3Z"/><g id="_Group_16" data-name="&lt;Group&gt;"><path id="_Compound_Path_14" data-name="&lt;Compound Path&gt;" d="M109.41,72.13l-5.54-3c-.31-.66-.92-2-.51-2.72a1,1,0,0,1,.79-.49l5.21,4.16,0,2ZM104.14,66a1,1,0,0,0-.71.46c-.38.71.23,2,.44,2.5L109.32,72l0-1.89L104.14,66Z"/></g><polygon id="_Path_20" data-name="&lt;Path&gt;" class="cls-8" points="109.13 69.27 97.93 60.85 97.67 61.11 109.44 70.31 109.13 69.27"/><g id="_Group_17" data-name="&lt;Group&gt;"><path id="_Compound_Path_15" data-name="&lt;Compound Path&gt;" d="M109.52,70.42l-.1-.09L97.65,61.15l.24-.32,11.27,8.41.36,1.18ZM97.9,60.88l-.21.27,11.68,9.05-.28-.91L97.9,60.88Z"/></g><polygon id="_Path_21" data-name="&lt;Path&gt;" class="cls-8" points="97.39 60.4 97.19 60.25 97.14 59.85 95.39 59.13 96.38 60.58 96.92 60.58 97.12 60.75 97.39 60.4"/><g id="_Group_18" data-name="&lt;Group&gt;"><polygon id="_Path_22" data-name="&lt;Path&gt;" points="97.14 60.81 96.9 60.62 96.38 60.63 95.36 59.14 97.16 59.82 97.19 60.05 97.1 59.86 95.37 59.18 96.41 60.57 96.94 60.55 97.12 60.69 97.36 60.38 97.35 60.34 97.43 60.42 97.14 60.81 97.14 60.81"/></g><path id="_Path_23" data-name="&lt;Path&gt;" class="cls-8" d="M96.7,61.12a3.7,3.7,0,0,1,1-1.14l.54.54-.78,1Z"/><g id="_Group_19" data-name="&lt;Group&gt;"><path id="_Compound_Path_16" data-name="&lt;Compound Path&gt;" d="M97.44,61.53l-.76-.37a3.11,3.11,0,0,1,1-1.21l.6.55-.81,1ZM97.65,60a3.73,3.73,0,0,0-.91,1.14l.69.27.76-.92L97.65,60Z"/></g><path id="_Path_24" data-name="&lt;Path&gt;" class="cls-10" d="M103.66,69.12c-.08,0-8.12-4.59-8.12-4.59a2.7,2.7,0,0,0,.2,2.65,4.17,4.17,0,0,0,.3,2.39,3.78,3.78,0,0,0,1.2,2.21c.72,2.81,3.6,3,4.71.71Z"/><g id="_Group_20" data-name="&lt;Group&gt;"><path id="_Compound_Path_17" data-name="&lt;Compound Path&gt;" d="M99.71,74.09h0a2.68,2.68,0,0,1-2.51-2.31A3.69,3.69,0,0,1,96,69.57a3.22,3.22,0,0,1-.34-1.93c0-.15,0-.3,0-.46a2.63,2.63,0,0,1-.21-2.66c2.81,1.55,8.06,4.5,8.17,4.56L102,72.52a2.56,2.56,0,0,1-2.27,1.57Zm-4.18-9.52a2.74,2.74,0,0,0,.24,2.58,4,4,0,0,1,0,.5,3.45,3.45,0,0,0,.32,1.91,3.76,3.76,0,0,0,1.18,2.18A2.64,2.64,0,0,0,99.7,74h0a2.49,2.49,0,0,0,2.2-1.55l1.71-3.38h0c-.11,0-6.77-3.76-8.09-4.52Z"/></g><path id="_Path_25" data-name="&lt;Path&gt;" class="cls-11" d="M109,72.13l-5.5-3.23c-1.78.24,0,3.53.13,3.83l5.32,1.88Z"/><g id="_Group_21" data-name="&lt;Group&gt;"><path id="_Compound_Path_18" data-name="&lt;Compound Path&gt;" d="M109,74.67l-5.37-1.91-.11-.24c-.31-.66-1.13-2.4-.69-3.23a.9.9,0,0,1,.68-.43L109,72.1l0,2.57Zm-5.51-5.73a.77.77,0,0,0-.59.39c-.43.79.38,2.52.69,3.16l5.35,2.06,0-2.42-5.49-3.19Z"/></g><polygon id="_Path_26" data-name="&lt;Path&gt;" class="cls-8" points="108.06 70.95 95.62 64.34 95.41 64.63 108.54 71.94 108.06 70.95"/><g id="_Group_22" data-name="&lt;Group&gt;"><path id="_Compound_Path_19" data-name="&lt;Compound Path&gt;" d="M108.62,72,95.39,64.67l.21-.36,12.48,6.61.54,1.12Zm-13-7.68-.18.3,13,7.19L108,71,95.61,64.36Z"/></g><polygon id="_Path_27" data-name="&lt;Path&gt;" class="cls-8" points="95.02 63.97 94.8 63.85 94.68 63.48 92.83 63.02 94.05 64.3 94.59 64.22 94.81 64.35 95.02 63.97"/><g id="_Group_23" data-name="&lt;Group&gt;"><polygon id="_Path_28" data-name="&lt;Path&gt;" points="94.84 64.41 94.57 64.26 94.05 64.34 92.81 63.04 94.7 63.43 94.77 63.66 94.63 63.48 92.82 63.05 94.08 64.28 94.6 64.18 94.8 64.29 94.99 63.96 94.97 63.92 95.05 64 94.84 64.41 94.84 64.41"/></g><path id="_Path_29" data-name="&lt;Path&gt;" class="cls-8" d="M94.45,64.78a3.54,3.54,0,0,1,.78-1.27l.62.46L95.23,65Z"/><g id="_Group_24" data-name="&lt;Group&gt;"><path id="_Compound_Path_20" data-name="&lt;Compound Path&gt;" d="M95.26,65.07l-.82-.25a2.83,2.83,0,0,1,.77-1.32l.67.45-.62,1.12Zm-.05-1.52a3.94,3.94,0,0,0-.72,1.25l.73.18.61-1-.62-.41Z"/></g><path id="_Path_30" data-name="&lt;Path&gt;" class="cls-10" d="M99.09,60.16l.25.48c.17-.07,1.78-1.52,1.78-1.52l1.17,0,.32-.37a1,1,0,0,0-1.64.14Z"/><g id="_Group_25" data-name="&lt;Group&gt;"><path id="_Compound_Path_21" data-name="&lt;Compound Path&gt;" class="cls-12" d="M99.33,60.67l-.26-.47L101,58.8s1-.88,1.68-.12l-.32.41-1.19,0a22.53,22.53,0,0,1-1.75,1.53Zm2.54-2.3a1.32,1.32,0,0,0-.88.49l-1.88,1.35.26.37c.19-.12,1.12-.95,1.72-1.5l1.2,0,.29-.35a1.16,1.16,0,0,0-.71-.31Z"/></g><path id="_Path_31" data-name="&lt;Path&gt;" class="cls-11" d="M100,60.94a3.9,3.9,0,0,1,.93-1.45c.57.18,1.1.51,1.68-.81-.49.65-1.52,0-1.52,0l-.44.36v.18l-1.35,1.24Z"/><g id="_Group_26" data-name="&lt;Group&gt;"><path id="_Path_32" data-name="&lt;Path&gt;" class="cls-13" d="M100.05,61l-.72-.51.51-.49-.47.49.63.38a4.13,4.13,0,0,1,.93-1.42,2.9,2.9,0,0,0,.71.17c.24,0,.57-.1.92-.88-.3.54-1.44,0-1.48,0l-.18.19.18-.25c.08,0,1.14.52,1.52,0-.34,1.05-.93,1.1-1.51.93-.31,0-1,.93-1,1.35V61Z"/></g><path id="_Path_33" data-name="&lt;Path&gt;" class="cls-10" d="M96.07,62.52l.07.48c.15-.09,1.56-1.64,1.56-1.64l1.15-.21.22-.36c-.8-.93-1.63.3-1.63.3Z"/><g id="_Group_27" data-name="&lt;Group&gt;"><path id="_Compound_Path_22" data-name="&lt;Compound Path&gt;" class="cls-12" d="M96.11,63.06,96,62.54l1.38-1.47s1-1.1,1.68-.31l-.23.41-1.15.23c-.13.14-1.4,1.54-1.57,1.63l0,0Zm2.32-2.58c-.52,0-1,.63-1,.63L96.1,62.56l.07.37c.22-.19,1-1,1.52-1.6l1.14-.22.2-.35a.83.83,0,0,0-.6-.28Z"/></g><path id="_Path_34" data-name="&lt;Path&gt;" class="cls-11" d="M97,63.36a4.07,4.07,0,0,1,.64-1.74c.68.19,1.28.51,1.52-.91-.4.71-1.52.16-1.52.16l-.37.43,0,.23L96.14,63Z"/><g id="_Group_28" data-name="&lt;Group&gt;"><path id="_Path_35" data-name="&lt;Path&gt;" class="cls-13" d="M97,63.43l-.89-.38.3-.4-.25.39.74.26a4.15,4.15,0,0,1,.67-1.71,3.69,3.69,0,0,0,.77.16c.26,0,.56-.13.73-1-.17.61-1.47.21-1.5.19l-.11.16.1-.22a2.07,2.07,0,0,0,.86.2.67.67,0,0,0,.65-.35c-.09,1.15-.64,1.23-1.34,1A2.71,2.71,0,0,0,97,63.36v.07Z"/></g><path id="_Path_36" data-name="&lt;Path&gt;" class="cls-10" d="M94,66.28l.26.51c.14-.11,1.33-2,1.33-2l1.09-.36.2-.45c-.87-.81-1.53.59-1.53.59Z"/><g id="_Group_29" data-name="&lt;Group&gt;"><path id="_Compound_Path_23" data-name="&lt;Compound Path&gt;" class="cls-12" d="M94.21,66.84l-.3-.54,1.36-1.76s.83-1.32,1.58-.59l-.19.49-1.11.38c-.11.18-1.18,1.9-1.31,2l0,0Zm2.07-3.08c-.56,0-.94.81-.94.82L94,66.3l.25.43c.16-.22.84-1.27,1.27-2l1.11-.39.18-.42a.93.93,0,0,0-.51-.2Z"/></g><path id="_Path_37" data-name="&lt;Path&gt;" class="cls-11" d="M95.13,67a5.21,5.21,0,0,1,.3-1.91c.68.2,1.27.26,1.41-1.15-.39.67-1.45.41-1.45.41l-.32.48.07.18-.9,1.73Z"/><g id="_Group_30" data-name="&lt;Group&gt;"><path id="_Path_38" data-name="&lt;Path&gt;" class="cls-13" d="M95.18,67.06l-1-.28.35-.72-.3.7.8.2a4.59,4.59,0,0,1,.34-1.89c.6.12,1.2.57,1.38-1.12-.28.73-1.41.45-1.41.45l-.14.23.11-.29s.24,0,.48,0a1.05,1.05,0,0,0,1-.45c0,1.26-.67,1.42-1.38,1.21A7.09,7.09,0,0,0,95.16,67l0,.06Z"/></g><polygon id="_Path_39" data-name="&lt;Path&gt;" class="cls-8" points="107.98 74 104.86 73.04 103.53 70.74 98.75 70.51 98.9 72.23 102.97 73.01 103.37 73.7 108.05 75.01 107.98 74"/><g id="_Group_31" data-name="&lt;Group&gt;"><path id="_Compound_Path_24" data-name="&lt;Compound Path&gt;" d="M108.09,75.06l-4.73-1.31L103,73l-4-.76-.19-1.76,4.82.19L104.91,73,108,74l.1,1.09Zm-9.35-4.52L99,72.23l4,.74.43.72L108,75l-.07-1-3.07-.91-1.37-2.34-4.75-.21Z"/></g><polygon id="_Path_40" data-name="&lt;Path&gt;" class="cls-14" points="104.73 74.64 99.84 67.45 99.61 67.63 104.45 74.85 104.73 74.64"/><g id="_Group_32" data-name="&lt;Group&gt;"><path id="_Compound_Path_25" data-name="&lt;Compound Path&gt;" d="M104.45,74.91l-4.88-7.25.25-.24,5,7.2-.32.29ZM99.8,67.48l-.17.18,4.84,7.14.24-.18L99.8,67.48Z"/></g><path id="_Path_41" data-name="&lt;Path&gt;" class="cls-9" d="M100.3,67.74l-.52-.89c-.11-.16-.24-.21-.47-.09a.33.33,0,0,0-.1.49l.47.82Z"/><g id="_Group_33" data-name="&lt;Group&gt;"><path id="_Compound_Path_26" data-name="&lt;Compound Path&gt;" d="M99.67,68.12l-.5-.84a.38.38,0,0,1,.12-.55c.34-.07.44,0,.51.11l.53.88-.66.4Zm-.15-1.43-.19.11a.3.3,0,0,0-.08.44l.45.78.58-.32-.76-1Z"/></g><polygon id="_Path_42" data-name="&lt;Path&gt;" class="cls-8" points="105.32 70.21 95.44 69.2 95.21 70.63 105.03 71.62 105.32 70.21"/><g id="_Group_34" data-name="&lt;Group&gt;"><path id="_Compound_Path_27" data-name="&lt;Compound Path&gt;" d="M105.06,71.66l-9.86-1,.21-1.5,9.91,1-.26,1.5Zm-9.63-2.42-.18,1.41,9.76.94.27-1.39-9.85-1Z"/></g><polygon id="_Path_43" data-name="&lt;Path&gt;" class="cls-8" points="95.27 68.83 95.01 70.83 95.42 70.83 95.72 68.99 95.27 68.83"/><g id="_Group_35" data-name="&lt;Group&gt;"><path id="_Compound_Path_28" data-name="&lt;Compound Path&gt;" d="M95.46,70.86H95l.22-2,.49.13-.26,1.9Zm-.2-2-.21,2,.34,0,.29-1.8-.42-.12Z"/></g><polygon id="_Path_44" data-name="&lt;Path&gt;" class="cls-8" points="96.91 69.15 96.8 70.95 97.06 70.97 97.26 69.39 96.91 69.15"/><g id="_Group_36" data-name="&lt;Group&gt;"><path id="_Compound_Path_29" data-name="&lt;Compound Path&gt;" d="M97.1,71l-.31,0,.08-1.84.41.2L97.1,71Zm-.21-1.84,0,1.77.23,0h0l.2-1.59-.33-.2Z"/></g><polygon id="_Path_45" data-name="&lt;Path&gt;" class="cls-8" points="103.6 69.92 103.37 71.61 103.84 71.58 104.03 69.92 103.6 69.92"/><g id="_Group_37" data-name="&lt;Group&gt;"><polygon id="_Path_46" data-name="&lt;Path&gt;" points="103.32 71.65 103.57 69.92 104.03 69.89 103.88 71.6 103.32 71.65 103.32 71.65"/></g><path id="_Path_47" data-name="&lt;Path&gt;" class="cls-8" d="M105.07,70l-.34,2,.55.08.16-1a.46.46,0,0,0,.45.37.45.45,0,0,0,.46-.46.44.44,0,0,0-.46-.44.43.43,0,0,0-.41.3l.11-.73Z"/><g id="_Group_38" data-name="&lt;Group&gt;"><path id="_Compound_Path_30" data-name="&lt;Compound Path&gt;" d="M105.31,72l-.59-.09.31-2h.56l-.06.71c.08-.44.88-.23.88.21s-.92.58-1,.11L105.31,72Zm.23-2h-.47l-.3,1.92.48,0,.13-1c.27.41.94.34.94-.09a.43.43,0,0,0-.81-.13l0-.75Z"/></g><polygon id="_Path_48" data-name="&lt;Path&gt;" class="cls-8" points="101.52 70.29 100.15 71.81 100.31 72.01 102.05 70.81 101.52 70.29"/><g id="_Group_39" data-name="&lt;Group&gt;"><path id="_Compound_Path_31" data-name="&lt;Compound Path&gt;" d="M100.31,72.06l-.18-.21,1.35-1.59.6.53-1.77,1.27Zm1.17-1.74-1.29,1.53.12.16v0L102,70.79l-.55-.47Z"/></g><polygon id="_Path_49" data-name="&lt;Path&gt;" class="cls-8" points="98.35 74.09 99.71 72.57 99.55 72.38 97.81 73.58 98.35 74.09"/><g id="_Group_40" data-name="&lt;Group&gt;"><path id="_Compound_Path_32" data-name="&lt;Compound Path&gt;" d="M98.36,74.15l-.57-.55,1.77-1.26.18.2-1.38,1.61Zm1.32-1.61L97.84,73.6l.51.44,1.33-1.5Z"/></g><polygon id="_Path_50" data-name="&lt;Path&gt;" class="cls-8" points="101.9 73.72 100.25 72.43 100.08 72.56 101.39 74.21 101.9 73.72"/><g id="_Group_41" data-name="&lt;Group&gt;"><path id="_Compound_Path_33" data-name="&lt;Compound Path&gt;" d="M101.38,74.27l-1.33-1.69.23-.18,1.66,1.29-.56.58Zm-1.14-1.8,1.15,1.68.5-.46-1.65-1.22Z"/></g><polygon id="_Path_51" data-name="&lt;Path&gt;" class="cls-8" points="97.84 70.77 99.51 72.01 99.71 71.85 98.41 70.2 97.84 70.77"/><g id="_Group_42" data-name="&lt;Group&gt;"><path id="_Compound_Path_34" data-name="&lt;Compound Path&gt;" d="M99.51,72l-1.7-1.24.56-.63,1.4,1.69-.26.18Zm-1.14-1.81-.51.57L99.51,72l.17-.14-1.31-1.58Z"/></g><polygon id="_Path_52" data-name="&lt;Path&gt;" class="cls-8" points="99.66 69.75 99.82 71.76 100.05 71.75 100.57 69.8 99.66 69.75"/><g id="_Group_43" data-name="&lt;Group&gt;"><path id="_Compound_Path_35" data-name="&lt;Compound Path&gt;" d="M99.78,71.8l-.17-2h1l-.5,2Zm.76-2-.89,0,.2,1.91H100l.51-1.93Z"/></g><polygon id="_Path_53" data-name="&lt;Path&gt;" class="cls-8" points="100.2 74.62 100.05 72.61 99.79 72.59 99.49 74.62 100.2 74.62"/><g id="_Group_44" data-name="&lt;Group&gt;"><path id="_Compound_Path_36" data-name="&lt;Compound Path&gt;" d="M100.25,74.67h-.76l.28-2.12.28,0,.2,2.1ZM100,72.61l-.46,2,.62,0-.16-2Z"/></g><polygon id="_Path_54" data-name="&lt;Path&gt;" class="cls-8" points="102.43 71.92 100.31 72.13 100.3 72.34 102.42 72.61 102.43 71.92"/><g id="_Group_45" data-name="&lt;Group&gt;"><path id="_Compound_Path_37" data-name="&lt;Compound Path&gt;" d="M102.46,72.66l-2.18-.28,0-.28,2.11-.23,0,.79Zm-.07-.74-2.06.27,2,.38v-.65Z"/></g><polygon id="_Path_55" data-name="&lt;Path&gt;" class="cls-8" points="97.43 72.61 99.48 72.29 99.51 72.13 97.39 71.89 97.43 72.61"/><g id="_Group_46" data-name="&lt;Group&gt;"><polygon id="_Path_56" data-name="&lt;Path&gt;" points="97.38 72.66 97.35 71.89 99.52 72.1 99.13 72.19 97.39 71.93 97.45 72.56 98.15 72.46 97.38 72.66 97.38 72.66"/></g><path id="_Path_57" data-name="&lt;Path&gt;" class="cls-8" d="M100.48,72.14a.54.54,0,0,1-.56.54.54.54,0,1,1,.56-.54Z"/><g id="_Group_47" data-name="&lt;Group&gt;"><path id="_Compound_Path_38" data-name="&lt;Compound Path&gt;" d="M99.92,72.73a.59.59,0,0,1-.59-.59c0-.64,1.2-.63,1.18,0a.59.59,0,0,1-.59.59Zm0-1.08a.5.5,0,0,0-.52.49c0,.56,1,.56,1,0a.5.5,0,0,0-.52-.49Z"/></g><path id="_Compound_Path_39" data-name="&lt;Compound Path&gt;" class="cls-8" d="M102.88,72.14a3,3,0,1,1-3-2.85,2.91,2.91,0,0,1,3,2.85Zm-.59,0a2.37,2.37,0,1,1-2.37-2.28,2.34,2.34,0,0,1,2.37,2.28Z"/><g id="_Group_48" data-name="&lt;Group&gt;"><path id="_Compound_Path_40" data-name="&lt;Compound Path&gt;" d="M99.92,75a2.9,2.9,0,1,1,3-2.9,2.94,2.94,0,0,1-3,2.9Zm0-5.71a2.82,2.82,0,1,0,2.93,2.81,2.86,2.86,0,0,0-2.93-2.81Zm0,5.15a2.34,2.34,0,1,1,2.4-2.34,2.38,2.38,0,0,1-2.4,2.34Zm0-4.59a2.25,2.25,0,1,0,2.33,2.25,2.3,2.3,0,0,0-2.33-2.25Z"/></g><g id="_Group_49" data-name="&lt;Group&gt;"><path id="_Compound_Path_41" data-name="&lt;Compound Path&gt;" class="cls-1" d="M98.07,70.71l-.46-.35Zm3.32-.33.39-.42Zm.85,3.59-.49-.39Zm-4.17.43L98.5,74Z"/></g><polygon id="_Path_58" data-name="&lt;Path&gt;" class="cls-8" points="108.05 69.33 108.55 71.9 108.14 72.13 107.68 69.36 108.05 69.33"/><g id="_Group_50" data-name="&lt;Group&gt;"><path id="_Compound_Path_42" data-name="&lt;Compound Path&gt;" d="M108.1,72.19l-.46-2.83.39-.07.55,2.61-.48.29Zm-.1-2.86-.3.07.46,2.66.38-.19L108,69.33Z"/></g><path id="_Path_59" data-name="&lt;Path&gt;" class="cls-9" d="M107.78,69a1.28,1.28,0,0,1-1-.57c-.82.76,0,.87.08,1.62.23.1.38-.57,1-.65l1-.08L108.6,69Z"/><g id="_Group_51" data-name="&lt;Group&gt;"><path id="_Compound_Path_43" data-name="&lt;Compound Path&gt;" d="M106.85,70.08h0a2,2,0,0,0-.29-.6c-.2-.32-.37-.56.21-1.07a1.26,1.26,0,0,0,.85.51l.41,0,.62,0,.26.35-1,.14a1,1,0,0,0-.7.45c-.11.12-.19.2-.29.2Zm-.14-1.63c-.46.48-.33.67-.13,1a1.76,1.76,0,0,1,.27.62v0c.07,0,.14-.08.23-.18a1,1,0,0,1,.74-.47l1-.09-.27-.27L108,69l-.41,0a1.12,1.12,0,0,1-.86-.54Z"/></g><path id="_Path_60" data-name="&lt;Path&gt;" class="cls-9" d="M108.1,69.5l-.08-.78c-.11-.26-.45,0-.45.13l.1.71Z"/><g id="_Group_52" data-name="&lt;Group&gt;"><path id="_Path_61" data-name="&lt;Path&gt;" d="M107.64,69.61l-.1-.76a.35.35,0,0,1,.32-.29l0,.15c-.17,0-.29.07-.29.14l.09.67.4-.06,0-.24.09.28-.52.11Z"/></g><path id="_Path_62" data-name="&lt;Path&gt;" class="cls-8" d="M102.37,75.88a.32.32,0,0,1-.16.27.31.31,0,0,1-.32,0,.3.3,0,0,1-.16-.27.3.3,0,0,1,.16-.28.31.31,0,0,1,.32,0,.32.32,0,0,1,.16.28Z"/><g id="_Group_53" data-name="&lt;Group&gt;"><path id="_Path_63" data-name="&lt;Path&gt;" class="cls-1" d="M102.37,75.88a.32.32,0,0,1-.16.27.31.31,0,0,1-.32,0,.3.3,0,0,1-.16-.27.3.3,0,0,1,.16-.28.31.31,0,0,1,.32,0A.32.32,0,0,1,102.37,75.88Z"/></g><path id="_Path_64" data-name="&lt;Path&gt;" class="cls-8" d="M101.54,75.29a.32.32,0,0,1-.16.27.38.38,0,0,1-.33,0,.32.32,0,0,1-.16-.27.3.3,0,0,1,.16-.27.32.32,0,0,1,.33,0,.3.3,0,0,1,.16.27Z"/><g id="_Group_54" data-name="&lt;Group&gt;"><path id="_Path_65" data-name="&lt;Path&gt;" class="cls-1" d="M101.54,75.29a.32.32,0,0,1-.16.27.38.38,0,0,1-.33,0,.32.32,0,0,1-.16-.27.3.3,0,0,1,.16-.27.32.32,0,0,1,.33,0A.3.3,0,0,1,101.54,75.29Z"/></g><path id="_Path_66" data-name="&lt;Path&gt;" class="cls-8" d="M100.42,75.68a.34.34,0,0,1-.16.27.38.38,0,0,1-.33,0,.34.34,0,0,1-.16-.27.33.33,0,0,1,.16-.28.38.38,0,0,1,.33,0,.33.33,0,0,1,.16.28Z"/><g id="_Group_55" data-name="&lt;Group&gt;"><path id="_Path_67" data-name="&lt;Path&gt;" class="cls-1" d="M100.42,75.68a.34.34,0,0,1-.16.27.38.38,0,0,1-.33,0,.34.34,0,0,1-.16-.27.33.33,0,0,1,.16-.28.38.38,0,0,1,.33,0A.33.33,0,0,1,100.42,75.68Z"/></g><path id="_Path_68" data-name="&lt;Path&gt;" class="cls-8" d="M98.69,76.05a.29.29,0,0,1-.17.27.31.31,0,0,1-.32,0,.32.32,0,0,1,0-.55.44.44,0,0,1,.32,0,.29.29,0,0,1,.17.28Z"/><g id="_Group_56" data-name="&lt;Group&gt;"><path id="_Path_69" data-name="&lt;Path&gt;" class="cls-1" d="M98.69,76.05a.29.29,0,0,1-.17.27.31.31,0,0,1-.32,0,.32.32,0,0,1,0-.55.44.44,0,0,1,.32,0A.29.29,0,0,1,98.69,76.05Z"/></g><path id="_Path_70" data-name="&lt;Path&gt;" class="cls-8" d="M98,76.14a.35.35,0,0,1-.16.27.33.33,0,0,1-.33,0,.35.35,0,0,1-.16-.27.34.34,0,0,1,.16-.28.38.38,0,0,1,.33,0,.34.34,0,0,1,.16.28Z"/><g id="_Group_57" data-name="&lt;Group&gt;"><path id="_Path_71" data-name="&lt;Path&gt;" class="cls-1" d="M98,76.14a.35.35,0,0,1-.16.27.33.33,0,0,1-.33,0,.35.35,0,0,1-.16-.27.34.34,0,0,1,.16-.28.38.38,0,0,1,.33,0A.34.34,0,0,1,98,76.14Z"/></g><path id="_Path_72" data-name="&lt;Path&gt;" class="cls-8" d="M97.24,76.14a.33.33,0,0,1-.16.27.31.31,0,0,1-.32,0,.33.33,0,0,1-.16-.27.32.32,0,0,1,.16-.28.36.36,0,0,1,.32,0,.32.32,0,0,1,.16.28Z"/><g id="_Group_58" data-name="&lt;Group&gt;"><path id="_Path_73" data-name="&lt;Path&gt;" class="cls-1" d="M97.24,76.14a.33.33,0,0,1-.16.27.31.31,0,0,1-.32,0,.33.33,0,0,1-.16-.27.32.32,0,0,1,.16-.28.36.36,0,0,1,.32,0A.32.32,0,0,1,97.24,76.14Z"/></g><path id="_Path_74" data-name="&lt;Path&gt;" class="cls-8" d="M96.5,76.11a.34.34,0,0,1-.14.28.38.38,0,0,1-.33,0,.33.33,0,0,1-.18-.28.3.3,0,0,1,.18-.27.38.38,0,0,1,.33,0,.31.31,0,0,1,.14.27Z"/><g id="_Group_59" data-name="&lt;Group&gt;"><path id="_Path_75" data-name="&lt;Path&gt;" class="cls-1" d="M96.5,76.11a.34.34,0,0,1-.14.28.38.38,0,0,1-.33,0,.33.33,0,0,1-.18-.28.3.3,0,0,1,.18-.27.38.38,0,0,1,.33,0A.31.31,0,0,1,96.5,76.11Z"/></g><path id="_Path_76" data-name="&lt;Path&gt;" class="cls-8" d="M96.87,75.56a.31.31,0,0,1-.17.26.29.29,0,0,1-.31,0,.29.29,0,0,1-.18-.26.34.34,0,0,1,.49-.27.31.31,0,0,1,.17.27Z"/><g id="_Group_60" data-name="&lt;Group&gt;"><path id="_Path_77" data-name="&lt;Path&gt;" class="cls-1" d="M96.87,75.56a.31.31,0,0,1-.17.26.29.29,0,0,1-.31,0,.29.29,0,0,1-.18-.26.34.34,0,0,1,.49-.27A.31.31,0,0,1,96.87,75.56Z"/></g><path id="_Path_78" data-name="&lt;Path&gt;" class="cls-8" d="M97.58,75.59a.3.3,0,0,1-.16.27.32.32,0,0,1-.33,0,.33.33,0,0,1-.17-.27.35.35,0,0,1,.17-.28.38.38,0,0,1,.33,0,.32.32,0,0,1,.16.28Z"/><g id="_Group_61" data-name="&lt;Group&gt;"><path id="_Path_79" data-name="&lt;Path&gt;" class="cls-1" d="M97.58,75.59a.3.3,0,0,1-.16.27.32.32,0,0,1-.33,0,.33.33,0,0,1-.17-.27.35.35,0,0,1,.17-.28.38.38,0,0,1,.33,0A.32.32,0,0,1,97.58,75.59Z"/></g><path id="_Path_80" data-name="&lt;Path&gt;" class="cls-8" d="M98.25,75.5a.29.29,0,0,1-.16.27.33.33,0,0,1-.33,0,.29.29,0,0,1-.16-.27.3.3,0,0,1,.16-.26.29.29,0,0,1,.33,0,.3.3,0,0,1,.16.26Z"/><g id="_Group_62" data-name="&lt;Group&gt;"><path id="_Path_81" data-name="&lt;Path&gt;" class="cls-1" d="M98.25,75.5a.29.29,0,0,1-.16.27.33.33,0,0,1-.33,0,.29.29,0,0,1-.16-.27.3.3,0,0,1,.16-.26.29.29,0,0,1,.33,0A.3.3,0,0,1,98.25,75.5Z"/></g><path id="_Path_82" data-name="&lt;Path&gt;" class="cls-8" d="M97.9,75a.31.31,0,0,1-.16.27.29.29,0,0,1-.31,0,.33.33,0,0,1-.18-.27.32.32,0,0,1,.18-.27.34.34,0,0,1,.31,0,.3.3,0,0,1,.16.27Z"/><g id="_Group_63" data-name="&lt;Group&gt;"><path id="_Path_83" data-name="&lt;Path&gt;" class="cls-1" d="M97.9,75a.31.31,0,0,1-.16.27.29.29,0,0,1-.31,0,.33.33,0,0,1-.18-.27.32.32,0,0,1,.18-.27.34.34,0,0,1,.31,0A.3.3,0,0,1,97.9,75Z"/></g><path id="_Path_84" data-name="&lt;Path&gt;" class="cls-8" d="M97.24,74.94a.33.33,0,0,1-.16.28.31.31,0,0,1-.32,0,.33.33,0,0,1-.16-.28.29.29,0,0,1,.16-.26.31.31,0,0,1,.32,0,.29.29,0,0,1,.16.26Z"/><g id="_Group_64" data-name="&lt;Group&gt;"><path id="_Path_85" data-name="&lt;Path&gt;" class="cls-1" d="M97.24,74.94a.33.33,0,0,1-.16.28.31.31,0,0,1-.32,0,.33.33,0,0,1-.16-.28.29.29,0,0,1,.16-.26.31.31,0,0,1,.32,0A.29.29,0,0,1,97.24,74.94Z"/></g><path id="_Path_86" data-name="&lt;Path&gt;" class="cls-9" d="M102.81,73.81c-.28-.12-.28.51-.28.51H103c.19.08.35.36.22.5s-1-.19-1,0a1.18,1.18,0,0,0,1.69.81c.4-.36.5-1.33-.79-1.6Z"/><g id="_Group_65" data-name="&lt;Group&gt;"><path id="_Compound_Path_44" data-name="&lt;Compound Path&gt;" d="M103.41,75.81a1.33,1.33,0,0,1-.43-.07,1.22,1.22,0,0,1-.83-.92c0-.14.3-.1.59-.06a1,1,0,0,0,.42,0c0-.28-.09-.4-.2-.45h-.43c0-.09,0-.48.13-.6v0l.18,0,.27.24a1.22,1.22,0,0,1,1,.76.93.93,0,0,1-.25.89.72.72,0,0,1-.49.16Zm-1.09-1s-.1,0-.1,0a1.15,1.15,0,0,0,.8.83.73.73,0,0,0,1-.87,1.15,1.15,0,0,0-1-.72l-.11.23a.53.53,0,0,1,.28.34c-.1.28-.27.26-.55.21a2.87,2.87,0,0,0-.41,0Zm-8-.67-.43-1.77h0l2.75,1.1,0,.08-2.71-1.18.5,1.75-.07,0ZM94.8,74l-.64-1.37L94.88,74l-.08,0Zm1.14-.33-1.46-.78,1.5.71,0,.07Z"/></g><path id="_Path_87" data-name="&lt;Path&gt;" class="cls-11" d="M92.24,71a6.33,6.33,0,0,0-1.16.06c-.07,0,.26.34.19.48-.26.46-1.94.4-2.06.3s1.55-.34,1.57-.46-.27-.49-.22-.71.78-.41.78-.41Z"/><g id="_Group_66" data-name="&lt;Group&gt;"><path id="_Path_88" data-name="&lt;Path&gt;" class="cls-13" d="M89.87,72a1.78,1.78,0,0,1-.68-.08c0-.17.26-.24.89-.35a3.08,3.08,0,0,0,.68-.15c-.18-.39-.26-.58-.24-.71.06-.32.75-.42.82-.44l.94.74c-.5,0-.81.07-1,.1A1.63,1.63,0,0,1,92,71l-.71-.66c-.15,0-.68.15-.71.38a.83.83,0,0,0,.11.43.9.9,0,0,1,.11.29c0,.07-.15.11-.74.21a3.39,3.39,0,0,0-.86.21c.09.06,1.78.14,2-.3,0,0-.07-.19-.12-.28s0-.06,0-.07c.13.18.19.31.16.39-.21.37-1.15.4-1.44.4Z"/></g><path id="_Path_89" data-name="&lt;Path&gt;" class="cls-14" d="M93.57,71.93l-2.23-1.86s-.1-.1-.19,0,0,.19,0,.19l2.31,1.91Z"/><g id="_Group_67" data-name="&lt;Group&gt;"><path id="_Compound_Path_45" data-name="&lt;Compound Path&gt;" d="M93.51,72.22l-2.34-1.94v0l.07-.28,2.38,1.93-.11.31Zm-2.2-2.12,2.17,2,.07-.19L91.31,70.1Z"/></g><path id="_Path_90" data-name="&lt;Path&gt;" class="cls-8" d="M95.73,73.76,93.9,72.17l-.11-.45a3.47,3.47,0,0,0-.38.29,2,2,0,0,0-.25.35l.5,0,1.57,1.45Z"/><g id="_Group_68" data-name="&lt;Group&gt;"><path id="_Compound_Path_46" data-name="&lt;Compound Path&gt;" d="M95.22,73.87l-1.6-1.46h-.46c0-.06.11-.32.22-.43a3.34,3.34,0,0,1,.38-.28l.18.47h0l1.82,1.56-.54.15Zm-1.56-1.52,1.59,1.44.47-.07c-.09,0-1.84-1.53-1.84-1.53l-.13-.45c0,.07-.23.21-.31.29a2,2,0,0,0-.25.35l.47,0Z"/></g><path id="_Compound_Path_47" data-name="&lt;Compound Path&gt;" class="cls-8" d="M105.66,71.62v.73c-.23.08-.2.25-.2.51V75c-.08.13-.34.15-.45.26s-.12.32.44.45l.43,0c.65-.14.78-.36.45-.47a1.86,1.86,0,0,1-.49-.25l0-.51.43,0c.11,0,.33-.3.34-.52V72.87a.62.62,0,0,0-.61-.68v-.57Zm.72,1.2c0-.17-.26-.32-.35-.33a.47.47,0,0,0-.33.38v.43c0,.18.14.7.39.76s.29-.18.29-.34Z"/><g id="_Group_69" data-name="&lt;Group&gt;"><path id="_Compound_Path_48" data-name="&lt;Compound Path&gt;" d="M105.9,75.73l-.43,0c-.42-.1-.53-.23-.54-.33l.28-.31c.11,0,.2-.06.23-.13V72.86c0-.3,0-.46.21-.55l0-.69.42,0,0,.6c.21,0,.6.11.61.68V74c0,.22-.23.56-.37.56l-.43,0,0,.46a2.31,2.31,0,0,0,.43.19c.21.08.24.16.24.21s-.25.27-.67.37Zm.11-4.11-.35,0,0,.68c-.19.1-.19.21-.19.43l0,2.17a.56.56,0,0,1-.28.19l-.24.22s.07.17.47.27h.42c.42-.1.58-.21.58-.28a5.82,5.82,0,0,1-.65-.37v-.54l.47,0a.64.64,0,0,0,.29-.47V72.87c0-.62-.49-.64-.54-.64l0-.61Zm.11,2.47h0c-.33,0-.44-.66-.45-.78v-.44a.48.48,0,0,1,.36-.42h0c.11,0,.4.17.39.37v.9c0,.16-.14.37-.3.37Zm-.09-1.6v0a.46.46,0,0,0-.29.35v.43c0,.2.16.69.35.72h0c.14,0,.23-.17.23-.3v-.9c0-.14-.22-.28-.3-.3v0Z"/></g><path id="_Path_91" data-name="&lt;Path&gt;" class="cls-6" d="M109.64,51.68c-3.41-3.42-6.09-1.75-6.74-1.28.42.08.8-.19,1-.21-.12.15-.37.53-.37.53a5.88,5.88,0,0,1,1.15-.44,2.64,2.64,0,0,0-.31.41c.08,0,.66-.47.8-.48a1.46,1.46,0,0,0-.24.68l.51-.24c.14.09,0,.27.07.27a3.35,3.35,0,0,1,2.22,1Z"/><g id="_Group_70" data-name="&lt;Group&gt;"><path id="_Compound_Path_49" data-name="&lt;Compound Path&gt;" d="M107.77,51.94a3.91,3.91,0,0,0-2.26-1l0-.1,0,0a3.31,3.31,0,0,1,2.26,1Zm1.84-.24c-3.31-3.31-6-1.81-6.68-1.28a2.6,2.6,0,0,0,.73-.19l.12,0a1.29,1.29,0,0,1-.89.24c.73-.63,3.43-2.15,6.76,1.21l0,.05Zm-4.67-.78a1,1,0,0,1,.13-.65,1.7,1.7,0,0,1-.28.21c-.29.21-.37.27-.44.24a1.17,1.17,0,0,1,.31-.47s-.62.28-1.13.51c0,0,.17-.38.3-.56h.1c-.13.17-.37.55-.37.55a2.79,2.79,0,0,1,1.15-.5,4.66,4.66,0,0,0-.29.43,2.08,2.08,0,0,1,.33-.27,1.68,1.68,0,0,1,.4-.24,3.43,3.43,0,0,0-.19.72l.46-.28,0,.08-.5.23Z"/></g><path id="_Path_92" data-name="&lt;Path&gt;" class="cls-6" d="M108.78,52.3c-.35-.83-6.83-2.19-8.13.11.5.12,1-.43,1-.43l0,.51.87-.67-.31.68.7-.55,0,.55.85-.91-.1.54.75-.33-.1.45Z"/><g id="_Group_71" data-name="&lt;Group&gt;"><path id="_Path_93" data-name="&lt;Path&gt;" d="M102.17,52.54l.26-.73-.81.7,0-.52a1,1,0,0,1-1,.45c.69-1.31,2.81-1.39,4-1.33,1.9.1,4,.68,4.17,1.17l-.07,0c-.17-.42-2.1-1-4.1-1.12-1.18-.07-3.27,0-4,1.23.45.07.94-.47.94-.47l0,.54.8-.7-.26.73.63-.59,0,.58.78-.95,0,.57.69-.37,0,.5V51.8l-.7.36.05-.58-.77,1,0-.58-.63.59Z"/></g><path id="_Path_94" data-name="&lt;Path&gt;" class="cls-6" d="M108.5,52.42c-1.67-1.11-4.24-.35-4.24-.35-1.65.91-2.52.76-2.73,2.45a3.47,3.47,0,0,0,.61-.59l.32.65.1-.94.29.73.38-1.19.09.81.63-.81.29.23.26-.62.25.39s.42-.26.66-.09l.47-.53.12.36.39-.45.15.35.41-.37,0,.25,1.37,0Z"/><g id="_Group_72" data-name="&lt;Group&gt;"><path id="_Path_95" data-name="&lt;Path&gt;" d="M102.49,54.6l-.39-.66a1.79,1.79,0,0,1-.55.62c.11-1.34.66-1.58,1.57-2a10.89,10.89,0,0,0,1.13-.53s2.6-.75,4.26.36l0,.07c-1.64-1.09-4.19-.37-4.21-.37a8.69,8.69,0,0,1-1.11.55c-.92.42-1.43.64-1.59,1.89l.53-.62.39.66,0-.93.34.72.32-1.19.18.82.55-.83.34.22.21-.62.31.42a.62.62,0,0,1,.66-.12l.41-.54.18.4.32-.48.23.36.41-.45,0,.36,1.33,0-1.37.06h0l0-.3-.35.41-.22-.36L106,53l-.18-.41-.4.56c-.26-.13-.67.1-.67.1l-.3-.42-.2.62-.35-.21-.56.8-.17-.83-.32,1.21-.33-.73-.05.94Z"/></g><path id="_Path_96" data-name="&lt;Path&gt;" class="cls-6" d="M108.12,52.61c-1.16,0-4.48,1.24-5.34,2.56a5.21,5.21,0,0,1,.54-.27l.17.51.22-.51,0,.4c.14-.32.28-.36.52,0l.09-.49.13.47.23-.51s.13.56.22.53.37-1,.52-1l.06.61.22-.61.19.46,0-.65.22.5s.12-.5.29-.58l.33.3,1.48-1.07Z"/><g id="_Group_73" data-name="&lt;Group&gt;"><path id="_Path_97" data-name="&lt;Path&gt;" d="M103.53,55.43l-.23-.52a2.63,2.63,0,0,1-.51.29c.83-1.4,4.13-2.62,5.3-2.62h0v.08h0c-1.17,0-4.44,1.25-5.28,2.52a2.64,2.64,0,0,1,.5-.33l.22.55.14-.53.12.43c0-.19.08-.29.16-.3s.2,0,.34.25l0-.47.21.46.14-.52a3.8,3.8,0,0,0,.28.51c0-.14.33-.95.5-1l.1.62.15-.61.27.44,0-.62.28.46a.87.87,0,0,1,.26-.58l.38.31,1.42-1.08-1.43,1.13-.38-.29a1.59,1.59,0,0,0-.22.55l-.3-.48,0,.63-.27-.44-.15.6-.12-.6a5.69,5.69,0,0,0-.45,1c-.18,0-.28-.43-.31-.55l-.14.53-.21-.48,0,.48a1.24,1.24,0,0,0-.33-.19c-.06,0-.12.08-.18.24l-.11-.42-.14.53Z"/></g><path id="_Path_98" data-name="&lt;Path&gt;" class="cls-6" d="M108.35,52.88c-1.55.6-2.94,2.72-2.82,3.62.67-.85.53-.72.84.25a3.61,3.61,0,0,1,.23-1l.21.64.07-.82h.21l-.06-.52.3.24c-.07-.31-.14-.39.17-.67,0,0-.39.07-.07-.66l.29.29s0-.33,0-.44l1.09-.38Z"/><g id="_Group_74" data-name="&lt;Group&gt;"><path id="_Compound_Path_50" data-name="&lt;Compound Path&gt;" d="M106.42,56.75l-.22-.4c0-.21-.09-.37-.14-.39h0c-.06,0-.21.18-.41.45a0,0,0,0,0,0,0c.27-.4.37-.5.44-.48s.13.15.21.43l.13.38a1.68,1.68,0,0,1,.17-1l.26.66v-.82l.15-.5.09,0-.07,0,.12.49-.29.82-.27-.62c0,.08-.12.62-.15,1Zm-.77-.83a4.88,4.88,0,0,1,2.68-3.07l0,.07a5.28,5.28,0,0,0-2.71,3Zm1.71-1.38c-.12-.13-.09-.32,0-.58l.33.26a.39.39,0,0,1,0-.4l1.11-.4-1.06.45a.76.76,0,0,0,0,.39L107.4,54a.81.81,0,0,0,0,.52Z"/></g><path id="_Path_99" data-name="&lt;Path&gt;" class="cls-6" d="M108.49,53.06l-.59,1.1.31.09-.68.5.57-.06a1.58,1.58,0,0,0-1,1.18l.88-.39a4,4,0,0,0-.85,1.22l.51-.44a1.86,1.86,0,0,0-.42,1.34l.38-.41A2.09,2.09,0,0,0,108,59a4.4,4.4,0,0,1,0-1.3l1,1-.55-1.47s.61.94,1,.85l-.79-1.19.76.61-.86-1.28.81.23s-.59-.74-.54-1.18l.54.6a2.72,2.72,0,0,1-.13-.9l.28,0-.56-.63.38-.07,0-.42.27-.09v-.45Z"/><g id="_Group_75" data-name="&lt;Group&gt;"><path id="_Compound_Path_51" data-name="&lt;Compound Path&gt;" d="M108.05,59a1.88,1.88,0,0,1-.46-1.82l-.32.44a1.76,1.76,0,0,1,.37-1.38v0a3.18,3.18,0,0,0-.35,1.38l.31-.46a2.33,2.33,0,0,0,.45,1.84,2.43,2.43,0,0,1,0-1.31l1,1-.62-1.4c.23.21.71.87,1,.79l-.81-1.14.83.57-.93-1.24.82.18a1.83,1.83,0,0,1-.55-1.16l.57.55a1.75,1.75,0,0,1-.18-.86l.34,0-.6-.56.4-.14-.08-.37.3-.14,0-.41.08.45-.29.12.06.39-.41.11.59.56-.32,0a5.45,5.45,0,0,0,.19.84l-.62-.56a3.08,3.08,0,0,0,.6,1.14l-.85-.17.91,1.22-.82-.56.83,1.13c-.44.17-1-.75-1-.79l.62,1.42-1-1a6.78,6.78,0,0,0,0,1.27Zm0-1.26a7.32,7.32,0,0,0,.27-1.76,5,5,0,0,1,.7-2.62l.06,0a4.9,4.9,0,0,0-.68,2.57,4.34,4.34,0,0,1-.35,1.76Zm-.89-1a2.91,2.91,0,0,1,.8-1.28l-.84.45a1.52,1.52,0,0,1,.94-1.25h0c0,.09-.83.4-.93,1.23l.83-.44c0,.07-.7.83-.81,1.27l.44-.45-.44.47Zm.34-1.92.66-.59h-.29l.56-1.18.07,0L108,54.19l.27,0-.66.57.52-.13-.55.16Z"/></g><path id="_Compound_Path_52" data-name="&lt;Compound Path&gt;" class="cls-8" d="M103.78,76.29c0-.14-.35-.08-.35-.24s.52,0,.59.11c.29-.27.41-.07.59,0a.52.52,0,0,1,.87-.08.56.56,0,0,1,.77.08.48.48,0,0,1,.76,0c.08-.15.19-.13.28,0a.46.46,0,0,1,.71,0c.16-.16.29,0,.49.09.13-.12.34-.11.34,0s-.27.08-.27.21.2.06.2.2-.29.15-.34,0a25.67,25.67,0,0,0-1-.09c-.13.11-.28.12-.35,0a.46.46,0,0,1-.75-.08h-.11a.4.4,0,0,1-.68,0,.56.56,0,0,1-.8,0c-.25.3-.61.28-.69,0-.16.12-.5.16-.5,0s.29-.07.29-.19Zm.72.06c0,.07-.09.12-.19.12s-.2,0-.2-.12.09-.12.2-.12.19.06.19.12Zm.8-.09c0,.07-.1.13-.24.13s-.22-.06-.22-.13.1-.14.22-.14.24.06.24.14Zm1.57.09c0,.07-.09.12-.21.12s-.21,0-.21-.12.09-.14.21-.14.21.05.21.14Zm-.84,0c0,.09-.08.16-.2.16s-.21-.07-.21-.16a.21.21,0,0,1,.21-.19.19.19,0,0,1,.2.19Zm1.78,0a.17.17,0,0,1-.17.15.18.18,0,0,1-.19-.15.17.17,0,0,1,.19-.16.17.17,0,0,1,.17.16Zm-.55,0a.1.1,0,0,1-.11.1.11.11,0,0,1-.12-.1.13.13,0,0,1,.12-.11.11.11,0,0,1,.11.11Zm1.07,0a.14.14,0,0,1-.13.14.13.13,0,0,1-.13-.14.15.15,0,0,1,.13-.15.16.16,0,0,1,.13.15Z"/><g id="_Group_76" data-name="&lt;Group&gt;"><path id="_Compound_Path_53" data-name="&lt;Compound Path&gt;" d="M106.67,76.74a.47.47,0,0,1-.41-.21c.34.19.55.19.73,0l0,0,.38,0a.27.27,0,0,0,.24.14l.06-.07.25,0c0,.08.12.14.24.14-.19,0-.29,0-.31-.13,0,.21-.39.2-.55,0l-.31,0,0,0a.45.45,0,0,1-.37.17Zm-2.39,0a.36.36,0,0,1-.34-.25c0,.09-.16.13-.29.13v-.11a.53.53,0,0,0,.32-.05.4.4,0,0,0,.68,0c.39.21.53.18.81,0,.17.14.39.37.67,0a.17.17,0,0,1,.11,0c-.49.44-.7.14-.79,0a.53.53,0,0,1-.79,0,.4.4,0,0,1-.37.23Zm-.64-.32,0-.07c-.11-.16-.23-.19-.23-.3.35-.12.61,0,.65.09a.3.3,0,0,1,.25-.16l.32.18,0,0a.54.54,0,0,1,.92-.09c0-.19.61-.14.77.09.16-.28.5-.27.76,0,.55-.24.75-.24,1,0-.33-.06-.51-.19-.67.08l0,.06-.33,0a.44.44,0,0,0-.69,0,.65.65,0,0,0-.77-.08c-.43-.27-.64-.27-.86.07l-.36-.12a.47.47,0,0,0-.25.12.79.79,0,0,0-.46-.18l.23.29-.17.13Z"/></g><polygon id="_Path_100" data-name="&lt;Path&gt;" class="cls-8" points="113.2 64.25 114.31 61.87 113.83 61.77 111.81 65.71 113.2 64.25"/><g id="_Group_77" data-name="&lt;Group&gt;"><path id="_Compound_Path_54" data-name="&lt;Compound Path&gt;" d="M111.65,65.94l2.14-4.19.53.07-1.09,2.44-1.58,1.68Zm2.18-4.14L112,65.49l1.21-1.27,1.1-2.38-.44,0Z"/></g><polygon id="_Path_101" data-name="&lt;Path&gt;" class="cls-9" points="115.75 59.07 114.53 62.42 113.9 62.42 115.75 59.07"/><g id="_Group_78" data-name="&lt;Group&gt;"><path id="_Compound_Path_55" data-name="&lt;Compound Path&gt;" d="M114.57,62.47h-.67l1.83-3.41-1.16,3.41Zm1.15-3.41-1.79,3.4.57-.06,1.22-3.34Z"/></g><polygon id="_Path_102" data-name="&lt;Path&gt;" class="cls-8" points="112.06 61.16 111.44 61.15 110.32 65.86 110.55 67.34 112.06 61.16"/><g id="_Group_79" data-name="&lt;Group&gt;"><path id="_Compound_Path_56" data-name="&lt;Compound Path&gt;" d="M110.55,67.55l-.27-1.69,1.11-4.73.67,0-1.51,6.44Zm1.46-6.4-.57,0-1.08,4.68.2,1.29,1.45-6Z"/></g><polygon id="_Path_103" data-name="&lt;Path&gt;" class="cls-8" points="111.53 66.02 113.41 60.95 112.71 60.92 110.5 67.1 111.53 66.02"/><g id="_Group_80" data-name="&lt;Group&gt;"><path id="_Compound_Path_57" data-name="&lt;Compound Path&gt;" d="M110.41,67.26l2.27-6.36.73,0L111.56,66l-1.15,1.22Zm3-6.32h-.67l-2.1,6,.9-.94,1.87-5.06Z"/></g><polygon id="_Path_104" data-name="&lt;Path&gt;" class="cls-9" points="114.3 58.08 113.51 61.59 112.89 61.59 114.3 58.08"/><g id="_Group_81" data-name="&lt;Group&gt;"><path id="_Compound_Path_58" data-name="&lt;Compound Path&gt;" d="M113.55,61.62h-.66l1.37-3.57-.71,3.57Zm.71-3.56-1.33,3.54.55-.05.78-3.49Z"/></g><polygon id="_Path_105" data-name="&lt;Path&gt;" class="cls-9" points="112.69 58.02 112.27 61.64 111.82 61.63 112.69 58.02"/><g id="_Group_82" data-name="&lt;Group&gt;"><path id="_Compound_Path_59" data-name="&lt;Compound Path&gt;" d="M112.31,61.69l-.49,0,.83-3.66-.34,3.69Zm.34-3.67-.78,3.6h.37l.41-3.59Z"/></g><path id="_Path_106" data-name="&lt;Path&gt;" class="cls-10" d="M113.05,64.6l5-5.48a4.14,4.14,0,0,1,1.27,3.53l-5.69,4.45Z"/><g id="_Group_83" data-name="&lt;Group&gt;"><path id="_Compound_Path_60" data-name="&lt;Compound Path&gt;" d="M113.64,67.18,113,64.61l5-5.52a4.21,4.21,0,0,1,1.35,3.56l-5.75,4.53Zm4.41-8-5,5.47.6,2.41,5.64-4.43h0a4.15,4.15,0,0,0-1.27-3.45Z"/></g><path id="_Path_107" data-name="&lt;Path&gt;" class="cls-11" d="M110.14,67.61l3.74-3.76c1.57,0,.32,2.4.24,2.7l-4,3.39Z"/><g id="_Group_84" data-name="&lt;Group&gt;"><path id="_Compound_Path_61" data-name="&lt;Compound Path&gt;" d="M110.11,70V67.61l3.74-3.78h0a.84.84,0,0,1,.73.3c.34.57-.11,1.65-.33,2.19l-.11.26-4,3.45Zm3.77-6.14-3.7,3.76v2.2l3.9-3.34s0-.1.09-.23c.21-.51.66-1.58.32-2.1a.73.73,0,0,0-.62-.29Z"/></g><polygon id="_Path_108" data-name="&lt;Path&gt;" class="cls-8" points="110.47 66.97 118.17 58.73 118.47 58.94 110.32 67.99 110.47 66.97"/><g id="_Group_85" data-name="&lt;Group&gt;"><path id="_Compound_Path_62" data-name="&lt;Compound Path&gt;" d="M110.26,68.12l.16-1.16,7.71-8.26.35.22-8.22,9.2Zm7.88-9.36L110.49,67l-.13.88,8.07-9-.29-.16Z"/></g><polygon id="_Path_109" data-name="&lt;Path&gt;" class="cls-8" points="118.61 58.2 118.78 58.01 118.76 57.61 120.34 56.6 119.65 58.2 119.1 58.3 118.93 58.5 118.61 58.2"/><g id="_Group_86" data-name="&lt;Group&gt;"><path id="_Compound_Path_63" data-name="&lt;Compound Path&gt;" d="M118.91,58.53l-.36-.33.2-.22,0-.37,1.62-1-.67,1.65-.76.31Zm1.4-1.94-1.53,1.06,0,.37-.17.21.28.21.13-.17.58-.11.67-1.57Z"/></g><path id="_Path_110" data-name="&lt;Path&gt;" class="cls-8" d="M119.42,58.78a3.51,3.51,0,0,0-1.18-1l-.42.62.94.81Z"/><g id="_Group_87" data-name="&lt;Group&gt;"><path id="_Compound_Path_64" data-name="&lt;Compound Path&gt;" d="M118.76,59.3l-1-.8.42-.7a3.25,3.25,0,0,1,1.23,1l-.68.54Zm-.52-1.44-.39.63.91.73.64-.46a4.58,4.58,0,0,0-1.16-.9Z"/></g><path id="_Path_111" data-name="&lt;Path&gt;" class="cls-10" d="M115.24,66.06l6.3-5c1.09,1.1.19,4.5.19,4.5l-6.17,3.34Z"/><g id="_Group_88" data-name="&lt;Group&gt;"><path id="_Compound_Path_65" data-name="&lt;Compound Path&gt;" d="M115.53,68.94l-.33-2.88,6.32-5c1.14,1.1.29,4.38.25,4.52l-6.24,3.4Zm6-7.86-6.25,5,.33,2.72,6.11-3.31s.86-3.36-.19-4.42Z"/></g><path id="_Path_112" data-name="&lt;Path&gt;" class="cls-11" d="M110,70.12,115.2,66c1.77.26.39,2.86.27,3.14l-5.46,3Z"/><g id="_Group_89" data-name="&lt;Group&gt;"><path id="_Path_113" data-name="&lt;Path&gt;" d="M110,72.13v-2l5.21-4.2a1,1,0,0,1,.82.49c.4.74-.2,2.06-.43,2.58l-.1,0c.26-.58.84-1.89.46-2.58a.89.89,0,0,0-.74-.44l-5.14,4.14V72l4.11-2.24L110,72.13Z"/></g><polygon id="_Path_114" data-name="&lt;Path&gt;" class="cls-8" points="110.21 69.27 121.44 60.85 121.7 61.11 109.91 70.31 110.21 69.27"/><g id="_Group_90" data-name="&lt;Group&gt;"><path id="_Compound_Path_66" data-name="&lt;Compound Path&gt;" d="M109.84,70.42l.34-1.15,11.23-8.44.31.26-11.88,9.33Zm11.57-9.54-11.17,8.43-.26.9,11.69-9.13-.26-.2Z"/></g><polygon id="_Path_115" data-name="&lt;Path&gt;" class="cls-8" points="121.97 60.4 122.18 60.25 122.23 59.85 123.97 59.13 122.99 60.58 122.43 60.58 122.23 60.75 121.97 60.4"/><g id="_Group_91" data-name="&lt;Group&gt;"><path id="_Compound_Path_67" data-name="&lt;Compound Path&gt;" d="M122.2,60.78l-.29-.38.24-.19,0-.36,1.76-.76L123,60.6l-.83.18Zm1.74-1.68-1.71.79,0,.37-.22.16.24.29.18-.15H123l1-1.45Z"/></g><path id="_Path_116" data-name="&lt;Path&gt;" class="cls-8" d="M122.66,61.12a3.37,3.37,0,0,0-1-1.14l-.54.54.79,1Z"/><g id="_Group_92" data-name="&lt;Group&gt;"><path id="_Compound_Path_68" data-name="&lt;Compound Path&gt;" d="M121.91,61.53l-.8-1,.55-.61a3.23,3.23,0,0,1,1,1.15l-.78.43ZM121.66,60l-.49.56.77.85.7-.33a4.45,4.45,0,0,0-1-1.08Z"/></g><path id="_Path_117" data-name="&lt;Path&gt;" class="cls-10" d="M115.7,69.12c.08,0,8.12-4.59,8.12-4.59a2.73,2.73,0,0,1-.19,2.65,4,4,0,0,1-.33,2.39,3.64,3.64,0,0,1-1.17,2.21c-.73,2.81-3.61,3-4.72.71Z"/><g id="_Group_93" data-name="&lt;Group&gt;"><path id="_Compound_Path_69" data-name="&lt;Compound Path&gt;" d="M119.66,74.09a2.58,2.58,0,0,1-2.28-1.57l-1.72-3.39c.14-.11,5.39-3.06,8.14-4.63a2.62,2.62,0,0,1-.15,2.7,3.42,3.42,0,0,0,0,.44,3.47,3.47,0,0,1-.34,2,3.78,3.78,0,0,1-1.2,2.21,2.65,2.65,0,0,1-2.49,2.29Zm4.12-9.54c-1.28.78-8,4.58-8.07,4.6l1.74,3.32A2.51,2.51,0,0,0,119.66,74a2.62,2.62,0,0,0,2.42-2.26,3.72,3.72,0,0,0,1.19-2.2,3.25,3.25,0,0,0,.34-1.91,1.83,1.83,0,0,1,0-.47,2.73,2.73,0,0,0,.19-2.63Z"/></g><path id="_Path_118" data-name="&lt;Path&gt;" class="cls-11" d="M110.36,72.13l5.52-3.23c1.77.24,0,3.53-.14,3.83l-5.33,1.88Z"/><g id="_Group_94" data-name="&lt;Group&gt;"><path id="_Compound_Path_70" data-name="&lt;Compound Path&gt;" d="M110.38,74.67l0-2.54,5.53-3.27a.87.87,0,0,1,.7.43c.45.83-.38,2.57-.69,3.23l-.12.25-5.37,1.9Zm5.49-5.73-5.49,3.23.07,2.4,5.28-1.88c.37-.84,1.19-2.57.76-3.36a.77.77,0,0,0-.62-.39Z"/></g><polygon id="_Path_119" data-name="&lt;Path&gt;" class="cls-8" points="111.3 70.95 123.73 64.34 123.95 64.63 110.82 71.94 111.3 70.95"/><g id="_Group_95" data-name="&lt;Group&gt;"><path id="_Compound_Path_71" data-name="&lt;Compound Path&gt;" d="M110.74,72l.52-1.09,12.45-6.65.27.31L110.74,72Zm13-7.68L111.31,71l-.4.86,13-7.25-.24-.24Z"/></g><polygon id="_Path_120" data-name="&lt;Path&gt;" class="cls-8" points="124.35 63.97 124.56 63.85 124.69 63.48 126.52 63.02 125.31 64.3 124.78 64.22 124.54 64.35 124.35 63.97"/><g id="_Group_96" data-name="&lt;Group&gt;"><path id="_Compound_Path_72" data-name="&lt;Compound Path&gt;" d="M124.51,64.38l-.23-.42.26-.15.09-.35,1.89-.49-1.17,1.36-.59-.07-.25.12Zm2-1.4-1.8.53-.1.36-.22.14.18.29.19-.11.58.07L126.49,63Z"/></g><path id="_Path_121" data-name="&lt;Path&gt;" class="cls-8" d="M124.9,64.78a3.54,3.54,0,0,0-.78-1.27l-.62.46.62,1.06Z"/><g id="_Group_97" data-name="&lt;Group&gt;"><path id="_Compound_Path_73" data-name="&lt;Compound Path&gt;" d="M124.11,65.07,123.47,64l.64-.5a3,3,0,0,1,.83,1.3l-.83.29Zm0-1.53-.57.47.61,1,.75-.24a4.54,4.54,0,0,0-.79-1.2Z"/></g><path id="_Path_122" data-name="&lt;Path&gt;" class="cls-10" d="M120.26,60.16l-.25.48c-.16-.07-1.77-1.52-1.77-1.52l-1.16,0-.32-.37c.83-.91,1.64.14,1.64.14Z"/><g id="_Group_98" data-name="&lt;Group&gt;"><path id="_Compound_Path_74" data-name="&lt;Compound Path&gt;" class="cls-12" d="M120,60.67h0c-.17-.07-1.63-1.38-1.79-1.53l-1.13,0-.35-.39c.7-.9,1.67.05,1.69.09l1.87,1.32-.26.53Zm-2.54-2.3a1,1,0,0,0-.71.36l.34.31,1.12,0c.64.57,1.55,1.38,1.76,1.52l.23-.42-1.86-1.29a1.28,1.28,0,0,0-.88-.5Z"/></g><path id="_Path_123" data-name="&lt;Path&gt;" class="cls-11" d="M119.34,60.94a3.9,3.9,0,0,0-.93-1.45c-.57.18-1.11.51-1.68-.81.5.65,1.51,0,1.51,0l.45.36v.18L120,60.46Z"/><g id="_Group_99" data-name="&lt;Group&gt;"><path id="_Path_124" data-name="&lt;Path&gt;" class="cls-13" d="M119.31,61v-.06a4.13,4.13,0,0,0-.78-1.29,2.92,2.92,0,0,1,.84,1.22l.64-.45-1.78-1.72s-1.11.53-1.52,0c.73,1.34,1.09.94,1.54.8l.12,0c-1,.34-1.23.14-1.67-.84.58.38,1.53-.06,1.53-.06l.5.37L120,60.42l-.73.58Z"/></g><path id="_Path_125" data-name="&lt;Path&gt;" class="cls-10" d="M123.28,62.52l-.06.48c-.16-.09-1.57-1.64-1.57-1.64l-1.13-.21-.23-.36c.79-.93,1.62.3,1.62.3Z"/><g id="_Group_100" data-name="&lt;Group&gt;"><path id="_Compound_Path_75" data-name="&lt;Compound Path&gt;" class="cls-12" d="M123.25,63.06l0,0c-.15-.09-1.43-1.49-1.57-1.64l-1.13-.21-.25-.37c.69-1,1.66.22,1.7.27l1.36,1.42-.06.56Zm-2.33-2.58a.73.73,0,0,0-.59.33l.22.31,1.11.2c.54.58,1.31,1.41,1.53,1.61l.06-.41-1.35-1.41s-.46-.63-1-.63Z"/></g><path id="_Path_126" data-name="&lt;Path&gt;" class="cls-11" d="M122.39,63.36a4.51,4.51,0,0,0-.63-1.74c-.69.19-1.28.51-1.53-.91.39.71,1.53.16,1.53.16l.37.43-.06.23L123.22,63Z"/><g id="_Group_101" data-name="&lt;Group&gt;"><path id="_Path_127" data-name="&lt;Path&gt;" class="cls-13" d="M122.34,63.43v-.07a4.07,4.07,0,0,0-.49-1.52,3.34,3.34,0,0,1,.57,1.46l.77-.32L122,61.54l0-.25-.36-.39s-1.22.39-1.53-.16c.4,1.47.87,1.06,1.39.88a.16.16,0,0,1,.1.05c-1,.36-1.3.14-1.49-1,.46.46,1.53.12,1.54.11l.43.45,0,.26L123.25,63l-.91.45Z"/></g><path id="_Path_128" data-name="&lt;Path&gt;" class="cls-10" d="M125.41,66.28l-.26.51c-.14-.11-1.33-2-1.33-2l-1.09-.36-.2-.45c.87-.81,1.53.59,1.53.59Z"/><g id="_Group_102" data-name="&lt;Group&gt;"><path id="_Compound_Path_76" data-name="&lt;Compound Path&gt;" class="cls-12" d="M125.16,66.84l0,0c-.13-.1-1.21-1.82-1.32-2l-1.07-.35-.24-.47c.81-.89,1.58.52,1.61.57l1.33,1.7-.27.59Zm-2.08-3.08a.77.77,0,0,0-.52.25l.21.39,1.06.34c.47.72,1.12,1.77,1.3,2l.24-.47L124,64.59s-.4-.83-1-.83Z"/></g><path id="_Path_129" data-name="&lt;Path&gt;" class="cls-11" d="M124.23,67a5.21,5.21,0,0,0-.3-1.91c-.69.2-1.27.26-1.42-1.15.4.67,1.46.41,1.46.41l.31.48-.07.18.9,1.73Z"/><g id="_Group_103" data-name="&lt;Group&gt;"><path id="_Compound_Path_77" data-name="&lt;Compound Path&gt;" class="cls-13" d="M124.18,67.06V67a5.45,5.45,0,0,0-.29-1.87,1.58,1.58,0,0,1-.55.11c-.51,0-.78-.38-.87-1.28a1.66,1.66,0,0,0,1.48.37l.35.49.85,1.91-1,.33Zm-.27-2a4.39,4.39,0,0,1,.37,1.88l.82-.24-1.16-2.3a1.36,1.36,0,0,1-1.46-.43c.29,1.67.92,1.23,1.43,1.09Z"/></g><polygon id="_Path_130" data-name="&lt;Path&gt;" class="cls-8" points="111.39 74 114.48 73.04 115.84 70.74 120.61 70.51 120.45 72.23 116.38 73.01 116 73.7 111.31 75.01 111.39 74"/><g id="_Group_104" data-name="&lt;Group&gt;"><path id="_Compound_Path_78" data-name="&lt;Compound Path&gt;" d="M111.26,75.06l.09-1.06,3.12-1,1.33-2.29,4.81-.25-.13,1.76-4.09.82-.36.67-4.77,1.34Zm9.32-4.56-4.74.27-1.33,2.29-3.1,1,0,.92L116,73.67l.37-.69,4.08-.79.15-1.69Z"/></g><polygon id="_Path_131" data-name="&lt;Path&gt;" class="cls-14" points="114.62 74.64 119.52 67.45 119.75 67.63 114.9 74.85 114.62 74.64"/><g id="_Group_105" data-name="&lt;Group&gt;"><path id="_Compound_Path_79" data-name="&lt;Compound Path&gt;" d="M114.91,74.91l-.31-.23,4.88-7.25.3.17-4.87,7.31Zm4.58-7.42-4.83,7.18.23.14,4.83-7.2-.23-.12Z"/></g><path id="_Path_132" data-name="&lt;Path&gt;" class="cls-9" d="M119.06,67.74l.53-.89c.08-.16.24-.21.47-.09a.34.34,0,0,1,.09.49l-.48.82Z"/><g id="_Group_106" data-name="&lt;Group&gt;"><path id="_Compound_Path_80" data-name="&lt;Compound Path&gt;" d="M119.69,68.12l-.65-.35.51-.93a.33.33,0,0,1,.29-.18c.32.11.38.18.4.27a.48.48,0,0,1-.06.34l-.49.85Zm.15-1.38-.75,1,.57.27.45-.78a.49.49,0,0,0,.06-.3l-.33-.2Z"/></g><polygon id="_Path_133" data-name="&lt;Path&gt;" class="cls-8" points="114.04 70.21 123.91 69.2 124.16 70.63 114.33 71.62 114.04 70.21"/><g id="_Group_107" data-name="&lt;Group&gt;"><path id="_Compound_Path_81" data-name="&lt;Compound Path&gt;" d="M114.3,71.66l-.3-1.45,9.91-1.06.28,1.48-9.89,1Zm9.57-2.46-9.82,1,.31,1.35,9.78-1-.27-1.39Z"/></g><polygon id="_Path_134" data-name="&lt;Path&gt;" class="cls-8" points="124.1 68.83 124.35 70.83 123.94 70.83 123.64 68.99 124.1 68.83"/><g id="_Group_108" data-name="&lt;Group&gt;"><polygon id="_Path_135" data-name="&lt;Path&gt;" points="124.39 70.86 123.94 70.86 123.61 69 124.08 68.79 124.39 70.86 124.39 70.86"/></g><polygon id="_Path_136" data-name="&lt;Path&gt;" class="cls-8" points="122.44 69.15 122.56 70.95 122.3 70.97 122.09 69.39 122.44 69.15"/><g id="_Group_109" data-name="&lt;Group&gt;"><polygon id="_Path_137" data-name="&lt;Path&gt;" points="122.27 71.02 122.06 69.39 122.42 69.12 122.59 70.98 122.27 71.02 122.27 71.02"/></g><polygon id="_Path_138" data-name="&lt;Path&gt;" class="cls-8" points="115.75 69.92 116 71.61 115.5 71.58 115.32 69.92 115.75 69.92"/><g id="_Group_110" data-name="&lt;Group&gt;"><polygon id="_Path_139" data-name="&lt;Path&gt;" points="116.05 71.65 115.5 71.62 115.29 69.93 115.75 69.89 116.05 71.65 116.05 71.65"/></g><path id="_Path_140" data-name="&lt;Path&gt;" class="cls-8" d="M114.28,70l.36,2-.56.08-.15-1a.47.47,0,0,1-.46.37.47.47,0,0,1-.47-.46.46.46,0,0,1,.89-.14l-.11-.73Z"/><g id="_Group_111" data-name="&lt;Group&gt;"><path id="_Compound_Path_82" data-name="&lt;Compound Path&gt;" d="M114.05,72,113.89,71c0,.5-.93.4-.93-.1s.79-.64,1-.16l-.17-.71.54-.08.38,2-.61.13ZM113.89,71l.22,1,.51-.07L114.25,70l-.47.07.14.68c-.34-.34-.89-.24-.89.16s.76.5.86.09Z"/></g><polygon id="_Path_141" data-name="&lt;Path&gt;" class="cls-8" points="117.85 70.29 119.2 71.81 119.05 72.01 117.3 70.81 117.85 70.29"/><g id="_Group_112" data-name="&lt;Group&gt;"><path id="_Compound_Path_83" data-name="&lt;Compound Path&gt;" d="M119.05,72.06l-1.77-1.22.54-.58,1.43,1.55-.2.25Zm-1.23-1.75-.48.53L119,72l.13-.15-1.35-1.49Z"/></g><polygon id="_Path_142" data-name="&lt;Path&gt;" class="cls-8" points="121.01 74.09 119.65 72.57 119.81 72.38 121.54 73.58 121.01 74.09"/><g id="_Group_113" data-name="&lt;Group&gt;"><path id="_Compound_Path_84" data-name="&lt;Compound Path&gt;" d="M121,74.15l-1.4-1.58.17-.21,1.8,1.18-.57.61Zm-1.22-1.74L121,74l.51-.49-1.74-1.14Z"/></g><polygon id="_Path_143" data-name="&lt;Path&gt;" class="cls-8" points="117.45 73.72 119.11 72.43 119.28 72.56 117.96 74.21 117.45 73.72"/><g id="_Group_114" data-name="&lt;Group&gt;"><path id="_Compound_Path_85" data-name="&lt;Compound Path&gt;" d="M118,74.27l-.55-.52,1.66-1.35.22.18L118,74.27Zm1.27-1.73-1.77,1.21.48.4,1.29-1.61Z"/></g><polygon id="_Path_144" data-name="&lt;Path&gt;" class="cls-8" points="121.52 70.77 119.85 72.01 119.65 71.85 120.96 70.2 121.52 70.77"/><g id="_Group_115" data-name="&lt;Group&gt;"><path id="_Compound_Path_86" data-name="&lt;Compound Path&gt;" d="M119.85,72l-.23-.16,1.3-1.71.62.57L119.85,72Zm1.09-1.81-1.27,1.64.18.14,0,0,1.68-1.23-.56-.51Z"/></g><polygon id="_Path_145" data-name="&lt;Path&gt;" class="cls-8" points="119.7 69.75 119.54 71.76 119.32 71.75 118.78 69.8 119.7 69.75"/><g id="_Group_116" data-name="&lt;Group&gt;"><path id="_Compound_Path_87" data-name="&lt;Compound Path&gt;" d="M119.58,71.8h-.27l-.56-2,1-.09-.12,2.09Zm.09-2-.88.09.56,1.9h.16l.16-2Z"/></g><polygon id="_Path_146" data-name="&lt;Path&gt;" class="cls-8" points="119.16 74.62 119.31 72.61 119.55 72.59 119.86 74.62 119.16 74.62"/><g id="_Group_117" data-name="&lt;Group&gt;"><path id="_Compound_Path_88" data-name="&lt;Compound Path&gt;" d="M119.92,74.67h-.76l.12-2.1.27,0,.37,2.12Zm-.4-2.08-.33,2,.63,0-.3-2Z"/></g><polygon id="_Path_147" data-name="&lt;Path&gt;" class="cls-8" points="116.93 71.92 119.03 72.13 119.07 72.34 116.94 72.61 116.93 71.92"/><g id="_Group_118" data-name="&lt;Group&gt;"><path id="_Compound_Path_89" data-name="&lt;Compound Path&gt;" d="M116.9,72.66v-.74l2.16.22,0,.24-2.17.28Zm0-.71.06.62,2.07-.27L116.93,72Z"/></g><polygon id="_Path_148" data-name="&lt;Path&gt;" class="cls-8" points="121.94 72.61 119.89 72.29 119.84 72.13 121.97 71.89 121.94 72.61"/><g id="_Group_119" data-name="&lt;Group&gt;"><polygon id="_Path_149" data-name="&lt;Path&gt;" points="121.98 72.66 119.88 72.32 120.24 72.23 121.89 72.56 121.93 71.89 121.6 71.93 121.97 71.85 121.98 72.66 121.98 72.66"/></g><path id="_Path_150" data-name="&lt;Path&gt;" class="cls-8" d="M118.88,72.14a.54.54,0,0,0,.56.54.54.54,0,1,0-.56-.54Z"/><g id="_Group_120" data-name="&lt;Group&gt;"><path id="_Compound_Path_90" data-name="&lt;Compound Path&gt;" d="M119.44,72.73a.6.6,0,0,1-.6-.59c0-.63,1.19-.64,1.19,0a.59.59,0,0,1-.59.59Zm0-1.08a.5.5,0,0,0-.51.49c0,.56,1,.56,1,0a.5.5,0,0,0-.52-.49Z"/></g><path id="_Compound_Path_91" data-name="&lt;Compound Path&gt;" class="cls-8" d="M116.47,72.14a3,3,0,1,0,3-2.85,2.92,2.92,0,0,0-3,2.85Zm.6,0a2.37,2.37,0,1,0,2.37-2.28,2.33,2.33,0,0,0-2.37,2.28Z"/><g id="_Group_121" data-name="&lt;Group&gt;"><path id="_Compound_Path_92" data-name="&lt;Compound Path&gt;" d="M119.44,75a2.9,2.9,0,1,1,3-2.9,2.94,2.94,0,0,1-3,2.9Zm0-5.71a2.82,2.82,0,1,0,2.92,2.81,2.87,2.87,0,0,0-2.92-2.81Zm0,5.15a2.34,2.34,0,1,1,2.4-2.34,2.38,2.38,0,0,1-2.4,2.34Zm0-4.59a2.25,2.25,0,1,0,2.33,2.25,2.28,2.28,0,0,0-2.33-2.25Z"/></g><g id="_Group_122" data-name="&lt;Group&gt;"><path id="_Compound_Path_93" data-name="&lt;Compound Path&gt;" class="cls-1" d="M121.29,70.71l.47-.35ZM118,70.38l-.38-.42ZM117.13,74l.47-.39Zm4.16.43-.42-.44Z"/></g><polygon id="_Path_151" data-name="&lt;Path&gt;" class="cls-8" points="111.32 69.33 110.81 71.9 111.23 72.13 111.67 69.36 111.32 69.33"/><g id="_Group_123" data-name="&lt;Group&gt;"><path id="_Compound_Path_94" data-name="&lt;Compound Path&gt;" d="M111.25,72.19l-.46-.25.49-2.62h.39l-.42,2.86Zm.38-2.83h-.31l-.48,2.56.35.16.44-2.72Z"/></g><path id="_Path_152" data-name="&lt;Path&gt;" class="cls-9" d="M111.58,69c.24-.09.55.07,1-.57.82.76.06.87-.08,1.62-.23.1-.36-.57-1-.65l-1-.08.23-.32Z"/><g id="_Group_124" data-name="&lt;Group&gt;"><path id="_Compound_Path_95" data-name="&lt;Compound Path&gt;" d="M112.5,70.08c-.09,0-.18-.08-.28-.2a1,1,0,0,0-.69-.45l-1-.08.2-.39,1,0a1.12,1.12,0,0,0,.81-.51c.62.51.47.75.26,1.07a1.49,1.49,0,0,0-.27.58l-.08,0ZM110.76,69l-.21.31,1,0a1.07,1.07,0,0,1,.75.47c.08.1.15.18.21.18v0l0,0a1.47,1.47,0,0,1,.25-.6c.2-.29.32-.48-.18-1a1,1,0,0,1-.81.53l-.41,0Z"/></g><path id="_Path_153" data-name="&lt;Path&gt;" class="cls-9" d="M111.24,69.5l.11-.78c.09-.26.43,0,.43.13l-.09.71Z"/><g id="_Group_125" data-name="&lt;Group&gt;"><path id="_Path_154" data-name="&lt;Path&gt;" d="M111.73,69.61l-.5-.07.07-.82a1,1,0,0,1,.2-.07l-.22.85.38,0,.08-.68c0-.06-.08-.15-.18-.19h0c.18,0,.26.11.26.2l-.09.76Z"/></g><path id="_Path_155" data-name="&lt;Path&gt;" class="cls-8" d="M117,75.88a.3.3,0,0,0,.16.27.32.32,0,0,0,.33,0,.32.32,0,0,0,.16-.27.32.32,0,0,0-.16-.28.32.32,0,0,0-.33,0,.3.3,0,0,0-.16.28Z"/><g id="_Group_126" data-name="&lt;Group&gt;"><path id="_Path_156" data-name="&lt;Path&gt;" class="cls-1" d="M117,75.88a.3.3,0,0,0,.16.27.32.32,0,0,0,.33,0,.32.32,0,0,0,.16-.27.32.32,0,0,0-.16-.28.32.32,0,0,0-.33,0A.3.3,0,0,0,117,75.88Z"/></g><path id="_Path_157" data-name="&lt;Path&gt;" class="cls-8" d="M117.82,75.29a.34.34,0,0,0,.16.27.36.36,0,0,0,.32,0,.31.31,0,0,0,.17-.27.29.29,0,0,0-.17-.27.31.31,0,0,0-.32,0,.32.32,0,0,0-.16.27Z"/><g id="_Group_127" data-name="&lt;Group&gt;"><path id="_Path_158" data-name="&lt;Path&gt;" class="cls-1" d="M117.82,75.29a.34.34,0,0,0,.16.27.36.36,0,0,0,.32,0,.31.31,0,0,0,.17-.27.29.29,0,0,0-.17-.27.31.31,0,0,0-.32,0A.32.32,0,0,0,117.82,75.29Z"/></g><path id="_Path_159" data-name="&lt;Path&gt;" class="cls-8" d="M118.93,75.68a.31.31,0,0,0,.17.27.36.36,0,0,0,.32,0,.31.31,0,0,0,.17-.27.3.3,0,0,0-.17-.28.36.36,0,0,0-.32,0,.3.3,0,0,0-.17.28Z"/><g id="_Group_128" data-name="&lt;Group&gt;"><path id="_Path_160" data-name="&lt;Path&gt;" class="cls-1" d="M118.93,75.68a.31.31,0,0,0,.17.27.36.36,0,0,0,.32,0,.31.31,0,0,0,.17-.27.3.3,0,0,0-.17-.28.36.36,0,0,0-.32,0A.3.3,0,0,0,118.93,75.68Z"/></g><path id="_Path_161" data-name="&lt;Path&gt;" class="cls-8" d="M120.67,76.05a.31.31,0,0,0,.17.27.29.29,0,0,0,.31,0,.32.32,0,0,0,.16-.27.32.32,0,0,0-.16-.28.42.42,0,0,0-.31,0,.31.31,0,0,0-.17.28Z"/><g id="_Group_129" data-name="&lt;Group&gt;"><path id="_Path_162" data-name="&lt;Path&gt;" class="cls-1" d="M120.67,76.05a.31.31,0,0,0,.17.27.29.29,0,0,0,.31,0,.32.32,0,0,0,.16-.27.32.32,0,0,0-.16-.28.42.42,0,0,0-.31,0A.31.31,0,0,0,120.67,76.05Z"/></g><path id="_Path_163" data-name="&lt;Path&gt;" class="cls-8" d="M121.4,76.14a.35.35,0,0,0,.16.27.31.31,0,0,0,.32,0,.32.32,0,0,0,.17-.27.31.31,0,0,0-.17-.28.36.36,0,0,0-.32,0,.34.34,0,0,0-.16.28Z"/><g id="_Group_130" data-name="&lt;Group&gt;"><path id="_Path_164" data-name="&lt;Path&gt;" class="cls-1" d="M121.4,76.14a.35.35,0,0,0,.16.27.31.31,0,0,0,.32,0,.32.32,0,0,0,.17-.27.31.31,0,0,0-.17-.28.36.36,0,0,0-.32,0A.34.34,0,0,0,121.4,76.14Z"/></g><path id="_Path_165" data-name="&lt;Path&gt;" class="cls-8" d="M122.12,76.14a.35.35,0,0,0,.16.27.31.31,0,0,0,.32,0,.32.32,0,0,0,.17-.27.31.31,0,0,0-.17-.28.36.36,0,0,0-.32,0,.34.34,0,0,0-.16.28Z"/><g id="_Group_131" data-name="&lt;Group&gt;"><path id="_Path_166" data-name="&lt;Path&gt;" class="cls-1" d="M122.12,76.14a.35.35,0,0,0,.16.27.31.31,0,0,0,.32,0,.32.32,0,0,0,.17-.27.31.31,0,0,0-.17-.28.36.36,0,0,0-.32,0A.34.34,0,0,0,122.12,76.14Z"/></g><path id="_Path_167" data-name="&lt;Path&gt;" class="cls-8" d="M122.85,76.11a.36.36,0,0,0,.16.28.38.38,0,0,0,.33,0,.36.36,0,0,0,.16-.28.32.32,0,0,0-.16-.27.38.38,0,0,0-.33,0,.32.32,0,0,0-.16.27Z"/><g id="_Group_132" data-name="&lt;Group&gt;"><path id="_Path_168" data-name="&lt;Path&gt;" class="cls-1" d="M122.85,76.11a.36.36,0,0,0,.16.28.38.38,0,0,0,.33,0,.36.36,0,0,0,.16-.28.32.32,0,0,0-.16-.27.38.38,0,0,0-.33,0A.32.32,0,0,0,122.85,76.11Z"/></g><path id="_Path_169" data-name="&lt;Path&gt;" class="cls-8" d="M122.5,75.56a.31.31,0,0,0,.15.26.32.32,0,0,0,.33,0,.29.29,0,0,0,0-.53.32.32,0,0,0-.33,0,.32.32,0,0,0-.15.27Z"/><g id="_Group_133" data-name="&lt;Group&gt;"><path id="_Path_170" data-name="&lt;Path&gt;" class="cls-1" d="M122.5,75.56a.31.31,0,0,0,.15.26.32.32,0,0,0,.33,0,.29.29,0,0,0,0-.53.32.32,0,0,0-.33,0A.32.32,0,0,0,122.5,75.56Z"/></g><path id="_Path_171" data-name="&lt;Path&gt;" class="cls-8" d="M121.78,75.59a.29.29,0,0,0,.17.27.31.31,0,0,0,.32,0,.3.3,0,0,0,.16-.27.32.32,0,0,0-.16-.28.36.36,0,0,0-.32,0,.31.31,0,0,0-.17.28Z"/><g id="_Group_134" data-name="&lt;Group&gt;"><path id="_Path_172" data-name="&lt;Path&gt;" class="cls-1" d="M121.78,75.59a.29.29,0,0,0,.17.27.31.31,0,0,0,.32,0,.3.3,0,0,0,.16-.27.32.32,0,0,0-.16-.28.36.36,0,0,0-.32,0A.31.31,0,0,0,121.78,75.59Z"/></g><path id="_Path_173" data-name="&lt;Path&gt;" class="cls-8" d="M121.11,75.5a.3.3,0,0,0,.15.27.34.34,0,0,0,.34,0,.29.29,0,0,0,.16-.27.33.33,0,0,0-.5-.26.31.31,0,0,0-.15.26Z"/><g id="_Group_135" data-name="&lt;Group&gt;"><path id="_Path_174" data-name="&lt;Path&gt;" class="cls-1" d="M121.11,75.5a.3.3,0,0,0,.15.27.34.34,0,0,0,.34,0,.29.29,0,0,0,.16-.27.33.33,0,0,0-.5-.26A.31.31,0,0,0,121.11,75.5Z"/></g><path id="_Path_175" data-name="&lt;Path&gt;" class="cls-8" d="M121.45,75a.35.35,0,0,0,.16.27.32.32,0,0,0,.33,0,.32.32,0,0,0,.17-.27.31.31,0,0,0-.17-.27.38.38,0,0,0-.33,0,.34.34,0,0,0-.16.27Z"/><g id="_Group_136" data-name="&lt;Group&gt;"><path id="_Path_176" data-name="&lt;Path&gt;" class="cls-1" d="M121.45,75a.35.35,0,0,0,.16.27.32.32,0,0,0,.33,0,.32.32,0,0,0,.17-.27.31.31,0,0,0-.17-.27.38.38,0,0,0-.33,0A.34.34,0,0,0,121.45,75Z"/></g><path id="_Path_177" data-name="&lt;Path&gt;" class="cls-8" d="M122.12,74.94a.36.36,0,0,0,.16.28.31.31,0,0,0,.32,0,.32.32,0,0,0,.17-.28.28.28,0,0,0-.17-.26.32.32,0,0,0-.48.26Z"/><g id="_Group_137" data-name="&lt;Group&gt;"><path id="_Path_178" data-name="&lt;Path&gt;" class="cls-1" d="M122.12,74.94a.36.36,0,0,0,.16.28.31.31,0,0,0,.32,0,.32.32,0,0,0,.17-.28.28.28,0,0,0-.17-.26.32.32,0,0,0-.48.26Z"/></g><path id="_Path_179" data-name="&lt;Path&gt;" class="cls-9" d="M116.55,73.81c.27-.12.27.51.27.51h-.43c-.2.08-.34.36-.23.5s1-.19,1,0c-.16.85-1.29,1.18-1.69.81s-.5-1.33.79-1.6Z"/><g id="_Group_138" data-name="&lt;Group&gt;"><path id="_Compound_Path_96" data-name="&lt;Compound Path&gt;" d="M116,75.81a.69.69,0,0,1-.49-.16.9.9,0,0,1-.24-.89c.1-.39.48-.65,1.06-.76l.27-.24h.16c.15.12.15.51.15.56l-.47,0a.48.48,0,0,0-.23.3c0,.17.31.14.46.1s.56-.08.59,0a1.21,1.21,0,0,1-.84.94,1.23,1.23,0,0,1-.42.07Zm.31-1.74a1.14,1.14,0,0,0-1,.71.83.83,0,0,0,.21.81.91.91,0,0,0,.85.07,1.13,1.13,0,0,0,.79-.85s-.34,0-.51,0-.44.07-.49,0c0-.35.1-.51.23-.56h.07l-.18-.22Zm6.52-.53,0-.08,2.7-1.18-2.68,1.26Z"/></g><path id="_Path_180" data-name="&lt;Path&gt;" class="cls-11" d="M127.11,71a6.29,6.29,0,0,1,1.16.06c.07,0-.25.34-.18.48.25.46,1.93.4,2,.3s-1.55-.34-1.57-.46.26-.49.23-.71-.79-.41-.79-.41Z"/><g id="_Group_139" data-name="&lt;Group&gt;"><path id="_Path_181" data-name="&lt;Path&gt;" class="cls-13" d="M129.48,72c-.29,0-1.22,0-1.43-.4-.05-.09,0-.23.13-.36s-.35-.16-.84-.16l0,0a2.77,2.77,0,0,1,.92,0c-.1.32-.19.45-.15.5.22.44,1.91.37,2,.3a3.15,3.15,0,0,0-.87-.21c-.57-.1-.72-.14-.72-.21a.52.52,0,0,1,.1-.29,1,1,0,0,0,.12-.43c0-.23-.56-.33-.76-.36l-.23.19.21-.26c.11,0,.79.1.85.42a.73.73,0,0,1-.13.47.69.69,0,0,0-.08.25,3.34,3.34,0,0,0,.66.14c.62.11.9.18.93.27s-.45.16-.73.16Z"/></g><path id="_Path_182" data-name="&lt;Path&gt;" class="cls-14" d="M125.79,71.93,128,70.07s.1-.1.18,0,0,.19,0,.19l-2.33,1.91Z"/><g id="_Group_140" data-name="&lt;Group&gt;"><path id="_Compound_Path_97" data-name="&lt;Compound Path&gt;" d="M125.85,72.22l-.1-.28L128,70l.27.1-2.42,2.08Zm2.3-2L125.81,72l0,.16,2.3-1.88Z"/></g><path id="_Path_183" data-name="&lt;Path&gt;" class="cls-8" d="M123.63,73.76s1.82-1.59,1.82-1.59l.13-.45a2.32,2.32,0,0,1,.36.29,1.92,1.92,0,0,1,.27.35l-.5,0-1.59,1.45Z"/><g id="_Group_141" data-name="&lt;Group&gt;"><path id="_Compound_Path_98" data-name="&lt;Compound Path&gt;" d="M124.14,73.87l-.51-.08c0-.1,1.8-1.65,1.8-1.65l.1-.43c.08,0,.34.16.45.26s.25.37.26.38l-.53.08-1.57,1.44Zm1.4-2.13-.06.45s-1.78,1.53-1.82,1.59h.46l1.57-1.43.48,0s-.17-.21-.25-.29-.38-.29-.38-.29Z"/></g><path id="_Compound_Path_99" data-name="&lt;Compound Path&gt;" class="cls-8" d="M113.7,71.62l0,.73c.25.08.22.25.21.51V75c.07.13.33.15.46.26s.1.32-.44.45l-.43,0c-.65-.14-.79-.36-.47-.47a1.71,1.71,0,0,0,.49-.25v-.51l-.42,0c-.12,0-.33-.3-.34-.52V72.87a.61.61,0,0,1,.61-.68l0-.57Zm-.71,1.2c0-.17.24-.32.35-.33a.48.48,0,0,1,.31.38v.43c0,.18-.14.7-.4.76s-.27-.18-.27-.34Z"/><g id="_Group_142" data-name="&lt;Group&gt;"><path id="_Compound_Path_100" data-name="&lt;Compound Path&gt;" d="M113.47,75.73h0c-.43-.1-.66-.23-.67-.37v0l.2-.18a1.35,1.35,0,0,0,.48-.22l0-.48-.38.07c-.15,0-.38-.34-.38-.56V72.87c0-.57.39-.72.62-.72l0-.53.42,0,0,.76c.22.05.21.21.21.43l0,2.17a.55.55,0,0,0,.23.11l.29.31c0,.1-.13.23-.53.33l-.43,0Zm0-1.32.06.55a1.14,1.14,0,0,1-.46.25c-.21.22,0,.33.39.43h.42c.38-.1.46-.23.46-.27l-.23-.22a.48.48,0,0,1-.27-.16V72.86c0-.3,0-.41-.18-.48v-.76l-.35,0,0,.53a.66.66,0,0,0-.61.68V74c0,.21.23.47.31.47l.42,0Zm-.23-.32a.38.38,0,0,1-.31-.37v-.9c0-.2.27-.36.39-.37h0c.13,0,.34.23.36.42v.43c0,.13-.12.75-.45.79Zm.09-1.57c-.1,0-.32.16-.32.3v.9c0,.14.13.3.22.3s.37-.52.38-.72v-.43a.47.47,0,0,0-.28-.35Z"/></g><path id="_Path_184" data-name="&lt;Path&gt;" class="cls-6" d="M109.72,51.68c3.41-3.42,6.1-1.75,6.75-1.28-.44.08-.81-.19-1-.21.13.15.38.53.38.53a6,6,0,0,0-1.18-.44,1.74,1.74,0,0,1,.33.41c-.08,0-.67-.47-.79-.48a1.68,1.68,0,0,1,.23.68l-.51-.24c-.13.09,0,.27-.07.27a3.41,3.41,0,0,0-2.23,1Z"/><g id="_Group_143" data-name="&lt;Group&gt;"><path id="_Compound_Path_101" data-name="&lt;Compound Path&gt;" d="M111.66,52a3,3,0,0,1,2.19-1.11h0V51a3.38,3.38,0,0,0-2.19,1Zm-1.9-.28-.06-.05c3.36-3.36,6-1.82,6.77-1.28a1.07,1.07,0,0,1-.8-.07c-.06,0,.2.41.2.41s0,0,0,0h0a5.62,5.62,0,0,0-1.15-.37c.18,0,.35.33.36.34s-.16,0-.45-.18a2.48,2.48,0,0,0-.38-.23c.22.15.27.62.28.62l-.57-.18,0-.08.49.23c-.06-.08-.11-.44-.27-.59.1-.07.24,0,.46.16a1.51,1.51,0,0,0,.3.21,1.83,1.83,0,0,0-.27-.3c.12-.12.82.18,1.13.33-.1-.09-.26-.33-.36-.45l-.08-.11.37.14a1.35,1.35,0,0,0,.75.13c-.75-.47-3.39-2-6.7,1.34Z"/></g><path id="_Path_185" data-name="&lt;Path&gt;" class="cls-6" d="M110.58,52.3c.35-.83,6.83-2.19,8.14.11-.51.12-1-.43-1-.43l0,.51-.87-.67.32.68-.69-.55,0,.55-.84-.91.1.54-.74-.33.08.45Z"/><g id="_Group_144" data-name="&lt;Group&gt;"><path id="_Path_186" data-name="&lt;Path&gt;" d="M116.58,52.5l-.91-.88.17.49-.8-.28.14.42-.16-.43.8.27-.16-.5.9.9-.09-.54.76.53-.37-.63.92.61-.09-.48a1.58,1.58,0,0,0,.87.4.39.39,0,0,0,.15,0c-.71-1.16-2.82-1.23-4-1.17-2,.1-3.92.7-4.1,1.12l-.07,0c.22-.49,2.29-1.07,4.16-1.17,1.21-.06,3.34,0,4,1.27-.54.2-1-.35-1.06-.39l.11.5-.93-.64.37.64-.75-.51.09.52Z"/></g><path id="_Path_187" data-name="&lt;Path&gt;" class="cls-6" d="M110.86,52.42c1.66-1.11,4.24-.35,4.24-.35,1.64.91,2.52.76,2.73,2.45a3.73,3.73,0,0,1-.6-.59l-.34.65-.11-.94-.26.73-.4-1.19L116,54l-.62-.81-.29.23-.27-.62-.24.39s-.42-.26-.67-.09l-.46-.53-.11.36-.41-.45-.14.35-.4-.37,0,.25-1.37,0Z"/><g id="_Group_145" data-name="&lt;Group&gt;"><path id="_Path_188" data-name="&lt;Path&gt;" d="M116.93,54.61l-.17-1-.21.75-.47-1.21V54l-.69-.81-.24.26-.32-.64-.17.41a2,2,0,0,0-.52-.12.22.22,0,0,0-.16,0l-.53-.55,0,.36-.47-.45-.09.34-.08-.07.07,0,.1-.32.46.46,0-.38.54.53c.2-.19.64.09.66.1l.19-.41.32.63.24-.25.67.82,0-.79.47,1.19.21-.72.18.94.26-.67a5.86,5.86,0,0,0,.65.57c-.23-1.2-.72-1.42-1.66-1.84a8.69,8.69,0,0,1-1.11-.55s-2.56-.73-4.19.37l0-.07c1.66-1.11,4.24-.37,4.27-.36.43.23.79.39,1.1.53.94.42,1.5.66,1.65,2-.21,0-.62-.52-.66-.58l-.27.67Z"/></g><path id="_Path_189" data-name="&lt;Path&gt;" class="cls-6" d="M111.23,52.61c1.17,0,4.5,1.24,5.36,2.56a5.19,5.19,0,0,0-.56-.27l-.17.51-.2-.51,0,.4c-.12-.32-.27-.36-.51,0l-.09-.49-.13.47-.22-.51s-.15.56-.23.53-.37-1-.53-1l-.05.61-.22-.61-.2.46-.05-.65-.21.5s-.12-.5-.28-.58l-.35.3-1.47-1.07Z"/><g id="_Group_146" data-name="&lt;Group&gt;"><path id="_Path_190" data-name="&lt;Path&gt;" d="M115.9,55.43l-.27-.53,0,.4c-.15-.14-.2-.21-.25-.22a.52.52,0,0,0-.27.22l-.16-.51-.06.48-.29-.52a.75.75,0,0,1-.15.55,4.1,4.1,0,0,0-.57-1v.56l-.3-.59-.13.46-.12-.67-.14.51c-.11-.13-.22-.49-.35-.55l-.29.28L111,53.26l1.53,1,.29-.29c.22.09.34.55.35.6l.15-.5.12.66.12-.47.3.6,0-.59c.22,0,.55.83.61,1,0,0,.1-.3.15-.52l.29.49.06-.47.16.51c.06-.22.17-.3.28-.27s.16.11.24.27l0-.39.28.52.09-.52c.09,0,.28.06.62.25-.88-1.22-4.17-2.47-5.34-2.47h0v-.08h0c1.18,0,4.48,1.22,5.37,2.56l-.61-.21-.12.5Z"/></g><path id="_Path_191" data-name="&lt;Path&gt;" class="cls-6" d="M111,52.88c1.53.6,2.92,2.72,2.82,3.62-.69-.85-.54-.72-.85.25a3.67,3.67,0,0,0-.24-1l-.2.64-.07-.82h-.21l0-.52-.3.24c.08-.31.16-.39-.17-.67,0,0,.4.07.09-.66l-.31.29s.06-.33,0-.44l-1.1-.38Z"/><g id="_Group_147" data-name="&lt;Group&gt;"><path id="_Compound_Path_102" data-name="&lt;Compound Path&gt;" d="M113,56.77a5.89,5.89,0,0,0-.3-1l-.13.62,0,0,0,0,.12-.64c.19.09.29.81.31,1l0-.42c.08-.28.12-.41.21-.43s.21.11.49.46c.13-.72-1.24-2.84-2.76-3.44l0-.07c1.58.62,3,2.76,2.85,3.65-.37-.36-.52-.54-.58-.54h0c-.05,0-.08.18-.14.39l-.12.42Zm-1-1.42c0-.37.06-.45-.22-.66.2-.17.25-.32.08-.69l-.23.3c-.06-.11,0-.35-.12-.44l-1.07-.36,1.12.3c.13.14.09.44.09.48l.21-.32c.2.33.24.54.16.66a.66.66,0,0,1,0,.61l.22-.18v0l-.25.28Z"/></g><path id="_Path_192" data-name="&lt;Path&gt;" class="cls-6" d="M110.86,53.06l.59,1.1-.31.09.68.5-.57-.06a1.58,1.58,0,0,1,1,1.18l-.87-.39a3.89,3.89,0,0,1,.84,1.22l-.5-.44a1.78,1.78,0,0,1,.41,1.34l-.37-.41a2.09,2.09,0,0,1-.38,1.81,4.73,4.73,0,0,0,0-1.3l-1,1,.54-1.47s-.6.94-1,.85l.79-1.19-.78.61.87-1.28-.81.23s.58-.74.54-1.18l-.55.6a2.67,2.67,0,0,0,.14-.9l-.28,0,.55-.63-.36-.07,0-.42-.28-.09v-.45Z"/><g id="_Group_148" data-name="&lt;Group&gt;"><path id="_Compound_Path_103" data-name="&lt;Compound Path&gt;" d="M111.38,59a6.44,6.44,0,0,0-.08-1.29l-.94,1,.46-1.39c-.14.26-.58.83-.92.77l.76-1.25-.71.69.81-1.36-.77.3c0-.06.53-.79.49-1.22l-.49.62a8.23,8.23,0,0,0,.08-.91l-.23.08.52-.69H110v-.46l-.25,0v-.51l.06.46.24.07,0,.44.33,0-.51.71.24-.12a2.13,2.13,0,0,1-.1.93l.48-.63c.11.48-.44,1.2-.47,1.24l.75-.31L110,57.56l.72-.68L110,58.13h0c.25,0,.75-.63.91-.89h0l0,.12-.44,1.37.92-1.07c.2.16.11,1.15.08,1.34a2.32,2.32,0,0,0,.31-1.82l.45.39a2.06,2.06,0,0,0-.48-1.29h0s.07,0,.13.08l.43.31a5.67,5.67,0,0,0-.91-1.18h0l.88.31a1.66,1.66,0,0,0-1-1.09h0s0,0,.07,0l.5,0-.69-.44.31-.15-.62-1.05.08,0,.58,1.12-.32.14.69.43-.51,0a1.39,1.39,0,0,1,.93,1.11l-.89-.32a3,3,0,0,1,.86,1.17l-.44-.32a1.77,1.77,0,0,1,.35,1.22l-.44-.4a1.94,1.94,0,0,1-.33,1.82Zm0-1.32a3.27,3.27,0,0,1-.42-1.72,4.9,4.9,0,0,0-.68-2.57l.06,0A5,5,0,0,1,111,56a4.53,4.53,0,0,0,.34,1.72Z"/></g><path id="_Compound_Path_104" data-name="&lt;Compound Path&gt;" class="cls-8" d="M115.59,76.29c0-.14.32-.08.32-.24s-.5,0-.57.11c-.3-.27-.42-.07-.6,0a.51.51,0,0,0-.86-.08.58.58,0,0,0-.78.08.48.48,0,0,0-.76,0c-.07-.15-.19-.13-.27,0a.46.46,0,0,0-.71,0c-.15-.16-.29,0-.5.09-.12-.12-.33-.11-.33,0s.26.08.26.21-.19.06-.19.2.3.15.35,0c.1.19.47.12.5-.05a.34.34,0,0,0,.55,0,.22.22,0,0,0,.34,0,.45.45,0,0,0,.74-.08h.13a.39.39,0,0,0,.67,0,.55.55,0,0,0,.79,0c.25.3.62.28.71,0,.16.12.49.16.49,0s-.28-.07-.28-.19Zm-.72.06c0,.07.08.12.19.12s.18,0,.18-.12-.09-.12-.18-.12-.19.06-.19.12Zm-.81-.09c0,.07.1.13.24.13s.21-.06.21-.13-.09-.14-.21-.14-.24.06-.24.14Zm-1.57.09c0,.07.09.12.21.12s.21,0,.21-.12-.09-.14-.21-.14-.21.05-.21.14Zm.84,0c0,.09.09.16.21.16a.19.19,0,0,0,.2-.16.21.21,0,0,0-.2-.19.2.2,0,0,0-.21.19Zm-1.79,0a.18.18,0,0,0,.19.15.17.17,0,0,0,.17-.15.17.17,0,0,0-.17-.16.17.17,0,0,0-.19.16Zm.56,0a.1.1,0,0,0,.1.1c.07,0,.12,0,.12-.1a.12.12,0,0,0-.12-.11.12.12,0,0,0-.1.11Zm-1.07,0a.13.13,0,0,0,.13.14.14.14,0,0,0,.14-.14.16.16,0,0,0-.14-.15.15.15,0,0,0-.13.15Z"/><g id="_Group_149" data-name="&lt;Group&gt;"><path id="_Compound_Path_105" data-name="&lt;Compound Path&gt;" d="M110.76,76.78h0l-.16-.13.2-.2-.27-.21.21,0,.14.23-.21.2.13.09.15-.16.26.12a.27.27,0,0,0,.25-.14l.3.09a.29.29,0,0,0,.24-.14l0,0,.38,0a.43.43,0,0,0,.68,0,.17.17,0,0,1,.12,0,.58.58,0,0,1-.86.06l-.31,0,0,0a.4.4,0,0,1-.61,0c0,.12-.12.2-.25.2h0l-.22-.14c0,.09,0,.14-.15.14Zm4.32,0a.55.55,0,0,1-.42-.23c-.08.16-.42.27-.81,0,0,.14-.34.42-.66,0,.6.25.59,0,.66-.06.4.19.54.22.81,0,.31.26.6.26.68,0a1.37,1.37,0,0,0,.37.08l-.15-.26.21-.15,0,.08.15.26c-.31.14-.47.09-.54,0,0,.13-.12.22-.28.22Zm-2.72-.39h-.3l.17-.14-.2,0c-.18-.32-.5-.14-.64,0-.26-.07-.34,0-.43.06l-.12,0h0a.54.54,0,0,1,.31-.17c.45,0,.76-.14.9.11.72-.26.77-.25,1,0,.06-.22.59-.3.78-.08.22-.32.62-.29.87.08l.28-.16a.49.49,0,0,1,.31.15c0-.11.23-.21.41-.21V76a.59.59,0,0,0-.4.14,1.09,1.09,0,0,0-.32-.11l-.35.12c-.22-.34-.5-.34-.81-.07a.61.61,0,0,0-.77.07c-.35-.22-.52-.23-.75,0l0,0h-.09l.11.13Z"/></g><path id="_Path_193" data-name="&lt;Path&gt;" class="cls-8" d="M110.12,71.26s.53-4.37.53-6.24c0-1.48-.36-4.77-.36-4.77h-1.5s-.23,3.28-.19,4.75c0,1.87.52,6.26.52,6.26Z"/><g id="_Group_150" data-name="&lt;Group&gt;"><path id="_Compound_Path_106" data-name="&lt;Compound Path&gt;" d="M110.15,71.29h-1c-.05-.08-.52-4.44-.56-6.28,0-1.47.18-4.71.2-4.76l1.53,0c0,.08.39,3.34.39,4.8,0,1.85-.51,6.19-.51,6.24l0,0Zm-1.36-11s-.19,3.24-.16,4.7c0,1.84.52,6.21.52,6.25l.93,0c.06-.4.53-4.43.53-6.19,0-1.46-.35-4.72-.36-4.76l-1.46,0Z"/></g><polygon id="_Path_194" data-name="&lt;Path&gt;" class="cls-8" points="108.69 60.48 110.42 60.48 110.22 59.3 108.97 59.3 108.69 60.48"/><g id="_Group_151" data-name="&lt;Group&gt;"><path id="_Compound_Path_107" data-name="&lt;Compound Path&gt;" d="M110.47,60.51h-1.78l.24-1.22,1.29,0,.25,1.25Zm-.28-1.21-1.22,0-.25,1.14,1.66-.06-.19-1.12Z"/></g><polygon id="_Path_195" data-name="&lt;Path&gt;" class="cls-8" points="108.81 59.54 110.36 59.54 110.06 58.37 109.11 58.37 108.81 59.54"/><g id="_Group_152" data-name="&lt;Group&gt;"><path id="_Compound_Path_108" data-name="&lt;Compound Path&gt;" d="M110.4,59.58h-1.59l.26-1.23,1,0,.34,1.26Zm-.38-1.2-.91,0-.27,1.14,1.47-.06L110,58.38Z"/></g><polygon id="_Path_196" data-name="&lt;Path&gt;" class="cls-8" points="108.9 58.59 110.2 58.59 109.97 57.42 109.15 57.42 108.9 58.59"/><g id="_Group_153" data-name="&lt;Group&gt;"><path id="_Compound_Path_109" data-name="&lt;Compound Path&gt;" d="M110.25,58.62H108.9l.22-1.21.85,0,.28,1.24Zm-.3-1.19-.8,0-.21,1.13,1.21,0-.2-1.12Z"/></g><polygon id="_Path_197" data-name="&lt;Path&gt;" class="cls-8" points="110.03 57.28 109.12 57.28 109.02 57.7 110.1 57.7 110.03 57.28"/><g id="_Group_154" data-name="&lt;Group&gt;"><path id="_Compound_Path_110" data-name="&lt;Compound Path&gt;" d="M110.45,68.63h-1.64l1.64-.08v.08Zm.08-.95h-1.72l1.72-.08v.08Zm0-.94h-1.81l1.81-.08v.08Zm.07-.86h-2l2-.09v.09Zm0-.79h-2l2-.07v.07Zm0-1h-2l2-.08v.08Zm-.07-.93h-2l2-.08v.08Zm-.08-1h-1.79l1.79-.08v.08Zm-.09-.85h-1.62l1.62-.09v.09Z"/></g><path id="_Path_198" data-name="&lt;Path&gt;" class="cls-10" d="M109.64,70.9c-1.1,0-2,.42-2,.93a.63.63,0,0,0,.07.25,3,3,0,0,0,1.93.48,3.35,3.35,0,0,0,1.88-.43.53.53,0,0,0,.11-.3c0-.51-.89-.93-2-.93Z"/><g id="_Group_155" data-name="&lt;Group&gt;"><path id="_Compound_Path_111" data-name="&lt;Compound Path&gt;" class="cls-12" d="M109.64,72.6a3.07,3.07,0,0,1-2-.49l-.08-.28c0-.54.92-1,2-1s2,.45,2,1a.53.53,0,0,1-.13.33,3.3,3.3,0,0,1-1.92.44Zm0-1.65c-1.06,0-1.94.41-1.94.88.55.94,3.2.77,3.78.27a.45.45,0,0,0,.11-.27c0-.47-.89-.88-2-.88Z"/></g><path id="_Path_199" data-name="&lt;Path&gt;" class="cls-8" d="M111.66,71.89V75c0,.36-.9.65-2,.65s-2-.29-2-.65V71.89c0,.36.9.67,2,.67s2-.31,2-.67Z"/><g id="_Group_156" data-name="&lt;Group&gt;"><path id="_Compound_Path_112" data-name="&lt;Compound Path&gt;" d="M109.64,75.7c-1.14,0-2-.32-2-.7V71.89c.08.3.88.63,2,.63s2-.33,2-.63a.25.25,0,0,1,0,.08l.07,3c0,.38-.9.7-2,.7Zm-2-3.8.08,3.1c0,.29.8.61,2,.61s2-.32,2-.61V72c-.07.35-.9.6-2,.6s-2-.3-2-.69Z"/></g><path id="_Path_200" data-name="&lt;Path&gt;" class="cls-11" d="M107.64,71.89v.47l1,3,.76-2.3.87,2.38.63-2.26.78,1.53v-.84l-.73-1.48a1.22,1.22,0,0,1-.26.06l-.46,1.67-.62-1.57-.32,0-.64,1.59-.73-1.91c-.17-.1-.26-.21-.26-.33Z"/><g id="_Group_157" data-name="&lt;Group&gt;"><path id="_Compound_Path_113" data-name="&lt;Compound Path&gt;" class="cls-13" d="M110.25,75.59l-.9-2.52-.7,2.32-1.05-3v-.49h0a1.1,1.1,0,0,0,.31.3l.75,1.93.58-1.6h.33l.68,1.6.38-1.67.3-.09.76,1.5v.86l-.86-1.5-.58,2.37ZM107.61,72l.07.38,1,3,.7-2.31.89,2.28.59-2.14.86,1.5-.07-.81-.73-1.46-.22.08-.42,1.65-.71-1.59-.28,0-.6,1.57-.8-1.92a.44.44,0,0,1-.25-.25Z"/></g><path id="_Path_201" data-name="&lt;Path&gt;" class="cls-10" d="M111.66,74.41V75c0,.36-.9.65-2,.65s-2-.29-2-.65v-.59c0,.37.9.67,2,.67s2-.3,2-.67Z"/><g id="_Group_158" data-name="&lt;Group&gt;"><path id="_Compound_Path_114" data-name="&lt;Compound Path&gt;" class="cls-12" d="M109.64,75.7c-1.14,0-2-.32-2-.7v-.59c.08.3.88.62,2,.62s2-.32,2-.62a.06.06,0,0,1,0,0l.07.55c0,.38-.9.7-2,.7Zm-2-1.21.07.51c0,.29.8.61,2,.61s2-.32,2-.61v-.5c-.07.35-.9.61-2,.61s-1.93-.27-2-.62Z"/></g><path id="_Path_202" data-name="&lt;Path&gt;" class="cls-8" d="M110.47,75a4.2,4.2,0,0,1-.51,0v.58l.51,0Z"/><g id="_Group_159" data-name="&lt;Group&gt;"><path id="_Path_203" data-name="&lt;Path&gt;" class="cls-1" d="M110.47,75a4.2,4.2,0,0,1-.51,0v.58l.51,0Z"/></g><path id="_Path_204" data-name="&lt;Path&gt;" class="cls-8" d="M108.33,74.91v.58a2.09,2.09,0,0,0,.52.1V75a2.65,2.65,0,0,1-.52-.11Z"/><g id="_Group_160" data-name="&lt;Group&gt;"><path id="_Path_205" data-name="&lt;Path&gt;" class="cls-1" d="M108.33,74.91v.58a2.09,2.09,0,0,0,.52.1V75A2.65,2.65,0,0,1,108.33,74.91Z"/></g><path id="_Path_206" data-name="&lt;Path&gt;" class="cls-8" d="M107.64,74.41V75a.37.37,0,0,0,.22.29l0-.57c-.16-.1-.24-.19-.24-.31Z"/><g id="_Group_161" data-name="&lt;Group&gt;"><path id="_Path_207" data-name="&lt;Path&gt;" class="cls-1" d="M107.64,74.41V75a.37.37,0,0,0,.22.29l0-.57C107.72,74.62,107.64,74.53,107.64,74.41Z"/></g><path id="_Path_208" data-name="&lt;Path&gt;" class="cls-8" d="M111.66,74.48h0c0,.12-.17.21-.37.32v.57c.24-.11.38-.24.38-.37Z"/><g id="_Group_162" data-name="&lt;Group&gt;"><path id="_Path_209" data-name="&lt;Path&gt;" d="M109.64,75.7c-1.14,0-2-.32-2-.7V71.92l.08,3.08c0,.29.8.61,2,.61a4.07,4.07,0,0,0,1.64-.28l0-.53c.23-.13.35-.23.38-.34h0V71.92a0,0,0,1,1,.08,0V75h0a.37.37,0,0,1-.15.26,3.38,3.38,0,0,1-1.9.44Z"/></g><path id="_Path_210" data-name="&lt;Path&gt;" class="cls-9" d="M111.19,71.69c0,.22-.68.41-1.55.41s-1.54-.19-1.54-.41.69-.4,1.54-.4,1.55.18,1.55.4Z"/><g id="_Group_163" data-name="&lt;Group&gt;"><path id="_Compound_Path_115" data-name="&lt;Compound Path&gt;" class="cls-5" d="M109.64,72.12c-.76,0-1.58-.16-1.58-.43,0-.55,3.17-.56,3.17,0,0,.28-.82.43-1.59.43Zm0-.8c-.88,0-1.51.2-1.51.37s.63.37,1.51.37,1.53-.2,1.53-.37-.63-.37-1.53-.37Z"/></g><path id="_Path_211" data-name="&lt;Path&gt;" class="cls-8" d="M109.14,72l.08.55.42,0,.08-.57Z"/><g id="_Group_164" data-name="&lt;Group&gt;"><path id="_Path_212" data-name="&lt;Path&gt;" class="cls-1" d="M109.14,72l.08.55.42,0,.08-.57Z"/></g><path id="_Path_213" data-name="&lt;Path&gt;" class="cls-8" d="M110.94,71.85l-.4.11,0,.53.39-.09Z"/><g id="_Group_165" data-name="&lt;Group&gt;"><path id="_Path_214" data-name="&lt;Path&gt;" class="cls-1" d="M110.94,71.85l-.4.11,0,.53.39-.09Z"/></g><path id="_Path_215" data-name="&lt;Path&gt;" class="cls-8" d="M108.57,71l-.32.11,0,.41.26-.08Z"/><g id="_Group_166" data-name="&lt;Group&gt;"><path id="_Path_216" data-name="&lt;Path&gt;" class="cls-1" d="M108.57,71l-.32.11,0,.41.26-.08Z"/></g><path id="_Path_217" data-name="&lt;Path&gt;" class="cls-8" d="M109.64,70.86h-.16l.09.51h.26l.11-.51Z"/><g id="_Group_167" data-name="&lt;Group&gt;"><path id="_Path_218" data-name="&lt;Path&gt;" class="cls-1" d="M109.64,70.86h-.16l.09.51h.26l.11-.51Z"/></g><path id="_Path_219" data-name="&lt;Path&gt;" class="cls-8" d="M110.81,71l0,.44.31.12,0-.46-.29-.1Z"/><g id="_Group_168" data-name="&lt;Group&gt;"><path id="_Path_220" data-name="&lt;Path&gt;" class="cls-1" d="M110.81,71l0,.44.31.12,0-.46Z"/></g><polygon id="_Path_221" data-name="&lt;Path&gt;" class="cls-8" points="107.95 72.25 108.03 71.69 107.63 71.46 107.64 72.11 107.95 72.25"/><g id="_Group_169" data-name="&lt;Group&gt;"><polygon id="_Path_222" data-name="&lt;Path&gt;" class="cls-1" points="107.95 72.25 108.03 71.69 107.63 71.46 107.64 72.11 107.95 72.25"/></g><polygon id="_Path_223" data-name="&lt;Path&gt;" class="cls-8" points="111.64 72.13 111.66 71.57 111.27 71.69 111.64 72.13"/><g id="_Group_170" data-name="&lt;Group&gt;"><polygon id="_Path_224" data-name="&lt;Path&gt;" class="cls-1" points="111.64 72.13 111.66 71.57 111.27 71.69 111.64 72.13"/></g><path id="_Path_225" data-name="&lt;Path&gt;" class="cls-6" d="M104.68,68.51a1,1,0,0,0-.88-.38,1,1,0,0,0-.87.38.29.29,0,0,1,0-.16c0-.3.4-.53.91-.53s.92.23.92.53a.29.29,0,0,1,0,.16Z"/><g id="_Group_171" data-name="&lt;Group&gt;"><path id="_Path_226" data-name="&lt;Path&gt;" class="cls-5" d="M104.64,68.53a1.29,1.29,0,0,0-1.67,0,.71.71,0,0,1,0-.2c.19-.2,1.39-.34,1.73.08l0-.06c0-.49-1.51-.56-1.71-.12.14-.69,1.82-.47,1.82.12l-.06.1a.1.1,0,0,1,0,0l0,0v0h0l0,0Z"/></g><path id="_Path_227" data-name="&lt;Path&gt;" class="cls-6" d="M104.61,69.15a1,1,0,0,1-.81,1c-.44,0-.79-.47-.79-1V68.6h1.6Z"/><g id="_Group_172" data-name="&lt;Group&gt;"><path id="_Compound_Path_116" data-name="&lt;Compound Path&gt;" class="cls-5" d="M103.8,70.26a1,1,0,0,1-.86-1.11V68.6l1.67-.06,0,.61a1,1,0,0,1-.86,1.11Zm.74-1.66-1.53.06.06.49a.88.88,0,0,0,.73,1c.41,0,.74-.42.74-1V68.6Z"/></g><path id="_Path_228" data-name="&lt;Path&gt;" class="cls-9" d="M104.6,68.42c0,.22-.35.39-.8.39s-.79-.17-.79-.39.36-.4.79-.4.8.19.8.4Z"/><polygon id="_Path_229" data-name="&lt;Path&gt;" class="cls-6" points="103.62 68.86 103.49 67.42 104.09 67.42 104 68.86 103.62 68.86"/><g id="_Group_173" data-name="&lt;Group&gt;"><polygon id="_Path_230" data-name="&lt;Path&gt;" class="cls-15" points="104.03 68.91 103.62 68.91 103.44 67.42 104.09 67.38 104.03 68.91 104.03 68.91"/></g><path id="_Path_231" data-name="&lt;Path&gt;" class="cls-6" d="M104.68,68.44a1.2,1.2,0,0,1-1.75,0,.32.32,0,0,0,0,.16c0,.3.4.53.91.53s.92-.23.92-.53a.32.32,0,0,0,0-.16Z"/><g id="_Group_174" data-name="&lt;Group&gt;"><path id="_Compound_Path_117" data-name="&lt;Compound Path&gt;" class="cls-5" d="M103.8,69.18c-.53,0-1-.25-1-.58a.08.08,0,0,1,.07,0c.25.6,1.58.51,1.74.07,0,.33-.4.49-.85.49Zm0-.31a1.31,1.31,0,0,1-.78-.23c.51.1,1.43.14,1.6-.22a.51.51,0,0,1,0,.2,1.4,1.4,0,0,1-.86.25Z"/></g><polygon id="_Path_232" data-name="&lt;Path&gt;" class="cls-8" points="103.19 71.44 104.79 71.61 105.03 70.17 103.16 69.98 103.19 71.44"/><g id="_Group_175" data-name="&lt;Group&gt;"><polygon id="_Path_233" data-name="&lt;Path&gt;" points="104.83 71.61 103.19 71.48 103.19 71.41 104.79 71.56 105.01 70.17 103.15 70.03 105.03 70.14 104.83 71.61 104.83 71.61"/></g><polygon id="_Path_234" data-name="&lt;Path&gt;" class="cls-8" points="103.6 69.92 103.37 71.61 103.84 71.58 104.03 69.92 103.6 69.92"/><g id="_Group_176" data-name="&lt;Group&gt;"><polygon id="_Path_235" data-name="&lt;Path&gt;" points="103.32 71.65 103.57 69.92 104.03 69.89 103.88 71.6 103.32 71.65 103.32 71.65"/></g><path id="_Path_236" data-name="&lt;Path&gt;" class="cls-8" d="M115.72,68.41c.36-.06.91.44.93,1.06s-.75.47-.75.47c0,.2-.45.38-.8.39s.09-.62.09-.62a1.89,1.89,0,0,1,.07-1.2Z"/><g id="_Group_177" data-name="&lt;Group&gt;"><path id="_Path_237" data-name="&lt;Path&gt;" d="M115.11,70.38s0-.07-.08-.1c.5,0,.81-.18.84-.35s.46,0,.66-.21a1.15,1.15,0,0,0-.35-1.1.67.67,0,0,0-.45-.18l-.46.11a2.21,2.21,0,0,0,0,1.1h1.09l-.52.09-.29,0-.28,0a1.33,1.33,0,0,0-.2.51.77.77,0,0,1,.13-.53,1.87,1.87,0,0,1,.08-1.21l.48-.12a.64.64,0,0,1,.52.19,1.4,1.4,0,0,1,.47.91.39.39,0,0,1-.12.3.91.91,0,0,1-.68.2c0,.2-.43.41-.79.41Z"/></g><path id="_Path_238" data-name="&lt;Path&gt;" class="cls-11" d="M115.9,68.77a.37.37,0,0,0-.16-.65h-.48c-.23,0-.61.26-.56.46a.28.28,0,0,0,.36.24c.09,0,.28-.25.37-.25s.37.26.47.19Z"/><g id="_Group_178" data-name="&lt;Group&gt;"><path id="_Compound_Path_118" data-name="&lt;Compound Path&gt;" class="cls-15" d="M115,68.88a.33.33,0,0,1-.33-.28c.18-.37.42-.51.6-.52h.48c.13,0,.27.14.33.31a.4.4,0,0,1-.13.42.45.45,0,0,1-.31-.1l-.64.17Zm.75-.72h-.48a.75.75,0,0,0-.48.25c0,.31.07.37.21.37v0l.44-.29.44.19a.25.25,0,0,0,.11-.33.31.31,0,0,0-.24-.25Z"/></g><path id="_Path_239" data-name="&lt;Path&gt;" class="cls-10" d="M109.67,50.41c-.31-.13-1-.56-.79-.82l.32-.54c.44-1,0-.6-.06-.92s1.7-.07,1.72.62a3.66,3.66,0,0,0-.1,1.14l-.34.64a1.49,1.49,0,0,1-.75-.12Z"/><g id="_Group_179" data-name="&lt;Group&gt;"><path id="_Compound_Path_119" data-name="&lt;Compound Path&gt;" class="cls-12" d="M110.26,50.57a1.62,1.62,0,0,1-.61-.11c-.19-.1-.77-.42-.84-.71l.37-.72c.27-.62.17-.67.08-.71l-.13-.27c.32-.36,1.76.05,1.77.69a3.65,3.65,0,0,0-.11,1.15l-.34.64-.19,0ZM109.47,48a.5.5,0,0,0-.28.06c.27.22.34.31,0,1l-.32.55c0,.35.54.66.77.77a1.26,1.26,0,0,0,.57.11v0l.16,0,.31-.62a2.45,2.45,0,0,1,.08-1c0-.59-.87-.82-1.34-.82Z"/></g><polygon id="_Path_240" data-name="&lt;Path&gt;" class="cls-8" points="109.89 53 109.46 52.64 109.57 49.53 110 49.64 109.89 53"/><g id="_Group_180" data-name="&lt;Group&gt;"><path id="_Compound_Path_120" data-name="&lt;Compound Path&gt;" d="M109.92,53.09l-.49-.42.1-3.14.48.08-.09,3.48Zm-.36-3.53-.07,3.08.36.28.1-3.28-.39-.08Z"/></g><path id="_Path_241" data-name="&lt;Path&gt;" class="cls-11" d="M110.45,50.5a.75.75,0,0,0,.28-.91c-.44-.57-.72-.33-1.48-.58-.16.16-.47.46-.4.69,1,.46.61.07.93.13s.29.24.67.67Z"/><g id="_Group_181" data-name="&lt;Group&gt;"><path id="_Compound_Path_121" data-name="&lt;Compound Path&gt;" class="cls-13" d="M110.44,50.56l-.27-.33c-.19-.23-.28-.34-.4-.36l-.27.09a1.91,1.91,0,0,1-.67-.22c-.09-.26.17-.53.33-.71a5.44,5.44,0,0,1,.74.09,1.09,1.09,0,0,1,.86.44.68.68,0,0,1,0,.49.74.74,0,0,1-.34.48l0,0Zm-.65-.77c.15,0,.24.14.43.39l.23.28a.83.83,0,0,0,.28-.42.61.61,0,0,0,0-.43,1,1,0,0,0-.81-.42,2.93,2.93,0,0,1-.65-.15c-.16.2-.4.46-.34.65a2.21,2.21,0,0,0,.6.2l.29-.1Z"/></g><path id="_Compound_Path_122" data-name="&lt;Compound Path&gt;" class="cls-8" d="M94,74.91c-.28,0-.33.35-.22.63-1.19.34-2.23.76-3.28,1.06,0-.21.52-.81.52-.81s.27.4.27.4A1.65,1.65,0,0,1,92,75.05a3.92,3.92,0,0,0-1.8.61,2,2,0,0,1,.55,0,6.42,6.42,0,0,0-1,1.32c.15.33,1.77.57,1.77.57s-.47.41-.47.41a2.69,2.69,0,0,0,1.9-.58,2.79,2.79,0,0,1-1.34-.54s.11.29,0,.43-.92-.27-1-.43L93.91,76c0,.18.25.53.51.46s.12-.38,0-.62a.29.29,0,0,0,.23.09.32.32,0,0,0,.32-.33.32.32,0,0,0-.32-.32.35.35,0,0,0-.33.22c0-.2-.15-.59-.35-.57Zm.83.67a.16.16,0,0,1-.15.16.16.16,0,0,1-.16-.16.14.14,0,0,1,.16-.15.15.15,0,0,1,.15.15Z"/><g id="_Group_182" data-name="&lt;Group&gt;"><path id="_Compound_Path_123" data-name="&lt;Compound Path&gt;" d="M91.35,78a2.48,2.48,0,0,1-.27,0c.2-.23.44-.42.44-.46s-1.6-.21-1.75-.55a3.08,3.08,0,0,1,.67-1,6.79,6.79,0,0,0-.6,1c.11.23,1.29.46,1.73.53,0,.13-.31.37-.45.48l.23,0a3,3,0,0,0,1.61-.6,2.12,2.12,0,0,1-1.27-.44.4.4,0,0,1,0,.37,2.86,2.86,0,0,1-1.07-.41c0-.07,0-.07,1-.32l2.27-.62c.08.17.24.47.45.47s.16-.26.08-.57c.46,0,.56-.1.56-.26s-.48-.35-.59-.09c-.13-.34-.25-.54-.37-.54a.51.51,0,0,0-.2.59l-1.75.6-1.55.5c-.09-.25.43-.82.48-.88.21.07.32.39.33.42A1.41,1.41,0,0,1,92,75.05c-.07.15-.58.57-.62,1.15-.1-.08-.21-.32-.32-.38-.16.23-.49.64-.45.78.44-.18,1-.36,1.47-.54s1.14-.38,1.75-.56a.41.41,0,0,1,0-.47l.23-.16h0c.22,0,.33.33.38.6,0-.35.67-.24.67.11a.38.38,0,0,1-.37.37l-.26-.11c.14.24.19.57,0,.63h0a.59.59,0,0,1-.54-.49c-.56.2-1.51.46-2.24.66-.52.13-.91.24-1,.24a7.78,7.78,0,0,0,1,.35,1.86,1.86,0,0,0-.1-.39s0,0,0,0h0a3.5,3.5,0,0,0,1.33.46,2.51,2.51,0,0,1-1.65.7Zm-1.1-2.34a3,3,0,0,1,1.69-.7l0,0a5.48,5.48,0,0,0-1.62.61,1.06,1.06,0,0,1,.27,0,.13.13,0,0,1,0,.06l-.35,0Z"/></g><path id="_Path_242" data-name="&lt;Path&gt;" class="cls-8" d="M128.62,76.24a3.77,3.77,0,0,0-.08-1c-.16,0-.38.31-.38.31a3.17,3.17,0,0,0-.39-1.79,6,6,0,0,1,1.81,1.61,3.22,3.22,0,0,0-.67-.18c.08.66.54,1,.72,1.31,0,0-.76.17-.68.79l-.5,0c-.17-.21.07-.56.07-.56l-3.4-1.42c-.22-.1-.71-.31-.64-.58s.89.11,1.09.18Z"/><g id="_Group_183" data-name="&lt;Group&gt;"><path id="_Path_243" data-name="&lt;Path&gt;" d="M128.43,77.38v0c-.18-.23.05-.58.06-.6L125.1,75.4c-.17-.09-.74-.32-.65-.64l.22,0c-.2.23,0,.41.48.6l3.38,1.42c0,.06-.19.37-.06.56H129c-.12-.61.66-.81.66-.81a1.26,1.26,0,0,1-.25-.26,1.89,1.89,0,0,1-.49-1,2.44,2.44,0,0,1,.72.13,7.53,7.53,0,0,0-1.82-1.52,2.48,2.48,0,0,1,.45,1.63.45.45,0,0,1,.31-.23,2.28,2.28,0,0,1,.13,1L125.55,75a3.61,3.61,0,0,0-.88-.28,1.53,1.53,0,0,1,.77.15l3.18,1.34a4.57,4.57,0,0,0-.12-.93,1.56,1.56,0,0,0-.32.31h0a.06.06,0,0,1,0-.07,4,4,0,0,0-.46-1.69,4.8,4.8,0,0,1,1.87,1.58c-.2,0-.58-.14-.69-.14a2.15,2.15,0,0,0,.49.9,1.9,1.9,0,0,1,.25.35c-.06.06-.75.23-.68.81l-.55.06Z"/></g><path id="_Path_244" data-name="&lt;Path&gt;" class="cls-8" d="M125.35,75.65l.4-.73c.14-.2-.14-.4-.36-.16l-.45.67c-.2.37.22.46.41.22Z"/><g id="_Group_184" data-name="&lt;Group&gt;"><path id="_Path_245" data-name="&lt;Path&gt;" d="M125.09,75.82l-.21-.09a.31.31,0,0,1,0-.31l.47-.7.24-.11.17.33-.4.73a.36.36,0,0,1-.29.15Z"/></g><polygon id="_Path_246" data-name="&lt;Path&gt;" class="cls-9" points="101.53 77.33 101.5 76.53 100.54 76.58 100.48 77.45 101.53 77.33"/><g id="_Group_185" data-name="&lt;Group&gt;"><path id="_Compound_Path_124" data-name="&lt;Compound Path&gt;" d="M100.44,77.51l.06-.94,1-.09.07.84-1.13.19Zm1-1-.93.09v.79l1-.12-.06-.76Z"/></g><path id="_Path_247" data-name="&lt;Path&gt;" class="cls-9" d="M94.45,78.46l-1.29-.74c5.35.5,6.43-1.37,7.73-1.47.79-.06.91.88-.63.44l.4,1s-3.79,2.12-7.52,1.25Z"/><g id="_Group_186" data-name="&lt;Group&gt;"><path id="_Compound_Path_125" data-name="&lt;Compound Path&gt;" d="M95,79.18A7.87,7.87,0,0,1,93.13,79l1.31-.54-1.29-.65c.63,0,1.2,0,1.7,0a9.27,9.27,0,0,0,4.81-1.12,3.26,3.26,0,0,1,1.22-.43h0c.42,0,.6.17.6.34s-.42.41-1.24.17l.44.92A12,12,0,0,1,95,79.18Zm-1.88-1.41,1.32.65L93.16,79A15.57,15.57,0,0,0,95,79.1a12.68,12.68,0,0,0,5.59-1.47l-.4-.93c.84.07,1.18,0,1.18-.14s-.16-.27-.45-.27a2.91,2.91,0,0,0-1.26.45,10.59,10.59,0,0,1-6.54,1Z"/></g><polygon id="_Path_248" data-name="&lt;Path&gt;" class="cls-9" points="117.72 77.33 117.75 76.53 118.93 76.56 118.98 77.43 117.72 77.33"/><g id="_Group_187" data-name="&lt;Group&gt;"><path id="_Compound_Path_126" data-name="&lt;Compound Path&gt;" d="M119,77.47l-1.3-.11v-.83l1.22,0,.09,1Zm-.13-.91h-1.14v.75l1.19.07-.06-.83Z"/></g><path id="_Path_249" data-name="&lt;Path&gt;" class="cls-9" d="M125,78.26l1.22-.67c-6.11.19-4.73-1-7.78-1.34-.79-.09-1.39.94.62.44l-.4,1h1a9.22,9.22,0,0,0,6.76,1Z"/><g id="_Group_188" data-name="&lt;Group&gt;"><path id="_Compound_Path_127" data-name="&lt;Compound Path&gt;" d="M124.36,79h0a8.61,8.61,0,0,1-4.71-1.28h-1l.36-1a2.45,2.45,0,0,1-.87.19c-.18,0-.5-.07-.5-.25s.31-.41.68-.41a6,6,0,0,1,2.33.63c.84.41,1.74.84,5.56.71l-1.19.73,1.36.4a5.9,5.9,0,0,1-2.07.3Zm-4.69-1.36a9.32,9.32,0,0,0,6.75,1.06L125,78.3l1.2-.75a5.44,5.44,0,0,1-1.17.1c-2.84,0-3.64-.38-4.41-.75a5.91,5.91,0,0,0-2.19-.6c-.4,0-.69.18-.69.32s.26.16.41.16a3.94,3.94,0,0,0,.9-.13l-.35,1,.93-.06Z"/></g><path id="_Path_250" data-name="&lt;Path&gt;" class="cls-9" d="M100.25,76.69v1.38a29.22,29.22,0,0,0,9.44,1.27,29,29,0,0,0,9.43-1.27V76.69s-2.56,1.18-9.43,1.18-9.44-1.18-9.44-1.18Z"/><g id="_Group_189" data-name="&lt;Group&gt;"><path id="_Compound_Path_128" data-name="&lt;Compound Path&gt;" d="M109.69,79.37a30.26,30.26,0,0,1-9.46-1.25l0-1.43s2.66,1.14,9.49,1.14,9.4-1.16,9.42-1.18l.06,1.42c-.06.06-3.47,1.3-9.48,1.3Zm-9.41-1.3a31.49,31.49,0,0,0,9.41,1.23A30,30,0,0,0,119.11,78l0-1.35c0,.07-2.67,1.23-9.4,1.23s-9.44-1.18-9.46-1.19l0,1.34Z"/></g><path id="_Compound_Path_129" data-name="&lt;Compound Path&gt;" d="M100.74,78.08l.31-1,.13,0-.26.89.52.14,0,.12Zm1-.45v-.19l0-.17.16,0,0,.16-.08.18Zm1.46-.07.13,0-.13.61a.56.56,0,0,1-.07.24.43.43,0,0,1-.17.12.61.61,0,0,1-.27,0,.45.45,0,0,1-.22-.1.2.2,0,0,1-.11-.16.5.5,0,0,1,0-.27l.12-.6.15,0-.12.57a.7.7,0,0,0,0,.22.21.21,0,0,0,.07.11.3.3,0,0,0,.15.07.3.3,0,0,0,.24,0,.36.36,0,0,0,.13-.24Zm.16,1.11.18-1,.14,0,.42.91.15-.82.13,0-.17,1-.16,0-.42-.9-.13.81Zm1.1.17.16-1,.15,0-.15,1Zm.41-.47a.7.7,0,0,1,.2-.39.56.56,0,0,1,.39-.11.63.63,0,0,1,.28.11.51.51,0,0,1,.15.22.48.48,0,0,1,0,.27.66.66,0,0,1-.09.28.63.63,0,0,1-.22.18.84.84,0,0,1-.27,0,.59.59,0,0,1-.27-.11.45.45,0,0,1-.15-.22.49.49,0,0,1,0-.27Zm.17,0a.4.4,0,0,0,0,.3.47.47,0,0,0,.27.16.41.41,0,0,0,.27-.1.36.36,0,0,0,.13-.3.45.45,0,0,0,0-.23.36.36,0,0,0-.12-.16.47.47,0,0,0-.19-.07.34.34,0,0,0-.27.07.37.37,0,0,0-.14.33Zm1,.62.09-1h.15l.51.88.06-.83H107l-.1,1-.14,0-.51-.86-.08.81Zm1.54.11,0-1.06.74,0v.13l-.61,0v.32l.52,0v.12l-.51,0,0,.48Zm.79,0,.45-1H109l.41,1.06h-.14l-.13-.32h-.46l-.12.3Zm.34-.42h.37l-.12-.3c0-.09,0-.16-.07-.21a.32.32,0,0,1-.07.19Zm.83.44V78.13h.14v1.05Zm.67,0v-.92h-.36v-.12h.88v.12h-.36v.92Zm1.08,0,0-1.06h.14l0,.94.54,0v.14Zm.73,0,.35-1.07h.15l.52,1h-.16l-.15-.3-.45,0-.09.33Zm.29-.46.38,0-.15-.28c0-.07-.06-.15-.09-.21a1.55,1.55,0,0,1,0,.21Zm1.28.35-.12-1.06.74-.07V78l-.58.08,0,.32.51-.06,0,.13-.52.06.06.47Zm.79-.62a.62.62,0,0,1,.1-.42.47.47,0,0,1,.35-.19.65.65,0,0,1,.28,0,.53.53,0,0,1,.31.44.56.56,0,0,1,0,.29.65.65,0,0,1-.16.22l-.24.11a.54.54,0,0,1-.29,0,.52.52,0,0,1-.22-.17.68.68,0,0,1-.11-.26Zm.16,0a.42.42,0,0,0,.14.28.44.44,0,0,0,.29.09.52.52,0,0,0,.26-.16.48.48,0,0,0,0-.32.63.63,0,0,0-.08-.22c0-.06-.09-.11-.16-.12a.25.25,0,0,0-.2,0,.36.36,0,0,0-.25.14.44.44,0,0,0,0,.34Zm1.15.35-.19-1,.47-.09h.22a.18.18,0,0,1,.13.09.24.24,0,0,1,.09.14.34.34,0,0,1,0,.2.44.44,0,0,1-.22.14l.1,0,.15.11.24.25-.17,0-.2-.2a1.33,1.33,0,0,1-.12-.12.21.21,0,0,0-.09,0,.1.1,0,0,0-.07,0h-.09l-.16,0,.09.45Zm0-.59.31-.06.14,0a.12.12,0,0,0,.08-.09.11.11,0,0,0,0-.08.17.17,0,0,0-.07-.13.54.54,0,0,0-.19,0l-.33.06Zm1.74-.12h.14a.57.57,0,0,1-.11.3.51.51,0,0,1-.25.15.71.71,0,0,1-.3,0,.35.35,0,0,1-.21-.16.63.63,0,0,1-.12-.26.39.39,0,0,1,0-.3.36.36,0,0,1,.13-.21.52.52,0,0,1,.26-.12.44.44,0,0,1,.28,0,.41.41,0,0,1,.19.18l-.12.07a.33.33,0,0,0-.15-.14.27.27,0,0,0-.18,0,.37.37,0,0,0-.2.09.33.33,0,0,0-.08.18.64.64,0,0,0,0,.2,1,1,0,0,0,.09.23.27.27,0,0,0,.16.12.46.46,0,0,0,.2,0,.59.59,0,0,0,.19-.11.38.38,0,0,0,.07-.22Zm.39.29-.3-1,.76-.2,0,.12-.63.16.09.32.58-.16,0,.11-.57.17.09.34.65-.18,0,.12Z"/></g></g></g></g></g></g></svg>