<svg id="Layer_1" data-name="Layer 1" xmlns="http://www.w3.org/2000/svg" xmlns:xlink="http://www.w3.org/1999/xlink" viewBox="0 0 220 128"><defs><style>.cls-1{fill:none;}.cls-2{clip-path:url(#clip-path);}.cls-3{fill:#1a237b;}.cls-4{fill:#fff;}.cls-5{fill:#bd0034;}</style><clipPath id="clip-path"><rect id="_Clipping_Path_" data-name="&lt;Clipping Path&gt;" class="cls-1" width="220" height="128"/></clipPath></defs><title>Flag_rect_New Zealand</title><g id="NEW_ZEALAND" data-name="NEW ZEALAND"><g id="_Group_" data-name="&lt;Group&gt;"><g id="_Clip_Group_" data-name="&lt;Clip Group&gt;"><g class="cls-2"><polygon id="_Path_" data-name="&lt;Path&gt;" class="cls-3" points="109.76 0 109.76 4.07 109.76 5.47 109.76 6.12 85.4 18.29 109.76 18.29 109.76 21.95 109.76 27.44 109.76 32.93 109.76 36.58 85.4 36.58 109.76 48.76 109.76 50.8 109.76 54.88 109.76 55.23 102.26 55.23 99.46 55.23 98.17 55.23 64 38.14 64 55.23 60.34 55.23 54.85 55.23 49.37 55.23 45.71 55.23 45.71 38.14 11.54 55.23 7.45 55.23 0 55.23 0 128 220 128 220 0 109.76 0"/><polygon id="_Path_2" data-name="&lt;Path&gt;" class="cls-3" points="0 36.58 0 48.73 24.31 36.58 0 36.58"/><polygon id="_Path_3" data-name="&lt;Path&gt;" class="cls-3" points="64 0 64 16.74 97.45 0 64 0"/><polygon id="_Path_4" data-name="&lt;Path&gt;" class="cls-3" points="45.71 0 12.27 0 45.71 16.74 45.71 0"/><polygon id="_Path_5" data-name="&lt;Path&gt;" class="cls-3" points="0 18.29 24.31 18.29 0 6.15 0 18.29"/><polygon id="_Path_6" data-name="&lt;Path&gt;" class="cls-4" points="109.72 0 73.14 18.29 64.95 18.29 101.52 0 97.45 0 64 16.74 64 0 60.34 0 60.34 18.56 60.34 20.6 60.34 21.95 65.82 21.95 74 21.95 76.8 21.95 78.08 21.95 109.76 21.95 109.76 18.29 85.4 18.29 109.76 6.12 109.76 5.47 109.76 4.07 109.76 0 109.72 0"/><polygon id="_Path_7" data-name="&lt;Path&gt;" class="cls-4" points="45.71 0 45.71 16.74 12.27 0 0 0 36.57 18.29 28.39 18.29 0 4.11 0 6.15 24.31 18.29 0 18.29 0 21.95 31.61 21.95 35.71 21.95 43.88 21.95 49.37 21.95 49.37 20.6 49.37 19.21 49.37 18.56 49.37 0 45.71 0"/><polygon id="_Path_8" data-name="&lt;Path&gt;" class="cls-4" points="74 32.93 65.82 32.93 60.34 32.93 60.34 34.27 60.34 35.66 60.34 36.31 60.34 55.23 64 55.23 64 38.14 98.17 55.23 99.46 55.23 102.26 55.23 109.76 55.23 109.76 54.88 73.14 36.58 81.31 36.58 109.76 50.8 109.76 48.76 85.4 36.58 109.76 36.58 109.76 32.93 78.08 32.93 74 32.93"/><polygon id="_Path_9" data-name="&lt;Path&gt;" class="cls-4" points="43.88 32.93 35.71 32.93 32.91 32.93 31.61 32.93 0 32.93 0 36.58 24.31 36.58 0 48.73 0 54.86 36.57 36.58 44.74 36.58 7.45 55.23 11.54 55.23 45.71 38.14 45.71 55.23 49.37 55.23 49.37 36.31 49.37 34.27 49.37 32.93 43.88 32.93"/><polygon id="_Path_10" data-name="&lt;Path&gt;" class="cls-5" points="36.57 36.58 0 54.86 0 55.23 7.45 55.23 44.74 36.58 36.57 36.58"/><polygon id="_Path_11" data-name="&lt;Path&gt;" class="cls-5" points="0 4.11 28.39 18.29 36.57 18.29 0 0 0 4.11"/><polygon id="_Path_12" data-name="&lt;Path&gt;" class="cls-5" points="109.72 0 101.52 0 64.95 18.29 73.14 18.29 109.72 0"/><polygon id="_Path_13" data-name="&lt;Path&gt;" class="cls-5" points="73.14 36.58 109.76 54.88 109.76 50.8 81.31 36.58 73.14 36.58"/><polygon id="_Path_14" data-name="&lt;Path&gt;" class="cls-5" points="49.37 0 49.37 18.56 49.37 19.21 49.37 20.6 49.37 21.95 43.88 21.95 35.71 21.95 31.61 21.95 0 21.95 0 32.93 31.61 32.93 32.91 32.93 35.71 32.93 43.88 32.93 49.37 32.93 49.37 34.27 49.37 36.31 49.37 55.23 54.85 55.23 60.34 55.23 60.34 36.31 60.34 35.66 60.34 34.27 60.34 32.93 65.82 32.93 74 32.93 78.08 32.93 109.76 32.93 109.76 27.44 109.76 21.95 78.08 21.95 76.8 21.95 74 21.95 65.82 21.95 60.34 21.95 60.34 20.6 60.34 18.56 60.34 0 49.37 0"/><polygon id="_Path_15" data-name="&lt;Path&gt;" class="cls-4" points="152.32 37.36 158.27 37.36 160.13 31.69 161.97 37.36 167.91 37.36 163.1 40.87 164.94 46.54 160.13 43.03 155.28 46.54 157.14 40.87 152.32 37.36"/><polygon id="_Path_16" data-name="&lt;Path&gt;" class="cls-5" points="154.96 38.23 158.9 38.23 160.13 34.48 161.34 38.23 165.27 38.23 162.09 40.54 163.3 44.3 160.13 41.98 156.93 44.3 158.15 40.54 154.96 38.23"/><polygon id="_Path_17" data-name="&lt;Path&gt;" class="cls-4" points="128.45 61.36 134.41 61.36 136.27 55.68 138.11 61.36 144.07 61.36 139.26 64.86 141.08 70.53 136.27 67.03 131.46 70.53 133.29 64.86 128.45 61.36"/><polygon id="_Path_18" data-name="&lt;Path&gt;" class="cls-5" points="131.1 62.22 135.04 62.22 136.27 58.47 137.48 62.22 141.44 62.22 138.24 64.54 139.46 68.29 136.27 65.96 133.07 68.29 134.3 64.54 131.1 62.22"/><polygon id="_Path_19" data-name="&lt;Path&gt;" class="cls-4" points="173.61 55.41 178.93 55.41 180.57 50.36 182.21 55.41 187.5 55.41 183.22 58.51 184.86 63.57 180.57 60.46 176.27 63.57 177.92 58.51 173.61 55.41"/><polygon id="_Path_20" data-name="&lt;Path&gt;" class="cls-5" points="175.97 56.17 179.49 56.17 180.57 52.83 181.65 56.17 185.17 56.17 182.32 58.24 183.4 61.57 180.57 59.51 177.72 61.57 178.82 58.24 175.97 56.17"/><polygon id="_Path_21" data-name="&lt;Path&gt;" class="cls-4" points="151.45 99.01 158.07 99.01 160.13 92.71 162.16 99.01 168.79 99.01 163.44 102.92 165.47 109.22 160.13 105.32 154.77 109.22 156.81 102.92 151.45 99.01"/><polygon id="_Path_22" data-name="&lt;Path&gt;" class="cls-5" points="154.39 99.98 158.77 99.98 160.13 95.81 161.47 99.98 165.85 99.98 162.32 102.55 163.67 106.73 160.13 104.15 156.59 106.73 157.94 102.55 154.39 99.98"/></g></g></g></g></svg>