<svg id="Layer_1" data-name="Layer 1" xmlns="http://www.w3.org/2000/svg" xmlns:xlink="http://www.w3.org/1999/xlink" viewBox="0 0 220 128"><defs><style>.cls-1{fill:none;}.cls-2{clip-path:url(#clip-path);}.cls-3{fill:#ed1b23;}.cls-4{fill:#0065b1;}.cls-5{fill:#fff;}</style><clipPath id="clip-path"><rect id="_Clipping_Path_" data-name="&lt;Clipping Path&gt;" class="cls-1" width="219.42" height="128"/></clipPath></defs><title>Flag_rect_Samoa</title><g id="SAMOA"><g id="_Group_" data-name="&lt;Group&gt;"><g id="_Clip_Group_" data-name="&lt;Clip Group&gt;"><g class="cls-2"><rect id="_Path_" data-name="&lt;Path&gt;" class="cls-3" width="219.42" height="128"/><rect id="_Path_2" data-name="&lt;Path&gt;" class="cls-4" width="117.22" height="58.62"/><polygon class="cls-5" points="61.73 50.26 66.76 46.61 60.54 46.61 58.62 40.69 56.69 46.61 50.48 46.61 55.5 50.26 53.58 56.17 58.62 52.52 63.65 56.17 61.73 50.26"/><polygon class="cls-5" points="43.19 24.76 47.23 21.83 42.24 21.83 40.71 17.1 39.17 21.83 34.19 21.83 38.22 24.75 36.67 29.5 40.7 26.57 44.73 29.5 43.19 24.76"/><polygon class="cls-5" points="79.26 21.84 83.03 19.1 78.37 19.1 76.93 14.67 75.49 19.1 70.83 19.1 74.6 21.84 73.16 26.28 76.93 23.53 80.7 26.28 79.26 21.84"/><polygon class="cls-5" points="61.1 10.1 65.12 7.18 60.15 7.18 58.62 2.46 57.08 7.18 52.11 7.18 56.13 10.1 54.59 14.83 58.62 11.91 62.64 14.83 61.1 10.1"/><polygon class="cls-5" points="69.13 34.49 71.63 32.67 68.53 32.67 67.56 29.71 66.6 32.67 63.5 32.67 66.01 34.49 65.05 37.45 67.57 35.62 70.1 37.45 69.13 34.49"/></g></g></g></g></svg>