<svg id="Layer_1" data-name="Layer 1" xmlns="http://www.w3.org/2000/svg" xmlns:xlink="http://www.w3.org/1999/xlink" viewBox="0 0 220 128"><defs><style>.cls-1{fill:none;}.cls-2{clip-path:url(#clip-path);}.cls-3{fill:#d02029;}.cls-4{fill:#fff;}</style><clipPath id="clip-path"><rect id="_Clipping_Path_" data-name="&lt;Clipping Path&gt;" class="cls-1" width="219.39" height="128"/></clipPath></defs><title>Flag_rect_Turkey</title><g id="TURKEY"><g id="_Group_" data-name="&lt;Group&gt;"><g id="_Clip_Group_" data-name="&lt;Clip Group&gt;"><g class="cls-2"><rect id="_Path_" data-name="&lt;Path&gt;" class="cls-3" width="219.39" height="128"/><g id="_Clip_Group_2" data-name="&lt;Clip Group&gt;"><g class="cls-2"><path id="_Path_2" data-name="&lt;Path&gt;" class="cls-4" d="M64,32A32,32,0,1,1,32,64,32,32,0,0,1,64,32"/><path id="_Path_3" data-name="&lt;Path&gt;" class="cls-3" d="M72,38.38A25.61,25.61,0,1,1,46.39,64,25.6,25.6,0,0,1,72,38.38"/><polygon id="_Path_4" data-name="&lt;Path&gt;" class="cls-4" points="91.03 63.99 106.23 68.94 108.7 61.31 91.03 63.99"/><polygon id="_Path_5" data-name="&lt;Path&gt;" class="cls-4" points="91.03 63.99 106.23 59.06 108.7 66.67 91.03 63.99"/><polygon id="_Path_6" data-name="&lt;Path&gt;" class="cls-4" points="102.08 48.77 102.08 64.78 110.08 64.78 102.08 48.77"/><polygon id="_Path_7" data-name="&lt;Path&gt;" class="cls-4" points="102.08 48.77 111.47 61.72 105.02 66.41 102.08 48.77"/><polygon id="_Path_8" data-name="&lt;Path&gt;" class="cls-4" points="102.08 79.23 111.47 66.26 105.02 61.56 102.08 79.23"/><polygon id="_Path_9" data-name="&lt;Path&gt;" class="cls-4" points="102.08 79.23 102.08 63.2 110.08 63.2 102.08 79.23"/><polygon id="_Path_10" data-name="&lt;Path&gt;" class="cls-4" points="119.96 54.62 104.77 59.52 107.23 67.13 119.96 54.62"/><polygon id="_Path_11" data-name="&lt;Path&gt;" class="cls-4" points="119.96 54.62 110.56 67.54 104.08 62.84 119.96 54.62"/><polygon id="_Path_12" data-name="&lt;Path&gt;" class="cls-4" points="119.96 73.41 110.56 60.46 104.08 65.16 119.96 73.41"/><polygon id="_Path_13" data-name="&lt;Path&gt;" class="cls-4" points="119.96 73.41 104.77 68.45 107.23 60.85 119.96 73.41"/></g></g></g></g></g></g></svg>