<svg id="Layer_1" data-name="Layer 1" xmlns="http://www.w3.org/2000/svg" viewBox="0 0 220 128"><defs><style>.cls-1{fill:#e32118;}.cls-11,.cls-2,.cls-5{fill:#fff;}.cls-3{fill:#3e9a00;}.cls-4{fill:#0073ce;}.cls-10,.cls-11,.cls-5,.cls-6,.cls-7,.cls-8,.cls-9{stroke:#000;}.cls-5{stroke-width:0.77px;}.cls-6{fill:#73452b;}.cls-6,.cls-7,.cls-8,.cls-9{stroke-width:0.16px;}.cls-7{fill:#a36629;}.cls-8{fill:none;}.cls-9{fill:#009a3b;}.cls-10{fill:gold;}.cls-10,.cls-11{stroke-width:0.56px;}</style></defs><title>Flag_rect_Equatorial Guinea</title><rect class="cls-1" width="219.49" height="128"/><rect class="cls-2" width="219.49" height="85.33"/><rect class="cls-3" width="219.49" height="42.67"/><path class="cls-4" d="M0,0V128L48,64Z"/><g id="shield"><path class="cls-5" d="M99.76,51.14h20.43V72.53c0,7.2-9.39,1.66-10.19,5.5-1.39-4-10.19,1.76-10.19-5.92C99.81,64.64,99.76,51.14,99.76,51.14Z"/><path class="cls-6" d="M111.44,74.61a.67.67,0,0,1-.75.06c-.48-.22-.53-13.71-.53-13.71a6.66,6.66,0,0,1,1.92-1.55l.64.54c-2.4,1.22-2.19,3-2,6a26.47,26.47,0,0,0,.32,4c.37,1.76,1.12,3.25,1.17,4.37C112.29,75,111.44,74.61,111.44,74.61Z"/><path class="cls-6" d="M109.79,59.09h1a85.85,85.85,0,0,0-.11,14.56,1.54,1.54,0,0,0,.37,1c-1,1.06-1.44-.06-1.44-.06Z"/><path class="cls-7" d="M108.29,74.61c-.9.43-1-.42-1-.53,2-4,2.83-12.8,1-13.76l.1-.85a3.3,3.3,0,0,1,1.34,1.12c.26,9.86,0,13.92-.16,14.08-1,1-1.34-.16-1.39-.27"/><path class="cls-8" d="M108.24,74.45c-.16-.85,1.39-3,1.28-5.33"/><path class="cls-8" d="M110.85,71a8.25,8.25,0,0,1,.59,3.62"/><path class="cls-9" d="M112.93,55.47c.32-.38.32-.38.91-.38.11-.8,1.44-.8,1.55.22,1.06-.22,1.28.42.85,1.06,1-.26,1.92,0,1.65,1.18,1.82.48,1.12,1.76.32,2-.1.8-.85,1.07-1.86.75-1.28.91-2,.59-2.62-.32-1.44.21-1.54-.11-2.18-.91-1.12.48-1.34.48-2.3-.1,0,.74-.32.53-.8.48.06,1-.32,1.38-1.17,1.06.64,1.34-1,1.92-1.81.8-.75.06-.8-.16-1.18-.42a.92.92,0,0,1-1.7.32c-1.5-.22-1.34-1-.11-1.07.11-.85.85-.69,1.33-.59.06-.53.38-.42.64-.32-.16-.37,0-.58.43-.69-.69-.91-.27-1.23.43-1.55-.38-.85.26-.8.74-.85,0-.91.22-1.07,1.18-1.17-.11-.32,0-.59.58-.59-.32-.91.11-1.11,1.07-1,.16-1.32,3-.69,2.77,1.12C112.45,54.67,112.72,54.83,112.93,55.47Z"/><path class="cls-8" d="M107.23,55c.21.1.48,0,.53.58.43-.74,1-.32,1,.54"/><path class="cls-8" d="M111.65,54.56c-.21.32-1,.32-.9,1.17-.27-.37-.8-.48-1-.1"/><path class="cls-8" d="M112.93,55.47a2.65,2.65,0,0,1-.26,1.17"/><path class="cls-8" d="M116.24,56.37c.05.06-.75,0-1.12.27"/><path class="cls-8" d="M118.21,59.57c-.21-.1-.64-.37-1,.06,0-.22,0-.8-.58-.8"/><path class="cls-8" d="M116.35,60.32a1.23,1.23,0,0,0-.22-.85"/><path class="cls-8" d="M114.59,59.57c-.43-.32-.86.16-.86.43"/><path class="cls-8" d="M111.49,59.09c0-.21-.16-.64.22-.8"/><path class="cls-8" d="M105.41,61.33c.11-.53.48-.53.43-.8,0-.42-.53-.8-1.12-.21"/><path class="cls-8" d="M105.84,60.53a.7.7,0,0,1,.75.11"/><path class="cls-8" d="M104.93,58.56a1.1,1.1,0,0,1,1.07,0"/><path class="cls-8" d="M106,57.28c.27,0,.75-.11.91.37.58-.9,1-.8,1.12-.58"/><path class="cls-8" d="M109.09,57c.43-.16,1.18.27,1.6,1,.22-.58.54-.48.86-.53"/><path class="cls-8" d="M113.57,58c.7-.32,1.12.32,1.34.59a.91.91,0,0,1,.9-.43"/><path class="cls-8" d="M107.12,59.25a.59.59,0,0,1,.8-.16c0-.48.27-.69.48-.58"/></g><g id="stars"><path class="cls-10" d="M109.31,48.14l-1.18,0-.58,1.05-.64-1-1.18,0,.54-1.06-.64-1,1.22,0,.54-1,.64,1,1.17-.05-.53,1.06Z"/><path class="cls-10" d="M104.29,48.53l-1.17.29L102.8,50,102,49.1l-1.12.28.32-1.14-.8-.86,1.12-.29.32-1.14.85.86,1.17-.28-.37,1.14Z"/><path class="cls-10" d="M99.44,49.53l-1.07.52-.05,1.19-1-.65-1.07.52.11-1.18-1-.66,1.07-.53.11-1.19,1,.65,1.06-.52,0,1.18Z"/><path class="cls-10" d="M110.85,48.14l1.18,0,.53,1.05.64-1,1.17,0-.53-1.06.64-1-1.17,0-.59-1-.64,1-1.17-.05.53,1.06Z"/><path class="cls-10" d="M115.87,48.53l1.12.29.32,1.13.85-.85,1.12.28L119,48.24l.85-.86-1.17-.29L118.32,46l-.85.86-1.12-.28.32,1.14Z"/><path class="cls-10" d="M120.67,49.53l1.06.52.06,1.19,1-.65,1.07.52-.06-1.18,1-.66-1.06-.53-.06-1.19-1,.65-1.07-.52.11,1.18Z"/></g><g id="motto"><path class="cls-11" d="M122.11,72.11,123.44,74l1.23-1.82-.86-1.54Z"/><path class="cls-11" d="M113.63,77.71l.1,1.92a3.71,3.71,0,0,0,1-.16,3.23,3.23,0,0,0,.8-.48l-.06-1Z"/><path class="cls-11" d="M106.48,77.71l-.11,1.86a5.36,5.36,0,0,1-1-.1,2.83,2.83,0,0,1-.8-.38l-.53-1.28Z"/><path class="cls-11" d="M97.89,72.11,96.51,74,95,71.57l1.12-1.17Z"/><path class="cls-11" d="M104.56,81.55c0,1.81,11,1.81,11,0V79c0,1.33-11,1.06-11,0Z"/><path class="cls-11" d="M94.75,75.63c1,4.9,9.81,5,9.81,5V79c-.21-.64.16-.86,1.6-1.07.59,0,.32-.91.32-.91s-3.84.7-6.56-.37a6.51,6.51,0,0,1-4.21-4.37A10.67,10.67,0,0,1,94.75,75.63Z"/><path class="cls-11" d="M125.31,75.63c-.91,4.9-9.76,5-9.76,5V79c.16-.64-.22-.86-1.66-1.07-.58,0-.26-.91-.26-.91s3.84.7,6.56-.37a6.22,6.22,0,0,0,4-4.37A11.8,11.8,0,0,0,125.31,75.63Z"/><path class="cls-11" d="M95.44,73.76c-2.45-1.33-.53-2.72-.32-6.67.37,2.4,3.09,3.42,2.77,5-1.12.06-1.65-1.65-2.18.22Z"/><path class="cls-11" d="M124.61,73.76c2.46-1.39.43-2.72.22-6.67-.38,2.4-3,3.42-2.72,5,1.06.06,1.6-1.65,2.13.22l.37,1.44Z"/><path d="M96.93,75.57l.27.22-.59.64c-.23.25-.29.42-.13.58s.35.12.56-.1l.64-.7.21.22-.64.74a.57.57,0,0,1-.94.06.6.6,0,0,1,0-.93l.65-.72Z"/><path d="M98,76.48l.27.16-.06,1.28L98.8,77l.27.16-.86,1.39-.32-.16L98,77.12l-.59.91-.27-.16Z"/><path d="M98.48,78.72l.75-1.49.26.16-.69,1.44Z"/><path d="M99.65,77.44,99.06,79l.59.21c.55.2.81,0,1-.51a.7.7,0,0,0-.45-1Zm.21.37c.56.2.59.41.44.79s-.28.5-.81.23Z"/><path d="M101.41,78l-1,1.44.37.11.22-.38.64.16,0,.38.37.05-.37-1.71Zm.11.37.1.64L101.2,79Z"/><path d="M102.33,78.17l-.06,1.65h.63c.58,0,.74-.3.76-.79s-.17-.81-.76-.84l-.57,0Zm.32.28c.58,0,.68.19.66.6s-.1.56-.69.48l0-1.08Z"/><path d="M107.92,80.48v1.71h.37v-.64a2.44,2.44,0,0,0,.59-.06c.21,0,.36-.18.36-.52a.45.45,0,0,0-.51-.49Zm.37.27h.38c.31,0,.25.48,0,.48h-.39v-.48Z"/><path d="M109.84,80.48l-.69,1.71h.37l.16-.43h.69l.16.43h.38l-.7-1.71Zm.16.37.27.64h-.48Z"/><path d="M110.91,81.87l.9-1.12H111v-.27h1.28v.27l-1,1.12h1v.32h-1.38Z"/><path d="M116.29,78.56l.32,0,.16,1a.55.55,0,0,1-.34.66.47.47,0,0,1-.67-.45l.27-.05c.06.27.17.3.3.25s.15-.19.12-.36Z"/><path d="M116.83,78.46l.31-.06.15.8c.06.34.17.49.39.45s.31-.2.25-.51l-.2-.85.32-.05.22.89a.57.57,0,0,1-.51.79.59.59,0,0,1-.76-.53Z"/><path d="M118.48,79.2l.27-.11a.35.35,0,0,0,.49.16c.22-.1.25-.29.14-.36s-.53,0-.73,0-.34-.22-.33-.43.23-.39.47-.46a.53.53,0,0,1,.7.27l-.32.11a.23.23,0,0,0-.35-.11c-.1,0-.26.13-.18.27s.46,0,.67,0a.43.43,0,0,1,.42.36c0,.29-.07.44-.4.57a.61.61,0,0,1-.85-.29Z"/><path d="M119.92,77.87l-.43.21-.1-.27,1.17-.48.11.22-.43.21.48,1.17-.27.16Z"/><path d="M120.61,77.28l.27-.16.75,1.39-.27.16Z"/><path d="M122.43,77.39l.32-.11a.65.65,0,0,1-.63.88.89.89,0,0,1-.77-1.2.66.66,0,0,1,1.08-.21l-.27.21a.34.34,0,0,0-.57.12.73.73,0,0,0,.39.77c.25.12.63-.18.45-.46Z"/><path d="M122.27,76.27l.26-.22,1,1.28-.26.22Z"/><path d="M123.28,75.47l-.27.21.59,1.6.27-.26-.16-.32.48-.43.32.16.26-.21Zm.11.37.53.27-.32.32Z"/></g></svg>