<svg id="Layer_1" data-name="Layer 1" xmlns="http://www.w3.org/2000/svg" xmlns:xlink="http://www.w3.org/1999/xlink" viewBox="0 0 220 128"><defs><style>.cls-1{fill:none;}.cls-2{clip-path:url(#clip-path);}.cls-3{fill:#00b9e4;}.cls-4{fill:#ed2939;}.cls-5{fill:#3f9c35;}.cls-6{fill:#fff;}</style><clipPath id="clip-path"><rect id="_Clipping_Path_" data-name="&lt;Clipping Path&gt;" class="cls-1" width="219.43" height="128"/></clipPath></defs><title>Flag_rect_Azerbaijan</title><g id="AZERBAIJAN"><g id="_Group_" data-name="&lt;Group&gt;"><g id="_Clip_Group_" data-name="&lt;Clip Group&gt;"><g class="cls-2"><rect id="_Path_" data-name="&lt;Path&gt;" class="cls-3" width="219.43" height="128"/><rect id="_Path_2" data-name="&lt;Path&gt;" class="cls-4" y="42.68" width="219.43" height="42.67"/><rect id="_Path_3" data-name="&lt;Path&gt;" class="cls-5" y="85.35" width="219.43" height="42.65"/><g id="_Clip_Group_2" data-name="&lt;Clip Group&gt;"><g class="cls-2"><path id="_Path_4" data-name="&lt;Path&gt;" class="cls-6" d="M114,79a15,15,0,1,1,8.11-27.51,17.92,17.92,0,1,0,0,25.11A15,15,0,0,1,114,79"/><polygon id="_Path_5" data-name="&lt;Path&gt;" class="cls-6" points="134.26 70.79 129.36 68.57 127.48 73.63 125.59 68.57 120.69 70.79 122.91 65.89 117.87 64 122.91 62.11 120.7 57.23 125.6 59.43 127.49 54.42 129.38 59.45 134.27 57.23 132.04 62.11 137.08 64.03 132.04 65.92 134.26 70.79"/></g></g></g></g></g></g></svg>