<svg id="Layer_1" data-name="Layer 1" xmlns="http://www.w3.org/2000/svg" xmlns:xlink="http://www.w3.org/1999/xlink" viewBox="0 0 220 128"><defs><style>.cls-1{fill:none;}.cls-2{clip-path:url(#clip-path);}.cls-3{fill:#2d3078;}.cls-4{fill:#f2c437;}</style><clipPath id="clip-path"><rect id="_Clipping_Path_" data-name="&lt;Clipping Path&gt;" class="cls-1" width="220" height="128"/></clipPath></defs><title>Flag_rect_Barbados</title><g id="BARBADOS"><g id="_Group_" data-name="&lt;Group&gt;"><g id="_Clip_Group_" data-name="&lt;Clip Group&gt;"><g class="cls-2"><rect id="_Path_" data-name="&lt;Path&gt;" class="cls-3" width="220" height="128"/><rect id="_Path_2" data-name="&lt;Path&gt;" class="cls-4" x="73.15" width="73.15" height="128"/><g id="_Clip_Group_2" data-name="&lt;Clip Group&gt;"><g class="cls-2"><path id="_Path_3" data-name="&lt;Path&gt;" d="M109.73,28.56c-2.38,6.48-4.8,13.22-10,18.4A22.12,22.12,0,0,1,106,46V73.26l-7.69,1.15c-.29,0-.38-.46-.38-1.06-.73-8.45-2.74-15.57-5-22.92-.18-1-3.08-4.86-.83-4.19.27,0,3.28,1.28,2.8.69a29.21,29.21,0,0,0-15.91-8.21c-.51-.13-.8.12-.34.72C86.3,51.32,92.76,65.34,92.69,82c3,0,10.29-1.77,13.29-1.77V99.45h7.51V80.21c3,0,10.27,1.77,13.27,1.77-.06-16.64,6.41-30.66,14.12-42.54.45-.6.14-.85-.36-.72a29.28,29.28,0,0,0-15.91,8.21c-.47.59,2.54-.65,2.81-.69,2.25-.67-.66,3.18-.82,4.19-2.32,7.35-4.31,14.47-5.06,22.92,0,.6-.08,1-.37,1.06l-7.68-1.15V46a21.92,21.92,0,0,1,6.22,1c-5.19-5.18-7.6-11.92-10-18.4"/></g></g></g></g></g></g></svg>