<svg id="Layer_1" data-name="Layer 1" xmlns="http://www.w3.org/2000/svg" viewBox="0 0 220 128"><defs><style>.cls-1{fill:#ea0437;}.cls-2{fill:#4189dd;}.cls-3{font-size:12px;font-family:MyriadPro-Regular, Myriad Pro;}.cls-4{fill:#ffc726;}</style></defs><title>Flag_rect_Eritrea</title><rect class="cls-1" x="0.57" width="219.43" height="128"/><path class="cls-2" d="M0,128H220V64"/><text class="cls-3" transform="translate(219.91 64)"> <tspan x="2.54" y="0"> </tspan><tspan x="5.09" y="0"> </tspan></text><path class="cls-4" d="M58.94,94.51c-2.76.76-4.35,2.91-4.31,4.93l13.62,0c.12-2.18-1.67-4.19-4.39-5,13.33-.27,24.92-5.27,27-8.47-2.09-.91-4.5.55-6.21.21C88.75,84.26,101,76.35,99,67.88c-1.54,4.7-6.22,8.6-8.21,9.65,4.56-6.93,10.8-14.15,5.39-19.73.27,3.23-2.06,6.8-3.09,7.06,2.65-7.32,5.18-16.51-.56-22.57.75,2.19.45,8.37-.59,8.65-.32-5-1.17-15.45-6.41-15.3,1.67,1.48,2.39,5.53,2.43,9.61a14.75,14.75,0,0,0-5.46-7C80.13,33.77,76,30,71.77,27.36c.47,3.28.86,5.87,5.44,9.27-2.39-.15-4.77-4.67-7.33-4.8-2-.1-3.62,1.84-6.94.73.37,1.09,1.92,1.58,2.25,2.39-.71.49-2.4-.08-3.8-.81,1.93,2.63,4.91,4.17,7.45,3.65a13.43,13.43,0,0,1,9.34,1.48c-.79.41-3.86.4-5.82.16,1.78,1.81,3,3,6.1,3,2.77,0,4.23-1.48,5-.58a47.45,47.45,0,0,1,4.37,6.57c-3.22.35-2.25-3.65-5.84-5.69-2,4.17,2.32,9.11,5.27,11.17A16.61,16.61,0,0,0,89,62a10.37,10.37,0,0,1,1.62,7.2c-1.77-1.29-3.5-5.62-2.86-9.07-2.21.61-3.07,4.49-2,6.45.78,1.49,1.29,4.34.4,5.61s-1,1.06-1,3.6A6.46,6.46,0,0,1,83,80.42a9.2,9.2,0,0,0,.29-4.08c-1.09,1.86-3.84,3.78-4.71,5.78s-1.07,5.48-5.18,6.28a44.74,44.74,0,0,0-10.53,3.36c-.38-2.58.75-8,2.91-7.67s8.52-2.21,6.23-7.61c-.45,1.7-2,3.36-3.59,3.44,1.76-2.29,4.91-4.66,3.38-8.5a11.07,11.07,0,0,1-4.23,4.69c2.18-4.17.25-5.42-2.33-2-1,1.32-1.57,4-2.19,7.36-1-2.75-1-6.36-2.15-9.3-1.26-3.17,1.67-4,3-3.76,3.38.9,9,.9,8.59-4.67-1.45,1.89-4,2.47-6.77,1.79,3.1-2.26,5.55-6.52,2.1-8.74A8,8,0,0,1,63.49,63a13.06,13.06,0,0,1-.08-6.41C62.05,58,61.06,61,60.27,64.4a25.94,25.94,0,0,1,1-7.55c.71-2.63,2.48-.92,5.19-.73S72.7,54.83,72,51.3a4.83,4.83,0,0,1-4.58,1.79c2.24-1.36,6.16-3.78,4-7.5-.9,1.41-1.19,2.61-3.8,3,.68-1.58.79-3.8,2.82-4.68-3.61-.72-5.68,1.65-6.74,5.37-.42-2.58-.93-3.53-1-5.41,2-2.17,2.16-6.42-2.07-7.37a9,9,0,0,0,.3,4.5c-2-1.18-4.79-1.83-6.65-.17A4.79,4.79,0,0,0,60.5,42c-.71,2.33-2.56,1.93-5.1,1,1.55,2.92,3.51,3.44,5.68,3.1,1.13,3,1.18,5.26-2.13,9.61.15-2.7,0-4.71-2.19-6.9-1.84-1.8-3.34.08-.46,4.08A12.28,12.28,0,0,1,52,46.39c-.57,3.22,0,7,1.73,9.15-.84.9-1.8-.09-3.22-2.3C51,60.3,54,61.66,58.08,60.09c.12,3.87.12,7.46.35,12.14-2.36-3.39-5.35-5.93-7-6.56-.52,1.9,1.44,4.37,2.53,5.76-1.67-.35-5.29-3.11-5.29-3.11-.37,3.14,3.7,6.06,6.33,7.36-3.09-.13-4.46-1.3-6.45-3.22,0,8.73,9.46,7.21,11.22,5.87.23,4.3.56,9.27.79,13.56-2.66-.46-2.45-1.26-4.73-1.47-6.32-.25-11.34-7.59-13-13-.48.89-.1,1.82-.54,2.92-1-2.66-2.33-6.08-4.09-7.67a17.48,17.48,0,0,1,.34,6c-.61-1.87-1.17-2.44-1.21-4.64,0-1.69,1.63-2.93,1.54-5.31C38.79,67,37.21,63.24,37,60.33c-.76,3-1.24,6.14-2.41,8,.58-3.2.39-5.4,1.38-7.55s2.1-4.29,1.34-6.57c-.72.88-.47,1.68-2.3,3.82-.39-2.33,2.36-6.06,5-7.56,1.89-1,4.26-4.55,2.71-7-1.77,1.28-2.57,3-5.07,5.94,1.78-7,6.43-8.82,12-8.84,1.23,0,3.72-.45,4.41-2.08a9.3,9.3,0,0,1-5.07.35c1.2-1.76,3.73-1.53,6.09-1.54,1.84,0,4.73-.26,5.89-2.89a13.19,13.19,0,0,1-8,.49c3.52-1.83,9-2,11.86-4.42-3.22-2.41-11.29.56-16.38,4.06a36.66,36.66,0,0,0,4.92-5.48c-2.79-1.34-9.84,6.47-12.27,11.11-2.3,1.3-3.23,3.34-4.12,4.77,1.23-4.15,1.36-7.17,2.38-10.59-7.9,2.72-4.62,17.33-6.33,20.82.2-3.85,0-8.81-1.55-11.37-2.44,1.86-2.64,12.79-.35,21.9C30.32,63.27,28.77,61,28.27,58c-3.61,6.57,2.11,14.33,6.89,20.45-3.6-1.87-7.16-5.9-9.49-9.28C26.31,81,38.59,83.4,40.5,86.29c-2.59-1.2-7.54-3.58-9.63-1.09a25.63,25.63,0,0,1,8.34,3.14c3.18,4,9.22,5.73,19.73,6.17Z"/></svg>