<svg id="Layer_1" data-name="Layer 1" xmlns="http://www.w3.org/2000/svg" xmlns:xlink="http://www.w3.org/1999/xlink" viewBox="0 0 220 128"><defs><style>.cls-1{fill:none;}.cls-2{clip-path:url(#clip-path);}.cls-3{fill:#7aafde;}.cls-4{fill:#fff;}</style><clipPath id="clip-path"><rect id="_Clipping_Path_" data-name="&lt;Clipping Path&gt;" class="cls-1" width="219.44" height="128"/></clipPath></defs><title>Flag_rect_Micronesia</title><g id="MICRONESIA"><g id="_Group_" data-name="&lt;Group&gt;"><g id="_Clip_Group_" data-name="&lt;Clip Group&gt;"><g class="cls-2"><rect id="_Path_" data-name="&lt;Path&gt;" class="cls-3" width="219.44" height="128"/><polygon class="cls-4" points="114.37 27.12 121.9 21.65 112.59 21.65 109.72 12.81 106.84 21.65 97.55 21.65 105.07 27.12 102.2 35.97 109.72 30.5 117.24 35.97 114.37 27.12"/><polygon class="cls-4" points="152.08 66.89 160.92 64.01 152.08 61.13 152.08 51.83 146.62 59.36 137.77 56.5 143.23 64.02 137.77 71.53 146.62 68.66 152.08 76.19 152.08 66.89"/><polygon class="cls-4" points="76.21 64.02 81.69 56.5 72.84 59.36 67.36 51.83 67.36 61.13 58.52 64.01 67.36 66.89 67.36 76.19 72.84 68.66 81.69 71.53 76.21 64.02"/><polygon class="cls-4" points="112.6 106.37 121.9 106.37 114.37 100.9 117.24 92.06 109.72 97.52 102.2 92.06 105.07 100.9 97.55 106.37 106.84 106.37 109.72 115.22 112.6 106.37"/></g></g></g></g></svg>