<svg id="Layer_1" data-name="Layer 1" xmlns="http://www.w3.org/2000/svg" xmlns:xlink="http://www.w3.org/1999/xlink" viewBox="0 0 219.43 128"><defs><style>.cls-1{fill:none;}.cls-2{clip-path:url(#clip-path);}.cls-3{fill:#fff;}.cls-4{fill:#2f3e98;}.cls-5{fill:#bc1f33;}.cls-6{fill:#2d6a34;}.cls-7{fill:#4561ac;}.cls-8{fill:#f4cc29;}.cls-9{fill:#f7e524;}</style><clipPath id="clip-path"><rect id="_Clipping_Path_" data-name="&lt;Clipping Path&gt;" class="cls-1" x="-0.01" width="219.45" height="128"/></clipPath></defs><title>Flag_rect_Paraguay</title><g id="PARAGUAY"><g id="_Group_" data-name="&lt;Group&gt;"><g id="_Clip_Group_" data-name="&lt;Clip Group&gt;"><g class="cls-2"><rect id="_Path_" data-name="&lt;Path&gt;" class="cls-3" x="-0.01" y="42.66" width="219.45" height="42.67"/><rect id="_Path_2" data-name="&lt;Path&gt;" class="cls-4" x="-0.01" y="85.34" width="219.45" height="42.66"/><rect id="_Path_3" data-name="&lt;Path&gt;" class="cls-5" x="-0.01" width="219.45" height="42.66"/><g id="_Clip_Group_2" data-name="&lt;Clip Group&gt;"><g class="cls-2"><path id="_Path_4" data-name="&lt;Path&gt;" class="cls-3" d="M126,64a16.27,16.27,0,1,1-16.28-16.25A16.26,16.26,0,0,1,126,64Z"/><g id="_Group_2" data-name="&lt;Group&gt;"><path id="_Compound_Path_" data-name="&lt;Compound Path&gt;" d="M109.69,80.52A16.53,16.53,0,1,1,126.24,64a16.54,16.54,0,0,1-16.55,16.52Zm0-32.51a16,16,0,1,0,16,16,16,16,0,0,0-16-16Z"/></g><path id="_Compound_Path_2" data-name="&lt;Compound Path&gt;" class="cls-5" d="M109.69,50.06a13.94,13.94,0,1,0,14,13.94,13.94,13.94,0,0,0-14-13.94Zm0,24.39A10.46,10.46,0,1,1,120.15,64a10.45,10.45,0,0,1-10.46,10.45Z"/><g id="_Group_3" data-name="&lt;Group&gt;"><path id="_Compound_Path_3" data-name="&lt;Compound Path&gt;" d="M109.69,78a14,14,0,1,1,14-14,14,14,0,0,1-14,14Zm0-27.87A13.92,13.92,0,1,0,123.63,64a13.94,13.94,0,0,0-13.94-13.92Zm0,24.39A10.47,10.47,0,1,1,120.17,64a10.48,10.48,0,0,1-10.48,10.47Zm0-20.91A10.44,10.44,0,1,0,120.14,64a10.45,10.45,0,0,0-10.45-10.44Z"/></g><path id="_Path_5" data-name="&lt;Path&gt;" class="cls-6" d="M111.9,56.4s6.27,2.69,5.18,8.28-4.58,5.54-6,6.16-2.31,1.49-2.86,1.37a5.84,5.84,0,0,1-1.25-.53,1.08,1.08,0,0,0,1,1.08c1.11.16,2.56-1.45,3.24-1.64s5-.64,6-6.31c1.21-6.06-5.34-8.23-5.39-8.41Z"/><g id="_Group_4" data-name="&lt;Group&gt;"><path id="_Compound_Path_4" data-name="&lt;Compound Path&gt;" d="M108.23,72.79h-.18a1.1,1.1,0,0,1-1-1.1h0a7.08,7.08,0,0,0,1.26.52,3.09,3.09,0,0,0,1.38-.57,13.87,13.87,0,0,1,1.47-.81,8.48,8.48,0,0,1,.85-.28c1.66-.49,4.18-1.24,5.09-5.86.84-4.3-2.75-6.91-4.33-7.83l-.51-.25a3.32,3.32,0,0,1-.33-.19,3.71,3.71,0,0,1,.86.41l0,0c3.67,1.86,5.24,4.62,4.58,8-.64,3.5-2.6,5.62-5.81,6.28a3.47,3.47,0,0,0-1.21.67,4.1,4.1,0,0,1-2.06,1ZM107,71.69a1.11,1.11,0,0,0,1.06,1h.16a4.19,4.19,0,0,0,2-1,4.19,4.19,0,0,1,1-.63c3.41-.71,5.35-2.81,6-6.3.67-3.32-.9-6.08-4.54-8,1.61.9,5.21,3.5,4.37,7.84-.91,4.64-3.45,5.38-5.12,5.88a8.48,8.48,0,0,0-.85.28,12.28,12.28,0,0,0-1.47.81,3.22,3.22,0,0,1-1.28.58,5.35,5.35,0,0,1-1.37-.55Z"/></g><path id="_Path_6" data-name="&lt;Path&gt;" class="cls-6" d="M115.06,57.59c.13.46.13.84,0,.85s-.3-.36-.4-.82-.13-.84,0-.86.3.37.4.83Z"/><g id="_Group_5" data-name="&lt;Group&gt;"><path id="_Path_7" data-name="&lt;Path&gt;" d="M115.06,58.46c-.13,0-.31-.43-.42-.83a1.42,1.42,0,0,1,0-.85h.07a1.14,1.14,0,0,0,0,.82c.12.51.3.81.38.81v0l0,0a1.57,1.57,0,0,0,0-.82,2,2,0,0,0-.34-.76,1.45,1.45,0,0,1,.36.76,1.28,1.28,0,0,1,0,.83l-.07,0Z"/></g><path id="_Path_8" data-name="&lt;Path&gt;" class="cls-6" d="M114.85,57.64c.21.44.31.84.21.86s-.36-.29-.58-.72-.31-.82-.2-.86.36.28.57.72Z"/><g id="_Group_6" data-name="&lt;Group&gt;"><path id="_Path_9" data-name="&lt;Path&gt;" d="M115,58.52c-.12,0-.37-.37-.57-.73a1.43,1.43,0,0,1-.23-.84h.06c-.07.14,0,.45.21.84s.44.72.53.72h0a1.5,1.5,0,0,0-.22-.85,2.27,2.27,0,0,0-.45-.66,1.56,1.56,0,0,1,.47.65,1.44,1.44,0,0,1,.24.85l-.07,0Z"/></g><path id="_Path_10" data-name="&lt;Path&gt;" class="cls-6" d="M114.23,58.06c.45.12.78.34.78.44s-.38.12-.83,0-.79-.34-.78-.46.38-.11.83,0Z"/><g id="_Group_7" data-name="&lt;Group&gt;"><path id="_Path_11" data-name="&lt;Path&gt;" d="M114.79,58.6a2.2,2.2,0,0,1-.61-.1c-.4-.12-.8-.33-.8-.47l.2,0c-.14.16.16.34.6.47a2,2,0,0,0,.61.12h0l.21-.09c0-.09-.3-.29-.78-.42a2.08,2.08,0,0,0-.47-.1,1.43,1.43,0,0,1,.48.07c.4.1.8.32.79.45l-.23.1Z"/></g><path id="_Path_12" data-name="&lt;Path&gt;" class="cls-6" d="M114.31,57.84c.41.26.7.57.65.66s-.43,0-.82-.32-.69-.57-.64-.66.42,0,.81.32Z"/><g id="_Group_8" data-name="&lt;Group&gt;"><path id="_Path_13" data-name="&lt;Path&gt;" d="M114.89,58.54a1.75,1.75,0,0,1-.75-.34c-.38-.24-.72-.57-.66-.7h.09c-.09.11.15.39.58.67a1.73,1.73,0,0,0,.74.34v0l0,0c0-.08-.21-.37-.63-.66a2.52,2.52,0,0,0-.71-.34,1.6,1.6,0,0,1,.72.32c.37.24.71.56.66.68l-.09,0Z"/></g><path id="_Path_14" data-name="&lt;Path&gt;" class="cls-6" d="M114.58,57.73c.35.35.56.7.48.77s-.4-.14-.75-.5-.57-.7-.48-.78.42.14.75.51Z"/><g id="_Group_9" data-name="&lt;Group&gt;"><path id="_Compound_Path_5" data-name="&lt;Compound Path&gt;" d="M115,58.54a1.67,1.67,0,0,1-.73-.53c-.3-.32-.57-.71-.48-.81s.48.21.78.52.58.7.47.8l0,0Zm-1.15-1.32c-.09.07.08.39.44.77a1.75,1.75,0,0,0,.71.51v0l0,0c.06-.06-.13-.38-.49-.77a1.67,1.67,0,0,0-.7-.51Z"/></g><path id="_Path_15" data-name="&lt;Path&gt;" class="cls-6" d="M115,58.5a1.07,1.07,0,0,1-.29.16s-.13-.07-.28,0a.71.71,0,0,0-.31.32c0,.09,0,.13.23,0s.25-.23.34-.3a2.91,2.91,0,0,1,.35-.18,1.84,1.84,0,0,1,.22-.36,3,3,0,0,0,.41-.47c.07-.17,0-.3-.05-.25a1,1,0,0,0-.32.34c-.07.11,0,.27-.09.38s-.19.32-.21.32Z"/><g id="_Group_10" data-name="&lt;Group&gt;"><path id="_Path_16" data-name="&lt;Path&gt;" d="M114.18,59.09l-.07,0a.59.59,0,0,1,.32-.41h.28l.3-.15.21-.32h0l.08-.38a.9.9,0,0,1,.33-.34l.08.27a1.53,1.53,0,0,1-.29.33l-.21.27c-.06.09-.14.18-.14.22a2.91,2.91,0,0,0-.35.2,1.1,1.1,0,0,1-.34.3l-.19.05Z"/></g><path id="_Path_17" data-name="&lt;Path&gt;" class="cls-6" d="M117,59.15c0,.72-.11,1.26-.27,1.23s-.3-.65-.31-1.37.11-1.25.26-1.22.31.66.32,1.36Z"/><g id="_Group_11" data-name="&lt;Group&gt;"><path id="_Path_18" data-name="&lt;Path&gt;" d="M116.71,60.38h0c-.19,0-.31-.73-.33-1.37a2.35,2.35,0,0,1,.21-1.19.07.07,0,0,1,.06,0,2,2,0,0,0-.23,1.17c0,.77.16,1.3.3,1.34l0,0,.05-.05a2.46,2.46,0,0,0,.19-1.18,3.64,3.64,0,0,0-.17-1.16,2.89,2.89,0,0,1,.19,1.16,2.32,2.32,0,0,1-.19,1.2l-.07,0Z"/></g><path id="_Path_19" data-name="&lt;Path&gt;" class="cls-6" d="M116.64,59.14c.16.73.16,1.32,0,1.33s-.41-.58-.57-1.3-.15-1.33,0-1.33.41.58.57,1.3Z"/><g id="_Group_12" data-name="&lt;Group&gt;"><path id="_Path_20" data-name="&lt;Path&gt;" d="M116.64,60.47c-.2,0-.44-.66-.58-1.3a2.33,2.33,0,0,1,0-1.32h0a2.08,2.08,0,0,0,0,1.32c.16.77.4,1.29.54,1.29h0l0,0a2.36,2.36,0,0,0-.06-1.28A3.58,3.58,0,0,0,116.2,58a2.76,2.76,0,0,1,.45,1.18,2.43,2.43,0,0,1,.06,1.3l-.07,0Z"/></g><path id="_Path_21" data-name="&lt;Path&gt;" class="cls-6" d="M115.63,59.46c.57.37,1,.83.94,1s-.55,0-1.14-.4-1-.83-.93-1,.56,0,1.13.41Z"/><g id="_Group_13" data-name="&lt;Group&gt;"><path id="_Path_22" data-name="&lt;Path&gt;" d="M116.46,60.52a2.48,2.48,0,0,1-1-.47c-.58-.4-1-.84-.94-1l.12,0c-.11.2.25.61.83,1a2.4,2.4,0,0,0,1,.45v0l.09-.06c0-.13-.3-.56-.92-1a4.43,4.43,0,0,0-.77-.4,2.47,2.47,0,0,1,.79.38c.58.39,1,.83.93,1l-.12.06Z"/></g><path id="_Path_23" data-name="&lt;Path&gt;" class="cls-6" d="M115.84,59.17c.46.57.76,1.12.66,1.25s-.55-.25-1-.83-.77-1.13-.67-1.24.56.24,1,.82Z"/><g id="_Group_14" data-name="&lt;Group&gt;"><path id="_Compound_Path_6" data-name="&lt;Compound Path&gt;" d="M116.44,60.46c-.16,0-.58-.36-1-.86s-.77-1.11-.66-1.27.64.32,1.06.82.79,1.14.66,1.27l-.07,0Zm-1.58-2.13c-.13.13.12.64.62,1.25s.8.84,1,.84v0l0,0c.08-.09-.16-.6-.67-1.22s-.81-.85-1-.85Z"/></g><path id="_Path_24" data-name="&lt;Path&gt;" class="cls-6" d="M116.25,59.13c.35.67.54,1.27.4,1.34s-.51-.4-.88-1.08-.55-1.25-.42-1.33.54.4.9,1.07Z"/><g id="_Group_15" data-name="&lt;Group&gt;"><path id="_Compound_Path_7" data-name="&lt;Compound Path&gt;" d="M116.62,60.5c-.16,0-.52-.46-.87-1.09s-.55-1.27-.4-1.36.56.44.9,1.07.57,1.28.4,1.36l0,0Zm-1.23-2.43c-.13.07,0,.61.39,1.32s.71,1.08.84,1.08h0c.11-.06,0-.61-.41-1.32s-.69-1.07-.84-1.07Z"/></g><path id="_Path_25" data-name="&lt;Path&gt;" class="cls-6" d="M116.58,60.46a4.14,4.14,0,0,1-.46.08c-.08,0-.16-.16-.4-.12a.93.93,0,0,0-.53.32c-.07.12,0,.2.32.15s.41-.23.56-.27a2.23,2.23,0,0,1,.53-.1c.09-.11.31-.31.44-.44s.53-.24.73-.49.17-.41,0-.38a1.46,1.46,0,0,0-.56.36c-.11.14-.1.38-.23.5s-.38.39-.4.39Z"/><g id="_Group_16" data-name="&lt;Group&gt;"><path id="_Compound_Path_8" data-name="&lt;Compound Path&gt;" d="M115.36,60.93l-.2-.07a.31.31,0,0,1,0-.1l.15.15.14,0a1.09,1.09,0,0,0,.39-.19,2.21,2.21,0,0,1,.71-.2,2.09,2.09,0,0,1,.3-.3,1.35,1.35,0,0,1,.37-.27,1.52,1.52,0,0,0,.48-.35.51.51,0,0,0,.12-.23.3.3,0,0,1-.09.25,1.55,1.55,0,0,1-.49.36.84.84,0,0,0-.23.14l-.45.42a1.93,1.93,0,0,0-.52.11,1.36,1.36,0,0,1-.58.28l-.15,0Zm-.13-.21a.7.7,0,0,1,.49-.31l.32.07a2,2,0,0,0,.54,0l.39-.38a.59.59,0,0,0,.13-.25.51.51,0,0,1,.11-.25,1.21,1.21,0,0,1,.56-.36s0,0,.07.08a.86.86,0,0,0-.62.3.68.68,0,0,0-.09.25.56.56,0,0,1-.14.25l-.41.39-.46.09-.33-.14a1,1,0,0,0-.56.3Z"/></g><path id="_Path_26" data-name="&lt;Path&gt;" class="cls-6" d="M118,61.76c-.11.7-.34,1.21-.48,1.14s-.18-.7-.06-1.41.34-1.22.49-1.14.17.7,0,1.41Z"/><g id="_Group_17" data-name="&lt;Group&gt;"><path id="_Compound_Path_9" data-name="&lt;Compound Path&gt;" d="M117.52,62.92h0c-.17-.07-.16-.78,0-1.42s.28-1.16.46-1.16.21.79.11,1.43-.32,1.16-.48,1.16Zm.39-2.56c-.13,0-.34.44-.46,1.15s-.07,1.32,0,1.37h0c.12,0,.33-.42.44-1.14s.09-1.32,0-1.38Z"/></g><path id="_Path_27" data-name="&lt;Path&gt;" class="cls-6" d="M117.67,61.68c0,.75-.1,1.33-.24,1.3s-.3-.64-.32-1.38.08-1.34.25-1.31.28.64.31,1.39Z"/><g id="_Group_18" data-name="&lt;Group&gt;"><path id="_Path_28" data-name="&lt;Path&gt;" d="M117.44,63h0c-.19,0-.32-.75-.33-1.4a2.8,2.8,0,0,1,.17-1.31h0a.06.06,0,0,1,0,0,2.2,2.2,0,0,0-.21,1.29c0,.81.18,1.34.31,1.37l0,0a2.67,2.67,0,0,0,.18-1.26,4.54,4.54,0,0,0-.19-1.26,3.38,3.38,0,0,1,.21,1.26,2.6,2.6,0,0,1-.17,1.29l-.07,0Z"/></g><path id="_Path_29" data-name="&lt;Path&gt;" class="cls-6" d="M116.64,61.78c.49.5.81,1,.73,1.17s-.55-.12-1-.61-.82-1-.74-1.17.55.13,1,.61Z"/><g id="_Group_19" data-name="&lt;Group&gt;"><path id="_Path_30" data-name="&lt;Path&gt;" d="M117.29,63a2,2,0,0,1-1-.67c-.51-.49-.83-1-.75-1.18h.1c-.12.17.14.65.66,1.16a2.07,2.07,0,0,0,1,.66h0l.07-.05c.07-.12-.21-.62-.74-1.14a3.42,3.42,0,0,0-.78-.61,2.61,2.61,0,0,1,.8.59c.51.5.83,1,.74,1.18l-.09,0Z"/></g><path id="_Path_31" data-name="&lt;Path&gt;" class="cls-6" d="M116.88,61.55c.36.65.55,1.27.43,1.36s-.5-.36-.87-1-.55-1.26-.42-1.36.51.35.86,1Z"/><g id="_Group_20" data-name="&lt;Group&gt;"><path id="_Compound_Path_10" data-name="&lt;Compound Path&gt;" d="M117.27,62.94c-.16,0-.51-.44-.83-1s-.58-1.28-.44-1.39.56.41.89,1,.58,1.26.43,1.38l0,0Zm-1.21-2.4c-.14.1,0,.65.4,1.35s.67,1,.81,1v0l0,0c.1-.07,0-.64-.43-1.33s-.67-1-.81-1Z"/></g><path id="_Path_32" data-name="&lt;Path&gt;" class="cls-6" d="M117.29,61.58c.23.73.3,1.36.15,1.41s-.43-.5-.66-1.22-.31-1.35-.17-1.41.45.5.68,1.22Z"/><g id="_Group_21" data-name="&lt;Group&gt;"><path id="_Compound_Path_11" data-name="&lt;Compound Path&gt;" d="M117.43,63c-.18,0-.48-.63-.67-1.23s-.32-1.36-.16-1.43h0c.19,0,.47.54.69,1.23s.32,1.36.15,1.43Zm-.79-2.63c-.14,0-.09.61.15,1.39s.52,1.21.64,1.21v0c.12-.06.08-.61-.17-1.38s-.51-1.22-.63-1.22Z"/></g><path id="_Path_33" data-name="&lt;Path&gt;" class="cls-6" d="M117.38,63h-.47c-.08,0-.12-.2-.37-.2A.87.87,0,0,0,116,63c-.08.1,0,.21.29.21s.46-.16.6-.16a2.34,2.34,0,0,1,.53,0,5.64,5.64,0,0,1,.51-.34c.14-.09.56-.14.8-.35s.24-.38.07-.37a1.16,1.16,0,0,0-.6.24c-.15.11-.16.36-.32.46s-.44.3-.46.29Z"/><g id="_Group_22" data-name="&lt;Group&gt;"><path id="_Path_34" data-name="&lt;Path&gt;" d="M116.88,63l.28,0,.11,0h-.36c-.15-.13-.2-.2-.37-.2h0a.93.93,0,0,0-.5.14.68.68,0,0,1,.81,0l.28.07a.88.88,0,0,0,.48-.15c.29-.19.34-.28.37-.36a.67.67,0,0,1,.18-.25,1.21,1.21,0,0,1,.6-.24l0,.07a.89.89,0,0,0-.64.2.57.57,0,0,0-.15.23.76.76,0,0,1-.17.23l-.23.14-.08.06.16-.08a1.55,1.55,0,0,1,.45-.23,1.15,1.15,0,0,0,.52-.25.5.5,0,0,0,.17-.21.36.36,0,0,1-.15.25,1.85,1.85,0,0,1-.53.25l-.27.08-.5.34Z"/></g><path id="_Path_35" data-name="&lt;Path&gt;" class="cls-6" d="M118.05,64.64c-.38.61-.78,1-.88.87s.12-.72.5-1.33.77-1,.89-.85-.12.72-.51,1.31Z"/><g id="_Group_23" data-name="&lt;Group&gt;"><path id="_Path_36" data-name="&lt;Path&gt;" d="M117.22,65.55l-.06,0c-.13-.14.15-.79.48-1.34s.68-.9.86-.9c0,0,0,0,0,.06-.19,0-.56.35-.87.86s-.57,1.2-.49,1.3l0,0c.14,0,.45-.29.82-.88a3.49,3.49,0,0,0,.52-1.16,2.66,2.66,0,0,1-.49,1.17c-.33.53-.68.9-.85.9Z"/></g><path id="_Path_37" data-name="&lt;Path&gt;" class="cls-6" d="M117.8,64.45c-.26.7-.59,1.2-.72,1.12s0-.72.25-1.42.6-1.21.72-1.12,0,.72-.25,1.42Z"/><g id="_Group_24" data-name="&lt;Group&gt;"><path id="_Compound_Path_12" data-name="&lt;Compound Path&gt;" d="M117.11,65.59l0,0c-.15-.09,0-.81.26-1.43S117.87,63,118,63s0,.81-.21,1.45-.55,1.13-.71,1.13ZM118,63c-.15,0-.43.41-.7,1.12s-.37,1.32-.25,1.39h0c.11,0,.41-.4.67-1.11s.38-1.32.27-1.4Z"/></g><path id="_Path_38" data-name="&lt;Path&gt;" class="cls-6" d="M116.82,64.12c.24.67.35,1.28.22,1.39s-.44-.34-.7-1-.35-1.27-.22-1.38.44.35.7,1Z"/><g id="_Group_25" data-name="&lt;Group&gt;"><path id="_Compound_Path_13" data-name="&lt;Compound Path&gt;" d="M117,65.54c-.16,0-.44-.43-.66-1s-.35-1.28-.22-1.39h0c.22,0,.49.42.71,1s.35,1.29.23,1.4l-.07,0Zm-.83-2.41c-.14.1-.07.68.19,1.38s.52,1,.64,1v0l0,0a2.12,2.12,0,0,0-.22-1.36c-.25-.64-.53-1-.65-1Z"/></g><path id="_Path_39" data-name="&lt;Path&gt;" class="cls-6" d="M117.13,64c.08.76,0,1.4-.12,1.44s-.33-.53-.41-1.28,0-1.4.15-1.43.31.52.38,1.27Z"/><g id="_Group_26" data-name="&lt;Group&gt;"><path id="_Compound_Path_14" data-name="&lt;Compound Path&gt;" d="M117,65.46c-.17,0-.34-.67-.38-1.3s0-1.4.14-1.45h0c.2,0,.35.66.41,1.29s0,1.41-.15,1.46Zm-.22-2.72c-.14,0-.21.61-.14,1.42s.25,1.27.36,1.27v0c.12,0,.2-.61.14-1.42s-.25-1.26-.37-1.26Z"/></g><path id="_Path_40" data-name="&lt;Path&gt;" class="cls-6" d="M117.48,64.21c-.07.78-.26,1.38-.39,1.36s-.21-.63-.14-1.4.25-1.39.41-1.37.2.64.12,1.41Z"/><g id="_Group_27" data-name="&lt;Group&gt;"><path id="_Compound_Path_15" data-name="&lt;Compound Path&gt;" d="M117.09,65.59l-.06,0a2.69,2.69,0,0,1-.09-1.38c.07-.69.23-1.39.4-1.39.2.18.23.76.17,1.43s-.24,1.38-.42,1.38Zm.29-2.75c-.16,0-.32.51-.41,1.33a2.89,2.89,0,0,0,.09,1.37l0,0h0c.12,0,.3-.52.38-1.36a2.77,2.77,0,0,0-.08-1.37Z"/></g><path id="_Path_41" data-name="&lt;Path&gt;" class="cls-6" d="M117,65.52a2.27,2.27,0,0,1-.43-.19c-.06,0,0-.23-.26-.33a.83.83,0,0,0-.61,0c-.11,0-.08.18.19.31s.47,0,.61.09a2.14,2.14,0,0,1,.48.23c.13,0,.43-.08.59-.11s.58.11.85,0,.38-.26.21-.33a1.32,1.32,0,0,0-.63,0c-.18,0-.29.26-.47.29s-.51.1-.53.08Z"/><g id="_Group_28" data-name="&lt;Group&gt;"><path id="_Compound_Path_16" data-name="&lt;Compound Path&gt;" d="M117,65.6h0a2.92,2.92,0,0,0-.47-.22,1.55,1.55,0,0,1,.48.19,1.81,1.81,0,0,1,.41-.07l.45,0a1.67,1.67,0,0,0,.33,0,1,1,0,0,0,.47-.17c0,.08-.11.14-.23.17a2.28,2.28,0,0,1-.59,0h-.26a5,5,0,0,0-.58.1Zm0-.06a4,4,0,0,1-.45-.19c-.08-.18-.12-.27-.27-.34a.81.81,0,0,0-.35-.07l-.29.09c0,.07.08.15.23.23a.75.75,0,0,0,.37.07l.23,0a1.76,1.76,0,0,1-.61-.09c-.17-.09-.26-.18-.26-.26l.33-.13a.74.74,0,0,1,.36.09.36.36,0,0,1,.23.25,1.77,1.77,0,0,0,.46.26.51.51,0,0,0,.28,0c.34,0,.41-.11.48-.17a.55.55,0,0,1,.24-.15,1.29,1.29,0,0,1,.65,0v.08a.73.73,0,0,0-.65-.07c-.3.21-.37.27-.47.28l-.51.09Z"/></g><path id="_Path_42" data-name="&lt;Path&gt;" class="cls-6" d="M117.27,67.58c-.62.55-1.17.82-1.25.64s.35-.74,1-1.28,1.19-.8,1.28-.63-.37.75-1,1.27Z"/><g id="_Group_29" data-name="&lt;Group&gt;"><path id="_Path_43" data-name="&lt;Path&gt;" d="M116.12,68.29l-.13-.07c-.07-.18.36-.76,1-1.29a2.86,2.86,0,0,1,1.18-.69.25.25,0,0,0,0,.07A2.56,2.56,0,0,0,117,67c-.67.56-1.05,1.11-1,1.26l.08,0a2.74,2.74,0,0,0,1.15-.69,4.75,4.75,0,0,0,.85-.92,3.42,3.42,0,0,1-.83.95,2.72,2.72,0,0,1-1.17.69Z"/></g><path id="_Path_44" data-name="&lt;Path&gt;" class="cls-6" d="M117.06,67.28c-.52.68-1,1.1-1.17,1s.23-.79.75-1.47,1.06-1.11,1.17-1-.22.8-.75,1.48Z"/><g id="_Group_30" data-name="&lt;Group&gt;"><path id="_Path_45" data-name="&lt;Path&gt;" d="M116,68.29l-.07,0c-.15-.16.26-.89.75-1.51s.92-1,1.1-1a.09.09,0,0,1,0,.06h0c-.24,0-.68.41-1.13,1-.55.73-.83,1.36-.74,1.46l0,0c.18,0,.64-.42,1.1-1A4.52,4.52,0,0,0,117.8,66a4,4,0,0,1-.72,1.28c-.47.58-.93,1-1.12,1Z"/></g><path id="_Path_46" data-name="&lt;Path&gt;" class="cls-6" d="M116.09,66.57c0,.82,0,1.53-.21,1.6s-.39-.53-.45-1.36,0-1.52.22-1.59.37.53.44,1.35Z"/><g id="_Group_31" data-name="&lt;Group&gt;"><path id="_Compound_Path_17" data-name="&lt;Compound Path&gt;" d="M115.84,68.19c-.19,0-.36-.57-.42-1.38s0-1.54.21-1.61h0c.24,0,.4.69.46,1.37,0,.84,0,1.56-.23,1.6l0,0Zm-.16-3c-.19.06-.3.71-.24,1.58s.26,1.36.4,1.36h0c.16-.06.28-.71.21-1.59s-.25-1.34-.39-1.34Z"/></g><path id="_Path_47" data-name="&lt;Path&gt;" class="cls-6" d="M116.48,66.54c-.18.87-.45,1.56-.63,1.54s-.17-.7,0-1.56.46-1.53.63-1.53.17.69,0,1.55Z"/><g id="_Group_32" data-name="&lt;Group&gt;"><path id="_Path_48" data-name="&lt;Path&gt;" d="M115.85,68.1l-.07,0a2.9,2.9,0,0,1,0-1.54c.16-.77.44-1.56.65-1.56l0,.06a2.82,2.82,0,0,0-.65,1.51,3,3,0,0,0,0,1.51l0,0h0c.15,0,.43-.61.61-1.53a4.34,4.34,0,0,0,.1-1.39,3.54,3.54,0,0,1-.07,1.41c-.15.74-.43,1.54-.64,1.54Z"/></g><path id="_Path_49" data-name="&lt;Path&gt;" class="cls-6" d="M116.8,66.89c-.34.83-.74,1.44-.91,1.37s0-.78.34-1.59.72-1.43.88-1.37,0,.78-.31,1.59Z"/><g id="_Group_33" data-name="&lt;Group&gt;"><path id="_Compound_Path_18" data-name="&lt;Compound Path&gt;" d="M115.92,68.28h0a2.67,2.67,0,0,1,.31-1.63c.31-.79.7-1.38.89-1.38s0,.89-.28,1.63-.7,1.38-.89,1.38Zm1.18-3c-.16,0-.53.52-.87,1.36a3.19,3.19,0,0,0-.35,1.55l0,0c.15,0,.52-.51.86-1.37s.44-1.53.33-1.58Z"/></g><path id="_Path_50" data-name="&lt;Path&gt;" class="cls-6" d="M115.88,68.17a2.65,2.65,0,0,1-.41-.35c-.06-.08,0-.27-.18-.46a.93.93,0,0,0-.65-.25c-.15,0-.16.15.09.39s.5.22.65.33a3.49,3.49,0,0,1,.44.41c.16,0,.5.08.68.1a4.52,4.52,0,0,0,1,.33c.29,0,.49-.14.33-.27a1.5,1.5,0,0,0-.68-.27c-.22,0-.41.19-.62.15a2.22,2.22,0,0,1-.6-.11Z"/><g id="_Group_34" data-name="&lt;Group&gt;"><path id="_Compound_Path_19" data-name="&lt;Compound Path&gt;" d="M117.47,68.68h0a1.47,1.47,0,0,1-.65-.21,1.48,1.48,0,0,0-.3-.1,5,5,0,0,0-.68-.11,2.92,2.92,0,0,0-.44-.41,1.84,1.84,0,0,1,.46.38l.46.07a1.65,1.65,0,0,1,.51.15,1.68,1.68,0,0,0,.64.19l0,0v0a.5.5,0,0,0,.27,0,.36.36,0,0,1-.27.09Zm.31-.2a1,1,0,0,0-.68-.32c-.14-.08-.22,0-.3.06a.7.7,0,0,1-.27.08l-.34,0c-.3,0-.33,0-.33-.07a5.26,5.26,0,0,1-.41-.36.73.73,0,0,0-.17-.47.87.87,0,0,0-.52-.23.79.79,0,0,1,.55.22.59.59,0,0,1,.16.36,1.62,1.62,0,0,0,.42.46.69.69,0,0,0,.3,0l.29,0a.68.68,0,0,0,.31-.07.83.83,0,0,1,.27-.07,1.12,1.12,0,0,1,.72.25.16.16,0,0,1,0,.1Z"/></g><path id="_Path_51" data-name="&lt;Path&gt;" class="cls-6" d="M115.27,70.16c-.9.15-1.6.09-1.58-.13s.76-.5,1.65-.64,1.58-.1,1.56.11-.76.51-1.63.66Z"/><g id="_Group_35" data-name="&lt;Group&gt;"><path id="_Compound_Path_20" data-name="&lt;Compound Path&gt;" d="M114.37,70.27a1,1,0,0,1-.67-.15s0-.05,0-.07c.19.23.78.22,1.54.1a4.32,4.32,0,0,0,1.45-.46,3.85,3.85,0,0,1-1.44.49,5.25,5.25,0,0,1-.9.09Zm-.46-.44a3.72,3.72,0,0,1,1.43-.46,2.57,2.57,0,0,1,1.55,0s0,0,0,.07c-.17-.24-.78-.21-1.54-.09a4.52,4.52,0,0,0-1.43.43Z"/></g><path id="_Path_52" data-name="&lt;Path&gt;" class="cls-6" d="M115.22,69.74c-.88.34-1.62.45-1.64.26s.64-.65,1.51-1,1.62-.45,1.66-.25-.64.64-1.53,1Z"/><g id="_Group_36" data-name="&lt;Group&gt;"><path id="_Compound_Path_21" data-name="&lt;Compound Path&gt;" d="M113.83,70.11c-.17,0-.26,0-.27-.11,0-.22.64-.66,1.53-1s1.63-.45,1.67-.23-.62.64-1.53,1a4.77,4.77,0,0,1-1.4.35Zm2.57-1.36a3.9,3.9,0,0,0-1.3.28c-.94.36-1.54.79-1.52,1l.25.07a4.16,4.16,0,0,0,1.39-.35c.94-.35,1.54-.78,1.52-1l-.34,0Z"/></g><path id="_Path_53" data-name="&lt;Path&gt;" class="cls-6" d="M114.68,68.5c-.39.81-.88,1.45-1.1,1.41s-.06-.73.33-1.55.85-1.45,1.08-1.4.07.73-.31,1.54Z"/><g id="_Group_37" data-name="&lt;Group&gt;"><path id="_Compound_Path_22" data-name="&lt;Compound Path&gt;" d="M113.6,69.92h0l0-.07,0,0c.23,0,.69-.6,1.06-1.38a5.11,5.11,0,0,0,.4-1.18,3.49,3.49,0,0,1-.37,1.2c-.39.78-.85,1.4-1.09,1.4Zm-.09-.3a3.75,3.75,0,0,1,.37-1.28c.39-.78.85-1.41,1.09-1.41a.36.36,0,0,1,0,.09h0c-.29,0-.74.6-1.09,1.35a3.88,3.88,0,0,0-.41,1.25Z"/></g><path id="_Path_54" data-name="&lt;Path&gt;" class="cls-6" d="M115.06,68.71c-.63.72-1.28,1.21-1.45,1.09s.22-.77.84-1.49,1.28-1.2,1.46-1.09-.22.78-.85,1.49Z"/><g id="_Group_38" data-name="&lt;Group&gt;"><path id="_Compound_Path_23" data-name="&lt;Compound Path&gt;" d="M113.67,69.85l-.07,0s0,0,0-.08l.09.06a3.4,3.4,0,0,0,1.38-1.1,6.1,6.1,0,0,0,.76-1,4,4,0,0,1-.75,1.06c-.56.65-1.14,1.13-1.39,1.13Zm0-.29a4.18,4.18,0,0,1,.82-1.26,3.39,3.39,0,0,1,1.41-1.11.32.32,0,0,1,0,.09h0c-.31,0-.86.45-1.38,1a4.63,4.63,0,0,0-.86,1.24Z"/></g><path id="_Path_55" data-name="&lt;Path&gt;" class="cls-6" d="M115.17,69.22c-.78.59-1.49.94-1.6.79s.42-.75,1.18-1.34,1.48-.94,1.6-.79-.4.76-1.18,1.34Z"/><g id="_Group_39" data-name="&lt;Group&gt;"><path id="_Compound_Path_24" data-name="&lt;Compound Path&gt;" d="M113.67,70.06l-.11,0a.78.78,0,0,0,0-.09v0l.1.09a3.72,3.72,0,0,0,1.49-.82,5.72,5.72,0,0,0,.93-.83,2.39,2.39,0,0,0,.25-.37.89.89,0,0,1-.23.39,7.3,7.3,0,0,1-.92.84,3.91,3.91,0,0,1-1.52.82Zm-.07-.21a5.25,5.25,0,0,1,2.66-2l0,0a6.1,6.1,0,0,0-1.55.8,4.3,4.3,0,0,0-1.15,1.17Z"/></g><path id="_Path_56" data-name="&lt;Path&gt;" class="cls-6" d="M113.58,69.92a5.66,5.66,0,0,1-.19-.58c0-.1.19-.24.09-.55a1.06,1.06,0,0,0-.5-.62c-.14-.09-.24.06-.12.44s.36.5.44.68a4.56,4.56,0,0,1,.21.66,4.92,4.92,0,0,1,.59.5c.18.13.4.63.74.84s.55.15.48-.07a1.64,1.64,0,0,0-.54-.64c-.2-.14-.49-.06-.67-.22s-.53-.41-.53-.44Z"/><g id="_Group_40" data-name="&lt;Group&gt;"><path id="_Compound_Path_25" data-name="&lt;Compound Path&gt;" d="M115.16,71.42a.71.71,0,0,1-.34-.11,2.56,2.56,0,0,1-.51-.58,1.43,1.43,0,0,0-.22-.28L113.5,70a3.15,3.15,0,0,0-.22-.63,2,2,0,0,1,.24.62,5.21,5.21,0,0,1,.42.33,2,2,0,0,1,.4.43,1.83,1.83,0,0,0,.51.56.58.58,0,0,0,.31.13h0l0,0Zm.12-.14a1.33,1.33,0,0,0-.52-.69c-.07-.07-.19-.07-.31-.11a.49.49,0,0,1-.35-.11l-.24-.19c-.28-.22-.29-.24-.29-.26h0a3.27,3.27,0,0,1-.19-.58.78.78,0,0,0,.08-.55,1.38,1.38,0,0,0-.31-.49.91.91,0,0,1,.34.49.5.5,0,0,1,0,.42,2.89,2.89,0,0,0,.13.7,3,3,0,0,0,.3.24l.25.2a.48.48,0,0,0,.32.11.76.76,0,0,1,.34.11,1.64,1.64,0,0,1,.54.64l0,.07Zm-2-2a1.79,1.79,0,0,1-.43-.68.56.56,0,0,1,0-.44.35.35,0,0,1,.11,0c-.12.08-.12.23-.07.41a1,1,0,0,0,.3.46,1.12,1.12,0,0,1,.11.22Z"/></g><path id="_Path_57" data-name="&lt;Path&gt;" class="cls-6" d="M112.61,71.6c-.91,0-1.64-.18-1.63-.45s.72-.47,1.64-.49,1.65.19,1.65.44-.75.48-1.66.5Z"/><g id="_Group_41" data-name="&lt;Group&gt;"><path id="_Path_58" data-name="&lt;Path&gt;" d="M112.52,71.61a2.61,2.61,0,0,1-1.5-.32v-.1a2.16,2.16,0,0,0,1.5.39v0l.09,0c.91,0,1.64-.22,1.64-.48s-.69-.42-1.55-.42a4.23,4.23,0,0,0-1.43.21,3.11,3.11,0,0,1,1.35-.25h0c1,0,1.66.21,1.66.46s-.73.5-1.67.51Z"/></g><path id="_Path_59" data-name="&lt;Path&gt;" class="cls-6" d="M112.4,70.12c-.58.75-1.2,1.21-1.4,1.06s.12-.9.69-1.64,1.2-1.22,1.4-1.06-.12.89-.69,1.64Z"/><g id="_Group_42" data-name="&lt;Group&gt;"><path id="_Path_60" data-name="&lt;Path&gt;" d="M111.11,71.22l-.12,0c-.2-.16.11-.88.69-1.65s1-1.09,1.3-1.09l.07,0c-.32-.09-.87.44-1.35,1.06s-.87,1.46-.68,1.61l.09,0c.25,0,.79-.46,1.28-1.08a4.06,4.06,0,0,0,.72-1.31,3.13,3.13,0,0,1-.69,1.33c-.51.64-1,1.09-1.31,1.09Z"/></g><path id="_Path_61" data-name="&lt;Path&gt;" class="cls-6" d="M112.63,70.88c-.85.37-1.6.47-1.7.21s.51-.72,1.36-1.09,1.62-.45,1.71-.22-.52.74-1.37,1.1Z"/><g id="_Group_43" data-name="&lt;Group&gt;"><path id="_Compound_Path_26" data-name="&lt;Compound Path&gt;" d="M111.28,71.25c-.21,0-.33,0-.37-.15s.52-.74,1.37-1.1,1.64-.47,1.72-.22-.5.74-1.37,1.11a3.89,3.89,0,0,1-1.35.36Zm2.37-1.58a3.88,3.88,0,0,0-1.36.34c-.83.36-1.44.86-1.34,1.08s.87.12,1.67-.22,1.45-.86,1.37-1.08-.15-.12-.34-.12Z"/></g><path id="_Path_62" data-name="&lt;Path&gt;" class="cls-6" d="M113.08,56.55c.42.37.66.72.55.79s-.52-.21-.94-.58-.67-.73-.57-.8.54.2,1,.59Z"/><g id="_Group_44" data-name="&lt;Group&gt;"><path id="_Path_63" data-name="&lt;Path&gt;" d="M113.6,57.36a2.34,2.34,0,0,1-.92-.6c-.37-.33-.6-.64-.59-.76h.06c0,.13.17.4.55.74a2.24,2.24,0,0,0,.9.59h0l0,0c0-.13-.16-.4-.55-.77a3.27,3.27,0,0,0-.74-.53,2.88,2.88,0,0,1,.76.51c.36.32.6.64.59.77l-.08.06Z"/></g><path id="_Path_64" data-name="&lt;Path&gt;" class="cls-6" d="M112.57,57c.57.07,1,.22,1.06.35s-.41.15-1,.07-1-.23-1.06-.35.43-.15,1-.07Z"/><g id="_Group_45" data-name="&lt;Group&gt;"><path id="_Compound_Path_27" data-name="&lt;Compound Path&gt;" d="M113.19,57.45c-.15,0-.33,0-.55,0-.51-.07-1-.22-1.07-.37.16-.26.62-.14,1-.09s1.05.21,1.08.36-.32.14-.46.14ZM112,56.94c-.23,0-.4,0-.43.08s.44.28,1,.36.89,0,1,0-.44-.28-1-.36a3.28,3.28,0,0,0-.52,0Z"/></g><path id="_Path_65" data-name="&lt;Path&gt;" class="cls-6" d="M112.77,56.7c.54.27.92.56.86.66s-.53,0-1.07-.33-.91-.57-.86-.65.54,0,1.07.32Z"/><g id="_Group_46" data-name="&lt;Group&gt;"><path id="_Compound_Path_28" data-name="&lt;Compound Path&gt;" d="M113.56,57.41a2.89,2.89,0,0,1-1-.37,2.19,2.19,0,0,1-.87-.62l.11,0c0,.16.35.41.77.63a3.17,3.17,0,0,0,1,.35h0l0,0,0,0Zm.06-.07a2.11,2.11,0,0,0-.85-.63,4,4,0,0,0-.75-.3,2.42,2.42,0,0,1,.77.28,2.2,2.2,0,0,1,.87.63l0,0Z"/></g><path id="_Path_66" data-name="&lt;Path&gt;" class="cls-6" d="M105.35,70a23.53,23.53,0,0,1,2.57.73c1.21.43,3,1.93,3.52,2a1.56,1.56,0,0,0,1.61-1c-.86.23-1.36.56-2.17.12a21.71,21.71,0,0,0-2.25-1.4,25.17,25.17,0,0,0-3.09-1Z"/><g id="_Group_47" data-name="&lt;Group&gt;"><path id="_Compound_Path_29" data-name="&lt;Compound Path&gt;" d="M111.53,72.77h-.09a6.42,6.42,0,0,1-1.3-.75,13.52,13.52,0,0,0-2.22-1.28,24.81,24.81,0,0,0-2.57-.73l.18-.49h0a23.11,23.11,0,0,1,3.11,1,9.57,9.57,0,0,1,1.7,1.06,4,4,0,0,0,.54.36,2,2,0,0,0,1.68,0l.48-.16a1.5,1.5,0,0,1-1.51,1ZM105.36,70a18,18,0,0,1,2.57.72A11.07,11.07,0,0,1,110.16,72a6.24,6.24,0,0,0,1.28.74h.09a1.5,1.5,0,0,0,1.5-.94l-.47.17a2,2,0,0,1-1.68,0,5.87,5.87,0,0,1-.57-.36,8.05,8.05,0,0,0-1.69-1,22.17,22.17,0,0,0-3.09-1l-.17.46Z"/></g><path id="_Path_67" data-name="&lt;Path&gt;" class="cls-6" d="M106.82,57.52s1.58-.83,1.58-.83l-1.74.44-.21.32Z"/><g id="_Group_48" data-name="&lt;Group&gt;"><path id="_Compound_Path_30" data-name="&lt;Compound Path&gt;" d="M106.83,57.53l-.38-.07.19-.35,1.76-.44s-1.53.83-1.57.86Zm1.57-.86-1.74.46-.2.32.37,0c.06,0,.34-.2,1.57-.83Z"/></g><path id="_Path_68" data-name="&lt;Path&gt;" class="cls-6" d="M108.33,57.91c-.61-.12-1.57-.32-2.17-.37a21,21,0,0,0,1.34-1.72,14.83,14.83,0,0,0-.74,1.5,14.57,14.57,0,0,0,1.57.59Z"/><g id="_Group_49" data-name="&lt;Group&gt;"><path id="_Compound_Path_31" data-name="&lt;Compound Path&gt;" d="M108.32,57.91l-.47-.07c-.56-.11-1.22-.25-1.69-.29.4-.47,1-1.25,1.33-1.75l-.2.46a6.73,6.73,0,0,0-.51,1.06,7.29,7.29,0,0,0,1,.39l.53.18v0Zm-.83-2.11a17,17,0,0,1-1.31,1.75,10.21,10.21,0,0,1,1.68.25l.26,0-.33-.11a6.72,6.72,0,0,1-1-.4,5.69,5.69,0,0,1,.5-1.08l.23-.45Z"/></g><path id="_Path_69" data-name="&lt;Path&gt;" class="cls-6" d="M106.53,57.61,108,56.52l-1.65.74-.14.34Z"/><g id="_Group_50" data-name="&lt;Group&gt;"><path id="_Compound_Path_32" data-name="&lt;Compound Path&gt;" d="M106.53,57.64l-.37,0,.13-.36,1.64-.74s-1.34,1.08-1.4,1.12Zm1.4-1.13-1.61.76-.14.34h.34l1.41-1.09Z"/></g><path id="_Path_70" data-name="&lt;Path&gt;" class="cls-6" d="M108,57.89c-.62-.11-1.56-.34-2.18-.39a19.2,19.2,0,0,0,1.31-1.77c-.21.47-.58,1.09-.72,1.54.45.23,1.11.43,1.59.62Z"/><g id="_Group_51" data-name="&lt;Group&gt;"><path id="_Path_71" data-name="&lt;Path&gt;" d="M108,57.91l-.49-.09a12.11,12.11,0,0,0-1.69-.3c.39-.49.94-1.26,1.28-1.75h0a13.76,13.76,0,0,1-1.26,1.73,13.35,13.35,0,0,1,1.68.28l.28.06-.34-.13a6.26,6.26,0,0,1-1-.42,5.08,5.08,0,0,1,.51-1.13l.15-.32-.13.32c-.18.39-.39.79-.5,1.12a8.36,8.36,0,0,0,1,.4l.54.19v0Z"/></g><polygon id="_Path_72" data-name="&lt;Path&gt;" class="cls-6" points="106.3 57.71 107.96 57.01 106.18 57.3 105.94 57.59 106.3 57.71"/><g id="_Group_52" data-name="&lt;Group&gt;"><path id="_Compound_Path_33" data-name="&lt;Compound Path&gt;" d="M106.3,57.73l-.37-.12.23-.31L108,57c-.44.2-1.61.69-1.64.72ZM108,57l-1.78.32-.23.28.35.09c.07,0,.37-.17,1.66-.69Z"/></g><path id="_Path_73" data-name="&lt;Path&gt;" class="cls-6" d="M107.85,57.91a20.93,20.93,0,0,0-2.18-.16c.33-.53.79-1.41,1.08-2a14.3,14.3,0,0,0-.53,1.65c.44.19,1.14.31,1.63.46Z"/><g id="_Group_53" data-name="&lt;Group&gt;"><path id="_Compound_Path_34" data-name="&lt;Compound Path&gt;" d="M107.85,57.91l-.54,0c-.53,0-1.13-.11-1.55-.11h0c.51,0,1.06,0,1.55.09l.35,0-.37-.09a6.61,6.61,0,0,1-1.08-.32,5.83,5.83,0,0,1,.36-1.21l.09-.27-.06.28a7.93,7.93,0,0,0-.37,1.19,7.51,7.51,0,0,0,1.08.3l.55.14v0ZM106,57.15c.21-.44.46-.91.66-1.28v0c-.19.39-.42.85-.65,1.26Z"/></g><path id="_Path_74" data-name="&lt;Path&gt;" class="cls-6" d="M106.13,57.71s1.13-1.37,1.13-1.37l-1.43,1.07-.06.36Z"/><g id="_Group_54" data-name="&lt;Group&gt;"><path id="_Compound_Path_35" data-name="&lt;Compound Path&gt;" d="M105.74,57.79l.07-.38,1.44-1.08c-.28.39-1.09,1.34-1.11,1.39l-.4.07Zm1.51-1.46-1.41,1.1-.07.32.36-.06s.1-.14,1.12-1.36Z"/></g><path id="_Path_75" data-name="&lt;Path&gt;" class="cls-6" d="M107.84,58a22.87,22.87,0,0,0-2.34,0c.31-.59.71-1.59,1-2.2-.11.56-.35,1.31-.39,1.83a17,17,0,0,0,1.78.38Z"/><g id="_Group_55" data-name="&lt;Group&gt;"><path id="_Path_76" data-name="&lt;Path&gt;" d="M107.84,58l-.56,0c-.61,0-1.3,0-1.78,0,.27-.59.65-1.53.91-2.13h0a20.81,20.81,0,0,1-.9,2.12,7.34,7.34,0,0,1,1.77,0h.38l-.42-.07a7.34,7.34,0,0,1-1.18-.27,6,6,0,0,1,.24-1.29l.09-.34,0,.35a6.08,6.08,0,0,0-.25,1.26,9.19,9.19,0,0,0,1.16.26l.6.11v0Z"/></g><path id="_Path_77" data-name="&lt;Path&gt;" class="cls-6" d="M105.91,58s1.36-1.31,1.36-1.31l-1.66.92-.11.39Z"/><g id="_Group_56" data-name="&lt;Group&gt;"><path id="_Compound_Path_36" data-name="&lt;Compound Path&gt;" d="M105.91,58.05h-.41l.1-.41,1.66-.93c-.51.53-1.32,1.3-1.34,1.34Zm1.35-1.34-1.63.95-.12.37h.4c0-.06.29-.3,1.35-1.31Z"/></g><path id="_Path_78" data-name="&lt;Path&gt;" class="cls-6" d="M107.55,58c-.72,0-1.83,0-2.54,0,.46-.67,1.1-1.77,1.49-2.45-.25.63-.64,1.46-.81,2,.51.17,1.29.24,1.86.36Z"/><g id="_Group_57" data-name="&lt;Group&gt;"><path id="_Path_79" data-name="&lt;Path&gt;" d="M105,58.1l0,0c.45-.66,1.1-1.75,1.48-2.42h0c-.38.7-1,1.76-1.44,2.42a10,10,0,0,1,1.28-.06h1.15l-.55-.08a8,8,0,0,1-1.23-.26,10.69,10.69,0,0,1,.54-1.46l.23-.53-.19.56a12,12,0,0,0-.55,1.42,8.08,8.08,0,0,0,1.21.24l.62.11-.59,0h-.64c-.48,0-.95,0-1.31,0Z"/></g><path id="_Path_80" data-name="&lt;Path&gt;" class="cls-6" d="M105.44,58.14s1.75-1.48,1.75-1.48l-2,1.05-.2.43Z"/><g id="_Group_58" data-name="&lt;Group&gt;"><path id="_Compound_Path_37" data-name="&lt;Compound Path&gt;" d="M105,58.15l.21-.46,2-1c-.57.52-1.68,1.46-1.72,1.51Zm2.19-1.51-2,1.08-.18.4h.39l1.74-1.48Z"/></g><path id="_Path_81" data-name="&lt;Path&gt;" class="cls-6" d="M107.28,58.08a23.44,23.44,0,0,0-2.51.41c.38-.73.84-1.89,1.15-2.61a16.87,16.87,0,0,0-.53,2.09,14.65,14.65,0,0,0,1.89.11Z"/><g id="_Group_59" data-name="&lt;Group&gt;"><path id="_Path_82" data-name="&lt;Path&gt;" d="M104.74,58.5v0c.37-.7.83-1.82,1.12-2.53h0c-.29.76-.72,1.82-1.07,2.5.54-.13,1.27-.23,1.9-.31l.58-.08h-.62a7,7,0,0,1-1.27-.09,10.59,10.59,0,0,1,.35-1.53l.12-.41-.09.43a10.26,10.26,0,0,0-.35,1.5c.32.05.79.05,1.24.07.21,0,.42,0,.62,0l-.57.1c-.65.09-1.41.2-1.94.33Z"/></g><path id="_Path_83" data-name="&lt;Path&gt;" class="cls-6" d="M105.21,58.43s1.35-1.87,1.35-1.87l-1.69,1.52-.09.46Z"/><g id="_Group_60" data-name="&lt;Group&gt;"><path id="_Compound_Path_38" data-name="&lt;Compound Path&gt;" d="M104.77,58.58l.09-.5,1.69-1.53c-.34.53-1.31,1.83-1.33,1.88l-.45.15Zm1.76-2-1.65,1.54-.08.43.39-.1s.14-.21,1.34-1.87Z"/></g><path id="_Path_84" data-name="&lt;Path&gt;" class="cls-6" d="M106.89,58.3c-.71.07-1.84.13-2.53.28.41-.71,1-1.84,1.28-2.55-.19.64-.53,1.49-.63,2.07a14.23,14.23,0,0,0,1.88.2Z"/><g id="_Group_61" data-name="&lt;Group&gt;"><path id="_Compound_Path_39" data-name="&lt;Compound Path&gt;" d="M104.33,58.59v0c.41-.71,1-1.84,1.29-2.53l-.18.64c-.17.5-.35,1-.44,1.43.35.07.79.1,1.22.14a4.43,4.43,0,0,1,.66,0l-.61.08c-.64.05-1.39.12-1.92.22Zm1.3-2.56a23.34,23.34,0,0,1-1.24,2.51c.53-.09,1.26-.16,1.89-.21l.61,0c-.19,0-.44,0-.66,0a6.3,6.3,0,0,1-1.22-.14,9.47,9.47,0,0,1,.41-1.45l.21-.64Z"/></g><path id="_Path_85" data-name="&lt;Path&gt;" class="cls-6" d="M105,58.63s1.73-1.5,1.73-1.5l-2,1-.19.45Z"/><g id="_Group_62" data-name="&lt;Group&gt;"><path id="_Compound_Path_40" data-name="&lt;Compound Path&gt;" d="M104.51,58.65l.2-.47,2-1c-.56.52-1.66,1.46-1.69,1.5l-.47,0Zm2.15-1.52-1.92,1.07-.17.41H105l1.7-1.47Z"/></g><path id="_Path_86" data-name="&lt;Path&gt;" class="cls-6" d="M106.69,58.38c-.72.16-1.84.34-2.53.56.34-.73.76-1.91,1-2.64a20.53,20.53,0,0,0-.41,2.11,15.53,15.53,0,0,0,1.92,0Z"/><g id="_Group_63" data-name="&lt;Group&gt;"><path id="_Path_87" data-name="&lt;Path&gt;" d="M104.13,59l0,0c.31-.67.7-1.75,1-2.47v0a23.46,23.46,0,0,1-.9,2.43,18.88,18.88,0,0,1,1.91-.43l.56-.11a4.29,4.29,0,0,1-.65.05,5.79,5.79,0,0,1-1.25,0,10.31,10.31,0,0,1,.26-1.54l.06-.25,0,.27a11.62,11.62,0,0,0-.29,1.51,10.75,10.75,0,0,0,1.24,0h.67l-.56.13a19,19,0,0,0-2,.46Z"/></g><path id="_Path_88" data-name="&lt;Path&gt;" class="cls-6" d="M104.68,58.7s1.09-2,1.09-2l-1.48,1.76,0,.45Z"/><g id="_Group_64" data-name="&lt;Group&gt;"><path id="_Compound_Path_41" data-name="&lt;Compound Path&gt;" d="M104.25,58.91l0-.49,1.5-1.76c-.35.7-1.07,2-1.07,2.05l-.45.2Zm1.52-2.24-1.46,1.77,0,.43.38-.19s.1-.2,1.1-2Z"/></g><path id="_Path_89" data-name="&lt;Path&gt;" class="cls-6" d="M106.69,58.5c-.78.2-2,.46-2.71.73.28-.82.61-2.17.79-3a19.79,19.79,0,0,0-.18,2.35,19,19,0,0,0,2.1-.1Z"/><g id="_Group_65" data-name="&lt;Group&gt;"><path id="_Compound_Path_42" data-name="&lt;Compound Path&gt;" d="M104,59.26l0,0c.28-.83.6-2.17.8-3l0,.68a9.23,9.23,0,0,0-.12,1.67h.3c.32,0,.69,0,1.06-.06a6,6,0,0,1,.72-.06l-.65.19c-.69.17-1.5.37-2.06.57l0,0Zm.82-3a27.83,27.83,0,0,1-.76,3c.54-.19,1.34-.39,2-.56l.63-.15-.7.08a9.61,9.61,0,0,1-1.39,0,9.32,9.32,0,0,1,.12-1.69l.07-.68Z"/></g><path id="_Path_90" data-name="&lt;Path&gt;" class="cls-6" d="M104.47,59.17s1.37-2,1.37-2l-1.76,1.65-.07.52Z"/><g id="_Group_66" data-name="&lt;Group&gt;"><path id="_Compound_Path_43" data-name="&lt;Compound Path&gt;" d="M104,59.32l.08-.54,1.77-1.67c-.34.58-1.32,2-1.35,2.07l-.5.14Zm1.85-2.19-1.74,1.66-.06.49.43-.13s.13-.23,1.37-2Z"/></g><path id="_Path_91" data-name="&lt;Path&gt;" class="cls-6" d="M106.37,58.73c-.76.24-1.93.55-2.64.87.24-.83.5-2.17.65-3a19,19,0,0,0-.09,2.34,16.85,16.85,0,0,0,2.08-.21Z"/><g id="_Group_67" data-name="&lt;Group&gt;"><path id="_Path_92" data-name="&lt;Path&gt;" d="M103.7,59.63v0c.24-.85.51-2.17.65-3v.7a9.59,9.59,0,0,0-.07,1.06,7.51,7.51,0,0,1,0-1.06l0-.7a29,29,0,0,1-.61,3,18.88,18.88,0,0,1,2-.66l.64-.2a4.32,4.32,0,0,1-.68.13,8.43,8.43,0,0,1-1.25.13s0,0,0,0a11.91,11.91,0,0,0,1.26-.13c.25,0,.48-.08.7-.1l-.65.23a18.15,18.15,0,0,0-2,.68Z"/></g><path id="_Path_93" data-name="&lt;Path&gt;" class="cls-6" d="M104.18,59.48s1-2.26,1-2.26l-1.49,1.93v.52Z"/><g id="_Group_68" data-name="&lt;Group&gt;"><path id="_Compound_Path_44" data-name="&lt;Compound Path&gt;" d="M103.74,59.7v-.55l1.49-1.93c-.26.62-1,2.19-1,2.26l-.46.22Zm1.48-2.48-1.46,2v.48l.42-.19s.08-.23,1-2.24Z"/></g><path id="_Path_94" data-name="&lt;Path&gt;" class="cls-6" d="M106.1,59c-.79.18-2,.41-2.72.66.3-.82.68-2.12.91-2.93a23.09,23.09,0,0,0-.3,2.32,18.85,18.85,0,0,0,2.11,0Z"/><g id="_Group_69" data-name="&lt;Group&gt;"><path id="_Path_95" data-name="&lt;Path&gt;" d="M103.34,59.71v0c.32-.8.68-2.09.91-2.9h0a26.5,26.5,0,0,1-.86,2.87c.55-.17,1.33-.33,2-.48l.67-.15a5.24,5.24,0,0,1-.72.06,6.39,6.39,0,0,1-1.38,0,9.93,9.93,0,0,1,.19-1.68l.08-.57-.06.57a12.75,12.75,0,0,0-.19,1.67c.35,0,.88,0,1.36,0,.24,0,.5,0,.73,0l-.68.17a17.85,17.85,0,0,0-2,.51Z"/></g><path id="_Path_96" data-name="&lt;Path&gt;" class="cls-6" d="M103.94,59.69s1.71-1.77,1.71-1.77l-2,1.31-.16.5Z"/><g id="_Group_70" data-name="&lt;Group&gt;"><path id="_Compound_Path_45" data-name="&lt;Compound Path&gt;" d="M103.45,59.74l.17-.51,2-1.32c-.45.5-1.66,1.74-1.69,1.78l-.5.05Zm2.19-1.83-2,1.33-.14.47.45,0s.17-.19,1.7-1.76Z"/></g><path id="_Path_97" data-name="&lt;Path&gt;" class="cls-6" d="M105.74,59.33c-.76.11-2,.22-2.69.41.36-.81.81-2.1,1.08-2.9a22.14,22.14,0,0,0-.44,2.34,15.21,15.21,0,0,0,2,.15Z"/><g id="_Group_71" data-name="&lt;Group&gt;"><path id="_Path_98" data-name="&lt;Path&gt;" d="M103,59.76l0,0c.33-.75.75-1.94,1-2.74v0a25.06,25.06,0,0,1-1,2.7c.55-.13,1.33-.23,2-.32l.64-.07H105a9.16,9.16,0,0,1-1.35-.12,10.17,10.17,0,0,1,.29-1.74l.06-.29,0,.3a15,15,0,0,0-.31,1.71,7,7,0,0,0,1.34.1l.7,0-.65.12c-.69.09-1.49.18-2,.3l0,0Z"/></g><path id="_Path_99" data-name="&lt;Path&gt;" class="cls-6" d="M103.6,59.51s1.17-2.2,1.17-2.2l-1.58,1.86,0,.52Z"/><g id="_Group_72" data-name="&lt;Group&gt;"><path id="_Compound_Path_46" data-name="&lt;Compound Path&gt;" d="M103.14,59.71l0-.54,1.58-1.87c-.29.61-1.12,2.16-1.13,2.21l-.48.2Zm1.61-2.41-1.56,1.87v.48l.4-.15s.12-.24,1.17-2.2Z"/></g><path id="_Path_100" data-name="&lt;Path&gt;" class="cls-6" d="M105.84,59.07c-.84.34-2.14.83-2.93,1.24.26-1,.54-2.56.7-3.52a21,21,0,0,0-.06,2.72,20.43,20.43,0,0,0,2.29-.44Z"/><g id="_Group_73" data-name="&lt;Group&gt;"><path id="_Compound_Path_47" data-name="&lt;Compound Path&gt;" d="M102.88,60.35v0c.27-1,.53-2.56.71-3.53l0,.79a18.46,18.46,0,0,0,0,1.94,12.53,12.53,0,0,0,1.49-.27l.8-.18-.72.32a22,22,0,0,0-2.2.95l0,0Zm.72-3.56c-.14,1-.41,2.49-.65,3.5.57-.31,1.43-.64,2.16-.95l.72-.28c-.23.08-.49.14-.78.21a10.77,10.77,0,0,1-1.5.26,11.64,11.64,0,0,1,0-2l0-.78Z"/></g><path id="_Path_101" data-name="&lt;Path&gt;" class="cls-6" d="M103.45,60.17s1.39-2.52,1.39-2.52L103,59.8l0,.58Z"/><g id="_Group_74" data-name="&lt;Group&gt;"><path id="_Compound_Path_48" data-name="&lt;Compound Path&gt;" d="M102.92,60.41l.06-.63,1.84-2.14c-.44.86-1.35,2.48-1.36,2.54l-.54.23Zm1.9-2.77L103,59.8l0,.56.46-.2,1.4-2.52Z"/></g><path id="_Path_102" data-name="&lt;Path&gt;" class="cls-6" d="M105.51,59.39c-.81.39-2.1.92-2.86,1.39.21-1,.42-2.57.54-3.52,0,.82-.06,2,0,2.69a19.91,19.91,0,0,0,2.28-.56Z"/><g id="_Group_75" data-name="&lt;Group&gt;"><path id="_Path_103" data-name="&lt;Path&gt;" d="M102.63,60.8v0c.21-1,.41-2.53.53-3.48h0c-.09,1-.3,2.47-.5,3.44a20.8,20.8,0,0,1,2.16-1.05l.67-.31-.77.24a8,8,0,0,1-1.49.34,11.9,11.9,0,0,1-.08-2v-.65l0,.65a13.27,13.27,0,0,0,.05,1.94,11,11,0,0,0,1.48-.37l.77-.2-.66.33a23.83,23.83,0,0,0-2.2,1.08Z"/></g><path id="_Path_104" data-name="&lt;Path&gt;" class="cls-6" d="M103.16,60.56s1-2.72,1-2.72l-1.53,2.43,0,.59Z"/><g id="_Group_76" data-name="&lt;Group&gt;"><path id="_Compound_Path_49" data-name="&lt;Compound Path&gt;" d="M102.66,60.89l0-.62,1.53-2.43c-.33.91-1,2.66-1,2.72l-.51.33Zm1.5-3-1.51,2.43,0,.56.44-.29s.07-.23,1-2.7Z"/></g><path id="_Path_105" data-name="&lt;Path&gt;" class="cls-6" d="M105.16,59.62A30.19,30.19,0,0,0,102.31,61c.21-1,.39-2.55.51-3.53,0,.83,0,2,.06,2.7a22.43,22.43,0,0,0,2.28-.58Z"/><g id="_Group_77" data-name="&lt;Group&gt;"><path id="_Compound_Path_50" data-name="&lt;Compound Path&gt;" d="M102.28,61.05v0c.2-1,.4-2.56.52-3.52l0,.82a15.9,15.9,0,0,0,0,1.88,12.28,12.28,0,0,0,1.49-.39c.27-.07.54-.16.78-.21l-.65.35a20.51,20.51,0,0,0-2.2,1.09Zm.53-3.55c-.09,1-.27,2.49-.48,3.49.56-.35,1.43-.74,2.15-1.09l.67-.3c-.22.09-.49.17-.76.25a8.37,8.37,0,0,1-1.51.36,10.35,10.35,0,0,1-.07-1.89V57.5Z"/></g><path id="_Path_106" data-name="&lt;Path&gt;" class="cls-6" d="M102.92,60.89s1.59-2.4,1.59-2.4l-2,1.95-.1.6Z"/><g id="_Group_78" data-name="&lt;Group&gt;"><path id="_Compound_Path_51" data-name="&lt;Compound Path&gt;" d="M102.4,61.06l.09-.62,2-2c-.52.82-1.53,2.34-1.55,2.41l-.55.17Zm2.08-2.58-2,2-.09.56.48-.15s.14-.24,1.57-2.39Z"/></g><path id="_Path_107" data-name="&lt;Path&gt;" class="cls-6" d="M105.08,59.48c-.72.59-1.87,1.45-2.54,2.08,0-1-.13-2.54-.21-3.49a24.62,24.62,0,0,0,.62,2.56,20.33,20.33,0,0,0,2.13-1.15Z"/><g id="_Group_79" data-name="&lt;Group&gt;"><path id="_Path_108" data-name="&lt;Path&gt;" d="M102.52,61.6v0c0-.92-.1-2.28-.18-3.24v0c.12,1.11.21,2.33.21,3.18.49-.48,1.26-1.07,1.9-1.57l.61-.48a7.38,7.38,0,0,1-.71.43,8.13,8.13,0,0,1-1.4.72,9.24,9.24,0,0,1-.49-1.84l0-.25.08.25a15.11,15.11,0,0,0,.47,1.83c.38-.16.89-.46,1.37-.73.27-.15.51-.3.73-.41l-.59.5c-.66.52-1.43,1.12-1.93,1.6l0,0Z"/></g><path id="_Path_109" data-name="&lt;Path&gt;" class="cls-6" d="M103,61s.19-2.88.19-2.88l-.76,2.81.21.52Z"/><g id="_Group_80" data-name="&lt;Group&gt;"><path id="_Compound_Path_52" data-name="&lt;Compound Path&gt;" d="M102.63,61.47l-.22-.54.76-2.81c0,.79-.15,2.81-.15,2.87l-.39.48Zm.54-3.35-.72,2.81.19.48L103,61s0-.19.18-2.87Z"/></g><path id="_Path_110" data-name="&lt;Path&gt;" class="cls-6" d="M104.87,59.74c-.72.59-1.88,1.44-2.54,2.07,0-1-.12-2.53-.2-3.49a23.3,23.3,0,0,0,.61,2.55,20,20,0,0,0,2.13-1.13Z"/><g id="_Group_81" data-name="&lt;Group&gt;"><path id="_Path_111" data-name="&lt;Path&gt;" d="M102.31,61.86v0c0-1-.11-2.43-.18-3.39v0c.1,1,.22,2.4.22,3.34.49-.46,1.22-1,1.87-1.53l.65-.51c-.21.15-.46.28-.7.43a11.19,11.19,0,0,1-1.42.72,10.66,10.66,0,0,1-.47-1.82l-.11-.47.14.47a10.5,10.5,0,0,0,.45,1.8,10.69,10.69,0,0,0,1.39-.74l.72-.39-.63.53c-.66.51-1.41,1.09-1.9,1.56l0,0Z"/></g><path id="_Path_112" data-name="&lt;Path&gt;" class="cls-6" d="M102.82,61.48s.73-2.81.73-2.81l-1.27,2.59.1.57Z"/><g id="_Group_82" data-name="&lt;Group&gt;"><path id="_Compound_Path_53" data-name="&lt;Compound Path&gt;" d="M102.38,61.87l-.11-.61,1.28-2.59c-.23.95-.71,2.75-.71,2.81l-.46.39Zm1.17-3.2-1.26,2.59.11.54.41-.33s0-.25.74-2.8Z"/></g><path id="_Path_113" data-name="&lt;Path&gt;" class="cls-6" d="M104.8,59.83c-.7.67-1.78,1.69-2.4,2.41-.11-1-.41-2.59-.6-3.57a22.46,22.46,0,0,0,.92,2.56,23.71,23.71,0,0,0,2.08-1.4Z"/><g id="_Group_83" data-name="&lt;Group&gt;"><path id="_Path_114" data-name="&lt;Path&gt;" d="M102.38,62.28v0c-.1-1-.39-2.51-.58-3.47h0a33.67,33.67,0,0,1,.6,3.42,25.14,25.14,0,0,1,1.79-1.82l.58-.57c-.2.17-.44.35-.69.53a10.63,10.63,0,0,1-1.37.9,10.61,10.61,0,0,1-.68-1.8l-.17-.52.19.51a14.93,14.93,0,0,0,.66,1.79,10.38,10.38,0,0,0,1.36-.91l.7-.5-.56.6a25.66,25.66,0,0,0-1.81,1.84l0,0Z"/></g><path id="_Path_115" data-name="&lt;Path&gt;" class="cls-6" d="M102.83,61.84s.13-3,.13-3l-.74,2.9.24.54Z"/><g id="_Group_84" data-name="&lt;Group&gt;"><path id="_Compound_Path_54" data-name="&lt;Compound Path&gt;" d="M102.45,62.34l-.24-.58.74-2.91c0,1-.12,2.93-.11,3l-.39.5Zm.5-3.48-.72,2.9.23.52.35-.45s0-.27.14-3Z"/></g><path id="_Path_116" data-name="&lt;Path&gt;" class="cls-6" d="M104.58,60.31c-.75.62-1.92,1.52-2.57,2.18,0-1-.2-2.63-.3-3.62a23.22,23.22,0,0,0,.69,2.65,22.7,22.7,0,0,0,2.18-1.21Z"/><g id="_Group_85" data-name="&lt;Group&gt;"><path id="_Compound_Path_55" data-name="&lt;Compound Path&gt;" d="M102,62.53v0c0-1-.19-2.63-.3-3.62l.21.78a14.71,14.71,0,0,0,.52,1.86,12.62,12.62,0,0,0,1.43-.79c.25-.15.49-.3.72-.41l-.62.53c-.67.54-1.43,1.17-1.92,1.66l0,0Zm-.3-3.66c.13,1,.3,2.54.34,3.59a22.32,22.32,0,0,1,1.91-1.64l.63-.51a7.85,7.85,0,0,1-.71.43,8.81,8.81,0,0,1-1.45.79,12.17,12.17,0,0,1-.54-1.88l-.18-.78Z"/></g><path id="_Path_117" data-name="&lt;Path&gt;" class="cls-7" d="M115,63.36a5.25,5.25,0,1,1-5.26-5.24A5.25,5.25,0,0,1,115,63.36Z"/><path id="_Path_118" data-name="&lt;Path&gt;" class="cls-6" d="M102.59,62.19s1-2.81,1-2.81l-1.56,2.49,0,.6Z"/><g id="_Group_86" data-name="&lt;Group&gt;"><path id="_Compound_Path_56" data-name="&lt;Compound Path&gt;" d="M102.11,62.51l0-.64,1.56-2.5c-.33,1-1,2.75-1,2.82l-.51.32Zm1.51-3.13-1.52,2.5,0,.58.45-.29s.08-.25,1-2.79Z"/></g><path id="_Path_119" data-name="&lt;Path&gt;" class="cls-6" d="M104.57,60.33c-.65.69-1.71,1.71-2.28,2.45-.1-1-.39-2.62-.57-3.6a24.32,24.32,0,0,0,.87,2.58,23.24,23.24,0,0,0,2-1.43Z"/><g id="_Group_87" data-name="&lt;Group&gt;"><path id="_Path_120" data-name="&lt;Path&gt;" d="M102.28,62.83v0c-.11-1-.38-2.47-.55-3.46l0,0c.22,1.1.46,2.46.56,3.42a20.28,20.28,0,0,1,1.7-1.87l.54-.58a7.22,7.22,0,0,1-.65.55,8.55,8.55,0,0,1-1.31.92,13.71,13.71,0,0,1-.66-1.86l-.12-.38.17.37a12.06,12.06,0,0,0,.63,1.85,14.28,14.28,0,0,0,1.27-.93c.23-.19.46-.36.67-.52l-.52.59c-.59.62-1.29,1.34-1.72,1.9l0,0Z"/></g><path id="_Path_121" data-name="&lt;Path&gt;" class="cls-6" d="M102.64,62.32s-.12-3-.12-3l-.48,3,.27.51Z"/><g id="_Group_88" data-name="&lt;Group&gt;"><path id="_Compound_Path_57" data-name="&lt;Compound Path&gt;" d="M102.31,62.87l-.28-.55.47-3c.07,1,.14,2.91.15,3l-.34.55Zm.19-3.52-.44,3,.25.48.32-.48s0-.28-.13-3Z"/></g><path id="_Path_122" data-name="&lt;Path&gt;" class="cls-6" d="M104.24,60.56c-.63.69-1.65,1.72-2.19,2.47-.13-1-.47-2.63-.67-3.62a25,25,0,0,0,.93,2.59,20.54,20.54,0,0,0,1.93-1.44Z"/><g id="_Group_89" data-name="&lt;Group&gt;"><path id="_Path_123" data-name="&lt;Path&gt;" d="M102,63.07v0c-.14-1-.47-2.61-.68-3.59v0c.24,1,.56,2.5.7,3.53.42-.55,1.08-1.27,1.64-1.89l.53-.56c-.18.17-.4.35-.62.53a10.35,10.35,0,0,1-1.28.94,9.9,9.9,0,0,1-.71-1.81l-.23-.69.26.67a14.52,14.52,0,0,0,.68,1.81,11,11,0,0,0,1.25-.94c.24-.19.45-.37.65-.51l-.49.59c-.58.63-1.26,1.34-1.68,1.91l0,0Z"/></g><path id="_Path_124" data-name="&lt;Path&gt;" class="cls-6" d="M102.48,62.62s.33-3,.33-3l-.89,2.86.19.59Z"/><g id="_Group_90" data-name="&lt;Group&gt;"><path id="_Compound_Path_58" data-name="&lt;Compound Path&gt;" d="M102.1,63.08l-.2-.62.89-2.86c-.09,1-.3,2.95-.3,3l-.39.47Zm.69-3.48-.86,2.86.18.55.36-.4s0-.26.32-3Z"/></g><path id="_Path_125" data-name="&lt;Path&gt;" class="cls-6" d="M104.1,60.67c-.57.75-1.51,1.88-2,2.68-.21-1-.67-2.57-1-3.52a22.8,22.8,0,0,0,1.13,2.47,20.8,20.8,0,0,0,1.81-1.63Z"/><g id="_Group_91" data-name="&lt;Group&gt;"><path id="_Path_126" data-name="&lt;Path&gt;" d="M102.11,63.39v0c-.23-1-.66-2.49-.94-3.45v0c.31,1,.73,2.42,1,3.38.37-.58,1-1.35,1.49-2l.48-.62c-.16.18-.36.38-.57.58a9.16,9.16,0,0,1-1.21,1.06,11.55,11.55,0,0,1-.87-1.76l-.21-.5.25.48a13.51,13.51,0,0,0,.83,1.77,13.13,13.13,0,0,0,1.2-1.07c.19-.2.41-.4.59-.56l-.47.64c-.53.68-1.14,1.46-1.51,2.05v0Z"/></g><path id="_Path_127" data-name="&lt;Path&gt;" class="cls-6" d="M102.47,62.9s-.2-3-.2-3l-.37,3,.26.53Z"/><g id="_Group_92" data-name="&lt;Group&gt;"><path id="_Compound_Path_59" data-name="&lt;Compound Path&gt;" d="M102.16,63.44l-.29-.56.39-3c.09,1,.21,3,.22,3l-.32.54Zm.1-3.55-.36,3,.26.49.29-.47s0-.28-.19-3Z"/></g><path id="_Path_128" data-name="&lt;Path&gt;" class="cls-6" d="M104.05,60.84c-.54.79-1.42,2-1.88,2.81-.27-1-.79-2.56-1.12-3.5a25.87,25.87,0,0,0,1.26,2.42,21.8,21.8,0,0,0,1.74-1.73Z"/><g id="_Group_93" data-name="&lt;Group&gt;"><path id="_Compound_Path_60" data-name="&lt;Compound Path&gt;" d="M102.16,63.69v0c-.23-.92-.7-2.28-1-3.23l-.07-.27.36.69a16.78,16.78,0,0,0,.93,1.73c.32-.28.73-.71,1.13-1.13.19-.22.4-.42.58-.61l-.43.68c-.5.7-1.07,1.52-1.42,2.14l0,0ZM101,60.15l.1.27c.34.93.79,2.26,1,3.17.35-.61.93-1.4,1.4-2.11l.46-.64c-.15.2-.35.4-.55.62a8.73,8.73,0,0,1-1.17,1.13,12.48,12.48,0,0,1-.93-1.73l-.34-.71Z"/></g><path id="_Path_129" data-name="&lt;Path&gt;" class="cls-6" d="M102.65,63.19s.31-3,.31-3L102.1,63l.18.58Z"/><g id="_Group_94" data-name="&lt;Group&gt;"><path id="_Compound_Path_61" data-name="&lt;Compound Path&gt;" d="M102.27,63.63l-.19-.62.87-2.86c-.09,1-.29,3-.29,3l-.39.44Zm.68-3.48L102.11,63l.17.56.36-.38s0-.27.31-3Z"/></g><path id="_Path_130" data-name="&lt;Path&gt;" class="cls-6" d="M103.94,61.13c-.47.86-1.22,2.15-1.61,3.05-.35-1-1-2.44-1.43-3.32.44.68,1,1.69,1.46,2.24a22.68,22.68,0,0,0,1.58-2Z"/><g id="_Group_95" data-name="&lt;Group&gt;"><path id="_Path_131" data-name="&lt;Path&gt;" d="M102.33,64.22l0,0c-.34-1-1-2.4-1.41-3.29h0c.44.89,1.08,2.28,1.43,3.23.28-.64.77-1.5,1.18-2.24l.42-.77c-.14.23-.32.45-.49.7a11.6,11.6,0,0,1-1.06,1.3,11.22,11.22,0,0,1-1.08-1.57l-.37-.58.39.56a15.48,15.48,0,0,0,1.06,1.56,13.43,13.43,0,0,0,1-1.3c.17-.23.35-.46.52-.67l-.4.78c-.42.77-.91,1.65-1.19,2.29v0Z"/></g><polygon id="_Path_132" data-name="&lt;Path&gt;" class="cls-6" points="102.54 63.44 101.7 60.56 101.99 63.59 102.38 64.02 102.54 63.44"/><g id="_Group_96" data-name="&lt;Group&gt;"><path id="_Compound_Path_62" data-name="&lt;Compound Path&gt;" d="M102.38,64.06l-.4-.46-.29-3c.3,1,.83,2.81.87,2.87l-.18.63Zm-.69-3.5.31,3,.36.39.16-.54-.83-2.88Z"/></g><path id="_Path_133" data-name="&lt;Path&gt;" class="cls-6" d="M103.93,61.46c-.49.86-1.29,2.15-1.7,3-.34-.95-1-2.41-1.44-3.3a22.17,22.17,0,0,0,1.5,2.23c.53-.48,1.12-1.36,1.64-2Z"/><g id="_Group_97" data-name="&lt;Group&gt;"><path id="_Compound_Path_63" data-name="&lt;Compound Path&gt;" d="M102.23,64.54v0c-.35-1-1-2.41-1.45-3.31l.45.64a12.29,12.29,0,0,0,1.09,1.58,15.57,15.57,0,0,0,1-1.26c.2-.25.39-.5.57-.7l-.41.77c-.45.76-1,1.64-1.25,2.28l0,0Zm-1.46-3.35a30.3,30.3,0,0,1,1.46,3.27c.31-.65.81-1.52,1.24-2.26l.45-.75c-.16.23-.36.47-.54.71a10.58,10.58,0,0,1-1.07,1.27,11.36,11.36,0,0,1-1.13-1.58l-.41-.66Z"/></g><path id="_Path_134" data-name="&lt;Path&gt;" class="cls-6" d="M102.58,64s-.31-3-.31-3L102,64l.3.51Z"/><g id="_Group_98" data-name="&lt;Group&gt;"><path id="_Compound_Path_64" data-name="&lt;Compound Path&gt;" d="M102.29,64.53,102,64l.28-3c.12,1,.31,3,.33,3l-.3.57Zm0-3.57L102,64l.28.5.28-.5s0-.26-.31-3Z"/></g><path id="_Path_135" data-name="&lt;Path&gt;" class="cls-6" d="M104,61.72c-.5.85-1.32,2.13-1.74,3-.33-1-1-2.44-1.39-3.34a22.84,22.84,0,0,0,1.47,2.27A23.13,23.13,0,0,0,104,61.72Z"/><g id="_Group_99" data-name="&lt;Group&gt;"><path id="_Path_136" data-name="&lt;Path&gt;" d="M102.23,64.76v0c-.32-1-1-2.44-1.39-3.34h0a31.25,31.25,0,0,1,1.4,3.29c.33-.68.88-1.57,1.34-2.34l.38-.62c-.14.22-.34.45-.54.71a10.41,10.41,0,0,1-1.1,1.22,11.52,11.52,0,0,1-1.07-1.59l-.4-.65.43.63a13.27,13.27,0,0,0,1.06,1.59,14.58,14.58,0,0,0,1.06-1.23c.19-.25.39-.48.56-.68l-.34.64a24,24,0,0,0-1.35,2.37l0,0Z"/></g><path id="_Path_137" data-name="&lt;Path&gt;" class="cls-6" d="M102.55,64.23s-.56-3-.56-3v3l.33.48Z"/><g id="_Group_100" data-name="&lt;Group&gt;"><path id="_Compound_Path_65" data-name="&lt;Compound Path&gt;" d="M102.31,64.81,102,64.3l0-3c.22,1,.57,2.91.59,3l-.26.59ZM102,61.25v3l.33.44.23-.52s-.06-.26-.56-3Z"/></g><path id="_Path_138" data-name="&lt;Path&gt;" class="cls-6" d="M103.75,62.15c-.54.81-1.41,2-1.86,2.87-.3-1-.88-2.5-1.24-3.42.41.72.91,1.77,1.35,2.36a18.85,18.85,0,0,0,1.75-1.81Z"/><g id="_Group_101" data-name="&lt;Group&gt;"><path id="_Path_139" data-name="&lt;Path&gt;" d="M101.87,65.06v0c-.28-.94-.81-2.35-1.18-3.29v0c.44,1,.92,2.32,1.2,3.22a23.91,23.91,0,0,1,1.38-2.17l.46-.67c-.16.2-.35.42-.55.65A9.79,9.79,0,0,1,102,64a12,12,0,0,1-1-1.68l-.17-.33.21.31a13,13,0,0,0,1,1.68,14.06,14.06,0,0,0,1.15-1.16c.19-.23.4-.46.58-.65l-.44.71c-.49.72-1.07,1.56-1.4,2.19l0,0Z"/></g><path id="_Path_140" data-name="&lt;Path&gt;" class="cls-6" d="M102.29,64.55s.25-3,.25-3l-.82,2.87.2.6Z"/><g id="_Group_102" data-name="&lt;Group&gt;"><path id="_Compound_Path_66" data-name="&lt;Compound Path&gt;" d="M101.92,65l-.21-.61.81-2.88c0,1-.21,3-.21,3l-.39.46Zm.6-3.49-.79,2.88.19.55.36-.4s0-.28.24-3Z"/></g><path id="_Path_141" data-name="&lt;Path&gt;" class="cls-6" d="M103.79,62.22c-.46.89-1.22,2.21-1.59,3.12-.39-1-1.11-2.38-1.55-3.25a23,23,0,0,0,1.57,2.17c.5-.5,1.08-1.42,1.57-2Z"/><g id="_Group_103" data-name="&lt;Group&gt;"><path id="_Path_142" data-name="&lt;Path&gt;" d="M102.2,65.38l0,0c-.35-.9-1-2.18-1.43-3v0c.54,1,1.11,2.16,1.45,3,.28-.67.75-1.54,1.15-2.29l.43-.79c-.15.24-.32.47-.5.72a11,11,0,0,1-1.06,1.33,9.72,9.72,0,0,1-1.13-1.51l-.17-.26.19.24a12.61,12.61,0,0,0,1.12,1.51,15.61,15.61,0,0,0,1-1.33l.52-.7-.39.8c-.42.77-.9,1.67-1.17,2.33l0,0Z"/></g><path id="_Path_143" data-name="&lt;Path&gt;" class="cls-6" d="M102.2,64.81s-1-2.83-1-2.83l.37,3,.41.41Z"/><g id="_Group_104" data-name="&lt;Group&gt;"><path id="_Compound_Path_67" data-name="&lt;Compound Path&gt;" d="M102,65.42,101.6,65l-.36-3c.34.94.93,2.76,1,2.81l-.18.63ZM101.24,62l.39,3,.38.37.16-.57s-.09-.2-.93-2.81Z"/></g><path id="_Path_144" data-name="&lt;Path&gt;" class="cls-6" d="M103.67,62.46c-.33,1-.88,2.43-1.11,3.4-.52-.86-1.45-2.1-2-2.85a19.23,19.23,0,0,0,1.86,1.78c.43-.61.85-1.63,1.25-2.33Z"/><g id="_Group_105" data-name="&lt;Group&gt;"><path id="_Compound_Path_68" data-name="&lt;Compound Path&gt;" d="M102.57,65.9l0,0c-.48-.77-1.27-1.86-1.83-2.62l-.18-.23.55.53a13.18,13.18,0,0,0,1.34,1.24c.25-.39.53-1,.8-1.5.15-.3.29-.59.41-.82l-.23.77c-.3.86-.65,1.89-.83,2.63v0Zm-2-2.89.2.22c.56.75,1.34,1.81,1.82,2.58.18-.72.53-1.74.83-2.6l.25-.75a8.42,8.42,0,0,1-.38.83,9.34,9.34,0,0,1-.83,1.5,8.89,8.89,0,0,1-1.36-1.24l-.53-.54Z"/></g><path id="_Path_145" data-name="&lt;Path&gt;" class="cls-6" d="M103,65s-1-2.79-1-2.79l.45,3,.4.4Z"/><g id="_Group_106" data-name="&lt;Group&gt;"><path id="_Compound_Path_69" data-name="&lt;Compound Path&gt;" d="M102.88,65.67l-.43-.42-.45-3c.36.94,1,2.74,1,2.77l-.16.65ZM102,62.25l.47,3,.39.36L103,65s-.11-.21-1-2.78Z"/></g><path id="_Path_146" data-name="&lt;Path&gt;" class="cls-6" d="M103.65,62.76c-.31,1-.84,2.44-1.07,3.4-.53-.85-1.47-2.07-2-2.83a21.87,21.87,0,0,0,1.89,1.77c.42-.61.84-1.65,1.22-2.34Z"/><g id="_Group_107" data-name="&lt;Group&gt;"><path id="_Compound_Path_70" data-name="&lt;Compound Path&gt;" d="M102.58,66.21v0c-.53-.84-1.46-2.07-2-2.82l.57.52a17.42,17.42,0,0,0,1.33,1.23,13.57,13.57,0,0,0,.8-1.54c.15-.29.28-.57.4-.81l-.24.84c-.29.86-.63,1.86-.8,2.58v0Zm-2-2.87a31.12,31.12,0,0,1,2,2.78c.18-.72.5-1.7.78-2.55l.28-.83a4.86,4.86,0,0,1-.37.82,10.59,10.59,0,0,1-.83,1.55,9.84,9.84,0,0,1-1.35-1.23l-.55-.54Z"/></g><path id="_Path_147" data-name="&lt;Path&gt;" class="cls-6" d="M103,65.51s-1.31-2.61-1.31-2.61l.77,2.9.46.32Z"/><g id="_Group_108" data-name="&lt;Group&gt;"><path id="_Compound_Path_71" data-name="&lt;Compound Path&gt;" d="M103,66.16l-.48-.35-.76-2.9c.45.87,1.28,2.54,1.32,2.59l-.08.66Zm-1.24-3.25.78,2.89.43.3.09-.59s-.13-.18-1.3-2.6Z"/></g><path id="_Path_148" data-name="&lt;Path&gt;" class="cls-6" d="M103.55,63c-.2,1-.56,2.55-.67,3.54-.62-.78-1.68-1.84-2.34-2.51a21.11,21.11,0,0,0,2.07,1.48c.35-.67.65-1.75.94-2.51Z"/><g id="_Group_109" data-name="&lt;Group&gt;"><path id="_Compound_Path_72" data-name="&lt;Compound Path&gt;" d="M102.89,66.57l0,0a30.22,30.22,0,0,0-2.12-2.3l-.21-.22.6.42a11,11,0,0,0,1.48,1,13.18,13.18,0,0,0,.62-1.62c.11-.31.21-.62.32-.88l-.16.87c-.18.89-.41,1.95-.5,2.68v0ZM100.53,64l.23.18c.64.67,1.55,1.59,2.1,2.27.1-.73.31-1.75.49-2.63l.2-.86c-.08.27-.18.57-.29.87a12.5,12.5,0,0,1-.64,1.64,10.57,10.57,0,0,1-1.51-1l-.58-.45Z"/></g><path id="_Path_149" data-name="&lt;Path&gt;" class="cls-6" d="M103.11,65.91s-.69-2.91-.69-2.91l.1,3,.37.44Z"/><g id="_Group_110" data-name="&lt;Group&gt;"><path id="_Compound_Path_73" data-name="&lt;Compound Path&gt;" d="M102.89,66.53l-.37-.49-.12-3c.25,1,.7,2.86.73,2.91l-.24.62ZM102.4,63l.14,3,.34.42.22-.55s-.08-.24-.7-2.91Z"/></g><path id="_Path_150" data-name="&lt;Path&gt;" class="cls-6" d="M103.56,63.31c-.1,1-.33,2.6-.33,3.6-.71-.67-1.85-1.6-2.56-2.18a15.71,15.71,0,0,0,2.18,1.18,25.09,25.09,0,0,0,.71-2.6Z"/><g id="_Group_111" data-name="&lt;Group&gt;"><path id="_Path_151" data-name="&lt;Path&gt;" d="M103.23,67l0,0c-.66-.64-1.73-1.53-2.45-2.1h0c.8.62,1.78,1.43,2.42,2,0-.76.13-1.84.25-2.76l.09-.82c-.06.29-.13.61-.21.94a11,11,0,0,1-.48,1.69,10.79,10.79,0,0,1-1.61-.83l-.28-.17.31.13a10.83,10.83,0,0,0,1.58.85c.17-.46.31-1.09.46-1.69.07-.31.15-.64.23-.92l-.07.82c-.1.94-.23,2-.25,2.79v0Z"/></g><path id="_Path_152" data-name="&lt;Path&gt;" class="cls-6" d="M103.14,66.14S101.3,64,101.3,64l1.39,2.56.52.17Z"/><g id="_Group_112" data-name="&lt;Group&gt;"><path id="_Compound_Path_74" data-name="&lt;Compound Path&gt;" d="M103.23,66.77l-.54-.17L101.28,64c.65.7,1.83,2,1.88,2.09l.07.65ZM101.29,64l1.43,2.53.47.17-.06-.6h0S103,66,101.29,64Z"/></g><path id="_Path_153" data-name="&lt;Path&gt;" class="cls-6" d="M103.6,63.66c-.12,1-.34,2.6-.35,3.62-.69-.69-1.85-1.63-2.56-2.22a18,18,0,0,0,2.19,1.22c.29-.71.5-1.83.72-2.62Z"/><g id="_Group_113" data-name="&lt;Group&gt;"><path id="_Path_154" data-name="&lt;Path&gt;" d="M103.26,67.3h0c-.65-.66-1.72-1.54-2.43-2.12h0c.8.63,1.78,1.44,2.4,2,0-.74.14-1.76.24-2.66l.1-.91a7.15,7.15,0,0,1-.18.9,10.46,10.46,0,0,1-.5,1.73,10.08,10.08,0,0,1-1.6-.85l-.28-.17.3.14a9.94,9.94,0,0,0,1.57.85,14.65,14.65,0,0,0,.47-1.71c.07-.31.16-.63.22-.9l-.06.93c-.11.92-.24,2-.25,2.7v0Z"/></g><path id="_Path_155" data-name="&lt;Path&gt;" class="cls-6" d="M103.35,66.63s-1.42-2.54-1.42-2.54l.9,2.84.46.32Z"/><g id="_Group_114" data-name="&lt;Group&gt;"><path id="_Compound_Path_75" data-name="&lt;Compound Path&gt;" d="M103.3,67.28l-.48-.32-.9-2.87c.41.67,1.4,2.48,1.45,2.52l-.07.67Zm-1.38-3.19.92,2.84.44.29.06-.59s-.13-.19-1.42-2.54Z"/></g><path id="_Path_156" data-name="&lt;Path&gt;" class="cls-6" d="M103.68,64.09c-.06,1-.22,2.63-.2,3.63-.71-.65-1.91-1.51-2.64-2a18.73,18.73,0,0,0,2.23,1.07,25.71,25.71,0,0,0,.61-2.65Z"/><g id="_Group_115" data-name="&lt;Group&gt;"><path id="_Path_157" data-name="&lt;Path&gt;" d="M103.51,67.75l0,0c-.68-.59-1.78-1.41-2.5-2h0c.82.59,1.84,1.34,2.47,1.91,0-.75.07-1.8.14-2.72l.07-.87c0,.28-.11.6-.16.92a15,15,0,0,1-.41,1.74,8.91,8.91,0,0,1-1.64-.74l-.28-.15.3.12a10.16,10.16,0,0,0,1.61.74c.14-.46.26-1.09.39-1.72.07-.32.12-.64.19-.91l0,.87c-.07.94-.15,2-.14,2.76l0,0Z"/></g><path id="_Path_158" data-name="&lt;Path&gt;" class="cls-6" d="M103.55,67.09s-1.77-2.23-1.77-2.23l1.28,2.65.5.21Z"/><g id="_Group_116" data-name="&lt;Group&gt;"><path id="_Compound_Path_76" data-name="&lt;Compound Path&gt;" d="M103.57,67.74l-.52-.21-1.28-2.65c.61.73,1.72,2.17,1.78,2.2l0,.66Zm-1.8-2.86,1.3,2.62.48.2,0-.59h0l-1.75-2.23Z"/></g><path id="_Path_159" data-name="&lt;Path&gt;" class="cls-6" d="M103.7,64.56c-.07,1-.21,2.63-.18,3.63-.71-.64-1.9-1.49-2.65-2a15.48,15.48,0,0,0,2.24,1.06,26.55,26.55,0,0,0,.59-2.66Z"/><g id="_Group_117" data-name="&lt;Group&gt;"><path id="_Compound_Path_77" data-name="&lt;Compound Path&gt;" d="M103.55,68.22l0,0c-.73-.64-1.92-1.48-2.66-2l.65.31a9,9,0,0,0,1.6.72,16.17,16.17,0,0,0,.4-1.76c0-.31.11-.62.17-.89l0,.83c-.05.94-.13,2.05-.1,2.81v0Zm-2.68-2a29.91,29.91,0,0,1,2.64,2c0-.77,0-1.86.11-2.78l.06-.82c0,.27-.08.58-.13.89a16.08,16.08,0,0,1-.43,1.78,9.2,9.2,0,0,1-1.62-.72l-.63-.34Z"/></g><path id="_Path_160" data-name="&lt;Path&gt;" class="cls-6" d="M103.69,67.48s-1.22-2.69-1.22-2.69l.67,2.93.44.36Z"/><g id="_Group_118" data-name="&lt;Group&gt;"><path id="_Compound_Path_78" data-name="&lt;Compound Path&gt;" d="M103.6,68.12l-.47-.38-.68-2.95c.43.89,1.22,2.62,1.25,2.67l-.1.66Zm-1.15-3.33.71,2.93.41.33.11-.57s-.12-.21-1.23-2.69Z"/></g><path id="_Path_161" data-name="&lt;Path&gt;" class="cls-6" d="M103.74,64.86c0,1,.05,2.65.16,3.64-.77-.53-2-1.22-2.81-1.66a16,16,0,0,0,2.32.76c.19-.77.22-1.9.33-2.74Z"/><g id="_Group_119" data-name="&lt;Group&gt;"><path id="_Path_162" data-name="&lt;Path&gt;" d="M103.93,68.54l0,0c-.73-.51-1.91-1.16-2.69-1.61l0,0a27.63,27.63,0,0,1,2.67,1.54c-.1-.74-.11-1.79-.14-2.72l0-.89c0,.3,0,.62-.06,1a12.31,12.31,0,0,1-.25,1.78,8.23,8.23,0,0,1-1.67-.49L101.4,67l.36.09a9.19,9.19,0,0,0,1.65.51,15.24,15.24,0,0,0,.22-1.77c0-.33.06-.66.1-1l.06.89c0,.94,0,2,.14,2.75v0Z"/></g><path id="_Path_163" data-name="&lt;Path&gt;" class="cls-6" d="M103.92,67.37s-2.26-1.54-2.26-1.54l1.9,2.09.54,0Z"/><g id="_Group_120" data-name="&lt;Group&gt;"><path id="_Compound_Path_79" data-name="&lt;Compound Path&gt;" d="M104.12,68l-.56,0-1.91-2.1c.63.4,2.21,1.5,2.27,1.52l.2.61Zm-2.47-2.13,1.93,2.08.5,0-.19-.56h0s-1.41-1-2.24-1.54Z"/></g><path id="_Path_164" data-name="&lt;Path&gt;" class="cls-6" d="M103.82,65c.08,1,.17,2.62.35,3.6-.8-.49-2.11-1.14-2.9-1.54a16.85,16.85,0,0,0,2.35.67,27,27,0,0,0,.2-2.73Z"/><g id="_Group_121" data-name="&lt;Group&gt;"><path id="_Path_165" data-name="&lt;Path&gt;" d="M104.2,68.63l0,0c-.75-.48-1.94-1.06-2.76-1.47h0c.92.44,2,1,2.72,1.43-.13-.76-.21-1.85-.29-2.77l-.07-.81a9,9,0,0,1,0,.9,12.47,12.47,0,0,1-.16,1.83,8.14,8.14,0,0,1-1.71-.44l-.27-.08.28,0a12.48,12.48,0,0,0,1.69.46,14,14,0,0,0,.13-1.82c0-.32,0-.63,0-.9l.11.81c.07.92.15,2,.28,2.79l0,0Z"/></g><path id="_Path_166" data-name="&lt;Path&gt;" class="cls-6" d="M104.15,67.94s-1.87-2.14-1.87-2.14l1.42,2.57.52.19Z"/><g id="_Group_122" data-name="&lt;Group&gt;"><path id="_Compound_Path_80" data-name="&lt;Compound Path&gt;" d="M104.23,68.58l-.54-.2-1.42-2.58c.64.71,1.84,2.08,1.89,2.12l.07.66Zm-2-2.78,1.44,2.57.49.17-.07-.6h0s-.16-.14-1.86-2.14Z"/></g><path id="_Path_167" data-name="&lt;Path&gt;" class="cls-6" d="M104,65.38c.13,1,.29,2.62.5,3.59-.81-.45-2.14-1-3-1.37a19.45,19.45,0,0,0,2.38.53c.12-.78,0-1.92.08-2.75Z"/><g id="_Group_123" data-name="&lt;Group&gt;"><path id="_Path_168" data-name="&lt;Path&gt;" d="M104.51,69h0c-.78-.44-2-1-2.83-1.33h0a30.72,30.72,0,0,1,2.8,1.27c-.17-.77-.29-1.86-.41-2.8l-.08-.76c0,.29,0,.61,0,.94a17,17,0,0,1-.06,1.81,7.27,7.27,0,0,1-1.69-.33l-.36-.09.36.06a12.25,12.25,0,0,0,1.67.35c0-.5,0-1.16,0-1.8,0-.33,0-.65,0-.94l.12.76c.11,1,.24,2.08.41,2.83v0Z"/></g><path id="_Path_169" data-name="&lt;Path&gt;" class="cls-6" d="M104.53,68.3s-2.24-1.58-2.24-1.58l1.89,2.14.52,0Z"/><g id="_Group_124" data-name="&lt;Group&gt;"><path id="_Compound_Path_81" data-name="&lt;Compound Path&gt;" d="M104.73,68.92l-.55,0-1.9-2.13c.77.51,2.2,1.52,2.25,1.55l.2.63Zm-2.45-2.18,1.92,2.12.48,0-.17-.58h0s-1.23-.84-2.23-1.56Z"/></g><path id="_Path_170" data-name="&lt;Path&gt;" class="cls-6" d="M104.05,65.81c.2,1,.46,2.6.73,3.56-.83-.39-2.19-.82-3-1.1a17.15,17.15,0,0,0,2.39.3c.06-.79-.08-1.92-.11-2.76Z"/><g id="_Group_125" data-name="&lt;Group&gt;"><path id="_Path_171" data-name="&lt;Path&gt;" d="M104.81,69.39l0,0c-.8-.35-2.06-.76-2.91-1h0a25.9,25.9,0,0,1,2.87,1c-.2-.72-.41-1.77-.57-2.67l-.17-.86a8.73,8.73,0,0,1,.09,1,11.17,11.17,0,0,1,0,1.8,9.35,9.35,0,0,1-1.71-.17l-.35-.06.36,0a10.22,10.22,0,0,0,1.57.18,5.78,5.78,0,0,0,0-1.78q0-.52-.06-1l.2.84c.16.92.38,2,.57,2.72v0Z"/></g><path id="_Path_172" data-name="&lt;Path&gt;" class="cls-6" d="M104.77,68.62s-1.85-2.2-1.85-2.2L104.31,69l.51.21Z"/><g id="_Group_126" data-name="&lt;Group&gt;"><path id="_Compound_Path_82" data-name="&lt;Compound Path&gt;" d="M104.84,69.26l-.53-.21-1.4-2.61c.64.72,1.82,2.13,1.87,2.17l.06.65Zm-1.93-2.82L104.32,69l.48.18,0-.59h0l-1.84-2.18Z"/></g><path id="_Path_173" data-name="&lt;Path&gt;" class="cls-6" d="M104.17,66.08c.3,1,.7,2.55,1.06,3.47-.87-.26-2.24-.53-3.1-.69a19,19,0,0,0,2.4,0c0-.8-.26-1.91-.36-2.76Z"/><g id="_Group_127" data-name="&lt;Group&gt;"><path id="_Path_174" data-name="&lt;Path&gt;" d="M105.27,69.58l0,0a29.55,29.55,0,0,0-3-.68h0a28.45,28.45,0,0,1,3,.64c-.26-.68-.55-1.69-.81-2.56l-.24-.86c.07.28.11.62.17.94a11.08,11.08,0,0,1,.21,1.8,7.93,7.93,0,0,1-1.71,0l-.49,0h.49a11.55,11.55,0,0,0,1.7,0,14,14,0,0,0-.24-1.77c-.05-.33-.09-.67-.13-1l.28.84c.26.89.54,1.92.82,2.6v0Z"/></g><path id="_Path_175" data-name="&lt;Path&gt;" class="cls-6" d="M104.87,68.63s-2.58-.56-2.58-.56l2.45,1.22.5-.19Z"/><g id="_Group_128" data-name="&lt;Group&gt;"><path id="_Compound_Path_83" data-name="&lt;Compound Path&gt;" d="M104.74,69.3l-2.46-1.22c.88.15,2.52.53,2.59.53l.39.49-.52.2Zm-2.46-1.22,2.46,1.2.5-.19-.38-.46s-2.48-.51-2.58-.55Z"/></g><path id="_Path_176" data-name="&lt;Path&gt;" class="cls-6" d="M104.34,66.4c.3,1,.69,2.53,1,3.45-.87-.26-2.25-.53-3.1-.69a16,16,0,0,0,2.41,0c0-.79-.25-1.9-.36-2.73Z"/><g id="_Group_129" data-name="&lt;Group&gt;"><path id="_Path_177" data-name="&lt;Path&gt;" d="M105.42,69.88l0,0c-.81-.24-2.07-.49-2.91-.66h0a26.61,26.61,0,0,1,2.87.63c-.26-.71-.56-1.73-.81-2.63l-.23-.8c.07.28.12.59.18.9a14.75,14.75,0,0,1,.2,1.83,6.78,6.78,0,0,1-1.71.06h-.27l.27,0,.87,0h0a4.37,4.37,0,0,0,.84-.06,17.65,17.65,0,0,0-.24-1.8c0-.32-.1-.64-.14-.92l.27.8c.25.9.55,2,.81,2.65l0,0Z"/></g><path id="_Path_178" data-name="&lt;Path&gt;" class="cls-6" d="M105.3,68.89s-2.47-1.18-2.47-1.18L105,69.5l.53-.06Z"/><g id="_Group_130" data-name="&lt;Group&gt;"><path id="_Compound_Path_84" data-name="&lt;Compound Path&gt;" d="M105,69.52l-2.21-1.8c.67.29,2.41,1.14,2.48,1.16l.28.56-.55.08Zm-2.21-1.8L105,69.48l.53,0-.29-.53h0s-1.89-.91-2.46-1.19Z"/></g><path id="_Path_179" data-name="&lt;Path&gt;" class="cls-6" d="M104.22,66.57c.48.91,1.2,2.32,1.75,3.14-.9-.07-2.3,0-3.16,0a16.66,16.66,0,0,0,2.31-.54c-.17-.78-.64-1.82-.9-2.61Z"/><g id="_Group_131" data-name="&lt;Group&gt;"><path id="_Compound_Path_85" data-name="&lt;Compound Path&gt;" d="M102.81,69.74v0h0l.68-.13a9.17,9.17,0,0,0,1.65-.42,17.46,17.46,0,0,0-.59-1.7c-.13-.32-.24-.62-.33-.89l.42.73c.43.83.95,1.8,1.36,2.41-.89,0-2.19,0-3,0l-.05,0-.07,0Zm1.39-3.16a9.25,9.25,0,0,1,.35.87,13.79,13.79,0,0,1,.6,1.73,9.31,9.31,0,0,1-1.68.43l-.48.09c.87,0,2.13-.06,3,0a20.36,20.36,0,0,1-1.36-2.38l-.41-.74Z"/></g><path id="_Path_180" data-name="&lt;Path&gt;" class="cls-6" d="M105.69,69.17s-2.58-.71-2.58-.71l2.42,1.36.51-.15Z"/><g id="_Group_132" data-name="&lt;Group&gt;"><path id="_Compound_Path_86" data-name="&lt;Compound Path&gt;" d="M105.53,69.83h0l-2.4-1.36c.7.16,2.5.67,2.57.69l.37.5-.52.17Zm-2.42-1.36,2.42,1.32.49-.14-.34-.47s-2.3-.63-2.57-.71Z"/></g><path id="_Path_181" data-name="&lt;Path&gt;" class="cls-6" d="M104.48,67c.5.89,1.21,2.32,1.77,3.13-.9-.07-2.3,0-3.16,0a16.53,16.53,0,0,0,2.33-.57c-.19-.77-.67-1.8-.94-2.59Z"/><g id="_Group_133" data-name="&lt;Group&gt;"><path id="_Compound_Path_87" data-name="&lt;Compound Path&gt;" d="M103.1,70.13h0l.69-.15a9.49,9.49,0,0,0,1.62-.42,15.47,15.47,0,0,0-.62-1.74c-.11-.29-.23-.58-.32-.84l.48.81c.43.8.92,1.71,1.31,2.31h-.94c-.74,0-1.56,0-2.15.06h-.06ZM104.46,67a8.47,8.47,0,0,1,.36.84,14.75,14.75,0,0,1,.61,1.75,10,10,0,0,1-1.65.45l-.51.09c.86,0,2.15-.08,3,0a24.27,24.27,0,0,1-1.34-2.28l-.45-.82Z"/></g><path id="_Path_182" data-name="&lt;Path&gt;" class="cls-6" d="M106,69.37s-2.38-1.43-2.38-1.43l2.08,2h.55Z"/><g id="_Group_134" data-name="&lt;Group&gt;"><path id="_Compound_Path_88" data-name="&lt;Compound Path&gt;" d="M106.27,70h-.57l-2.09-2c.82.46,2.34,1.38,2.4,1.41l.26.59Zm-2.66-2,2.11,2h.5l-.23-.54h0s-1.51-.9-2.38-1.43Z"/></g><path id="_Path_183" data-name="&lt;Path&gt;" class="cls-6" d="M104.68,67.18c.58.83,1.42,2.16,2,2.91-.9.07-2.27.3-3.11.45a15.55,15.55,0,0,0,2.22-.87c-.24-.76-.83-1.74-1.16-2.49Z"/><g id="_Group_135" data-name="&lt;Group&gt;"><path id="_Compound_Path_89" data-name="&lt;Compound Path&gt;" d="M103.62,70.57v0h0l.63-.22a9,9,0,0,0,1.6-.66,14.18,14.18,0,0,0-.76-1.61c-.15-.31-.3-.59-.42-.85l.5.68c.52.76,1.11,1.65,1.57,2.22-.87.07-2.19.31-3,.45h0l0,0Zm1-3.38c.15.25.29.53.44.82a13.79,13.79,0,0,1,.76,1.65,8.39,8.39,0,0,1-1.61.67l-.44.17a26.32,26.32,0,0,1,2.92-.42,19.87,19.87,0,0,1-1.61-2.21l-.46-.68Z"/></g><path id="_Path_184" data-name="&lt;Path&gt;" class="cls-6" d="M106.18,69.59s-2.57-.07-2.57-.07l2.54.76.45-.28Z"/><g id="_Group_136" data-name="&lt;Group&gt;"><path id="_Path_185" data-name="&lt;Path&gt;" d="M106.16,70.3l-2.56-.76s2,0,2.5,0l0,0c-.59,0-2.52-.06-2.52-.06l2.54.73.45-.3-.11-.09.13.12-.46.3Z"/></g><path id="_Path_186" data-name="&lt;Path&gt;" class="cls-6" d="M107.68,57.09s1.86-.31,1.86-.31l-1.86,0-.32.17Z"/><g id="_Group_137" data-name="&lt;Group&gt;"><path id="_Compound_Path_90" data-name="&lt;Compound Path&gt;" d="M107.68,57.1l-.32-.09.32-.2,1.86-.05s-1.81.33-1.86.34Zm1.86-.34-1.86.07-.3.18.3.07,1.86-.32Z"/></g><path id="_Path_187" data-name="&lt;Path&gt;" class="cls-6" d="M108.69,57.48c-.53-.15-1.34-.42-1.89-.55.58-.23,1.45-.65,2-.9a14,14,0,0,0-1.33.84,10.84,10.84,0,0,0,1.23.61Z"/><g id="_Group_138" data-name="&lt;Group&gt;"><path id="_Path_188" data-name="&lt;Path&gt;" d="M108.69,57.5l-.5-.16c-.46-.14-1-.31-1.39-.4.58-.25,1.44-.68,2-.92h0c-.54.28-1.4.69-2,.92a12.58,12.58,0,0,1,1.41.38l.27.08-.21-.09a5.63,5.63,0,0,1-.82-.43,6.37,6.37,0,0,1,.94-.63l.37-.23-.36.26c-.33.2-.71.43-.93.6a6.92,6.92,0,0,0,.81.39l.43.2,0,0Z"/></g><path id="_Path_189" data-name="&lt;Path&gt;" class="cls-6" d="M107.59,57.15s1.8-.48,1.8-.48l-1.86.22-.27.2Z"/><g id="_Group_139" data-name="&lt;Group&gt;"><path id="_Compound_Path_91" data-name="&lt;Compound Path&gt;" d="M107.59,57.16l-.34-.06.28-.22,1.86-.23s-1.73.48-1.78.51Zm1.8-.51-1.86.27-.27.18.33,0,1.8-.48Z"/></g><path id="_Path_190" data-name="&lt;Path&gt;" class="cls-6" d="M108.79,57.61c-.63-.06-1.6-.18-2.22-.18.47-.41,1.12-1.11,1.52-1.54-.27.41-.7.94-.89,1.31a14.18,14.18,0,0,0,1.59.41Z"/><g id="_Group_140" data-name="&lt;Group&gt;"><path id="_Path_191" data-name="&lt;Path&gt;" d="M108.78,57.63l-.53-.05c-.57-.06-1.21-.13-1.68-.13.46-.44,1.09-1.12,1.51-1.56v0c-.39.46-1,1.12-1.48,1.54a12.53,12.53,0,0,1,1.66.09l.3,0-.32-.07a7.6,7.6,0,0,1-1-.28,4.87,4.87,0,0,1,.6-.94l.25-.35-.23.37a7.1,7.1,0,0,0-.6.92c.27.08.64.17,1,.25l.56.13v0Z"/></g><path id="_Path_192" data-name="&lt;Path&gt;" class="cls-6" d="M106.93,57.28l1.87-.2L107,57l-.34.15Z"/><g id="_Group_141" data-name="&lt;Group&gt;"><path id="_Path_193" data-name="&lt;Path&gt;" d="M106.93,57.3l-.29-.12L107,57l1.83,0s-1.82.24-1.87.26Z"/></g><path id="_Path_194" data-name="&lt;Path&gt;" class="cls-6" d="M108.32,57.69c-.59-.11-1.45-.3-2-.37.55-.28,1.36-.74,1.85-1a9.88,9.88,0,0,0-1.18.92c.35.17.94.32,1.36.47Z"/><g id="_Group_142" data-name="&lt;Group&gt;"><path id="_Path_195" data-name="&lt;Path&gt;" d="M108.31,57.7l-.52-.1c-.51-.1-1.08-.21-1.51-.26.55-.3,1.33-.76,1.82-1h0a19.06,19.06,0,0,1-1.8,1,11.34,11.34,0,0,1,1.51.23l.25,0-.2-.06a6.3,6.3,0,0,1-.91-.33,6,6,0,0,1,.82-.66l.32-.23-.31.25a6.74,6.74,0,0,0-.81.64c.23.09.58.21.9.3l.46.15v0Z"/></g><path id="_Path_196" data-name="&lt;Path&gt;" class="cls-6" d="M106.77,57.26s1.64-.71,1.64-.71L106.6,57l-.2.21Z"/><g id="_Group_143" data-name="&lt;Group&gt;"><path id="_Compound_Path_92" data-name="&lt;Compound Path&gt;" d="M106.77,57.27h-.37l.19-.24,1.81-.48s-1.57.7-1.62.73Zm1.63-.73-1.78.5-.21.22.36,0c.06,0,.31-.15,1.63-.7Z"/></g><path id="_Path_197" data-name="&lt;Path&gt;" class="cls-6" d="M108.26,57.9a14.55,14.55,0,0,0-1.67-.67c.35-.35.87-.93,1.2-1.3a8.38,8.38,0,0,0-.71,1.2,12.63,12.63,0,0,0,1.18.77Z"/><g id="_Group_144" data-name="&lt;Group&gt;"><path id="_Path_198" data-name="&lt;Path&gt;" d="M108.25,57.91l-.35-.15c-.44-.19-1-.4-1.31-.52.33-.36.83-.92,1.14-1.29h0a11,11,0,0,1-1.14,1.28,8.38,8.38,0,0,1,1.32.49l.16.06-.23-.13a5.31,5.31,0,0,1-.78-.53,4.53,4.53,0,0,1,.49-.87l.15-.26-.13.26c-.17.3-.37.61-.49.87.21.16.5.34.78.51l.4.24v0Z"/></g><path id="_Path_199" data-name="&lt;Path&gt;" class="cls-6" d="M106.86,57.39s1.29-.56,1.29-.56l-1.4.19-.16.24Z"/><g id="_Group_145" data-name="&lt;Group&gt;"><path id="_Compound_Path_93" data-name="&lt;Compound Path&gt;" d="M106.86,57.4l-.29-.12.17-.27,1.4-.2c-.48.25-1.24.57-1.27.59Zm1.28-.59-1.39.22-.16.24.27.09,1.28-.55Z"/></g><path id="_Path_200" data-name="&lt;Path&gt;" class="cls-6" d="M105.79,69.34s-2.65,0-2.65,0l2.69.65.44-.28Z"/><g id="_Group_146" data-name="&lt;Group&gt;"><path id="_Compound_Path_94" data-name="&lt;Compound Path&gt;" d="M105.83,70.05l-2.69-.66c.72,0,2.58,0,2.63-.06l.51.39-.45.33Zm-.06-.68s-.26,0-2.63,0l2.69.62.42-.29-.48-.35Z"/></g><path id="_Path_201" data-name="&lt;Path&gt;" class="cls-6" d="M106.27,69.52s-2.7-.63-2.7-.63l2.59,1.27.5-.16Z"/><g id="_Group_147" data-name="&lt;Group&gt;"><path id="_Compound_Path_95" data-name="&lt;Compound Path&gt;" d="M106.16,70.18h0l-2.58-1.27c.91.19,2.63.59,2.7.59l.4.5-.51.18Zm-2.59-1.27,2.59,1.24.5-.15-.41-.47h0c-.1,0-2.57-.59-2.68-.62Z"/></g><path id="_Path_202" data-name="&lt;Path&gt;" class="cls-6" d="M106.71,69.7,104,69.56l2.67.81.45-.26Z"/><g id="_Group_148" data-name="&lt;Group&gt;"><path id="_Compound_Path_96" data-name="&lt;Compound Path&gt;" d="M106.71,70.38l-2.68-.8s2.37.11,2.66.11l.48.4-.46.29ZM104,69.59l2.67.76.44-.26-.45-.38c-.41,0-2.66-.13-2.66-.13Z"/></g><path id="_Path_203" data-name="&lt;Path&gt;" class="cls-6" d="M105,67.81c.69.76,1.74,2,2.48,2.67-.9.13-2.26.49-3.1.71a14.71,14.71,0,0,0,2.14-1.06c-.35-.71-1.06-1.61-1.52-2.32Z"/><g id="_Group_149" data-name="&lt;Group&gt;"><path id="_Compound_Path_97" data-name="&lt;Compound Path&gt;" d="M104.4,71.21v0h0l.62-.29a7.83,7.83,0,0,0,1.51-.78,16,16,0,0,0-1-1.52c-.18-.27-.37-.53-.52-.77l.56.58a26.45,26.45,0,0,0,1.92,2.06c-.86.16-2.13.49-3,.72h0l-.07,0Zm.61-3.39.56.75a14.39,14.39,0,0,1,1,1.55,8.45,8.45,0,0,1-1.54.82l-.43.18c.84-.21,2.06-.53,2.91-.66a25.67,25.67,0,0,1-1.95-2l-.53-.61Z"/></g><path id="_Path_204" data-name="&lt;Path&gt;" class="cls-6" d="M107.08,69.83S104.4,69,104.4,69l2.52,1.49.53-.11Z"/><g id="_Group_150" data-name="&lt;Group&gt;"><path id="_Compound_Path_98" data-name="&lt;Compound Path&gt;" d="M106.91,70.47h0L104.4,69c.91.27,2.61.84,2.68.85l.38.51-.55.14ZM104.4,69l2.52,1.47.53-.11-.39-.48h0s-2.39-.78-2.66-.88Z"/></g><path id="_Path_205" data-name="&lt;Path&gt;" class="cls-6" d="M105.27,68c.75.7,1.89,1.81,2.68,2.39-.87.26-2.15.78-2.94,1.11a14.81,14.81,0,0,0,2-1.32c-.42-.69-1.22-1.52-1.72-2.18Z"/><g id="_Group_151" data-name="&lt;Group&gt;"><path id="_Compound_Path_99" data-name="&lt;Compound Path&gt;" d="M105,71.5v0h0l.56-.36a8.42,8.42,0,0,0,1.41-1,16.7,16.7,0,0,0-1.12-1.4c-.22-.26-.43-.51-.6-.73l.66.57a26.92,26.92,0,0,0,2,1.79c-.85.28-2.09.79-2.87,1.12h0l-.06,0Zm.25-3.5c.19.2.42.46.62.7.41.5.85,1,1.13,1.43a9.18,9.18,0,0,1-1.41,1l-.41.25c.79-.33,2-.81,2.74-1a22.61,22.61,0,0,1-2-1.77l-.64-.59Z"/></g><path id="_Path_206" data-name="&lt;Path&gt;" class="cls-6" d="M107.29,70s-2.52.5-2.52.5l2.66.18.38-.37Z"/><g id="_Group_152" data-name="&lt;Group&gt;"><path id="_Compound_Path_100" data-name="&lt;Compound Path&gt;" d="M107.45,70.69h0l-2.66-.17c.68-.16,2.45-.51,2.51-.52l.54.3-.37.39Zm-.16-.68s-.21.06-2.52.51l2.65.15.38-.37-.51-.29Z"/></g><path id="_Path_207" data-name="&lt;Path&gt;" class="cls-6" d="M106.77,69.85s-2.65.2-2.65.2l2.73.47.42-.33Z"/><g id="_Group_153" data-name="&lt;Group&gt;"><path id="_Compound_Path_101" data-name="&lt;Compound Path&gt;" d="M106.85,70.52l-2.73-.46c.72-.09,2.58-.21,2.64-.23l.52.35-.43.34Zm-.09-.67s-.26,0-2.64.21l2.73.44.41-.32-.5-.33Z"/></g><path id="_Path_208" data-name="&lt;Path&gt;" class="cls-6" d="M107.26,70s-2.74-.42-2.74-.42l2.68,1.08.49-.2Z"/><g id="_Group_154" data-name="&lt;Group&gt;"><path id="_Compound_Path_102" data-name="&lt;Compound Path&gt;" d="M107.2,70.64h0l-2.67-1.08s2.62.4,2.73.4l.45.46-.5.22Zm-2.68-1.08,2.68,1,.48-.19-.44-.42h0c-.13,0-2.62-.42-2.72-.44Z"/></g><path id="_Path_209" data-name="&lt;Path&gt;" class="cls-6" d="M107.72,70.12s-2.69.06-2.69.06l2.73.61.43-.28Z"/><g id="_Group_155" data-name="&lt;Group&gt;"><path id="_Compound_Path_103" data-name="&lt;Compound Path&gt;" d="M107.76,70.81,105,70.19c.73,0,2.62-.06,2.67-.08l.51.39-.45.31Zm-.06-.66-2.67,0,2.73.59.42-.28-.48-.35Z"/></g><path id="_Path_210" data-name="&lt;Path&gt;" class="cls-6" d="M105.87,68.37c.76.7,1.89,1.85,2.68,2.48-.89.19-2.21.65-3,.92a15.06,15.06,0,0,0,2.06-1.2,24.47,24.47,0,0,0-1.7-2.2Z"/><g id="_Group_156" data-name="&lt;Group&gt;"><path id="_Compound_Path_104" data-name="&lt;Compound Path&gt;" d="M105.53,71.79l0,0h0l.6-.32a10.65,10.65,0,0,0,1.45-.87,16.66,16.66,0,0,0-1.11-1.46c-.2-.25-.41-.5-.59-.74l.66.59c.67.66,1.45,1.4,2,1.87-.87.22-2.15.67-3,.93h0l0,0Zm.34-3.42c.2.21.4.47.61.73a11,11,0,0,1,1.1,1.47,7.83,7.83,0,0,1-1.45.88l-.44.25c.82-.28,2-.69,2.84-.87a23.07,23.07,0,0,1-2-1.85l-.63-.61Z"/></g><path id="_Path_211" data-name="&lt;Path&gt;" class="cls-6" d="M108.09,70.24s-2.73-.69-2.73-.69L108,70.87l.52-.15Z"/><g id="_Group_157" data-name="&lt;Group&gt;"><path id="_Compound_Path_105" data-name="&lt;Compound Path&gt;" d="M108,70.88l-2.61-1.32c.91.21,2.66.66,2.73.66l.42.49-.54.17Zm-2.61-1.32L108,70.85l.51-.16-.41-.44h0c-.1,0-2.62-.65-2.72-.69Z"/></g><path id="_Path_212" data-name="&lt;Path&gt;" class="cls-6" d="M106.14,68.52c.8.64,2,1.66,2.85,2.2-.83.31-2.07.93-2.84,1.3A17.05,17.05,0,0,0,108,70.57a27.46,27.46,0,0,0-1.88-2Z"/><g id="_Group_158" data-name="&lt;Group&gt;"><path id="_Compound_Path_106" data-name="&lt;Compound Path&gt;" d="M106.16,72v0l0,0-.06,0,.56-.42A8.46,8.46,0,0,0,108,70.54c-.33-.41-.81-.88-1.25-1.34-.24-.23-.45-.47-.66-.67l.73.54c.72.57,1.55,1.25,2.15,1.64-.78.32-1.93.89-2.71,1.27l-.12.06Zm0-3.51c.21.19.43.41.67.65A13.55,13.55,0,0,1,108,70.55a8.18,8.18,0,0,1-1.3,1.08l-.41.3c.76-.38,1.89-.94,2.66-1.22a26,26,0,0,1-2.15-1.61l-.7-.57Z"/></g><path id="_Path_213" data-name="&lt;Path&gt;" class="cls-6" d="M108.32,70.38s-2.49.67-2.49.67h2.68l.35-.39Z"/><g id="_Group_159" data-name="&lt;Group&gt;"><path id="_Compound_Path_107" data-name="&lt;Compound Path&gt;" d="M105.83,71.07v0c.66-.17,2.42-.64,2.48-.67l.56.28-.35.42Zm2.49-.67s-.25.08-2.37.64h2.56l.34-.38-.53-.25Z"/></g><polygon id="_Path_214" data-name="&lt;Path&gt;" class="cls-8" points="112.55 66.98 109.71 65 106.86 66.98 107.92 63.82 105.43 61.86 108.64 61.86 109.71 58.71 110.78 61.86 113.99 61.86 111.49 63.82 112.55 66.98"/><g id="_Group_160" data-name="&lt;Group&gt;"><path id="_Compound_Path_108" data-name="&lt;Compound Path&gt;" d="M112.59,67l-2.9-2-2.82,2,1-3.16-2.48-2,3.21,0,1-3.13,1.11,3.15,3.2,0-2.49,2L112.59,67Zm-2.91-8.31-1,3.15h-3.21l2.5,2L106.87,67l2.82-2,2.84,1.94-1.07-3.11,2.51-2-3.19,0-1.1-3.16Z"/></g><path id="_Path_215" data-name="&lt;Path&gt;" class="cls-9" d="M120.33,66.49l.92.34,1.53-.27-.12.31-.79.14a3.44,3.44,0,0,1-.45,0l.31.35.5.61-.12.3-1-1.23-.92-.34Z"/><path id="_Path_216" data-name="&lt;Path&gt;" class="cls-9" d="M122.91,63l0,.26-1.32.15a2,2,0,0,1-.55,0,.62.62,0,0,1-.37-.23.69.69,0,0,1-.18-.45,1.09,1.09,0,0,1,.06-.49.71.71,0,0,1,.28-.29,2.19,2.19,0,0,1,.58-.15l1.33-.14,0,.28-1.33.14a1.24,1.24,0,0,0-.44.1.41.41,0,0,0-.2.19.6.6,0,0,0,0,.31.58.58,0,0,0,.19.4,1,1,0,0,0,.6.06Z"/><path id="_Path_217" data-name="&lt;Path&gt;" class="cls-9" d="M121.07,60.29l.25-.06.17.84-.83.18a1.66,1.66,0,0,1-.35-.35,1,1,0,0,1-.17-.42,1,1,0,0,1,0-.56.87.87,0,0,1,.34-.44,1.33,1.33,0,0,1,.58-.25,1.38,1.38,0,0,1,.64,0,1,1,0,0,1,.5.25,1.35,1.35,0,0,1,.25.51,1.48,1.48,0,0,1,0,.42.68.68,0,0,1-.18.32A.92.92,0,0,1,122,61l-.11-.23a.79.79,0,0,0,.25-.17.71.71,0,0,0,.12-.23.87.87,0,0,0,0-.28,1,1,0,0,0-.13-.31.48.48,0,0,0-.21-.17,1,1,0,0,0-.24-.09,1.83,1.83,0,0,0-.47,0,1.45,1.45,0,0,0-.5.19.67.67,0,0,0-.24.34.86.86,0,0,0,0,.39.78.78,0,0,0,.15.32.74.74,0,0,0,.21.22l.42-.09Z"/><polygon id="_Path_218" data-name="&lt;Path&gt;" class="cls-9" points="111.37 52.98 111.77 50.7 112.04 50.75 111.69 52.77 112.68 52.94 112.63 53.2 111.37 52.98"/><polygon id="_Path_219" data-name="&lt;Path&gt;" class="cls-9" points="109.11 52.82 109.11 50.51 110.59 50.51 110.59 50.79 109.39 50.79 109.39 51.49 110.53 51.49 110.53 51.77 109.39 51.77 109.39 52.56 110.65 52.56 110.65 52.82 109.11 52.82"/><path id="_Path_220" data-name="&lt;Path&gt;" class="cls-9" d="M102.72,54.28l.25-.11a.94.94,0,0,1,.14.63.76.76,0,0,1-.27.5.89.89,0,0,1-.51.23.87.87,0,0,1-.53-.13,1.83,1.83,0,0,1-.49-.39,1.44,1.44,0,0,1-.31-.56.83.83,0,0,1,0-.54.92.92,0,0,1,.28-.43.79.79,0,0,1,.52-.2,1,1,0,0,1,.53.19l-.16.22a.77.77,0,0,0-.39-.15.52.52,0,0,0-.34.15.57.57,0,0,0-.21.35.84.84,0,0,0,0,.41,2.35,2.35,0,0,0,.24.37,2.14,2.14,0,0,0,.4.35.61.61,0,0,0,.39.09.58.58,0,0,0,.33-.14.53.53,0,0,0,.2-.36.75.75,0,0,0-.12-.48Z"/><polygon id="_Path_221" data-name="&lt;Path&gt;" class="cls-9" points="101.75 56.31 100.03 54.78 100.22 54.57 101.93 56.1 101.75 56.31"/><polygon id="_Path_222" data-name="&lt;Path&gt;" class="cls-9" points="100.64 57.63 98.81 56.22 98.97 56 100.59 57.24 101.21 56.44 101.41 56.61 100.64 57.63"/><path id="_Path_223" data-name="&lt;Path&gt;" class="cls-9" d="M97.2,59l.1-.25,1.23.5a1.43,1.43,0,0,1,.5.27.57.57,0,0,1,.22.36.88.88,0,0,1-.06.49.9.9,0,0,1-.27.39.63.63,0,0,1-.39.13,2,2,0,0,1-.59-.14l-1.23-.5.1-.25,1.24.49a2.7,2.7,0,0,0,.43.12.42.42,0,0,0,.27-.07.45.45,0,0,0,.17-.25.47.47,0,0,0,0-.46.89.89,0,0,0-.5-.33Z"/><polygon id="_Path_224" data-name="&lt;Path&gt;" class="cls-9" points="98.55 64.58 96.24 64.59 96.23 63.12 96.5 63.12 96.51 64.33 97.21 64.32 97.21 63.19 97.48 63.19 97.49 64.31 98.28 64.31 98.27 63.06 98.53 63.05 98.55 64.58"/><path id="_Compound_Path_109" data-name="&lt;Compound Path&gt;" class="cls-9" d="M107.17,53.16l-.44-2.27.69-.14a1,1,0,0,1,.37,0,.53.53,0,0,1,.32.1.86.86,0,0,1,.31.34,1.76,1.76,0,0,1,.19.52,1.87,1.87,0,0,1,0,.46.88.88,0,0,1-.07.36.55.55,0,0,1-.13.24,1.2,1.2,0,0,1-.21.17,1.34,1.34,0,0,1-.32.1Zm.22-.32.43-.09a.8.8,0,0,0,.3-.1.38.38,0,0,0,.15-.16.53.53,0,0,0,.1-.32,1.77,1.77,0,0,0,0-.44,1.21,1.21,0,0,0-.22-.52.52.52,0,0,0-.3-.21.88.88,0,0,0-.35,0l-.43.09Z"/><path id="_Compound_Path_110" data-name="&lt;Compound Path&gt;" class="cls-9" d="M114.66,54.08l1.07-2,.67.36a.9.9,0,0,1,.27.17.46.46,0,0,1,.18.21.53.53,0,0,1,0,.26,1,1,0,0,1-.09.32.72.72,0,0,1-.39.36.71.71,0,0,1-.62-.1l-.46-.24-.43.83Zm.79-.94.47.24a.51.51,0,0,0,.38.07.44.44,0,0,0,.25-.22.47.47,0,0,0,0-.25.25.25,0,0,0-.09-.2.92.92,0,0,0-.21-.14l-.48-.24Z"/><path id="_Compound_Path_111" data-name="&lt;Compound Path&gt;" class="cls-9" d="M115.82,54.68,118,53.49l.23.2L117.26,56l-.23-.2.29-.68-.64-.57-.64.37Zm1.09-.31.52.46.25-.61c.1-.2.16-.34.21-.45-.11.09-.23.17-.35.25Z"/><path id="_Compound_Path_112" data-name="&lt;Compound Path&gt;" class="cls-9" d="M117.48,56.25l1.83-1.42.55.72a1.11,1.11,0,0,1,.21.37.5.5,0,0,1,0,.33.74.74,0,0,1-.21.27.62.62,0,0,1-.43.14.67.67,0,0,1-.42-.22,1.56,1.56,0,0,1,0,.2,2.61,2.61,0,0,1-.12.37l-.28.66-.21-.26.23-.52c.05-.14.09-.27.12-.34a.36.36,0,0,0,0-.21.25.25,0,0,0,0-.14l-.08-.13-.19-.24-.82.62Zm1.19-.58.35.46a1.34,1.34,0,0,0,.21.21.41.41,0,0,0,.22,0,.41.41,0,0,0,.19-.08.39.39,0,0,0,.15-.27.55.55,0,0,0-.11-.32l-.41-.5Z"/><path id="_Compound_Path_113" data-name="&lt;Compound Path&gt;" class="cls-9" d="M118.72,57.82l2.4-.43.14.25-1.6,1.84-.16-.25.51-.56-.42-.75-.73.15Zm1.12,0,.33.62.46-.51.34-.37a3.09,3.09,0,0,1-.43.14Z"/><path id="_Compound_Path_114" data-name="&lt;Compound Path&gt;" class="cls-9" d="M120.75,63.81l2.21,1,0,.29-2.39.6,0-.31.72-.16.08-.85-.66-.3Zm.89.68-.07.69.65-.15.49-.09a2.41,2.41,0,0,1-.42-.16Z"/><path id="_Compound_Path_115" data-name="&lt;Compound Path&gt;" class="cls-9" d="M98.92,66.7l-2.26.5-.2-.89a1,1,0,0,1,0-.41.38.38,0,0,1,.17-.27.66.66,0,0,1,.32-.17.68.68,0,0,1,.44.05.79.79,0,0,1,.3.39.38.38,0,0,1,.07-.19,1.61,1.61,0,0,1,.25-.29l.54-.48.06.33-.4.37a3.59,3.59,0,0,0-.27.26.59.59,0,0,0-.13.17.68.68,0,0,0,0,.14.42.42,0,0,0,0,.14l.07.32,1-.23Zm-1.32,0-.13-.57a1.11,1.11,0,0,0-.1-.28.37.37,0,0,0-.17-.13H97a.28.28,0,0,0-.24.16.49.49,0,0,0,0,.35l.14.63Z"/><path id="_Compound_Path_116" data-name="&lt;Compound Path&gt;" class="cls-9" d="M98.63,62.53l-2.31-.19.07-.78a1.92,1.92,0,0,1,.06-.3.43.43,0,0,1,.13-.24.51.51,0,0,1,.23-.15.91.91,0,0,1,.32,0,.89.89,0,0,1,.48.21.72.72,0,0,1,.16.62l0,.53.94.07Zm-1.18-.37,0-.53a.5.5,0,0,0-.08-.38.45.45,0,0,0-.31-.14.4.4,0,0,0-.24,0,.24.24,0,0,0-.15.16.81.81,0,0,0,0,.24l-.06.53Z"/><path id="_Compound_Path_117" data-name="&lt;Compound Path&gt;" class="cls-9" d="M99.6,59.12l-1.92-1.28.43-.65a.64.64,0,0,1,.26-.26.47.47,0,0,1,.31-.08A.73.73,0,0,1,99,57a.58.58,0,0,1,.2.21.5.5,0,0,1,0,.3.53.53,0,0,1,.34-.13.81.81,0,0,1,.35.12.63.63,0,0,1,.21.22.64.64,0,0,1,.1.23.48.48,0,0,1,0,.26.73.73,0,0,1-.15.29Zm-1-1,.25-.37a2.21,2.21,0,0,0,.13-.23.55.55,0,0,0,0-.19.31.31,0,0,0-.14-.16.32.32,0,0,0-.19-.07.17.17,0,0,0-.18,0,1.3,1.3,0,0,0-.2.25l-.22.33Zm.9.59.28-.42a1.53,1.53,0,0,1,.1-.17.45.45,0,0,0,0-.16.2.2,0,0,0-.06-.15.31.31,0,0,0-.13-.15.46.46,0,0,0-.22-.08.4.4,0,0,0-.21.07.79.79,0,0,0-.19.23l-.26.39Z"/><path id="_Compound_Path_118" data-name="&lt;Compound Path&gt;" class="cls-9" d="M103.41,54.68l-.56-2.37.25-.16L105,53.66l-.26.18-.57-.47-.73.44.18.72Zm0-1.12.57-.36-.51-.43c-.17-.13-.28-.24-.37-.32a1.47,1.47,0,0,1,.13.42Z"/></g></g></g></g></g></g></svg>