<svg id="Layer_1" data-name="Layer 1" xmlns="http://www.w3.org/2000/svg" xmlns:xlink="http://www.w3.org/1999/xlink" viewBox="0 0 220 128"><defs><style>.cls-1{fill:#fff;}.cls-2{fill:none;}.cls-3{clip-path:url(#clip-path);}.cls-4{clip-path:url(#clip-path-2);}.cls-5{fill:red;}</style><clipPath id="clip-path"><rect id="_Clipping_Path_" data-name="&lt;Clipping Path&gt;" class="cls-1" width="219.43" height="128"/></clipPath><clipPath id="clip-path-2"><rect id="_Clipping_Path_2" data-name="&lt;Clipping Path&gt;" class="cls-2" width="219.43" height="128"/></clipPath></defs><title>Flag_rect_Georgia</title><g id="GEORGIA"><g id="_Group_" data-name="&lt;Group&gt;"><g id="_Clip_Group_" data-name="&lt;Clip Group&gt;"><rect id="_Clipping_Path_3" data-name="&lt;Clipping Path&gt;" class="cls-1" width="219.43" height="128"/><g class="cls-3"><g id="_Clip_Group_2" data-name="&lt;Clip Group&gt;"><g class="cls-4"><path id="_Path_" data-name="&lt;Path&gt;" class="cls-5" d="M52.05,28.87a69.2,69.2,0,0,1-.7,7c-.13.74-.27,1.47-.39,2.2a34.09,34.09,0,0,1,8.72,0c-.14-.73-.25-1.46-.38-2.2a63.82,63.82,0,0,1-.68-7A63.31,63.31,0,0,1,67.74,30a38.32,38.32,0,0,1,0-8.74,64.75,64.75,0,0,1-9.12,1.09,61.75,61.75,0,0,1,1.06-9.16,34.56,34.56,0,0,1-4.35.27A34.65,34.65,0,0,1,51,13.15a72.74,72.74,0,0,1,1.09,9.16,65.64,65.64,0,0,1-9.17-1.09,34.24,34.24,0,0,1,0,8.74,64.17,64.17,0,0,1,9.17-1.09"/><path id="_Path_2" data-name="&lt;Path&gt;" class="cls-5" d="M160.84,28.87a66.4,66.4,0,0,1-.71,7c-.09.74-.23,1.47-.37,2.2a34.55,34.55,0,0,1,4.35-.28,35.12,35.12,0,0,1,4.37.28c-.14-.73-.24-1.46-.36-2.2a59.23,59.23,0,0,1-.71-7A64.41,64.41,0,0,1,176.56,30a33.07,33.07,0,0,1,0-8.74,65.89,65.89,0,0,1-9.15,1.09,70.93,70.93,0,0,1,1.07-9.16,35.12,35.12,0,0,1-4.37.27,34.56,34.56,0,0,1-4.35-.27,66,66,0,0,1,1.08,9.16,65.71,65.71,0,0,1-9.15-1.09,36.85,36.85,0,0,1,0,8.74,64.24,64.24,0,0,1,9.15-1.09"/><path id="_Path_3" data-name="&lt;Path&gt;" class="cls-5" d="M58.62,99.12a63.1,63.1,0,0,1,.68-7c.13-.73.24-1.47.38-2.2A34.09,34.09,0,0,1,51,90c.12.73.26,1.47.39,2.2a68.33,68.33,0,0,1,.7,7A70.47,70.47,0,0,1,42.88,98a34.09,34.09,0,0,1,0,8.72,65.63,65.63,0,0,1,9.17-1.07A72.42,72.42,0,0,1,51,114.82a35.34,35.34,0,0,1,8.72,0,61.48,61.48,0,0,1-1.06-9.14,64.75,64.75,0,0,1,9.12,1.07,38.14,38.14,0,0,1,0-8.72,69.5,69.5,0,0,1-9.12,1.09"/><path id="_Path_4" data-name="&lt;Path&gt;" class="cls-5" d="M167.41,99.12a63.07,63.07,0,0,1,.71-7c.12-.73.22-1.47.36-2.2a35.12,35.12,0,0,1-4.37.28,34.55,34.55,0,0,1-4.35-.28c.14.73.28,1.47.37,2.2a65.59,65.59,0,0,1,.71,7A70.57,70.57,0,0,1,151.69,98a36.69,36.69,0,0,1,0,8.72,65.7,65.7,0,0,1,9.15-1.07,65.74,65.74,0,0,1-1.08,9.14,34.56,34.56,0,0,1,4.35-.27,35.12,35.12,0,0,1,4.37.27,70.62,70.62,0,0,1-1.07-9.14,65.88,65.88,0,0,1,9.15,1.07,32.92,32.92,0,0,1,0-8.72,70.78,70.78,0,0,1-9.15,1.09"/><polygon class="cls-5" points="219.43 51.08 122.61 51.08 122.61 0 96.83 0 96.83 51.08 0 51.08 0 76.9 96.83 76.9 96.83 128 122.61 128 122.61 76.9 219.43 76.9 219.43 51.08"/></g></g></g></g></g></g></svg>