<svg id="Layer_1" data-name="Layer 1" xmlns="http://www.w3.org/2000/svg" viewBox="0 0 220 128"><defs><style>.cls-1{fill:#de2910;}.cls-2{fill:#fff;}</style></defs><title>Flag_rect_Hong Kong</title><rect class="cls-1" width="220" height="128"/><g id="petal"><path class="cls-2" d="M110,64c-22.45-9.49-12.5-38.74,9-37.27-4.35,2.24-5,6.4-2.5,10.26,2.78,4.32-.25,11.28-4,13-6.17,2.78-7.41,10.18-2.47,14Z"/><path class="cls-1" d="M108.78,42.86l-1.26,2-.46-2.31L104.78,42l2-1.15-.14-2.35,1.72,1.6,2.19-.86-1,2.13,1.49,1.82Z"/><path class="cls-1" d="M110.12,63.74A12.34,12.34,0,0,1,104.26,56,14.81,14.81,0,0,1,106,44.22l-.47-.3a15.36,15.36,0,0,0-1.79,12.19,12.76,12.76,0,0,0,6.15,8.12Z"/></g><g id="petal-2" data-name="petal"><path class="cls-2" d="M110,64c2.08-24.29,33-23.86,38.21-3-3.46-3.45-7.62-2.76-10.53.8-3.25,4-10.8,3.24-13.56.19-4.55-5-12-3.9-14.12,2Z"/><path class="cls-1" d="M129.72,56.31l-2.27-.59,2-1.15-.14-2.35,1.73,1.6,2.18-.86-1,2.13,1.49,1.82-2.33-.28-1.27,2Z"/><path class="cls-1" d="M110.29,64a12.36,12.36,0,0,1,5.58-8,14.75,14.75,0,0,1,11.7-2l.14-.54a15.38,15.38,0,0,0-12.15,2.06,12.76,12.76,0,0,0-5.82,8.35Z"/></g><g id="petal-3" data-name="petal"><path class="cls-2" d="M110,64c23.74-5.52,32.88,24,14.64,35.43,2.2-4.36.26-8.11-4-9.77-4.79-1.86-6.42-9.27-4.38-12.85,3.36-5.87,0-12.59-6.25-12.81Z"/><path class="cls-1" d="M123.41,80.38,123.27,78,125,79.63l2.18-.86-1,2.14,1.49,1.81-2.33-.28-1.26,2-.46-2.31-2.28-.59Z"/><path class="cls-1" d="M110.06,64.28a12.39,12.39,0,0,1,9.31,2.85,14.76,14.76,0,0,1,5.5,10.51l.56,0a15.38,15.38,0,0,0-5.71-10.91,12.76,12.76,0,0,0-9.75-3Z"/></g><g id="petal-4" data-name="petal"><path class="cls-2" d="M110,64c12.58,20.88-12.66,38.69-29.17,24.87,4.83.75,7.79-2.25,8-6.83.29-5.13,6.83-9,10.86-8.13,6.63,1.38,12-3.89,10.26-9.91Z"/><path class="cls-1" d="M98.56,81.82l2.19-.86-1,2.13,1.49,1.82-2.33-.28-1.27,2-.45-2.3-2.28-.59,2-1.15-.14-2.35Z"/><path class="cls-1" d="M109.75,64.14a12.36,12.36,0,0,1,.17,9.74,14.75,14.75,0,0,1-8.3,8.48l.21.52a15.33,15.33,0,0,0,8.61-8.81,12.75,12.75,0,0,0-.2-10.18Z"/></g><g id="petal-5" data-name="petal"><path class="cls-2" d="M110,64c-16,18.43-40.7-.08-32.67-20,.78,4.82,4.55,6.71,9,5.54,5-1.31,10.64,3.73,11.09,7.82C98.12,64,104.78,67.51,110,64Z"/><path class="cls-1" d="M89.52,58.63,91,60.44l-2.34-.27-1.26,2L87,59.84l-2.28-.59,2-1.14-.14-2.35,1.73,1.6,2.18-.86Z"/><path class="cls-1" d="M109.79,63.8A12.37,12.37,0,0,1,100.58,67,14.82,14.82,0,0,1,90,61.71l-.43.35a15.32,15.32,0,0,0,11,5.47,12.75,12.75,0,0,0,9.62-3.33Z"/></g></svg>