<svg id="Layer_1" data-name="Layer 1" xmlns="http://www.w3.org/2000/svg" xmlns:xlink="http://www.w3.org/1999/xlink" viewBox="0 0 220 128"><defs><style>.cls-1{fill:none;}.cls-2{fill:#00247d;}.cls-3{fill:#fff;}.cls-4{clip-path:url(#clip-path);}.cls-5{fill:#cf142b;}.cls-6{fill:#cc3;}.cls-7{fill:#9cf;}.cls-8{fill:#f90;}</style><clipPath id="clip-path"><path class="cls-1" d="M0,5V31.94H139V63.87H117.75ZM117.75,0H53.87V74.52H0V58.87Z"/></clipPath></defs><title>Flag_rect_Anguilla</title><rect class="cls-2" width="220" height="127.75"/><polygon class="cls-3" points="114.89 69.59 53.88 39.08 0.21 65.91 0 51.73 39.59 31.94 0 12.14 0 0 4.28 0 53.88 24.8 103.47 0 117.75 0 117.75 7.14 68.16 31.94 120.61 58.16 114.89 69.59"/><g class="cls-4"><path d="M-10,0,117.75,63.87m0-63.87L-10,63.87"/><polygon class="cls-5" points="115.85 67.68 53.88 36.7 0 63.88 0 54.11 44.35 31.94 -11.9 3.81 -8.1 -3.81 53.88 27.18 115.85 -3.81 119.65 3.81 63.4 31.94 119.65 60.07 115.85 67.68"/></g><polygon class="cls-3" points="64.52 74.52 43.23 74.52 43.23 42.58 0 42.58 0 21.29 43.23 21.29 43.23 0 64.52 0 64.52 21.29 139.04 21.29 139.04 42.58 64.52 42.58 64.52 74.52"/><polygon class="cls-5" points="60.26 74.52 47.49 74.52 47.49 38.33 0 38.33 0 25.55 47.49 25.55 47.49 0 60.26 0 60.26 25.55 139.04 25.55 139.04 38.33 60.26 38.33 60.26 74.52"/><path class="cls-2" d="M0,63.87H117.75V0h42.58V85.17H0Z"/><path class="cls-6" d="M146.2,32.8c0,31.69,2.53,42.94,11.2,51.63s12,10,14.38,11.38c2.79-1.53,6-3.22,13.86-11.08s11.54-19,11.54-52.47c-5.66,2.42-8.48,3.21-13.42,3.2-3.66.36-9.31-2-12.69-3.52a20.54,20.54,0,0,1-11.17,3.27c-6.65.28-8.76-.8-13.7-2.41Z"/><path class="cls-3" d="M147.73,34.8c0,9.8-.58,23.16,1.49,30.89s2.56,8.9,4.12,11.61L189.8,77c2.25-3.9,2.36-6.31,4-12.55s2.09-20.05,2.13-30.36a23.51,23.51,0,0,1-13.12,2.6,26.4,26.4,0,0,1-11.21-3.25c-3.48,2-4.7,2.9-10.45,3.13-4.49.21-8.12.56-13.45-1.8Z"/><path class="cls-7" d="M153.42,77.09c2.6,5.2,14.83,15.18,18.41,17.24C175.91,92,186.7,82.12,189.7,77.09Z"/><path class="cls-8" d="M172.52,49.31c1.16,2.59,4.85,5.44,5.87,6.84-1.3,1.4-1.55,1.25-1.38,3.85,2.24-2.25,2.28-2.48,3.73-2.14,3.17,3,.57,9.49-2.05,10.89s-2.14,0-6.07,1.83c1.8,1.47,3.89-.21,5.59.24.93,1-.44,3,.28,4.75,1.5-.14,1.32-3,1.67-4.09,1.1-3.85,7.71-6.53,8.05-10.06,1.39-.62,2.79-.2,4.48.71-.84-3.31-3.63-3.27-4.38-4.3-1.78-2.6-3.36-5.56-7.17-6.33-2.89-.58-2.67.18-4.52-1-1.15-.85-4.66-2.47-4.1-1.16Z"/><path class="cls-8" d="M163.29,60.28c1.86-2.18,2.78-6.63,3.6-8.14,1.9.44,1.88.73,4.21-.63-3.13-.85-3.37-.77-3.73-2.15,1.32-4.08,8.54-4.91,11.07-3.36s.95,1.83,4.53,4.26c.52-2.2-2-3.18-2.4-4.82.54-1.27,3-1,4.28-2.46-.83-1.2-3.43.31-4.57.5-4.08.87-9.66-3.45-13.09-2.08-1.23-.88-1.49-2.26-1.44-4.11-2.67,2.25-1.33,4.59-1.94,5.71-1.58,2.71-3.58,5.42-2.52,9,.81,2.71,1.41,2.17,1.16,4.29-.25,1.38-.12,5.08.84,4Z"/><path class="cls-8" d="M178.39,61.81c-2.92-.39-7.39,1.16-9.17,1.27-.59-1.78-.32-1.91-2.75-3.11.86,3,1.05,3.15,0,4.15-4.34,1-8.82-4.42-8.74-7.28s1.15-1.73,1.48-5.9c-2.24.71-1.8,3.28-3.09,4.44-1.41.22-2.43-1.88-4.41-2.22-.65,1.3,2,2.65,2.81,3.48,2.89,2.88,1.9,9.66,4.9,11.75-.15,1.46-1.26,2.38-2.95,3.3,3.41,1,4.82-1.29,6.13-1.37,3.25-.12,6.73.12,9.38-2.59,2-2.07,1.22-2.28,3.25-3.17,1.37-.5,4.63-2.53,3.16-2.75Z"/><ellipse class="cls-3" cx="180.23" cy="52.25" rx="0.6" ry="0.57"/><ellipse class="cls-3" cx="162.41" cy="52.41" rx="0.6" ry="0.57"/><ellipse class="cls-3" cx="171.78" cy="66.59" rx="0.6" ry="0.57"/></svg>