<svg id="Layer_1" data-name="Layer 1" xmlns="http://www.w3.org/2000/svg" xmlns:xlink="http://www.w3.org/1999/xlink" viewBox="0 0 220 128"><defs><style>.cls-1{fill:none;}.cls-2{clip-path:url(#clip-path);}.cls-3{fill:#fff;}.cls-4{fill:#2a680b;}.cls-5{fill:#aa0017;}</style><clipPath id="clip-path"><rect id="_Clipping_Path_" data-name="&lt;Clipping Path&gt;" class="cls-1" width="220" height="128"/></clipPath></defs><title>Flag_rect_Kenya</title><g id="KENYA"><g id="_Group_" data-name="&lt;Group&gt;"><g id="_Clip_Group_" data-name="&lt;Clip Group&gt;"><g class="cls-2"><rect id="_Path_" data-name="&lt;Path&gt;" class="cls-3" width="220" height="128"/><rect id="_Path_2" data-name="&lt;Path&gt;" width="220" height="38.4"/><rect id="_Path_3" data-name="&lt;Path&gt;" class="cls-4" y="89.6" width="220" height="38.4"/><g id="_Clip_Group_2" data-name="&lt;Clip Group&gt;"><g class="cls-2"><path id="_Path_4" data-name="&lt;Path&gt;" d="M85.91,102l1.39.79,37.32-64.7c2.19-.59,3.38-2.68,4.58-4.75a46.64,46.64,0,0,0,5.39-14.12A47,47,0,0,0,125,31c-1.19,2.07-2.39,4.16-1.79,6.33Z"/><g id="_Group_2" data-name="&lt;Group&gt;"><path id="_Compound_Path_" data-name="&lt;Compound Path&gt;" d="M87.32,103l-1.48-.87,37.31-64.85c-.61-2.12.61-4.29,1.8-6.31a46.45,46.45,0,0,1,9.56-11.77A40.59,40.59,0,0,1,129.3,33.4c-1.2,2.07-2.42,4.19-4.66,4.77L87.32,103ZM134.47,19.2A52.05,52.05,0,0,0,125.14,31c-1.17,2-2.37,4.13-1.79,6.25L86,102.08l1.25.59,37.28-64.62c2.21-.64,3.42-2.74,4.58-4.75a45.86,45.86,0,0,0,5.36-14.1Z"/></g><path id="_Path_5" data-name="&lt;Path&gt;" class="cls-3" d="M85.91,102l1.39.79,37.32-64.7c2.19-.59,3.38-2.68,4.58-4.75a46.64,46.64,0,0,0,5.39-14.12A47,47,0,0,0,125,31c-1.19,2.07-2.39,4.16-1.79,6.33Z"/><path id="_Path_6" data-name="&lt;Path&gt;" d="M131.59,102l-1.41.79L92.88,38.1c-2.2-.59-3.38-2.68-4.57-4.75a45.74,45.74,0,0,1-5.4-14.12A47,47,0,0,1,92.46,31c1.17,2.07,2.37,4.16,1.78,6.33Z"/><g id="_Group_3" data-name="&lt;Group&gt;"><path id="_Compound_Path_2" data-name="&lt;Compound Path&gt;" d="M130.14,103l0-.1L92.76,38.17c-2.14-.58-3.37-2.7-4.55-4.75a46,46,0,0,1-5.4-14.17,40.83,40.83,0,0,1,9.74,11.67c1.18,2,2.4,4.16,1.81,6.38L131.68,102l-1.54,1ZM82.84,19.33a54.61,54.61,0,0,0,5.53,14c1.19,2,2.4,4.11,4.53,4.69l37.33,64.68,1.29-.77L94.16,37.36c.57-2.23-.64-4.34-1.8-6.36a45.59,45.59,0,0,0-9.52-11.67Z"/></g><path id="_Path_7" data-name="&lt;Path&gt;" class="cls-3" d="M131.59,102l-1.41.79L92.88,38.1c-2.2-.59-3.38-2.68-4.57-4.75a45.74,45.74,0,0,1-5.4-14.12A47,47,0,0,1,92.46,31c1.17,2.07,2.37,4.16,1.78,6.33Z"/><path id="_Path_8" data-name="&lt;Path&gt;" class="cls-5" d="M0,44.81v38.4H93.57C96,89.6,104,102.42,108.75,102.42s12.79-12.82,15.16-19.21H220V44.81H123.91c-2.37-6.41-10.36-19.2-15.16-19.2S96,38.4,93.57,44.81Z"/><path id="_Path_9" data-name="&lt;Path&gt;" d="M123.91,83.21a54.31,54.31,0,0,0,4-19.22,54.19,54.19,0,0,0-4-19.18c-2.37,6.38-4,12.79-4,19.18s1.61,12.82,4,19.22Z"/><path id="_Path_10" data-name="&lt;Path&gt;" d="M93.57,83.21c-2.4-6.4-4-12.79-4-19.22a54.84,54.84,0,0,1,4-19.18,54.82,54.82,0,0,1,4,19.18,54.94,54.94,0,0,1-4,19.22Z"/><path id="_Path_11" data-name="&lt;Path&gt;" class="cls-3" d="M108.75,59.21c1.76,0,3.2,2.15,3.2,4.78s-1.44,4.82-3.2,4.82-3.19-2.14-3.19-4.82,1.41-4.78,3.19-4.78Z"/><path id="_Path_12" data-name="&lt;Path&gt;" class="cls-3" d="M109.55,68.69s3.18,6.38,3.18,16.77-3.18,16.83-3.18,16.83Z"/><path id="_Path_13" data-name="&lt;Path&gt;" class="cls-3" d="M107.94,59.34s-3.19-6.41-3.19-16.83,3.19-16.77,3.19-16.77Z"/><path id="_Path_14" data-name="&lt;Path&gt;" class="cls-3" d="M107.94,68.69s-3.19,6.38-3.19,16.77,3.19,16.83,3.19,16.83Z"/><path id="_Path_15" data-name="&lt;Path&gt;" class="cls-3" d="M109.55,59.34s3.18-6.41,3.18-16.83-3.18-16.77-3.18-16.77Z"/></g></g></g></g></g></g></svg>