<svg id="Layer_1" data-name="Layer 1" xmlns="http://www.w3.org/2000/svg" xmlns:xlink="http://www.w3.org/1999/xlink" viewBox="0 0 220 128"><defs><style>.cls-1{fill:none;}.cls-2{clip-path:url(#clip-path);}.cls-3{fill:#bc1f33;}.cls-4{fill:#f0d530;}</style><clipPath id="clip-path"><rect id="_Clipping_Path_" data-name="&lt;Clipping Path&gt;" class="cls-1" width="220" height="128"/></clipPath></defs><title>Flag_rect_Angola</title><g id="ANGOLA"><g id="_Group_" data-name="&lt;Group&gt;"><g id="_Clip_Group_" data-name="&lt;Clip Group&gt;"><g class="cls-2"><rect id="_Path_" data-name="&lt;Path&gt;" class="cls-3" width="220" height="128"/><rect id="_Path_2" data-name="&lt;Path&gt;" y="63.97" width="220" height="64.03"/><polygon id="_Path_3" data-name="&lt;Path&gt;" class="cls-4" points="99.94 61.8 106.7 56.88 113.47 61.8 110.89 53.86 117.66 48.91 109.29 48.91 106.7 40.96 104.11 48.91 95.74 48.91 102.53 53.86 99.94 61.8"/><g id="_Clip_Group_2" data-name="&lt;Clip Group&gt;"><g class="cls-2"><path id="_Compound_Path_" data-name="&lt;Compound Path&gt;" class="cls-4" d="M142.79,101.08A17.77,17.77,0,0,0,139,96.87c-1.61-1.41-3.82-3-5.44-4.57l-3.11,3.62c-.15.18-.09.54.06.57a10,10,0,0,1,6,3c1.88,1.87,2.64,4.17,3.87,5,2.26,1.58,3.89-1.07,2.44-3.45m-8.2-5.79a.45.45,0,0,1-.42-.44.44.44,0,0,1,.87,0,.45.45,0,0,1-.45.44M137.77,98a.42.42,0,0,1-.42-.46.41.41,0,0,1,.42-.41.42.42,0,0,1,.43.41.43.43,0,0,1-.43.46m2.79,2.81a.41.41,0,0,1-.43-.41.4.4,0,0,1,.43-.43.39.39,0,0,1,.41.43.41.41,0,0,1-.41.41"/><path id="_Path_4" data-name="&lt;Path&gt;" class="cls-4" d="M114.82,87.62A25,25,0,0,1,106.7,89,24.64,24.64,0,0,1,91,83.21L87.3,87.65a32.08,32.08,0,0,0,5,3.37L91,93.34a32.13,32.13,0,0,0,6,2.51l.76-2.48a29.54,29.54,0,0,0,5.9,1.2l-.25,2.55a33.92,33.92,0,0,0,6.53,0l-.27-2.55a29.87,29.87,0,0,0,5.91-1.15l.76,2.43c1-.31,2-.67,3-1.08l-1.35-5.23Z"/><path id="_Path_5" data-name="&lt;Path&gt;" class="cls-4" d="M131.66,64a24.94,24.94,0,0,1-8.83,19l7,4.88a35.6,35.6,0,0,0,2.59-2.81l-2-1.63a29,29,0,0,0,3.35-5L136,79.71a33.27,33.27,0,0,0,2.51-6l-2.44-.77a29.92,29.92,0,0,0,1.16-5.9l2.55.23a33.71,33.71,0,0,0,0-6.51l-2.55.26a31.14,31.14,0,0,0-1.17-5.9l2.45-.74A32.67,32.67,0,0,0,136,48.29l-2.28,1.26a31.76,31.76,0,0,0-3.36-5l2-1.69a32.34,32.34,0,0,0-4.62-4.59l-1.68,2.09a31.91,31.91,0,0,0-5-3.32l1.26-2.4a35.51,35.51,0,0,0-6-2.48l-.78,2.61a30.6,30.6,0,0,0-5.7-1.13l-.58,5.67A24.89,24.89,0,0,1,131.66,64"/><path id="_Path_6" data-name="&lt;Path&gt;" class="cls-4" d="M121.93,86.42c-6.58-4.67-13.39-9.47-19.12-14.86a.11.11,0,0,1,0-.18.17.17,0,0,1,.21,0c5.69,5.41,12.5,10.17,19.09,14.81,3.25,2.28,6.62,4.68,9.8,7.08l1-1.18c-11-7.84-36.93-25.87-37.24-32.43-5.14,10,1.36,16,5.54,18.36,10.66,6,17.72,10,28.82,17.44l1.71-2c-3.19-2.4-6.55-4.8-9.8-7"/></g></g></g></g></g></g></svg>