<svg id="Layer_1" data-name="Layer 1" xmlns="http://www.w3.org/2000/svg" xmlns:xlink="http://www.w3.org/1999/xlink" viewBox="0 0 220 128"><defs><style>.cls-1{fill:none;}.cls-2{clip-path:url(#clip-path);}.cls-3{fill:#cf0820;}.cls-4{fill:#007b5d;}.cls-5{fill:#fcd20e;}.cls-6{fill:#bc0030;}</style><clipPath id="clip-path"><rect id="_Clipping_Path_" data-name="&lt;Clipping Path&gt;" class="cls-1" width="220" height="128"/></clipPath></defs><title>Flag_rect_Grenada</title><g id="GRENADA"><g id="_Group_" data-name="&lt;Group&gt;"><g id="_Clip_Group_" data-name="&lt;Clip Group&gt;"><g class="cls-2"><rect id="_Path_" data-name="&lt;Path&gt;" class="cls-3" width="220" height="128"/><rect id="_Path_2" data-name="&lt;Path&gt;" class="cls-4" x="20.96" y="17.92" width="177.5" height="92.16"/><polygon id="_Path_3" data-name="&lt;Path&gt;" class="cls-5" points="20.96 110.08 109.72 64 198.46 110.08 20.96 110.08"/><polygon id="_Path_4" data-name="&lt;Path&gt;" class="cls-5" points="20.96 17.92 109.72 64 198.46 17.92 20.96 17.92"/><g id="_Clip_Group_2" data-name="&lt;Clip Group&gt;"><g class="cls-2"><path id="_Path_5" data-name="&lt;Path&gt;" class="cls-6" d="M125.06,64a15.35,15.35,0,1,0-15.34,15.37A15.36,15.36,0,0,0,125.06,64"/><polygon id="_Path_6" data-name="&lt;Path&gt;" class="cls-5" points="96.32 59.65 106.54 59.65 109.72 49.92 112.87 59.65 123.11 59.65 114.84 65.66 118 75.39 109.72 69.39 101.42 75.39 104.6 65.66 96.32 59.65"/><polygon id="_Path_7" data-name="&lt;Path&gt;" class="cls-5" points="59.14 6.39 65.18 6.39 67.06 0.64 68.91 6.39 74.95 6.39 70.07 9.94 71.93 15.69 67.06 12.14 62.15 15.69 63.99 9.94 59.14 6.39"/><polygon id="_Path_8" data-name="&lt;Path&gt;" class="cls-5" points="101.8 6.39 107.84 6.39 109.72 0.64 111.6 6.39 117.64 6.39 112.73 9.94 114.6 15.69 109.72 12.14 104.82 15.69 106.68 9.94 101.8 6.39"/><polygon id="_Path_9" data-name="&lt;Path&gt;" class="cls-5" points="144.47 6.39 150.51 6.39 152.38 0.64 154.26 6.39 160.3 6.39 155.42 9.94 157.26 15.69 152.38 12.14 147.51 15.69 149.34 9.94 144.47 6.39"/><polygon id="_Path_10" data-name="&lt;Path&gt;" class="cls-5" points="59.14 116.47 65.18 116.47 67.06 110.72 68.91 116.47 74.95 116.47 70.07 120.03 71.93 125.77 67.06 122.22 62.15 125.77 63.99 120.03 59.14 116.47"/><polygon id="_Path_11" data-name="&lt;Path&gt;" class="cls-5" points="101.8 116.47 107.84 116.47 109.72 110.72 111.6 116.47 117.64 116.47 112.73 120.03 114.6 125.77 109.72 122.22 104.82 125.77 106.68 120.03 101.8 116.47"/><polygon id="_Path_12" data-name="&lt;Path&gt;" class="cls-5" points="144.47 116.47 150.51 116.47 152.38 110.72 154.26 116.47 160.3 116.47 155.42 120.03 157.26 125.77 152.38 122.22 147.51 125.77 149.34 120.03 144.47 116.47"/><path id="_Path_13" data-name="&lt;Path&gt;" class="cls-6" d="M32,64.18c1.92,3.58,5.67,7.47,8.94,8.84a30.06,30.06,0,0,0-3-12Z"/><path id="_Path_14" data-name="&lt;Path&gt;" class="cls-5" d="M28.71,51.89c2.77,5.81-7.23,19.67,9.45,22.91a16.76,16.76,0,0,1-2.89-11.16c3.49,1.33,7.18,5.23,8.65,8.22C48.28,56,32.73,57,28.71,51.89"/></g></g></g></g></g></g></svg>