<svg id="Layer_1" data-name="Layer 1" xmlns="http://www.w3.org/2000/svg" xmlns:xlink="http://www.w3.org/1999/xlink" viewBox="0 0 220 128"><defs><style>.cls-1{fill:none;}.cls-2{clip-path:url(#clip-path);}.cls-3{fill:#0097c9;}.cls-4{fill:#ffcf00;}.cls-4,.cls-8{fill-rule:evenodd;}.cls-5{fill:#001f7e;}.cls-6{fill:#fff;}.cls-7,.cls-8{fill:#d00c26;}</style><clipPath id="clip-path"><rect id="_Clipping_Path_" data-name="&lt;Clipping Path&gt;" class="cls-1" width="219.44" height="128"/></clipPath></defs><title>Flag_rect_Tuvalu</title><g id="TUVALU"><g id="_Group_" data-name="&lt;Group&gt;"><g id="_Clip_Group_" data-name="&lt;Clip Group&gt;"><g class="cls-2"><rect id="_Path_" data-name="&lt;Path&gt;" class="cls-3" width="219.44" height="128"/><polygon id="_Path_2" data-name="&lt;Path&gt;" class="cls-4" points="210.64 31.63 204.33 27.29 198.02 31.63 200.44 24.63 194.13 20.31 201.93 20.32 204.33 13.32 206.76 20.32 214.55 20.31 208.24 24.63 210.64 31.63"/><polygon id="_Path_3" data-name="&lt;Path&gt;" class="cls-4" points="191.04 87.39 184.73 83.06 178.41 87.39 180.82 80.39 174.51 76.08 182.32 76.08 184.73 69.08 187.14 76.08 194.96 76.08 188.63 80.39 191.04 87.39"/><polygon id="_Path_4" data-name="&lt;Path&gt;" class="cls-4" points="210.64 74.76 204.33 70.43 198.02 74.76 200.44 67.77 194.13 63.45 201.93 63.45 204.33 56.46 206.76 63.45 214.55 63.45 208.24 67.77 210.64 74.76"/><polygon id="_Path_5" data-name="&lt;Path&gt;" class="cls-4" points="126.33 115.2 120.03 110.88 113.7 115.2 116.1 108.21 109.78 103.89 117.6 103.91 120.03 96.91 122.44 103.91 130.24 103.89 123.92 108.21 126.33 115.2"/><polygon id="_Path_6" data-name="&lt;Path&gt;" class="cls-4" points="136.25 70.92 142.58 75.25 148.88 70.92 146.46 77.92 152.79 82.23 144.98 82.23 142.58 89.22 140.16 82.23 132.35 82.23 138.67 77.92 136.25 70.92"/><polygon id="_Path_7" data-name="&lt;Path&gt;" class="cls-4" points="159.29 39.06 165.6 43.39 171.92 39.06 169.51 46.05 175.84 50.37 168.03 50.36 165.6 57.36 163.2 50.36 155.4 50.37 161.72 46.05 159.29 39.06"/><polygon id="_Path_8" data-name="&lt;Path&gt;" class="cls-4" points="178.66 32.44 184.99 36.77 191.28 32.44 188.88 39.43 195.19 43.75 187.37 43.74 184.97 50.75 182.56 43.74 174.76 43.75 181.08 39.43 178.66 32.44"/><polygon id="_Path_9" data-name="&lt;Path&gt;" class="cls-4" points="159.29 87.59 165.6 91.93 171.92 87.59 169.51 94.59 175.84 98.91 168.03 98.9 165.6 105.89 163.2 98.9 155.4 98.91 161.72 94.59 159.29 87.59"/><polygon id="_Path_10" data-name="&lt;Path&gt;" class="cls-4" points="136.25 93.24 142.58 97.56 148.88 93.24 146.46 100.22 152.79 104.54 144.98 104.53 142.58 111.53 140.16 104.53 132.35 104.54 138.67 100.22 136.25 93.24"/><rect id="_Path_11" data-name="&lt;Path&gt;" class="cls-5" width="109.72" height="54.86"/><polygon id="_Path_12" data-name="&lt;Path&gt;" class="cls-6" points="97.45 0 0 48.72 0 54.86 12.27 54.86 109.72 6.13 109.72 0 97.45 0"/><polygon id="_Path_13" data-name="&lt;Path&gt;" class="cls-6" points="0 0 0 6.13 97.45 54.86 109.72 54.86 109.72 48.72 12.27 0 0 0"/><polygon id="_Path_14" data-name="&lt;Path&gt;" class="cls-6" points="45.7 0 45.7 18.28 0 18.28 0 36.57 45.7 36.57 45.7 54.86 63.99 54.86 63.99 36.57 109.72 36.57 109.72 18.28 63.99 18.28 63.99 0 45.7 0"/><polygon id="_Path_15" data-name="&lt;Path&gt;" class="cls-7" points="49.37 0 49.37 21.94 0 21.94 0 32.91 49.37 32.91 49.37 54.86 60.34 54.86 60.34 32.91 109.72 32.91 109.72 21.94 60.34 21.94 60.34 0 49.37 0"/><polygon id="_Path_16" data-name="&lt;Path&gt;" class="cls-8" points="64.97 18.28 73.15 18.28 109.72 0 101.53 0 64.97 18.28"/><polygon id="_Path_17" data-name="&lt;Path&gt;" class="cls-7" points="0 4.08 28.41 18.28 36.56 18.28 0 0 0 4.08"/><polygon id="_Path_18" data-name="&lt;Path&gt;" class="cls-8" points="109.72 54.86 109.72 50.77 81.32 36.57 73.15 36.57 109.72 54.86"/><polygon id="_Path_19" data-name="&lt;Path&gt;" class="cls-7" points="36.56 36.57 0 54.86 8.17 54.86 44.75 36.57 36.56 36.57"/></g></g></g></g></svg>