<svg id="Layer_1" data-name="Layer 1" xmlns="http://www.w3.org/2000/svg" xmlns:xlink="http://www.w3.org/1999/xlink" viewBox="0 0 220 128"><defs><style>.cls-1{fill:none;}.cls-2{clip-path:url(#clip-path);}.cls-3{fill:#fff;}.cls-4{fill:#49a044;}.cls-5{fill:#c7001b;}</style><clipPath id="clip-path"><rect id="_Clipping_Path_" data-name="&lt;Clipping Path&gt;" class="cls-1" width="220" height="128"/></clipPath></defs><title>Flag_rect_Iran</title><g id="IRAN"><g id="_Group_" data-name="&lt;Group&gt;"><g id="_Clip_Group_" data-name="&lt;Clip Group&gt;"><g class="cls-2"><rect id="_Path_" data-name="&lt;Path&gt;" class="cls-3" width="220" height="128"/><rect id="_Path_2" data-name="&lt;Path&gt;" class="cls-4" width="220" height="42.78"/><rect id="_Path_3" data-name="&lt;Path&gt;" class="cls-5" y="85.25" width="220" height="42.75"/><polygon id="_Path_4" data-name="&lt;Path&gt;" class="cls-5" points="109.7 48.6 107.39 50.49 107.81 80.73 109.7 82.92 111.61 80.73 112.04 50.49 109.7 48.6"/><g id="_Clip_Group_2" data-name="&lt;Clip Group&gt;"><g class="cls-2"><path id="_Path_5" data-name="&lt;Path&gt;" class="cls-5" d="M114.36,45.38a3.18,3.18,0,0,1-4.4,1l-.25-.15a3.25,3.25,0,0,1-4.49-.64c0-.08-.12-.18-.17-.26A2.77,2.77,0,0,0,109.71,48a2.76,2.76,0,0,0,4.65-2.63"/><path id="_Path_6" data-name="&lt;Path&gt;" class="cls-5" d="M115.53,49.6A18.89,18.89,0,0,1,98.08,79.55,17.52,17.52,0,0,0,115.53,49.6"/><path id="_Path_7" data-name="&lt;Path&gt;" class="cls-5" d="M103.88,49.6a18.88,18.88,0,0,0,17.45,29.95A17.52,17.52,0,0,1,103.88,49.6"/><path id="_Path_8" data-name="&lt;Path&gt;" class="cls-5" d="M117.7,49a18.9,18.9,0,0,1,4.17,26.41c-.31.41-.64.84-1,1.2A15,15,0,0,0,117.7,49"/><path id="_Path_9" data-name="&lt;Path&gt;" class="cls-5" d="M101.71,49a18.89,18.89,0,0,0-4.16,26.41,10.18,10.18,0,0,0,1,1.2A15,15,0,0,1,101.71,49"/><path id="_Compound_Path_" data-name="&lt;Compound Path&gt;" class="cls-3" d="M.49,40.71h1v-2h3v2h5v-3h-3v1h2v1h-3v-2h-5Zm2,0h1v-1h-1Zm-2-4.06h13v-1H.49Zm13,4.06h-3v-3h4v-2h1v4.08h1V35.63h1v4.08h1V35.63h1v5.08h-5v-2h-3v1h2Z"/><path id="_Compound_Path_2" data-name="&lt;Compound Path&gt;" class="cls-3" d="M20.44,40.71h1v-2h3v2h5v-3h-3v1h2v1h-3v-2h-5Zm2,0h1v-1h-1Zm-2-4.06h13v-1h-13Zm13,4.06h-3v-3h4v-2h1v4.08h1V35.63h1v4.08h1V35.63h1v5.08h-5v-2h-3v1h2Z"/><path id="_Compound_Path_3" data-name="&lt;Compound Path&gt;" class="cls-3" d="M40.39,40.71h1v-2h3v2h5v-3h-3v1h2v1h-3v-2h-5Zm2,0h1v-1h-1Zm-2-4.06h13v-1h-13Zm13,4.06h-3v-3h4v-2h1v4.08h1V35.63h1v4.08h1V35.63h1v5.08h-5v-2h-3v1h2Z"/><path id="_Compound_Path_4" data-name="&lt;Compound Path&gt;" class="cls-3" d="M60.34,40.71h1v-2h3v2h5v-3h-3v1h2v1h-3v-2h-5Zm2,0h1v-1h-1Zm-2-4.06h13v-1h-13Zm13,4.06h-3v-3h4v-2h1v4.08h1V35.63h1v4.08h1V35.63h1v5.08h-5v-2h-3v1h2Z"/><path id="_Compound_Path_5" data-name="&lt;Compound Path&gt;" class="cls-3" d="M80.28,40.71h1v-2h3v2h5v-3h-3v1h2v1h-3v-2h-5Zm2,0h1v-1h-1Zm-2-4.06h13v-1h-13Zm13,4.06h-3v-3h4v-2h1v4.08h1V35.63h1v4.08h1V35.63h1v5.08h-5v-2h-3v1h2Z"/><path id="_Compound_Path_6" data-name="&lt;Compound Path&gt;" class="cls-3" d="M100.23,40.71h1v-2h3v2h5v-3h-3v1h2v1h-3v-2h-5Zm2,0h1v-1h-1Zm-2-4.06h13v-1h-13Zm13,4.06h-3v-3h4v-2h1v4.08h1V35.63h1v4.08h1V35.63h1v5.08h-5v-2h-3v1h2Z"/><path id="_Compound_Path_7" data-name="&lt;Compound Path&gt;" class="cls-3" d="M120.17,40.71h1v-2h3v2h5v-3h-3v1h2v1h-3v-2h-5Zm2,0h1v-1h-1Zm-2-4.06h13v-1h-13Zm13,4.06h-3v-3h4v-2h1v4.08h1V35.63h1v4.08h1V35.63h1v5.08h-5v-2h-3v1h2Z"/><path id="_Compound_Path_8" data-name="&lt;Compound Path&gt;" class="cls-3" d="M140.13,40.71h1v-2h3v2h5v-3h-3v1h2v1h-3v-2h-5Zm2,0h1v-1h-1Zm-2-4.06h13v-1h-13Zm13,4.06h-3v-3h4v-2h1v4.08h1V35.63h1v4.08h1V35.63h1v5.08h-5v-2h-3v1h2Z"/><path id="_Compound_Path_9" data-name="&lt;Compound Path&gt;" class="cls-3" d="M160.08,40.71h1v-2h3v2h5v-3h-3v1h2v1h-3v-2h-5Zm2,0h1v-1h-1Zm-2-4.06h13v-1h-13Zm13,4.06h-3v-3h4v-2h1v4.08h1V35.63h1v4.08h1V35.63h1v5.08h-5v-2h-3v1h2Z"/><path id="_Compound_Path_10" data-name="&lt;Compound Path&gt;" class="cls-3" d="M180,40.71h1v-2h3v2h5v-3h-3v1h2v1h-3v-2h-5Zm2,0h1v-1h-1Zm-2-4.06h13v-1H180Zm13,4.06h-3v-3h4v-2h1v4.08h1V35.63h1v4.08h1V35.63h1v5.08h-5v-2h-3v1h2Z"/><path id="_Compound_Path_11" data-name="&lt;Compound Path&gt;" class="cls-3" d="M200,40.71h1v-2h3v2h5v-3h-3v1h2v1h-3v-2h-5Zm2,0h1v-1h-1Zm-2-4.06h13v-1H200Zm13,4.06h-3v-3h4v-2h1v4.08h1V35.63h1v4.08h1V35.63h1v5.08h-5v-2h-3v1h2Z"/><path id="_Compound_Path_12" data-name="&lt;Compound Path&gt;" class="cls-3" d="M.49,43.8h9v-2h-9Zm10,0h9v-2h-9Z"/><path id="_Compound_Path_13" data-name="&lt;Compound Path&gt;" class="cls-3" d="M20.44,43.8h9v-2h-9Zm10,0h9v-2h-9Z"/><path id="_Compound_Path_14" data-name="&lt;Compound Path&gt;" class="cls-3" d="M40.39,43.8h9v-2h-9Zm10,0h9v-2h-9Z"/><path id="_Compound_Path_15" data-name="&lt;Compound Path&gt;" class="cls-3" d="M60.34,43.8h9v-2h-9Zm10,0h9v-2h-9Z"/><path id="_Compound_Path_16" data-name="&lt;Compound Path&gt;" class="cls-3" d="M80.28,43.8h9v-2h-9Zm10,0h9v-2h-9Z"/><path id="_Compound_Path_17" data-name="&lt;Compound Path&gt;" class="cls-3" d="M100.23,43.8h9v-2h-9Zm10,0h9v-2h-9Z"/><path id="_Compound_Path_18" data-name="&lt;Compound Path&gt;" class="cls-3" d="M120.17,43.8h9v-2h-9Zm10,0h9v-2h-9Z"/><path id="_Compound_Path_19" data-name="&lt;Compound Path&gt;" class="cls-3" d="M140.13,43.8h9v-2h-9Zm10,0h9v-2h-9Z"/><path id="_Compound_Path_20" data-name="&lt;Compound Path&gt;" class="cls-3" d="M160.08,43.8h9v-2h-9Zm10,0h9v-2h-9Z"/><path id="_Compound_Path_21" data-name="&lt;Compound Path&gt;" class="cls-3" d="M180,43.8h9v-2h-9Zm10,0h9v-2h-9Z"/><path id="_Compound_Path_22" data-name="&lt;Compound Path&gt;" class="cls-3" d="M200,43.8h9v-2h-9Zm10,0h9v-2h-9Z"/><path id="_Compound_Path_23" data-name="&lt;Compound Path&gt;" class="cls-3" d="M.49,92.37h1v-2h3v2h5V89.31h-3v1h2v1h-3v-2h-5Zm2,0h1v-1h-1Zm-2-4.06h13v-1H.49Zm13,4.06h-3V89.31h4v-2h1v4.06h1V87.29h1v4.06h1V87.29h1v5.08h-5v-2h-3v1h2Z"/><path id="_Compound_Path_24" data-name="&lt;Compound Path&gt;" class="cls-3" d="M20.44,92.37h1v-2h3v2h5V89.31h-3v1h2v1h-3v-2h-5Zm2,0h1v-1h-1Zm-2-4.06h13v-1h-13Zm13,4.06h-3V89.31h4v-2h1v4.06h1V87.29h1v4.06h1V87.29h1v5.08h-5v-2h-3v1h2Z"/><path id="_Compound_Path_25" data-name="&lt;Compound Path&gt;" class="cls-3" d="M40.39,92.37h1v-2h3v2h5V89.31h-3v1h2v1h-3v-2h-5Zm2,0h1v-1h-1Zm-2-4.06h13v-1h-13Zm13,4.06h-3V89.31h4v-2h1v4.06h1V87.29h1v4.06h1V87.29h1v5.08h-5v-2h-3v1h2Z"/><path id="_Compound_Path_26" data-name="&lt;Compound Path&gt;" class="cls-3" d="M60.34,92.37h1v-2h3v2h5V89.31h-3v1h2v1h-3v-2h-5Zm2,0h1v-1h-1Zm-2-4.06h13v-1h-13Zm13,4.06h-3V89.31h4v-2h1v4.06h1V87.29h1v4.06h1V87.29h1v5.08h-5v-2h-3v1h2Z"/><path id="_Compound_Path_27" data-name="&lt;Compound Path&gt;" class="cls-3" d="M80.28,92.37h1v-2h3v2h5V89.31h-3v1h2v1h-3v-2h-5Zm2,0h1v-1h-1Zm-2-4.06h13v-1h-13Zm13,4.06h-3V89.31h4v-2h1v4.06h1V87.29h1v4.06h1V87.29h1v5.08h-5v-2h-3v1h2Z"/><path id="_Compound_Path_28" data-name="&lt;Compound Path&gt;" class="cls-3" d="M100.23,92.37h1v-2h3v2h5V89.31h-3v1h2v1h-3v-2h-5Zm2,0h1v-1h-1Zm-2-4.06h13v-1h-13Zm13,4.06h-3V89.31h4v-2h1v4.06h1V87.29h1v4.06h1V87.29h1v5.08h-5v-2h-3v1h2Z"/><path id="_Compound_Path_29" data-name="&lt;Compound Path&gt;" class="cls-3" d="M120.17,92.37h1v-2h3v2h5V89.31h-3v1h2v1h-3v-2h-5Zm2,0h1v-1h-1Zm-2-4.06h13v-1h-13Zm13,4.06h-3V89.31h4v-2h1v4.06h1V87.29h1v4.06h1V87.29h1v5.08h-5v-2h-3v1h2Z"/><path id="_Compound_Path_30" data-name="&lt;Compound Path&gt;" class="cls-3" d="M140.13,92.37h1v-2h3v2h5V89.31h-3v1h2v1h-3v-2h-5Zm2,0h1v-1h-1Zm-2-4.06h13v-1h-13Zm13,4.06h-3V89.31h4v-2h1v4.06h1V87.29h1v4.06h1V87.29h1v5.08h-5v-2h-3v1h2Z"/><path id="_Compound_Path_31" data-name="&lt;Compound Path&gt;" class="cls-3" d="M160.08,92.37h1v-2h3v2h5V89.31h-3v1h2v1h-3v-2h-5Zm2,0h1v-1h-1Zm-2-4.06h13v-1h-13Zm13,4.06h-3V89.31h4v-2h1v4.06h1V87.29h1v4.06h1V87.29h1v5.08h-5v-2h-3v1h2Z"/><path id="_Compound_Path_32" data-name="&lt;Compound Path&gt;" class="cls-3" d="M180,92.37h1v-2h3v2h5V89.31h-3v1h2v1h-3v-2h-5Zm2,0h1v-1h-1Zm-2-4.06h13v-1H180Zm13,4.06h-3V89.31h4v-2h1v4.06h1V87.29h1v4.06h1V87.29h1v5.08h-5v-2h-3v1h2Z"/><path id="_Compound_Path_33" data-name="&lt;Compound Path&gt;" class="cls-3" d="M200,92.37h1v-2h3v2h5V89.31h-3v1h2v1h-3v-2h-5Zm2,0h1v-1h-1Zm-2-4.06h13v-1H200Zm13,4.06h-3V89.31h4v-2h1v4.06h1V87.29h1v4.06h1V87.29h1v5.08h-5v-2h-3v1h2Z"/><path id="_Compound_Path_34" data-name="&lt;Compound Path&gt;" class="cls-3" d="M.49,86.27h9v-2h-9Zm10,0h9v-2h-9Z"/><path id="_Compound_Path_35" data-name="&lt;Compound Path&gt;" class="cls-3" d="M20.44,86.27h9v-2h-9Zm10,0h9v-2h-9Z"/><path id="_Compound_Path_36" data-name="&lt;Compound Path&gt;" class="cls-3" d="M40.39,86.27h9v-2h-9Zm10,0h9v-2h-9Z"/><path id="_Compound_Path_37" data-name="&lt;Compound Path&gt;" class="cls-3" d="M60.34,86.27h9v-2h-9Zm10,0h9v-2h-9Z"/><path id="_Compound_Path_38" data-name="&lt;Compound Path&gt;" class="cls-3" d="M80.28,86.27h9v-2h-9Zm10,0h9v-2h-9Z"/><path id="_Compound_Path_39" data-name="&lt;Compound Path&gt;" class="cls-3" d="M100.23,86.27h9v-2h-9Zm10,0h9v-2h-9Z"/><path id="_Compound_Path_40" data-name="&lt;Compound Path&gt;" class="cls-3" d="M120.17,86.27h9v-2h-9Zm10,0h9v-2h-9Z"/><path id="_Compound_Path_41" data-name="&lt;Compound Path&gt;" class="cls-3" d="M140.13,86.27h9v-2h-9Zm10,0h9v-2h-9Z"/><path id="_Compound_Path_42" data-name="&lt;Compound Path&gt;" class="cls-3" d="M160.08,86.27h9v-2h-9Zm10,0h9v-2h-9Z"/><path id="_Compound_Path_43" data-name="&lt;Compound Path&gt;" class="cls-3" d="M180,86.27h9v-2h-9Zm10,0h9v-2h-9Z"/><path id="_Compound_Path_44" data-name="&lt;Compound Path&gt;" class="cls-3" d="M200,86.27h9v-2h-9Zm10,0h9v-2h-9Z"/></g></g></g></g></g></g></svg>