<svg id="Layer_1" data-name="Layer 1" xmlns="http://www.w3.org/2000/svg" xmlns:xlink="http://www.w3.org/1999/xlink" viewBox="0 0 220 128"><defs><style>.cls-1{fill:none;}.cls-2{clip-path:url(#clip-path);}.cls-3{fill:#bc1f33;}.cls-4{fill:#4fb548;}.cls-5{clip-path:url(#clip-path-2);}.cls-6{fill:#fff;}</style><clipPath id="clip-path"><polygon id="_Clipping_Path_" data-name="&lt;Clipping Path&gt;" class="cls-1" points="0 0 220 0 219.95 128 0 128 0 0"/></clipPath><clipPath id="clip-path-2"><rect id="_Clipping_Path_2" data-name="&lt;Clipping Path&gt;" class="cls-1" width="219.95" height="128"/></clipPath></defs><title>Flag_rect_Burundi</title><g id="BURUNDI"><g id="_Group_" data-name="&lt;Group&gt;"><g id="_Clip_Group_" data-name="&lt;Clip Group&gt;"><g class="cls-2"><polygon id="_Path_" data-name="&lt;Path&gt;" class="cls-3" points="202.36 0 17.05 0 109.71 54.04 202.36 0"/><polygon id="_Path_2" data-name="&lt;Path&gt;" class="cls-3" points="17.05 128 202.36 128 109.71 73.96 17.05 128"/><polygon id="_Path_3" data-name="&lt;Path&gt;" class="cls-4" points="219.95 118.37 219.96 9.64 126.77 63.97 219.95 118.37"/><polygon id="_Path_4" data-name="&lt;Path&gt;" class="cls-4" points="0 118.06 92.64 63.97 0 9.94 0 118.06"/><g id="_Clip_Group_2" data-name="&lt;Clip Group&gt;"><g class="cls-5"><path id="_Path_5" data-name="&lt;Path&gt;" class="cls-6" d="M220,0H202.36L136.28,38.56a38,38,0,0,0-53.13,0L17.05,0H0V9.94L74.09,53.17a35.75,35.75,0,0,0,0,21.66L0,118.06V128H17.05l66.1-38.54a38.07,38.07,0,0,0,53.13,0L202.36,128h17.07v-9.94L145.31,74.83a35.35,35.35,0,0,0,0-21.66L220,9.64Z"/><polygon id="_Path_6" data-name="&lt;Path&gt;" class="cls-4" points="112.17 40.96 109.71 36.7 107.24 40.96 102.32 40.96 104.78 45.23 102.32 49.49 107.24 49.49 109.71 53.76 112.17 49.49 117.09 49.49 114.63 45.23 117.09 40.96 112.17 40.96"/><polygon id="_Path_7" data-name="&lt;Path&gt;" class="cls-4" points="130.88 73.4 133.35 69.13 128.43 69.13 125.96 64.87 123.5 69.13 118.57 69.13 121.03 73.4 118.57 77.66 123.5 77.66 125.96 81.93 128.43 77.66 133.35 77.66 130.88 73.4"/><polygon id="_Path_8" data-name="&lt;Path&gt;" class="cls-4" points="95.91 69.13 93.45 64.87 90.97 69.13 86.05 69.13 88.51 73.4 86.05 77.66 90.97 77.66 93.45 81.93 95.91 77.66 100.84 77.66 98.38 73.4 100.84 69.13 95.91 69.13"/><polygon id="_Path_9" data-name="&lt;Path&gt;" class="cls-3" points="111.73 41.73 109.71 38.23 107.68 41.73 103.65 41.73 105.67 45.23 103.65 48.73 107.68 48.73 109.71 52.23 111.73 48.73 115.76 48.73 113.74 45.23 115.76 41.73 111.73 41.73"/><polygon id="_Path_10" data-name="&lt;Path&gt;" class="cls-3" points="130 73.4 132.01 69.87 127.97 69.87 125.96 66.4 123.95 69.87 119.9 69.87 121.93 73.4 119.9 76.87 123.95 76.87 125.96 80.4 127.97 76.87 132.01 76.87 130 73.4"/><polygon id="_Path_11" data-name="&lt;Path&gt;" class="cls-3" points="95.46 69.87 93.45 66.4 91.42 69.87 87.39 69.87 89.4 73.4 87.39 76.87 91.42 76.87 93.45 80.4 95.46 76.87 99.51 76.87 97.49 73.4 99.51 69.87 95.46 69.87"/></g></g></g></g></g></g></svg>