<svg id="Layer_1" data-name="Layer 1" xmlns="http://www.w3.org/2000/svg" viewBox="0 0 220 128"><defs><style>.cls-1,.cls-3,.cls-9{fill:#fff;}.cls-10,.cls-2,.cls-4{fill:#ffe000;}.cls-10,.cls-11,.cls-3,.cls-4,.cls-5,.cls-6,.cls-7,.cls-8,.cls-9{stroke:#000;stroke-linejoin:round;}.cls-3,.cls-4,.cls-5,.cls-6{stroke-linecap:round;}.cls-10,.cls-11,.cls-3,.cls-4,.cls-6,.cls-7,.cls-8,.cls-9{stroke-width:0.18px;}.cls-5{fill:red;stroke-width:1.46px;}.cls-6,.cls-8{fill:none;}.cls-7{fill:#ccc;}.cls-11{fill:#fa0204;}</style></defs><title>Flag_rect_Vatican City</title><rect class="cls-1" width="220" height="128"/><rect class="cls-2" width="110" height="128"/><g id="coa"><g id="tiara"><g id="band"><path class="cls-3" d="M159.78,46l1.18.28,1.87.3.86.09-.15,3.65a24.7,24.7,0,0,1-.56,3.58,18.22,18.22,0,0,1-1.16,2.42l-.56.85L158,54.35a10.74,10.74,0,0,0,.77-1.24,13.73,13.73,0,0,0,.56-1.75l.33-1.89.17-2.39ZM155.62,57.1l3,2.63a6,6,0,0,1-1,.71,5.61,5.61,0,0,1-2.31.53,4.27,4.27,0,0,1-1.63-.45,7.64,7.64,0,0,1-3.15-2.1,2.18,2.18,0,0,1-.36-1.29,5.05,5.05,0,0,1,.46-1.45,3.29,3.29,0,0,0,.37.88,3.66,3.66,0,0,0,1.29.9,3.18,3.18,0,0,0,1.13.32,3.53,3.53,0,0,0,1.51-.24,3.75,3.75,0,0,0,.65-.44Z"/><path class="cls-3" d="M150.84,37.81a5.61,5.61,0,0,1,.31.74,4.49,4.49,0,0,1,.21,1.36,4.91,4.91,0,0,1-.23,1.36,12.13,12.13,0,0,1-.75,1.92c-.18.39-.44.75-.63,1.15-.29.64-.51,1.31-.77,2s-.5,1.07-.67,1.63a16.37,16.37,0,0,0-.44,2.3,15.12,15.12,0,0,0-.16,2,12.64,12.64,0,0,0,.16,2.38,9.21,9.21,0,0,0,.71,2.25,6.39,6.39,0,0,0,1.09,1.57,5.53,5.53,0,0,0,1.23,1,9.06,9.06,0,0,0,1.32.57c.61.24,1.86.68,1.86.68a9.71,9.71,0,0,1-2.32-1.56,5,5,0,0,1-.94-2.11,8.25,8.25,0,0,1-.08-2.67,12.84,12.84,0,0,1,.67-2.8c.3-1,.73-1.89,1.12-2.82.29-.68.61-1.33.88-2s.64-1.6.9-2.42a7.67,7.67,0,0,0,.4-1.53,5.81,5.81,0,0,0-.16-1.71,6.53,6.53,0,0,0-.87-2.23,2.94,2.94,0,0,0-1.08-1,2.16,2.16,0,0,0-1.37-.31,1.08,1.08,0,0,0-.39.27Z"/><path class="cls-3" d="M154.71,42.77a18.88,18.88,0,0,0,.38-2,10,10,0,0,0-.05-1.73,6.32,6.32,0,0,0-.35-1.89,4.94,4.94,0,0,0-1.14-1.64,5,5,0,0,0-1.65-1.07,6.72,6.72,0,0,0-2-.35,8.86,8.86,0,0,0-1.78.09,4.79,4.79,0,0,0-1,.2,8.74,8.74,0,0,0-.86.42l2.19,3.57a6,6,0,0,1,1.06-.5,4.3,4.3,0,0,1,1.24-.09A3.69,3.69,0,0,1,152,38a4.21,4.21,0,0,1,1.29,1,5.61,5.61,0,0,1,1.09,1.6,7.11,7.11,0,0,1,.34,1.77c0,.13,0,.39,0,.39Z"/><path class="cls-4" d="M155.11,39.93a8.16,8.16,0,0,0-.76-1.71,4.62,4.62,0,0,0-1.63-1.45,8.17,8.17,0,0,0-2.26-.46l.83,1.55-1.45,0-.77-1.27-1.4.63L147,36l1.49-.69-.68-1.11,1.49-.14.65,1.07a13.17,13.17,0,0,1,1.72.12,4.26,4.26,0,0,1,1.1.4,3.92,3.92,0,0,1,.91.66,4.53,4.53,0,0,1,.87,1A8.21,8.21,0,0,1,155,38.6Z"/><path class="cls-4" d="M145.22,35.43l2.33,3.4m-1.31-4-1.1.64-1,.79,2.26,3.45,1-.77,1-.6Z"/><path class="cls-4" d="M150.49,49.36l1.3-2.69,1.4.55.57-1.39-1.39-.65.72-1.55-1-.46-.77,1.49-1.4-.58-.62,1.45,1.36.57-1.25,2.68Z"/><path class="cls-4" d="M160.94,48.56l1.33,0v1.53l1.28.07-.22,1.55-1.19-.07a10.86,10.86,0,0,1-.38,1.35,11,11,0,0,1-.7,1.27l-1.42-.35s.51-.81.71-1.24.41-1.22.41-1.22l-1.46-.18.26-1.47,1.32.09Z"/></g><g id="band-2" data-name="band"><path class="cls-3" d="M171.14,46l-1.17.28-1.88.3-.86.09.16,3.65a23.31,23.31,0,0,0,.56,3.58,17.32,17.32,0,0,0,1.15,2.42l.56.85L173,54.35a12.41,12.41,0,0,1-.77-1.24,15.67,15.67,0,0,1-.56-1.75l-.32-1.89-.18-2.39Zm4.17,11.06-3,2.63a5.79,5.79,0,0,0,1,.71,5.53,5.53,0,0,0,2.3.53,4.22,4.22,0,0,0,1.63-.45,7.67,7.67,0,0,0,3.16-2.1,2.17,2.17,0,0,0,.35-1.29,5.05,5.05,0,0,0-.46-1.45,3.29,3.29,0,0,1-.37.88,3.58,3.58,0,0,1-1.29.9,3.18,3.18,0,0,1-1.13.32,3.48,3.48,0,0,1-1.5-.24,3.37,3.37,0,0,1-.65-.44Z"/><path class="cls-3" d="M180.08,37.81a5.61,5.61,0,0,0-.31.74,4.82,4.82,0,0,0-.21,1.36,5.31,5.31,0,0,0,.23,1.36,12.13,12.13,0,0,0,.75,1.92c.19.39.44.75.63,1.15.3.64.51,1.31.77,2s.5,1.07.67,1.63a16.37,16.37,0,0,1,.44,2.3,17,17,0,0,1,.17,2,12.65,12.65,0,0,1-.17,2.38,8.8,8.8,0,0,1-.71,2.25,6.13,6.13,0,0,1-1.09,1.57,5.53,5.53,0,0,1-1.23,1,8.62,8.62,0,0,1-1.32.57c-.61.24-1.85.68-1.85.68a9.71,9.71,0,0,0,2.31-1.56A4.92,4.92,0,0,0,180.1,57a8.25,8.25,0,0,0,.09-2.67,14.1,14.1,0,0,0-.67-2.8c-.31-1-.74-1.89-1.13-2.82-.28-.68-.6-1.33-.88-2s-.64-1.6-.9-2.42a7.64,7.64,0,0,1-.39-1.53,5.49,5.49,0,0,1,.16-1.71,6.31,6.31,0,0,1,.86-2.23,2.94,2.94,0,0,1,1.08-1,2.19,2.19,0,0,1,1.38-.31,1.11,1.11,0,0,1,.38.27Z"/><path class="cls-3" d="M176.22,42.77a16.49,16.49,0,0,1-.38-2,9.08,9.08,0,0,1,0-1.73,6.66,6.66,0,0,1,.36-1.89,4.77,4.77,0,0,1,1.13-1.64A5,5,0,0,1,179,34.46a6.67,6.67,0,0,1,2-.35,8.76,8.76,0,0,1,1.77.09,4.79,4.79,0,0,1,1,.2,8.74,8.74,0,0,1,.86.42l-2.19,3.57a6,6,0,0,0-1.06-.5,4.3,4.3,0,0,0-1.24-.09A3.69,3.69,0,0,0,179,38a4.17,4.17,0,0,0-1.28,1,5.23,5.23,0,0,0-1.09,1.6,6.7,6.7,0,0,0-.35,1.77c0,.13,0,.39,0,.39Z"/><path class="cls-4" d="M175.82,39.93a8.16,8.16,0,0,1,.76-1.71,4.51,4.51,0,0,1,1.62-1.45,8.17,8.17,0,0,1,2.26-.46l-.83,1.55,1.46,0,.76-1.27,1.4.63L184,36l-1.49-.69.69-1.11-1.49-.14L181,35.17a13.17,13.17,0,0,0-1.72.12,4.33,4.33,0,0,0-1.11.4,4.14,4.14,0,0,0-.91.66,4.25,4.25,0,0,0-.86,1,7.19,7.19,0,0,0-.48,1.22Z"/><path class="cls-4" d="M185.71,35.43l-2.33,3.4m1.31-4,1.1.64,1,.79-2.26,3.45-1-.77-1-.6Z"/><path class="cls-4" d="M180.44,49.36l-1.31-2.69-1.4.55-.56-1.39,1.39-.65-.72-1.55,1-.46.77,1.49,1.4-.58.62,1.45-1.36.57,1.26,2.68Z"/><path class="cls-4" d="M170,48.56l-1.33,0v1.53l-1.28.07.21,1.55,1.2-.07a12.21,12.21,0,0,0,.37,1.35,12.32,12.32,0,0,0,.71,1.27l1.42-.35a13.12,13.12,0,0,1-.71-1.24,12,12,0,0,1-.42-1.22l1.46-.18-.25-1.47-1.32.09Z"/></g><path class="cls-3" d="M158,27.44l-2,2.15,1.23,3.72.7,2.61-2,1.89,3.7,5.14,11.78-1.13,3.78-4-1.44-1.3,0-3.16,1.23-3.72-1.86-1.88-1.67-4.47a12.89,12.89,0,0,0-.65-1.82,6.18,6.18,0,0,0-.67-.94,7,7,0,0,0-.94-1,6.41,6.41,0,0,0-1.06-.65,5.86,5.86,0,0,0-1.23-.55,8.23,8.23,0,0,0-1.39-.11,8.13,8.13,0,0,0-1.38.11,5.64,5.64,0,0,0-1.23.55,6.5,6.5,0,0,0-1.07.65,7.58,7.58,0,0,0-.94,1,6.18,6.18,0,0,0-.67.94,13.81,13.81,0,0,0-.64,1.82Z"/><ellipse id="svg_167" data-name="svg 167" class="cls-5" cx="165.48" cy="44.7" rx="7.13" ry="2.12"/><path class="cls-4" d="M173.09,41.86a4,4,0,0,0-.37-.29,4,4,0,0,0-.87-.44,9.14,9.14,0,0,0-1.27-.34,14.92,14.92,0,0,0-1.48-.3,14.7,14.7,0,0,0-1.75-.12c-.63,0-1.89.09-1.89.09s-1.25-.09-1.88-.09a14.72,14.72,0,0,0-1.76.12,14.92,14.92,0,0,0-1.48.3,9.53,9.53,0,0,0-1.27.34,4.18,4.18,0,0,0-.87.44,3.48,3.48,0,0,0-.36.29m16-3.12a1.86,1.86,0,0,0-.63-.43.68.68,0,0,0-.48.11.95.95,0,0,0-.29,1.11.61.61,0,0,0,.3.38,2.23,2.23,0,0,0,1.12-.15Zm.38-.26a.71.71,0,0,1,.69.47m-17.77-.21,0,1a2.25,2.25,0,0,0,1.13.15.68.68,0,0,0,.3-.38.93.93,0,0,0,0-.57,1,1,0,0,0-.34-.54.68.68,0,0,0-.48-.11,1.86,1.86,0,0,0-.63.43Zm-.37-.26a.69.69,0,0,0-.69.47m14.47.1L169.9,39m-9.49.07L161,39m5.55.06a1.68,1.68,0,0,1-.55-.3m-1.67.3a1.76,1.76,0,0,0,.56-.3m10.29-1.42a1.48,1.48,0,0,1-.53.28l-.09,0a3,3,0,0,1-.27.6,2.83,2.83,0,0,1-.47.45,2.15,2.15,0,0,0-.57-.36.67.67,0,0,0-.44,0,.78.78,0,0,0-.34.31,1,1,0,0,0-.19.52,1.67,1.67,0,0,0,.28.6l-.19.33-.26.17a6.69,6.69,0,0,1-1.39-.55,1.48,1.48,0,0,1-.33-.66,1.27,1.27,0,0,0,.41-.36.69.69,0,0,0,0-.61.74.74,0,0,0-.62-.3.65.65,0,0,0-.45.2.65.65,0,0,0-.19.51c0,.18.35.42.35.42s-.14.33-.28.4a4.61,4.61,0,0,1-1.12.35,2.81,2.81,0,0,1-1.19,0,1.26,1.26,0,0,1-.65-.4.63.63,0,0,1-.07-.22,2.63,2.63,0,0,0,.66-.27,1,1,0,0,0,.43-.57,1,1,0,0,0-.22-.67,1.24,1.24,0,0,0-.55-.44,1,1,0,0,0-.32,0l-.06.06a1.06,1.06,0,0,1-.35.28h0l-.09,0h0l-.18.06a1,1,0,0,1,.36.2.49.49,0,0,1,.08.24.88.88,0,0,1,0,.16,1.05,1.05,0,0,1-.06.24.68.68,0,0,1-.12.26l-.11.1h0a1,1,0,0,1-.24.11,1.63,1.63,0,0,1-.32,0,1.32,1.32,0,0,0,.56-.11h0a.72.72,0,0,0,.23-.36,1,1,0,0,0,0-.17.88.88,0,0,0,0-.23.55.55,0,0,0-.16-.3,1.41,1.41,0,0,0-1.38,0,.62.62,0,0,0-.16.3v.23a1,1,0,0,0,0,.17.82.82,0,0,0,.24.36h0a1.32,1.32,0,0,0,.56.11,1.53,1.53,0,0,1-.31,0,1.12,1.12,0,0,1-.25-.11h0a.63.63,0,0,1-.12-.1,1.17,1.17,0,0,1-.17-.5.86.86,0,0,1,0-.16.49.49,0,0,1,.08-.24,1,1,0,0,1,.36-.2l-.18-.06h-.05l-.08,0h0a1,1,0,0,1-.35-.28l-.07-.06a.9.9,0,0,0-.31,0,1.27,1.27,0,0,0-.56.44,1,1,0,0,0-.22.67,1,1,0,0,0,.43.57,2.78,2.78,0,0,0,.66.27.81.81,0,0,1-.06.22,1.29,1.29,0,0,1-.66.4,2.81,2.81,0,0,1-1.19,0,4.69,4.69,0,0,1-1.11-.35c-.15-.07-.28-.4-.28-.4s.31-.24.34-.42a.65.65,0,0,0-.18-.51.67.67,0,0,0-.46-.2.71.71,0,0,0-.61.3.69.69,0,0,0,0,.61,1.27,1.27,0,0,0,.41.36,1.3,1.3,0,0,1-.33.66,6.62,6.62,0,0,1-1.38.55l-.27-.17-.19-.33a1.67,1.67,0,0,0,.28-.6.93.93,0,0,0-.18-.52.87.87,0,0,0-.35-.31.67.67,0,0,0-.44,0,2.15,2.15,0,0,0-.57.36,3.3,3.3,0,0,1-.47-.45,3.49,3.49,0,0,1-.26-.6l-.09,0a1.46,1.46,0,0,1-.54-.28l-.32.07s-.3.16-.3.3.27.29.39.44.21.27.31.41a1.55,1.55,0,0,1,.25.41c0,.17-.07.36,0,.52a.74.74,0,0,0,.49.44c.19,0,.55-.19.55-.19v1.45l.75.68.71,1.49-.28.37.09.73a4.35,4.35,0,0,1,2.35-1.25,19.11,19.11,0,0,1,4.23-.35h.53a21.78,21.78,0,0,1,4.77.34,4.42,4.42,0,0,1,2.35,1.25l.08-.73-.28-.37.71-1.49.75-.68V39.72s.36.23.56.19a.76.76,0,0,0,.49-.44c.07-.16,0-.35,0-.52a1.33,1.33,0,0,1,.25-.41,3.91,3.91,0,0,1,.3-.41c.13-.15.4-.24.4-.44s-.31-.3-.31-.3l-.32-.07Zm-10.83-.19a1.78,1.78,0,0,0,.35.28h0l.13,0a2.05,2.05,0,0,0,.59,0h0a2.05,2.05,0,0,0,.59,0l.14,0h0a2.68,2.68,0,0,0,.35-.28.83.83,0,0,0,.09-.16.77.77,0,0,0,0-.63,1.5,1.5,0,0,0-.59-.46,5.26,5.26,0,0,0-.59-.27,4.61,4.61,0,0,0-.58.27c-.21.13-.48.24-.59.46a.77.77,0,0,0,0,.63.86.86,0,0,0,.1.16Z"/><path class="cls-4" d="M174.36,34.31s-.79-.36-1.21-.5a20.66,20.66,0,0,0-2.33-.53c-.91-.17-1.85-.22-2.75-.43-.28-.07-.55-.21-.84-.26a2.89,2.89,0,0,0-1.2-.13,2.22,2.22,0,0,0-.57.33,2,2,0,0,0-.57-.33,2.9,2.9,0,0,0-1.2.13c-.29,0-.55.19-.84.26-.9.21-1.83.26-2.74.43a20.34,20.34,0,0,0-2.34.53c-.41.14-1.21.5-1.21.5M171,31a2.58,2.58,0,0,0,.53-.37.66.66,0,0,0,.19-.38.6.6,0,0,0-.16-.48.68.68,0,0,0-.46-.16.65.65,0,0,0-.38.13.69.69,0,0,0-.22.42.62.62,0,0,0,.1.39A2.51,2.51,0,0,0,171,31Zm-11,0a2.88,2.88,0,0,0,.41-.45.78.78,0,0,0,.1-.39.71.71,0,0,0-.23-.42.62.62,0,0,0-.38-.13.7.7,0,0,0-.46.16.68.68,0,0,0-.16.48.72.72,0,0,0,.19.38A2.58,2.58,0,0,0,159.94,31Zm-3,1.32-.87,1.13a1.44,1.44,0,0,0,.06.43,1.64,1.64,0,0,0,.43.41l.06,1.57-.82,1.43h-.08l.54.28h.07c.32,0,.52-.38.79-.54a8,8,0,0,1,1.11-.52c.52-.22,1.05-.42,1.59-.59a13.34,13.34,0,0,1,2.07-.52,9.61,9.61,0,0,1,1.61-.11l.54,0c.48,0,1.41.25,1.42.25s.94-.21,1.42-.25a11.13,11.13,0,0,1,2.16.09,13.22,13.22,0,0,1,2.06.52c.54.17,1.07.37,1.59.59a7.48,7.48,0,0,1,1.11.52c.28.16.47.52.79.54h.08l.53-.28h-.07l-.83-1.43.06-1.57a1.64,1.64,0,0,0,.43-.41,1.16,1.16,0,0,0,.06-.43L174,32.34a3,3,0,0,1-.72.53.87.87,0,0,1-.48,0,1.67,1.67,0,0,1-.47-.33,6.61,6.61,0,0,1-.95-.88A6.45,6.45,0,0,1,171,31a6,6,0,0,1-1.51.89,3.31,3.31,0,0,1-1.71-.05,1.57,1.57,0,0,1-.37-.22,3.55,3.55,0,0,0-3.86,0,1.57,1.57,0,0,1-.37.22,3.31,3.31,0,0,1-1.71.05,6.26,6.26,0,0,1-1.51-.89,4.87,4.87,0,0,1-.38.64,6.12,6.12,0,0,1-.95.88,1.54,1.54,0,0,1-.47.33.84.84,0,0,1-.47,0,2.87,2.87,0,0,1-.73-.53Z"/><path class="cls-4" d="M174.74,31.87a3.18,3.18,0,0,0,0-.61,1.87,1.87,0,0,0-.23-.52,3.44,3.44,0,0,0-.42-.43m-.1,2a1.13,1.13,0,0,0,.35-.05,1.81,1.81,0,0,0,.45-.46s.48.34.75.3a.51.51,0,0,0,.31-.25.62.62,0,0,0,.09-.42.53.53,0,0,0-.21-.26c-.16-.14-.46-.12-.57-.31a.67.67,0,0,1,0-.52,3.51,3.51,0,0,1,.55-.93c.12-.19.38-.32.41-.55s-.15-.34-.15-.34a2.27,2.27,0,0,0-.56.05,1.92,1.92,0,0,0-.82.44,2.41,2.41,0,0,0-.32.71c-.07.18-.17.56-.17.56a2.15,2.15,0,0,0-.64.09,1.24,1.24,0,0,0-.63.56.91.91,0,0,0,0,.67,1.07,1.07,0,0,0,.44.5,2.66,2.66,0,0,0,.71.21Zm-17.14-2a3.6,3.6,0,0,0-.41.43,1.43,1.43,0,0,0-.23.52,2.5,2.5,0,0,0,0,.61M155,28.55a.77.77,0,0,0-.15.34c0,.23.29.36.42.55a3.48,3.48,0,0,1,.54.93.72.72,0,0,1,0,.52c-.11.19-.41.17-.58.31a.59.59,0,0,0-.21.26.62.62,0,0,0,.09.42.51.51,0,0,0,.31.25c.27,0,.76-.3.76-.3a1.72,1.72,0,0,0,.44.46,1.16,1.16,0,0,0,.35.05,2.56,2.56,0,0,0,.71-.21,1.09,1.09,0,0,0,.45-.5.91.91,0,0,0,0-.67,1.26,1.26,0,0,0-.64-.56,2.06,2.06,0,0,0-.63-.09s-.11-.38-.18-.56a2.18,2.18,0,0,0-.32-.71,1.87,1.87,0,0,0-.82-.44,2.27,2.27,0,0,0-.56-.05Zm9.9,1.05.61-.18.61.18M165,31.06a2.47,2.47,0,0,1-.56-.72.55.55,0,0,1,0-.4c.08-.16.43-.34.43-.34a1.87,1.87,0,0,1-.65-.49.59.59,0,0,1,0-.45,1.21,1.21,0,0,1,.43-.59,3.18,3.18,0,0,1,.82-.39,3.18,3.18,0,0,1,.82.39,1.15,1.15,0,0,1,.43.59.64.64,0,0,1,0,.45,2,2,0,0,1-.65.49,1.26,1.26,0,0,1,.42.34.51.51,0,0,1,0,.4,2.31,2.31,0,0,1-.56.72l-.45,0Zm1.66-2a4.75,4.75,0,0,1,1.31.81.61.61,0,0,1,.16.4,3.33,3.33,0,0,1-.75,1.33l-1.46-.6H165l-1.46.6a3.33,3.33,0,0,1-.75-1.33.61.61,0,0,1,.16-.4,4.91,4.91,0,0,1,1.32-.81"/><path class="cls-4" d="M164.4,22.59l.59-.45h0a1.39,1.39,0,0,1-.33-.31.7.7,0,0,1-.08-.44.73.73,0,0,1,.33-.5,1.15,1.15,0,0,1,.56,0,1.19,1.19,0,0,1,.57,0,.75.75,0,0,1,.32.5.69.69,0,0,1-.07.44,1.38,1.38,0,0,1-.34.31h0l.59.45m3.84.37-.19.34m2.38-1.46-.55.07m.62.65-.84,0m-.11-1a.77.77,0,0,1,.34.33.73.73,0,0,1-.23.67c-.18.15-.68.11-.68.11m-13.27,2.45,1.24-.3c.59-.14,1.18-.31,1.77-.41a17.67,17.67,0,0,1,2-.26c.86-.06,2.57-.05,2.57-.05s1.72,0,2.57.05a17.67,17.67,0,0,1,2.05.26c.6.1,1.18.27,1.77.41l1.24.3M160.56,23l.2.34m-2.39-1.46.55.07m-.62.65.84,0m-.47,1.17s.92-.23,1.38-.33,1-.2,1.52-.27,1.19-.11,1.78-.14,2.11,0,2.11,0,1.41,0,2.11,0,1.19.07,1.78.14,1,.17,1.52.27,1.38.33,1.38.33m-12.43-1.06s-.5,0-.67-.11a.71.71,0,0,1-.23-.67c0-.18.4-.38.4-.38M163.93,27a22.84,22.84,0,0,0-2.61.26,17.26,17.26,0,0,0-2.65.71c-.81.3-1.67,1.66-2.34,1.11-.15-.11,0-.37.12-.54a3.37,3.37,0,0,1,.57-.92c.18-.19.58-.22.63-.48s-.26-.3-.32-.48a1.3,1.3,0,0,1,0-.73c.09-.3.48-.45.56-.75s-.18-.57-.06-.82.83-.2.88-.54c0-.17-.28-.22-.33-.38s0-.23,0-.35a1.27,1.27,0,0,0-.05-.48c-.06-.13-.27-.16-.31-.3a.42.42,0,0,1,.08-.39c.08-.08.27,0,.32-.07s-.19-.38-.27-.58a3.69,3.69,0,0,1-.3-.71c0-.2-.21-.5,0-.61s.4.24.59.38a2.68,2.68,0,0,1,.69.61c.12.18.05.47.21.62s.57,0,.77.21a.72.72,0,0,1,.27.63c0,.21-.55.2-.5.42s.5.23.75.18.25-.16.38-.25a2,2,0,0,1,.28-.21,1.64,1.64,0,0,1,.4-.06l-.16,0s-.23-.18-.26-.32a.48.48,0,0,1,.12-.36.56.56,0,0,1,.41-.16.49.49,0,0,1,.33.13.5.5,0,0,1,.12.35.4.4,0,0,1-.17.28,1,1,0,0,1-.33.11l.17,0,.44.62,1.94-.11s.24-.24.19-.37-.18-.2-.41-.19c-.63,0-.75-.5-.73-.88s.4-.53.69-.65.79.27.92,0-.42-.37-.51-.62a.43.43,0,0,1,0-.35,1.35,1.35,0,0,1,.68-.56,1.46,1.46,0,0,1,.37-.06,1.4,1.4,0,0,1,.37.06,1.37,1.37,0,0,1,.69.56.47.47,0,0,1,0,.35c-.08.25-.62.38-.51.62s.64-.1.92,0,.67.34.69.65-.1.91-.73.88c-.23,0-.36,0-.41.19s.19.37.19.37l1.94.11.45-.62.16,0a1,1,0,0,1-.33-.11.43.43,0,0,1-.17-.28.5.5,0,0,1,.12-.35.53.53,0,0,1,.34-.13.55.55,0,0,1,.4.16.44.44,0,0,1,.12.36c0,.14-.26.32-.26.32l-.15,0a1.58,1.58,0,0,1,.39.06,3.06,3.06,0,0,1,.29.21c.12.09.22.23.37.25s.7.07.75-.18-.45-.21-.5-.42a.72.72,0,0,1,.27-.63c.2-.17.58,0,.77-.21s.09-.44.22-.62a2.52,2.52,0,0,1,.69-.61c.18-.14.38-.49.58-.38s0,.41,0,.61a4.41,4.41,0,0,1-.29.71c-.09.2-.37.39-.27.58s.23,0,.31.07a.42.42,0,0,1,.08.39c0,.14-.25.17-.31.3a1.1,1.1,0,0,0,0,.48c0,.12.06.24,0,.35s-.36.21-.34.38c.05.34.73.24.88.54s-.14.56-.06.82.47.45.56.75a1.22,1.22,0,0,1,0,.73c-.06.18-.34.29-.31.48s.45.29.62.48a3.37,3.37,0,0,1,.57.92c.07.17.27.43.12.54-.67.55-1.53-.81-2.34-1.11a17.45,17.45,0,0,0-2.64-.71A23.24,23.24,0,0,0,167,27c-.51,0-1.53,0-1.53,0s-1,0-1.53,0Z"/><path class="cls-4" d="M166.21,17.2h-1.49M166,14.73c.2-.41-.14-.72-.49-1-.35.3-.68.61-.49,1m1,3.41c.28,0,.63.31.84.12s0-.26,0-.38c-.11-.28-.61-.34-.63-.64s.37-.38.45-.63a.5.5,0,0,0,0-.38c-.2-.48-1-.51-1.2-1-.07-.22.43-.48.49-.5.32-.14.71.19,1,0a.68.68,0,0,0,.44-.53c0-.25-.27-.46-.5-.56-.45-.19-1.19.43-1.46,0s.63-.81.51-1.24c-.05-.21-.51-.39-.51-.39s-.45.18-.51.39c-.12.43.77.87.52,1.24s-1-.22-1.46,0c-.23.1-.5.31-.51.56s.24.44.45.53.7-.19,1,0c.06,0,.56.28.5.5-.15.49-1,.52-1.21,1a.55.55,0,0,0,0,.38c.08.25.48.37.46.63s-.52.36-.64.64c-.05.12-.1.3,0,.38s.56-.1.85-.12a4.38,4.38,0,0,1,.53,0A4.56,4.56,0,0,1,166,18.14Z"/><path class="cls-6" d="M172.39,43.35,171.6,43c-.48-.17-1-.34-1.46-.47a10.42,10.42,0,0,0-1.47-.33,27.65,27.65,0,0,0-3.21,0,27.65,27.65,0,0,0-3.21,0,10.29,10.29,0,0,0-1.46.33c-.5.13-1,.3-1.47.47l-.79.32M173.28,27.1s-.88-.35-1.32-.5-.74-.26-1.13-.36-.94-.18-1.42-.25c-.68-.09-1.37-.16-2.06-.2s-1.89,0-1.89,0-1.25,0-1.88,0-1.38.11-2.07.2c-.48.07-.95.14-1.42.25s-.76.23-1.13.36-1.31.5-1.31.5m-1,8.79s1.28-.43,1.93-.63,1.33-.44,2-.59a20.84,20.84,0,0,1,2.48-.35c.81-.09,2.43-.18,2.43-.18s1.62.09,2.43.18a20.56,20.56,0,0,1,2.48.35c.69.15,1.35.38,2,.59s1.93.63,1.93.63"/></g><g id="silverkey"><g id="keybase"><path class="cls-7" d="M141.69,39.74l7.38,6.33s-.37.82-.53,1.24a9.65,9.65,0,0,0-.37,1.19c-.15.59-.31,1.81-.31,1.81l-8.61-7.89a2.61,2.61,0,0,1,2.44-2.68Z"/><path class="cls-7" d="M140.64,43.69l-1.77,2L140,46.74l-1.72,1.67-1.1-1.1-1.87,2v2.47l4.24,3.32L141,54l-.08-2.36,1.12.63,1.13-.69.07,2.13L142.3,53l-1,1.32-.1,2.34,3.2,2.84,3.87-3.44-.29-1-.17-.93-.09-1.83.14-2Z"/><path class="cls-7" d="M138.87,45.68l-.05,2.19L140,46.75Z"/><path class="cls-8" d="M144.51,57l-.13,2.5M143,49.3l0,2.32M142,50.36l.06,1.89m-1-2.66,0,2.11m-1.57,1.12,0,2.23m1.8-.7L144.51,57l3.29-2.89m-12.49-4.88,4.21,3.59,1.38-1.23-1.09-.92L141,49.56l.94.82L143,49.29l1.38,1.34-1.26,1,1.17,1.07-1.1,1"/><path class="cls-7" d="M168.56,63.49l3.55,3.26L172.9,69l-4.58-.48L165.72,66,163,63.41,151,53s.25-1,.41-1.42c.23-.68.5-1.35.77-2l.21-.5L165.73,61Z"/><path class="cls-7" d="M171.58,64c2,2.77,5.31,5.38,6.32,6.63s1.66,2.45.19,4.06-3.15.69-4.47-.19-3.62-3.75-6.91-5.94Z"/><path class="cls-7" d="M170.41,68.63l-2.56-1.16m3-2.79c.17.58,0,1.22.26,1.78a7.42,7.42,0,0,0,1,1.46,4.86,4.86,0,0,0-.75.16c-.34.14-.87.2-1,.56s.3.59.52.82a3.08,3.08,0,0,0,.75.55,4.34,4.34,0,0,0,1.42.65c.64.12,1.83-.78,2-.14,0,.27-.54.1-.79.22-.56.27-.85.88-.35,1.3.32.27.82.17,1.24.21s.86-.2,1.21,0,.92.81.71,1.23-1.06.42-1.46.14-.21-.69-.26-1.05c0-.11,0-.21,0-.32"/><circle class="cls-7" cx="187.06" cy="81.81" r="9.47"/><path class="cls-9" d="M183.52,82.21a3,3,0,1,0,2.95,3l1,0a3,3,0,1,0,2.95-3l.05-.58a3,3,0,1,0-3-3l-1-.09a3,3,0,1,0-3,2.95Z"/><circle class="cls-7" cx="187.06" cy="79.32" r="1.07"/><circle class="cls-7" cx="189.6" cy="81.81" r="1.07"/><circle class="cls-7" cx="187.11" cy="84.07" r="1.07"/><circle class="cls-7" cx="184.48" cy="81.81" r="1.07"/><path class="cls-9" d="M186.88,87.52a3.74,3.74,0,0,1-1.6,1.6,4.58,4.58,0,0,0,3.2,0A3.91,3.91,0,0,1,186.88,87.52Zm-5.59-5.86a3.8,3.8,0,0,1-1.6-1.6,4.63,4.63,0,0,0,0,3.2,3.91,3.91,0,0,1,1.6-1.6Zm11.63.27a3.8,3.8,0,0,0,1.6-1.6,4.63,4.63,0,0,1,0,3.2,3.91,3.91,0,0,0-1.6-1.6ZM187.19,76a3.74,3.74,0,0,0-1.6-1.6,4.6,4.6,0,0,1,3.21,0A3.87,3.87,0,0,0,187.19,76Z"/></g><g id="keydeco"><path class="cls-10" d="M141.7,39.72a1.85,1.85,0,0,0,0-.54,1.59,1.59,0,0,0-.48-.74,1.43,1.43,0,0,0-.67-.34,1.82,1.82,0,0,0-.8.06,2.74,2.74,0,0,0-.5.25l-1.08.44-.4,1.29a3.84,3.84,0,0,0-.29.64,1.55,1.55,0,0,0,0,.74,1.41,1.41,0,0,0,.46.74,1.34,1.34,0,0,0,.75.29,1.94,1.94,0,0,0,.61-.13,2.67,2.67,0,0,1,2.44-2.7Z"/><path class="cls-10" d="M139.28,38.39l-2.83-1.24-.23.22,1.54,2.79s.43-.64.68-.93.84-.84.84-.84Z"/><circle class="cls-10" cx="136.14" cy="36.91" r="1.16"/><path class="cls-10" d="M144.09,41.8a33.85,33.85,0,0,0,1.17,6.12L147.53,50c-.49-2.14-1.35-4.27-1.34-6.4Z"/><path class="cls-10" d="M147.51,44.73l-6.24-.47,2,1.82,5.71.25L149,46Z"/><path class="cls-10" d="M155.2,51.63a4.51,4.51,0,0,0-2.76,2.72c-.47,0-.9,0-1.06-.31A4.26,4.26,0,0,1,154,50.56C155.09,50.35,154.88,51.2,155.2,51.63Z"/><path class="cls-10" d="M157.21,53.52a4.51,4.51,0,0,0-2.76,2.72c-.47,0-.9,0-1.06-.31A4.27,4.27,0,0,1,156,52.45c1.1-.21.89.64,1.21,1.07Z"/><path class="cls-10" d="M180.05,72.64a5.57,5.57,0,0,0-1.1.11,2.71,2.71,0,0,1-.86,1.92,2.47,2.47,0,0,1-1.73.88h0s-.21,1.29.19,1.7,2,.28,2,.28l.13-.08A9.39,9.39,0,0,1,181,74.54l0-.09s.22-1.21-.15-1.57a.63.63,0,0,0-.81,0Z"/><circle class="cls-10" cx="194.35" cy="74.16" r="1.29"/><circle class="cls-10" cx="194.8" cy="89.1" r="1.29"/><circle class="cls-10" cx="180.3" cy="89.94" r="1.29"/></g></g><g id="goldkey"><g id="keybase-2" data-name="keybase"><path class="cls-10" d="M189.27,39.74l-7.38,6.33s.37.82.53,1.24a9.65,9.65,0,0,1,.37,1.19c.15.59.31,1.81.31,1.81l8.61-7.89a2.61,2.61,0,0,0-2.44-2.68Z"/><path class="cls-10" d="M190.32,43.69l1.77,2L191,46.74l1.72,1.67,1.1-1.1,1.87,2,0,2.47-4.25,3.32L190,54l.08-2.36-1.12.63-1.13-.69-.06,2.13.91-.67,1,1.32.1,2.34-3.19,2.84-3.88-3.44.29-1,.17-.93.09-1.83-.14-2Z"/><path class="cls-10" d="M192.09,45.68l0,2.19L191,46.75Z"/><path class="cls-8" d="M186.45,57l.13,2.5m1.36-10.2,0,2.32M189,50.36l-.06,1.89M190,49.59l0,2.11m1.57,1.12,0,2.23m-1.8-.7L186.45,57l-3.29-2.89m12.49-4.88-4.21,3.59-1.38-1.23,1.09-.92-1.21-1.15-.94.82-1.07-1.09-1.38,1.34,1.26,1-1.17,1.07,1.11,1"/><path class="cls-10" d="M162.4,63.49l-3.55,3.26L158.06,69l4.58-.48,2.6-2.58L168,63.41,180,53s-.25-1-.41-1.42c-.23-.68-.5-1.35-.77-2l-.21-.5L165.23,61Z"/><path class="cls-10" d="M159.38,64c-2,2.77-5.31,5.38-6.32,6.63s-1.66,2.45-.19,4.06,3.15.69,4.47-.19,3.62-3.75,6.91-5.94Z"/><path class="cls-10" d="M160.55,68.63l2.56-1.16m-3-2.79c-.18.58,0,1.22-.27,1.78a7.42,7.42,0,0,1-1,1.46,4.86,4.86,0,0,1,.75.16c.34.14.87.2,1,.56s-.3.59-.52.82a2.9,2.9,0,0,1-.75.55,4.34,4.34,0,0,1-1.42.65c-.64.12-1.83-.78-1.94-.14,0,.27.53.1.78.22.56.27.85.88.35,1.3-.32.27-.82.17-1.24.21s-.86-.2-1.21,0-.92.81-.71,1.23,1.06.42,1.46.14.21-.69.26-1.05c0-.11,0-.21,0-.32"/><circle class="cls-10" cx="143.9" cy="81.81" r="9.47"/><path class="cls-9" d="M147.44,82.21a3,3,0,1,1-2.95,3l-1,0a3,3,0,1,1-3-3l0-.58a3,3,0,1,1,3-3l1-.09a3,3,0,1,1,3,2.95Z"/><circle class="cls-10" cx="143.9" cy="79.32" r="1.07"/><circle class="cls-10" cx="141.37" cy="81.81" r="1.07"/><circle class="cls-10" cx="143.85" cy="84.07" r="1.07"/><circle class="cls-10" cx="146.48" cy="81.81" r="1.07"/><path class="cls-9" d="M144.08,87.52a3.74,3.74,0,0,0,1.6,1.6,4.58,4.58,0,0,1-3.2,0A3.85,3.85,0,0,0,144.08,87.52Zm5.59-5.86a3.8,3.8,0,0,0,1.6-1.6,4.63,4.63,0,0,1,0,3.2,3.91,3.91,0,0,0-1.6-1.6ZM138,81.93a3.8,3.8,0,0,1-1.6-1.6,4.63,4.63,0,0,0,0,3.2,3.91,3.91,0,0,1,1.6-1.6Zm5.73-5.9a3.74,3.74,0,0,1,1.6-1.6,4.58,4.58,0,0,0-3.2,0A3.91,3.91,0,0,1,143.77,76Z"/></g><g id="keydeco-2" data-name="keydeco"><path class="cls-7" d="M189.26,39.72a1.85,1.85,0,0,1,0-.54,1.59,1.59,0,0,1,.48-.74,1.43,1.43,0,0,1,.67-.34,1.82,1.82,0,0,1,.8.06,2.74,2.74,0,0,1,.5.25l1.08.44.4,1.29a3.14,3.14,0,0,1,.29.64,1.55,1.55,0,0,1,0,.74,1.41,1.41,0,0,1-.46.74,1.34,1.34,0,0,1-.75.29,1.94,1.94,0,0,1-.61-.13,2.67,2.67,0,0,0-2.44-2.7Z"/><path class="cls-7" d="M191.69,38.39l2.83-1.24.22.22-1.54,2.79s-.43-.64-.68-.93-.83-.84-.83-.84Z"/><circle class="cls-7" cx="194.82" cy="36.91" r="1.16"/><path class="cls-7" d="M186.87,41.8a33.85,33.85,0,0,1-1.17,6.12L183.43,50c.49-2.14,1.35-4.27,1.34-6.4Z"/><path class="cls-7" d="M183.45,44.73l6.24-.47-2,1.82-5.7.25-.09-.29Z"/><path class="cls-7" d="M175.76,51.63a4.51,4.51,0,0,1,2.76,2.72c.47,0,.9,0,1.06-.31A4.27,4.27,0,0,0,177,50.56C175.87,50.35,176.08,51.2,175.76,51.63Z"/><path class="cls-7" d="M173.75,53.52a4.51,4.51,0,0,1,2.76,2.72c.47,0,.9,0,1.06-.31A4.27,4.27,0,0,0,175,52.45c-1.1-.21-.89.64-1.21,1.07Z"/><path class="cls-7" d="M150.91,72.64a5.57,5.57,0,0,1,1.1.11,2.71,2.71,0,0,0,.86,1.92,2.47,2.47,0,0,0,1.73.88h0s.21,1.29-.19,1.7-2,.28-2,.28l-.13-.08A9.39,9.39,0,0,0,150,74.54l0-.09s-.22-1.21.16-1.57a.61.61,0,0,1,.8,0Z"/><circle class="cls-7" cx="136.61" cy="74.16" r="1.29"/><circle class="cls-7" cx="136.16" cy="89.1" r="1.29"/><circle class="cls-7" cx="150.66" cy="89.94" r="1.29"/></g></g><g id="cord"><path id="piece1" class="cls-11" d="M166.22,59.58c0,.39-.33.54-1,.54s-.94-.18-.94-.57.3-.49.94-.49S166.22,59.19,166.22,59.58Z"/><path id="piece1-2" data-name="piece1" class="cls-11" d="M166.68,60.63c0,.39-.33.54-1,.54s-.93-.19-.93-.58.3-.49.93-.49S166.68,60.23,166.68,60.63Z"/><path class="cls-11" d="M166.81,62c-.13.37-.49.41-1.09.2s-.82-.48-.69-.85.44-.37,1-.16.87.44.74.81Z"/><path id="piece2" class="cls-11" d="M166.82,63c-.08.39-.43.47-1,.35s-.88-.37-.8-.76.38-.42,1-.29.92.32.84.7Z"/><path id="piece2-2" data-name="piece2" class="cls-11" d="M167.11,64.17c-.08.39-.43.47-1.05.34s-.88-.36-.8-.75.38-.42,1-.29.92.32.84.7Z"/><path class="cls-11" d="M170.05,62.53c-.19-.05-.17-.39-.11-.57s.61-.67.61-.67a1.43,1.43,0,0,1,.07.6c-.09.27-.29.72-.57.64Z"/><path class="cls-11" d="M169.36,63.13c-.2,0-.23-.4-.18-.61s.71-.68.71-.68a1.65,1.65,0,0,1,0,.65c-.1.27-.29.7-.57.64Z"/><path class="cls-11" d="M168.58,64.27c-.32-.08-.28-.64-.2-.95s.27-.67.53-.6.3.6.23.91-.29.71-.56.64Z"/><path class="cls-11" d="M167.64,65.16c-.31-.07-.44-.56-.38-.87s.4-.76.72-.69.44.61.36.94S168,65.23,167.64,65.16Z"/><path class="cls-11" d="M167.48,65.7a.67.67,0,0,1-.84.41.93.93,0,0,1-.61-.92c.08-.39.59-.5.9-.38a.91.91,0,0,1,.55.89Z"/><path class="cls-11" d="M161.27,62.1a2.74,2.74,0,0,1,.54.35c.17.17.37.24.27.51s-.43.17-.6,0a2.34,2.34,0,0,1-.21-.84Z"/><path class="cls-11" d="M163.12,62.74c.38.08.38.52.18.79a1.47,1.47,0,0,1-1.19.58c-.41-.08-.36-.57-.13-.85a1.45,1.45,0,0,1,1.14-.52Z"/><path id="piece3" class="cls-11" d="M164.39,63.58c.36.16.25.59,0,.81a1.46,1.46,0,0,1-1.29.3c-.37-.17-.22-.63.06-.86a1.45,1.45,0,0,1,1.23-.25Z"/><path id="piece3-2" data-name="piece3" class="cls-11" d="M165.42,64.36c.35.16.25.59,0,.81a1.5,1.5,0,0,1-1.29.3c-.38-.17-.22-.63.05-.86a1.48,1.48,0,0,1,1.24-.25Z"/><path class="cls-11" d="M165.76,65.05c.35,0,.44.54.34.85s-.55.78-.92.72-.43-.59-.3-.92.54-.7.88-.65Z"/><path class="cls-11" d="M166.65,66.12c.29.17.22.7,0,1s-.72.63-1,.45-.2-.75,0-1,.69-.56,1-.39Z"/><path class="cls-11" d="M160.36,63.21c.31,0,.53.43.52.77s-.24.91-.57.93-.53-.49-.51-.84.25-.84.56-.86Z"/><path class="cls-11" d="M161.38,64.1c.3.07.36.57.26.89s-.51.79-.83.72-.36-.63-.23-1,.5-.72.8-.65Z"/><path class="cls-11" d="M162.32,64.73c.36.08.43.71.3,1.11s-.6,1-1,.89-.43-.78-.28-1.2.59-.89.95-.8Z"/><path class="cls-11" d="M163.08,65.5c.36,0,.65.51.68.93s-.22,1.13-.6,1.18-.68-.59-.68-1,.24-1,.6-1.08Z"/><path id="piece4" class="cls-11" d="M164,66.14c.33,0,.6.43.62.78s-.2.93-.55,1-.61-.48-.62-.85.22-.86.55-.9Z"/><path id="piece4-2" data-name="piece4" class="cls-11" d="M164.91,66.9c.34,0,.6.43.62.77s-.2.94-.54,1-.62-.48-.62-.85.22-.86.54-.9Z"/><path id="piece5" class="cls-11" d="M170.6,65.06c-.23.21-.71,0-.92-.21s-.38-.76-.13-1,.75,0,1,.26.32.73.08.93Z"/><path id="piece5-2" data-name="piece5" class="cls-11" d="M170.09,66c-.23.21-.71,0-.92-.21s-.38-.77-.13-1,.75,0,1,.26.33.72.09.93Z"/><path id="piece5-3" data-name="piece5" class="cls-11" d="M169.18,66.78c-.24.2-.71,0-.92-.21s-.38-.77-.13-1,.75,0,1,.27.32.72.09.93Z"/><path class="cls-11" d="M168.84,67.28c-.08.3-.58.41-.88.33s-.74-.43-.65-.75.63-.41.95-.31S168.93,67,168.84,67.28Z"/><path class="cls-11" d="M167.53,67.06c.26.18.2.77,0,1.09s-.66.69-.94.49-.19-.82,0-1.15.64-.61.9-.43Z"/><path class="cls-11" d="M166.25,67.74c.29.17.22.7,0,1s-.72.63-1,.45-.2-.75,0-1.05.69-.55,1-.39Z"/><path id="piece6" class="cls-11" d="M163.45,69.59c-.25.24,0,.83.2,1.12s.86.59,1.12.34,0-.87-.26-1.17-.81-.52-1.06-.29Z"/><path id="piece6-2" data-name="piece6" class="cls-11" d="M162.92,70.6c-.25.24-.06.82.2,1.12s.86.59,1.12.34,0-.88-.26-1.18-.82-.51-1.06-.28Z"/><path id="piece7" class="cls-11" d="M162.68,71.54c-.31.13-.35.74-.22,1.11s.58.87.91.73.35-.8.19-1.19-.56-.78-.88-.65Z"/><path id="piece7-2" data-name="piece7" class="cls-11" d="M161.91,72.62c-.31.13-.35.75-.22,1.12s.58.86.91.73.35-.81.19-1.19-.56-.78-.88-.66Z"/><path id="piece8" class="cls-11" d="M161.36,73.84c-.34.07-.47.68-.4,1.06s.43.95.78.87.47-.74.38-1.15-.43-.86-.76-.78Z"/><path id="piece8-2" data-name="piece8" class="cls-11" d="M160.62,75c-.34.08-.47.68-.4,1.06s.43,1,.79.87.46-.74.37-1.14-.43-.86-.76-.79Z"/><path id="piece9" class="cls-11" d="M160,76.19c-.34,0-.59.58-.59,1s.25,1,.61,1,.6-.64.59-1-.27-.93-.61-.92Z"/><path id="piece9-2" data-name="piece9" class="cls-11" d="M159.24,77.59c-.34,0-.58.58-.58,1s.25,1,.61,1,.6-.64.58-1-.27-.93-.61-.92Z"/><path id="piece9-3" data-name="piece9" class="cls-11" d="M158.36,78.9c-.34,0-.58.58-.58,1s.25,1,.61,1,.59-.65.58-1.06-.27-.92-.61-.91Z"/><path id="piece9-4" data-name="piece9" class="cls-11" d="M157.45,80c-.34,0-.58.58-.59,1s.26,1,.61,1,.6-.64.59-1-.27-.93-.61-.92Z"/><path id="piece9-5" data-name="piece9" class="cls-11" d="M156.51,81.05c-.34,0-.59.58-.59,1s.25,1,.61,1,.6-.64.59-1-.27-.93-.61-.92Z"/><path id="piece9-6" data-name="piece9" class="cls-11" d="M155.47,81.9c-.34,0-.59.58-.59,1s.26,1,.61,1,.6-.64.59-1.06-.27-.92-.61-.91Z"/><path id="piece9-7" data-name="piece9" class="cls-11" d="M154.48,82.81c-.34,0-.59.58-.59,1s.25,1,.61,1,.6-.64.59-1-.27-.93-.61-.92Z"/><path class="cls-11" d="M153.33,83.27l-.38,1.5s.21.54.44.52c.4-.05.51-.67.58-1.06C154,83.61,153.33,83.27,153.33,83.27Z"/><path class="cls-11" d="M177,84.22c.12.45,1.12.83,1.12.83l-.49-2C177.24,83,177,83.93,177,84.22Z"/><path class="cls-11" d="M176.94,82.59c-.32-.12-.77.3-.93.66s-.18,1,.16,1.16.8-.35,1-.73.12-1-.19-1.09Z"/><path id="piece10" class="cls-11" d="M175.83,81.7c-.34,0-.64.52-.67.91s.16,1,.52,1,.65-.59.67-1-.19-.94-.52-1Z"/><path id="piece10-2" data-name="piece10" class="cls-11" d="M174.85,80.7c-.34,0-.64.52-.67.91s.16,1,.52,1,.65-.59.67-1-.18-.94-.52-1Z"/><path id="piece10-3" data-name="piece10" class="cls-11" d="M173.94,79.56c-.34,0-.64.53-.67.92s.16,1,.52,1,.65-.59.67-1-.19-1-.52-1Z"/><path id="piece10-4" data-name="piece10" class="cls-11" d="M173,78.61c-.34,0-.63.52-.67.91s.16,1,.52,1,.66-.59.68-1-.19-.94-.53-1Z"/><path id="piece10-5" data-name="piece10" class="cls-11" d="M172.25,77.3c-.34,0-.64.52-.67.91s.16,1,.52,1.05.65-.59.67-1-.18-1-.52-1Z"/><path id="piece10-6" data-name="piece10" class="cls-11" d="M171.43,76.12c-.35,0-.64.52-.68.91s.16,1,.52,1,.66-.58.68-1-.19-.94-.52-1Z"/><path id="piece10-7" data-name="piece10" class="cls-11" d="M170.67,74.87c-.34,0-.64.53-.67.92s.16,1,.52,1,.65-.59.67-1-.18-1-.52-1Z"/><path id="piece10-8" data-name="piece10" class="cls-11" d="M170,73.43c-.34,0-.63.52-.67.91s.16,1,.52,1,.65-.59.68-1-.19-.94-.53-1Z"/><path id="piece10-9" data-name="piece10" class="cls-11" d="M169.27,72.12c-.34,0-.64.52-.67.91s.16,1,.52,1,.65-.59.67-1-.18-1-.52-1Z"/><path id="piece10-10" data-name="piece10" class="cls-11" d="M168.67,70.56c-.34,0-.64.53-.67.91s.16,1,.52,1,.65-.58.67-1-.18-1-.52-1Z"/><path class="cls-11" d="M167.29,69s-.12,2,.58,2.08c.44.08.79-1.09.79-1.09Z"/><path id="piece11" class="cls-11" d="M165.69,91.34c-.21.27.07.83.37,1.08s.94.46,1.16.17-.11-.87-.44-1.13-.88-.38-1.09-.12Z"/><path id="piece11-2" data-name="piece11" class="cls-11" d="M167,91.19c-.21.27.06.82.36,1.07s.94.46,1.16.17-.11-.87-.43-1.12-.88-.39-1.09-.12Z"/><path id="piece11-3" data-name="piece11" class="cls-11" d="M168.38,90.92c-.21.27.07.82.36,1.07s.94.46,1.16.18-.1-.87-.43-1.13-.88-.39-1.09-.12Z"/><path id="piece12" class="cls-11" d="M169.65,90.84c-.17.29.19.8.52,1s1,.31,1.17,0-.24-.84-.6-1-.93-.25-1.09,0Z"/><path id="piece12-2" data-name="piece12" class="cls-11" d="M171.11,90.6c-.17.3.19.8.52,1s1,.31,1.17,0-.24-.85-.59-1-.94-.25-1.1,0Z"/><path id="piece13" class="cls-11" d="M172.37,90.22c-.14.32.26.79.61,1s1,.22,1.17-.11-.32-.82-.69-1-1-.16-1.09.14Z"/><path id="piece13-2" data-name="piece13" class="cls-11" d="M173.75,89.82c-.14.31.27.78.62,1s1,.22,1.16-.11-.31-.82-.69-1-1-.16-1.09.15Z"/><path id="piece14" class="cls-11" d="M175.13,89.38c-.12.32.31.77.67.92s1,.16,1.16-.18-.37-.8-.75-1-1-.1-1.08.21Z"/><path id="piece14-2" data-name="piece14" class="cls-11" d="M176.53,88.93c-.12.32.31.76.67.91s1,.16,1.15-.18-.36-.8-.74-.94-1-.11-1.08.21Z"/><path id="piece14-3" data-name="piece14" class="cls-11" d="M177.88,88.36c-.12.32.31.77.67.92s1,.15,1.16-.18-.37-.8-.75-.95-1-.11-1.08.21Z"/><path id="piece14-4" data-name="piece14" class="cls-11" d="M179.33,87.76c-.12.32.3.77.66.92s1,.16,1.16-.18-.36-.8-.75-1-1-.1-1.07.21Z"/><path id="piece14-5" data-name="piece14" class="cls-11" d="M180.79,87.29c-.12.32.31.77.67.92s1,.16,1.15-.18-.36-.8-.74-1-1-.11-1.08.21Z"/><path id="piece14-6" data-name="piece14" class="cls-11" d="M181,86.14c-.12.32.31.77.67.92s1,.16,1.16-.18-.37-.8-.75-.94-1-.11-1.08.2Z"/><path class="cls-11" d="M180.64,85.8s1,.15,1.08-.21-1.13-.93-1.13-.93Z"/><path id="piece15" class="cls-11" d="M154,88.78c-.29.18-.23.79,0,1.13s.72.76,1,.57.2-.86,0-1.21-.69-.67-1-.49Z"/><path id="piece15-2" data-name="piece15" class="cls-11" d="M155.36,89.34c-.29.18-.22.8,0,1.14s.72.75,1,.56.2-.85,0-1.2-.69-.68-1-.5Z"/><path id="piece15-3" data-name="piece15" class="cls-11" d="M156.68,89.55c-.29.18-.22.79,0,1.13s.72.76,1,.57.2-.86,0-1.21-.69-.67-1-.49Z"/><path id="piece15-4" data-name="piece15" class="cls-11" d="M158.13,89.91c-.29.18-.23.79,0,1.13s.72.76,1,.57.2-.86,0-1.21-.69-.67-1-.49Z"/><path id="piece15-5" data-name="piece15" class="cls-11" d="M159.43,90.1c-.29.18-.22.79,0,1.13s.72.76,1,.57.2-.86,0-1.21-.69-.67-1-.49Z"/><path id="piece15-6" data-name="piece15" class="cls-11" d="M160.72,90.36c-.29.18-.22.8,0,1.14s.72.75,1,.56.2-.85,0-1.2-.69-.67-1-.5Z"/><path id="piece15-7" data-name="piece15" class="cls-11" d="M162,90.72c-.29.18-.22.8,0,1.14s.72.76,1,.57.2-.86,0-1.21-.69-.67-1-.5Z"/><path id="piece15-8" data-name="piece15" class="cls-11" d="M163.35,91c-.29.18-.23.79,0,1.13s.72.76,1,.57.2-.85,0-1.21-.7-.67-1-.49Z"/><path id="piece15-9" data-name="piece15" class="cls-11" d="M164.68,91.16c-.29.18-.22.8,0,1.14s.72.76,1,.57.2-.86,0-1.21-.69-.67-1-.5Z"/><path class="cls-11" d="M150.07,84.53c-.3-.15-.79.22-1,.56s-.28,1,0,1.17.84-.26,1-.63.22-.94-.09-1.1Z"/><path class="cls-11" d="M149.63,85.77c-.33-.12-.76.32-.91.68s-.14,1,.2,1.16.79-.38.93-.77.09-1-.22-1.07Z"/><path class="cls-11" d="M150,86.9c-.33-.08-.72.39-.84.77s0,1,.31,1.13.75-.45.86-.85,0-1-.33-1Z"/><path class="cls-11" d="M151.11,87.37c-.33-.1-.74.36-.86.73s-.08,1,.26,1.14.77-.42.89-.81,0-1-.29-1.06Z"/><path id="piece16" class="cls-11" d="M151.81,87.55c-.33.08-.46.69-.38,1.07s.46.94.81.85.45-.75.35-1.15-.45-.85-.78-.77Z"/><path id="piece16-2" data-name="piece16" class="cls-11" d="M153,88c-.34.08-.46.68-.38,1.07s.46.94.8.85.46-.75.36-1.15-.46-.86-.78-.77Z"/><path id="piece6-3" data-name="piece6" class="cls-11" d="M164.08,68.78c-.25.23-.06.82.2,1.11s.86.59,1.12.35,0-.88-.26-1.18-.82-.52-1.06-.28Z"/><path id="piece6-4" data-name="piece6" class="cls-11" d="M163.79,70.07c-.25.23,0,.82.2,1.11s.87.59,1.12.35,0-.88-.26-1.18-.81-.52-1.06-.28Z"/><path id="piece6-5" data-name="piece6" class="cls-11" d="M163.81,71.54c-.25.24-.06.83.2,1.12s.86.59,1.12.34,0-.88-.26-1.18-.82-.51-1.06-.28Z"/><path id="piece6-6" data-name="piece6" class="cls-11" d="M163.79,73.09c-.25.24,0,.82.2,1.12s.87.59,1.12.34,0-.88-.26-1.18-.81-.51-1.06-.28Z"/><path id="piece6-7" data-name="piece6" class="cls-11" d="M163.86,74.6c-.25.24-.06.82.2,1.12s.86.59,1.12.34,0-.88-.26-1.18-.82-.51-1.06-.28Z"/><path id="piece6-8" data-name="piece6" class="cls-11" d="M163.61,76c-.24.24-.05.82.21,1.12s.86.59,1.12.34,0-.88-.27-1.18-.81-.51-1.06-.28Z"/><path id="piece6-9" data-name="piece6" class="cls-11" d="M163.79,77.56c-.25.23,0,.82.2,1.11s.87.6,1.12.35,0-.88-.26-1.18-.81-.52-1.06-.28Z"/><path id="piece6-10" data-name="piece6" class="cls-11" d="M163.61,78.82c-.24.24-.05.83.21,1.12s.86.59,1.12.34,0-.87-.27-1.17-.81-.52-1.06-.29Z"/><path id="piece6-11" data-name="piece6" class="cls-11" d="M163.79,80.07c-.25.24,0,.82.2,1.12s.87.59,1.12.34,0-.88-.26-1.18-.81-.51-1.06-.28Z"/><path id="piece6-12" data-name="piece6" class="cls-11" d="M163.79,81.56c-.25.24,0,.82.2,1.12s.87.59,1.12.34,0-.88-.26-1.18-.81-.51-1.06-.28Z"/><path id="piece6-13" data-name="piece6" class="cls-11" d="M163.7,83c-.25.23,0,.82.2,1.11s.87.59,1.13.35,0-.88-.27-1.18-.81-.52-1.06-.28Z"/><path id="piece6-14" data-name="piece6" class="cls-11" d="M163.72,84.43c-.24.23-.05.82.21,1.11s.86.59,1.12.35,0-.88-.26-1.18-.82-.52-1.07-.28Z"/><path id="piece6-15" data-name="piece6" class="cls-11" d="M163.77,85.92c-.25.23-.06.82.2,1.11s.86.59,1.12.35,0-.88-.26-1.18-.82-.52-1.06-.28Z"/><path id="piece6-16" data-name="piece6" class="cls-11" d="M163.77,87.36c-.25.24-.06.82.2,1.12s.86.59,1.12.34,0-.88-.26-1.18-.82-.51-1.06-.28Z"/><path id="piece6-17" data-name="piece6" class="cls-11" d="M163.72,88.81c-.24.23-.05.82.21,1.11s.86.59,1.12.35,0-.88-.26-1.18-.82-.52-1.07-.28Z"/><path id="piece6-18" data-name="piece6" class="cls-11" d="M163.64,90.27c-.25.24-.06.83.2,1.12s.86.59,1.12.34,0-.88-.26-1.18-.82-.51-1.06-.28Z"/><path id="piece6-19" data-name="piece6" class="cls-11" d="M163.64,91.87c-.25.24-.06.83.2,1.12s.86.59,1.12.34,0-.87-.26-1.17-.82-.52-1.06-.29Z"/><path id="piece6-20" data-name="piece6" class="cls-11" d="M163.59,93.54c-.25.24-.05.82.2,1.12s.87.59,1.12.34,0-.88-.26-1.18-.81-.51-1.06-.28Z"/><path id="piece6-21" data-name="piece6" class="cls-11" d="M163.59,95.1c-.25.23-.05.82.2,1.11s.87.59,1.12.35,0-.88-.26-1.18-.81-.52-1.06-.28Z"/><path id="piece6-22" data-name="piece6" class="cls-11" d="M163.59,96.54c-.25.24-.05.83.2,1.12s.87.59,1.12.34,0-.88-.26-1.18-.81-.51-1.06-.28Z"/><path id="piece6-23" data-name="piece6" class="cls-11" d="M163.55,98.17c-.25.23-.06.82.2,1.11s.86.59,1.12.34,0-.87-.26-1.17-.82-.52-1.06-.28Z"/><path id="piece17" class="cls-11" d="M167.17,68.88c.18.27-.1.79-.38,1s-.87.4-1.06.12.14-.84.45-1.07.81-.33,1-.07Z"/><path id="piece17-2" data-name="piece17" class="cls-11" d="M167.37,70.06c.18.27-.1.79-.38,1s-.87.4-1.06.12.14-.84.45-1.07.81-.34,1-.07Z"/><path id="piece17-3" data-name="piece17" class="cls-11" d="M167.35,71.37c.17.27-.1.79-.38,1s-.87.4-1.06.12.14-.84.44-1.07.82-.33,1-.07Z"/><path id="piece17-4" data-name="piece17" class="cls-11" d="M167.32,72.71c.18.27-.09.79-.37,1s-.87.4-1.06.11.14-.84.44-1.07.82-.33,1-.06Z"/><path id="piece17-5" data-name="piece17" class="cls-11" d="M167.3,73.93c.18.27-.1.79-.38,1s-.87.4-1,.11.13-.83.44-1.06.81-.34,1-.07Z"/><path id="piece17-6" data-name="piece17" class="cls-11" d="M167.37,75.24c.18.27-.1.79-.38,1s-.87.4-1.06.12.14-.84.45-1.07.81-.34,1-.07Z"/><path id="piece17-7" data-name="piece17" class="cls-11" d="M167.28,76.51c.18.27-.1.79-.38,1s-.87.4-1.05.11.13-.83.44-1.06.81-.34,1-.07Z"/><path class="cls-11" d="M167.24,77.86c.2.28-.1.81-.41,1s-1,.41-1.17.12.15-.87.49-1.1.9-.35,1.09-.07Z"/><path id="piece18" class="cls-11" d="M167.16,79.14c.24.23.05.82-.21,1.11s-.86.59-1.12.35,0-.88.27-1.18.81-.52,1.06-.28Z"/><path id="piece18-2" data-name="piece18" class="cls-11" d="M167.2,80.63c.25.23.06.82-.2,1.11s-.86.59-1.12.34,0-.87.26-1.17.82-.52,1.06-.28Z"/><path id="piece18-3" data-name="piece18" class="cls-11" d="M167.22,82.09c.25.24.06.83-.2,1.12s-.86.59-1.12.34,0-.88.26-1.18.82-.51,1.06-.28Z"/><path id="piece18-4" data-name="piece18" class="cls-11" d="M167.18,83.67c.25.24,0,.82-.2,1.12s-.86.59-1.12.34,0-.88.26-1.18.82-.51,1.06-.28Z"/><path id="piece18-5" data-name="piece18" class="cls-11" d="M167.22,85.14c.25.23.06.82-.2,1.11s-.86.6-1.12.35,0-.88.26-1.18.82-.52,1.06-.28Z"/><path id="piece18-6" data-name="piece18" class="cls-11" d="M167.18,86.63c.25.23,0,.82-.2,1.11s-.86.6-1.12.35,0-.88.26-1.18.82-.52,1.06-.28Z"/><path id="piece18-7" data-name="piece18" class="cls-11" d="M167.2,88.12c.25.23.06.82-.2,1.11s-.86.59-1.12.35,0-.88.26-1.18.82-.52,1.06-.28Z"/><path id="piece18-8" data-name="piece18" class="cls-11" d="M167.2,89.63c.25.23.06.82-.2,1.11s-.86.6-1.12.35,0-.88.26-1.18.82-.51,1.06-.28Z"/><path id="piece18-9" data-name="piece18" class="cls-11" d="M167.14,91.14c.24.24.05.82-.21,1.12s-.86.59-1.12.34,0-.88.26-1.18.82-.51,1.07-.28Z"/><path id="piece18-10" data-name="piece18" class="cls-11" d="M167.22,92.52c.25.23.06.82-.2,1.11s-.86.6-1.12.35,0-.88.26-1.18.82-.51,1.06-.28Z"/><path id="piece18-11" data-name="piece18" class="cls-11" d="M167.22,94c.25.24.06.83-.2,1.12s-.86.59-1.12.34,0-.87.26-1.17.82-.52,1.06-.29Z"/><path id="piece18-12" data-name="piece18" class="cls-11" d="M167.18,95.52c.25.24,0,.82-.2,1.12s-.86.59-1.12.34,0-.88.26-1.18.82-.51,1.06-.28Z"/><path id="piece18-13" data-name="piece18" class="cls-11" d="M167.18,97.05c.25.24,0,.83-.2,1.12s-.86.59-1.12.34,0-.88.26-1.18.82-.51,1.06-.28Z"/><path class="cls-11" d="M164.79,108.69a5.65,5.65,0,0,0,3.52,0l-1.27-2"/><path class="cls-10" d="M167.61,103.42l-2.31-.59s0-2.57,1.48-2.35c1.22.19.88,3,.83,2.94Z"/><circle class="cls-10" cx="166.48" cy="99.54" r="0.94"/><path class="cls-11" d="M167.4,104.57a5.24,5.24,0,0,1,.34,3.9m.56.25c-.75-.61-2.67-.43-3.51,0-.32,0-1.2-6.08,1.88-5.93,2.83.14,1.82,6,1.63,6Z"/><path class="cls-11" d="M162.27,110a3.44,3.44,0,0,0,4,0L163.29,107"/><circle class="cls-10" cx="164.33" cy="100.65" r="0.94"/><path class="cls-10" d="M165.5,103.7l-2.39,0s-.31-2,1.17-2c1.24-.07,1.26,2.07,1.22,2.07Z"/><path class="cls-11" d="M164.35,109.6A7.2,7.2,0,0,1,164,106m-.69,3.68a4.64,4.64,0,0,1-.22-3.74m3.17,4.14c-.36-.46-2.94-.65-3.95,0-.37,0-1.36-6.86,2.12-6.69,3.18.16,2,6.75,1.83,6.72Z"/></g></g></svg>