<svg id="Layer_1" data-name="Layer 1" xmlns="http://www.w3.org/2000/svg" xmlns:xlink="http://www.w3.org/1999/xlink" viewBox="0 0 220 128"><defs><style>.cls-1{fill:none;}.cls-2{clip-path:url(#clip-path);}.cls-3{fill:#e81e25;}.cls-4{fill:#fff;}</style><clipPath id="clip-path"><rect id="_Clipping_Path_" data-name="&lt;Clipping Path&gt;" class="cls-1" width="219.43" height="128"/></clipPath></defs><title>Flag_rect_Canada</title><g id="CANADA"><g id="_Group_" data-name="&lt;Group&gt;"><g id="_Clip_Group_" data-name="&lt;Clip Group&gt;"><g class="cls-2"><rect id="_Path_" data-name="&lt;Path&gt;" class="cls-3" width="51.62" height="128"/><rect id="_Path_2" data-name="&lt;Path&gt;" class="cls-3" x="167.81" width="51.62" height="128"/><rect id="_Path_3" data-name="&lt;Path&gt;" class="cls-4" x="51.62" width="116.19" height="128"/><g id="_Clip_Group_2" data-name="&lt;Clip Group&gt;"><g class="cls-2"><path id="_Path_4" data-name="&lt;Path&gt;" class="cls-3" d="M109.71,16.59,102.1,31.38c-.86,1.61-2.41,1.44-4,.56l-5.52-3,4.11,22.73c.87,4.16-1.9,4.16-3.27,2.37L83.84,42.83l-1.56,5.69a1.84,1.84,0,0,1-2.16,1.34L68,47.19l3.19,12.1c.69,2.7,1.21,3.82-.69,4.52l-4.34,2.12L87.07,83.65a2.88,2.88,0,0,1,.94,3l-1.82,6.27,20.86-2.52c.64,0,1.71.57,1.71,1.34l-1,22.94h3.51l-.56-22.89c0-.75,1-1.39,1.6-1.39,7.21.87,13.67,1.66,20.88,2.52l-1.85-6.27a3,3,0,0,1,1-3l20.94-17.72-4.34-2.12c-1.91-.7-1.37-1.82-.69-4.52l3.2-12.1-12.16,2.67a1.85,1.85,0,0,1-2.16-1.34l-1.56-5.69L126,54.05c-1.37,1.79-4.14,1.79-3.27-2.37L126.78,29l-5.5,3c-1.55.88-3.11,1.05-4-.56Z"/></g></g></g></g></g></g></svg>