<svg id="Layer_1" data-name="Layer 1" xmlns="http://www.w3.org/2000/svg" xmlns:xlink="http://www.w3.org/1999/xlink" viewBox="0 0 220 128"><defs><style>.cls-1{fill:none;}.cls-2{clip-path:url(#clip-path);}.cls-3{fill:#419e4b;}.cls-4{fill:#bc0030;}.cls-5{fill:#f3d02f;}.cls-6{fill:#fff;}</style><clipPath id="clip-path"><rect id="_Clipping_Path_" data-name="&lt;Clipping Path&gt;" class="cls-1" width="220" height="128"/></clipPath></defs><title>Flag_rect_Saint Kitts and Nevis</title><g id="SAINT_KITTS" data-name="SAINT KITTS"><g id="_Group_" data-name="&lt;Group&gt;"><g id="_Clip_Group_" data-name="&lt;Clip Group&gt;"><g class="cls-2"><polygon id="_Path_" data-name="&lt;Path&gt;" class="cls-3" points="0 0 0 100.2 150.31 0 0 0"/><polygon id="_Path_2" data-name="&lt;Path&gt;" class="cls-4" points="69.08 128 220 128 220 27.39 69.08 128"/><polygon id="_Path_3" data-name="&lt;Path&gt;" class="cls-5" points="150.31 0 0 100.2 0 110.77 166.13 0 150.31 0"/><polygon id="_Path_4" data-name="&lt;Path&gt;" class="cls-5" points="53.25 128 69.08 128 220 27.43 220 16.9 53.25 128"/><path id="_Compound_Path_" data-name="&lt;Compound Path&gt;" d="M67.57,94.87l-3.94-.16-9.54-.37,11.22-7.49-3.64-13,10.56,8.34,11.21-7.49-3.3,9-1.38,3.69,10.58,8.34-13.47-.56L71.2,107.83ZM143,44.56l-3.91-.17L129.56,44l11.22-7.46-3.64-13,10.56,8.35,11.19-7.46-3.31,8.95-1.35,3.68,10.56,8.35-13.46-.56-4.66,12.64ZM166.13,0,0,110.77V128H53.25L220,16.84V0Z"/><polygon id="_Path_5" data-name="&lt;Path&gt;" class="cls-6" points="158.89 24.46 147.7 31.92 137.14 23.57 140.78 36.56 129.56 44.02 139.1 44.39 155.58 33.41 158.89 24.46"/><polygon id="_Path_6" data-name="&lt;Path&gt;" class="cls-6" points="146.67 57.52 151.34 44.88 164.79 45.44 154.23 37.09 155.58 33.41 139.1 44.39 143.01 44.56 146.67 57.52"/><polygon id="_Path_7" data-name="&lt;Path&gt;" class="cls-6" points="83.44 74.74 72.23 82.23 61.67 73.89 65.31 86.85 54.09 94.33 63.63 94.71 80.14 83.72 83.44 74.74"/><polygon id="_Path_8" data-name="&lt;Path&gt;" class="cls-6" points="71.2 107.83 75.87 95.19 89.34 95.75 78.76 87.41 80.14 83.72 63.63 94.71 67.56 94.87 71.2 107.83"/></g></g></g></g></svg>