<svg id="Layer_1" data-name="Layer 1" xmlns="http://www.w3.org/2000/svg" viewBox="0 0 220 128"><defs><style>.cls-1{fill:#c22228;}.cls-2{fill:#25974d;}</style></defs><title>Flag_rect_Morocco</title><g id="MOROCCO"><g id="_Group_" data-name="&lt;Group&gt;"><g id="_Group_2" data-name="&lt;Group&gt;"><rect id="_Path_" data-name="&lt;Path&gt;" class="cls-1" width="220" height="128"/><path class="cls-2" d="M136.26,56.31h-20L110,36.25l-6.2,20.06h-20L100,68.7,93.78,88.76,116.6,71.32l-1.31-4.24-5.29,4L96.16,60.55l6.33,0,.84-2.68-2,6.61,3.43,2.62,2-6.55h6.55l5.28,17.11-5.13-3.89L110,76.38l16.23,12.36-6.19-20Zm-34.8,21.35,1.94-6.32-2-1.56,5.2,4ZM108,56.31,110,50l2,6.33Zm9.47,4.22h6.32l-5.1,3.93.91,3Z"/></g></g></g></svg>