<svg id="Layer_1" data-name="Layer 1" xmlns="http://www.w3.org/2000/svg" xmlns:xlink="http://www.w3.org/1999/xlink" viewBox="0 0 220 128"><defs><style>.cls-1{fill:none;}.cls-2{clip-path:url(#clip-path);}.cls-3{fill:#2d3d84;}.cls-4{fill:#292c2f;}.cls-5,.cls-7{fill:#fff;}.cls-6{fill:#d71e34;}.cls-7{fill-rule:evenodd;}</style><clipPath id="clip-path"><rect id="_Clipping_Path_" data-name="&lt;Clipping Path&gt;" class="cls-1" width="220" height="128"/></clipPath></defs><title>Flag_rect_Cuba</title><g id="CUBA"><g id="_Group_" data-name="&lt;Group&gt;"><g id="_Clip_Group_" data-name="&lt;Clip Group&gt;"><g class="cls-2"><rect id="_Path_" data-name="&lt;Path&gt;" class="cls-3" width="220" height="128"/><path id="_Compound_Path_" data-name="&lt;Compound Path&gt;" class="cls-4" d="M0,89.66H0ZM0,38.34H0Z"/><path id="_Compound_Path_2" data-name="&lt;Compound Path&gt;" class="cls-5" d="M0,102.44H220V76.88H0ZM0,51.12H220V25.56H0Z"/><polygon id="_Path_2" data-name="&lt;Path&gt;" class="cls-6" points="0 0 0 128 110.67 64.11 0 0"/><polygon id="_Path_3" data-name="&lt;Path&gt;" class="cls-7" points="36.95 42.66 30.35 62.87 40.47 66.17 36.95 42.66"/><polygon id="_Path_4" data-name="&lt;Path&gt;" class="cls-7" points="36.95 42.66 43.35 62.87 33.24 66.17 36.95 42.66"/><polygon id="_Path_5" data-name="&lt;Path&gt;" class="cls-7" points="57.19 57.51 35.92 57.51 35.92 68.02 57.19 57.51"/><polygon id="_Path_6" data-name="&lt;Path&gt;" class="cls-7" points="57.19 57.51 39.85 69.87 33.66 61.42 57.19 57.51"/><polygon id="_Path_7" data-name="&lt;Path&gt;" class="cls-7" points="16.52 57.51 33.87 69.87 40.06 61.42 16.52 57.51"/><polygon id="_Path_8" data-name="&lt;Path&gt;" class="cls-7" points="16.52 57.51 38 57.51 38 68.02 16.52 57.51"/><polygon id="_Path_9" data-name="&lt;Path&gt;" class="cls-7" points="49.35 81.21 42.74 61.02 32.63 64.31 49.35 81.21"/><polygon id="_Path_10" data-name="&lt;Path&gt;" class="cls-7" points="49.35 81.21 32.23 68.64 38.4 60.18 49.35 81.21"/><polygon id="_Path_11" data-name="&lt;Path&gt;" class="cls-7" points="24.36 81.21 41.5 68.64 35.31 60.18 24.36 81.21"/><polygon id="_Path_12" data-name="&lt;Path&gt;" class="cls-7" points="24.36 81.21 30.97 61.02 41.09 64.31 24.36 81.21"/></g></g></g></g></svg>