<svg id="Layer_1" data-name="Layer 1" xmlns="http://www.w3.org/2000/svg" viewBox="0 0 220 128"><defs><style>.cls-1,.cls-12,.cls-13,.cls-14,.cls-15,.cls-16,.cls-17,.cls-18,.cls-19,.cls-20,.cls-5,.cls-6{fill:#006b3f;}.cls-2,.cls-24,.cls-25,.cls-8{fill:#fcd116;}.cls-3{fill:#fff;}.cls-11,.cls-23,.cls-4{fill:#d41c30;}.cls-10,.cls-11,.cls-12,.cls-13,.cls-14,.cls-15,.cls-16,.cls-17,.cls-18,.cls-19,.cls-20,.cls-21,.cls-22,.cls-23,.cls-24,.cls-25,.cls-5,.cls-6,.cls-7,.cls-8,.cls-9{stroke:#000;}.cls-11,.cls-5{stroke-width:0.21px;}.cls-23,.cls-24,.cls-6{stroke-width:0.53px;}.cls-7,.cls-9{fill:#9c4a00;}.cls-7{stroke-width:0.14px;}.cls-8{stroke-width:0.13px;}.cls-9{stroke-width:0.09px;}.cls-10,.cls-21,.cls-22{fill:#9461c9;}.cls-10,.cls-17{stroke-width:0.12px;}.cls-12{stroke-width:0.31px;}.cls-13{stroke-width:0.33px;}.cls-14{stroke-width:0.33px;}.cls-15{stroke-width:0.33px;}.cls-16{stroke-width:0.54px;}.cls-18{stroke-width:0.3px;}.cls-19{stroke-width:0.35px;}.cls-20{stroke-width:0.45px;}.cls-21{stroke-width:0.13px;}.cls-22{stroke-width:0.13px;}.cls-25{stroke-width:0.16px;}</style></defs><title>Flag_rect_Dominica</title><path class="cls-1" d="M0,0H220V128H0Z"/><path class="cls-2" d="M0,48H220V69.33H0Z"/><path class="cls-3" d="M0,58.67H220V80H0Z"/><path d="M0,58.67H220V69.33H0Z"/><path class="cls-2" d="M94,0h21.33V128H94Z"/><path class="cls-3" d="M104.67,0H126V128H104.67Z"/><path d="M104.67,0h10.66V128H104.67Z"/><circle class="cls-4" cx="110" cy="64" r="32"/><g id="a"><path id="b" class="cls-5" d="M109,38.74l1-2.93.93,2.88,3.13.05-2.47,1.89,1.12,3.21-2.71-2-2.66,1.88,1-3.11-2.43-1.84Z"/><path id="b-2" data-name="b" class="cls-5" d="M111,89.26l-1,2.93-.93-2.88-3.13,0,2.47-1.89-1.12-3.21,2.71,2,2.66-1.88-1,3.11,2.43,1.84Z"/></g><g id="a-2" data-name="a"><path id="b-3" data-name="b" class="cls-5" d="M124,43l2.55-1.76-.94,2.87,2.5,1.88L125,46l-1,3.26-1-3.19-3.26,0,2.66-1.92-.88-2.91Z"/><path id="b-4" data-name="b" class="cls-5" d="M96,85,93.43,86.8l.94-2.87-2.5-1.88L95,82l1-3.26,1,3.19,3.26,0-2.66,1.92.88,2.91Z"/></g><g id="a-3" data-name="a"><path id="b-5" data-name="b" class="cls-5" d="M133.71,55.22l3.1.07-2.45,1.78.92,3-2.56-1.77L130,60.34l1.05-3.18-2.62-1.95,3.28,0,1-2.88Z"/><path id="b-6" data-name="b" class="cls-5" d="M86.29,72.78l-3.1-.07,2.45-1.78-.92-3,2.56,1.77L90,67.66l-1,3.18,2.62,2-3.28,0-1,2.88Z"/></g><g id="a-4" data-name="a"><path id="b-7" data-name="b" class="cls-5" d="M134.34,70.83l2.47,1.88h-3l-1,3-1-2.94-3.4.07,2.72-2-1-3.11,2.64,1.94,2.5-1.74Z"/><path id="b-8" data-name="b" class="cls-5" d="M85.66,57.17l-2.47-1.88h3l1-3,1,2.94,3.4-.07-2.72,2,1,3.11-2.64-1.94-2.5,1.74Z"/></g><g id="a-5" data-name="a"><path id="b-9" data-name="b" class="cls-5" d="M125.68,83.83l.89,3L124.12,85l-2.55,1.8.89-3-2.8-1.94H123l1-3.08,1,3.12,3,.06Z"/><path id="b-10" data-name="b" class="cls-5" d="M94.32,44.17l-.89-3L95.88,43l2.55-1.8-.89,3,2.8,1.94H97l-1,3.08-1-3.12-3-.06Z"/></g><ellipse class="cls-6" cx="114.39" cy="72.46" rx="1.91" ry="9.43" transform="translate(-4.78 8.17) rotate(-4.01)"/><ellipse class="cls-6" cx="116.26" cy="72.44" rx="2.02" ry="9.43" transform="translate(-4.79 8.33) rotate(-4.02)"/><ellipse class="cls-6" cx="115.38" cy="72.95" rx="1.62" ry="10.42" transform="translate(-4.74 8.09) rotate(-3.94)"/><path class="cls-7" d="M100.57,77.35c1.63-.07.92-.94,1.75-1.41a1.92,1.92,0,0,1,2.35.42c.35.58.07,1.16.52,1.16s12.78-.51,13.23,0a1.4,1.4,0,0,1,.06,1.82c-.46.38-16,.55-16.59.16A6.83,6.83,0,0,1,100.57,77.35Z"/><path class="cls-8" d="M109.28,78.55c0,1.23,1.79.88,1.82,1.91s-3.06.07-3.09-1.93c.13-2,3.06-3,3.1-1.84C111.14,77.64,109.31,77.32,109.28,78.55Z"/><path class="cls-8" d="M110.35,78.56c0,1.23,1.8.89,1.82,1.91s-3,.07-3.08-1.92,3.06-3,3.1-1.84C112.21,77.65,110.38,77.33,110.35,78.56Z"/><path class="cls-8" d="M111.51,78.52c0,1.23,1.79.88,1.82,1.91s-3.06.07-3.09-1.93c.13-2,3.06-3,3.1-1.84C113.37,77.61,111.54,77.29,111.51,78.52Z"/><path class="cls-8" d="M112.58,78.53c0,1.24,1.8.89,1.82,1.92s-3.05.06-3.08-1.93c.12-2,3.06-3,3.1-1.84C114.44,77.62,112.61,77.3,112.58,78.53Z"/><ellipse class="cls-9" cx="117.71" cy="78.38" rx="1.06" ry="1.04" transform="translate(16.67 177.32) rotate(-78.06)"/><ellipse class="cls-6" cx="111.46" cy="74.84" rx="0.93" ry="2.05" transform="translate(-6.62 10.95) rotate(-5.46)"/><ellipse class="cls-6" cx="109.89" cy="74.72" rx="0.93" ry="2.05" transform="translate(-6.61 10.8) rotate(-5.46)"/><ellipse class="cls-6" cx="108.77" cy="72.71" rx="0.93" ry="2.05" transform="translate(-6.42 10.68) rotate(-5.46)"/><ellipse class="cls-6" cx="110.36" cy="72.62" rx="0.9" ry="2.26" transform="translate(-6.47 10.95) rotate(-5.52)"/><ellipse class="cls-6" cx="112.56" cy="72.64" rx="0.9" ry="2.12" transform="translate(-6.44 11.11) rotate(-5.49)"/><ellipse class="cls-6" cx="111.35" cy="71.91" rx="0.9" ry="2.12" transform="translate(-6.37 10.99) rotate(-5.49)"/><ellipse class="cls-6" cx="109.83" cy="70.87" rx="0.9" ry="2.12" transform="matrix(1, -0.1, 0.1, 1, -6.28, 10.84)"/><ellipse class="cls-6" cx="108.42" cy="70.23" rx="0.9" ry="2.12" transform="translate(-6.23 10.7) rotate(-5.49)"/><path class="cls-10" d="M106.86,52.76s-3.13,2.71-2.78,10.06S111,73.68,111,73.68s1.66-2.1,1.47-8c-.47-8.67-3.54-12.5-3.54-12.5Z"/><ellipse class="cls-6" cx="113.9" cy="75.08" rx="2.05" ry="0.93" transform="translate(29.54 182.28) rotate(-85.19)"/><ellipse class="cls-6" cx="112.38" cy="74.68" rx="2.05" ry="0.93" transform="translate(28.55 180.4) rotate(-85.19)"/><ellipse class="cls-6" cx="111.63" cy="72.5" rx="2.05" ry="0.93" transform="translate(30.03 177.66) rotate(-85.19)"/><ellipse class="cls-6" cx="113.21" cy="72.7" rx="2.26" ry="0.9" transform="translate(31.4 179.5) rotate(-85.25)"/><ellipse class="cls-6" cx="115.37" cy="73.11" rx="2.12" ry="0.9" transform="translate(32.91 181.99) rotate(-85.23)"/><ellipse class="cls-6" cx="114.31" cy="72.18" rx="2.12" ry="0.9" transform="translate(32.87 180.08) rotate(-85.23)"/><ellipse class="cls-6" cx="113" cy="70.87" rx="2.12" ry="0.9" transform="translate(32.97 177.58) rotate(-85.23)"/><ellipse class="cls-6" cx="111.72" cy="70" rx="2.12" ry="0.9" transform="translate(32.67 175.51) rotate(-85.23)"/><ellipse class="cls-11" cx="113.49" cy="65.38" rx="2.64" ry="8.1" transform="translate(-16.65 50.58) rotate(-23.46)"/><ellipse class="cls-12" cx="111.46" cy="57.77" rx="1.02" ry="1.15" transform="translate(51.71 168.18) rotate(-88.98)"/><ellipse class="cls-13" cx="112.32" cy="56.33" rx="1.02" ry="1.03" transform="translate(54 167.64) rotate(-88.98)"/><ellipse class="cls-13" cx="110.93" cy="56.31" rx="1.02" ry="1.03" transform="translate(52.66 166.22) rotate(-88.98)"/><ellipse class="cls-14" cx="111.24" cy="55.26" rx="0.95" ry="1.08" transform="translate(54.01 165.49) rotate(-88.98)"/><ellipse class="cls-14" cx="111.12" cy="54.05" rx="0.95" ry="1.08" transform="matrix(0.02, -1, 1, 0.02, 55.1, 164.19)"/><ellipse class="cls-13" cx="109.6" cy="55.5" rx="1.02" ry="1.03" transform="translate(52.17 164.1) rotate(-88.98)"/><ellipse class="cls-15" cx="109.92" cy="54.2" rx="1" ry="1.03" transform="matrix(0.02, -1, 1, 0.02, 53.77, 163.13)"/><ellipse class="cls-12" cx="108.21" cy="54.23" rx="1.02" ry="1.15" transform="translate(52.07 161.46) rotate(-88.98)"/><ellipse class="cls-14" cx="110.33" cy="52.54" rx="0.95" ry="1.08" transform="translate(55.83 161.92) rotate(-88.98)"/><ellipse class="cls-15" cx="108.89" cy="52.73" rx="1" ry="1.03" transform="translate(54.23 160.66) rotate(-88.98)"/><ellipse class="cls-13" cx="106.7" cy="54.28" rx="1.02" ry="1.03" transform="translate(50.53 160) rotate(-88.98)"/><ellipse class="cls-15" cx="107.06" cy="53.53" rx="1" ry="1.03" transform="translate(51.64 159.62) rotate(-88.98)"/><ellipse class="cls-15" cx="107.5" cy="52.69" rx="1" ry="1.03" transform="translate(52.9 159.23) rotate(-88.98)"/><ellipse class="cls-16" cx="114.25" cy="64.12" rx="3.34" ry="9.65" transform="translate(-16.15 51.51) rotate(-23.78)"/><ellipse class="cls-6" cx="117.01" cy="65.67" rx="0.65" ry="2.02" transform="translate(-16.58 53.09) rotate(-23.92)"/><path class="cls-17" d="M116.71,65.66c2.73,3.33,2.39,5.44,2.1,7.23a20.69,20.69,0,0,0-4.06-6.69c-2.73-3.32-1.37-5.66-1.18-6.89A14.1,14.1,0,0,0,116.71,65.66Z"/><path class="cls-17" d="M117,68.35c2.73,3.33,2.39,5.44,2.1,7.23A21.07,21.07,0,0,0,115,68.89c-2.73-3.33-1.37-5.66-1.18-6.89A14.07,14.07,0,0,0,117,68.35Z"/><path class="cls-17" d="M117,70.52c2.8,3.27,2.5,5.39,2.25,7.18a21,21,0,0,0-4.2-6.6c-2.8-3.27-1.48-5.63-1.32-6.87A14.22,14.22,0,0,0,117,70.52Z"/><ellipse class="cls-18" cx="115.1" cy="62.53" rx="1.18" ry="3.6" transform="translate(-15.64 54.52) rotate(-25.01)"/><ellipse class="cls-19" cx="114.01" cy="64.38" rx="1.03" ry="2.96" transform="translate(-16.4 52.73) rotate(-24.35)"/><ellipse class="cls-19" cx="112.72" cy="65.63" rx="1.03" ry="2.96" transform="translate(-16.73 49.61) rotate(-23.16)"/><ellipse class="cls-20" cx="113.79" cy="61.08" rx="0.82" ry="2.26" transform="translate(-15.36 60.5) rotate(-27.97)"/><ellipse class="cls-20" cx="112.69" cy="61.93" rx="0.82" ry="2.25" transform="translate(-15.53 52.19) rotate(-24.45)"/><path class="cls-17" d="M111.84,60.64c.81,2,1.13,3.75.73,4s-1.39-1.22-2.2-3.19"/><ellipse class="cls-20" cx="112.56" cy="59.61" rx="0.82" ry="2.25" transform="translate(-14.58 51.93) rotate(-24.45)"/><ellipse class="cls-20" cx="111.21" cy="60.26" rx="0.83" ry="2.25" transform="translate(-14.74 48.63) rotate(-23.18)"/><path class="cls-17" d="M110.43,58c.79,1.34,1.21,2.58.94,2.79s-1.11-.72-1.9-2.06"/><path class="cls-17" d="M111,57.07c.78,1.33,1.2,2.58.94,2.78s-1.12-.72-1.9-2.05"/><path class="cls-17" d="M113.42,57.26c1.09,1.82,1.68,3.52,1.31,3.8s-1.56-1-2.65-2.81"/><path class="cls-17" d="M111.8,56.3c.79,1.48,1.22,2.85,1,3.07s-1.11-.79-1.9-2.27"/><path class="cls-21" d="M111.73,54.17c-.52.53,0,1.52.47,1.88s3.58,3.68,5.71,1C116.2,57,113,53,111.73,54.17Z"/><path class="cls-21" d="M111.36,52.59c-.53.53,0,1.52.47,1.88s3.57,3.69,5.71,1C115.83,55.43,112.63,51.41,111.36,52.59Z"/><path class="cls-21" d="M110.88,51.08c-.53.53,0,1.52.47,1.87s3.57,3.69,5.71,1C115.35,53.92,112.15,49.9,110.88,51.08Z"/><path class="cls-21" d="M109.84,49.35c-.53.53,0,1.52.47,1.87s3.57,3.69,5.71,1C114.31,52.19,111.11,48.17,109.84,49.35Z"/><path class="cls-22" d="M106.1,47.69a4.71,4.71,0,0,1,4.63-.25c1.29.63,3.44,3.21,5.06,3.82a3.74,3.74,0,0,1-2.56-.31,6,6,0,0,1-3.41,1.4c-2,.29-3.73-.24-4.33-1.3A2.77,2.77,0,0,1,106.1,47.69Z"/><ellipse class="cls-23" cx="108.4" cy="49.3" rx="0.54" ry="0.93" transform="translate(57.18 156.8) rotate(-88.98)"/><ellipse class="cls-24" cx="105.55" cy="51.49" rx="1.3" ry="0.79" transform="translate(-11.34 40.1) rotate(-20.44)"/><ellipse cx="108.35" cy="49.26" rx="0.29" ry="0.34" transform="translate(57.17 156.72) rotate(-88.98)"/><path class="cls-25" d="M106.35,50a1.13,1.13,0,0,1-.9,1.18,2.76,2.76,0,0,0-1.49,2c-1-2.39-.38-3.4.72-3.64C105.63,49.23,106.2,49.26,106.35,50Z"/></svg>