<svg id="Layer_1" data-name="Layer 1" xmlns="http://www.w3.org/2000/svg" xmlns:xlink="http://www.w3.org/1999/xlink" viewBox="0 0 220 128"><defs><style>.cls-1{fill:none;}.cls-2{clip-path:url(#clip-path);}.cls-3{fill:#d92a2c;}.cls-4{fill:#27a267;}.cls-5{fill:#fdc82c;}.cls-6{fill:#f3cd2d;}</style><clipPath id="clip-path"><rect id="_Clipping_Path_" data-name="&lt;Clipping Path&gt;" class="cls-1" width="219.45" height="128"/></clipPath></defs><title>Flag_rect_Vanuatu</title><g id="VANUATU"><g id="_Group_" data-name="&lt;Group&gt;"><g id="_Clip_Group_" data-name="&lt;Clip Group&gt;"><g class="cls-2"><rect id="_Path_" data-name="&lt;Path&gt;" class="cls-3" width="219.45" height="64"/><rect id="_Path_2" data-name="&lt;Path&gt;" class="cls-4" y="64" width="219.45" height="64"/><polygon id="_Path_3" data-name="&lt;Path&gt;" points="0 0 0 128 124.15 64 0 0"/><rect id="_Path_4" data-name="&lt;Path&gt;" y="52.55" width="219.45" height="22.9"/><polygon id="_Path_5" data-name="&lt;Path&gt;" class="cls-5" points="0 118.9 106.51 64 0 9.08 0 118.9"/><rect id="_Path_6" data-name="&lt;Path&gt;" class="cls-5" y="60.63" width="219.45" height="6.74"/><polygon id="_Path_7" data-name="&lt;Path&gt;" points="0 111.32 91.81 64 0 16.66 0 111.32"/><g id="_Clip_Group_2" data-name="&lt;Clip Group&gt;"><g class="cls-2"><path id="_Path_8" data-name="&lt;Path&gt;" class="cls-5" d="M26,76.24v7.3c6.33,0,18.8-4.88,18.8-20.52S31.45,44.46,27.49,44.46,11.22,47.29,11.22,60.11s12.06,14,14.42,14S36.92,72,35.91,62.37c0,2.72-3.08,8.48-9.55,8.48S15.87,66,15.87,61.3s3.91-11.09,10.72-11.09,11.83,6,11.83,12.16S33.58,76.24,26,76.24Z"/><path id="_Path_9" data-name="&lt;Path&gt;" class="cls-6" d="M20.38,66.75l.38.24A28.92,28.92,0,0,1,31.85,55.27c-1,.56-6.45,3.24-11.47,11.48Z"/><g id="_Group_2" data-name="&lt;Group&gt;"><path id="_Compound_Path_" data-name="&lt;Compound Path&gt;" class="cls-6" d="M20.8,67.16l-.47-.32c2.18-3.78,6-8.72,11.33-11.59h0a26.92,26.92,0,0,0-4.36,3.23,29.54,29.54,0,0,1,4.36-3.23l.24.11A29,29,0,0,0,20.88,67l-.08.12Zm2.48-4.34a32.89,32.89,0,0,0-2.78,4l.19.06a22.42,22.42,0,0,1,2.59-4.05Z"/></g><path id="_Path_10" data-name="&lt;Path&gt;" class="cls-5" d="M21.16,65.57s-.92-1.92-.09-2.75.42,2.24.42,2.24l.38-.51s-.58-2.34.06-2.83.3,2.24.3,2.24l.39-.48s-.41-2.27.17-2.69.25,2.13.25,2.13l.42-.51s-.31-2.16.43-2.67.07,2,.07,2l.49-.52s-.2-2,.41-2.43S25,60.7,25,60.7l.44-.47s-.13-1.85.47-2.26.05,1.75.05,1.75l.46-.44s-.12-1.85.65-2.2-.14,1.73-.14,1.73l.51-.44s.18-2.17.82-2.37-.31,1.91-.31,1.91l.46-.37s.27-1.85,1-2.06-.43,1.68-.43,1.68l.44-.35s.54-1.85,1.2-2.05-.69,1.73-.69,1.73l.45-.3s.73-1.67,1.33-1.78S31,55.78,31,55.78l.57-.33s.95-1.74,1.29-1.2-1.36,1.31-1.36,1.31l-.55.31s2-.95,2.28-.46-2.8.79-2.8.79l-.47.34s2-.55,1.77,0-2.25.4-2.25.4l-.47.34s2-.49,1.75,0-2.25.43-2.25.43L28,58s2-.51,1.7.09-2.55.57-2.55.57l-.55.52s2.09-.71,1.93-.15S26,59.9,26,59.9l-.55.52s2.26-.75,1.6-.06a4.69,4.69,0,0,1-2.28.87l-.66.79s2.22-1.34,1.91-.58-2.51,1.25-2.51,1.25l-.42.55s2-1.16,1.8-.51-2.33,1.33-2.33,1.33l-.38.49s2.38-1.4,2.16-.69-2.42,1.22-2.42,1.22l-.3.44s2.17-1.25,2.19-.64-2.55,1.2-2.55,1.2Z"/><path id="_Path_11" data-name="&lt;Path&gt;" class="cls-6" d="M33.18,66.75l-.37.24A28.85,28.85,0,0,0,21.73,55.27c1,.56,6.43,3.24,11.45,11.48Z"/><g id="_Group_3" data-name="&lt;Group&gt;"><path id="_Compound_Path_2" data-name="&lt;Compound Path&gt;" class="cls-6" d="M32.75,67.16l0-.12a29,29,0,0,0-11-11.68l.08,0,0-.06.07-.08.13.07h0c5.37,2.89,9.14,7.81,11.35,11.44l-.53.47ZM29.57,61.9a23.63,23.63,0,0,1,3.27,4.93l.3-.18a44.2,44.2,0,0,0-3.57-4.75Z"/></g><path id="_Path_12" data-name="&lt;Path&gt;" class="cls-5" d="M32.4,65.57s.94-1.92.11-2.75-.44,2.24-.44,2.24l-.36-.51s.57-2.34-.05-2.83S31.32,64,31.32,64L31,63.48s.4-2.27-.19-2.69-.21,2.13-.21,2.13l-.45-.51s.33-2.16-.41-2.67-.09,2-.09,2l-.47-.52s.2-2-.41-2.43-.09,1.87-.09,1.87l-.45-.47s.14-1.85-.48-2.26,0,1.75,0,1.75l-.47-.44s.12-1.85-.66-2.2.14,1.73.14,1.73l-.5-.44S26,56.2,25.39,56s.28,1.91.28,1.91l-.48-.37s-.24-1.85-.94-2.06.45,1.68.45,1.68l-.48-.35S23.73,55,23,54.76s.69,1.73.69,1.73l-.44-.3s-.73-1.67-1.33-1.78.67,1.37.67,1.37l-.56-.33s-1-1.74-1.29-1.2,1.32,1.31,1.32,1.31l.58.31s-2-.95-2.27-.46,2.79.79,2.79.79l.47.34s-2-.55-1.77,0,2.22.4,2.22.4l.49.34s-2-.49-1.76,0,2.24.43,2.24.43l.49.4s-2-.51-1.69.09,2.53.57,2.53.57l.58.52s-2.11-.71-1.93-.15,2.56.84,2.56.84l.53.52s-2.24-.75-1.57-.06a4.6,4.6,0,0,0,2.28.87l.64.79s-2.21-1.34-1.9-.58,2.49,1.25,2.49,1.25l.45.55s-2-1.16-1.81-.51,2.33,1.33,2.33,1.33l.36.49s-2.35-1.4-2.16-.69,2.44,1.22,2.44,1.22l.3.44s-2.17-1.25-2.19-.64,2.53,1.2,2.53,1.2Z"/></g></g></g></g></g></g></svg>