<svg id="Layer_1" data-name="Layer 1" xmlns="http://www.w3.org/2000/svg" viewBox="0 0 220 128"><defs><style>.cls-1{fill:#cf142b;}.cls-2{fill:#fff;}.cls-3{fill:#e60d2e;}.cls-4,.cls-8{fill:#96877d;}.cls-5{fill:#ccc;}.cls-6{fill:#d0d0d0;}.cls-7{fill:none;stroke:#96877d;stroke-width:0.11px;}.cls-8{stroke:#000;stroke-width:0.04px;}</style></defs><title>Flag_rect_Malta</title><rect class="cls-1" x="109.72" width="109.72" height="128"/><rect class="cls-2" width="109.72" height="128"/><path class="cls-3" d="M18.46,17.67v9.7h9.7a3.47,3.47,0,0,0,3.23,3.23v9.7h9.7V30.6a3.48,3.48,0,0,0,3.23-3.23H54v-9.7h-9.7a3.47,3.47,0,0,0-3.23-3.23V4.74h-9.7v9.7a3.47,3.47,0,0,0-3.23,3.23Z"/><path class="cls-4" d="M19.11,18.32v8.4H28.8A3.47,3.47,0,0,0,32,30v9.7h8.4V30a3.47,3.47,0,0,0,3.23-3.23h9.7v-8.4h-9.7a3.47,3.47,0,0,0-3.23-3.24V5.39H32v9.69a3.48,3.48,0,0,0-3.24,3.24Z"/><path class="cls-5" d="M19.43,18.64V26.4h9.7a3.47,3.47,0,0,0,3.23,3.23v9.7h7.76v-9.7a3.48,3.48,0,0,0,3.23-3.23h9.7V18.64h-9.7a3.47,3.47,0,0,0-3.23-3.23V5.71H32.36v9.7a3.47,3.47,0,0,0-3.23,3.23Z"/><g id="vi"><path class="cls-4" d="M31.75,15.29a1.75,1.75,0,0,1-.34,2.4A1.75,1.75,0,0,1,29,18a1.76,1.76,0,0,1,.34-2.4A1.76,1.76,0,0,1,31.75,15.29Z"/><path class="cls-6" d="M28.9,17l.23-.23.91.45-.46-.91.23-.23.92,1.83L28.9,17Z"/><path class="cls-6" d="M30.27,15.63l.23-.22,1.37,1.37-.23.23Z"/></g><g id="vi-2" data-name="vi"><path class="cls-4" d="M43.47,18a1.74,1.74,0,0,1-2.4-.34,1.75,1.75,0,0,1-.35-2.4,1.75,1.75,0,0,1,2.4.34A1.76,1.76,0,0,1,43.47,18Z"/><path class="cls-6" d="M41.75,15.18l.23.23-.46.91.92-.46.23.23L40.84,17l.91-1.83Z"/><path class="cls-6" d="M43.12,16.55l.23.23L42,18.15l-.23-.23Z"/></g><g id="vi-3" data-name="vi"><path class="cls-4" d="M40.72,29.75a1.75,1.75,0,0,1,.35-2.4,1.75,1.75,0,0,1,2.4-.35,1.76,1.76,0,0,1-.35,2.4A1.76,1.76,0,0,1,40.72,29.75Z"/><path class="cls-6" d="M43.58,28l-.23.23-.91-.46.45.92-.22.23-.92-1.83,1.83.91Z"/><path class="cls-6" d="M42.21,29.4l-.23.23-1.37-1.37.23-.23Z"/></g><g id="vi-4" data-name="vi"><path class="cls-4" d="M29,27a1.75,1.75,0,0,1,2.4.35,1.74,1.74,0,0,1,.34,2.4,1.76,1.76,0,0,1-2.4-.35A1.75,1.75,0,0,1,29,27Z"/><path class="cls-6" d="M30.73,29.86l-.23-.23.45-.91-.91.45L29.81,29,31.64,28l-.91,1.83Z"/><path class="cls-6" d="M29.35,28.49l-.22-.23,1.37-1.37.23.23Z"/></g><circle class="cls-7" cx="36.24" cy="22.52" r="6.79"/><circle class="cls-7" cx="36.24" cy="22.52" r="5.17"/><circle cx="33.65" cy="28.01" r="0.32"/><circle cx="38.82" cy="28.01" r="0.32"/><path d="M36,28v.34h-.43c-.43,0-.43.34,0,.34H36V29c0,.35.38.4.41,0l0-.36h.43c.43,0,.43-.34,0-.34h-.43V28A.22.22,0,1,0,36,28Z"/><path d="M29.92,24.19l.45-.1-.05-.21a.14.14,0,0,0-.06-.1.24.24,0,0,0-.13,0v0l.38-.09v0a.19.19,0,0,0-.09,0,.1.1,0,0,0,0,.05.28.28,0,0,0,0,.09l.05.21.35-.09.11,0a.05.05,0,0,0,0-.05.11.11,0,0,0,0-.08v0h0l.12.49h0v0a.13.13,0,0,0-.07-.1h-.13l-.73.18a.32.32,0,0,0-.11,0l0,0a.11.11,0,0,0,0,.08v0h0l-.2-.84.24-.07v0a.29.29,0,0,0-.1.07.18.18,0,0,0,0,.09.72.72,0,0,0,0,.13l.06.25Zm-.28-2a.56.56,0,0,1,.19-.39.61.61,0,0,1,.44-.14.64.64,0,0,1,.43.19.55.55,0,0,1,.15.42.52.52,0,0,1-.19.39.62.62,0,0,1-.45.14.58.58,0,0,1-.44-.21.54.54,0,0,1-.13-.4Zm.06,0a.29.29,0,0,0,.1.25.62.62,0,0,0,.42.14.74.74,0,0,0,.44-.09.32.32,0,0,0,.13-.24.34.34,0,0,0-.11-.28.61.61,0,0,0-.4-.13.72.72,0,0,0-.45.09.35.35,0,0,0-.13.26Zm1.68-2.13-.11.29-.65.18a.08.08,0,0,1,0,.06v.05l.32.12c.07,0,.11,0,.13,0a.11.11,0,0,0,.07-.08l0,0h0l-.18.46h0l0,0A.11.11,0,0,0,31,21s-.05,0-.11-.07l-.7-.26a.22.22,0,0,0-.14,0s-.05,0-.07.08l0,0h0l.15-.4a.88.88,0,0,1,.12-.24A.38.38,0,0,1,30.3,20a.3.3,0,0,1,.34.14.37.37,0,0,1,0,.24l.4-.1a.59.59,0,0,0,.19-.08.34.34,0,0,0,.1-.13Zm-.85.56v0a.35.35,0,0,0,0-.26.23.23,0,0,0-.14-.15.31.31,0,0,0-.19,0,.28.28,0,0,0-.13.15.86.86,0,0,0,0,.13l.45.17ZM33,16.79l.23.29,0,0A.43.43,0,0,0,33,17a.34.34,0,0,0-.27.06.37.37,0,0,0-.19.33.58.58,0,0,0,.11.35.66.66,0,0,0,.22.22.49.49,0,0,0,.25.08.38.38,0,0,0,.21-.07.39.39,0,0,0,.1-.08.86.86,0,0,0,.07-.1l-.18-.28c0-.05-.06-.08-.08-.09s0,0,0,0a.12.12,0,0,0-.09,0l0,0,.38-.24v0l0,0a.1.1,0,0,0,0,.08s0,.06.06.12l.19.3-.12.17a.76.76,0,0,1-.17.13.58.58,0,0,1-.54.1.55.55,0,0,1-.32-.24.72.72,0,0,1-.1-.29.57.57,0,0,1,.07-.34.51.51,0,0,1,.21-.23l.1-.06.15,0a.08.08,0,0,0,.06,0s0,0,0,0l0-.05,0,0Zm1.9.13-.44.12,0,.2v.1a.08.08,0,0,0,0,0,.2.2,0,0,0,.11,0v0l-.36.09v0a.18.18,0,0,0,.08-.06.44.44,0,0,0,0-.18l.15-1h0l.64.83a.32.32,0,0,0,.12.12.16.16,0,0,0,.12,0v0L35,17.3v0a.12.12,0,0,0,.08-.05,0,0,0,0,0,0,0,.28.28,0,0,0-.06-.1l-.11-.15Zm0-.05-.31-.41-.08.51.39-.1Zm2,0h0l-.11.31-.9,0v0h0a.1.1,0,0,0,.11,0,.31.31,0,0,0,0-.13l0-.75c0-.07,0-.11,0-.13A.1.1,0,0,0,36,16H36v0l.53,0v0l-.13,0a.09.09,0,0,0-.06,0,.38.38,0,0,0,0,.13l0,.73a.25.25,0,0,0,0,.1s0,0,0,0h.22a.44.44,0,0,0,.18,0,.3.3,0,0,0,.11-.06.76.76,0,0,0,.09-.16Zm1.55.41,0,0-.19.27-.85-.28v0h0a.14.14,0,0,0,.11,0,.33.33,0,0,0,.06-.12l.23-.71a.19.19,0,0,0,0-.14.1.1,0,0,0-.08-.06l0,0v0l.5.17v0l-.13,0-.06,0s0,.05-.05.12l-.23.69c0,.05,0,.08,0,.1l0,0,.12.05.08,0a.63.63,0,0,0,.19,0,.2.2,0,0,0,.11,0l.14-.12Zm1.25.67-.37-.26-.17.1a.3.3,0,0,0-.08.07,0,0,0,0,0,0,0,.23.23,0,0,0,.07.08v0l-.3-.21,0,0,.09,0a.62.62,0,0,0,.18-.08l.88-.55,0,0-.23,1a.39.39,0,0,0,0,.18s0,.06.06.09v0l-.38-.26,0,0s.07,0,.09,0,0,0,.05,0l0-.12,0-.17Zm0-.07.11-.5-.43.27.32.23Zm1.38.25.19.26L41,19.47l.54-.4c.06,0,.09-.08.09-.1a.1.1,0,0,0,0-.1l0,0,0,0,.24.32,0,0,0,0a.14.14,0,0,0-.1-.06.24.24,0,0,0-.11.06l-.79.58,0,0,.3-1.18-.58.43c-.06,0-.09.08-.09.1a.11.11,0,0,0,0,.1l0,0,0,0-.24-.32,0,0,0,0a.12.12,0,0,0,.09.06s.06,0,.12-.06l.65-.48a.54.54,0,0,0,0-.11.25.25,0,0,0,0-.08l0-.07,0,0Zm1.47,2.71-.25.1,0,0a.17.17,0,0,0,.09-.06.2.2,0,0,0,0-.09.3.3,0,0,0,0-.12l-.05-.15-.84.29c-.07,0-.11.05-.12.07a.2.2,0,0,0,0,.11v0h0l-.16-.46h0v0a.15.15,0,0,0,.08.08s.06,0,.13,0l.83-.3,0-.13-.05-.11a.19.19,0,0,0-.09,0A.31.31,0,0,0,42,20v0l.26-.08.32.9Zm-.92,2.06,0-.31.52-.42V22l-.34,0-.13,0a.13.13,0,0,0,0,.1v.05h0l0-.5h0v0a.11.11,0,0,0,.06.11h.12l.75,0c.08,0,.12,0,.14,0a.15.15,0,0,0,0-.1v0h0l0,.43a1.07,1.07,0,0,1,0,.27.38.38,0,0,1-.09.15.23.23,0,0,1-.17.07.22.22,0,0,1-.19-.06.31.31,0,0,1-.12-.21l-.33.26a.6.6,0,0,0-.14.15.34.34,0,0,0,0,.16ZM42.2,22v0a.44.44,0,0,0,.09.25.22.22,0,0,0,.19.07.21.21,0,0,0,.17-.08.24.24,0,0,0,.06-.18.39.39,0,0,0,0-.13l-.48,0Zm.32,2.39-.1.4h0v0a.08.08,0,0,0,0-.07l0-.09a.77.77,0,0,0-.1-.12l-.35-.38-.29-.07a.2.2,0,0,0-.13,0s-.05,0-.06.09v0h0l.12-.47h0v0a.14.14,0,0,0,0,.11l.12,0,.26.07.55-.19.13,0,.07-.07s0,0,0-.05h0l-.13.48h0v0a.11.11,0,0,0,0-.08.08.08,0,0,0,0-.05l-.12,0-.42.14.29.31a.31.31,0,0,0,.1.08h0l0,0,0-.06Z"/><path class="cls-8" d="M39.93,23.51a1.06,1.06,0,0,1,.3,0s0,.08,0,.11a.79.79,0,0,0,.25,0l-.12.08a.39.39,0,0,1,.16.1.46.46,0,0,1-.23,0,.31.31,0,0,1,0,.16.62.62,0,0,1-.36-.24"/><path class="cls-8" d="M39.48,23.36c-.06.16-.53-.14-.53-.14a.86.86,0,0,0,.52.37"/><path class="cls-8" d="M33.6,26.38h5.52l.43-.34-.71-.38-1.1-.37-.44-.24-.8,0-.68.36-.93.11-.22.25-.69.06-1.08,0,1.8.28-1.48-.08.38.33Z"/><path class="cls-8" d="M36.57,24.8c-.69-.38-.89.54-1.19.76.4.07.71-.31,1-.49.26.71.67.24.67.24s.43.68,1,.37a.3.3,0,0,0,.33,0s.21,0,.25-.05.23-.1.23-.1.24,0,.29-.12c.35.06.82-.72.82-.72l.14-.28.21,0s0-.14-.1-.13a.14.14,0,0,0-.18-.11c0-.05-.05-.09-.05-.09-.2.05-.21.55-.21.55s-.34.26-.47.33c0-.29-.48-.67-.38-.86s.4.29.68.2.4-.44.41-.71a5.15,5.15,0,0,0-.26-.49h-.18l-.15-.37s-.32.21-.32.39.34.34.34.34a.49.49,0,0,1-.37.06c0,.19.22.15.31.16a.39.39,0,0,0,.17.2s.08.21-.13.19-.46-.51-.76-.28.14.67.14.67a1.16,1.16,0,0,0-.45.53c-.68-.58-1.08-.31-1.84-.15Z"/><path class="cls-8" d="M35.58,23.82c.28.27.08.72.2.8s.28,0,.28,0a2,2,0,0,0,.83-.09c.23.13.14-.06.28,0,.13.32.55.26.55.26a3,3,0,0,0-.62-.51,1.93,1.93,0,0,1-.81.11c-.1,0,0-.14-.09-.21.2-.2,0-.67-.06-.85-.44-.29-1,.21-.56.58Z"/><path class="cls-8" d="M33.69,23c-.36.1-1-.46-1.27-.24s-.15.74,0,1-.28.35-.4.5,0,.31,0,.31l.13.09,0,.19.07.23s.07.06.09,0,0,.23.15.25a1,1,0,0,1,0-.42s.26,0,.33-.09-.07-.35-.07-.35h.08a.47.47,0,0,1-.11-.24s.36-.12.35-.39-.58-.56-.37-.7.65.4,1,.14.12,0,.12,0,.16-.36-.19-.27Z"/><path class="cls-8" d="M35.53,19.19c-.47-.2-1.45-.21-2-.48a.38.38,0,0,0-.35.28c-.25,0-.42.38-.38.46-.46-.18-.67.54-.52.68-.39,0-.34.52-.38.65-.13.31,0,.41.27.3a.16.16,0,0,1-.12.23c.67.77,1.05-.48,1.64-.47a2.15,2.15,0,0,0,1-.58l.29,0,.52-1.11Z"/><circle class="cls-8" cx="36.15" cy="18.64" r="0.71"/><path class="cls-8" d="M34.91,24.19a1.59,1.59,0,0,1-1.23-1.12c.4-1.6,2.5-.77,2.68-2a3.65,3.65,0,0,1,.54-2.24,1,1,0,0,1,.47-.33.42.42,0,0,1,0,.29A7.24,7.24,0,0,1,38.5,19a.51.51,0,0,1,.06.38c0,.12-.15.09-.15.09a.43.43,0,0,1-.42.12,1.27,1.27,0,0,1-.53.16s.76.81.63,1.05a1.76,1.76,0,0,1,.4.43,2.42,2.42,0,0,0,.68-.52,7,7,0,0,1,1,.35l.6.49s-.35.23-.51-.08c-.19,0-.6-.43-1.16-.29a1.26,1.26,0,0,1-.57.85,1.52,1.52,0,0,1,.8.1l.72.58.38.65s-.34.06-.48-.39c-.13.37-.13-.23-.65-.5a.38.38,0,0,1-.37-.08,3.42,3.42,0,0,1-1.35.26c-.37.12-.65.43-1,.6s-.49.09-.49.09h-.3c0,.19,0,.47-.19.52.11.11-.08.6-.26.68.09.32.34.41.61.57a.37.37,0,0,1,.39,0,1.88,1.88,0,0,1,.32.54,1.71,1.71,0,0,1-.43,0c-.1,0-.11-.15-.23-.12-.74-.66-1.13-.4-1.2-.55s.18-.55.1-.81Z"/><path class="cls-8" d="M33.13,21.26c0-.05.31,0,.31,0l.5.31,1,.65.36.52-.65-.21-.88-.76-.48-.31s-.2-.2-.16-.25Z"/><path class="cls-8" d="M39.08,22.91c-.35-.09-1.21.95-1.21.95l.65.7S38.54,23.36,39.08,22.91Z"/><path class="cls-8" d="M34.85,20a.74.74,0,0,0,0,.93c0,.29.27.89.47.95a5.44,5.44,0,0,0,1.42.21,1.51,1.51,0,0,0,.77,1.28.2.2,0,0,0,0,.17c0,.05.25.07.26,0a.7.7,0,0,0,.58.13,7.13,7.13,0,0,0-.82-.68,4.37,4.37,0,0,1-.44-1.23,1.33,1.33,0,0,0-.92-.4l0-.79,0-.9L36,19.55a.3.3,0,0,0,.1-.07c.08,0,.22-.12.24-.16s.14,0,.15,0,0-.18.05-.26c.24-.21,0-.66-.4-.67s-.44.44-.43.47,0,.21,0,.24l-.16.11a.56.56,0,0,0-.44,0c-.25.09-.53.22-.54.38a.52.52,0,0,0-.33.29c-.1,0-.22.06-.44.4-.37.17-.39,1-.39,1a.61.61,0,0,0-.11.23c0,.08,0,.15.08.14a.11.11,0,0,0,.11.08.11.11,0,0,0,.13.07s.15,0,.16,0,0-.22,0-.23.14.08.17.05,0-.1,0-.13-.12-.06-.15-.19a.64.64,0,0,1,.07-.3s.41-.32.46-.6c.3,0,.47-.24.56-.34Z"/><path class="cls-8" d="M34.13,18.85c.1-.23.43-.21.43-.21s.12-.31.58-.12c.17-.14.62.05.62.05a.51.51,0,0,1,.39-.2.49.49,0,0,1,.46.49c-.23.06-.62-.18-.91-.11s-.46.2-.56.34c-.27,0-.57-.25-1-.24Z"/><path class="cls-8" d="M35,19.23c.1-.06.35-.17.52,0a2.67,2.67,0,0,0,.46.38l.31.13.14.08-.09,1.43c-.29-.29-.56-.35-.77-.69-.11-.15,0-.51-.22-.75s-.39-.39-.35-.54Z"/><path class="cls-8" d="M35.74,19.64s.16,0,.21,0,.11,0,.12.09.11.05.11.09.08.12.08.12L36.2,20a.22.22,0,0,1-.07-.12s-.12,0-.14-.09a.14.14,0,0,1-.13-.1c-.06,0-.12-.08-.12-.08Z"/><path class="cls-8" d="M37.12,18.71c-.09-.1-.26,0-.26,0l-.44.75-.19.16v.59l.16.55-.06.43a1.14,1.14,0,0,0,.25-.33,1.85,1.85,0,0,0-.09-.47.76.76,0,0,1,0-.63c.16-.42.52-.76.61-1Z"/><path class="cls-8" d="M38.2,19.39a3.86,3.86,0,0,1-1.8,1.32c-.31.07-.2-.72-.2-.72l-.08,0s-.17.78.24.79a3.82,3.82,0,0,0,2-1.41Z"/><path class="cls-8" d="M38.66,25a.22.22,0,0,1-.24,0,.32.32,0,0,0-.26-.17s-.12-.35-.32-.25c0-.19-.24-.09-.24-.09s0-.26-.25-.23C37.43,24,37,24,37,24s0-.35-.63-.28c1.33-.6,2.39.94,2.39.94"/><path class="cls-8" d="M39.29,25.12s.31.35.47.35.18-.33.18-.33.05.14.13.1a.14.14,0,0,0,.1.14s-.28.64-1.07,0"/><path class="cls-8" d="M36.88,25.26l-.11.44s-.14.13-.1.16.26-.05.26-.05a1.09,1.09,0,0,0,.45-.14.31.31,0,0,0,.23.18.23.23,0,0,0,0-.11.35.35,0,0,0,.14,0s0-.13-.05-.18.05-.17-.11-.16-.43.28-.51.23.31-.22.2-.44"/></svg>