<svg id="Layer_1" data-name="Layer 1" xmlns="http://www.w3.org/2000/svg" xmlns:xlink="http://www.w3.org/1999/xlink" viewBox="0 0 220 128"><defs><style>.cls-1{fill:none;}.cls-2{clip-path:url(#clip-path);}.cls-3{fill:#d22028;}.cls-4{fill:#fff;}</style><clipPath id="clip-path"><rect id="_Clipping_Path_" data-name="&lt;Clipping Path&gt;" class="cls-1" x="0.31" width="219.4" height="128"/></clipPath></defs><title>Flag_rect_Tunisia</title><g id="TUNISIA"><g id="_Group_" data-name="&lt;Group&gt;"><g id="_Clip_Group_" data-name="&lt;Clip Group&gt;"><g class="cls-2"><rect id="_Path_" data-name="&lt;Path&gt;" class="cls-3" x="0.31" width="219.4" height="128"/><g id="_Clip_Group_2" data-name="&lt;Clip Group&gt;"><g class="cls-2"><path class="cls-4" d="M110,32a32,32,0,1,0,32,32A32,32,0,0,0,110,32Zm6.4,51.21a19.08,19.08,0,0,0,13-5.16,24,24,0,1,1,0-28.06,19.18,19.18,0,1,0-13,33.22Z"/><polygon class="cls-3" points="121.9 63.99 128.05 55.52 118.11 58.77 111.96 50.29 111.96 60.77 102.02 63.98 111.96 67.22 111.96 77.69 118.1 69.23 128.05 72.48 121.9 63.99"/></g></g></g></g></g></g></svg>