<svg id="Layer_1" data-name="Layer 1" xmlns="http://www.w3.org/2000/svg" xmlns:xlink="http://www.w3.org/1999/xlink" viewBox="0 0 220 128"><defs><style>.cls-1{fill:none;}.cls-2{clip-path:url(#clip-path);}.cls-3{fill:#ca2027;}.cls-4{fill:#fff;}.cls-5{fill:#2b3560;}</style><clipPath id="clip-path"><rect id="_Clipping_Path_" data-name="&lt;Clipping Path&gt;" class="cls-1" width="219.44" height="128"/></clipPath></defs><title>Flag_rect_United States</title><g id="USA"><g id="_Group_" data-name="&lt;Group&gt;"><g id="_Clip_Group_" data-name="&lt;Clip Group&gt;"><g class="cls-2"><rect id="_Path_" data-name="&lt;Path&gt;" class="cls-3" y="118.16" width="219.44" height="9.84"/><rect id="_Path_2" data-name="&lt;Path&gt;" class="cls-4" y="108.31" width="219.44" height="9.85"/><rect id="_Path_3" data-name="&lt;Path&gt;" class="cls-3" y="98.48" width="219.44" height="9.83"/><rect id="_Path_4" data-name="&lt;Path&gt;" class="cls-4" y="88.62" width="219.44" height="9.86"/><rect id="_Path_5" data-name="&lt;Path&gt;" class="cls-3" y="78.77" width="219.44" height="9.85"/><rect id="_Path_6" data-name="&lt;Path&gt;" class="cls-4" y="68.93" width="219.44" height="9.84"/><rect id="_Path_7" data-name="&lt;Path&gt;" class="cls-3" y="59.07" width="219.44" height="9.86"/><rect id="_Path_8" data-name="&lt;Path&gt;" class="cls-4" y="49.24" width="219.44" height="9.83"/><rect id="_Path_9" data-name="&lt;Path&gt;" class="cls-3" y="39.39" width="219.44" height="9.84"/><rect id="_Path_10" data-name="&lt;Path&gt;" class="cls-4" y="29.55" width="219.44" height="9.85"/><rect id="_Path_11" data-name="&lt;Path&gt;" class="cls-3" y="19.69" width="219.44" height="9.86"/><rect id="_Path_12" data-name="&lt;Path&gt;" class="cls-4" y="9.86" width="219.44" height="9.83"/><rect id="_Path_13" data-name="&lt;Path&gt;" class="cls-3" width="219.44" height="9.86"/><rect id="_Path_14" data-name="&lt;Path&gt;" class="cls-5" width="100.21" height="68.93"/><polygon id="_Path_15" data-name="&lt;Path&gt;" class="cls-4" points="9.05 7.59 9.91 10.22 12.65 10.22 10.43 11.82 11.27 14.43 9.05 12.82 6.83 14.43 7.7 11.82 5.48 10.22 8.2 10.22 9.05 7.59"/><polygon id="_Path_16" data-name="&lt;Path&gt;" class="cls-4" points="9.05 19.1 9.91 21.71 12.65 21.71 10.43 23.31 11.27 25.92 9.05 24.31 6.83 25.92 7.7 23.31 5.48 21.71 8.2 21.71 9.05 19.1"/><polygon id="_Path_17" data-name="&lt;Path&gt;" class="cls-4" points="9.05 30.62 9.91 33.21 12.65 33.21 10.43 34.82 11.27 37.44 9.05 35.82 6.83 37.44 7.7 34.82 5.48 33.21 8.2 33.21 9.05 30.62"/><polygon id="_Path_18" data-name="&lt;Path&gt;" class="cls-4" points="9.05 42.11 9.91 44.72 12.65 44.72 10.43 46.33 11.27 48.93 9.05 47.33 6.83 48.93 7.7 46.33 5.48 44.72 8.2 44.72 9.05 42.11"/><polygon id="_Path_19" data-name="&lt;Path&gt;" class="cls-4" points="9.05 53.62 9.91 56.23 12.65 56.23 10.43 57.83 11.27 60.44 9.05 58.83 6.83 60.44 7.7 57.83 5.48 56.23 8.2 56.23 9.05 53.62"/><polygon id="_Path_20" data-name="&lt;Path&gt;" class="cls-4" points="17.07 13.66 17.89 16.27 20.65 16.27 18.44 17.88 19.27 20.48 17.07 18.88 14.86 20.48 15.7 17.88 13.48 16.27 16.23 16.27 17.07 13.66"/><polygon id="_Path_21" data-name="&lt;Path&gt;" class="cls-4" points="17.07 25.17 17.89 27.76 20.65 27.76 18.44 29.38 19.27 31.97 17.07 30.39 14.86 31.97 15.7 29.38 13.48 27.76 16.23 27.76 17.07 25.17"/><polygon id="_Path_22" data-name="&lt;Path&gt;" class="cls-4" points="17.07 36.67 17.89 39.28 20.65 39.28 18.44 40.88 19.27 43.49 17.07 41.88 14.86 43.49 15.7 40.88 13.48 39.28 16.23 39.28 17.07 36.67"/><polygon id="_Path_23" data-name="&lt;Path&gt;" class="cls-4" points="17.07 48.19 17.89 50.79 20.65 50.79 18.44 52.39 19.27 54.98 17.07 53.38 14.86 54.98 15.7 52.39 13.48 50.79 16.23 50.79 17.07 48.19"/><polygon id="_Path_24" data-name="&lt;Path&gt;" class="cls-4" points="25.17 7.59 26.02 10.22 28.77 10.22 26.55 11.82 27.4 14.43 25.17 12.82 22.97 14.43 23.81 11.82 21.59 10.22 24.33 10.22 25.17 7.59"/><polygon id="_Path_25" data-name="&lt;Path&gt;" class="cls-4" points="25.17 19.1 26.02 21.71 28.77 21.71 26.55 23.31 27.4 25.92 25.17 24.31 22.97 25.92 23.81 23.31 21.59 21.71 24.33 21.71 25.17 19.1"/><polygon id="_Path_26" data-name="&lt;Path&gt;" class="cls-4" points="25.17 30.62 26.02 33.21 28.77 33.21 26.55 34.82 27.4 37.44 25.17 35.82 22.97 37.44 23.81 34.82 21.59 33.21 24.33 33.21 25.17 30.62"/><polygon id="_Path_27" data-name="&lt;Path&gt;" class="cls-4" points="25.17 42.11 26.02 44.72 28.77 44.72 26.55 46.33 27.4 48.93 25.17 47.33 22.97 48.93 23.81 46.33 21.59 44.72 24.33 44.72 25.17 42.11"/><polygon id="_Path_28" data-name="&lt;Path&gt;" class="cls-4" points="25.17 53.62 26.02 56.23 28.77 56.23 26.55 57.83 27.4 60.44 25.17 58.83 22.97 60.44 23.81 57.83 21.59 56.23 24.33 56.23 25.17 53.62"/><polygon id="_Path_29" data-name="&lt;Path&gt;" class="cls-4" points="33.19 13.66 34.03 16.27 36.79 16.27 34.55 17.88 35.41 20.48 33.19 18.88 30.98 20.48 31.83 17.88 29.6 16.27 32.34 16.27 33.19 13.66"/><polygon id="_Path_30" data-name="&lt;Path&gt;" class="cls-4" points="33.19 25.17 34.03 27.76 36.79 27.76 34.55 29.38 35.41 31.97 33.19 30.39 30.98 31.97 31.83 29.38 29.6 27.76 32.34 27.76 33.19 25.17"/><polygon id="_Path_31" data-name="&lt;Path&gt;" class="cls-4" points="33.19 36.67 34.03 39.28 36.79 39.28 34.55 40.88 35.41 43.49 33.19 41.88 30.98 43.49 31.83 40.88 29.6 39.28 32.34 39.28 33.19 36.67"/><polygon id="_Path_32" data-name="&lt;Path&gt;" class="cls-4" points="33.19 48.19 34.03 50.79 36.79 50.79 34.55 52.39 35.41 54.98 33.19 53.38 30.98 54.98 31.83 52.39 29.6 50.79 32.34 50.79 33.19 48.19"/><polygon id="_Path_33" data-name="&lt;Path&gt;" class="cls-4" points="41.31 7.59 42.17 10.22 44.88 10.22 42.66 11.82 43.54 14.43 41.31 12.82 39.09 14.43 39.93 11.82 37.73 10.22 40.47 10.22 41.31 7.59"/><polygon id="_Path_34" data-name="&lt;Path&gt;" class="cls-4" points="41.31 19.1 42.17 21.71 44.88 21.71 42.66 23.31 43.54 25.92 41.31 24.31 39.09 25.92 39.93 23.31 37.73 21.71 40.47 21.71 41.31 19.1"/><polygon id="_Path_35" data-name="&lt;Path&gt;" class="cls-4" points="41.31 30.62 42.17 33.21 44.88 33.21 42.66 34.82 43.54 37.44 41.31 35.82 39.09 37.44 39.93 34.82 37.73 33.21 40.47 33.21 41.31 30.62"/><polygon id="_Path_36" data-name="&lt;Path&gt;" class="cls-4" points="41.31 42.11 42.17 44.72 44.88 44.72 42.66 46.33 43.54 48.93 41.31 47.33 39.09 48.93 39.93 46.33 37.73 44.72 40.47 44.72 41.31 42.11"/><polygon id="_Path_37" data-name="&lt;Path&gt;" class="cls-4" points="41.31 53.62 42.17 56.23 44.88 56.23 42.66 57.83 43.54 60.44 41.31 58.83 39.09 60.44 39.93 57.83 37.73 56.23 40.47 56.23 41.31 53.62"/><polygon id="_Path_38" data-name="&lt;Path&gt;" class="cls-4" points="49.33 13.66 50.17 16.27 52.91 16.27 50.7 17.88 51.52 20.48 49.33 18.88 47.12 20.48 47.95 17.88 45.74 16.27 48.47 16.27 49.33 13.66"/><polygon id="_Path_39" data-name="&lt;Path&gt;" class="cls-4" points="49.33 25.17 50.17 27.76 52.91 27.76 50.7 29.38 51.52 31.97 49.33 30.39 47.12 31.97 47.95 29.38 45.74 27.76 48.47 27.76 49.33 25.17"/><polygon id="_Path_40" data-name="&lt;Path&gt;" class="cls-4" points="49.33 36.67 50.17 39.28 52.91 39.28 50.7 40.88 51.52 43.49 49.33 41.88 47.12 43.49 47.95 40.88 45.74 39.28 48.47 39.28 49.33 36.67"/><polygon id="_Path_41" data-name="&lt;Path&gt;" class="cls-4" points="49.33 48.19 50.17 50.79 52.91 50.79 50.7 52.39 51.52 54.98 49.33 53.38 47.12 54.98 47.95 52.39 45.74 50.79 48.47 50.79 49.33 48.19"/><polygon id="_Path_42" data-name="&lt;Path&gt;" class="cls-4" points="57.42 7.59 58.28 10.22 61.01 10.22 58.8 11.82 59.66 14.43 57.42 12.82 55.23 14.43 56.06 11.82 53.85 10.22 56.58 10.22 57.42 7.59"/><polygon id="_Path_43" data-name="&lt;Path&gt;" class="cls-4" points="57.42 19.1 58.28 21.71 61.01 21.71 58.8 23.31 59.66 25.92 57.42 24.31 55.23 25.92 56.06 23.31 53.85 21.71 56.58 21.71 57.42 19.1"/><polygon id="_Path_44" data-name="&lt;Path&gt;" class="cls-4" points="57.42 30.62 58.28 33.21 61.01 33.21 58.8 34.82 59.66 37.44 57.42 35.82 55.23 37.44 56.06 34.82 53.85 33.21 56.58 33.21 57.42 30.62"/><polygon id="_Path_45" data-name="&lt;Path&gt;" class="cls-4" points="57.42 42.11 58.28 44.72 61.01 44.72 58.8 46.33 59.66 48.93 57.42 47.33 55.23 48.93 56.06 46.33 53.85 44.72 56.58 44.72 57.42 42.11"/><polygon id="_Path_46" data-name="&lt;Path&gt;" class="cls-4" points="57.42 53.62 58.28 56.23 61.01 56.23 58.8 57.83 59.66 60.44 57.42 58.83 55.23 60.44 56.06 57.83 53.85 56.23 56.58 56.23 57.42 53.62"/><polygon id="_Path_47" data-name="&lt;Path&gt;" class="cls-4" points="65.44 13.66 66.29 16.27 69.04 16.27 66.82 17.88 67.67 20.48 65.44 18.88 63.23 20.48 64.09 17.88 61.87 16.27 64.61 16.27 65.44 13.66"/><polygon id="_Path_48" data-name="&lt;Path&gt;" class="cls-4" points="65.44 25.17 66.29 27.76 69.04 27.76 66.82 29.38 67.67 31.97 65.44 30.39 63.23 31.97 64.09 29.38 61.87 27.76 64.61 27.76 65.44 25.17"/><polygon id="_Path_49" data-name="&lt;Path&gt;" class="cls-4" points="65.44 36.67 66.29 39.28 69.04 39.28 66.82 40.88 67.67 43.49 65.44 41.88 63.23 43.49 64.09 40.88 61.87 39.28 64.61 39.28 65.44 36.67"/><polygon id="_Path_50" data-name="&lt;Path&gt;" class="cls-4" points="65.44 48.19 66.29 50.79 69.04 50.79 66.82 52.39 67.67 54.98 65.44 53.38 63.23 54.98 64.09 52.39 61.87 50.79 64.61 50.79 65.44 48.19"/><polygon id="_Path_51" data-name="&lt;Path&gt;" class="cls-4" points="73.56 7.59 74.42 10.22 77.15 10.22 74.94 11.82 75.78 14.43 73.56 12.82 71.37 14.43 72.2 11.82 69.99 10.22 72.72 10.22 73.56 7.59"/><polygon id="_Path_52" data-name="&lt;Path&gt;" class="cls-4" points="73.56 19.1 74.42 21.71 77.15 21.71 74.94 23.31 75.78 25.92 73.56 24.31 71.37 25.92 72.2 23.31 69.99 21.71 72.72 21.71 73.56 19.1"/><polygon id="_Path_53" data-name="&lt;Path&gt;" class="cls-4" points="73.56 30.62 74.42 33.21 77.15 33.21 74.94 34.82 75.78 37.44 73.56 35.82 71.37 37.44 72.2 34.82 69.99 33.21 72.72 33.21 73.56 30.62"/><polygon id="_Path_54" data-name="&lt;Path&gt;" class="cls-4" points="73.56 42.11 74.42 44.72 77.15 44.72 74.94 46.33 75.78 48.93 73.56 47.33 71.37 48.93 72.2 46.33 69.99 44.72 72.72 44.72 73.56 42.11"/><polygon id="_Path_55" data-name="&lt;Path&gt;" class="cls-4" points="73.56 53.62 74.42 56.23 77.15 56.23 74.94 57.83 75.78 60.44 73.56 58.83 71.37 60.44 72.2 57.83 69.99 56.23 72.72 56.23 73.56 53.62"/><polygon id="_Path_56" data-name="&lt;Path&gt;" class="cls-4" points="81.58 13.66 82.41 16.27 85.16 16.27 82.96 17.88 83.78 20.48 81.58 18.88 79.35 20.48 80.2 17.88 78.01 16.27 80.73 16.27 81.58 13.66"/><polygon id="_Path_57" data-name="&lt;Path&gt;" class="cls-4" points="81.58 25.17 82.41 27.76 85.16 27.76 82.96 29.38 83.78 31.97 81.58 30.39 79.35 31.97 80.2 29.38 78.01 27.76 80.73 27.76 81.58 25.17"/><polygon id="_Path_58" data-name="&lt;Path&gt;" class="cls-4" points="81.58 36.67 82.41 39.28 85.16 39.28 82.96 40.88 83.78 43.49 81.58 41.88 79.35 43.49 80.2 40.88 78.01 39.28 80.73 39.28 81.58 36.67"/><polygon id="_Path_59" data-name="&lt;Path&gt;" class="cls-4" points="81.58 48.19 82.41 50.79 85.16 50.79 82.96 52.39 83.78 54.98 81.58 53.38 79.35 54.98 80.2 52.39 78.01 50.79 80.73 50.79 81.58 48.19"/><polygon id="_Path_60" data-name="&lt;Path&gt;" class="cls-4" points="89.68 7.59 90.55 10.22 93.27 10.22 91.06 11.82 91.91 14.43 89.68 12.82 87.48 14.43 88.31 11.82 86.1 10.22 88.84 10.22 89.68 7.59"/><polygon id="_Path_61" data-name="&lt;Path&gt;" class="cls-4" points="89.68 19.1 90.55 21.71 93.27 21.71 91.06 23.31 91.91 25.92 89.68 24.31 87.48 25.92 88.31 23.31 86.1 21.71 88.84 21.71 89.68 19.1"/><polygon id="_Path_62" data-name="&lt;Path&gt;" class="cls-4" points="89.68 30.62 90.55 33.21 93.27 33.21 91.06 34.82 91.91 37.44 89.68 35.82 87.48 37.44 88.31 34.82 86.1 33.21 88.84 33.21 89.68 30.62"/><polygon id="_Path_63" data-name="&lt;Path&gt;" class="cls-4" points="89.68 42.11 90.55 44.72 93.27 44.72 91.06 46.33 91.91 48.93 89.68 47.33 87.48 48.93 88.31 46.33 86.1 44.72 88.84 44.72 89.68 42.11"/><polygon id="_Path_64" data-name="&lt;Path&gt;" class="cls-4" points="89.68 53.62 90.55 56.23 93.27 56.23 91.06 57.83 91.91 60.44 89.68 58.83 87.48 60.44 88.31 57.83 86.1 56.23 88.84 56.23 89.68 53.62"/></g></g></g></g></svg>