<svg id="Layer_1" data-name="Layer 1" xmlns="http://www.w3.org/2000/svg" xmlns:xlink="http://www.w3.org/1999/xlink" viewBox="0 0 220 128"><defs><style>.cls-1{fill:none;}.cls-2{clip-path:url(#clip-path);}.cls-3{fill:#bf2026;}.cls-4{fill:#f7e524;}</style><clipPath id="clip-path"><rect id="_Clipping_Path_" data-name="&lt;Clipping Path&gt;" class="cls-1" x="0.01" width="219.41" height="128"/></clipPath></defs><title>Flag_rect_North Macedonia</title><g id="MACEDONIA"><g id="_Group_" data-name="&lt;Group&gt;"><g id="_Clip_Group_" data-name="&lt;Clip Group&gt;"><g class="cls-2"><rect id="_Path_" data-name="&lt;Path&gt;" class="cls-3" x="0.01" width="219.41" height="128"/><path id="_Compound_Path_" data-name="&lt;Compound Path&gt;" class="cls-4" d="M186.51,128h32.9L109.72,64ZM0,0,109.72,64,32.93,0Z"/><path id="_Compound_Path_2" data-name="&lt;Compound Path&gt;" class="cls-4" d="M98.74,128h22l-11-64Zm0-128,11,64,11-64Z"/><path id="_Compound_Path_3" data-name="&lt;Compound Path&gt;" class="cls-4" d="M0,128H32.93l76.79-64ZM186.51,0,109.72,64,219.41,0Z"/><path id="_Compound_Path_4" data-name="&lt;Compound Path&gt;" class="cls-4" d="M0,76.8,109.72,64,0,51.21ZM109.72,64,219.41,76.8V51.21Z"/><g id="_Clip_Group_2" data-name="&lt;Clip Group&gt;"><g class="cls-2"><path id="_Path_2" data-name="&lt;Path&gt;" class="cls-3" d="M109.72,41.15A22.86,22.86,0,1,1,86.85,64a22.84,22.84,0,0,1,22.87-22.85"/><path id="_Path_3" data-name="&lt;Path&gt;" class="cls-4" d="M109.72,45.71A18.29,18.29,0,1,1,91.43,64a18.27,18.27,0,0,1,18.29-18.29"/></g></g></g></g></g></g></svg>