<svg id="Layer_1" data-name="Layer 1" xmlns="http://www.w3.org/2000/svg" viewBox="0 0 220 128"><defs><style>.cls-1{fill:#002b7f;}.cls-2{fill:#ce1126;}.cls-3,.cls-4,.cls-6{fill:#ffd83d;}.cls-4,.cls-5,.cls-6,.cls-7{stroke:#000;stroke-linecap:round;stroke-linejoin:round;}.cls-4,.cls-5,.cls-7{stroke-width:0.32px;}.cls-6{stroke-width:0.43px;}.cls-7{fill:none;}</style></defs><title>Flag_rect_Liechtenstein</title><rect class="cls-1" width="220" height="128"/><rect class="cls-2" y="64" width="220" height="64"/><g id="half"><path class="cls-3" d="M46.16,26.09l-.39,13.33H32.24c-1.67-3.23-3-6-3-9.7a5.64,5.64,0,0,1,6-5.59C38.92,24.13,43,25.39,46.16,26.09Z"/><path class="cls-4" d="M30.82,26.7v7.7"/><path class="cls-4" d="M31.9,25.92V36.16"/><path class="cls-4" d="M33,25.38v12.2"/><path class="cls-4" d="M34.08,25.12V34.7"/><path class="cls-4" d="M35.16,25.08v9.67"/><path class="cls-4" d="M36.25,24.74v10"/><path class="cls-4" d="M37.34,24.74v10"/><path class="cls-4" d="M38.42,24.84v10"/><path class="cls-4" d="M39.51,24.94v10"/><path class="cls-4" d="M40.6,25.57v10"/><path class="cls-4" d="M41.68,25.67V37"/><path class="cls-4" d="M42.77,25.67v10"/><path class="cls-4" d="M43.86,25.67v10"/><path class="cls-5" d="M37.63,25.16c2.3.38,7.34,2.74,6.77,5.93-.82,4.52-3.46,2.71-7,2.06L34.79,34c-.95,1-2.34,1.85-3.29.69H29.93v6.12H47.29V26Z"/><circle class="cls-6" cx="45.4" cy="24.1" r="1.05"/><circle class="cls-6" cx="43.03" cy="23.53" r="1.05"/><circle class="cls-6" cx="40.63" cy="22.93" r="1.05"/><circle class="cls-6" cx="38.22" cy="22.53" r="1.05"/><circle class="cls-6" cx="35.81" cy="22.29" r="1.05"/><circle class="cls-6" cx="33.44" cy="22.42" r="1.05"/><circle class="cls-6" cx="31.18" cy="23.2" r="1.05"/><circle class="cls-6" cx="29.29" cy="24.59" r="1.05"/><circle class="cls-6" cx="27.94" cy="26.54" r="1.05"/><circle class="cls-6" cx="27.29" cy="28.83" r="1.05"/><circle class="cls-6" cx="27.31" cy="31.21" r="1.05"/><circle class="cls-6" cx="27.77" cy="33.54" r="1.05"/><path class="cls-6" d="M45.87,25.5l-.1,1.37C43.15,26.47,39.43,25,36,25c-3.2,0-5.68,1.28-5.68,4.51s1.35,6.08,3.14,9l-1.87.88c-1.66-3.23-3-6-3-9.7a6.29,6.29,0,0,1,6.67-6.18C38.92,23.54,42.73,24.8,45.87,25.5Z"/></g><g id="half-2" data-name="half"><path class="cls-3" d="M48.55,26.09l.39,13.33H62.47c1.66-3.23,3-6,3-9.7a5.64,5.64,0,0,0-6-5.59C55.79,24.13,51.68,25.39,48.55,26.09Z"/><path class="cls-4" d="M63.89,26.7v7.7"/><path class="cls-4" d="M62.8,25.92V36.16"/><path class="cls-4" d="M61.72,25.38v12.2"/><path class="cls-4" d="M60.63,25.12V34.7"/><path class="cls-4" d="M59.54,25.08v9.67"/><path class="cls-4" d="M58.46,24.74v10"/><path class="cls-4" d="M57.37,24.74v10"/><path class="cls-4" d="M56.28,24.84v10"/><path class="cls-4" d="M55.2,24.94v10"/><path class="cls-4" d="M54.11,25.57v10"/><path class="cls-4" d="M53,25.67V37"/><path class="cls-4" d="M51.94,25.67v10"/><path class="cls-4" d="M50.85,25.67v10"/><path class="cls-5" d="M57.08,25.16c-2.3.38-7.34,2.74-6.77,5.93.82,4.52,3.46,2.71,7,2.06l2.65.88c.95,1,2.34,1.85,3.28.69h1.57v6.12H47.42V26Z"/><circle class="cls-6" cx="49.31" cy="24.1" r="1.05"/><circle class="cls-6" cx="51.67" cy="23.53" r="1.05"/><circle class="cls-6" cx="54.08" cy="22.93" r="1.05"/><circle class="cls-6" cx="56.49" cy="22.53" r="1.05"/><circle class="cls-6" cx="58.9" cy="22.29" r="1.05"/><circle class="cls-6" cx="61.27" cy="22.42" r="1.05"/><circle class="cls-6" cx="63.52" cy="23.2" r="1.05"/><circle class="cls-6" cx="65.42" cy="24.59" r="1.05"/><circle class="cls-6" cx="66.77" cy="26.54" r="1.05"/><circle class="cls-6" cx="67.42" cy="28.83" r="1.05"/><circle class="cls-6" cx="67.39" cy="31.21" r="1.05"/><circle class="cls-6" cx="66.94" cy="33.54" r="1.05"/><path class="cls-6" d="M48.84,25.5l.1,1.37c2.62-.4,6.34-1.86,9.8-1.86,3.2,0,5.69,1.28,5.69,4.51s-1.35,6.08-3.14,9l1.86.88c1.67-3.23,3-6,3-9.7a6.28,6.28,0,0,0-6.66-6.18C55.79,23.54,52,24.8,48.84,25.5Z"/></g><path class="cls-6" d="M47.35,11.33l-1.1,2.06,1.1,2.06,1.1-2.06Zm0,5.2-1.1,2.06,1.1,2.06,1.1-2.06Z"/><path class="cls-6" d="M43.43,16l1.74,1.1L46.9,16l-1.73-1.1Zm4.38,0,1.73,1.1L51.27,16l-1.73-1.1Z"/><circle class="cls-6" cx="47.35" cy="16.01" r="0.83"/><circle class="cls-6" cx="47.35" cy="21.33" r="2.23"/><path class="cls-7" d="M46.79,19.17v1.42a13.81,13.81,0,0,0-1.59.16m4.31,0a13.81,13.81,0,0,0-1.59-.16V19.17m-2.73,2.71a12.94,12.94,0,0,1,2.16-.18,12.76,12.76,0,0,1,2.16.18"/><path class="cls-6" d="M45.17,25.11c-.21,3.64-.64,7.35-2.06,10l2.31-.93a67.5,67.5,0,0,0,1.22-8.88Zm4.36,0-1.46.24a65.84,65.84,0,0,0,1.22,8.88l2.3.93C50.18,32.46,49.74,28.75,49.53,25.11Z"/><path class="cls-6" d="M47.35,33c-2.75,0-4.78,1.3-4.9,4.61-.67-1.19-3.52-4.92-6.18-4.42-1.58.3-3,2.49-2.74,5-1.31-3.76-5.14-4.37-7.94-2.15,2.48,2,3.59,8.07,5.68,10.69H63.43c2.09-2.62,3.2-8.65,5.69-10.69-2.8-2.22-6.63-1.61-7.94,2.15.23-2.51-1.17-4.7-2.75-5-2.66-.5-5.5,3.23-6.17,4.42C52.14,34.3,50.1,33,47.35,33Z"/><path class="cls-5" d="M63.38,46.73c0,1.19-7.18,2.5-16,2.5s-16-1.31-16-2.5,7.19-1.82,16-1.82S63.38,45.53,63.38,46.73Z"/><circle class="cls-4" cx="47.35" cy="24.41" r="0.75"/><circle class="cls-4" cx="47.35" cy="26.03" r="0.8"/><circle class="cls-4" cx="47.35" cy="27.77" r="0.87"/><circle class="cls-4" cx="47.35" cy="29.71" r="0.99"/><circle class="cls-4" cx="47.35" cy="31.87" r="1.09"/><path d="M46.92,34c-.12,0-.23.1-.2.29s.08.64.12.92.23.24.28,0a4.76,4.76,0,0,0,0-.86C47.17,34.07,47,34,46.92,34Zm.87,0c-.12,0-.25.11-.24.34a4.76,4.76,0,0,0,0,.86c0,.25.23.33.28,0s.08-.7.12-.92A.22.22,0,0,0,47.79,34Zm-1.64.12a.28.28,0,0,0-.22.24c0,.22.07.47.1.79s.25.2.28,0a4.1,4.1,0,0,0,0-.83c0-.14-.07-.2-.14-.21Zm2.36,0c-.07,0-.13.07-.14.21a4.78,4.78,0,0,0,0,.83c0,.19.26.32.28,0s.08-.57.09-.79a.25.25,0,0,0-.21-.24Zm-3.29.38a.23.23,0,0,0-.16.28,4,4,0,0,1,.11.84c0,.24.2.16.22,0s0-.51,0-.83S45.32,34.43,45.22,34.46Zm4.2,0c-.07,0-.13.1-.13.28s0,.67,0,.83.21.25.21,0a4.05,4.05,0,0,1,.12-.84.23.23,0,0,0-.16-.28Zm-12.61,0c-.11,0-.2.16-.12.34s.27.46.4.76.3.11.24-.08a6,6,0,0,0-.3-.8C37,34.56,36.88,34.5,36.81,34.49Zm21.08,0c-.07,0-.15.07-.22.22a8,8,0,0,0-.3.8c-.06.19.13.36.24.08s.27-.48.4-.76S58,34.49,57.89,34.49Zm-20.22,0c-.09,0-.14.13-.09.26s.26.53.37.81.3.18.23,0-.09-.35-.23-.78C37.88,34.54,37.75,34.48,37.67,34.51Zm19.3,0c-.07,0-.16.08-.21.24-.14.43-.16.56-.23.78s.14.3.23,0,.26-.55.37-.81,0-.24-.09-.26Zm-18.24.2c-.11,0-.19.19-.12.4s.23.5.35.8.31.23.27,0-.11-.5-.25-1C38.92,34.77,38.82,34.7,38.73,34.71Zm17.24,0c-.08,0-.18.06-.24.27-.14.47-.2.78-.25,1s.15.25.27,0,.25-.54.34-.8S56.08,34.73,56,34.71Zm-19.88.15a.26.26,0,0,0-.15.35c.12.24.19.32.31.57s.24.06.2-.11-.11-.35-.17-.59S36.16,34.85,36.09,34.86Zm22.52,0c-.07,0-.14,0-.18.22s-.12.43-.17.59.08.37.2.11.19-.33.31-.57A.26.26,0,0,0,58.61,34.86Zm-14.3.6a.26.26,0,0,0-.21.32c.07.25.18.46.26.78s.27.15.26,0a5,5,0,0,0-.13-.85C44.46,35.52,44.39,35.46,44.31,35.46Zm6.08,0c-.07,0-.15.06-.18.21a5.93,5.93,0,0,0-.12.85c0,.19.19.33.26,0s.19-.53.26-.78A.26.26,0,0,0,50.39,35.46Zm-3,.25c-.15,0-.17.21-.18.37a2.5,2.5,0,0,1-.44,1.35c-.19.27-.48.2-.74,0a3.87,3.87,0,0,1-.71-.46c-.28-.21-.5-.08-.16.4,1,1.4,2.05,2.6,2.05,4.89,0,.3.06.39.18.39s.19-.09.19-.39c0-2.29,1.06-3.49,2.05-4.89.33-.48.12-.61-.16-.4a4.24,4.24,0,0,1-.71.46c-.27.15-.55.22-.75,0a2.68,2.68,0,0,1-.44-1.35C47.53,35.92,47.51,35.71,47.35,35.71Zm-7.52-.34h0c-.06,0-.1.09-.08.21s.19.63.25.83.31.16.25-.11-.06-.35-.13-.66A.32.32,0,0,0,39.83,35.37Zm15.05,0a.32.32,0,0,0-.25.27c-.07.31-.07.39-.13.66s.19.31.25.11.2-.62.24-.83,0-.19-.07-.21Zm-19.53.08c-.12,0-.21.17-.08.4s.36.55.47.73.29.06.16-.17-.17-.48-.33-.8A.23.23,0,0,0,35.35,35.45Zm24,0a.25.25,0,0,0-.22.16c-.15.32-.19.58-.32.8s0,.35.16.17.33-.49.47-.73S59.48,35.46,59.35,35.45Zm-30.76.71c-.14,0-.18.25-.05.42a3.8,3.8,0,0,0,.55.58c.18.16.23,0,.14-.2s-.21-.32-.39-.59S28.66,36.17,28.59,36.16Zm37.52,0a.42.42,0,0,0-.24.21c-.18.27-.31.43-.4.59s0,.36.14.2a3.86,3.86,0,0,0,.56-.58C66.3,36.41,66.26,36.16,66.11,36.16Zm-36.44.22c-.12,0-.19.08-.1.28s.29.59.4.8.43.29.3,0-.16-.5-.28-.81A.37.37,0,0,0,29.67,36.38Zm35.37,0a.38.38,0,0,0-.33.23c-.11.31-.14.48-.27.81s.19.26.3,0,.27-.52.4-.8S65.15,36.38,65,36.38Zm-37.45.07c-.17,0-.18.17,0,.27s.43.3.66.48.36,0,.22-.16a1.76,1.76,0,0,0-.63-.53A.57.57,0,0,0,27.59,36.45Zm39.53,0a.52.52,0,0,0-.21.06,1.72,1.72,0,0,0-.64.53c-.14.18,0,.38.23.16s.46-.33.65-.48S67.29,36.45,67.12,36.45Zm-23.39.15a.19.19,0,0,0-.14.26c.07.24.15.51.2.76s.34.25.29,0-.07-.5-.15-.85a.25.25,0,0,0-.16-.2Zm7.21,0a.25.25,0,0,0-.16.2c-.08.35-.11.63-.15.85s.24.22.28,0,.13-.52.2-.76A.2.2,0,0,0,51,36.6Zm-13.63-.42c-.08,0-.12.16-.06.35a5.6,5.6,0,0,1,.34,1.92c-.06.26-.2.3-.4.21a5.11,5.11,0,0,1-.6-.34c-.17-.12-.36,0-.1.23A7,7,0,0,1,39,42.3c.07.3.26.34.21,0A8.2,8.2,0,0,1,39.32,38c.17-.36,0-.71-.27-.12-.17.39-.46.54-.69.2a9.77,9.77,0,0,1-.85-1.64c0-.15-.12-.22-.17-.23Zm20.06,0c-.06,0-.12.08-.18.23a9.73,9.73,0,0,1-.84,1.64c-.23.34-.52.19-.7-.2-.26-.59-.43-.24-.26.12a8.3,8.3,0,0,1,.09,4.33c0,.34.14.3.21,0a6.93,6.93,0,0,1,2.53-3.75c.25-.21.07-.35-.11-.23a3.88,3.88,0,0,1-.6.34c-.19.09-.34.05-.39-.21a5.6,5.6,0,0,1,.34-1.92c0-.19,0-.33-.06-.35Zm-26.56.52c-.11,0-.21.08-.16.26s.26.59.32.76.25.1.22-.15-.06-.39-.1-.67A.28.28,0,0,0,30.81,36.7Zm33.08,0a.27.27,0,0,0-.27.2c0,.28-.06.42-.1.67s.15.33.21.15.24-.48.32-.76S64,36.7,63.89,36.7Zm-29.07-.37c-.14,0-.15.32,0,.46s.37.42.58.68.29,0,.18-.16S35.28,37,35,36.5C34.92,36.39,34.87,36.34,34.82,36.33Zm25.07,0s-.11.06-.18.17c-.28.45-.44.64-.54.81s0,.37.18.16.42-.49.58-.68S60,36.3,59.89,36.33Zm-28.16.84c-.09,0-.16.06-.12.23s.12.44.18.66.21.19.21,0a5.41,5.41,0,0,0-.07-.68A.24.24,0,0,0,31.73,37.17Zm31.25,0a.24.24,0,0,0-.2.19,4,4,0,0,0-.07.68c0,.21.15.25.21,0s.13-.42.18-.66S63.06,37.16,63,37.17Zm-28.46.3c-.13,0-.25.15-.09.35s.52.54.61.66.33.07.18-.17-.39-.56-.5-.75A.2.2,0,0,0,34.52,37.47Zm25.61,0a.22.22,0,0,0-.14.09c-.11.19-.35.49-.5.75s.08.29.18.17.36-.34.61-.66,0-.33-.09-.35Zm-30,.89c-.1,0-.14.08,0,.27a4.25,4.25,0,0,1,.7,1.38c0,.28-.12.28-.25.28-.39,0-.58-.28-.93-.37s-.41.11-.16.29a11.31,11.31,0,0,1,3.12,2.95c.22.39.5.54.34.16a5.21,5.21,0,0,1-.5-2.68,8,8,0,0,0,.24-1.32c0-.33-.21-.31-.29,0a2.21,2.21,0,0,1-.23.6c-.07.11-.35.17-.62-.2a10.27,10.27,0,0,0-1.18-1.24A.54.54,0,0,0,30.11,38.36Zm34.48,0a.51.51,0,0,0-.23.12,10.27,10.27,0,0,0-1.18,1.24c-.27.37-.56.31-.63.2a2.24,2.24,0,0,1-.22-.6c-.08-.31-.27-.33-.29,0a7.78,7.78,0,0,0,.23,1.32,5,5,0,0,1-.5,2.68c-.16.38.13.23.34-.16a11.6,11.6,0,0,1,3.12-2.95c.26-.18.2-.37-.15-.29s-.54.37-.93.37c-.13,0-.27,0-.25-.28a4,4,0,0,1,.69-1.38C64.73,38.44,64.7,38.35,64.59,38.36Z"/><path class="cls-4" d="M32,45.37l.41,1.31m.44-1.56.37,1.33M33.81,45l.25,1.36m.6-1.53.28,1.36m.82-1.47L36,46.05m1-1.36.24,1.36m.91-1.75.17,1.37m.9-1.3.17,1.37m.87-1.51.17,1.37m.87-1.48.1,1.38m1-1.38.08,1.38m.93-1.45.07,1.38m1-1.45.05,1.38M45.76,44l.06,1.38m16.86,0-.42,1.31m-.44-1.56-.36,1.33M60.9,45l-.25,1.36M60,44.79l-.27,1.36m-.83-1.47-.22,1.37m-.95-1.36-.24,1.36m-.9-1.75-.17,1.37m-.9-1.3-.18,1.37m-.86-1.51-.18,1.37m-.87-1.48-.09,1.38m-1-1.38-.09,1.38m-.92-1.45-.07,1.38M50.23,44l-.06,1.38M49,44l-.06,1.38m-1.54-1.47v1.52"/></svg>