<svg id="Layer_1" data-name="Layer 1" xmlns="http://www.w3.org/2000/svg" xmlns:xlink="http://www.w3.org/1999/xlink" viewBox="0 0 220 128"><defs><style>.cls-1{fill:none;}.cls-2{clip-path:url(#clip-path);}.cls-3{fill:#325d37;}.cls-4{fill:#2d4db6;}.cls-5{fill:#fef200;}.cls-6{fill:#fff;}</style><clipPath id="clip-path"><rect id="_Clipping_Path_" data-name="&lt;Clipping Path&gt;" class="cls-1" width="220" height="128"/></clipPath></defs><title>Flag_rect_Solomon Islands</title><g id="SOLOMON_ISLANDS" data-name="SOLOMON ISLANDS"><g id="_Group_" data-name="&lt;Group&gt;"><g id="_Clip_Group_" data-name="&lt;Clip Group&gt;"><g class="cls-2"><polygon id="_Path_" data-name="&lt;Path&gt;" class="cls-3" points="11.04 128 220 128 220 6.1 11.04 128"/><polygon id="_Path_2" data-name="&lt;Path&gt;" class="cls-4" points="0 0 0 121.55 208.37 0 0 0"/><polygon id="_Path_3" data-name="&lt;Path&gt;" class="cls-5" points="0 128 0 128 11.04 128 220 6.1 220 0 220 0 0 128"/><polygon id="_Path_4" data-name="&lt;Path&gt;" class="cls-5" points="208.37 0 0 121.55 0 128 220 0 220 0 208.37 0"/><polygon class="cls-6" points="42.38 40.76 48.84 36.07 40.85 36.07 38.39 28.49 35.94 36.07 27.96 36.07 34.42 40.77 31.95 48.36 38.4 43.67 44.85 48.36 42.38 40.76"/><polygon class="cls-6" points="62.55 60.95 69 56.26 61.02 56.26 58.55 48.68 56.1 56.26 48.14 56.26 54.58 60.95 52.12 68.52 58.56 63.84 65.01 68.52 62.55 60.95"/><polygon class="cls-6" points="22.21 60.95 28.65 56.26 20.69 56.26 18.22 48.68 15.76 56.26 7.78 56.26 14.24 60.95 11.79 68.52 18.22 63.83 24.66 68.52 22.21 60.95"/><polygon class="cls-6" points="22.21 20.6 28.65 15.9 20.68 15.9 18.22 8.33 15.76 15.9 7.78 15.9 14.25 20.6 11.79 28.19 18.22 23.5 24.66 28.19 22.21 20.6"/><polygon class="cls-6" points="62.55 20.6 69 15.9 61.01 15.9 58.55 8.33 56.1 15.9 48.14 15.9 54.59 20.6 52.12 28.19 58.56 23.51 65.01 28.19 62.55 20.6"/></g></g></g></g></svg>