<svg id="Layer_1" data-name="Layer 1" xmlns="http://www.w3.org/2000/svg" xmlns:xlink="http://www.w3.org/1999/xlink" viewBox="0 0 220 128"><defs><style>.cls-1{fill:none;}.cls-2{clip-path:url(#clip-path);}.cls-3{fill:#4a5bb5;}.cls-4,.cls-6{fill:#f6d928;}.cls-5{fill:#a1001d;}.cls-10,.cls-6,.cls-7,.cls-8,.cls-9{fill-rule:evenodd;}.cls-11,.cls-7{fill:#fff;}.cls-8{fill:#485ba3;}.cls-9{fill:#980015;}</style><clipPath id="clip-path"><rect id="_Clipping_Path_" data-name="&lt;Clipping Path&gt;" class="cls-1" width="220" height="128"/></clipPath></defs><title>Flag_rect_Swaziland</title><g id="SWAZILAND"><g id="_Group_" data-name="&lt;Group&gt;"><g id="_Clip_Group_" data-name="&lt;Clip Group&gt;"><g class="cls-2"><rect id="_Path_" data-name="&lt;Path&gt;" class="cls-3" width="220" height="128"/><rect id="_Path_2" data-name="&lt;Path&gt;" class="cls-4" y="22.83" width="220" height="82.34"/><rect id="_Path_3" data-name="&lt;Path&gt;" class="cls-5" y="32" width="220" height="63.97"/><g id="_Clip_Group_2" data-name="&lt;Clip Group&gt;"><g class="cls-2"><path id="_Path_4" data-name="&lt;Path&gt;" class="cls-6" d="M34.2,62.62H186.92a1.37,1.37,0,0,1,0,2.73H34.2a1.37,1.37,0,0,1,0-2.73Z"/><g id="_Group_2" data-name="&lt;Group&gt;"><path id="_Compound_Path_" data-name="&lt;Compound Path&gt;" d="M186.92,65.53H34.2a1.55,1.55,0,0,1,0-3.09H186.92a1.55,1.55,0,0,1,0,3.09ZM34.2,62.8A1.17,1.17,0,0,0,33,64,1.2,1.2,0,0,0,34.2,65.2H186.92A1.21,1.21,0,0,0,188.1,64a1.19,1.19,0,0,0-1.18-1.17Z"/></g><polygon id="_Path_5" data-name="&lt;Path&gt;" class="cls-7" points="171.41 49.39 163.65 52.13 171.41 54.83 179.2 52.13 171.41 49.39"/><g id="_Group_3" data-name="&lt;Group&gt;"><path id="_Compound_Path_2" data-name="&lt;Compound Path&gt;" d="M171.41,55l-8.21-2.92,8.16-2.91,8.29,2.91L171.41,55Zm-7.3-2.92,7.3,2.58,7.33-2.58-7.38-2.6-7.25,2.6Z"/></g><path id="_Path_6" data-name="&lt;Path&gt;" class="cls-6" d="M54,51.18H166.32a1,1,0,0,1,1,.94,1,1,0,0,1-1,.9H54a1,1,0,0,1-1-.9,1,1,0,0,1,1-.94Z"/><g id="_Group_4" data-name="&lt;Group&gt;"><path id="_Compound_Path_3" data-name="&lt;Compound Path&gt;" d="M166.32,53.17H54A1.07,1.07,0,1,1,54,51H166.32a1.07,1.07,0,1,1,0,2.14ZM54,51.36a.74.74,0,1,0,0,1.48H166.32a.74.74,0,1,0,0-1.48Z"/></g><g id="_Group_5" data-name="&lt;Group&gt;"><path id="_Compound_Path_4" data-name="&lt;Compound Path&gt;" d="M162.74,53.17v-.33a.74.74,0,1,0,0-1.48V51a1.07,1.07,0,1,1,0,2.14Zm1.82,0v-.33a.74.74,0,1,0,0-1.48V51a1.07,1.07,0,1,1,0,2.14Zm-.91,0v-.33a.74.74,0,1,0,0-1.48V51a1.07,1.07,0,1,1,0,2.14Z"/></g><polygon id="_Path_7" data-name="&lt;Path&gt;" class="cls-7" points="164.11 54.83 156.33 57.62 164.11 60.35 171.89 57.62 164.11 54.83"/><g id="_Group_6" data-name="&lt;Group&gt;"><path id="_Compound_Path_5" data-name="&lt;Compound Path&gt;" d="M164.11,60.5l-8.24-2.88,8.2-2.89,8.25,2.89-8.21,2.88Zm-7.32-2.91,7.32,2.58,7.3-2.55L164.07,55l-7.28,2.58Z"/></g><path id="_Path_8" data-name="&lt;Path&gt;" class="cls-6" d="M46.7,56.7H159a.9.9,0,1,1,0,1.78H46.7a.9.9,0,1,1,0-1.78Z"/><g id="_Group_7" data-name="&lt;Group&gt;"><path id="_Compound_Path_6" data-name="&lt;Compound Path&gt;" d="M159,58.66H46.7a1.07,1.07,0,1,1,0-2.14H159a1.07,1.07,0,1,1,0,2.14ZM46.7,56.82a.8.8,0,0,0-.83.8.77.77,0,0,0,.83.71H159a.77.77,0,0,0,.83-.71.82.82,0,0,0-.83-.8Z"/></g><g id="_Group_8" data-name="&lt;Group&gt;"><path id="_Compound_Path_7" data-name="&lt;Compound Path&gt;" d="M157.24,58.66v-.33a.81.81,0,0,0,.77-.71.86.86,0,0,0-.77-.8v-.3a1.07,1.07,0,1,1,0,2.14Zm-.91,0v-.33a.8.8,0,0,0,.76-.71.86.86,0,0,0-.76-.8v-.3a1.07,1.07,0,1,1,0,2.14Zm-.9,0v-.33a.81.81,0,0,0,.75-.71.87.87,0,0,0-.75-.8v-.3a1.07,1.07,0,0,1,0,2.14Z"/></g><path id="_Path_9" data-name="&lt;Path&gt;" class="cls-8" d="M177.34,62.9c-1.39,2.4,1.07-.79,7,3.22a5.75,5.75,0,0,1,2.06,4.11c-.26-.23-.49-.64-.78-.89-.44.41.4,2.42.54,3.34-.94-.48-.85-.76-1.16-1.43.06.82-.17,2.94.22,3.78-.75-.23-.71-.84-1.08-.94.26.94-.23,2-.1,3-.44-.43-.89-.76-1.1-.94,0,.51-.82,1.81-.84,2.29a1.26,1.26,0,0,1-.52-.81A15.2,15.2,0,0,0,179.46,81c-1.25-1.1-4.43-3.78-4.85-5.19-.37.82-.9,1-1.93,1.66-.43-2.24-2-4.77-1.15-6.69a13.36,13.36,0,0,0-1.65,1.15c.56-3.29,3.39-7.1,7.46-9Z"/><g id="_Group_9" data-name="&lt;Group&gt;"><path id="_Compound_Path_8" data-name="&lt;Compound Path&gt;" d="M179.54,81.19l-.5-.41c-1.44-1.28-4.15-3.63-4.55-5-.14.82-.69,1.1-1.67,1.66l-.14.08-.13-.08a17.06,17.06,0,0,0-.63-2.24c-.53-1.56-1.08-3.2-.51-4.55A6.52,6.52,0,0,1,170,71.94c.4-3.68,3.48-7.35,7.31-9.14,0,.36-.25.87-.2,1s0,0,.31,0l.67,0c.76,0,3.05,0,6.38,2.22a5.89,5.89,0,0,1,2.12,4.21.83.83,0,0,1-.63-.41c-.11-.15-.24-.25-.36-.41a7.87,7.87,0,0,0,.43,2c.13.46.25.92.3,1.2-.81-.23-1-.46-1.15-.77,0,.1,0,.28,0,.44a7.81,7.81,0,0,0,.2,2.65.93.93,0,0,1-1-.48c-.09-.16-.15-.28-.26-.31a2,2,0,0,1,.13,1.48,5.21,5.21,0,0,0-.08,1.41,5.28,5.28,0,0,1-1.06-.62l-.23-.23c.18.23,0,.64-.24,1.13a5.21,5.21,0,0,0-.41,1.09,1,1,0,0,1-.76-.76A31.9,31.9,0,0,0,179.57,81l0,.18Zm-5-5.47c.59,1.28,3.35,3.73,4.7,4.85l.18.18a19.16,19.16,0,0,1,2.13-3.19c.28.26.35.59.68.77-.16-.16,0-.59.25-1.08a4.12,4.12,0,0,0,.41-1.09l.44.1c.25.2.55.46.87.74a1.83,1.83,0,0,1-.14-1.35,3.37,3.37,0,0,0,0-1.51.4.4,0,0,1,.55.23,1.2,1.2,0,0,0,.66.54c-.41-.41-.38-1.64-.36-2.58,0-.44,0-.8,0-1l.38.3a1.64,1.64,0,0,0,.95,1,2.71,2.71,0,0,1-.48-1c-.27-1-.54-1.94-.21-2.29a1.31,1.31,0,0,1,.57.43,2.87,2.87,0,0,0,.39.43,6.66,6.66,0,0,0-2.21-3.88C181.05,64,178.81,64,178.07,64l-.67,0c-.23,0-.43,0-.51-.16s0-.41.34-1c-3.6,1.92-6.63,5.54-7.24,9a5.06,5.06,0,0,1,1.48-1.25c-.37,1.4.17,3,.67,4.55a18.74,18.74,0,0,1,.66,2.24c.87-.69,1.37-.94,1.71-1.71Z"/></g><path id="_Path_10" data-name="&lt;Path&gt;" class="cls-9" d="M172.17,74.8c.58-1.17,1.12-1.53,1.47-2.27.66-1.3.76-2.32,1.32-2.2s.59.69-.15,2a5.7,5.7,0,0,1-2.64,2.47Z"/><path id="_Path_11" data-name="&lt;Path&gt;" class="cls-9" d="M176.06,77.51c-.07-.84.19-1.23.14-1.79-.09-1-.49-1.68.05-1.73s.77.28.77,1.3-.16,1.25-1,2.22Z"/><path id="_Path_12" data-name="&lt;Path&gt;" class="cls-9" d="M179,79.25c-.24-1.2-.06-1.77-.21-2.53-.26-1.41-.76-2.33-.28-2.48s.79.33,1,1.74a4.94,4.94,0,0,1-.48,3.27Z"/><path id="_Path_13" data-name="&lt;Path&gt;" class="cls-9" d="M182.09,70.67c-.72-.54-1.15-.59-1.61-1-.82-.59-1.24-1.28-1.49-.92s-.09.69.78,1.23a3.11,3.11,0,0,0,2.32.64Z"/><path id="_Path_14" data-name="&lt;Path&gt;" class="cls-9" d="M181.58,74.75c-.38-.82-.78-1-1-1.53-.44-.87-.44-1.66-.91-1.43s-.51.59,0,1.43.76,1,1.94,1.53Z"/><path id="_Path_15" data-name="&lt;Path&gt;" class="cls-8" d="M39.55,65.23c-.07-.69.09-.8-.35-1.33.62.28.65,1,1.42.46.26-.13.39-.13.05-.92.79.05,3.4.92,3.81.94,1.09.05,3.08-1.12,4.46.34s.9,2.75.9,4.59c-.54-.25-.29-.38-.84-1,.42,1.64,0,4.55,0,6.29-.22-.41-.19-.26-.4-.67-.56,1.59-1.25,1.89-1.25,3.76-.2-.74,0-.56-.24-1-.54,1.18-4.23,2.2-2.82,3.42-1.28-.76-1.84-.66-2.42-1.35a2.42,2.42,0,0,0-.69.87c-2.25-1-1.44-3.27-3.22-4.78a9.51,9.51,0,0,0-.5,1.59,26.91,26.91,0,0,0-.85-3.37c-.35.56-.33.35-.95,1.2-.27-1.71-.69-2.1-.52-3.25-.66.46-.23.26-.9.87.64-4.44,3.38-7.71,5.34-6.66Z"/><g id="_Group_10" data-name="&lt;Group&gt;"><path id="_Compound_Path_9" data-name="&lt;Compound Path&gt;" d="M44.18,80.24a6.61,6.61,0,0,0-1.26-.61,2.66,2.66,0,0,1-1.22-.79,2.42,2.42,0,0,1-.4.87,3.29,3.29,0,0,1-2.18-2.53,4.68,4.68,0,0,0-1.3-2.2.86.86,0,0,1,0,.61,7.1,7.1,0,0,1-.25.9L37.4,77l-.12-.51c-.13-.54-.22-1-.3-1.33a14.66,14.66,0,0,0-.45-1.74,1.37,1.37,0,0,1-.2.26,4.47,4.47,0,0,0-.56.71l-.24.34-.06-.44a12.38,12.38,0,0,0-.35-1.53,4.36,4.36,0,0,1-.21-1.4.87.87,0,0,0-.13.15,2.55,2.55,0,0,1-.46.48L34,72.3l.06-.43c.59-4.19,3.24-7.64,5.33-6.9a1.41,1.41,0,0,1,0-.2,1,1,0,0,0-.3-.77l-.42-.49.61.26a1.33,1.33,0,0,1,.54.38c.26.26.39.28.72.08s.26-.15,0-.72l-.11-.23h.26a18.87,18.87,0,0,1,2.47.59,14,14,0,0,0,1.35.36c.25,0,.71-.1,1.09-.18,1.16-.25,2.63-.36,3.49.56,1.09,1.1,1,2.25,1,3.6,0,.36,0,.72,0,1.1v.26l-.24-.1a1,1,0,0,1-.48-.44,24,24,0,0,1-.05,3.58c-.06.71-.09,1.38-.09,1.94v.66l-.32-.59a1.58,1.58,0,0,0-.19-.3l0-.08a8.93,8.93,0,0,1-.49,1,4.6,4.6,0,0,0-.62,2.38v1.17l-.33-1.12a2.45,2.45,0,0,1-.11-.64v0a5.64,5.64,0,0,1-1.44,1.13c-.73.46-1.47.94-1.5,1.35,0,.16.07.28.26.46l-.19.28Zm-2.44-1.63a4.38,4.38,0,0,0,1.31.71c.21.11.46.21.75.34a.36.36,0,0,1,0-.18c0-.59.81-1.08,1.64-1.61A4.83,4.83,0,0,0,47,76.62l.12-.28.16.25s0,0,0,0a4.26,4.26,0,0,1,.59-1.51,12.55,12.55,0,0,0,.57-1.28l.13-.36.17.36a.91.91,0,0,1,.11.16c0-.41,0-.9.07-1.41a15.52,15.52,0,0,0-.06-4.29l-.17-.69.45.56a2.32,2.32,0,0,1,.43.67,1.18,1.18,0,0,0,.13.18c0-.29,0-.57,0-.82.08-1.3.13-2.35-.87-3.35-.77-.84-2.09-.74-3.18-.48a4.93,4.93,0,0,1-1.11.2,8.2,8.2,0,0,1-1.48-.36c-.73-.23-1.61-.46-2.13-.56.19.51.14.67-.2.85-.54.35-.82.2-1.06,0a1.19,1.19,0,0,1,0,.28c0,.12,0,.25,0,.46l0,.28-.27-.18c-1.63-.84-4.26,1.81-5,6.08a.29.29,0,0,1,.06-.11,1.54,1.54,0,0,1,.49-.4l.32-.26-.06.38a3.51,3.51,0,0,0,.18,1.66c.08.31.18.72.28,1.2.18-.23.27-.33.36-.43a4.13,4.13,0,0,0,.35-.49l.18-.28.11.31a12.6,12.6,0,0,1,.56,2.07c.06.23.1.46.16.74,0-.13,0-.21.07-.28a3.23,3.23,0,0,1,.27-.72,3.51,3.51,0,0,1,1.63,2.3,3.3,3.3,0,0,0,1.81,2.38,1.22,1.22,0,0,1,.51-.87Z"/></g><path id="_Path_16" data-name="&lt;Path&gt;" class="cls-9" d="M36.78,72.45c.58-1.43,1.11-1.89,1.48-2.83.66-1.58.77-2.89,1.32-2.68s.55.87-.19,2.47a6.25,6.25,0,0,1-2.61,3Z"/><path id="_Path_17" data-name="&lt;Path&gt;" class="cls-9" d="M39,76c.23-1.25.6-1.76.76-2.55.27-1.46.11-2.53.63-2.48s.64.59.29,2A5.2,5.2,0,0,1,39,76Z"/><path id="_Path_18" data-name="&lt;Path&gt;" class="cls-9" d="M41.61,78.48c.07-1.23.37-1.71.41-2.5.07-1.43-.19-2.43.3-2.43s.67.51.52,1.92a5,5,0,0,1-1.23,3Z"/><path id="_Path_19" data-name="&lt;Path&gt;" class="cls-9" d="M47.28,70.38c-1.09-1.07-1.73-1.27-2.43-2C43.61,67.19,43,66,42.59,66.48s-.18,1,1.11,2.14a6.13,6.13,0,0,0,3.58,1.76Z"/><path id="_Path_20" data-name="&lt;Path&gt;" class="cls-9" d="M46.62,74.55c-.7-1.08-1.23-1.36-1.69-2.07-.79-1.23-1.07-2.25-1.51-2s-.36.79.5,2a5.16,5.16,0,0,0,2.7,2.07Z"/><path id="_Path_21" data-name="&lt;Path&gt;" class="cls-7" d="M155.43,64c-9.14,9.17-21.34,27.43-45.72,27.43C88.38,91.4,73.14,73.14,64,64c9.15-9.14,24.39-27.4,45.72-27.4,24.38,0,36.58,18.26,45.72,27.4Z"/><g id="_Group_11" data-name="&lt;Group&gt;"><path id="_Compound_Path_10" data-name="&lt;Compound Path&gt;" d="M109.71,91.58c-19.18,0-33.37-14.68-42.77-24.36-1.09-1.13-2.1-2.17-3.06-3.14,1-1.13,2-2.17,3-3.3,9.41-9.7,23.61-24.36,42.8-24.36,20.68,0,32.62,13.1,41.34,22.68,1.59,1.76,3.06,3.37,4.48,4.77-1.42,1.64-2.9,3.27-4.5,5-8.71,9.58-20.65,22.68-41.32,22.68Zm0-54.88C90.65,36.7,76.49,51.33,67.14,61c-1.08,1.1-2.09,2.15-3,3.07A37.81,37.81,0,0,1,67.15,67c9.36,9.7,23.51,24.29,42.56,24.29,20.52,0,32.42-13.08,41.1-22.61,1.59-1.73,3.09-3.37,4.5-4.8a60.64,60.64,0,0,1-4.49-4.54c-8.68-9.56-20.57-22.63-41.11-22.63Z"/></g><path id="_Path_22" data-name="&lt;Path&gt;" class="cls-10" d="M106.52,46.12c2.42,2.71.39,3.81,3,4s1.16,2.89,3.44,3c1.61.08-.16,6.47,1.39,8.59s2.88.63,2.91,2.19-4.26,1.48-4.35,6.54c-.12,2.91-3.61,3.12-3.78,5s6.88,2.79,6.79,4.35-7.65,1.35-8,3.11c-.17,1.61,10.39,2.91,11.23,7.59-1.57.56-6,1-9.43,1C88.38,91.43,73.14,73.14,64,64c9.15-9.14,24.39-27.4,45.72-27.4,0,0-6.34,5.8-3.19,9.55Z"/><rect id="_Path_23" data-name="&lt;Path&gt;" class="cls-11" x="81.07" y="54.24" width="2.2" height="7.3"/><rect id="_Path_24" data-name="&lt;Path&gt;" class="cls-11" x="81.07" y="66.45" width="2.2" height="7.3"/><rect id="_Path_25" data-name="&lt;Path&gt;" class="cls-11" x="85.48" y="54.24" width="2.23" height="7.3"/><rect id="_Path_26" data-name="&lt;Path&gt;" class="cls-11" x="85.48" y="66.45" width="2.23" height="7.3"/><rect id="_Path_27" data-name="&lt;Path&gt;" class="cls-11" x="89.93" y="54.24" width="2.22" height="7.3"/><rect id="_Path_28" data-name="&lt;Path&gt;" class="cls-11" x="89.93" y="66.45" width="2.22" height="7.3"/><rect id="_Path_29" data-name="&lt;Path&gt;" class="cls-11" x="94.36" y="54.24" width="2.21" height="7.3"/><rect id="_Path_30" data-name="&lt;Path&gt;" class="cls-11" x="94.36" y="66.45" width="2.21" height="7.3"/><rect id="_Path_31" data-name="&lt;Path&gt;" class="cls-11" x="98.78" y="54.24" width="2.22" height="7.3"/><rect id="_Path_32" data-name="&lt;Path&gt;" class="cls-11" x="98.78" y="66.45" width="2.22" height="7.3"/><rect id="_Path_33" data-name="&lt;Path&gt;" class="cls-11" x="103.23" y="54.24" width="2.21" height="7.3"/><rect id="_Path_34" data-name="&lt;Path&gt;" class="cls-11" x="103.23" y="66.45" width="2.21" height="7.3"/><rect id="_Path_35" data-name="&lt;Path&gt;" x="114.58" y="54.24" width="2.22" height="7.3"/><rect id="_Path_36" data-name="&lt;Path&gt;" x="114.58" y="66.45" width="2.22" height="7.3"/><rect id="_Path_37" data-name="&lt;Path&gt;" x="119.02" y="54.24" width="2.21" height="7.3"/><rect id="_Path_38" data-name="&lt;Path&gt;" x="119.02" y="66.45" width="2.21" height="7.3"/><rect id="_Path_39" data-name="&lt;Path&gt;" x="123.45" y="54.24" width="2.22" height="7.3"/><rect id="_Path_40" data-name="&lt;Path&gt;" x="123.45" y="66.45" width="2.22" height="7.3"/><rect id="_Path_41" data-name="&lt;Path&gt;" x="127.87" y="54.24" width="2.23" height="7.3"/><rect id="_Path_42" data-name="&lt;Path&gt;" x="127.87" y="66.45" width="2.23" height="7.3"/><rect id="_Path_43" data-name="&lt;Path&gt;" x="132.32" y="54.24" width="2.21" height="7.3"/><rect id="_Path_44" data-name="&lt;Path&gt;" x="132.32" y="66.45" width="2.21" height="7.3"/><rect id="_Path_45" data-name="&lt;Path&gt;" x="136.75" y="54.24" width="2.22" height="7.3"/><rect id="_Path_46" data-name="&lt;Path&gt;" x="136.75" y="66.45" width="2.22" height="7.3"/><path id="_Path_47" data-name="&lt;Path&gt;" class="cls-8" d="M94.93,41.42c-1.28,2.46,2.2-.81,7.67,3.3a9.41,9.41,0,0,1,2.47,5.16,17.51,17.51,0,0,1-3.23-1.38s2.42,2.42,2.42,5.23c-.86-.56-1.28-.48-1.57-1.15,0,.92.76,1.49.76,2.86a13.3,13.3,0,0,0-1.65-1.07c.8,1.38-1.47,4.06-.33,5a7,7,0,0,1-4.84-2.94,1.4,1.4,0,0,0-.49,1.23c.07,0-3-2.3-2.74-3.22A3,3,0,0,0,92.83,56a8.29,8.29,0,0,1-2.55-3.71c-.51.67-.54.67-1,1.33-.38-2.3-.38-2.22.37-4.19a15.1,15.1,0,0,0-1.51,1.15,13.36,13.36,0,0,1,6.83-9.17Z"/><g id="_Group_12" data-name="&lt;Group&gt;"><path id="_Compound_Path_11" data-name="&lt;Compound Path&gt;" d="M101.9,59.56l-.45-.08a7.2,7.2,0,0,1-4.93-3,2,2,0,0,0-.25,1.17c-.22.15-1.74-1.17-2.2-1.68-.61-.69-.88-1.18-.8-1.54A12.9,12.9,0,0,0,92.94,56a7.07,7.07,0,0,1-2.78-3.66,1.51,1.51,0,0,1-.32.72l-.68.84-.06-.36c-.37-2.17-.35-2.22.35-4a13,13,0,0,1-1.27,1.17c.35-3.78,3.18-7.55,6.69-9.39-.05.61-.13.86-.07.94s.32.1.57.1h.84a10.25,10.25,0,0,1,6.47,2.28,9.62,9.62,0,0,1,2.51,5.26,9.62,9.62,0,0,1-3.14-1.13,7.3,7.3,0,0,1,2.33,5,4.94,4.94,0,0,1-.91-.3,2,2,0,0,1-.64-.41,4.51,4.51,0,0,1,.29.66,3.79,3.79,0,0,1,.46,1.76,14.92,14.92,0,0,1-1.85-1c.59.59.25,1.58-.09,2.55s-.62,1.84-.09,2.28l.35.28Zm-5.35-3.25a7.93,7.93,0,0,0,4.6,2.89c-.32-.56,0-1.41.27-2.27s.63-1.87.27-2.51a4,4,0,0,1,1.84.95,12.94,12.94,0,0,0-.63-1.61,2.88,2.88,0,0,1-.33-1.18,3.25,3.25,0,0,0,1,.62c.21.1.45.23.76.41-.2-2.61-2.55-5-2.57-5,.17-.2,2.21,1,3.34,1.2a10.85,10.85,0,0,0-2.57-5,10,10,0,0,0-6.32-2.25h-.84c-.33,0-.65,0-.78-.2s0-.46.22-1c-3.28,2-6,5.67-6.59,9.22a4.27,4.27,0,0,1,1.32-1.25l.33-.2-.19.46c-.69,1.78-.69,1.78-.33,3.9l.3-.61c.14-.15.26-.33.52-.66a10.59,10.59,0,0,0,2.75,3.67,1.68,1.68,0,0,1,.37-1.53c0,.79,2.31,2.71,2.92,3.17a1,1,0,0,1,.34-1.23Z"/></g><path id="_Path_48" data-name="&lt;Path&gt;" class="cls-9" d="M91.79,53.4c.21-1.68.65-2.32.78-3.42.24-1.89,0-3.32.65-3.27s.85.77.53,2.68a6.88,6.88,0,0,1-2,4Z"/><path id="_Path_49" data-name="&lt;Path&gt;" class="cls-9" d="M95.34,56.49c-.15-1.4.12-2,0-2.94-.16-1.6-.66-2.7-.07-2.8s.89.4,1,2a5.74,5.74,0,0,1-.93,3.7Z"/><path id="_Path_50" data-name="&lt;Path&gt;" class="cls-9" d="M100.86,59c-.61-1.25-1.12-1.61-1.51-2.38-.68-1.4-.83-2.55-1.35-2.34s-.51.79.27,2.17A5.52,5.52,0,0,0,100.86,59Z"/><path id="_Path_51" data-name="&lt;Path&gt;" class="cls-9" d="M102.76,48c-1.53-.82-2.31-.82-3.3-1.33-1.74-.92-2.74-1.94-3.1-1.41s.12,1.15,1.91,2a7,7,0,0,0,4.49.77Z"/><path id="_Path_52" data-name="&lt;Path&gt;" class="cls-9" d="M103.32,52.58c-1.1-.91-1.77-1.07-2.49-1.63-1.26-1.07-1.89-2.09-2.31-1.66s-.15.94,1.18,1.92a5.64,5.64,0,0,0,3.62,1.37Z"/></g></g></g></g></g></g></svg>