<svg id="Layer_1" data-name="Layer 1" xmlns="http://www.w3.org/2000/svg" viewBox="0 0 220 128"><defs><style>.cls-1{fill:#ed312f;}.cls-2{fill:#54b362;}.cls-3{fill:#fff;}</style></defs><title>Flag_rect_Libya</title><g id="LIBYA"><g id="_Group_" data-name="&lt;Group&gt;"><g id="_Group_2" data-name="&lt;Group&gt;"><rect id="_Path_" data-name="&lt;Path&gt;" y="31.55" width="220" height="63.08"/><rect id="_Path_2" data-name="&lt;Path&gt;" class="cls-1" width="220" height="33.44"/><rect id="_Path_3" data-name="&lt;Path&gt;" class="cls-2" y="90.9" width="220" height="37.1"/></g><g id="_Group_3" data-name="&lt;Group&gt;"><polygon id="_Path_4" data-name="&lt;Path&gt;" class="cls-3" points="127.65 52.09 131.92 59.47 139.28 57 134.56 63.98 138.84 71.3 131.63 68.25 126.91 75.25 127.19 66.44 120 63.44 127.37 60.97 127.65 52.09"/><path id="_Path_5" data-name="&lt;Path&gt;" class="cls-3" d="M114.77,77.39c-7,0-12.66-6.14-12.66-13.64s5.66-13.62,12.66-13.62A12,12,0,0,1,122,52.52,13.65,13.65,0,0,0,111.31,47c-8,0-14.4,7.5-14.4,16.74s6.44,16.75,14.4,16.75a13.6,13.6,0,0,0,10.79-5.65A12.12,12.12,0,0,1,114.77,77.39Z"/></g></g></g></svg>