<svg id="Layer_1" data-name="Layer 1" xmlns="http://www.w3.org/2000/svg" xmlns:xlink="http://www.w3.org/1999/xlink" viewBox="0 0 220 128"><defs><style>.cls-1{fill:none;}.cls-2{clip-path:url(#clip-path);}.cls-3{fill:#fff;}.cls-4{fill:#b50037;}.cls-5{fill:#1e3476;}</style><clipPath id="clip-path"><rect id="_Clipping_Path_" data-name="&lt;Clipping Path&gt;" class="cls-1" width="220" height="128"/></clipPath></defs><title>Flag_rect_Korea</title><g id="KOREA_SOUTH" data-name="KOREA SOUTH"><g id="_Group_" data-name="&lt;Group&gt;"><g id="_Clip_Group_" data-name="&lt;Clip Group&gt;"><g class="cls-2"><rect id="_Path_" data-name="&lt;Path&gt;" class="cls-3" width="220" height="128"/><polygon id="_Path_2" data-name="&lt;Path&gt;" points="145.21 21.09 153.34 33.3 148.91 36.27 140.78 24.06 145.21 21.09"/><polygon id="_Path_3" data-name="&lt;Path&gt;" points="154.82 35.52 162.97 47.73 158.53 50.67 150.38 38.49 154.82 35.52"/><rect id="_Path_4" data-name="&lt;Path&gt;" x="155.86" y="15.45" width="5.34" height="32.01" transform="translate(9.17 93.19) rotate(-33.68)"/><polygon id="_Path_5" data-name="&lt;Path&gt;" points="158.53 12.21 166.67 24.44 162.22 27.38 154.08 15.17 158.53 12.21"/><polygon id="_Path_6" data-name="&lt;Path&gt;" points="168.13 26.66 176.26 38.87 171.83 41.83 163.7 29.63 168.13 26.66"/><rect id="_Path_7" data-name="&lt;Path&gt;" x="64.89" y="76.1" width="5.34" height="31.99" transform="translate(-39.75 52.96) rotate(-33.7)"/><polygon id="_Path_8" data-name="&lt;Path&gt;" points="54.24 81.75 62.37 93.93 57.94 96.89 49.81 84.71 54.24 81.75"/><rect id="_Path_9" data-name="&lt;Path&gt;" x="63.04" y="96.43" width="5.33" height="14.67" transform="translate(-46.49 53.81) rotate(-33.66)"/><polygon id="_Path_10" data-name="&lt;Path&gt;" points="47.59 86.19 65.33 112.81 60.9 115.77 43.15 89.16 47.59 86.19"/><polygon id="_Path_11" data-name="&lt;Path&gt;" points="56.46 47.73 74.21 21.09 78.65 24.06 60.9 50.67 56.46 47.73"/><rect id="_Path_12" data-name="&lt;Path&gt;" x="44.9" y="28.78" width="32.01" height="5.33" transform="translate(0.96 64.69) rotate(-56.32)"/><polygon id="_Path_13" data-name="&lt;Path&gt;" points="43.15 38.87 60.9 12.21 65.33 15.17 47.59 41.83 43.15 38.87"/><polygon id="_Path_14" data-name="&lt;Path&gt;" points="140.78 103.92 148.91 91.73 153.34 94.7 145.21 106.88 140.78 103.92"/><polygon id="_Path_15" data-name="&lt;Path&gt;" points="150.38 89.54 158.53 77.31 162.97 80.27 154.82 92.48 150.38 89.54"/><rect id="_Path_16" data-name="&lt;Path&gt;" x="146.39" y="101.09" width="14.67" height="5.34" transform="translate(-17.87 174.15) rotate(-56.32)"/><polygon id="_Path_17" data-name="&lt;Path&gt;" points="157.04 93.93 165.19 81.75 169.63 84.71 161.49 96.89 157.04 93.93"/><polygon id="_Path_18" data-name="&lt;Path&gt;" points="154.08 112.81 162.22 100.62 166.67 103.56 158.53 115.77 154.08 112.81"/><polygon id="_Path_19" data-name="&lt;Path&gt;" points="163.7 98.4 171.83 86.19 176.26 89.16 168.13 101.34 163.7 98.4"/><g id="_Clip_Group_2" data-name="&lt;Clip Group&gt;"><g class="cls-2"><path id="_Path_20" data-name="&lt;Path&gt;" class="cls-4" d="M83.09,46.25a2.78,2.78,0,0,0-.34.54,4.24,4.24,0,0,1,.34-.54"/><path id="_Path_21" data-name="&lt;Path&gt;" class="cls-4" d="M127.47,37.36a32,32,0,0,0-44.38,8.89A16,16,0,1,0,109.71,64a16,16,0,1,1,26.62,17.75,32,32,0,0,0-8.86-44.39"/><path id="_Path_22" data-name="&lt;Path&gt;" class="cls-5" d="M83.09,46.25A16,16,0,1,0,109.71,64a16,16,0,1,1,26.62,17.75,32,32,0,1,1-53.24-35.5"/></g></g></g></g></g></g></svg>