<svg id="Layer_1" data-name="Layer 1" xmlns="http://www.w3.org/2000/svg" viewBox="0 0 220 128"><defs><style>.cls-1{fill:#ee1c25;}.cls-2{fill:#0b4ea2;}.cls-3{fill:#fff;}</style></defs><title>Flag_rect_Slovakia</title><rect class="cls-1" y="85.33" width="220.01" height="42.65"/><rect class="cls-2" y="42.65" width="220.01" height="42.67"/><rect class="cls-3" y="-0.02" width="220.01" height="42.67"/><path class="cls-3" d="M81.47,98.86C70,93.33,53.58,82.36,53.58,60.67s1-31.57,1-31.57h53.7s1,9.87,1,31.57S92.94,93.33,81.47,98.86Z"/><path class="cls-1" d="M81.47,96c-10.53-5.07-25.58-15.13-25.58-35s1-29,1-29H106.1s1,9.05,1,29S92,90.91,81.47,96Z"/><path class="cls-3" d="M83.72,55.72c2.85.05,8.41.16,13.36-1.5,0,0-.13,1.77-.13,3.84s.13,3.83.13,3.83c-4.54-1.52-10.15-1.55-13.36-1.51v11h-4.5v-11c-3.21,0-8.82,0-13.37,1.51,0,0,.14-1.77.14-3.83s-.14-3.84-.14-3.84c5,1.66,10.52,1.55,13.37,1.5V48.81a31.91,31.91,0,0,0-10.58,1.52s.13-1.77.13-3.83-.13-3.84-.13-3.84a31.83,31.83,0,0,0,10.57,1.52,62.06,62.06,0,0,0-1.41-9.89s2.62.21,3.67.21,3.67-.21,3.67-.21a60.81,60.81,0,0,0-1.41,9.89,31.74,31.74,0,0,0,10.56-1.52s-.13,1.77-.13,3.84.13,3.83.13,3.83a31.83,31.83,0,0,0-10.57-1.52v6.91Z"/><path class="cls-2" d="M81.47,70.19c-5.3,0-8.14,7.35-8.14,7.35a6.51,6.51,0,0,0-5.9-3.49c-2.93,0-5.09,2.61-6.46,5C66.3,87.54,74.79,92.76,81.47,96c6.67-3.22,15.17-8.44,20.5-16.91-1.37-2.41-3.53-5-6.46-5a6.51,6.51,0,0,0-5.9,3.49s-2.84-7.35-8.14-7.35Z"/></svg>