<svg id="Layer_1" data-name="Layer 1" xmlns="http://www.w3.org/2000/svg" xmlns:xlink="http://www.w3.org/1999/xlink" viewBox="0 0 220 128"><defs><style>.cls-1{fill:none;}.cls-2{clip-path:url(#clip-path);}.cls-3{fill:#f8e82a;}.cls-4{fill:#cc3220;}.cls-5{fill:#fffcff;}.cls-6{fill:#cc2920;}.cls-7{fill:#9ba49a;}.cls-8{fill:#fff;}</style><clipPath id="clip-path"><rect id="_Clipping_Path_" data-name="&lt;Clipping Path&gt;" class="cls-1" width="220" height="128"/></clipPath></defs><title>Flag_rect_Uganda</title><g id="UGANDA"><g id="_Group_" data-name="&lt;Group&gt;"><g id="_Clip_Group_" data-name="&lt;Clip Group&gt;"><g class="cls-2"><rect id="_Path_" data-name="&lt;Path&gt;" width="220" height="128"/><rect id="_Path_2" data-name="&lt;Path&gt;" class="cls-3" y="21.35" width="220" height="21.3"/><rect id="_Path_3" data-name="&lt;Path&gt;" class="cls-4" y="42.65" width="220" height="21.35"/><rect id="_Path_4" data-name="&lt;Path&gt;" class="cls-3" y="85.35" width="220" height="21.32"/><rect id="_Path_5" data-name="&lt;Path&gt;" class="cls-4" y="106.67" width="220" height="21.33"/><g id="_Clip_Group_2" data-name="&lt;Clip Group&gt;"><g class="cls-2"><path id="_Path_6" data-name="&lt;Path&gt;" class="cls-5" d="M129.66,64a19.94,19.94,0,1,1-20-19.92,19.95,19.95,0,0,1,20,19.92Z"/><g id="_Group_2" data-name="&lt;Group&gt;"><path id="_Compound_Path_" data-name="&lt;Compound Path&gt;" d="M109.7,84a20,20,0,1,1,20-20,20.05,20.05,0,0,1-20,20Zm0-39.86A19.84,19.84,0,1,0,129.53,64,19.86,19.86,0,0,0,109.7,44.16Z"/></g><path id="_Path_7" data-name="&lt;Path&gt;" class="cls-6" d="M106.19,48.73l-1.28-2.38a3.51,3.51,0,0,1,2.66-.89c0,.08-.13,2.63-.13,2.63Z"/><g id="_Group_3" data-name="&lt;Group&gt;"><path id="_Compound_Path_2" data-name="&lt;Compound Path&gt;" d="M106.14,48.86l-1.36-2.46a3.48,3.48,0,0,1,2.79-1,22.16,22.16,0,0,1,0,2.73l-1.4.77Zm1.33-3.4a3.83,3.83,0,0,0-2.49,1l1.26,2.14L107.4,48c-.05,0,.07-2.45.07-2.53Z"/></g><path id="_Path_8" data-name="&lt;Path&gt;" class="cls-3" d="M107.44,48.11l.17-2.65A5.59,5.59,0,0,1,111.76,47l-1.45,2.07Z"/><g id="_Group_4" data-name="&lt;Group&gt;"><path id="_Compound_Path_3" data-name="&lt;Compound Path&gt;" d="M110.36,49.21l-3-1,.12-2.83h.28a5.51,5.51,0,0,1,4,1.61c0,.1,0,.1-1.43,2.17l0,.07Zm-2.56-3.65-.26,2.55,2.75.85c.22-.33,1.33-1.89,1.38-2a5.52,5.52,0,0,0-3.87-1.43Z"/></g><path id="_Path_9" data-name="&lt;Path&gt;" class="cls-6" d="M110.36,49.09,111.68,47a4.29,4.29,0,0,1,1.38,2.6s-2.08.51-2.08.49-.6-1-.62-1Z"/><g id="_Group_5" data-name="&lt;Group&gt;"><path id="_Compound_Path_4" data-name="&lt;Compound Path&gt;" d="M111,50.21l-.09-.08c0-.05-.55-.94-.6-1l1.3-2.17a4,4,0,0,1,1.6,2.63,11.86,11.86,0,0,1-2.21.61Zm-.53-1.1a5,5,0,0,1,.59.9c.33-.08,1.88-.44,2-.49a4.48,4.48,0,0,0-1.39-2.4l-1.17,2Z"/></g><path id="_Path_10" data-name="&lt;Path&gt;" d="M106.85,82.77a8.43,8.43,0,0,1,7.28-2.2c-.71-1.17-3.06-1-3.06-1s-.73-5.52-.17-5.77a10,10,0,0,1,3,0,1,1,0,0,0,.43-1.4c-.43-.57-1.71-2.66-1.18-3.07s3.37.23,3.37.23l-8-10.24s-.83-3.88.8-5.72c2-1.63,1.78-3.42,1.71-3.4a3,3,0,0,0-4.84-1.43,1.9,1.9,0,0,0-.35,2.33s-2.86.76-3,1.27,3.25-.1,3.25-.1l-.33,2.28s-6.5,5.92-1.52,11a2.51,2.51,0,0,0,.17-.23A8.64,8.64,0,0,0,108,68c1.72,1.76,1.58,1.51,1.58,1.51s.33,2.78,0,3.32a25.74,25.74,0,0,0-5.5-.06c-.6.18-2.88.08-2.3,3.78l.83-1.89s-.08,1.33.47,1.84a4.28,4.28,0,0,1,.52-2.37s.12,1.53.45,1.73.36-2.47,2.24-2.24a22.6,22.6,0,0,0,3.24.18s.64,5.33.42,5.82c-1.37-.33-4.6.15-4.81.94a9.53,9.53,0,0,1,2.81.13s-1.55,1.35-1.08,2.12Z"/><g id="_Group_6" data-name="&lt;Group&gt;"><path id="_Path_11" data-name="&lt;Path&gt;" d="M106.83,83l0-.12c-.48-.77.64-1.87,1-2.2-.18,0-.73-.05-1.61-.05-.28,0-.64,0-1,0,.12-1.13,3.58-1.46,4.84-1.15,0-.28-.28-3.53-.55-5.65a13.46,13.46,0,0,1-3.17-.13h0c-1.24,0-1.6,1.08-1.8,1.72-.13.35-.22.53-.36.53-.38-.2-.55-1.17-.6-1.66a7,7,0,0,0-.3,2.15c-.76-.41-.72-1.76-.69-1.82l-.64,1.92c-.7-3.37,1.05-3.7,1.9-3.86.12,0,.22,0,.26-.07a12.84,12.84,0,0,1,2-.11,25.26,25.26,0,0,1,3.57.18,19.5,19.5,0,0,0-.16-3.16h0A10.92,10.92,0,0,1,107.9,68c-1.71-.44-3.32-2.35-3.59-2.64l.14-.15A8.56,8.56,0,0,0,108,67.86c1.33,1.35,1.55,1.5,1.6,1.5.11.54.37,2.94.06,3.48a42.67,42.67,0,0,0-5.54,0l-.32,0c-.84.18-2.41.46-1.94,3.6l.64-1.92c.19.08.15,1.36.63,1.79a3.6,3.6,0,0,1,.36-2.35c.24.69.41,1.61.63,1.76a1.74,1.74,0,0,1,.11-.43c.23-.72.62-1.87,1.83-1.87a19.54,19.54,0,0,0,3.46.16,31.89,31.89,0,0,1,.52,6c-.38,0-.76,0-1.18,0-1.58,0-3.49.43-3.61,1a1.81,1.81,0,0,1,.9-.15,10.25,10.25,0,0,1,1.8.12c-.35.54-1.2,1.48-1.06,2.1a8.67,8.67,0,0,1,7.28-2.15c-.69-.76-2.35-.81-2.88-.81l-.3-.11c-.19-1.32-.69-5.62-.12-5.9a13.75,13.75,0,0,1,3,0c.08,0,.27-.15.38-.38a.8.8,0,0,0,0-.84c-.28-.36-1.39-2.12-1.3-2.89a.47.47,0,0,1,.14-.33c.5-.36,3.37.2,3.46.23l-8.13-10.11c0-.18-.82-4,.84-5.85C111,52,111,50.41,110.9,50.23c-.28-1.81-3.1-2.8-4.66-1.4a1.85,1.85,0,0,0-.36,2.2c-1.43.51-2.88,1-2.93,1.35h0s.06,0,.51,0a21.85,21.85,0,0,0,2.59-.28l-.22,2.4c-.07.1-3.27,3.07-3.37,6.54a5.8,5.8,0,0,0,1.84,4.37v0a.43.43,0,0,1,0,.2,5.73,5.73,0,0,1-2-4.54c.09-3.58,3.37-6.62,3.41-6.64l.29-2.2a7.25,7.25,0,0,1-2.5.39c-.49,0-.64-.08-.71-.16.09-.69,2.42-1.38,3-1.48-.16-.1-.66-1.1.33-2.32,1.73-1.56,4.74-.44,5,1.48.11.25.17,1.91-1.72,3.5-1.57,1.76-.78,5.56-.78,5.62l8,10.21c-.11.15-1.72-.2-2.72-.2-.43,0-.6.07-.64.12-.15.77.78,2.38,1.18,2.86a1,1,0,0,1,.07,1.08c-.12.25-.35.53-.57.53a20.2,20.2,0,0,0-2-.15,3.45,3.45,0,0,0-.91.1c-.3.16-.11,3,.22,5.7.8-.1,2.44,0,3,1a5.6,5.6,0,0,1-1.42.1,8.14,8.14,0,0,0-5.87,2.25l-.1.12Z"/></g><path id="_Path_12" data-name="&lt;Path&gt;" class="cls-7" d="M107.61,53.71s-4.71,5.21-2.67,9.17c.09-.57,0-.9.11-.9-.11,0,.59.51.55.39a3.69,3.69,0,0,0-.24-.9l.66.15c-.14-.22-.26-.45-.38-.66a9,9,0,0,1,.91.08s-.31-.85-.22-.85l.75.06c-1.34-2.4-.09-4.42.53-6.54Z"/><g id="_Group_7" data-name="&lt;Group&gt;"><path id="_Compound_Path_5" data-name="&lt;Compound Path&gt;" class="cls-7" d="M105,63.21l-.17-.28c-2-4,2.68-9.25,2.71-9.3a2.8,2.8,0,0,1-.25,1.41c-.58,1.68-1.16,3.26-.08,5.15-.12.16-.75.11-.86.11.08,0,.22.38.33.71l-1,0,.48.56-.56,0v0a3.43,3.43,0,0,1,.14.79c-.24.13-.71-.31-.71-.31a1.37,1.37,0,0,1,0,.82l0,.31Zm2.51-9.48c-.36.64-4.12,5.19-2.63,8.81a1.56,1.56,0,0,0,0-.33l.12-.3c.16.07.52.35.6.38a1.78,1.78,0,0,1-.33-.79l-.08-.21.83.23-.5-.53,1,0c-.43-.69-.38-.79-.33-.84a4.17,4.17,0,0,1,.84,0c-1.17-1.81-.58-3.5,0-5.18a11.82,11.82,0,0,0,.41-1.23Z"/></g><path id="_Path_13" data-name="&lt;Path&gt;" class="cls-7" d="M109.25,49.24s.26,1.81-.71,2.3c-.17.13-.79.33-.69.69.11.51.38.41.75.3,1.05-.15,2.24-2.35.65-3.29Z"/><g id="_Group_8" data-name="&lt;Group&gt;"><path id="_Compound_Path_6" data-name="&lt;Compound Path&gt;" class="cls-7" d="M108.23,52.74c-.27,0-.41-.18-.48-.49s.33-.58.57-.74c1.06-.53.83-2.25.83-2.27a1.32,1.32,0,0,1,.92,1.68,2.15,2.15,0,0,1-1.44,1.72,2.25,2.25,0,0,1-.4.1Zm1-3.37a2,2,0,0,1-.66,2.27c-.43.23-.69.38-.65.56s.19.31.29.31h0c.07,0,.18,0,.31,0a2,2,0,0,0,1.33-1.59,1.36,1.36,0,0,0-.62-1.5Z"/></g><path id="_Path_14" data-name="&lt;Path&gt;" class="cls-8" d="M107.52,50.77a.37.37,0,0,1-.41.36.34.34,0,0,1-.37-.36.38.38,0,0,1,.37-.38.41.41,0,0,1,.41.38Z"/><path id="_Path_15" data-name="&lt;Path&gt;" class="cls-6" d="M106,52.28c-.23.2-1.53,1.56-.25,2.07,1.32-.39,1-.64,1.25-.92,0-.62-.67-.77-1-1.15Z"/><g id="_Group_9" data-name="&lt;Group&gt;"><path id="_Compound_Path_7" data-name="&lt;Compound Path&gt;" d="M105.72,54.45l0,0a.9.9,0,0,1-.62-.64c-.09-.63.67-1.4.86-1.58a4.17,4.17,0,0,1,.53.31c.31.23.64.46.64.92l-.15.28c-.1.25-.24.46-1.19.71l0,0Zm.19-2.1c-.1.18-.72.9-.61,1.41,0,.2.15.33.42.46.9-.26,1-.41,1-.59a.44.44,0,0,1,.15-.25c0-.31-.26-.49-.57-.69a2.83,2.83,0,0,1-.42-.34Z"/></g><path id="_Path_16" data-name="&lt;Path&gt;" class="cls-7" d="M108.85,65.15a3.36,3.36,0,0,0,.05,2.2c1.13-.46,1.66-.34,2-.08a9.33,9.33,0,0,1-2.08-2.12Z"/><g id="_Group_10" data-name="&lt;Group&gt;"><path id="_Path_17" data-name="&lt;Path&gt;" class="cls-7" d="M108.85,67.5l-.06-.1a3.4,3.4,0,0,1-.07-2.2s0,0,0,0a8.5,8.5,0,0,0,.19,2,2.3,2.3,0,0,1,1.83-.16,5.87,5.87,0,0,1-2-1.83,27.49,27.49,0,0,0,2.26,2,6.48,6.48,0,0,1-.83,0,3.33,3.33,0,0,0-1.24.31l-.08,0Z"/></g><path id="_Path_18" data-name="&lt;Path&gt;" class="cls-8" d="M110.79,70.28l.1,2.56a3.46,3.46,0,0,0,1.28,0c.39-.18,0-1.77-1.38-2.56Z"/><g id="_Group_11" data-name="&lt;Group&gt;"><path id="_Compound_Path_8" data-name="&lt;Compound Path&gt;" class="cls-8" d="M111.64,73a4.16,4.16,0,0,1-.78-.08l-.16-2.66a2.77,2.77,0,0,1,1.72,2.3c0,.23-.14.31-.2.33a1.25,1.25,0,0,1-.58.11Zm-.55-.23a3.12,3.12,0,0,0,1-.06,2.6,2.6,0,0,0-1.37-2.35l.24,2.41Z"/></g><path id="_Path_19" data-name="&lt;Path&gt;" class="cls-7" d="M117.23,70.61a9.12,9.12,0,0,0-5.83-5,4.39,4.39,0,0,1-3.27-5.69c.17-.38.31-1,1.52-.38s6.73,3.34,7.51,3.47.13,7.69.07,7.58Z"/><g id="_Group_12" data-name="&lt;Group&gt;"><path id="_Compound_Path_9" data-name="&lt;Compound Path&gt;" d="M117.23,70.72l-.11-.08a9.18,9.18,0,0,0-5.75-4.88,4.29,4.29,0,0,1-3.44-3.45,3.55,3.55,0,0,1,.12-2.47c.18-.46.55-.92,1.63-.39l1.39.64c2.07,1,5.53,2.74,6.11,2.84.74.1.45,4.57.3,6.48-.13,1.31-.13,1.31-.25,1.31ZM108.82,59.4c-.36,0-.45.26-.56.49a3.8,3.8,0,0,0-.1,2.53,4.08,4.08,0,0,0,3.26,3.14,9,9,0,0,1,5.74,4.7c.16-1.33.52-6.31,0-7.05-.64-.18-3.41-1.53-6.23-2.91l-1.38-.64a1.75,1.75,0,0,0-.78-.26Z"/></g><path id="_Path_20" data-name="&lt;Path&gt;" class="cls-6" d="M113.25,65.63c-.06,0,5.57,3.35,3.87,6.18a2.73,2.73,0,0,0,1.11-2.93s1.3,3.45-1.9,5.13c.36.26.57.18.57.18l-.55.59s-.23.38,1.91-.67c-.6.49-.63.85-.63.85s.15.46,1.55-.82A10.56,10.56,0,0,0,117.81,76c3.08-.25,9.73-10.21-2.12-13.17l.55.56Z"/><g id="_Group_13" data-name="&lt;Group&gt;"><path id="_Compound_Path_10" data-name="&lt;Compound Path&gt;" d="M117.62,76.13l.09-.18.1,0-.08-.07a6.33,6.33,0,0,1,.81-1.15,1.2,1.2,0,0,1-.73.35h-.08l-.19-.15c0-.1,0-.46.66-.94a4,4,0,0,1-1.77.92l-.17-.26.48-.48c-.12.07-.28,0-.48-.16A4,4,0,0,0,118.35,70a2.58,2.58,0,0,1-1.17,1.89c.5-1.22.41-3.11-3.76-6-.26-.23-.26-.23-.26-.29l3-2.35-.56-.38c6.39,1.36,7.06,4.85,6.93,6.8-.26,3.26-3.09,6.25-4.74,6.43Zm1.49-2c-.41.74-.85,1.35-1.1,1.76,1.59-.36,4.1-3.14,4.35-6.18.23-3.22-2.14-5.62-6.7-6.74.72.43.72.43.67.51l-2.91,2.19s.07.06.12.08c3.45,2.4,4.72,4.47,3.67,6.13a3,3,0,0,0,.91-2.94h0a.7.7,0,0,1,.11.18,3.9,3.9,0,0,1-1.88,5c.24,0,.38,0,.46,0v0h0l-.38.69c.14-.08.52-.18,1.8-.82a2.74,2.74,0,0,0-.5.95c.21,0,.54-.16,1.38-.87Z"/></g><path id="_Path_21" data-name="&lt;Path&gt;" class="cls-8" d="M113.49,64.66c.78.57,1,.74,1.14,1a4.43,4.43,0,0,0-1.33-.07A18.55,18.55,0,0,0,111.5,64a7.81,7.81,0,0,1-1.38-.74c-.58-.3-1.13-2.32,1-1.76,2.25,1.07,2.55,1.15,2.55,1.15.91.31,1.79.59,2.69.87.49.56,1,1.12,1.53,1.74a32.41,32.41,0,0,0-3.08-1.38,5.08,5.08,0,0,1,1.19,1.43,16.77,16.77,0,0,0-2.56-.62Z"/><g id="_Group_14" data-name="&lt;Group&gt;"><path id="_Path_22" data-name="&lt;Path&gt;" d="M114.8,65.81l-.2,0a4.71,4.71,0,0,0-1.06-.13l-.31,0a18.48,18.48,0,0,0-1.78-1.53h0a6.67,6.67,0,0,1-1.4-.77,1.37,1.37,0,0,1-.54-1.38c.09-.33.52-.84,1.69-.56,2.17,1.05,2.55,1.17,2.55,1.17l2.68.82L118,65.15c-1.17-.36-2.93-1.2-3.15-1.23a3.24,3.24,0,0,1,1.26,1.33l.12.18-.4-.1a19.49,19.49,0,0,0-2.28-.54l0-.23a17.37,17.37,0,0,1,2.34.56,5.73,5.73,0,0,0-1.06-1.2c.39-.18,2.91,1,3.19,1.2l-.9-.71-.79-.84-2.58-.85a21.25,21.25,0,0,1-2.63-1.12c-.73-.2-1.25-.1-1.38.36a1.23,1.23,0,0,0,.46,1.17,6,6,0,0,0,1.33.77,13.92,13.92,0,0,1,1.87,1.56,3.31,3.31,0,0,1,1,.05,5.48,5.48,0,0,0-.85-.67v0c.83.35,1.08.53,1.16.79l.08.2Z"/></g><path id="_Path_23" data-name="&lt;Path&gt;" d="M102.79,52.48a18,18,0,0,1,3-.53Z"/><g id="_Group_15" data-name="&lt;Group&gt;"><path id="_Path_24" data-name="&lt;Path&gt;" class="cls-8" d="M102.82,52.56l0-.18a19.36,19.36,0,0,1,3-.56,23.13,23.13,0,0,1-3,.74Z"/></g></g></g></g></g></g></g></svg>