<svg id="Layer_1" data-name="Layer 1" xmlns="http://www.w3.org/2000/svg" xmlns:xlink="http://www.w3.org/1999/xlink" viewBox="0 0 220 128"><defs><style>.cls-1{fill:none;}.cls-2{clip-path:url(#clip-path);}.cls-3{fill:#fff;}.cls-4{fill:#317267;}.cls-5{fill:#f5e129;}.cls-6{fill:#c0003b;}</style><clipPath id="clip-path"><rect id="_Clipping_Path_" data-name="&lt;Clipping Path&gt;" class="cls-1" y="-0.03" width="220" height="128"/></clipPath></defs><title>Flag_rect_Mozambique</title><g id="MOZAMBIQUE"><g id="_Group_" data-name="&lt;Group&gt;"><g id="_Clip_Group_" data-name="&lt;Clip Group&gt;"><g class="cls-2"><rect id="_Path_" data-name="&lt;Path&gt;" y="-0.03" width="220" height="128"/><rect id="_Path_2" data-name="&lt;Path&gt;" class="cls-3" y="-0.03" width="220" height="44.02"/><rect id="_Path_3" data-name="&lt;Path&gt;" class="cls-4" y="-0.03" width="220" height="40.01"/><rect id="_Path_4" data-name="&lt;Path&gt;" class="cls-3" y="83.93" width="220" height="44.05"/><rect id="_Path_5" data-name="&lt;Path&gt;" class="cls-5" y="87.99" width="220" height="39.99"/><polygon id="_Path_6" data-name="&lt;Path&gt;" class="cls-6" points="0 -0.03 0 127.97 83.98 63.96 0 -0.03"/><polygon id="_Path_7" data-name="&lt;Path&gt;" class="cls-5" points="43.58 87.99 27.99 76.55 12.4 87.99 18.44 69.63 2.77 58.32 22.1 58.37 27.99 39.99 33.9 58.4 53.23 58.29 37.53 69.63 43.58 87.99"/><g id="_Clip_Group_2" data-name="&lt;Clip Group&gt;"><g class="cls-2"><path id="_Path_8" data-name="&lt;Path&gt;" class="cls-3" d="M14.45,75.17H25.68c.91,1,2.92,1.43,4.85,0,3.52-2,10.34,0,10.34,0l1.33-1.43L39,63l-1.18-1.25s-2.52-1.51-7.3-1S24,60.57,24,60.57a29.08,29.08,0,0,0-5.36,1.09c-.13.11-1.35,1.33-1.35,1.33Z"/><g id="_Group_2" data-name="&lt;Group&gt;"><path id="_Compound_Path_" data-name="&lt;Compound Path&gt;" d="M27.93,76.22h0a3.17,3.17,0,0,1-2.34-1l-11.14,0L17.16,63c0-.08,1.26-1.31,1.38-1.43A28.73,28.73,0,0,1,24,60.44c.1,0,1.78.66,6.45.15s7.31,1,7.39,1L39,62.89l3.3,10.83L41,75.27a39.41,39.41,0,0,0-6.2-.87,8.71,8.71,0,0,0-4.17.87,4.44,4.44,0,0,1-2.66,1ZM25.68,75a3.28,3.28,0,0,0,2.25.92h0A4.22,4.22,0,0,0,30.44,75a8.79,8.79,0,0,1,4.32-.89A25.75,25.75,0,0,1,40.9,75l1.22-1.38L38.81,63l-1.15-1.2h0s-2.54-1.45-7.18-1c-4.79.51-6.48-.15-6.53-.18s-4.11.51-5.25,1.08c-.11.1-1.3,1.32-1.3,1.32L14.57,75.2,25.68,75Z"/></g><g id="_Group_3" data-name="&lt;Group&gt;"><path id="_Compound_Path_2" data-name="&lt;Compound Path&gt;" d="M27.86,76.22a4,4,0,0,1-2.34-.84,5.27,5.27,0,0,1,2.48-2c-4.27-1.71-11.19-.86-11.27-.84s-.14-.05-.15-.13a.11.11,0,0,1,.11-.12c.35-.08,7.25-.9,11.52,1,2.12-1,5.51-1.79,10.4-1.1.09,0,.13.08.13.16s-.07.15-.16.1c-4.82-.66-8.06.08-10.08,1a6.15,6.15,0,0,1,2.16,1.66,4.52,4.52,0,0,1-2.8,1.15Zm.44-2.73a7.72,7.72,0,0,0-2.59,1.83c1.52,1,3,1,4.76-.28a5.63,5.63,0,0,0-2.17-1.55Z"/></g><g id="_Group_4" data-name="&lt;Group&gt;"><polygon id="_Path_9" data-name="&lt;Path&gt;" points="28.22 73.49 28.09 61.66 28.31 61.66 28.22 73.49 28.22 73.49"/></g><g id="_Group_5" data-name="&lt;Group&gt;"><polygon id="_Path_10" data-name="&lt;Path&gt;" points="39.88 71.19 37.66 61.87 37.87 61.82 39.88 71.19 39.88 71.19"/></g><g id="_Group_6" data-name="&lt;Group&gt;"><path id="_Path_11" data-name="&lt;Path&gt;" d="M17.63,66.67h0a.16.16,0,0,1-.11-.18l1.11-4.85a.14.14,0,0,1,.28.07l-1.12,4.86a.15.15,0,0,1-.14.1Z"/></g><path id="_Path_12" data-name="&lt;Path&gt;" d="M7.14,76.45l2.64,3.11a.85.85,0,0,0,.87,0l3.92-4.72,1.64-2a1.16,1.16,0,0,0,.3-.92l3.15-2.79a5.16,5.16,0,0,0,.68,0c-.3-.05-.53-.2-.29-.54l.7-.53.55.69a9.57,9.57,0,0,1-.85,1h-.87l-1.64,1.48.71.64,1.08,3,1.33-.92-.86-3.06,1.89-2-.71-1.07.48-.66s6.5,4.11,9,3c.08,0,.16-2.94.16-2.94s-6.74-.69-6.9-2,1.49-1.5,1.49-1.5l-.69-1,.14-.51,1.18,1.48,2.67-2.3L44.58,79.15c.84-.35,1-.53,1.09-1.4L30.32,60.13l1.18-1.25a1,1,0,0,0,.3-.79l1.8-1.56a2.19,2.19,0,0,1,1.18.92l5-4.19a.77.77,0,0,0,.79.11l8.19-7.87-8.93,6.31-.31-.23c0-.26.33-.33,0-.77s-.87.38-.94.38-1.29-.43-1.55-1l-.1,1.43L34.62,53.8l-1.73-.1-2.5,2.42-.3.92.38.82a12.47,12.47,0,0,1-1.33,1.07,1.8,1.8,0,0,0-.28-.36l1.14-1,.17-.74-.4-.56c-.11,0-1.57,1.61-1.65,1.46s-4.23-4.8-4.23-4.8l.23-.85-2.66-2.91a1.93,1.93,0,0,0-2.82,1.74c-.24.46-2.28.08-2.28.08l-1.08.22L9.08,60l3.45,4.17,7-8.92.22-2.55,1.46,1.63a2.44,2.44,0,0,0,1.42-.12l4.18,4.67-.71.69a6.78,6.78,0,0,1,.65.66c.23-.15.45-.33.69-.51.07.1.21.31.29.41-.35.18-.6.46-1,.66a1.93,1.93,0,0,1-1.07-1.55l-2.34,1.94-.08.41-7,5.79-.62.08-.15,1.81,4.54-3.78v-.53l.47.38,3.52-2.78s.24.28.16.28-3.14,2.81-3.14,2.81l-.08.3-.53.49-.33-.26L16,69.91h-.65L13,72.29a3.28,3.28,0,0,0-1.65.46Z"/><g id="_Group_7" data-name="&lt;Group&gt;"><path id="_Compound_Path_3" data-name="&lt;Compound Path&gt;" d="M10.23,79.82a.9.9,0,0,1-.51-.16L7,76.55l4.22-3.93A3.56,3.56,0,0,1,13,72.13l2.27-2.32.73,0,4.13-3.7.48.23.42-.75c2.38-2.19,3-2.7,3.17-2.86h0c-.07,0-.12-.07-.18-.15l-3.33,2.86L20.05,65l.22.43-4.6,3.88-.06-1.91.74-.23,6.91-5.77,0-.31,2.39-2a2.57,2.57,0,0,0,1.22,1.53c0-.11.18-.21.31-.34l.5-.33-.2,0-.64.35-.81-.68.71-.87-4.19-4.5c-.17.26-.77.28-1.33.21l-1.56-1.71,0,2.47-7.08,9L9,60.06l6.18-9,1.18-.25a11.8,11.8,0,0,0,1.48.15c.58,0,.67-.13.7-.15a2,2,0,0,1,3-1.82l2.72,3L24,53h0c.08,0,4.08,4.52,4.21,4.64.06-.07.82-.81,1.13-1.15l.35-.33.4.46.17-.51,2.55-2.45,1.81,0,2.17-2.1.05-1.33a5.42,5.42,0,0,0,1.71.82,1,1,0,0,1,.7-.48,1.17,1.17,0,0,1,.32.15.55.55,0,0,1,.09.71l.21.29,8.76-6.31a.17.17,0,0,1,.19,0,.15.15,0,0,1,0,.2l-8.19,7.87a.79.79,0,0,1-1-.13l-4.78,4.24a3.44,3.44,0,0,0-1.31-.95l-1.67,1.59c.05.3-.05.46-.3.74l-1.18,1.25h0c.17,0,15.23,17.31,15.36,17.46a1.41,1.41,0,0,1-1.15,1.61L28.8,61.38l-2.48,2.3L25,62.17l.09.49.69.92c-.11.23-.89.28-1.27.74a1.17,1.17,0,0,0-.21.82c.11.89,4.23,1.66,6.78,1.91,0,3.17,0,3.17-.17,3.17a2.27,2.27,0,0,1-1,.2c-2.93,0-7.84-3.09-8-3.22l-.3.59.71,1L20.31,71l.88,2.93L19.82,75l-1.3-3-.68-.59,1.65-1.66,1-.05s.41-.51.74-1l-.54-.54-.52.57c0,.2,0,.28.25.33.05,0,.1.1.09.12s-.09.13-.14.16l-.67-.08L16.61,72a1,1,0,0,1-.3.92l-5.57,6.74a.88.88,0,0,1-.51.18Zm9.9-13.56L16.06,70l-.72,0-2.25,2.35a3.61,3.61,0,0,0-1.67.43L7.23,76.55l2.66,2.94a.63.63,0,0,0,.69-.06l5.53-6.68a1.36,1.36,0,0,0,.28-.87L19.58,69h.27s0,0,0,0a.54.54,0,0,1,.1-.49l.74-.54.72.72c-.81,1.23-.88,1.23-.95,1.23h-.87L18,71.34l.72.44,1.13,3,1.13-1-.93-2.94L22,68.74l-.71-.95.48-.79h0c.21,0,5.22,3.14,8.07,3.14a2.23,2.23,0,0,0,1-.18c0-.1,0-1.76.08-2.81-.56.08-6.72-.61-6.9-2a1.27,1.27,0,0,1,.26-1,2.18,2.18,0,0,1,1.35-.67l-.81-.79.14-.66,1.42,1.45,2.47-2.3L44.68,79.08a1.31,1.31,0,0,0,.86-1.33c-.07,0-1.26-1.38-15.33-17.54l1.18-1.43a.81.81,0,0,0,.28-.69l1.84-1.66a2.06,2.06,0,0,1,1.38.94l4.77-4.21a1.75,1.75,0,0,0,.59.13l7-6.56-7.37,5.21-.48-.26s0-.33,0-.38.11-.21-.06-.41-.48.15-.6.25a.63.63,0,0,1-.23.18c-.13,0-1.38-.43-1.67-1L37,51.65,34.71,53.9l-1.82-.07-2.41,2.4-.25.89.36.69c-1.31,1.28-1.39,1.28-1.45,1.28l-.3-.34c0-.07-.11-.25-.07-.28l1.14-1,.05-.38-.25-.62a.71.71,0,0,1-.17.21c-.95.92-1.25,1.17-1.4,1.17-.25-.2-4.35-4.85-4.35-4.85l.2-1-2.63-2.76a3.06,3.06,0,0,0-.87-.15c-1,0-1.55.59-1.71,1.81-.12.23-.43.34-1,.34a8.44,8.44,0,0,1-1.47-.18l-1.05.25L9.19,60l3.44,4,6.85-8.91.17-2.45,1.72,1.56h.42a1.72,1.72,0,0,0,.83-.18L27,58.73l-.71.87.33.15.31.33.18-.25.35-.26s.27.15.3.2l.16.23a2,2,0,0,1-.5.51l-.49.36c-.72-.41-1.29-.92-1.25-1.68l-2.14,2,0,.31-7,5.89-.7.11,0,1.68,4.34-3.85L20,64.91l.69.28L24,62.38c.45.33.41.41.38.46-.22.15-2,1.79-3.17,2.86l0,.23-.58.56-.48-.23Zm10-8.84,0,.16-1.19,1.07c.23.08.3.18.33.26,0-.23.59-.69,1.1-1.15l-.21-.34Z"/></g></g></g></g></g></g></g></svg>