<svg id="Layer_1" data-name="Layer 1" xmlns="http://www.w3.org/2000/svg" xmlns:xlink="http://www.w3.org/1999/xlink" viewBox="0 0 220 128"><defs><style>.cls-1,.cls-44,.cls-61,.cls-62,.cls-63,.cls-64,.cls-69,.cls-78,.cls-79,.cls-80,.cls-81,.cls-82,.cls-83,.cls-94{fill:none;}.cls-2,.cls-28,.cls-45,.cls-91{fill:#c6363c;}.cls-3{clip-path:url(#clip-path);}.cls-26,.cls-29,.cls-34,.cls-35,.cls-4,.cls-40{fill:#194276;}.cls-5{clip-path:url(#clip-path-2);}.cls-13,.cls-14,.cls-17,.cls-19,.cls-20,.cls-24,.cls-46,.cls-47,.cls-48,.cls-49,.cls-50,.cls-51,.cls-52,.cls-53,.cls-54,.cls-55,.cls-6,.cls-66,.cls-67,.cls-68,.cls-70,.cls-71,.cls-72,.cls-73,.cls-74,.cls-76,.cls-85,.cls-86,.cls-87,.cls-88,.cls-89,.cls-90,.cls-92,.cls-93{fill:#fff;}.cls-10,.cls-12,.cls-15,.cls-16,.cls-18,.cls-21,.cls-22,.cls-23,.cls-25,.cls-27,.cls-30,.cls-31,.cls-32,.cls-33,.cls-36,.cls-37,.cls-38,.cls-39,.cls-41,.cls-42,.cls-43,.cls-56,.cls-57,.cls-58,.cls-59,.cls-60,.cls-65,.cls-7,.cls-75,.cls-77,.cls-8,.cls-84,.cls-9{fill:#ebb829;}.cls-10,.cls-12,.cls-13,.cls-14,.cls-15,.cls-16,.cls-17,.cls-18,.cls-19,.cls-20,.cls-21,.cls-22,.cls-23,.cls-24,.cls-25,.cls-26,.cls-27,.cls-28,.cls-29,.cls-30,.cls-31,.cls-32,.cls-33,.cls-34,.cls-35,.cls-36,.cls-37,.cls-38,.cls-39,.cls-40,.cls-41,.cls-42,.cls-43,.cls-44,.cls-46,.cls-47,.cls-48,.cls-49,.cls-50,.cls-51,.cls-52,.cls-53,.cls-54,.cls-55,.cls-56,.cls-57,.cls-58,.cls-59,.cls-60,.cls-61,.cls-62,.cls-63,.cls-64,.cls-65,.cls-66,.cls-67,.cls-68,.cls-69,.cls-7,.cls-70,.cls-71,.cls-72,.cls-73,.cls-74,.cls-75,.cls-76,.cls-77,.cls-78,.cls-79,.cls-8,.cls-80,.cls-81,.cls-82,.cls-83,.cls-84,.cls-85,.cls-86,.cls-87,.cls-88,.cls-89,.cls-9,.cls-90,.cls-91,.cls-92,.cls-93,.cls-94{stroke:#21231e;}.cls-10,.cls-12,.cls-13,.cls-14,.cls-15,.cls-16,.cls-17,.cls-18,.cls-19,.cls-20,.cls-22,.cls-23,.cls-24,.cls-25,.cls-26,.cls-27,.cls-28,.cls-29,.cls-30,.cls-32,.cls-33,.cls-34,.cls-35,.cls-36,.cls-38,.cls-39,.cls-40,.cls-41,.cls-42,.cls-43,.cls-44,.cls-45,.cls-46,.cls-47,.cls-48,.cls-49,.cls-50,.cls-51,.cls-52,.cls-53,.cls-54,.cls-55,.cls-57,.cls-58,.cls-59,.cls-60,.cls-61,.cls-62,.cls-63,.cls-64,.cls-67,.cls-69,.cls-7,.cls-70,.cls-71,.cls-72,.cls-73,.cls-75,.cls-77,.cls-78,.cls-79,.cls-8,.cls-80,.cls-81,.cls-83,.cls-86,.cls-87,.cls-89,.cls-91,.cls-94{stroke-miterlimit:22.93;}.cls-7{stroke-width:0.17px;}.cls-20,.cls-29,.cls-69,.cls-76,.cls-8,.cls-82,.cls-9{stroke-width:0.17px;}.cls-21,.cls-31,.cls-37,.cls-56,.cls-65,.cls-66,.cls-68,.cls-74,.cls-76,.cls-82,.cls-84,.cls-85,.cls-88,.cls-9,.cls-90,.cls-92,.cls-93{stroke-linejoin:round;}.cls-10{stroke-width:0.17px;}.cls-11{fill:#21231e;}.cls-12{stroke-width:0.16px;}.cls-13,.cls-66{stroke-width:0.17px;}.cls-14{stroke-width:0.17px;}.cls-15{stroke-width:0.17px;}.cls-16,.cls-51{stroke-width:0.17px;}.cls-17{stroke-width:0.17px;}.cls-18{stroke-width:0.16px;}.cls-19{stroke-width:0.16px;}.cls-21{stroke-width:0.17px;}.cls-22{stroke-width:0.17px;}.cls-23{stroke-width:0.17px;}.cls-24{stroke-width:0.17px;}.cls-25{stroke-width:0.17px;}.cls-26,.cls-67,.cls-68,.cls-83{stroke-width:0.17px;}.cls-27{stroke-width:0.17px;}.cls-28{stroke-width:0.17px;}.cls-30,.cls-31{stroke-width:0.17px;}.cls-32{stroke-width:0.17px;}.cls-33{stroke-width:0.17px;}.cls-34{stroke-width:0.17px;}.cls-35{stroke-width:0.17px;}.cls-36{stroke-width:0.17px;}.cls-37{stroke-width:0.13px;}.cls-38{stroke-width:0.17px;}.cls-39{stroke-width:0.17px;}.cls-40{stroke-width:0.17px;}.cls-41{stroke-width:0.17px;}.cls-42{stroke-width:0.16px;}.cls-43{stroke-width:0.17px;}.cls-44,.cls-69,.cls-74,.cls-78,.cls-79,.cls-80,.cls-82,.cls-83{stroke-linecap:round;}.cls-44{stroke-width:0.17px;}.cls-45{stroke:#fff;}.cls-45,.cls-91,.cls-94{stroke-width:0.34px;}.cls-46{stroke-width:0.17px;}.cls-47{stroke-width:0.16px;}.cls-48{stroke-width:0.15px;}.cls-49{stroke-width:0.16px;}.cls-50{stroke-width:0.17px;}.cls-52{stroke-width:0.16px;}.cls-53{stroke-width:0.17px;}.cls-54{stroke-width:0.17px;}.cls-55{stroke-width:0.17px;}.cls-56{stroke-width:0.17px;}.cls-57{stroke-width:0.17px;}.cls-58{stroke-width:0.16px;}.cls-59{stroke-width:0.17px;}.cls-60{stroke-width:0.16px;}.cls-61{stroke-width:0.13px;}.cls-62{stroke-width:0.17px;}.cls-63{stroke-width:0.17px;}.cls-64{stroke-width:0.17px;}.cls-65{stroke-width:0.17px;}.cls-70{stroke-width:0.15px;}.cls-71{stroke-width:0.17px;}.cls-72{stroke-width:0.17px;}.cls-73{stroke-width:0.17px;}.cls-74{stroke-width:0.17px;}.cls-75{stroke-width:0.17px;}.cls-77,.cls-84{stroke-width:0.17px;}.cls-78{stroke-width:0.17px;}.cls-79{stroke-width:0.22px;}.cls-80{stroke-width:0.16px;}.cls-81{stroke-width:0.17px;}.cls-85{stroke-width:0.15px;}.cls-86{stroke-width:0.15px;}.cls-87{stroke-width:0.17px;}.cls-88{stroke-width:0.17px;}.cls-89{stroke-width:0.16px;}.cls-90{stroke-width:0.13px;}.cls-92{stroke-width:0.17px;}.cls-93{stroke-width:0.17px;}</style><clipPath id="clip-path"><rect class="cls-1" x="0.01" y="42.62" width="219.41" height="85.38"/></clipPath><clipPath id="clip-path-2"><rect class="cls-1" x="0.01" y="85.19" width="219.41" height="42.8"/></clipPath></defs><title>Flag_rect_Serbia</title><g id="g6907"><path id="path822" class="cls-2" d="M0,0h219.4V128H0Z"/><g class="cls-3"><g id="g828"><path id="path826" class="cls-4" d="M0,42.56h219.4V128H0Z"/></g></g><g class="cls-5"><g id="g832"><path id="path830" class="cls-6" d="M0,85h219.4v43H0Z"/></g></g><g id="g6512"><g id="g1244"><g id="g850"><path id="path834" class="cls-7" d="M99.33,30.46a2.29,2.29,0,0,0,0-1.57c0-.1.08-.3.14-.38,1.82-2.55,1.85-2.78.59-3.74a21.69,21.69,0,0,0-5.5-2.26,13.26,13.26,0,0,1-1-1c3.51.26,7.31,1.67,9.23,3.32,1,.88-.22,2.64-1.73,5.32-.93.67-1.37,1-1.73.32Z"/><g id="g846"><path id="path836" class="cls-8" d="M99.88,30.66a4.68,4.68,0,0,0,.18-.66,2.21,2.21,0,0,0-.08-1.14A20.51,20.51,0,0,0,101.2,27a2,2,0,0,0,.29-1.47,2.53,2.53,0,0,0-1.07-1.26,9.1,9.1,0,0,0-1.91-1.05,11.6,11.6,0,0,0-3.74-1l.58.54a18,18,0,0,1,4.68,2c1.26.95,1.23,1.18-.59,3.73-.06.08-.19.28-.14.38a2.52,2.52,0,0,1,0,1.6c.15.29.38.14.6.17Z"/><path id="path838" class="cls-8" d="M84.54,19.29c0-.32,0-.26.06.23a.22.22,0,0,1,.2-.14c.15,0,.24.23.25.73l0,.38c4.66-.1,7.41.6,8.13,2,.58,1.11-.41,2.94-1.92,5-.18.26-.17.24,0,.44a1.28,1.28,0,0,1,.33,1.27,3.33,3.33,0,0,0,2.93.2,1.71,1.71,0,0,1,.78-.79s.25-.14.27-.21c.5-1.58,1-3.05,1.42-4.41,1.35-4.29-10.58-4.68-12.42-4.68Z"/><g id="g844"><path id="path840" class="cls-9" d="M96.83,37.73a13.29,13.29,0,0,1,1.59-2.61c-1.66,1.22-2.53,1-2.65-.55a1,1,0,0,0-.36,0q-1.89,2.94-3.68-.81c-1.63,2.56-3,2.52-4.11-.15-1.88,2.33-3.45,2.34-4.74,0v-.29c.07,0,0,0-.14,0l0-.05-.14,0-.14,0,0,.05c-.17,0-.22,0-.15,0v.3c-1.28,2.29-2.86,2.28-4.73,0-1.1,2.67-2.49,2.71-4.12.15-1.19,2.5-2.41,2.77-3.68.81a1,1,0,0,0-.36,0c-.12,1.59-1,1.77-2.64.55a13.78,13.78,0,0,1,1.59,2.61c4.76-.2,9.51-.44,14.25-.69,4.75.25,9.49.49,14.26.69Z"/><path id="path842" class="cls-9" d="M98.78,33.89l-.52-.08c-1,2.42-1.89,2.48-2.06.17.23-.08.14-.46.39-.31s.3-.15.19-.27a.54.54,0,0,0-.78.05.51.51,0,0,0-.75-.38c-.16.06-.1.34,0,.32s.15.24.23.41c-1.77,2.3-2.67,2-2.45-1a10.11,10.11,0,0,1-1.35-.32C90.1,35.74,89,35.88,88,33c.2-.15.15-.52.44-.4s.3-.23.16-.35a.61.61,0,0,0-1,.18.6.6,0,0,0-.93-.3c-.16.1-.06.41.11.36.33-.09.18.35.44.5-.72,2.75-4.35,2.93-3.76-1.14l-.93,0-.93,0c.59,4.07-3,3.89-3.75,1.14.25-.15.1-.59.43-.5.17.05.28-.26.11-.36a.61.61,0,0,0-.93.3.6.6,0,0,0-1-.18c-.15.12,0,.41.15.35s.24.25.44.4c-.93,2.93-2.09,2.79-3.71-.47a10.11,10.11,0,0,1-1.35.32c.22,3-.69,3.3-2.45,1,.08-.17,0-.43.22-.41s.21-.26.06-.32a.52.52,0,0,0-.76.38.54.54,0,0,0-.78-.05c-.11.12.06.35.19.27s.17.23.39.31c-.17,2.31-1.06,2.25-2.06-.17l-.51.08a2.59,2.59,0,0,0,.53,1.63c1.49,1.89,2.6,1.46,2.65-.66,2,2.29,3.43,2,3.69-.41,1.65,3,4.28,1.58,4.34-.26a2.53,2.53,0,0,0,5-.42,2.54,2.54,0,0,0,5,.42c.05,1.84,2.69,3.3,4.33.26.27,2.41,1.75,2.7,3.7.41,0,2.12,1.15,2.55,2.64.66a2.6,2.6,0,0,0,.54-1.63Z"/></g></g><path id="path848" class="cls-10" d="M85.91,30.8c-.22-.14-.26-.11-.33-.2a.65.65,0,0,1-.06-.49c.11-.73-.33-.63-.83-.3a7.2,7.2,0,0,0-.72.74c-.21.19-.39.21-.44.29,0,.28,0,.53,0,.64h0c0,.11,0,.35,0,.64,0,.07.23.09.44.29a7.2,7.2,0,0,0,.72.74c.5.32.94.43.83-.31a.66.66,0,0,1,.06-.49c.07-.09.11-.05.33-.19a1,1,0,0,0,.33-.32c.07-.11,0-.24,0-.36s0-.25,0-.37A.9.9,0,0,0,85.91,30.8Z"/></g><path id="path852" class="cls-11" d="M83.5,31.59l0,.12a2.5,2.5,0,0,1,1.35.61,2,2,0,0,0-1.37-.73"/><path id="path854" class="cls-11" d="M83.5,31.36l0-.12a2.5,2.5,0,0,0,1.35-.61,2,2,0,0,1-1.37.73"/><g id="g1042"><g id="g872"><path id="path856" class="cls-8" d="M85.52,29.78a1.26,1.26,0,0,0-.48.28c-.22.21-.08.57.21.92a.85.85,0,0,1,.14.5.81.81,0,0,1-.14.49c-.29.35-.43.71-.21.93a1.37,1.37,0,0,0,.48.27.9.9,0,0,0,0-.33.66.66,0,0,1,.06-.49c.07-.09.11-.06.33-.19a.89.89,0,0,0,.32-.32c.08-.11,0-.24,0-.36s0-.26,0-.37a.89.89,0,0,0-.32-.32c-.22-.13-.26-.1-.33-.19a.65.65,0,0,1-.06-.49.9.9,0,0,0,0-.33Z"/><path id="path858" class="cls-7" d="M65.81,30.46a2.28,2.28,0,0,1,0-1.57c0-.09-.09-.3-.15-.38-1.81-2.55-1.84-2.78-.59-3.73a21.41,21.41,0,0,1,5.51-2.27,12.91,12.91,0,0,0,1-1c-3.5.25-7.31,1.66-9.22,3.31-1,.88.21,2.64,1.72,5.33.94.66,1.38,1,1.73.31Z"/><path id="path860" class="cls-8" d="M65.26,30.66a3.57,3.57,0,0,1-.17-.66,2.11,2.11,0,0,1,.08-1.14A18.68,18.68,0,0,1,63.94,27a2,2,0,0,1-.29-1.47,2.63,2.63,0,0,1,1.07-1.26,8.94,8.94,0,0,1,1.92-1.05,11.61,11.61,0,0,1,3.73-1l-.58.54a18.28,18.28,0,0,0-4.68,2c-1.25.95-1.22,1.18.6,3.73.05.08.18.28.14.38a2.39,2.39,0,0,0,0,1.6c-.16.29-.39.14-.61.17Z"/><path id="path862" class="cls-8" d="M80.6,19.29c0-.32,0-.26,0,.23a.23.23,0,0,0-.21-.14c-.14,0-.23.23-.25.73l0,.38c-4.65-.1-7.41.6-8.12,2-.59,1.11.41,2.94,1.91,5,.18.26.18.24,0,.44a1.28,1.28,0,0,0-.32,1.27,3.35,3.35,0,0,1-2.94.2,1.73,1.73,0,0,0-.77-.79c-.06,0-.26-.14-.28-.21-.5-1.58-1-3.05-1.42-4.41-1.34-4.29,10.59-4.68,12.42-4.68Z"/><path id="path864" class="cls-12" d="M81.41,37l-.16,4.64c4.6.13,10.06.34,14.67.47l.92-4.34c-11.08-.7-16.18-.92-15.43-.77Z"/><g id="g870"><path id="path866" class="cls-8" d="M81.41,37v0q-3.69.16-13.1.75l.92,4.34c4.17-.12,9-.3,13.34-.43,4.31.13,9.17.31,13.35.43l.92-4.34c-6.29-.39-10.65-.64-13.11-.75v0C84,37,83.6,37,82.57,37s-1.41,0-1.16,0Z"/><path id="path868" class="cls-8" d="M82.57,37.54H79.13l-.59,0H76.88l-.89,0h0l-1.29.06h-.09c-.86,0-1.72.1-2.57.17h0c-1.25.1-2.48.21-3.71.33-.69.07-.83-.75,0-.83,1.23-.13,2.46-.24,3.71-.33h0q2.57-.2,5.19-.3h.39l2.16-.06h5.73c.72,0,1.44,0,2.15.06H88q2.63.11,5.19.3h0c1.24.09,2.48.2,3.7.33.83.08.7.9,0,.83-1.22-.12-2.46-.23-3.7-.33h0c-.85-.07-1.71-.12-2.57-.17h-.09L89.2,37.7h0l-.88,0H86.61l-.6,0H82.57Z"/></g></g><g id="g884"><path id="path874" class="cls-13" d="M71.72,27.39a.9.9,0,1,1-.9.89A.89.89,0,0,1,71.72,27.39Z"/><g id="g882"><path id="path876" class="cls-14" d="M64.08,29.26a.85.85,0,0,1,.84.84.84.84,0,1,1-.84-.84Z"/><path id="path878" class="cls-14" d="M63.29,27.74a.84.84,0,0,1,.83.84.83.83,0,0,1-1.66,0A.84.84,0,0,1,63.29,27.74Z"/><path id="path880" class="cls-14" d="M62.54,26.21a.83.83,0,1,1-.83.83A.83.83,0,0,1,62.54,26.21Z"/></g></g><path id="path886" class="cls-15" d="M82.57,30.39a1.09,1.09,0,1,1-1.08,1.09A1.09,1.09,0,0,1,82.57,30.39Z"/><path id="path888" class="cls-16" d="M77.24,29.06c.49,0,.37.83.27,1s-.24.25-.39,0-.36-1,.12-1Z"/><path id="path890" class="cls-17" d="M77.27,29.53c1.13-.08.85,1.93.63,2.38s-.56.6-.93.06-.83-2.37.3-2.44Z"/><path id="path892" class="cls-18" d="M68.16,30.27c.46-.14.55.71.51.92s-.18.31-.38.12-.58-.89-.13-1Z"/><path id="path894" class="cls-19" d="M68.3,30.71c1.08-.34,1.29,1.68,1.18,2.17s-.4.72-.89.28-1.36-2.1-.29-2.45Z"/><g id="g904"><path id="path896" class="cls-9" d="M80.05,20.07a15.85,15.85,0,0,0-7.36,1c-2.07.82-1.87,3.22.66,6.55A3.47,3.47,0,0,0,73,29.17h.69a1.36,1.36,0,0,1,.25-1.25c.15-.22.18-.18,0-.44-1.5-2.09-2.5-3.92-1.91-5,.71-1.35,3.47-2.05,8.12-2l0-.37,0-.05Z"/><g id="g902"><path id="path898" class="cls-20" d="M68.28,20.75a.87.87,0,1,1-.86.87A.87.87,0,0,1,68.28,20.75Z"/><path id="path900" class="cls-20" d="M70,20.2a.87.87,0,1,1-.87.86A.87.87,0,0,1,70,20.2Z"/></g></g><g id="g914"><path id="path906" class="cls-8" d="M70.2,20.94l.26.34c-1.37.75-1.93,1.54-1.8,2.33,0,.14.44,1.59,1.37,4.41a8.67,8.67,0,0,1,1.41,1.17s.1.17.06.2c.1.43-.39.34-.71.24a2.68,2.68,0,0,0-.91-1c-.06,0-.26-.14-.28-.21-.5-1.58-1-3.05-1.42-4.41s.5-2.34,2-3Z"/><path id="path908" class="cls-21" d="M64.82,31.12l-.06.27a2.45,2.45,0,0,1-1,.07c.48-.46.83-.56,1.08-.34Z"/><path id="path910" class="cls-22" d="M64.77,30.49a3.71,3.71,0,0,1,.38.11.54.54,0,0,0,.47-.1c.54-.32.55.26.34.7a1.07,1.07,0,0,0,.07.94c.17.32.14.47,0,.55l-.23.16c-.15.17-.26.14-.28-.09a1.71,1.71,0,0,1-.88-1.19c-.23-.67-1.09-.82.12-1.08Z"/><path id="path912" class="cls-23" d="M65,30.51c.47.17.53-.09.84-.08-.12.72-.25,1.09-1,.7a.86.86,0,0,0-1,.33c0,.09-.28-.09-.37-.28-.36-.81.94-.9,1.57-.67Z"/></g><g id="g936"><g id="g924"><path id="path916" class="cls-24" d="M79.29,18.22a.86.86,0,1,1,0,1.72.86.86,0,1,1,0-1.72Z"/><path id="path918" class="cls-24" d="M77.53,18.22a.86.86,0,1,1,0,1.72.86.86,0,1,1,0-1.72Z"/><path id="path920" class="cls-24" d="M75.77,18.35a.86.86,0,0,1,0,1.72.86.86,0,0,1,0-1.72Z"/><path id="path922" class="cls-24" d="M74.14,18.67a.86.86,0,1,1-.86.86A.86.86,0,0,1,74.14,18.67Z"/></g><g id="g934"><path id="path926" class="cls-20" d="M63.46,23.1a.86.86,0,1,1-.87.86A.86.86,0,0,1,63.46,23.1Z"/><path id="path928" class="cls-20" d="M64.94,22.16a.87.87,0,1,1-.87.87A.86.86,0,0,1,64.94,22.16Z"/><path id="path930" class="cls-20" d="M66.62,21.37a.87.87,0,1,1,0,1.73.87.87,0,0,1,0-1.73Z"/><path id="path932" class="cls-20" d="M62.31,24.5a.87.87,0,1,1-.86.86A.87.87,0,0,1,62.31,24.5Z"/></g></g><path id="path938" class="cls-25" d="M79.37,39.4l3.2-1.6,3.2,1.6L82.57,41Z"/><path id="path940" class="cls-26" d="M82.57,38.42c.8,0,1.44.43,1.44,1s-.64,1-1.44,1-1.44-.43-1.44-1S81.78,38.42,82.57,38.42Z"/><path id="path942" class="cls-27" d="M72.26,39.8,75.36,38l3.29,1.4-3.1,1.79Z"/><path id="path944" class="cls-28" d="M75.39,38.63c.8-.05,1.47.34,1.5.87s-.59,1-1.38,1-1.46-.34-1.5-.87S74.6,38.68,75.39,38.63Z"/><g id="g960"><path id="path946" class="cls-8" d="M68.54,38.52l3.34,1.26-2.76,1.85c-.72-.24-1.28-2.67-.58-3.11Z"/><path id="path948" class="cls-29" d="M68.6,39.13c.79-.08,1.48.28,1.53.81s-.55,1-1.34,1.1c-.51.06-.83-.39-.89-.87a.86.86,0,0,1,.7-1Z"/><g id="g958"><path id="path950" class="cls-20" d="M79.1,40a.45.45,0,1,1-.45.45A.45.45,0,0,1,79.1,40Z"/><path id="path952" class="cls-20" d="M72.24,40.37a.45.45,0,1,1-.45.45A.45.45,0,0,1,72.24,40.37Z"/><path id="path954" class="cls-20" d="M72,38.3a.45.45,0,1,1-.45.45A.45.45,0,0,1,72,38.3Z"/><path id="path956" class="cls-20" d="M79.08,38a.45.45,0,1,1-.45.45A.45.45,0,0,1,79.08,38Z"/></g></g><g id="g970"><path id="path962" class="cls-30" d="M66.93,34c.34-.1.87.65,1,.64a3.16,3.16,0,0,0-.77-2.27c-.42-.14-.45-.4-.54-1,0-.19-.37-.06-.38.25a2.67,2.67,0,0,0,0,.81.29.29,0,0,1-.11.32c.64.25.8.56.77,1.26Z"/><path id="path964" class="cls-31" d="M66.62,31.35a1.4,1.4,0,0,0-.09.47.66.66,0,0,0,.16.45,1.48,1.48,0,0,0,.42.35,1.17,1.17,0,0,1,.32.42,1.46,1.46,0,0,1,.16.55c0,.5.12.94.34,1a.43.43,0,0,0,.33,0,1.13,1.13,0,0,0-.1-.34,1,1,0,0,1-.2-.51,1,1,0,0,1,0-.46c0-.16.13-.22.12-.37s-.27-.84-.6-.84-.49,0-.66-.47a.91.91,0,0,0-.18-.29Z"/><path id="path966" class="cls-32" d="M65.38,32.54a.94.94,0,0,1,.3-.15.83.83,0,0,1,.54,0c.78.24,1.13,1.63.26,2-.16,0-.32-.14-.48-.47a2.68,2.68,0,0,0-.57-1c-.13-.15-.13-.29-.05-.37Z"/><path id="path968" class="cls-33" d="M65.78,32.64c.76-.3,1.31,1.15.61,1.42-.39.15-.42-.33-.5-.59s-.84-.55-.11-.83Z"/></g><path id="path972" class="cls-34" d="M65.86,32.85c.37-.14.88.72.41.91a.48.48,0,0,1-.66-.3A.44.44,0,0,1,65.86,32.85Z"/><path id="path974" class="cls-27" d="M92.88,39.8,89.79,38l-3.29,1.4,3.09,1.79Z"/><path id="path976" class="cls-28" d="M89.75,38.63c-.79-.05-1.46.34-1.49.87s.58,1,1.37,1,1.47-.35,1.5-.88-.59-1-1.38-1Z"/><path id="path978" class="cls-8" d="M96.61,38.52l-3.35,1.26L96,41.63c.71-.24,1.28-2.67.58-3.11Z"/><path id="path980" class="cls-29" d="M96.54,39.13c-.79-.08-1.47.28-1.52.81s.54,1,1.33,1.1c.52.06.83-.39.89-.87A.85.85,0,0,0,96.54,39.13Z"/><g id="g1006"><g id="g990"><path id="path982" class="cls-20" d="M86.05,40a.45.45,0,0,0,0,.9.45.45,0,1,0,0-.9Z"/><path id="path984" class="cls-20" d="M92.9,40.37a.45.45,0,0,0,0,.9.45.45,0,0,0,0-.9Z"/><path id="path986" class="cls-20" d="M93.15,38.3a.45.45,0,1,0,.45.45A.45.45,0,0,0,93.15,38.3Z"/><path id="path988" class="cls-20" d="M86.06,38a.45.45,0,1,0,.45.45A.45.45,0,0,0,86.06,38Z"/></g><path id="path992" class="cls-13" d="M71,25.92a.9.9,0,1,1-.9.9A.89.89,0,0,1,71,25.92Z"/><path id="path994" class="cls-13" d="M70.37,24.43a.9.9,0,1,1-.89.9A.9.9,0,0,1,70.37,24.43Z"/><path id="path996" class="cls-20" d="M72.52,19.19a.87.87,0,1,1-.87.86A.87.87,0,0,1,72.52,19.19Z"/><g id="g1004"><path id="path998" class="cls-13" d="M71.06,19.85a.9.9,0,1,1-.89.89A.89.89,0,0,1,71.06,19.85Z"/><path id="path1000" class="cls-13" d="M70,21.11a.9.9,0,1,1-.9.9A.9.9,0,0,1,70,21.11Z"/><path id="path1002" class="cls-13" d="M69.82,22.71a.9.9,0,1,1-.89.9A.9.9,0,0,1,69.82,22.71Z"/></g></g><path id="path1008" class="cls-8" d="M83,12.69a.44.44,0,0,0,0-.88.44.44,0,0,0-.44-.43.44.44,0,0,0-.44.43.44.44,0,0,0,0,.88v.89h-.77a.44.44,0,0,0-.44-.43.43.43,0,0,0-.43.43.43.43,0,0,0-.44.43.44.44,0,0,0,.44.44.43.43,0,0,0,.43.43.44.44,0,0,0,.44-.42h.77v3H83v-3h.77a.45.45,0,0,0,.44.42.44.44,0,0,0,.44-.43.44.44,0,0,0,.43-.44.43.43,0,0,0-.43-.43.44.44,0,0,0-.44-.43.44.44,0,0,0-.44.43H83Z"/><path id="path1010" class="cls-35" d="M82.57,15.5a2.42,2.42,0,1,1-2.41,2.42A2.42,2.42,0,0,1,82.57,15.5Z"/><path id="path1012" class="cls-36" d="M82.57,15.5a3.13,3.13,0,0,1,.44,0v1.91h-.88V15.54A3.27,3.27,0,0,1,82.57,15.5Z"/><g id="g1032"><path id="path1014" class="cls-8" d="M84.94,17.43a2.63,2.63,0,0,1,0,.49,1.87,1.87,0,0,1,0,.34c-.79,0-1.59,0-2.39,0s-1.6,0-2.39,0a1.88,1.88,0,0,1,0-.34,2,2,0,0,1,0-.49c.78,0,1.57-.05,2.36-.05s1.58,0,2.37.05Z"/><path id="path1016" class="cls-9" d="M80.7,19.43c-.51-.32-.6.17-.59.66A21.2,21.2,0,0,1,80,26c-.19.91-.52,1.42-.2,1.59.79.45,1.16.85,1,1.07.24.45.83.37,1.73.22.9.15,1.49.23,1.73-.22-.13-.22.24-.62,1-1.07.31-.17,0-.68-.21-1.59-.5-2.26-.14-4-.1-5.87,0-.49-.07-1-.58-.66a4,4,0,0,1-3.75,0Z"/><g id="g1030"><path id="path1018" class="cls-20" d="M82.57,26.39a1,1,0,1,1-1,1A1,1,0,0,1,82.57,26.39Z"/><path id="path1020" class="cls-20" d="M82.57,24.72a1,1,0,1,1-1,1A1,1,0,0,1,82.57,24.72Z"/><path id="path1022" class="cls-20" d="M82.57,23.12a1,1,0,1,1-1,1A1,1,0,0,1,82.57,23.12Z"/><path id="path1024" class="cls-20" d="M82.57,18.58a1,1,0,1,1-1,1A1,1,0,0,1,82.57,18.58Z"/><path id="path1026" class="cls-20" d="M82.57,20a1,1,0,1,1-1,1A1,1,0,0,1,82.57,20Z"/><path id="path1028" class="cls-20" d="M82.57,21.52a1,1,0,1,1-1,1A1,1,0,0,1,82.57,21.52Z"/></g></g><g id="g1040"><path id="path1034" class="cls-37" d="M81.48,28.49a2.86,2.86,0,0,0-1.21-1.35A17.24,17.24,0,0,0,80.66,20c0-.43-.15-.62-.32-.62s-.23.23-.25.73a36.15,36.15,0,0,1,.17,4.21,13.88,13.88,0,0,1-.6,3c0,.14.06.24.55.52a1.27,1.27,0,0,1,.65.7.25.25,0,0,1,.21,0c.36.1.51.07.41,0Z"/><path id="path1036" class="cls-37" d="M83.66,28.49a2.86,2.86,0,0,1,1.21-1.35A17.26,17.26,0,0,1,84.49,20c0-.43.14-.62.31-.62s.24.23.25.73a35.92,35.92,0,0,0-.16,4.21,13.87,13.87,0,0,0,.59,3c0,.14-.06.24-.54.52a1.29,1.29,0,0,0-.66.7.23.23,0,0,0-.2,0c-.36.1-.51.07-.42,0Z"/><path id="path1038" class="cls-38" d="M83.25,28.13c.14.22.11.27.2.34a.65.65,0,0,0,.49.06c.73-.11.63.33.3.83a7.2,7.2,0,0,1-.74.72c-.19.21-.21.39-.29.44H81.93c-.07-.05-.09-.23-.29-.44a7.2,7.2,0,0,1-.74-.72c-.33-.5-.43-.94.31-.83a.66.66,0,0,0,.49-.06c.09-.07,0-.12.19-.34a1.06,1.06,0,0,1,.31-.32.67.67,0,0,1,.37,0c.13,0,.25,0,.37,0a1,1,0,0,1,.31.32Z"/></g></g><path id="path1044" class="cls-11" d="M82.46,30.54h-.12a2.5,2.5,0,0,0-.61-1.35,2,2,0,0,1,.73,1.36"/><path id="path1046" class="cls-11" d="M82.68,30.54h.13a2.43,2.43,0,0,1,.61-1.35,2.07,2.07,0,0,0-.74,1.36"/><path id="path1048" class="cls-8" d="M84.27,28.52A1.63,1.63,0,0,1,84,29c-.22.22-.58.08-.92-.22a1,1,0,0,0-1,0c-.35.3-.71.44-.93.22a1.63,1.63,0,0,1-.28-.49,1.34,1.34,0,0,1,.34,0,.66.66,0,0,0,.49-.06c.09-.07,0-.12.19-.34a1.06,1.06,0,0,1,.31-.32.67.67,0,0,1,.37,0c.13,0,.25,0,.37,0a1,1,0,0,1,.31.32c.14.22.1.27.19.34a.66.66,0,0,0,.49.06,1.35,1.35,0,0,1,.34,0Z"/><path id="path1050" class="cls-10" d="M79.23,30.8c.22-.14.27-.11.34-.2a.65.65,0,0,0,.06-.49c-.12-.73.33-.63.83-.3a6.21,6.21,0,0,1,.71.74c.22.19.39.21.45.29,0,.28,0,.53,0,.64h0c0,.11,0,.35,0,.64-.06.07-.23.09-.45.29a6.21,6.21,0,0,1-.71.74c-.5.32-.95.43-.83-.31a.66.66,0,0,0-.06-.49c-.07-.09-.12-.05-.34-.19a1,1,0,0,1-.32-.32c-.07-.11,0-.24,0-.36s0-.25,0-.37A.87.87,0,0,1,79.23,30.8Z"/><path id="path1052" class="cls-11" d="M81.64,31.59l0,.12a2.47,2.47,0,0,0-1.34.61,2,2,0,0,1,1.36-.73"/><path id="path1054" class="cls-11" d="M81.64,31.36l0-.12a2.47,2.47,0,0,1-1.34-.61,2,2,0,0,0,1.36.73"/><path id="path1056" class="cls-8" d="M79.62,29.78a1.19,1.19,0,0,1,.48.28c.23.21.08.57-.21.92a.84.84,0,0,0-.13.5.81.81,0,0,0,.13.49c.29.35.44.71.21.93a1.29,1.29,0,0,1-.48.27,1.27,1.27,0,0,1,0-.33.66.66,0,0,0-.06-.49c-.07-.09-.12-.06-.34-.19a1,1,0,0,1-.32-.32c-.07-.11,0-.24,0-.36s0-.26,0-.37a1,1,0,0,1,.32-.32c.22-.13.27-.1.34-.19a.65.65,0,0,0,.06-.49,1.27,1.27,0,0,1,0-.33Z"/><path id="path1058" class="cls-10" d="M85.91,32.16c-.22.14-.26.1-.33.19a.66.66,0,0,0-.06.49c.11.74-.33.63-.83.31a7.2,7.2,0,0,1-.72-.74c-.21-.2-.39-.22-.44-.29,0-.29,0-.53,0-.64h0c0-.11,0-.36,0-.64,0-.08.23-.1.44-.29a7.2,7.2,0,0,1,.72-.74c.5-.33.94-.43.83.3a.65.65,0,0,0,.06.49c.07.09.11.06.33.2a.9.9,0,0,1,.33.31c.07.11,0,.24,0,.37s0,.25,0,.36A1,1,0,0,1,85.91,32.16Z"/><path id="path1060" class="cls-11" d="M83.5,31.36l0-.12a2.5,2.5,0,0,0,1.35-.61,2,2,0,0,1-1.37.73"/><path id="path1062" class="cls-11" d="M83.5,31.59l0,.12a2.5,2.5,0,0,1,1.35.61,2,2,0,0,0-1.37-.73"/><g id="g1076"><g id="g1072"><path id="path1064" class="cls-8" d="M85.52,33.17A1.37,1.37,0,0,1,85,32.9c-.22-.22-.08-.58.21-.93a.82.82,0,0,0,.14-.5.81.81,0,0,0-.14-.49c-.29-.35-.43-.71-.21-.92a1.26,1.26,0,0,1,.48-.28.9.9,0,0,1,0,.33.65.65,0,0,0,.06.49c.07.09.11.06.33.19a.89.89,0,0,1,.32.32c.08.11,0,.24,0,.37s0,.25,0,.36a.89.89,0,0,1-.32.32c-.22.13-.26.1-.33.19a.66.66,0,0,0-.06.49.9.9,0,0,1,0,.33Z"/><g id="g1070"><path id="path1066" class="cls-15" d="M82.57,30.39a1.09,1.09,0,1,1-1.08,1.09A1.09,1.09,0,0,1,82.57,30.39Z"/><path id="path1068" class="cls-39" d="M82.57,30.68a.8.8,0,1,1-.8.8A.8.8,0,0,1,82.57,30.68Z"/></g></g><path id="path1074" class="cls-40" d="M82.57,31a.51.51,0,1,1-.5.51A.51.51,0,0,1,82.57,31Z"/></g><path id="path1078" class="cls-11" d="M65.53,32.43l.09,0a1,1,0,0,1-.18-.88.78.78,0,0,0,.09.92"/><path id="path1080" class="cls-8" d="M72.52,28.75c.19.23.17.29.27.36a.51.51,0,0,0,.48,0c.68-.26.68.28.48.9a6.32,6.32,0,0,1-.51.88c-.13.25-.1.44-.16.5l-.56.08h0l-.55.07c-.08-.05-.14-.22-.37-.42a8,8,0,0,1-.83-.64c-.43-.49-.65-1,0-.94a.46.46,0,0,0,.41-.15c.06-.09,0-.13.07-.4a1.07,1.07,0,0,1,.19-.43c.09-.1.21-.08.33-.1s.22-.09.35,0a1.27,1.27,0,0,1,.38.33Z"/><path id="path1082" class="cls-11" d="M72.43,31.48h-.11a3.43,3.43,0,0,0-.89-1.33,2.7,2.7,0,0,1,1,1.34"/><path id="path1084" class="cls-11" d="M72.62,31.45l.11,0a2.84,2.84,0,0,1,.21-1.52,2.21,2.21,0,0,0-.32,1.55"/><path id="path1086" class="cls-8" d="M73.59,29a1.89,1.89,0,0,1-.15.6c-.15.29-.52.18-.92-.1a.7.7,0,0,0-.48-.07.61.61,0,0,0-.41.22c-.22.37-.49.58-.75.37a2,2,0,0,1-.38-.49.75.75,0,0,1,.29,0,.46.46,0,0,0,.41-.15c.06-.09,0-.13.07-.4a1.07,1.07,0,0,1,.19-.43c.09-.1.21-.08.33-.1s.22-.09.35,0a1.14,1.14,0,0,1,.38.33c.19.23.17.29.27.36a.58.58,0,0,0,.48,0,.69.69,0,0,1,.32-.06Z"/><path id="path1088" class="cls-41" d="M69.85,31.72c.11-.13.16-.1.18-.18a.84.84,0,0,0-.12-.44c-.33-.64,0-.58.49-.33a2.82,2.82,0,0,1,.4.29l.39.33c.24.16.38.17.45.24l.23.58h0c0,.1.12.33.21.58,0,.08-.15.1-.25.28a6.76,6.76,0,0,1-.29.67c-.18.23-.35.37-.47.35s-.22-.21-.25-.61a.79.79,0,0,0-.21-.43c-.08-.07-.1,0-.3-.15a1.81,1.81,0,0,1-.33-.26,1,1,0,0,1-.15-.32.77.77,0,0,1-.09-.31.49.49,0,0,1,.11-.29Z"/><path id="path1090" class="cls-11" d="M71.93,32.41l0,.13a1.22,1.22,0,0,0-.51.25,1.32,1.32,0,0,0-.34.43.94.94,0,0,1,.27-.51,1.33,1.33,0,0,1,.55-.3"/><path id="path1092" class="cls-11" d="M71.85,32.18l-.06-.13a2.14,2.14,0,0,1-.66-.17,3.45,3.45,0,0,1-.63-.37,2.15,2.15,0,0,0,.61.45,2.43,2.43,0,0,0,.74.22"/><path id="path1094" class="cls-9" d="M69.8,30.69a1.1,1.1,0,0,1,.39.25.62.62,0,0,1,.22.41,1.7,1.7,0,0,1,0,.54,1,1,0,0,0,.07.51,1.43,1.43,0,0,0,.28.49c.34.34.58.7.49.93a.53.53,0,0,1-.21.25c0-.09-.14-.16-.18-.3a1,1,0,0,0-.22-.49,1,1,0,0,0-.31-.32c-.13-.08-.25-.05-.34-.16s-.41-.75-.18-1a.57.57,0,0,0,.11-.79,1.52,1.52,0,0,1-.08-.33Z"/><path id="path1096" class="cls-42" d="M75.81,32.42c-.18.16-.23.13-.28.22a.67.67,0,0,0,0,.46c.22.67-.19.61-.68.36a8.69,8.69,0,0,1-.75-.61,3.36,3.36,0,0,0-.43-.23c-.07-.26-.12-.49-.14-.6h0c0-.11-.07-.34-.12-.62,0-.08.18-.12.33-.34a6.53,6.53,0,0,1,.5-.85c.41-.42.81-.6.84.2a.79.79,0,0,0,.14.51c.09.08.12,0,.35.15a1,1,0,0,1,.36.28.78.78,0,0,1,.09.37c0,.12.07.24,0,.36a.81.81,0,0,1-.25.34Z"/><path id="path1098" class="cls-11" d="M73.53,31.92s0-.08,0-.12A2,2,0,0,0,74.61,31a1.65,1.65,0,0,1-1.08.88"/><path id="path1100" class="cls-11" d="M73.58,32.13a.36.36,0,0,0,0,.11,2.35,2.35,0,0,1,1.29.44,2,2,0,0,0-1.33-.55"/><g id="g1204"><g id="g1110"><path id="path1102" class="cls-43" d="M75.61,33.41a1.22,1.22,0,0,1-.47-.21c-.23-.18-.17-.53,0-.89a.81.81,0,0,0,0-.5.82.82,0,0,0-.21-.47c-.33-.32-.53-.66-.36-.92a1.23,1.23,0,0,1,.4-.36,1.31,1.31,0,0,1,.06.35.75.75,0,0,0,.14.5c.09.09.12.05.35.16a1,1,0,0,1,.36.28.67.67,0,0,1,.08.37c0,.12.08.24,0,.36a.81.81,0,0,1-.25.34c-.18.16-.23.13-.28.22a.67.67,0,0,0,0,.46.67.67,0,0,1,.06.31Z"/><g id="g1108"><path id="path1104" class="cls-8" d="M72.5,31.06a1.21,1.21,0,0,1,1.19,1.07.89.89,0,0,1-.86,1.07,1.21,1.21,0,0,1-1.15-1A.91.91,0,0,1,72.5,31.06Z"/><path id="path1106" class="cls-8" d="M72.55,31.35a.91.91,0,0,1,.87.78.66.66,0,0,1-.63.8.9.9,0,0,1-.85-.75.67.67,0,0,1,.61-.83Z"/></g></g><path id="path1112" class="cls-29" d="M72.59,31.66a.57.57,0,0,1,.55.48.42.42,0,0,1-.39.51.57.57,0,0,1-.54-.48.41.41,0,0,1,.38-.51Z"/><g id="g1124"><path id="path1114" class="cls-13" d="M93.43,27.39a.9.9,0,1,0,.89.89A.89.89,0,0,0,93.43,27.39Z"/><g id="g1122"><path id="path1116" class="cls-14" d="M101.06,29.26a.84.84,0,0,0-.83.84.83.83,0,1,0,1.66,0A.84.84,0,0,0,101.06,29.26Z"/><path id="path1118" class="cls-14" d="M101.85,27.74a.84.84,0,0,0-.83.84.83.83,0,0,0,.83.83.84.84,0,0,0,.84-.83A.85.85,0,0,0,101.85,27.74Z"/><path id="path1120" class="cls-14" d="M102.6,26.21a.83.83,0,1,0,.83.83A.83.83,0,0,0,102.6,26.21Z"/></g></g><path id="path1126" class="cls-16" d="M87.9,29.06c-.48,0-.36.83-.26,1s.23.25.39,0,.35-1-.13-1Z"/><path id="path1128" class="cls-17" d="M87.87,29.52c-1.13-.07-.85,1.94-.63,2.39s.56.6.93.06S89,29.6,87.87,29.52Z"/><path id="path1130" class="cls-18" d="M97,30.27c-.46-.14-.55.71-.5.92s.17.31.38.12.58-.89.12-1Z"/><path id="path1132" class="cls-19" d="M96.84,30.71c-1.08-.34-1.29,1.68-1.18,2.17s.4.72.89.28,1.37-2.1.29-2.45Z"/><g id="g1142"><path id="path1134" class="cls-9" d="M85.1,20.07a15.88,15.88,0,0,1,7.36,1c2.06.82,1.86,3.22-.66,6.55a3.47,3.47,0,0,1,.38,1.55h-.69a1.37,1.37,0,0,0-.26-1.25c-.15-.22-.18-.18,0-.44,1.5-2.09,2.49-3.92,1.91-5-.71-1.35-3.47-2.05-8.12-2,0-.12,0-.24,0-.37l0-.05Z"/><g id="g1140"><path id="path1136" class="cls-20" d="M96.86,20.75a.87.87,0,1,0,.86.87A.86.86,0,0,0,96.86,20.75Z"/><path id="path1138" class="cls-20" d="M95.17,20.2a.87.87,0,1,0,.86.86A.87.87,0,0,0,95.17,20.2Z"/></g></g><g id="g1152"><path id="path1144" class="cls-8" d="M94.94,20.94l-.26.34c1.37.75,1.93,1.54,1.8,2.33,0,.14-.44,1.59-1.36,4.41a8.39,8.39,0,0,0-1.42,1.17s-.1.17-.06.2c-.09.43.39.34.72.24a2.53,2.53,0,0,1,.91-1s.25-.14.27-.21c.5-1.58,1-3.05,1.43-4.41s-.5-2.34-2-3Z"/><path id="path1146" class="cls-21" d="M100.33,31.12l0,.27a2.47,2.47,0,0,0,1,.07c-.47-.46-.82-.56-1.07-.34Z"/><path id="path1148" class="cls-22" d="M100.37,30.49c-.25.05-.27.09-.38.11a.52.52,0,0,1-.46-.1c-.54-.32-.56.26-.35.7a1,1,0,0,1-.07.94c-.17.32-.13.47,0,.55l.24.16c.14.17.25.14.27-.09a1.71,1.71,0,0,0,.88-1.19c.24-.67,1.1-.82-.12-1.08Z"/><path id="path1150" class="cls-23" d="M100.16,30.51c-.47.17-.52-.09-.84-.08.13.72.25,1.09,1,.7a.87.87,0,0,1,1.05.33c0,.09.27-.09.36-.28.37-.81-.94-.9-1.57-.67Z"/></g><g id="g1174"><g id="g1162"><path id="path1154" class="cls-24" d="M85.85,18.22a.86.86,0,1,0,.86.86A.86.86,0,0,0,85.85,18.22Z"/><path id="path1156" class="cls-24" d="M87.61,18.22a.86.86,0,1,0,.86.86A.86.86,0,0,0,87.61,18.22Z"/><path id="path1158" class="cls-24" d="M89.38,18.35a.86.86,0,1,0,.86.86A.86.86,0,0,0,89.38,18.35Z"/><path id="path1160" class="cls-24" d="M91,18.67a.86.86,0,1,0,.86.86A.86.86,0,0,0,91,18.67Z"/></g><g id="g1172"><path id="path1164" class="cls-20" d="M101.69,23.1a.86.86,0,1,0,.86.86A.86.86,0,0,0,101.69,23.1Z"/><path id="path1166" class="cls-20" d="M100.21,22.16a.87.87,0,1,0,.86.87A.87.87,0,0,0,100.21,22.16Z"/><path id="path1168" class="cls-20" d="M98.52,21.37a.87.87,0,1,0,.87.87A.87.87,0,0,0,98.52,21.37Z"/><path id="path1170" class="cls-20" d="M102.83,24.5a.87.87,0,1,0,.87.86A.87.87,0,0,0,102.83,24.5Z"/></g></g><g id="g1184"><path id="path1176" class="cls-30" d="M98.22,34c-.34-.1-.87.65-1,.64A3.18,3.18,0,0,1,98,32.35c.41-.14.45-.4.53-1,0-.19.38-.06.39.25a2.66,2.66,0,0,1,0,.81.28.28,0,0,0,.12.32C98.35,33,98.19,33.28,98.22,34Z"/><path id="path1178" class="cls-31" d="M98.52,31.35a1.37,1.37,0,0,1,.1.47.66.66,0,0,1-.16.45,1.48,1.48,0,0,1-.42.35,1,1,0,0,0-.32.42,1.71,1.71,0,0,0-.17.55c0,.5-.11.94-.34,1a.4.4,0,0,1-.32,0,1.13,1.13,0,0,1,.1-.34,1.21,1.21,0,0,0,.2-.51,1,1,0,0,0,0-.46c0-.16-.14-.22-.12-.37s.26-.84.6-.84.48,0,.65-.47a1.5,1.5,0,0,1,.18-.29Z"/><path id="path1180" class="cls-32" d="M99.77,32.54a.94.94,0,0,0-.3-.15.84.84,0,0,0-.54,0c-.79.24-1.14,1.63-.27,2,.17,0,.33-.14.48-.47a2.41,2.41,0,0,1,.58-.94c.12-.16.13-.3,0-.38Z"/><path id="path1182" class="cls-33" d="M99.37,32.64c-.76-.3-1.32,1.14-.61,1.42.38.15.42-.33.49-.59S100.1,32.92,99.37,32.64Z"/></g><path id="path1186" class="cls-34" d="M99.29,32.85c-.37-.14-.88.72-.42.91a.47.47,0,0,0,.66-.3A.44.44,0,0,0,99.29,32.85Z"/><g id="g1202"><path id="path1188" class="cls-13" d="M94.12,25.92a.9.9,0,1,0,.89.9A.9.9,0,0,0,94.12,25.92Z"/><path id="path1190" class="cls-13" d="M94.77,24.43a.9.9,0,1,0,.9.9A.89.89,0,0,0,94.77,24.43Z"/><path id="path1192" class="cls-20" d="M92.63,19.19a.87.87,0,1,0,.86.86A.87.87,0,0,0,92.63,19.19Z"/><g id="g1200"><path id="path1194" class="cls-13" d="M94.08,19.85a.9.9,0,1,0,.9.89A.89.89,0,0,0,94.08,19.85Z"/><path id="path1196" class="cls-13" d="M95.15,21.11a.9.9,0,1,0,.9.9A.9.9,0,0,0,95.15,21.11Z"/><path id="path1198" class="cls-13" d="M95.32,22.71a.9.9,0,1,0,.9.9A.89.89,0,0,0,95.32,22.71Z"/></g></g></g><path id="path1206" class="cls-11" d="M99.62,32.43l-.1,0a1,1,0,0,0,.18-.88.78.78,0,0,1-.08.92"/><path id="path1208" class="cls-8" d="M92.62,28.75c-.19.23-.17.29-.27.36a.51.51,0,0,1-.48,0c-.68-.26-.68.28-.48.9a6.37,6.37,0,0,0,.52.88c.12.25.1.44.15.5l.56.08h0l.55.07c.08-.05.14-.22.37-.42a7.08,7.08,0,0,0,.83-.64c.43-.49.66-1,0-.94a.47.47,0,0,1-.41-.15c-.06-.09,0-.13-.07-.4a1,1,0,0,0-.19-.43c-.09-.1-.21-.08-.33-.1s-.22-.09-.35,0a1.27,1.27,0,0,0-.38.33Z"/><path id="path1210" class="cls-11" d="M92.72,31.48h.11a3.3,3.3,0,0,1,.88-1.33,2.63,2.63,0,0,0-1,1.34"/><path id="path1212" class="cls-11" d="M92.52,31.45l-.1,0a2.75,2.75,0,0,0-.22-1.52,2.16,2.16,0,0,1,.32,1.55"/><path id="path1214" class="cls-8" d="M91.56,29a1.66,1.66,0,0,0,.15.6c.15.29.51.18.91-.1a.71.71,0,0,1,.49-.07.61.61,0,0,1,.4.22c.23.37.5.58.75.37a2,2,0,0,0,.39-.49.8.8,0,0,0-.3,0,.48.48,0,0,1-.41-.15c-.06-.09,0-.13-.07-.4a1,1,0,0,0-.19-.43c-.09-.1-.21-.08-.33-.1s-.22-.09-.35,0a1.14,1.14,0,0,0-.38.33c-.19.23-.17.29-.27.36a.58.58,0,0,1-.48,0,.65.65,0,0,0-.31-.06Z"/><path id="path1216" class="cls-41" d="M95.29,31.72c-.11-.13-.15-.1-.17-.18a.68.68,0,0,1,.12-.44c.32-.64,0-.58-.5-.33a2.82,2.82,0,0,0-.4.29c-.13.12-.27.24-.39.33s-.38.17-.45.24c-.1.26-.19.48-.22.58h0c0,.1-.13.33-.22.58,0,.08.15.1.25.28a6.8,6.8,0,0,0,.3.67c.18.23.34.37.47.35s.21-.21.25-.61a.68.68,0,0,1,.21-.43c.08-.07.09,0,.3-.15a1.81,1.81,0,0,0,.33-.26,1,1,0,0,0,.14-.32.8.8,0,0,0,.1-.31.5.5,0,0,0-.12-.29Z"/><path id="path1218" class="cls-11" d="M93.21,32.41l0,.13a1.16,1.16,0,0,1,.51.25,1.23,1.23,0,0,1,.35.43.9.9,0,0,0-.28-.51,1.33,1.33,0,0,0-.55-.3"/><path id="path1220" class="cls-11" d="M93.3,32.18l.06-.13a2.3,2.3,0,0,0,.66-.17,3.08,3.08,0,0,0,.62-.37A2.1,2.1,0,0,1,94,32a2.6,2.6,0,0,1-.74.22"/><path id="path1222" class="cls-9" d="M95.35,30.69a1.13,1.13,0,0,0-.4.25.61.61,0,0,0-.21.41,1.46,1.46,0,0,0,0,.54,1.12,1.12,0,0,1-.07.51,1.62,1.62,0,0,1-.28.49c-.34.34-.59.7-.49.93a.48.48,0,0,0,.21.25c0-.09.14-.16.17-.3a1,1,0,0,1,.22-.49c.09-.09.1-.19.31-.32s.25-.05.35-.16.41-.75.18-1a.56.56,0,0,1-.11-.79,1.52,1.52,0,0,0,.08-.33Z"/><path id="path1224" class="cls-42" d="M89.34,32.42c.18.16.22.13.27.22a.64.64,0,0,1,0,.47c-.22.66.19.6.68.35a7.39,7.39,0,0,0,.75-.61c.22-.17.38-.16.44-.23.06-.26.11-.49.13-.6s.08-.34.13-.62c0-.08-.19-.12-.34-.34a6.1,6.1,0,0,0-.5-.85c-.4-.42-.81-.6-.83.21a.78.78,0,0,1-.15.5c-.08.08-.12,0-.35.15a.91.91,0,0,0-.35.28c-.09.11-.07.24-.09.37a.66.66,0,0,0,0,.37.88.88,0,0,0,.26.33Z"/><path id="path1226" class="cls-11" d="M91.61,31.92s0-.08,0-.12A2,2,0,0,1,90.53,31a1.7,1.7,0,0,0,1.08.88"/><path id="path1228" class="cls-11" d="M91.57,32.13a.76.76,0,0,0,0,.11,2.36,2.36,0,0,0-1.3.44,2,2,0,0,1,1.34-.55"/><g id="g1242"><path id="path1230" class="cls-43" d="M89.53,33.41A1.33,1.33,0,0,0,90,33.2c.23-.18.16-.53,0-.89a.88.88,0,0,1,0-.5,1,1,0,0,1,.21-.47c.33-.32.53-.66.37-.92a1.36,1.36,0,0,0-.41-.36,1,1,0,0,0,0,.35.75.75,0,0,1-.15.5c-.08.09-.11.05-.35.16a1.08,1.08,0,0,0-.35.28c-.09.11-.07.24-.09.37a.63.63,0,0,0,0,.36.81.81,0,0,0,.25.34c.18.16.22.13.27.22a.57.57,0,0,1,0,.46,1.1,1.1,0,0,0-.06.31Z"/><g id="g1240"><path id="path1232" class="cls-8" d="M92.65,31.06a1.22,1.22,0,0,0-1.2,1.07.89.89,0,0,0,.86,1.07,1.2,1.2,0,0,0,1.15-1,.91.91,0,0,0-.81-1.13Z"/><path id="path1234" class="cls-8" d="M92.6,31.35a.9.9,0,0,0-.87.78.66.66,0,0,0,.62.8.89.89,0,0,0,.85-.75.66.66,0,0,0-.6-.83Z"/><path id="path1236" class="cls-29" d="M92.55,31.66a.57.57,0,0,0-.55.48.42.42,0,0,0,.4.51.56.56,0,0,0,.53-.48.41.41,0,0,0-.38-.51Z"/><path id="path1238" class="cls-8" d="M95.91,41.83c.28,0,.43.22.42.4s-.14.36-.42.4l-.22,0a157.47,157.47,0,0,1-26.24,0l-.22,0c-.28,0-.43-.22-.42-.4s.14-.36.42-.4l.22,0a157.47,157.47,0,0,1,26.24,0l.22,0Z"/></g></g></g><g id="g1472"><path id="path1246" class="cls-44" d="M72.73,42.39c1.09-.06,2.18-.12,3.28-.16s2.18-.08,3.28-.1,2.19,0,3.28,0,2.19,0,3.29,0,2.18.06,3.28.1,2.18.1,3.28.17"/><path id="path1248" class="cls-44" d="M72.73,42.42c1.09.07,2.18.13,3.28.17m13.13,0c1.09,0,2.18-.1,3.28-.16"/><path id="path1250" class="cls-45" d="M58.57,42.79V81.58a25.78,25.78,0,0,0,7.05,17.81,23.33,23.33,0,0,0,16.95,7.4h0a23.37,23.37,0,0,0,17-7.4,25.82,25.82,0,0,0,7-17.81V42.79Z"/><g id="g1470"><g id="g1308"><g id="g1294"><path id="path1252" class="cls-46" d="M82.79,104.78a1.53,1.53,0,0,0,.83-.2c.35-.27.21-1.4.18-2.1-.16-3.63-.31-9.73-.5-18.3a26.65,26.65,0,0,1-1.46,0c-.18,8.57-.33,14.67-.49,18.3,0,.7-.17,1.83.18,2.1a1.5,1.5,0,0,0,.82.2Z"/><path id="path1254" class="cls-20" d="M85.06,104.68a1.55,1.55,0,0,1-.84-.12c-.37-.25-.41-1.39-.44-2.1-.16-3.63-.5-9.7-1.09-18.25a2.42,2.42,0,0,1,.72-.06l.1,0c1.37,8.46,1.88,14.46,2.82,18.08.13.5.4,1.75,0,2.16a1.53,1.53,0,0,1-.8.27Z"/><path id="path1256" class="cls-20" d="M87.73,104.3a1.55,1.55,0,0,1-.84,0c-.4-.21-.39-1.35-.56-2-.94-3.62-1.45-9.62-2.82-18.08a2.07,2.07,0,0,1,.72-.12h0c2.17,8.22,2.82,14,4.51,17.6.15.5.58,1.82.17,2.27a1.5,1.5,0,0,1-.78.35Z"/><path id="path1258" class="cls-47" d="M90.42,103.54c-.21,0-.56.22-.87.09s-.48-1.39-.78-2c-1.7-3.6-2.35-9.43-4.54-17.72a2.61,2.61,0,0,1,.71-.19.9.9,0,0,1,.45-.17c2.55,8.18,3.38,13.87,5.78,17.4.39.57.68,1.71.41,2.08a1.61,1.61,0,0,1-.74.42Z"/><path id="path1260" class="cls-20" d="M80.08,104.68a1.54,1.54,0,0,0,.84-.12c.38-.25.41-1.39.44-2.1.17-3.63.5-9.7,1.1-18.25a2.46,2.46,0,0,0-.73-.06l-.1,0c-1.36,8.46-1.88,14.46-2.81,18.08-.13.5-.41,1.75,0,2.16a1.56,1.56,0,0,0,.81.27Z"/><path id="path1262" class="cls-20" d="M77.41,104.3a1.58,1.58,0,0,0,.85,0c.4-.21.38-1.35.56-2,.93-3.62,1.45-9.62,2.81-18.08a2.07,2.07,0,0,0-.72-.12h0c-2.17,8.22-2.82,14-4.5,17.6-.16.5-.58,1.82-.18,2.27a1.53,1.53,0,0,0,.78.35Z"/><path id="path1264" class="cls-47" d="M74.72,103.54c.21,0,.56.22.87.09s.49-1.39.79-2c1.69-3.6,2.34-9.43,4.53-17.72a2.64,2.64,0,0,0-.7-.19.94.94,0,0,0-.46-.17C77.2,91.7,76.37,97.39,74,100.92c-.39.57-.67,1.71-.41,2.08a1.61,1.61,0,0,0,.74.42Z"/><path id="path1266" class="cls-48" d="M89,97.36a1.31,1.31,0,0,1-.78,0c-.4-.19-.66-1.29-.88-2C85.64,92,84.08,86,81.52,77.71a1.9,1.9,0,0,1,.64-.14,1.64,1.64,0,0,1,.63-.17c2.75,8.22,4,14.16,6.67,17.44A2.68,2.68,0,0,1,90,96.9c-.16.25-.48.29-.65.36Z"/><path id="path1268" class="cls-49" d="M86.83,97.78a1.36,1.36,0,0,1-.78-.07c-.38-.23-.51-1.35-.65-2-.68-3.58-2-9.59-3.75-18a2,2,0,0,1,.64-.09,2.15,2.15,0,0,1,.65-.12c2.13,8.39,2.62,14.67,4.63,17.89a2.7,2.7,0,0,1,.33,2.1c-.19.24-.51.25-.69.31Z"/><path id="path1270" class="cls-50" d="M84.61,98a1.29,1.29,0,0,1-.76-.13c-.35-.26-.36-1.38-.41-2.09-.27-3.62-.84-9.7-1.66-18.25a2.15,2.15,0,0,1,.65,0,2.12,2.12,0,0,1,.66-.06c1.15,8.51,1.82,14.68,2.55,18.17.15.7.37,1.81.08,2.12s-.54.2-.72.25Z"/><path id="path1272" class="cls-48" d="M76.14,97.36a1.31,1.31,0,0,0,.78,0c.4-.19.67-1.29.88-2C79.51,92,81.06,86,83.62,77.71a1.9,1.9,0,0,0-.64-.14,1.58,1.58,0,0,0-.62-.17c-2.75,8.22-4,14.16-6.68,17.44a2.71,2.71,0,0,0-.56,2.06c.16.25.48.29.65.36Z"/><path id="path1274" class="cls-49" d="M78.32,97.78a1.33,1.33,0,0,0,.77-.07c.38-.23.51-1.35.65-2q1-5.37,3.76-18a2.06,2.06,0,0,0-.65-.09,2.14,2.14,0,0,0-.64-.12c-2.13,8.39-2.63,14.67-4.64,17.89a2.7,2.7,0,0,0-.32,2.1c.18.24.51.25.68.31Z"/><path id="path1276" class="cls-50" d="M80.53,98a1.41,1.41,0,0,0,.77-.13c.35-.26.35-1.38.4-2.09.28-3.62.85-9.7,1.67-18.25a2.23,2.23,0,0,0-.66,0,1.82,1.82,0,0,0-.65-.06C80.9,86,80.23,92.14,79.5,95.63c-.14.7-.36,1.81-.08,2.11a1.27,1.27,0,0,0,.72.26Z"/><path id="path1278" class="cls-51" d="M82.77,98.11a1.31,1.31,0,0,0,.74-.2c.32-.28.2-1.4.17-2.11-.15-3.62-.28-9.72-.45-18.29a21.79,21.79,0,0,1-1.32,0q-.24,12.85-.44,18.29c0,.71-.16,1.83.16,2.11s.56.16.75.2Z"/><path id="path1280" class="cls-52" d="M87.5,92.37c-.15,0-.37.13-.6,0s-.51-1.3-.67-2C84.92,87,83.73,81,81.77,72.73a20.63,20.63,0,0,0,1-.31c2.1,8.22,3.05,14.16,5.11,17.43a3.34,3.34,0,0,1,.43,2.06c-.12.26-.36.29-.49.37Z"/><path id="path1282" class="cls-53" d="M85.83,92.8c-.15,0-.38.09-.59-.08s-.4-1.34-.5-2q-.8-5.37-2.88-18a1.23,1.23,0,0,1,.5-.09,1.1,1.1,0,0,1,.49-.12c1.63,8.39,2,14.67,3.55,17.89a3.46,3.46,0,0,1,.25,2.1c-.14.24-.39.25-.52.31Z"/><path id="path1284" class="cls-54" d="M84.13,93.05c-.14,0-.38,0-.58-.14s-.27-1.37-.31-2.08C83,87.21,82.59,81.12,82,72.58a1.17,1.17,0,0,1,.51,0,1.21,1.21,0,0,1,.5-.07c.88,8.52,1.39,14.69,2,18.18A4.49,4.49,0,0,1,85,92.76c-.16.23-.41.21-.55.26Z"/><path id="path1286" class="cls-52" d="M77.65,92.37c.14,0,.37.13.6,0s.5-1.3.67-2C80.23,87,81.42,81,83.38,72.73a1.27,1.27,0,0,0-.49-.15,1.18,1.18,0,0,0-.48-.16c-2.11,8.22-3.06,14.16-5.12,17.43a3.34,3.34,0,0,0-.43,2.06c.12.26.37.29.5.37Z"/><path id="path1288" class="cls-53" d="M79.31,92.8a.79.79,0,0,0,.6-.08c.29-.22.39-1.34.49-2q.8-5.37,2.88-18a1,1,0,0,0-.5-.09,1,1,0,0,0-.49-.12c-1.63,8.38-2,14.66-3.55,17.89a3.44,3.44,0,0,0-.25,2.09c.15.25.39.25.53.32Z"/><path id="path1290" class="cls-54" d="M81,93.05c.15,0,.39,0,.59-.14s.27-1.37.31-2.08q.32-5.43,1.27-18.25a1.12,1.12,0,0,0-.5,0,1.09,1.09,0,0,0-.5-.06c-.89,8.51-1.4,14.68-2,18.17a4.63,4.63,0,0,0-.06,2.11c.17.23.41.21.55.26Z"/><path id="path1292" class="cls-55" d="M82.72,93.12a.85.85,0,0,0,.58-.19c.24-.28.14-1.4.12-2.11-.11-3.63-.21-9.73-.34-18.3a1.22,1.22,0,0,0-.51,0,1.17,1.17,0,0,0-.5,0c-.13,8.57-.23,14.67-.34,18.3,0,.71-.12,1.83.12,2.11a.84.84,0,0,0,.57.19Z"/></g><g id="g1306"><path id="path1296" class="cls-56" d="M72.54,83.3c-.45,0-1,.28-2.66,1.71a23,23,0,0,1-2.44,4.2,3.29,3.29,0,0,1-.87.47,9.87,9.87,0,0,1-2.41-.06c-.64-.58-1.63-.17-1.3.45-.25.24.31,1.13.76.76s1.86,0,2.34-.19c-.18.43-1.49.71-2.4.78s-.78.87-.43,1.5c.39.25.07-.06.21.12.37.55,1.17.48,1.2-.06s2-1.29,2.26-1.72c-.35.85-1.18,1.65-1.59,2.48-.44.44-.7.53-.13,1.41.63-.07.66-.23,1,.13.86-.09,1-.35.86-1a4.82,4.82,0,0,1,.66-2.39,6,6,0,0,1,.41-.9c.31-.37,1.8-1.11,2.18-.91.7.38,1.23.15,1.32-.53-.22-.17,0-1.14-.54-1.18a1.26,1.26,0,0,0-1,.39c-.57.47-.86.72-1,.66-.45-.12.81-.74,2-2.24,1.59-2.08,1.7-3.14,1.62-3.85Z"/><path id="path1298" class="cls-57" d="M63,90.45c-.58-.33-.91-.32-1.13-.07s-.28.06-.19-.15c.38-.9,1-1,1.54-.59l.4.38c-.09.14-.55.33-.62.43Z"/><path id="path1300" class="cls-58" d="M71.18,89.65c.62-.42,1.19-.5,1.5-.27s.34,0,.19-.17c-.63-.89-1.37-.94-1.93-.44l-.4.45a2.26,2.26,0,0,0,.64.43Z"/><path id="path1302" class="cls-59" d="M66.38,94.74c-.37.74-.57,1.25-.41,1.64s0,.45-.24.25c-1-.82-1-1.76-.35-2.39a5.32,5.32,0,0,1,.61-.51,2.13,2.13,0,0,1,.39,1Z"/><path id="path1304" class="cls-60" d="M64,92.8c-.57.23-.76.53-.74.92,0,.22-.13.3-.21,0-.69-1.61,0-1.91,1.07-1.85a2.19,2.19,0,0,1-.12.88Z"/></g></g><g id="g1320"><path id="path1310" class="cls-61" d="M68.88,89.22c-.37-.22-.4-.46-.3-.62.21-.35.42-.18.81.14"/><path id="path1312" class="cls-61" d="M69.36,88.69c-.37-.21-.39-.46-.29-.62.2-.34.41-.18.8.14"/><path id="path1314" class="cls-62" d="M69.91,88.19c-.42-.28-.44-.59-.33-.8.23-.45.46-.23.89.18"/><path id="path1316" class="cls-63" d="M70.49,87.57c-.44-.32-.46-.68-.35-.91.24-.51.49-.27,1,.2"/><path id="path1318" class="cls-64" d="M71.11,86.9c-.41-.34-.54-.67-.35-1,.29-.46.48-.27.94.22"/></g><g id="g1366"><path id="path1322" class="cls-65" d="M76.62,50.75a7.05,7.05,0,0,1-2.57.34c-2.12.07-3.35-.57-3.63-1.92a2.78,2.78,0,0,0,2.83,1.15,12.22,12.22,0,0,1,2.62-.56,1.89,1.89,0,0,1,.75,1Z"/><g id="g1364"><path id="path1324" class="cls-20" d="M81.53,79.67c0,.61,0,1.29,0,2h0L80,82c0,.69,1.7,7.92,2.58,7.92s2.59-7.24,2.59-7.93l-1.52-.31h0c0-.7,0-1.38,0-2a13.77,13.77,0,0,0-1,1.14,13.77,13.77,0,0,0-1-1.14Z"/><g id="g1338"><path id="path1326" class="cls-66" d="M79.78,82.74,78.42,82a2.38,2.38,0,0,0,0,3.17,9.46,9.46,0,0,1,2,3.93A3.21,3.21,0,0,0,81,85.59a13,13,0,0,1-1.26-2.85Z"/><path id="path1328" class="cls-66" d="M80.89,81.66l-1.36-.77c-.57.41-1.77,1.88-.79,3.13,1.22,1.55,2.48,2.72,2.78,4a3.23,3.23,0,0,0,.7-3.49,15.25,15.25,0,0,1-1.33-2.84Z"/><path id="path1330" class="cls-66" d="M85.37,82.74,86.73,82a2.4,2.4,0,0,1,0,3.18,9.42,9.42,0,0,0-2,3.93,3.19,3.19,0,0,1-.63-3.49,13.59,13.59,0,0,0,1.26-2.85Z"/><path id="path1332" class="cls-66" d="M84.26,81.66l1.36-.77c.57.41,1.76,1.88.79,3.12-1.22,1.55-2.49,2.73-2.78,4a3.2,3.2,0,0,1-.7-3.49,17.24,17.24,0,0,0,1.33-2.84Z"/><path id="path1334" class="cls-66" d="M77.89,81.11l-1.36-.77a2.4,2.4,0,0,0,0,3.18,9.49,9.49,0,0,1,2,3.92A3.21,3.21,0,0,0,79.15,84a13,13,0,0,1-1.26-2.84Z"/><path id="path1336" class="cls-66" d="M87.26,81.1l1.36-.76a2.39,2.39,0,0,1,0,3.17,9.48,9.48,0,0,0-2,3.93A3.17,3.17,0,0,1,86,84a13.59,13.59,0,0,0,1.26-2.85Z"/></g><g id="g1362"><path id="path1340" class="cls-67" d="M71.59,66.79c0,1.24-.19,9.51-.26,10.68a3.25,3.25,0,0,1-1.14,2.41,5.18,5.18,0,0,1-.87-2.74c0-.56.06-8.39.11-10,.93-2.45,1.61-2.55,2.16-.35Z"/><path id="path1342" class="cls-67" d="M66.21,64.76l-.35,11.38a30.55,30.55,0,0,0,1.92,8.2c1.78-.76,2.16-4.84,1.82-8.81a27.49,27.49,0,0,1,.33-8.11c0-.9-.13-1.83-.14-2.77-1.13.07-2.45,0-3.58.11Z"/><path id="path1344" class="cls-67" d="M64.1,66.62,64.34,78a30.82,30.82,0,0,0,2.35,8.09c1.8-1.4,1.44-7.12,1.16-8.86a31.46,31.46,0,0,1-.26-8.09c0-.9,0-2-.11-2.91l-3.38.39Z"/><path id="path1346" class="cls-67" d="M62.53,69.32l3-.08a31,31,0,0,0,.46,8c.49,2.75,1.16,9.9-1.71,11.62-1.78-3.77-.43-7.44-1.33-10.71a24.77,24.77,0,0,1-.42-8.87Z"/><path id="path1348" class="cls-67" d="M74,64.7c0,1.24-.48,9.5-.59,10.67a3.24,3.24,0,0,1-1.21,2.37A5.23,5.23,0,0,1,71.39,75c0-.57.32-8.39.41-10,1-2.42,1.7-2.49,2.18-.28Z"/><path id="path1350" class="cls-67" d="M68.66,58c-.08,2.66-.13,8.45-.11,8.94a7.14,7.14,0,0,0,1,3.23,3.28,3.28,0,0,0,1.21-2.37c.09-1,.12-5.65.13-8a10,10,0,0,1-1.73-1.39L68.66,58Z"/><path id="path1352" class="cls-67" d="M70.8,59.67c-.06,2.88,0,7.4,0,7.77a5.23,5.23,0,0,0,.79,2.76,3.38,3.38,0,0,0,1.27-2.4c.06-.71.26-3.78.28-6.13-.76-.24-1.72-1.49-2.33-2Z"/><path id="path1354" class="cls-67" d="M69,57.72l-2-2.94c-.41,1.45-.92,11.83-.33,12.69a5.19,5.19,0,0,0,.93,2.76,2.46,2.46,0,0,0,1.16-2.4A69.82,69.82,0,0,1,69,57.72Z"/><path id="path1356" class="cls-67" d="M64.78,64.25c-.1,1.6-.16,2.69-.14,3.26a5.2,5.2,0,0,0,.79,2.76,2.74,2.74,0,0,0,1.21-2.37,63,63,0,0,1,.78-12.81c-.48-.35-1.3-.73-1.78-1.09-1,5.48-1.29,8.89-.86,10.25Z"/><path id="path1358" class="cls-68" d="M62.74,67.19l.55,2.09A5.4,5.4,0,0,0,64.5,72a2.37,2.37,0,0,0,.93-2.31,39.8,39.8,0,0,1,.87-16.45c-3.16,2.15-4.62,6.69-3.56,13.93Z"/><path id="path1360" class="cls-67" d="M62.9,69.25l-2.9-1c-.37,2.89.2,6.52,1,11.31a24,24,0,0,1-.19,9.45c3.09-.42,4.39-4.4,2.84-11.88a33.73,33.73,0,0,1-.73-7.92Z"/></g></g></g><path id="path1368" class="cls-69" d="M62.81,83.24a24.78,24.78,0,0,0-.62-5.77,35.42,35.42,0,0,1-.77-7.16"/><g id="g1434"><g id="g1386"><path id="path1370" class="cls-68" d="M62.78,52.24l1.9.32c-.09.41-.57,2.9-.66,3.33a37.34,37.34,0,0,0-.64,12A12.69,12.69,0,0,0,64.45,72c-2.08-.24-3.42-2.27-3.25-5.81a29.38,29.38,0,0,1,.47-9.91c.2-.73.83-3.46,1.11-4Z"/><path id="path1372" class="cls-67" d="M61.63,52.69l.93,1.06c-.26.19.19,1-.05,2.59a30.84,30.84,0,0,0-.81,3.11c-.36,3.8-.36,8.56.78,11.6-2.08-.23-2.8-2.12-2.87-5.67A50.73,50.73,0,0,1,60.28,55a3.67,3.67,0,0,1,1.35-2.3Z"/><path id="path1374" class="cls-70" d="M66.84,55.49l-1.92-.22c-.36,1.81-.63,3.1-.7,3.74a6.09,6.09,0,0,0,.7,3.3c.71-.43,1-1.36,1.34-2.67s.37-2.74.58-4.15Z"/><path id="path1376" class="cls-71" d="M71.83,59.58l-1.71,0c-.05,1.57-.1,2.63-.07,3.18a5.3,5.3,0,0,0,.79,2.68,3.23,3.23,0,0,0,1.09-2.32c.07-1.14-.09-2.35-.1-3.56Z"/><path id="path1378" class="cls-72" d="M73.67,60.39,72,60.47c0,1.56,0,2.63,0,3.18a5.24,5.24,0,0,0,.88,2.65,3.2,3.2,0,0,0,1-2.36c0-1.14-.17-2.34-.22-3.55Z"/><path id="path1380" class="cls-13" d="M70.09,58.7l-1.7-.12c-.19,1.56-.31,2.61-.33,3.16a5.23,5.23,0,0,0,.57,2.74,3.21,3.21,0,0,0,1.27-2.23c.17-1.12.11-2.34.19-3.55Z"/><path id="path1382" class="cls-73" d="M68.5,56.86l-1.87-.77c-.32,1.26-.75,5.41,0,7.17a3.62,3.62,0,0,0,1.46-2.47c.21-1.25.28-2.58.4-3.93Z"/><path id="path1384" class="cls-74" d="M66,54.8l-3,.27a21.6,21.6,0,0,0-1.36,4.6,3.13,3.13,0,0,0,2.75-2.16A6,6,0,0,1,66,54.8Z"/></g><g id="g1408"><g id="g1394"><path id="path1388" class="cls-75" d="M69.05,100c1.14.91,2.19-1.18,1.17-3.94-.74-2-4.4-1.24-2.36,1.5.09.13.23.07.21-.08-.12-.56.24-.89.8-.78,1.51.28,1.56,3.15-.09,2.5-.3,0,0,.56.27.8Z"/><path id="path1390" class="cls-75" d="M72.8,100c-1.15.91-2.19-1.18-1.18-3.94.75-2,4.41-1.24,2.37,1.5-.1.13-.23.07-.21-.08.11-.56-.25-.89-.8-.78-1.51.28-1.56,3.15.08,2.5.3,0,0,.56-.26.8Z"/><path id="path1392" class="cls-75" d="M70.81,91.11v0a5,5,0,0,1-1.13,1.53A1.79,1.79,0,0,0,69.63,95a4,4,0,0,1,.83,1.83A7.17,7.17,0,0,1,70.58,99a1.53,1.53,0,0,1-.72,1.11c-.16.13.07.44.61.84a.79.79,0,0,1,.3.44c0,.06.28.06.31,0a.79.79,0,0,1,.3-.44c.54-.4.77-.71.61-.84A1.5,1.5,0,0,1,71.27,99a7.17,7.17,0,0,1,.12-2.22A4,4,0,0,1,72.22,95a1.79,1.79,0,0,0,0-2.31A4.83,4.83,0,0,1,71,91.13v0C71,91,71,91,70.92,91s-.1,0-.11.14Z"/></g><path id="path1396" class="cls-10" d="M70.1,97.73h1.65a.51.51,0,1,1,0,1H70.1a.51.51,0,0,1,0-1Z"/><g id="g1404"><path id="path1398" class="cls-75" d="M92.35,100c1.14.91,2.18-1.18,1.17-3.94-.75-2-4.41-1.24-2.37,1.5.1.13.23.07.21-.08-.11-.56.25-.89.8-.78,1.52.28,1.57,3.15-.08,2.5-.3,0,0,.56.27.8Z"/><path id="path1400" class="cls-75" d="M96.09,100c-1.14.91-2.18-1.18-1.17-3.94.75-2,4.4-1.24,2.37,1.5-.1.13-.24.07-.22-.08.12-.56-.24-.89-.8-.78-1.51.28-1.56,3.15.09,2.5.3,0,0,.56-.27.8Z"/><path id="path1402" class="cls-75" d="M94.11,91.11v0A5,5,0,0,1,93,92.66a1.77,1.77,0,0,0,0,2.31,4.09,4.09,0,0,1,.83,1.83A7.29,7.29,0,0,1,93.87,99a1.52,1.52,0,0,1-.71,1.11c-.17.13.07.44.6.84a.75.75,0,0,1,.3.44c0,.06.28.06.31,0a.79.79,0,0,1,.3-.44c.54-.4.77-.71.61-.84A1.52,1.52,0,0,1,94.57,99a7,7,0,0,1,.11-2.22A4.09,4.09,0,0,1,95.51,95a1.79,1.79,0,0,0-.05-2.31,5,5,0,0,1-1.13-1.53v0c0-.09-.06-.14-.11-.14a.13.13,0,0,0-.11.14Z"/></g><path id="path1406" class="cls-10" d="M93.4,97.73H95a.51.51,0,1,1,0,1H93.4a.51.51,0,1,1,0-1Z"/></g><g id="g1432"><path id="path1410" class="cls-67" d="M93.55,66.79c0,1.24.19,9.51.26,10.68A3.29,3.29,0,0,0,95,79.88a5.09,5.09,0,0,0,.88-2.74c0-.56-.07-8.39-.11-10-.93-2.45-1.62-2.55-2.17-.35Z"/><path id="path1412" class="cls-67" d="M98.94,64.76l.35,11.38a30.93,30.93,0,0,1-1.92,8.2c-1.79-.76-2.16-4.84-1.83-8.81a27.26,27.26,0,0,0-.32-8.11c0-.9.12-1.83.13-2.77,1.14.07,2.46,0,3.59.11Z"/><path id="path1414" class="cls-67" d="M101.05,66.62,100.81,78a30.82,30.82,0,0,1-2.35,8.09C96.65,84.69,97,79,97.29,77.23a31.62,31.62,0,0,0,.27-8.09c0-.9,0-2,.1-2.91l3.39.39Z"/><path id="path1416" class="cls-67" d="M102.62,69.32l-3-.08a31.47,31.47,0,0,1-.46,8C98.67,80,98,87.18,100.87,88.9c1.78-3.77.42-7.44,1.32-10.71a24.8,24.8,0,0,0,.43-8.87Z"/><path id="path1418" class="cls-67" d="M91.16,64.7c0,1.24.49,9.5.59,10.67A3.31,3.31,0,0,0,93,77.74a5.14,5.14,0,0,0,.8-2.76c0-.57-.33-8.39-.42-10-1-2.42-1.69-2.49-2.18-.28Z"/><path id="path1420" class="cls-67" d="M96.49,58c.08,2.66.12,8.45.11,8.94a7,7,0,0,1-1,3.23,3.27,3.27,0,0,1-1.2-2.37c-.09-1-.12-5.65-.14-8A9.68,9.68,0,0,0,96,58.37l.47-.41Z"/><path id="path1422" class="cls-67" d="M94.35,59.67c.05,2.88,0,7.4,0,7.77a5.14,5.14,0,0,1-.79,2.76,3.38,3.38,0,0,1-1.26-2.4C92.23,67.09,92,64,92,61.67c.76-.24,1.72-1.49,2.34-2Z"/><path id="path1424" class="cls-67" d="M96.19,57.72l2-2.94c.42,1.45.92,11.83.33,12.69a5.27,5.27,0,0,1-.92,2.76,2.45,2.45,0,0,1-1.17-2.4,69.81,69.81,0,0,0-.27-10.11Z"/><path id="path1426" class="cls-67" d="M100.37,64.25c.09,1.6.16,2.69.14,3.26a5.12,5.12,0,0,1-.8,2.76A2.79,2.79,0,0,1,98.5,67.9a62.25,62.25,0,0,0-.78-12.81c.49-.35,1.3-.73,1.78-1.09,1,5.48,1.29,8.89.87,10.25Z"/><path id="path1428" class="cls-68" d="M102.41,67.19l-.56,2.09A5.23,5.23,0,0,1,100.64,72a2.39,2.39,0,0,1-.93-2.31,40,40,0,0,0-.86-16.45c3.15,2.15,4.62,6.69,3.56,13.93Z"/><path id="path1430" class="cls-67" d="M102.24,69.25l2.9-1c.37,2.89-.2,6.52-1,11.31a24,24,0,0,0,.2,9.45c-3.09-.42-4.4-4.4-2.85-11.88a33.2,33.2,0,0,0,.73-7.92Z"/></g></g><path id="path1436" class="cls-69" d="M102.33,83.24a25.9,25.9,0,0,1,.62-5.77,35.42,35.42,0,0,0,.77-7.16"/><g id="g1466"><g id="g1458"><path id="path1438" class="cls-68" d="M102.36,52.24l-1.9.32c.09.41.58,2.9.66,3.33a37.61,37.61,0,0,1,.65,12A13,13,0,0,1,100.7,72c2.08-.24,3.42-2.27,3.24-5.81a29.16,29.16,0,0,0-.46-9.91c-.2-.73-.83-3.46-1.12-4Z"/><path id="path1440" class="cls-67" d="M103.51,52.69l-.93,1.06c.27.19-.18,1,.06,2.59.15.9.69,2,.8,3.11.37,3.8.37,8.56-.77,11.6,2.08-.23,2.8-2.12,2.86-5.67A49.35,49.35,0,0,0,104.86,55a3.67,3.67,0,0,0-1.35-2.3Z"/><path id="path1442" class="cls-70" d="M98.31,55.49l1.92-.23c.35,1.82.62,3.1.69,3.75a6,6,0,0,1-.7,3.3c-.71-.43-1-1.36-1.34-2.67s-.37-2.74-.57-4.15Z"/><path id="path1444" class="cls-71" d="M93.31,59.58l1.71,0c.06,1.56.1,2.62.07,3.17a5.12,5.12,0,0,1-.79,2.69,3.26,3.26,0,0,1-1.08-2.32c-.08-1.14.08-2.35.09-3.56Z"/><path id="path1446" class="cls-72" d="M91.47,60.39l1.71.08c0,1.56,0,2.62,0,3.18a5.18,5.18,0,0,1-.88,2.65,3.24,3.24,0,0,1-1-2.36c0-1.14.17-2.34.22-3.55Z"/><path id="path1448" class="cls-13" d="M95.05,58.7l1.71-.12c.18,1.56.31,2.61.33,3.16a5.35,5.35,0,0,1-.57,2.74,3.17,3.17,0,0,1-1.27-2.23c-.17-1.12-.11-2.35-.2-3.55Z"/><path id="path1450" class="cls-73" d="M96.65,56.86l1.87-.77c.32,1.26.75,5.41,0,7.16A3.6,3.6,0,0,1,97,60.79c-.21-1.25-.27-2.59-.39-3.93Z"/><g id="g1456"><path id="path1452" class="cls-74" d="M99.12,54.8l3,.27a21.44,21.44,0,0,1,1.36,4.6,3.15,3.15,0,0,1-2.75-2.16,6.06,6.06,0,0,0-1.59-2.71Z"/><path id="path1454" class="cls-76" d="M90.34,59.05a5.91,5.91,0,0,0,.69-.19A9.52,9.52,0,0,1,88,55.69c-1.11-1.69.48-4.71,1.13-6.31a7.54,7.54,0,0,0,3-4.43c.16-1.05-2.73-.67-4.73.27a8.4,8.4,0,0,1-3.63,1c-.31,1.49.34,1.62,1,1.54a15.46,15.46,0,0,0-2.17,7.37,15.46,15.46,0,0,0-2.17-7.37c.62.08,1.27-.05,1-1.54a8.4,8.4,0,0,1-3.63-1c-2-.94-4.89-1.32-4.73-.27a7.54,7.54,0,0,0,3,4.43c.65,1.6,2.24,4.62,1.14,6.31a9.63,9.63,0,0,1-3.08,3.17c.24.08.47.14.69.19a3.38,3.38,0,0,1-1.74.55C72,58.83,70.91,57,70,56c-2.61-3-3.91-5.25-3.45-7.09.65-2,3-4.22-.11-3.83s-5.67,4.64-6.49,9.75c-.31,1.9-.49,3.48-.69,4.79a5,5,0,0,0,2.89-2,16.85,16.85,0,0,0-.46,2,3.13,3.13,0,0,0,2.75-2.16,7.44,7.44,0,0,1,.51-1.27,3,3,0,0,0,1.65,0c.25.61,2.16,2.73,3.19,4.29,1.15,1.76,2.89,3.11,3.47,3.18.28,0,.37-.6.31-1.47,3,0,6,0,9-.07,3,.11,6,.09,9,.07-.06.87,0,1.51.31,1.47.58-.07,2.32-1.42,3.47-3.18,1-1.56,2.94-3.68,3.19-4.29a3,3,0,0,0,1.65,0,6.7,6.7,0,0,1,.51,1.27,3.14,3.14,0,0,0,2.75,2.16,15.11,15.11,0,0,0-.46-2,5,5,0,0,0,2.9,2c-.21-1.31-.39-2.89-.69-4.79-.83-5.11-3.4-9.36-6.5-9.75S98,46.91,98.6,48.9c.47,1.84-.84,4.13-3.45,7.09-.92,1-2,2.84-3.07,3.61a3.38,3.38,0,0,1-1.74-.55Z"/></g></g><g id="g1464"><path id="path1460" class="cls-65" d="M88.53,50.74a6.76,6.76,0,0,0,2.57.35c2.12.07,3.35-.57,3.62-1.93a2.74,2.74,0,0,1-2.83,1.15,11.69,11.69,0,0,0-2.62-.55,1.8,1.8,0,0,0-.74,1Z"/><path id="path1462" class="cls-77" d="M93.49,45.17c2.38.26,2.27,1.81,0,4-.42.42-.57.41-.66,0-.16-.77-1-1.22-1.45-.63-.3.39-.24.62-1.24.48-1.28,1.06-2.31,1.81-.65,1.75.74,0,1.3.4,2.25.36-.28.55-.33.61-.48.66-.93.18-1.9-.39-2.84-.22-2,.37,3.28-5.53,3.22-5.76-.17-.59,1.28-1.66,1.81-.62Z"/></g></g><path id="path1468" class="cls-78" d="M93.43,45.12a3.57,3.57,0,0,1-1.12,1.54"/></g></g><path id="path1474" class="cls-11" d="M93.94,46.26a.19.19,0,0,0-.22-.17.18.18,0,0,0-.17.21.19.19,0,0,0,.22.17.18.18,0,0,0,.17-.21"/><g id="g1482"><path id="path1476" class="cls-79" d="M73.61,45.76a5.91,5.91,0,0,1,2.14.56,5.39,5.39,0,0,0,1.33.37"/><path id="path1478" class="cls-80" d="M80.44,47.79A11.4,11.4,0,0,1,79,47.5"/><path id="path1480" class="cls-81" d="M74.12,45.81a3.57,3.57,0,0,0,1.15,1.48c.43.23.9-.14,1.24-.79"/></g><path id="path1484" class="cls-11" d="M75,47.05l-.31-.32c-.15-.19-.06-.45.27-.77l.62.27a1.16,1.16,0,0,1-.58.82"/><path id="path1486" class="cls-81" d="M91,45.81a3.48,3.48,0,0,1-1.15,1.47c-.43.24-.9-.13-1.25-.78"/><path id="path1488" class="cls-11" d="M90.1,47.05l.31-.32c.16-.19.07-.45-.26-.77l-.63.27a1.19,1.19,0,0,0,.58.82"/><g id="g1528"><g id="g1522"><path id="path1490" class="cls-79" d="M91.54,45.76a6,6,0,0,0-2.15.56,5.32,5.32,0,0,1-1.32.37"/><path id="path1492" class="cls-80" d="M84.7,47.79a12.12,12.12,0,0,0,1.41-.29"/><g id="g1514"><g id="g1502"><path id="path1494" class="cls-82" d="M74.11,58.86a3.2,3.2,0,0,0,3.51-.53l.41-.41"/><path id="path1496" class="cls-82" d="M78.2,57.09a8.22,8.22,0,0,1-.69,2.37,3.63,3.63,0,0,0,2.18-1.34"/><path id="path1498" class="cls-82" d="M82.56,59.9a5.17,5.17,0,0,1-1.26-3.13"/><path id="path1500" class="cls-82" d="M79.5,57a4.66,4.66,0,0,0,.77,2.31,3.07,3.07,0,0,0,1.11-1.74"/></g><g id="g1512"><path id="path1504" class="cls-82" d="M91,58.86a3.19,3.19,0,0,1-3.5-.53l-.42-.41"/><path id="path1506" class="cls-82" d="M87,57.09a8.22,8.22,0,0,0,.68,2.37,3.6,3.6,0,0,1-2.17-1.34"/><path id="path1508" class="cls-82" d="M85.64,57a4.66,4.66,0,0,1-.77,2.31,3.12,3.12,0,0,1-1.11-1.74"/><path id="path1510" class="cls-82" d="M82.59,59.9a5.24,5.24,0,0,0,1.26-3.13"/></g></g><g id="g1520"><path id="path1516" class="cls-83" d="M64.9,51.64c-1.07.77-3.06,6.33-3.21,8-.35,3.78-.34,8.45.79,11.46"/><path id="path1518" class="cls-83" d="M100.24,51.64c1.08.77,3.06,6.33,3.21,8,.36,3.78.34,8.45-.79,11.46"/></g></g><path id="path1524" class="cls-84" d="M71.66,45.17c-2.39.26-2.27,1.81,0,4,.43.42.58.41.67,0,.15-.77,1-1.22,1.45-.63.3.39.23.62,1.24.48,1.27,1.06,2.31,1.81.64,1.75-.73,0-1.3.4-2.25.36.28.55.33.61.49.66.92.18,1.9-.39,2.83-.22,2,.37-3.28-5.53-3.21-5.76.17-.59-1.28-1.66-1.81-.62Z"/><path id="path1526" class="cls-78" d="M71.71,45.12a3.59,3.59,0,0,0,1.13,1.54"/></g><path id="path1530" class="cls-11" d="M71.2,46.26a.2.2,0,0,1,.23-.17.18.18,0,0,1,.17.21.2.2,0,0,1-.23.17.19.19,0,0,1-.17-.21"/><g id="g1606"><g id="g1558"><g id="g1544"><path id="path1532" class="cls-85" d="M73.26,82.54,73.32,81a2.4,2.4,0,0,0-2.83,1.45A9.32,9.32,0,0,1,67.93,86a3.18,3.18,0,0,0,3.39-1,13.35,13.35,0,0,1,1.94-2.43Z"/><path id="path1534" class="cls-86" d="M74.41,82.75,72.72,82c-.69,1.41-1.16,2.36-1.36,2.87a5,5,0,0,0-.31,2.8,3.21,3.21,0,0,0,2-1.67c.54-1,.87-2.18,1.35-3.29Z"/><path id="path1536" class="cls-87" d="M74.9,82.75l-1.81-.28c-.33,1.53-.56,2.57-.62,3.12a5.08,5.08,0,0,0,.38,2.79,3.25,3.25,0,0,0,1.55-2.11c.27-1.11.3-2.33.5-3.52Z"/><path id="path1538" class="cls-88" d="M75.16,80.28h1.08a2.38,2.38,0,0,1,.53,3.13,9.45,9.45,0,0,0-1.35,4.2,3.19,3.19,0,0,1-1.18-3.35,20.3,20.3,0,0,0,.92-4Z"/><path id="path1540" class="cls-89" d="M75.65,79.53l-1.73-.61c-.61,1.45-1,2.42-1.19,3a4.9,4.9,0,0,0-.15,2.81,3.17,3.17,0,0,0,2-1.69c.48-1,.65-2.32,1.07-3.46Z"/><path id="path1542" class="cls-90" d="M74.47,78.33,74.1,76c-.4-.11-.93.81-1.44,1.36a2.69,2.69,0,0,0-.36.39,3.28,3.28,0,0,0-.49,1.14,9,9,0,0,1-1.85,4,3.21,3.21,0,0,0,3.11-1.72,13.46,13.46,0,0,1,1.4-2.78Z"/></g><g id="g1556"><path id="path1546" class="cls-56" d="M92.6,83.3c.46,0,1,.28,2.66,1.71a23.36,23.36,0,0,0,2.44,4.2,3.65,3.65,0,0,0,.88.47,9.81,9.81,0,0,0,2.4-.06c.65-.58,1.63-.17,1.3.45.26.24-.3,1.13-.76.76s-1.86,0-2.34-.19c.19.43,1.49.71,2.4.78s.78.87.44,1.5c-.39.25-.07-.06-.21.12-.38.55-1.18.48-1.2-.06s-2-1.29-2.27-1.72c.36.85,1.18,1.64,1.59,2.48.44.44.7.52.14,1.41-.63-.07-.67-.24-1.06.13-.86-.09-1-.35-.86-1a4.82,4.82,0,0,0-.65-2.39,7.22,7.22,0,0,0-.41-.9c-.32-.37-1.8-1.11-2.18-.91-.71.37-1.24.15-1.33-.53.23-.17.06-1.14.54-1.18a1.25,1.25,0,0,1,1,.39c.57.46.87.71,1.06.66.44-.12-.81-.74-2-2.24C92.63,85.07,92.53,84,92.6,83.3Z"/><path id="path1548" class="cls-57" d="M102.19,90.46c.57-.34.9-.33,1.13-.08s.27.07.18-.15c-.38-.9-1-1-1.54-.59l-.39.38c.09.14.54.33.62.44Z"/><path id="path1550" class="cls-58" d="M94,89.64c-.61-.41-1.18-.49-1.49-.26s-.35,0-.2-.17c.64-.89,1.38-.94,1.94-.44l.39.45a1.77,1.77,0,0,1-.64.42Z"/><path id="path1552" class="cls-59" d="M98.77,94.74c.37.74.57,1.25.41,1.64s0,.45.24.25c1-.82,1-1.76.35-2.39a5.37,5.37,0,0,0-.62-.51,2.2,2.2,0,0,0-.38,1Z"/><path id="path1554" class="cls-60" d="M101.14,92.79c.57.24.77.54.74.93,0,.21.14.29.22,0,.69-1.6,0-1.9-1.07-1.85a2.24,2.24,0,0,0,.11.88Z"/></g></g><g id="g1570"><path id="path1560" class="cls-61" d="M96.26,89.22c.38-.22.4-.46.3-.62-.21-.35-.41-.18-.8.14"/><path id="path1562" class="cls-61" d="M95.78,88.69c.37-.21.4-.46.3-.62-.21-.34-.42-.17-.81.14"/><path id="path1564" class="cls-62" d="M95.24,88.19c.41-.28.43-.59.33-.8-.23-.45-.46-.23-.89.18"/><path id="path1566" class="cls-63" d="M94.65,87.57c.44-.32.47-.68.35-.91-.24-.51-.48-.27-.94.2"/><path id="path1568" class="cls-64" d="M94,86.9c.41-.34.53-.67.35-1-.29-.46-.49-.27-1,.22"/></g><g id="g1584"><path id="path1572" class="cls-85" d="M91.88,82.54l0-1.56a2.4,2.4,0,0,1,2.83,1.45A9.32,9.32,0,0,0,97.22,86a3.17,3.17,0,0,1-3.39-1,13.6,13.6,0,0,0-2-2.43Z"/><path id="path1574" class="cls-86" d="M90.73,82.75,92.42,82c.69,1.4,1.16,2.36,1.36,2.87a4.93,4.93,0,0,1,.31,2.8,3.25,3.25,0,0,1-2-1.67c-.54-1-.87-2.18-1.35-3.29Z"/><path id="path1576" class="cls-87" d="M90.25,82.74l1.81-.27c.33,1.53.55,2.57.61,3.12a5,5,0,0,1-.37,2.79,3.19,3.19,0,0,1-1.55-2.11c-.27-1.11-.31-2.33-.5-3.53Z"/><path id="path1578" class="cls-88" d="M90,80.28H88.9a2.39,2.39,0,0,0-.53,3.13,9.45,9.45,0,0,1,1.35,4.2,3.19,3.19,0,0,0,1.18-3.35,20.3,20.3,0,0,1-.92-4Z"/><path id="path1580" class="cls-89" d="M89.5,79.53l1.72-.61c.61,1.45,1,2.42,1.2,3a5.08,5.08,0,0,1,.15,2.81,3.18,3.18,0,0,1-2-1.69c-.48-1-.65-2.32-1.06-3.46Z"/><path id="path1582" class="cls-90" d="M90.67,78.33,91.05,76c.4-.1.92.82,1.44,1.36a3.42,3.42,0,0,1,.36.4,3.28,3.28,0,0,1,.49,1.14,9,9,0,0,0,1.84,3.94,3.19,3.19,0,0,1-3.1-1.71,13.26,13.26,0,0,0-1.41-2.78Z"/></g><path id="path1586" class="cls-91" d="M92.17,60.07V75.59a10.32,10.32,0,0,1-2.81,7.12,9.34,9.34,0,0,1-6.79,3h0a9.34,9.34,0,0,1-6.78-3A10.28,10.28,0,0,1,73,75.59V60.07Z"/><g id="g1602"><path id="path1588" class="cls-20" d="M92.17,69.59v4h-7.6V85.45a9.36,9.36,0,0,1-2,.22h0a9.5,9.5,0,0,1-2-.22V73.59H73v-4h7.6V60.07h4v9.52Z"/><g id="g1600"><path id="path1590" class="cls-92" d="M79.28,62.34V68c-1.23.33-4.21,1.52-4.37-1.08-.07-1.21,1.5-2,1.92-.94a.7.7,0,0,1-.31,1A.42.42,0,0,1,76,66.4c-1.27.66,1.13,2.07,2.21.24.32-.53-.53-1.09-.53-1.49s.83-1,.53-1.48c-1.09-1.82-3.48-.43-2.21.24a.41.41,0,0,1,.55-.52.7.7,0,0,1,.31,1c-.42,1.06-2,.27-1.92-.94.16-2.6,3.14-1.42,4.37-1.09Z"/><g id="g1598"><path id="path1592" class="cls-93" d="M85.87,62.34V68c1.23.33,4.21,1.52,4.37-1.08.07-1.21-1.5-2-1.92-.94a.7.7,0,0,0,.31,1,.42.42,0,0,0,.55-.52c1.27.66-1.13,2.07-2.22.24-.31-.53.53-1.09.54-1.49s-.84-1-.54-1.48c1.1-1.82,3.49-.43,2.22.24a.42.42,0,0,0-.55-.52.7.7,0,0,0-.31,1c.42,1.06,2,.27,1.92-.94-.16-2.6-3.14-1.42-4.37-1.09Z"/><path id="path1594" class="cls-93" d="M79.28,80.84V75.22c-1.23-.33-4.21-1.52-4.37,1.09-.07,1.2,1.5,2,1.92.93a.69.69,0,0,0-.31-1,.41.41,0,0,0-.55.52c-1.27-.67,1.13-2.08,2.21-.24.32.53-.53,1.09-.53,1.48s.83,1,.53,1.49c-1.09,1.82-3.48.42-2.21-.24a.42.42,0,0,0,.55.52.7.7,0,0,0,.31-1c-.42-1.06-2-.27-1.92.94.16,2.6,3.14,1.41,4.37,1.08Z"/><path id="path1596" class="cls-93" d="M85.87,80.84V75.22c1.23-.33,4.21-1.52,4.37,1.09.07,1.2-1.5,2-1.92.93a.69.69,0,0,1,.31-1c.32-.13.63.13.55.52,1.27-.67-1.13-2.08-2.22-.24-.31.53.53,1.09.54,1.48s-.84,1-.54,1.49c1.1,1.82,3.49.42,2.22-.24a.42.42,0,0,1-.55.52.7.7,0,0,1-.31-1c.42-1.06,2-.27,1.92.94-.16,2.6-3.14,1.41-4.37,1.08Z"/></g></g></g><path id="path1604" class="cls-94" d="M92.17,60.07V75.59a10.32,10.32,0,0,1-2.81,7.12,9.34,9.34,0,0,1-6.79,3h0a9.34,9.34,0,0,1-6.78-3A10.28,10.28,0,0,1,73,75.59V60.07Z"/></g></g></g></svg>