<svg id="Layer_1" data-name="Layer 1" xmlns="http://www.w3.org/2000/svg" xmlns:xlink="http://www.w3.org/1999/xlink" viewBox="0 0 220 128"><defs><style>.cls-1{fill:none;}.cls-2{clip-path:url(#clip-path);}.cls-3{fill:#283b8b;}.cls-4{fill:#fff;}.cls-5{fill:#bc1f33;}.cls-6{fill:#f2cf2f;}</style><clipPath id="clip-path"><rect id="_Clipping_Path_" data-name="&lt;Clipping Path&gt;" class="cls-1" width="220.03" height="128"/></clipPath></defs><title>Flag_rect_Cabo Verde</title><g id="CAPE_VERDE" data-name="CAPE VERDE"><g id="_Group_" data-name="&lt;Group&gt;"><g id="_Clip_Group_" data-name="&lt;Clip Group&gt;"><g class="cls-2"><rect id="_Path_" data-name="&lt;Path&gt;" class="cls-3" width="220.03" height="128"/><rect id="_Path_2" data-name="&lt;Path&gt;" class="cls-4" y="63.97" width="220.03" height="32.03"/><rect id="_Path_3" data-name="&lt;Path&gt;" class="cls-5" y="74.68" width="220.03" height="10.67"/><polygon id="_Path_4" data-name="&lt;Path&gt;" class="cls-6" points="81.59 41.6 80.16 46.02 75.5 46.02 79.27 48.78 77.84 53.17 81.59 50.44 85.36 53.17 83.93 48.78 87.69 46.02 83.04 46.02 81.59 41.6"/><polygon id="_Path_5" data-name="&lt;Path&gt;" class="cls-6" points="62.79 47.73 61.36 52.15 56.7 52.15 60.47 54.88 59.03 59.3 62.79 56.57 66.55 59.3 65.12 54.88 68.87 52.15 64.24 52.15 62.79 47.73"/><polygon id="_Path_6" data-name="&lt;Path&gt;" class="cls-6" points="51.17 63.72 49.73 68.16 45.08 68.16 48.84 70.87 47.41 75.29 51.17 72.56 54.93 75.29 53.48 70.87 57.25 68.16 52.6 68.16 51.17 63.72"/><polygon id="_Path_7" data-name="&lt;Path&gt;" class="cls-6" points="51.17 83.49 49.73 87.93 45.08 87.93 48.84 90.64 47.41 95.08 51.17 92.35 54.93 95.08 53.48 90.64 57.25 87.93 52.6 87.93 51.17 83.49"/><polygon id="_Path_8" data-name="&lt;Path&gt;" class="cls-6" points="62.79 99.5 61.36 103.92 56.7 103.92 60.47 106.67 59.03 111.07 62.79 108.36 66.55 111.07 65.12 106.67 68.87 103.92 64.24 103.92 62.79 99.5"/><polygon id="_Path_9" data-name="&lt;Path&gt;" class="cls-6" points="81.59 105.6 80.16 110.02 75.5 110.02 79.27 112.75 77.84 117.17 81.59 114.44 85.36 117.17 83.93 112.75 87.69 110.02 83.04 110.02 81.59 105.6"/><polygon id="_Path_10" data-name="&lt;Path&gt;" class="cls-6" points="100.41 99.5 98.96 103.92 94.33 103.92 98.08 106.67 96.64 111.07 100.41 108.36 104.17 111.07 102.73 106.67 106.5 103.92 101.83 103.92 100.41 99.5"/><polygon id="_Path_11" data-name="&lt;Path&gt;" class="cls-6" points="112.03 63.72 110.58 68.16 105.94 68.16 109.71 70.87 108.28 75.29 112.03 72.56 115.8 75.29 114.35 70.87 118.12 68.16 113.46 68.16 112.03 63.72"/><polygon id="_Path_12" data-name="&lt;Path&gt;" class="cls-6" points="112.03 83.49 110.58 87.93 105.94 87.93 109.71 90.64 108.28 95.08 112.03 92.35 115.8 95.08 114.35 90.64 118.12 87.93 113.46 87.93 112.03 83.49"/><polygon id="_Path_13" data-name="&lt;Path&gt;" class="cls-6" points="100.41 47.73 98.96 52.15 94.33 52.15 98.08 54.88 96.64 59.3 100.41 56.57 104.17 59.3 102.73 54.88 106.5 52.15 101.83 52.15 100.41 47.73"/></g></g></g></g></svg>