<svg id="Layer_1" data-name="Layer 1" xmlns="http://www.w3.org/2000/svg" viewBox="0 0 220 128"><defs><style>.cls-1{fill:#fe0000;}.cls-2{fill:#000095;}.cls-3{fill:#fff;}</style></defs><title>Flag_rect_Taiwan</title><rect class="cls-1" width="220" height="128"/><rect class="cls-2" width="104.14" height="69.42"/><circle class="cls-2" cx="52.07" cy="34.71" r="14.75"/><polygon class="cls-3" points="65.05 38.19 78.1 34.71 65.05 31.23 74.61 21.7 61.57 25.21 65.08 12.17 55.55 21.73 52.07 8.68 48.59 21.73 39.05 12.17 42.56 25.21 29.52 21.7 39.08 31.23 26.03 34.71 39.08 38.19 29.52 47.73 42.56 44.22 39.05 57.26 48.59 47.7 52.07 60.75 55.55 47.7 65.08 57.26 61.57 44.22 74.61 47.73 65.05 38.19"/><circle class="cls-2" cx="52.07" cy="34.71" r="14.75"/><circle class="cls-3" cx="52.07" cy="34.71" r="13.02"/></svg>