<svg id="Layer_1" data-name="Layer 1" xmlns="http://www.w3.org/2000/svg" xmlns:xlink="http://www.w3.org/1999/xlink" viewBox="0 0 219.43 128"><defs><style>.cls-1{fill:none;}.cls-2{clip-path:url(#clip-path);}.cls-3{fill:#fff;}.cls-4{fill:#223f82;}.cls-5{fill:#bc1f33;}.cls-6{clip-path:url(#clip-path-4);}.cls-7{clip-path:url(#clip-path-5);}.cls-8{clip-path:url(#clip-path-6);}.cls-9{clip-path:url(#clip-path-7);}.cls-10{clip-path:url(#clip-path-8);}.cls-11{clip-path:url(#clip-path-9);}.cls-12{clip-path:url(#clip-path-10);}.cls-13{fill:#f4cc29;}.cls-14{fill:#272015;}.cls-15{fill:#989295;}.cls-16{fill:#357c63;}.cls-17{fill:#25411c;}.cls-18{fill:#26421d;}.cls-19{fill:#bf1f3e;}.cls-20{clip-path:url(#clip-path-11);}.cls-21{clip-path:url(#clip-path-12);}.cls-22{clip-path:url(#clip-path-13);}.cls-23{clip-path:url(#clip-path-14);}.cls-24{clip-path:url(#clip-path-15);}</style><clipPath id="clip-path"><rect id="_Clipping_Path_" data-name="&lt;Clipping Path&gt;" class="cls-1" width="219.43" height="128"/></clipPath><clipPath id="clip-path-4"><rect id="_Clipping_Path_4" data-name="&lt;Clipping Path&gt;" class="cls-1" x="119.35" y="47.99" width="5.04" height="5.61"/></clipPath><clipPath id="clip-path-5"><rect id="_Clipping_Path_5" data-name="&lt;Clipping Path&gt;" class="cls-1" x="117.77" y="47.04" width="5.66" height="3.61"/></clipPath><clipPath id="clip-path-6"><rect id="_Clipping_Path_6" data-name="&lt;Clipping Path&gt;" class="cls-1" x="111.85" y="45.77" width="10" height="4.17"/></clipPath><clipPath id="clip-path-7"><rect id="_Clipping_Path_7" data-name="&lt;Clipping Path&gt;" class="cls-1" x="95.05" y="47.94" width="5.06" height="5.61"/></clipPath><clipPath id="clip-path-8"><rect id="_Clipping_Path_8" data-name="&lt;Clipping Path&gt;" class="cls-1" x="96.04" y="46.99" width="5.66" height="3.61"/></clipPath><clipPath id="clip-path-9"><rect id="_Clipping_Path_9" data-name="&lt;Clipping Path&gt;" class="cls-1" x="97.62" y="45.72" width="10" height="4.16"/></clipPath><clipPath id="clip-path-10"><rect id="_Clipping_Path_10" data-name="&lt;Clipping Path&gt;" class="cls-1" x="105.04" y="44.13" width="9.41" height="3.28"/></clipPath><clipPath id="clip-path-11"><rect id="_Clipping_Path_11" data-name="&lt;Clipping Path&gt;" class="cls-1" x="119.29" y="74.92" width="5.47" height="2.95"/></clipPath><clipPath id="clip-path-12"><rect id="_Clipping_Path_12" data-name="&lt;Clipping Path&gt;" class="cls-1" x="116.33" y="74.07" width="6.01" height="2.26"/></clipPath><clipPath id="clip-path-13"><rect id="_Clipping_Path_13" data-name="&lt;Clipping Path&gt;" class="cls-1" x="94.75" y="74.92" width="5.48" height="2.95"/></clipPath><clipPath id="clip-path-14"><rect id="_Clipping_Path_14" data-name="&lt;Clipping Path&gt;" class="cls-1" x="97.2" y="74.07" width="5.99" height="2.26"/></clipPath><clipPath id="clip-path-15"><rect id="_Clipping_Path_15" data-name="&lt;Clipping Path&gt;" class="cls-1" x="99.75" y="71.71" width="19.93" height="4.02"/></clipPath></defs><title>Flag_rect_Dominican Republic</title><g id="DOMINICAN_REPUBLIC" data-name="DOMINICAN REPUBLIC"><g id="_Group_" data-name="&lt;Group&gt;"><g id="_Clip_Group_" data-name="&lt;Clip Group&gt;"><g class="cls-2"><g id="_Clip_Group_2" data-name="&lt;Clip Group&gt;"><g class="cls-2"><rect id="_Path_" data-name="&lt;Path&gt;" class="cls-3" width="219.43" height="128"/><rect id="_Path_2" data-name="&lt;Path&gt;" class="cls-4" width="94.05" height="49.17"/><rect id="_Path_3" data-name="&lt;Path&gt;" class="cls-5" y="78.61" width="94.05" height="49.39"/><rect id="_Path_4" data-name="&lt;Path&gt;" class="cls-4" x="125.37" y="78.61" width="94.06" height="49.39"/><rect id="_Path_5" data-name="&lt;Path&gt;" class="cls-5" x="125.37" width="94.06" height="49.17"/><g id="_Clip_Group_3" data-name="&lt;Clip Group&gt;"><g class="cls-2"><g id="_Group_2" data-name="&lt;Group&gt;"><path id="_Path_6" data-name="&lt;Path&gt;" d="M124.78,54.46a1.58,1.58,0,0,0-.66-1.37c.14-.19.83.2.9,1.36Z"/></g><g id="_Group_3" data-name="&lt;Group&gt;"><path id="_Path_7" data-name="&lt;Path&gt;" d="M124.45,54.54a1.58,1.58,0,0,0-.66-1.37c.14-.18.83.19.88,1.36Z"/></g><g id="_Group_4" data-name="&lt;Group&gt;"><path id="_Path_8" data-name="&lt;Path&gt;" d="M124.09,54.57a1.66,1.66,0,0,0-.66-1.39c.13-.18.83.21.88,1.37l-.22,0Z"/></g><g id="_Group_5" data-name="&lt;Group&gt;"><path id="_Path_9" data-name="&lt;Path&gt;" d="M123.76,54.68a1.56,1.56,0,0,0-.69-1.37c.15-.18.84.2.91,1.36Z"/></g><g id="_Group_6" data-name="&lt;Group&gt;"><path id="_Path_10" data-name="&lt;Path&gt;" d="M123.39,54.84a1.59,1.59,0,0,0-.66-1.37c.14-.2.83.19.89,1.37Z"/></g><g id="_Group_7" data-name="&lt;Group&gt;"><path id="_Path_11" data-name="&lt;Path&gt;" d="M123.06,55a1.59,1.59,0,0,0-.67-1.37c.14-.17.83.2.87,1.37Z"/></g><g id="_Group_8" data-name="&lt;Group&gt;"><g id="_Clip_Group_4" data-name="&lt;Clip Group&gt;"><g class="cls-6"><path id="_Path_12" data-name="&lt;Path&gt;" class="cls-4" d="M124.4,53c-1.23-3.35-1.75-3.82-2-4.07A16.68,16.68,0,0,0,120,48l-.62,1.4s1.91.93,2.3,1.8a12.12,12.12,0,0,1,.69,2.42s.86-.36,1.14-.46.92,0,.92-.12Z"/></g></g></g><g id="_Group_9" data-name="&lt;Group&gt;"><path id="_Compound_Path_" data-name="&lt;Compound Path&gt;" d="M122.28,53.76l0-.12a13.08,13.08,0,0,0-.69-2.42c-.38-.81-2.23-1.72-2.24-1.73l.56-1.53a8.73,8.73,0,0,1,2.63.93c.28.32.8.89,2,4.11,0,.18-.13.18-.41.18a1.72,1.72,0,0,0-.56.06l-1.14.47-.11,0Zm-2.84-4.34a4.68,4.68,0,0,1,2.3,1.71,11.91,11.91,0,0,1,.69,2.32l1-.41a2.62,2.62,0,0,1,.64-.07c-1-3.07-1.48-3.65-1.72-3.9a11.15,11.15,0,0,0-2.41-1l-.52,1.33v0Z"/></g><g id="_Group_10" data-name="&lt;Group&gt;"><g id="_Clip_Group_5" data-name="&lt;Clip Group&gt;"><g class="cls-7"><path id="_Path_13" data-name="&lt;Path&gt;" class="cls-4" d="M123.43,50.65c-2-.82-2.61-.4-3.3-.58s-2.19-.57-2.36-.93,1.28-2.1,1.28-2.1l1,1c.64.67,2.21.07,2.75,1.25Z"/></g></g></g><g id="_Group_11" data-name="&lt;Group&gt;"><path id="_Compound_Path_2" data-name="&lt;Compound Path&gt;" d="M123.43,50.78a.08.08,0,0,1-.07,0,5.67,5.67,0,0,0-2.28-.51h-.26a2.23,2.23,0,0,1-.72-.06c-1.6-.4-2.33-.7-2.44-1s.84-1.7,1.3-2.25l1.2,1a1.74,1.74,0,0,0,1.07.36,2,2,0,0,1,1.73.95l.6,1.3a.16.16,0,0,1,0,.15l-.1,0ZM121.08,50a5.42,5.42,0,0,1,2.07.41l-.45-1c-.31-.61-.88-.68-1.49-.78a1.87,1.87,0,0,1-1.24-.44l-1-1c-.44.78-1.13,1.76-1,2s.41.37,2.25.85a2.27,2.27,0,0,0,.43.05l.49,0Z"/></g><g id="_Group_12" data-name="&lt;Group&gt;"><path id="_Path_14" data-name="&lt;Path&gt;" d="M121.08,50.07a5.62,5.62,0,0,1-1.79-.65,6.13,6.13,0,0,0-.82-.35c-.47-.14-.64.09-.64.1-.17-.14.08-.49.69-.3a3.3,3.3,0,0,1,.86.36c.55.25,1.69.78,1.83.6l.19.13a.43.43,0,0,1-.32.11Z"/></g><g id="_Group_13" data-name="&lt;Group&gt;"><g id="_Clip_Group_6" data-name="&lt;Clip Group&gt;"><g class="cls-8"><path id="_Path_15" data-name="&lt;Path&gt;" class="cls-4" d="M112.4,45.85a23.21,23.21,0,0,1,5.41.19c2.54.43,4,1.35,4,1.92a3,3,0,0,1-.58,2c-.08,0,0-.51-.63-.68a37.63,37.63,0,0,0-4.28-1.14c-.79,0-3,.06-3.34,0s-1.16-.23-1.16-.61a6.68,6.68,0,0,1,.55-1.69Z"/></g></g></g><g id="_Group_14" data-name="&lt;Group&gt;"><path id="_Compound_Path_3" data-name="&lt;Compound Path&gt;" d="M121.21,50l-.11-.17a.6.6,0,0,0-.48-.49l-.63-.19a29.13,29.13,0,0,0-3.64-1h-.43l-1.52,0-1.14,0-.25,0c-.05,0-1.28-.13-1.28-.7a8.46,8.46,0,0,1,.54-1.74,15.11,15.11,0,0,1,2.27-.14,17.78,17.78,0,0,1,3.29.27c2.55.44,4.12,1.37,4.12,2a3.43,3.43,0,0,1-.55,2l-.19.05Zm-5.29-2h.43a29.23,29.23,0,0,1,3.72,1l.59.18a.85.85,0,0,1,.64.58,3.53,3.53,0,0,0,.43-1.75c0-.49-1.4-1.39-4-1.83a18,18,0,0,0-3.24-.26c-.94,0-1.69,0-2,.07a5,5,0,0,0-.58,1.59c0,.26.63.44,1.07.49h1.36l1.55,0Z"/></g><g id="_Group_15" data-name="&lt;Group&gt;"><path id="_Path_16" data-name="&lt;Path&gt;" d="M113.71,47.83s-.09,0-.11,0a1.25,1.25,0,0,1-.59-.17,1.06,1.06,0,0,0-.58-.14c-.3,0-.35.23-.35.23-.23-.06-.14-.39.33-.45a.94.94,0,0,1,.66.17,1.81,1.81,0,0,0,.53.15l.3.06,0-.21.16,0,.08.07-.12.27a.55.55,0,0,1-.29.08Z"/></g><g id="_Group_16" data-name="&lt;Group&gt;"><path id="_Path_17" data-name="&lt;Path&gt;" d="M94.68,54.41h-.24a1.82,1.82,0,0,1,.79-1.55c.09.21-.52.54-.55,1.56Z"/></g><g id="_Group_17" data-name="&lt;Group&gt;"><path id="_Path_18" data-name="&lt;Path&gt;" d="M95,54.48h-.25a1.74,1.74,0,0,1,.82-1.56c.07.21-.54.53-.57,1.56Z"/></g><g id="_Group_18" data-name="&lt;Group&gt;"><path id="_Path_19" data-name="&lt;Path&gt;" d="M95.37,54.51h-.21a1.82,1.82,0,0,1,.78-1.56c.07.22-.53.54-.57,1.57Z"/></g><g id="_Group_19" data-name="&lt;Group&gt;"><path id="_Path_20" data-name="&lt;Path&gt;" d="M95.72,54.63h-.23a1.84,1.84,0,0,1,.78-1.56c.07.2-.53.54-.55,1.56Z"/></g><g id="_Group_20" data-name="&lt;Group&gt;"><path id="_Path_21" data-name="&lt;Path&gt;" d="M96.08,54.79h-.23a1.82,1.82,0,0,1,.78-1.56c.08.21-.5.54-.55,1.57Z"/></g><g id="_Group_21" data-name="&lt;Group&gt;"><path id="_Path_22" data-name="&lt;Path&gt;" d="M96.41,55h-.23A1.9,1.9,0,0,1,97,53.4c.07.2-.52.53-.57,1.57Z"/></g><g id="_Group_22" data-name="&lt;Group&gt;"><g id="_Clip_Group_7" data-name="&lt;Clip Group&gt;"><g class="cls-9"><path id="_Path_23" data-name="&lt;Path&gt;" class="cls-4" d="M95.05,53c1.24-3.36,1.77-3.83,2-4.08a14.19,14.19,0,0,1,2.45-1l.61,1.39s-1.89.94-2.3,1.8a13,13,0,0,0-.71,2.43L96,53.09c-.28-.1-.91,0-.91-.1Z"/></g></g></g><g id="_Group_23" data-name="&lt;Group&gt;"><path id="_Compound_Path_4" data-name="&lt;Compound Path&gt;" d="M97.2,53.71l-.13-.05-1.13-.48a3.49,3.49,0,0,0-.59,0c-.27,0-.41,0-.41-.15,1.21-3.26,1.74-3.83,2-4.11a11.84,11.84,0,0,1,2.52-1l.75,1.46c-.06.15-1.91,1.06-2.3,1.87a12.81,12.81,0,0,0-.67,2.4l0,.14Zm-1.48-.77A.93.93,0,0,1,96,53l1,.42a10.44,10.44,0,0,1,.68-2.33c.41-.88,2.29-1.79,2.35-1.83L99.4,48a20.86,20.86,0,0,0-2.28,1c-.25.3-.78.87-2,4.05a2.28,2.28,0,0,1,.56-.09Z"/></g><g id="_Group_24" data-name="&lt;Group&gt;"><g id="_Clip_Group_8" data-name="&lt;Clip Group&gt;"><g class="cls-10"><path id="_Path_24" data-name="&lt;Path&gt;" class="cls-4" d="M96,50.59c2-.82,2.6-.39,3.31-.57s2.18-.57,2.34-.93-1.3-2.1-1.3-2.1l-1,1c-.64.69-2.2.07-2.75,1.26Z"/></g></g></g><g id="_Group_25" data-name="&lt;Group&gt;"><path id="_Compound_Path_5" data-name="&lt;Compound Path&gt;" d="M96,50.72s-.08,0-.1,0a.21.21,0,0,1,0-.16l.59-1.3a1.91,1.91,0,0,1,1.71-.94,1.71,1.71,0,0,0,1.09-.36l1-1c.67.57,1.68,1.87,1.52,2.26s-.84.6-2.45,1a2.2,2.2,0,0,1-.48,0h-.52a5.5,5.5,0,0,0-2.27.52Zm4.26-3.65-.78,1a2,2,0,0,1-1.26.44c-.61.09-1.19.16-1.49.77l-.45,1a5.24,5.24,0,0,1,2.05-.41h.27a2,2,0,0,0,.67,0c1.77-.45,2.21-.71,2.24-.86a5.89,5.89,0,0,0-1.25-2Z"/></g><g id="_Group_26" data-name="&lt;Group&gt;"><path id="_Path_25" data-name="&lt;Path&gt;" d="M98.37,50a.34.34,0,0,1-.3-.12l.19-.12c.14.19,1.26-.34,1.8-.6a6.66,6.66,0,0,1,.88-.37c.61-.18.88.16.88.18s-.29,0-.52,0A1,1,0,0,0,101,49a8.62,8.62,0,0,0-.82.35,5.31,5.31,0,0,1-1.79.65Z"/></g><g id="_Group_27" data-name="&lt;Group&gt;"><g id="_Clip_Group_9" data-name="&lt;Clip Group&gt;"><g class="cls-11"><path id="_Path_26" data-name="&lt;Path&gt;" class="cls-4" d="M107.08,45.8a23.2,23.2,0,0,0-5.44.18c-2.52.44-4,1.36-4,1.92a2.8,2.8,0,0,0,.6,2c.07,0,0-.51.61-.68a36.33,36.33,0,0,1,4.29-1.14c.76,0,3,.07,3.34,0s1.16-.22,1.16-.61a7.72,7.72,0,0,0-.54-1.68Z"/></g></g></g><g id="_Group_28" data-name="&lt;Group&gt;"><path id="_Compound_Path_6" data-name="&lt;Compound Path&gt;" d="M98.22,50l-.15-.06a3.49,3.49,0,0,1-.56-2c0-.65,1.58-1.59,4.12-2a17.86,17.86,0,0,1,3.27-.27c.94,0,1.72,0,2,.07a3.49,3.49,0,0,1,.82,1.8c0,.58-1.22.72-1.27.72h-1.39c-.55,0-1.12-.05-1.54-.05l-.43,0a31,31,0,0,0-3.72,1l-.54.16a.65.65,0,0,0-.51.51l-.13.18Zm6.68-4.15a17.37,17.37,0,0,0-3.23.25c-2.53.45-3.93,1.35-3.93,1.82a3.26,3.26,0,0,0,.43,1.77.8.8,0,0,1,.64-.59l.54-.16a28,28,0,0,1,3.75-1h.45l1.54,0,1.11,0c.69-.05,1.31-.25,1.31-.51a7.6,7.6,0,0,0-.53-1.63c-.36,0-1.14,0-2.08,0Z"/></g><g id="_Group_29" data-name="&lt;Group&gt;"><path id="_Path_27" data-name="&lt;Path&gt;" d="M105.78,47.78c-.38,0-.41-.24-.43-.35l.21-.13,0,.09c0,.12,0,.2.25.16a1,1,0,0,0,.53-.16,1.17,1.17,0,0,1,.66-.15c.5.06.56.39.56.4-.17.06-.25-.16-.56-.19a1,1,0,0,0-.55.14,2.19,2.19,0,0,1-.61.19Z"/></g><g id="_Group_30" data-name="&lt;Group&gt;"><g id="_Clip_Group_10" data-name="&lt;Clip Group&gt;"><g class="cls-12"><path id="_Path_28" data-name="&lt;Path&gt;" class="cls-4" d="M109.64,44.13c-3.49,0-4.43.54-4.57,1.14a6.46,6.46,0,0,0,.4,2.14s.59-1.1,4.22-1.07,4.34,1,4.34,1a10.34,10.34,0,0,0,.42-2.11c0-.54-1.49-1.12-4.81-1.1Z"/></g></g></g><g id="_Group_31" data-name="&lt;Group&gt;"><path id="_Compound_Path_7" data-name="&lt;Compound Path&gt;" d="M105.45,47.67l-.08-.22a6.3,6.3,0,0,1-.41-2.2c.16-.56.82-1.18,4.68-1.23,3,0,4.85.47,4.93,1.2a13.75,13.75,0,0,1-.43,2.15h0a8.29,8.29,0,0,0-4.43-.92h0c-3.51,0-4.1,1-4.13,1l-.11.19Zm4-1.44c3.41,0,4.38.8,4.57,1,0-.27.3-1.54.29-2s-1.3-1-4.62-1c-2.92,0-4.39.39-4.58,1.08a4.89,4.89,0,0,0,.35,1.87c.31-.3,1.31-1,4-1Z"/></g><polygon id="_Path_29" data-name="&lt;Path&gt;" class="cls-13" points="114.48 47.59 114.62 46.14 114.76 46.16 114.64 47.43 115.15 47.48 115.15 47.64 114.48 47.59"/><polygon id="_Path_30" data-name="&lt;Path&gt;" class="cls-13" points="115.36 47.66 115.47 46.21 115.64 46.23 115.49 47.67 115.36 47.66"/><polygon id="_Path_31" data-name="&lt;Path&gt;" class="cls-13" points="116.67 47.76 116.92 46.31 117.69 46.44 117.67 46.61 117.03 46.51 116.97 46.96 117.55 47.04 117.53 47.21 116.94 47.12 116.86 47.6 117.5 47.72 117.48 47.87 116.67 47.76"/><polygon id="_Path_32" data-name="&lt;Path&gt;" class="cls-13" points="118.93 48.29 119.38 47.08 119.05 46.97 119.1 46.81 119.9 47.08 119.85 47.24 119.5 47.13 119.07 48.33 118.93 48.29"/><path id="_Compound_Path_8" data-name="&lt;Compound Path&gt;" class="cls-13" d="M115.87,47.54l.28,0h.1a.19.19,0,0,0,.1,0,.13.13,0,0,0,0-.07.17.17,0,0,0,0-.12.3.3,0,0,0,0-.14l-.07-.11-.18,0L116,47Zm.08-.67.22,0a.25.25,0,0,0,.16,0s.06,0,.09-.06a.22.22,0,0,0,0-.12c0-.05,0-.09,0-.12a.23.23,0,0,0-.07-.09s-.07,0-.17,0l-.2,0Zm-.22.83.14-1.46.41,0a.41.41,0,0,1,.19.08.21.21,0,0,1,.11.13v.2a.22.22,0,0,1,0,.17.28.28,0,0,1-.11.13c.06,0,.09.07.14.14a.68.68,0,0,1,0,.21.46.46,0,0,1,0,.2.23.23,0,0,1-.09.12.21.21,0,0,1-.11.07.6.6,0,0,1-.19,0Z"/><path id="_Compound_Path_9" data-name="&lt;Compound Path&gt;" class="cls-13" d="M118.05,47.18l.31.07a.23.23,0,0,0,.14,0,.26.26,0,0,0,.13-.06.25.25,0,0,0,0-.12.28.28,0,0,0,0-.18.17.17,0,0,0-.15-.1l-.33-.09Zm-.36.73.41-1.39.45.13a.5.5,0,0,1,.22.1s0,.09.06.16a.82.82,0,0,1,0,.22.41.41,0,0,1-.14.23.32.32,0,0,1-.26.07l.06.09a.51.51,0,0,1,0,.22l.08.43-.16-.05-.06-.32a1,1,0,0,0,0-.23s0-.09,0-.09,0,0-.05-.07l-.07,0-.17,0-.17.62Z"/><path id="_Compound_Path_10" data-name="&lt;Compound Path&gt;" class="cls-13" d="M120.62,48.79l.2.08.17,0a.18.18,0,0,0,.11,0,1,1,0,0,0,.16-.14c0-.08.06-.17.11-.26a1.43,1.43,0,0,0,.07-.35c0-.09,0-.16-.07-.2l-.16-.09-.22-.07Zm-.22.1.5-1.36.36.13a.34.34,0,0,1,.18.08.49.49,0,0,1,.12.15.38.38,0,0,1,0,.26.93.93,0,0,1-.08.35l-.14.27a1.27,1.27,0,0,1-.14.17.61.61,0,0,1-.13.09.44.44,0,0,1-.15,0l-.18,0Z"/><path id="_Compound_Path_11" data-name="&lt;Compound Path&gt;" class="cls-13" d="M119.85,48l.33.13.06-.41a1.47,1.47,0,0,1,0-.32l-.15.25Zm-.5.48.89-1.25.16.06-.1,1.51-.14,0,0-.47-.42-.13-.27.36Z"/><polygon id="_Path_33" data-name="&lt;Path&gt;" class="cls-13" points="109.28 46.05 109.28 44.77 108.88 44.77 108.88 44.6 109.83 44.6 109.83 44.77 109.43 44.77 109.43 46.05 109.28 46.05"/><polygon id="_Path_34" data-name="&lt;Path&gt;" class="cls-13" points="111.27 46.05 111.35 44.6 111.49 44.61 111.44 46.05 111.27 46.05"/><path id="_Compound_Path_12" data-name="&lt;Compound Path&gt;" class="cls-13" d="M106.84,45.49l.31-.06a.35.35,0,0,0,.21-.1.42.42,0,0,0,0-.2.79.79,0,0,0-.08-.16s-.06,0-.09,0a.85.85,0,0,0-.16,0l-.31,0Zm0,.77-.28-1.42.45-.08.19,0a.29.29,0,0,1,.14,0,.18.18,0,0,1,.11.13.39.39,0,0,1,.11.17.74.74,0,0,1,0,.34.45.45,0,0,1-.31.19l-.31,0,.12.58Z"/><path id="_Compound_Path_13" data-name="&lt;Compound Path&gt;" class="cls-13" d="M108,45.43l.42,0-.17-.4a2.28,2.28,0,0,1-.11-.29,1.35,1.35,0,0,1,0,.29Zm-.28.62.33-1.47h.18l.6,1.41h-.17l-.19-.43-.5,0-.1.45Z"/><path id="_Compound_Path_14" data-name="&lt;Compound Path&gt;" class="cls-13" d="M110.14,45.25h.35a.58.58,0,0,0,.17,0s.09-.06.09-.09a.32.32,0,0,0,0-.13c0-.07,0-.14,0-.16a.24.24,0,0,0-.2-.08h-.4Zm-.15.8V44.6h.53a.76.76,0,0,1,.25,0,.24.24,0,0,1,.12.14.34.34,0,0,1,0,.22.5.5,0,0,1-.08.26c0,.07-.12.11-.25.12,0,0,.1.06.1.09l.14.19.19.39h-.19l-.14-.3a1.76,1.76,0,0,0-.13-.2.47.47,0,0,0-.09-.1s0,0-.07,0h-.28v.63Z"/><path id="_Compound_Path_15" data-name="&lt;Compound Path&gt;" class="cls-13" d="M112.19,45.57l.41.07,0-.42a1.31,1.31,0,0,1,0-.31c0,.09-.08.17-.11.25Zm-.45.52.72-1.35.17,0,.22,1.51-.17,0-.05-.46-.5-.08-.22.4Z"/><polygon id="_Path_35" data-name="&lt;Path&gt;" class="cls-13" points="101.03 48.08 100.83 46.64 100.97 46.61 101.18 48.06 101.03 48.08"/><path id="_Path_36" data-name="&lt;Path&gt;" class="cls-13" d="M102.72,47.28l.14,0a.23.23,0,0,0,.07.18.15.15,0,0,0,.12.09.29.29,0,0,0,.19,0,.37.37,0,0,0,.17,0,.16.16,0,0,0,.09-.09.3.3,0,0,0,0-.13.28.28,0,0,0,0-.12.26.26,0,0,0-.13-.07l-.2-.05a.89.89,0,0,1-.24-.07c-.07,0-.12-.07-.14-.13s0-.1-.08-.17,0-.14,0-.21a.52.52,0,0,1,.14-.15.46.46,0,0,1,.21-.08,1,1,0,0,1,.26,0c.08,0,.15.08.17.15a.59.59,0,0,1,.1.21l-.17,0a.34.34,0,0,0-.1-.2.26.26,0,0,0-.23,0c-.1,0-.17,0-.19.08s0,.09,0,.16a.13.13,0,0,0,0,.11.45.45,0,0,0,.24.08l.28.07a.32.32,0,0,1,.17.15.31.31,0,0,1,.06.19.37.37,0,0,1,0,.23.32.32,0,0,1-.14.17.63.63,0,0,1-.23.08.68.68,0,0,1-.3,0,1.09,1.09,0,0,1-.18-.15.4.4,0,0,1-.07-.26Z"/><path id="_Compound_Path_16" data-name="&lt;Compound Path&gt;" class="cls-13" d="M101.31,47.22a.81.81,0,0,1,.08-.58.57.57,0,0,1,.38-.27.54.54,0,0,1,.56.3,1.06,1.06,0,0,1,.13.37.68.68,0,0,1,0,.4.5.5,0,0,1-.17.29.47.47,0,0,1-.27.12.54.54,0,0,1-.33-.05.76.76,0,0,1-.23-.24.83.83,0,0,1-.13-.34Zm.18,0a.7.7,0,0,0,.15.39.42.42,0,0,0,.32.11.39.39,0,0,0,.28-.2.85.85,0,0,0,.05-.44.81.81,0,0,0-.1-.3.35.35,0,0,0-.37-.22.31.31,0,0,0-.29.18.71.71,0,0,0,0,.48Z"/><path id="_Compound_Path_17" data-name="&lt;Compound Path&gt;" class="cls-13" d="M100,48.22l.23-.07a.77.77,0,0,0,.19-.07s.08-.08.08-.11a.3.3,0,0,0,0-.21.64.64,0,0,0,0-.28.82.82,0,0,0-.16-.3.47.47,0,0,0-.19-.12l-.22,0-.23.07Zm-.1.23-.45-1.39.41-.13.2,0a.37.37,0,0,1,.2,0,.45.45,0,0,1,.21.2,1,1,0,0,1,.17.32c0,.1,0,.19.06.28a.86.86,0,0,1,0,.23.39.39,0,0,1-.07.16.27.27,0,0,1-.11.1.33.33,0,0,1-.19.08Z"/><path id="_Path_37" data-name="&lt;Path&gt;" class="cls-3" d="M99.64,50.92l1.88,1.79V67.08A2.63,2.63,0,0,0,104,69.47H107a3.41,3.41,0,0,1,2.77,1.5,3.38,3.38,0,0,1,2.77-1.5l3.32,0a2.64,2.64,0,0,0,2.21-2.44V52.71l1.85-1.79Z"/><g id="_Group_32" data-name="&lt;Group&gt;"><path id="_Compound_Path_18" data-name="&lt;Compound Path&gt;" d="M109.78,71.17l-.09-.13A3.31,3.31,0,0,0,107,69.59H104a2.77,2.77,0,0,1-2.57-2.51V52.71L99.56,51l20.37-.2-1.79,2,0,14.3a2.57,2.57,0,0,1-.76,1.74,2.15,2.15,0,0,1-1.54.81h0l-3.35,0h0A3.24,3.24,0,0,0,109.88,71l-.1.13Zm10.07-20.34L99.64,51l1.91,1.6.06,14.46A2.55,2.55,0,0,0,104,69.36H107a3.49,3.49,0,0,1,2.77,1.41,3.42,3.42,0,0,1,2.7-1.41l3.39,0h0a2,2,0,0,0,1.4-.75,2.38,2.38,0,0,0,.69-1.58V52.71l1.89-1.88Z"/></g><polygon id="_Path_38" data-name="&lt;Path&gt;" class="cls-5" points="111.32 50.92 111.32 59.29 118.08 59.29 118.08 52.71 119.93 50.92 111.32 50.92"/><g id="_Group_33" data-name="&lt;Group&gt;"><path id="_Compound_Path_19" data-name="&lt;Compound Path&gt;" d="M118.12,59.36h-6.8l-.07-8.44,8.68-.08-1.81,1.92v6.6Zm1.76-8.51-8.56.13.08,8.31,6.6-.07V52.71l1.88-1.86Z"/></g><polygon id="_Path_39" data-name="&lt;Path&gt;" class="cls-4" points="99.64 50.92 108.23 50.92 108.23 59.29 101.52 59.29 101.52 52.71 99.64 50.92"/><g id="_Group_34" data-name="&lt;Group&gt;"><path id="_Compound_Path_20" data-name="&lt;Compound Path&gt;" d="M108.31,59.36h-6.79l-.11-6.65L99.59,51l8.64-.11.08,8.52Zm-.14-8.44L99.64,51l1.89,1.68,0,6.63,6.62-.07v-8.3Z"/></g><path id="_Path_40" data-name="&lt;Path&gt;" class="cls-5" d="M101.52,62.29h6.71v7.48l-.61-.3H104a2.59,2.59,0,0,1-2.44-2.39Z"/><g id="_Group_35" data-name="&lt;Group&gt;"><path id="_Compound_Path_21" data-name="&lt;Compound Path&gt;" d="M108.31,69.88l-.72-.34H104a2.68,2.68,0,0,1-2.55-2.47V62.29l6.82-.08.08,7.67Zm-.14-7.59-6.65.07,0,4.72A2.57,2.57,0,0,0,104,69.41h3.66l.55.25V62.29Z"/></g><path id="_Path_41" data-name="&lt;Path&gt;" class="cls-4" d="M118.08,62.29h-6.76v7.48l.59-.3h3.7a2.62,2.62,0,0,0,2.47-2.39Z"/><g id="_Group_36" data-name="&lt;Group&gt;"><path id="_Compound_Path_22" data-name="&lt;Compound Path&gt;" d="M111.25,69.88V62.29l6.83-.08,0,4.87a2.65,2.65,0,0,1-2.51,2.47h-3.7l-.66.33ZM118,62.29l-6.68.07.08,7.3.48-.25h3.73A2.56,2.56,0,0,0,118,67.08V62.29Z"/></g><g id="_Group_37" data-name="&lt;Group&gt;"><path id="_Compound_Path_23" data-name="&lt;Compound Path&gt;" d="M109.78,71.17l-.09-.13A3.31,3.31,0,0,0,107,69.59H104a2.77,2.77,0,0,1-2.57-2.51V52.71L99.56,51l20.37-.2-1.79,2,0,14.3a2.57,2.57,0,0,1-.76,1.74,2.15,2.15,0,0,1-1.54.81h0l-3.35,0h0A3.24,3.24,0,0,0,109.88,71l-.1.13Zm10.07-20.34L99.64,51l1.91,1.6.06,14.46A2.55,2.55,0,0,0,104,69.36H107a3.49,3.49,0,0,1,2.77,1.41,3.42,3.42,0,0,1,2.7-1.41l3.39,0h0a2,2,0,0,0,1.4-.75,2.38,2.38,0,0,0,.69-1.58V52.71l1.89-1.88Z"/></g><polygon id="_Path_42" data-name="&lt;Path&gt;" class="cls-13" points="109.47 55.7 109.47 58.1 110.08 58.1 110.08 55.7 110.71 55.7 110.71 55.11 110.08 55.11 110.08 54.5 109.47 54.5 109.47 55.11 108.86 55.11 108.86 55.7 109.47 55.7"/><g id="_Group_38" data-name="&lt;Group&gt;"><path id="_Compound_Path_24" data-name="&lt;Compound Path&gt;" d="M110.19,58.2h-.72l-.11-2.5-.5.11-.12-.7.73-.11-.11-.5.72-.11.11.72.52-.11.12.7-.75.11.11,2.39Zm-.72-2.61.12,2.51L110,58V55.7l.74-.11-.13-.48-.5.1L110,54.5l-.5.11.12.5-.73.1.11.49.5-.11Z"/></g><g id="_Group_39" data-name="&lt;Group&gt;"><polygon id="_Path_43" data-name="&lt;Path&gt;" class="cls-14" points="110 58.8 105.12 52.34 105.42 52.09 110.3 58.55 110 58.8 110 58.8"/></g><polygon id="_Path_44" data-name="&lt;Path&gt;" class="cls-13" points="105.07 52.35 104.54 51.25 105.54 52.07 105.07 52.35"/><path id="_Path_45" data-name="&lt;Path&gt;" class="cls-5" d="M107.81,57l-.61,2.47a11.5,11.5,0,0,0,1.9.18,12.78,12.78,0,0,0-.38-1.75,8.6,8.6,0,0,1-.91-.9Z"/><path id="_Path_46" data-name="&lt;Path&gt;" class="cls-3" d="M106.2,55.38l-.33,3.26s2.21,1.93,2.16,1.68-.17-3.3-.17-3.3Z"/><path id="_Path_47" data-name="&lt;Path&gt;" class="cls-4" d="M104.38,53.42,104.26,57a17.32,17.32,0,0,0,1.94,1.44c0-.15.19-2.9.19-2.9Z"/><g id="_Group_40" data-name="&lt;Group&gt;"><polygon id="_Path_48" data-name="&lt;Path&gt;" points="104.35 56.42 104.24 53.38 104.45 53.39 104.35 56.42 104.35 56.42"/></g><g id="_Group_41" data-name="&lt;Group&gt;"><polygon id="_Path_49" data-name="&lt;Path&gt;" class="cls-14" points="109.74 59.01 103.97 53.27 104.26 52.98 110.02 58.73 109.74 59.01 109.74 59.01"/></g><polygon id="_Path_50" data-name="&lt;Path&gt;" class="cls-13" points="103.95 53.27 103.27 52.26 104.38 52.94 103.95 53.27"/><path id="_Path_51" data-name="&lt;Path&gt;" class="cls-3" d="M103.33,54.5v9a3.17,3.17,0,0,0,3.09,3,21.46,21.46,0,0,0,3-.6V59.29Z"/><g id="_Group_42" data-name="&lt;Group&gt;"><path id="_Compound_Path_25" data-name="&lt;Compound Path&gt;" d="M106.27,66.59a3.32,3.32,0,0,1-3.06-3.09v-9l6.34,4.7,0,6.68a12.31,12.31,0,0,1-3.17.71Zm-3-12,.19,8.92a3,3,0,0,0,2.81,2.87v.11l.12-.11a21.53,21.53,0,0,0,3.06-.6l-.09-6.48-6.09-4.71Z"/></g><path id="_Path_52" data-name="&lt;Path&gt;" class="cls-5" d="M103.33,61.69V63.5a3.17,3.17,0,0,0,3.09,3,21.46,21.46,0,0,0,3-.6c-1.24-.6-4.31,1.2-4.31-3.59a2.28,2.28,0,0,1-1.83-.6Z"/><path id="_Path_53" data-name="&lt;Path&gt;" class="cls-4" d="M105.26,55.9l-.1,5.19a7.13,7.13,0,0,1-1.83-.6v-6Z"/><path id="_Path_54" data-name="&lt;Path&gt;" class="cls-5" d="M106.93,57.39v4a2.4,2.4,0,0,1,1.18.21l1.39.57V59.28Z"/><path id="_Path_55" data-name="&lt;Path&gt;" class="cls-4" d="M109.33,63.5a10.18,10.18,0,0,0-1.71-.71,2.93,2.93,0,0,0-.78,0,7.56,7.56,0,0,0,0,1c0,.36.6.53.77.53s1.74-.17,1.74-.17Z"/><g id="_Group_43" data-name="&lt;Group&gt;"><path id="_Compound_Path_26" data-name="&lt;Compound Path&gt;" d="M106.27,66.59a3.32,3.32,0,0,1-3.06-3.09v-9l6.34,4.7,0,6.68a12.31,12.31,0,0,1-3.17.71Zm-3-12,.19,8.92a3,3,0,0,0,2.81,2.87v.11l.12-.11a21.53,21.53,0,0,0,3.06-.6l-.09-6.48-6.09-4.71Z"/></g><g id="_Group_44" data-name="&lt;Group&gt;"><polygon id="_Path_56" data-name="&lt;Path&gt;" class="cls-14" points="109.43 59.44 103.02 54.36 103.29 54.04 109.66 59.12 109.43 59.44 109.43 59.44"/></g><polygon id="_Path_57" data-name="&lt;Path&gt;" class="cls-13" points="102.97 54.37 102.22 53.44 103.38 53.99 102.97 54.37"/><g id="_Group_45" data-name="&lt;Group&gt;"><polygon id="_Path_58" data-name="&lt;Path&gt;" class="cls-14" points="109.66 58.69 109.33 58.45 114.23 51.99 114.54 52.24 109.66 58.69 109.66 58.69"/></g><polygon id="_Path_59" data-name="&lt;Path&gt;" class="cls-13" points="114.59 52.24 115.11 51.13 114.12 51.96 114.59 52.24"/><path id="_Path_60" data-name="&lt;Path&gt;" class="cls-5" d="M111.85,56.92c0,.07.61,2.46.61,2.46a14.22,14.22,0,0,1-1.92.2c0-.12.29-1.66.37-1.77a6.66,6.66,0,0,0,.94-.89Z"/><path id="_Path_61" data-name="&lt;Path&gt;" class="cls-3" d="M113.46,55.27l.33,3.26s-2.24,1.93-2.19,1.68.2-3.29.2-3.29Z"/><path id="_Path_62" data-name="&lt;Path&gt;" class="cls-4" d="M115.28,53.31l.12,3.57a15.93,15.93,0,0,1-1.94,1.42c0-.12-.2-2.89-.2-2.89Z"/><g id="_Group_46" data-name="&lt;Group&gt;"><polygon id="_Path_63" data-name="&lt;Path&gt;" points="115.54 56.31 115.2 53.27 115.45 53.27 115.54 56.31 115.54 56.31"/></g><g id="_Group_47" data-name="&lt;Group&gt;"><polygon id="_Path_64" data-name="&lt;Path&gt;" class="cls-14" points="109.92 58.92 109.61 58.62 115.37 52.87 115.69 53.16 109.92 58.92 109.92 58.92"/></g><polygon id="_Path_65" data-name="&lt;Path&gt;" class="cls-13" points="115.7 53.18 116.39 52.16 115.28 52.83 115.7 53.18"/><path id="_Path_66" data-name="&lt;Path&gt;" class="cls-3" d="M116.33,54.4v9a3.17,3.17,0,0,1-3.09,3,19.75,19.75,0,0,1-3-.6V59.18Z"/><g id="_Group_48" data-name="&lt;Group&gt;"><path id="_Compound_Path_27" data-name="&lt;Compound Path&gt;" d="M113.38,66.48h-.14a21.58,21.58,0,0,1-3.1-.6l-.06-6.7,6.17-4.87.19,9.07a3.3,3.3,0,0,1-3.06,3.1Zm-3-.72c.21,0,1.82.42,2.93.5l.12.12v-.11a3.07,3.07,0,0,0,2.82-2.89v-9l-6,4.88.06,6.48Z"/></g><path id="_Path_67" data-name="&lt;Path&gt;" class="cls-5" d="M116.33,61.59v1.79a3.17,3.17,0,0,1-3.09,3,19.75,19.75,0,0,1-3-.6c1.22-.59,4.29,1.21,4.29-3.59a2.35,2.35,0,0,0,1.85-.59Z"/><path id="_Path_68" data-name="&lt;Path&gt;" class="cls-4" d="M114.43,55.8l0,5.18a6.67,6.67,0,0,0,1.85-.6v-6Z"/><path id="_Path_69" data-name="&lt;Path&gt;" class="cls-5" d="M112.73,57.28v4a2.58,2.58,0,0,0-1.18.23c-.72.28-1.41.57-1.41.57V59.18Z"/><path id="_Path_70" data-name="&lt;Path&gt;" class="cls-4" d="M110.33,63.39a13,13,0,0,1,1.68-.72,3.4,3.4,0,0,1,.78,0,6.8,6.8,0,0,1,0,1c0,.35-.58.54-.76.54s-1.73-.19-1.73-.19Z"/><g id="_Group_49" data-name="&lt;Group&gt;"><path id="_Compound_Path_28" data-name="&lt;Compound Path&gt;" d="M113.38,66.48h-.14a21.58,21.58,0,0,1-3.1-.6l-.06-6.7,6.17-4.87.19,9.07a3.3,3.3,0,0,1-3.06,3.1Zm-3-.72c.21,0,1.82.42,2.93.5l.12.12v-.11a3.07,3.07,0,0,0,2.82-2.89v-9l-6,4.88.06,6.48Z"/></g><g id="_Group_50" data-name="&lt;Group&gt;"><polygon id="_Path_71" data-name="&lt;Path&gt;" class="cls-14" points="110.22 59.34 110 59.01 116.37 53.93 116.61 54.26 110.22 59.34 110.22 59.34"/></g><polygon id="_Path_72" data-name="&lt;Path&gt;" class="cls-13" points="116.66 54.26 117.44 53.33 116.28 53.89 116.66 54.26"/><path id="_Path_73" data-name="&lt;Path&gt;" class="cls-5" d="M110.85,65.54c.14.16.66.84.8.67a8.76,8.76,0,0,0-.49-2,9,9,0,0,1-.58-2.35c0-1-.64.11-.64.11Z"/><g id="_Group_51" data-name="&lt;Group&gt;"><path id="_Compound_Path_29" data-name="&lt;Compound Path&gt;" d="M111.58,66.36c-.17,0-.42-.27-.75-.68l-1-3.71c.09-.24.34-.66.57-.66s.26.4.29.52a4.86,4.86,0,0,0,.36,1.73c.06.21.13.41.18.6a6,6,0,0,1,.21.7c.28.9.39,1.29.27,1.43l-.15.07Zm-1.16-4.84a1.24,1.24,0,0,0-.37.47l.92,3.53a3.63,3.63,0,0,0,.58.61,4.2,4.2,0,0,0-.3-1.2,7.11,7.11,0,0,0-.21-.71,3.27,3.27,0,0,0-.19-.58,6,6,0,0,1-.38-1.8c0-.27,0-.31,0-.32Z"/></g><path id="_Path_74" data-name="&lt;Path&gt;" class="cls-5" d="M110.33,67.49l1.18.06S111.13,66,111,65.1a33.64,33.64,0,0,0-1.1-3.64Z"/><g id="_Group_52" data-name="&lt;Group&gt;"><path id="_Compound_Path_30" data-name="&lt;Compound Path&gt;" d="M111.65,67.66l-1.32-.06-.53-6.13a11.06,11.06,0,0,1,1.33,3.61c.12.9.47,2.43.47,2.43l.05.15Zm-1.82-6.16.61,6,.93,0a20.82,20.82,0,0,1-.46-2.35,32.28,32.28,0,0,0-1.08-3.6Z"/></g><path id="_Path_75" data-name="&lt;Path&gt;" class="cls-3" d="M109.47,61.19c0,.06-1.66,2.62-1.66,4a4.34,4.34,0,0,0,1,2.58c.25.42.92,1.78.92,1.78a10.8,10.8,0,0,0,.88-2.08c.09-.59-.31-3.08-.19-4a25.25,25.25,0,0,1,.85-3.23Z"/><g id="_Group_53" data-name="&lt;Group&gt;"><path id="_Compound_Path_31" data-name="&lt;Compound Path&gt;" d="M109.78,69.74l-.09-.19s-.67-1.36-.92-1.79l-.18-.22a4,4,0,0,1-.89-2.4,9.82,9.82,0,0,1,1.66-3.93l1.89-1.15c.16.15-.57,2.41-.67,3.34a16.11,16.11,0,0,0,.1,2.37,8.41,8.41,0,0,1,.09,1.66,10.81,10.81,0,0,1-.89,2.12l-.1.19Zm1.42-9.62-1.68,1.17a10,10,0,0,0-1.59,3.85,3.84,3.84,0,0,0,.84,2.27l.18.24c.21.33.64,1.2.83,1.59a7,7,0,0,0,.76-1.84,9.17,9.17,0,0,0-.07-1.61,15.7,15.7,0,0,1-.12-2.42,29.37,29.37,0,0,1,.85-3.25Z"/></g><path id="_Path_76" data-name="&lt;Path&gt;" class="cls-4" d="M109.47,61.19c0,.06-1.66,2.62-1.66,4a4.34,4.34,0,0,0,1,2.58,23.06,23.06,0,0,1-.09-2.73,6.85,6.85,0,0,1,2-4.51Z"/><path id="_Path_77" data-name="&lt;Path&gt;" class="cls-5" d="M110.14,60.44a21.31,21.31,0,0,0-.67,3.27c0,.67.3,2.21.36,3.49a16.53,16.53,0,0,1,0,2.3,10.8,10.8,0,0,0,.88-2.08c.09-.59-.31-3.08-.19-4a25.25,25.25,0,0,1,.85-3.23Z"/><g id="_Group_54" data-name="&lt;Group&gt;"><path id="_Compound_Path_32" data-name="&lt;Compound Path&gt;" d="M109.78,69.74l-.09-.19s-.67-1.36-.92-1.79l-.18-.22a4,4,0,0,1-.89-2.4,9.82,9.82,0,0,1,1.66-3.93l1.89-1.15c.16.15-.57,2.41-.67,3.34a16.11,16.11,0,0,0,.1,2.37,8.41,8.41,0,0,1,.09,1.66,10.81,10.81,0,0,1-.89,2.12l-.1.19Zm1.42-9.62-1.68,1.17a10,10,0,0,0-1.59,3.85,3.84,3.84,0,0,0,.84,2.27l.18.24c.21.33.64,1.2.83,1.59a7,7,0,0,0,.76-1.84,9.17,9.17,0,0,0-.07-1.61,15.7,15.7,0,0,1-.12-2.42,29.37,29.37,0,0,1,.85-3.25Z"/></g><path id="_Path_78" data-name="&lt;Path&gt;" class="cls-5" d="M109.23,60.6c-.37.33-.12,1.08-.12,1.08a1.08,1.08,0,0,1,.81-.29c.52,0,.85.79.85.79a1,1,0,0,0,.39-.73c0-.52-1-1.08-1.93-.85Z"/><g id="_Group_55" data-name="&lt;Group&gt;"><path id="_Compound_Path_33" data-name="&lt;Compound Path&gt;" d="M110.74,62.35l-.08-.12s-.31-.71-.74-.73h0a.92.92,0,0,0-.7.25.86.86,0,0,1-.06-1.23,1.83,1.83,0,0,1,1.92.47.57.57,0,0,1,.17.47,1.2,1.2,0,0,1-.4.8l-.11.09Zm-.89-1.08a1.3,1.3,0,0,1,1,.73,1,1,0,0,0,.24-.58.29.29,0,0,0-.13-.28,1.86,1.86,0,0,0-1.66-.42c-.2.18-.11.6-.06.8a.83.83,0,0,1,.66-.25Z"/></g><path id="_Path_79" data-name="&lt;Path&gt;" d="M108.08,58.58l1.06,2.74a7.83,7.83,0,0,1,.78-.3,1.28,1.28,0,0,1,.66,0,6.89,6.89,0,0,1,.77-.36,2.63,2.63,0,0,1,.75-.1l.08-.1s-3.73-2.14-4.07-2Z"/><g id="_Group_56" data-name="&lt;Group&gt;"><path id="_Compound_Path_34" data-name="&lt;Compound Path&gt;" d="M109.08,61.47,108,58.61l.1-.33h0c.59,0,3.78,1.83,4.14,2l.1.06-.13.2c-.09.06-.59.06-.82.14a7.75,7.75,0,0,0-.71.35h-.33a1,1,0,0,0-.36,0c-.31.1-.78.3-.78.3l-.11,0Zm-.94-3,1,2.67c.17-.06.47-.18.7-.25a1.72,1.72,0,0,1,.72-.05,3.62,3.62,0,0,1,.69-.36,3.24,3.24,0,0,1,.8-.09,34.33,34.33,0,0,0-4-1.92Z"/></g><path id="_Path_80" data-name="&lt;Path&gt;" class="cls-3" d="M108.14,58.34l1.08,2.74.77-.32a1.47,1.47,0,0,1,.67,0,7.37,7.37,0,0,1,.75-.37,3.43,3.43,0,0,1,.77-.1l-1.07-3a3.64,3.64,0,0,0-.76.17,2.79,2.79,0,0,0-.64.43,3,3,0,0,0-.85.06,2,2,0,0,0-.72.42Z"/><g id="_Group_57" data-name="&lt;Group&gt;"><path id="_Compound_Path_35" data-name="&lt;Compound Path&gt;" d="M109.16,61.23l-1.11-2.86a1.59,1.59,0,0,1,.76-.54,2.07,2.07,0,0,1,.57-.08l.28,0a3.55,3.55,0,0,1,.64-.45,4.93,4.93,0,0,1,.78-.18l1.19,3.1c-.09.15-.59.16-.83.24a7.16,7.16,0,0,0-.7.35h-.34a.85.85,0,0,0-.35.06c-.31.1-.8.29-.8.29l-.09.06ZM111,57.34s-.36.09-.62.19a2.59,2.59,0,0,0-.62.42l-.4,0a1.61,1.61,0,0,0-.48.06,2,2,0,0,0-.67.38l1,2.53a6.25,6.25,0,0,1,.69-.27,1.5,1.5,0,0,1,.71,0,3.21,3.21,0,0,1,.69-.37,3.07,3.07,0,0,1,.81-.1L111,57.34Z"/></g><g id="_Group_58" data-name="&lt;Group&gt;"><polygon id="_Path_81" data-name="&lt;Path&gt;" class="cls-15" points="110.77 60.71 109.64 57.89 109.78 57.86 110.77 60.71 110.77 60.71"/></g><g id="_Group_59" data-name="&lt;Group&gt;"><path id="_Path_82" data-name="&lt;Path&gt;" class="cls-15" d="M108.36,58.58l-.1-.12A2.27,2.27,0,0,1,109.8,58a2.91,2.91,0,0,0-1.44.54Z"/></g><g id="_Group_60" data-name="&lt;Group&gt;"><path id="_Path_83" data-name="&lt;Path&gt;" class="cls-15" d="M108.48,58.92l-.09-.12a2.13,2.13,0,0,1,1.5-.42,2.86,2.86,0,0,0-1.41.54Z"/></g><g id="_Group_61" data-name="&lt;Group&gt;"><path id="_Path_84" data-name="&lt;Path&gt;" class="cls-15" d="M108.56,59.28l-.08-.12a2.14,2.14,0,0,1,1.54-.41,3.09,3.09,0,0,0-1.46.53Z"/></g><g id="_Group_62" data-name="&lt;Group&gt;"><path id="_Path_85" data-name="&lt;Path&gt;" class="cls-15" d="M108.69,59.65l-.1-.1a2.15,2.15,0,0,1,1.55-.43,2.93,2.93,0,0,0-1.45.53Z"/></g><g id="_Group_63" data-name="&lt;Group&gt;"><path id="_Path_86" data-name="&lt;Path&gt;" class="cls-15" d="M108.88,60l-.07-.11a2.15,2.15,0,0,1,1.52-.41,3.11,3.11,0,0,0-1.45.52Z"/></g><g id="_Group_64" data-name="&lt;Group&gt;"><path id="_Path_87" data-name="&lt;Path&gt;" class="cls-15" d="M109,60.42l-.1-.12a2.2,2.2,0,0,1,1.52-.41,2.83,2.83,0,0,0-1.42.53Z"/></g><g id="_Group_65" data-name="&lt;Group&gt;"><path id="_Path_88" data-name="&lt;Path&gt;" class="cls-15" d="M109.14,60.76l-.06-.1a2.06,2.06,0,0,1,1.5-.41,3.36,3.36,0,0,0-1.44.51Z"/></g><g id="_Group_66" data-name="&lt;Group&gt;"><path id="_Path_89" data-name="&lt;Path&gt;" class="cls-15" d="M109.88,58.16l-.1-.08a2,2,0,0,1,1.42-.6,2.91,2.91,0,0,0-1.32.68Z"/></g><g id="_Group_67" data-name="&lt;Group&gt;"><path id="_Path_90" data-name="&lt;Path&gt;" class="cls-15" d="M110,58.59l-.09-.09a2,2,0,0,1,1.42-.58,2.76,2.76,0,0,0-1.33.67Z"/></g><g id="_Group_68" data-name="&lt;Group&gt;"><path id="_Path_91" data-name="&lt;Path&gt;" class="cls-15" d="M110.07,58.89l-.1-.1a2,2,0,0,1,1.43-.59,2.69,2.69,0,0,0-1.33.69Z"/></g><g id="_Group_69" data-name="&lt;Group&gt;"><path id="_Path_92" data-name="&lt;Path&gt;" class="cls-15" d="M110.22,59.28l-.08-.1a2.06,2.06,0,0,1,1.41-.59,3,3,0,0,0-1.33.69Z"/></g><g id="_Group_70" data-name="&lt;Group&gt;"><path id="_Path_93" data-name="&lt;Path&gt;" class="cls-15" d="M110.33,59.65l-.11-.07a2,2,0,0,1,1.43-.6,3.11,3.11,0,0,0-1.32.67Z"/></g><g id="_Group_71" data-name="&lt;Group&gt;"><path id="_Path_94" data-name="&lt;Path&gt;" class="cls-15" d="M110.52,60l-.12-.09a2.1,2.1,0,0,1,1.42-.61,3,3,0,0,0-1.3.7Z"/></g><g id="_Group_72" data-name="&lt;Group&gt;"><path id="_Path_95" data-name="&lt;Path&gt;" class="cls-15" d="M110.66,60.35l-.12-.1a2.08,2.08,0,0,1,1.42-.58,2.78,2.78,0,0,0-1.3.68Z"/></g><g id="_Group_73" data-name="&lt;Group&gt;"><path id="_Compound_Path_36" data-name="&lt;Compound Path&gt;" d="M109.16,61.23l-1.11-2.86a1.59,1.59,0,0,1,.76-.54,2.07,2.07,0,0,1,.57-.08l.28,0a3.55,3.55,0,0,1,.64-.45,4.93,4.93,0,0,1,.78-.18l1.19,3.1c-.09.15-.59.16-.83.24a7.16,7.16,0,0,0-.7.35h-.34a.85.85,0,0,0-.35.06c-.31.1-.8.29-.8.29l-.09.06ZM111,57.34s-.36.09-.62.19a2.59,2.59,0,0,0-.62.42l-.4,0a1.61,1.61,0,0,0-.48.06,2,2,0,0,0-.67.38l1,2.53a6.25,6.25,0,0,1,.69-.27,1.5,1.5,0,0,1,.71,0,3.21,3.21,0,0,1,.69-.37,3.07,3.07,0,0,1,.81-.1L111,57.34Z"/></g><path id="_Path_96" data-name="&lt;Path&gt;" class="cls-16" d="M106.2,77.32a17.82,17.82,0,0,0,2.49-1.71c.81-.7,1.53-1.64,2.42-2.51s1.32-.64,1.77-1.64a4.6,4.6,0,0,0,.22-2.4c.3,0,.42.32.6.67.06.16.44-1.21.44-.8a13.74,13.74,0,0,0,0,1.44c.15-.23.76-1.62.76-1.62s-.28,1.94-.21,1.72a12.71,12.71,0,0,1,.8-1.23v1.23a6.28,6.28,0,0,0,.66-1.51c.16-.06.44.86.61.65s.28-1.5.52-1.36.36.79.36.79-.16-4.15.06-4.07l.73.21V63.6s.6,1.86.66,2.08a6.86,6.86,0,0,0-.23-1.93,12.47,12.47,0,0,1-.28-1.28s.75,1.07.87,1.28a8,8,0,0,0-.73-2.08c-.14,0-.8.8-.66.73s.52-1.65.73-1.65.66,1.13.6,1L119,59.31l.59,1.08a2.29,2.29,0,0,0,0-1,5,5,0,0,1-.22-.93s.43.58.36.44a7.88,7.88,0,0,1,0-1.29l.41.81c.06.14.33.55.33.55v-.51l.39.32S120,57,119.62,57s-.88.57-.88.57.67-1.14.88-1.14h.31l-.24-1.22s1.46,2,1.39,1.71-.65-1.64-.73-2.14a13.71,13.71,0,0,0-.28-1.35s.52.71.66.92.57,1.07.57.93,0-1.79,0-1.79L122,55l.66-1.85L123,55s.28-.87.35-1.23.31-.35.31-.35-.08,1.49-.08,1.63-.16.94-.16.94.66-1.36.82-1.65.72-.51.72-.51-.28.65-.35.87-.89,1.86-.73,1.86.73-.86,1.08-.86,1,.93.88,1-.71-.27-.94-.27-2,1.91-1.69,1.86a7.59,7.59,0,0,0,1.31-1.17s-.36.87-.22.8l1.26-.71s-1.62,1.43-1.4,1.43a5.68,5.68,0,0,0,1.11-.42l-1.11,1.36a4.25,4.25,0,0,1,1.2-.6,3.51,3.51,0,0,1,.93.24,12,12,0,0,0-1.26.13c-.13.07-1.25,1.66-1,1.51A4.64,4.64,0,0,0,125,60l-.35.95,1.54-.95L124,62.24s1.47-1.14,1.67-1.07A10.83,10.83,0,0,1,127,62.4a15.17,15.17,0,0,0-1.47-.65,11.21,11.21,0,0,0-1.83,2.36,7,7,0,0,1,1.61-.72c.29,0,.78,1.29.64,1.29s-.78-.37-1-.37-1.82,1-1.82,1l1.61-.29a7.63,7.63,0,0,0,1.4-.14,11.72,11.72,0,0,1,1.11-.43s-.85.55-1.3.9a3,3,0,0,1-1.21.46l1.4.13s-1.91.6-2.4.78-.73.37-1,.51c.23,0,1.3-.06,1.58-.06s1.68.22,1.68.22-1.82.27-2,.27a1.2,1.2,0,0,0-.52.21l2,.23-1.33.21s1,.34,1.19.41a8.16,8.16,0,0,1,.88.51s-1.71-.34-2.07-.34a7.45,7.45,0,0,0-.92.09,2.72,2.72,0,0,1,1,.21.51.51,0,0,1,.31.27l-1-.08a6.49,6.49,0,0,0,.9.58,1.25,1.25,0,0,1,.43.29l-1.47-.15,1.26.93s-1.33-.29-1.56-.29h-.22a7.84,7.84,0,0,1,.83.71c.12.23.28.51.28.51a6.21,6.21,0,0,1-.89-.28,3.4,3.4,0,0,0-.78-.23l.66.73L121.82,72l.59.85-1.11-.36s.52.3.52.5-.2,1.22-.36,1.08-.2-.71-.38-.94a1.16,1.16,0,0,0-.35-.34,2.62,2.62,0,0,0-.76-.22c.07.14.85.65,1,.8l-1.4-.15s1.32.64,1.11.64-7.28-.58-7.7-.58-2.58,2.43-3,2.64-1.46,1.43-1.91,1.51a4.42,4.42,0,0,0-1,.36Z"/><g id="_Group_74" data-name="&lt;Group&gt;"><path id="_Compound_Path_37" data-name="&lt;Compound Path&gt;" class="cls-17" d="M107,77.87l-.87-.44c.18-.28,1.72-1.21,2.48-1.89a17.1,17.1,0,0,0,1.32-1.36c.34-.37.72-.78,1.1-1.15a4.85,4.85,0,0,1,.87-.67,1.89,1.89,0,0,0,.88-.94,3,3,0,0,0,.22-1.64c0-.21,0-.44,0-.72.45-.1.59.18.73.5,0-.07.1-.24.14-.36.15-.37.18-.46.29-.46.09.76.09,1.5.12,1.58a7.75,7.75,0,0,1,.56-1.62v0a.17.17,0,0,1,0,.17,6.77,6.77,0,0,1,0,1.3,8.4,8.4,0,0,1,.6-1l.17,1.1c.07-.3.38-.88.47-1.34.27-.09.36.07.47.3a1.3,1.3,0,0,0,.19.3c0-.06.06-.32.09-.55.16-.54.25-.86.44-.86.33.19.47.77.5.88a11.93,11.93,0,0,1-.12-4.12l.84.18-.14-1.47c.11-.1.5.88.72,1.5-.09-.47-.19-1.09-.27-1.32-.13-.43-.31-1.3-.31-1.3.18-.08.69.63,1,1-.25-.49-.63-1.62-.72-1.73s-.25.24-.43.48a.58.58,0,0,1,0-.57c.25-.74.38-1,.54-1s.63,1,.66,1h0c-.33-.29-.58-.78-.68-.82a4.79,4.79,0,0,0-.34.9h0a.4.4,0,0,1,.27-.19c.33,0,.86,2.15.86,2.18a3.63,3.63,0,0,1-.86-.91c.09.27.17.64.26.87a7.39,7.39,0,0,1,.21,2.05,10.94,10.94,0,0,1-.88-2.12l.25,1.54-.91-.11c0,.16,0,2.17.08,4-.27-.23-.41-.62-.53-.69s-.11.46-.19.71a1.54,1.54,0,0,1-.19.61c-.26.08-.36-.06-.49-.32a1,1,0,0,0-.18-.28,4,4,0,0,1-.56,1.46l0-.08v-.09l-.19-1.12a6.14,6.14,0,0,1-.58,1.26c-.2,0-.25,0-.09-1.14a7.58,7.58,0,0,1-.47,1.06c-.19,0-.23,0-.23-1.07-.15.4-.22.5-.32.5-.33-.49-.42-.68-.61-.7a1.55,1.55,0,0,1,.14.6,3.33,3.33,0,0,1-.26,1.76,1.92,1.92,0,0,1-.94,1,4.68,4.68,0,0,0-.84.65c-.37.37-.76.77-1.09,1.14s-.89,1-1.34,1.37a19.58,19.58,0,0,1-2.52,1.73l.76.21a4.49,4.49,0,0,1,1-.35,3.79,3.79,0,0,0,1.08-.82,5,5,0,0,1,.81-.67,10.09,10.09,0,0,0,1.18-1.08c1-1,1.61-1.58,1.89-1.58s2.7.19,4.85.36c1.15.1,2.18.17,2.62.2a8,8,0,0,1-.94-.43l1.24,0L120.4,73a2.85,2.85,0,0,1-.52-.45,1.34,1.34,0,0,1,.89.06,1.73,1.73,0,0,1,.41.39,2,2,0,0,1,.19.51,1.44,1.44,0,0,0,.17.42,9.38,9.38,0,0,0,.16-1c0-.08-.21-.28-.44-.4h0a.44.44,0,0,1,.38.05l.75.11-.7-.7,1.23,0-.78-.54c.14-.17.64-.1.92,0s.48.15.63.21c0-.08-.11-.18-.15-.27a6.73,6.73,0,0,0-.79-.69l-.26-.19h.53c.23,0,1.44.25,1.56.28l-1.33-.73,1.24,0-.17-.08a4.09,4.09,0,0,1-.91-.59l.81-.09a.45.45,0,0,0-.17-.08,2.64,2.64,0,0,0-.94-.23c0-.2.58-.3.94-.3a16,16,0,0,1,1.6.26c-.19-.08-.36-.18-.45-.2l-1.17-.42h.05a.17.17,0,0,1,.14,0h0l1.13-.36h-2c0-.22.27-.43.52-.43s.88-.11,1.44-.2c-.39,0-.91-.09-1.08-.09l-.88,0h-.7l0-.1,0-.11h.11l0-.09a7.39,7.39,0,0,1,.84-.41c.49-.18,2.38-.77,2.38-.77l-.92,0,1,0c0,.21-1.88.79-2.35,1l-.61.26h.23c.33,0,.74,0,.88,0,.31,0,1.71.22,1.71.22,0,.21-1.83.51-2.07.51a.85.85,0,0,0-.45.19l1.92,0-1.11.36a6.36,6.36,0,0,1,1,.27,6,6,0,0,1,.9.52,12.53,12.53,0,0,1-2.12-.16H124l.24.09a1.19,1.19,0,0,1,.39.33l-1.08.08h0a2.5,2.5,0,0,1,.92.37,1.26,1.26,0,0,1,.49.3h-.08c0,.07-.14.06-.24,0l-1.23,0,1.31.72a7.13,7.13,0,0,1-1.52-.08,2.12,2.12,0,0,1,.58.54,3.83,3.83,0,0,1,.31.51c-.15.14-.73,0-1-.14a3.68,3.68,0,0,0-.78-.2l.76.53-1.22,0,.72.69-.81-.13c.14.09.25.22.25.32s-.16,1.2-.46,1.2a1,1,0,0,1-.34-.56,1.25,1.25,0,0,0-.16-.43,1.07,1.07,0,0,0-.33-.31h0a1.87,1.87,0,0,0-.33-.14l.21.14c.26.21.42.33.5.41l-1.49,0c1.27.37,1.25.46,1.25.54a17.23,17.23,0,0,1-3-.12c-2-.16-4.59-.36-4.82-.36a8,8,0,0,0-1.74,1.53A8.41,8.41,0,0,1,110,76a4.07,4.07,0,0,0-.77.64,3.4,3.4,0,0,1-1.17.87,3.86,3.86,0,0,0-1,.35Zm17.72-12c0-.21.77-.32,1.18-.65.12-.11.33-.24.48-.37l-.18.1a2.84,2.84,0,0,1-.88.1,3.9,3.9,0,0,0-.55,0l-1.61.29s0,0,0,0,0-.07.14-.12A5.92,5.92,0,0,1,125,64.21a2.14,2.14,0,0,1,.53.19c.16.06.38.16.42.16a4,4,0,0,0-.64-1.06,6.39,6.39,0,0,0-1.33.58l-.25.12c-.17-.27,1.52-2.57,1.8-2.57a10.72,10.72,0,0,1,1.52.66c-.63-.38-1.19-1-1.33-1a8.12,8.12,0,0,0-1.6,1.06v0a3.64,3.64,0,0,1,.41-.5L126.06,60l-1.39,1.11.14-.8a1.92,1.92,0,0,1-.67.66c-.25-.32.72-1.64.86-1.7a3.82,3.82,0,0,1,.75-.12,1.73,1.73,0,0,0-.38-.05,4.06,4.06,0,0,0-1.12.57v0a.43.43,0,0,1,.14-.25l.66-1.06a1.71,1.71,0,0,1-.89.43c-.13-.13-.17-.22.59-1-.18.11-.36.2-.39.23-.18-.06-.25-.14,0-.67a3.28,3.28,0,0,1-1.08,1c-.18-.39,1.39-2.07,1.66-2.07a1.78,1.78,0,0,1,.48.16,1.8,1.8,0,0,0,.44.14c0-.1-.59-.79-.86-.79s-.49.32-.69.53-.3.32-.39.32c-.17-.16-.13-.36.42-1.52l.19-.48a5.2,5.2,0,0,1,.31-.72c-.12.15-.39.3-.48.45L123.56,56c-.22-.06-.08-.83-.08-1s0-1,0-1.45a.31.31,0,0,0,0,.19c-.09.37-.38,1.24-.38,1.24l0-.07s0-.09,0-.17l-.5-1.58-.47,1.87-.78-1.34a8.42,8.42,0,0,1,.13,1.53c-.18.13-.23.1-.56-.49-.08-.15-.17-.31-.22-.38l-.37-.53a6.55,6.55,0,0,1,.21.88A10.11,10.11,0,0,0,121,56.2c.12.31.22.55.25.66-.2.15-.28.16-1.59-1.63l.4,1.14-.4.12a2.09,2.09,0,0,0-.38.45.64.64,0,0,1,.33-.1c.47.08,1.14,1.46,1.33,1.89l-.55-.18,0,0-.08-.13.57.23c-.54-.68-1.07-1.58-1.27-1.61h0c-.28,0-.64.37-.77.53v0c0-.08,0-.22.1-.36.18-.52.51-.95.69-.95h.31l-.33-1.09a15.32,15.32,0,0,1,1.25,1.33,2,2,0,0,0-.1-.22,10.91,10.91,0,0,1-.51-1.54c-.08-.49-.27-1.34-.27-1.34l0,0c.08,0,.12.07.17.18l.66.64c.05.08.13.23.22.4s.22.36.28.46a12,12,0,0,1-.19-1.65l0,0c.06,0,.08.06.11.15l.8,1.33.47-1.85.5,1.58a8.49,8.49,0,0,1,.23-1c.1-.45.39-.45.41-.45a11.32,11.32,0,0,1,0,1.75c0,.06,0,.19,0,.33.14-.41.4-.93.47-1.09.17-.32.74-.52.78-.56.14.16-.14.8-.22,1a2.09,2.09,0,0,1-.2.47c-.13.29-.36.78-.46,1.08l.08-.09c.28-.29.58-.62.85-.62s1,.74,1,1l-.14.23a1.75,1.75,0,0,1-.52-.16,1.6,1.6,0,0,0-.4-.14,9.06,9.06,0,0,0-1.62,1.76c.1-.16.75-.81,1.16-1.24a5.64,5.64,0,0,1,0,.85c0-.15,1.12-.78,1.12-.78l0,0c0,.07-.08.16-.22.29-.47.61-1,1.11-1,1.21a5,5,0,0,1,1-.52l0,.07s0,.05,0,.07l-.69,1.11a1.88,1.88,0,0,1,.92-.5,3.88,3.88,0,0,1,1,.24l-.07,0a.16.16,0,0,1-.14.07,6.63,6.63,0,0,1-1,.24,7.21,7.21,0,0,0-.94,1.41,5.92,5.92,0,0,1,.74-.86l0,0s0,.12,0,.22l-.16.78,1.38-1.06-1.55,1.86a2.89,2.89,0,0,1,1.16-.74A7.09,7.09,0,0,1,127,62.31a9.5,9.5,0,0,1-1.53-.45,18.37,18.37,0,0,0-1.61,2,4.85,4.85,0,0,1,1.39-.59c.36,0,.78,1.1.78,1.34-.21.16-.37.1-.67,0a2.13,2.13,0,0,0-.42-.17c-.09,0-.75.39-1.35.74a10.41,10.41,0,0,1,1.11-.24,3.37,3.37,0,0,1,.58,0,2.88,2.88,0,0,0,.77-.09c.31-.16,1.14-.45,1.14-.45.1.2-.75.74-1.19,1.09a2.83,2.83,0,0,1-1.25.48Zm-5.29-4.4-.58-2.18.69.86c-.06-.2,0-.55-.11-.78a7.21,7.21,0,0,1-.23-1c.14,0,.31.11.44.22a4,4,0,0,1-.08-1.09c.23,0,.54.63.59.78s.27.4.36.5l0,.09c-.21.07-.47-.36-.55-.5s-.39-.81-.39-.81a8.48,8.48,0,0,1,.2,1.19c-.11.12-.15.17-.33,0,.08.15.1.36.19.51a2.64,2.64,0,0,1,0,1.08l-.8-1.06.58,2.16Z"/></g><g id="_Group_75" data-name="&lt;Group&gt;"><path id="_Path_97" data-name="&lt;Path&gt;" class="cls-17" d="M113.1,72.08l-.14-.16a9.69,9.69,0,0,0,1-1.18,2.4,2.4,0,0,0,.17-.44c.22.06.17.26,0,.52a10.42,10.42,0,0,1-1.06,1.26Z"/></g><g id="_Group_76" data-name="&lt;Group&gt;"><path id="_Path_98" data-name="&lt;Path&gt;" class="cls-17" d="M113.54,72.23l-.11-.17a4.79,4.79,0,0,0,1.24-1.74c.15.13-.31,1.4-1.13,1.91Z"/></g><g id="_Group_77" data-name="&lt;Group&gt;"><path id="_Path_99" data-name="&lt;Path&gt;" class="cls-17" d="M114.9,71.73l-.12-.19a3.15,3.15,0,0,0,.67-1.16c.19.12-.17,1.08-.55,1.35Z"/></g><g id="_Group_78" data-name="&lt;Group&gt;"><path id="_Path_100" data-name="&lt;Path&gt;" class="cls-17" d="M115.12,72.29l-.12-.18a3.54,3.54,0,0,0,1.33-2.73c.23.07.25,1.9-1.21,2.91Z"/></g><g id="_Group_79" data-name="&lt;Group&gt;"><path id="_Path_101" data-name="&lt;Path&gt;" class="cls-17" d="M116,72.32l-.18-.15a5.92,5.92,0,0,0,1.36-3.63c.21.09.21,2.23-1.18,3.78Z"/></g><g id="_Group_80" data-name="&lt;Group&gt;"><path id="_Path_102" data-name="&lt;Path&gt;" class="cls-17" d="M116.44,72.55l-.09-.19c1.09-.58,1.13-3.29,1.13-3.6l.21-.2c0,.73-.06,3.36-1.25,4Z"/></g><g id="_Group_81" data-name="&lt;Group&gt;"><path id="_Path_103" data-name="&lt;Path&gt;" class="cls-17" d="M118.22,70.61a8.2,8.2,0,0,0-.53-2.88c.25,0,.75,1.21.76,2.87Z"/></g><g id="_Group_82" data-name="&lt;Group&gt;"><path id="_Path_104" data-name="&lt;Path&gt;" class="cls-17" d="M118.83,70h-.2a6.38,6.38,0,0,0-.67-3.06c.21-.1.92,1.15.87,3.07Z"/></g><g id="_Group_83" data-name="&lt;Group&gt;"><path id="_Path_105" data-name="&lt;Path&gt;" class="cls-17" d="M119,69.88h-.23c.42-4.1-.44-4.56-.44-4.56.17-.17,1.1.33.67,4.57Z"/></g><g id="_Group_84" data-name="&lt;Group&gt;"><path id="_Path_106" data-name="&lt;Path&gt;" class="cls-17" d="M119.62,68.06l-.21,0a3.77,3.77,0,0,0-.34-2.39c.17-.12.69.57.55,2.41Z"/></g><g id="_Group_85" data-name="&lt;Group&gt;"><path id="_Path_107" data-name="&lt;Path&gt;" class="cls-17" d="M120.21,66.85l-.22,0a6.4,6.4,0,0,0-.64-3h0a4.22,4.22,0,0,1,.83,3Z"/></g><g id="_Group_86" data-name="&lt;Group&gt;"><path id="_Path_108" data-name="&lt;Path&gt;" class="cls-17" d="M120.24,69.29l-.11-.2c1.61-1.07,2.74-1.54,3.18-1.37a11.34,11.34,0,0,0-3.07,1.57Z"/></g><g id="_Group_87" data-name="&lt;Group&gt;"><path id="_Path_109" data-name="&lt;Path&gt;" class="cls-17" d="M119.49,70.8l-.11-.18c3.29-2.27,4-1.78,4.05-1.71-.17.16-.81-.26-3.94,1.89Z"/></g><g id="_Group_88" data-name="&lt;Group&gt;"><path id="_Path_110" data-name="&lt;Path&gt;" class="cls-17" d="M123.39,70.07a10.81,10.81,0,0,0-2.18,0l0-.22c1.35-.08,2.13,0,2.32.23,0,0-.07,0-.11,0Z"/></g><g id="_Group_89" data-name="&lt;Group&gt;"><path id="_Path_111" data-name="&lt;Path&gt;" class="cls-17" d="M122.15,71.34a4.92,4.92,0,0,0-1.75-.15l0-.21a2.75,2.75,0,0,1,1.87.28c0,.06,0,.08-.1.08Z"/></g><g id="_Group_90" data-name="&lt;Group&gt;"><path id="_Path_112" data-name="&lt;Path&gt;" class="cls-17" d="M121.32,65.17l-.17-.14c2.24-2.56,2.74-2.78,2.78-2.8,0,.23-.43.45-2.61,2.94Z"/></g><g id="_Group_91" data-name="&lt;Group&gt;"><path id="_Path_113" data-name="&lt;Path&gt;" class="cls-17" d="M121.23,65.82l-.13-.18c2.26-1.49,2.57-1.71,2.57-1.71.12.17-.11.37-2.44,1.89Z"/></g><g id="_Group_92" data-name="&lt;Group&gt;"><path id="_Path_114" data-name="&lt;Path&gt;" class="cls-17" d="M121,67l-.14-.16c1.69-1.64,2.42-1.74,2.47-1.74,0,.22-.72.32-2.33,1.9Z"/></g><g id="_Group_93" data-name="&lt;Group&gt;"><path id="_Path_115" data-name="&lt;Path&gt;" class="cls-17" d="M121,67.75l-.12-.16c2.92-2.29,4.17-1.85,4.22-1.84a8.42,8.42,0,0,0-4.1,2Z"/></g><g id="_Group_94" data-name="&lt;Group&gt;"><path id="_Path_116" data-name="&lt;Path&gt;" class="cls-17" d="M120.59,68.45l-.15-.19a8.37,8.37,0,0,1,2.21-1.06l.31.14a6.72,6.72,0,0,0-2.37,1.11Z"/></g><g id="_Group_95" data-name="&lt;Group&gt;"><path id="_Path_117" data-name="&lt;Path&gt;" class="cls-17" d="M122.06,59.1a34.25,34.25,0,0,0-.91-3.8c.31,0,.58,1.09,1.1,3.76l-.19,0Z"/></g><g id="_Group_96" data-name="&lt;Group&gt;"><path id="_Path_118" data-name="&lt;Path&gt;" class="cls-17" d="M122.41,59.16c-.21-.06.1-1.23.12-1.48a5.72,5.72,0,0,0-.71-2.61L122,55a5.85,5.85,0,0,1,.75,2.74c0,.25-.35,1.46-.35,1.46Z"/></g><g id="_Group_97" data-name="&lt;Group&gt;"><path id="_Path_119" data-name="&lt;Path&gt;" class="cls-17" d="M123,56.2c-.22,0-.35-.42-.26-1.72h.22A4.42,4.42,0,0,0,123,56.2Z"/></g><g id="_Group_98" data-name="&lt;Group&gt;"><path id="_Path_120" data-name="&lt;Path&gt;" class="cls-17" d="M122.84,57.75l-.19-.11a12.88,12.88,0,0,0,.78-1.93c.19.12-.23,1.4-.59,2Z"/></g><g id="_Group_99" data-name="&lt;Group&gt;"><path id="_Path_121" data-name="&lt;Path&gt;" class="cls-17" d="M122,60.75a10.61,10.61,0,0,1,.58-1.45c.37-.87.84-2,1.17-2.85l.19.06c-.3.84-.8,2-1.16,2.87-.31.67-.51,1.18-.54,1.27l-.24.1Z"/></g><g id="_Group_100" data-name="&lt;Group&gt;"><path id="_Path_122" data-name="&lt;Path&gt;" class="cls-17" d="M122.06,62.31l-.19-.1c1.69-3.31,2.22-3.77,2.27-3.78.12.17-.44.65-2.08,3.88Z"/></g><g id="_Group_101" data-name="&lt;Group&gt;"><path id="_Path_123" data-name="&lt;Path&gt;" class="cls-17" d="M122.15,62.83l-.19-.11a23.87,23.87,0,0,0,2.18-3.33c.22.12-.07.77-2,3.44Z"/></g><g id="_Group_102" data-name="&lt;Group&gt;"><path id="_Path_124" data-name="&lt;Path&gt;" class="cls-17" d="M121.79,64.05l-.16-.13c2.18-2.81,3-3.11,3.07-3.12.08.21-.77.53-2.91,3.25Z"/></g><g id="_Group_103" data-name="&lt;Group&gt;"><path id="_Path_125" data-name="&lt;Path&gt;" class="cls-17" d="M120.49,65.51a8.2,8.2,0,0,0-1.22-3.76c.22-.09,1.17,1.26,1.44,3.74l-.22,0Z"/></g><g id="_Group_104" data-name="&lt;Group&gt;"><path id="_Path_126" data-name="&lt;Path&gt;" class="cls-17" d="M120.9,64.2c-.24,0-.38-2.07-1.46-3.74l.18-.12a10.31,10.31,0,0,1,1.28,3.86Z"/></g><g id="_Group_105" data-name="&lt;Group&gt;"><path id="_Path_127" data-name="&lt;Path&gt;" class="cls-17" d="M121.1,63.25a11,11,0,0,0-1.5-4.33l.18-.12c1.71,2.77,1.35,4.38,1.32,4.45Z"/></g><g id="_Group_106" data-name="&lt;Group&gt;"><path id="_Path_128" data-name="&lt;Path&gt;" class="cls-17" d="M121.41,64.06c-.2-.08.38-2.23-1.11-5.05l.22-.09a7.36,7.36,0,0,1,.89,5.14Z"/></g><g id="_Group_107" data-name="&lt;Group&gt;"><path id="_Path_129" data-name="&lt;Path&gt;" class="cls-17" d="M121.79,62c-.2,0-.17-1-1-3.15l.19-.08a8.58,8.58,0,0,1,.83,3.23Z"/></g><g id="_Group_108" data-name="&lt;Group&gt;"><path id="_Path_130" data-name="&lt;Path&gt;" class="cls-17" d="M122,60.06c-.19-.1.29-1.35-2.16-3.63l.16-.16c2.55,2.4,2,3.73,2,3.79Z"/></g><g id="_Group_109" data-name="&lt;Group&gt;"><path id="_Path_131" data-name="&lt;Path&gt;" class="cls-17" d="M119.74,70.14c-.19-.09.14-1,.14-1.31,0-.12.05-.33.09-.56-.14.36-.35.82-.62,1.47l-.21-.08c.88-2,1-2.37,1-2.38s0,0,0,0,0,.07,0,.16a8,8,0,0,1-.1,1.35,5.76,5.76,0,0,1-.37,1.3Z"/></g><g id="_Group_110" data-name="&lt;Group&gt;"><path id="_Path_132" data-name="&lt;Path&gt;" class="cls-17" d="M121.08,72.3c-.35,0-2-.93-3.6-.63l0-.21a5.81,5.81,0,0,1,3.69.82l0,0Z"/></g><g id="_Group_111" data-name="&lt;Group&gt;"><path id="_Path_133" data-name="&lt;Path&gt;" class="cls-17" d="M119.85,72.52c-.42,0-1.33-.16-2.63-.27l0-.21a20,20,0,0,1,2.86.41s-.12.07-.26.07Z"/></g><g id="_Group_112" data-name="&lt;Group&gt;"><path id="_Path_134" data-name="&lt;Path&gt;" class="cls-17" d="M121.73,71.86c-.47,0-2.9-.89-3.74-.94V70.7a20.63,20.63,0,0,1,3.8,1.15Z"/></g><g id="_Group_113" data-name="&lt;Group&gt;"><path id="_Path_135" data-name="&lt;Path&gt;" class="cls-18" d="M113.54,71.14c-.16-.14-.08-.25.06-.57a3.79,3.79,0,0,0,.1-1h.2a2.8,2.8,0,0,1-.11,1,1.39,1.39,0,0,1-.25.49Z"/></g><path id="_Path_136" data-name="&lt;Path&gt;" class="cls-16" d="M112.48,77.86c-2.4-1.21-5-4.52-5.52-4.65s-6.4.86-6.35.7a6.93,6.93,0,0,1,.42-1.45c.28-.42,1-.85.91-.85l-1.61,0a4.72,4.72,0,0,1-.93.91c-.26.11-1.47.22-1.75.37a4.37,4.37,0,0,0-.76.64,7,7,0,0,1-.12-.75,1.33,1.33,0,0,1,.24-.47,9.66,9.66,0,0,1-1.21,0c.16-.06.21-.43.43-.7A1.87,1.87,0,0,1,97.1,71l.76-.22-.63-.31a4,4,0,0,1,.79-.32,7.07,7.07,0,0,0,.84-.16s-.51-.55-.51-.76-.49.81-.87.92a7.2,7.2,0,0,1-1.52.2c-.37,0-.94.59-.94.59a2,2,0,0,1-.09-.79.48.48,0,0,1,.25-.32l-.59,0s.16-.8.21-.9.33-.59.33-.59a3.1,3.1,0,0,1-.54-.53,6.21,6.21,0,0,1-.29-.76h1.16a4.32,4.32,0,0,1,1,.34,2.11,2.11,0,0,1-.28-.6c0-.16-.22-.53-.13-.53a5.35,5.35,0,0,1,.88.48s-.22-1-.55-1.23-1.79-.47-2.08-.85a14.13,14.13,0,0,1-.75-2,1,1,0,0,0-.46-.49H94s-.11-.53-.19-.85a2,2,0,0,1,.13-.8s.37.64.59.64.56.38.56.38l0-.38.67.85A2,2,0,0,1,96,61.3a1.14,1.14,0,0,1,.38-.21,1.55,1.55,0,0,0,.12.48,6.72,6.72,0,0,1,.36,1.07c0,.17-.11,1.92-.11,2.08a10.74,10.74,0,0,0,.64,1.38V64.82c0-.32-.34-1-.3-1.27s.12-.69.12-.69a3,3,0,0,0,.43.64,3,3,0,0,1,.42.63l.41-.69a5.45,5.45,0,0,1-1.08-1.06c-.09-.33-.18-1-.18-1a4.68,4.68,0,0,1-.88-.54,16.82,16.82,0,0,1-1.11-1.7h.33a3.61,3.61,0,0,1-.33-1c0-.32,0-1,0-1a2.11,2.11,0,0,1,.4.37c.05.11.47.17.47.17a8.52,8.52,0,0,1-.64-2,4.41,4.41,0,0,1,.88-1.72l.43.7.88-1.29a3.16,3.16,0,0,1,.37.76v.69l.66.05c.13,0,.38.21.38.21a2.34,2.34,0,0,0-.58.33c-.17.16-.34.84-.5.91a5.26,5.26,0,0,0-1,.69,4.15,4.15,0,0,0-.33,1.12,5.15,5.15,0,0,1,.63,1c0,.26.09,1,.09,1s.28.33.49.27a.59.59,0,0,0,.39-.59c-.06-.21-.64-.74-.72-1s.08-2,.08-2l.87.48a3.82,3.82,0,0,0,.58-.74,7.44,7.44,0,0,0,.3-1l.37,1.12s.29-.49.55-.59.8-.42.8-.42a7,7,0,0,0-.2.75c0,.1,0,2,0,2.17S99.26,60,99.14,60.12,99,61,99,61l1-.92s.13.48.17.76a3.22,3.22,0,0,1,0,.53,3.74,3.74,0,0,0,.7-.27c.18-.1.54.11.54.11a4.9,4.9,0,0,1-.3.54c-.11.1-.5,1.11-.66,1.28s-1.16.53-1.25.69-1,1.06-1.17,1.38a2.21,2.21,0,0,0-.21,1,3.76,3.76,0,0,1,.6-1.16,11.07,11.07,0,0,0,.92-1l.16.81a4.75,4.75,0,0,1,.83-.49l1.38-.32s-.79.65-.79.81-.09,1-.38,1.22-1.59,1-1.7,1.06a1.39,1.39,0,0,0-.22.66.73.73,0,0,0,.17.36,2.06,2.06,0,0,1,.41-.59c.21-.21.14-.69.14-.69s.52.48.56.69a8.48,8.48,0,0,1,0,1.6,2.73,2.73,0,0,0,0,1.07c.13.16.59.7.74.7s-.69-1.39-.57-2,.57-1.07.63-1.38a3.68,3.68,0,0,0,.17-.65,4.42,4.42,0,0,1,.58.81,1.58,1.58,0,0,1,.52-.51,11.5,11.5,0,0,1,.56,1.41,4.76,4.76,0,0,1,.61-.81,2.49,2.49,0,0,1,.44,1.47,2.06,2.06,0,0,1-.72,1.11,4.46,4.46,0,0,1-.61.31,5.33,5.33,0,0,0,1,.27A1.75,1.75,0,0,1,104,71l-1.22.38a6.85,6.85,0,0,0,1.5,0,2.54,2.54,0,0,0-.17-1,2.79,2.79,0,0,1-.24-.7,4.08,4.08,0,0,0,.71.16c.24,0,.62.06.62-.06s-.45-1-.34-1,1.55,1.28,1.55,1.08A8.16,8.16,0,0,1,107,68.6l.58,1.15a6.7,6.7,0,0,1,.06,1,2.18,2.18,0,0,1-.37.91,9.61,9.61,0,0,0,1.25,1.6,20.44,20.44,0,0,0,3.23,3.09,13.22,13.22,0,0,0,1.37.75Z"/><g id="_Group_114" data-name="&lt;Group&gt;"><path id="_Compound_Path_38" data-name="&lt;Compound Path&gt;" class="cls-17" d="M112.51,77.93h-.05a18.53,18.53,0,0,1-4.23-3.49,6,6,0,0,0-1.3-1.16c-.7,0-2.36.22-3.78.42-1.15.16-2.17.3-2.45.3l-.09-.08,0-.25a5.51,5.51,0,0,1,.4-1.23,4.75,4.75,0,0,1,.71-.71,12.58,12.58,0,0,0-1.35,0,3.55,3.55,0,0,1-.92.88,2.9,2.9,0,0,1-.71.16,4.31,4.31,0,0,0-1,.22,5.08,5.08,0,0,0-.76.62c-.11,0-.23-.62-.23-.79a1.24,1.24,0,0,1,.21-.47,3,3,0,0,1-.87.09l-.19,0A7.6,7.6,0,0,1,97,72.29c0,.23-.14.44-.14.54a5.94,5.94,0,0,0,.09.69,1.61,1.61,0,0,1,.66-.63,4.11,4.11,0,0,1,1.06-.25,4.34,4.34,0,0,0,.69-.14,4,4,0,0,0,.91-.88s1.54-.08,1.66-.08v0l-.14.24a3.1,3.1,0,0,0-.69.67,4.88,4.88,0,0,0-.39,1.19,6.48,6.48,0,0,0,2.38-.13c1.44-.22,3.08-.44,3.68-.44.44.07.89.54,1.58,1.22a18.53,18.53,0,0,0,4.12,3.43l.58-.77-.43-.12c-.26-.12-.44-.23-.95-.51a13.85,13.85,0,0,1-2.6-2.44,8.2,8.2,0,0,0-.63-.68,11.75,11.75,0,0,1-1.28-1.6,2.73,2.73,0,0,0,.39-1,3.59,3.59,0,0,0-.08-.93c0-.16-.56-1.13-.56-1.13-.13.44-.48,1.16-.48,1.32-.21.09-.51-.12-1.07-.6a3.09,3.09,0,0,0-.56-.4,2.58,2.58,0,0,1,.28.49,3.46,3.46,0,0,1,.14.39v.08l-.3.06h-.39a2.88,2.88,0,0,1-.66-.15c.08.09.11.35.24.58a2.85,2.85,0,0,1,.18,1v.08l-.31,0c-.42,0-1.25-.09-1.25-.09h0s.07,0,.14-.06l.9-.4c-.12,0-.29-.07-.4-.07a5.23,5.23,0,0,1-1-.27c0-.13.26-.24.56-.43a2,2,0,0,0,.72-1.09,2.87,2.87,0,0,0-.42-1.4l-.53.81c-.23-.37-.55-1.27-.66-1.39l-.44.49a6,6,0,0,0-.61-.71,1.55,1.55,0,0,1-.31.94,3.17,3.17,0,0,0-.44,1,4.28,4.28,0,0,0,.42,1.58c.15.35.16.42.15.47-.27.09-.79-.6-.84-.69a2.23,2.23,0,0,1,0-1.12,7.41,7.41,0,0,0,0-1.57,2.92,2.92,0,0,0-.45-.57.68.68,0,0,1-.15.61,1.94,1.94,0,0,0-.37.57.47.47,0,0,1-.31-.4c0-.16.09-.64.25-.71s1.42-.85,1.69-1.07.37-1,.37-1.16.55-.66.79-.86l-1.3.44a3.09,3.09,0,0,0-.81.48L99.4,64a3.87,3.87,0,0,1-.83,1A2.92,2.92,0,0,0,98,66.13c-.14,0-.14-.69.09-1,.13-.17.48-.57.74-.9a4.16,4.16,0,0,1,.43-.48c0-.1.29-.21.69-.4.21-.11.49-.24.57-.3a5.08,5.08,0,0,0,.34-.72,2.26,2.26,0,0,1,.32-.57,2.93,2.93,0,0,0,.26-.5s-.22,0-.33,0a5.23,5.23,0,0,1-.81.29c-.1-.06-.1-.32-.14-.58s-.16-.75-.16-.75l-.94,1a1.39,1.39,0,0,1,0-1,22.7,22.7,0,0,0,1.63-1.63,9.61,9.61,0,0,0,.06-2,1.68,1.68,0,0,1,.19-.8,3.52,3.52,0,0,1-.72.43c-.19.06-.42.42-.5.55l-.47-1a3.51,3.51,0,0,1-.19.91,3.42,3.42,0,0,1-.61.77l-1-.46c.06.42,0,1.74,0,1.95a1.73,1.73,0,0,0,.37.55,1.48,1.48,0,0,1,.33.46.46.46,0,0,1-.06.37.91.91,0,0,1-.36.31.84.84,0,0,1-.58-.3s-.06-.73-.11-1a5.67,5.67,0,0,0-.59-1,3.14,3.14,0,0,1,.33-1.21A7.26,7.26,0,0,1,98,56.22a1.91,1.91,0,0,0,.25-.44,1.11,1.11,0,0,1,.23-.45A2.53,2.53,0,0,1,99,55a1.7,1.7,0,0,1-.36-.09l-.66,0L98,54.1a2.82,2.82,0,0,0-.35-.71l-.76,1.28L96.29,54c0,.11-.75,1.13-.75,1.66a8.71,8.71,0,0,0,.64,2c-.22.09-.55,0-.61-.09a1.81,1.81,0,0,0-.34-.32,3.39,3.39,0,0,1,0,.87,3.69,3.69,0,0,0,.33,1l-.41.09c.39.42,1,1.42,1.16,1.6a5.48,5.48,0,0,0,.86.52c0,.06.12.73.23,1.05a5.87,5.87,0,0,0,1,1l-.36.78c-.28-.27-.47-.59-.52-.61a2.5,2.5,0,0,1-.4-.54,1.29,1.29,0,0,1,0,.54,2.52,2.52,0,0,0,.14.63,2.3,2.3,0,0,1,.17.63V66.1a4.59,4.59,0,0,1-.78-1.38c0-.09,0-.56,0-1s.07-1,.07-1a5.26,5.26,0,0,0-.39-1,2.68,2.68,0,0,1-.11-.5c0,.08-.19.17-.28.26a1.78,1.78,0,0,0-.14.64l-.77-.82,0,.34c-.23-.1-.47-.31-.61-.31s-.47-.4-.59-.61a4.54,4.54,0,0,0-.05.69l.17.85-.78.07a.69.69,0,0,1,.34.41l.1.32a8.75,8.75,0,0,0,.67,1.68,3.18,3.18,0,0,0,1.3.57,5.34,5.34,0,0,1,.75.27c.34.23.58,1.22.58,1.27-.45-.15-.88-.39-1-.39a1.31,1.31,0,0,1,.21.46,2.11,2.11,0,0,0,.25.56c-.31,0-.83-.21-1.05-.21H94.35a4.22,4.22,0,0,1,.28.64,2.65,2.65,0,0,0,.55.51,4.7,4.7,0,0,1-.3.66,7.13,7.13,0,0,0-.25.9l.55-.14c0,.13-.14.24-.21.4a2.71,2.71,0,0,0,.11.74,1.29,1.29,0,0,1,.88-.6A7.24,7.24,0,0,0,97.48,70c.19,0,.47-.43.61-.66s.2-.27.26-.27a2.75,2.75,0,0,0,.55.79,1.83,1.83,0,0,1-.88.28,7.84,7.84,0,0,0-.78.3l.66.21-.78.35a1.65,1.65,0,0,0-.83.67.91.91,0,0,0-.21.37c-.09.15-.14.28-.23.33l-.13,0a1.59,1.59,0,0,0,.22-.35,1.52,1.52,0,0,1,.24-.4,2,2,0,0,1,.89-.72l.79-.21-.66-.21A1.69,1.69,0,0,1,98,70a4.83,4.83,0,0,0,.81-.16c-.12,0-.46-.34-.52-.59,0,0,0,.1-.09.16-.2.28-.48.66-.71.72A7,7,0,0,1,96,70.4c-.28,0-.73.4-.91.57a1.29,1.29,0,0,1-.2-.87.59.59,0,0,1,.31-.37l-.57.19a3.3,3.3,0,0,1,.13-1,3.22,3.22,0,0,0,.33-.58,1.68,1.68,0,0,1-.53-.48,3.92,3.92,0,0,1-.26-.75l1.2-.09a3.34,3.34,0,0,1,.91.27.82.82,0,0,1-.27-.48L96,66.24c.21,0,.75.3,1,.44-.16-.19-.38-.94-.61-1.1a3.5,3.5,0,0,0-.74-.26c-.58-.18-1.21-.36-1.37-.62A7.64,7.64,0,0,1,93.6,63l-.13-.32a1,1,0,0,0-.39-.45h0s.1,0,.13,0l.77-.11-.25-.78a2.42,2.42,0,0,1,.11-.83c.29.24.54.6.67.6s.56.34.61.39l-.08-.34.75.8a1,1,0,0,1,.1-.68,1.51,1.51,0,0,1,.42-.23,2.91,2.91,0,0,1,.19.52,5.43,5.43,0,0,1,.38,1.1c0,.08,0,.57,0,1s0,.95,0,1a10.33,10.33,0,0,0,.64,1.35l-.14-1.25a2,2,0,0,0-.14-.57,2.07,2.07,0,0,1-.17-.71c0-.27.12-.7.12-.7.25.25.47.56.52.59a3.46,3.46,0,0,1,.47.67l.26-.7a4.81,4.81,0,0,1-1.06-1,9.72,9.72,0,0,1-.19-1,3,3,0,0,1-.87-.49,16.38,16.38,0,0,1-1.1-1.74l.36-.09a1.73,1.73,0,0,1-.38-.95c0-.32.07-1,.07-1h0a.81.81,0,0,1,.5.35,1.27,1.27,0,0,0,.42.12,5.23,5.23,0,0,1-.71-2,4.33,4.33,0,0,1,.9-1.74l.55.69.76-1.29a1.53,1.53,0,0,1,.49.79v.68a1.94,1.94,0,0,1,.59,0c.13,0,.36.18.44.22s-.45.27-.59.43a1.05,1.05,0,0,0-.22.4c-.11.31-.19.48-.31.53A5.92,5.92,0,0,0,97,57a4.16,4.16,0,0,0-.3,1.08h0a4.1,4.1,0,0,1,.61,1c0,.27.11,1,.11,1s.22.21.36.21a.47.47,0,0,0,.31-.24.6.6,0,0,0,.07-.27c0-.08-.19-.25-.3-.41a2.63,2.63,0,0,1-.44-.6,18.25,18.25,0,0,1,.08-2.06l1,.43s.41-.48.5-.71a9.63,9.63,0,0,0,.28-1l0,.05s0,0,0,.06l.42.95a1.15,1.15,0,0,1,.5-.57c.27-.11.81-.42.81-.42,0,.4-.12.74-.12.81a11.14,11.14,0,0,1,0,2.23c-.1.16-.88.92-1.54,1.55a1.59,1.59,0,0,0-.22,1l.92-1c.13,0,.22.51.27.8a2.7,2.7,0,0,1,.06.54c.08-.11.49-.24.63-.32a.89.89,0,0,1,.56.09,1.32,1.32,0,0,1-.26.65s-.16.31-.29.53a2.57,2.57,0,0,1-.37.76,3.45,3.45,0,0,1-.61.32,2.87,2.87,0,0,0-.65.36,4.41,4.41,0,0,1-.43.49l-.72.9a1.2,1.2,0,0,0-.18.56,2.06,2.06,0,0,1,.48-.87,10.78,10.78,0,0,0,.9-.95l.28.81a1.75,1.75,0,0,1,.74-.51l1.4-.33c-.3.41-.69.8-.69.88a2.56,2.56,0,0,1-.43,1.28c-.17.13-.75.51-1.2.78a1.61,1.61,0,0,1,.59.65,13.36,13.36,0,0,1,0,1.41.13.13,0,0,0,0-.08,2.74,2.74,0,0,1,.45-1,1.53,1.53,0,0,0,.22-.38c.09-.32.14-.62.14-.62s.58.53.67.79a.76.76,0,0,1,.46-.53,5.7,5.7,0,0,1,.64,1.43,1.89,1.89,0,0,1,.53-.84,2.23,2.23,0,0,1,.54,1.53,1.9,1.9,0,0,1-.76,1.14,4.21,4.21,0,0,1-.61.34c.23-.07.8.13,1,.13A1.75,1.75,0,0,1,104,71l0,0-.08,0-.92.4c.23,0,.76,0,1.06,0a1.1,1.1,0,0,0,0-1,2.91,2.91,0,0,1-.23-.72c.09-.08.59.08.78.08h.39c.16,0,.08-.2,0-.34-.18-.44-.23-.58-.18-.65s.2,0,.69.41a6.57,6.57,0,0,0,.89.64,5.38,5.38,0,0,1,.58-1.32,4.8,4.8,0,0,1,.7,1.15,4.22,4.22,0,0,1,.08,1,2.31,2.31,0,0,1-.41,1h0a18.55,18.55,0,0,0,1.26,1.51l.64.68a12.51,12.51,0,0,0,2.55,2.4c.53.3.69.4,1,.52l.42.23-.61.94Zm-12.37-9v.17a2.19,2.19,0,0,0,0,1,3.72,3.72,0,0,0,.61.64,2,2,0,0,1-.14-.29,4.66,4.66,0,0,1-.44-1.53Zm-.74-2-.4.24c-.08,0-.19.41-.19.59a1,1,0,0,0,.11.27,1,1,0,0,1,.34-.54,1,1,0,0,0,.14-.56Z"/></g><g id="_Group_115" data-name="&lt;Group&gt;"><path id="_Path_137" data-name="&lt;Path&gt;" class="cls-17" d="M95.08,69.46,95,69.38a1.14,1.14,0,0,1,.8-.37,1.07,1.07,0,0,0,.38-.08c.33-.16.92-.48.92-.48s-.53.45-.87.61a1.06,1.06,0,0,1-.4.08,1.14,1.14,0,0,0-.72.32Z"/></g><g id="_Group_116" data-name="&lt;Group&gt;"><path id="_Path_138" data-name="&lt;Path&gt;" class="cls-17" d="M95.59,69.8c0-.13.68-.3.92-.44s.26-.27.45-.5a4.72,4.72,0,0,1,1-1.1l.07.12a4.14,4.14,0,0,0-1,1.08,2.51,2.51,0,0,1-.5.52,4.39,4.39,0,0,1-1,.32Z"/></g><g id="_Group_117" data-name="&lt;Group&gt;"><path id="_Path_139" data-name="&lt;Path&gt;" class="cls-17" d="M95.74,70.07l0-.13a2.93,2.93,0,0,0,1.12-.24,6.72,6.72,0,0,1,.59-.5c.1.12-.28.37-.5.58s-1.11.28-1.19.29Z"/></g><g id="_Group_118" data-name="&lt;Group&gt;"><path id="_Path_140" data-name="&lt;Path&gt;" class="cls-17" d="M96.71,72v-.13a14.52,14.52,0,0,0,2.13-.42c.09.22-1.8.52-2.12.55Z"/></g><g id="_Group_119" data-name="&lt;Group&gt;"><path id="_Path_141" data-name="&lt;Path&gt;" class="cls-17" d="M97.67,72.59H97.6v-.14a3.25,3.25,0,0,0,2.08-1,2.51,2.51,0,0,1-2,1.18Z"/></g><g id="_Group_120" data-name="&lt;Group&gt;"><path id="_Path_142" data-name="&lt;Path&gt;" class="cls-17" d="M100.16,71.4A4.69,4.69,0,0,1,98,71l0-.11c1.31.73,4.31.26,4.36.25a6.48,6.48,0,0,1-2.2.29Z"/></g><g id="_Group_121" data-name="&lt;Group&gt;"><path id="_Path_143" data-name="&lt;Path&gt;" class="cls-17" d="M101.31,70.61c0-.14.08-.35.18-2.15h.12c-.09,2.15-.22,2.15-.3,2.15Z"/></g><g id="_Group_122" data-name="&lt;Group&gt;"><path id="_Path_144" data-name="&lt;Path&gt;" class="cls-1" d="M100.86,69.57c.08-.58.12-.79.12-.79Z"/></g><g id="_Group_123" data-name="&lt;Group&gt;"><path id="_Path_145" data-name="&lt;Path&gt;" class="cls-1" d="M101.16,67.72c0,.1,0,.74,0,.74Z"/></g><g id="_Group_124" data-name="&lt;Group&gt;"><path id="_Path_146" data-name="&lt;Path&gt;" class="cls-17" d="M102.15,70.2l-.12-.08a2.3,2.3,0,0,0,.26-1c.15,0,.15.51-.14,1Z"/></g><g id="_Group_125" data-name="&lt;Group&gt;"><path id="_Path_147" data-name="&lt;Path&gt;" class="cls-1" d="M102,68.88l0,.38Z"/></g><g id="_Group_126" data-name="&lt;Group&gt;"><path id="_Path_148" data-name="&lt;Path&gt;" class="cls-1" d="M103,69.26c-.22.54-.33.54-.33.54Z"/></g><g id="_Group_127" data-name="&lt;Group&gt;"><path id="_Path_149" data-name="&lt;Path&gt;" class="cls-17" d="M105.73,71.23c-.17,0-1.14-.92-1.76-1.22l.07-.12a12.61,12.61,0,0,1,1.72,1.34Z"/></g><g id="_Group_128" data-name="&lt;Group&gt;"><path id="_Path_150" data-name="&lt;Path&gt;" class="cls-17" d="M106.34,70.88c-.14,0-.58-.62-1.11-.92l.07-.12a4.69,4.69,0,0,1,1.07,1Z"/></g><g id="_Group_129" data-name="&lt;Group&gt;"><path id="_Path_151" data-name="&lt;Path&gt;" class="cls-17" d="M106.59,71.8c-.11-.09.39-.94-.27-1.64l.1-.1a1.51,1.51,0,0,1,.17,1.74Z"/></g><g id="_Group_130" data-name="&lt;Group&gt;"><path id="_Path_152" data-name="&lt;Path&gt;" class="cls-1" d="M107.12,69.47,107,70.75Z"/></g><g id="_Group_131" data-name="&lt;Group&gt;"><path id="_Path_153" data-name="&lt;Path&gt;" class="cls-17" d="M95.3,64.63c-.14,0-.48-.28-.67-.5a1.37,1.37,0,0,1-.19-.49.73.73,0,0,0-.06-.32,1.71,1.71,0,0,0-1.07-.88l0-.14a1.73,1.73,0,0,1,1.06.81,1,1,0,0,1,.2.49.65.65,0,0,0,.16.43,6.87,6.87,0,0,0,.57.59Z"/></g><g id="_Group_132" data-name="&lt;Group&gt;"><path id="_Path_154" data-name="&lt;Path&gt;" class="cls-17" d="M96.48,65.49c-.11,0-.33-.43-.47-.63h0l-.39-.18a1.49,1.49,0,0,1-.44-.71,2.34,2.34,0,0,1-.14-.28l0-.27c0-.37.05-1-1-1.09l0-.14c1.17.1,1.14.87,1.14,1.24a2.49,2.49,0,0,0,.14.49,1.8,1.8,0,0,0,.39.63c.28.07.35.08.44.23a3.28,3.28,0,0,1,.41.71Z"/></g><g id="_Group_133" data-name="&lt;Group&gt;"><path id="_Path_155" data-name="&lt;Path&gt;" class="cls-17" d="M94.63,62.33c-.11,0,0-.33-.3-.66a5.43,5.43,0,0,0-.42-.41l.06-.12a3.07,3.07,0,0,1,.45.45c.35.39.24.73.21.74Z"/></g><g id="_Group_134" data-name="&lt;Group&gt;"><path id="_Path_156" data-name="&lt;Path&gt;" class="cls-17" d="M95.68,63.35a1.5,1.5,0,0,1-.33-1.59l.11.05a2.26,2.26,0,0,0,.22,1.53Z"/></g><g id="_Group_135" data-name="&lt;Group&gt;"><path id="_Path_157" data-name="&lt;Path&gt;" class="cls-17" d="M96.08,63.53c-.12-.08.33-1-.28-1.42l.07-.12c.7.51.21,1.52.21,1.54Z"/></g><g id="_Group_136" data-name="&lt;Group&gt;"><path id="_Path_158" data-name="&lt;Path&gt;" class="cls-1" d="M96,64l-.06.81Z"/></g><g id="_Group_137" data-name="&lt;Group&gt;"><path id="_Path_159" data-name="&lt;Path&gt;" class="cls-1" d="M97.71,61.62a1.1,1.1,0,0,1,.49.8Z"/></g><g id="_Group_138" data-name="&lt;Group&gt;"><path id="_Path_160" data-name="&lt;Path&gt;" class="cls-17" d="M98.55,66.07c-.15,0-.15-.09.13-.48a8.32,8.32,0,0,0,.67-1.43l.12,0a11.85,11.85,0,0,1-.66,1.47,2,2,0,0,0-.26.39Z"/></g><g id="_Group_139" data-name="&lt;Group&gt;"><path id="_Path_161" data-name="&lt;Path&gt;" class="cls-17" d="M98.43,67.19l-.12,0c.37-1.29,1-1.52,1.06-1.53s-.59.35-.94,1.57Z"/></g><g id="_Group_140" data-name="&lt;Group&gt;"><path id="_Path_162" data-name="&lt;Path&gt;" class="cls-17" d="M99,66.22l0-.12a4.91,4.91,0,0,0,2-1.79A3.49,3.49,0,0,1,99,66.22Z"/></g><g id="_Group_141" data-name="&lt;Group&gt;"><path id="_Path_163" data-name="&lt;Path&gt;" class="cls-17" d="M95.16,68.63l0-.12a2.13,2.13,0,0,1,1.35-.46,1,1,0,0,0,.41,0,1.54,1.54,0,0,0,.78-.51c.09.09-.19.47-.74.64a1.31,1.31,0,0,1-.45,0,2.11,2.11,0,0,0-1.3.44Z"/></g><g id="_Group_142" data-name="&lt;Group&gt;"><path id="_Path_164" data-name="&lt;Path&gt;" class="cls-17" d="M96.38,67.88c-.23,0-1.22-.51-1.91-.37l0-.14a3.59,3.59,0,0,1,2,.51Z"/></g><g id="_Group_143" data-name="&lt;Group&gt;"><path id="_Path_165" data-name="&lt;Path&gt;" class="cls-17" d="M97.43,67.54c-.14,0-.33-.72-1.25-.82v-.14a1.38,1.38,0,0,1,1.25,1Z"/></g><g id="_Group_144" data-name="&lt;Group&gt;"><path id="_Path_166" data-name="&lt;Path&gt;" class="cls-17" d="M99.45,70.74a5.09,5.09,0,0,0-2-.08v-.13c1.83-.15,2,.12,2,.21Z"/></g><g id="_Group_145" data-name="&lt;Group&gt;"><path id="_Path_167" data-name="&lt;Path&gt;" class="cls-1" d="M98.9,69c0-.69,0-.85,0-.85Z"/></g><g id="_Group_146" data-name="&lt;Group&gt;"><path id="_Path_168" data-name="&lt;Path&gt;" class="cls-17" d="M98.48,64.64l-.13-.06a12.37,12.37,0,0,1,1.71-2.31c.1.11-.78,1-1.58,2.37Z"/></g><g id="_Group_147" data-name="&lt;Group&gt;"><path id="_Path_169" data-name="&lt;Path&gt;" class="cls-17" d="M100.06,62.9l-.09-.09a10.52,10.52,0,0,0,1.3-1.6,4.8,4.8,0,0,1-1.21,1.69Z"/></g><g id="_Group_148" data-name="&lt;Group&gt;"><path id="_Path_170" data-name="&lt;Path&gt;" class="cls-17" d="M98.67,62.81c0-.63,0-1.06-.1-1.39-.07-.67-.12-.92.11-1.33a4,4,0,0,1,.72-.81,2.74,2.74,0,0,0,.46-.51,4.11,4.11,0,0,0,.34-1.47,1.75,1.75,0,0,1,.6-1.22c.06.1-.46.62-.46,1.22a3.38,3.38,0,0,1-.28,1.29,2.38,2.38,0,0,1-.56.78,4,4,0,0,0-.69.79,1.87,1.87,0,0,0-.13,1.24c0,.33.08.77.13,1.41Z"/></g><g id="_Group_149" data-name="&lt;Group&gt;"><path id="_Path_171" data-name="&lt;Path&gt;" class="cls-17" d="M98.68,61.66A3.29,3.29,0,0,1,98.35,60c0-.13.18-.26.33-.46a2.74,2.74,0,0,0,1-2.86l.14,0a2.91,2.91,0,0,1-1,3,1.32,1.32,0,0,0-.33.4,6,6,0,0,0,.2,1.66Z"/></g><g id="_Group_150" data-name="&lt;Group&gt;"><path id="_Path_172" data-name="&lt;Path&gt;" class="cls-17" d="M97,60.63a19.43,19.43,0,0,1-1.82-1.35l.06-.12a14.57,14.57,0,0,1,1.78,1.46Z"/></g><g id="_Group_151" data-name="&lt;Group&gt;"><path id="_Path_173" data-name="&lt;Path&gt;" class="cls-17" d="M97.26,60a3.74,3.74,0,0,1-.72-.24,3.39,3.39,0,0,1-.53-.24,1.5,1.5,0,0,0-.38-.18V59.2a1.23,1.23,0,0,1,.45.2c.18.09.35.19.49.25a4.77,4.77,0,0,1,.77.31s0,0-.08,0Z"/></g><g id="_Group_152" data-name="&lt;Group&gt;"><path id="_Path_174" data-name="&lt;Path&gt;" class="cls-17" d="M96.74,59.45c-.14-.05-.09-.27-.31-.56a1.27,1.27,0,0,0-.33-.34,2,2,0,0,1-.87-1.18l.14,0a1.93,1.93,0,0,0,.81,1.1,3.54,3.54,0,0,1,.38.35,1,1,0,0,1,.18.65Z"/></g><g id="_Group_153" data-name="&lt;Group&gt;"><path id="_Path_175" data-name="&lt;Path&gt;" class="cls-17" d="M98.23,59.18a14.7,14.7,0,0,1,.12-2,10.92,10.92,0,0,1,0,2l-.14,0Z"/></g><g id="_Group_154" data-name="&lt;Group&gt;"><path id="_Path_176" data-name="&lt;Path&gt;" class="cls-17" d="M98.86,58.88c-.13-.08.31-1,.31-2h.14a4.89,4.89,0,0,1-.45,2Z"/></g><g id="_Group_155" data-name="&lt;Group&gt;"><path id="_Path_177" data-name="&lt;Path&gt;" class="cls-17" d="M98.23,58.82A3.16,3.16,0,0,1,98,58a2.57,2.57,0,0,1,0-.33,1.48,1.48,0,0,0-.22-.51c.1-.1.22,0,.33.47,0,.14,0,.26.08.35a3,3,0,0,0,.25.82l-.14,0Z"/></g><g id="_Group_156" data-name="&lt;Group&gt;"><path id="_Path_178" data-name="&lt;Path&gt;" class="cls-17" d="M96.63,57.68h-.15A3.44,3.44,0,0,1,96.87,56,.63.63,0,0,0,97,55.5a6.68,6.68,0,0,0-.21-.75c.12,0,.24.23.35.72a.89.89,0,0,1-.11.59,3.5,3.5,0,0,0-.38,1.62Z"/></g><g id="_Group_157" data-name="&lt;Group&gt;"><path id="_Path_179" data-name="&lt;Path&gt;" class="cls-17" d="M97.12,55.78c-.11-.09.31-.78.95-1.06l.05.12a3.05,3.05,0,0,0-1,.94Z"/></g><g id="_Group_158" data-name="&lt;Group&gt;"><path id="_Path_180" data-name="&lt;Path&gt;" class="cls-17" d="M96.89,57l-.12-.06a4,4,0,0,1,1-1.51,1,1,0,0,1,.86-.17c-.05.13-.48,0-.76.27a4,4,0,0,0-1,1.47Z"/></g><g id="_Group_159" data-name="&lt;Group&gt;"><path id="_Path_181" data-name="&lt;Path&gt;" class="cls-1" d="M96.29,54.79a2.26,2.26,0,0,0,.17,1Z"/></g><g id="_Group_160" data-name="&lt;Group&gt;"><path id="_Path_182" data-name="&lt;Path&gt;" class="cls-17" d="M97.05,55.37l-.12-.07a5.21,5.21,0,0,0,.55-1.74,2.63,2.63,0,0,1-.43,1.81Z"/></g><g id="_Group_161" data-name="&lt;Group&gt;"><path id="_Path_183" data-name="&lt;Path&gt;" class="cls-17" d="M99.37,62.86l-.14,0a9.49,9.49,0,0,1,.78-2.49c.1.09-.54,1.42-.64,2.51Z"/></g><path id="_Path_184" data-name="&lt;Path&gt;" class="cls-19" d="M96.57,57.55a.37.37,0,0,0-.34-.38.39.39,0,0,0,0,.78.37.37,0,0,0,.34-.4Z"/><g id="_Group_162" data-name="&lt;Group&gt;"><path id="_Path_185" data-name="&lt;Path&gt;" class="cls-17" d="M96.23,58a.45.45,0,0,1-.43-.47.42.42,0,0,1,.83,0,.43.43,0,0,1-.4.47Z"/></g><path id="_Path_186" data-name="&lt;Path&gt;" class="cls-19" d="M97.17,58.11a.38.38,0,0,0-.35-.38.37.37,0,0,0-.36.38.38.38,0,0,0,.36.42.39.39,0,0,0,.35-.42Z"/><g id="_Group_163" data-name="&lt;Group&gt;"><path id="_Path_187" data-name="&lt;Path&gt;" class="cls-17" d="M96.82,58.59a.45.45,0,0,1-.44-.48c0-.51.85-.5.85,0a.46.46,0,0,1-.41.48Z"/></g><path id="_Path_188" data-name="&lt;Path&gt;" class="cls-19" d="M98.48,61a.39.39,0,0,0-.36-.4.37.37,0,0,0-.33.4.37.37,0,0,0,.33.4.4.4,0,0,0,.36-.4Z"/><g id="_Group_164" data-name="&lt;Group&gt;"><path id="_Path_189" data-name="&lt;Path&gt;" class="cls-17" d="M98.12,61.42a.44.44,0,0,1-.41-.46.42.42,0,0,1,.84,0,.45.45,0,0,1-.43.46Z"/></g><path id="_Path_190" data-name="&lt;Path&gt;" class="cls-19" d="M99.17,61.37a.35.35,0,1,0-.36.4.38.38,0,0,0,.36-.4Z"/><g id="_Group_165" data-name="&lt;Group&gt;"><path id="_Path_191" data-name="&lt;Path&gt;" class="cls-17" d="M98.81,61.84a.45.45,0,0,1-.41-.47.42.42,0,0,1,.83,0,.45.45,0,0,1-.42.47Z"/></g><path id="_Path_192" data-name="&lt;Path&gt;" class="cls-19" d="M96.6,65.52a.37.37,0,0,0-.33-.4.39.39,0,0,0-.35.4.38.38,0,0,0,.35.4.37.37,0,0,0,.33-.4Z"/><g id="_Group_166" data-name="&lt;Group&gt;"><path id="_Path_193" data-name="&lt;Path&gt;" class="cls-17" d="M96.27,66a.46.46,0,0,1-.42-.48.42.42,0,0,1,.83,0,.47.47,0,0,1-.41.48Z"/></g><path id="_Path_194" data-name="&lt;Path&gt;" class="cls-19" d="M98.31,66.39A.36.36,0,0,0,98,66a.37.37,0,0,0-.33.39.39.39,0,0,0,.33.4.37.37,0,0,0,.36-.4Z"/><g id="_Group_167" data-name="&lt;Group&gt;"><path id="_Path_195" data-name="&lt;Path&gt;" class="cls-17" d="M98,66.85a.43.43,0,0,1-.39-.46.41.41,0,0,1,.81,0,.43.43,0,0,1-.42.46Z"/></g><path id="_Path_196" data-name="&lt;Path&gt;" class="cls-19" d="M99.33,69.78a.38.38,0,0,0-.35-.39.4.4,0,0,0,0,.79.37.37,0,0,0,.35-.4Z"/><g id="_Group_168" data-name="&lt;Group&gt;"><path id="_Path_197" data-name="&lt;Path&gt;" class="cls-17" d="M99,70.26a.45.45,0,0,1-.43-.48.43.43,0,0,1,.85,0,.45.45,0,0,1-.42.48Z"/></g><path id="_Path_198" data-name="&lt;Path&gt;" class="cls-19" d="M101.16,70.74a.41.41,0,0,0-.36-.41.4.4,0,0,0-.36.41.39.39,0,0,0,.36.39.39.39,0,0,0,.36-.39Z"/><g id="_Group_169" data-name="&lt;Group&gt;"><path id="_Path_199" data-name="&lt;Path&gt;" class="cls-17" d="M100.8,71.2a.45.45,0,0,1-.43-.46.42.42,0,0,1,.83,0,.43.43,0,0,1-.4.46Z"/></g><path id="_Path_200" data-name="&lt;Path&gt;" class="cls-19" d="M102.08,70.7a.38.38,0,0,0-.36-.4.36.36,0,0,0-.33.4.37.37,0,0,0,.33.4.4.4,0,0,0,.36-.4Z"/><g id="_Group_170" data-name="&lt;Group&gt;"><path id="_Path_201" data-name="&lt;Path&gt;" class="cls-17" d="M101.72,71.16a.47.47,0,0,1-.42-.46.43.43,0,0,1,.85,0,.45.45,0,0,1-.43.46Z"/></g><path id="_Path_202" data-name="&lt;Path&gt;" class="cls-19" d="M104.94,71.34a.37.37,0,0,0-.35-.39.36.36,0,0,0-.33.39.37.37,0,0,0,.33.4.39.39,0,0,0,.35-.4Z"/><g id="_Group_171" data-name="&lt;Group&gt;"><path id="_Path_203" data-name="&lt;Path&gt;" class="cls-17" d="M104.59,71.8a.44.44,0,0,1-.41-.46.42.42,0,0,1,.83,0,.45.45,0,0,1-.42.46Z"/></g><g id="_Group_172" data-name="&lt;Group&gt;"><path id="_Path_204" data-name="&lt;Path&gt;" class="cls-1" d="M125.24,76.83c-.46-.72-.74-.78-.74-.78Z"/></g><g id="_Group_173" data-name="&lt;Group&gt;"><path id="_Path_205" data-name="&lt;Path&gt;" class="cls-1" d="M125.09,77.08c-.45-.72-.73-.79-.73-.79Z"/></g><g id="_Group_174" data-name="&lt;Group&gt;"><path id="_Path_206" data-name="&lt;Path&gt;" class="cls-1" d="M124.88,77.29c-.46-.72-.74-.78-.74-.78Z"/></g><g id="_Group_175" data-name="&lt;Group&gt;"><path id="_Path_207" data-name="&lt;Path&gt;" class="cls-1" d="M124.7,77.54c-.42-.71-.7-.78-.7-.78Z"/></g><g id="_Group_176" data-name="&lt;Group&gt;"><path id="_Path_208" data-name="&lt;Path&gt;" class="cls-1" d="M124.5,77.72c-.43-.72-.74-.78-.74-.78Z"/></g><g id="_Group_177" data-name="&lt;Group&gt;"><path id="_Path_209" data-name="&lt;Path&gt;" class="cls-1" d="M124.36,78c-.45-.73-.74-.79-.74-.79Z"/></g><g id="_Group_178" data-name="&lt;Group&gt;"><path id="_Path_210" data-name="&lt;Path&gt;" class="cls-1" d="M124.14,78.14c-.44-.71-.74-.78-.74-.78Z"/></g><g id="_Group_179" data-name="&lt;Group&gt;"><path id="_Path_211" data-name="&lt;Path&gt;" class="cls-1" d="M124,78.4c-.44-.72-.75-.79-.75-.79Z"/></g><g id="_Group_180" data-name="&lt;Group&gt;"><path id="_Path_212" data-name="&lt;Path&gt;" class="cls-1" d="M123.79,78.58c-.43-.71-.72-.78-.72-.78Z"/></g><g id="_Group_181" data-name="&lt;Group&gt;"><g id="_Clip_Group_11" data-name="&lt;Clip Group&gt;"><g class="cls-20"><path id="_Path_213" data-name="&lt;Path&gt;" class="cls-5" d="M124.76,76.23c-1.06-1-2.39-.69-3-.76a1.76,1.76,0,0,0-1.63-.48c-.54.23-.87,1.4-.87,1.55,0,.33.59.57,1.06.61s1.6,0,1.94.07.88.65.88.65a10.29,10.29,0,0,1,1.59-1.64Z"/></g></g></g><g id="_Group_182" data-name="&lt;Group&gt;"><path id="_Compound_Path_39" data-name="&lt;Compound Path&gt;" d="M123.17,78l-.07-.11c-.14-.15-.54-.57-.81-.61l-.94,0c-.39,0-.76,0-1,0-.47,0-1.16-.3-1.16-.71,0-.19.33-1.4.92-1.64a2,2,0,0,1,1.76.49l.8,0a2.89,2.89,0,0,1,2.16.78,19.61,19.61,0,0,0-1.57,1.79l-.09.11Zm-2.65-3a1,1,0,0,0-.34.06c-.44.2-.77,1.3-.77,1.45s.47.46.94.5c.24,0,.61,0,1,0s.78,0,1,0a1.85,1.85,0,0,1,.85.58,9,9,0,0,1,1.53-1.57,3.46,3.46,0,0,0-2-.54H122l-.28,0a2.11,2.11,0,0,0-1.21-.51Z"/></g><g id="_Group_183" data-name="&lt;Group&gt;"><g id="_Clip_Group_12" data-name="&lt;Clip Group&gt;"><g class="cls-21"><path id="_Path_214" data-name="&lt;Path&gt;" class="cls-5" d="M121.68,76.15c0-.54-.36-.82-.69-.75a24.88,24.88,0,0,1-3,.92c-.61,0-1.67-.6-1.67-1s1.53-.94,1.53-.94l1.07.33a6.94,6.94,0,0,1,2.15-.65c.82,0,1.29.51,1.24.91a2.92,2.92,0,0,1-.64,1.17Z"/></g></g></g><g id="_Group_184" data-name="&lt;Group&gt;"><path id="_Compound_Path_40" data-name="&lt;Compound Path&gt;" d="M118,76.44a2.33,2.33,0,0,1-1.12-.38c-.18-.11-.64-.42-.64-.73s1.24-.9,1.63-1l1.13.32a5.93,5.93,0,0,1,2.12-.65,1.64,1.64,0,0,1,1.17.44.76.76,0,0,1,.18.58,2.59,2.59,0,0,1-.75,1.27c-.12-.53-.36-.77-.6-.77a7.42,7.42,0,0,0-1,.33,10.84,10.84,0,0,1-2.11.62Zm-.13-1.94c-.63.25-1.39.64-1.39.83s.17.32.53.55a2.13,2.13,0,0,0,1,.34v.11l0-.11a9.92,9.92,0,0,0,2-.62c.39-.15.76-.27.92-.31a.74.74,0,0,1,.81.77c0-.25.43-.82.46-1.1a.48.48,0,0,0-.17-.39,1.25,1.25,0,0,0-1-.39,6.73,6.73,0,0,0-2.1.63l-1.15-.31Z"/></g><g id="_Group_185" data-name="&lt;Group&gt;"><path id="_Path_215" data-name="&lt;Path&gt;" d="M121,76.57h-.11a4.62,4.62,0,0,1-.93-.15.51.51,0,0,0-.59.15c-.11-.18.09-.43.28-.43a1.4,1.4,0,0,1,.33.07,8.87,8.87,0,0,0,.94.15c.69,0,.7-.31.7-.43l.24,0c0,.24-.19.62-.86.62Z"/></g><g id="_Group_186" data-name="&lt;Group&gt;"><path id="_Path_216" data-name="&lt;Path&gt;" d="M94.38,76.88l-.17-.11c.42-.74.76-.82.78-.84.06.21-.22.3-.61.95Z"/></g><g id="_Group_187" data-name="&lt;Group&gt;"><path id="_Path_217" data-name="&lt;Path&gt;" d="M94.52,77.13,94.35,77c.42-.73.76-.83.78-.84.05.21-.19.3-.61.95Z"/></g><g id="_Group_188" data-name="&lt;Group&gt;"><path id="_Path_218" data-name="&lt;Path&gt;" d="M94.72,77.35l-.18-.12c.48-.74.78-.82.83-.82,0,.21-.24.29-.65.94Z"/></g><g id="_Group_189" data-name="&lt;Group&gt;"><path id="_Path_219" data-name="&lt;Path&gt;" d="M94.9,77.59l-.19-.11c.45-.72.75-.83.8-.83.06.22-.21.3-.61.94Z"/></g><g id="_Group_190" data-name="&lt;Group&gt;"><path id="_Path_220" data-name="&lt;Path&gt;" d="M95.11,77.78l-.18-.12c.44-.72.78-.82.79-.83.08.21-.21.3-.61,1Z"/></g><g id="_Group_191" data-name="&lt;Group&gt;"><path id="_Path_221" data-name="&lt;Path&gt;" d="M95.26,78l-.21-.11c.49-.73.8-.83.82-.84,0,.21-.21.3-.61,1Z"/></g><g id="_Group_192" data-name="&lt;Group&gt;"><path id="_Path_222" data-name="&lt;Path&gt;" d="M95.49,78.21l-.19-.13c.44-.72.75-.81.78-.83.07.22-.21.3-.59,1Z"/></g><g id="_Group_193" data-name="&lt;Group&gt;"><path id="_Path_223" data-name="&lt;Path&gt;" d="M95.63,78.46l-.19-.11c.46-.75.76-.83.82-.84,0,.21-.22.3-.63.95Z"/></g><g id="_Group_194" data-name="&lt;Group&gt;"><path id="_Path_224" data-name="&lt;Path&gt;" d="M95.8,78.63l-.17-.1c.45-.75.75-.84.78-.85.07.21-.21.3-.61.95Z"/></g><g id="_Group_195" data-name="&lt;Group&gt;"><g id="_Clip_Group_13" data-name="&lt;Clip Group&gt;"><g class="cls-22"><path id="_Path_225" data-name="&lt;Path&gt;" class="cls-5" d="M94.75,76.23c1.07-1,2.4-.69,3-.76A1.73,1.73,0,0,1,99.37,75c.52.23.86,1.4.86,1.55,0,.33-.59.57-1.06.61s-1.57,0-1.94.07-.89.65-.89.65a9.45,9.45,0,0,0-1.59-1.64Z"/></g></g></g><g id="_Group_196" data-name="&lt;Group&gt;"><path id="_Compound_Path_41" data-name="&lt;Compound Path&gt;" d="M96.34,78l-.08-.11a9.82,9.82,0,0,0-1.55-1.61,2.48,2.48,0,0,1,2.16-1h.64a2.46,2.46,0,0,1,1.89-.47c.61.24.93,1.45.93,1.64,0,.41-.67.68-1.16.71-.25,0-.62,0-1,0l-1,0c-.28,0-.68.46-.81.61l-.09.11Zm.53-2.46a2.65,2.65,0,0,0-2,.72c.41.11,1.23,1.08,1.49,1.39a1.83,1.83,0,0,1,.89-.58c.17,0,.56,0,.94,0l1,0c.47,0,.94-.28.94-.5s-.31-1.25-.78-1.45a1.83,1.83,0,0,0-1.52.45l0,0h-.92Z"/></g><g id="_Group_197" data-name="&lt;Group&gt;"><g id="_Clip_Group_14" data-name="&lt;Clip Group&gt;"><g class="cls-23"><path id="_Path_226" data-name="&lt;Path&gt;" class="cls-5" d="M97.86,76.15c0-.54.34-.82.69-.75a25.67,25.67,0,0,0,3,.92c.61,0,1.67-.6,1.67-1s-1.55-.94-1.55-.94l-1.06.33a6.84,6.84,0,0,0-2.15-.65c-.81,0-1.28.51-1.23.91a2.89,2.89,0,0,0,.66,1.17Z"/></g></g></g><g id="_Group_198" data-name="&lt;Group&gt;"><path id="_Compound_Path_42" data-name="&lt;Compound Path&gt;" d="M101.55,76.44h0a10.21,10.21,0,0,1-2.1-.62c-.41-.16-.75-.28-.89-.32a.59.59,0,0,0-.58.65c-.28.11-.85-.85-.88-1.16a.74.74,0,0,1,.22-.59A1.53,1.53,0,0,1,98.43,74a7.1,7.1,0,0,1,2.21.65l1-.33c.47.14,1.69.6,1.69,1s-1.11,1.11-1.75,1.11Zm-3.12-1.16a6.43,6.43,0,0,1,1.07.32,9.51,9.51,0,0,0,2,.62l0,.11v-.11c.6,0,1.52-.59,1.52-.89s-.76-.58-1.46-.83l-1,.33a8.05,8.05,0,0,0-2.21-.65,1.3,1.3,0,0,0-1,.37.5.5,0,0,0-.17.41,3,3,0,0,0,.61,1.1.56.56,0,0,1,.53-.78Z"/></g><g id="_Group_199" data-name="&lt;Group&gt;"><path id="_Path_227" data-name="&lt;Path&gt;" d="M98.5,76.57c-.69,0-.83-.38-.83-.62l.22,0c0,.31.28.46.73.43a8,8,0,0,0,.9-.15,2,2,0,0,1,.34-.07c.17,0,.39.23.44.3a.91.91,0,0,1-.44-.07l-.3,0a5,5,0,0,1-.94.15Z"/></g><g id="_Group_200" data-name="&lt;Group&gt;"><g id="_Clip_Group_15" data-name="&lt;Clip Group&gt;"><g class="cls-24"><path id="_Path_228" data-name="&lt;Path&gt;" class="cls-5" d="M109.89,71.72c-7.17-.17-10.11,1.21-10.14,2.21a1.8,1.8,0,0,0,1.36,1.79c.47,0,1.68-.62,1.63-.87s-.22-.24-.1-.31a31.56,31.56,0,0,1,7.3-.61c4.55,0,7.12.46,7.17.61s-.36.29-.6.54c1-.09,1.27.53,1.76.57A1.72,1.72,0,0,0,119.69,74c0-1-3-2.14-9.8-2.28Z"/></g></g></g><g id="_Group_201" data-name="&lt;Group&gt;"><path id="_Compound_Path_43" data-name="&lt;Compound Path&gt;" d="M101.11,75.83a1.56,1.56,0,0,1-.91-.48,2.29,2.29,0,0,1-.56-1.42c0-1.13,2.91-2.33,9.13-2.33h1.12c5.08.11,8.71.79,9.66,1.81a.77.77,0,0,1,.25.58,1.87,1.87,0,0,1-1.48,1.76h0a1,1,0,0,1-.6-.25,1.71,1.71,0,0,0-1-.33h-.24l0-.17c.12-.1.23-.2.34-.28s.21-.13.21-.16a33,33,0,0,0-7-.53,32.28,32.28,0,0,0-7.25.6l.13,0,0,.37a3.26,3.26,0,0,1-1.66.77Zm7.66-4c-6.44,0-8.88,1.31-8.91,2.13a1.84,1.84,0,0,0,.51,1.25,1.24,1.24,0,0,0,.74.41,2.7,2.7,0,0,0,1.52-.73c-.11,0-.17-.11-.17-.23.33-.3,2.94-.81,7.48-.81,4,0,7.19.36,7.26.69,0,.17-.12.29-.31.4a1.27,1.27,0,0,0-.28.23,1.33,1.33,0,0,1,1.22.18,1,1,0,0,0,.44.21h0a1.6,1.6,0,0,0,1.3-1.54.54.54,0,0,0-.16-.42c-.36-.37-2.09-1.59-9.52-1.75l-1.12,0Z"/></g><polygon id="_Path_229" data-name="&lt;Path&gt;" class="cls-13" points="102.13 74.13 101.72 73.01 102.39 72.79 102.44 72.92 101.89 73.1 102.03 73.44 102.52 73.27 102.58 73.4 102.08 73.58 102.19 73.96 102.77 73.76 102.82 73.91 102.13 74.13"/><path id="_Path_230" data-name="&lt;Path&gt;" class="cls-13" d="M104.4,72.46h.14l.07.7v.3a.41.41,0,0,1-.12.19.53.53,0,0,1-.23.09.59.59,0,0,1-.27,0,.69.69,0,0,1-.14-.15c0-.08,0-.19-.06-.3l-.05-.72h.11l.08.7a1.48,1.48,0,0,1,0,.24.32.32,0,0,0,.1.1.39.39,0,0,0,.17,0,.26.26,0,0,0,.19-.11s.06-.16,0-.32Z"/><polygon id="_Path_231" data-name="&lt;Path&gt;" class="cls-13" points="105.84 73.51 105.84 72.34 105.98 72.34 105.98 73.37 106.48 73.37 106.48 73.51 105.84 73.51"/><rect id="_Path_232" data-name="&lt;Path&gt;" class="cls-13" x="106.73" y="72.29" width="0.17" height="1.22"/><path id="_Path_233" data-name="&lt;Path&gt;" class="cls-13" d="M107.81,73.1l.12,0a.78.78,0,0,1-.14.32.31.31,0,0,1-.23.1.36.36,0,0,1-.25-.08,1.67,1.67,0,0,1-.11-.23,1.42,1.42,0,0,1,0-.36,1.14,1.14,0,0,1,0-.33c0-.1.06-.16.14-.22a.4.4,0,0,1,.22-.08.32.32,0,0,1,.23.1.39.39,0,0,1,.11.26l-.11,0a.29.29,0,0,0-.09-.2.2.2,0,0,0-.14-.06.24.24,0,0,0-.17.07.39.39,0,0,0-.1.19.63.63,0,0,0,0,.23.92.92,0,0,0,0,.3.49.49,0,0,0,.1.16.24.24,0,0,0,.17.06.19.19,0,0,0,.16-.08s.07-.12.09-.23Z"/><path id="_Path_234" data-name="&lt;Path&gt;" class="cls-13" d="M111.8,73.49V72.34H112l.26.82c0,.08,0,.14,0,.16a.67.67,0,0,1,.05-.19l.26-.79h.19v1.15h-.14v-1l-.31,1h-.13l-.3-1v1Z"/><rect id="_Path_235" data-name="&lt;Path&gt;" class="cls-13" x="113.01" y="72.36" width="0.17" height="1.18"/><polygon id="_Path_236" data-name="&lt;Path&gt;" class="cls-13" points="113.43 73.56 113.43 72.38 113.55 72.38 114.03 73.31 114.03 72.38 114.14 72.38 114.14 73.56 114 73.56 113.55 72.64 113.55 73.56 113.43 73.56"/><rect id="_Path_237" data-name="&lt;Path&gt;" class="cls-13" x="114.45" y="72.43" width="0.14" height="1.13"/><path id="_Path_238" data-name="&lt;Path&gt;" class="cls-13" d="M115.49,73.33l.15,0a1.17,1.17,0,0,1-.19.32.46.46,0,0,1-.3.07.37.37,0,0,1-.23-.1.52.52,0,0,1-.11-.26,1.2,1.2,0,0,1,0-.34c0-.13.07-.24.09-.33a.81.81,0,0,1,.19-.21.59.59,0,0,1,.27,0,.43.43,0,0,1,.23.12.5.5,0,0,1,.1.28l-.12,0a.54.54,0,0,0-.09-.2.17.17,0,0,0-.14-.08c-.11,0-.16,0-.19,0a.41.41,0,0,0-.12.17.85.85,0,0,0-.08.24v.28a.48.48,0,0,0,.12.19c0,.06.1.06.11.08a.3.3,0,0,0,.22-.06.46.46,0,0,0,.12-.23Z"/><polygon id="_Path_239" data-name="&lt;Path&gt;" class="cls-13" points="116.67 74.02 116.94 72.79 117.08 72.82 117.36 73.9 117.58 72.93 117.69 72.95 117.44 74.19 117.32 74.16 117 73.09 116.8 74.06 116.67 74.02"/><path id="_Compound_Path_44" data-name="&lt;Compound Path&gt;" class="cls-13" d="M101.18,74.53l-.46-1.14.39-.17a.64.64,0,0,1,.2,0,.21.21,0,0,1,.15.07c.06,0,.07.09.09.15a.31.31,0,0,1,0,.23.32.32,0,0,1-.14.19l.09,0a.66.66,0,0,1,.16.11l.29.23-.16.07-.21-.18a.64.64,0,0,0-.12-.12.35.35,0,0,0-.1,0l-.09,0s0,0,0,0l-.14,0,.2.51Zm-.15-.69.27-.12c.06,0,.09,0,.11-.06a.1.1,0,0,0,0-.1.25.25,0,0,0,0-.12s0-.1-.1-.11-.09,0-.16,0l-.32.12Z"/><path id="_Compound_Path_45" data-name="&lt;Compound Path&gt;" class="cls-13" d="M103,73.86l-.25-1.18.38-.09h.14a.3.3,0,0,1,.14,0s.07.06.12.1a.43.43,0,0,1,0,.16.29.29,0,0,1,0,.27c0,.08-.11.13-.27.17l-.25,0,.11.49Zm0-.65.27,0a.87.87,0,0,0,.17-.09.52.52,0,0,0,0-.18.14.14,0,0,0-.07-.12.27.27,0,0,0-.11,0h-.14l-.23.06Z"/><path id="_Compound_Path_46" data-name="&lt;Compound Path&gt;" class="cls-13" d="M104.9,73.6l-.08-1.19h.36a.38.38,0,0,1,.19,0,.57.57,0,0,1,.12.11.41.41,0,0,1,0,.16.32.32,0,0,1,0,.14.15.15,0,0,1-.09.12.26.26,0,0,1,.16.09.41.41,0,0,1,0,.19.71.71,0,0,1,0,.15.14.14,0,0,1-.08.12.17.17,0,0,1-.09.07l-.15,0Zm.09-.69.19,0c.08,0,.12,0,.14,0a.08.08,0,0,0,.05-.07s0,0,0-.1a.14.14,0,0,0,0-.11l-.07,0s-.07,0-.14,0H105Zm0,.55.25,0h.09l.07,0s0-.05,0-.07a.2.2,0,0,0,0-.11s0-.08,0-.12,0,0-.08-.06H105Z"/><path id="_Compound_Path_47" data-name="&lt;Compound Path&gt;" class="cls-13" d="M108.05,73.51l.4-1.25h.11l.41,1.25h-.14l-.11-.38h-.41l-.12.38Zm.28-.51h.36l-.13-.35a.7.7,0,0,0-.06-.25.59.59,0,0,1,0,.22Z"/><path id="_Compound_Path_48" data-name="&lt;Compound Path&gt;" class="cls-13" d="M109.74,73.51V72.29h.48a.35.35,0,0,1,.18.1.76.76,0,0,1,.12.2,1.32,1.32,0,0,1,0,.29,1,1,0,0,1,0,.25.21.21,0,0,1-.08.17.67.67,0,0,1-.06.12.34.34,0,0,1-.16.06l-.14,0Zm.11-.15h.23l.14,0a.34.34,0,0,0,.11-.07.42.42,0,0,0,.07-.15c0-.06,0-.14,0-.23a.53.53,0,0,0-.07-.3.21.21,0,0,0-.13-.13s-.08,0-.14,0h-.23Z"/><path id="_Compound_Path_49" data-name="&lt;Compound Path&gt;" class="cls-13" d="M110.75,72.91a1.09,1.09,0,0,1,.11-.5.4.4,0,0,1,.32-.18.31.31,0,0,1,.22.09.57.57,0,0,1,.15.23c0,.1,0,.22,0,.34s0,.24,0,.35a.71.71,0,0,1-.15.22.54.54,0,0,1-.22.08.57.57,0,0,1-.24-.08.58.58,0,0,1-.11-.25.54.54,0,0,1-.08-.3Zm.11,0a.63.63,0,0,0,.11.35.24.24,0,0,0,.21.14.29.29,0,0,0,.22-.15.63.63,0,0,0,.06-.36,1.14,1.14,0,0,0,0-.27,1.22,1.22,0,0,0-.09-.17.23.23,0,0,0-.17-.08c-.1,0-.14,0-.21.13a.67.67,0,0,0-.11.41Z"/><path id="_Compound_Path_50" data-name="&lt;Compound Path&gt;" class="cls-13" d="M115.64,73.76l.61-1.17.14,0,.14,1.36-.14,0,0-.41-.42-.09-.17.35Zm.38-.46.33.07,0-.36a1.06,1.06,0,0,1,0-.28,1.47,1.47,0,0,1-.1.22Z"/><path id="_Compound_Path_51" data-name="&lt;Compound Path&gt;" class="cls-13" d="M117.53,74.22l.85-1,.12,0-.14,1.35-.12-.05.05-.41-.35-.19-.27.31Zm.47-.36.29.14,0-.36a1,1,0,0,0,0-.28,1.73,1.73,0,0,1-.14.2Z"/><path id="_Path_240" data-name="&lt;Path&gt;" class="cls-5" d="M113.19,75.24a2,2,0,0,0-1.79-.11l0,.78a2.31,2.31,0,0,1,.75.11l.74.37Z"/><g id="_Group_202" data-name="&lt;Group&gt;"><path id="_Compound_Path_52" data-name="&lt;Compound Path&gt;" d="M113,76.54l-.86-.42a2.71,2.71,0,0,0-.71-.09l-.14-.9a1.94,1.94,0,0,1,1.91,0l-.2,1.41Zm-1.24-.7a1,1,0,0,1,.47.09l.61.3.22-1a8.21,8.21,0,0,0-1.61,0l.07.67s.1,0,.24,0Z"/></g><path id="_Path_241" data-name="&lt;Path&gt;" class="cls-5" d="M106.34,75.29a2,2,0,0,1,1.8-.11l0,.78a2.28,2.28,0,0,0-.77.12l-.74.36Z"/><g id="_Group_203" data-name="&lt;Group&gt;"><path id="_Compound_Path_53" data-name="&lt;Compound Path&gt;" d="M106.53,76.6l-.28-1.29a2.05,2.05,0,0,1,2-.23V76c-.24.1-.66.11-.83.19l-.86.43Zm.92-1.45a2.74,2.74,0,0,0-1.06.25l.28.88.62-.3a2.56,2.56,0,0,1,.82-.14l-.06-.63s-.26-.06-.6-.06Z"/></g><path id="_Path_242" data-name="&lt;Path&gt;" class="cls-5" d="M109.1,75v1.13c0,.07.26.16.64.16a1.32,1.32,0,0,0,.61-.16V75a1.85,1.85,0,0,0-.71-.11,1.11,1.11,0,0,0-.54.16Z"/><g id="_Group_204" data-name="&lt;Group&gt;"><path id="_Compound_Path_54" data-name="&lt;Compound Path&gt;" d="M109.74,76.44a1.07,1.07,0,0,1-.74-.21V75c.11-.18.3-.24.64-.28a5.14,5.14,0,0,1,.74.12l.06,1.29a.86.86,0,0,1-.7.28Zm-.52-.28,1.06-.1-.06-1s-.25,0-.48,0a1.3,1.3,0,0,0-.55.12l0,1.07Z"/></g><path id="_Path_243" data-name="&lt;Path&gt;" class="cls-5" d="M110.35,76.23c.19.33,1.5.22,1.51-.07a3.45,3.45,0,0,0,0-.69h-1.53Z"/><g id="_Group_205" data-name="&lt;Group&gt;"><path id="_Compound_Path_55" data-name="&lt;Compound Path&gt;" d="M111,76.54h0c-.25,0-.64,0-.77-.25l0-.82,1.66-.11a1.47,1.47,0,0,1,.11.81c0,.3-.64.37-1,.37Zm.75-1.07-1.42.11.09.65a4,4,0,0,0,1.3-.08,2.94,2.94,0,0,0,0-.68Z"/></g><path id="_Path_244" data-name="&lt;Path&gt;" class="cls-5" d="M110.35,75a2.75,2.75,0,0,1,1-.23.85.85,0,0,1,.54.26l-.06,1a.82.82,0,0,0-.55-.26,2,2,0,0,0-1,.32Z"/><g id="_Group_206" data-name="&lt;Group&gt;"><path id="_Compound_Path_56" data-name="&lt;Compound Path&gt;" d="M110.22,76.3V75a2.07,2.07,0,0,1,1-.34,1,1,0,0,1,.74.3L112,76.05c-.25,0-.47-.16-.64-.16a2,2,0,0,0-.92.32l-.18.09Zm1.08-.62a.85.85,0,0,1,.64.3l-.12-1s-.17-.11-.45-.14a2.18,2.18,0,0,0-1,.21l0,.85a2.37,2.37,0,0,1,.86-.25Z"/></g><path id="_Path_245" data-name="&lt;Path&gt;" class="cls-5" d="M109.1,76.25c-.2.32-1.48.22-1.53-.07s0-.7,0-.7h1.54Z"/><g id="_Group_207" data-name="&lt;Group&gt;"><path id="_Compound_Path_57" data-name="&lt;Compound Path&gt;" d="M108.45,76.57c-.33,0-.94-.09-1-.38s0-.71,0-.71l1.65-.1.12.87c-.14.28-.55.32-.77.32Zm-.83-1a2.64,2.64,0,0,1,.08.58,2.37,2.37,0,0,0,1.3,0v-.72l-1.38.11Z"/></g><path id="_Path_246" data-name="&lt;Path&gt;" class="cls-5" d="M109.1,75a2.52,2.52,0,0,0-1-.23.85.85,0,0,0-.55.27l.06,1a.77.77,0,0,1,.55-.25,2,2,0,0,1,1,.32Z"/><g id="_Group_208" data-name="&lt;Group&gt;"><path id="_Compound_Path_58" data-name="&lt;Compound Path&gt;" d="M109.22,76.32l-.17-.09a1.94,1.94,0,0,0-.91-.31h0a.78.78,0,0,0-.44.19L107.42,75a.74.74,0,0,1,.63-.36,3.27,3.27,0,0,1,1.09.22l.08,1.43Zm-1.1-.62A2.21,2.21,0,0,1,109,76V75a7.64,7.64,0,0,0-.83-.11,1,1,0,0,0-.58.21l.11.83a.51.51,0,0,1,.42-.22Z"/></g></g></g></g></g></g></g></g></g></svg>