<svg id="Layer_1" data-name="Layer 1" xmlns="http://www.w3.org/2000/svg" xmlns:xlink="http://www.w3.org/1999/xlink" viewBox="0 0 220 128"><defs><style>.cls-1{fill:none;}.cls-2{clip-path:url(#clip-path);}.cls-3{fill:#3e81c5;}.cls-4{fill:#f1d62f;}.cls-5{fill:#347d59;}.cls-6{fill:#dfad29;}</style><clipPath id="clip-path"><rect id="_Clipping_Path_" data-name="&lt;Clipping Path&gt;" class="cls-1" width="220" height="128"/></clipPath></defs><title>Flag_rect_Rwanda</title><g id="RWANDA"><g id="_Group_" data-name="&lt;Group&gt;"><g id="_Clip_Group_" data-name="&lt;Clip Group&gt;"><g class="cls-2"><rect id="_Path_" data-name="&lt;Path&gt;" class="cls-3" width="220" height="63.97"/><rect id="_Path_2" data-name="&lt;Path&gt;" class="cls-4" y="63.97" width="220" height="32"/><rect id="_Path_3" data-name="&lt;Path&gt;" class="cls-5" y="95.97" width="220" height="32.03"/><polygon id="_Path_4" data-name="&lt;Path&gt;" class="cls-6" points="206.41 46.61 196.48 38.97 201.27 50.54 193.66 40.61 195.27 53.02 190.49 41.48 188.86 53.86 187.21 41.48 182.42 53.02 184.06 40.61 176.46 50.54 181.2 38.97 171.29 46.61 178.9 36.65 167.33 41.45 177.26 33.81 164.87 35.45 176.41 30.67 164.01 29.06 176.41 27.4 164.87 22.6 177.26 24.24 167.33 16.6 178.9 21.4 171.29 11.47 181.2 19.1 176.46 7.53 184.06 17.44 182.42 5.03 187.21 16.57 188.86 4.19 190.49 16.57 195.27 5.03 193.66 17.44 201.27 7.53 196.48 19.1 206.41 11.47 198.81 21.4 210.35 16.6 200.44 24.24 212.84 22.6 201.29 27.4 213.68 29.06 201.29 30.67 212.84 35.45 200.44 33.81 210.35 41.45 198.81 36.65 206.41 46.61"/><g id="_Clip_Group_2" data-name="&lt;Clip Group&gt;"><g class="cls-2"><path id="_Path_5" data-name="&lt;Path&gt;" class="cls-6" d="M197.9,29.06a9,9,0,1,1-9-9.06,9.05,9.05,0,0,1,9,9.06Z"/><g id="_Group_2" data-name="&lt;Group&gt;"><path id="_Compound_Path_" data-name="&lt;Compound Path&gt;" class="cls-3" d="M188.86,38.51a9.5,9.5,0,1,1,9.47-9.45,9.49,9.49,0,0,1-9.47,9.45Zm0-18a8.58,8.58,0,1,0,8.59,8.6,8.6,8.6,0,0,0-8.59-8.6Z"/></g></g></g></g></g></g></g></svg>