<svg id="Layer_1" data-name="Layer 1" xmlns="http://www.w3.org/2000/svg" xmlns:xlink="http://www.w3.org/1999/xlink" viewBox="0 0 220 128"><defs><style>.cls-1{fill:none;}.cls-2{clip-path:url(#clip-path);}.cls-3{fill:#fff;}.cls-4{fill:#394da0;}</style><clipPath id="clip-path"><rect id="_Clipping_Path_" data-name="&lt;Clipping Path&gt;" class="cls-1" width="220" height="128"/></clipPath></defs><title>Flag_rect_Honduras</title><g id="HONDURAS"><g id="_Group_" data-name="&lt;Group&gt;"><g id="_Clip_Group_" data-name="&lt;Clip Group&gt;"><g class="cls-2"><rect id="_Path_" data-name="&lt;Path&gt;" class="cls-3" width="220" height="128"/><polygon id="_Path_2" data-name="&lt;Path&gt;" class="cls-4" points="109.71 56.89 107.51 63.66 110.89 64.76 109.71 56.89"/><polygon id="_Path_3" data-name="&lt;Path&gt;" class="cls-4" points="109.71 56.89 111.9 63.66 108.53 64.76 109.71 56.89"/><polygon id="_Path_4" data-name="&lt;Path&gt;" class="cls-4" points="116.47 61.81 109.36 61.81 109.36 65.37 116.47 61.81"/><polygon id="_Path_5" data-name="&lt;Path&gt;" class="cls-4" points="116.47 61.81 110.72 65.98 108.63 63.11 116.47 61.81"/><polygon id="_Path_6" data-name="&lt;Path&gt;" class="cls-4" points="102.94 61.81 108.7 65.98 110.79 63.11 102.94 61.81"/><polygon id="_Path_7" data-name="&lt;Path&gt;" class="cls-4" points="102.94 61.81 110.06 61.81 110.06 65.37 102.94 61.81"/><polygon id="_Path_8" data-name="&lt;Path&gt;" class="cls-4" points="113.88 69.75 111.69 62.99 108.32 64.1 113.88 69.75"/><polygon id="_Path_9" data-name="&lt;Path&gt;" class="cls-4" points="113.88 69.75 108.14 65.58 110.22 62.7 113.88 69.75"/><polygon id="_Path_10" data-name="&lt;Path&gt;" class="cls-4" points="105.53 69.75 111.29 65.58 109.18 62.7 105.53 69.75"/><polygon id="_Path_11" data-name="&lt;Path&gt;" class="cls-4" points="105.53 69.75 107.73 62.99 111.11 64.1 105.53 69.75"/><polygon id="_Path_12" data-name="&lt;Path&gt;" class="cls-4" points="145.27 67.55 143.07 74.33 146.44 75.42 145.27 67.55"/><polygon id="_Path_13" data-name="&lt;Path&gt;" class="cls-4" points="145.27 67.55 147.45 74.33 144.08 75.42 145.27 67.55"/><polygon id="_Path_14" data-name="&lt;Path&gt;" class="cls-4" points="152.01 72.47 144.92 72.47 144.92 76.03 152.01 72.47"/><polygon id="_Path_15" data-name="&lt;Path&gt;" class="cls-4" points="152.01 72.47 146.28 76.66 144.19 73.76 152.01 72.47"/><polygon id="_Path_16" data-name="&lt;Path&gt;" class="cls-4" points="138.51 72.47 144.25 76.66 146.34 73.76 138.51 72.47"/><polygon id="_Path_17" data-name="&lt;Path&gt;" class="cls-4" points="138.51 72.47 145.61 72.47 145.61 76.03 138.51 72.47"/><polygon id="_Path_18" data-name="&lt;Path&gt;" class="cls-4" points="149.44 80.42 147.24 73.66 143.87 74.76 149.44 80.42"/><polygon id="_Path_19" data-name="&lt;Path&gt;" class="cls-4" points="149.44 80.42 143.69 76.24 145.78 73.37 149.44 80.42"/><polygon id="_Path_20" data-name="&lt;Path&gt;" class="cls-4" points="141.08 80.42 146.83 76.24 144.74 73.37 141.08 80.42"/><polygon id="_Path_21" data-name="&lt;Path&gt;" class="cls-4" points="141.08 80.42 143.28 73.66 146.67 74.76 141.08 80.42"/><polygon id="_Path_22" data-name="&lt;Path&gt;" class="cls-4" points="145.27 46.23 143.07 52.99 146.44 54.09 145.27 46.23"/><polygon id="_Path_23" data-name="&lt;Path&gt;" class="cls-4" points="145.27 46.23 147.45 52.99 144.08 54.09 145.27 46.23"/><polygon id="_Path_24" data-name="&lt;Path&gt;" class="cls-4" points="152.01 51.13 144.92 51.13 144.92 54.69 152.01 51.13"/><polygon id="_Path_25" data-name="&lt;Path&gt;" class="cls-4" points="152.01 51.13 146.28 55.32 144.19 52.44 152.01 51.13"/><polygon id="_Path_26" data-name="&lt;Path&gt;" class="cls-4" points="138.51 51.13 144.25 55.32 146.34 52.44 138.51 51.13"/><polygon id="_Path_27" data-name="&lt;Path&gt;" class="cls-4" points="138.51 51.13 145.61 51.13 145.61 54.69 138.51 51.13"/><polygon id="_Path_28" data-name="&lt;Path&gt;" class="cls-4" points="149.44 59.09 147.24 52.34 143.87 53.42 149.44 59.09"/><polygon id="_Path_29" data-name="&lt;Path&gt;" class="cls-4" points="149.44 59.09 143.69 54.9 145.78 52.03 149.44 59.09"/><polygon id="_Path_30" data-name="&lt;Path&gt;" class="cls-4" points="141.08 59.09 146.83 54.9 144.74 52.03 141.08 59.09"/><polygon id="_Path_31" data-name="&lt;Path&gt;" class="cls-4" points="141.08 59.09 143.28 52.34 146.67 53.42 141.08 59.09"/><polygon id="_Path_32" data-name="&lt;Path&gt;" class="cls-4" points="74.15 67.55 71.96 74.33 75.33 75.42 74.15 67.55"/><polygon id="_Path_33" data-name="&lt;Path&gt;" class="cls-4" points="74.15 67.55 76.35 74.33 72.98 75.42 74.15 67.55"/><polygon id="_Path_34" data-name="&lt;Path&gt;" class="cls-4" points="80.91 72.47 73.81 72.47 73.81 76.03 80.91 72.47"/><polygon id="_Path_35" data-name="&lt;Path&gt;" class="cls-4" points="80.91 72.47 75.17 76.66 73.07 73.76 80.91 72.47"/><polygon id="_Path_36" data-name="&lt;Path&gt;" class="cls-4" points="67.39 72.47 73.14 76.66 75.24 73.76 67.39 72.47"/><polygon id="_Path_37" data-name="&lt;Path&gt;" class="cls-4" points="67.39 72.47 74.5 72.47 74.5 76.03 67.39 72.47"/><polygon id="_Path_38" data-name="&lt;Path&gt;" class="cls-4" points="78.33 80.42 76.14 73.66 72.75 74.76 78.33 80.42"/><polygon id="_Path_39" data-name="&lt;Path&gt;" class="cls-4" points="78.33 80.42 72.59 76.24 74.67 73.37 78.33 80.42"/><polygon id="_Path_40" data-name="&lt;Path&gt;" class="cls-4" points="69.97 80.42 75.73 76.24 73.63 73.37 69.97 80.42"/><polygon id="_Path_41" data-name="&lt;Path&gt;" class="cls-4" points="69.97 80.42 72.17 73.66 75.55 74.76 69.97 80.42"/><polygon id="_Path_42" data-name="&lt;Path&gt;" class="cls-4" points="74.15 46.23 71.96 52.99 75.33 54.09 74.15 46.23"/><polygon id="_Path_43" data-name="&lt;Path&gt;" class="cls-4" points="74.15 46.23 76.35 52.99 72.98 54.09 74.15 46.23"/><polygon id="_Path_44" data-name="&lt;Path&gt;" class="cls-4" points="80.91 51.13 73.81 51.13 73.81 54.69 80.91 51.13"/><polygon id="_Path_45" data-name="&lt;Path&gt;" class="cls-4" points="80.91 51.13 75.17 55.32 73.07 52.44 80.91 51.13"/><polygon id="_Path_46" data-name="&lt;Path&gt;" class="cls-4" points="67.39 51.13 73.14 55.32 75.24 52.44 67.39 51.13"/><polygon id="_Path_47" data-name="&lt;Path&gt;" class="cls-4" points="67.39 51.13 74.5 51.13 74.5 54.69 67.39 51.13"/><polygon id="_Path_48" data-name="&lt;Path&gt;" class="cls-4" points="78.33 59.09 76.14 52.34 72.75 53.42 78.33 59.09"/><polygon id="_Path_49" data-name="&lt;Path&gt;" class="cls-4" points="78.33 59.09 72.59 54.9 74.67 52.03 78.33 59.09"/><polygon id="_Path_50" data-name="&lt;Path&gt;" class="cls-4" points="69.97 59.09 75.73 54.9 73.63 52.03 69.97 59.09"/><polygon id="_Path_51" data-name="&lt;Path&gt;" class="cls-4" points="69.97 59.09 72.17 52.34 75.55 53.42 69.97 59.09"/><rect id="_Path_52" data-name="&lt;Path&gt;" class="cls-4" width="220" height="42.67"/><rect id="_Path_53" data-name="&lt;Path&gt;" class="cls-4" y="85.34" width="220" height="42.66"/></g></g></g></g></svg>