<svg id="Layer_1" data-name="Layer 1" xmlns="http://www.w3.org/2000/svg" xmlns:xlink="http://www.w3.org/1999/xlink" viewBox="0 0 220 128"><defs><style>.cls-1{fill:none;}.cls-2{clip-path:url(#clip-path);}.cls-3{fill:#00b1cc;}.cls-4{fill:#fec601;}.cls-5{fill:#4fadc2;}</style><clipPath id="clip-path"><rect id="_Clipping_Path_" data-name="&lt;Clipping Path&gt;" class="cls-1" width="219.43" height="128"/></clipPath></defs><title>Flag_rect_Kazakhstan</title><g id="KAZAKHSTAN"><g id="_Group_" data-name="&lt;Group&gt;"><g id="_Clip_Group_" data-name="&lt;Clip Group&gt;"><g class="cls-2"><rect id="_Path_" data-name="&lt;Path&gt;" class="cls-3" width="219.43" height="128"/><g id="_Clip_Group_2" data-name="&lt;Clip Group&gt;"><g class="cls-2"><path id="_Path_2" data-name="&lt;Path&gt;" class="cls-4" d="M14.39,90.28a4,4,0,0,1,4.13-3.88c2.42,0,3.74,1.45,3.74,3.34a5.7,5.7,0,0,1-.71,2.81s-4,8.33-5.59,11.57a3.59,3.59,0,0,0-.25,1.53,2,2,0,0,0,4.07-.05c0-1.25-.65-1.81-1.32-1.81-.85,0-1.2.33-1.2.92,0,.41.21.59.5.59.7,0,.5-1,.5-1a.67.67,0,0,1,.5.89,1.45,1.45,0,0,1,.68.41,1.28,1.28,0,0,1-.68.38.64.64,0,0,1-.56.92.93.93,0,0,0,.09-.56,1.5,1.5,0,0,1-2-1.46A2.09,2.09,0,0,1,19,102.77a1.26,1.26,0,0,1-.65-1,3.11,3.11,0,0,0,.65.12,2.22,2.22,0,0,1-.45-1.35c.3.18.6.43,1,.28-.64-1.28.14-3,2.13-3.4a4.15,4.15,0,0,0-1.08,2.69c0,3,.83,3.47.83,5.51a3.12,3.12,0,0,1-1.32,2.45v0a1.61,1.61,0,0,1,1.15.82,8.17,8.17,0,0,1-4.29-.06,3.11,3.11,0,0,1-2.27-1.5,4.45,4.45,0,0,1,0-3.65c.79-1.66,4.52-9.56,5.67-12a3.93,3.93,0,0,0,.41-1.69,2.09,2.09,0,0,0-2.19-2,1.85,1.85,0,0,0-1.92,1.63.81.81,0,0,0,.76.9c1.07,0,1-.9.78-1.48.68.3,1.09.81,1,1.37a1.77,1.77,0,0,1,1.07.64,1.35,1.35,0,0,1-1.07.57c.22.89-.37,1.22-1,1.43.21-.62.32-1.36-.78-1.36a2.08,2.08,0,0,1-1.79-.64c0,.67-.08,3.37-.08,3.37,0,1,1.37,1,2.26.72a2.13,2.13,0,0,1-2.64,1.66A1.23,1.23,0,0,1,16,97.92a3.24,3.24,0,0,1-1.29,2.32Z"/><path id="_Path_3" data-name="&lt;Path&gt;" class="cls-4" d="M14.91,90.28a4,4,0,0,0-4.12-3.88c-2.43,0-3.72,1.45-3.72,3.34a5.66,5.66,0,0,0,.68,2.81l5.61,11.57a3.44,3.44,0,0,1,.25,1.53,2,2,0,0,1-4.08-.05c0-1.25.65-1.81,1.32-1.81.85,0,1.18.33,1.18.92,0,.41-.19.59-.49.59-.7,0-.51-1-.51-1a.67.67,0,0,0-.48.89,1.53,1.53,0,0,0-.69.41,1.39,1.39,0,0,0,.69.38c-.16.56.06.82.55.92a.8.8,0,0,1-.08-.56A1.48,1.48,0,0,0,13,104.91a2.07,2.07,0,0,0-2.62-2.14,1.17,1.17,0,0,0,.65-1,2.82,2.82,0,0,1-.65.12,2.1,2.1,0,0,0,.48-1.35c-.32.18-.63.43-1,.28.64-1.28-.14-3-2.13-3.4a4,4,0,0,1,1.09,2.69c0,3-.83,3.47-.83,5.51a3,3,0,0,0,1.33,2.45v0a1.71,1.71,0,0,0-1.18.82,8.19,8.19,0,0,0,4.3-.06,3.18,3.18,0,0,0,2.29-1.5,4.67,4.67,0,0,0,0-3.65c-.82-1.66-4.53-9.56-5.7-12a4.22,4.22,0,0,1-.38-1.69,2.09,2.09,0,0,1,2.18-2,1.85,1.85,0,0,1,1.91,1.63.8.8,0,0,1-.76.9c-1.06,0-1-.9-.79-1.48-.66.3-1,.81-.94,1.37a1.85,1.85,0,0,0-1.08.64,1.39,1.39,0,0,0,1.08.57c-.22.89.37,1.22.94,1.43-.19-.62-.3-1.36.79-1.36a2.07,2.07,0,0,0,1.79-.64c0,.67.09,3.37.09,3.37.05,1-1.37,1-2.27.72.33,1.17,1,1.81,2.65,1.66a1.23,1.23,0,0,0-.81,1.23,3.25,3.25,0,0,0,1.3,2.32Z"/><path id="_Path_4" data-name="&lt;Path&gt;" class="cls-4" d="M14.66,118s1.2,1,1.63.49c.67-.82-2-4.9-2-6.36,0-2.38,1.57-3,3.53-3.35a13.39,13.39,0,0,1,3.44.11,1.46,1.46,0,0,1-1.33.74,2.82,2.82,0,0,1,1.54,2.55c0,2-.85,2.89-.85,5.16a6.73,6.73,0,0,0,1,2.91,2.48,2.48,0,0,1-2.24-3.27.85.85,0,0,0-.79.26A1.44,1.44,0,0,1,19,116c-.24-.1-.4,0-.78,0a1.85,1.85,0,0,1,.84-1.2,2,2,0,0,1-2.68-1.94,1.48,1.48,0,0,1,1.27-1.56,1.1,1.1,0,0,1,.69.21,1,1,0,0,0-.09-.82c.47.1.75.36.56,1a1.08,1.08,0,0,1,.82.35.88.88,0,0,1-.82.39c.25.53,0,.84-.46,1.07,0,0,.28-1.07-.4-1.07-.32,0-.6.12-.6.56a1,1,0,0,0,1.16.92c.77,0,1.42-.56,1.42-1.84s-.93-1.74-2.18-1.76a1.7,1.7,0,0,0-2,1.73c0,1.51,2.22,5,2.22,6.36A1.69,1.69,0,0,1,16.12,120,3.42,3.42,0,0,1,14,118.81Z"/><path id="_Path_5" data-name="&lt;Path&gt;" class="cls-4" d="M14.66,118s-1.21,1-1.62.49c-.68-.82,2-4.9,2-6.36,0-2.38-1.6-3-3.54-3.35a13.66,13.66,0,0,0-3.47.11,1.52,1.52,0,0,0,1.34.74,2.82,2.82,0,0,0-1.49,2.55c0,2,.81,2.89.81,5.16a6.73,6.73,0,0,1-1,2.91A2.5,2.5,0,0,0,10,116.94a.89.89,0,0,1,.79.26,1.56,1.56,0,0,0-.37-1.23c.22-.1.39,0,.76,0a1.74,1.74,0,0,0-.85-1.2A2,2,0,0,0,13,112.88a1.46,1.46,0,0,0-1.27-1.56,1.08,1.08,0,0,0-.67.21,1,1,0,0,1,.07-.82c-.45.1-.76.36-.55,1a1.06,1.06,0,0,0-.82.35.89.89,0,0,0,.82.39c-.26.53,0,.84.44,1.07,0,0-.25-1.07.43-1.07A.51.51,0,0,1,12,113a1,1,0,0,1-1.15.92c-.78,0-1.41-.56-1.41-1.84s.93-1.74,2.18-1.76a1.68,1.68,0,0,1,2,1.73c0,1.51-2.21,5-2.21,6.36A1.69,1.69,0,0,0,13.18,120a3.33,3.33,0,0,0,2.16-1.15Z"/><path id="_Path_6" data-name="&lt;Path&gt;" class="cls-4" d="M14.39,45.43a4,4,0,0,1,4.13-3.88c2.42,0,3.74,1.48,3.74,3.37a5.6,5.6,0,0,1-.71,2.79L16,59.28a3.71,3.71,0,0,0-.25,1.53,2,2,0,0,0,4.07,0c0-1.27-.65-1.81-1.32-1.81-.85,0-1.2.31-1.2.92,0,.41.21.59.5.59.7,0,.5-1,.5-1a.7.7,0,0,1,.5.92,1.14,1.14,0,0,1,.68.41,1.51,1.51,0,0,1-.68.38.64.64,0,0,1-.56.92,1,1,0,0,0,.09-.59,1.47,1.47,0,0,1-2-1.45A2.07,2.07,0,0,1,19,58a1.26,1.26,0,0,1-.65-1.05A2,2,0,0,0,19,57a2.11,2.11,0,0,1-.45-1.33c.3.15.6.41,1,.26-.64-1.26.14-3,2.13-3.4a4.3,4.3,0,0,0-1.08,2.71c0,3,.83,3.44.83,5.51a3.12,3.12,0,0,1-1.32,2.45v0a1.61,1.61,0,0,1,1.15.79,7.69,7.69,0,0,1-4.29,0,3.12,3.12,0,0,1-2.27-1.48,4.45,4.45,0,0,1,0-3.65c.79-1.66,4.52-9.56,5.67-12a3.83,3.83,0,0,0,.41-1.69,2.1,2.1,0,0,0-2.19-2,1.85,1.85,0,0,0-1.92,1.61.79.79,0,0,0,.76.89c1.07,0,1-.89.78-1.45.68.3,1.09.84,1,1.37a1.77,1.77,0,0,1,1.07.64,1.5,1.5,0,0,1-1.07.56c.22.87-.37,1.26-1,1.44.21-.64.32-1.36-.78-1.36a2.08,2.08,0,0,1-1.79-.64c0,.67-.08,3.37-.08,3.37,0,1,1.37,1,2.26.69-.34,1.2-1,1.82-2.64,1.66A1.31,1.31,0,0,1,16,53.1a3.24,3.24,0,0,1-1.29,2.32Z"/><path id="_Path_7" data-name="&lt;Path&gt;" class="cls-4" d="M14.91,45.43a4,4,0,0,0-4.12-3.88c-2.43,0-3.72,1.48-3.72,3.37a5.57,5.57,0,0,0,.68,2.79s4,8.35,5.61,11.57a3.55,3.55,0,0,1,.25,1.53,2,2,0,0,1-4.08,0c0-1.27.65-1.81,1.32-1.81.85,0,1.18.31,1.18.92,0,.41-.19.59-.49.59-.7,0-.51-1-.51-1a.7.7,0,0,0-.48.92,1.19,1.19,0,0,0-.69.41,1.66,1.66,0,0,0,.69.38.64.64,0,0,0,.55.92.85.85,0,0,1-.08-.59A1.46,1.46,0,0,0,13,60.07,2.06,2.06,0,0,0,10.34,58,1.18,1.18,0,0,0,11,56.9a1.84,1.84,0,0,1-.65.13,2,2,0,0,0,.48-1.33c-.32.15-.63.41-1,.26.64-1.26-.14-3-2.13-3.4a4.15,4.15,0,0,1,1.09,2.71c0,3-.83,3.44-.83,5.51a3,3,0,0,0,1.33,2.45v0A1.71,1.71,0,0,0,8.07,64a7.71,7.71,0,0,0,4.3,0,3.19,3.19,0,0,0,2.29-1.48,4.67,4.67,0,0,0,0-3.65c-.82-1.66-4.53-9.56-5.7-12a4.1,4.1,0,0,1-.38-1.69,2.1,2.1,0,0,1,2.18-2,1.85,1.85,0,0,1,1.91,1.61c0,.56-.31.89-.76.89-1.06,0-1-.89-.79-1.45a1.33,1.33,0,0,0-.94,1.37,1.85,1.85,0,0,0-1.08.64,1.54,1.54,0,0,0,1.08.56c-.22.87.37,1.26.94,1.44-.19-.64-.3-1.36.79-1.36a2.07,2.07,0,0,0,1.79-.64c0,.67.09,3.37.09,3.37.05,1-1.37,1-2.27.69.33,1.2,1,1.82,2.65,1.66a1.31,1.31,0,0,0-.81,1.26,3.25,3.25,0,0,0,1.3,2.32Z"/><path id="_Path_8" data-name="&lt;Path&gt;" class="cls-4" d="M14.91,37.75a4,4,0,0,1-4.12,3.88c-2.43,0-3.72-1.43-3.72-3.37a5.56,5.56,0,0,1,.68-2.76l5.61-11.6a3.36,3.36,0,0,0,.25-1.53,2,2,0,0,0-4.08,0c0,1.3.65,1.86,1.32,1.86.85,0,1.18-.36,1.18-.94,0-.41-.19-.59-.49-.59-.7,0-.51,1-.51,1a.66.66,0,0,1-.48-.89,1.37,1.37,0,0,1-.69-.41,1.48,1.48,0,0,1,.69-.39c-.16-.56.06-.84.55-.94a1,1,0,0,0-.08.61A1.46,1.46,0,0,1,13,23.11a2,2,0,0,1-2.62,2.12A1.22,1.22,0,0,1,11,26.28a3.15,3.15,0,0,0-.65-.13,2.09,2.09,0,0,1,.48,1.36c-.32-.16-.63-.44-1-.26.64,1.25-.14,3-2.13,3.37a4.08,4.08,0,0,0,1.09-2.68c0-3-.83-3.47-.83-5.54A3,3,0,0,1,9.25,20v0a1.91,1.91,0,0,1-1.18-.81,7.64,7.64,0,0,1,4.3,0,3.27,3.27,0,0,1,2.29,1.51,4.65,4.65,0,0,1,0,3.65c-.82,1.66-4.53,9.55-5.7,12a4.17,4.17,0,0,0-.38,1.68,2.13,2.13,0,0,0,2.18,2.07,1.87,1.87,0,0,0,1.91-1.61c0-.58-.31-.94-.76-.94-1.06,0-1,.92-.79,1.48a1.33,1.33,0,0,1-.94-1.38,1.74,1.74,0,0,1-1.08-.61,1.35,1.35,0,0,1,1.08-.59c-.22-.87.37-1.25.94-1.43-.19.61-.3,1.35.79,1.35a2,2,0,0,1,1.79.67c0-.69.09-3.42.09-3.42.05-1-1.37-1-2.27-.69.33-1.18,1-1.82,2.65-1.66a1.27,1.27,0,0,1-.81-1.23,3.21,3.21,0,0,1,1.3-2.32Z"/><path id="_Path_9" data-name="&lt;Path&gt;" class="cls-4" d="M14.39,37.75a4,4,0,0,0,4.13,3.88c2.42,0,3.74-1.43,3.74-3.37a5.59,5.59,0,0,0-.71-2.76s-4-8.35-5.59-11.6a3.5,3.5,0,0,1-.25-1.53,2,2,0,0,1,4.07,0c0,1.3-.65,1.86-1.32,1.86-.85,0-1.2-.36-1.2-.94,0-.41.21-.59.5-.59.7,0,.5,1,.5,1a.66.66,0,0,0,.5-.89,1.31,1.31,0,0,0,.68-.41,1.36,1.36,0,0,0-.68-.39.65.65,0,0,0-.56-.94,1.13,1.13,0,0,1,.09.61,1.47,1.47,0,0,0-2,1.43A2.06,2.06,0,0,0,19,25.23a1.31,1.31,0,0,0-.65,1.05,3.57,3.57,0,0,1,.65-.13,2.2,2.2,0,0,0-.45,1.36c.3-.16.6-.44,1-.26-.64,1.25.14,3,2.13,3.37a4.22,4.22,0,0,1-1.08-2.68c0-3,.83-3.47.83-5.54A3,3,0,0,0,20.07,20v0a1.78,1.78,0,0,0,1.15-.81,7.61,7.61,0,0,0-4.29,0,3.2,3.2,0,0,0-2.27,1.51,4.44,4.44,0,0,0,0,3.65c.79,1.66,4.52,9.55,5.67,12a3.89,3.89,0,0,1,.41,1.68,2.13,2.13,0,0,1-2.19,2.07,1.88,1.88,0,0,1-1.92-1.61c0-.58.33-.94.76-.94,1.07,0,1,.92.78,1.48.68-.28,1.09-.84,1-1.38a1.67,1.67,0,0,0,1.07-.61,1.32,1.32,0,0,0-1.07-.59c.22-.87-.37-1.25-1-1.43.21.61.32,1.35-.78,1.35a2,2,0,0,0-1.79.67c0-.69-.08-3.42-.08-3.42,0-1,1.37-1,2.26-.69a2.12,2.12,0,0,0-2.64-1.66A1.27,1.27,0,0,0,16,30.11a3.2,3.2,0,0,0-1.29-2.32Z"/><path id="_Path_10" data-name="&lt;Path&gt;" class="cls-4" d="M14.91,82.59a4,4,0,0,1-4.12,3.88c-2.43,0-3.72-1.48-3.72-3.37a5.6,5.6,0,0,1,.68-2.78s4-8.35,5.61-11.57a3.52,3.52,0,0,0,.25-1.53,2.12,2.12,0,0,0-2.07-1.94,2.09,2.09,0,0,0-2,1.94c0,1.3.65,1.86,1.32,1.86.85,0,1.18-.33,1.18-.94,0-.41-.19-.59-.49-.59-.7,0-.51,1-.51,1a.71.71,0,0,1-.48-.92,1.19,1.19,0,0,1-.69-.41,1.48,1.48,0,0,1,.69-.39c-.16-.53.06-.81.55-.94a1,1,0,0,0-.08.61A1.46,1.46,0,0,1,13,67.93a2.07,2.07,0,0,1-2.62,2.15,1.17,1.17,0,0,1,.65,1,2.32,2.32,0,0,0-.65-.16,2.15,2.15,0,0,1,.48,1.36c-.32-.16-.63-.41-1-.26.64,1.25-.14,3-2.13,3.37a4,4,0,0,0,1.09-2.68c0-3-.83-3.45-.83-5.54a3,3,0,0,1,1.33-2.4v0A1.73,1.73,0,0,1,8.07,64a8.09,8.09,0,0,1,4.3,0,3.27,3.27,0,0,1,2.29,1.51,4.65,4.65,0,0,1,0,3.65c-.82,1.66-4.53,9.55-5.7,12a4.13,4.13,0,0,0-.38,1.68,2.09,2.09,0,0,0,2.18,2,1.86,1.86,0,0,0,1.91-1.61c0-.56-.31-.92-.76-.92-1.06,0-1,.92-.79,1.48-.66-.31-1-.82-.94-1.4a1.76,1.76,0,0,1-1.08-.59,1.32,1.32,0,0,1,1.08-.56c-.22-.9.37-1.28.94-1.49-.19.67-.3,1.38.79,1.38a2,2,0,0,1,1.79.67c0-.69.09-3.42.09-3.42.05-1-1.37-1-2.27-.69.33-1.18,1-1.79,2.65-1.64A1.25,1.25,0,0,1,13.36,75a3.37,3.37,0,0,1,1.3-2.38Z"/><path id="_Path_11" data-name="&lt;Path&gt;" class="cls-4" d="M14.39,82.59a4,4,0,0,0,4.13,3.88c2.42,0,3.74-1.48,3.74-3.37a5.64,5.64,0,0,0-.71-2.78L16,68.75a3.68,3.68,0,0,1-.25-1.53,2,2,0,0,1,4.07,0c0,1.3-.65,1.86-1.32,1.86-.85,0-1.2-.33-1.2-.94,0-.41.21-.59.5-.59.7,0,.5,1,.5,1a.7.7,0,0,0,.5-.92,1.14,1.14,0,0,0,.68-.41,1.36,1.36,0,0,0-.68-.39c.16-.53-.07-.81-.56-.94a1.15,1.15,0,0,1,.09.61,1.47,1.47,0,0,0-2,1.43A2.08,2.08,0,0,0,19,70.08a1.25,1.25,0,0,0-.65,1A2.57,2.57,0,0,1,19,71a2.28,2.28,0,0,0-.45,1.36c.3-.16.6-.41,1-.26-.64,1.25.14,3,2.13,3.37a4.16,4.16,0,0,1-1.08-2.68c0-3,.83-3.45.83-5.54a3,3,0,0,0-1.32-2.4v0A1.63,1.63,0,0,0,21.22,64a8.07,8.07,0,0,0-4.29,0,3.2,3.2,0,0,0-2.27,1.51,4.44,4.44,0,0,0,0,3.65c.79,1.66,4.52,9.55,5.67,12a3.86,3.86,0,0,1,.41,1.68,2.09,2.09,0,0,1-2.19,2,1.86,1.86,0,0,1-1.92-1.61.81.81,0,0,1,.76-.92c1.07,0,1,.92.78,1.48.68-.31,1.09-.82,1-1.4a1.69,1.69,0,0,0,1.07-.59,1.29,1.29,0,0,0-1.07-.56c.22-.9-.37-1.28-1-1.49.21.67.32,1.38-.78,1.38a2,2,0,0,0-1.79.67c0-.69-.08-3.42-.08-3.42,0-1,1.37-1,2.26-.69-.34-1.18-1-1.79-2.64-1.64A1.25,1.25,0,0,0,16,75a3.36,3.36,0,0,0-1.29-2.38Z"/><path id="_Path_12" data-name="&lt;Path&gt;" class="cls-4" d="M14.66,10.09s1.2-1,1.63-.54c.67.84-2,5-2,6.39,0,2.37,1.57,3,3.53,3.34a15.35,15.35,0,0,0,3.44-.07,1.32,1.32,0,0,0-1.33-.75,2.85,2.85,0,0,0,1.54-2.57c0-2.05-.85-2.87-.85-5.19a6.72,6.72,0,0,1,1-2.89,2.46,2.46,0,0,0-2.24,3.25.83.83,0,0,1-.79-.23A1.37,1.37,0,0,0,19,12c-.24.13-.4.05-.78,0A1.77,1.77,0,0,0,19,13.2a2,2,0,0,0-2.68,1.94A1.46,1.46,0,0,0,17.6,16.7a1.35,1.35,0,0,0,.69-.23,1.09,1.09,0,0,1-.09.87c.47-.13.75-.38.56-1a1.21,1.21,0,0,0,.82-.36,1,1,0,0,0-.82-.41c.25-.51,0-.81-.46-1,0,0,.28,1-.4,1-.32,0-.6-.1-.6-.53s.35-.92,1.16-.9,1.42.54,1.42,1.82S19,17.72,17.7,17.75a1.7,1.7,0,0,1-2-1.69c0-1.55,2.22-5,2.22-6.41A1.71,1.71,0,0,0,16.12,8,3.4,3.4,0,0,0,14,9.22Z"/><path id="_Path_13" data-name="&lt;Path&gt;" class="cls-4" d="M14.66,10.09s-1.21-1-1.62-.54c-.68.84,2,5,2,6.39,0,2.37-1.6,3-3.54,3.34a15.65,15.65,0,0,1-3.47-.07,1.37,1.37,0,0,1,1.34-.75,2.85,2.85,0,0,1-1.49-2.57c0-2.05.81-2.87.81-5.19a6.72,6.72,0,0,0-1-2.89A2.48,2.48,0,0,1,10,11.06a.86.86,0,0,0,.79-.23,1.47,1.47,0,0,1-.37,1.2c.22.13.39.05.76,0a1.66,1.66,0,0,1-.85,1.2A2,2,0,0,1,13,15.14,1.44,1.44,0,0,1,11.7,16.7a1.35,1.35,0,0,1-.67-.23,1.09,1.09,0,0,0,.07.87c-.45-.13-.76-.38-.55-1A1.19,1.19,0,0,1,9.73,16a1,1,0,0,1,.82-.41c-.26-.51,0-.81.44-1,0,0-.25,1,.43,1,.3,0,.58-.1.58-.53s-.34-.92-1.15-.9S9.44,14.71,9.44,16s.93,1.73,2.18,1.76a1.67,1.67,0,0,0,2-1.69c0-1.55-2.21-5-2.21-6.41A1.7,1.7,0,0,1,13.18,8a3.31,3.31,0,0,1,2.16,1.18Z"/><path id="_Path_14" data-name="&lt;Path&gt;" class="cls-5" d="M12.26,82.36c0-.18-.46-.07-.78,0s-.56.26-.54.46.44.1.78,0,.56-.26.54-.49Z"/><g id="_Group_2" data-name="&lt;Group&gt;"><path id="_Path_15" data-name="&lt;Path&gt;" class="cls-5" d="M11.16,83.05H11l-.21-.23c0-.28.2-.48.62-.59a4,4,0,0,1,.63-.1h.11l.21.23c0,.28-.22.51-.63.62a2.91,2.91,0,0,1-.6.07Z"/></g><path id="_Path_16" data-name="&lt;Path&gt;" class="cls-4" d="M114.55,87A30.46,30.46,0,0,1,84.19,59.48s-.68-.26-.78.36c-.19,1.45.42,6,.18,5.64-.41-.59-3.55-9-4.11-8.07C78.71,58.64,83,68.19,82.73,68.5c-.85,1-5.76-9.35-6.15-8.59-1.5,2.92,6,12.31,6,12.7-.15,1.25-5.75-5.06-6.22-4.4-1.06,1.54,6,7.1,6.39,7.54,1.11,1.25-3.86-2.25-4-1-.13,1,2.4,3,3.9,3.83s2,.61,2.44,1.35c.32.56-2.85-.36-2.74.33.15,1.38,3.47,1.1,4,1.71s-2.25.16-2.12.67c.17.89,3,1,3,1.4s-1.76.13-1.65.85,2.85.51,3.51,1-2.45,0,0,1.25a33.34,33.34,0,0,0,9,3.32c3.81.76,5.74-.08,5.9-.34s-1.82.21-4.51-.28a28.48,28.48,0,0,1-7.79-3.09c-.47-.23,1.43-.79,1-1.32s-1.93.07-2.51-.67c-.39-.48.73-.48.69-.79s-2.11-.77-2.48-1.3.93-.41,1-.77-1.32-.71-1.41-1,1.5-.25.75-.68-3-1-3.39-1.79,1.66.1,1.12-.62c-.37-.51-2.37-1.35-2.79-2.5-.29-.79,1.42-.1,1.45-.61,0-.79-1-.28-1.34-2.56-.11-.74,1.33-.22,1.33-.22l.22-.39a16,16,0,0,1,3.85,3.47c2.18,2.53,2.8,4.91,4.85,6.62,1,.84,1-.31,3.25,1.07A42.57,42.57,0,0,1,102.77,87c.33.28,1.85-.28,6.33.66,2.43.51,2.91,1.77,2.91,1.77a6.54,6.54,0,0,0,2-1.77c.26-.41.52,0,.59-.1.25-.23,0-.53,0-.53Z"/><g id="_Group_3" data-name="&lt;Group&gt;"><path id="_Compound_Path_" data-name="&lt;Compound Path&gt;" class="cls-4" d="M101,90.87A17.5,17.5,0,0,1,98,90.56a34.26,34.26,0,0,1-9-3.35c-.76-.38-1-.61-1-.86s.37-.31.72-.36c.12,0,.3,0,.34-.1a6.63,6.63,0,0,0-1.66-.31c-1-.13-1.9-.25-1.95-.69l0,0,.1-.31c.18-.26.64-.33,1-.38a2.76,2.76,0,0,0,.55-.16,4.74,4.74,0,0,0-.92-.28c-.88-.23-2-.48-2.1-1.12.19-.39.58-.41,1.23-.41.34,0,.9,0,1-.13-.19-.25-.83-.36-1.44-.46-1.16-.2-2.47-.43-2.58-1.35.33-.67,1-.44,1.75-.36.29,0,.57,0,.78,0,0-.38-.23-.43-.68-.61a7.56,7.56,0,0,1-1.48-.67c-1.41-.79-4.12-2.88-4-4,0-.15.1-.38.47-.38a8.5,8.5,0,0,1,2.67,1.07,6.94,6.94,0,0,0,1.12.51,7.73,7.73,0,0,1-.93-.69c-3.27-2.83-6.5-5.85-5.68-7,.62-.13,1.61.74,3.14,2.15,1.15,1,2.59,2.35,3,2.35a5.78,5.78,0,0,0-.93-1.53c-2-2.92-6.19-9-5-11.27.51-.12,1.09.85,2.57,3.4,1.19,2,3,5.18,3.56,5.18a18.64,18.64,0,0,0-.94-2.86c-1.55-4-2.77-7.45-2.29-8.25.67-.12,1.67,1.92,3.37,5.93.39.84.7,1.61.87,2a10.77,10.77,0,0,1-.19-1.46,28.31,28.31,0,0,1-.12-4,.55.55,0,0,1,.59-.51,1.1,1.1,0,0,1,.36.08,30.27,30.27,0,0,0,30.21,27.45.52.52,0,0,1,.37.49v.05l-.15.25-.21-.12-.2.07a7.13,7.13,0,0,1-2.25,2,4,4,0,0,0-2.93-1.81,25.12,25.12,0,0,0-5-.57h-.82c-.33,0-.51,0-.63-.12l-1.33-1.13a28.31,28.31,0,0,0-4.14-3.22A3.46,3.46,0,0,0,95.28,82h-.44a1.24,1.24,0,0,1-.88-.36,13.46,13.46,0,0,1-2.65-3.45A21.48,21.48,0,0,0,89.08,75a16.07,16.07,0,0,0-3.84-3.45l0,.36c-.16.07-.6-.08-1-.08a.49.49,0,0,0-.32.08c.16,1.5.6,1.81.91,2.06a.7.7,0,0,1,.4.67c0,.33-.43.33-.58.33h-.5c-.27,0-.34,0-.37,0a4.2,4.2,0,0,0,1.89,2,3.65,3.65,0,0,1,.88.69l0,.07,0,.29c-.06.12-.23.12-.37.12l-.64,0c.07.64,1.17,1.1,2,1.45A7.87,7.87,0,0,1,88.8,80c.13,0,.28.18.25.34s-.24.22-.53.28a1,1,0,0,0-.42.15c0,.1.43.31.71.46.44.23.72.41.69.61s-.33.33-.6.41a1.54,1.54,0,0,0-.46.18,3.54,3.54,0,0,0,1.48.87c.73.25,1,.41,1.07.61s-.23.31-.44.41-.3.13-.32.2c.32.46.88.46,1.42.49s.93,0,1.15.31l.07.28c-.05.28-.41.51-.74.71a1.83,1.83,0,0,0-.41.33,29.14,29.14,0,0,0,7.75,3,13.74,13.74,0,0,0,2.79.28l1,0,.43,0c.23,0,.34,0,.4.1-.14.41-1.2.9-3.12.9ZM83,80.09c-.4,0-.49,0-.52.1.09.79,1.36,1,2.35,1.2a2.73,2.73,0,0,1,1.59.49l0,.07,0,.23c-.11.23-.52.23-1.18.26-.34,0-.94,0-1,.15.09.44,1.15.72,1.92.92s1.08.28,1.11.51-.36.33-.77.39-.71.12-.85.28c0,.43,1,.56,1.72.64a5.24,5.24,0,0,1,1.71.38l.15.28c0,.15-.25.18-.55.25-.14,0-.45.08-.51.16s0,.18.87.59a33,33,0,0,0,9,3.29,13,13,0,0,0,2.87.33c1.86,0,2.8-.46,2.89-.61l-.59.15c-.28,0-.61,0-1,0a17.13,17.13,0,0,1-2.84-.26,28.67,28.67,0,0,1-7.84-3.09c-.13-.38.1-.51.4-.71a1.83,1.83,0,0,0,.64-.54c-.17-.31-.55-.31-1-.31a1.92,1.92,0,0,1-1.56-.48L90,84.46c0-.21.28-.28.49-.39s.28-.1.29-.15a6.54,6.54,0,0,0-.9-.41,3,3,0,0,1-1.56-.82l-.08-.33c.07-.18.33-.25.61-.35s.43-.11.43-.18a2.71,2.71,0,0,0-.57-.36c-.46-.26-.78-.41-.84-.64.12-.33.36-.38.63-.43a1.94,1.94,0,0,0,.34-.11,11.84,11.84,0,0,0-1.22-.53c-1-.36-2.07-.79-2.37-1.36l0-.07V78c.14-.23.48-.15.79-.13h.29c0-.25-.35-.46-.74-.74a4.87,4.87,0,0,1-2-1.91.44.44,0,0,1,0-.39c.11-.15.35-.17.58-.17l.5,0c.14,0,.32,0,.33-.1s-.1-.31-.3-.46a2.75,2.75,0,0,1-1-2.07.5.5,0,0,1,.1-.36c.27-.33,1.37,0,1.4,0l0-.33h0c.27,0,1.93.94,4.08,3.44a22.77,22.77,0,0,1,2.26,3.27,12.34,12.34,0,0,0,2.58,3.37,1,1,0,0,0,.72.28h.44a4,4,0,0,1,2.07.77,28.26,28.26,0,0,1,4.15,3.19l1.34,1.18c.07.07.35.07.46.07l.82,0a24.54,24.54,0,0,1,5,.59c2.46.51,3,1.78,3,1.83a25.1,25.1,0,0,0,1.78-1.78.38.38,0,0,1,.34-.26l.27.08,0-.38-.1.12A30.43,30.43,0,0,1,84.06,59.58h-.18c-.19,0-.3.05-.33.28a25.65,25.65,0,0,0,.12,3.88c.12,1.51.15,1.74,0,1.82-.36-.21-.67-.92-1.2-2.22-.82-1.89-2.48-5.83-2.94-5.85-.47.74,1.28,5.31,2.3,8,1,2.52,1.08,2.93,1,3l-.26.12c-.66,0-1.93-2.06-3.78-5.26A18.84,18.84,0,0,0,76.62,60c-1,2.12,3.09,8.1,5.08,11,.85,1.28,1,1.51,1,1.66l0,.13-.28.15c-.48,0-1.53-.92-3.19-2.4a12,12,0,0,0-2.74-2.22c-.81,1.18,4,5.34,5.63,6.69.41.36.67.59.74.67s.21.3.18.4c-.34.08-.69-.07-1.38-.46a9.68,9.68,0,0,0-2.57-1,.21.21,0,0,0-.23.16c-.1.86,2.21,2.78,3.86,3.7a6.24,6.24,0,0,0,1.43.66,1.64,1.64,0,0,1,1.06.74c-.13.77-.69.41-1.27.34a6.52,6.52,0,0,0-1-.08Z"/></g><path id="_Path_17" data-name="&lt;Path&gt;" class="cls-4" d="M126.11,92.12c-.63-.13-.56.36-.56.36a1.45,1.45,0,0,1-.91,1.43c-.41.07-.2.38-.33.66l-1.67-.08a16.66,16.66,0,0,1-10,1.48s-.85.64-1.57,1.28-1.28.84-1.42,1.35.38.82,1.07.85a3.35,3.35,0,0,0,1.58-.61.85.85,0,0,0,.76.58,5.79,5.79,0,0,0,1.79-.38,3.92,3.92,0,0,0,1.72.33,3.5,3.5,0,0,0,1.35-.56s.2.84.94.87,1.85-.9,1.85-.9a1.55,1.55,0,0,0,1.22.54,3.37,3.37,0,0,0,1.5-.89,2.51,2.51,0,0,0,1.62.12,4.4,4.4,0,0,0,1.56-1,1.55,1.55,0,0,0,1.32.36c.63-.2,1.06-1.1,1.06-1.1a4,4,0,0,0,2.83.13c.78-.36.58-1.61.58-1.61s4.65.66,4.46-2.37c0-.34-7.51-.23-10.79-.82Z"/><g id="_Group_4" data-name="&lt;Group&gt;"><path id="_Compound_Path_2" data-name="&lt;Compound Path&gt;" class="cls-4" d="M118.93,99.83h-.05a1.22,1.22,0,0,1-1-.92,1.88,1.88,0,0,1-1.25.59,8.11,8.11,0,0,1-1.79-.33,5.17,5.17,0,0,1-1.61.38,1,1,0,0,1-1-.66,2.06,2.06,0,0,1-1.44.69,1.59,1.59,0,0,1-1.15-.41.78.78,0,0,1-.09-.62,1.74,1.74,0,0,1,.79-.84l.67-.53c.75-.64,1.59-1.31,1.59-1.31,1,.08,1.91.13,2.77.13a15,15,0,0,0,7.21-1.63l1.72.07c-.06-.36,0-.56.31-.66a1.36,1.36,0,0,0,.83-1.3.39.39,0,0,1,.07-.36.58.58,0,0,1,.41-.18,57.15,57.15,0,0,0,7.54.59c3.32.12,3.53.18,3.56.38a2.09,2.09,0,0,1-.54,1.66,4.28,4.28,0,0,1-3,1h0a6.08,6.08,0,0,1-1-.08,1.3,1.3,0,0,1-.55,1.61,4.88,4.88,0,0,1-2.9-.13,1.62,1.62,0,0,1-1,1.1,1.85,1.85,0,0,1-1.42-.39,2.51,2.51,0,0,1-1.44,1.05,3.34,3.34,0,0,1-1.72-.13,2.51,2.51,0,0,1-1.43.92h0a1.78,1.78,0,0,1-1.3-.61,2.7,2.7,0,0,1-1.74,1Zm-1.06-1.12c.22.13.4.84,1,.84l0,.13v-.1a4.12,4.12,0,0,0,1.75-.9c.18,0,.62.51,1.18.51a3.45,3.45,0,0,0,1.54-.84,7.07,7.07,0,0,0,1.13.15,1.24,1.24,0,0,0,.52-.07,4.2,4.2,0,0,0,1.49-1,3.4,3.4,0,0,0,1.14.38,2.22,2.22,0,0,0,1.23-1.1c.2,0,1,.28,1.87.28a2.48,2.48,0,0,0,1-.2c.7-.31.51-1.48.51-1.51a3.26,3.26,0,0,1,1.17-.08h0a4,4,0,0,0,2.84-.84,1.8,1.8,0,0,0,.45-1.45c-.14,0-1.75-.08-3.31-.16a66.63,66.63,0,0,1-7.38-.53l-.34,0a1.69,1.69,0,0,1-1,1.74c-.17,0-.18.1-.18.28a.85.85,0,0,1-.07.33l-1.79,0c-2.57,1.45-6,1.94-10,1.53,0,0-.75.61-1.45,1.25a7,7,0,0,1-.72.54c-.37.28-.59.4-.68.71a.43.43,0,0,0,0,.36,1.34,1.34,0,0,0,.92.33h0a3.13,3.13,0,0,0,1.51-.61c.21.1.31.51.83.56h0a6.71,6.71,0,0,0,1.72-.36,6.46,6.46,0,0,0,1.54.33,3,3,0,0,0,1.49-.53Z"/></g><path id="_Path_18" data-name="&lt;Path&gt;" class="cls-4" d="M116.19,88.87a23.32,23.32,0,0,1,3.74-1c4.51-.95,6.07-.64,6.38-.92,3.57-4,6.18-4.27,8.76-5.29,2.07-1.73,2.75-4.21,4.93-6.74s3.48-2.73,3.48-2.73l.28.56s1.17-.87,1.11-.13c-.09,1.13-1,2.2-1,3,0,.52,1.59-.2,1.45.23-.37,1.2-1.63,1.92-2,2.4-.56.77,1.43-.25,1,.52s-2.4,1.58-3.18,2.06c-.49.29.52.36.42.69s-2.15,1.13-2.12,1.38.55.39.3.64c-.43.49-2.13.54-2.15.84s.35.59,0,1.08c-.6.76-1.06,0-1.31.61-.13.36,1,1,.23,1.2a7.65,7.65,0,0,0-2.7,1.17,21,21,0,0,1-2.72.75c-.59.12-3.77.53-3.63.79s2.15.23,6.39-.51A37.92,37.92,0,0,0,139.66,88c3.28-1-.84-1.12-.17-1.56s3.51-.23,3.63-.87-1.58-.51-1.55-.89,3.46-.38,3.67-1.3c.1-.51-1.94-.13-1.46-.74s3.22-.77,3.32-2c.05-.69-2.23.18-1.94-.41.13-.23,1.05-.51,2-1.12,1.44-1,3.71-2.73,3.57-3.7-.11-1.23-4.72,2.8-4.31,1.27.12-.56,7.47-6.33,6.28-7.76-.83-1-6.07,5.29-6.25,4,0-.4,8.16-9.65,6.67-12.56-.4-.77-6.58,11.08-7.43,10.06-.23-.28,5.26-11.7,4.38-12.82-.41-.59-1.29,1.33-2.22,3.4s-2,4.42-2.19,4.72.24-4.47,0-5.92c-.09-.62-.76-.36-.76-.36-.95,14.84-15.2,25.85-26.57,27.48-2.94.41-3.87,1.81-7.11,3.65-1.07.59-2.75.87-4.19,1.69a8.58,8.58,0,0,0-3,2.78,1.65,1.65,0,0,0,.4,1.58c.32.11.29-.79.62-1s.33.36.76.33a1.88,1.88,0,0,0,.84-.41s8,0,11.44-.1a3.53,3.53,0,0,0,2.08-.74c-.13-.38-1.06-.18-1.65-.15-2.41-.16-5.59,0-7.85-.13a.36.36,0,0,1-.33-.41,16.88,16.88,0,0,1,1.44-1.69h-1.13a3.53,3.53,0,0,1-1,.41c-.33,0-.47-.18-.33-.28a55.15,55.15,0,0,1,6.86-3.63Z"/><g id="_Group_5" data-name="&lt;Group&gt;"><path id="_Compound_Path_3" data-name="&lt;Compound Path&gt;" class="cls-4" d="M104.53,96.77h-.1c-.24-.08-.4-.51-.45-.67A1.41,1.41,0,0,1,104,95a8.38,8.38,0,0,1,3-2.83,13.66,13.66,0,0,1,2.38-1,11.84,11.84,0,0,0,1.83-.72c1-.58,1.81-1.12,2.52-1.61a10,10,0,0,1,4.63-2c12-1.71,25.53-13.13,26.45-27.35a.62.62,0,0,1,1,.33,32.41,32.41,0,0,1,0,3.93c0,.9-.1,1.82-.07,1.95a39,39,0,0,1,1.71-4l.29-.69c1.1-2.43,1.67-3.6,2.2-3.6h0l.22.17c.56.75-1.07,4.78-3.09,9.63a23.28,23.28,0,0,0-1.27,3.22c.61,0,2.77-3.52,4.34-6.08,1.85-3,2.56-4.08,2.9-4.08,1.34,2.37-3.18,8.35-5.39,11.26-.53.69-1,1.33-1.08,1.45A10.53,10.53,0,0,0,149,71.15c1.32-1.2,2.69-2.43,3.38-2.43h.05l.31.13c.83,1-1.89,3.68-4.75,6.39a13.9,13.9,0,0,0-1.51,1.48c.32.2,1.07-.23,1.79-.64,1.3-.82,2.48-1.33,2.55-.69.09.79-1.11,2.09-3.64,3.86a12,12,0,0,1-1.34.71,1.64,1.64,0,0,0-.57.36,2.19,2.19,0,0,0,.65,0c.54-.05,1-.05,1.2.13l.1.26c-.08.81-1.15,1.15-2.12,1.45a3.13,3.13,0,0,0-1.24.56c0,.16.37.21.58.23a1.29,1.29,0,0,1,.87.26c-.09.84-1.37,1.07-2.48,1.23a5.84,5.84,0,0,0-1.15.28,2.91,2.91,0,0,0,.52.12c.47.08,1.11.23,1,.77s-1,.54-2,.64a5.25,5.25,0,0,0-1.68.31,3.28,3.28,0,0,0,.53.17c.51.13,1,.29,1,.59s-.18.44-1.38.82a42.24,42.24,0,0,1-5.77,1.48,38.81,38.81,0,0,1-5.56.64c-.75,0-.92-.13-1-.23.1-.33.62-.44,2.6-.77.49-.07.95-.15,1.13-.2s.61-.16.93-.23a11,11,0,0,0,1.73-.49,7.75,7.75,0,0,1,2.76-1.2c.17-.12,0-.33-.06-.46s-.35-.43-.26-.66a.41.41,0,0,1,.46-.33l.3.12v-.12a.62.62,0,0,0,.55-.33.52.52,0,0,0,.07-.62,2.09,2.09,0,0,1-.07-.36c0-.25.35-.33.93-.46a2.4,2.4,0,0,0,1.26-.46c-.16-.2-.32-.33-.34-.53s.24-.36,1-.77a3.79,3.79,0,0,0,1.09-.66c0-.08-.14-.13-.24-.21s-.31-.17-.31-.3v-.08l.19-.2.93-.51a5.83,5.83,0,0,0,2.2-1.49.55.55,0,0,0-.47-.07,3.06,3.06,0,0,1-.36,0l-.31-.15c0-.11,0-.23.12-.36s.33-.33.55-.54a4.33,4.33,0,0,0,1.43-1.81,4.24,4.24,0,0,0-.47,0c-.63.13-1,0-1-.23a3.2,3.2,0,0,1,.42-1.43,4.81,4.81,0,0,0,.55-1.58c-.28-.16-.7.1-.92.25l-.47-.59A10.15,10.15,0,0,0,140.09,75a24.46,24.46,0,0,0-2.26,3.27,13.39,13.39,0,0,1-2.67,3.47c-.48.23-.95.36-1.41.54A15.22,15.22,0,0,0,126.4,87c-.16.15-.46.17-1.11.23A33.22,33.22,0,0,0,120,88a22.37,22.37,0,0,0-3.72,1,54.59,54.59,0,0,0-6.84,3.6,2.9,2.9,0,0,0,1.21-.33l1.21,0c-.57.92-1.29,1.71-1.31,1.83l.2.39v-.16c2.27.16,5.44,0,7.87.18l.4,0c.5,0,1.17-.23,1.35.28a3.1,3.1,0,0,1-2.2.87c-3.38.1-11.22.13-11.43.13a1.55,1.55,0,0,1-.85.41h0a.58.58,0,0,1-.48-.26.49.49,0,0,0-.47.41c-.09.26-.15.49-.37.49Zm40.66-37.19a.83.83,0,0,0-.26.05c-.83,14.2-14.45,25.7-26.58,27.43a9.69,9.69,0,0,0-4.52,2,25,25,0,0,1-2.54,1.61,9.47,9.47,0,0,1-1.87.74,13.12,13.12,0,0,0-2.34,1,8.43,8.43,0,0,0-2.89,2.74c-.11.12-.09.48,0,.84s.23.51.31.54h0s.1-.23.13-.34.16-.53.39-.66.42.08.5.15.16.18.27.18a1.65,1.65,0,0,0,.78-.35c.09-.06,8.11-.06,11.53-.18a3.1,3.1,0,0,0,2-.67,3.36,3.36,0,0,1-.49,0,4.3,4.3,0,0,0-.61,0l-.45,0c-2.44-.18-5.59,0-7.87-.18a.46.46,0,0,1-.45-.54,11.19,11.19,0,0,1,1.48-1.76l-1,.23h0a3.14,3.14,0,0,1-1,.41c-.3,0-.48-.08-.53-.23l0-.1.12-.16a53.37,53.37,0,0,1,6.92-3.65,23.88,23.88,0,0,1,3.75-1,32.35,32.35,0,0,1,5.37-.76,3,3,0,0,0,1-.13A15.32,15.32,0,0,1,133.67,82c.46-.15.92-.31,1.37-.49a12.91,12.91,0,0,0,2.59-3.42,23.8,23.8,0,0,1,2.27-3.27c2.2-2.52,3.49-2.78,3.55-2.78l.41.61c0-.15.47-.48.79-.48l.27.1a.53.53,0,0,1,.08.33,4.74,4.74,0,0,1-.55,1.69,2.77,2.77,0,0,0-.42,1.27,1.13,1.13,0,0,0,.69,0,4.24,4.24,0,0,1,.44,0l.31.13A4,4,0,0,1,144,77.79a4,4,0,0,0-.51.51c0,.1.15.08.3,0s.32,0,.42,0h.08l.26.13a.35.35,0,0,1,0,.36,5.51,5.51,0,0,1-2.3,1.61c-.37.17-.7.35-.92.48.27.26.55.41.48.66s-.44.44-1.24.82a4.68,4.68,0,0,0-.9.54.45.45,0,0,0,.19.2l.18.26a2.2,2.2,0,0,1-1.48.79,7.34,7.34,0,0,0-.75.23c.16.46.27.77,0,1.12a.86.86,0,0,1-.75.44l-.3,0c-.09,0-.15,0-.24.18s.14.28.24.44.32.43.25.61-.17.18-.35.2a7.76,7.76,0,0,0-2.64,1.2,11.56,11.56,0,0,1-1.83.51l-.94.23-1.13.21a18.26,18.26,0,0,0-2.33.43c.29,0,1.13.26,6.16-.61a39.86,39.86,0,0,0,5.75-1.43c1.18-.41,1.2-.59,1.2-.59s-.59-.3-.82-.33c-.44-.15-.69-.26-.72-.41l0-.08.14-.15a4.32,4.32,0,0,1,1.8-.33c.69-.08,1.74-.21,1.79-.46s-.31-.36-.84-.46c-.37-.08-.73-.15-.7-.43s.41-.31,1.34-.46,2.21-.36,2.32-.82c-.06-.13-.45-.15-.68-.21-.39,0-.76-.07-.84-.28l0-.07.12-.28a2.91,2.91,0,0,1,1.38-.62c.87-.28,1.87-.61,1.93-1.25-.08-.18-.54-.15-1-.1s-.77.13-.9-.1c.09-.39.32-.54.71-.72a11.31,11.31,0,0,0,1.29-.69c3.19-2.24,3.59-3.22,3.53-3.6-.55-.13-1.42.38-2.17.84a6.3,6.3,0,0,1-1.88.9l-.27-.1a.65.65,0,0,1,0-.44c0-.15.43-.53,1.57-1.61,1.93-1.78,5.49-5.1,4.71-6-.69,0-2.18,1.25-3.36,2.3-1.34,1.17-2.18,1.94-2.59,1.94h-.11l-.19-.28c0-.15.15-.38,1.15-1.66,2.15-2.83,6.64-8.73,5.52-10.85a37.46,37.46,0,0,0-2.63,4c-2.29,3.73-3.85,6.18-4.55,6.18-.34-.26-.25-.51,1-3.55,1.36-3.27,3.65-8.71,3.12-9.4-.42,0-1.35,1.94-2,3.4l-.29.69c-.87,2-1.7,3.78-1.91,4.06-.3-.08-.3-.36-.23-2.1a30.27,30.27,0,0,0,0-3.88c0-.23-.14-.28-.34-.28Z"/></g><path id="_Path_19" data-name="&lt;Path&gt;" class="cls-5" d="M108.25,93.73c0-.16-.4,0-.67,0s-.46.18-.43.35.37.11.64,0,.47-.2.46-.38Z"/><g id="_Group_6" data-name="&lt;Group&gt;"><path id="_Path_20" data-name="&lt;Path&gt;" class="cls-5" d="M107.33,94.31h-.13l-.19-.2c0-.23.18-.43.53-.51a3,3,0,0,1,.54-.08h.13l.16.21c0,.2-.19.43-.55.51a1.92,1.92,0,0,1-.49.07Z"/></g><path id="_Path_21" data-name="&lt;Path&gt;" class="cls-4" d="M118.5,35.58a1.24,1.24,0,0,0,1.6-1,47.65,47.65,0,0,0-.22-5.85A47.82,47.82,0,0,0,117.45,34a1.22,1.22,0,0,0,1,1.61Z"/><path id="_Path_22" data-name="&lt;Path&gt;" class="cls-4" d="M122,36.65a1.22,1.22,0,0,0,1.77-.74,49.94,49.94,0,0,0,.92-5.75,48.24,48.24,0,0,0-3.43,4.73,1.23,1.23,0,0,0,.74,1.76Z"/><path id="_Path_23" data-name="&lt;Path&gt;" class="cls-4" d="M125.29,38.41a1.26,1.26,0,0,0,1.89-.41,49.52,49.52,0,0,0,2-5.44,50.4,50.4,0,0,0-4.28,4,1.26,1.26,0,0,0,.38,1.89Z"/><path id="_Path_24" data-name="&lt;Path&gt;" class="cls-4" d="M128.14,40.73a1.21,1.21,0,0,0,1.92,0,45.51,45.51,0,0,0,3.05-4.93,48.84,48.84,0,0,0-5,3,1.22,1.22,0,0,0,0,1.91Z"/><path id="_Path_25" data-name="&lt;Path&gt;" class="cls-4" d="M130.48,43.59a1.2,1.2,0,0,0,1.87.36,49,49,0,0,0,4-4.26,51.92,51.92,0,0,0-5.45,2,1.25,1.25,0,0,0-.38,1.89Z"/><path id="_Path_26" data-name="&lt;Path&gt;" class="cls-4" d="M132.21,46.84a1.25,1.25,0,0,0,1.78.74,49.34,49.34,0,0,0,4.72-3.42,53.12,53.12,0,0,0-5.76.92,1.23,1.23,0,0,0-.74,1.76Z"/><path id="_Path_27" data-name="&lt;Path&gt;" class="cls-4" d="M133.29,50.39a1.23,1.23,0,0,0,1.59,1,52.32,52.32,0,0,0,5.3-2.43,51.11,51.11,0,0,0-5.81-.23,1.25,1.25,0,0,0-1.08,1.61Z"/><path id="_Path_28" data-name="&lt;Path&gt;" class="cls-4" d="M133.64,54A1.24,1.24,0,0,0,135,55.39,47.93,47.93,0,0,0,140.67,54,47.93,47.93,0,0,0,135,52.69,1.23,1.23,0,0,0,133.64,54Z"/><path id="_Path_29" data-name="&lt;Path&gt;" class="cls-4" d="M133.29,57.72a1.23,1.23,0,0,0,1.08,1.58,45.8,45.8,0,0,0,5.81-.2,49.67,49.67,0,0,0-5.3-2.45,1.21,1.21,0,0,0-1.59,1.07Z"/><path id="_Path_30" data-name="&lt;Path&gt;" class="cls-4" d="M132.21,61.24A1.24,1.24,0,0,0,133,63a43,43,0,0,0,5.76.92A49.34,49.34,0,0,0,134,60.5a1.26,1.26,0,0,0-1.78.74Z"/><path id="_Path_31" data-name="&lt;Path&gt;" class="cls-4" d="M130.48,64.51a1.26,1.26,0,0,0,.38,1.89,57.45,57.45,0,0,0,5.45,2,48.66,48.66,0,0,0-4-4.29,1.24,1.24,0,0,0-1.87.38Z"/><path id="_Path_32" data-name="&lt;Path&gt;" class="cls-4" d="M128.14,67.35a1.25,1.25,0,0,0,0,1.94,55,55,0,0,0,5,3,44.51,44.51,0,0,0-3.05-5,1.23,1.23,0,0,0-1.92,0Z"/><path id="_Path_33" data-name="&lt;Path&gt;" class="cls-4" d="M125.29,69.67a1.26,1.26,0,0,0-.38,1.89,47.25,47.25,0,0,0,4.28,4,51.89,51.89,0,0,0-2-5.44,1.24,1.24,0,0,0-1.89-.41Z"/><path id="_Path_34" data-name="&lt;Path&gt;" class="cls-4" d="M122,71.43a1.24,1.24,0,0,0-.74,1.76,48.24,48.24,0,0,0,3.43,4.73,50.62,50.62,0,0,0-.92-5.75,1.25,1.25,0,0,0-1.77-.74Z"/><path id="_Path_35" data-name="&lt;Path&gt;" class="cls-4" d="M104.39,69.67a1.25,1.25,0,0,0-1.89.41,48.45,48.45,0,0,0-2,5.44,45.94,45.94,0,0,0,4.28-4,1.23,1.23,0,0,0-.36-1.89Z"/><path id="_Path_36" data-name="&lt;Path&gt;" class="cls-4" d="M101.54,67.35a1.21,1.21,0,0,0-1.91,0,42.25,42.25,0,0,0-3.07,5,55,55,0,0,0,5-3,1.26,1.26,0,0,0,0-1.94Z"/><path id="_Path_37" data-name="&lt;Path&gt;" class="cls-4" d="M99.19,64.51a1.23,1.23,0,0,0-1.87-.38,49.41,49.41,0,0,0-4,4.29,57.49,57.49,0,0,0,5.47-2,1.25,1.25,0,0,0,.38-1.89Z"/><path id="_Path_38" data-name="&lt;Path&gt;" class="cls-4" d="M97.46,61.24a1.27,1.27,0,0,0-1.79-.74,49.69,49.69,0,0,0-4.73,3.42A43.24,43.24,0,0,0,96.72,63a1.23,1.23,0,0,0,.74-1.76Z"/><path id="_Path_39" data-name="&lt;Path&gt;" class="cls-4" d="M96.38,57.72a1.24,1.24,0,0,0-1.62-1.07,52.71,52.71,0,0,0-5.27,2.45,45.82,45.82,0,0,0,5.82.2,1.22,1.22,0,0,0,1.07-1.58Z"/><path id="_Path_40" data-name="&lt;Path&gt;" class="cls-4" d="M96,54a1.23,1.23,0,0,0-1.36-1.35A49.16,49.16,0,0,0,89,54a49.16,49.16,0,0,0,5.69,1.35A1.23,1.23,0,0,0,96,54Z"/><path id="_Path_41" data-name="&lt;Path&gt;" class="cls-4" d="M96.38,50.39a1.26,1.26,0,0,0-1.07-1.61,51.08,51.08,0,0,0-5.82.23,55.71,55.71,0,0,0,5.27,2.43,1.23,1.23,0,0,0,1.62-1Z"/><path id="_Path_42" data-name="&lt;Path&gt;" class="cls-4" d="M97.46,46.84a1.24,1.24,0,0,0-.74-1.76,53.35,53.35,0,0,0-5.78-.92,49.69,49.69,0,0,0,4.73,3.42,1.25,1.25,0,0,0,1.79-.74Z"/><path id="_Path_43" data-name="&lt;Path&gt;" class="cls-4" d="M99.19,43.59a1.24,1.24,0,0,0-.38-1.89,52,52,0,0,0-5.47-2,49.78,49.78,0,0,0,4,4.26,1.18,1.18,0,0,0,1.87-.36Z"/><path id="_Path_44" data-name="&lt;Path&gt;" class="cls-4" d="M101.54,40.73a1.24,1.24,0,0,0,0-1.91,48.84,48.84,0,0,0-5-3,43.14,43.14,0,0,0,3.07,4.93,1.2,1.2,0,0,0,1.91,0Z"/><path id="_Path_45" data-name="&lt;Path&gt;" class="cls-4" d="M114.82,37.52A16.56,16.56,0,1,1,98.25,54.07a16.54,16.54,0,0,1,16.57-16.55Z"/><path id="_Path_46" data-name="&lt;Path&gt;" class="cls-4" d="M114.82,35.24a1.26,1.26,0,0,0,1.37-1.38,49.1,49.1,0,0,0-1.37-5.67,50.33,50.33,0,0,0-1.33,5.67,1.23,1.23,0,0,0,1.33,1.38Z"/><path id="_Path_47" data-name="&lt;Path&gt;" class="cls-4" d="M118.5,72.48a1.26,1.26,0,0,0-1,1.63,47.82,47.82,0,0,0,2.43,5.29,47.39,47.39,0,0,0,.22-5.82,1.27,1.27,0,0,0-1.6-1.1Z"/><path id="_Path_48" data-name="&lt;Path&gt;" class="cls-4" d="M114.82,72.84a1.24,1.24,0,0,0-1.33,1.38,49,49,0,0,0,1.33,5.66,47.84,47.84,0,0,0,1.37-5.66,1.25,1.25,0,0,0-1.37-1.38Z"/><path id="_Path_49" data-name="&lt;Path&gt;" class="cls-4" d="M111.17,72.48a1.27,1.27,0,0,0-1.6,1.1,49.49,49.49,0,0,0,.22,5.82,54.13,54.13,0,0,0,2.43-5.29,1.25,1.25,0,0,0-1-1.63Z"/><path id="_Path_50" data-name="&lt;Path&gt;" class="cls-4" d="M107.63,71.43a1.25,1.25,0,0,0-1.77.74,46.46,46.46,0,0,0-.92,5.75,48.24,48.24,0,0,0,3.43-4.73,1.23,1.23,0,0,0-.74-1.76Z"/><path id="_Path_51" data-name="&lt;Path&gt;" class="cls-4" d="M104.39,38.41a1.24,1.24,0,0,0,.36-1.89,48.91,48.91,0,0,0-4.28-4,46.37,46.37,0,0,0,2,5.44,1.25,1.25,0,0,0,1.89.41Z"/><path id="_Path_52" data-name="&lt;Path&gt;" class="cls-4" d="M107.63,36.65a1.23,1.23,0,0,0,.74-1.76,48.24,48.24,0,0,0-3.43-4.73,45.88,45.88,0,0,0,.92,5.75,1.23,1.23,0,0,0,1.77.74Z"/><path id="_Path_53" data-name="&lt;Path&gt;" class="cls-4" d="M111.17,35.58a1.23,1.23,0,0,0,1-1.61,54.13,54.13,0,0,0-2.43-5.29,49.75,49.75,0,0,0-.22,5.85,1.21,1.21,0,0,0,1.6,1Z"/></g></g></g></g></g></g></svg>