<svg id="Layer_1" data-name="Layer 1" xmlns="http://www.w3.org/2000/svg" xmlns:xlink="http://www.w3.org/1999/xlink" viewBox="0 0 220 128"><defs><style>.cls-1{fill:none;}.cls-2{clip-path:url(#clip-path);}.cls-3{fill:#edd030;}.cls-4{fill:#2e3e98;}.cls-5{fill:#bc1f37;}.cls-6{fill:#fff;}</style><clipPath id="clip-path"><rect id="_Clipping_Path_" data-name="&lt;Clipping Path&gt;" class="cls-1" width="220" height="128"/></clipPath></defs><title>Flag_rect_Venezuela</title><g id="_Clip_Group_" data-name="&lt;Clip Group&gt;"><g class="cls-2"><rect id="_Path_" data-name="&lt;Path&gt;" class="cls-3" width="220" height="42.66"/><rect id="_Path_2" data-name="&lt;Path&gt;" class="cls-4" y="42.66" width="220" height="42.67"/><rect id="_Path_3" data-name="&lt;Path&gt;" class="cls-5" y="85.34" width="220" height="42.66"/><polygon id="_Path_4" data-name="&lt;Path&gt;" class="cls-6" points="100.16 57.85 101.87 45.71 107.63 56.54 96.61 51.16 108.68 49.03 100.16 57.85"/><polygon id="_Path_5" data-name="&lt;Path&gt;" class="cls-6" points="111.79 56.54 117.55 45.71 119.27 57.85 110.75 49.03 122.82 51.16 111.79 56.54"/><polygon id="_Path_6" data-name="&lt;Path&gt;" class="cls-6" points="89.69 63.08 87.14 51.07 96.25 59.28 84.05 58 94.68 51.87 89.69 63.08"/><polygon id="_Path_7" data-name="&lt;Path&gt;" class="cls-6" points="123.17 59.28 132.29 51.07 129.74 63.08 124.74 51.87 135.37 58 123.17 59.28"/><polygon id="_Path_8" data-name="&lt;Path&gt;" class="cls-6" points="81.62 71.56 75.12 61.14 86.5 65.74 74.59 68.71 82.49 59.32 81.62 71.56"/><polygon id="_Path_9" data-name="&lt;Path&gt;" class="cls-6" points="132.93 65.74 144.31 61.14 137.81 71.56 136.95 59.32 144.84 68.71 132.93 65.74"/><polygon id="_Path_10" data-name="&lt;Path&gt;" class="cls-6" points="76.95 82.29 67.28 74.73 79.54 75.16 69.37 82.03 73.57 70.5 76.95 82.29"/><polygon id="_Path_11" data-name="&lt;Path&gt;" class="cls-6" points="139.9 75.16 152.15 74.73 142.49 82.29 145.87 70.5 150.06 82.03 139.9 75.16"/></g></g></svg>