<svg id="Layer_1" data-name="Layer 1" xmlns="http://www.w3.org/2000/svg" viewBox="0 0 220 128"><defs><style>.cls-1{fill:#171796;}.cls-2,.cls-5{fill:#fff;}.cls-3{fill:red;}.cls-4{fill:#0093dd;}.cls-5{stroke:#000;stroke-width:0.05px;}.cls-6{fill:#f7db17;}</style></defs><title>Flag_rect_Croatia</title><rect class="cls-1" width="220.01" height="128"/><rect class="cls-2" width="220.01" height="85.33"/><rect class="cls-3" width="220.01" height="42.67"/><path class="cls-3" d="M110,97.11h0a25,25,0,0,0,24.88-24.89V42.66H85.13V72.22A25,25,0,0,0,110,97.11Z"/><path class="cls-2" d="M110,96.71h0A24.49,24.49,0,0,0,134.42,72.3V43.14H85.6V72.3A24.48,24.48,0,0,0,110,96.71Z"/><path class="cls-3" d="M95.9,44.05H86.51V54.37H95.9Z"/><path class="cls-3" d="M95.9,64.69h9.4V54.37H95.9Z"/><path class="cls-3" d="M86.51,72.24A23,23,0,0,0,86.68,75H95.9V64.69H86.51Z"/><path class="cls-3" d="M114.69,64.69H105.3V75h9.39Z"/><path class="cls-3" d="M114.69,85.33h9.39V75h-9.39Z"/><path class="cls-3" d="M124.08,91a23.83,23.83,0,0,0,5.37-5.65h-5.37Z"/><path class="cls-3" d="M95.9,85.33h9.4V75H95.9Z"/><path class="cls-3" d="M90.53,85.33A23.83,23.83,0,0,0,95.9,91V85.33Z"/><path class="cls-3" d="M111.63,95.65a23.71,23.71,0,0,0,3.06-.41V85.33H105.3v9.91a23.32,23.32,0,0,0,3,.41,25.64,25.64,0,0,0,3.28,0Z"/><path class="cls-3" d="M133.3,75a23.18,23.18,0,0,0,.17-2.78V64.69h-9.39V75Z"/><path class="cls-3" d="M114.69,64.69h9.39V54.37h-9.39Z"/><path class="cls-3" d="M114.69,44.05H105.3V54.37h9.39Z"/><path class="cls-3" d="M133.47,54.37V44.05h-9.39V54.37Z"/><path class="cls-2" d="M134,42.35l5.83-13.2L135.38,22,128,24.71l-5.16-5.9-6.8,3.9-6.07-5-6.06,5-6.8-3.9L92,24.71,84.62,22l-4.44,7.16L86,42.36a58.32,58.32,0,0,1,48,0Z"/><path class="cls-4" d="M92.14,25.29h0l-7.29-2.7-4.08,6.59,1.57,3.55,4,9a57.69,57.69,0,0,1,9.22-3.19L92.14,25.29Z"/><path class="cls-5" d="M91.72,31.8a3.57,3.57,0,1,1-6.66,2.34,3.58,3.58,0,0,0,6.7-1.76,3.77,3.77,0,0,0,0-.58Z"/><polygon points="88.45 26.88 88.44 26.93 88.19 28.21 89.17 29.07 89.22 29.11 89.16 29.13 87.93 29.55 87.67 30.83 87.66 30.89 87.62 30.85 86.64 30 85.4 30.42 85.34 30.44 85.36 30.38 85.61 29.1 84.63 28.24 84.58 28.2 84.64 28.18 85.87 27.76 86.12 26.48 86.13 26.42 86.18 26.46 87.16 27.32 88.39 26.89 88.45 26.88"/><path class="cls-6" d="M87,28.69l.92.8L89,29.1Z"/><path class="cls-6" d="M87,28.65l2.07.41-.92-.81Z"/><path class="cls-6" d="M84.75,28.21l2.07.41-.91-.8Z"/><path class="cls-6" d="M86.82,28.66l-2.07-.4.91.8Z"/><path class="cls-6" d="M86.93,28.58,88.32,27l-1.15.4Z"/><path class="cls-6" d="M85.44,30.29l1.39-1.59-1.15.4Z"/><path class="cls-6" d="M86.86,28.73l-1.38,1.59,1.15-.39Z"/><path class="cls-6" d="M88.35,27,87,28.61l1.16-.4Z"/><path class="cls-6" d="M86.85,28.59l-.68-2-.24,1.2Z"/><path class="cls-6" d="M87.59,30.73l-.69-2-.23,1.19Z"/><path class="cls-6" d="M86.94,28.72l.69,2,.23-1.2Z"/><path class="cls-6" d="M86.21,26.58l.68,2,.24-1.2Z"/><path class="cls-1" d="M104,23.31h0l-6.75-3.87-5.1,5.84L95.5,38.54a58.84,58.84,0,0,1,9.63-1.61L104,23.31Z"/><path class="cls-3" d="M94.66,35.25a62.29,62.29,0,0,1,10.19-1.7l-.29-3.44A65.91,65.91,0,0,0,93.81,31.9l.85,3.35Z"/><path class="cls-3" d="M93,28.59a69.36,69.36,0,0,1,11.31-1.89L104,23.32a73.4,73.4,0,0,0-11.86,2Z"/><path class="cls-4" d="M116,23.31h0l-6-4.93-6,4.92,1.13,13.62c1.61-.13,3.23-.2,4.87-.2s3.28.07,4.89.2L116,23.31Z"/><g id="lion"><path d="M110,29.44a.05.05,0,0,0,0,0l-.34.45a.15.15,0,0,0-.11.22c-.16,0-.18.12-.19.27-.15-.24-.33-.3-.51-.19,0-.15-.12-.21-.28-.25a.46.46,0,0,1-.27-.09l-.11-.07c-.08,0-.14,0-.11.05l.51.82a.11.11,0,0,0,0,.13l.09.25,0,.07a1.25,1.25,0,0,0-.42-.08A.31.31,0,0,1,108,31s0,0-.06.05a1.36,1.36,0,0,0,.38.95h-.44s-.06,0,0,.07a.83.83,0,0,0,.52.48.42.42,0,0,0-.23.33.3.3,0,0,1-.13.29s0,0,0,.06a.63.63,0,0,0,.57.07,1,1,0,0,0-.13.54.65.65,0,0,0,.39,0,.47.47,0,0,0,0,.19.57.57,0,0,1-.07.22s0,.05,0,.07a1,1,0,0,0,.57,0,1.73,1.73,0,0,0,0,.45s0,.07.08,0a1.29,1.29,0,0,1,.33-.33.24.24,0,0,0,.1.14.25.25,0,0,1,.1.22s0,0,0,.05.33-.24.37-.37a.78.78,0,0,1,.28.29s.06,0,.08,0a1.75,1.75,0,0,0,0-.46.88.88,0,0,0,.58,0c.05,0,0,0,0-.06a.68.68,0,0,1-.07-.23.74.74,0,0,0,0-.18.62.62,0,0,0,.38,0,.89.89,0,0,0-.13-.54.66.66,0,0,0,.57-.07s0,0,0-.06a.33.33,0,0,1-.14-.29.39.39,0,0,0-.22-.33.86.86,0,0,0,.52-.48c0-.05,0-.07,0-.07l-.45,0a1.26,1.26,0,0,0,.38-.94c0-.07,0-.09,0-.05a.34.34,0,0,1-.22.09,1,1,0,0,0-.42.08l0-.07c0-.09.07-.17.1-.25a.11.11,0,0,0,0-.13l.5-.82c0-.05,0-.1-.11-.05l-.11.07a.54.54,0,0,1-.27.09c-.16,0-.27.11-.27.25-.19-.11-.36,0-.52.2,0-.16,0-.29-.19-.28,0-.1,0-.18-.11-.22s-.29-.3-.41-.46,0,0,0,0Z"/><path class="cls-6" d="M111.59,30.32s-.08,0-.11.06,0,.1,0,.12a.06.06,0,0,0,.07,0l0,0h0c0-.05,0-.11,0-.12Z"/><path class="cls-6" d="M108.42,30.32s.08,0,.1.06,0,.1,0,.12-.07,0-.09-.07,0-.1,0-.11Z"/><path class="cls-6" d="M111.29,30.89a0,0,0,0,0,0,0s0,0,0,0,0,0,0,0A0,0,0,0,0,111.29,30.89Z"/><path class="cls-6" d="M108.74,30.89a0,0,0,0,0,0,0s0,0,0,0,0,0,0,0A0,0,0,0,0,108.74,30.89Z"/><path class="cls-6" d="M111.46,30.7a11.56,11.56,0,0,0-1.43-.09,13.9,13.9,0,0,0-1.44.08s0,0,0,0a13.69,13.69,0,0,1,1.43-.07,11.11,11.11,0,0,1,1.41.08s0-.05,0-.05Z"/><path class="cls-6" d="M108.58,30.64c.49,0,1-.07,1.45-.07a13.86,13.86,0,0,1,1.43.08l.07-.11h-.06a.16.16,0,0,1,.13-.27.1.1,0,0,1,0,.08l.28-.47a.78.78,0,0,1-.36.16c-.18,0-.26.09-.24.19s0,.09-.12,0-.35,0-.42.22-.1.11-.1,0a.49.49,0,0,0,0-.12c0-.15,0-.18-.13-.15s-.11,0-.09,0,.06-.08,0-.14,0-.06-.09-.06c-.12-.16-.3-.31-.41-.46-.12.15-.24.3-.35.46-.06,0-.09,0-.1.06s0,.1,0,.14,0,.08-.09,0-.11,0-.13.14a.57.57,0,0,1,0,.13c0,.12-.06.13-.1,0s-.22-.33-.42-.22-.13.06-.12,0-.07-.16-.24-.19a.82.82,0,0,1-.37-.16l.26.43,0,0s.11,0,.15.09a.16.16,0,0,1,0,.18h0l.06.1Z"/><path class="cls-6" d="M111.35,31.22h0s0,0-.09.07a.77.77,0,0,1-.13.12s0,0,0,0,0,0,0,0l.13-.11a.21.21,0,0,0,0-.06l-.17,0a.59.59,0,0,0-.14.06.24.24,0,0,0-.09.08s0,0,0,0,0,0,0,0a.28.28,0,0,1,.1-.09l.07,0h-.2l0,0,0,.05s0,0,0,0,0,0,0,0l0,0h-.15l0,0,0,.05h0s0,0,0,0l0-.05,0,0h-.23l0,0,0,0s0,0,0,0a0,0,0,0,1,0,0l0-.05h-.43l0,.05s0,0,0,0,0,0,0,0,0,0,0,0l0,0h-.22v0a.13.13,0,0,1,0,.05s0,0,0,0,0,0,0,0l0-.05,0,0h-.15s0,0,0,0,0,0,0,0,0,0,0,0l0-.05,0,0h0l-.2,0,.07,0a.32.32,0,0,1,.1.1s0,0,0,0,0,0,0,0a.24.24,0,0,0-.09-.08.69.69,0,0,0-.15-.07h0l-.17,0,.06.07.13.11s0,0,0,0,0,0,0,0l-.13-.12-.08-.08a1.2,1.2,0,0,0-.37-.1.74.74,0,0,1-.29-.05,1,1,0,0,0,.08.15.38.38,0,0,0,.13.09,0,0,0,0,1,0,0,.45.45,0,0,0,.11.24.52.52,0,0,0,.11.1,1,1,0,0,1-.1-.16.44.44,0,0,1,0-.27s0,0,0,0,0,0,0,0a.44.44,0,0,0,0,.25.75.75,0,0,0,.19.22s0,0,0,0a.44.44,0,0,1-.24-.14.53.53,0,0,1-.12-.25.3.3,0,0,1-.14-.11.54.54,0,0,1-.07-.13,1.2,1.2,0,0,0,.28.72.46.46,0,0,0,.17.14s.06.06,0,.06h-.06l.14.07a.25.25,0,0,1,.15.17s0,0,0,0,0,0,0,0a.25.25,0,0,0-.13-.14,1.45,1.45,0,0,0-.25-.1H108l.08.06a1.44,1.44,0,0,0,.22.07l.15.06a.52.52,0,0,1,.11.1s0,0,0,0,0,0,0,0a.39.39,0,0,0-.1-.08.59.59,0,0,0-.14-.06.87.87,0,0,1-.23-.08l-.11-.08a.74.74,0,0,0,.53.44h0l.17,0,.16,0s0,0,0,0,0,0,0,0l-.17,0-.11,0h-.06a.32.32,0,0,0-.28.32h0l.17-.14a.32.32,0,0,1,.23,0s0,0,0,0,0,0,0,0a.25.25,0,0,0-.2,0,1.4,1.4,0,0,0-.2.16.34.34,0,0,1-.13.24s.07,0,.11,0l.16-.06a.58.58,0,0,1,.18,0s0,0,0,0,0,0,0,0a1,1,0,0,0-.17,0l-.14.06a.79.79,0,0,0,.43,0s.06,0,.08,0l.11,0a.3.3,0,0,1,.11,0s0,0,0,0,0,0,0,0a.24.24,0,0,0-.14,0s0,0-.08.06l-.06,0a.63.63,0,0,0-.12.18c0,.05,0,.09,0,.14a2.14,2.14,0,0,1,.13-.19.73.73,0,0,1,.22-.16s0,0,0,0,0,0,0,0a.53.53,0,0,0-.2.16.83.83,0,0,0-.14.22l0,0a1.8,1.8,0,0,1,.21-.19.35.35,0,0,1,.26-.09s0,0,0,0,0,0,0,0a.33.33,0,0,0-.24.08l-.23.23a.79.79,0,0,0,.34-.06c.06,0,.12-.08.15-.09l0,0,.06-.07s0,0,0,0,0,0,0,0l-.06.06-.06.07a0,0,0,0,1,0,0,.39.39,0,0,0-.11.15,2.33,2.33,0,0,1-.08.36.31.31,0,0,0,.11-.08A.53.53,0,0,0,109,34a.5.5,0,0,1,.11-.17.42.42,0,0,1,.16-.11s0,0,0,0,0,0,0,0A.46.46,0,0,0,109,34a.35.35,0,0,1-.09.16.39.39,0,0,1-.1.08h.08a.38.38,0,0,0,.17-.08.22.22,0,0,0,.1-.13s0,0,0,0,0,0,0,0a.42.42,0,0,1-.11.15l-.12,0a.75.75,0,0,0,.29-.06s.06-.11.08-.13a.36.36,0,0,1,.07-.1.25.25,0,0,1,.1-.08s0,0,0,0,0,0,0,0a.13.13,0,0,0-.09.07.35.35,0,0,0-.06.09s0,.14,0,.19a1.29,1.29,0,0,0,0,.39.4.4,0,0,1,.1-.12h0a1.49,1.49,0,0,0,0-.21.74.74,0,0,0,0-.21s0,0,0,0,0,0,0,0a.81.81,0,0,1,0,.22c0,.06,0,.11,0,.17a.1.1,0,0,0,0-.07.44.44,0,0,0,0-.15.66.66,0,0,0,0-.14s0,0,0,0,0,0,0,0a.81.81,0,0,1,0,.16l0,.13.11-.08a.75.75,0,0,1,0-.15.49.49,0,0,1,0-.12s0,0,0,0,0,0,0,0a.45.45,0,0,0,0,.12v.15a.16.16,0,0,0,.08.14.32.32,0,0,1,.12.18,1,1,0,0,0,0-.25.76.76,0,0,0-.07-.24s0,0,0,0,0,0,0,0a.61.61,0,0,1,.08.25,1.1,1.1,0,0,1,0,.31.43.43,0,0,0,.22-.38l0,0a0,0,0,0,1,0,0s0,0,0,0a.14.14,0,0,1,0,.07.07.07,0,0,1,0,0l0,0,0,0a.5.5,0,0,1,0-.12.29.29,0,0,1,0-.16s0,0,0,0,0,0,0,0a.26.26,0,0,0,0,.15.42.42,0,0,0,0,.15s0,0,0,0l0,0a.78.78,0,0,1,0-.16,1.47,1.47,0,0,1,0-.21s0,0,0,0,0,0,0,0v.21a.76.76,0,0,0,0,.21h0l.09.13a1,1,0,0,0,0-.39c0-.05,0-.14,0-.19l-.06-.09a.18.18,0,0,0-.09-.07s0,0,0,0,0,0,0,0a.25.25,0,0,1,.1.08l.06.1s0,.11.09.13a.75.75,0,0,0,.29.06.33.33,0,0,1-.12,0,.42.42,0,0,1-.11-.15s0,0,0,0h0a.25.25,0,0,0,.09.13.5.5,0,0,0,.26.08.27.27,0,0,1-.1-.08A.38.38,0,0,1,111,34a.44.44,0,0,0-.1-.16.31.31,0,0,0-.15-.1s0,0,0,0h0a.45.45,0,0,1,.17.11.59.59,0,0,1,.1.17.54.54,0,0,0,.09.15.24.24,0,0,0,.11.08,2.33,2.33,0,0,1-.08-.36c0-.08-.15-.18-.12-.2s.08,0,.15.08a.85.85,0,0,0,.35,0,1.7,1.7,0,0,0-.24-.23.25.25,0,0,0-.22-.07s0,0,0,0,0,0,0,0a.31.31,0,0,1,.25.08,1.17,1.17,0,0,1,.2.19s0,0,0,0a1.64,1.64,0,0,0-.14-.22.83.83,0,0,0-.21-.16s0,0,0,0,0,0,0,0a.73.73,0,0,1,.22.16,1.37,1.37,0,0,1,.13.2.88.88,0,0,0-.05-.15.47.47,0,0,0-.12-.18s-.13-.09-.13-.11l0,0-.1,0s0,0,0,0,0,0,0,0l.12,0,.06,0,.13,0a.75.75,0,0,0,.42,0l-.14-.06-.16,0s0,0,0,0,0,0,0,0a.47.47,0,0,1,.17,0l.17.06s.06,0,.1,0a.38.38,0,0,1-.13-.24h0a1,1,0,0,0-.2-.16.24.24,0,0,0-.2,0s0,0,0,0,0,0,0,0a.31.31,0,0,1,.23,0l.18.14h0a.31.31,0,0,0-.27-.32s-.12,0-.12,0,.06,0,.15-.05a.78.78,0,0,0,.53-.44.5.5,0,0,1-.12.08.67.67,0,0,1-.23.08.52.52,0,0,0-.13.06.27.27,0,0,0-.1.08s0,0,0,0,0,0,0,0a.36.36,0,0,1,.11-.1l.15-.06.21-.07.08-.06h-.29a1.45,1.45,0,0,0-.25.1c-.07,0-.12.09-.12.14s0,0,0,0,0,0,0,0a.21.21,0,0,1,.14-.17.69.69,0,0,1,.15-.07h-.07c-.07,0-.07,0,0-.06a.43.43,0,0,0,.16-.14,1.35,1.35,0,0,0,.29-.71.5.5,0,0,1-.08.12.26.26,0,0,1-.14.11.52.52,0,0,1-.11.25.49.49,0,0,1-.23.14s0,0,0,0a.65.65,0,0,0,.17-.22.43.43,0,0,0,0-.24s0,0,0,0,0,0,0,0a.52.52,0,0,1,0,.27,1.16,1.16,0,0,1-.11.16.4.4,0,0,0,.12-.1.53.53,0,0,0,.11-.24v0a.25.25,0,0,0,.13-.09.36.36,0,0,0,.08-.15.58.58,0,0,1-.29.05,1.4,1.4,0,0,0-.35.1Z"/><path class="cls-6" d="M111.32,31.11A9.3,9.3,0,0,0,110,31a11.33,11.33,0,0,0-1.3.07s0,0,0,0,0,0,.07,0c.41,0,.82,0,1.23,0a11.07,11.07,0,0,1,1.28.06s0-.05,0-.05Z"/><path class="cls-6" d="M108.74,31.06c.43,0,.86-.07,1.29-.07a11.13,11.13,0,0,1,1.28.08l0-.08h0a.08.08,0,0,1-.08-.07.08.08,0,0,1,.08-.08.08.08,0,0,1,.07,0l0-.11a12.59,12.59,0,0,0-1.37-.08c-.46,0-.92,0-1.39.07l0,.1a.07.07,0,0,1,.06,0,.07.07,0,0,1,.08.08.07.07,0,0,1-.08.07h0l0,.06Zm1.94-.26a.08.08,0,1,0,0,.16.08.08,0,0,0,0-.16Zm0,0a0,0,0,0,0,0,.08s0,0,0,0S110.7,30.84,110.68,30.84Zm-.69-.06a.08.08,0,0,0,0,.16.08.08,0,0,0,0-.16Zm0,0s0,0,0,0,0,0,0,0a0,0,0,0,0,0-.08Zm-.67,0a.08.08,0,0,0-.08.08.08.08,0,0,0,.16,0A.08.08,0,0,0,109.32,30.8Zm0,0a0,0,0,0,0,0,0s0,0,0,0,0,0,0,0A0,0,0,0,0,109.32,30.84Z"/><path d="M110,30.31a.24.24,0,0,0-.06-.11.17.17,0,0,0-.12-.05s0,0,0,0a.28.28,0,0,0,.1-.09.59.59,0,0,0,.06-.16s0,0,0,0a.26.26,0,0,0,.06.13l.12.09s0,0,0,0a.15.15,0,0,0-.09.06.3.3,0,0,0-.06.14s0,0,0,0Zm0-.07a.47.47,0,0,1,.06-.09l.06-.06a.2.2,0,0,1-.09-.07l0-.07a.47.47,0,0,1,0,.1l-.06.07.08.05A.18.18,0,0,1,110,30.24Z"/><path d="M110.55,33.47l-.33.13s0,0,0,0,0,0,0,0l.32-.13s0,0,0,0S110.56,33.47,110.55,33.47Zm0-.2-.39.2s0,0,0,0,0,0,0,0l.38-.21s0,0,0,0S110.6,33.26,110.59,33.27Zm-1.16,0,.38.2s0,0,0,0,0,0,0,0l-.38-.2s0,0,0,0S109.42,33.22,109.43,33.23Zm0,.2.33.13s0,0,0,0,0,0,0,0l-.32-.13s0,0,0,0,0,0,0,0Zm.15.27a.58.58,0,0,0,.22,0,.14.14,0,0,0,.12-.09v-.31a.63.63,0,0,1-.19,0,.18.18,0,0,1-.13-.11.5.5,0,0,1,0-.21s0,0,0,0,0,0,0,0a.28.28,0,0,0,0,.18.13.13,0,0,0,.09.09l.2,0,.19,0a.36.36,0,0,0,.12-.08.19.19,0,0,0,0-.11.11.11,0,0,0,0-.05.13.13,0,0,0-.08,0h-.14s0,0,0,0,0,0,0,0h0a.16.16,0,0,1,.1,0,.17.17,0,0,1,.1,0,.09.09,0,0,1,0,.08.21.21,0,0,1,0,.15.32.32,0,0,1-.15.09.86.86,0,0,1-.17,0v.3h0a.16.16,0,0,0,.12.09.65.65,0,0,0,.23,0s0,0,0,0,0,0,0,0a.74.74,0,0,1-.25,0,.18.18,0,0,1-.13-.09.19.19,0,0,1-.14.09.69.69,0,0,1-.24,0s0,0,0,0,0,0,0,0Zm.22.14h.25s0,0,0,0,0,0,0,0h-.26s0,0,0,0S109.82,33.84,109.83,33.84Z"/><path d="M110.21,31.89a1.31,1.31,0,0,1,.26-.19.46.46,0,0,1,.23-.07s0,0,0,0,0,0,0,0a.48.48,0,0,0-.21.06,2.48,2.48,0,0,0-.25.18s0,0,0,0,0,0,0,0Zm-.39,0a1,1,0,0,0-.28-.19.49.49,0,0,0-.23-.07s0,0,0,0,0,0,0,0a.42.42,0,0,1,.25.06,1.37,1.37,0,0,1,.3.21s0,0,0,0,0,0,0,0Zm-.13.64a.64.64,0,0,1,.08-.14l.11-.11s0,0,0,0,0,0,0,0a.94.94,0,0,0-.1.1.57.57,0,0,0-.08.13s0,0,0,0S109.68,32.57,109.69,32.56Zm.23-1.1a.64.64,0,0,1,.08.14.9.9,0,0,1,0,.18v.16a.34.34,0,0,1-.07.15.14.14,0,0,1-.1.07.17.17,0,0,1-.1,0,.31.31,0,0,1,0,.19s0,0,0,0l-.08,0-.08,0h0a.52.52,0,0,1-.15-.07.27.27,0,0,1-.1-.08h0a.54.54,0,0,1,0-.11.43.43,0,0,1,0-.11l-.12-.08a.39.39,0,0,1-.1-.08s0,0,0,0,0,0,0,0l.1.08.13.07a.68.68,0,0,1,.23.07,1.06,1.06,0,0,1,.2.12h0v0h.1a.16.16,0,0,0,.08-.06.29.29,0,0,0,0-.13.38.38,0,0,0,0-.15h0a.39.39,0,0,0,0-.16.31.31,0,0,0-.06-.13s0,0,0,0,0,0,0,0Zm-.23.66a2.12,2.12,0,0,0-.2-.12.76.76,0,0,0-.2-.06s0,.06,0,.09a.14.14,0,0,0,0,.08h0a.19.19,0,0,0,.08.07.61.61,0,0,0,.14.07h0l.09,0,0,0a.26.26,0,0,0,0-.17v0Zm.49-.63a.54.54,0,0,0-.07.13.78.78,0,0,0,0,.16h0v.15a.31.31,0,0,0,.06.13.13.13,0,0,0,.07.06.17.17,0,0,0,.1,0h0v0l.2-.12a.73.73,0,0,1,.24-.07l.13-.07.09-.08s0,0,0,0,0,0,0,0a.45.45,0,0,1-.1.09l-.12.07s0,.07,0,.11a.3.3,0,0,1-.06.11h0a.24.24,0,0,1-.09.08.52.52,0,0,1-.15.07h0l-.09,0-.08,0s0,0,0,0a.25.25,0,0,1,0-.19.21.21,0,0,1-.11,0,.14.14,0,0,1-.1-.07.24.24,0,0,1-.06-.15.92.92,0,0,1,0-.16.52.52,0,0,1,0-.18.37.37,0,0,1,.07-.14s0,0,0,0,0,0,0,0Zm.59.45a.76.76,0,0,0-.2.06l-.19.12v0a.35.35,0,0,0,0,.17l.06,0,.08,0h0a.46.46,0,0,0,.14-.07.19.19,0,0,0,.08-.07h0a.14.14,0,0,0,.05-.08.28.28,0,0,0,0-.09Z"/><path d="M110.57,32a.13.13,0,0,0-.14.13.14.14,0,0,0,.14.14.13.13,0,0,0,.13-.14A.13.13,0,0,0,110.57,32Zm0,0a.09.09,0,1,0,0,.18.09.09,0,0,0,0-.18Zm0,0s-.06,0-.06,0a.06.06,0,0,0,.06.06.06.06,0,0,0,.05-.06A0,0,0,0,0,110.57,32.06ZM109.49,32a.13.13,0,0,1,.14.13.14.14,0,0,1-.14.14.13.13,0,0,1-.13-.14A.13.13,0,0,1,109.49,32Zm0,0a.1.1,0,0,1,.1.09.1.1,0,0,1-.1.1.09.09,0,0,1-.09-.1A.09.09,0,0,1,109.49,32Zm0,0a.06.06,0,0,1,.06,0,.06.06,0,0,1-.06.06s0,0,0-.06A0,0,0,0,1,109.49,32.06Z"/></g><g id="lion-2" data-name="lion"><path d="M107.24,23.3a.05.05,0,0,0,0,0c-.11.17-.22.31-.33.47s-.15.12-.09.22c-.17,0-.18.13-.18.28-.17-.23-.35-.29-.53-.17,0-.14-.12-.21-.28-.24a.47.47,0,0,1-.28-.08l-.11-.06c-.08-.05-.14,0-.11.05l.54.8a.12.12,0,0,0,.06.13l.1.25,0,.07a1.23,1.23,0,0,0-.42-.07.27.27,0,0,1-.23-.08s-.06,0-.06.06a1.37,1.37,0,0,0,.41.93,3.11,3.11,0,0,0-.43,0s-.06,0,0,.06a.86.86,0,0,0,.54.47.38.38,0,0,0-.21.33.31.31,0,0,1-.13.3s0,0,0,.06a.66.66,0,0,0,.57.05.87.87,0,0,0-.1.54.7.7,0,0,0,.38,0,.5.5,0,0,0,0,.19.55.55,0,0,1-.06.22s0,.06,0,.07a.93.93,0,0,0,.58-.06,1.43,1.43,0,0,0,.07.46s0,.06.08,0a1,1,0,0,1,.32-.34.26.26,0,0,0,.1.13.22.22,0,0,1,.1.21s0,0,0,.06.31-.25.36-.39a.75.75,0,0,1,.28.28s.07,0,.08,0a1.45,1.45,0,0,0,0-.46,1,1,0,0,0,.58,0s0-.05,0-.07a.63.63,0,0,1-.08-.23.6.6,0,0,0,0-.18.65.65,0,0,0,.39,0,.86.86,0,0,0-.15-.53.7.7,0,0,0,.57-.09s0,0,0-.07-.13-.14-.14-.28a.44.44,0,0,0-.24-.32.84.84,0,0,0,.5-.5c0-.05,0-.07,0-.07h-.45a1.32,1.32,0,0,0,.35-1c0-.06,0-.09-.06-.05a.29.29,0,0,1-.22.11,1,1,0,0,0-.41.09l0-.07c0-.08.06-.17.08-.25a.13.13,0,0,0,.06-.13c.15-.28.3-.56.46-.84,0,0,0-.1-.11,0l-.11.07a.55.55,0,0,1-.27.1c-.16,0-.26.11-.26.26q-.29-.15-.51.21c0-.15,0-.29-.2-.26a.15.15,0,0,0-.12-.22c-.12-.15-.3-.29-.42-.44l-.05,0Z"/><path class="cls-6" d="M108.87,24.12s-.07,0-.1.07a.1.1,0,0,0,0,.12s0,0,.07,0l0,0h0s0-.1,0-.12Z"/><path class="cls-6" d="M105.71,24.24s.08,0,.11.06,0,.1,0,.12-.06,0-.09-.06,0-.1,0-.12Z"/><path class="cls-6" d="M108.6,24.71s0,0,0,0a0,0,0,0,0,.08,0S108.62,24.7,108.6,24.71Z"/><path class="cls-6" d="M106.05,24.8s0,0,0,0a0,0,0,0,0,0,0s0,0,0,0A0,0,0,0,0,106.05,24.8Z"/><path class="cls-6" d="M108.76,24.51a11.42,11.42,0,0,0-1.43,0c-.48,0-1,.06-1.43.12,0,0,0,.06,0,.06a13.62,13.62,0,0,1,1.42-.13,11.06,11.06,0,0,1,1.41,0s0,0,0,0Z"/><path class="cls-6" d="M105.88,24.56c.49-.06,1-.11,1.45-.13s1,0,1.43,0l.06-.11h-.06s-.06-.09,0-.17.09-.11.14-.09,0,0,.05.07l.26-.48a.77.77,0,0,1-.36.18c-.17,0-.25.09-.22.2s0,.08-.13,0-.34.06-.4.24-.1.11-.11,0a.49.49,0,0,0,0-.12c0-.14-.06-.18-.14-.14s-.11,0-.09,0a.24.24,0,0,0,0-.15s0-.05-.1-.05-.3-.3-.43-.45c-.1.16-.22.32-.33.48,0,0-.09,0-.09.06s0,.1.05.14,0,.08-.08,0-.12,0-.13.14v.13c0,.12-.06.13-.11,0s-.23-.32-.43-.2-.12.07-.11,0-.08-.17-.25-.19a.79.79,0,0,1-.38-.14l.28.42,0,0s.11,0,.15.08a.13.13,0,0,1,0,.18h0l.07.1Z"/><path class="cls-6" d="M108.68,25h0s0,0-.08.08l-.13.13s0,0,0,0,0,0,0,0a1.35,1.35,0,0,1,.12-.12s0-.05,0-.06l-.18,0a.61.61,0,0,0-.14.07.24.24,0,0,0-.09.08s0,0,0,0,0,0,0,0a.24.24,0,0,1,.1-.1l.06,0h-.2l0,0,0,0s0,0,0,0,0,0,0,0l0,0h-.15l0,0,0,0s0,0,0,0,0,0,0,0a.08.08,0,0,1,0,0l0,0h-.23l0,0,0,0s0,0,0,0,0,0,0,0l0-.05h-.43l0,0a0,0,0,0,1,0,0s0,0,0,0l0,0,0,0h-.22a0,0,0,0,0,0,0l0,.05a0,0,0,0,1,0,0s0,0,0,0l0,0,0,0h-.15l0,0s0,0,0,0h0l0,0,0,0h0l-.2,0,.08,0a.45.45,0,0,1,.1.09s0,0,0,0,0,0,0,0,0-.05-.08-.07a.52.52,0,0,0-.16-.06h0l-.17,0,0,.07.14.11s0,0,0,0,0,0,0,0l-.13-.11-.09-.09a1.17,1.17,0,0,0-.37-.08.7.7,0,0,1-.29,0,.48.48,0,0,0,.09.14.18.18,0,0,0,.13.09s0,0,0,0a.53.53,0,0,0,.11.24l.12.09a.76.76,0,0,1-.11-.16.52.52,0,0,1-.06-.26s0,0,0,0,0,0,0,0a.43.43,0,0,0,.06.24.55.55,0,0,0,.19.22s0,0,0,0a.44.44,0,0,1-.25-.14.46.46,0,0,1-.12-.24.3.3,0,0,1-.14-.1.35.35,0,0,1-.08-.13,1.2,1.2,0,0,0,.31.71.43.43,0,0,0,.17.13c.06,0,.06.06,0,.06h-.07l.15.06a.25.25,0,0,1,.15.17s0,0,0,0,0,0,0,0a.25.25,0,0,0-.13-.14l-.26-.09-.28,0,.08.05.22.06a.52.52,0,0,1,.15.06.31.31,0,0,1,.11.09s0,0,0,0,0,0,0,0a.27.27,0,0,0-.1-.08l-.14-.05a.9.9,0,0,1-.23-.07l-.12-.07a.77.77,0,0,0,.55.41h0a.51.51,0,0,0,.17,0l.17,0s0,0,0,0l0,0-.17,0h-.18a.3.3,0,0,0-.26.32h0a1,1,0,0,1,.16-.14.28.28,0,0,1,.23-.05s0,0,0,0,0,0,0,0a.27.27,0,0,0-.19.05,1.06,1.06,0,0,0-.2.17.33.33,0,0,1-.12.24s.07,0,.11,0a.8.8,0,0,1,.16-.08.47.47,0,0,1,.17,0s0,0,0,0,0,0,0,0a.53.53,0,0,0-.17,0l-.14.06a.76.76,0,0,0,.42-.06l.09,0,.1-.06.12,0s0,0,0,0,0,0,0,0a.25.25,0,0,0-.14.06l-.07.06-.06.05a.54.54,0,0,0-.11.18c0,.05,0,.09,0,.14l.12-.19a.79.79,0,0,1,.22-.18s0,0,0,0,0,0,0,0a.6.6,0,0,0-.19.16.76.76,0,0,0-.13.23s0,0,0,.05l.2-.2a.3.3,0,0,1,.26-.09s0,0,0,0,0,0,0,0a.32.32,0,0,0-.23.08,1.74,1.74,0,0,0-.22.24.8.8,0,0,0,.34-.07c.06,0,.11-.09.15-.1l0,0,.06-.07h0s0,0,0,0l-.06.06,0,.08h0a.49.49,0,0,0-.1.15,2.2,2.2,0,0,1-.06.37.45.45,0,0,0,.1-.09.36.36,0,0,0,.08-.15.42.42,0,0,1,.1-.17.48.48,0,0,1,.16-.12h0s0,0,0,0a.45.45,0,0,0-.14.1.51.51,0,0,0-.09.16.46.46,0,0,1-.09.17.24.24,0,0,1-.09.08h.07a.33.33,0,0,0,.18-.08.3.3,0,0,0,.09-.13s0,0,0,0,0,0,0,0a.42.42,0,0,1-.11.15.35.35,0,0,1-.12.07,1,1,0,0,0,.29-.08c.05,0,.06-.11.08-.13l.06-.11a.39.39,0,0,1,.1-.08s0,0,0,0,0,0,0,0a.28.28,0,0,0-.09.07.41.41,0,0,0,0,.09c0,.05,0,.15,0,.2a1.2,1.2,0,0,0,0,.38l.1-.12h0c0-.07,0-.14,0-.21a.74.74,0,0,0,0-.21s0,0,0,0,0,0,0,0a1.62,1.62,0,0,1,0,.22,1,1,0,0,1,0,.17.18.18,0,0,0,.05-.07.4.4,0,0,0,0-.15.32.32,0,0,0,0-.14s0,0,0,0,0,0,0,0a.38.38,0,0,1,0,.15.51.51,0,0,1,0,.13l.11-.08a.71.71,0,0,1,0-.14.41.41,0,0,1,0-.12s0,0,0,0,0,0,0,0a.45.45,0,0,0,0,.12s0,.1,0,.15a.17.17,0,0,0,.08.14.27.27,0,0,1,.13.17,1.93,1.93,0,0,0,0-.25.52.52,0,0,0-.08-.23s0,0,0,0,0,0,0,0a.57.57,0,0,1,.09.24,1.07,1.07,0,0,1,0,.31.4.4,0,0,0,.21-.38.08.08,0,0,0,0-.05s0,0,0,0,0,0,0,0a.14.14,0,0,1,0,.07.07.07,0,0,1,0,.05l0,0,.06,0a.2.2,0,0,1,0-.11.43.43,0,0,1,0-.16s0,0,0,0,0,0,0,0a.76.76,0,0,0,0,.15,1.21,1.21,0,0,0,0,.14s0,0,0,0,0,0,0,0a.88.88,0,0,1,0-.16,1.62,1.62,0,0,1,0-.22s0,0,0,0,0,0,0,0a1.41,1.41,0,0,0,0,.2l0,.21h0a.63.63,0,0,1,.1.12,1.29,1.29,0,0,0,0-.39s-.05-.14-.05-.19a.31.31,0,0,0-.07-.09.16.16,0,0,0-.09-.07s0,0,0,0,0,0,0,0a.39.39,0,0,1,.1.08l.07.09s.06.12.1.14a1,1,0,0,0,.29.05.31.31,0,0,1-.13-.06.31.31,0,0,1-.11-.14s0,0,0,0h0a.34.34,0,0,0,.1.13.59.59,0,0,0,.26.07.39.39,0,0,1-.1-.08.56.56,0,0,1-.1-.15.4.4,0,0,0-.1-.15.36.36,0,0,0-.15-.1s0,0,0,0,0,0,0,0a.42.42,0,0,1,.17.1.46.46,0,0,1,.11.16.38.38,0,0,0,.09.15.31.31,0,0,0,.11.08,1.58,1.58,0,0,1-.09-.36c0-.08-.15-.17-.13-.2s.09.05.16.07a.67.67,0,0,0,.34,0,2.4,2.4,0,0,0-.24-.22.27.27,0,0,0-.22-.06s0,0,0,0,0,0,0,0a.34.34,0,0,1,.26.07,1.62,1.62,0,0,1,.2.18l0,0a1,1,0,0,0-.15-.21.8.8,0,0,0-.21-.15s0,0,0,0,0,0,0,0a.73.73,0,0,1,.22.16l.14.19a.58.58,0,0,0,0-.14.68.68,0,0,0-.13-.18s-.13-.08-.13-.1l0,0-.11,0s0,0,0,0l0,0,.12,0,.06,0a1,1,0,0,1,.14,0,.75.75,0,0,0,.42,0l-.14-.06-.17,0s0,0,0,0,0,0,0,0a.57.57,0,0,1,.18,0,.58.58,0,0,1,.17.06s.06,0,.1,0a.4.4,0,0,1-.14-.24h0a1.37,1.37,0,0,0-.21-.15.24.24,0,0,0-.2,0s0,0,0,0,0,0,0,0a.27.27,0,0,1,.23,0l.18.13h0a.31.31,0,0,0-.29-.3c-.05,0-.12,0-.12,0s.06,0,.15-.06a.74.74,0,0,0,.51-.45l-.11.08-.23.09a.31.31,0,0,0-.13.06.28.28,0,0,0-.1.09s0,0,0,0a0,0,0,0,1,0,0A.55.55,0,0,1,109,26l.14-.06.22-.08.08-.06h-.29l-.25.11c-.07,0-.12.09-.12.15s0,0,0,0,0,0,0,0a.21.21,0,0,1,.14-.17l.14-.08h-.07c-.07,0-.07,0,0-.07a.34.34,0,0,0,.15-.14,1.22,1.22,0,0,0,.26-.72,1.34,1.34,0,0,1-.06.12.3.3,0,0,1-.14.11.67.67,0,0,1-.1.26.51.51,0,0,1-.23.15s0,0,0,0a.72.72,0,0,0,.17-.23.51.51,0,0,0,0-.24s0,0,0,0,0,0,0,0a.51.51,0,0,1,0,.27.7.7,0,0,1-.1.16.35.35,0,0,0,.11-.1.38.38,0,0,0,.1-.24,0,0,0,0,1,0,0,.23.23,0,0,0,.12-.1.53.53,0,0,0,.08-.15.72.72,0,0,1-.29.06,1.23,1.23,0,0,0-.34.11Z"/><path class="cls-6" d="M108.63,24.92a11.11,11.11,0,0,0-1.29,0q-.65,0-1.29.12s0,0,0,0,0,0,.08,0a12.08,12.08,0,0,1,1.21-.1,11.1,11.1,0,0,1,1.29,0s0,0,0,0Z"/><path class="cls-6" d="M106.06,25a11.08,11.08,0,0,1,1.28-.12,9.12,9.12,0,0,1,1.28,0l0-.08h0a.08.08,0,0,1-.08-.07.09.09,0,0,1,.08-.09.08.08,0,0,1,.07.05l0-.11a10.42,10.42,0,0,0-1.37,0,10.71,10.71,0,0,0-1.38.12l0,.1a.07.07,0,0,1,.06,0,.08.08,0,0,1,.08.08.08.08,0,0,1-.07.08h0l0,.06Zm1.92-.34a.08.08,0,0,0-.07.08.09.09,0,0,0,.08.08s.08,0,.07-.08A.07.07,0,0,0,108,24.64Zm0,0a0,0,0,0,0,0,0,0,0,0,0,0,0,0s0,0,0,0S108,24.68,108,24.68Zm-.69,0a.09.09,0,0,0-.08.08.08.08,0,0,0,.09.07.07.07,0,0,0,.07-.08A.08.08,0,0,0,107.3,24.65Zm0,0s0,0,0,0,0,0,0,0,0,0,0,0A0,0,0,0,0,107.3,24.69Zm-.67,0a.09.09,0,0,0-.08.08s0,.08.08.08a.09.09,0,0,0,.08-.09A.08.08,0,0,0,106.63,24.69Zm0,0a0,0,0,1,0,0,.08s0,0,0,0A0,0,0,0,0,106.63,24.73Z"/><path d="M107.31,24.18a.19.19,0,0,0-.07-.11.17.17,0,0,0-.12-.05s0,0,0,0a.26.26,0,0,0,.09-.09.44.44,0,0,0,.06-.16s0,0,0,0a.3.3,0,0,0,.19.21,0,0,0,0,1,0,.05.15.15,0,0,0-.09.06.35.35,0,0,0-.06.14s0,0,0,0Zm0-.08a.41.41,0,0,1,0-.09.17.17,0,0,1,.06-.06.23.23,0,0,1-.1-.07.43.43,0,0,1,0-.07l0,.1-.06.08.08.05Z"/><path d="M108,27.31l-.32.15s0,0,0,0,0,0,0,0l.32-.14s0,0,0,0S108,27.31,108,27.31Zm0-.2-.38.22s0,0,0,0,0,0,0,0l.37-.22s0,0,0,0S108,27.1,108,27.11Zm-1.16,0,.39.19s0,0,0,0,0,0,0,0l-.39-.2s0,0,0,0S106.82,27.1,106.83,27.11Zm0,.2.33.12s0,0,0,0,0,0,0,0l-.33-.11s0,0,0,0,0,0,0,0Zm.15.27a.62.62,0,0,0,.23,0,.16.16,0,0,0,.12-.09l0-.32a.61.61,0,0,1-.19,0,.18.18,0,0,1-.13-.11.38.38,0,0,1,0-.21s0,0,0,0,0,0,0,0a.37.37,0,0,0,0,.18.14.14,0,0,0,.1.08l.2,0,.19,0a.2.2,0,0,0,.12-.08.14.14,0,0,0,0-.11.09.09,0,0,0,0-.05.15.15,0,0,0-.09,0h-.13s0,0,0,0,0,0,0,0h0l.1,0a.2.2,0,0,1,.11,0,.12.12,0,0,1,.06.08.28.28,0,0,1,0,.15.33.33,0,0,1-.15.1.86.86,0,0,1-.17,0v.31h0a.14.14,0,0,0,.12.08.45.45,0,0,0,.22,0s0,0,0,0,0,0,0,0a.8.8,0,0,1-.25,0,.25.25,0,0,1-.14-.08.21.21,0,0,1-.13.09.72.72,0,0,1-.25,0s0,0,0,0,0,0,0,0Zm.23.12h.26s0,0,0,0,0,0,0,0h-.26s0,0,0,0S107.24,27.71,107.25,27.7Z"/><path d="M107.55,25.74a1.68,1.68,0,0,1,.26-.19.49.49,0,0,1,.23-.08s0,0,0,0,0,0,0,0a.35.35,0,0,0-.2.07,1.31,1.31,0,0,0-.26.19s0,0,0,0,0,0,0,0Zm-.38.05a1.27,1.27,0,0,0-.29-.18.6.6,0,0,0-.23-.06s0,0,0,0,0,0,0,0a.49.49,0,0,1,.25,0,1.43,1.43,0,0,1,.3.2s0,0,0,0,0,0,0,0Zm-.11.64a.64.64,0,0,1,.08-.14.57.57,0,0,1,.11-.11s0,0,0,0,0,0,0,0a.47.47,0,0,0-.1.1.54.54,0,0,0-.07.13s0,0,0,0S107.06,26.44,107.06,26.43Zm.19-1.1a.39.39,0,0,1,.08.14.47.47,0,0,1,0,.17.43.43,0,0,1,0,.16.3.3,0,0,1,0,.16.17.17,0,0,1-.1.07h-.11a.28.28,0,0,1,0,.2s0,0,0,0l-.08,0-.08,0h0l-.15-.06a.27.27,0,0,1-.1-.08h0a.24.24,0,0,1-.06-.11s0-.07,0-.11l-.12-.07-.11-.08s0,0,0,0,0,0,0,0a.35.35,0,0,0,.09.07l.14.07.23.06a1.13,1.13,0,0,1,.21.12h0a.17.17,0,0,0,.1,0,.13.13,0,0,0,.07-.06.34.34,0,0,0,0-.14v-.14h0a.41.41,0,0,0,0-.16.47.47,0,0,0-.07-.12,0,0,0,0,1,0,0s0,0,0,0ZM107,26a.78.78,0,0,0-.2-.11.76.76,0,0,0-.2-.06.29.29,0,0,0,0,.09.2.2,0,0,0,0,.08h0a.22.22,0,0,0,.09.07l.14.06h0l.09,0,.06,0a.32.32,0,0,0,0-.17v0Zm.47-.65a.31.31,0,0,0-.06.13.78.78,0,0,0,0,.16h0a.76.76,0,0,0,0,.15.31.31,0,0,0,.06.13.1.1,0,0,0,.08,0,.18.18,0,0,0,.1,0h0l0,0,.19-.13a1.19,1.19,0,0,1,.23-.07l.13-.08.09-.08s0,0,0,0,0,0,0,0a.39.39,0,0,1-.1.08l-.12.08a.37.37,0,0,1,0,.11.37.37,0,0,1,0,.11h0a.24.24,0,0,1-.09.08l-.15.08h0l-.08,0-.08,0h0a.34.34,0,0,1,0-.2.17.17,0,0,1-.1,0,.19.19,0,0,1-.11-.07.39.39,0,0,1-.06-.15.43.43,0,0,1,0-.16.47.47,0,0,1,0-.17.52.52,0,0,1,.07-.15s0,0,0,0,0,0,0,0Zm.61.43a.53.53,0,0,0-.2.07l-.19.12v0a.35.35,0,0,0,0,.17l.06,0,.08,0h0A.46.46,0,0,0,108,26a.19.19,0,0,0,.08-.07h0a.19.19,0,0,0,0-.09.19.19,0,0,0,0-.08Z"/><path d="M107.92,25.82a.14.14,0,0,0-.14.14.15.15,0,0,0,.15.13.13.13,0,0,0,.13-.14A.14.14,0,0,0,107.92,25.82Zm0,0a.1.1,0,0,0-.09.1.09.09,0,0,0,.09.09A.09.09,0,0,0,108,26,.09.09,0,0,0,107.92,25.86Zm0,0a.05.05,0,0,0,0,.06,0,0,0,0,0,0,.05A.06.06,0,0,0,108,26,.06.06,0,0,0,107.92,25.9Zm-1.08,0a.14.14,0,1,1-.13.14A.14.14,0,0,1,106.84,25.86Zm0,.05a.08.08,0,0,1,.09.08.09.09,0,0,1-.09.1.09.09,0,0,1-.09-.09C106.75,26,106.79,25.91,106.85,25.91Zm0,0a.06.06,0,0,1,.05.06s0,.05-.05.05a.06.06,0,0,1-.06-.05A.06.06,0,0,1,106.85,25.94Z"/></g><g id="lion-3" data-name="lion"><path d="M112.74,23.3a.05.05,0,0,0,0,0l-.36.44a.15.15,0,0,0-.12.22c-.16,0-.19.11-.2.26-.15-.24-.32-.32-.51-.21,0-.15-.11-.22-.26-.26a.51.51,0,0,1-.27-.1l-.11-.07c-.08-.06-.14,0-.11,0,.16.28.32.56.47.84a.12.12,0,0,0,.06.13c0,.09,0,.17.07.26l0,.07a.91.91,0,0,0-.41-.1.31.31,0,0,1-.23-.1s-.06,0-.06.05a1.37,1.37,0,0,0,.34,1h-.44c-.05,0-.06,0,0,.07a.84.84,0,0,0,.5.5.4.4,0,0,0-.24.32.3.3,0,0,1-.15.28s0,0,0,.07a.67.67,0,0,0,.56.09.88.88,0,0,0-.15.53.74.74,0,0,0,.39,0,.54.54,0,0,0,0,.19.58.58,0,0,1-.07.21s-.05.05,0,.07a1,1,0,0,0,.58,0,1.43,1.43,0,0,0,0,.46s0,.07.08,0a1.1,1.1,0,0,1,.34-.31.31.31,0,0,0,.09.14c.06,0,.09.11.09.22a.06.06,0,0,0,0,.05c.1,0,.34-.22.39-.36a.77.77,0,0,1,.26.3c0,.05.07,0,.09,0a2.32,2.32,0,0,0,.06-.46.9.9,0,0,0,.57.06s0-.05,0-.07a.68.68,0,0,1-.07-.23.42.42,0,0,0,0-.18.75.75,0,0,0,.39,0,.88.88,0,0,0-.11-.54.66.66,0,0,0,.57-.05s0,0,0-.06a.33.33,0,0,1-.12-.3.42.42,0,0,0-.21-.33.84.84,0,0,0,.53-.47s0-.06,0-.06l-.45,0a1.31,1.31,0,0,0,.42-.93c0-.07,0-.09-.06-.05a.28.28,0,0,1-.22.08,1.23,1.23,0,0,0-.42.07l0-.08a2.56,2.56,0,0,0,.11-.24.12.12,0,0,0,.06-.13c.18-.26.35-.53.52-.8,0-.05,0-.1-.1-.05l-.11.06a.51.51,0,0,1-.28.08c-.16,0-.27.1-.28.24-.18-.11-.35-.06-.52.18,0-.15,0-.29-.18-.28,0-.11,0-.19-.11-.23s-.27-.31-.39-.47a.05.05,0,0,0,0,0Z"/><path class="cls-6" d="M114.31,24.24s-.08,0-.11.06,0,.1,0,.12.05,0,.08,0v0h0c0-.05,0-.1,0-.12Z"/><path class="cls-6" d="M111.14,24.12s.08,0,.1.07a.09.09,0,0,1,0,.12s-.06,0-.09-.07,0-.1,0-.12Z"/><path class="cls-6" d="M114,24.8a0,0,0,0,0,0,0,0,0,0,0,0,0,0s0,0,0,0S114,24.8,114,24.8Z"/><path class="cls-6" d="M111.44,24.71s0,0,0,0a0,0,0,0,0,.08,0S111.46,24.71,111.44,24.71Z"/><path class="cls-6" d="M114.16,24.62a11.38,11.38,0,0,0-1.42-.14,13.84,13.84,0,0,0-1.44,0s0,.05,0,.05c.48,0,1,0,1.43,0a11.25,11.25,0,0,1,1.4.14s0-.05,0-.05Z"/><path class="cls-6" d="M111.29,24.45c.49,0,1,0,1.45,0a11.35,11.35,0,0,1,1.42.13l.08-.11h-.06c-.05,0-.05-.11,0-.18s.1-.11.15-.08a.08.08,0,0,1,0,.07l.3-.45a.92.92,0,0,1-.37.14c-.18,0-.27.08-.24.19s0,.08-.13,0-.34,0-.42.2-.11.11-.11,0a.48.48,0,0,0,0-.12c0-.15,0-.19-.13-.15s-.11,0-.08,0a.21.21,0,0,0,0-.14s0-.06-.09-.06c-.11-.16-.28-.32-.39-.48l-.37.45c-.05,0-.09,0-.1.05a.2.2,0,0,0,0,.14c0,.06,0,.09-.09,0s-.12,0-.14.13,0,.09,0,.13-.06.13-.11,0-.21-.34-.41-.24-.13.06-.11,0-.06-.17-.24-.2a.77.77,0,0,1-.36-.18l.25.44,0,0a.13.13,0,0,1,.15.09c0,.07,0,.15,0,.17h0l.06.1Z"/><path class="cls-6" d="M114,25.13h0l-.08.08-.14.11s0,0,0,0,0,0,0,0l.13-.11,0-.06-.18,0-.14.05a.24.24,0,0,0-.09.08s0,0,0,0a0,0,0,0,1,0,0,.45.45,0,0,1,.1-.09l.07,0-.2,0,0,0,0,0h0a0,0,0,0,1,0,0l0,0h-.15a.08.08,0,0,0,0,0,.05.05,0,0,0,0,0s0,0,0,0,0,0,0,0l0-.05,0,0H113l0,0,0,0s0,0,0,0,0,0,0,0l0,0h-.43a.1.1,0,0,1,0,.05s0,0,0,0h0l0,0a.08.08,0,0,0,0,0h-.23s0,0,0,0l0,0s0,0,0,0,0,0,0,0a.08.08,0,0,0,0,0l0,0H112l0,0a0,0,0,0,1,0,0s0,0,0,0l0,0,0,0h-.22l.08,0a.32.32,0,0,1,.1.1s0,0,0,0,0,0,0,0a.3.3,0,0,0-.08-.08l-.16-.07h-.17l0,.07.13.12s0,0,0,0,0,0,0,0l-.12-.13s-.06-.07-.09-.09a1.08,1.08,0,0,0-.36-.11.67.67,0,0,1-.28-.06.52.52,0,0,0,.07.15.27.27,0,0,0,.13.1h0a.57.57,0,0,0,.1.25.52.52,0,0,0,.11.1,1.4,1.4,0,0,1-.1-.16.51.51,0,0,1,0-.27s0,0,0,0,0,0,0,0a.42.42,0,0,0,0,.24.6.6,0,0,0,.17.23s0,0,0,0a.49.49,0,0,1-.24-.15.68.68,0,0,1-.11-.26.28.28,0,0,1-.13-.11.54.54,0,0,1-.07-.13,1.23,1.23,0,0,0,.26.73.43.43,0,0,0,.16.14c.05,0,.05.07,0,.07H111l.15.08a.2.2,0,0,1,.13.17s0,0,0,0,0,0,0,0a.18.18,0,0,0-.11-.15l-.25-.11h-.29l.08.06a1.17,1.17,0,0,0,.21.08l.15.06.11.1s0,0,0,0,0,0,0,0a.2.2,0,0,0-.09-.09.35.35,0,0,0-.14-.06,1,1,0,0,1-.22-.09l-.11-.08a.74.74,0,0,0,.51.45l0,0h0l.17,0,.16,0s0,0,0,0,0,0,0,0l-.17,0-.11,0h-.07a.3.3,0,0,0-.28.3h0a1.09,1.09,0,0,1,.17-.13.28.28,0,0,1,.23,0s0,0,0,0,0,0,0,0a.25.25,0,0,0-.2,0,1,1,0,0,0-.2.15.35.35,0,0,1-.14.23s.06.05.1,0l.17-.07.18,0s0,0,0,0,0,0,0,0L111,27l-.14.05a.68.68,0,0,0,.42,0l.08,0,.11,0,.12,0s0,0,0,0,0,0,0,0a.24.24,0,0,0-.14.05l-.08.05-.06,0a.52.52,0,0,0-.12.18.58.58,0,0,0-.05.14,1.27,1.27,0,0,1,.13-.19.94.94,0,0,1,.23-.16s0,0,0,0,0,0,0,0a.8.8,0,0,0-.21.15,1,1,0,0,0-.14.21s0,0,0,.06a1.2,1.2,0,0,1,.21-.19.34.34,0,0,1,.27-.07s0,0,0,0,0,0,0,0a.31.31,0,0,0-.24.06,2.4,2.4,0,0,0-.24.22.7.7,0,0,0,.35,0s.12-.08.15-.09l0,0,.07-.06h0s0,0,0,0l-.06.06-.06.07h0a.39.39,0,0,0-.11.15,2.37,2.37,0,0,1-.09.36l.11-.08a1,1,0,0,0,.09-.15.36.36,0,0,1,.11-.16.5.5,0,0,1,.17-.11s0,0,0,0,0,0,0,0a.39.39,0,0,0-.16.1.56.56,0,0,0-.1.15.38.38,0,0,1-.09.15l-.1.08h.07a.4.4,0,0,0,.18-.07.27.27,0,0,0,.1-.13h0s0,0,0,0a.33.33,0,0,1-.12.14.23.23,0,0,1-.12.06,1,1,0,0,0,.3-.05s0-.11.08-.13a.86.86,0,0,1,.07-.1l.11-.08s0,0,0,0,0,0,0,0a.28.28,0,0,0-.09.07.35.35,0,0,0-.06.09,1.8,1.8,0,0,1,0,.19,1.7,1.7,0,0,0,0,.39.65.65,0,0,1,.11-.12h0a.76.76,0,0,0,0-.21,1.48,1.48,0,0,0,0-.21s0,0,0,0,0,0,0,0a1.48,1.48,0,0,1,0,.21.88.88,0,0,1,0,.17l0-.06a.44.44,0,0,0,0-.15.33.33,0,0,0,0-.14s0,0,0,0,0,0,0,0a.43.43,0,0,1,0,.16.56.56,0,0,1,0,.12l.12-.07V28a.37.37,0,0,1,0-.12s0,0,0,0,0,0,0,0,0,.07,0,.11v.15a.2.2,0,0,0,.07.15.23.23,0,0,1,.11.18,1.14,1.14,0,0,0,0-.25.61.61,0,0,0-.07-.24s0,0,0,0,0,0,0,0a.91.91,0,0,1,.07.25,1.67,1.67,0,0,1,0,.31.34.34,0,0,0,.22-.41s0,0,0,0,0,0,0,0a.19.19,0,0,1,0,.07.09.09,0,0,1,0,.05s0,0,0,0l0,0a.43.43,0,0,1,0-.11.42.42,0,0,1,0-.16s0,0,0,0,0,0,0,0a.76.76,0,0,0,0,.15.31.31,0,0,0,0,.15h0l0,.05a1,1,0,0,1,0-.17,1.48,1.48,0,0,1,0-.21,0,0,0,0,1,0,0s0,0,0,0a1.48,1.48,0,0,0,0,.21,1.49,1.49,0,0,0,0,.21h0l.09.12a1.2,1.2,0,0,0,0-.38,1.08,1.08,0,0,0,0-.19l-.06-.1a.18.18,0,0,0-.08-.07s0,0,0,0,0,0,0,0a.28.28,0,0,1,.1.09.18.18,0,0,1,.06.09s0,.12.09.14a1.09,1.09,0,0,0,.28.08l-.12-.07a.33.33,0,0,1-.1-.15s0,0,0,0,0,0,0,0a.3.3,0,0,0,.09.13.45.45,0,0,0,.25.09.39.39,0,0,1-.1-.08.8.8,0,0,1-.08-.16.35.35,0,0,0-.09-.16.33.33,0,0,0-.15-.11s0,0,0,0h0a.61.61,0,0,1,.16.12.59.59,0,0,1,.1.17.52.52,0,0,0,.07.15.31.31,0,0,0,.11.09,1.51,1.51,0,0,1-.06-.37c0-.08-.14-.18-.12-.2s.08.06.16.08a.78.78,0,0,0,.33.07,1.28,1.28,0,0,0-.22-.24.28.28,0,0,0-.22-.08s0,0,0,0,0,0,0,0a.37.37,0,0,1,.25.09,1.84,1.84,0,0,1,.19.2l0-.05a1,1,0,0,0-.13-.23.64.64,0,0,0-.2-.16s0,0,0,0h0a.91.91,0,0,1,.21.18.82.82,0,0,1,.12.2.83.83,0,0,0,0-.15.38.38,0,0,0-.11-.18s-.13-.1-.13-.12l0,0-.11,0s0,0,0,0,0,0,0,0a.3.3,0,0,1,.11,0l.06,0a.35.35,0,0,1,.13.05.76.76,0,0,0,.42.06l-.14-.06-.16,0s0,0,0,0,0,0,0,0l.18,0,.16.08s.06,0,.1,0a.37.37,0,0,1-.12-.24h0a1.54,1.54,0,0,0-.19-.17.25.25,0,0,0-.2,0s0,0,0,0,0,0,0,0a.28.28,0,0,1,.23.05l.17.14h0a.32.32,0,0,0-.27-.32s-.12,0-.11,0,.06,0,.15-.05a.75.75,0,0,0,.54-.41l-.12.07a.79.79,0,0,1-.23.07l-.14.05a.39.39,0,0,0-.1.08s0,0,0,0,0,0,0,0a.27.27,0,0,1,.12-.09.59.59,0,0,1,.14-.06.75.75,0,0,0,.22-.06l.09-.05-.29,0-.26.09a.25.25,0,0,0-.13.14s0,0,0,0,0,0,0,0a.21.21,0,0,1,.14-.17l.15-.06h-.06c-.08,0-.07,0,0-.06a.48.48,0,0,0,.16-.13,1.33,1.33,0,0,0,.32-.7l-.08.12a.4.4,0,0,1-.15.1.46.46,0,0,1-.12.24.42.42,0,0,1-.24.14s0,0,0,0a.73.73,0,0,0,.18-.22.42.42,0,0,0,0-.24s0,0,0,0,0,0,0,0a.62.62,0,0,1-.17.42l.12-.09a.46.46,0,0,0,.12-.24,0,0,0,0,1,0,0,.25.25,0,0,0,.14-.08.53.53,0,0,0,.08-.15.7.7,0,0,1-.29,0,1.06,1.06,0,0,0-.35.09Z"/><path class="cls-6" d="M114,25a11.25,11.25,0,0,0-1.29-.12c-.43,0-.86,0-1.3,0a0,0,0,0,0,0,0s0,0,.07,0c.41,0,.82,0,1.23,0s.85.05,1.28.11c0,0,.05-.05,0-.05Z"/><path class="cls-6" d="M111.43,24.88A11,11,0,0,1,114,25l0-.08h0a.08.08,0,0,1-.07-.08.08.08,0,0,1,.08-.08.08.08,0,0,1,.07,0l0-.1a10.42,10.42,0,0,0-1.37-.13c-.46,0-.92,0-1.38,0l0,.11a.08.08,0,0,1,.06,0,.09.09,0,0,1,.08.09.08.08,0,0,1-.08.07h0v.06Zm1.95-.19a.08.08,0,0,0-.08.08.08.08,0,0,0,.07.08.08.08,0,0,0,.08-.08A.07.07,0,0,0,113.38,24.69Zm0,0a0,0,0,0,0,0,0,0,0,0,0,0,0,0s0,0,0,0S113.4,24.73,113.38,24.73Zm-.68-.08a.08.08,0,1,0,0,.15.08.08,0,0,0,0-.15Zm0,0s0,0,0,0,0,0,0,0,0,0,0,0S112.72,24.69,112.7,24.69Zm-.68-.05a.08.08,0,0,0-.08.07.08.08,0,0,0,.08.08.08.08,0,0,0,.08-.07A.08.08,0,0,0,112,24.64Zm0,0s0,0,0,0a0,0,0,0,0,0,0s0,0,0,0A0,0,0,0,0,112,24.68Z"/><path d="M112.74,24.18a.16.16,0,0,0,0-.11.23.23,0,0,0-.12-.06,0,0,0,0,1,0-.05.24.24,0,0,0,.1-.08.34.34,0,0,0,.06-.16s0,0,0,0a.5.5,0,0,0,0,.13A.47.47,0,0,0,113,24s0,0,0,0a.19.19,0,0,0-.09.05.27.27,0,0,0-.07.14,0,0,0,0,1-.05,0Zm0-.07a.19.19,0,0,1,0-.09.18.18,0,0,1,.07-.05l-.09-.08a.3.3,0,0,1,0-.08.93.93,0,0,1-.05.1l-.08.07a.26.26,0,0,1,.09.05Z"/><path d="M113.15,27.36l-.33.11s0,0,0,0,0,0,0,0l.33-.12s0,0,0,0S113.16,27.35,113.15,27.36Zm0-.21-.38.19s0,0,0,0,0,0,0,0l.39-.19s0,0,0,0S113.2,27.15,113.19,27.15ZM112,27.07l.38.22s0,0,0,0,0,0,0,0l-.37-.22s0,0,0,0S112,27.06,112,27.07Zm0,.2.32.14s0,0,0,0,0,0,0,0l-.32-.15s0,0,0,0,0,0,0,0Zm.13.28a.61.61,0,0,0,.22,0,.18.18,0,0,0,.13-.09v-.31a1.08,1.08,0,0,1-.19,0,.18.18,0,0,1-.12-.12.37.37,0,0,1,0-.21s0,0,0,0,0,0,0,0a.28.28,0,0,0,0,.18.13.13,0,0,0,.09.09.64.64,0,0,0,.2,0,.62.62,0,0,0,.19,0,.24.24,0,0,0,.12-.07.12.12,0,0,0,0-.11.08.08,0,0,0,0-.05l-.08,0h-.14s0,0,0,0,0,0,0,0h.15a.17.17,0,0,1,.1,0,.11.11,0,0,1,0,.09.16.16,0,0,1,0,.14.38.38,0,0,1-.15.09l-.17,0v.3h0a.14.14,0,0,0,.11.1.94.94,0,0,0,.23,0s0,0,0,0,0,0,0,0a.54.54,0,0,1-.25,0,.2.2,0,0,1-.13-.08.17.17,0,0,1-.14.07.53.53,0,0,1-.24,0s0,0,0,0,0,0,0,0Zm.22.14h.25s0,0,0,0,0,0,0,0h-.25s0,0,0,0S112.41,27.69,112.42,27.69Z"/><path d="M112.87,25.76a1.57,1.57,0,0,1,.27-.18.56.56,0,0,1,.23-.06s0,0,0,0,0,0,0,0a.63.63,0,0,0-.21.05,1.22,1.22,0,0,0-.26.18s0,0,0,0,0,0,0,0Zm-.39,0a1,1,0,0,0-.27-.21.49.49,0,0,0-.23-.07s0,0,0,0,0,0,0,0a.56.56,0,0,1,.25.08,1.17,1.17,0,0,1,.29.22s0,0,0,0,0,0,0,0Zm-.16.63a.71.71,0,0,1,.1-.14l.11-.1a0,0,0,0,1,0,0s0,0,0,0a.52.52,0,0,0-.11.1.36.36,0,0,0-.08.12s0,0,0,0S112.32,26.42,112.32,26.41Zm.28-1.09a.69.69,0,0,1,.07.15.88.88,0,0,1,0,.17.44.44,0,0,1,0,.16.39.39,0,0,1-.06.15.19.19,0,0,1-.11.07.17.17,0,0,1-.1,0,.34.34,0,0,1,0,.2h0l-.08,0a.2.2,0,0,0-.08,0h0a.58.58,0,0,1-.14-.08A.39.39,0,0,1,112,26h0a.37.37,0,0,1,0-.11s0-.07,0-.11l-.12-.08a.24.24,0,0,1-.09-.08s0,0,0,0,0,0,0,0l.09.08.13.08a.7.7,0,0,1,.23.08,1.06,1.06,0,0,1,.2.12s0,0,0,0h0a.1.1,0,0,0,.09,0,.1.1,0,0,0,.08,0,.31.31,0,0,0,.06-.13.76.76,0,0,0,0-.15h0a.41.41,0,0,0,0-.16.31.31,0,0,0-.06-.13s0,0,0,0,0,0,0,0Zm-.26.65-.19-.12a.53.53,0,0,0-.2-.07.19.19,0,0,0,0,.08.19.19,0,0,0,0,.09h0a.27.27,0,0,0,.08.07l.14.08h0l.08,0,.06,0a.35.35,0,0,0,0-.17v0Zm.51-.61a.75.75,0,0,0-.07.12.88.88,0,0,0,0,.17h0a.76.76,0,0,0,0,.15.35.35,0,0,0,0,.13.16.16,0,0,0,.08.06.1.1,0,0,0,.09,0h0a.56.56,0,0,1,.2-.11.53.53,0,0,1,.24-.06l.13-.08.1-.07s0,0,0,0,0,0,0,0a.52.52,0,0,1-.11.07.47.47,0,0,1-.12.07.36.36,0,0,1,0,.11.24.24,0,0,1-.06.11h0a.29.29,0,0,1-.1.07l-.15.07h0a.13.13,0,0,0-.08,0l-.08,0a0,0,0,0,1,0,0,.28.28,0,0,1,0-.2h-.11a.25.25,0,0,1-.1-.08.3.3,0,0,1-.05-.16.43.43,0,0,1,0-.16.47.47,0,0,1,0-.17.39.39,0,0,1,.08-.14s0,0,0,0,0,0,0,0Zm.58.47a.76.76,0,0,0-.2.06,1,1,0,0,0-.2.11v0a.32.32,0,0,0,0,.17l.06,0,.09,0h0l.14-.06.09-.06h0a.22.22,0,0,0,0-.08s0-.06,0-.09Z"/><path d="M113.22,25.86a.14.14,0,0,0-.14.13.13.13,0,0,0,.13.14.12.12,0,0,0,.14-.13A.13.13,0,0,0,113.22,25.86Zm0,0a.11.11,0,0,0-.1.09.1.1,0,0,0,.09.1.09.09,0,0,0,.1-.09A.11.11,0,0,0,113.22,25.9Zm0,0a.06.06,0,0,0-.06,0,.06.06,0,0,0,.06.06,0,0,0,0,0,0-.05A.06.06,0,0,0,113.22,25.94Zm-1.07-.12a.13.13,0,0,1,.13.14.14.14,0,0,1-.14.14A.15.15,0,0,1,112,26,.14.14,0,0,1,112.15,25.82Zm0,.05a.09.09,0,0,1,.09.09.1.1,0,0,1-.1.09.09.09,0,0,1-.09-.09C112.06,25.9,112.1,25.86,112.15,25.87Zm0,0a.06.06,0,0,1,0,.11,0,0,0,0,1,0-.05A.06.06,0,0,1,112.15,25.9Z"/></g><path class="cls-1" d="M127.89,25.3h0l-5.12-5.85L116,23.31l-1.14,13.62a58.68,58.68,0,0,1,9.63,1.62l3.37-13.25Z"/><path d="M117.36,26.14a.82.82,0,0,1,.68.07.47.47,0,0,1,.22.15l.32-.22a1.9,1.9,0,0,1,.48-.27,2,2,0,0,1,.72-.21,2.84,2.84,0,0,1,.77,0,1.42,1.42,0,0,1,.62.18l.53.27c.19.1.38.2.56.28a2.53,2.53,0,0,0,.8.13,1.12,1.12,0,0,0,.41,0c.11,0,.18,0,.06.12-.89.54-1.58.06-2.17-.16a4.72,4.72,0,0,1,.57.45,2.82,2.82,0,0,0,.92.64,2.21,2.21,0,0,0,.94.22,1.94,1.94,0,0,0,.41,0c.08,0,.11,0,.11,0a.11.11,0,0,1,0,.11,1.35,1.35,0,0,1-.68.21,2.65,2.65,0,0,1-1.39-.36,6.25,6.25,0,0,1-.88-.64,2.11,2.11,0,0,0-.79-.38,1.7,1.7,0,0,0-.78,0,.31.31,0,0,1,.16.09,1.12,1.12,0,0,0,.51.13c.12,0,.08.1-.1.2a.49.49,0,0,1-.44.2c-.26.17-.35.06-.44-.05a.83.83,0,0,1-.06.21.14.14,0,0,1,0,.11.3.3,0,0,1,0,.2.15.15,0,0,0,.06.1.26.26,0,0,1,.09.18.21.21,0,0,0,.07.12,1.06,1.06,0,0,1,.16.15.37.37,0,0,1,.25.33.27.27,0,0,1,.19.23.3.3,0,0,1,.17.12c.24,0,.48,0,.7,0a.83.83,0,0,1,.53.32.81.81,0,0,0,.31,0,1.08,1.08,0,0,1,.35-.1,2.56,2.56,0,0,1,.62,0,.63.63,0,0,1,.32.2.41.41,0,0,0,.48.06.73.73,0,0,1,.63,0,.75.75,0,0,1,.29,0,.32.32,0,0,1,.26-.11c.15,0,.26,0,.23.2a.17.17,0,0,1-.08.12c-.06.15-.19.19-.36.17a.36.36,0,0,1-.12.23c.07.23,0,.32-.17.32a.17.17,0,0,1-.18.1.36.36,0,0,1-.23.13.43.43,0,0,0,.07.16c.12.17,0,.24-.21.25a.82.82,0,0,1,0,.35c.16.1.18.2,0,.3a.27.27,0,0,1-.14.44.36.36,0,0,1-.08.28c-.05,0-.12.05-.08.13s.07.31-.06.32-.05,0-.05,0,0,0,0,0a2.9,2.9,0,0,0-.41.27,0,0,0,0,1-.06,0,2.67,2.67,0,0,1-.46.62.41.41,0,0,1-.26.31.11.11,0,0,1-.09.08c.08.09.12.18,0,.26a.74.74,0,0,1-.35.24c-.27.07-.43.06-.54-.05s-.06-.15,0-.18c-.16,0-.2-.08-.19-.19s0-.05.08-.05a.87.87,0,0,0,.26-.08.57.57,0,0,1,.13-.14.43.43,0,0,1,.31-.35,1,1,0,0,0,.37-.34l.22-.38a.44.44,0,0,1-.07-.2.47.47,0,0,1-.14-.14c-.12,0-.17-.06-.19-.13l-.08,0a.34.34,0,0,1-.19.07,1.28,1.28,0,0,1-.29.24.2.2,0,0,1-.19.15c-.24,0-.38.33-.51.45a.36.36,0,0,0-.11.19c0,.16,0,.28-.12.28s-.09,0-.09,0h-.11a.16.16,0,0,1,0,.23.3.3,0,0,1-.23.11.85.85,0,0,1-.43-.06.19.19,0,0,1-.14-.19c-.08,0-.1-.08-.09-.12s.06-.08.12-.07l.16,0a1.3,1.3,0,0,1,.49-.37.73.73,0,0,1,.18-.17.63.63,0,0,1,.24-.37.58.58,0,0,1,.06-.17s0,0,0-.07a.34.34,0,0,1,0-.29.39.39,0,0,1,0-.15c-.28.17-.37.12-.41,0-.1.09-.2.13-.27,0a.44.44,0,0,1-.3,0,.83.83,0,0,1-.21.06,1,1,0,0,1-.13.18.86.86,0,0,1-.13.39,2.5,2.5,0,0,1-.19.41.24.24,0,0,1,0,.14c0,.15,0,.23-.12.27a.47.47,0,0,1-.11.19v.07a.24.24,0,0,1-.06.28l-.24.13a.3.3,0,0,1-.26,0c-.14-.05-.13-.1-.11-.15a.17.17,0,0,1-.14,0,.31.31,0,0,1-.09-.07s0-.1,0-.14a.57.57,0,0,0,.23-.15s.06-.1.1-.11.1-.17.18-.19a2.76,2.76,0,0,1,.18-.39.18.18,0,0,0,0-.12s0-.07,0-.09,0,0,0,0a.33.33,0,0,1,0-.31c.07-.12.16-.39.08-.52a.6.6,0,0,1,0-.23.08.08,0,0,1-.07,0c-.07,0-.12,0-.16.07s-.07.16-.1.16a.53.53,0,0,1-.25.43.62.62,0,0,0,0,.3c0,.11,0,.19,0,.2A.17.17,0,0,0,118,33a.29.29,0,0,0,0,.09.18.18,0,0,1,0,.26.56.56,0,0,1-.6.07c-.15-.06-.19-.13-.18-.2-.22,0-.18-.19,0-.24a.9.9,0,0,0,.5-.37c0-.21.06-.36.17-.38a1.34,1.34,0,0,1,.11-.37.54.54,0,0,0,.08-.36c-.13-.07-.13-.15,0-.24s0,0,0-.06-.07-.08-.06-.15,0-.06-.06-.06-.12-.09,0-.16,0-.09,0-.11a.15.15,0,0,1,0-.12c-.1-.08-.06-.16,0-.24a.3.3,0,0,1-.1-.2c-.19,0-.26-.11-.15-.25a.85.85,0,0,1,.16-.17.28.28,0,0,0,.07-.22c-.06-.14.12-.24.27-.35a.23.23,0,0,1,0-.11c-.09-.08-.07-.16,0-.23a.49.49,0,0,1,0-.11c-.21,0-.21-.08-.11-.29-.12-.07-.09-.19.14-.38a.25.25,0,0,1,0-.1.48.48,0,0,0-.27.08.25.25,0,0,1-.25,0,.38.38,0,0,0-.11-.11.15.15,0,0,1-.06-.16c-.25,0-.29-.17-.15-.28a.45.45,0,0,0,.17-.21,1.15,1.15,0,0,1,.35-.41.78.78,0,0,1,0-.14.46.46,0,0,0-.19-.08.33.33,0,0,0-.16-.17s-.06-.05,0-.12c-.13-.11-.1-.18-.06-.25Z"/><path class="cls-6" d="M121.85,32.52h0a1.9,1.9,0,0,1-.21.19c-.06-.08-.15,0-.06,0l0,0c0,.07,0,.11-.14.12h0a.34.34,0,0,1,0-.1s0-.07,0-.11,0,0,0,0a0,0,0,0,0,0,0,.5.5,0,0,0,0,.12.37.37,0,0,0,0,.11c-.21.07-.34.29-.49.45a.43.43,0,0,0-.11.21s0,.24-.07.24h-.06s-.06,0-.1,0h-.26c-.06.06.09,0,.17.09a.09.09,0,0,1,0,.12c-.07.18-.49.12-.62.05a.12.12,0,0,1-.07-.13h.09l.15,0a0,0,0,0,0,0-.05s0,0,0,0a.22.22,0,0,1-.13,0h-.14s0,0,0,0,0,0,.06,0l.19-.07a1.41,1.41,0,0,1,.49-.38.86.86,0,0,1,.2-.18.63.63,0,0,1,.24-.38.56.56,0,0,1,.07-.18.41.41,0,0,1,0-.11.29.29,0,0,1,0-.27.41.41,0,0,1,0-.19v0l.12-.09.1-.06a1.55,1.55,0,0,0,0,.21h0l-.05.07a.25.25,0,0,0,0,.07s0,0,0,0,0,0,0,0a.13.13,0,0,1,0-.06l0-.06h0a.32.32,0,0,0,.2-.09l.17-.17v.28a.7.7,0,0,0-.15.19v0s0,0,0,0a.55.55,0,0,1,.13-.17h0l0,0a1.55,1.55,0,0,1,.22-.12.7.7,0,0,0,0,.25.38.38,0,0,0,.14.24Z"/><path class="cls-6" d="M117.72,30.11a.09.09,0,0,1,0,0h0a1,1,0,0,1,.1-.15.7.7,0,0,1,.13-.16s0,0,0,0,0,0,0,0a.64.64,0,0,0-.13.15l-.09.15a.09.09,0,0,1,0,.05.3.3,0,0,0,.06.18h0l.06-.11a.6.6,0,0,1,.13-.09l.08-.09a.56.56,0,0,0,0-.08s0,0,0,0,0,0,0,0a.41.41,0,0,1,0,.09.38.38,0,0,1-.09.09h0a.53.53,0,0,0-.11.09.18.18,0,0,0-.06.09.06.06,0,0,1,0,.08c-.06.08-.13.13,0,.2a.19.19,0,0,0,0,.14s0,.11,0,.18,0,0,0,.05h0a.44.44,0,0,1,.08-.11.39.39,0,0,1,.08-.1.38.38,0,0,0,.1-.13.25.25,0,0,0,0-.14s0,0,0,0a0,0,0,0,1,0,0,.42.42,0,0,1,0,.15.49.49,0,0,1-.11.14l-.08.09L118,31c.07.05,0,.12.06.19h0l0-.07.06-.1s0,0,0,0a0,0,0,0,1,0,0l-.07.11,0,.06h0a.1.1,0,0,1,0,.15c-.11.08-.08.1,0,.16a.7.7,0,0,1,0,.25h0v.15s0,0,0,0h0v-.1s0,0,0,0a1.21,1.21,0,0,0-.16.45c-.17,0-.15.21-.16.36a1,1,0,0,1-.5.39s-.14,0-.15.09.07.06.11,0,.18,0,0,.06a.06.06,0,0,0,0,.07.59.59,0,0,0,.57.06c.1-.07.16-.14.07-.23a.31.31,0,0,1,.2-.32.17.17,0,0,0,0-.12.78.78,0,0,1,0-.34l0,0c.06,0,.16-.17.2-.33s0-.06,0-.1,0-.06,0,0,0-.06,0-.1a.19.19,0,0,1,.23-.1,1.42,1.42,0,0,1-.05-.22,1.18,1.18,0,0,1,0-.27s0,0,0,0l.09-.19.08-.2s0,0,0,0v0l-.09.2c0,.06,0,.13-.08.19a0,0,0,0,1,0,0,.74.74,0,0,0,0,.26.66.66,0,0,0,.06.25s0,0,0,0,0,0,0,.09a.92.92,0,0,0,0,.16.67.67,0,0,1-.09.58.29.29,0,0,0,0,.22c0,.06,0,.11,0,.15s0,0,0,0a.33.33,0,0,1,0,.14,2.6,2.6,0,0,0-.19.42c-.11,0-.13.09-.18.19a.12.12,0,0,0-.09.09A.56.56,0,0,1,118,34c-.07,0,0,.07.06.11s.11,0,.15-.11.09,0,.06,0a.54.54,0,0,0-.06.18s.16.08.19.08.23-.1.32-.15,0-.13,0-.22h-.12l-.15-.05v0s0,0,0,0l.14,0h.13v-.07a.72.72,0,0,0,.12-.21c.12-.06.12-.11.1-.24a.22.22,0,0,0,0-.14,2,2,0,0,0,.19-.42.53.53,0,0,0,.13-.39s0-.09.07-.08a1,1,0,0,0,.08-.14h0a.29.29,0,0,1,0-.09.21.21,0,0,0,0-.06.17.17,0,0,0,0-.12.21.21,0,0,0,0-.11s0,0,0-.05,0,0,0-.06,0,0,0,0,0,0,0,0,0,0,0,0l0,0h0a.35.35,0,0,1,.05.13.34.34,0,0,1,0,.14h0a.33.33,0,0,0,0,.06l0,.08h0a.41.41,0,0,0,.19,0h0a.38.38,0,0,0,.09-.12.34.34,0,0,0,.06-.15s0,0,0,0,0,0,0,0a1.62,1.62,0,0,1-.06.17.35.35,0,0,1-.07.09.44.44,0,0,0,.28,0,1.68,1.68,0,0,1,0-.32.46.46,0,0,1,.09-.2h0s0,0,0,0a.38.38,0,0,0-.08.18,1.58,1.58,0,0,0,0,.31h0c0,.06.07.11.15.06l.09-.07v0l.24-.23.24-.18h0s0,0,0,0a1.3,1.3,0,0,0-.23.18l-.21.19a.15.15,0,0,1,0,.07c0,.09,0,.15.16.1a.55.55,0,0,0,.15-.08l.08,0,.13-.09.13-.08,0-.15a1.08,1.08,0,0,1,.2-.34h0a.66.66,0,0,0,.18-.14.62.62,0,0,0,.11-.17s0,0,0,0,0,0,0,0a.71.71,0,0,1-.12.18.86.86,0,0,1-.18.14,1.4,1.4,0,0,0-.19.33.5.5,0,0,0,0,.13h0s0,0,0,0h0a1.48,1.48,0,0,0,0,.21.29.29,0,0,0,.18-.08,1.23,1.23,0,0,0,.19-.2h0a.26.26,0,0,1,.06-.13.28.28,0,0,1,.1-.09s0,0,0,0,0,0,0,0l-.09.08a.52.52,0,0,0-.06.13v.3h0a.7.7,0,0,1,.24-.13s0,0,0,0a.76.76,0,0,0,0,.26.31.31,0,0,0,.11.21l.09-.13,0,0h0l.08-.07.06-.06.06,0s0,0,0,0,0,0,0,0l-.06.05-.06.06h0l-.08.07a.25.25,0,0,0,0,.08v0h.15c0,.12,0,.14.13.14v-.12l0-.13s0,0,0,0,0,0,0,0l0,.12v.12h0a.3.3,0,0,0,.17.16.54.54,0,0,0,0-.11.3.3,0,0,0,0-.13s0,0,0,0,0,0,0,0a.78.78,0,0,1,0,.14.42.42,0,0,1-.07.13h0l0,.12a.3.3,0,0,0,0-.08l.08-.1a0,0,0,0,1,0,0,0,0,0,0,1,0,0l-.07.09,0,.1,0,0c-.17.28-.34.66-.66.79a.39.39,0,0,0-.27.33.58.58,0,0,0-.15.16.68.68,0,0,1-.31.08c0,.08,0,.11.09.11s.18-.08.19-.07,0,.12-.14.2,0,0,0,0,.36.1.5.06a.71.71,0,0,0,.34-.25s0-.1-.07-.15c-.2,0-.17-.17,0-.09s.06,0,.08-.08a.34.34,0,0,0,.26-.29,3.13,3.13,0,0,0,.42-.54.2.2,0,0,0,0-.14.34.34,0,0,0,0-.11.69.69,0,0,0,0-.13,0,0,0,0,1,0,0s0,0,0,0a.51.51,0,0,1,0,.13l0,.1s0,0,0,0a3.71,3.71,0,0,1,.41-.28.1.1,0,0,1,.12-.09s0,0,0,0a.25.25,0,0,0,0-.22c0-.1,0-.13.1-.18s.06-.19.06-.27h0v0l0-.09v0h0a.29.29,0,0,1,0,.09v0a.28.28,0,0,0,.17-.15.33.33,0,0,0-.07-.23l0,0-.11,0h0s0,0,0,0l.11,0,.08,0a.27.27,0,0,0,.08-.07c0-.07-.08-.13-.13-.16h0l-.19-.18s0,0,0,0h0l.18.17a.76.76,0,0,0,0-.3,1,1,0,0,0,0-.1h0a.26.26,0,0,1-.12-.11.29.29,0,0,1-.05-.13h0a.56.56,0,0,0,0,.12.2.2,0,0,0,.11.09.3.3,0,0,0,.24,0c.09-.05,0-.15-.06-.22a.32.32,0,0,1,0-.14h0a.08.08,0,0,0,0,0l0,0s0,0,0,0a0,0,0,0,1,0,0l.06,0,0,.05h0a.35.35,0,0,0,.2-.14l-.1-.1-.12-.09s0,0,0,0,0,0,0,0l.12.1.1.11s0,0,0,0,.1,0,.15-.08a.72.72,0,0,0-.14-.21s0,0,0,0,0,0,0,0l.09.1a.61.61,0,0,1,.05.12.25.25,0,0,0,.12,0c.07,0,0-.2,0-.26h0l0,0,0,0s0,0,0,0,0,0,0,0l0,0,0,0h0a.29.29,0,0,0,.09-.16c0-.09,0-.05.14-.07a.26.26,0,0,0,.24-.16s.06,0,.06-.08,0-.12-.08-.13a.33.33,0,0,0-.29.1l0,.06s0,0,0,0h0l0-.05a.7.7,0,0,0-.32.05h0l0,.08a.27.27,0,0,1,0,.12s0,0,0,0h0a.23.23,0,0,0,0-.11.59.59,0,0,0-.08-.11h0a.6.6,0,0,0-.26-.05l0,0,.06.05s0,0,0,0,0,0,0,0l-.06,0a.12.12,0,0,0,0-.05h0a1,1,0,0,0-.23.06l-.16,0a.58.58,0,0,1,.1.12.44.44,0,0,1,.06.16s0,0,0,0h0a.34.34,0,0,0-.06-.15.38.38,0,0,0-.09-.13s0,0,0,0a.38.38,0,0,1-.15,0l.06.1s0,0,0,0h0l-.06-.11-.12,0,0,.16a1.66,1.66,0,0,1,0,.24s0,0,0,0,0,0,0,0a1.94,1.94,0,0,0,0-.24,1.29,1.29,0,0,0,0-.19.12.12,0,0,1,0-.05.61.61,0,0,0-.16-.12.08.08,0,0,1,0,.07.24.24,0,0,1,0,.13h0s0,0,0,0a.34.34,0,0,0,0-.11.19.19,0,0,0,0-.08.82.82,0,0,0-.28-.07l.08.1s0,.09.07.13a.19.19,0,0,1,.07.12.51.51,0,0,1,0,.13h0s0,0,0,0a.3.3,0,0,0,0-.13.18.18,0,0,0-.06-.1h0c0-.05,0-.09-.07-.13l-.09-.12h-.1v0a.14.14,0,0,1,0,.07s0,0,0,0a0,0,0,0,1,0,0s0,0,0-.06l0,0h-.21a1.17,1.17,0,0,1,.17.28,1.19,1.19,0,0,1,.1.32s0,0,0,0h0a1.68,1.68,0,0,0-.09-.32,1.75,1.75,0,0,0-.18-.29h0l-.16,0,.06.05.06.06s0,0,0,0,0,0,0,0l-.06-.05-.08-.06-.08,0,0,0,.13.11.15.17s0,0,0,0,0,0,0,0a.79.79,0,0,0-.14-.17l-.15-.12h-.17a1,1,0,0,1,.09.21,1,1,0,0,1,.05.24h0s0,0,0,0a.64.64,0,0,0-.05-.23,1,1,0,0,0-.09-.22h-.11l.06.2c0,.08,0,.16,0,.24s0,0,0,0,0,0,0,0a1.87,1.87,0,0,0,0-.25l-.06-.21a1,1,0,0,0-.35-.27.41.41,0,0,1,.07.11.4.4,0,0,1,0,.19s0,0,0,0a0,0,0,0,1,0,0,.39.39,0,0,0,0-.18.42.42,0,0,0-.09-.14l-.09,0-.27,0a.27.27,0,0,1,.12.19h0c0-.07-.06-.12-.13-.19h-.16l.07.09a.34.34,0,0,1,.06.12h0a.28.28,0,0,0,0,.16.22.22,0,0,0,.12.11s0,0,0,0,0,0,0,0a.28.28,0,0,1-.13-.11.48.48,0,0,1,0-.18l0-.11-.09-.1h-.18a1.6,1.6,0,0,1,0,.21,1.27,1.27,0,0,1,0,.28,0,0,0,0,1,0,0,0,0,0,0,1,0,0,1.18,1.18,0,0,0,0-.27.79.79,0,0,0-.05-.22h0a.25.25,0,0,0-.13-.12v0a.09.09,0,0,1,0,.06h0s0,0,0,0,0,0,0-.05v0h0c0-.12-.06-.17-.15-.21s0,.06,0,.1a.35.35,0,0,1,0,.13,0,0,0,0,1,0,0s0,0,0,0a.56.56,0,0,0,0-.12.34.34,0,0,0,0-.1h0c0-.17,0-.26-.23-.32a.13.13,0,0,1,0,.06.53.53,0,0,1,0,.12s0,0,0,0,0,0,0,0a.43.43,0,0,0,0-.11.34.34,0,0,0,0-.1,1.54,1.54,0,0,0-.13-.12.57.57,0,0,1,0,.18.72.72,0,0,1-.1.22h0s0,0,0,0a1.07,1.07,0,0,0,.1-.22.65.65,0,0,0,0-.2l0-.07h0l0,0h0s0,0,0,0l0,0,0,0v0a.2.2,0,0,0-.08-.13h0a.17.17,0,0,1,0,.05.15.15,0,0,1-.05.07h0s0,0,0,0a.35.35,0,0,0,0-.08s0,0,0-.06a.21.21,0,0,1,0-.06l0,0,0,.06h0s0,0,0,0l0,0,0-.05s0,0,0-.05a.27.27,0,0,0-.06-.19h0l-.09,0a.37.37,0,0,0-.12.07h0s0,0,0,0l.13-.08.11,0s0,0,0-.06a.88.88,0,0,1-.31.07.4.4,0,0,1-.2,0s0,0,0,0,0,0,0,0a.37.37,0,0,0,.19,0,.79.79,0,0,0,.3-.07h0a.94.94,0,0,0,.06-.15h-.15s0,0,0,0a0,0,0,0,1,0,0h.15a.11.11,0,0,0,0-.05c0-.06.07-.07.12,0a.5.5,0,0,0,.11.1.21.21,0,0,0,.22,0h-.06s0,0,0,0h0l.07,0h0a.41.41,0,0,0,.36-.12H120l-.18-.05s0,0,0,0,0,0,0,0a.61.61,0,0,0,.17,0h.27l0,0a.25.25,0,0,0,.12-.08,1.34,1.34,0,0,1-.52-.14.44.44,0,0,0-.18-.09.63.63,0,0,0-.36.07l-.08-.07-.12,0a1,1,0,0,1-.17,0h0s0,0,0,0h.17c.06,0,.11,0,.16,0a1.53,1.53,0,0,1,.46-.1,1.41,1.41,0,0,1,.46-.05h0s0,0,0,0a.2.2,0,0,0,.08-.23.52.52,0,0,0-.21-.21c-.11,0-.22,0-.34,0a.87.87,0,0,0-.22.05.42.42,0,0,1,.16.11.53.53,0,0,1,.11.25s0,0,0,0,0,0,0,0a.61.61,0,0,0-.1-.23.4.4,0,0,0-.2-.11,1.74,1.74,0,0,0-.34,0,.52.52,0,0,0-.2.08.36.36,0,0,1,.23,0,.35.35,0,0,1,.16.19s0,0,0,0,0,0,0,0a.3.3,0,0,0-.13-.17.57.57,0,0,0-.44.07,1.1,1.1,0,0,0-.16.15s0,0,0,0a0,0,0,0,1,0-.05,1.29,1.29,0,0,1,.18-.16.38.38,0,0,1,.18-.09.5.5,0,0,1,.26-.14c.11,0,.23,0,.35-.06a.24.24,0,0,0-.13-.13.44.44,0,0,0-.2,0,1.75,1.75,0,0,0-.4.22h.13s0,0,0,0-.09,0-.12,0h-.11a0,0,0,0,1,0,0,3.17,3.17,0,0,0-.4.29h0a.39.39,0,0,0-.24,0s0,.08,0,.15a.65.65,0,0,0-.05.21,1,1,0,0,0-.35.39.41.41,0,0,1-.08.13l.07,0s0,0,0,0a.28.28,0,0,1,0-.09.3.3,0,0,1,0-.1h0s0,0,0,0l0,.1a.59.59,0,0,0,0,.14h0a.06.06,0,0,0,0-.06l-.07,0-.09.08s-.06.05-.06.08.07.08.14.08,0,.1.12.18l.11.11a.19.19,0,0,0,.15,0c0-.11,0-.17,0-.17h0a.06.06,0,0,1,0,0,.21.21,0,0,1,0-.06s0,0,0,0,0,0,0,0a.1.1,0,0,0,0,.05.09.09,0,0,1,0,.05s0,0,0,.1a.82.82,0,0,1,.27-.06c.17-.2.25-.15.09,0l0,0a.48.48,0,0,0,0,.17s-.26.21-.18.28.09,0,.07,0-.11.18-.08.24,0,0,.08,0h0l.18-.16a1.07,1.07,0,0,0,.15-.22s0,0,0,0l.06-.19a1.67,1.67,0,0,1,.08-.2s0,0,0,0a.23.23,0,0,0,.07.07.09.09,0,0,0,.06,0l.07,0a.14.14,0,0,0,.06-.07s0,0,0,0v0l-.08.08a.11.11,0,0,1-.08,0l-.07,0a.23.23,0,0,1-.07-.07c0,.06-.05.12-.07.17l-.06.2s0,0,0,0a1.37,1.37,0,0,1-.17.23l-.14.14a.22.22,0,0,0,0,.13,3.07,3.07,0,0,0,.26-.25,1.05,1.05,0,0,0,.2-.27,0,0,0,0,1,0,0s0,0,0,0a1.1,1.1,0,0,1-.09.14s0,0,0,0,0,0,0,.08a1.08,1.08,0,0,0,0,.18s0,0,0,0,0,0,0,0a1,1,0,0,1,0-.18v0l-.06.07a3.38,3.38,0,0,1-.27.26h0c-.09.07-.16.09-.06.17l.09-.07.1-.07s0,0,0,0,0,0,0,0l-.1.07-.1.07a.17.17,0,0,0,0,.1h0l.21-.16h0s0,0,0,0l-.21.15s0,0,0,0-.31.2-.28.3h0a.58.58,0,0,0,.17-.06.64.64,0,0,0,.17-.13h0a0,0,0,0,1,0,0,.68.68,0,0,1-.18.13h0v.06s0,0,0,0,0,0,0,0v0h0l-.14.05a.36.36,0,0,1-.09.26s-.27.23-.17.28l.09,0Z"/><path class="cls-6" d="M117.83,26.7a.49.49,0,0,0-.18-.08.28.28,0,0,0-.13-.15s0,0,0-.06.08,0,.08,0h.07a.1.1,0,0,1,0,0h0s0,0,0,0a.09.09,0,0,0-.06,0l-.1,0h-.1a.13.13,0,0,1,0-.12h0l.08,0,.05,0s0,0,0,0,0,0,0,0l-.06,0-.06,0a.78.78,0,0,1,.58.07.46.46,0,0,1,.2.16l-.06,0a.43.43,0,0,0-.26.06.2.2,0,0,0-.07.18Z"/><path d="M122,32.47l-.12.05h0a.38.38,0,0,1,.09-.13v.09Z"/><path d="M122.5,33.59l-.1.11-.13.1h0v0l.12-.09a.52.52,0,0,0,.1-.11h0S122.5,33.58,122.5,33.59Z"/><path d="M122.85,33.17l-.06.08h0a0,0,0,0,1,0,0l0-.08h0a0,0,0,0,1,0,0Z"/><path d="M122.66,33.15a.54.54,0,0,1,0,.11.29.29,0,0,1-.12.09s0,0,0,0,0,0,0,0a.31.31,0,0,0,.11-.08.3.3,0,0,0,0-.1h0S122.66,33.14,122.66,33.15Z"/><path d="M123,32.73l0,.05,0,.06h0s0,0,0,0a.09.09,0,0,1,0-.06.21.21,0,0,1,0-.06h0a0,0,0,0,1,0,0Z"/><path d="M123.27,32.76l0,.12-.06.12h0s0,0,0,0l0-.12a.56.56,0,0,1,0-.12h0S123.28,32.75,123.27,32.76Z"/><path d="M123.15,31.14a.82.82,0,0,1,.11.39l0-.14h0a.34.34,0,0,0,.07-.15.38.38,0,0,0,0-.15l0,0s0,0,0,0a.43.43,0,0,1,0,.16.71.71,0,0,1-.07.16,2,2,0,0,0-.06.26v0s0,0,0,0v0a.84.84,0,0,0-.1-.49s0,0,0,0a0,0,0,0,1,0,0Z"/><path d="M122.94,31.41v.07h0s0,0,0,0v-.06s0,0,0,0S122.94,31.41,122.94,31.41Z"/><path d="M122.88,31.78a1.6,1.6,0,0,1,.05.21.86.86,0,0,1,0,.16s0,0,0,0l.09-.07h0a0,0,0,0,1,0,0,.19.19,0,0,0-.08.07.09.09,0,0,0,0,.08s0,0,0,0a1.64,1.64,0,0,0,0-.22,1.6,1.6,0,0,0-.05-.21s0,0,0,0S122.88,31.77,122.88,31.78Z"/><path d="M123.17,31.91a1,1,0,0,1,0,.17.75.75,0,0,1,0,.15s0,0,0,0,0,0,0,0a.61.61,0,0,0,0-.14.9.9,0,0,0,0-.16s0,0,0,0S123.17,31.9,123.17,31.91Z"/><path d="M123.42,31.86a1,1,0,0,1,0,.16.74.74,0,0,1,0,.14.38.38,0,0,0,0,.15.44.44,0,0,0,.06.16s0,0,0,0,0,0,0,0a1,1,0,0,1,0-.16.32.32,0,0,1,0-.17h0a.7.7,0,0,0,0-.14.78.78,0,0,0,0-.14s0,0,0,0,0,0,0,0Z"/><path d="M123.54,31.45a.31.31,0,0,1,0,.08s0,0,0,.08h0v0s0-.05,0-.08a.24.24,0,0,1,0-.08s0,0,0,0,0,0,0,0Z"/><path d="M123.42,30.76l0,.07s0,0,0,0,0,0,0,0l0-.08a0,0,0,0,1,0,0s0,0,0,0Z"/><path d="M123.48,30.23v.21a.17.17,0,0,0-.06.1.38.38,0,0,0,0,.15s0,0,0,0,0,0,0,0a.48.48,0,0,1,0-.17.18.18,0,0,1,.07-.11v-.19s0,0,0,0,0,0,0,0Z"/><path d="M123,30.05a.7.7,0,0,1,.2.18.34.34,0,0,1,.07.24s0,0,0,0l-.13-.05a1,1,0,0,1,0,.47.43.43,0,0,1-.25.26s0,0,0,0a.78.78,0,0,0,0-.22.81.81,0,0,0,0-.22s0,0,0,0,0,0,0,0a1.85,1.85,0,0,1,0,.23,1.18,1.18,0,0,1,0,.2.37.37,0,0,0,.21-.23.94.94,0,0,0,0-.48s0,0,0,0l.14.06a.37.37,0,0,0-.06-.21,1,1,0,0,0-.19-.17s0,0,0,0,0,0,0,0Z"/><path d="M124.33,29.78v0h0v-.07s0,0,0,0S124.33,29.77,124.33,29.78Z"/><path d="M124,29.77s0,0,.06,0l.05.06v0s0,0,0,0l0-.05a.09.09,0,0,0,0,0s0,0,0,0,0,0,0,0Z"/><path d="M123.53,29.91a.27.27,0,0,1,.07.13.91.91,0,0,1,0,.17h0s0,0,0,0a.37.37,0,0,0,0-.15.23.23,0,0,0-.06-.12s0,0,0,0,0,0,0,0Z"/><path d="M121.92,30.06v.06a.11.11,0,0,1,0,.05h0v-.11h0Z"/><path d="M122.21,29.9l0,.08v0h0s0,0,0,0v0s0,0,0-.08,0,0,0,0Z"/><path d="M122.83,30.32v0a0,0,0,0,1,0,0s0,0,0,0,0,0,0,0v0s0,0,0,0a0,0,0,0,1,0,0s0,0,0,0Z"/><path d="M123,29.85l0,0a.09.09,0,0,1,0,.05h0s0,0,0,0v0l0,0s0,0,0,0,0,0,0,0Z"/><path d="M121.57,29.92a.3.3,0,0,0,0,.1.35.35,0,0,0,0,.08.3.3,0,0,1,.06.11.41.41,0,0,1,0,.11h0a.31.31,0,0,0,0-.1.14.14,0,0,0,0-.1l-.06-.09a.41.41,0,0,1,0-.11s0,0,0,0,0,0,0,0Z"/><path d="M122.17,30.32a.64.64,0,0,1,.06.18,1.21,1.21,0,0,1,0,.19.31.31,0,0,0,0,.21.52.52,0,0,0,.18.18.67.67,0,0,1,0-.24.44.44,0,0,1,.1-.26.37.37,0,0,0,0-.11.23.23,0,0,0,0-.11h0l0,.12a.34.34,0,0,1-.06.12.4.4,0,0,0-.09.24.84.84,0,0,0,0,.27s0,0,0,0a.83.83,0,0,1-.21-.21.4.4,0,0,1,0-.24.5.5,0,0,0,0-.17.49.49,0,0,0-.06-.17s0,0,0,0,0,0,0,0Z"/><path d="M121.93,30.69a.45.45,0,0,1-.05.19.86.86,0,0,1-.1.16l.06,0L122,31l.08-.07.08-.1s0,0,0,0a0,0,0,0,1,0,0l-.08.1L122,31v.09s0,0,0,0,0,0,0,0V31l-.1.06-.11,0s0,0,0,0a.72.72,0,0,0,.13-.19.41.41,0,0,0,.05-.18s0,0,0,0S121.93,30.68,121.93,30.69Z"/><path d="M121.64,30.66v.07h0v-.07s0,0,0,0A0,0,0,0,1,121.64,30.66Z"/><path d="M121.46,30.31a.4.4,0,0,1,0,.26.49.49,0,0,1-.11.23h0a.37.37,0,0,0-.13.17s0,.08,0,.13l0-.06a.47.47,0,0,1,.14-.08l.16-.1a1,1,0,0,0,.15-.14h0s0,0,0,0l-.15.14-.17.11h0a.33.33,0,0,0-.13.07.83.83,0,0,0-.08.12s0,0,0,0a1.42,1.42,0,0,1,.07-.22.52.52,0,0,1,.13-.17.49.49,0,0,0,.1-.22.35.35,0,0,0,0-.24s0,0,0,0,0,0,0,0Z"/><path d="M122.05,31.25s0,.05,0,.1l0,0a.36.36,0,0,1,.07.22,1,1,0,0,1,0,.24s0,0,0,0a.48.48,0,0,0-.1-.23,1,1,0,0,0-.21-.19s0,0,0,0h0a1,1,0,0,1,.21.19.64.64,0,0,1,.1.18,1,1,0,0,0,0-.17.36.36,0,0,0-.06-.2l0,0c0-.06-.06-.09,0-.12s0,0,0,0a0,0,0,0,1,0,0Z"/><path d="M122.3,31.24l0,0,0,0s0,0,0,0h0l0,0,0,0s0,0,0,0Z"/><path d="M122.61,31.34l-.06.18-.06.19h0s0,0,0,0,0-.12,0-.19l.06-.18s0,0,0,0S122.61,31.33,122.61,31.34Z"/><path d="M122.78,32.37v.05s0,0,0,0h0a.08.08,0,0,1,0-.07h0s0,0,0,0Z"/><path d="M122.6,32.07l0,.09s0,.07,0,.1,0,0,0,0a0,0,0,0,1,0,0l0-.1,0-.1s0,0,0,0S122.6,32.06,122.6,32.07Z"/><path d="M122.33,32.07l0,0a0,0,0,0,1,0,0h0l0,0v0Z"/><path d="M122,31.92s0,0,0,0a.14.14,0,0,1,0,.06h0s0,0,0,0,0,0,0-.06,0,0,0-.05,0,0,0,0,0,0,0,0Z"/><path d="M121.58,32.39s0,0,0,.06a.13.13,0,0,0,0,.06s0,0,0,0,0,0,0,0a.14.14,0,0,1,0-.07.16.16,0,0,1,0-.07h0s0,0,0,0Z"/><path d="M120.31,33.63l0,0,0,0h0s0,0,0,0l0,0s0,0,0,0h0a0,0,0,0,1,0,0Z"/><path d="M120.51,33.53l0,0,0,0s0,0,0,0,0,0,0,0l0,0,0,0s0,0,0,0,0,0,0,0Z"/><path d="M120.77,33.37v0l0,0s0,0,0,0,0,0,0,0l0,0v0h0s0,0,0,0Z"/><path d="M121.17,32.33l0,.11a.37.37,0,0,0,0,.11s0,0,0,0h0a.48.48,0,0,1,0-.12.5.5,0,0,1,0-.12h0v0Z"/><path d="M121.44,29.58a.29.29,0,0,1,0,.09l-.07.09h0s0,0,0,0a.16.16,0,0,0,.06-.08.24.24,0,0,0,0-.08h0Z"/><path d="M121.16,29.34a.31.31,0,0,1,0,.12.62.62,0,0,1,0,.13s0,0,0,0a0,0,0,0,1,0,0,.49.49,0,0,0,0-.12.28.28,0,0,0,0-.12,0,0,0,0,1,0,0S121.16,29.33,121.16,29.34Z"/><path d="M120.8,29.79a.38.38,0,0,1-.11-.11.27.27,0,0,1,0-.12h0s0,0,0,0a.2.2,0,0,0,0,.1l.1.1s0,0,0,0,0,0,0,0Z"/><path d="M121.2,30.48v.06s0,0,0,0,0,0,0,0v-.06s0,0,0,0S121.2,30.47,121.2,30.48Z"/><path d="M120.69,30a.49.49,0,0,1,.15.27,1.2,1.2,0,0,1,0,.2h0s.06,0,.08-.1a.63.63,0,0,0,0-.23h0a.47.47,0,0,0,.06-.15.59.59,0,0,0,0-.14,0,0,0,0,1,0,0l.12.21a1.05,1.05,0,0,1,.06.24s0,0,0,0h0a.94.94,0,0,0-.06-.24.75.75,0,0,0-.1-.17.41.41,0,0,1,0,.11.94.94,0,0,1-.06.15,1,1,0,0,1,0,.23.18.18,0,0,1-.1.12h0s0,.07,0,.1,0,0,0,0,0,0,0,0a1.13,1.13,0,0,0,0-.32.61.61,0,0,0-.15-.26s0,0,0,0,0,0,0,0Z"/><path d="M121,31.25l0,.11,0,.11s0,0,0,0,0,0,0,0v-.11l0-.11s0,0,0,0A0,0,0,0,1,121,31.25Z"/><path d="M120.41,31.5v.08s0,0,0,0,0,0,0,0v-.08s0,0,0,0Z"/><path d="M120.91,30.83a.75.75,0,0,1,0,.16,1.3,1.3,0,0,1-.1.15h0a.33.33,0,0,0-.08.17.55.55,0,0,0,0,.18s0,0,0,0,0,0,0,0a1.23,1.23,0,0,1,0-.19.37.37,0,0,1,.09-.19.52.52,0,0,0,.13-.29h0Z"/><path d="M120.78,30.64a.31.31,0,0,1,0,.16.72.72,0,0,1-.11.15h0a.57.57,0,0,0-.1.13.91.91,0,0,0-.07.14s0,0,0,0v0a.61.61,0,0,1,.07-.14.49.49,0,0,1,.11-.14.53.53,0,0,0,.1-.14.26.26,0,0,0,0-.15,0,0,0,0,1,0,0s0,0,0,0Z"/><path d="M120.14,30.94a.5.5,0,0,1,0,.28.56.56,0,0,1-.17.21s0,0,0,0,0,0,0,0a.79.79,0,0,0,.17-.2.45.45,0,0,0,0-.26s0,0,0,0Z"/><path d="M119.31,31.4l0,.05,0,.05s0,0,0,0h0l0-.05,0-.05s0,0,0,0Z"/><path d="M119,31.4a.58.58,0,0,0,0,.19.44.44,0,0,0,.08.17h0a.33.33,0,0,1,0,.13s0,.06,0,.09a.6.6,0,0,0,.09-.13.42.42,0,0,0,0-.16,0,0,0,0,1,0,0s0,0,0,0a.39.39,0,0,1,0,.18.74.74,0,0,1-.12.16h0s0-.09,0-.13a.56.56,0,0,0,0-.12.51.51,0,0,1-.09-.18,1.11,1.11,0,0,1,0-.19h0Z"/><path d="M119,32.51s0-.06,0-.1l0-.1s0,0,0,0v0a.19.19,0,0,0,0,.1.3.3,0,0,0,0,.1h0s0,0,0,0Z"/><path d="M119,32.82V32.7s0,0,0,0,0,0,0,0l0,.12s0,0,0,0S119,32.83,119,32.82Z"/><path d="M118.78,33.34l.06-.07a.19.19,0,0,0,0-.09h0s0,0,0,0l-.06.09-.06.07h0s0,0,0,0Z"/><path d="M118.47,31.6v0s0,0,0,0,0,0,0,0v0a0,0,0,0,1,0,0A0,0,0,0,1,118.45,31.6Z"/><path d="M118,32.8v-.07s0,0,0,0h0v.08s0,0,0,0,0,0,0,0Z"/><path d="M119.26,30.67a.66.66,0,0,0,0,.27.19.19,0,0,0,.08.18.41.41,0,0,1,.12.17h0a.3.3,0,0,0,0-.1.2.2,0,0,0,0-.11s0,0,0,0h0v.13a.61.61,0,0,1,0,.13s0,0,0,0l0,0a.29.29,0,0,0-.11-.16.24.24,0,0,1-.09-.2,1.35,1.35,0,0,1,0-.28h0s0,0,0,0Z"/><path d="M119.17,30.32a.44.44,0,0,1,0,.2,1,1,0,0,1-.06.21.57.57,0,0,0,0,.26.68.68,0,0,0,.07.27v0h0A.68.68,0,0,1,119,31a.62.62,0,0,1,0-.27l.06-.2a.67.67,0,0,0,0-.2,0,0,0,0,1,0,0S119.17,30.31,119.17,30.32Z"/><path d="M118.56,31.18a.2.2,0,0,0,0,.13.27.27,0,0,0,0,.13s0,0,0,0,0,0,0,0a.35.35,0,0,1-.06-.14.24.24,0,0,1,0-.14s0,0,0,0,0,0,0,0Z"/><path d="M118.3,31.09v.08a.14.14,0,0,1,0,.07h0a.2.2,0,0,0,0,.07l0,.08v0s0,0,0,0a.2.2,0,0,1,0-.08.15.15,0,0,1,0-.09.13.13,0,0,0,0-.06.22.22,0,0,0,0-.08,0,0,0,0,1,0,0s0,0,0,0Z"/><path d="M119.85,28.8a.44.44,0,0,0,0,.2.62.62,0,0,0,.07.19s0,0,0,0,0,0,0,0a.46.46,0,0,1-.08-.19.54.54,0,0,1,0-.22h0s0,0,0,0Z"/><path d="M119.65,29a1,1,0,0,1,.09.21,1,1,0,0,1,.05.25l0,0s0,0,0,0a1.5,1.5,0,0,0,0-.24l-.09-.2s0,0,0,0A0,0,0,0,1,119.65,29Z"/><path d="M118.69,29a.76.76,0,0,0-.14.34.49.49,0,0,0,0,.24h0a.54.54,0,0,1,0,.22.93.93,0,0,1,0,.22h0a0,0,0,0,1,0,0,.52.52,0,0,0,0-.21.76.76,0,0,0,0-.21.46.46,0,0,1-.06-.26.69.69,0,0,1,.15-.34s0,0,0,0,0,0,0,0Z"/><path d="M119.59,28.63a.17.17,0,0,1,0,.12.21.21,0,0,1-.08.11.18.18,0,0,0-.08.13.4.4,0,0,0,0,.19,0,0,0,0,1,0,0s0,0,0,0a.67.67,0,0,1,0-.2.24.24,0,0,1,.09-.14.25.25,0,0,0,.08-.1.17.17,0,0,0,0-.1s0,0,0,0Z"/><path d="M118.64,28.71a.28.28,0,0,1,0,.18.62.62,0,0,1-.1.17h0a.31.31,0,0,0-.1.15.64.64,0,0,0,0,.2s0,0,0,0a0,0,0,0,1,0,0,.71.71,0,0,1,0-.21.29.29,0,0,1,.11-.16.33.33,0,0,0,.09-.16.22.22,0,0,0,0-.16h0s0,0,0,0Z"/><path d="M119.18,28.74v.06a.14.14,0,0,0,0,.06s0,0,0,0a0,0,0,0,1,0,0l0-.07v-.07h0Z"/><path d="M119.15,28.6a.23.23,0,0,0-.11.11.48.48,0,0,0-.05.19h0a.5.5,0,0,1,0,.13.47.47,0,0,1,0,.17s0,0,0,0,0,0,0,0a.91.91,0,0,0,0-.17.37.37,0,0,0,0-.11.45.45,0,0,0-.16.32.74.74,0,0,0,.14.39v0s0,0,0,0a.84.84,0,0,1-.14-.41.49.49,0,0,1,.17-.34h0a.64.64,0,0,1,.06-.22.34.34,0,0,1,.12-.12h0a0,0,0,0,1,0,0Z"/><path d="M119,28.4v0a.27.27,0,0,1-.07.18.41.41,0,0,0-.05.09.38.38,0,0,0,0,.1s0,0,0,0h0l0-.11a.17.17,0,0,1,.07-.1s0-.1,0-.16v0l0,0v0Z"/><path d="M120.51,30a.36.36,0,0,1,0,.11.37.37,0,0,1,0,.11h0a.41.41,0,0,0,0-.11.69.69,0,0,0,0-.1v0S120.51,30,120.51,30Z"/><path d="M120.51,30.51a.32.32,0,0,1,0,.17.45.45,0,0,1-.07.18l-.06.15h0a0,0,0,0,1,0,0,1,1,0,0,0,.07-.15h0a.49.49,0,0,0,.06-.17.43.43,0,0,0,0-.16s0,0,0,0S120.51,30.5,120.51,30.51Z"/><path d="M120.2,30a.87.87,0,0,1,.18.32.73.73,0,0,1,0,.36,0,0,0,0,1,0,0h0a.66.66,0,0,0,0-.34.74.74,0,0,0-.17-.31s0,0,0,0Z"/><path d="M120.17,30.6l-.09.18a2.09,2.09,0,0,1-.14.17.5.5,0,0,0-.08.12.31.31,0,0,0-.06.13s0,0,0,0a.62.62,0,0,0,0-.13.34.34,0,0,0-.06-.12h0a.41.41,0,0,1-.07-.23.57.57,0,0,1,.09-.22,1,1,0,0,0,.07-.15,1,1,0,0,0,0-.16s0,0,0,0,0,0,0,0a.45.45,0,0,1,0,.16.41.41,0,0,1-.07.17h0a.37.37,0,0,0-.08.21.39.39,0,0,0,.06.2h0a.78.78,0,0,1,0,.14s0,0,0,.06a.3.3,0,0,1,0-.08.44.44,0,0,1,.08-.11,1,1,0,0,0,.13-.18,1,1,0,0,0,.1-.17s0,0,0,0,0,0,0,0Z"/><path d="M119.35,30.34a.62.62,0,0,0,0,.19.49.49,0,0,0,.06.17s0,0,0,0h0a.51.51,0,0,1-.07-.17.68.68,0,0,1,0-.2s0,0,0,0,0,0,0,0Z"/><path d="M118.88,30.59v.08h0v-.08s0,0,0,0S118.88,30.58,118.88,30.59Z"/><path d="M119,30.16a.34.34,0,0,1,0,.14.25.25,0,0,1-.07.12h0s0,0,0,0a.41.41,0,0,0,.07-.11.59.59,0,0,0,0-.13s0,0,0,0,0,0,0,0Z"/><path d="M118.61,31a.82.82,0,0,1-.07-.46.43.43,0,0,1,.15-.29.52.52,0,0,0,.12-.17.44.44,0,0,0,0-.24h0s0,0,0,0a.45.45,0,0,1,0,.25.71.71,0,0,1-.12.18.52.52,0,0,0-.15.27.8.8,0,0,0,.08.45v0s0,0,0,0Z"/><path d="M118.37,30.68a.29.29,0,0,0,0,.09.36.36,0,0,0,0,.09s0,0,0,0,0,0,0,0a.22.22,0,0,1,0-.1.21.21,0,0,1,0-.11s0,0,0,0v0Z"/><path d="M119.57,29.83a.45.45,0,0,1,.08.22.4.4,0,0,1-.05.23s0,0,0,0,0,0,0,0a.37.37,0,0,0,.05-.22.32.32,0,0,0-.08-.2s0,0,0,0Z"/><path d="M119.94,29.54a.54.54,0,0,1,0,.22.83.83,0,0,1,0,.22h0a.41.41,0,0,0,0-.19.49.49,0,0,0-.11-.14s0,0,0,0h0a.29.29,0,0,1,.12.15.34.34,0,0,1,0,.12.71.71,0,0,0,0-.14.78.78,0,0,0,0-.21s0,0,0,0,0,0,0,0Z"/><path d="M120.16,29.23a.4.4,0,0,1,.11.19.82.82,0,0,1,0,.28h0v.13a.36.36,0,0,0,0,.11s0,0,0,0,0,0,0,0a.34.34,0,0,1,0-.12.57.57,0,0,1,0-.13h0a1.12,1.12,0,0,0,0-.27.4.4,0,0,0-.1-.18,0,0,0,0,1,0,0,0,0,0,0,1,0,0Z"/><path d="M119.57,29.17a.35.35,0,0,0-.06.14.48.48,0,0,0,0,.17s0,0,0,0,0,0,0,0a.55.55,0,0,1,0-.18.37.37,0,0,1,.07-.14s0,0,0,0S119.58,29.17,119.57,29.17Z"/><path d="M118.42,30a.53.53,0,0,1-.1.29.78.78,0,0,1-.21.19h0s0,0,0,0a.7.7,0,0,0,.2-.18.54.54,0,0,0,.09-.27h0Z"/><path d="M118.39,29.55a.53.53,0,0,1,0,.13.61.61,0,0,1,0,.12s0,0,0,0,0,0,0,0a.28.28,0,0,0,0-.12.2.2,0,0,0,0-.11s0,0,0,0,0,0,0,0Z"/><path d="M119.17,29.5v.26h0a0,0,0,0,1,0,0s0,0,0,0v-.28a0,0,0,0,1,0,0s0,0,0,0h0v0Z"/><path d="M119.36,29.15a.26.26,0,0,0-.08.19.41.41,0,0,0,0,.19.63.63,0,0,1,.08.32.85.85,0,0,1-.09.31s0,0,0,0,0,0,0,0a.86.86,0,0,0,.09-.3.43.43,0,0,0-.08-.3h0a.54.54,0,0,1,0-.21.32.32,0,0,1,.09-.21h0s0,0,0,0Z"/><path d="M118.14,27a.57.57,0,0,1,.28-.12.52.52,0,0,1,.29.06h.23s0,0,0,0h-.21a.69.69,0,0,1-.29.17.29.29,0,0,1-.24-.05,0,0,0,0,1,0,0s0,0,0,0a.27.27,0,0,0,.21.05.8.8,0,0,0,.26-.15.63.63,0,0,0-.26-.05.48.48,0,0,0-.25.12s0,0,0,0a0,0,0,0,1,0,0Z"/><path d="M118.42,26.93a.07.07,0,0,1,.06.07s0,.07-.06.07a.07.07,0,1,1,0-.14Z"/><path d="M118.89,27.35l.12-.08a.32.32,0,0,0,.08-.09h0a0,0,0,0,1,0,0,.43.43,0,0,1-.09.1.62.62,0,0,1-.12.08h0s0,0,0,0Z"/><path d="M119.88,26.94a.11.11,0,0,1,.08,0l.07,0s0,0,0,0,0,0,0,0L120,27h-.08s0,0,0,0Z"/><path d="M119.32,27a.18.18,0,0,1,.1-.11.23.23,0,0,1,.17,0s0,0,0,0,0,0,0,0a.26.26,0,0,0-.16,0,.22.22,0,0,0-.09.1s0,0,0,0S119.31,27,119.32,27Z"/><path d="M119.38,27.05a.09.09,0,0,1,0-.06l.07,0s0,0,0,0,0,0,0,0a.09.09,0,0,0-.06,0,.08.08,0,0,0,0,0s0,0,0,0,0,0,0,0Z"/><path d="M118.44,27.37a.43.43,0,0,0,0,.07.28.28,0,0,0,0,.09h0s0,0,0,0a.3.3,0,0,1,0-.1l0-.08s0,0,0,0,0,0,0,0Z"/><path d="M118.71,27.49v0h0v0s0,0,0,0S118.71,27.48,118.71,27.49Z"/><path d="M118.54,27.19h.18s0,0,0,0h-.09l-.09,0s0,0,0,0,0,0,0,0Z"/><path d="M118.71,26.68l-.06,0a.05.05,0,0,0,0,.05s0,0,0,0,0,0,0,0,0,0,0-.06a.08.08,0,0,1,.07,0s0,0,0,0Z"/><path d="M118.43,26.71l-.05,0,0,0h0v0l0,0,.06,0h0S118.44,26.71,118.43,26.71Z"/><path d="M118.26,26.71l-.05,0,0,.05s0,0,0,0,0,0,0,0l0-.05,0,0s0,0,0,0S118.26,26.71,118.26,26.71Z"/><path d="M118,26.89l0,.05,0,.06a0,0,0,0,1,0,0s0,0,0,0l0-.06.06-.05a0,0,0,0,1,0,0s0,0,0,0Z"/><path d="M118.06,27.14l0,0,0,0s0,0,0,0,0,0,0,0l0,0,0,0s0,0,0,0S118.06,27.13,118.06,27.14Z"/><path d="M117.83,27.2v.09a0,0,0,0,1,0,0s0,0,0,0V27.2h0Z"/><path d="M118.12,27.58v.14h0l0,0s0,0,0,0h0v-.14s0,0,0,0Z"/><path d="M118,27.45v.1h0v-.1h0Z"/><path d="M117.79,26.26l.08,0a.22.22,0,0,1,0,.08s0,0,0,0h0a.16.16,0,0,0,0-.07l-.07,0s0,0,0,0,0,0,0,0Z"/><path d="M119.17,28.05a.39.39,0,0,1,0,.18.57.57,0,0,1,0,.18h0s0,0,0,0a.32.32,0,0,0,0-.17.55.55,0,0,0,0-.17s0,0,0,0A0,0,0,0,1,119.17,28.05Z"/><path d="M118.72,28.57a.75.75,0,0,1,.08-.18l.11-.15a.61.61,0,0,0,.09-.18.67.67,0,0,0,0-.2v0s0,0,0,0a.5.5,0,0,1,0,.21.37.37,0,0,1-.09.19s-.07.09-.1.15a.89.89,0,0,0-.08.17s0,0,0,0,0,0,0,0Z"/><path d="M118.14,28.42a.18.18,0,0,1,0-.07l.07-.05h0s0,0,0,0a.09.09,0,0,0-.06,0l0,.06s0,0,0,0v0Z"/><path d="M118,28.38l.07-.08a.26.26,0,0,1,.09-.05s0,0,0,0,0,0,0,0l-.08.05-.07.07s0,0,0,0a0,0,0,0,1,0,0Z"/><path d="M118.63,27.79h.13s0,0,0,0,0,0,0,0h-.07l-.08,0s0,0,0,0Z"/><path d="M118.33,27.75l0,0h0s0,0,0,0h0l0,0a0,0,0,0,1,0,0,0,0,0,0,1,0,0Z"/><path d="M124.77,29.6l0,0,0,.05s0,0,0,0h0l0-.05,0,0s0,0,0,0S124.76,29.6,124.77,29.6Z"/><path d="M117.62,33l.1.07a.35.35,0,0,0,.12,0h0a.28.28,0,0,1-.13,0l-.1-.07v0Z"/><path class="cls-3" d="M123,26.56a2,2,0,0,0,.44,0,1.1,1.1,0,0,1-.51.2.15.15,0,0,0,.07-.09A.11.11,0,0,0,123,26.56Z"/><path class="cls-3" d="M122.64,26.52l.31,0h0a.06.06,0,0,1,0,.07.23.23,0,0,1-.07.08s0,0,0,0a.74.74,0,0,1-.21,0h-.1a.24.24,0,0,0,.07-.13.14.14,0,0,0,0-.09Z"/><path class="cls-3" d="M119.84,25.71a3.33,3.33,0,0,1,.55,0,.24.24,0,0,1,.13.11.34.34,0,0,1,0,.21s0,0,0,0,0,0,0,0a.36.36,0,0,0,0-.24.24.24,0,0,0-.06-.08h0a1.57,1.57,0,0,1,.57.17h0a.18.18,0,0,1,0,.13.37.37,0,0,1-.08.15s0,0,0,0,0,0,0,0a.4.4,0,0,0,.09-.17.31.31,0,0,0,0-.1l.47.24h0a.11.11,0,0,1,0,.11.19.19,0,0,1-.12.09s0,0,0,0,0,0,0,0a.3.3,0,0,0,.15-.11.21.21,0,0,0,0-.12l.3.16h0s0,.07,0,.1,0,.07-.11.1,0,0,0,0a0,0,0,0,0,0,0,.29.29,0,0,0,.13-.11.16.16,0,0,0,0-.1l.11.05a1.62,1.62,0,0,0,.35.09h0a.09.09,0,0,1,0,.09.12.12,0,0,1-.06.1s0,0,0,0h0a4.56,4.56,0,0,1-1.11-.38l-.13-.05-.41-.17h-.06a1.72,1.72,0,0,0-.38-.08,1.55,1.55,0,0,0-.43,0h0a.27.27,0,0,0-.16-.32Z"/><path class="cls-3" d="M119.2,25.89a2.16,2.16,0,0,1,.55-.16.32.32,0,0,1,.17.12.25.25,0,0,1,0,.17h-.23a1.1,1.1,0,0,0-.26.06.33.33,0,0,0-.16-.17l-.1,0Z"/><path class="cls-3" d="M121.18,26.89,121,26.8a1.85,1.85,0,0,0-.81-.23h0a.27.27,0,0,0,.09-.29.52.52,0,0,0-.17-.2,1.37,1.37,0,0,1,.28,0,1.92,1.92,0,0,1,.48.13.41.41,0,0,1,0,.23.3.3,0,0,1-.16.18s0,0,0,0,0,0,0,0a.38.38,0,0,0,.18-.2.42.42,0,0,0,0-.22,1.22,1.22,0,0,1,.28.17l.27.2a.24.24,0,0,1-.08.21.44.44,0,0,1-.24,0s0,0,0,0Z"/><path class="cls-3" d="M121.72,27.3c-.16-.13-.32-.26-.49-.38a.37.37,0,0,0,.24,0,.23.23,0,0,0,.11-.21,2.48,2.48,0,0,1,.3.25l.14.13h0a.44.44,0,0,1,0,.1l0,.07-.08,0a.33.33,0,0,1-.18,0s0,0,0,0Z"/><path class="cls-3" d="M122.29,27.67l-.16-.09a2.31,2.31,0,0,1-.36-.25.35.35,0,0,0,.18,0,.19.19,0,0,0,.09-.05.19.19,0,0,0,0-.1v-.06a1.83,1.83,0,0,0,.36.26l.2.12h0c0,.06,0,.09-.08.11a1.3,1.3,0,0,1-.26,0s0,0,0,0Z"/><path class="cls-3" d="M122.9,27.91a3,3,0,0,1-.55-.21l.24,0c.07,0,.11-.07.11-.14a2.52,2.52,0,0,0,.34.15.11.11,0,0,1,0,.11.22.22,0,0,1-.13.09s0,0,0,0Z"/><path class="cls-3" d="M124.16,27.78s.12,0,.06,0a1.62,1.62,0,0,1-1.28.13.36.36,0,0,0,.15-.12.14.14,0,0,0,0-.11,2.29,2.29,0,0,0,.44.09.09.09,0,0,1,0,.07.31.31,0,0,1-.12.09s0,0,0,0,0,0,0,0a.48.48,0,0,0,.15-.11.16.16,0,0,0,0-.09,2.19,2.19,0,0,0,.57,0Z"/><path class="cls-3" d="M121.59,34.18l-.08.1a.85.85,0,0,1-.31.09c0,.07,0,.1.09.11s.18-.09.19-.08,0,.12-.14.2,0,0,0,0,.36.1.5.06a.6.6,0,0,0,.34-.25s0-.1-.07-.15-.15,0-.13-.07A1.23,1.23,0,0,0,121.59,34.18Z"/><path class="cls-3" d="M117.55,32.91a.69.69,0,0,1-.28.15s-.14,0-.15.09.07.06.11,0,.18,0,0,.06a.06.06,0,0,0,0,.07.59.59,0,0,0,.57.06c.1-.06.16-.14.07-.23v-.07l-.17,0-.1-.06Z"/><path class="cls-3" d="M120.21,33.83h0c-.06.06.09,0,.17.09a.09.09,0,0,1,0,.12c-.07.18-.49.12-.62.05a.12.12,0,0,1-.07-.13h.09l.15,0a0,0,0,0,0,0-.05s0,0,0,0a.33.33,0,0,1-.13,0h-.14s0,0,0,0,0,0,.06,0l.19-.07,0,0,.33,0Z"/><path class="cls-3" d="M118.3,33.73s0,0,0,.07A.56.56,0,0,1,118,34c-.07,0,0,.07.06.11s.11,0,.15-.11.09,0,.06,0a.54.54,0,0,0-.06.18s.16.08.19.08a.85.85,0,0,0,.32-.15c.07-.07.06-.13,0-.22h0l-.13,0-.15,0v0h0l-.18,0Z"/><path class="cls-3" d="M119,26.69h.09l.15,0a1.28,1.28,0,0,1,.46-.1,1.82,1.82,0,0,1,.46-.06h0s0,0,0,0a.2.2,0,0,0,.07-.23.42.42,0,0,0-.21-.21c-.11,0-.22,0-.34,0a.59.59,0,0,0-.22.05.34.34,0,0,1,.16.1.62.62,0,0,1,.11.26s0,0,0,0,0,0,0,0a.45.45,0,0,0-.1-.23c-.05-.08-.17-.1-.2-.12l-.34.05a.53.53,0,0,0-.2.09.44.44,0,0,1,.23,0,.37.37,0,0,1,.16.2s0,0,0,0,0,0,0,0a.31.31,0,0,0-.13-.16.5.5,0,0,0-.43.06.85.85,0,0,0-.17.16h0a2.35,2.35,0,0,1,.57.09Zm-.61-.11a0,0,0,0,1,0,0,1.41,1.41,0,0,1,.18-.17.76.76,0,0,1,.18-.09.5.5,0,0,1,.26-.14l.35,0a.26.26,0,0,0-.13-.14.44.44,0,0,0-.2,0,1.75,1.75,0,0,0-.4.22h.13s0,0,0,0-.09,0-.12,0h-.12a1.9,1.9,0,0,0-.34.26A.39.39,0,0,1,118.43,26.58Z"/><path class="cls-4" d="M133.72,41.73l5.53-12.54-4.08-6.59-7.28,2.7-3.37,13.25a58.78,58.78,0,0,1,9.2,3.18Z"/><path class="cls-2" d="M126.66,30.13a66.52,66.52,0,0,1,10.56,3.66l-2.13,4.83a62.09,62.09,0,0,0-9.73-3.36Z"/><path class="cls-3" d="M135.43,37.85l1.42-3.23A65.64,65.64,0,0,0,126.44,31l-.84,3.31a63,63,0,0,1,9.88,3.42Z"/><path d="M127.47,33.53a.39.39,0,0,1,.3,0,.79.79,0,0,1,.28,0l.15-.05a.05.05,0,0,0,0-.08.2.2,0,0,1-.05-.09.72.72,0,0,1-.28-.39c-.1,0-.14-.05-.15-.09h-.14a.4.4,0,0,1-.34-.1.24.24,0,0,1-.15-.13l-.07-.08c-.06-.08,0-.18,0-.17a.27.27,0,0,0,.18,0,.52.52,0,0,1,.25,0,.45.45,0,0,0,.23-.14V32s0-.05,0-.05a.28.28,0,0,1,.23.14.44.44,0,0,1,.31.2c.18,0,.3.07.32.13s0,.11-.13.17v0a.5.5,0,0,1,.1.13,1,1,0,0,1,.29.17,2.48,2.48,0,0,1,1.27.52,5.35,5.35,0,0,1,1.1.33h.22a2.23,2.23,0,0,1,1.81.41,2,2,0,0,1,.6.17,1.27,1.27,0,0,0,.42.09,2,2,0,0,1,.69.19,1.18,1.18,0,0,1,.66.32c.1.13.08.25-.06.3s-.24.18-.49.09a.76.76,0,0,1-.52-.23,2.68,2.68,0,0,1-.67-.35.72.72,0,0,0-.33-.16.3.3,0,0,0-.21,0s0,0,0,0a.31.31,0,0,1,.11.21,2.26,2.26,0,0,1,0,.27.28.28,0,0,0,.17.24.76.76,0,0,0,.27.11c.06,0,.08,0,.07.08s.07.31.12.45a.41.41,0,0,0,.09.1c.16.11.08.23-.06.26a.91.91,0,0,1-.36.21c-.11,0-.15,0-.18-.05a.16.16,0,0,1-.12-.07c-.12-.09,0-.25.28-.18,0,0,0,0,.06,0a.39.39,0,0,1,0-.24.19.19,0,0,0-.09,0,1,1,0,0,1-.28-.16,3.64,3.64,0,0,0-.62-.38,1.07,1.07,0,0,1-.48-.18h-.2a.13.13,0,0,0-.15,0c-.06.07-.12.06-.21,0h-.28a.58.58,0,0,1-.14,0,.37.37,0,0,0-.28,0,.13.13,0,0,1-.17,0l-.1-.06c-.07,0-.12,0-.13-.06s-.16-.07-.16-.1c-.16,0-.08-.17,0-.17a2.28,2.28,0,0,1,.36,0,.35.35,0,0,0,.31-.06,1.66,1.66,0,0,1,.14-.13,1,1,0,0,1-.48-.12c-.31-.2-.56-.25-.76-.08a.14.14,0,0,1-.14,0,.29.29,0,0,0-.16,0,.54.54,0,0,1-.33,0,1.21,1.21,0,0,1-.5,0c-.13.07-.23.08-.3,0a1,1,0,0,1-.17-.1c-.09,0-.13,0-.13-.07s-.13,0-.13-.09,0-.1,0-.13a.29.29,0,0,1,.27,0,.74.74,0,0,1,.13.08.31.31,0,0,1,.17,0c0-.06.13-.06.24-.06a.58.58,0,0,1,.21-.07v0a.38.38,0,0,1-.22-.19.88.88,0,0,1-.41-.15.47.47,0,0,1-.26-.08.67.67,0,0,1-.2,0,.77.77,0,0,1-.37,0h-.22a.21.21,0,0,1-.26.06.42.42,0,0,0-.22-.14c-.07,0-.1-.05-.11-.08s-.07-.11,0-.15a.29.29,0,0,1,.27,0,.28.28,0,0,0,.13,0Z"/><path class="cls-2" d="M131.63,34.8s0,0-.09,0a1.27,1.27,0,0,1-.58-.1,1,1,0,0,0-.54-.2.36.36,0,0,1,.21-.11.8.8,0,0,1,.38,0,2.87,2.87,0,0,1,.52.12.52.52,0,0,1,.27.19v0a.45.45,0,0,1,.13.1l.08.09h-.19l-.2-.07Z"/><path d="M132.09,25.25v.06l.25,1.29-1,.86-.05,0,.06,0,1.24.43.25,1.29,0,.06,0,0,1-.86,1.25.43.05,0v-.06L135,27.5l1-.87.05,0h-.06l-1.24-.43-.25-1.29V24.8l-.05,0-1,.86-1.24-.43Z"/><path class="cls-6" d="M131.48,27.45l.93-.81,1.16.4Z"/><path class="cls-6" d="M133.72,27l.93-.8,1.16.4Z"/><path class="cls-6" d="M135.82,26.65l-.92.81-1.17-.41Z"/><path class="cls-6" d="M133.58,27.09l-.93.8-1.16-.4Z"/><path class="cls-6" d="M132.22,25.37l1.16.4.24,1.21Z"/><path class="cls-6" d="M133.72,27.09l1.16.41.23,1.2Z"/><path class="cls-6" d="M135.08,28.73l-1.16-.4-.23-1.21Z"/><path class="cls-6" d="M133.58,27l-1.16-.4-.23-1.2Z"/><path class="cls-6" d="M134.39,25l.24,1.2-.93.81Z"/><path class="cls-6" d="M133.65,27.13l.23,1.21-.93.8Z"/><path class="cls-6" d="M132.91,29.13l-.23-1.21.93-.8Z"/><path class="cls-6" d="M133.66,27l-.24-1.21.93-.8Z"/></svg>