<svg id="Layer_1" data-name="Layer 1" xmlns="http://www.w3.org/2000/svg" xmlns:xlink="http://www.w3.org/1999/xlink" viewBox="0 0 220 128"><defs><style>.cls-1{fill:none;}.cls-2{clip-path:url(#clip-path);}.cls-3{fill:#004890;}.cls-4{fill:#fff;}.cls-5{fill:#ea0020;}</style><clipPath id="clip-path"><rect id="_Clipping_Path_" data-name="&lt;Clipping Path&gt;" class="cls-1" width="220" height="128"/></clipPath></defs><title>Flag_rect_Australia</title><g id="AUSTRALIA"><g id="_Group_" data-name="&lt;Group&gt;"><g id="_Clip_Group_" data-name="&lt;Clip Group&gt;"><g class="cls-2"><rect id="_Path_" data-name="&lt;Path&gt;" class="cls-3" width="220" height="128"/><polygon id="_Path_2" data-name="&lt;Path&gt;" class="cls-4" points="57.7 78.42 61.07 88.82 71.26 84.95 65.25 94.03 74.61 99.6 63.75 100.55 65.25 111.34 57.7 103.45 50.22 111.34 51.71 100.55 40.83 99.6 50.22 94.03 44.18 84.95 54.4 88.82 57.7 78.42"/><polygon id="_Path_3" data-name="&lt;Path&gt;" class="cls-4" points="173.14 97.11 174.76 102.06 179.62 100.23 176.76 104.56 181.21 107.21 176.02 107.65 176.76 112.79 173.14 109.03 169.59 112.79 170.31 107.65 165.14 107.21 169.59 104.56 166.73 100.23 171.59 102.06 173.14 97.11"/><polygon id="_Path_4" data-name="&lt;Path&gt;" class="cls-4" points="144.31 51.42 145.9 56.36 150.75 54.52 147.89 58.86 152.34 61.51 147.17 61.94 147.89 67.09 144.31 63.33 140.72 67.09 141.44 61.94 136.27 61.51 140.72 58.86 137.86 54.52 142.72 56.36 144.31 51.42"/><polygon id="_Path_5" data-name="&lt;Path&gt;" class="cls-4" points="173.14 20.15 174.76 25.1 179.62 23.27 176.76 27.58 181.21 30.24 176.02 30.69 176.76 35.82 173.14 32.07 169.59 35.82 170.31 30.69 165.14 30.24 169.59 27.58 166.73 23.27 171.59 25.1 173.14 20.15"/><polygon id="_Path_6" data-name="&lt;Path&gt;" class="cls-4" points="198.84 43.73 200.41 48.67 205.29 46.83 202.4 51.16 206.88 53.8 201.68 54.25 202.42 59.41 198.84 55.63 195.26 59.41 195.97 54.25 190.79 53.8 195.26 51.16 192.4 46.83 197.25 48.67 198.84 43.73"/><polygon id="_Path_7" data-name="&lt;Path&gt;" class="cls-4" points="184.71 66.88 185.98 69.96 189.28 70.2 186.75 72.35 187.53 75.58 184.71 73.82 181.9 75.58 182.68 72.35 180.14 70.2 183.46 69.96 184.71 66.88"/><polygon id="_Path_8" data-name="&lt;Path&gt;" class="cls-4" points="48.11 0 48.11 19.25 0 19.25 0 38.49 48.11 38.49 48.11 57.73 67.33 57.73 67.33 38.49 115.47 38.49 115.47 19.25 67.33 19.25 67.33 0 48.11 0"/><polygon id="_Path_9" data-name="&lt;Path&gt;" class="cls-4" points="0 0 0 6.46 102.55 57.73 115.44 57.73 115.44 51.28 12.91 0 0 0"/><polygon id="_Path_10" data-name="&lt;Path&gt;" class="cls-4" points="102.55 0 0 51.28 0 57.73 12.91 57.73 115.44 6.46 115.44 0 102.55 0"/><polygon id="_Path_11" data-name="&lt;Path&gt;" class="cls-5" points="51.94 0 51.94 23.09 0 23.09 0 34.64 51.94 34.64 51.94 57.73 63.49 57.73 63.49 34.64 115.44 34.64 115.44 23.09 63.49 23.09 63.49 0 51.94 0"/><path id="_Compound_Path_" data-name="&lt;Compound Path&gt;" class="cls-5" d="M0,0V4.31L29.85,19.25h8.63ZM106.84,0,68.36,19.25H77L115.44,0Z"/><path id="_Compound_Path_2" data-name="&lt;Compound Path&gt;" class="cls-5" d="M38.48,38.49,0,57.73H8.61L47.09,38.49Zm38.49,0,38.5,19.24v-4.3L85.58,38.49Z"/></g></g></g></g></svg>