<svg id="Layer_1" data-name="Layer 1" xmlns="http://www.w3.org/2000/svg" xmlns:xlink="http://www.w3.org/1999/xlink" viewBox="0 0 220 128"><defs><style>.cls-1{fill:none;}.cls-2{clip-path:url(#clip-path);}.cls-3{fill:#1a0095;}.cls-4{fill:#ba0019;}.cls-5{fill:#fff;}</style><clipPath id="clip-path"><rect id="_Clipping_Path_" data-name="&lt;Clipping Path&gt;" class="cls-1" width="220" height="128"/></clipPath></defs><title>Flag_rect_Cambodia</title><g id="CAMBODIA"><g id="_Group_" data-name="&lt;Group&gt;"><g id="_Clip_Group_" data-name="&lt;Clip Group&gt;"><g class="cls-2"><rect id="_Path_" data-name="&lt;Path&gt;" class="cls-3" width="220" height="128"/><rect id="_Path_2" data-name="&lt;Path&gt;" class="cls-4" y="32.01" width="220" height="63.99"/><rect id="_Path_3" data-name="&lt;Path&gt;" class="cls-5" x="69.04" y="63.88" width="81.39" height="13.16"/><g id="_Group_2" data-name="&lt;Group&gt;"><path id="_Compound_Path_" data-name="&lt;Compound Path&gt;" class="cls-4" d="M150.59,77.19H69l-.16-13.31,81.55-.17.16,13.48Zm-.32-13.31L69,64l.16,13,81.07-.18v-13Z"/></g><polygon id="_Path_4" data-name="&lt;Path&gt;" class="cls-5" points="68.99 77.04 67.67 80.13 151.79 80.13 150.48 77.04 68.99 77.04"/><g id="_Group_3" data-name="&lt;Group&gt;"><path id="_Compound_Path_2" data-name="&lt;Compound Path&gt;" class="cls-4" d="M152.06,80.31H67.42L68.83,77l81.65-.1,1.58,3.45ZM67.9,80h83.66l-1.22-2.86L69,77.19,67.9,80Z"/></g><polygon id="_Path_5" data-name="&lt;Path&gt;" class="cls-5" points="133.28 77.04 131.69 80.13 150.82 80.13 149.22 77.04 133.28 77.04"/><g id="_Group_4" data-name="&lt;Group&gt;"><path id="_Compound_Path_3" data-name="&lt;Compound Path&gt;" class="cls-4" d="M151.09,80.31H131.41l1.73-3.37,16.08-.08,1.87,3.45ZM131.94,80h18.61l-1.47-2.83-15.8.07L131.94,80Z"/></g><polygon id="_Path_6" data-name="&lt;Path&gt;" class="cls-5" points="137.88 77.04 137.08 80.13 146.72 80.13 145.92 77.04 137.88 77.04"/><g id="_Group_5" data-name="&lt;Group&gt;"><path id="_Compound_Path_4" data-name="&lt;Compound Path&gt;" class="cls-4" d="M146.93,80.31h-9.85l.65-3.32,8.19-.13,1,3.45Zm-1.16-3.24-7.88.12-.65,3,9.29-.18-.76-2.91Z"/></g><polygon id="_Path_7" data-name="&lt;Path&gt;" class="cls-5" points="139.32 77.04 138.8 80.13 145.02 80.13 144.51 77.04 139.32 77.04"/><g id="_Group_6" data-name="&lt;Group&gt;"><path id="_Compound_Path_5" data-name="&lt;Compound Path&gt;" class="cls-4" d="M145.22,80.31H138.8l.36-3.29,5.35-.16.71,3.45Zm-.88-3.24-5,.12L139,80.13l5.87-.15-.49-2.91Z"/></g><polygon id="_Path_8" data-name="&lt;Path&gt;" class="cls-5" points="101.35 77.04 99.68 80.13 119.79 80.13 118.12 77.04 101.35 77.04"/><g id="_Group_7" data-name="&lt;Group&gt;"><path id="_Compound_Path_6" data-name="&lt;Compound Path&gt;" class="cls-4" d="M120.07,80.31H99.41l1.79-3.37,16.92-.08,1.95,3.45ZM99.94,80h19.59L118,77.12l-16.62.07L99.94,80Z"/></g><rect id="_Path_9" data-name="&lt;Path&gt;" class="cls-5" x="68.59" y="63.68" width="82.3" height="3.09"/><g id="_Group_8" data-name="&lt;Group&gt;"><path id="_Compound_Path_7" data-name="&lt;Compound Path&gt;" class="cls-4" d="M151.06,67H68.59l-.16-3.27,82.46-.15.17,3.42Zm-.33-3.27-82.14.18.16,2.91,82-.15V63.68Z"/></g><rect id="_Path_10" data-name="&lt;Path&gt;" class="cls-5" x="133.15" y="63.91" width="16.12" height="13.1"/><g id="_Group_9" data-name="&lt;Group&gt;"><path id="_Compound_Path_8" data-name="&lt;Compound Path&gt;" class="cls-4" d="M149.44,77.17H133.15L133,63.91l16.29-.15.16,13.41Zm-.32-13.26-16,.15.16,13,15.81-.18V63.91Z"/></g><rect id="_Path_11" data-name="&lt;Path&gt;" class="cls-5" x="144.69" y="70.04" width="1.62" height="6.97"/><g id="_Group_10" data-name="&lt;Group&gt;"><path id="_Compound_Path_9" data-name="&lt;Compound Path&gt;" class="cls-4" d="M146.46,77.17h-1.77L144.53,70l1.79-.15.14,7.28ZM146.14,70l-1.45.18.17,6.8,1.28-.16V70Z"/></g><rect id="_Path_12" data-name="&lt;Path&gt;" class="cls-5" x="137.59" y="70.04" width="1.62" height="6.97"/><g id="_Group_11" data-name="&lt;Group&gt;"><path id="_Compound_Path_10" data-name="&lt;Compound Path&gt;" class="cls-4" d="M139.37,77.17h-1.78L137.43,70l1.78-.15.16,7.28ZM139,70l-1.45.18.17,6.8,1.28-.16V70Z"/></g><polygon id="_Path_13" data-name="&lt;Path&gt;" class="cls-5" points="105.47 77.04 104.63 80.13 114.73 80.13 113.89 77.04 105.47 77.04"/><g id="_Group_12" data-name="&lt;Group&gt;"><path id="_Compound_Path_11" data-name="&lt;Compound Path&gt;" class="cls-4" d="M115,80.31H104.63l.69-3.32,8.57-.13L115,80.31Zm-1.21-3.24-8.27.12-.69,3,9.75-.18-.79-2.91Z"/></g><polygon id="_Path_14" data-name="&lt;Path&gt;" class="cls-5" points="107.09 77.04 106.57 80.13 112.91 80.13 112.37 77.04 107.09 77.04"/><g id="_Group_13" data-name="&lt;Group&gt;"><path id="_Compound_Path_12" data-name="&lt;Compound Path&gt;" class="cls-4" d="M113.1,80.31h-6.53l.37-3.32,5.43-.13.73,3.45Zm-.88-3.24-5.13.12-.36,3,6-.18-.49-2.91Z"/></g><rect id="_Path_15" data-name="&lt;Path&gt;" class="cls-5" x="101.16" y="63.88" width="16.99" height="13.16"/><g id="_Group_14" data-name="&lt;Group&gt;"><path id="_Compound_Path_13" data-name="&lt;Compound Path&gt;" class="cls-4" d="M118.31,77.19H101.16L101,63.88l17.16-.17.16,13.48ZM118,63.88,101.16,64l.15,13L118,76.86v-13Z"/></g><rect id="_Path_16" data-name="&lt;Path&gt;" class="cls-5" x="114.69" y="70.04" width="1.62" height="6.97"/><g id="_Group_15" data-name="&lt;Group&gt;"><path id="_Compound_Path_14" data-name="&lt;Compound Path&gt;" class="cls-4" d="M116.47,77.17h-1.78L114.53,70l1.78-.15.16,7.28ZM116.15,70l-1.46.18.17,6.8,1.29-.18V70Z"/></g><rect id="_Path_17" data-name="&lt;Path&gt;" class="cls-5" x="103.47" y="70.04" width="1.62" height="6.97"/><g id="_Group_16" data-name="&lt;Group&gt;"><path id="_Compound_Path_15" data-name="&lt;Compound Path&gt;" class="cls-4" d="M105.25,77.17h-1.78L103.31,70l1.78-.15.16,7.28ZM104.92,70l-1.45.18.16,6.8,1.29-.18V70Z"/></g><rect id="_Path_18" data-name="&lt;Path&gt;" class="cls-5" x="105.62" y="60.69" width="8.24" height="16.35"/><g id="_Group_17" data-name="&lt;Group&gt;"><path id="_Compound_Path_16" data-name="&lt;Compound Path&gt;" class="cls-4" d="M114,77.19h-8.39l-.16-16.5,8.39-.15L114,77.19Zm-.32-16.5-8.07.18L105.78,77l7.91-.18V60.69Z"/></g><rect id="_Path_19" data-name="&lt;Path&gt;" class="cls-5" x="111.79" y="70.04" width="1.63" height="6.97"/><g id="_Group_18" data-name="&lt;Group&gt;"><path id="_Compound_Path_17" data-name="&lt;Compound Path&gt;" class="cls-4" d="M113.56,77.17h-1.77L111.63,70l1.78-.15.15,7.28ZM113.25,70l-1.46.18L112,77l1.3-.18V70Z"/></g><rect id="_Path_20" data-name="&lt;Path&gt;" class="cls-5" x="106.38" y="70.04" width="1.62" height="6.97"/><g id="_Group_19" data-name="&lt;Group&gt;"><path id="_Compound_Path_18" data-name="&lt;Compound Path&gt;" class="cls-4" d="M108.15,77.17h-1.77L106.22,70l1.77-.15.16,7.28ZM107.83,70l-1.45.18.16,6.8,1.29-.18V70Z"/></g><polygon id="_Path_21" data-name="&lt;Path&gt;" class="cls-5" points="106.16 63.32 109.63 68.33 113.32 63.32 106.16 63.32"/><g id="_Group_20" data-name="&lt;Group&gt;"><path id="_Compound_Path_19" data-name="&lt;Compound Path&gt;" class="cls-4" d="M109.63,68.61l-3.78-5.44h7.78l-4,5.44Zm-3.17-5.13,3.17,4.59L113,63.48Z"/></g><rect id="_Path_22" data-name="&lt;Path&gt;" class="cls-5" x="139.55" y="63.88" width="4.57" height="16.25"/><g id="_Group_21" data-name="&lt;Group&gt;"><path id="_Compound_Path_20" data-name="&lt;Compound Path&gt;" class="cls-4" d="M144.29,80.31h-4.74l-.15-16.43,4.72-.17.17,16.6ZM144,63.88l-4.43.13.16,16.12L144,80V63.88Z"/></g><rect id="_Path_23" data-name="&lt;Path&gt;" class="cls-5" x="140.31" y="63.88" width="3.04" height="16.25"/><g id="_Group_22" data-name="&lt;Group&gt;"><path id="_Compound_Path_21" data-name="&lt;Compound Path&gt;" class="cls-4" d="M143.52,80.31h-3.21l-.15-16.43,3.19-.17.17,16.6Zm-.32-16.43-2.89.13.16,16.12L143.2,80V63.88Z"/></g><polygon id="_Path_24" data-name="&lt;Path&gt;" class="cls-5" points="70.09 77.04 68.48 80.13 87.62 80.13 86.02 77.04 70.09 77.04"/><g id="_Group_23" data-name="&lt;Group&gt;"><path id="_Compound_Path_22" data-name="&lt;Compound Path&gt;" class="cls-4" d="M87.89,80.31H68.21l1.72-3.37L86,76.86l1.87,3.45ZM68.74,80H87.35l-1.47-2.83-15.79.07L68.74,80Z"/></g><polygon id="_Path_25" data-name="&lt;Path&gt;" class="cls-5" points="73.91 77.04 73.16 80.13 82.15 80.13 81.4 77.04 73.91 77.04"/><g id="_Group_24" data-name="&lt;Group&gt;"><path id="_Compound_Path_23" data-name="&lt;Compound Path&gt;" class="cls-4" d="M82.36,80.31h-9.2L73.75,77l7.65-.13,1,3.45Zm-1.11-3.24-7.35.12-.59,3L82,80l-.7-2.91Z"/></g><polygon id="_Path_26" data-name="&lt;Path&gt;" class="cls-5" points="75.25 77.04 74.77 80.13 80.5 80.13 80.03 77.04 75.25 77.04"/><g id="_Group_25" data-name="&lt;Group&gt;"><path id="_Compound_Path_24" data-name="&lt;Compound Path&gt;" class="cls-4" d="M80.69,80.31H74.77L75.09,77,80,76.86l.66,3.45Zm-.83-3.24-4.61.12-.33,2.94,5.4-.15-.46-2.91Z"/></g><rect id="_Path_27" data-name="&lt;Path&gt;" class="cls-5" x="69.95" y="63.88" width="16.01" height="13.16"/><g id="_Group_26" data-name="&lt;Group&gt;"><path id="_Compound_Path_25" data-name="&lt;Compound Path&gt;" class="cls-4" d="M86.13,77.19H70l-.16-13.31L86,63.71l.17,13.48ZM85.8,63.88,70,64l.17,13,15.68-.18v-13Z"/></g><rect id="_Path_28" data-name="&lt;Path&gt;" class="cls-5" x="73.07" y="70.04" width="1.62" height="6.97"/><g id="_Group_27" data-name="&lt;Group&gt;"><path id="_Compound_Path_26" data-name="&lt;Compound Path&gt;" class="cls-4" d="M74.85,77.17H73.07L72.91,70l1.78-.15.16,7.28ZM74.52,70l-1.45.18.17,6.8,1.28-.16V70Z"/></g><rect id="_Path_29" data-name="&lt;Path&gt;" class="cls-5" x="80.5" y="70.04" width="1.62" height="6.97"/><g id="_Group_28" data-name="&lt;Group&gt;"><path id="_Compound_Path_27" data-name="&lt;Compound Path&gt;" class="cls-4" d="M82.27,77.17H80.5L80.33,70l1.79-.15.15,7.28ZM82,70l-1.45.18.15,6.8,1.3-.16V70Z"/></g><rect id="_Path_30" data-name="&lt;Path&gt;" class="cls-5" x="75.45" y="63.88" width="4.57" height="16.25"/><g id="_Group_29" data-name="&lt;Group&gt;"><path id="_Compound_Path_28" data-name="&lt;Compound Path&gt;" class="cls-4" d="M80.18,80.31H75.45l-.17-16.43L80,63.71l.16,16.6Zm-.33-16.43-4.4.13.16,16.12L79.85,80V63.88Z"/></g><rect id="_Path_31" data-name="&lt;Path&gt;" class="cls-5" x="76.2" y="63.88" width="3.05" height="16.25"/><g id="_Group_30" data-name="&lt;Group&gt;"><path id="_Compound_Path_29" data-name="&lt;Compound Path&gt;" class="cls-4" d="M79.41,80.31H76.2L76,63.88l3.2-.17.17,16.6Zm-.33-16.43L76.2,64l.16,16.12L79.08,80V63.88Z"/></g><rect id="_Path_32" data-name="&lt;Path&gt;" class="cls-5" x="67.67" y="60.79" width="84.13" height="3.09"/><g id="_Group_31" data-name="&lt;Group&gt;"><path id="_Compound_Path_30" data-name="&lt;Compound Path&gt;" class="cls-4" d="M152,64H67.67l-.16-3.22,84.28-.15L152,64Zm-.33-3.22-84,.16.16,2.93,83.8-.17V60.79Z"/></g><rect id="_Path_33" data-name="&lt;Path&gt;" class="cls-5" x="65.33" y="79.36" width="88.47" height="3.98"/><g id="_Group_32" data-name="&lt;Group&gt;"><path id="_Compound_Path_31" data-name="&lt;Compound Path&gt;" class="cls-4" d="M154,83.5H65.33l-.16-4.14,88.64-.17L154,83.5Zm-.33-4.14-88.31.16.16,3.83,88.15-.18V79.36Z"/></g><rect id="_Path_34" data-name="&lt;Path&gt;" class="cls-5" x="63.99" y="80.21" width="91.17" height="3.98"/><g id="_Group_33" data-name="&lt;Group&gt;"><path id="_Compound_Path_32" data-name="&lt;Compound Path&gt;" class="cls-4" d="M155.33,84.37H64l-.17-4.16,91.34-.16.17,4.32ZM155,80.21l-91,.18.16,3.8L155,84V80.21Z"/></g><rect id="_Path_35" data-name="&lt;Path&gt;" class="cls-5" x="61.62" y="82.48" width="96.22" height="3.98"/><g id="_Group_34" data-name="&lt;Group&gt;"><path id="_Compound_Path_33" data-name="&lt;Compound Path&gt;" class="cls-4" d="M158,86.64H61.62l-.16-4.16,96.39-.15.15,4.31Zm-.32-4.16-96.06.15.16,3.84,95.9-.16V82.48Z"/></g><rect id="_Path_36" data-name="&lt;Path&gt;" class="cls-5" x="58.25" y="85.37" width="102.97" height="3.96"/><g id="_Group_35" data-name="&lt;Group&gt;"><path id="_Compound_Path_34" data-name="&lt;Compound Path&gt;" class="cls-4" d="M161.38,89.48H58.25l-.17-4.11,103.13-.21.17,4.32Zm-.32-4.11-102.81.1.16,3.86,102.65-.18V85.37Z"/></g><rect id="_Path_37" data-name="&lt;Path&gt;" class="cls-5" x="54.89" y="89.35" width="109.68" height="3.93"/><g id="_Group_36" data-name="&lt;Group&gt;"><path id="_Compound_Path_35" data-name="&lt;Compound Path&gt;" class="cls-4" d="M164.74,93.44H54.89l-.17-4.09,109.85-.18.17,4.27Zm-.31-4.09-109.54.16.16,3.78,109.38-.18V89.35Z"/></g><rect id="_Path_38" data-name="&lt;Path&gt;" class="cls-5" x="75.45" y="79.36" width="4.57" height="13.95"/><g id="_Group_37" data-name="&lt;Group&gt;"><path id="_Compound_Path_36" data-name="&lt;Compound Path&gt;" class="cls-4" d="M80.18,93.47H75.45l-.17-14.11L80,79.19l.16,14.28Zm-.33-14.11-4.4.16.16,13.79,4.24-.18V79.36Z"/></g><rect id="_Path_39" data-name="&lt;Path&gt;" class="cls-5" x="76.2" y="79.36" width="3.06" height="13.95"/><g id="_Group_38" data-name="&lt;Group&gt;"><path id="_Compound_Path_37" data-name="&lt;Compound Path&gt;" class="cls-4" d="M79.42,93.47H76.2L76,79.36l3.22-.17.16,14.28Zm-.33-14.11-2.89.16.16,13.79,2.73-.18V79.36Z"/></g><rect id="_Path_40" data-name="&lt;Path&gt;" class="cls-5" x="139.45" y="79.36" width="4.58" height="13.95"/><g id="_Group_39" data-name="&lt;Group&gt;"><path id="_Compound_Path_38" data-name="&lt;Compound Path&gt;" class="cls-4" d="M144.18,93.47h-4.73l-.17-14.11,4.75-.17.15,14.28Zm-.31-14.11-4.42.16.18,13.79,4.24-.18V79.36Z"/></g><rect id="_Path_41" data-name="&lt;Path&gt;" class="cls-5" x="140.22" y="79.36" width="3.05" height="13.95"/><g id="_Group_40" data-name="&lt;Group&gt;"><path id="_Compound_Path_39" data-name="&lt;Compound Path&gt;" class="cls-4" d="M143.42,93.47h-3.2l-.17-14.11,3.21-.17.16,14.28Zm-.32-14.11-2.88.16.16,13.79,2.72-.18V79.36Z"/></g><rect id="_Path_42" data-name="&lt;Path&gt;" class="cls-5" x="108.05" y="63.88" width="3.67" height="29.43"/><g id="_Group_41" data-name="&lt;Group&gt;"><path id="_Compound_Path_40" data-name="&lt;Compound Path&gt;" class="cls-4" d="M111.88,93.47h-3.83l-.17-29.59,3.84-.17.16,29.76Zm-.32-29.59-3.51.13.16,29.3,3.35-.18V63.88Z"/></g><g id="_Clip_Group_2" data-name="&lt;Clip Group&gt;"><g class="cls-2"><path id="_Path_43" data-name="&lt;Path&gt;" class="cls-5" d="M134.2,64l0-8.05s.82,1.58,7.19,1.94c6-.2,7-1.17,7.3-2L148.49,64Z"/><g id="_Group_42" data-name="&lt;Group&gt;"><path id="_Compound_Path_41" data-name="&lt;Compound Path&gt;" class="cls-4" d="M148.63,64.19l-14.43,0-.13-8.23,0-.61.28.53s.94,1.54,7.07,1.84c5.85-.2,6.88-1.09,7.14-1.91l.31.05-.26,8.35ZM134.4,56.38l0,7.61,14-.11.24-7.38c-.67.74-2.36,1.38-7.13,1.54-4.69-.26-6.42-1.21-7-1.66Z"/></g><path id="_Path_44" data-name="&lt;Path&gt;" class="cls-5" d="M138.31,54.56l-2-1.58c.67-.41,1.89.3,1.89.3s.66-1.83,3.48-2.58a4.83,4.83,0,0,1,3.47,2.58s1.22-.71,1.87-.3l-2,1.58Z"/><g id="_Group_43" data-name="&lt;Group&gt;"><path id="_Compound_Path_42" data-name="&lt;Compound Path&gt;" class="cls-4" d="M145.13,54.74h-6.82l-2.07-1.63a.6.6,0,0,1,.6-.41,3.55,3.55,0,0,1,1.43.41c-.09-.16.67-1.84,3.38-2.56,2.67.69,3.49,2.22,3.64,2.61a1.81,1.81,0,0,1,1.84-.31l-2,1.89ZM136.84,53a.93.93,0,0,0-.42.08l2,1.32,6.61,0L146.75,53h-.21a3.12,3.12,0,0,0-1.28.41,6.24,6.24,0,0,0-3.61-2.58,4.67,4.67,0,0,0-3.27,2.48c-.27.1-.93-.31-1.54-.31Z"/></g><path id="_Path_45" data-name="&lt;Path&gt;" class="cls-5" d="M137.3,58.67l-2.56-2.22c.85-.59,2.43.41,2.43.41s.87-2.53,4.53-3.6c3.66,1.07,4.51,3.6,4.51,3.6s1.59-1,2.44-.41l-2.57,2.22Z"/><g id="_Group_44" data-name="&lt;Group&gt;"><path id="_Compound_Path_43" data-name="&lt;Compound Path&gt;" class="cls-4" d="M146.15,58.83H137.3l-2.66-2.25a.77.77,0,0,1,.76-.49,4.47,4.47,0,0,1,1.84.62c-.12-.16.83-2.58,4.41-3.6,3.51,1,4.52,3.24,4.69,3.62a2.46,2.46,0,0,1,2.4-.41l-2.59,2.51Zm-10.75-2.4a1,1,0,0,0-.57.18l2.56,1.94,8.64,0,2.46-2.1c-.14.08-.3,0-.51,0a3.7,3.7,0,0,0-1.68.58,7.84,7.84,0,0,0-4.65-3.6,6.46,6.46,0,0,0-4.33,3.5c-.24.1-1.16-.48-1.92-.48Z"/></g><path id="_Path_46" data-name="&lt;Path&gt;" class="cls-5" d="M141.74,42.22c.08,0,3,5.32,0,5.39s0-5.23,0-5.39Z"/><g id="_Group_45" data-name="&lt;Group&gt;"><path id="_Compound_Path_44" data-name="&lt;Compound Path&gt;" class="cls-4" d="M141.67,47.79a1.36,1.36,0,0,1-1.24-.58c-.72-1.15.53-3.76,1-4.76a1.4,1.4,0,0,0,.14-.28.77.77,0,0,1,.17,0h.16a.39.39,0,0,0,0,.11,7.6,7.6,0,0,1,1.41,3.78c0,1.07-.51,1.66-1.53,1.68Zm.09-5.23,0,0c-.41.9-1.66,3.45-1,4.47a1,1,0,0,0,1,.44v.12l.07-.12a1.17,1.17,0,0,0,1.08-.64c.51-1.13-.64-3.55-1.06-4.29Z"/></g><path id="_Path_47" data-name="&lt;Path&gt;" class="cls-5" d="M139.14,49l-1.51-.82a2.45,2.45,0,0,1,1.44.13s.5-1,2.67-1.36c2.17.41,2.67,1.36,2.67,1.36a2.47,2.47,0,0,1,1.45-.13l-1.53.82Z"/><g id="_Group_46" data-name="&lt;Group&gt;"><path id="_Compound_Path_45" data-name="&lt;Compound Path&gt;" class="cls-4" d="M144.38,49.15h-5.24l-1.89-1,.31-.12a3.12,3.12,0,0,1,1.54.15c-.06-.13.57-1,2.61-1.38a4.3,4.3,0,0,1,2.81,1.38,2.07,2.07,0,0,1,1.4-.15l.3.12-1.84,1Zm-6.23-.92,1.08.58h5.07l1-.58a2.64,2.64,0,0,0-.87.23,4.86,4.86,0,0,0-2.77-1.36c-2,.39-2.49,1.25-2.49,1.28-.2.08-.66-.13-1.07-.15Z"/></g><path id="_Path_48" data-name="&lt;Path&gt;" class="cls-5" d="M140.4,49.63l0-.66a2.25,2.25,0,0,1,1.37-1.36A2.22,2.22,0,0,1,143.11,49l0,.66Z"/><g id="_Group_47" data-name="&lt;Group&gt;"><path id="_Compound_Path_46" data-name="&lt;Compound Path&gt;" class="cls-4" d="M143.24,49.81H140.4l-.18-.82a2.16,2.16,0,0,1,1.47-1.5,2.2,2.2,0,0,1,1.57,1.45l0,.87Zm-1.55-2A2,2,0,0,0,140.52,49l.06.61,2.34-.13,0-.53h0a1.94,1.94,0,0,0-1.25-1.18Z"/></g><path id="_Path_49" data-name="&lt;Path&gt;" class="cls-5" d="M139.07,51.68l-.08-.87A3.84,3.84,0,0,1,141.74,49c2.24.56,2.74,1.84,2.74,1.84l-.07.87Z"/><g id="_Group_48" data-name="&lt;Group&gt;"><path id="_Compound_Path_47" data-name="&lt;Compound Path&gt;" class="cls-4" d="M144.56,51.83h-5.49l-.23-1c0-.13.58-1.43,2.86-2,2.35.57,2.9,1.87,2.94,1.92l-.08,1.1Zm-2.86-2.68a3.51,3.51,0,0,0-2.56,1.71l.09.82,5-.16.07-.74h0a3.79,3.79,0,0,0-2.62-1.63Z"/></g><path id="_Path_50" data-name="&lt;Path&gt;" class="cls-5" d="M139.07,53.05l-.08-.91a3.79,3.79,0,0,1,2.75-1.82c2.24.54,2.74,1.82,2.74,1.82l-.07.91Z"/><g id="_Group_49" data-name="&lt;Group&gt;"><path id="_Compound_Path_48" data-name="&lt;Compound Path&gt;" class="cls-4" d="M144.56,53.21h-5.49l-.23-1.05c0-.13.58-1.43,2.86-2,2.35.56,2.9,1.86,2.94,1.91l-.08,1.13Zm-2.86-2.74a3.72,3.72,0,0,0-2.56,1.72l.09.84,5-.15.07-.74h0a3.87,3.87,0,0,0-2.62-1.67Z"/></g><path id="_Path_51" data-name="&lt;Path&gt;" class="cls-5" d="M139.14,57.09l-1.51-2.2c.5-.58,1.44.39,1.44.39a5.54,5.54,0,0,1,2.67-3.6,5.54,5.54,0,0,1,2.67,3.6s.94-1,1.45-.39l-1.53,2.2Z"/><g id="_Group_50" data-name="&lt;Group&gt;"><path id="_Compound_Path_49" data-name="&lt;Compound Path&gt;" class="cls-4" d="M144.42,57.27h-5.28L137.5,55c.39-1,1.12-.29,1.48,0a5.59,5.59,0,0,1,2.7-3.5A5.62,5.62,0,0,1,144.5,55c.35-.31,1.11-.66,1.48-.25l-1.56,2.5ZM138,54.87a.37.37,0,0,0-.27.13l1.54,2,5-.07,1.46-2.1c-.07,0-.15,0-.24,0-.36,0-.8.41-.94.53l-.22.23-.06-.3a5.39,5.39,0,0,0-2.57-3.5,5.52,5.52,0,0,0-2.45,3.5l-.06.3L139,55.4c-.15-.12-.6-.53-1-.53Z"/></g><path id="_Path_52" data-name="&lt;Path&gt;" class="cls-5" d="M139.14,59.8l-1.51-2.2c.5-.59,1.44.44,1.44.44a5.52,5.52,0,0,1,2.67-3.63A5.52,5.52,0,0,1,144.41,58s.94-1,1.45-.44l-1.53,2.2Z"/><g id="_Group_51" data-name="&lt;Group&gt;"><path id="_Compound_Path_50" data-name="&lt;Compound Path&gt;" class="cls-4" d="M144.42,60h-5.28L137.5,57.7c.39-1,1.12-.3,1.48,0a5.67,5.67,0,0,1,2.7-3.47,5.63,5.63,0,0,1,2.82,3.47c.35-.3,1.12-.63,1.48-.2L144.42,60ZM138,57.58a.4.4,0,0,0-.27.12l1.54,2,5-.06,1.46-2.12c-.08.11-.15.06-.26.06-.34,0-.78.4-.92.53l-.22.23-.06-.3a5.46,5.46,0,0,0-2.57-3.5,5.59,5.59,0,0,0-2.45,3.5l-.06.3-.21-.23a1.9,1.9,0,0,0-1-.53Z"/></g><path id="_Path_53" data-name="&lt;Path&gt;" class="cls-5" d="M139.07,63.88,139,61.64s.53-3.22,2.75-4.55c2.24,1.33,2.74,4.55,2.74,4.55l-.07,2.24Z"/><g id="_Group_52" data-name="&lt;Group&gt;"><path id="_Compound_Path_51" data-name="&lt;Compound Path&gt;" class="cls-4" d="M144.57,64h-5.5l-.24-2.37c0-.18.57-3.32,2.84-4.68,2.42,1.36,3,4.5,3,4.65l-.08,2.4Zm-2.9-6.77c-2,1.28-2.5,4.37-2.51,4.4l.08,2.24,5-.15.07-2.12s-.53-3.09-2.65-4.37Z"/></g><path id="_Path_54" data-name="&lt;Path&gt;" class="cls-5" d="M139.14,63.88l-1.51-1.66c.5-.43,1.44.29,1.44.29a4.37,4.37,0,0,1,2.67-2.71,4.37,4.37,0,0,1,2.67,2.71s.94-.72,1.45-.29l-1.53,1.66Z"/><g id="_Group_53" data-name="&lt;Group&gt;"><path id="_Compound_Path_52" data-name="&lt;Compound Path&gt;" class="cls-4" d="M144.41,64h-5.27l-1.62-1.68c.13-.33.31-.41.49-.41a1.77,1.77,0,0,1,1,.36,4.44,4.44,0,0,1,2.71-2.61,4.49,4.49,0,0,1,2.81,2.61c.33-.23,1.07-.52,1.46-.18L144.41,64ZM138,62.25a.77.77,0,0,0-.28.08l1.54,1.45,5-.07,1.36-1.46c-.05,0-.11,0-.15,0a1.82,1.82,0,0,0-1,.41l-.19.13-.06-.23A4.24,4.24,0,0,0,141.69,60a4.2,4.2,0,0,0-2.46,2.58l-.06.23-.21-.13a1.91,1.91,0,0,0-1-.41Z"/></g><path id="_Path_55" data-name="&lt;Path&gt;" class="cls-5" d="M74.4,54l-2-1.55c.65-.41,1.88.28,1.88.28s.66-1.82,3.47-2.56c2.81.74,3.48,2.56,3.48,2.56s1.21-.69,1.88-.28l-2,1.55Z"/><g id="_Group_54" data-name="&lt;Group&gt;"><path id="_Compound_Path_53" data-name="&lt;Compound Path&gt;" class="cls-4" d="M81.22,54.13H74.4l-2.08-1.61a.61.61,0,0,1,.62-.41,3.07,3.07,0,0,1,1.42.43c-.1-.15.67-1.84,3.37-2.58,2.67.72,3.49,2.25,3.64,2.61a1.9,1.9,0,0,1,1.84-.28l-2,1.84Zm-8.28-1.69a.71.71,0,0,0-.43.08l2,1.33,6.61,0,1.74-1.38h-.22a3.29,3.29,0,0,0-1.29.38,6.36,6.36,0,0,0-3.6-2.55,4.83,4.83,0,0,0-3.28,2.48c-.26.07-.94-.31-1.51-.31Z"/></g><path id="_Path_56" data-name="&lt;Path&gt;" class="cls-5" d="M73.38,58.09l-2.56-2.23c.86-.56,2.45.44,2.45.44s.85-2.53,4.5-3.63c3.67,1.1,4.53,3.63,4.53,3.63s1.57-1,2.43-.44l-2.56,2.23Z"/><g id="_Group_55" data-name="&lt;Group&gt;"><path id="_Compound_Path_54" data-name="&lt;Compound Path&gt;" class="cls-4" d="M82.22,58.24H73.38L70.71,56a.79.79,0,0,1,.77-.46,4.11,4.11,0,0,1,1.85.62c-.12-.18.82-2.58,4.4-3.66,3.51,1,4.54,3.27,4.69,3.68a2.54,2.54,0,0,1,2.4-.43l-2.6,2.5ZM71.48,55.86a1,1,0,0,0-.57.16l2.57,2,8.64,0,2.44-2.14c-.12.1-.3.05-.5.07a3.62,3.62,0,0,0-1.69.57,7.86,7.86,0,0,0-4.64-3.63,6.41,6.41,0,0,0-4.32,3.55c-.23.08-1.16-.49-1.93-.49Z"/></g><path id="_Path_57" data-name="&lt;Path&gt;" class="cls-5" d="M70.83,64l0-8.05s.82,1.58,7.19,1.94c6-.2,7-1.17,7.29-2L85.11,64Z"/><g id="_Group_56" data-name="&lt;Group&gt;"><path id="_Compound_Path_55" data-name="&lt;Compound Path&gt;" class="cls-4" d="M85.26,64.19l-14.43,0-.12-8.23v-.61l.3.53s.92,1.54,7.06,1.84c5.84-.2,6.88-1.09,7.14-1.91l.3.05-.25,8.35ZM71,56.38,71,64l14-.11.23-7.38c-.66.74-2.35,1.38-7.12,1.54-4.69-.26-6.43-1.21-7-1.66Z"/></g><path id="_Path_58" data-name="&lt;Path&gt;" class="cls-5" d="M77.72,42.22c.08,0,3.07,5.32,0,5.39s0-5.23,0-5.39Z"/><g id="_Group_57" data-name="&lt;Group&gt;"><path id="_Compound_Path_56" data-name="&lt;Compound Path&gt;" class="cls-4" d="M77.65,47.79a1.33,1.33,0,0,1-1.22-.58c-.74-1.15.51-3.76,1-4.76a1.92,1.92,0,0,0,.13-.28.71.71,0,0,1,.16,0h.16l0,.11a7.7,7.7,0,0,1,1.42,3.78,1.44,1.44,0,0,1-1.54,1.68Zm.09-5.23,0,0c-.39.9-1.65,3.45-1,4.47a1.06,1.06,0,0,0,1,.44v.12l0-.12a1.2,1.2,0,0,0,1.12-.64c.5-1.13-.65-3.55-1.08-4.29Z"/></g><path id="_Path_59" data-name="&lt;Path&gt;" class="cls-5" d="M75.13,49l-1.51-.82a2.45,2.45,0,0,1,1.44.13s.5-1,2.67-1.36c2.16.41,2.67,1.36,2.67,1.36a2.45,2.45,0,0,1,1.45-.13L80.33,49Z"/><g id="_Group_58" data-name="&lt;Group&gt;"><path id="_Compound_Path_57" data-name="&lt;Compound Path&gt;" class="cls-4" d="M80.37,49.15H75.13l-1.89-1,.32-.12a3.11,3.11,0,0,1,1.53.15c0-.13.58-1,2.6-1.38a4.3,4.3,0,0,1,2.82,1.38,2.05,2.05,0,0,1,1.4-.15l.3.12-1.84,1Zm-6.24-.92,1.08.58h5.07l1-.58a2.63,2.63,0,0,0-.86.23,4.77,4.77,0,0,0-2.78-1.36c-2,.39-2.5,1.25-2.5,1.28-.17.08-.63-.13-1.06-.15Z"/></g><path id="_Path_60" data-name="&lt;Path&gt;" class="cls-5" d="M76.4,49.63l0-.66a2.22,2.22,0,0,1,1.37-1.36A2.22,2.22,0,0,1,79.09,49l0,.66Z"/><g id="_Group_59" data-name="&lt;Group&gt;"><path id="_Compound_Path_58" data-name="&lt;Compound Path&gt;" class="cls-4" d="M79.21,49.81H76.4L76.19,49a2.26,2.26,0,0,1,1.48-1.5,2.28,2.28,0,0,1,1.59,1.45l-.05.87Zm-1.54-2A1.91,1.91,0,0,0,76.52,49l0,.61,2.36-.13,0-.53h0a2,2,0,0,0-1.27-1.18Z"/></g><path id="_Path_61" data-name="&lt;Path&gt;" class="cls-5" d="M75.06,51.68,75,50.81A3.81,3.81,0,0,1,77.73,49c2.23.56,2.74,1.84,2.74,1.84l-.07.87Z"/><g id="_Group_60" data-name="&lt;Group&gt;"><path id="_Compound_Path_59" data-name="&lt;Compound Path&gt;" class="cls-4" d="M80.54,51.83H75.06l-.24-1c0-.13.59-1.43,2.87-2,2.35.57,2.91,1.87,2.93,1.92l-.08,1.1Zm-2.85-2.68a3.54,3.54,0,0,0-2.56,1.71l.09.82,5-.16,0-.74h0a3.65,3.65,0,0,0-2.61-1.63Z"/></g><path id="_Path_62" data-name="&lt;Path&gt;" class="cls-5" d="M75.06,53.05,75,52.14s.52-1.28,2.75-1.82c2.23.54,2.74,1.82,2.74,1.82l-.07.91Z"/><g id="_Group_61" data-name="&lt;Group&gt;"><path id="_Compound_Path_60" data-name="&lt;Compound Path&gt;" class="cls-4" d="M80.54,53.21H75.06l-.24-1.05c0-.13.59-1.43,2.87-2,2.35.56,2.91,1.86,2.93,1.91l-.08,1.13Zm-2.85-2.74a3.68,3.68,0,0,0-2.55,1.72l.08.84,5-.15,0-.74h0a3.72,3.72,0,0,0-2.61-1.67Z"/></g><path id="_Path_63" data-name="&lt;Path&gt;" class="cls-5" d="M75.13,57.09l-1.51-2.2c.5-.58,1.44.39,1.44.39a5.54,5.54,0,0,1,2.67-3.6,5.58,5.58,0,0,1,2.67,3.6s.93-1,1.45-.39l-1.52,2.2Z"/><g id="_Group_62" data-name="&lt;Group&gt;"><path id="_Compound_Path_61" data-name="&lt;Compound Path&gt;" class="cls-4" d="M80.41,57.27H75.13L73.47,55c.41-1,1.15-.29,1.49,0a5.66,5.66,0,0,1,2.7-3.5A5.63,5.63,0,0,1,80.5,55c.35-.31,1.09-.66,1.46-.25l-1.55,2.5ZM74,54.87a.33.33,0,0,0-.26.13l1.53,2,5-.07,1.43-2.1c-.05,0-.12,0-.23,0-.35,0-.78.41-.94.53l-.21.23,0-.3a5.5,5.5,0,0,0-2.59-3.5,5.65,5.65,0,0,0-2.45,3.5l0,.3L75,55.4c-.16-.12-.6-.53-1-.53Z"/></g><path id="_Path_64" data-name="&lt;Path&gt;" class="cls-5" d="M75.13,59.8l-1.51-2.2c.5-.59,1.44.44,1.44.44a5.52,5.52,0,0,1,2.67-3.63A5.56,5.56,0,0,1,80.4,58s.93-1,1.45-.44l-1.52,2.2Z"/><g id="_Group_63" data-name="&lt;Group&gt;"><path id="_Compound_Path_62" data-name="&lt;Compound Path&gt;" class="cls-4" d="M80.41,60H75.13L73.47,57.7c.42-1,1.15-.3,1.49,0a5.75,5.75,0,0,1,2.7-3.47A5.64,5.64,0,0,1,80.5,57.7c.35-.3,1.09-.63,1.46-.2L80.41,60ZM74,57.58a.36.36,0,0,0-.26.12l1.53,2,5-.06,1.43-2.12c-.05.11-.14.06-.23.06-.35,0-.78.4-.94.53l-.21.23,0-.3a5.57,5.57,0,0,0-2.59-3.5A5.73,5.73,0,0,0,75.21,58l0,.3L75,58.11c-.16-.13-.6-.53-1-.53Z"/></g><path id="_Path_65" data-name="&lt;Path&gt;" class="cls-5" d="M75.06,63.88,75,61.64s.52-3.22,2.75-4.55c2.23,1.33,2.74,4.55,2.74,4.55l-.07,2.24Z"/><g id="_Group_64" data-name="&lt;Group&gt;"><path id="_Compound_Path_63" data-name="&lt;Compound Path&gt;" class="cls-4" d="M80.55,64H75.06l-.25-2.37c0-.18.58-3.32,2.84-4.68,2.42,1.36,3,4.5,3,4.65L80.55,64Zm-2.9-6.77c-2,1.28-2.51,4.37-2.51,4.4l.08,2.24,5-.15.07-2.12s-.51-3.09-2.65-4.37Z"/></g><path id="_Path_66" data-name="&lt;Path&gt;" class="cls-5" d="M75.13,63.88l-1.51-1.66c.5-.43,1.44.29,1.44.29a4.37,4.37,0,0,1,2.67-2.71,4.4,4.4,0,0,1,2.67,2.71s.93-.72,1.45-.29l-1.52,1.66Z"/><g id="_Group_65" data-name="&lt;Group&gt;"><path id="_Compound_Path_64" data-name="&lt;Compound Path&gt;" class="cls-4" d="M80.4,64H75.13L73.5,62.33c.15-.33.31-.41.5-.41a1.73,1.73,0,0,1,1,.36,4.53,4.53,0,0,1,2.71-2.61,4.43,4.43,0,0,1,2.81,2.61c.34-.23,1.08-.52,1.47-.18L80.4,64ZM74,62.25a.58.58,0,0,0-.27.08l1.52,1.45,5-.07,1.35-1.46s-.1,0-.16,0a2,2,0,0,0-1,.41l-.2.13,0-.23A4.28,4.28,0,0,0,77.67,60a4.23,4.23,0,0,0-2.46,2.58l-.07.23L75,62.66a2,2,0,0,0-1-.41Z"/></g><path id="_Path_67" data-name="&lt;Path&gt;" class="cls-5" d="M100.43,60.26H119a1.66,1.66,0,0,1,1.67,1.66A1.68,1.68,0,0,1,119,63.58H100.43a1.68,1.68,0,0,1-1.66-1.66,1.66,1.66,0,0,1,1.66-1.66Z"/><g id="_Group_66" data-name="&lt;Group&gt;"><path id="_Compound_Path_65" data-name="&lt;Compound Path&gt;" class="cls-4" d="M119,63.73H100.43a1.84,1.84,0,0,1-1.84-1.81,1.85,1.85,0,0,1,1.84-1.84H119a1.85,1.85,0,0,1,1.83,1.84A1.83,1.83,0,0,1,119,63.73Zm-18.61-3.32a1.5,1.5,0,1,0,0,3H119a1.5,1.5,0,1,0,0-3Z"/></g><path id="_Path_68" data-name="&lt;Path&gt;" class="cls-5" d="M121,62.22l.14-11s-.42,2.7-1.7,2.7H100c-1.27,0-1.69-2.7-1.69-2.7l.13,11Z"/><g id="_Group_67" data-name="&lt;Group&gt;"><path id="_Compound_Path_66" data-name="&lt;Compound Path&gt;" class="cls-4" d="M121.19,62.35H98.44l-.29-11.13.31,0c.12.72.61,2.58,1.54,2.58h19.47c.92,0,1.43-1.86,1.54-2.58l.32,0-.14,11.13ZM98.48,52.49l.13,9.71,22.26-.15.12-9.56c-.28.79-.76,1.59-1.52,1.59H100c-.76,0-1.23-.8-1.52-1.59Z"/></g><path id="_Path_69" data-name="&lt;Path&gt;" class="cls-5" d="M116.72,57.22l0-3.58s2.44-.66,2.1-1.58-3.27,1.17-3.27,1.17h-11.7s-2.92-2.12-3.26-1.17,2.1,1.58,2.1,1.58l0,3.58Z"/><g id="_Group_68" data-name="&lt;Group&gt;"><path id="_Compound_Path_67" data-name="&lt;Compound Path&gt;" class="cls-4" d="M116.86,57.4h-14.1l-.21-3.73a3,3,0,0,1-2-1.13.61.61,0,0,1,0-.53.51.51,0,0,1,.56-.36c.93,0,2.86,1.38,3,1.46l11.6,0a7.08,7.08,0,0,1,2.86-1.43A.51.51,0,0,1,119,52a.58.58,0,0,1,0,.53c-.39.77-2.09,1.23-2.16,1.26l.09,3.42,0,.18ZM101,52c-.18,0-.23.05-.26.13a.36.36,0,0,0,0,.31c.26.51,1.5.94,2,1.07l.16,3.73,13.64-.15,0-3.43c.57-.28,1.81-.71,2.08-1.22a.38.38,0,0,0,0-.31c0-.08-.08-.13-.26-.13a7.79,7.79,0,0,0-2.76,1.38l-11.8,0A8.31,8.31,0,0,0,101,52Z"/></g><path id="_Path_70" data-name="&lt;Path&gt;" class="cls-5" d="M118.11,60.33l0-3.8s2.91-.46,2.5-1.38-3.91,1.17-3.91,1.17h-14s-3.51-2.14-3.92-1.17,2.51,1.38,2.51,1.38l0,3.8Z"/><g id="_Group_69" data-name="&lt;Group&gt;"><path id="_Compound_Path_68" data-name="&lt;Compound Path&gt;" class="cls-4" d="M118.26,60.49h-16.9l-.2-4c-.09.1-2.08-.18-2.48-1a.57.57,0,0,1,0-.51.62.62,0,0,1,.64-.33c1.1,0,3.41,1.38,3.5,1.43h14a9.66,9.66,0,0,1,3.44-1.43.61.61,0,0,1,.63.33.51.51,0,0,1,0,.51c-.4.74-2.39,1.08-2.61,1.13l.09,3.62v.16Zm-19-5.42c-.28,0-.33.1-.34.13.28.74,1.82,1.1,2.38,1.18l.2,3.95L118,60.16l0-3.63c.72-.23,2.24-.59,2.52-1.1,0-1.28-3.65,1-3.67,1l-14.12,0c-.1,0-2.42-1.41-3.43-1.41Z"/></g><path id="_Path_71" data-name="&lt;Path&gt;" class="cls-5" d="M111.77,41l0-1.48c-1.72,0-1.29-1.64-1.29-2.28a1.57,1.57,0,0,0-.76-2.5c-1.38.71-1.27,1.89-.77,2.45,0,.69.57,2.33-1.31,2.33V41Z"/><g id="_Group_70" data-name="&lt;Group&gt;"><path id="_Compound_Path_69" data-name="&lt;Compound Path&gt;" class="cls-4" d="M111.94,41.13h-4.27l-.18-1.66c.64-.18,1-.26,1.17-.52a1.79,1.79,0,0,0,.2-1.37c0-.18,0-.31,0-.44a1.44,1.44,0,0,1-.32-1.23,2,2,0,0,1,1.18-1.35A1.85,1.85,0,0,1,111,35.81a1.77,1.77,0,0,1-.36,1.48,1.61,1.61,0,0,1,0,.26,1.91,1.91,0,0,0,.25,1.43,1.05,1.05,0,0,0,.9.31l.15,1.66v.18Zm-2.27-6.29a2,2,0,0,0-.86,1.13,1.22,1.22,0,0,0,.29,1,4.62,4.62,0,0,1,.07.51,2.17,2.17,0,0,1-.26,1.66,1.56,1.56,0,0,1-1.25.41l.17,1.36,3.79-.13V39.47a1,1,0,0,1-1-.23,2.44,2.44,0,0,1-.32-1.72l0-.33a1.63,1.63,0,0,0,.32-1.3,1.66,1.66,0,0,0-1-1Z"/></g><path id="_Path_72" data-name="&lt;Path&gt;" class="cls-5" d="M114.67,50.81l0-2.89s1.72-.56,1.49-1.33-2.32.95-2.32.95h-8.28s-2.08-1.71-2.31-.95,1.48,1.33,1.48,1.33l0,2.89Z"/><g id="_Group_71" data-name="&lt;Group&gt;"><path id="_Compound_Path_70" data-name="&lt;Compound Path&gt;" class="cls-4" d="M114.83,51h-10l-.19-3c-.06.1-1.75-.49-1.47-1.38a.43.43,0,0,1,.44-.33c.66,0,2,1.07,2.12,1.22l8.18,0a4.57,4.57,0,0,1,2-1.17.43.43,0,0,1,.43.33c.28.89-1.39,1.48-1.58,1.56l.07,2.73V51Zm-11.26-4.42c-.29.59.84,1.1,1.25,1.25l.13,3,9.57-.16,0-2.73c.52-.28,1.65-.79,1.49-1.28-.6-.12-1.68.72-2,1l-8.39,0a6.1,6.1,0,0,0-2-1.18Z"/></g><path id="_Path_73" data-name="&lt;Path&gt;" class="cls-5" d="M115.66,53.36l0-3.12s2.09-.38,1.79-1.12-2.78,1-2.78,1h-9.94s-2.48-1.76-2.76-1,1.77,1.12,1.77,1.12l0,3.12Z"/><g id="_Group_72" data-name="&lt;Group&gt;"><path id="_Compound_Path_71" data-name="&lt;Compound Path&gt;" class="cls-4" d="M115.82,53.51h-12l-.19-3.27a2.06,2.06,0,0,1-1.73-.71.5.5,0,0,1,0-.46.46.46,0,0,1,.49-.31,7.29,7.29,0,0,1,2.53,1.18l9.84,0a6.41,6.41,0,0,1,2.43-1.15.49.49,0,0,1,.51.31.57.57,0,0,1,0,.46c-.34.61-1.71.84-1.87.89l.09,2.94v.15ZM102.33,49.1l-.17.3c.2.33,1.11.59,1.64.69l.18,3.27,11.53-.18,0-2.94c.53-.22,1.56-.48,1.79-.84l-.19-.3a6.32,6.32,0,0,0-2.32,1.12l-10,0a7.16,7.16,0,0,0-2.43-1.14Z"/></g><path id="_Path_74" data-name="&lt;Path&gt;" class="cls-5" d="M112.94,46.21V44.32s1.12-.46,1-1-1.49.64-1.49.64h-5.37s-1.34-1.18-1.48-.64,1,1,1,1l0,1.89Z"/><g id="_Group_73" data-name="&lt;Group&gt;"><path id="_Compound_Path_72" data-name="&lt;Compound Path&gt;" class="cls-4" d="M113.1,46.39h-6.56l-.19-2.07c0,.1-1.14-.41-.95-1l0-.08.31-.15c.44,0,1.25.72,1.41.84l5.26-.05c0-.07.85-.79,1.31-.79h.11l.23.23c.18.64-.92,1.15-1.06,1.2l.09,1.74v.18Zm-7.35-3c-.13.31.51.67.83.8l.12,2,6.07-.15V44.29c.43-.25,1.06-.61,1-.92a5.36,5.36,0,0,0-1.24.74l-5.48.06a4,4,0,0,0-1.3-.8Z"/></g><path id="_Path_75" data-name="&lt;Path&gt;" class="cls-5" d="M113.57,48l0-1.92s1.33-.46,1.15-1-1.8.66-1.8.66h-6.43s-1.61-1.2-1.8-.66,1.16,1,1.16,1l0,1.92Z"/><g id="_Group_74" data-name="&lt;Group&gt;"><path id="_Compound_Path_73" data-name="&lt;Compound Path&gt;" class="cls-4" d="M113.74,48.1H105.9L105.71,46c0,.13-.89-.2-1.11-.66l0-.08V45a.36.36,0,0,1,.37-.23,4.48,4.48,0,0,1,1.67.79l6.34,0a3.64,3.64,0,0,1,1.58-.77h.1l.27.23a.5.5,0,0,1,0,.36c-.22.48-1.12.79-1.23.81l.1,1.77v.15Zm-8.8-3c.06.41.65.69,1,.8l.14,2,7.35-.13,0-1.76c.44-.26,1-.54,1.15-.79-.37-.16-1.13.31-1.53.61l-6.53,0a4.86,4.86,0,0,0-1.58-.8Z"/></g><path id="_Path_76" data-name="&lt;Path&gt;" class="cls-5" d="M112,42.86l0-1.73s.78-.39.68-.85-1.07.59-1.07.59h-3.8s-1-1-1.06-.59.68.85.68.85v1.5Z"/><g id="_Group_75" data-name="&lt;Group&gt;"><path id="_Compound_Path_74" data-name="&lt;Compound Path&gt;" class="cls-4" d="M112.16,43l-4.7-.23-.17-1.66c0,.08-.8-.36-.68-.89l0-.13.26-.1c.34,0,.87.56,1,.71l3.68-.05c.06-.1.59-.66.93-.66h.13l.16.23c.13.56-.66,1-.76,1l.07,1.58V43Zm-5.25-2.68c0,.23.41.56.61.61l.11,1.66,4.21.08V41.13c.31-.23.75-.54.68-.8a6.08,6.08,0,0,0-.79.59l-3.91,0a4,4,0,0,0-.92-.61Z"/></g><path id="_Path_77" data-name="&lt;Path&gt;" class="cls-5" d="M112.45,44.06v-1.5s1-.41.82-.85-1.26.54-1.26.54h-4.57s-1.14-1-1.27-.54.82.85.82.85l0,1.5Z"/><g id="_Group_76" data-name="&lt;Group&gt;"><path id="_Compound_Path_75" data-name="&lt;Compound Path&gt;" class="cls-4" d="M112.6,44.22H107l-.18-1.66c-.08,0-1-.34-.81-.9l0-.1.29-.13c.38,0,1.07.59,1.21.72l4.46,0a2.2,2.2,0,0,1,1.11-.67h.12l.2.23c.16.56-.74,1-.92,1l.07,1.38v.16Zm-6.25-2.46c-.08.18.38.49.72.64l.11,1.66,5.11-.18V42.56c.45-.31.88-.62.83-.8a2.67,2.67,0,0,0-1,.62l-4.67,0a3.84,3.84,0,0,0-1.1-.64Z"/></g><path id="_Path_78" data-name="&lt;Path&gt;" class="cls-5" d="M108.29,44.14l-.84-1c.29-.25.79.18.79.18a2.47,2.47,0,0,1,1.5-1.53,2.41,2.41,0,0,1,1.48,1.53s.52-.43.81-.18l-.84,1Z"/><g id="_Group_77" data-name="&lt;Group&gt;"><path id="_Compound_Path_76" data-name="&lt;Compound Path&gt;" class="cls-4" d="M111.24,44.29h-2.95L107.09,43l.57-.08a1,1,0,0,1,.5.18,2.67,2.67,0,0,1,1.52-1.46,2.68,2.68,0,0,1,1.62,1.46,1,1,0,0,1,.5-.18l.32.13-.88,1.22Zm-3.58-1,.75.77L111.1,44l.79-.87-.57.41-.2.15-.06-.23A2.22,2.22,0,0,0,109.68,42a2.28,2.28,0,0,0-1.27,1.45l-.07.23-.19-.15a1.18,1.18,0,0,0-.49-.23Z"/></g><path id="_Path_79" data-name="&lt;Path&gt;" class="cls-5" d="M107.71,45.67l-1.18-.92c.4-.25,1.13.16,1.13.16a2.17,2.17,0,0,1,4.15,0s.74-.41,1.13-.16l-1.19.92Z"/><g id="_Group_78" data-name="&lt;Group&gt;"><path id="_Compound_Path_77" data-name="&lt;Compound Path&gt;" class="cls-4" d="M111.81,45.85h-4.1l-1.28-1c.13-.34.27-.36.41-.36a2,2,0,0,1,.85.25c-.06-.18.44-1.12,2-1.53a3.16,3.16,0,0,1,2.23,1.56A1,1,0,0,1,113,44.6l-1.22,1.25Zm-4.9-1,.9.69,3.89,0,.87-.66a1.74,1.74,0,0,0-.68.2,4,4,0,0,0-2.2-1.53A2.65,2.65,0,0,0,107.81,45c-.22.08-.59-.12-.9-.12Z"/></g><path id="_Path_80" data-name="&lt;Path&gt;" class="cls-5" d="M107.42,48.38l-1.34-1.25c.45-.33,1.28.23,1.28.23a3.53,3.53,0,0,1,2.38-2.07,3.5,3.5,0,0,1,2.37,2.07s.83-.56,1.29-.23L112,48.38Z"/><g id="_Group_79" data-name="&lt;Group&gt;"><path id="_Compound_Path_78" data-name="&lt;Compound Path&gt;" class="cls-4" d="M112.11,48.56h-4.69L106,47.23c.12-.33.28-.38.44-.38a2.75,2.75,0,0,1,1,.33c-.08-.18.47-1.46,2.27-2a3.8,3.8,0,0,1,2.54,2,1.2,1.2,0,0,1,1.27-.18l-1.38,1.56Zm-5.69-1.38a.41.41,0,0,0-.25.08l1.36,1,4.45-.05,1.12-1a2.22,2.22,0,0,0-.91.33,5.07,5.07,0,0,0-2.51-2.07,3.48,3.48,0,0,0-2.16,2c-.26.1-.72-.23-1.1-.23Z"/></g><path id="_Path_81" data-name="&lt;Path&gt;" class="cls-5" d="M106.84,51.73l-1.67-1.59c.56-.41,1.59.31,1.59.31a4.46,4.46,0,0,1,3-2.61,4.46,4.46,0,0,1,3,2.61s1-.72,1.6-.31l-1.69,1.59Z"/><g id="_Group_80" data-name="&lt;Group&gt;"><path id="_Compound_Path_79" data-name="&lt;Compound Path&gt;" class="cls-4" d="M112.69,51.88h-5.85l-1.79-1.64c.16-.35.34-.4.55-.4a2.52,2.52,0,0,1,1.22.43c-.09-.18.58-1.84,2.86-2.55a4.6,4.6,0,0,1,3.15,2.58A1.41,1.41,0,0,1,114.4,50l-1.71,1.86Zm-7.09-1.71a.42.42,0,0,0-.33.1L107,51.6l5.61-.05L114,50.14a.31.31,0,0,1-.17,0,2.1,2.1,0,0,0-1.08.41A5.78,5.78,0,0,0,109.68,48a4.25,4.25,0,0,0-2.75,2.45c-.25.08-.84-.3-1.33-.3Z"/></g><polygon id="_Path_82" data-name="&lt;Path&gt;" class="cls-5" points="106.44 54.43 109.64 58.44 113.04 54.43 106.44 54.43"/><g id="_Group_81" data-name="&lt;Group&gt;"><path id="_Compound_Path_80" data-name="&lt;Compound Path&gt;" class="cls-4" d="M109.63,58.7l-3.54-4.39h7.3l-3.76,4.39Zm-2.86-4.06,2.87,3.55,3-3.55Z"/></g><path id="_Path_83" data-name="&lt;Path&gt;" class="cls-5" d="M106.27,54.92l-2-1.79c.68-.46,1.93.33,1.93.33a5.12,5.12,0,0,1,3.57-2.86,5.11,5.11,0,0,1,3.55,2.86s1.27-.79,1.93-.33l-2,1.79Z"/><g id="_Group_82" data-name="&lt;Group&gt;"><path id="_Compound_Path_81" data-name="&lt;Compound Path&gt;" class="cls-4" d="M113.25,55.07h-7l-2.13-1.81a.66.66,0,0,1,.63-.44,3,3,0,0,1,1.47.52c-.12-.23.67-2.1,3.45-2.89a5.41,5.41,0,0,1,3.73,2.89,1.82,1.82,0,0,1,1.89-.34l-2.06,2.07Zm-8.48-1.91a.6.6,0,0,0-.43.12l2,1.51,6.77,0L115,53.13a.67.67,0,0,1-.27,0,3,3,0,0,0-1.3.46,6.44,6.44,0,0,0-3.7-2.86,4.92,4.92,0,0,0-3.36,2.75c-.27.11-1-.35-1.56-.35Z"/></g><polygon id="_Path_84" data-name="&lt;Path&gt;" class="cls-5" points="106.16 58.85 109.63 63.88 113.32 58.85 106.16 58.85"/><g id="_Group_83" data-name="&lt;Group&gt;"><path id="_Compound_Path_82" data-name="&lt;Compound Path&gt;" class="cls-4" d="M109.63,64.14l-3.78-5.44h7.78l-4,5.44ZM106.46,59l3.17,4.57L113,59Z"/></g><path id="_Path_85" data-name="&lt;Path&gt;" class="cls-5" d="M106,59.42l-2.2-2.23c.74-.56,2.09.44,2.09.44A6,6,0,0,1,109.74,54a6,6,0,0,1,3.86,3.63s1.35-1,2.08-.44l-2.19,2.23Z"/><g id="_Group_84" data-name="&lt;Group&gt;"><path id="_Compound_Path_83" data-name="&lt;Compound Path&gt;" class="cls-4" d="M113.55,59.57H106l-2.31-2.25c.19-.41.42-.49.67-.49a2.75,2.75,0,0,1,1.43.54,6.26,6.26,0,0,1,3.9-3.55,6.27,6.27,0,0,1,4,3.55c.43-.28,1.54-.71,2.1-.3l-2.23,2.5Zm-9.2-2.4a.6.6,0,0,0-.46.18l2.21,2,7.32-.05,2.09-2.14c-.1.1-.23.05-.4.05a3,3,0,0,0-1.42.56l-.19.15,0-.2a6,6,0,0,0-3.77-3.55A5.91,5.91,0,0,0,106,57.68l0,.2-.2-.15a3.14,3.14,0,0,0-1.43-.56Z"/></g><path id="_Path_86" data-name="&lt;Path&gt;" class="cls-5" d="M106,63.88l-2.2-2.22c.74-.58,2.09.41,2.09.41a6,6,0,0,1,3.86-3.63,6.08,6.08,0,0,1,3.86,3.63s1.35-1,2.08-.41l-2.19,2.22Z"/><g id="_Group_85" data-name="&lt;Group&gt;"><path id="_Compound_Path_84" data-name="&lt;Compound Path&gt;" class="cls-4" d="M113.55,64H106l-2.31-2.25a.66.66,0,0,1,.67-.43,2.9,2.9,0,0,1,1.43.49,6.38,6.38,0,0,1,3.9-3.53,6.39,6.39,0,0,1,4,3.53c.42-.26,1.54-.74,2.1-.28L113.55,64Zm-9.2-2.37a.71.71,0,0,0-.46.15l2.21,2,7.32-.07,2.09-2.1a1,1,0,0,1-.4,0,2.78,2.78,0,0,0-1.42.58l-.19.11,0-.21a6,6,0,0,0-3.77-3.52A5.86,5.86,0,0,0,106,62.12l0,.21-.2-.11a2.87,2.87,0,0,0-1.43-.58Z"/></g><rect id="_Path_87" data-name="&lt;Path&gt;" class="cls-5" x="87.36" y="70.04" width="1.61" height="6.97"/><g id="_Group_86" data-name="&lt;Group&gt;"><path id="_Compound_Path_85" data-name="&lt;Compound Path&gt;" class="cls-4" d="M89.13,77.17H87.36L87.2,70,89,69.89l.16,7.28ZM88.8,70l-1.44.18.17,6.8,1.27-.16V70Z"/></g><rect id="_Path_88" data-name="&lt;Path&gt;" class="cls-5" x="92.84" y="70.04" width="1.62" height="6.97"/><g id="_Group_87" data-name="&lt;Group&gt;"><path id="_Compound_Path_86" data-name="&lt;Compound Path&gt;" class="cls-4" d="M94.63,77.17H92.84L92.68,70l1.77-.15.18,7.28ZM94.3,70l-1.46.18L93,77l1.29-.18V70Z"/></g><rect id="_Path_89" data-name="&lt;Path&gt;" class="cls-5" x="90.27" y="70.04" width="1.61" height="6.97"/><g id="_Group_88" data-name="&lt;Group&gt;"><path id="_Compound_Path_87" data-name="&lt;Compound Path&gt;" class="cls-4" d="M92,77.17H90.27L90.11,70l1.76-.15L92,77.17ZM91.71,70l-1.44.18.16,6.8,1.28-.18V70Z"/></g><rect id="_Path_90" data-name="&lt;Path&gt;" class="cls-5" x="119.57" y="70.04" width="1.6" height="6.97"/><g id="_Group_89" data-name="&lt;Group&gt;"><path id="_Compound_Path_88" data-name="&lt;Compound Path&gt;" class="cls-4" d="M121.34,77.17h-1.77L119.4,70l1.77-.15.17,7.28ZM121,70l-1.44.18.16,6.8,1.28-.16V70Z"/></g><rect id="_Path_91" data-name="&lt;Path&gt;" class="cls-5" x="130.53" y="70.04" width="1.62" height="6.97"/><g id="_Group_90" data-name="&lt;Group&gt;"><path id="_Compound_Path_89" data-name="&lt;Compound Path&gt;" class="cls-4" d="M132.31,77.17h-1.78L130.36,70l1.78-.15.17,7.28ZM132,70l-1.45.18.16,6.8,1.29-.18V70Z"/></g><rect id="_Path_92" data-name="&lt;Path&gt;" class="cls-5" x="125.04" y="70.04" width="1.63" height="6.97"/><g id="_Group_91" data-name="&lt;Group&gt;"><path id="_Compound_Path_90" data-name="&lt;Compound Path&gt;" class="cls-4" d="M126.82,77.17H125L124.88,70l1.79-.15.15,7.28ZM126.49,70l-1.45.18.17,6.8,1.28-.18V70Z"/></g><rect id="_Path_93" data-name="&lt;Path&gt;" class="cls-5" x="122.48" y="70.04" width="1.6" height="6.97"/><g id="_Group_92" data-name="&lt;Group&gt;"><path id="_Compound_Path_91" data-name="&lt;Compound Path&gt;" class="cls-4" d="M124.24,77.17h-1.76L122.31,70l1.77-.15.16,7.28ZM123.91,70l-1.43.18.16,6.8,1.27-.18V70Z"/></g><rect id="_Path_94" data-name="&lt;Path&gt;" class="cls-5" x="127.62" y="70.04" width="1.62" height="6.97"/><g id="_Group_93" data-name="&lt;Group&gt;"><path id="_Compound_Path_92" data-name="&lt;Compound Path&gt;" class="cls-4" d="M129.41,77.17h-1.79L127.48,70l1.77-.15.16,7.28ZM129.08,70l-1.46.18.17,6.8,1.29-.18V70Z"/></g><rect id="_Path_95" data-name="&lt;Path&gt;" class="cls-5" x="98.32" y="70.04" width="1.62" height="6.97"/><g id="_Group_94" data-name="&lt;Group&gt;"><path id="_Compound_Path_93" data-name="&lt;Compound Path&gt;" class="cls-4" d="M100.11,77.17H98.32L98.17,70l1.77-.15.17,7.28ZM99.78,70l-1.46.18.16,6.8,1.3-.16V70Z"/></g><rect id="_Path_96" data-name="&lt;Path&gt;" class="cls-5" x="95.42" y="70.04" width="1.62" height="6.97"/><g id="_Group_95" data-name="&lt;Group&gt;"><path id="_Compound_Path_94" data-name="&lt;Compound Path&gt;" class="cls-4" d="M97.2,77.17H95.42L95.25,70,97,69.89l.17,7.28ZM96.87,70l-1.45.18.16,6.8,1.29-.18V70Z"/></g><rect id="_Path_97" data-name="&lt;Path&gt;" class="cls-5" x="108.05" y="38.24" width="3.34" height="1.28"/><g id="_Group_96" data-name="&lt;Group&gt;"><path id="_Compound_Path_95" data-name="&lt;Compound Path&gt;" class="cls-4" d="M111.57,39.64h-3.52l-.17-1.4,3.51-.18.18,1.58Zm-.34-1.4-3.18.15.16,1.13,3-.16V38.24Z"/></g><rect id="_Path_98" data-name="&lt;Path&gt;" class="cls-5" x="108.49" y="36.99" width="2.47" height="1.23"/><g id="_Group_97" data-name="&lt;Group&gt;"><path id="_Compound_Path_96" data-name="&lt;Compound Path&gt;" class="cls-4" d="M111.12,38.37h-2.63L108.32,37l2.64-.18.16,1.56ZM110.8,37l-2.31.15.17,1.07,2.14-.15V37Z"/></g></g></g></g></g></g></g></svg>