<svg id="Layer_1" data-name="Layer 1" xmlns="http://www.w3.org/2000/svg" viewBox="0 0 220 128"><defs><style>.cls-1{fill:#fff;}.cls-2{fill:#2b499d;}</style></defs><title>Flag_rect_Israel</title><rect class="cls-1" width="220" height="128"/><rect class="cls-2" y="12" width="220" height="20"/><rect class="cls-2" y="96" width="220" height="20"/><path class="cls-2" d="M136,64l8-13.86H128l-8-13.85-8,13.85H96L104,64,96,77.86h16l8,13.85,8-13.85h16Zm.38-9.46-2.92,5.06-2.92-5.06ZM130.92,64l-5.46,9.46H114.54L109.08,64l5.46-9.46h10.92ZM120,45.09l2.92,5h-5.84Zm-16.38,9.45h5.84l-2.92,5.06Zm0,18.92,2.92-5.06,2.92,5.06ZM120,82.91l-2.92-5h5.84ZM133.46,68.4l2.92,5.06h-5.84Z"/></svg>