<svg id="Layer_1" data-name="Layer 1" xmlns="http://www.w3.org/2000/svg" xmlns:xlink="http://www.w3.org/1999/xlink" viewBox="0 0 220 128"><defs><style>.cls-1{fill:none;}.cls-2{clip-path:url(#clip-path);}.cls-3{fill:#fff;}.cls-4{fill:#f0953e;}.cls-5{fill:#3b8916;}.cls-6{fill:#16007e;}</style><clipPath id="clip-path"><rect id="_Clipping_Path_" data-name="&lt;Clipping Path&gt;" class="cls-1" x="-0.01" width="220.01" height="128"/></clipPath></defs><title>Flag_rect_India</title><g id="INDIA"><g id="_Group_" data-name="&lt;Group&gt;"><g id="_Clip_Group_" data-name="&lt;Clip Group&gt;"><g class="cls-2"><rect id="_Path_" data-name="&lt;Path&gt;" class="cls-3" x="-0.01" width="220.01" height="128"/><rect id="_Path_2" data-name="&lt;Path&gt;" class="cls-4" x="-0.01" width="220.01" height="42.67"/><rect id="_Path_3" data-name="&lt;Path&gt;" class="cls-5" x="-0.01" y="85.35" width="220.01" height="42.65"/><g id="_Clip_Group_2" data-name="&lt;Clip Group&gt;"><g class="cls-2"><path id="_Compound_Path_" data-name="&lt;Compound Path&gt;" class="cls-6" d="M109.71,44.82A19.2,19.2,0,1,0,128.91,64a19.2,19.2,0,0,0-19.2-19.18m0,1.86-.49,9.66.52,5.49.49-5.49-.49-9.66a14.21,14.21,0,0,1,1.48.08s0,0,0,.05a.83.83,0,0,0,.79.85.81.81,0,0,0,.78-.72,13.91,13.91,0,0,1,1.42.33l-3,9.2-.94,5.44,1.91-5.21,2-9.43c.46.16.92.28,1.38.46a.82.82,0,0,0-.07.28.8.8,0,0,0,.81.79.83.83,0,0,0,.73-.48c.43.2.85.43,1.29.69l-5.25,8.07-2.33,5.06L114,57.62,118.4,49c.4.23.81.49,1.22.75a.76.76,0,0,0-.18.51.8.8,0,0,0,.8.79.7.7,0,0,0,.63-.33c.38.33.74.66,1.07,1l-7.15,6.46-3.54,4.27,4.26-3.53L122,51.77c.33.35.66.69,1,1.07a.77.77,0,0,0-.28.61.79.79,0,0,0,.78.79.75.75,0,0,0,.47-.15,14,14,0,0,1,.78,1.23l-8.58,4.39-4.52,3.22,5-2.3,8.1-5.29c.27.46.49.95.71,1.36a.86.86,0,0,0-.49.76.79.79,0,0,0,.78.79.59.59,0,0,0,.31-.07c.15.46.29.89.41,1.35l-9.44,2-5.17,1.92,5.44-.92,9.19-2.94c.12.41.23.92.32,1.38a.77.77,0,0,0-.69.79.8.8,0,0,0,.81.79H127A13.67,13.67,0,0,1,127,64l-9.63-.46-5.51.49,5.51.54L127,64a13.57,13.57,0,0,1,0,1.45h-.07a.82.82,0,0,0-.81.79.8.8,0,0,0,.68.79c-.09.49-.19,1-.31,1.41l-3.28-1-5.91-1.91-5.44-.92h0L117,66.5l9.44,2a8.9,8.9,0,0,1-.44,1.35l-.1,0h-.18a.78.78,0,0,0-.8.79A.64.64,0,0,0,125,71h0a.61.61,0,0,0,.22.3h0s0,0,.06,0h0s0,0,.08,0h0s0,0,.05,0a12,12,0,0,1-.68,1.28l-8.09-5.24h0l-5-2.3h0L114.25,67l1.87,1.33h0l8.58,4.39c-.26.44-.51.87-.79,1.25a1,1,0,0,0-.46-.12.76.76,0,0,0-.79.76.73.73,0,0,0,.29.62c-.32.35-.64.71-1,1l-6.47-7.15-4.24-3.52,3.52,4.26,7.15,6.46a10.26,10.26,0,0,1-1,1,.75.75,0,0,0-.5-.18.8.8,0,0,0-.79.79.9.9,0,0,0,.06.36c-.42.25-.85.54-1.28.82L114,70.44l-3.21-4.55h0l2.31,5L118.35,79c-.42.23-.84.46-1.27.67a.75.75,0,0,0-.72-.49.81.81,0,0,0-.8.79,1.12,1.12,0,0,0,0,.31,13.61,13.61,0,0,1-1.38.41l-2-9.45-1.91-5.13v0l.94,5.44,3,9.19a9.27,9.27,0,0,1-1.42.31.81.81,0,0,0-.78-.66.77.77,0,0,0-.79.76v.1a11.91,11.91,0,0,1-1.46.08l.49-9.63-.51-5.51-.5,5.51.49,9.63a12.18,12.18,0,0,1-1.49-.08v-.1a.78.78,0,0,0-.8-.76.81.81,0,0,0-.78.66,12.55,12.55,0,0,1-1.38-.31l3-9.19.92-5.41-1.91,5.13-2,9.45c-.46-.1-.92-.26-1.39-.41a.85.85,0,0,0,.06-.31.81.81,0,0,0-.78-.79.85.85,0,0,0-.75.49c-.42-.21-.86-.44-1.28-.67l5.25-8.12,2.3-5-3.19,4.52L101,79c-.42-.28-.84-.54-1.23-.82a.66.66,0,0,0,.15-.43.8.8,0,0,0-.78-.82.74.74,0,0,0-.61.3,12.61,12.61,0,0,1-1.08-1l7.18-6.46,3.53-4.26h0l-4.26,3.52-6.47,7.15c-.36-.33-.68-.71-1-1a.88.88,0,0,0,.31-.64.77.77,0,0,0-.79-.77.87.87,0,0,0-.47.13,9.52,9.52,0,0,1-.78-1.23l8.6-4.42,4.49-3.14-5,2.3-8.1,5.24c-.24-.41-.43-.82-.65-1.28a.73.73,0,0,0,.51-.71.81.81,0,0,0-1.14-.75c-.15-.43-.3-.91-.44-1.4l9.45-2,5.19-1.91-5.46.92-9.2,3c-.12-.46-.21-.92-.31-1.43a.76.76,0,0,0,.68-.77.79.79,0,0,0-.79-.79h-.09c0-.46-.06-.94-.06-1.45l9.64.51,5.5-.54-5.5-.49L92.38,64c0-.46,0-1,.06-1.43h.14a.78.78,0,0,0,.8-.79.8.8,0,0,0-.74-.79c.1-.46.19-1,.31-1.38l9.2,2.94,5.46.92-5.19-1.92-9.45-2c.14-.49.29-.95.44-1.38a1.45,1.45,0,0,0,.3,0,.79.79,0,0,0,.79-.79.76.76,0,0,0-.47-.72c.2-.46.42-.89.66-1.33l8.1,5.29,5,2.3-4.51-3.22-8.6-4.39c.24-.41.51-.82.79-1.25a.65.65,0,0,0,.47.17.8.8,0,0,0,.79-.79,1,1,0,0,0-.29-.64c.29-.35.61-.69,1-1l6.47,7.17,4.27,3.53-3.53-4.27-7.18-6.46c.36-.33.71-.66,1.08-1a.75.75,0,0,0,.61.31.8.8,0,0,0,.8-.82.92.92,0,0,0-.16-.48c.41-.24.8-.52,1.22-.75l4.4,8.59,3.19,4.49-2.3-5L101.06,49a13.21,13.21,0,0,1,1.27-.69.8.8,0,0,0,.74.51.79.79,0,0,0,.79-.77,1.44,1.44,0,0,0,0-.33c.45-.18.93-.3,1.39-.46l2,9.43,1.92,5.21-.93-5.44-3-9.2a12.6,12.6,0,0,1,1.41-.33.8.8,0,0,0,.78.69.81.81,0,0,0,.8-.82v-.07a11.56,11.56,0,0,1,1.45-.06"/><path id="_Path_4" data-name="&lt;Path&gt;" class="cls-3" d="M109.73,61.14A2.88,2.88,0,1,1,106.85,64a2.87,2.87,0,0,1,2.88-2.86"/><path id="_Path_5" data-name="&lt;Path&gt;" class="cls-6" d="M109.73,61.8a2.2,2.2,0,0,1,2.21,2.2,2.23,2.23,0,1,1-2.21-2.2"/></g></g></g></g></g></g></svg>