<svg id="Layer_1" data-name="Layer 1" xmlns="http://www.w3.org/2000/svg" xmlns:xlink="http://www.w3.org/1999/xlink" viewBox="0 0 220 128"><defs><style>.cls-1{fill:none;}.cls-2{clip-path:url(#clip-path);}.cls-3{fill:#bc0030;}.cls-4{fill:#fef200;}.cls-5{fill:#fff;}</style><clipPath id="clip-path"><rect id="_Clipping_Path_" data-name="&lt;Clipping Path&gt;" class="cls-1" width="220" height="128"/></clipPath></defs><title>Flag_rect_Papua New Guinea</title><g id="PAPUA_NEW_GUINEA" data-name="PAPUA NEW GUINEA"><g id="_Group_" data-name="&lt;Group&gt;"><g id="_Clip_Group_" data-name="&lt;Clip Group&gt;"><g class="cls-2"><rect id="_Path_" data-name="&lt;Path&gt;" width="220" height="128"/><polygon id="_Path_2" data-name="&lt;Path&gt;" class="cls-3" points="0 0 220 128 220 0 0 0"/><g id="_Clip_Group_2" data-name="&lt;Clip Group&gt;"><g class="cls-2"><path id="_Path_3" data-name="&lt;Path&gt;" class="cls-4" d="M142.29,37.2c-1.25,1.62-4.23-1.64-7.81-1.72s-6.12,3.43-7.15,4.62-4.39,7.45-4.31,8.11,2.08-1.86,2.82-2.3c.08.88-.81,1.93-.6,2.23s2.6-1.79,3.43-1.86c.22.6-.45,1.19-.22,2.08.29.3,1.63-1.48,2.53-1.85.15.66-.83,1.93-.3,2.74.37.08,2.61-2.52,3.34-2.83s-.36,2.46,0,2.68c.68-.44,2.77-2.82,3.44-3.12s-.07,3.05.22,3.05a23.58,23.58,0,0,0,3.13-3.86c.22-.46-.23,4.31,2.09,6.84s5.79,5.43,6.18,5.43c.44-.81-.16-2.53.2-2.45,1.05,1.12,3,2.75,3.45,2.75S152.42,56,153,56a25.12,25.12,0,0,0,11.31,7.51c-.45-1.26-1.42-2.38-1.49-3a18.53,18.53,0,0,0,2.31.75c.31-.07-3.27-4.47-3.06-5.07.82-.06,1.2.46,1.49.09-.36-.6-3.5-4.1-3.5-4.92s1,.14,1.27,0-1.19-3.28-.88-3.65,3.57,2,4.38,2,.23-2.92.61-3.06,3.11,1.56,3.72,1.56.51-1.26.74-1.11,6.69,6.62,4.46,14.22c-2.24,5.43-6.69,8.34-13.25,6,.37.58,3.86,3.49,7.67,2.45s8.41-4,7.89-11.46-3-8.49-3.35-9.61.6.3,1.41.59-.14-1.56-.37-2.37,2.46,1.71,3.13,1.93-1.57-6.11-2.24-6.55.67.15,1.13.29-4.1-6.92-5.08-6.92.82-.37,1.35-.37-5.21-4.61-6.18-4.61,2.08-1.2,2.38-1.27c.54.07-6.62-3.8-13,.07-.36-.29,3-2.63,3.13-3.65,0-.26-1.12-.81-1.19-1.11s1.79-1.19,1.86-1.86c-.45-.6-1.26-.36-1.72-.53-.1-.55,1.58-1.93,1.42-2.53-.12-.33-1.34-.44-1.63-.21s.76-1.56.6-2.09c-.16-.23-.75-.08-1.35.07-.38-.07,1.94-3.27,1.5-3.72s-6.71,3.28-9,7.44-.51,7.53-.81,8.94S148,33,147,33s-3.19-1.5-3.94-2.24-.91-1.26-2-1.55-3.42.58-4.31.66-4.4-.66-4.62-.45,3.42,1.57,4.24,2,.9,1,1.49,1.41,6.19,2,4.39,4.33"/><path id="_Path_4" data-name="&lt;Path&gt;" class="cls-4" d="M164.11,47.69C165.89,49.48,178,57.52,178,67.34s-8.77,9.54-11.31,9.24c2.82,2.38,13.56,1.93,13.56-9.24,0-9.82-13.85-19.65-15.64-20.55s-2.24-.88-.45.9"/><polygon id="_Path_5" data-name="&lt;Path&gt;" class="cls-5" points="56.49 39.67 58.36 46.08 64.81 46.08 59.71 49.99 61.58 56.24 56.49 52.31 51.4 56.05 53.27 49.99 48.17 46.08 54.45 46.08 56.49 39.67"/><polygon id="_Path_6" data-name="&lt;Path&gt;" class="cls-5" points="36.94 64.66 38.79 71.08 45.26 71.08 40.17 75 42.03 81.23 36.94 77.32 31.85 81.05 33.72 75 28.62 71.08 34.89 71.08 36.94 64.66"/><polygon id="_Path_7" data-name="&lt;Path&gt;" class="cls-5" points="75.95 62.9 77.82 69.31 84.27 69.31 79.18 73.21 81.03 79.45 75.95 75.54 70.87 79.28 72.72 73.21 67.64 69.31 73.92 69.31 75.95 62.9"/><polygon id="_Path_8" data-name="&lt;Path&gt;" class="cls-5" points="56.49 98.45 58.36 104.86 64.81 104.86 59.71 108.78 61.58 115.01 56.49 111.09 51.4 114.82 53.27 108.78 48.17 104.86 54.45 104.86 56.49 98.45"/><polygon id="_Path_9" data-name="&lt;Path&gt;" class="cls-5" points="65.22 84.84 66.14 88.04 69.38 88.04 66.83 90.01 67.77 93.13 65.22 91.17 62.67 93.04 63.6 90.01 61.06 88.04 64.2 88.04 65.22 84.84"/></g></g></g></g></g></g></svg>