<svg id="Layer_1" data-name="Layer 1" xmlns="http://www.w3.org/2000/svg" xmlns:xlink="http://www.w3.org/1999/xlink" viewBox="0 0 220 128"><defs><style>.cls-1{fill:none;}.cls-2{clip-path:url(#clip-path);}.cls-3{fill:#001d97;}.cls-4{fill:#fecc00;}.cls-5{fill:#fff;}</style><clipPath id="clip-path"><rect id="_Clipping_Path_" data-name="&lt;Clipping Path&gt;" class="cls-1" width="219.39" height="128"/></clipPath></defs><title>Flag_rect_Bosnia And Herzegovina</title><g id="BOSNIA"><g id="_Group_" data-name="&lt;Group&gt;"><g id="_Clip_Group_" data-name="&lt;Clip Group&gt;"><g class="cls-2"><rect id="_Path_" data-name="&lt;Path&gt;" class="cls-3" width="219.39" height="128"/><polygon id="_Path_2" data-name="&lt;Path&gt;" class="cls-4" points="49.55 0 177.53 128 177.53 0 49.55 0"/><polygon id="_Path_3" data-name="&lt;Path&gt;" class="cls-5" points="30.95 0 26.52 0 22.08 0 19.37 8.4 26.52 3.19 33.66 8.4 30.95 0"/><polygon id="_Path_4" data-name="&lt;Path&gt;" class="cls-5" points="151.77 122.77 142.92 122.77 150.05 128 154.48 128 158.94 128 166.06 122.77 157.21 122.77 154.48 114.36 151.77 122.77"/><polygon id="_Path_5" data-name="&lt;Path&gt;" class="cls-5" points="42.51 19.2 49.66 24.39 46.92 16.01 54.08 10.8 45.23 10.8 42.51 2.43 39.77 10.8 30.95 10.8 38.1 16.01 35.36 24.39 42.51 19.2"/><polygon id="_Path_6" data-name="&lt;Path&gt;" class="cls-5" points="58.5 35.21 65.65 40.42 62.93 31.99 70.08 26.81 61.24 26.81 58.5 18.41 55.78 26.81 46.95 26.81 54.09 31.99 51.37 40.42 58.5 35.21"/><polygon id="_Path_7" data-name="&lt;Path&gt;" class="cls-5" points="74.5 51.2 81.64 56.4 78.92 48 86.07 42.82 77.23 42.82 74.5 34.39 71.78 42.82 62.94 42.82 70.1 48 67.36 56.4 74.5 51.2"/><polygon id="_Path_8" data-name="&lt;Path&gt;" class="cls-5" points="90.51 67.2 97.65 72.39 94.92 63.99 102.06 58.8 93.23 58.8 90.51 50.4 87.77 58.8 78.94 58.8 86.09 63.99 83.36 72.39 90.51 67.2"/><polygon id="_Path_9" data-name="&lt;Path&gt;" class="cls-5" points="106.49 83.19 113.64 88.4 110.92 80 118.06 74.79 109.23 74.79 106.49 66.41 103.78 74.79 94.93 74.79 102.08 80 99.35 88.4 106.49 83.19"/><polygon id="_Path_10" data-name="&lt;Path&gt;" class="cls-5" points="122.5 99.17 129.63 104.38 126.92 95.98 134.06 90.8 125.23 90.8 122.5 82.4 119.76 90.8 110.94 90.8 118.09 95.98 115.35 104.38 122.5 99.17"/><polygon id="_Path_11" data-name="&lt;Path&gt;" class="cls-5" points="138.49 115.21 145.64 120.36 142.91 111.96 150.05 106.78 141.22 106.78 138.49 98.41 135.76 106.78 126.93 106.78 134.08 111.96 131.35 120.36 138.49 115.21"/></g></g></g></g></svg>