<svg id="Layer_1" data-name="Layer 1" xmlns="http://www.w3.org/2000/svg" xmlns:xlink="http://www.w3.org/1999/xlink" viewBox="0 0 220 128"><defs><style>.cls-1{fill:none;}.cls-2{clip-path:url(#clip-path);}.cls-3{fill:#4a9318;}.cls-4{fill:#f6d128;}.cls-5{fill:#cb0423;}.cls-6{fill:#fff;}.cls-7{fill:#fcff2c;}</style><clipPath id="clip-path"><rect id="_Clipping_Path_" data-name="&lt;Clipping Path&gt;" class="cls-1" width="220" height="128"/></clipPath></defs><title>Flag_rect_Zimbabwe</title><g id="ZIMBABWE"><g id="_Group_" data-name="&lt;Group&gt;"><g id="_Clip_Group_" data-name="&lt;Clip Group&gt;"><g class="cls-2"><rect id="_Path_" data-name="&lt;Path&gt;" class="cls-3" width="220" height="128"/><rect id="_Path_2" data-name="&lt;Path&gt;" class="cls-4" y="18.29" width="220" height="91.45"/><rect id="_Path_3" data-name="&lt;Path&gt;" class="cls-5" y="36.6" width="220" height="54.83"/><rect id="_Path_4" data-name="&lt;Path&gt;" y="54.86" width="220" height="18.31"/><polygon id="_Path_5" data-name="&lt;Path&gt;" points="0 0 0 128 4.66 128 89.93 63.98 4.66 0 0 0"/><polygon id="_Path_6" data-name="&lt;Path&gt;" class="cls-6" points="0 0 0 128 85.27 63.98 0 0"/><polygon class="cls-5" points="65.42 53.96 44.07 50.86 34.52 31.49 34.52 31.49 24.98 50.86 3.63 53.96 22.18 67.1 18.11 86.63 34.52 77.22 50.92 86.63 46.86 67.1 65.42 53.96"/><g id="_Clip_Group_2" data-name="&lt;Clip Group&gt;"><g class="cls-2"><path id="_Path_7" data-name="&lt;Path&gt;" d="M45.68,84.3a35.73,35.73,0,0,1,2.17-12.18,42.31,42.31,0,0,1,2.93-6.36,6.41,6.41,0,0,1,1.69.33c1.77.51,2.27.44,2.27-.43,0-.46-1.84-2.09-10.79-9.63-6.05-5-11-9-11.25-9a.64.64,0,0,1-.53-.28c-.06-.18-.34-2.15-.64-4.37a36.84,36.84,0,0,0-.91-4.9c-.57-1.33-1.74-2-3.63-2.18a3.75,3.75,0,0,0-2.69.52,4.45,4.45,0,0,1-2,.63,1.86,1.86,0,0,0-1.91,1.84V39l1.54,0c.86,0,1.32,0,1,.08-1.11.23-.66,1.81.65,2.24s1.36.24,1.36,6.87c0,5.39-.05,6.19-.45,7.41a12.58,12.58,0,0,0,0,6.39,13.52,13.52,0,0,1,.45,1.5,17.71,17.71,0,0,1-1.5,2,9,9,0,0,0-2.4,5,2.42,2.42,0,0,1-.42,1.15,2.26,2.26,0,0,0-.05,2.6c.58.57,2.84,9.94,2.85,11.75,0,.64.1.64,3.56-.13a52.8,52.8,0,0,1,12.76-.25c1.52.23,3.33.59,4,.77,2,.56,1.92.66,1.94-2"/><path id="_Path_8" data-name="&lt;Path&gt;" class="cls-7" d="M42.85,85.66a38.47,38.47,0,0,0-10.35-.85c-2,.11-4,.26-4.57.36l-1,.18-.24-1.66A10.56,10.56,0,0,1,26.5,82a13.82,13.82,0,0,1,2.12-.38A63.8,63.8,0,0,1,44.54,82l.69.13v2c0,1.48-.06,2-.27,2s-1.08-.23-2.11-.48"/><path id="_Path_9" data-name="&lt;Path&gt;" class="cls-7" d="M23.87,85.81c0-.46-1.22-6.26-1.74-8.3-.35-1.38-.66-2.6-.66-2.71s.35,0,.74.31a2.69,2.69,0,0,0,1.13.48c1.11,0,1.73,1.69,2.67,7.33.14.8.27,1.69.33,2,.08.46,0,.56-1,.77-1.23.3-1.49.33-1.49.15"/><path id="_Path_10" data-name="&lt;Path&gt;" class="cls-7" d="M44.92,81.39c-.06-.13,0-.33.21-.51s.33-.2.33.1-.36.74-.54.41"/><path id="_Path_11" data-name="&lt;Path&gt;" class="cls-7" d="M27.57,80.47c.59-.64.6-.64,1.05-.18s.43.46.05.64a3.61,3.61,0,0,1-1,.18l-.64,0Z"/><path id="_Path_12" data-name="&lt;Path&gt;" class="cls-7" d="M41.82,80.86a1.51,1.51,0,0,1,.51-.59c.38-.28.47-.23.81.28l.39.59h-.89c-.59,0-.87-.11-.82-.28"/><path id="_Path_13" data-name="&lt;Path&gt;" class="cls-7" d="M43.74,80.5c-.25-.36-.43-.72-.38-.74a5.44,5.44,0,0,1,1,.1l.93.18-.54.56-.53.56Z"/><path id="_Path_14" data-name="&lt;Path&gt;" class="cls-7" d="M26.11,80.55c-.18-.49.2-.84.82-.84s.49.05-.15.69-.54.53-.67.15"/><path id="_Path_15" data-name="&lt;Path&gt;" class="cls-7" d="M31.14,80.09l.57-.64.55.51a6.72,6.72,0,0,0,.62.59,5.28,5.28,0,0,1-1.11.15l-1.21,0Z"/><path id="_Path_16" data-name="&lt;Path&gt;" class="cls-7" d="M38.78,80.68l-.71-.16.52-.56.52-.51.63.69c.68.82.6.87-1,.54"/><path id="_Path_17" data-name="&lt;Path&gt;" class="cls-7" d="M29.24,80l-.5-.59h.8a3.43,3.43,0,0,0,1.13-.15c.31-.16.28,0-.11.56a2.89,2.89,0,0,1-.67.79,2.73,2.73,0,0,1-.65-.61"/><path id="_Path_18" data-name="&lt;Path&gt;" class="cls-7" d="M34.77,79.91l.61-.71.62.63a4.35,4.35,0,0,1,.6.74,4.12,4.12,0,0,1-1.24.08H34.13Z"/><path id="_Path_19" data-name="&lt;Path&gt;" class="cls-7" d="M40.48,80,40,79.45h1c1.1,0,1.24.18.62.79s-.52.51-1.12-.2"/><path id="_Path_20" data-name="&lt;Path&gt;" class="cls-7" d="M32.92,79.78l-.5-.58h2.31l-.52.58c-.63.77-.65.77-1.29,0"/><path id="_Path_21" data-name="&lt;Path&gt;" class="cls-7" d="M36.81,79.78l-.51-.58h2.3l-.48.58c-.64.77-.68.77-1.31,0"/><path id="_Path_22" data-name="&lt;Path&gt;" class="cls-7" d="M43.74,79.2c-.54-.11-2.69-.34-4.78-.49a59.49,59.49,0,0,0-12.13.41c-.83.13-1,.08-1-.23,0-.59,4.35-1,11-1,3.26,0,6.59.1,7.4.21,1.36.18,1.45.23,1.45.74s-.18.69-1.92.36"/><path id="_Path_23" data-name="&lt;Path&gt;" class="cls-7" d="M26.93,77.13a3.88,3.88,0,0,1,1-.82,2.4,2.4,0,0,1,.66.56l.49.61-1,.16c-.59.1-1.25.18-1.48.25s-.23-.12.37-.76"/><path id="_Path_24" data-name="&lt;Path&gt;" class="cls-7" d="M25.41,77.25c-.16-.46-.11-.58.24-.76a1.7,1.7,0,0,1,.85-.1c.37,0,.33.12-.23.74l-.68.69Z"/><path id="_Path_25" data-name="&lt;Path&gt;" class="cls-7" d="M45.46,77.54c0-.11.14-.26.31-.36s.26,0,.19.23c-.13.38-.5.48-.5.13"/><path id="_Path_26" data-name="&lt;Path&gt;" class="cls-7" d="M30.94,76.69c.32-.41.59-.74.59-.76a4,4,0,0,1,.69.64l.66.66-1.26.08-1.25.1Z"/><path id="_Path_27" data-name="&lt;Path&gt;" class="cls-7" d="M42.47,77.33l-.91-.08.66-.61.66-.61.54.56c.57.56.66,1,.25.87-.15,0-.68,0-1.2-.13"/><path id="_Path_28" data-name="&lt;Path&gt;" class="cls-7" d="M29.13,76.69l-.63-.56L29.55,76a3.46,3.46,0,0,1,1.1-.1c.05.08-.14.41-.42.77l-.49.61Z"/><path id="_Path_29" data-name="&lt;Path&gt;" class="cls-7" d="M38.58,77.08l-.5-.18.55-.54c.46-.51.6-.56.89-.25a2.55,2.55,0,0,1,.55.74c.19.35.14.43-.38.4a7,7,0,0,1-1.11-.17"/><path id="_Path_30" data-name="&lt;Path&gt;" class="cls-7" d="M44,76.51l-.64-.74.55.16a7.14,7.14,0,0,0,1.41.15h.85l-.64.61c-.38.31-.71.56-.77.59a3.4,3.4,0,0,1-.76-.77"/><path id="_Path_31" data-name="&lt;Path&gt;" class="cls-7" d="M33,76.46a2.34,2.34,0,0,1-.45-.69c0-.1.55-.2,1.21-.2h1.23l-.42.54c-.72.86-1.06,1-1.57.35"/><path id="_Path_32" data-name="&lt;Path&gt;" class="cls-7" d="M34.94,76.44c.7-.69.94-.69,1.39.07.33.51.31.54-.82.51H34.34Z"/><path id="_Path_33" data-name="&lt;Path&gt;" class="cls-7" d="M40.3,76.31l-.51-.74h.55a5.21,5.21,0,0,1,1.17.18l.68.13-.63.58a3.27,3.27,0,0,1-.67.56,3.77,3.77,0,0,1-.59-.71"/><path id="_Path_34" data-name="&lt;Path&gt;" class="cls-7" d="M36.81,76.18l-.51-.61h2.3l-.48.61c-.64.74-.68.74-1.31,0"/><path id="_Path_35" data-name="&lt;Path&gt;" class="cls-7" d="M25.27,75.44c.09-.25.27-1,.41-1.63l.25-1.23,2.39-1.33a24.43,24.43,0,0,0,3.21-2c.47-.41,1-.82,1.11-.92A62.67,62.67,0,0,1,42,69c2.13.35,5.85,1.07,6,1.17a20.9,20.9,0,0,1-.74,2.43c-.42,1.32-.82,2.52-.87,2.73s-.32.25-1,.13a89.72,89.72,0,0,0-17.71.1c-2.23.38-2.55.36-2.36-.13"/><path id="_Path_36" data-name="&lt;Path&gt;" d="M43.31,73.93c1.4-1.53.43-4.11-1.53-4.11a2.21,2.21,0,0,0-2.16,2.43c0,2.17,2.3,3.22,3.69,1.68"/><path id="_Path_37" data-name="&lt;Path&gt;" class="cls-7" d="M41,73.88a2,2,0,0,1,.14-3.32,1.69,1.69,0,0,1,2.39,1.71A1.77,1.77,0,0,1,41,73.88"/><path id="_Path_38" data-name="&lt;Path&gt;" d="M34.63,73.81a2.52,2.52,0,0,0-.55-4.11,2,2,0,0,0-2.69.94,2.23,2.23,0,0,0,.33,2.94,1.83,1.83,0,0,0,2.91.23"/><path id="_Path_39" data-name="&lt;Path&gt;" class="cls-7" d="M32.56,73.68c-1.58-.72-1-3.6.7-3.6s2.25,2.6.74,3.5c-.7.41-.79.41-1.44.1"/><path id="_Path_40" data-name="&lt;Path&gt;" class="cls-7" d="M24.3,74.75c.31-.89.26-2-.08-2-.16,0-.28.31-.28.84a2.1,2.1,0,0,1-.29,1.15c-.23.26-.26.08-.17-1.1.08-.76,0-1.35-.06-1.35s-.56,1.15-.7,2.14c-.08.62-.08.62-.26-.12a2,2,0,0,1,.28-1.61,4.55,4.55,0,0,0,.47-1.59c0-.58.4-1.17,2.39-3.32,1.33-1.43,2.86-3.19,3.44-3.93,1-1.28,1-1.4,1-2.71a6.36,6.36,0,0,0-.16-1.5c-.27-.28-.6,1.15-.46,1.94s0,1-1.4,2.71c-.85,1.07-2.27,2.65-3.17,3.6-1.66,1.66-2.25,2.52-2.25,3.37a5.44,5.44,0,0,1-.43,1.5A2.52,2.52,0,0,0,21.86,74c.06.15,0,.15-.14,0s-.2-.54,0-1.3a3.27,3.27,0,0,0,.11-1.25c-.23-.41-.51.1-.63,1.25-.09.66-.25,1.15-.34,1.07-.31-.23-.21-1.4.17-2a6,6,0,0,0,.52-1.69A10.06,10.06,0,0,1,24,65.25c.76-.92,1.38-1.68,1.38-1.74s-.21-.74-.46-1.53a12.2,12.2,0,0,1-.09-6.2,14,14,0,0,1,3.45-5.37c1.81-1.89,3.56-3,4.41-2.88S54.3,65.17,54.3,65.63a.34.34,0,0,1-.37.34c-.21,0-5.53-1.61-11.83-3.55C32,59.28,30.6,58.74,30.17,58.2a2.5,2.5,0,0,1-.06-2.83,2.12,2.12,0,0,0,.45-.95c0-.51-1.08.85-1.29,1.61a3.48,3.48,0,0,0,.87,3,35.44,35.44,0,0,0,4.25,1.58c3.55,1.1,3.8,1.23,4,1.87.43,1.5-1.06,3.27-3.22,3.78A6.33,6.33,0,0,0,33,67.32a28.44,28.44,0,0,1-5.55,3.8,8.8,8.8,0,0,0-1.8,1,4.56,4.56,0,0,0-.47,1.55c-.26,1.48-.37,1.71-.77,1.71s-.27-.12-.09-.61"/><path id="_Path_41" data-name="&lt;Path&gt;" class="cls-7" d="M46.21,69.21a67.75,67.75,0,0,0-9.31-1.35l-3.43-.31,1.3-.56A15.33,15.33,0,0,0,37,65.92a3.3,3.3,0,0,1,2.49-.49c1.92.15,3.22-.2,3.7-1.07a6.1,6.1,0,0,1,.44-.74,25.51,25.51,0,0,1,3.38.94l3.36,1-.65,1.25c-.37.64-.82,1.54-1,2-.38.9-.51.92-2.53.41"/><path id="_Path_42" data-name="&lt;Path&gt;" class="cls-7" d="M38.6,64.84c-.18-.15-.15-.28,0-.61s.34-.31.45-.18c.18.36-.18,1-.49.79"/><path id="_Path_43" data-name="&lt;Path&gt;" class="cls-7" d="M39.41,64.79c0-.3.15-.3.33,0,0,.13,0,.23-.1.23a.23.23,0,0,1-.23-.23"/><path id="_Path_44" data-name="&lt;Path&gt;" class="cls-7" d="M40.48,64.64c0-.21.1-.31.22-.21.28.18.28.59,0,.59-.12,0-.22-.15-.22-.38"/><path id="_Path_45" data-name="&lt;Path&gt;" class="cls-7" d="M41.5,64.64a1,1,0,0,1-.15-.56c0-.23,0-.26.24-.11a.68.68,0,0,1,.15.57c0,.15-.15.2-.24.1"/><path id="_Path_46" data-name="&lt;Path&gt;" class="cls-7" d="M39.78,64.15a.9.9,0,0,1-.16-.53c0-.28.07-.31.25-.11a.74.74,0,0,1,.15.54c-.05.15-.15.21-.24.1"/><path id="_Path_47" data-name="&lt;Path&gt;" class="cls-7" d="M42.3,64.05c-.22-.43,0-.48.34-.1.16.2.19.33,0,.33a.54.54,0,0,1-.39-.23"/><path id="_Path_48" data-name="&lt;Path&gt;" class="cls-7" d="M40.59,63.59a.3.3,0,0,1,.11-.36c.11-.1.21,0,.21.23,0,.44-.14.46-.32.13"/><path id="_Path_49" data-name="&lt;Path&gt;" class="cls-7" d="M41.56,63.21c0-.21.11-.28.22-.23.28.2.28.61,0,.61-.11,0-.22-.18-.22-.38"/><path id="_Path_50" data-name="&lt;Path&gt;" class="cls-7" d="M39,63c0-.41.14-.44.32-.13a.36.36,0,0,1-.1.38c-.1.08-.22,0-.22-.25"/><path id="_Path_51" data-name="&lt;Path&gt;" class="cls-7" d="M39.84,62.72c0-.18.09-.3.2-.2.3.18.3.59,0,.59-.11,0-.2-.18-.2-.39"/><path id="_Path_52" data-name="&lt;Path&gt;" class="cls-7" d="M25.32,51.15c-.06-1-.06-3.42,0-5.36.13-4,0-4.37-1.2-4.8-1-.36-1.34-.66-1.34-1.12,0-.31.2-.34,1.3-.23s1.32.1,1.25-.23c-.11-.62-1.63-1.1-3.23-1-1.26.11-1.41.06-1.31-.28.16-.76.88-1.25,1.93-1.35a5,5,0,0,0,1.85-.59A3.52,3.52,0,0,1,27,35.75c2.83.18,3.38,1,4.12,6.39.28,2.07.51,4,.52,4.31s-.4.77-1.38,1.49A20,20,0,0,0,26,52.28l-.55.79Z"/><path id="_Path_53" data-name="&lt;Path&gt;" d="M27.42,38.59a.83.83,0,0,0,.15-1.07c-.31-.77-.66-.59-.54.25.09.46,0,.59-.33.59s-.46-.15-.46-.77,0-.69-.33-.43a1,1,0,0,0,0,1.48c.48.59,1,.59,1.49,0"/></g></g></g></g></g></g></svg>