<svg id="Layer_1" data-name="Layer 1" xmlns="http://www.w3.org/2000/svg" xmlns:xlink="http://www.w3.org/1999/xlink" viewBox="0 0 220 128"><defs><style>.cls-1{fill:none;}.cls-2{clip-path:url(#clip-path);}.cls-3{fill:#4f9f3a;}.cls-4{fill:#bc0030;}</style><clipPath id="clip-path"><rect id="_Clipping_Path_" data-name="&lt;Clipping Path&gt;" class="cls-1" x="0.01" width="219.99" height="128"/></clipPath></defs><title>Flag_rect_Malawi</title><g id="MALAWI"><g id="_Group_" data-name="&lt;Group&gt;"><g id="_Clip_Group_" data-name="&lt;Clip Group&gt;"><g class="cls-2"><rect id="_Path_" data-name="&lt;Path&gt;" x="0.01" width="219.99" height="63.99"/><rect id="_Path_2" data-name="&lt;Path&gt;" class="cls-3" x="0.01" y="63.99" width="219.99" height="64.01"/><rect id="_Path_3" data-name="&lt;Path&gt;" class="cls-4" x="0.01" y="42.67" width="219.99" height="42.67"/><g id="_Clip_Group_2" data-name="&lt;Clip Group&gt;"><g class="cls-2"><path id="_Path_4" data-name="&lt;Path&gt;" class="cls-4" d="M109.69,21.12A27.55,27.55,0,0,0,83.75,39.5h51.9a27.56,27.56,0,0,0-26-18.38"/><path id="_Compound_Path_" data-name="&lt;Compound Path&gt;" class="cls-4" d="M109.69,5.16c-.91,0-1.27,1.38-1.27,2.76,0,3.31.4,5.08,1.27,10,.88-4.95,1.29-6.72,1.29-10,0-1.38-.36-2.76-1.29-2.76m-3.77.13c-.93.07-1.17,1.5-1,2.88.3,3.32.85,5,2.15,9.91.44-5,.69-6.82.39-10.11-.11-1.41-.58-2.74-1.49-2.68m7.56,0c-.91-.06-1.39,1.27-1.5,2.68-.3,3.29,0,5.1.4,10.11,1.3-4.88,1.85-6.59,2.15-9.91.12-1.38-.13-2.81-1-2.88m-11.17.51h-.17c-.92.17-1,1.58-.78,3,.59,3.29,1.29,5,3,9.65,0-5,.11-6.82-.48-10.11-.22-1.28-.76-2.48-1.57-2.5m14.78,0c-.82,0-1.36,1.22-1.58,2.5-.58,3.29-.47,5.11-.47,10.11,1.69-4.7,2.4-6.36,3-9.65.23-1.38.14-2.79-.78-3h-.16M98.6,6.59a.41.41,0,0,1-.16,0c-.9.26-.89,1.66-.52,3,.85,3.21,1.72,4.82,3.83,9.37-.43-5-.49-6.82-1.35-10-.34-1.25-1-2.42-1.8-2.37m22.19,0C120,6.54,119.33,7.71,119,9c-.87,3.22-.92,5-1.35,10,2.1-4.55,3-6.16,3.83-9.37.36-1.36.37-2.76-.52-3a.47.47,0,0,1-.17,0M95.14,7.71a2.21,2.21,0,0,0-.33,0c-.86.33-.72,1.76-.25,3.07,1.15,3.11,2.12,4.62,4.63,8.93-.87-4.9-1.08-6.69-2.22-9.85-.42-1.13-1.08-2.15-1.83-2.2m29.11,0c-.74,0-1.41,1.07-1.83,2.2-1.13,3.16-1.35,4.95-2.21,9.85,2.5-4.31,3.48-5.82,4.62-8.93.47-1.31.61-2.74-.25-3.07a2,2,0,0,0-.33,0M91.62,9.14l-.3.08c-.84.38-.59,1.79,0,3.06,1.41,3,2.52,4.42,5.39,8.53-1.29-4.83-1.66-6.61-3.07-9.65-.52-1.05-1.28-2-2-2m36.16,0c-.75,0-1.51,1-2,2-1.4,3-1.78,4.82-3.07,9.65,2.88-4.11,4-5.52,5.4-8.53.58-1.27.83-2.68,0-3.06l-.3-.08M88.25,10.85a1.6,1.6,0,0,0-.31.1c-.8.49-.41,1.87.27,3,1.68,2.89,2.91,4.22,6.12,8-1.71-4.68-2.24-6.44-3.9-9.3-.6-1.07-1.44-2-2.18-1.89m42.74,0c-.7.05-1.46.92-2,1.89-1.66,2.86-2.2,4.62-3.92,9.3,3.24-3.83,4.46-5.16,6.13-8,.69-1.17,1.08-2.55.28-3a1.06,1.06,0,0,0-.46-.1m-45.8,2a.66.66,0,0,0-.44.16c-.76.53-.25,1.89.54,3,1.91,2.71,3.24,3.94,6.78,7.49-2.12-4.55-2.77-6.23-4.69-9-.65-.9-1.48-1.71-2.19-1.69m49,0c-.69,0-1.54.79-2.18,1.69-1.93,2.76-2.58,4.44-4.7,9,3.54-3.55,4.87-4.78,6.78-7.49.79-1.14,1.31-2.5.55-3a.71.71,0,0,0-.45-.16m-52,2.28a1,1,0,0,0-.45.2c-.69.61-.09,1.89.81,2.94,2.14,2.58,3.59,3.65,7.42,6.86-2.5-4.34-3.31-5.94-5.46-8.5-.73-.87-1.63-1.56-2.32-1.5m54.9,0a3.73,3.73,0,0,0-2.16,1.5c-2.15,2.56-3,4.16-5.47,8.5,3.85-3.21,5.28-4.28,7.43-6.86.9-1.05,1.5-2.33.79-2.94a.88.88,0,0,0-.59-.2M79.52,17.64a.75.75,0,0,0-.58.26c-.65.64.07,1.84,1,2.83,2.36,2.38,3.9,3.32,8,6.21-2.88-4.11-3.82-5.64-6.19-8a3.74,3.74,0,0,0-2.27-1.31m60.35,0A3.71,3.71,0,0,0,137.6,19c-2.37,2.35-3.31,3.88-6.18,8,4.09-2.89,5.62-3.83,8-6.21,1-1,1.7-2.19,1.06-2.83a.77.77,0,0,0-.6-.26M77.11,20.38a.91.91,0,0,0-.74.33c-.59.66.23,1.84,1.3,2.73,2.56,2.14,4.16,3,8.49,5.49-3.21-3.86-4.29-5.29-6.84-7.46a4.26,4.26,0,0,0-2.21-1.09m65.18,0a4.32,4.32,0,0,0-2.22,1.09c-2.55,2.17-3.62,3.6-6.84,7.46,4.33-2.53,5.94-3.35,8.51-5.49,1-.89,1.87-2.07,1.28-2.73a.9.9,0,0,0-.73-.33m-67.53,3a.84.84,0,0,0-.71.36c-.53.74.41,1.83,1.56,2.62C78.33,28.27,80,28.93,84.54,31c-3.54-3.53-4.73-4.83-7.48-6.77a4.13,4.13,0,0,0-2.3-.89m69.7,0a4.4,4.4,0,0,0-2.13.89c-2.74,1.94-3.94,3.24-7.48,6.77,4.55-2.07,6.2-2.73,8.94-4.68,1.15-.79,2.08-1.88,1.56-2.62a.93.93,0,0,0-.89-.36M72.87,26.45a1,1,0,0,0-.86.44c-.46.79.56,1.78,1.76,2.5,2.9,1.66,4.63,2.19,9.34,3.91-3.85-3.25-5.16-4.45-8-6.13a4.8,4.8,0,0,0-2.19-.72m73.66,0a4.63,4.63,0,0,0-2.18.72c-2.9,1.68-4.22,2.88-8.06,6.13,4.71-1.72,6.44-2.25,9.33-3.91,1.2-.72,2.23-1.71,1.76-2.5a1.06,1.06,0,0,0-.85-.44M71.47,29.72a1.19,1.19,0,0,0-1.21.54c-.38.84.73,1.73,2,2.32,3,1.41,4.78,1.79,9.63,3.09-4.1-2.88-5.52-4-8.54-5.41a5.05,5.05,0,0,0-1.85-.54m76.45,0a5.05,5.05,0,0,0-1.85.54c-3,1.4-4.43,2.53-8.54,5.41,4.84-1.3,6.6-1.68,9.63-3.09,1.24-.59,2.37-1.48,2-2.32a1.17,1.17,0,0,0-1.21-.54M70,33.14a1.11,1.11,0,0,0-1.15.64c-.32.87.87,1.66,2.17,2.12,3.13,1.15,4.91,1.38,9.86,2.27-4.35-2.55-5.84-3.52-9-4.64A5.55,5.55,0,0,0,70,33.14m79.48,0a5.56,5.56,0,0,0-1.9.39c-3.15,1.12-4.65,2.09-9,4.64,4.94-.89,6.73-1.12,9.84-2.27,1.32-.46,2.5-1.25,2.17-2.12a1.07,1.07,0,0,0-1.13-.64M69.2,36.64c-.76,0-1.38.18-1.54.77-.24.87,1,1.58,2.35,1.94l.55.15h6.85a34.62,34.62,0,0,0-6.73-2.66,8.06,8.06,0,0,0-1.48-.2m81,0a8.16,8.16,0,0,0-1.49.2A34.62,34.62,0,0,0,142,39.5h6.84l.55-.15c1.36-.36,2.59-1.07,2.36-1.94-.16-.59-.76-.77-1.53-.77"/></g></g></g></g></g></g></svg>