<svg id="Layer_1" data-name="Layer 1" xmlns="http://www.w3.org/2000/svg" xmlns:xlink="http://www.w3.org/1999/xlink" viewBox="0 0 220 128"><defs><style>.cls-1{fill:none;}.cls-2{clip-path:url(#clip-path);}.cls-3{fill:#f5cd28;}.cls-4{fill:#ed6f22;}.cls-5{fill:#2f742e;}.cls-6{fill:#8e1841;}</style><clipPath id="clip-path"><rect id="_Clipping_Path_" data-name="&lt;Clipping Path&gt;" class="cls-1" width="220" height="128"/></clipPath></defs><title>Flag_rect_Sri Lanka</title><g id="SRI_LANKA" data-name="SRI LANKA"><g id="_Group_" data-name="&lt;Group&gt;"><g id="_Clip_Group_" data-name="&lt;Clip Group&gt;"><g class="cls-2"><rect id="_Path_" data-name="&lt;Path&gt;" class="cls-3" width="220" height="128"/><rect id="_Path_2" data-name="&lt;Path&gt;" class="cls-4" x="46.38" y="13.43" width="37.24" height="101.14"/><rect id="_Path_3" data-name="&lt;Path&gt;" class="cls-5" x="9.7" y="13.43" width="36.72" height="101.16"/><rect id="_Path_4" data-name="&lt;Path&gt;" class="cls-6" x="93.34" y="13.43" width="116.33" height="101.16"/><g id="_Clip_Group_2" data-name="&lt;Clip Group&gt;"><g class="cls-2"><path id="_Path_5" data-name="&lt;Path&gt;" class="cls-3" d="M137.7,60.39l1.92,0s-2.15,1.84-1.66,4.29c2.26-3.35,3.09-2.71,3.09-2.71-.69.74-2,1.79-1,4a13.32,13.32,0,0,1,2.7-4.09,9.19,9.19,0,0,0,.6,4.93,20,20,0,0,1,2.12-4.37s-.19,2.53.92,3.47a7.38,7.38,0,0,0,1.48-2.8s1.68,3,2.7,3.39a10.24,10.24,0,0,0,.83-3.57s3.45,2.45,6.22,1a5.81,5.81,0,0,1-3.3-3s4.46,2,6.39,1.09a50,50,0,0,0-6.25-3.55s3.24,1.21,4.18.9a7.29,7.29,0,0,0-1.87-1.43Z"/><g id="_Group_2" data-name="&lt;Group&gt;"><path id="_Path_6" data-name="&lt;Path&gt;" class="cls-6" d="M143.47,66.92a8.16,8.16,0,0,1-.83-4.85,20.59,20.59,0,0,0-2.46,4,2.88,2.88,0,0,1,.58-4l.16-.15c-.19.07-1,.07-2.87,2.8-.71-2.55,1.48-4.44,1.5-4.46l-1.85.2c-.07,0-.1-.08-.1-.15s.05-.13.1-.11l1.92.06c.06.23-2,2-1.55,4.36,1.25-2.19,2.15-2.76,2.63-2.81.28,0,.41,0,.42,0l-.19.38a2.89,2.89,0,0,0-.76,3.7,10.71,10.71,0,0,1,2.51-4.11c.19.13-.27,2.66.79,4.93a16.39,16.39,0,0,1,1.91-4.36c.21.07,0,2.57,1.11,3.47a9.21,9.21,0,0,0,1.27-2.76c.25,0,1.89,2.89,2.88,3.32a12.21,12.21,0,0,0,.67-3.47,11.46,11.46,0,0,0,4.38,1.32,4.1,4.1,0,0,0,1.87-.4,5.2,5.2,0,0,1-3.35-2.81c.15-.08,3.14,1.15,5.23,1.15a3.38,3.38,0,0,0,1.22-.21c-1.85-1.2-6.2-3.32-6.23-3.32.09-.18,2.64.69,3.82.69a2,2,0,0,0,.37,0,16.44,16.44,0,0,0-1.89-1.23c.18-.15,1.57.61,2,1.25-.68.33-2.3,0-3.35-.38a32.87,32.87,0,0,1,5.39,3c-1.84,1-5.78-.56-6.43-.84a7.23,7.23,0,0,0,3.3,2.68c-2.63,1.61-5.82-.46-6.26-.77a6.75,6.75,0,0,1-.69,3.5c-1.15-.38-2.65-2.91-2.9-3.32a5.15,5.15,0,0,1-1.32,2.79c-1.13-.85-1.15-2.84-1.14-3.43a43.61,43.61,0,0,0-1.88,4.24Z"/></g><path id="_Path_7" data-name="&lt;Path&gt;" class="cls-3" d="M164.55,36.41c5.94-.54,15.1,4.32,19.94,7.56,0-1.1,0-2.17,1.1-2.71a1.67,1.67,0,0,1,2.15,2.17c-1.62,3.76-8.09-.56-10.25-1.63L178.57,44c-3.23-.54-3.77-1.1-5.92-3.78-.55,2.14-.55,2.68-3.25,2.68,1-1.61,1.36-2.14,0-3.75l-.53,3.21-2.68-3.75v3.75c-.56-.53-2.71-2.14-3.79-2.14-1.61-.54-2.69,2.68-3.24,4.29,1.63-1.61,2.16-2.68,4.86-1.61-1.45,1.38-1,3,.53,4.32,0,0,.29-2.25.45-2.76.87.64,2.69,3,4.95,3.29a15.69,15.69,0,0,0,4.85-1.07c5.38-.56,17.26.54,14.55,8.6A8.37,8.37,0,0,1,187.19,59c7.55,2.7,1.08,12.41-.54,17.23-1.06,4.32-.32,7.74,5,7.2-1.07,2.15-2.82,2.51-5,2.51a3,3,0,0,0,1.67,1.91c-2.31,2,.79,5.16-.58,6.69-2.32,1.12-5.39-.54-5.39-.54l-.15,1.51a34.56,34.56,0,0,1-4.16-.43,24,24,0,0,0,1.08-2.22C178,94.5,177,95.44,174.8,95.09a5.08,5.08,0,0,1,1.38-2.3c-1.64,1.63-1.82,2.35-3.53,2.3,0-2.68,1.6-5.9,4.84-4.85.55,0,2.25,1.35,3,.48.64-.92.24-4.08.24-5.13.35-4.78-.6-4.5-3.29-7.2-2.15-1.61-3.73-4.09-6.42-4.62s-7,2.47-9.21,3.55a46.07,46.07,0,0,1-16.17,6.46,2.14,2.14,0,0,0,.12-.82c0-.33,5.82-4.88,6.84-12.85-1.59,7.87-7.26,12-7.47,13.49a16.81,16.81,0,0,1-1.51,4.08A14.72,14.72,0,0,1,149.46,86c-.62,3.34-3.77,2.68-4.3,4.29,0,1.63,2.14,3.77,0,4.85h-8.63a12.15,12.15,0,0,0,1.39-2.33c-1.17.69-1.9,2.56-4.43,2.35.1-.71,1.3-1.78,1.1-2.22-1.46,1.35-2.14,2.5-4,2.2.53-1.61.53-3.76,2.69-3.76,1.62-.53,3.24.54,4.32-1.09,2.16-2.69-.4-8.58-.93-11.83A22.55,22.55,0,0,0,136,72l.54,9.68c-2.16-1.63-4.32-2.68-5.93-4.85-3.77-4.83-2.69-10.21,2.16-13.46a21.78,21.78,0,0,1,6-3.52c-.54-1.61.76-2.83-1.15-3.32-.58,1-1.12,2.09-2.23,2l.59-2.71s-1.94.13-1.56,3.6c-2.24-1.07-1.14-3.6-1.14-3.6h-1.08s0,3.19-1.76,3.83a22.59,22.59,0,0,0,.68-3.83s-2.89,3.45-4.55,2.32c1-1.12,1.74-1.3,1.61-2.65a14,14,0,0,0-1-3.35c.61.31,4.67,1.51,7.23.23a7.48,7.48,0,0,0-.1,1.84c2.68-.53,3.24-.53,5.94.51-.54-3.73-2.7-4.31-4.86-7v2.15c-2.16-.54-2.69-1.08-3.78-3.22l-1.61,1.07c-2.85-1.68-5-5.67-.91-5.44,2.41.31.36,2.2.36,2.2a65.1,65.1,0,0,1,8.63-2.15,3.72,3.72,0,0,0-3-1.78c1.9-1.41,3.8-1.87,5.16,1.12,1.35.1,2.61-1.56,1.8-3.65,2,0,3,1.23,3.9,2.55.76.13,1.5-.64,1.33-3.32,1.87,1.61,2.81,2.12,2.94,3.48,1.61.35,2.7,0,5.12-1.08-.55,2.15-.55,2.68-2.71,3.78a5.91,5.91,0,0,1,1.38,5l-1-.31a29.67,29.67,0,0,1,.23,4.49h-1.09l1.62,4.85L152.69,59c3.79-1.59,7.57-1.07,11.33-2.12,4.32-.56,8.63-2.2,13.47-2.2,3.24,0,3.24,1.64,7.55,1.64V53.65a5.12,5.12,0,0,0-4.31-4.86c-1.61,0-4.32,1.08-5.93,1.59a33.16,33.16,0,0,1-7.55.58c-7-1.09-5.9-1.78-8.32-3.08-1.46.38-2.29,1.63-3,3.83-1.35-2-1.06-4.52.57-5.62-1.63-5.9,2.68-8.61,8.07-9.68Z"/><path id="_Path_8" data-name="&lt;Path&gt;" class="cls-3" d="M166.19,84.87c-1.09-1.63-4.87-4.31-3.79-7,1.62-2.68,10.79-7,12.4-1.07.54,1.61-1.13,5.9-1.67,7.53.82-.23,1.73-1.48,4.39-1-.5,2.12-3.74,3.75-3.74,3.75.35,1.43-2.21,8-2.21,8h-7l1.08-2.15L164,95.09h-2.7l2.16-2.68s-2.55,3-4.72,2.86c.52-4.32,3.1-5,6.87-3.4.56-2.15,1.62-4.85.56-7Z"/><g id="_Group_3" data-name="&lt;Group&gt;"><path id="_Compound_Path_" data-name="&lt;Compound Path&gt;" class="cls-6" d="M158.88,95.39l-.13,0c.36-4.24,2.77-5.39,6.93-3.6a2.14,2.14,0,0,1,.13-1c.52-1.89,1.14-4.06.27-5.83a15.57,15.57,0,0,0-1.23-1.43c-1.5-1.6-3.38-3.6-2.56-5.69,1.11-1.81,5.29-4.11,8.42-4.11a4,4,0,0,1,4.2,3.06c.49,1.43-.7,4.8-1.41,6.82l-.25.74c.08-.18.29-.3.53-.46a4.93,4.93,0,0,1,3.76-.66c-.41,2.27-3.57,3.88-3.69,4,.39,1.32-2.07,7.68-2.17,8l-7.13,0,1-2.32-1.42,2.29-2.8,0,1.39-1.94c-.85.92-2.4,2.14-3.83,2.14Zm3.91-2.22-1.37,2L164,95l1.53-2.09-.89,2.27,6.91-.18c-.09,0,2.43-6.51,2.1-7.89.11-.15,3.27-1.76,3.74-3.81a4.17,4.17,0,0,1-1,0,4.46,4.46,0,0,0-2.51.77,4,4,0,0,1-.73.38l.11-1c.65-1.83,1.87-5.31,1.42-6.66a3.77,3.77,0,0,0-4-2.88c-3.31,0-7.27,2.42-8.21,4-.76,1.94,1.05,3.88,2.52,5.42a16.34,16.34,0,0,1,1.27,1.48c.9,1.86.29,4.08-.26,6-.09.39-.2.72-.29,1.05a12.18,12.18,0,0,0-3.32-.66c-2,0-3.17,1.27-3.53,4,2.06,0,4.48-2.8,4.51-2.83h0a2.29,2.29,0,0,1-.61.84Z"/></g><path id="_Path_9" data-name="&lt;Path&gt;" class="cls-3" d="M137.3,44.33c-.71.43-.13,3.39,1,2.91,1.38-.64-.44-3.25-1-2.91Z"/><g id="_Group_4" data-name="&lt;Group&gt;"><path id="_Compound_Path_2" data-name="&lt;Compound Path&gt;" class="cls-6" d="M138,47.39c-.41,0-.81-.43-1-1.2s-.2-1.68.25-2c.72,0,1.44,1,1.62,1.82a1,1,0,0,1-.53,1.3l-.31,0Zm-.62-3c-.34.18-.4,1-.19,1.74.14.51.43,1,.81,1v.13l.21-.18a.85.85,0,0,0,.4-1c-.19-.81-.92-1.66-1.23-1.66Z"/></g><path id="_Path_10" data-name="&lt;Path&gt;" class="cls-3" d="M138,43.41c1.34.92,3.45,3.42,6.06,3.27-2-1.61-1.57-2.81-1.57-2.81,1,1.22,4.47,2.37,5.6,1.89-1.32-1-1.58-1.1-1.87-2,1.58.18,3.54.51,5.11-.15Z"/><g id="_Group_5" data-name="&lt;Group&gt;"><path id="_Path_11" data-name="&lt;Path&gt;" class="cls-6" d="M143.54,46.65c-1.87,0-3.43-1.33-4.59-2.35-.38-.31-.71-.59-1-.82a.1.1,0,0,1,0-.15s.11-.08.16,0a10.8,10.8,0,0,1,1,.81c1.27,1.1,3,2.56,5,2.45-2.09-1.45-1.7-2.68-1.69-2.73,1.2,1.15,4.57,2.27,5.68,1.79l-.42-.08c-1-.74-1.25-.89-1.52-1.79l.58-.07a8.91,8.91,0,0,0,4.59-.21c-1.37.85-3.09.62-4.63.44l-.44-.05c.38.64.58.79,1.56,1.5l.4.28c-1.2.72-4.58-.38-5.7-1.61a4,4,0,0,0,1.66,2.56,5.67,5.67,0,0,1-.58,0Z"/></g><path id="_Path_12" data-name="&lt;Path&gt;" class="cls-3" d="M140.55,59.83l.15-2.28s1.48,3.45,2.56,3.5a12.07,12.07,0,0,1-.39-4.52Z"/><g id="_Group_6" data-name="&lt;Group&gt;"><path id="_Path_13" data-name="&lt;Path&gt;" class="cls-6" d="M143.32,61c-1.23,0-2.58-3.09-2.73-3.43l.08,2.23c0,.07-.08.07-.12.1s-.11,0-.11-.1l.15-2.28c.62.9,1.86,3.35,2.69,3.37a10.37,10.37,0,0,1-.53-4.41c.23.05-.06,2,.61,4.52Z"/></g><path id="_Path_14" data-name="&lt;Path&gt;" class="cls-3" d="M144,57s2.95,5.42,4.38,4.55a5.6,5.6,0,0,1-1.92-4.42s1,3.34,3.89,4.37c.19-1.89-1.15-4.93-1.15-4.93s2.43,4.24,3.65,4.34a2.48,2.48,0,0,0,.5-2Z"/><g id="_Group_7" data-name="&lt;Group&gt;"><path id="_Path_15" data-name="&lt;Path&gt;" class="cls-6" d="M148,61.79a.9.9,0,0,1-.22,0c-1.54-.41-3.76-4.47-3.86-4.65a.14.14,0,0,1,0-.18c.05,0,.13,0,.16.05s2.26,4.16,3.72,4.55a.59.59,0,0,0,.48-.06,5.31,5.31,0,0,1-2-4.34c.23,0,1.23,3.27,4,4.27a15.55,15.55,0,0,0-1.29-4.75v0c.05,0,.14.11.25.29,1,1.27,2.63,3.77,3.5,3.88a2.46,2.46,0,0,0,.38-1.92h0c.22,0,.51,1.07-.29,2.1-1-.06-2.56-2.28-3.35-3.53a9.63,9.63,0,0,1,.87,4,6.7,6.7,0,0,1-4-4,6.33,6.33,0,0,0,2,4,.54.54,0,0,1-.47.31Z"/></g><path id="_Path_16" data-name="&lt;Path&gt;" class="cls-3" d="M141.69,53.31l2.17,2.76.33-3.68s2.12,1.66,2.52,1.61-.59-3.93-.59-3.93a46.12,46.12,0,0,0,3,4.24,32,32,0,0,0,.3-4.29s2.18,5.95,2.91,5.92.55-.84.55-.84Z"/><g id="_Group_8" data-name="&lt;Group&gt;"><path id="_Path_17" data-name="&lt;Path&gt;" class="cls-6" d="M144,56.1l-2.38-2.71a.11.11,0,0,1,0-.15.09.09,0,0,1,.16,0L143.94,56l.14-3.63a22.15,22.15,0,0,0,2.61,1.53,18,18,0,0,0-.69-3.8c1.22,1.45,2.94,3.95,3.17,4.11,0-.18.13-2.27.17-4.19,1.24,2.81,2.64,5.82,3,5.8.18,0,.3-.08.35-.18a.68.68,0,0,0,.09-.51c.2-.08.32.35.12.66a.78.78,0,0,1-.55.26h0c-.77,0-2.49-4.57-3-6,.12,4.21-.07,4.32-.14,4.34s-.27.16-3.2-4.26c.43.74,1.09,3.5.85,3.9-.57.13-2.24-1.17-2.74-1.58L144,56.1Z"/></g><path id="_Path_18" data-name="&lt;Path&gt;" class="cls-3" d="M140.06,48.51s3.34,3,3.69,2.84-1.37-3.53-1.37-3.53,1.91,1.82,2.65,1.94.26-2.34.26-2.34,2.26,1.94,2.64,1.81.2-1.81.2-1.81a20.77,20.77,0,0,0,1.58,1.48c.11,0-.31-4.24-.31-4.24s3.29,3.5,3.55,3.44Z"/><g id="_Group_9" data-name="&lt;Group&gt;"><path id="_Path_19" data-name="&lt;Path&gt;" class="cls-6" d="M143.74,51.48c-.48,0-2.29-1.56-3.76-2.89a.13.13,0,0,1,0-.18.25.25,0,0,1,.17,0,18.42,18.42,0,0,0,3.57,2.84h0a16.48,16.48,0,0,0-1.44-3.37c.7.35,2.19,1.68,2.77,1.78.38-.28.25-1.5.11-2.22a16.58,16.58,0,0,0,2.75,1.69c.15-.05.2-.85.1-1.69.87.56,1.62,1.3,1.73,1.35-.1-.12-.3-2.6-.46-4.11,1.4,1.18,3.41,3.22,3.67,3.32,0,.26-.29.28-3.63-3.24.58,4.09.51,4.16.47,4.21s-.23.05-1.75-1.48c.27.46.35,1.74-.07,1.87s-2.13-1.31-2.72-1.82c.23.28.49,1.84.1,2.25a1.46,1.46,0,0,1-.34.1,10.15,10.15,0,0,1-2.7-2c1.34,2.15,1.8,3.4,1.5,3.55,0,0,0,0-.07,0Z"/></g><path id="_Path_20" data-name="&lt;Path&gt;" class="cls-3" d="M126.68,49.59c.16.25.7,4.59,7.44,2.83.64-.36.36,1.2.32,1.66.31,0,3.52-1.2,5.73.43a4.69,4.69,0,0,0-2.65-4.06,2.34,2.34,0,0,0-1.63.29s-8.13.07-9.21-1.15Z"/><g id="_Group_10" data-name="&lt;Group&gt;"><path id="_Path_21" data-name="&lt;Path&gt;" class="cls-6" d="M140.17,54.64l-.07,0a4.72,4.72,0,0,0-2.89-.85,8.91,8.91,0,0,0-2.53.39s-.18,0-.2,0-.15,0-.15-.08l0-.25c0-.38.12-1.15,0-1.3a13.57,13.57,0,0,1-3.12.46c-2.42,0-4-1.08-4.58-3.2a.19.19,0,0,1,0-.07c1.14,2.76,3.55,3.62,7.48,2.6l.41.05c.2.23.16.82.09,1.46v.28a5.72,5.72,0,0,1,2.63-.56,5.08,5.08,0,0,1,2.8.74,4.41,4.41,0,0,0-2.54-3.68,2.55,2.55,0,0,0-.42,0,2.08,2.08,0,0,0-1.09.31c-2.13,0-8.35-.05-9.35-1.18a.16.16,0,0,1,0-.1s.09-.1.12-.05c.74.84,5.27,1.12,8.92,1.12a4,4,0,0,1,1.36-.33,4.28,4.28,0,0,1,.49.05,4.77,4.77,0,0,1,2.75,4.14.14.14,0,0,1-.06.13l-.06,0Z"/></g><path id="_Path_22" data-name="&lt;Path&gt;" class="cls-3" d="M123,77.26c-.12.52-.46.64-1.47,2.1C122,80,124,81,124.61,80.43c.49-.25.53-1.61.53-1.61,1.09,1.61,3,4.16,5.15,4.73a2.4,2.4,0,0,0,3.22-2.17c0-1.64-2.43-4.22-3.51-5.29-2.7-3.24-2.45-9.35-7.56-8.5,0,0-.22.76-.71.89.41.77.64,1.43-.34,1.69.76.74.87,1.27-.11,1.66.6.79,1.3,1.09-.07,1.76A7.47,7.47,0,0,1,123,77.26Z"/><g id="_Group_11" data-name="&lt;Group&gt;"><path id="_Compound_Path_3" data-name="&lt;Compound Path&gt;" class="cls-6" d="M131.13,83.78a2.08,2.08,0,0,1-.88-.16c-1.61-.38-3.29-1.91-5.11-4.62.1.33,0,1.3-.47,1.53a.68.68,0,0,1-.54.16h0a4.36,4.36,0,0,1-2.68-1.26,8.63,8.63,0,0,1,1-1.42c.27-.36.41-.49.46-.77a7.45,7.45,0,0,0-1.76-3.58c.47-.4.71-.58.74-.76s-.14-.36-.37-.61-.2-.23-.32-.41c.42-.31.63-.46.68-.67s-.14-.56-.56-1c.34-.28.54-.41.6-.56s0-.66-.29-1.17a1.84,1.84,0,0,0,.7-.92,2.82,2.82,0,0,1,1-.18c2.76,0,3.71,2.32,4.72,4.8a14.94,14.94,0,0,0,2,3.8c1.07,1,3.55,3.71,3.55,5.37a2.42,2.42,0,0,1-2.5,2.4Zm-6.09-5c2,2.66,3.69,4.19,5.28,4.6a2.26,2.26,0,0,0,3.07-2c0-1.59-2.43-4.19-3.47-5.21a14.52,14.52,0,0,1-2-3.88c-1.08-2.66-2.1-5.14-5.4-4.58a1.17,1.17,0,0,1-.72.87,1.16,1.16,0,0,1,.39,1.2,1.08,1.08,0,0,1-.73.51c.55.26.75.64.68,1s-.3.49-.76.67c.15,0,.27.1.38.2.25.31.46.54.4.82s-.3.46-.85.74a6,6,0,0,1,1.83,3.4,1.5,1.5,0,0,1-.48,1c-.21.28-.53.69-1,1.3.42.41,2.47,1.31,2.89.92.39-.2.5-1.17.51-1.53Z"/></g><path id="_Path_23" data-name="&lt;Path&gt;" class="cls-3" d="M121.69,31.64C120.06,34,119.9,59.83,120.42,65c-1.64,1.07-4.66.64-5.5.31.4-1.87,1.79-31.82,6.77-33.68Z"/><g id="_Group_12" data-name="&lt;Group&gt;"><path id="_Compound_Path_4" data-name="&lt;Compound Path&gt;" class="cls-6" d="M117.56,65.8a9,9,0,0,1-2.68-.38c0-.46.11-1.79.25-3.58.72-8.63,2.38-28.77,6.51-30.31C120.2,34,120,59.52,120.51,65a5.08,5.08,0,0,1-3,.79Zm4-34.22C117.73,33.22,116,54,115.37,61.84c-.16,1.89-.26,3.14-.33,3.5a21.88,21.88,0,0,0,2.52.23,5.25,5.25,0,0,0,2.78-.64c-.51-4.59-.43-30.92,1.26-33.35Z"/></g><path id="_Path_24" data-name="&lt;Path&gt;" class="cls-3" d="M117.1,84.59s-7.15,1-4.14-3.24c2.58-1.12,2.52,1.51,1.56,2.4A1.88,1.88,0,0,0,116.66,82a2.26,2.26,0,0,1,.5-3.24c-5,1.12-5.64-2.3-3.82-2.83,2.35.12,1.61.86,2.54,1.55,1.66-1.55,2.68-1.71,3.68-.12,1-1.56,2.46-1.38,2.52-1.23,1.62,2.76-2,2.91-3.41,2.58a3,3,0,0,1,.33,3.57c0,1,.75,1.08,1.9,1.46-2.46-6.79,8.67,1.81-2.52.94,0,.31.05.62.06.9.92.18,1.56.38,1.86,1.35-.4.51-1,.59-2,.23,0,0,.56,1.56-.46,2a2.47,2.47,0,0,1-.94-1.71c-.48.56-1.16.18-1.74-.28.52-1.3,2-.69,1.9-2.53Z"/><path id="_Path_25" data-name="&lt;Path&gt;" class="cls-3" d="M111,63.91c.43-1.94,4.92-1.71,2.78.38,1.45,2.3,5.85,2,7.49.67-1.39-2.66,2.4-2.07,2.24,0-.46,3.6-13,3.11-12.51-1Z"/><path id="_Path_26" data-name="&lt;Path&gt;" class="cls-3" d="M193.61,98.23c1.34,2.53,3.73,8.45,5,9.88,1.26,1.1,4.33,1,5.27-.28,0,0,2,2,2.78,2.65a1.74,1.74,0,0,0,.76-.61c-.8-.87-1.89-1.38-2.43-3a5.69,5.69,0,0,0,.69-4.77c-2.34-4-10.18-2.4-12.11-3.88Z"/><g id="_Group_13" data-name="&lt;Group&gt;"><path id="_Compound_Path_5" data-name="&lt;Compound Path&gt;" class="cls-6" d="M206.69,110.64l-.06,0c-.8-.62-2.71-2.58-2.79-2.66-.59,1.18-4,1.38-5.26.26-.89-1-2.21-3.83-3.39-6.41-.64-1.36-1.22-2.66-1.68-3.5a15.53,15.53,0,0,0,4.15.66c3,.26,6.67.59,8.17,3.12a5.86,5.86,0,0,1-.71,4.9,5.52,5.52,0,0,0,1.7,2.15,5.9,5.9,0,0,1,.74.68,1.27,1.27,0,0,1-.83.82l0,0Zm-2.85-2.89c.18,0,2.06,2,2.88,2.61a1.56,1.56,0,0,0,.64-.57,2.78,2.78,0,0,1-.7-.51,5.11,5.11,0,0,1-1.74-2.35,6,6,0,0,0,.72-4.8c-1.44-2.37-5.08-2.7-8-3-1.81-.15-3.38-.28-4.11-.87a15.16,15.16,0,0,1,1.86,3.38c1.16,2.55,2.49,5.43,3.33,6.35,1.12,1,4.26.82,5.11-.28Z"/></g><path id="_Path_27" data-name="&lt;Path&gt;" class="cls-3" d="M109.41,29.62c-1.34-2.5-3.73-8.48-5-9.91-1.24-1.1-4.33-1-5.28.28,0,0-2-2-2.76-2.63a1.65,1.65,0,0,0-.77.62c.81.84,1.9,1.35,2.44,3a5.78,5.78,0,0,0-.72,4.78c2.37,3.93,10.21,2.37,12.14,3.88Z"/><g id="_Group_14" data-name="&lt;Group&gt;"><path id="_Compound_Path_6" data-name="&lt;Compound Path&gt;" class="cls-6" d="M109.33,29.7c-.68-.52-2.2-.67-4-.8-3-.28-6.67-.61-8.17-3.11a5.91,5.91,0,0,1,.71-4.9,5,5,0,0,0-1.69-2.15,7.94,7.94,0,0,1-.73-.69,1.2,1.2,0,0,1,.82-.81,33.44,33.44,0,0,1,2.88,2.68c.6-1.18,4.06-1.36,5.28-.28.87.94,2.2,3.85,3.37,6.4.63,1.36,1.23,2.66,1.69,3.53l-.18.13ZM96.25,17.44a1.9,1.9,0,0,0-.61.61,3.46,3.46,0,0,1,.72.51,5,5,0,0,1,1.74,2.35,5.92,5.92,0,0,0-.71,4.78c1.44,2.4,5.08,2.73,8,3a12.86,12.86,0,0,1,3.74.66c-.44-.87-1-2-1.51-3.16-1.17-2.56-2.48-5.44-3.34-6.36-1.1-1-4.26-.79-5.1.28-.18,0-2.14-2-2.92-2.63Z"/></g><path id="_Path_28" data-name="&lt;Path&gt;" class="cls-3" d="M108.61,97.82c-2.51,1.35-8.47,3.75-9.89,5.05-1.11,1.26-1,4.35.28,5.29,0,0-2,2-2.66,2.78a1.79,1.79,0,0,0,.62.77c.87-.82,1.36-1.92,3-2.45a5.83,5.83,0,0,0,4.78.71c4-2.35,2.39-10.21,3.89-12.15Z"/><g id="_Group_15" data-name="&lt;Group&gt;"><path id="_Compound_Path_7" data-name="&lt;Compound Path&gt;" class="cls-6" d="M97,111.84l-.07,0a1.59,1.59,0,0,1-.66-.82,28.55,28.55,0,0,1,2.68-2.89,2.67,2.67,0,0,1-1.06-2.19,4.35,4.35,0,0,1,.76-3.09c1-.87,3.85-2.22,6.4-3.37,1.38-.64,2.67-1.23,3.54-1.69a15.15,15.15,0,0,0-.68,4.16c-.26,3-.57,6.67-3.1,8.15a4.75,4.75,0,0,1-1.62.26h0a5.64,5.64,0,0,1-3.29-1,5.41,5.41,0,0,0-2.13,1.72c-.23.25-.46.51-.7.74l-.07,0Zm11.55-14.07a15.81,15.81,0,0,1-3.39,1.86c-2.54,1.15-5.42,2.48-6.33,3.35a4,4,0,0,0-.7,2.88,3.21,3.21,0,0,0,1,2.22c0,.18-2,2.15-2.64,2.91a2,2,0,0,0,.52.57c.22-.23.42-.44.6-.67a5.18,5.18,0,0,1,2.36-1.76,6,6,0,0,0,4.78.72c2.4-1.43,2.7-5.06,3-8,.15-1.81.29-3.37.87-4.11Z"/></g><path id="_Path_29" data-name="&lt;Path&gt;" class="cls-3" d="M193.82,29.62c1.34-2.5,3.73-8.48,5.05-9.91,1.23-1.1,4.32-1,5.27.28,0,0,2-2,2.77-2.63a1.72,1.72,0,0,1,.77.62c-.8.84-1.92,1.35-2.44,3a5.78,5.78,0,0,1,.7,4.78c-2.35,3.93-10.2,2.37-12.12,3.88Z"/><g id="_Group_16" data-name="&lt;Group&gt;"><path id="_Compound_Path_8" data-name="&lt;Compound Path&gt;" class="cls-6" d="M193.89,29.7l-.19-.13c.49-.87,1.08-2.17,1.7-3.53,1.18-2.55,2.51-5.46,3.39-6.38,1.23-1.1,4.52-.94,5.45.26a16,16,0,0,1,2.6-2.66,1.58,1.58,0,0,1,.94.64,3.75,3.75,0,0,1-.75.84A4.69,4.69,0,0,0,205.35,21a5.62,5.62,0,0,1,.71,4.77c-1.53,2.53-5.21,2.86-8.19,3.14-1.77.13-3.29.26-4,.8Zm7.47-10.63a3.67,3.67,0,0,0-2.41.74c-.85.9-2.17,3.78-3.34,6.34-.56,1.17-1.07,2.29-1.49,3.14a13.67,13.67,0,0,1,3.73-.64c2.93-.26,6.55-.56,8-3a5.56,5.56,0,0,0-.7-4.62,4.66,4.66,0,0,1,1.72-2.48,4.78,4.78,0,0,0,.69-.66c-.08,0-.33-.33-.68-.46-.68.61-2.64,2.63-2.66,2.63a4.28,4.28,0,0,0-2.86-1Z"/></g><path id="_Path_30" data-name="&lt;Path&gt;" class="cls-3" d="M113,68.33c-.1.79,1.85,1.17,3.87,1.17s4-.33,4.13-.89c0-1-1.75-.13-3.77-.15s-3.7-.82-4.23-.13Z"/><g id="_Group_17" data-name="&lt;Group&gt;"><path id="_Compound_Path_9" data-name="&lt;Compound Path&gt;" class="cls-3" d="M116.91,69.63h-.07c-.74,0-3.17-.08-3.82-.82a.62.62,0,0,1-.16-.51c.36-.48,1.1-.38,2.19-.2a16.52,16.52,0,0,0,2.15.25h0a14.53,14.53,0,0,0,2-.2c.85-.15,1.46-.21,1.71,0a.68.68,0,0,1,.14.46c-.13.8-2.78,1-4.18,1Zm-3.17-1.48a.78.78,0,0,0-.68.25.5.5,0,0,0,.14.23c.39.46,1.78.74,3.64.77l.07.1v-.1c2.29,0,3.88-.43,3.94-.79a.4.4,0,0,0-.07-.26c-.17-.18-.77-.12-1.51,0a12.31,12.31,0,0,1-2,.18,11,11,0,0,1-2.24-.23,7.08,7.08,0,0,0-1.28-.18Z"/></g><path id="_Path_31" data-name="&lt;Path&gt;" class="cls-3" d="M113.13,70.6c0,.77,2,1,3.68,1s3.45-.28,3.77-.85c-.31-.86-2.21-.15-3.77-.1s-3.27-.76-3.68-.05Z"/><g id="_Group_18" data-name="&lt;Group&gt;"><path id="_Compound_Path_10" data-name="&lt;Compound Path&gt;" class="cls-3" d="M117.16,71.72h-.35c-1.76-.07-3.77-.25-3.8-1.12a.85.85,0,0,1,.83-.41c.33,0,.74.08,1.2.13a7,7,0,0,0,1.65.2,12.6,12.6,0,0,0,1.63-.15,9.08,9.08,0,0,1,1.36-.15,1,1,0,0,1,1,.51c-.37.71-2.09,1-3.53,1Zm-3.32-1.3c-.32,0-.52,0-.6.23,0,.46,1.23.77,3.58.82l.34,0c1.61,0,3.06-.35,3.32-.79-.17-.25-1-.28-2.12-.13a10.48,10.48,0,0,1-1.55.21,5.79,5.79,0,0,1-1.82-.21,5.26,5.26,0,0,0-1.15-.15Z"/></g><path id="_Path_32" data-name="&lt;Path&gt;" class="cls-3" d="M113.68,72.64c-.13.56,1.58,1,3.16,1s3.81-.59,3.82-1.23c-.1-.48-2.3.18-3.78.23s-3.2-.53-3.2,0Z"/><g id="_Group_19" data-name="&lt;Group&gt;"><path id="_Compound_Path_11" data-name="&lt;Compound Path&gt;" class="cls-3" d="M116.88,73.74h0c-1.24,0-2.78-.28-3.18-.77a.5.5,0,0,1-.09-.35c0-.33.42-.33.56-.33a9,9,0,0,1,1,.1,11.21,11.21,0,0,0,1.57.13,10.31,10.31,0,0,0,2-.23,13.88,13.88,0,0,1,1.46-.18c.16,0,.56,0,.6.3,0,.77-2.38,1.33-3.89,1.33Zm-2.75-1.22c-.22,0-.33,0-.33.12.34.56,1.68.87,3,.87l0,.13v-.13c1.6,0,3.64-.61,3.66-1.1a9.05,9.05,0,0,0-1.8.13,15.58,15.58,0,0,1-1.86.21,11.41,11.41,0,0,1-1.8-.13,8.57,8.57,0,0,0-1-.1Z"/></g><path id="_Path_33" data-name="&lt;Path&gt;" class="cls-3" d="M113.5,74.74c.12.56,2.07.74,3.78.61s3.45-.64,3.58-1.28c-.08-.38-2,.31-3.66.39s-3.72-.21-3.7.28Z"/><g id="_Group_20" data-name="&lt;Group&gt;"><path id="_Compound_Path_12" data-name="&lt;Compound Path&gt;" class="cls-3" d="M116.26,75.5c-.64,0-2.71-.07-2.87-.76.2-.34.55-.41,1.29-.41l1.78,0c.25,0,.5,0,.73,0a15.42,15.42,0,0,0,2.1-.28,9.28,9.28,0,0,1,1.29-.21c.08,0,.35,0,.4.23-.17.74-2,1.28-3.69,1.38-.34,0-.69,0-1,0Zm-1.58-.94c-.62,0-1,0-1.07.15.07.28,1,.56,2.65.56.34,0,.68,0,1,0,1.75-.13,3.35-.66,3.47-1.15a9.39,9.39,0,0,0-1.41.18,12.54,12.54,0,0,1-2.14.31c-.23,0-.49,0-.74,0l-1.78,0Z"/></g></g></g></g></g></g></g></svg>