<svg id="Layer_1" data-name="Layer 1" xmlns="http://www.w3.org/2000/svg" xmlns:xlink="http://www.w3.org/1999/xlink" viewBox="0 0 220 128"><defs><style>.cls-1{fill:none;}.cls-2{clip-path:url(#clip-path);}.cls-3{fill:#caad42;}.cls-4{fill:#b31f31;}.cls-5{fill:#ab6a31;}.cls-6{fill:#355d8e;}.cls-7{fill:#718b42;}</style><clipPath id="clip-path"><rect id="_Clipping_Path_" data-name="&lt;Clipping Path&gt;" class="cls-1" width="219.41" height="128"/></clipPath></defs><title>Flag_rect_Montenegro</title><g id="MONTENEGRO"><g id="_Group_" data-name="&lt;Group&gt;"><g id="_Clip_Group_" data-name="&lt;Clip Group&gt;"><g class="cls-2"><rect id="_Path_" data-name="&lt;Path&gt;" class="cls-3" width="219.41" height="128"/><rect id="_Path_2" data-name="&lt;Path&gt;" class="cls-4" x="6.4" y="6.4" width="206.61" height="115.19"/><g id="_Clip_Group_2" data-name="&lt;Clip Group&gt;"><g class="cls-2"><path id="_Compound_Path_" data-name="&lt;Compound Path&gt;" class="cls-5" d="M137.51,63a15.52,15.52,0,0,0,5.19-2.47,5.83,5.83,0,0,0,2.36-3.32c.12-.65.2-1.16-.28-.78a26.28,26.28,0,0,1-2.87,2,10.64,10.64,0,0,1-2.4.95c-.52.14-.93.24-.43,0a9.77,9.77,0,0,0,3.44-2.06,7.64,7.64,0,0,0,2.3-4.38c0-1.16-.06-1.09-.43-.79s-1.74,2-2.48,2.58a23.51,23.51,0,0,1-2.59,1.83c-.61.36-1.47.76-.27-.06a12.2,12.2,0,0,0,4.38-5.25,9.22,9.22,0,0,0,.74-4.22c0-.26-.23-.76-.44-.3a24.38,24.38,0,0,1-2.94,4.79c-1.23,1.31-.92,1.06-1.19,1.27s-.75.58-.15-.15a17.34,17.34,0,0,0,2.43-4.12,13.45,13.45,0,0,0,.82-4.33,7.89,7.89,0,0,0-.59-2.72c-.18-.39-.38-.68-.45-.23a49.2,49.2,0,0,1-1.55,4.89,17,17,0,0,1-1.79,3.41c-.2.33-.75,1-.16-.12A20.57,20.57,0,0,0,140,42.09a12.15,12.15,0,0,0-.68-5.57,4,4,0,0,0-.78-1.14,23.07,23.07,0,0,1-.57,5.07A16.58,16.58,0,0,1,136.48,45s-.38.43-.12-.3a13,13,0,0,0,.7-3.34,15.82,15.82,0,0,0-.34-5.86,7.49,7.49,0,0,0-1.65-3c-.3,2.85-.24,6.53-1.29,9.51-.19-.17-.45-.5-.54.16a16.47,16.47,0,0,1-1.88,5.16c-1.28,2.35-1.81,2.67-1.81,2.67a8.78,8.78,0,0,0-.41-.89c-.16-.32-.25-.48-.48-.05A16.91,16.91,0,0,1,126.17,53c-1.59,1.83-2.47,2.7-2.42,4.07a3.11,3.11,0,0,0,1.72,2.68c1,.61,1.12,1,1,1.7s-1,1-1.75,1a7.15,7.15,0,0,0-2,.14c-.33.2-.35.67-.69,1s-.48.54-.79.58l-.26,0c-.07-3.58,1.32-5.19,1.32-5.19l-3.88-4.57-.61.28c0-.05-.07-.12-.12-.18a3,3,0,0,1-.69-2.07,3.1,3.1,0,0,0,.94.1c.35-.08.07-.43,0-.77a6.8,6.8,0,0,1-.15-1.94c.09-.45.12-.62.12-.62s.56.62.91.62.31-.36.37-.75a3,3,0,0,1,.81-1.73,2.6,2.6,0,0,0,1.33.43,3.48,3.48,0,0,0,2.42-.93c.76-.73.73-.9.73-.9a11,11,0,0,0,2.5.55,2.62,2.62,0,0,0,2.76-1.25,2.41,2.41,0,0,0-.27-2.37c-.12-.17-.48-.32-.48,0a1.82,1.82,0,0,1-.64,1.6,1.84,1.84,0,0,1-1.77.21,5.74,5.74,0,0,0-2.48-.3,4.44,4.44,0,0,0-1,.21,5,5,0,0,1,1.64-1.1,1.35,1.35,0,0,1,1.57.4c.26.3.49.83.7.09a2.76,2.76,0,0,0-.27-2.15,2,2,0,0,0-1.9-.8,4.39,4.39,0,0,0-1.08.2,2.19,2.19,0,0,0-1.43-1.36,5.68,5.68,0,0,0-3.7.81,3.81,3.81,0,0,1-1.72-.05,5.83,5.83,0,0,1-1.46-.72l.3-.94.5-.18c.27-.09.21-.18.25-.39s-.49-.6-.49-.6-.08-.64.78-1.09.76-.36.76-.36.49.09.69-.07.2-.23.2-.23a1.15,1.15,0,0,0,.53-.35,1.08,1.08,0,0,0,.06-.83c-.1-.25-.24-.3-.09-.43a1.17,1.17,0,0,0,.28-.64v-.27s.29-.09.28-.54-.24-.62-.38-.66a.93.93,0,0,0-.23,0,1.7,1.7,0,0,0-.25-.62c-.24-.34-.37-.5-.37-.5a.36.36,0,0,0,.06-.41.74.74,0,0,0-.48-.53.78.78,0,0,0-.43,0s-.66-.42-1-.58l-.4-.2a.91.91,0,0,0-.12-.42.71.71,0,0,0-.52-.23.66.66,0,0,0-.28.09s-1.15-.3-1.61-.36a1.74,1.74,0,0,1-.49-.12,11.19,11.19,0,0,0-1.39-.57,3.29,3.29,0,0,1-.51-.1,2,2,0,0,0,.43-1.06,1.59,1.59,0,0,0-.74-1.35c-.24-.14-.35-.15-.43-.2v-.39l.74.08.07-1.22-.73.09.1-.74H109l.11.74-.74-.05.06,1.19.79-.09-.09.45a1.32,1.32,0,0,0-.52.22,1.42,1.42,0,0,0-.71,1.28,2.28,2.28,0,0,0,.35,1.07,4.69,4.69,0,0,1-.48.09,10.55,10.55,0,0,0-1.39.57,2.05,2.05,0,0,1-.5.12c-.47.06-1.6.36-1.6.36a.67.67,0,0,0-.29-.09.72.72,0,0,0-.51.23.85.85,0,0,0-.13.42l-.4.2c-.32.16-1,.58-1,.58a.7.7,0,0,0-.89.53.37.37,0,0,0,.07.41,3.7,3.7,0,0,0-.39.5,1.7,1.7,0,0,0-.25.62,1,1,0,0,0-.23,0c-.14,0-.35.21-.38.66s.28.54.28.54,0,0,0,.27a1,1,0,0,0,.28.64c.14.13,0,.18-.1.43a1,1,0,0,0,.07.83,1.09,1.09,0,0,0,.52.35s0,.09.19.23a1.22,1.22,0,0,0,.72.07s-.11-.07.74.36.78,1.09.78,1.09-.51.38-.49.6,0,.3.25.39l.5.18s.2.6.29.93a5.21,5.21,0,0,1-1.46.73,3.74,3.74,0,0,1-1.7.05A5.69,5.69,0,0,0,97,39.9a2.19,2.19,0,0,0-1.44,1.36,4.23,4.23,0,0,0-1.08-.2,2,2,0,0,0-1.9.8A2.81,2.81,0,0,0,92.34,44c.21.74.45.21.71-.09a1.32,1.32,0,0,1,1.55-.4,4.75,4.75,0,0,1,1.65,1.1,4.22,4.22,0,0,0-1-.21,5.71,5.71,0,0,0-2.47.3A1.88,1.88,0,0,1,91,44.5a1.82,1.82,0,0,1-.64-1.6c0-.32-.35-.17-.46,0a2.42,2.42,0,0,0-.29,2.37,2.64,2.64,0,0,0,2.77,1.25,10.66,10.66,0,0,0,2.5-.55s0,.17.73.9A3.52,3.52,0,0,0,98,47.8a2.59,2.59,0,0,0,1.32-.43,3,3,0,0,1,.82,1.73c.06.39,0,.75.37.75s.92-.62.92-.62,0,.17.1.62a6.82,6.82,0,0,1-.13,1.94c-.12.34-.38.69,0,.77a3.35,3.35,0,0,0,.92-.1,3.08,3.08,0,0,1-.68,2.07.37.37,0,0,0-.11.17l-.59-.27L97,59s1.4,1.61,1.31,5.23v0l-.28,0c-.3,0-.45-.24-.77-.58s-.37-.8-.71-1a6.93,6.93,0,0,0-2-.14c-.74,0-1.6-.28-1.74-1s0-1.09,1-1.7A3.13,3.13,0,0,0,95.54,57c0-1.37-.83-2.24-2.41-4.07a16.36,16.36,0,0,1-2.5-3.89c-.23-.43-.32-.27-.49.05s-.41.89-.41.89-.52-.32-1.8-2.67a17,17,0,0,1-1.88-5.16c-.1-.66-.35-.33-.55-.16-1-3-1-6.66-1.28-9.51a7.41,7.41,0,0,0-1.64,3,16,16,0,0,0-.36,5.86,12,12,0,0,0,.71,3.34c.26.73-.12.3-.12.3a17.2,17.2,0,0,1-1.53-4.57,23.21,23.21,0,0,1-.54-5.07,3.74,3.74,0,0,0-.8,1.14c-.42.84-.82,2.51-.69,5.57a20.75,20.75,0,0,0,1.88,7.35c.58,1.09,0,.45-.18.12a19.56,19.56,0,0,1-1.78-3.41c-.53-1.44-1.48-4.42-1.56-4.89s-.25-.16-.44.23a8.13,8.13,0,0,0-.59,2.72,14,14,0,0,0,.82,4.33,16.65,16.65,0,0,0,2.45,4.12c.58.73.11.36-.16.15s0,0-1.19-1.27a23.9,23.9,0,0,1-2.94-4.79c-.22-.46-.42,0-.45.3a9.39,9.39,0,0,0,.74,4.22,12.21,12.21,0,0,0,4.39,5.25c1.2.82.34.42-.28.06a24.46,24.46,0,0,1-2.58-1.83c-.75-.62-2.1-2.29-2.48-2.58s-.46-.37-.44.79a7.72,7.72,0,0,0,2.31,4.38,9.68,9.68,0,0,0,3.44,2.06c.51.21.07.11-.43,0a10.68,10.68,0,0,1-2.41-.95,28.71,28.71,0,0,1-2.88-2c-.46-.38-.41.13-.25.78a5.7,5.7,0,0,0,2.34,3.32A15.54,15.54,0,0,0,81.78,63c.73.21.21.21.21.21s-.3,0-1.81-.39a18.59,18.59,0,0,1-4.45-1.93c-.62-.39-.71-.53-.63.3a5.34,5.34,0,0,0,2.37,3.39,13.12,13.12,0,0,0,4.59,1.29c.66,0,.49.12.18.14A11.87,11.87,0,0,1,80,65.87a17.17,17.17,0,0,1-2.93-.76c0-.21-.1-.41-.12-.54-.06-.3-.23-.26-.32-.19s-.18.13-.52.31-.35,0-.38-.16-.07-.54-.08-.79-.13-.24-.3-.17l-1.23.53c-.3.13,0,.36.12.63s.39.69.39.69l-1,.26c-.24.07-.17.22-.1.39s.42,1,.51,1.21a.19.19,0,0,0,.3.09l.74-.43.24,1a2.63,2.63,0,0,0-.7.34c-.37.26-.28.6.16.72a2.42,2.42,0,0,1,1.54,1.4c.58,1,.72,2.9,1.06,5.84a6.94,6.94,0,0,0,2.5,4.64c.27.19.11.33.11.33a1.32,1.32,0,0,0-.14.94,1.44,1.44,0,0,0,.87,1,.3.3,0,0,1,.18.36,6.67,6.67,0,0,0,0,1.77,5.62,5.62,0,0,0,1.33,2.67c.26.23.29.34.25.43s-.2,0-.51.25a3.15,3.15,0,0,0-.9,1,1.77,1.77,0,0,0-.07,1.22c.07.55.88,1.06.88,1.06s-.14,0-.19.44a1.53,1.53,0,0,0,.65,1.16,3,3,0,0,0,1.06.45s.05.36.1.6.5.48.8.64a1.51,1.51,0,0,0,1.09,0c.25-.1.41,0,.56.27a5,5,0,0,1,.1,1.53c0,.38-.23.77-.1.95s.49.06.83-.15.45-.06.77.15a2.45,2.45,0,0,0,.94.37c.13,0,.07-.35.07-.63s0-.91.18-1a9.8,9.8,0,0,0,1-.26c.19-.09.43-.17.46-.35s-.27-.19-.88-.51a7.59,7.59,0,0,1-1.1-.75c-.38-.26-.21-.36-.21-.46s.2-.24.27-.4a1.21,1.21,0,0,0,0-.48s.32-.32.45-.48a7.31,7.31,0,0,1,.54-.6,11,11,0,0,0,.73-1.21c.2-.26.67-.55.93-.9A7.78,7.78,0,0,1,92.5,89c.42-.28,1.58-.82,1.58-.82a1.72,1.72,0,0,0,.27,1c.3.33.69-.26,2-1.19a9.88,9.88,0,0,1,2.31-1.25s.28.42.63.86.67,0,2.27-2.24a30,30,0,0,1,3.59-4,1.89,1.89,0,0,1,.36.16,1.61,1.61,0,0,1-.1.28,12,12,0,0,1-.7,1.41c-.31.64-.8.78-1.34,1.65a4.26,4.26,0,0,0-.68,2.34c0,.88.44,1.06.44,1.06a5.55,5.55,0,0,0-1,1.39,9,9,0,0,0-.37,1.79s-.12,0-.43.66-.83.7-1.59,1.48a8.12,8.12,0,0,1-2,1.34c-.41.23-.3.47-.2.79a2.55,2.55,0,0,0,1.31.87,2.44,2.44,0,0,0,1.32.12c.45,0,.09.34-.1.52a2.56,2.56,0,0,0-.38,1.55c0,.7.57.54,1.24.44a8.37,8.37,0,0,0,1.43-.44l-.07.21a2.2,2.2,0,0,0-.11.91c0,.57.09.86.25,1s.51-.17.75-.23a8.35,8.35,0,0,1,1.22-.45,1.39,1.39,0,0,0,.82-.39,1.06,1.06,0,0,0-.17.6,5,5,0,0,0,0,1.35,2.72,2.72,0,0,0,.77,1.16c.4.36.49.19.78-.27a8.14,8.14,0,0,1,.9-1s0,.15.46,1.46a6.08,6.08,0,0,0,1.73,2.4,6.19,6.19,0,0,0,1.73-2.4c.4-1.31.43-1.46.43-1.46a7.2,7.2,0,0,1,.91,1c.3.46.4.63.8.27a2.79,2.79,0,0,0,.76-1.16,5.41,5.41,0,0,0,.07-1.35,1.1,1.1,0,0,0-.2-.6,1.5,1.5,0,0,0,.82.39,8.15,8.15,0,0,1,1.23.45c.25.06.57.38.75.23s.25-.42.25-1a2.2,2.2,0,0,0-.11-.91l-.07-.21a8.37,8.37,0,0,0,1.43.44c.67.1,1.2.26,1.24-.44a2.49,2.49,0,0,0-.38-1.55c-.19-.18-.54-.54-.1-.52a2.36,2.36,0,0,0,1.3-.12c.66-.25,1.21-.56,1.31-.87s.23-.56-.19-.79a7.76,7.76,0,0,1-2-1.34c-.78-.78-1.33-.87-1.61-1.48s-.42-.66-.42-.66a9,9,0,0,0-.37-1.79,5.51,5.51,0,0,0-1.06-1.39s.51-.18.45-1.06A4.26,4.26,0,0,0,115.9,85c-.55-.87-1-1-1.35-1.65a11.43,11.43,0,0,1-.68-1.41,2.31,2.31,0,0,1-.1-.28c.15-.08.31-.13.47-.2a28.21,28.21,0,0,1,3.6,4c1.6,2.23,1.92,2.68,2.27,2.26s.63-.89.63-.89A10.46,10.46,0,0,1,123.05,88c1.3.93,1.7,1.52,2,1.18a1.22,1.22,0,0,0,.2-.69s.76.23,1.62.53c.52.18,1.09.41,1.53.59a7.14,7.14,0,0,1,2.15,1.45,3.81,3.81,0,0,0,3.43.27c1.22-.38,4.47-1.44,5.76-2A7.51,7.51,0,0,0,142.12,88a4.87,4.87,0,0,0,.28-1.25A1.22,1.22,0,0,0,142,86c-.09-.07,0-.27,0-.44a1.44,1.44,0,0,0-.27-.87c-.2-.23-.18-.32-.15-.94a3.93,3.93,0,0,0-2.26-3.57.45.45,0,0,0-.14-.26,1.1,1.1,0,0,0-.29-.16s0-.77,0-1,.07-.14.16-.1a1.29,1.29,0,0,0,.45.3c.23,0,.37-.11.42-.36a7.94,7.94,0,0,1,.3-1c.09-.24,0-.28-.12-.31s-.43-.06-.58-.11-.16,0-.13-.11.11-.23.3-.53,0-.32-.17-.39-1.06-.32-1.3-.36-.3.16-.3.27,0,.54,0,.7-.14.12-.24.07-.29-.17-.46-.29-.29,0-.36.16-.25.93-.32,1.17,0,.39,0,.42a5,5,0,0,0,.78,0c.26,0,.12.15.12.15l-.38.62c-.07.18-.24.2-.45.2h-.56a5,5,0,0,0-2.44.82A3.93,3.93,0,0,0,132.2,82c-.16.38-.36.3-.52.42s-.6.62-.6.91.1.45-.35.74a1.72,1.72,0,0,0-.21,2.22,7,7,0,0,1,1,1.66c.21.31,0,.44-.14.44s-.49-.27-.78-.48-1.68-1.3-2.28-1.74-.15-.41-.15-.41a1.16,1.16,0,0,0,.5-.12c.34-.15.41-.35.06-.45a4.49,4.49,0,0,1-1.23-.69c-.17-.19-.28-.38.08-.58s1.12-.69.51-.84-1.32-.3-1.92-.46-.65-.34-.65-.34l.39-.56s.32-.45-.05-.5a8.28,8.28,0,0,1-2.07-.52,5,5,0,0,1-3-3.35v0c.31.61,1,1.73,2.09,1.76,1.46,0,1.62-.4,1.29-.88s-.71-.91-.82-1.06-.12-.33.27,0a3.6,3.6,0,0,0,3.3,1.43c2.2-.15,2.19-.56,2.19-.69,0-.42-.44-.49-.71-.76s-.22-.34.21-.16a5.83,5.83,0,0,0,3,0c.59-.13,2.13-.8,2.29-1.58a6,6,0,0,1-1.68-.36c-.68-.28-1.1-.52-.36-.38a6.84,6.84,0,0,0,3.39,0,2.15,2.15,0,0,0,1.67-1.9s-1.36-.3-1.86-.48a2.16,2.16,0,0,1-.65-.31,5.42,5.42,0,0,0,3.68-.27c1.76-.9,1.83-2.1,1.83-2.38a1.1,1.1,0,0,0,0-.38,13.88,13.88,0,0,1-2.79.38,6.23,6.23,0,0,1-1.57-.12s3.35-.1,5-1.12a4.08,4.08,0,0,0,1.79-3,19.69,19.69,0,0,1-3.11.81A12,12,0,0,1,137,66c-.28,0-.45-.11.2-.14a13.28,13.28,0,0,0,4.6-1.29,5.36,5.36,0,0,0,2.36-3.39c.08-.83,0-.69-.64-.3a18.49,18.49,0,0,1-4.44,1.93c-1.51.35-1.83.39-1.83.39s-.52,0,.23-.21M77.44,66.79l-.67.41-.34-.73c-.07-.16,0-.23,0-.23s.38-.08.6-.1l.08,0a4,4,0,0,0,.31.67h0m20.48,12a5.41,5.41,0,0,1-2.33,1.91,8.16,8.16,0,0,1-2.07.53c-.38,0-.06.49-.06.49l.39.55s0,.18-.65.34-1.3.3-1.92.47.18.67.52.85.26.4.07.58a4.1,4.1,0,0,1-1.21.67c-.35.13-.3.31.06.46A9,9,0,0,0,92,86a3.9,3.9,0,0,1-.62.48,4.69,4.69,0,0,1-2.3.78c-.69,0-1.77.07-3.15,0a14,14,0,0,1-1.52-.1s0-.46-.14-1.14a6,6,0,0,0-.82-2.08l-1-1.32s0-.18.06-.4a1.39,1.39,0,0,0-.13-.88,3.66,3.66,0,0,0-1-1s0-.45,0-.87a14.66,14.66,0,0,0-.54-2.82,31.71,31.71,0,0,0-2.08-3.74,10.67,10.67,0,0,1-1.09-3.49,4.71,4.71,0,0,1,0-1.77l.13-.34a3.6,3.6,0,0,0,.93.83c1.68,1,5,1.12,5,1.12a6,6,0,0,1-1.55.12A13.88,13.88,0,0,1,79.38,69a.9.9,0,0,0,0,.38c0,.28.09,1.48,1.83,2.38a5.45,5.45,0,0,0,3.69.27,2.36,2.36,0,0,1-.65.31c-.51.18-1.86.48-1.86.48A2.14,2.14,0,0,0,84,74.68a6.84,6.84,0,0,0,3.39,0c.73-.14.31.09-.37.38a5.86,5.86,0,0,1-1.67.36c.15.78,1.7,1.45,2.28,1.58a5.82,5.82,0,0,0,3,0c.43-.18.35,0,.22.16s-.71.34-.71.76c0,.13,0,.54,2.19.69a3.62,3.62,0,0,0,3.3-1.43c.37-.36.35-.18.26,0s-.48.57-.82,1.06-.16.93,1.3.88c1.07,0,1.77-1.17,2.09-1.77v0a.7.7,0,0,1,.06.09c-.15.35-.38.93-.64,1.41m17.73-47.5-.31-.56a4.94,4.94,0,0,1,1.32,1,2,2,0,0,1,.56,1.13,4,4,0,0,1-.07,1.24,1.5,1.5,0,0,0,0,.93,1.56,1.56,0,0,0,.17.25,5.24,5.24,0,0,0-.7.23c-.36.14-.81.26-1.06,0s-.32-.35-.16-.49a1.44,1.44,0,0,0,.82-1.32,5,5,0,0,0-.59-2.41M111.13,34a3.23,3.23,0,0,0,.13-1.91c-.11-.82-.29-1.53-.34-2.43a3.83,3.83,0,0,1,1.51.95,2.91,2.91,0,0,1,1.07,2c0,.39-.21.88-.23,1.27a1.43,1.43,0,0,0,.09.73,5.66,5.66,0,0,0-.61.34,1.3,1.3,0,0,1-.93.31,2.17,2.17,0,0,1-1-.36,1.26,1.26,0,0,0-.42-.16,1.66,1.66,0,0,0,.7-.77m-4.29-3.39a3.85,3.85,0,0,1,1.5-.95,22.32,22.32,0,0,1-.32,2.43,3.17,3.17,0,0,0,.12,1.91,1.78,1.78,0,0,0,.7.77,1.63,1.63,0,0,0-.42.16,2.17,2.17,0,0,1-1,.36,1.28,1.28,0,0,1-.93-.31c-.3-.19-.61-.34-.61-.34a1.83,1.83,0,0,0,.1-.73c0-.39-.24-.88-.24-1.27a3,3,0,0,1,1.07-2m-3.16,4.87c-.24.21-.71.09-1,0a6.83,6.83,0,0,0-.72-.23,1.25,1.25,0,0,0,.18-.25,1.5,1.5,0,0,0,0-.93,3.68,3.68,0,0,1-.07-1.24,2,2,0,0,1,.55-1.13,5.13,5.13,0,0,1,1.31-1s-.09.19-.3.56A4.9,4.9,0,0,0,103,33.7a1.42,1.42,0,0,0,.82,1.31c.14.14.07.28-.17.49m11.7,8.44c-.86.47-1.36.36-1.32.72s.8.62.8.62a9.57,9.57,0,0,1-1.4,1.24,6.87,6.87,0,0,1-1.33.63s-.25,0-.12.43a1.46,1.46,0,0,0,.58.76l.3.14A19.05,19.05,0,0,1,111.34,50a4.11,4.11,0,0,1-1.13.65c-.38.16-.19.8-.11,1.08a1.4,1.4,0,0,0,.62.73c.2.06.27.2,0,.59s-.81,1.06-1.1,1.49h0c-.29-.42-.91-1.21-1.11-1.49s-.17-.53,0-.59a1.36,1.36,0,0,0,.62-.73c.08-.28.27-.92-.11-1.08a4,4,0,0,1-1.13-.65,19.05,19.05,0,0,1-1.55-1.52l.29-.14a1.41,1.41,0,0,0,.58-.76c.15-.39-.1-.43-.1-.43a7,7,0,0,1-1.35-.63,10.9,10.9,0,0,1-1.4-1.24s.78-.28.81-.62-.46-.25-1.33-.72a2.75,2.75,0,0,1-1.14-1.08,2.85,2.85,0,0,0,1.49-1.35,1.84,1.84,0,0,0,.21-1l0,0a18.6,18.6,0,0,0,10.32,0l0,0a1.8,1.8,0,0,0,.19,1,2.93,2.93,0,0,0,1.51,1.35,2.74,2.74,0,0,1-1.15,1.08"/><path id="_Path_3" data-name="&lt;Path&gt;" class="cls-4" d="M97.64,45.32a5.77,5.77,0,0,0-2.22-.67,6.81,6.81,0,0,0-2.53.28,2.74,2.74,0,0,1-1.52,0A2,2,0,0,1,90,43.39a1.47,1.47,0,0,0,0,1.73,2,2,0,0,0,1.15.78c1.36.27,2.69-.56,3.82-.63a3.22,3.22,0,0,1,2,.61.51.51,0,0,0,.61,0c.37-.19.47-.37.14-.56"/><path id="_Path_4" data-name="&lt;Path&gt;" class="cls-4" d="M129.32,43.39A2.07,2.07,0,0,1,127.9,45a2.74,2.74,0,0,1-1.52,0,6.86,6.86,0,0,0-2.53-.28,5.77,5.77,0,0,0-2.21.67c-.34.2-.24.37.13.56a.53.53,0,0,0,.62,0,3.14,3.14,0,0,1,1.94-.61c1.14.07,2.46.89,3.82.63a2,2,0,0,0,1.15-.79,1.46,1.46,0,0,0,0-1.72"/><path id="_Path_5" data-name="&lt;Path&gt;" class="cls-3" d="M120.65,63.4A8.19,8.19,0,0,1,121.88,59l-3.39-3.88c-3.23,1.25-6.2,1.32-8.85,0-2.63,1.34-5.61,1.27-8.84,0L97.4,59a8.15,8.15,0,0,1,1.24,4.43,23.7,23.7,0,0,1-.83,6A10.46,10.46,0,0,0,98,75a7,7,0,0,0,4.47,4.55c3,1.27,4.6,1.93,5.65,2.8a10.57,10.57,0,0,1,1.57,1.58,10.84,10.84,0,0,1,1.59-1.58c1-.87,2.62-1.53,5.64-2.8A7,7,0,0,0,121.33,75a10.26,10.26,0,0,0,.14-5.53,24.26,24.26,0,0,1-.82-6"/><path id="_Path_6" data-name="&lt;Path&gt;" class="cls-3" d="M94.57,85.07a14.69,14.69,0,0,1-1.45.62,2,2,0,0,1-.43.1,9.12,9.12,0,0,1-1.3,1,5.06,5.06,0,0,1-1.89.65c-.85.09-3.21.06-4.28,0a2.5,2.5,0,0,0-2.16.73,1.25,1.25,0,0,0,0,1.81.91.91,0,0,0,1.44-.07,1.1,1.1,0,0,0,0-1c-.09-.2.19-.26.48-.28a5.88,5.88,0,0,1,2.85.62c.35.18.15.21-.09.17a5.27,5.27,0,0,1-.93-.3,3.57,3.57,0,0,0-1.06-.24c-.27,0-.17.12-.12.21a4.5,4.5,0,0,1,.23.43,1.34,1.34,0,0,1-.08.52l.13.25s.16-.25.23-.39,0-.39,0-.51.29-.12.47.09a1.68,1.68,0,0,1,.45,1,1.49,1.49,0,0,1-.07.86,1.06,1.06,0,0,1,.25.3,2.47,2.47,0,0,1-.05.61s.14.08.28-.18a7.92,7.92,0,0,0,.33-1c0-.18.16-.51.38-.25a1.62,1.62,0,0,1,.39.68.86.86,0,0,1,0,.26,5.15,5.15,0,0,0,.64-.73,5.42,5.42,0,0,1,.94-1c.47-.38,1.25-1.13,1.65-1.39s1.36-.78,1.68-1,.36-.2.42-.72a5.21,5.21,0,0,1,.42-1.36,3,3,0,0,0,.15-.5"/><path id="_Path_7" data-name="&lt;Path&gt;" class="cls-3" d="M93.72,84.66l-.33,0a4.56,4.56,0,0,1-.71-.23.36.36,0,0,0-.42.07,12,12,0,0,1-1.11.71h1.63a1.29,1.29,0,0,0,.94-.53"/><path id="_Path_8" data-name="&lt;Path&gt;" class="cls-3" d="M98.27,84.4v-.17l-.21-.47a3.72,3.72,0,0,0-.51.41c-.3.33-.65.8-.8,1-.27.36-.65.69-.32.13a13.18,13.18,0,0,1,.69-1.16c.26-.36.45-.53.42-.55a5.45,5.45,0,0,0-.92-.14,3.48,3.48,0,0,1-1.41-.53c-.3-.18-.87-.48-.87-.48a16.15,16.15,0,0,1-1.59.58c-.43.11-.69.17-.27.39s.78.28,1,.4a3.15,3.15,0,0,0,1.23.33c.39,0,1.06,0,.8.28A4.48,4.48,0,0,0,94.65,86a5.5,5.5,0,0,0-.3,1.84,4.71,4.71,0,0,0,.06.69,8.4,8.4,0,0,1,1.73-1.33c1.28-.8,1.75-1.07,2-1.18s.36-.11.32-.4-.18-1.06-.18-1.2"/><path id="_Path_9" data-name="&lt;Path&gt;" class="cls-3" d="M103.14,80.53l-.25-.11,0,0a4,4,0,0,0-1.24,1.08c-.32.52-.63.57-.28,0a4.72,4.72,0,0,1,.86-1.08c.1-.1.2-.17.26-.23a19.18,19.18,0,0,1-2-1.12,2.73,2.73,0,0,1-.43.66,3.13,3.13,0,0,1-.86.52,3.91,3.91,0,0,0,.64-.86,2.8,2.8,0,0,0,.2-.66,9.21,9.21,0,0,1-1.29-1.22,4.47,4.47,0,0,1-1.09,2,7.34,7.34,0,0,1-3,1.69s-.7.07-.13.22a3.53,3.53,0,0,0,2.07.21,7.84,7.84,0,0,0,1.32-.28c.16,0,.57,0,0,.19a7.43,7.43,0,0,1-2.33.36c-.49,0-1.17-.14-.45.22a2.9,2.9,0,0,0,1.43.53c.43,0,.61.13,1,.13a3.15,3.15,0,0,0,.84-.13c.3,0,.49,0,.49.16a2.46,2.46,0,0,0-.39,1.28,7,7,0,0,0,.14,1.58,6.53,6.53,0,0,0,.39.85c.12.23.15.45.28,0s.38-1.16.49-1.63.16-.46.2-.71.3-.41.18,0-.26,1-.34,1.37-.29,1.1.07.53,1.7-2.07,1.91-2.33.41-.53.57-.75.64-.52.86-.85a8.2,8.2,0,0,1,1-1.08c-.38-.17-.78-.33-1.19-.52"/><path id="_Path_10" data-name="&lt;Path&gt;" class="cls-3" d="M77,65.42c0-.09-.21-.41-.24-.57s-.21-.07-.21-.07a3.31,3.31,0,0,1-.59.28c-.27.07-.31,0-.34-.17s-.08-.55-.13-.85-.1-.27-.21-.22l-.65.25c-.22.11-.15.21-.08.33s.32.66.44.85,0,.26-.13.32-.33.09-.58.19-.26.14-.23.24a3.77,3.77,0,0,0,.3.62c.1.17.18.06.18.06a3.55,3.55,0,0,1,.53-.38c.24-.12.25-.09.32.1s.34,1.12.39,1.29.15.17.28.11l.43-.12c.15-.05.2-.32.2-.32L76,66.16c-.13-.24,0-.29.12-.32a4.38,4.38,0,0,0,.67-.12c.28-.06.21-.22.21-.3"/><path id="_Path_11" data-name="&lt;Path&gt;" class="cls-3" d="M83,91.16c0-.23,0-.46-.18-.63a2.3,2.3,0,0,1-.47-.79c-.08-.3.08-.43,0-.6s-.23-.15-.45,0a1,1,0,0,0-.5.85,1.26,1.26,0,0,0,.9,1.32c.72.22.69,0,.66-.17"/><path id="_Path_12" data-name="&lt;Path&gt;" class="cls-3" d="M83.69,90.92s-.15-.09-.21,0-.06.21.13.51a1.33,1.33,0,0,0,.52.49c.21.14.07-.14,0-.21s0-.19,0-.25-.09-.16-.09-.37-.35-.2-.35-.2"/><path id="_Path_13" data-name="&lt;Path&gt;" class="cls-3" d="M84.56,93.34a1.13,1.13,0,0,1,.58-.41,3.71,3.71,0,0,1,1.12-.24.8.8,0,0,0,.57-.8.73.73,0,0,0-.61-.62c-.26,0-.49,0-.56.06a1,1,0,0,1-.51.39,4,4,0,0,0-.49.23c-.18,0,0,.17-.2.28s-.33,0-.57-.07a1.21,1.21,0,0,0-.5-.1L82.47,92h-.16c-.16,0-.18,0-.24.18a1,1,0,0,0,.17.77c.16.21.69.3,1,.41s.53.14.82.2.34,0,.47-.2"/><path id="_Path_14" data-name="&lt;Path&gt;" class="cls-3" d="M87.8,93.66c.29-.2.13-.52.06-.72s-.45-.24-.65-.24a.55.55,0,0,0-.42.1,1.31,1.31,0,0,1-.53.32c-.31.1-.54.21-.94.36s-.52.43-.7.55a.77.77,0,0,1-.49,0s-.25-.07-.33,0,0,.18.16.38.47.14.82.25.41,0,.54-.06a4.42,4.42,0,0,1,.48-.46,3,3,0,0,1,1-.18,2.57,2.57,0,0,0,1-.3"/><path id="_Path_15" data-name="&lt;Path&gt;" class="cls-3" d="M87.8,92.44c.13.11.27.25.37.08s.28-.54.16-.76a3.75,3.75,0,0,0-.26-.39s-.21.61-.3.78-.08.17,0,.29"/><path id="_Path_16" data-name="&lt;Path&gt;" class="cls-3" d="M86.72,90.59a2,2,0,0,0-.23-.78,3.64,3.64,0,0,1-.22.61,2.69,2.69,0,0,1-.31.43,3.87,3.87,0,0,0,.48.08c.15,0,.28,0,.28-.34"/><path id="_Path_17" data-name="&lt;Path&gt;" class="cls-3" d="M84.73,91.33a1.46,1.46,0,0,0,.72-.38.67.67,0,0,0,.16-.68,1,1,0,0,0-.48-.38h-.21a1.93,1.93,0,0,1-.26.53c-.14.17-.32.28-.3.51s0,.48.37.4"/><path id="_Path_18" data-name="&lt;Path&gt;" class="cls-3" d="M85.49,89.62a.68.68,0,0,0-.18-.49,1.82,1.82,0,0,1-.19-.2s0,.27-.07.42,0,.17,0,.17a1.44,1.44,0,0,0,.21.16c.09,0,.25.12.27-.06"/><path id="_Path_19" data-name="&lt;Path&gt;" class="cls-3" d="M80.86,80.11s.44,0,.24-1.59a10.18,10.18,0,0,0-1.65-4.1,20.52,20.52,0,0,1-1.64-3.53,10.37,10.37,0,0,1-.48-2.65,1.55,1.55,0,0,1,.27-1s.1-.16,0-.26-.28,0-.46.15a2.26,2.26,0,0,0-.41.7,1.2,1.2,0,0,0-.07.31,2.72,2.72,0,0,0-.87,0c-.54,0-.8.1-.82.2s.07.2.46.37a2.27,2.27,0,0,1,.83.47,8.21,8.21,0,0,1,.85,1.95,23.55,23.55,0,0,1,.6,3.25,13.19,13.19,0,0,0,1.1,3.84c.19.39,1.19,2.26,2,1.89"/><path id="_Path_20" data-name="&lt;Path&gt;" class="cls-3" d="M81.83,82.89c-.37.2-.35,1.7-.18,2.48a5.6,5.6,0,0,0,1.14,2c.24.27.29.27.42.2a.46.46,0,0,1,.18-.06,3.26,3.26,0,0,0,.56-.3c.25-.21.15-.69.11-1.09a6.46,6.46,0,0,0-1-2.26c-.58-1-.88-1.17-1.25-1"/><path id="_Path_21" data-name="&lt;Path&gt;" class="cls-3" d="M82.24,81.68a.88.88,0,0,0-.9-.86.78.78,0,0,0-.56.17c-.51.46-.2,1.57.51,1.57a1.1,1.1,0,0,0,.75-.23.91.91,0,0,0,.2-.65"/><path id="_Path_22" data-name="&lt;Path&gt;" class="cls-3" d="M89.32,95.73a1.36,1.36,0,0,1-.59-.3,2.83,2.83,0,0,1-.84-.8c-.09-.19-.09-.19-.35-.1a4.44,4.44,0,0,1-1,.07c-.3,0,0,.36.24.67A3.25,3.25,0,0,1,87,96.62a.84.84,0,0,1,0,.24c0,.15,0,.25.06.29s.13,0,.34-.28a8.32,8.32,0,0,0,.58-.87l.38.1A2.73,2.73,0,0,0,89.38,96c.26-.08.14-.27-.06-.31"/><path id="_Path_23" data-name="&lt;Path&gt;" class="cls-3" d="M88.09,96.53c-.13,0-.2,0-.27.07a2.21,2.21,0,0,0-.16.35.2.2,0,0,0,0,.24l.2.15a.92.92,0,0,0,.23.18c.12.07.14-.11.14-.23s.07-.36.07-.52-.12-.21-.26-.24"/><path id="_Path_24" data-name="&lt;Path&gt;" class="cls-3" d="M84.57,46.1A9.67,9.67,0,0,0,86,49.33c.52.84.65,1.19.58,1.23s-.3-.37-.61-.75-.82-1.24-1.28-1.9a25.92,25.92,0,0,1-1.25-2.38c-.08-.16-.11-.25-.35-.05A3.81,3.81,0,0,0,83,48.57,10.13,10.13,0,0,0,84.66,51c.35.42.79,1.06.72,1.12s-.19-.12-.6-.55-1.1-1.16-1.54-1.69a11.79,11.79,0,0,1-1-1.64c-.06-.12-.15-.08-.21,0s-.38.48-.28,1.42a4.51,4.51,0,0,0,1.43,2.72c.6.66,1.21,1.22,1.12,1.31s-.71-.47-1.14-.87-1.48-1.44-1.72-1.72-.56-.15-.55,1,1.27,2.26,1.79,2.91,1.15,1,1.1,1.1-.57-.19-.91-.42S81.23,54.6,81,54.43s-.37.16-.06,1.23A4.89,4.89,0,0,0,82.74,58c.54.4,1.44.88,1.39,1s-.42,0-.95-.27a10.67,10.67,0,0,0-1.59-.61c-.45-.13-.44.2-.44.2a2.31,2.31,0,0,0,.57,1.64,3.56,3.56,0,0,0,2.12,1.14c.71.12.82.16.8.28s-.09.12-.25.12-.81.07-1.42.07-.92.14-.92.41,0,.62.88,1.23a6.34,6.34,0,0,0,2.35.8c.44.08.45.11.37.24s-.29.11-1,.18a1.58,1.58,0,0,0-1.18.51,1.14,1.14,0,0,0,.61,1.1,3.62,3.62,0,0,0,2.34.42c1.07-.06,1.34-.09,1.37.1s-.32.23-.85.31a2.54,2.54,0,0,0-1.25.36c-.3.24-.07.74.44,1.13a5,5,0,0,0,2.34.34c.53,0,1.36-.24,1.42-.1s-.4.36-1,.56-.71.31-.83.56,0,.44.65.69a3.09,3.09,0,0,0,2.12,0c.5-.24.77-.32.86-.24s0,.18-.1.31a2.44,2.44,0,0,1-1.09.6c-.56.15-.62.15-.82.6s.31.8,1.31.84a6.34,6.34,0,0,0,2.77-.62c.43-.24.58-.29.66-.2s0,.14-.16.3a6.06,6.06,0,0,1-1.23.73.51.51,0,0,0-.38.58c0,.22-.09.69.81.9a3.54,3.54,0,0,0,2.9-.62A2.37,2.37,0,0,0,97,73a7.05,7.05,0,0,1,.08-2.12,3.2,3.2,0,0,1-.92-.21,1.7,1.7,0,0,1-.87-1c-.13-.27-.31-.27-.53-.19a1.74,1.74,0,0,1-.72.14,2.14,2.14,0,0,1-1.42-.73,1.93,1.93,0,0,1-.39-1.35c0-.28-.44-.07-.66-.07A2.9,2.9,0,0,1,90.2,67a1.48,1.48,0,0,1-.63-1.13.7.7,0,0,0-.46-.44,2.59,2.59,0,0,1-.86-.46,1.84,1.84,0,0,1-.55-1.16c0-.21-.26-.23-1-.65a1.48,1.48,0,0,1-.71-1.6c0-.35.4-.63.4-.76s-.26-.15-.53-.32a1.53,1.53,0,0,1-1-1.43c0-1,.65-1.11.65-1.11a2.73,2.73,0,0,1-.39-.21c-.27-.16-1-.66-1-1.25a1.15,1.15,0,0,1,.46-1,3.92,3.92,0,0,1,.74-.27,1.3,1.3,0,0,1-.49-.68,1.27,1.27,0,0,1,1.37-1.86c.3,0,.55.16.67.06s.12-.16,0-.39a1.54,1.54,0,0,1,0-1,1.13,1.13,0,0,1,.87-.85,2.39,2.39,0,0,1,1.83.42c.25.13.14-.2.14-.45a8.79,8.79,0,0,0-1.1-1.77A17.28,17.28,0,0,1,87.06,46a16.4,16.4,0,0,1-1.18-3.55c-.09-.44-.27-.23-.27-.23s-.17.06-.59,1.1a6.79,6.79,0,0,0-.45,2.81"/><path id="_Path_25" data-name="&lt;Path&gt;" class="cls-3" d="M98,64.37a2,2,0,0,1-1.51-1c-.46-.66-1.16-.83-2.35-.8a1.88,1.88,0,0,1-2.05-1.38,1.92,1.92,0,0,1,1.27-2.37c1.22-.61,1.77-1.26,1.82-2.3S94,54.25,92.73,52.79a17.69,17.69,0,0,1-2.24-3.5,2,2,0,0,0-.37,1c0,.48.17,1,0,1.13s-.26-.21-1-.54-1.35-.36-1.8.18,0,1.44.41,1.88.76.76.65.92-.73-.25-1-.39a1.91,1.91,0,0,0-1.4-.59c-.72.06-1,.27-1,.86s.64,1.13,1.1,1.36.65.44.52.52-.22,0-.43-.06a2.25,2.25,0,0,0-1.16,0c-.36.14-1,.63-.4,1.27a3.9,3.9,0,0,0,1.93.9c.22,0,.35,0,.36.16s-.48.18-1.09.2a.82.82,0,0,0-.71,1.08c.09.47,1.13,1,1.7,1.06s.78,0,.83.16-.07.23-.4.34-.94.15-1.06.66a1,1,0,0,0,.35,1.17,1.8,1.8,0,0,0,1.49.32c.23,0,.51-.3.73-.06s-.19.41-.59.69-.38.8.29,1.16a2,2,0,0,0,1.62.14c.28-.08.64-.51.82-.25s-.57.37-.89.76-.2,1,.43,1.43a2.18,2.18,0,0,0,1.89,0c.19-.17.41-.23.55-.1s-.06.51-.21.83a1.16,1.16,0,0,0,.58,1.64,2,2,0,0,0,2-.63.41.41,0,0,1,.47-.11c.14.07.07.21,0,.37A1,1,0,0,0,96,70a1.71,1.71,0,0,0,1.27.26c.14-.53.33-1.11.53-1.93h-.15c-.1,0-.11.15-.11.2s0,.1-.06.1-.09,0-.21.13S97,69,97,68.92s.24-.23.33-.32.24-.26.25-.37.07-.19.24-.31a1.58,1.58,0,0,0,.12-.15c.11-.54.22-1.16.32-1.93.07-.51.09-1,.11-1.46Z"/><path id="_Path_26" data-name="&lt;Path&gt;" class="cls-3" d="M78.39,50a10.65,10.65,0,0,0,2.48,3.25s-.18-.52-.27-.87a2.17,2.17,0,0,1,0-.77s-.37-.46-1-1.49a9.32,9.32,0,0,1-1-2.57,21.79,21.79,0,0,0,1.1,2.34,13.1,13.1,0,0,0,1,1.47s.2-.71.34-.76.25.08.37.25.22.14.22.14a8.43,8.43,0,0,0-.42-.76c-.11-.19-.27-.38-.39-.58a14.45,14.45,0,0,1-1.65-2.9c-.42-1.15-1.35-4-1.5-4.88s-.33-.38-.49.25A7,7,0,0,0,76.91,45,14.2,14.2,0,0,0,78.39,50"/><path id="_Path_27" data-name="&lt;Path&gt;" class="cls-3" d="M79.72,55.64c.38.28.94.66.94.66a4.89,4.89,0,0,1-.14-.47,5.32,5.32,0,0,1-.08-.76l-.77-.66a12.16,12.16,0,0,1-1.48-1.59c-.79-1-.16-.4.48.3a24.8,24.8,0,0,0,1.85,1.69v-.22a.93.93,0,0,1,.2-.5c.11-.14,0-.16-.64-.7a19.62,19.62,0,0,1-3.19-3.71c-.72-1.18-1.51-2.81-1.51-2.81a8.51,8.51,0,0,0,1.07,5,10.17,10.17,0,0,0,3.27,3.76"/><path id="_Path_28" data-name="&lt;Path&gt;" class="cls-3" d="M87.33,70.65a.93.93,0,0,0,.58-1.11s-.49.16-.94.32a10.59,10.59,0,0,1-2,.51c-.44,0-.44-.05-.45-.12s.34,0,1-.12a7.85,7.85,0,0,0,1.92-.82c.19-.13.17-.15-.11-.19a1.25,1.25,0,0,1-.64-.23c-.1-.09-.39,0-1.11.2a17,17,0,0,1-3.34.42,13.31,13.31,0,0,1-2.38-.22c-.2,0-.38.06.17,1s2.48,1.42,3.83,1.41a10.16,10.16,0,0,0,3.49-1"/><path id="_Path_29" data-name="&lt;Path&gt;" class="cls-3" d="M83.75,68.73a3.19,3.19,0,0,0,1.91-.39s0-.07-.19-.36a1.41,1.41,0,0,1-.15-.76l-.91.14a6,6,0,0,1-2,0c-.74-.12-.43-.19.17-.14A6.48,6.48,0,0,0,84.67,67c.36-.12.22-.25,0-.33a7.39,7.39,0,0,1-.91-.51,15.48,15.48,0,0,1-3.26,0,15.94,15.94,0,0,1-2.86-.63c-.32,0-.3.09-.3.09s-.09.14.45,1a4.45,4.45,0,0,0,2.49,1.67,12.63,12.63,0,0,0,3.51.44"/><path id="_Path_30" data-name="&lt;Path&gt;" class="cls-3" d="M83.4,65.48a1.27,1.27,0,0,1-.14-.36.54.54,0,0,1,.15-.5,11.92,11.92,0,0,0-1.35-.22,10,10,0,0,1-1.73-.35c-.64-.14-1.07-.32-1-.39s.22,0,.59.16a22.26,22.26,0,0,0,2.63.41,3.44,3.44,0,0,0,1.17.09,3.65,3.65,0,0,1,.53-.18L83.56,64a2.15,2.15,0,0,1-.86-.34c-.19-.12-.25-.17-1.1-.26a12.89,12.89,0,0,1-3-.92,13.49,13.49,0,0,1-3-1.46c-.31-.25-.28-.07-.19.25a3,3,0,0,0,.83,1.62,5.57,5.57,0,0,0,3.08,2,11.91,11.91,0,0,0,4.09.61"/><path id="_Path_31" data-name="&lt;Path&gt;" class="cls-3" d="M77.69,60.79a10.67,10.67,0,0,0,4.13,1.69c.1-.11-.1-.51,0-.74s.28-.3.69-.32.14-.12,0-.12a4.13,4.13,0,0,1-.81-.19,18.38,18.38,0,0,1-2.3-.63c-1-.36-1.23-.61-1.2-.68s.43.23,1.3.55a16.9,16.9,0,0,0,2.44.58c.55.12.07-.13-.19-.28a2.8,2.8,0,0,1-.63-.71s-.6-.11-1.61-.41a13.47,13.47,0,0,1-2.68-1.12c-.27-.17-.56-.38-.86-.59-.57-.41-1.14-.84-1.36-1s-.24,0-.2.11a5.64,5.64,0,0,0,.81,1.63,7.16,7.16,0,0,0,2.42,2.22"/><path id="_Path_32" data-name="&lt;Path&gt;" class="cls-3" d="M77.4,57.4a12.2,12.2,0,0,0,3.39,1.87c.24.1.21-.05.17-.19s-.09-.6-.09-.6l-1.27-.73c-.66-.39-1.41-.92-1.9-1.27s-.2-.32,0-.18.84.53,1.52.94,1.73,1,1.73,1a.67.67,0,0,1,.16-.37c.14-.13.49-.1.49-.1a2.38,2.38,0,0,1-.28-.34A5.68,5.68,0,0,0,80,56.83,15.11,15.11,0,0,1,77.42,55c-.81-.7-2.43-2.45-2.53-2.58s-.17-.12-.19.06a2.41,2.41,0,0,0,.11,1.09,7.36,7.36,0,0,0,2.59,3.8"/><path id="_Path_33" data-name="&lt;Path&gt;" class="cls-3" d="M83.37,44.82c.19.39.39.69.54,1a5.62,5.62,0,0,1,.36.63.73.73,0,0,0,0-.37,2.92,2.92,0,0,1,0-.94,2.18,2.18,0,0,0,.06-.6,2,2,0,0,0-.11-.52c0-.21-.3-1.2-.42-1.88a16.42,16.42,0,0,1-.22-2.57c0-.87.14-.43.14,0a14.71,14.71,0,0,0,.17,2.06,23,23,0,0,0,.56,2.53,2.91,2.91,0,0,1,.15-.57c.13-.32.34-.72.5-1.13s.11-.49.11-.49-.6-2.81-.75-4.15-.4-4.86-.4-4.86c-.87.89-1.51,3.17-1.63,5.33A18.68,18.68,0,0,0,82.69,42a9.35,9.35,0,0,0,.68,2.83"/><path id="_Path_34" data-name="&lt;Path&gt;" class="cls-3" d="M81.44,49.28c0-.64.18-1.13.6-1.27a9.56,9.56,0,0,1-.7-1.55,12.8,12.8,0,0,1-.48-2c-.23-1.52-.41-3.07,0-.52a10.42,10.42,0,0,0,1,3.45l.64,1.07a4.35,4.35,0,0,1-.08-1.31,7.17,7.17,0,0,1,.25-1.74,19.72,19.72,0,0,1-1.29-3.48,22,22,0,0,1-.81-4.67c0-1-.05-1.38-.05-1.38s-.82.62-1.08,3.71a18.21,18.21,0,0,0,.94,7.2c.41,1.12,1,2.53,1,2.53"/><path id="_Path_35" data-name="&lt;Path&gt;" class="cls-3" d="M90.31,72.9s-.11-.09-.49-.33-.28-1-.28-1a3.68,3.68,0,0,1-.39.28,4.83,4.83,0,0,1-1,.56,8.72,8.72,0,0,1-.83.34c-.24.07-.17,0,0-.14a4,4,0,0,1,.78-.39,8.38,8.38,0,0,0,1.53-1.1,6.23,6.23,0,0,0-.67,0,3.92,3.92,0,0,1-1-.24A9.33,9.33,0,0,1,85.93,72a13.16,13.16,0,0,1-3.15.93,1.69,1.69,0,0,0,1,1.17,5.25,5.25,0,0,0,3.46,0,11.64,11.64,0,0,0,3.07-1.21"/><path id="_Path_36" data-name="&lt;Path&gt;" class="cls-3" d="M92.56,74.65a1.6,1.6,0,0,0-.27-1.23,3.53,3.53,0,0,0-.34.29,5.21,5.21,0,0,1-1.36,1c-.7.36-1,.33-.28,0A9.58,9.58,0,0,0,92,73.27l-.27-.1c-.27-.11-.74.08-2.66,1.22a7.33,7.33,0,0,1-3,1.21s.86,1,3.19,1,3.18-1.2,3.32-1.91"/><path id="_Path_37" data-name="&lt;Path&gt;" class="cls-3" d="M97,73.82a2.86,2.86,0,0,1-.6.58,4.65,4.65,0,0,1-1.27.38,1.19,1.19,0,0,1-.22.33,6.19,6.19,0,0,1-1,1.08c-.4.29-1,.49-1.09.4s.37-.22.78-.46a5.19,5.19,0,0,0,1-1c.27-.3-.12-.25-.12-.25a8.27,8.27,0,0,1-.93,0c-.45,0-.36,0-.48.22a6.4,6.4,0,0,1-.65.79c-.4.47-.79.9-1.17,1.37-.27.3-.07.39-.07.39s.12.19,1.15.31a3.25,3.25,0,0,0,2.06-.43,6.19,6.19,0,0,0,1.4-1.2A3.69,3.69,0,0,0,97,73.82"/><path id="_Path_38" data-name="&lt;Path&gt;" class="cls-3" d="M97.51,76.62a4.05,4.05,0,0,1-.38.48,5.85,5.85,0,0,1,.33-.81,4.37,4.37,0,0,1,.25-.36,4.84,4.84,0,0,1-.42-1.25,11.93,11.93,0,0,1-.92,2.17c-.53.85-1,1.15-.71,1.39a1.6,1.6,0,0,0,1.59,0,1.72,1.72,0,0,0,.94-1.34,5.88,5.88,0,0,1-.32-.56,1.57,1.57,0,0,0-.36.33"/><path id="_Path_39" data-name="&lt;Path&gt;" class="cls-3" d="M136.54,58a4.72,4.72,0,0,0,1.81-2.32c.32-1.07.2-1.41-.06-1.23s-1.51,1-1.85,1.23-.85.54-.91.42.59-.49,1.11-1.1,1.77-1.79,1.78-2.91-.33-1.28-.56-1-1.28,1.3-1.7,1.72-1.06.95-1.14.87.51-.65,1.1-1.31a4.48,4.48,0,0,0,1.45-2.72c.1-.94-.14-1.27-.29-1.42a.12.12,0,0,0-.21,0,10.91,10.91,0,0,1-1,1.64c-.44.53-1.11,1.26-1.52,1.69s-.54.59-.62.55.39-.7.72-1.12a9.88,9.88,0,0,0,1.67-2.44,3.88,3.88,0,0,0-.13-3.09c-.24-.2-.28-.09-.36.05a25.23,25.23,0,0,1-1.24,2.38c-.46.66-1,1.53-1.31,1.9s-.48.81-.58.75.05-.39.57-1.23a9.48,9.48,0,0,0,1.47-3.23,6.79,6.79,0,0,0-.45-2.81c-.41-1-.58-1.1-.58-1.1s-.19-.21-.27.23A18.31,18.31,0,0,1,132.23,46a18.51,18.51,0,0,1-1.52,2.72,8.31,8.31,0,0,0-1.1,1.77c0,.25-.12.58.13.45a2.42,2.42,0,0,1,1.83-.42c.77.26.78.64.87.85a1.76,1.76,0,0,1,0,1c-.11.23-.09.31,0,.39s.37-.06.69-.06a1.51,1.51,0,0,1,1.21.41,1.55,1.55,0,0,1,.13,1.45,1.22,1.22,0,0,1-.47.68,3.45,3.45,0,0,1,.73.27,1.18,1.18,0,0,1,.47,1c0,.59-.74,1.09-1,1.25a4.22,4.22,0,0,1-.4.21s.66.11.64,1.11a1.51,1.51,0,0,1-1,1.43c-.27.17-.54.2-.54.32s.37.41.41.76a1.43,1.43,0,0,1-.69,1.6c-.81.42-1,.44-1.06.65A1.89,1.89,0,0,1,131,65a2.39,2.39,0,0,1-.85.46.71.71,0,0,0-.47.44,1.49,1.49,0,0,1-.62,1.13,2.9,2.9,0,0,1-1.42.5c-.21,0-.63-.21-.66.07a1.85,1.85,0,0,1-.4,1.35,2,2,0,0,1-1.41.73,1.71,1.71,0,0,1-.72-.14c-.21-.08-.39-.08-.51.19a1.76,1.76,0,0,1-.88,1,3.38,3.38,0,0,1-.91.21,7.5,7.5,0,0,1,.06,2.12,2.21,2.21,0,0,0,.6.56,3.54,3.54,0,0,0,2.91.62c.9-.21.8-.68.8-.9s0-.49-.38-.58a6.06,6.06,0,0,1-1.23-.73c-.2-.16-.23-.22-.16-.3s.24,0,.67.21a6.48,6.48,0,0,0,2.76.61c1,0,1.5-.39,1.3-.84s-.25-.45-.8-.6a2.38,2.38,0,0,1-1.09-.6c-.11-.13-.19-.2-.11-.31s.37,0,.86.24a3.12,3.12,0,0,0,2.13,0c.65-.25.74-.46.63-.69s-.26-.35-.81-.56-1-.41-.95-.56.87.06,1.41.1a4.73,4.73,0,0,0,2.33-.34c.53-.39.77-.89.45-1.13a2.64,2.64,0,0,0-1.24-.36c-.54-.08-.9-.14-.87-.31s.3-.16,1.39-.1a3.67,3.67,0,0,0,2.34-.42,1.16,1.16,0,0,0,.61-1.1,1.57,1.57,0,0,0-1.19-.51c-.67-.07-.87-.06-1-.18s-.08-.16.35-.24a6.32,6.32,0,0,0,2.36-.8c.91-.61.9-1,.9-1.23s-.33-.41-.94-.41-1.27-.07-1.42-.07-.24,0-.26-.12.08-.16.81-.28a3.58,3.58,0,0,0,2.13-1.14,2.35,2.35,0,0,0,.58-1.64s0-.33-.46-.2a11.11,11.11,0,0,0-1.59.61c-.51.25-.89.4-.94.27s.84-.59,1.38-1"/><path id="_Path_40" data-name="&lt;Path&gt;" class="cls-3" d="M134.23,55.53a2.22,2.22,0,0,0-1.15,0c-.2.06-.31.16-.44.06s.08-.29.53-.52,1.19-.75,1.12-1.36-.33-.8-1-.86a2,2,0,0,0-1.4.59c-.2.14-.82.55-.93.39s.21-.48.63-.92.88-1.37.41-1.88-1-.5-1.79-.17-.81.66-1,.53,0-.65,0-1.13a1.94,1.94,0,0,0-.38-1,18,18,0,0,1-2.25,3.5c-1.25,1.46-2.53,2.74-2.49,3.78s.6,1.69,1.83,2.3,1.57,1.55,1.26,2.37a1.88,1.88,0,0,1-2.05,1.38c-1.19,0-1.88.14-2.34.8a2,2,0,0,1-1.52,1h-.3c0,.46.06,1,.12,1.46.1.77.2,1.39.32,1.93a1.43,1.43,0,0,0,.11.15c.18.12.23.2.24.31s.17.27.26.37.39.26.33.32-.18-.06-.3-.15-.13-.13-.23-.13,0,0,0-.1,0-.2-.11-.2h-.14c.18.82.37,1.4.51,1.93a1.7,1.7,0,0,0,1.27-.26,1,1,0,0,0,.32-1.33c-.12-.16-.18-.3,0-.37a.39.39,0,0,1,.46.11,2,2,0,0,0,2,.63,1.16,1.16,0,0,0,.58-1.64c-.13-.32-.35-.69-.2-.83s.37-.07.55.1a2.15,2.15,0,0,0,1.88,0c.64-.39.76-1,.43-1.43s-1.07-.49-.9-.76.57.17.83.25a2,2,0,0,0,1.62-.14c.67-.36.68-.89.29-1.16s-.83-.47-.59-.69.51,0,.73.06a1.8,1.8,0,0,0,1.49-.32.92.92,0,0,0,.35-1.17c-.11-.51-.73-.59-1.06-.66s-.43-.17-.38-.34.25-.07.82-.16,1.61-.59,1.71-1.06a.84.84,0,0,0-.72-1.08c-.61,0-1.13,0-1.1-.2s.13-.12.37-.16a3.94,3.94,0,0,0,1.93-.9c.55-.62-.05-1.13-.42-1.27"/><path id="_Path_41" data-name="&lt;Path&gt;" class="cls-3" d="M138.42,53.28A10.54,10.54,0,0,0,140.89,50,14.26,14.26,0,0,0,142.38,45a7.4,7.4,0,0,0-.24-2.84c-.16-.62-.31-1.08-.48-.25s-1.1,3.74-1.51,4.89a15.57,15.57,0,0,1-1.63,2.9c-.12.2-.29.39-.41.58a8.43,8.43,0,0,0-.42.76s.1,0,.23-.14.23-.27.36-.25.34.76.34.76a14.79,14.79,0,0,0,1-1.47,23.59,23.59,0,0,0,1.12-2.34,10.3,10.3,0,0,1-1,2.57c-.67,1-1,1.49-1,1.49a2.47,2.47,0,0,1,0,.77c-.08.35-.27.87-.27.87"/><path id="_Path_42" data-name="&lt;Path&gt;" class="cls-3" d="M143.89,46.87s-.77,1.63-1.51,2.81a18.91,18.91,0,0,1-3.18,3.71c-.68.54-.73.56-.62.7a1,1,0,0,1,.18.5c0,.21,0,.22,0,.22s1.21-1,1.86-1.69,1.25-1.27.48-.3a11,11,0,0,1-1.51,1.59l-.76.66a6.6,6.6,0,0,1-.07.76,3.65,3.65,0,0,1-.15.47s.56-.38.94-.66a9.89,9.89,0,0,0,3.27-3.76,8.55,8.55,0,0,0,1.06-5"/><path id="_Path_43" data-name="&lt;Path&gt;" class="cls-3" d="M136.84,38.25c-.11-2.16-.74-4.44-1.61-5.33,0,0-.25,3.52-.41,4.86s-.74,4.15-.74,4.15-.07.08.11.49.36.81.49,1.13a2.23,2.23,0,0,1,.15.57,25.81,25.81,0,0,0,.56-2.53,17.07,17.07,0,0,0,.18-2.06c0-.43.12-.87.14,0a16.29,16.29,0,0,1-.24,2.57c-.12.68-.37,1.67-.4,1.88a2,2,0,0,0-.12.52,2.22,2.22,0,0,0,.07.6,3.57,3.57,0,0,1,0,.94.79.79,0,0,0,0,.37,6.45,6.45,0,0,1,.35-.63c.15-.27.36-.57.55-1A9.35,9.35,0,0,0,136.6,42a18.32,18.32,0,0,0,.24-3.74"/><path id="_Path_44" data-name="&lt;Path&gt;" class="cls-3" d="M138.85,46.75a18.31,18.31,0,0,0,1-7.2c-.28-3.09-1.1-3.71-1.1-3.71s0,.39-.05,1.38a21.35,21.35,0,0,1-.81,4.67,20.65,20.65,0,0,1-1.27,3.48,9,9,0,0,1,.24,1.74,5.1,5.1,0,0,1-.09,1.31l.66-1.07a11.49,11.49,0,0,0,1-3.45c.44-2.55.27-1,0,.52a12.85,12.85,0,0,1-.49,2,9.6,9.6,0,0,1-.68,1.55c.42.14.57.63.59,1.27,0,0,.61-1.41,1-2.53"/><path id="_Path_45" data-name="&lt;Path&gt;" class="cls-3" d="M139.46,69.29a13.47,13.47,0,0,1-2.39.22,16.89,16.89,0,0,1-3.34-.42c-.72-.17-1-.29-1.13-.2a1.09,1.09,0,0,1-.61.23c-.29,0-.33.06-.13.19a8.89,8.89,0,0,0,1.92.82c.63.12,1,.05,1,.12s0,.13-.45.12a10.59,10.59,0,0,1-2-.51c-.46-.16-.94-.33-.94-.32a.93.93,0,0,0,.57,1.11,10,10,0,0,0,3.49,1c1.35,0,3.29-.49,3.85-1.41s.34-1,.17-1"/><path id="_Path_46" data-name="&lt;Path&gt;" class="cls-3" d="M141.7,65.55a16.36,16.36,0,0,1-2.88.63,14.67,14.67,0,0,1-3.25,0,7.71,7.71,0,0,1-.92.51c-.25.08-.4.21,0,.33a6.55,6.55,0,0,0,2.09.27c.58,0,.9,0,.16.14a5.89,5.89,0,0,1-2,0l-.91-.14a1.52,1.52,0,0,1-.15.76c-.19.29-.19.36-.19.36a3.19,3.19,0,0,0,1.91.4,12.9,12.9,0,0,0,3.5-.45,4.54,4.54,0,0,0,2.5-1.66c.53-.85.46-1,.46-1s0-.13-.3-.09"/><path id="_Path_47" data-name="&lt;Path&gt;" class="cls-3" d="M143.69,61a13,13,0,0,1-3,1.46,12.8,12.8,0,0,1-3.05.92c-.85.09-.9.14-1.09.26a2.1,2.1,0,0,1-.85.34l-.66.14a3.71,3.71,0,0,1,.55.18,3.39,3.39,0,0,0,1.16-.09,21.93,21.93,0,0,0,2.63-.41c.39-.14.59-.24.6-.16s-.41.25-1,.39a10.69,10.69,0,0,1-1.73.35,11.33,11.33,0,0,0-1.36.22.54.54,0,0,1,.16.5,1.41,1.41,0,0,1-.15.36,12.12,12.12,0,0,0,4.1-.6,5.75,5.75,0,0,0,3.08-2,3,3,0,0,0,.83-1.62c.08-.32.1-.5-.2-.25"/><path id="_Path_48" data-name="&lt;Path&gt;" class="cls-3" d="M144.64,56.83c-.24.15-.79.58-1.39,1-.3.21-.57.42-.85.59a13.72,13.72,0,0,1-2.68,1.12,15.52,15.52,0,0,1-1.61.41,2.91,2.91,0,0,1-.62.71c-.26.16-.74.4-.19.28a15.93,15.93,0,0,0,2.44-.58c.88-.32,1.27-.62,1.3-.55s-.26.32-1.2.68a16.88,16.88,0,0,1-2.31.63,4,4,0,0,1-.81.19c-.09,0-.36.09.05.12s.59,0,.71.32-.11.63,0,.74a10.71,10.71,0,0,0,4.12-1.69A7.13,7.13,0,0,0,144,58.58a5,5,0,0,0,.8-1.64c.05-.15.16-.36-.18-.11"/><path id="_Path_49" data-name="&lt;Path&gt;" class="cls-3" d="M138.23,57.92a.84.84,0,0,1,.17.37s1-.61,1.71-1,1.38-.81,1.53-.94.43-.15-.06.18-1.23.88-1.91,1.26l-1.26.74a5.79,5.79,0,0,1-.09.59c0,.15-.07.3.18.2a12.07,12.07,0,0,0,3.38-1.87,7.36,7.36,0,0,0,2.59-3.8,2.41,2.41,0,0,0,.11-1.09c0-.18-.08-.21-.19-.06s-1.71,1.88-2.53,2.58a14.35,14.35,0,0,1-2.56,1.8,5.93,5.93,0,0,0-1.29.65,2,2,0,0,1-.27.34s.35,0,.49.1"/><path id="_Path_50" data-name="&lt;Path&gt;" class="cls-3" d="M131.23,70.86a4.22,4.22,0,0,1-1,.24,5.78,5.78,0,0,0-.67,0,8.38,8.38,0,0,0,1.53,1.1,4.13,4.13,0,0,1,.77.39c.22.11.29.21,0,.14s-.44-.18-.83-.34a5.12,5.12,0,0,1-1-.56c-.28-.19-.39-.28-.39-.28s.12.74-.26,1l-.53.33a11.94,11.94,0,0,0,3.11,1.21,5.2,5.2,0,0,0,3.44,0,1.66,1.66,0,0,0,1-1.17,13.3,13.3,0,0,1-3.16-.93,8.69,8.69,0,0,1-2.12-1.11"/><path id="_Path_51" data-name="&lt;Path&gt;" class="cls-3" d="M127.53,73.17l-.28.1A10,10,0,0,0,129,74.7c.72.37.45.4-.27,0a4.77,4.77,0,0,1-1.33-1,3.47,3.47,0,0,0-.37-.29,1.67,1.67,0,0,0-.26,1.23c.14.71,1,1.83,3.32,1.91s3.2-1,3.2-1a7.44,7.44,0,0,1-3.06-1.2c-1.92-1.15-2.39-1.34-2.65-1.23"/><path id="_Path_52" data-name="&lt;Path&gt;" class="cls-3" d="M126.86,75.85a5.1,5.1,0,0,1-.63-.79c-.15-.22,0-.26-.49-.22a8.44,8.44,0,0,1-.94,0s-.39,0-.11.25a4.54,4.54,0,0,0,1,1c.38.24.8.39.75.46s-.67-.11-1.08-.4a5.48,5.48,0,0,1-1-1.08,1.8,1.8,0,0,1-.21-.33,4.69,4.69,0,0,1-1.28-.38,2.86,2.86,0,0,1-.6-.58,3.76,3.76,0,0,0,1.18,2.47,6.62,6.62,0,0,0,1.39,1.2,3.31,3.31,0,0,0,2.07.43c1-.12,1.16-.31,1.16-.31s.18-.09-.06-.39l-1.19-1.37"/><path id="_Path_53" data-name="&lt;Path&gt;" class="cls-3" d="M122,74.68a6.32,6.32,0,0,1-.41,1.25l.23.36a4.28,4.28,0,0,1,.34.81,4.63,4.63,0,0,1-.39-.48,1.85,1.85,0,0,0-.35-.33c-.11.2-.21.39-.32.56a1.73,1.73,0,0,0,.93,1.34,1.62,1.62,0,0,0,1.6,0c.3-.22-.18-.54-.71-1.39a11.93,11.93,0,0,1-.92-2.17"/><path id="_Path_54" data-name="&lt;Path&gt;" class="cls-3" d="M121.89,41.86a.47.47,0,0,1,.48.46.45.45,0,0,1-.48.42.43.43,0,0,1-.46-.42.45.45,0,0,1,.46-.46"/><path id="_Path_55" data-name="&lt;Path&gt;" class="cls-3" d="M116.09,42.08a5.43,5.43,0,0,0,.76.34,3.82,3.82,0,0,0,2.63-.23,7.24,7.24,0,0,1,2.28-.87c.48,0,.7.15,1.15.17a.32.32,0,0,0,.31-.14c.09-.18,0-.64-.61-1a3.54,3.54,0,0,0-2.54-.09,5.39,5.39,0,0,0-1.75.86c-.34.27-.75.66-.84.57s.19-.26.36-.44a2.22,2.22,0,0,1,.24-.23,4.36,4.36,0,0,1-2.84-.85,1.83,1.83,0,0,0,.85,1.92"/><path id="_Path_56" data-name="&lt;Path&gt;" class="cls-3" d="M125.87,41.48a2.47,2.47,0,0,0-2.06,0,6.31,6.31,0,0,0-1.17.53,1.06,1.06,0,0,1-.37,1c-.49.31-1,.13-1.08-.18a3.43,3.43,0,0,1-.17-.48,5.9,5.9,0,0,1-1.77.61,4.71,4.71,0,0,1-2.35-.07s-.62.62-1.08,1a9.43,9.43,0,0,1-.95.68.43.43,0,0,0,.28.22c.21.08.29.11.13.34a9.72,9.72,0,0,1-1.65,1.54,6.75,6.75,0,0,1-1.14.58,1.36,1.36,0,0,0,.53.54c.32.11.37.32.25.54a19.33,19.33,0,0,1-1.7,1.85,1.8,1.8,0,0,1-1,.53c-.21.05-.57.26-.17.72a2.34,2.34,0,0,0,2.31.35,4.88,4.88,0,0,0,1.87-1.39s-.21,1.61-.21,2.37a9.05,9.05,0,0,0,.22,2,2.68,2.68,0,0,0,.25.66A3,3,0,0,0,115.93,54a6.07,6.07,0,0,0,.55-2.07c0-.33,0-.52.32-.35a3.4,3.4,0,0,0,.61.31.87.87,0,0,0,.19,0,7.8,7.8,0,0,1-.19-1.43,5.29,5.29,0,0,1,.46-2.16c.27-.24.32.09.34.24a1,1,0,0,0,.69.8A3.85,3.85,0,0,1,120,47c.14-.14.22-.32.69-.14a3.19,3.19,0,0,0,2.21.18c.68-.27,1.18-1,1-1a3.17,3.17,0,0,1-1.84.25c-.78-.26-1.15-.51-.69-1a13.6,13.6,0,0,1,1.57-1.29,3.2,3.2,0,0,1,2.46-1,1.29,1.29,0,0,1,1,.71c.07.09.42.36.42-.3a2.06,2.06,0,0,0-.95-1.83"/><path id="_Path_57" data-name="&lt;Path&gt;" class="cls-3" d="M117.27,54.48c-.14-.22-.44-.86-.44-.86a3.44,3.44,0,0,1-.19.62,6.73,6.73,0,0,1-.64,1.1s.38-.08.8-.21a2.07,2.07,0,0,0,.7-.38,1.36,1.36,0,0,1-.23-.27"/><path id="_Path_58" data-name="&lt;Path&gt;" class="cls-3" d="M114,52a3.81,3.81,0,0,1-.85,1.24c-.57.58-1,.51-1,.51a4.16,4.16,0,0,0,.5-.32,4.41,4.41,0,0,0,.88-1.2,4,4,0,0,1-2.19.44l-.22.56a5.5,5.5,0,0,1-.79,1.32c-.2.29,0,.34,0,.34a6,6,0,0,0,1.48.5,7,7,0,0,0,2.63.17s0-.13-.28-1.07A9.35,9.35,0,0,1,114,52"/><path id="_Path_59" data-name="&lt;Path&gt;" class="cls-3" d="M97.38,41.86a.47.47,0,0,1,.47.46.48.48,0,0,1-.95,0,.47.47,0,0,1,.48-.46"/><path id="_Path_60" data-name="&lt;Path&gt;" class="cls-3" d="M96.37,41.48c.44,0,.67-.22,1.14-.16a7.33,7.33,0,0,1,2.28.87,3.83,3.83,0,0,0,2.63.23,3.61,3.61,0,0,0,.75-.35,1.83,1.83,0,0,0,.86-1.91,4.51,4.51,0,0,1-2.83.87,1.26,1.26,0,0,1,.23.21c.17.18.47.36.36.44s-.5-.3-.85-.57a5.11,5.11,0,0,0-1.74-.86,3.51,3.51,0,0,0-2.53.09c-.66.37-.7.83-.61,1a.29.29,0,0,0,.31.13"/><path id="_Path_61" data-name="&lt;Path&gt;" class="cls-3" d="M108.69,50.72a2,2,0,0,1-1-.53A18.74,18.74,0,0,1,106,48.34c-.13-.22-.07-.43.23-.55a1.3,1.3,0,0,0,.53-.53,6.43,6.43,0,0,1-1.13-.59A11.13,11.13,0,0,1,104,45.14c-.16-.23-.08-.26.15-.34a.43.43,0,0,0,.27-.22,8.3,8.3,0,0,1-1-.68c-.46-.36-1.08-1-1.08-1A4.48,4.48,0,0,1,100,43a5.7,5.7,0,0,1-1.77-.59,2.29,2.29,0,0,1-.17.48A.71.71,0,0,1,97,43a1.09,1.09,0,0,1-.37-1,6.38,6.38,0,0,0-1.16-.53,2.54,2.54,0,0,0-2.07-.05,2.11,2.11,0,0,0-1,1.84c0,.66.35.39.42.3a1.27,1.27,0,0,1,1-.71,3.19,3.19,0,0,1,2.45,1,14.94,14.94,0,0,1,1.58,1.29c.46.48.09.73-.69,1A3.11,3.11,0,0,1,95.4,46c-.15.08.33.78,1,1a3.24,3.24,0,0,0,2.23-.18c.46-.19.56,0,.68.14a3.91,3.91,0,0,1,1.06,2.4,1.08,1.08,0,0,0,.7-.8c0-.15.07-.48.33-.24a5,5,0,0,1,.45,2.16,7.85,7.85,0,0,1-.18,1.41h.18a3.09,3.09,0,0,0,.62-.31c.29-.17.32,0,.32.35a6.21,6.21,0,0,0,.54,2.07,3,3,0,0,0,1.09,1.48,2.68,2.68,0,0,0,.25-.66,8.08,8.08,0,0,0,.22-2c0-.76-.19-2.38-.19-2.38a4.71,4.71,0,0,0,1.86,1.4,2.38,2.38,0,0,0,2.3-.35c.41-.46,0-.67-.17-.72"/><path id="_Path_62" data-name="&lt;Path&gt;" class="cls-3" d="M102.43,53.62s-.29.64-.43.86a1.36,1.36,0,0,1-.23.27,2.36,2.36,0,0,0,.7.38c.42.13.8.21.8.21a6.23,6.23,0,0,1-.63-1.1c-.17-.46-.21-.62-.21-.62"/><path id="_Path_63" data-name="&lt;Path&gt;" class="cls-3" d="M108.16,53.24l-.23-.56a3.94,3.94,0,0,1-2.19-.44,4.3,4.3,0,0,0,.89,1.2,4.16,4.16,0,0,0,.5.32s-.43.07-1-.51a3.81,3.81,0,0,1-.85-1.24,10.15,10.15,0,0,1-.11,2.49c-.24.94-.29,1.06-.29,1.06a6.84,6.84,0,0,0,2.62-.16,5.76,5.76,0,0,0,1.5-.51s.16,0,0-.33a5.78,5.78,0,0,1-.77-1.32"/><path id="_Path_64" data-name="&lt;Path&gt;" class="cls-3" d="M103.3,87.92a1.24,1.24,0,0,0,1.1-.46,9.22,9.22,0,0,0,.57-1.13c.19-.29.34-.49.34-.49A4.16,4.16,0,0,1,105,87a4,4,0,0,0-.22,1.81c.11.71.58.83.86.73a2.08,2.08,0,0,0,.79-.86c.11-.15.17-.36.27-.53.16-.36.34-.92.42-.91s.06.44,0,.72a9.3,9.3,0,0,0-.42,1.82c0,.48,0,1.37.51,1.4s.74-.39,1-1.38.35-1.31.46-1.31.12.68.12,1a4.89,4.89,0,0,0,0,.66,3.37,3.37,0,0,0,.38,1.31.54.54,0,0,0,.43.17.53.53,0,0,0,.43-.17,5.53,5.53,0,0,0,.43-2c0-.3,0-1,.11-1s.17.31.45,1.31.53,1.42,1,1.38.55-.92.52-1.4a11,11,0,0,0-.42-1.82c-.15-.56.06-.51.42.19.12.22.24.49.35.66a1.73,1.73,0,0,0,.7.73c.28.09.73,0,.87-.74a12.11,12.11,0,0,0-.44-2.78,4.15,4.15,0,0,1,.23.35,11.07,11.07,0,0,0,.58,1.13,1.22,1.22,0,0,0,1.09.46c.3-.11.34-.65.11-1.62S115,84.78,114.38,84a9.15,9.15,0,0,1-1.07-2.17,7.2,7.2,0,0,0-2.09,1.47c-1.29,1.35-1.57,1.68-1.57,1.68s-.28-.33-1.57-1.68a7.42,7.42,0,0,0-2.1-1.48,11.94,11.94,0,0,1-1.19,2.09c-.29.36-.69.63-1,1a3.33,3.33,0,0,0-.64,1.4q-.32,1.45.12,1.62"/><path id="_Path_65" data-name="&lt;Path&gt;" class="cls-3" d="M103.26,91.21l.58-.52s.26-.22.19.21a7.18,7.18,0,0,0-.12,1.71c.08.39.15.72.63.44a3.45,3.45,0,0,0,.82-.7c.22-.25.45-.35.41,0a5.54,5.54,0,0,0-.15,1.71c.08.77.45.88.94.24a7.59,7.59,0,0,0,.93-1.58c.16-.31.44-.59.44,0,0,1.29.31,3.14,1.71,3.65,1.41-.51,1.7-2.36,1.7-3.65,0-.59.31-.31.44,0a10.53,10.53,0,0,0,1,1.58c.48.64.86.53,1-.24a6.25,6.25,0,0,0-.15-1.71c-.06-.38.17-.28.4,0a3.26,3.26,0,0,0,.82.7c.48.28.52,0,.61-.44a5.89,5.89,0,0,0-.11-1.71c-.08-.43.21-.21.21-.21l.56.52a1.7,1.7,0,0,0,.89.35,3.32,3.32,0,0,0-.31-2.14c-.57-.81-.77-1.07-.77-1.07a2.14,2.14,0,0,1-.56-.1,3.5,3.5,0,0,1-.48-.27v.74s.69.65.86.84.47.53,0,.21-.87-.64-.87-.64-.09.68-.28.84a.7.7,0,0,1-.58.16l-.11,0,0,.27a6.15,6.15,0,0,1,.47,1.1c0,.31,0,.28-.23-.12a11.72,11.72,0,0,0-.74-1.23c-.17-.28-.42-.48-.4-.12a3.09,3.09,0,0,1-.25,1.27,1.35,1.35,0,0,1-.2.32s.26.92.29,1.09,0,.37-.14.15-.57-1.12-.57-1.12a1.68,1.68,0,0,1-.72-.18,4,4,0,0,1-.41-.78,4.37,4.37,0,0,1-.42,1,2.29,2.29,0,0,1-.63.51s0,1.37-.06,1.61,0,.35-.15.35-.1-.12-.14-.35-.06-1.61-.06-1.61a2.45,2.45,0,0,1-.63-.51,4.52,4.52,0,0,1-.43-1,4.22,4.22,0,0,1-.39.78,1.71,1.71,0,0,1-.73.18s-.42.91-.56,1.12-.18,0-.15-.15.29-1.09.29-1.09a2,2,0,0,1-.2-.32A3.27,3.27,0,0,1,106.4,90c0-.36-.23-.16-.41.12a13.83,13.83,0,0,0-.73,1.23c-.2.4-.29.43-.24.12a6,6,0,0,1,.48-1.1l0-.27-.11,0a.67.67,0,0,1-.58-.16c-.2-.16-.29-.84-.29-.84l-.85.64c-.48.32-.15,0,0-.21s.84-.84.84-.84V88a3.5,3.5,0,0,1-.48.27,2,2,0,0,1-.54.1s-.22.26-.78,1.07a3.25,3.25,0,0,0-.31,2.14,1.65,1.65,0,0,0,.88-.35"/><path id="_Path_66" data-name="&lt;Path&gt;" class="cls-3" d="M101.76,95.77c.33-.21.62-.45,1.39-1a3.42,3.42,0,0,0,1-1.07h-.29c-.14,0-.26-.2-.27-.4a10.73,10.73,0,0,1,0-1.11,2.08,2.08,0,0,0-.08-.87,4.13,4.13,0,0,1-.81.56c-.49.26-.7.14-.7.14l-.13-.5s-.21.44-.52,1a6.89,6.89,0,0,1-1.69,1.55A7.3,7.3,0,0,1,98,95.15c-.47.18-.19.41-.19.41a3.45,3.45,0,0,0,1.71.71,2.66,2.66,0,0,0,2.2-.5"/><path id="_Path_67" data-name="&lt;Path&gt;" class="cls-3" d="M106.11,95.27a.75.75,0,0,1-.8-.68,13.36,13.36,0,0,1,0-1.52s-.15.13-.32.31a1,1,0,0,1-.55.26,3.82,3.82,0,0,1-.23.44,2.44,2.44,0,0,1-.8.87,9.72,9.72,0,0,0-1.25.85,7.83,7.83,0,0,1-1.13.82,2,2,0,0,0-1,1.25c-.13.63,0,.84.47.8a4.77,4.77,0,0,0,1.35-.19,12.87,12.87,0,0,0,2.76-1.62,5.45,5.45,0,0,0,1.44-1.59"/><path id="_Path_68" data-name="&lt;Path&gt;" class="cls-3" d="M108.31,96a3,3,0,0,1-.45-.9c-.13-.49-.37-1.44-.37-1.44a8.24,8.24,0,0,1-.37.86,1.41,1.41,0,0,1-.73.73A1.6,1.6,0,0,1,106,96a5.08,5.08,0,0,1-1.51,1.27,5.43,5.43,0,0,0-1.72,1.37,1.35,1.35,0,0,0-.24,1.43c.18.25.45,0,.83-.23a17.51,17.51,0,0,0,3-1.16,4.63,4.63,0,0,0,2-2.65"/><path id="_Path_69" data-name="&lt;Path&gt;" class="cls-3" d="M109,99.39a5.92,5.92,0,0,0,.47-2.14,4.2,4.2,0,0,1-.35-.27,5.21,5.21,0,0,1-.6-.76s-.23.52-.5,1a3.89,3.89,0,0,1-1,1.17,9.35,9.35,0,0,0-1.66,1.58,2.54,2.54,0,0,0,.09,2c.21.37.49.26.83,0a9.33,9.33,0,0,1,.95-.86A10.7,10.7,0,0,0,109,99.39"/><path id="_Path_70" data-name="&lt;Path&gt;" class="cls-3" d="M121.25,95.15a7.07,7.07,0,0,1-1.71-1.06,6.77,6.77,0,0,1-1.7-1.55c-.31-.54-.51-1-.51-1l-.14.5s-.19.12-.69-.14a4,4,0,0,1-.82-.56,2.08,2.08,0,0,0-.08.87,7.31,7.31,0,0,1,.06,1.11c0,.2-.14.4-.29.4h-.26a3.07,3.07,0,0,0,1,1.07c.77.51,1.06.75,1.4,1a2.64,2.64,0,0,0,2.18.5,3.69,3.69,0,0,0,1.74-.71s.27-.23-.21-.41"/><path id="_Path_71" data-name="&lt;Path&gt;" class="cls-3" d="M118.24,96.62a7.83,7.83,0,0,1-1.13-.82,10.62,10.62,0,0,0-1.26-.85,2.35,2.35,0,0,1-.8-.87,2.79,2.79,0,0,1-.22-.44,1,1,0,0,1-.55-.26c-.17-.18-.32-.31-.32-.31a10.43,10.43,0,0,1,0,1.52.74.74,0,0,1-.79.68,5.69,5.69,0,0,0,1.43,1.59,14,14,0,0,0,2.77,1.62,4.87,4.87,0,0,0,1.36.19c.48,0,.58-.17.46-.8a1.93,1.93,0,0,0-1-1.25"/><path id="_Path_72" data-name="&lt;Path&gt;" class="cls-3" d="M114.83,97.25A5.26,5.26,0,0,1,113.31,96a1.76,1.76,0,0,1-.41-.72,1.37,1.37,0,0,1-.72-.73c-.28-.56-.4-.86-.4-.86s-.22,1-.35,1.44a2.85,2.85,0,0,1-.44.9,4.63,4.63,0,0,0,2,2.65,17.88,17.88,0,0,0,3,1.16c.39.2.65.48.83.23a1.31,1.31,0,0,0-.24-1.43,5.62,5.62,0,0,0-1.71-1.37"/><path id="_Path_73" data-name="&lt;Path&gt;" class="cls-3" d="M112.28,98.39a3.79,3.79,0,0,1-1-1.17c-.26-.48-.52-1-.52-1a4.39,4.39,0,0,1-.59.76,2.86,2.86,0,0,1-.35.27,5.78,5.78,0,0,0,.48,2.14,10.31,10.31,0,0,0,1.74,1.69,11,11,0,0,1,1,.86c.32.31.62.42.83,0a2.59,2.59,0,0,0,.07-2,9.19,9.19,0,0,0-1.64-1.58"/><path id="_Path_74" data-name="&lt;Path&gt;" class="cls-3" d="M110.13,100.14a5.63,5.63,0,0,1-.48-.64,3.54,3.54,0,0,1-.48.64,12.44,12.44,0,0,1-1.21,1.08,4.38,4.38,0,0,0,.49,1.72,4.81,4.81,0,0,0,1.2,1.31,4.51,4.51,0,0,0,1.2-1.31,4.38,4.38,0,0,0,.49-1.72,12.44,12.44,0,0,1-1.21-1.08"/><path id="_Path_75" data-name="&lt;Path&gt;" class="cls-6" d="M140.3,86.45a.92.92,0,0,1-.47-.21s-.15,0-.27.19a1.85,1.85,0,0,1-.53.48s-.61.15-.69.57.21.56.5.52a1.84,1.84,0,0,0,1.71-1.28c.07-.15.1-.18-.25-.27"/><path id="_Path_76" data-name="&lt;Path&gt;" class="cls-6" d="M141.24,83.15a3.84,3.84,0,0,0-2-2.64s-.44,1.52-.56,2-.13.46.23.56l1.8.41c.23.07.63.28.48-.33"/><path id="_Path_77" data-name="&lt;Path&gt;" class="cls-6" d="M135.77,82.28c.27.06.24-.06.33-.43l.58-2.19a5.68,5.68,0,0,0-2.27.47,3.4,3.4,0,0,0-1.5,1.44,5.58,5.58,0,0,0,1,.28c.72.16,1.61.39,1.88.43"/><path id="_Path_78" data-name="&lt;Path&gt;" class="cls-6" d="M133,84.78a5,5,0,0,1-.6-.12,5.34,5.34,0,0,0,.72,1.61,2.14,2.14,0,0,0,1.87.88,1.81,1.81,0,0,0,1.74-.9,3.18,3.18,0,0,1,.3-.69s-1.68-.23-2.37-.4-1.24-.3-1.66-.38"/><path id="_Path_79" data-name="&lt;Path&gt;" class="cls-5" d="M119.56,64.52a7.57,7.57,0,0,1,1.09-4.86l-2.92-3.41c-2.25,1.27-5.36,1.09-8.08-.15-2.7,1.24-5.83,1.42-8.06.15l-2.92,3.41a7.48,7.48,0,0,1,1.07,4.86c-.43,2.6-1.35,6.7-1.11,8.38a8,8,0,0,0,2.62,4.62,15.12,15.12,0,0,0,4.3,2.33,12.12,12.12,0,0,1,3.12,1.8,10.66,10.66,0,0,1,1,.86,11.15,11.15,0,0,1,1-.86,11.86,11.86,0,0,1,3.11-1.8,15.25,15.25,0,0,0,4.3-2.33,8.27,8.27,0,0,0,2.62-4.62c.23-1.68-.69-5.78-1.12-8.38"/><path id="_Path_80" data-name="&lt;Path&gt;" class="cls-5" d="M113.63,49.86a4.87,4.87,0,0,1-1.48,1v.09a2.93,2.93,0,0,0,.83-.32,4.29,4.29,0,0,0,1.14-1,.29.29,0,0,0,0-.37,4.46,4.46,0,0,1-.47.6"/><path id="_Path_81" data-name="&lt;Path&gt;" class="cls-5" d="M115.42,50.85c0,.28-.09,2.23-.09,2.23s0,.68-.2.75c.08,0,.23,0,.28-.26s.41-2.85.41-2.85l-.21-.09s-.19-.07-.19.22"/><path id="_Path_82" data-name="&lt;Path&gt;" class="cls-5" d="M118.67,45.94a5.38,5.38,0,0,0-.85.58,2.43,2.43,0,0,1-.63.31c-.22.1-.13-.38,0-.78a4.83,4.83,0,0,1,.92-1.25c.34-.38,0-.26-.17-.11a8.22,8.22,0,0,0-1,1.25,8.21,8.21,0,0,0-.67,2.27,5,5,0,0,0,.52-.34c.27-.18.56-.33,1.06-.7a6.1,6.1,0,0,0,1.05-.94c.27-.29-.05-.35-.26-.29"/><path id="_Path_83" data-name="&lt;Path&gt;" class="cls-5" d="M105.64,49.86a2.32,2.32,0,0,1-.46-.6.29.29,0,0,0,0,.37,4.36,4.36,0,0,0,1.15,1,2.93,2.93,0,0,0,.83.32l0-.09a5,5,0,0,1-1.46-1"/><path id="_Path_84" data-name="&lt;Path&gt;" class="cls-5" d="M104,53.08s-.1-1.95-.1-2.23-.19-.22-.19-.22l-.21.09s.37,2.49.42,2.85.19.28.27.26c-.16-.07-.18-.66-.19-.75"/><path id="_Path_85" data-name="&lt;Path&gt;" class="cls-5" d="M101.35,44.69c-.17-.15-.52-.27-.18.11a4.61,4.61,0,0,1,.92,1.25c.14.4.21.88,0,.78a2.29,2.29,0,0,1-.63-.31,5.88,5.88,0,0,0-.85-.58c-.19-.06-.53,0-.26.29a6.23,6.23,0,0,0,1.06.94c.49.37.78.52,1,.7s.53.34.53.34a7.86,7.86,0,0,0-.67-2.27,9.22,9.22,0,0,0-1-1.25"/><path id="_Path_86" data-name="&lt;Path&gt;" class="cls-5" d="M109.61,89.62s.06-.1.06-.33,0-.76.1-1.08-.09-.29-.17-.27-.12.26-.12.4,0,.93,0,1.09.07.18.1.19"/><path id="_Path_87" data-name="&lt;Path&gt;" class="cls-5" d="M115.26,86.76c.21.46.26.39.16,0a3.46,3.46,0,0,0-.44-1.06,5.27,5.27,0,0,0-.74-.82,3.27,3.27,0,0,0,.35.58c.19.28.44.83.67,1.28"/><path id="_Path_88" data-name="&lt;Path&gt;" class="cls-5" d="M113.13,87.14a3.79,3.79,0,0,0,.58,1.1,6.23,6.23,0,0,0-.34-1.23,1.89,1.89,0,0,0-.44-.84c-.05,0,0,.31,0,.31s.07.37.16.66"/><path id="_Path_89" data-name="&lt;Path&gt;" class="cls-5" d="M111.43,88.49c.11.21.23.48.28.44a2.54,2.54,0,0,0-.15-.59,2.37,2.37,0,0,0-.19-.7c-.14-.28-.21-.14-.21,0a6.12,6.12,0,0,0,.18.67l.09.21"/><path id="_Path_90" data-name="&lt;Path&gt;" class="cls-5" d="M104,86.76a8.74,8.74,0,0,1,.68-1.28,3.61,3.61,0,0,0,.34-.58,5.15,5.15,0,0,0-.75.82,4,4,0,0,0-.44,1.06c-.09.37,0,.44.17,0"/><path id="_Path_91" data-name="&lt;Path&gt;" class="cls-5" d="M106.17,87.14c.08-.29.13-.5.13-.5s.09-.28,0-.3-.26.18-.42.67a7.71,7.71,0,0,0-.33,1.23,4.31,4.31,0,0,0,.59-1.1"/><path id="_Path_92" data-name="&lt;Path&gt;" class="cls-5" d="M107.85,88.49l.08-.21a5.64,5.64,0,0,0,.2-.67c0-.11-.07-.25-.22,0a3.75,3.75,0,0,0-.18.7c0,.11-.2.56-.14.59s.17-.23.26-.44"/><path id="_Path_93" data-name="&lt;Path&gt;" class="cls-5" d="M102.64,93.63l-.23-.15a4.59,4.59,0,0,1-.33.39c-.19.2-.41.27-.56.47a2,2,0,0,1-.72.61c-.34.18-.48.23-.41.28s.3-.08.3-.08a1.45,1.45,0,0,0,.52-.25,4.27,4.27,0,0,0,.8-.61c.26-.24.63-.66.63-.66"/><path id="_Path_94" data-name="&lt;Path&gt;" class="cls-5" d="M104.44,95.77c.16-.17.34-.29.24-.37s-.21-.08-.35,0l-.75.69c-.19.16-.34.27-.54.41a6.77,6.77,0,0,1-.8.48c-.21.13,0,.13,0,.13a2.63,2.63,0,0,1,.32-.14c.17-.06.65-.27.65-.27a3.56,3.56,0,0,0,.45-.27,8.29,8.29,0,0,0,.79-.7"/><path id="_Path_95" data-name="&lt;Path&gt;" class="cls-5" d="M106.54,97.22c.14-.27,0-.2-.23-.1a9.71,9.71,0,0,0-1,.85,8.49,8.49,0,0,1-.8.4c-.24.12-.24.19-.24.24s.12.06.21,0,.46-.24.46-.24a1.39,1.39,0,0,1,.28-.06,1.63,1.63,0,0,0,.63-.41c.3-.25.57-.41.7-.69"/><path id="_Path_96" data-name="&lt;Path&gt;" class="cls-5" d="M107.52,99.14a3.86,3.86,0,0,0-1.18,1.08c-.16.33-.28.57-.22.63s.24-.06.31-.21a3.8,3.8,0,0,1,.25-.34,10.88,10.88,0,0,1,.87-.77,2.21,2.21,0,0,0,.72-.8.6.6,0,0,0,0-.39,3.55,3.55,0,0,1-.77.8"/><path id="_Path_97" data-name="&lt;Path&gt;" class="cls-5" d="M118.49,95a2,2,0,0,1-.72-.61c-.14-.2-.36-.27-.55-.47a3.08,3.08,0,0,1-.33-.39l-.23.15a7.56,7.56,0,0,0,.64.66,4.61,4.61,0,0,0,.78.61,1.55,1.55,0,0,0,.52.25s.23.14.3.08-.07-.1-.41-.28"/><path id="_Path_98" data-name="&lt;Path&gt;" class="cls-5" d="M117.06,97a5.56,5.56,0,0,1-.81-.48c-.19-.14-.34-.25-.53-.41s-.61-.57-.76-.69-.26-.13-.35,0,.08.2.24.37a6.54,6.54,0,0,0,.8.7,4,4,0,0,0,.44.27l.65.27a3.3,3.3,0,0,1,.33.14s.19,0,0-.13"/><path id="_Path_99" data-name="&lt;Path&gt;" class="cls-5" d="M114.79,98.37c-.24-.13-.49-.21-.79-.4a9.74,9.74,0,0,0-1-.85c-.23-.1-.37-.17-.24.1a2.52,2.52,0,0,0,.72.69c.3.25.48.4.64.41a1.41,1.41,0,0,1,.27.06s.34.2.43.24.21,0,.22,0,0-.12-.23-.24"/><path id="_Path_100" data-name="&lt;Path&gt;" class="cls-5" d="M111.77,99.14a3.52,3.52,0,0,1-.75-.8.53.53,0,0,0,0,.39,2,2,0,0,0,.7.8,10.88,10.88,0,0,1,.87.77s.17.22.25.34.26.26.32.21-.06-.3-.23-.63a3.86,3.86,0,0,0-1.18-1.08"/><path id="_Path_101" data-name="&lt;Path&gt;" class="cls-5" d="M109.47,101.5c0,.25,0,.91.17.91s.14-.66.16-.91,0-.88,0-.88h-.42a8.74,8.74,0,0,0,0,.88"/><path id="_Path_102" data-name="&lt;Path&gt;" class="cls-6" d="M119.29,64.84a8.85,8.85,0,0,1,.83-5.06l-2.62-2.93c-2.22,1.15-4.91.85-7.86-.17-2.93,1-5.63,1.32-7.85.17l-2.63,2.93a8.62,8.62,0,0,1,.84,5.06c-.41,2.79-1.07,6-.93,7.82,0,.13,0,.26,0,.38h2.39a1.08,1.08,0,0,1,.41-.26,1.3,1.3,0,0,0,.34-.2s.06-.48.34-.58a1.28,1.28,0,0,1,.53-.11.46.46,0,0,0,.36-.16,2.86,2.86,0,0,0,.67-1,3.07,3.07,0,0,0,.26-1,4.54,4.54,0,0,1,.12-.81s0-.16-.3-.07-.28-.16-.31-.39a2,2,0,0,1,.12-1c.14-.23.2-.31.2-.31l-.1-.38s-1.53.3-1.79-.88-.31-1.75-.36-1.87-.07-.19-.28-.18-.62-.12-.93-.74-.33-.86-.24-1.1.26-.15.31-.08.45.67.61.49.07-.16-.14-.62a1.13,1.13,0,0,1-.14-.84,3.71,3.71,0,0,0-.07-.66.2.2,0,0,1,.29-.16.8.8,0,0,1,.31.24c.07.08.09.19.22.12s0-.51,0-.64.17-.23.37-.13a.61.61,0,0,1,.31.49c0,.14,0,.29.09.29s.16-.24.18-.38.09-.39.23-.19a1,1,0,0,1,.15.75,6.27,6.27,0,0,1-.06.65,5.23,5.23,0,0,0-.14,1.13,2.56,2.56,0,0,0,.22,1.07c.19.47.34,1,.7,1l.45,0a3.11,3.11,0,0,1,.69-.94,3,3,0,0,1,1-.26c.3,0,.43-.12.43-.19s-.09-.1-.46-.16-.67-.13-.68-.42.06-.51-.18-.53a1.45,1.45,0,0,1-1-.6.75.75,0,0,1-.14-.69c0-.22.31-.65.48-.24a.9.9,0,0,0,.45.55c.15.07.34.1.25-.17a1.54,1.54,0,0,1-.15-.66.4.4,0,0,1,.34-.34c.16,0,.65-.19.91-.24l.27-.06s0-.2.35-.29a2.17,2.17,0,0,1,.79-.11,1.41,1.41,0,0,0,.74-.11,1.53,1.53,0,0,1,.76-.18,1,1,0,0,1,.51.2c.16.09.1.24.1.38s0,.21.25.21a1.41,1.41,0,0,1,.59.08c.23.09.5.18.32.41s-.19.46-.32.44-.09.12-.14.19-.08.14,0,.22.14.15.34.31.44.35.16.61a3,3,0,0,1-.73.49s-.26.12,0,.3.44.56.56.61l.29.21c.08,0,.07.29.07.29a1.58,1.58,0,0,1-.39.2,2.12,2.12,0,0,1-.68.19c-.22,0-.33,0-.25.21a4.52,4.52,0,0,1,.27.51,1.83,1.83,0,0,1,.1.34,4.59,4.59,0,0,0,.66.06,6.91,6.91,0,0,0,1.16-.06,6,6,0,0,1,1.58,0,7.13,7.13,0,0,1,1,.11,2.65,2.65,0,0,1,.35.15,8.66,8.66,0,0,0,1.47-.12c.53-.12.64-.46.57-.62s-.06-.44-1-.57-1.27-.08-2-.22-1.86-.5-2-1.41a1.29,1.29,0,0,1,.9-1.46c.37-.18,1.17-.45,1.53-.61a3.7,3.7,0,0,1,1.75-.21c.71.11,1.12.3,1.39.14s.51,0,.46.21a1.51,1.51,0,0,1-1.13,1,5.08,5.08,0,0,1-2.28.13c-.51-.14-.91-.36-1.22-.23a.6.6,0,0,0-.33,1c.34.48,2.09.62,2.56.66s2.21-.07,2.7.79a1.46,1.46,0,0,1-.49,2,7.42,7.42,0,0,1-1.52.41l-.44.06a2.89,2.89,0,0,1,.21.65c0,.2,0,.55.19.69a1.29,1.29,0,0,0,.88.21c.37,0,.82.21.84.54s.11.79.16,1.44,0,1.21,0,1.21a4.51,4.51,0,0,1-.11.5c-.1.25-.55,1.17-.55,1.17h2.55c0-.12,0-.25,0-.38.11-1.86-.54-5-.95-7.82"/><path id="_Path_103" data-name="&lt;Path&gt;" class="cls-7" d="M99.4,74.29a7.3,7.3,0,0,0,3.11,3.82c2.19,1.32,3.13,1.13,5.18,2.48s1.92,1.57,2,1.57-.09-.23,2-1.57,3-1.16,5.18-2.48a7.23,7.23,0,0,0,3.1-3.82Z"/><path id="_Path_104" data-name="&lt;Path&gt;" class="cls-3" d="M101.19,63.26a.78.78,0,0,0,.76.28c.36,0,.44.23.51.5a5.21,5.21,0,0,0,.33,1.57c.24.62,1.11.66,1.11.66a3.71,3.71,0,0,1,.26-1c0-.06.14-.34-.17-.34s-.31-.12-.48-.42a5.41,5.41,0,0,1-.63-1.57,4.41,4.41,0,0,1,.15-1.54c.1-.27.11-.44,0-.51a.66.66,0,0,0-.29,0s.09.24,0,.28-.17-.12-.22-.3-.13-.14-.26-.13-.13.12,0,.24a.52.52,0,0,1,0,.35,3,3,0,0,0-.39-.25c-.1,0-.37.05-.39.2a1,1,0,0,0,.34.73.78.78,0,0,1,.16.78c-.08.2-.42.16-.5.08a.21.21,0,0,0-.32,0c-.1.12-.19.17,0,.42"/><path id="_Path_105" data-name="&lt;Path&gt;" class="cls-3" d="M101.05,62.61l-.19-.17a1.21,1.21,0,0,0-.14-.2.44.44,0,0,0,0,.2.6.6,0,0,0,.16.32Z"/><path id="_Path_106" data-name="&lt;Path&gt;" class="cls-3" d="M101.58,60.89c.1,0,.19-.07.1-.19s-.16-.27-.25-.28a.3.3,0,0,0-.16,0,1.58,1.58,0,0,1,.13.36c0,.12,0,.17.18.12"/><path id="_Path_107" data-name="&lt;Path&gt;" class="cls-3" d="M102.21,60.38c0,.1,0,.15.11.1a.23.23,0,0,0,.1-.28,1.2,1.2,0,0,0-.17-.17l-.07,0a1.73,1.73,0,0,1,0,.39"/><path id="_Path_108" data-name="&lt;Path&gt;" class="cls-3" d="M103.14,60.53a.74.74,0,0,0,0-.26.41.41,0,0,1-.07.23c-.06.08,0,.06,0,.14s.07,0,.08-.11"/><path id="_Path_109" data-name="&lt;Path&gt;" class="cls-3" d="M104.58,66.79c.19.42.65-.25,1.06-.78s.4-.12.35.32a2,2,0,0,0,.3,1.18c.14.3.28.13.35-.07a4.23,4.23,0,0,1,.29-.87c.12-.2.26,0,.28.16a2.37,2.37,0,0,0,.45.83c.2.24.3-.08.37-.38s.15-.74.21-.92.25,0,.25,0,.13.14.41.4.32-.15.35-.36,0-.67,0-.75.32.12.7.29.34-.17.3-.36a2,2,0,0,0-.55-.9c-.29-.25-.33-.55-.24-.68s.46,0,.69,0a2.31,2.31,0,0,0,.49-.07.19.19,0,0,0,.17-.19,1.92,1.92,0,0,0-.36-.42,1.59,1.59,0,0,0-.68-.46,2.47,2.47,0,0,0-.7,0l0-.07c0-.08-.12-.08-.18,0a4.18,4.18,0,0,1-.3.3c-.12.08-.19.14-.24.1s0-.13,0-.13a1.26,1.26,0,0,0,.29-.4c.14-.28.19-.55.07-.67s-.4,0-.58,0-.27,0-.28-.06.16,0,.37-.07.34-.28.41-.49.13-.17.24-.06.25.1.29,0a1.85,1.85,0,0,1,.26-.51.61.61,0,0,0,.07-.69.53.53,0,0,0-.68-.06.76.76,0,0,0-.29.56c0,.31-.12.15-.12,0s-.14-.24-.08-.38a.28.28,0,0,0,0-.25.36.36,0,0,0-.32-.33,2.28,2.28,0,0,0-.93.08.3.3,0,0,0-.23.34,4.06,4.06,0,0,0-.46,0,6,6,0,0,0-.73.18c-.22,0-.32.09-.32.19a1.43,1.43,0,0,0,0,.3.65.65,0,0,1,.28.06c.09.05,0,.14-.07.19s-.15.05-.15.19.06.17.17.17a1.44,1.44,0,0,1,.62.13.47.47,0,0,1,.31.52c0,.14-.4.32-.6.32s-.26,0-.26.17.24.11.24.11.24,0,.69.07a1.08,1.08,0,0,1,.75.33c.21.18.06.23,0,.29a2.11,2.11,0,0,1-.4.23c-.16.05-.25.17-.4.21a3.3,3.3,0,0,0-1.13.26,1.72,1.72,0,0,0-.86,1.09,3.77,3.77,0,0,0,.37-.19c.3-.15.67-.33,1-.53s.32.1.14.4.16.22.26.14a3.1,3.1,0,0,1,.55-.34c.32-.15.21.11.21.11a2.14,2.14,0,0,0-.13.66c0,.46.46,0,.69-.27s.31,0,.15.33-.49.61-.68.61-.31-.2-.34-.31.06-.45,0-.52-.43,0-.68.14-.29,0-.34-.1.08-.16,0-.25-.19,0-.28.05-.33.16-.76.38-.4.35-.4.69.08.37.26.79"/><path id="_Path_110" data-name="&lt;Path&gt;" class="cls-3" d="M108.78,59.78a2.3,2.3,0,0,1,.25-.12,3.69,3.69,0,0,1,.4-.07c.17,0,.15-.15.11-.22s-.11-.12-.35-.12a1.54,1.54,0,0,0-.57.17,2,2,0,0,1-.28.1l.11.18a.25.25,0,0,0,.33.08"/><path id="_Path_111" data-name="&lt;Path&gt;" class="cls-3" d="M109.78,60.77a.83.83,0,0,0,.22,0,2.66,2.66,0,0,1,.32-.15.52.52,0,0,0,.35-.29c.09-.19-.12-.19-.41-.26s-.42,0-.46.12a1.24,1.24,0,0,1-.14.44c-.11.21,0,.18.12.18"/><path id="_Path_112" data-name="&lt;Path&gt;" class="cls-3" d="M109.68,61c-.27,0-.58.43-.7.49s0,.16,0,.16A1.61,1.61,0,0,1,109,62a2.52,2.52,0,0,1,0,.45.67.67,0,0,0,.21,0,.68.68,0,0,0,.42-.2,1,1,0,0,1,.5-.2,1.63,1.63,0,0,0,.57-.22c.26-.12-.11-.36-.38-.57a1,1,0,0,0-.72-.26"/><path id="_Path_113" data-name="&lt;Path&gt;" class="cls-3" d="M106,62c.23,0,.34-.13.34-.24s-.12-.27-.41-.24c-.69.05-1.36-.19-1.48-.87a.79.79,0,0,0,.19.9A1.66,1.66,0,0,0,106,62"/><path id="_Path_114" data-name="&lt;Path&gt;" class="cls-3" d="M103.59,72.94a.38.38,0,0,0,.13.1h1.06c.19,0,.19-.21.19-.32s.11-.53.26-1.23a9.4,9.4,0,0,1,.5-1.5c.11-.29-.09-.38-.17-.56a3.93,3.93,0,0,1-.22-.66c0-.15-.28-.13-.42-.13s-.17.24-.18.45-.13.83-.22,1.37a3.54,3.54,0,0,1-.88,1.42.66.66,0,0,1-.42.21,1,1,0,0,0-.49.09.56.56,0,0,0-.27.42c0,.16.25.25.25.25a1.32,1.32,0,0,0,.26-.23,1.22,1.22,0,0,1,.41-.14c.17,0,.19,0,.13.12s0,.11.08.34"/><path id="_Path_115" data-name="&lt;Path&gt;" class="cls-3" d="M102,72.88c-.09,0-.14.11-.18.16h.69a.35.35,0,0,0-.06-.16c-.09-.1-.31-.06-.45,0"/><path id="_Path_116" data-name="&lt;Path&gt;" class="cls-3" d="M102.92,72.85a1,1,0,0,0-.25.19h.74a.15.15,0,0,0,0-.23c-.17-.13-.33,0-.44,0"/><path id="_Path_117" data-name="&lt;Path&gt;" class="cls-3" d="M109.41,72.55c-.1,0-.16.07-.28.15a.45.45,0,0,0-.17.3,0,0,0,0,0,0,0h.32s0,0,0,0,0-.17.18-.28,0-.17-.07-.17"/><path id="_Path_118" data-name="&lt;Path&gt;" class="cls-3" d="M110,72.88c0-.09,0-.18-.1-.17s-.2.14-.29.21a1.54,1.54,0,0,0-.13.12H110a.42.42,0,0,0,0-.16"/><path id="_Path_119" data-name="&lt;Path&gt;" class="cls-3" d="M112.91,69.44c.24-.16.2-.21.21-.39s0-.21-.08-.28a1.6,1.6,0,0,0-.75-.21,2.83,2.83,0,0,0-1.14.22c-.23.15-.33.71-.33,1s0,.35.13.35.21-.2.21-.2.31.38.49.66a.48.48,0,0,1,0,.57,2.15,2.15,0,0,1-.61.88c-.24.12-.42,0-.7,0a.6.6,0,0,0-.59.19c-.17.17,0,.3.09.3a.37.37,0,0,1,.34.13c.07.09,0,.31,0,.42h1.38a1.16,1.16,0,0,0,.47-.59,1.93,1.93,0,0,1,.5-.6c.15-.13.17-.23.17-.52a1.19,1.19,0,0,0-.19-.68,1.24,1.24,0,0,1-.15-.69c0-.17.34-.36.55-.52"/><path id="_Path_120" data-name="&lt;Path&gt;" class="cls-3" d="M110.65,66c.13.23,0,.28-.15.32a2.52,2.52,0,0,1-.72,0c-.3,0-.3,0-.3.16a1.42,1.42,0,0,1-.22.74.35.35,0,0,1-.54,0c-.14-.09-.22-.06-.28.12a3.12,3.12,0,0,1-.28.53c-.15.26-.25.28-.35.25s-.19-.18-.3-.18-.27-.23-.43-.48-.24,0-.33.25-.21.37-.42.35-.42-.4-.53-.62-.18-.45-.34-.45-.48.38-.65.47-.25.07-.34,0-.19,0-.31.32a.49.49,0,0,0,.16.61c.17.08.47-.14.68-.28a.68.68,0,0,1,.53-.12c.2,0,.19.37.28.88s.39.58.39.58.12.09.34-.3.26-.79.5-.79.22.05.45.37.42.54.55.3a3.14,3.14,0,0,1,.39-.71c.15-.1.29-.14.13.09s-.22.46.09.37,1.54-.6,2-.68a9.9,9.9,0,0,1,1.24-.14c.67,0,.83-.06,1.09-.06s.27,0,.29-.21-.12-.14-.6-.14a7.14,7.14,0,0,0-1.16.11c-.34.06-.5,0-.45,0s.17-.14.57-.2a13.49,13.49,0,0,1,1.58-.12c.42,0,.3.12.26.4a4.9,4.9,0,0,0,.06.94,1.14,1.14,0,0,0,.25.69c.23.37,1,.6,1.24.72s.19,0,.16-.23.19-.19.38-.08a4.35,4.35,0,0,0,.77.26c.23.06.25.1.25.23s0,.39,0,.64a.57.57,0,0,1-.07.48c-.12.15-.55.6-.55.6a2.79,2.79,0,0,0-.62.11c-.42.1-.56.29-.59.47s.08.23.09.3v.2H115c0-.06.09-.14.16-.23a.71.71,0,0,1,.76-.11.28.28,0,0,1,.14.33h1c.14-.24.45-.85.53-1a1.44,1.44,0,0,0,.17-.69,10.35,10.35,0,0,0,0-1.62c-.06-.07,0-.28,0-.62s0-.61-.64-.67a1.45,1.45,0,0,1-1-.54c-.22-.22-.18-.73-.35-1.33s-.58-.7-1.34-.84a6.19,6.19,0,0,0-1.87-.11,12.88,12.88,0,0,1-1.64.1c-.39,0-.33.07-.18.29"/><path id="_Path_121" data-name="&lt;Path&gt;" class="cls-3" d="M114.27,72.92a.29.29,0,0,0-.14.12h.65a.24.24,0,0,0-.07-.17c-.1-.13-.29-.06-.44,0"/><path id="_Path_122" data-name="&lt;Path&gt;" class="cls-3" d="M115.42,72.88a1,1,0,0,0-.21.16h.67V73a.33.33,0,0,0-.46-.09"/><path id="_Path_123" data-name="&lt;Path&gt;" class="cls-3" d="M99.14,73.28c0,.22.08.41.15.63H120a4.7,4.7,0,0,0,.13-.63Z"/><path id="_Path_124" data-name="&lt;Path&gt;" class="cls-3" d="M113.11,63.4c.65.42,2.72.45,3.7.64s.91.94.6,1.34-1.66.43-1.9.46a1.79,1.79,0,0,1,.32.39l.58-.06a2.92,2.92,0,0,0,1.61-.53,1,1,0,0,0,0-1.54,3.2,3.2,0,0,0-1.9-.58c-.74-.08-1.31-.12-2.15-.27s-1.21-.47-1.21-1a.94.94,0,0,1,.76-.82,2.09,2.09,0,0,1,1.3,0,4,4,0,0,0,1.9.07,1.27,1.27,0,0,0,1.12-.74,1.89,1.89,0,0,1-.58.06c-.46,0-.8-.19-1.62-.2a3.45,3.45,0,0,0-1.54.42c-.38.14-1.43.24-1.74.92s0,1,.71,1.45"/><path id="_Path_125" data-name="&lt;Path&gt;" class="cls-5" d="M107.66,59.87a.39.39,0,0,1,0,.78.39.39,0,1,1,0-.78"/><path id="_Path_126" data-name="&lt;Path&gt;" class="cls-5" d="M116.05,60.93a4.37,4.37,0,0,0-1.19.09.57.57,0,0,0,.31.08,3.89,3.89,0,0,1,1,.07A1.31,1.31,0,0,0,117,61s-.45-.06-1-.09"/><path id="_Path_127" data-name="&lt;Path&gt;" class="cls-3" d="M132.67,84.13c.42.1,3.84.76,4.12.81s.54.13.61.06a.81.81,0,0,1,.43-.24.41.41,0,0,0,.29-.42,4.09,4.09,0,0,0,.11-.58c0-.28.19-.38.53,0a2.29,2.29,0,0,1,.46,1.35c.07.49.85.63,1.14.67a.53.53,0,0,0,.63-.33,4,4,0,0,0,.32-1.24c.05-.36,0-.33-.37-.43s-2.16-.48-2.47-.57-.25-.28-.22-.51.76-2.47.76-2.47a4.71,4.71,0,0,0-2-.58s-.49,2.29-.59,2.63-.33.35-.7.3-3-.69-3-.69l-.2.5a4,4,0,0,0-.3,1.39c0,.29.11.28.51.37"/><path id="_Path_128" data-name="&lt;Path&gt;" class="cls-3" d="M141.75,86.21c-.36-.23-.62-.29-.81.14a3.47,3.47,0,0,1-.65,1.49,2.48,2.48,0,0,1-1.74.86c-.65,0-1-.2-.86-.92s1.13-1,1.36-1.36a.83.83,0,0,0-.17-1.11,1,1,0,0,0-1-.26,2.11,2.11,0,0,0-.73,1,2.83,2.83,0,0,1-.76,1.34,3.23,3.23,0,0,1-2.38.5,1.7,1.7,0,0,1-1.48-1.3c-.32-.83-.71-2.23-.87-2.39a.54.54,0,0,0-.75,0,1.23,1.23,0,0,0-.44,1,1.31,1.31,0,0,0,.36,1.1,3.92,3.92,0,0,1,.88,1.34c.14.46.55,1.17,0,1.19a1.31,1.31,0,0,1-1.3-.39c-.44-.41-2.18-1.59-2.65-2s-.67-.5-.67-.5a4.39,4.39,0,0,1-2.39-.89s.44,1.18.55,1.63a2.71,2.71,0,0,1,.07.69l2.43,1.21c.69.34,2.07,1.14,2.74,1.55s1.25,1.06,2.44.81,3.61-1,4.39-1.21a17.23,17.23,0,0,0,3.72-1.31c.8-.55.87-.53,1-1.08a.88.88,0,0,0-.35-1.08"/><path id="_Path_129" data-name="&lt;Path&gt;" class="cls-3" d="M137.14,78a3.86,3.86,0,0,1,.6-.1c.41-.06.25.34.18.48s-.2.45-.36.73,0,.33.16.37.28.07.6.16.28-.16.29-.27,0-.77.06-1,.25-.17.32-.13l.46.25c.18.09.24,0,.28-.11s.11-.27.18-.52-.08-.21-.25-.21H139c-.26,0-.09-.26-.09-.26l.34-.57c.15-.23.1-.26-.06-.31s-.6-.15-.74-.18-.21,0-.21.07,0,.53,0,.72,0,.28-.25.29-.36-.13-.55-.32-.27-.13-.27-.06-.17.67-.21.84,0,.14.18.14"/><path id="_Path_130" data-name="&lt;Path&gt;" class="cls-3" d="M123.88,84.45c-.27-.28.39-.28.77-.28a3,3,0,0,0,1.24-.34c.19-.12.57-.19,1-.4s.17-.27-.27-.38a16.09,16.09,0,0,1-1.58-.59s-.56.3-.88.49a3.48,3.48,0,0,1-1.41.53,6,6,0,0,0-.92.14s.16.17.43.55.37.6.68,1.15,0,.22-.31-.11a10.4,10.4,0,0,0-.83-1,3,3,0,0,0-.48-.42l-.23.46v.17c0,.15-.12.89-.17,1.2s.07.3.31.41a19.2,19.2,0,0,1,2,1.17A8.67,8.67,0,0,1,125,88.55a6.67,6.67,0,0,0,0-.68A5.2,5.2,0,0,0,124.7,86a5,5,0,0,0-.82-1.57"/><path id="_Path_131" data-name="&lt;Path&gt;" class="cls-3" d="M120.91,82.68a3.1,3.1,0,0,0,.85.13c.42,0,.59-.13,1-.13a3.12,3.12,0,0,0,1.43-.51c.7-.39,0-.28-.46-.24a7.5,7.5,0,0,1-2.32-.36c-.55-.2-.15-.23,0-.19a6.27,6.27,0,0,0,1.33.28,3.58,3.58,0,0,0,2.07-.2c.56-.15-.14-.23-.14-.23a7.27,7.27,0,0,1-3-1.69,4.47,4.47,0,0,1-1.1-2,10,10,0,0,1-1.29,1.24,3.12,3.12,0,0,0,.21.64,3.82,3.82,0,0,0,.63.87,2.86,2.86,0,0,1-.85-.53,3.15,3.15,0,0,1-.44-.66,13.18,13.18,0,0,1-2,1.12l.27.22a5.09,5.09,0,0,1,.86,1.11c.36.56,0,.51-.28,0a4.11,4.11,0,0,0-1.25-1.11h-.06a1.36,1.36,0,0,1-.21.1L115,81.1a6,6,0,0,1,1.06,1.08c.23.33.69.62.84.85s.35.47.57.74,1.57,1.77,1.93,2.34.15-.14,0-.53a13.83,13.83,0,0,0-.34-1.38c-.12-.43.14-.25.19,0s.1.26.21.73.37,1.14.49,1.63.16.24.28,0a5,5,0,0,0,.38-.85,7.41,7.41,0,0,0,.15-1.59,2.49,2.49,0,0,0-.39-1.27c0-.11.2-.21.48-.16"/><path id="_Path_132" data-name="&lt;Path&gt;" class="cls-3" d="M126.67,84.45a3.29,3.29,0,0,1-.71.23,2.27,2.27,0,0,1-.32,0,1.29,1.29,0,0,0,.94.53h1.62a11.84,11.84,0,0,1-1.09-.7.42.42,0,0,0-.44-.09"/><path id="_Path_133" data-name="&lt;Path&gt;" class="cls-3" d="M138.42,83.76a3.9,3.9,0,0,1-.06.64c-.06.15-.16.38,0,.45s.37.15.48.11.07-.25,0-.44a1.78,1.78,0,0,0-.3-.6Z"/><path id="_Path_134" data-name="&lt;Path&gt;" class="cls-3" d="M141.23,85.61a.39.39,0,0,0,.3.22c.08,0,.22,0,.22-.15a1,1,0,0,0-.11-.59c-.15-.18-.22-.32-.32,0s-.15.43-.09.56"/><path id="_Path_135" data-name="&lt;Path&gt;" class="cls-3" d="M131.45,83.76a2.64,2.64,0,0,1,.37.1,4.18,4.18,0,0,1,.07-.75c.08-.3.19-.51.09-.51s-.17.1-.26.23-.3.15-.38.52,0,.39.11.41"/><path id="_Path_136" data-name="&lt;Path&gt;" class="cls-5" d="M92.8,71.15a2.2,2.2,0,0,1-.74.35s-.2,0-.2.06.22,0,.47,0a1.87,1.87,0,0,0,.7-.38c.11-.08.3-.2.25-.35s-.16.11-.48.36"/><path id="_Path_137" data-name="&lt;Path&gt;" class="cls-5" d="M95.55,72.62a6.24,6.24,0,0,1-.6.49,2.31,2.31,0,0,1-.34.17.38.38,0,0,0-.22.17s0,0,.22,0a5.44,5.44,0,0,0,.91-.62c.19-.14.26-.19.2-.26s-.1,0-.17.05"/><path id="_Path_138" data-name="&lt;Path&gt;" class="cls-5" d="M84.37,52.78c.1.13.23.28.27.24s0-.11-.13-.27-.21-.24-.21-.24A4.42,4.42,0,0,0,84,52.1c-.12-.11-.29-.16-.09.1s.35.46.45.58"/><path id="_Path_139" data-name="&lt;Path&gt;" class="cls-5" d="M83.53,54.64c.12.11.22.21.36.36s.24.29.31.22-.19-.24-.32-.41a2.65,2.65,0,0,0-.38-.37,2.55,2.55,0,0,0-.34-.21,4.23,4.23,0,0,0,.37.41"/><path id="_Path_140" data-name="&lt;Path&gt;" class="cls-5" d="M83.84,57.64c.22.22.53.28.57.2s0-.16-.19-.25-.47-.28-.62-.37a2.47,2.47,0,0,1-.39-.32c-.09-.09-.21-.18-.24-.14s.29.39.38.44a1.89,1.89,0,0,1,.49.44"/><path id="_Path_141" data-name="&lt;Path&gt;" class="cls-5" d="M84.45,60c0-.08,0-.13-.15-.14l-.42,0s-.34-.15-.38-.08.3.2.42.23a1.16,1.16,0,0,1,.39.1c.08.05.14,0,.14-.08"/><path id="_Path_142" data-name="&lt;Path&gt;" class="cls-5" d="M84.73,62.66c-.4,0-.71-.09-.72,0s.17.14.36.21a2.64,2.64,0,0,0,.78.1c.24,0,.29,0,.28-.17s-.33-.1-.7-.1"/><path id="_Path_143" data-name="&lt;Path&gt;" class="cls-5" d="M87.66,65.51c0-.05-.19,0-.4,0a3.2,3.2,0,0,1-.75.09h-.63s-.25,0-.25,0a3.48,3.48,0,0,0,.79.1,3.35,3.35,0,0,0,1-.07c.22,0,.29-.14.24-.2"/><path id="_Path_144" data-name="&lt;Path&gt;" class="cls-5" d="M88.88,67.56a1.59,1.59,0,0,1-.57.1,4.6,4.6,0,0,0-.6.08s-.21,0-.17.11.1,0,.28,0,.3,0,.62,0a3.05,3.05,0,0,0,.67-.13c.19,0,.41-.12.3-.24s-.3,0-.53.12"/><path id="_Path_145" data-name="&lt;Path&gt;" class="cls-5" d="M91.25,69.1a7.33,7.33,0,0,1-.64.47,1.84,1.84,0,0,1-.3.18c-.19.09-.19.14-.16.2s.16-.09.27-.12.47-.3.66-.45.43-.28.38-.38-.07,0-.21.1"/><path id="_Path_146" data-name="&lt;Path&gt;" class="cls-5" d="M87.31,49.16a4.11,4.11,0,0,0,.45.61c.41.51.2,0,.09-.1s-.7-1-.91-1.23-.23-.1-.13,0l.5.68"/><path id="_Path_147" data-name="&lt;Path&gt;" class="cls-5" d="M86.44,51.79c.06-.06-.07-.13-.3-.42s-.7-.89-.7-.89-.13-.28-.18-.25a1.39,1.39,0,0,0,.35.66c.19.2.44.56.58.72s.19.23.25.18"/><path id="_Path_148" data-name="&lt;Path&gt;" class="cls-5" d="M87.59,56.7c0-.14-.48-.12-.68-.17s-.58-.12-.58-.12-.45-.07-.45,0,.08.1.33.15.6.15.87.19.51.1.51,0"/><path id="_Path_149" data-name="&lt;Path&gt;" class="cls-5" d="M86.44,54a4.51,4.51,0,0,0,.67.46c.17.08.3.21.39.11s-.07-.18-.33-.29a2.69,2.69,0,0,1-.4-.22L86.49,54c-.14-.07-.35-.16,0,.08"/><path id="_Path_150" data-name="&lt;Path&gt;" class="cls-5" d="M89.09,52.29a2.54,2.54,0,0,0-.35-.24s-.24-.22-.28-.16.27.3.4.43.43.5.55.44-.12-.31-.32-.47"/><path id="_Path_151" data-name="&lt;Path&gt;" class="cls-5" d="M87.36,59.14l-.42.13c-.16,0-.17.11.12.11a3.51,3.51,0,0,0,.72-.13c.31-.06.4-.09.36-.19S88,59,87.82,59l-.46.12"/><path id="_Path_152" data-name="&lt;Path&gt;" class="cls-5" d="M87.83,61.62c0,.07.21,0,.36-.06s.48-.21.66-.27.19-.09.19-.2-.2,0-.43.07a1.86,1.86,0,0,0-.56.32s-.2.08-.22.14"/><path id="_Path_153" data-name="&lt;Path&gt;" class="cls-5" d="M91,63.14c.23-.14.28-.23.19-.31s-.14,0-.32.09-.52.39-.52.39l-.31.13c-.13.07-.3.18-.24.24s.31,0,.44-.11.55-.29.76-.43"/><path id="_Path_154" data-name="&lt;Path&gt;" class="cls-5" d="M92.53,65.13c.09-.07.36-.16.49-.26s.18-.35.09-.39-.15.12-.36.28l-1,.62s0,0-.17.08-.12.13.05.11a.74.74,0,0,0,.47-.17,4.26,4.26,0,0,0,.38-.27"/><path id="_Path_155" data-name="&lt;Path&gt;" class="cls-5" d="M94.77,67a2.67,2.67,0,0,0,.59-.44c.14-.12.3-.28.21-.35s-.23,0-.37.16-.56.57-.56.57a1.54,1.54,0,0,0-.29.19c-.21.18,0,.15.1.07a.93.93,0,0,1,.32-.2"/><path id="_Path_156" data-name="&lt;Path&gt;" class="cls-5" d="M127.23,71.5a2.2,2.2,0,0,1-.74-.35c-.32-.25-.42-.51-.48-.36s.13.27.24.35a1.79,1.79,0,0,0,.7.38c.25,0,.48.12.48,0s-.2-.06-.2-.06"/><path id="_Path_157" data-name="&lt;Path&gt;" class="cls-5" d="M124.66,73.28a3.65,3.65,0,0,1-.33-.17,5.22,5.22,0,0,1-.59-.49c-.08-.07-.11-.11-.16-.05s0,.12.17.26a5.44,5.44,0,0,0,.91.62c.21,0,.24,0,.24,0a.43.43,0,0,0-.24-.17"/><path id="_Path_158" data-name="&lt;Path&gt;" class="cls-5" d="M134.91,52.78c.1-.12.23-.33.44-.58s0-.21-.06-.1a3.91,3.91,0,0,0-.31.41l-.21.24c-.12.16-.19.2-.14.27s.18-.11.28-.24"/><path id="_Path_159" data-name="&lt;Path&gt;" class="cls-5" d="M135.07,55.22c.1.07.2-.09.32-.22a4.09,4.09,0,0,1,.37-.36,5.36,5.36,0,0,0,.36-.41,2,2,0,0,0-.34.21,1.91,1.91,0,0,0-.38.37c-.11.17-.39.32-.33.41"/><path id="_Path_160" data-name="&lt;Path&gt;" class="cls-5" d="M136.31,56.76s-.15.05-.25.14a1.8,1.8,0,0,1-.39.32,6.3,6.3,0,0,1-.6.37c-.18.09-.24.16-.19.25s.35,0,.56-.2a2.3,2.3,0,0,1,.48-.44c.11-.05.43-.41.39-.44"/><path id="_Path_161" data-name="&lt;Path&gt;" class="cls-5" d="M135.4,59.85a4.22,4.22,0,0,1-.42,0c-.17,0-.15.06-.15.14s.06.13.14.08a1.32,1.32,0,0,1,.38-.1c.13,0,.45-.17.42-.23s-.37.06-.37.06"/><path id="_Path_162" data-name="&lt;Path&gt;" class="cls-5" d="M134.56,62.66c-.37,0-.68,0-.71.1s0,.18.29.17a2.9,2.9,0,0,0,.79-.1c.17-.07.38-.15.36-.21a5.09,5.09,0,0,0-.73,0"/><path id="_Path_163" data-name="&lt;Path&gt;" class="cls-5" d="M133.41,65.64h-.63a3.44,3.44,0,0,1-.77-.09c-.2,0-.33-.09-.38,0s0,.17.23.2a3.46,3.46,0,0,0,1,.07c.46-.06.77,0,.77-.1s-.23,0-.23,0"/><path id="_Path_164" data-name="&lt;Path&gt;" class="cls-5" d="M131.58,67.74a5.2,5.2,0,0,0-.6-.08,1.76,1.76,0,0,1-.58-.1c-.23-.09-.43-.26-.52-.12s.12.22.29.24a2.93,2.93,0,0,0,.67.13c.32,0,.45,0,.64,0s.23.1.27,0-.17-.11-.17-.11"/><path id="_Path_165" data-name="&lt;Path&gt;" class="cls-5" d="M129,69.75a2.68,2.68,0,0,1-.3-.18s-.5-.34-.65-.47-.16-.21-.21-.1.19.23.38.38a8,8,0,0,0,.66.45c.12,0,.24.17.27.12s.05-.11-.15-.2"/><path id="_Path_166" data-name="&lt;Path&gt;" class="cls-5" d="M131.52,49.77c.41-.51.47-.61.47-.61s.38-.54.49-.68.07-.27-.13,0-.81,1.1-.92,1.23-.32.61.09.1"/><path id="_Path_167" data-name="&lt;Path&gt;" class="cls-5" d="M134,50.23s-.17.25-.17.25-.46.61-.7.89-.36.36-.3.42.13,0,.27-.18.37-.52.55-.72.41-.63.35-.66"/><path id="_Path_168" data-name="&lt;Path&gt;" class="cls-5" d="M131.7,56.7c0,.14.23.09.5,0s.64-.16.88-.19.34-.11.33-.15-.46,0-.46,0l-.58.12c-.19,0-.67,0-.67.17"/><path id="_Path_169" data-name="&lt;Path&gt;" class="cls-5" d="M132.79,54l-.28.14a1.86,1.86,0,0,1-.38.22c-.29.11-.43.18-.34.29s.21,0,.39-.11a6,6,0,0,0,.66-.46c.3-.24.09-.15-.05-.08"/><path id="_Path_170" data-name="&lt;Path&gt;" class="cls-5" d="M129.88,52.76c.13.06.39-.31.53-.44s.46-.35.41-.43-.28.16-.28.16a2.19,2.19,0,0,0-.34.24c-.19.16-.46.39-.32.47"/><path id="_Path_171" data-name="&lt;Path&gt;" class="cls-5" d="M131.49,59.25a4.17,4.17,0,0,0,.73.13c.29,0,.28-.08.12-.11l-.41-.13s-.34-.08-.45-.12-.3-.06-.33,0,0,.13.34.19"/><path id="_Path_172" data-name="&lt;Path&gt;" class="cls-5" d="M131.24,61.48a2.2,2.2,0,0,0-.56-.32c-.25-.08-.44-.17-.44-.07s0,.15.19.2.51.23.65.27.4.12.37.06-.21-.14-.21-.14"/><path id="_Path_173" data-name="&lt;Path&gt;" class="cls-5" d="M129.21,63.44l-.3-.13s-.34-.24-.51-.39-.25-.16-.33-.09,0,.17.19.31.6.3.76.43.42.18.45.11-.12-.17-.26-.24"/><path id="_Path_174" data-name="&lt;Path&gt;" class="cls-5" d="M127.66,65.46l-.18-.08-.94-.62c-.22-.16-.26-.31-.37-.28s0,.3.11.4.38.18.48.25.17.11.37.27a.78.78,0,0,0,.47.17c.17,0,.27,0,.06-.11"/><path id="_Path_175" data-name="&lt;Path&gt;" class="cls-5" d="M124.92,67.15a1.26,1.26,0,0,0-.27-.19s-.4-.43-.56-.57-.27-.25-.37-.16.06.23.2.35a2.93,2.93,0,0,0,.59.44.9.9,0,0,1,.33.2c.07.08.31.11.08-.07"/><path id="_Path_176" data-name="&lt;Path&gt;" class="cls-3" d="M109.64,40.36a13.52,13.52,0,0,1-4.26-.55l-1,.22a16.49,16.49,0,0,0,10.57,0l-1-.22a13.39,13.39,0,0,1-4.24.55"/><path id="_Path_177" data-name="&lt;Path&gt;" class="cls-3" d="M115.11,39.1a9.67,9.67,0,0,0-1-.68c-.19-.09,0-.32,0-.43a4,4,0,0,1,1.23-.42c.42-.11.36-.2.36-.2s-.25-.3-1.8-.46-4.28-.13-4.28-.13-2.71,0-4.28.13-1.79.46-1.79.46-.07.09.34.2a4,4,0,0,1,1.24.42c0,.11.17.34,0,.43a11.39,11.39,0,0,0-1,.68c-.11.1-.13.26.06.26a1.83,1.83,0,0,0,.73-.09,25.85,25.85,0,0,1,9.39,0,1.75,1.75,0,0,0,.72.09c.19,0,.18-.16,0-.26"/><polygon id="_Path_178" data-name="&lt;Path&gt;" class="cls-3" points="103.72 37.73 103.03 38.28 103.87 38.65 104.78 38.01 103.72 37.73"/><polygon id="_Path_179" data-name="&lt;Path&gt;" class="cls-3" points="115.55 37.73 114.5 38.01 115.4 38.65 116.24 38.28 115.55 37.73"/><path id="_Path_180" data-name="&lt;Path&gt;" class="cls-3" d="M113.36,39.76a21.32,21.32,0,0,0-3.72-.25,26.06,26.06,0,0,0-3.7.25,11,11,0,0,0,3.7.4,11.15,11.15,0,0,0,3.72-.4"/><path id="_Path_181" data-name="&lt;Path&gt;" class="cls-6" d="M111.15,70.56c-.13-.19-.16-.18-.32,0s-.29-.31-.32-.59a10.38,10.38,0,0,1,.12-1.1,9.06,9.06,0,0,0-1.08.28c-.38.12-.74.16-1,.24a2.07,2.07,0,0,1-.64.1,4.15,4.15,0,0,0-.77-.06c-.29,0-.26.06-.53.33a2.28,2.28,0,0,0-.57.93,5.46,5.46,0,0,0-.35,1.59,4.06,4.06,0,0,1-.17.81h3.24c0-.09.09-.23.13-.32a.79.79,0,0,1,.4-.37c.12,0,.23,0,.3-.21a.63.63,0,0,1,.38-.33,1.17,1.17,0,0,1,.75,0c.27.07.35-.13.42-.23s.13-.23.27-.43a.3.3,0,0,0,0-.35,1.07,1.07,0,0,1-.24-.29"/><path id="_Path_182" data-name="&lt;Path&gt;" class="cls-6" d="M116.36,70.65c-.06-.19,0-.22-.16-.24l-.45-.12c-.16-.07-.14.36-.14.36a4.24,4.24,0,0,1-.82,0,3,3,0,0,1-1.12-.56,2.39,2.39,0,0,1-.38-.43,1.73,1.73,0,0,1-.27.2.93.93,0,0,0-.24.63c0,.27.33.59.35.88a2.11,2.11,0,0,1-.47,1c-.1.17-.24.49-.33.66h1.56a1.51,1.51,0,0,1,.18-.25.81.81,0,0,1,.43-.2.76.76,0,0,1,.06-.22c0-.14.22-.31.61-.46a3.55,3.55,0,0,1,.86-.18,1.5,1.5,0,0,0,.33-.36c.14-.22,0-.55,0-.72"/><polygon id="_Path_183" data-name="&lt;Path&gt;" class="cls-3" points="109.31 25.16 110.13 25.1 110.05 24.38 110.92 24.52 110.96 23.81 110.05 23.88 110.2 23.14 109.2 23.13 109.37 23.88 108.49 23.81 108.49 24.52 109.36 24.4 109.31 25.16"/><path id="_Path_184" data-name="&lt;Path&gt;" class="cls-3" d="M111.08,26.31H110v-.94l-.33,0-.27,0v.94h-1.15a1.22,1.22,0,0,0,0,.37.66.66,0,0,0,0,.15h2.94v-.15a1.27,1.27,0,0,0-.07-.37"/><path id="_Path_185" data-name="&lt;Path&gt;" class="cls-6" d="M109.67,28a1.46,1.46,0,0,0,1.39-.91h-2.79a1.5,1.5,0,0,0,1.4.91"/><path id="_Path_186" data-name="&lt;Path&gt;" class="cls-6" d="M110.27,25.46v.65H111a1.42,1.42,0,0,0-.73-.65"/><path id="_Path_187" data-name="&lt;Path&gt;" class="cls-6" d="M109.07,25.46a1.39,1.39,0,0,0-.72.65h.72Z"/><path id="_Path_188" data-name="&lt;Path&gt;" class="cls-5" d="M110.51,37.33l-.87-.38-.9.43c-.3.17-.25.12-.36.33a.26.26,0,0,0,.15.38l1.12.56,1.2-.56c.23-.12.2-.22.14-.39s-.21-.24-.48-.37"/><path id="_Path_189" data-name="&lt;Path&gt;" class="cls-5" d="M112.51,37.07a.82.82,0,1,1,0,1.64.82.82,0,1,1,0-1.64"/><path id="_Path_190" data-name="&lt;Path&gt;" class="cls-5" d="M106.76,37.07a.82.82,0,1,1-.86.82.85.85,0,0,1,.86-.82"/><polygon id="_Path_191" data-name="&lt;Path&gt;" class="cls-3" points="108.69 37.62 109.65 38.11 110.61 37.62 109.64 37.16 108.69 37.62"/><path id="_Path_192" data-name="&lt;Path&gt;" class="cls-3" d="M112.51,37.21a.5.5,0,0,1,.51.5.5.5,0,0,1-.51.5.51.51,0,0,1-.52-.5.51.51,0,0,1,.52-.5"/><path id="_Path_193" data-name="&lt;Path&gt;" class="cls-3" d="M106.76,37.21a.5.5,0,0,1,.5.5.5.5,0,0,1-.5.5.51.51,0,0,1-.52-.5.51.51,0,0,1,.52-.5"/><path id="_Path_194" data-name="&lt;Path&gt;" class="cls-3" d="M105,35.05a1.35,1.35,0,0,0,.51.05.64.64,0,0,0-.13-.57c-.21-.18-.39-.32-.51-.44l-.16-.17s0,.33,0,.54a.62.62,0,0,0,.31.59"/><path id="_Path_195" data-name="&lt;Path&gt;" class="cls-3" d="M105.41,35.33a.15.15,0,0,1,.16.14.16.16,0,0,1-.16.16.16.16,0,0,1-.15-.16.14.14,0,0,1,.15-.14"/><path id="_Path_196" data-name="&lt;Path&gt;" class="cls-3" d="M104.24,35.31c-.07.09-.21.24-.21.24a.69.69,0,0,1,.32.11.77.77,0,0,0,.5.16.22.22,0,0,0,.21-.28c0-.13-.11-.23-.41-.34s-.35,0-.41.11"/><path id="_Path_197" data-name="&lt;Path&gt;" class="cls-3" d="M104.85,36.31a2.35,2.35,0,0,1-1.26-.54.91.91,0,0,1-.8.81l0,0a3.64,3.64,0,0,0,.9.28,1.72,1.72,0,0,0,.67-.06,2.53,2.53,0,0,0,.8-.24c.33-.19.23-.72.23-.72s-.05.39-.58.44"/><path id="_Path_198" data-name="&lt;Path&gt;" class="cls-3" d="M102.74,35.77a5.05,5.05,0,0,0-.69-.25c-.14,0-.34,0-.3.21s.29.38.55.39a.94.94,0,0,0,.54-.16c.15-.07.12-.11-.1-.19"/><path id="_Path_199" data-name="&lt;Path&gt;" class="cls-3" d="M101.05,34.86a1.29,1.29,0,0,0-.45-.22,1.12,1.12,0,0,0-.07.67.45.45,0,0,0,.5.32c.23,0,.57-.13.48-.3a1.35,1.35,0,0,0-.46-.47"/><path id="_Path_200" data-name="&lt;Path&gt;" class="cls-3" d="M101.27,35.89c.11,0,.2.06.2.13s-.09.13-.2.13-.19,0-.19-.13.09-.13.19-.13"/><path id="_Path_201" data-name="&lt;Path&gt;" class="cls-3" d="M101.79,34a3,3,0,0,1,.54-2.46,4.15,4.15,0,0,1,1.86-1.38,2.66,2.66,0,0,1,.4-.48,8,8,0,0,1,1.13-.89s-.87.21-1.37.37v0a.61.61,0,0,1-.6.62.54.54,0,0,1-.34-.12,6.91,6.91,0,0,0-1.43.79.64.64,0,0,1,.1.33.61.61,0,0,1-.61.61.51.51,0,0,1-.27-.06l-.08.13a4.87,4.87,0,0,0-.43,1,.63.63,0,0,1,.25.53.58.58,0,0,1-.51.62,3,3,0,0,0,0,.4c0,.2.11.32.44.43s.83.7.83.7a1.46,1.46,0,0,0,.1-1.16"/><path id="_Path_202" data-name="&lt;Path&gt;" class="cls-3" d="M103.92,29.41c.14-.1.16-.26.06-.34a.32.32,0,0,0-.41,0c-.13.11-.16.26,0,.36a.31.31,0,0,0,.4,0"/><path id="_Path_203" data-name="&lt;Path&gt;" class="cls-3" d="M101.68,30.94a.32.32,0,0,0,0-.45.33.33,0,0,0-.46,0,.3.3,0,0,0-.06.44.38.38,0,0,0,.47,0"/><path id="_Path_204" data-name="&lt;Path&gt;" class="cls-3" d="M100.32,32.51a.34.34,0,0,1,.36.34.36.36,0,0,1-.36.35.35.35,0,0,1-.33-.35.34.34,0,0,1,.33-.34"/><path id="_Path_205" data-name="&lt;Path&gt;" class="cls-3" d="M107.86,28a4.66,4.66,0,0,0-1,.42h0a.57.57,0,0,1,.63.51.67.67,0,0,1-.67.59.59.59,0,0,1-.58-.58.65.65,0,0,1,0-.2l-.48.32a4.71,4.71,0,0,0-1.91,2.12,3.91,3.91,0,0,0-.51,2.8c.23.66,1.11.8,1.13.8a.39.39,0,0,1-.12-.22c0-.13,0-.19.06-.44a2.52,2.52,0,0,0,0-.55.39.39,0,0,1,.31.11c.11.14.27.3.39.44a5.69,5.69,0,0,0,.42.4,1.19,1.19,0,0,0,.16-.55c0-.3-.19-.63-.23-1.14a3.73,3.73,0,0,1,.75-2.15A5.94,5.94,0,0,1,108,29.25a.59.59,0,0,0,.35-.48c0-.12,0-.21.06-.52s-.26-.29-.55-.24"/><path id="_Path_206" data-name="&lt;Path&gt;" class="cls-3" d="M106.76,29.2a.39.39,0,0,0,.37-.34.32.32,0,0,0-.35-.29.34.34,0,0,0-.36.29.35.35,0,0,0,.34.34"/><path id="_Path_207" data-name="&lt;Path&gt;" class="cls-3" d="M108.41,35.71a.81.81,0,0,0,.7-.05.3.3,0,0,0,0-.48.56.56,0,0,0-.58,0l-.49.34a.75.75,0,0,0,.34.24"/><path id="_Path_208" data-name="&lt;Path&gt;" class="cls-3" d="M109.26,36a.47.47,0,0,1-.46.25,1,1,0,0,1-.81-.21,1.64,1.64,0,0,1-.33-.46h-.34a1.48,1.48,0,0,1-.27.59.88.88,0,0,1-.87,0c-.23-.16-.45-.36-.48-.33s0,.19.24.38a1,1,0,0,0,.77.33h2.12s.43,0,.55-.22.13-.43.07-.49-.09,0-.19.19"/><path id="_Path_209" data-name="&lt;Path&gt;" class="cls-3" d="M106,35.66a.42.42,0,0,0,.6-.09c.13-.14.14-.2.14-.2a2.86,2.86,0,0,1-.44-.21c-.15-.08-.25-.16-.39-.14s-.17,0-.17,0a.6.6,0,0,0,.26.6"/><path id="_Path_210" data-name="&lt;Path&gt;" class="cls-3" d="M110.13,35.18a.3.3,0,0,0,0,.48.82.82,0,0,0,.7.05.75.75,0,0,0,.36-.24l-.52-.34a.54.54,0,0,0-.57,0"/><path id="_Path_211" data-name="&lt;Path&gt;" class="cls-3" d="M113.11,36.15a.91.91,0,0,1-.89,0,1.48,1.48,0,0,1-.27-.59h-.33a2.08,2.08,0,0,1-.32.46,1.08,1.08,0,0,1-.82.21A.49.49,0,0,1,110,36c-.09-.15-.13-.26-.19-.19s0,.23.07.49.55.22.55.22h2.12a1,1,0,0,0,.78-.32c.23-.2.28-.37.23-.39s-.25.17-.46.33"/><path id="_Path_212" data-name="&lt;Path&gt;" class="cls-3" d="M112.94,35.16a2.45,2.45,0,0,1-.45.21,1.42,1.42,0,0,0,.14.2.45.45,0,0,0,.62.09.63.63,0,0,0,.26-.6s0,0-.17,0-.25.06-.4.14"/><path id="_Path_213" data-name="&lt;Path&gt;" class="cls-3" d="M114.61,34.46c0-.21,0-.54,0-.54l-.15.17-.52.44a.68.68,0,0,0-.13.57,1.29,1.29,0,0,0,.5-.05.59.59,0,0,0,.31-.59"/><path id="_Path_214" data-name="&lt;Path&gt;" class="cls-3" d="M114,35.47a.16.16,0,0,0-.14-.16.16.16,0,1,0,0,.31.15.15,0,0,0,.14-.15"/><path id="_Path_215" data-name="&lt;Path&gt;" class="cls-3" d="M114.42,35.82a.75.75,0,0,0,.5-.16.69.69,0,0,1,.32-.11l-.22-.24c-.06-.09-.13-.21-.41-.11s-.36.21-.4.34a.23.23,0,0,0,.21.28"/><path id="_Path_216" data-name="&lt;Path&gt;" class="cls-3" d="M115.68,35.77a2.35,2.35,0,0,1-1.26.54c-.54-.05-.58-.44-.58-.44s-.1.53.23.72a2.54,2.54,0,0,0,.79.24,1.78,1.78,0,0,0,.68.06,3.64,3.64,0,0,0,.9-.28l.06,0a.92.92,0,0,1-.82-.81"/><path id="_Path_217" data-name="&lt;Path&gt;" class="cls-3" d="M117.22,35.52a5.05,5.05,0,0,0-.69.25c-.22.08-.25.12-.09.19a.9.9,0,0,0,.53.16c.26,0,.53-.13.55-.39s-.16-.23-.3-.21"/><path id="_Path_218" data-name="&lt;Path&gt;" class="cls-3" d="M118.22,34.86a1.23,1.23,0,0,0-.45.47c-.1.17.24.29.47.3a.45.45,0,0,0,.5-.32,1.21,1.21,0,0,0-.07-.67,1.29,1.29,0,0,0-.45.22"/><path id="_Path_219" data-name="&lt;Path&gt;" class="cls-3" d="M118,35.89c.11,0,.21.06.21.13s-.1.13-.21.13-.16,0-.16-.13a.15.15,0,0,1,.16-.13"/><path id="_Path_220" data-name="&lt;Path&gt;" class="cls-3" d="M118.32,33a.64.64,0,0,1,.26-.53,4.37,4.37,0,0,0-.43-1s-.05-.08-.07-.13a.55.55,0,0,1-.28.06.61.61,0,0,1-.61-.61.89.89,0,0,1,.08-.33,6.63,6.63,0,0,0-1.39-.79.64.64,0,0,1-.35.12.62.62,0,0,1-.61-.62v0c-.5-.16-1.37-.37-1.37-.37a8,8,0,0,1,1.13.89,5.32,5.32,0,0,1,.42.48,4.14,4.14,0,0,1,1.84,1.38,3,3,0,0,1,.54,2.46,1.55,1.55,0,0,0,.09,1.16s.49-.61.82-.7.44-.23.46-.43a1.88,1.88,0,0,0,0-.4.59.59,0,0,1-.52-.62"/><path id="_Path_221" data-name="&lt;Path&gt;" class="cls-3" d="M115.34,29.41a.32.32,0,0,0,.41,0,.24.24,0,0,0,0-.36.33.33,0,0,0-.42,0,.22.22,0,0,0,.06.34"/><path id="_Path_222" data-name="&lt;Path&gt;" class="cls-3" d="M117.59,30.94a.38.38,0,0,0,.47,0,.3.3,0,0,0-.06-.44.34.34,0,0,0-.47,0,.33.33,0,0,0,.06.45"/><path id="_Path_223" data-name="&lt;Path&gt;" class="cls-3" d="M118.94,32.51a.35.35,0,0,1,.35.34.36.36,0,0,1-.35.35.35.35,0,0,1-.34-.35.33.33,0,0,1,.34-.34"/><path id="_Path_224" data-name="&lt;Path&gt;" class="cls-3" d="M110.92,28.77a.62.62,0,0,0,.35.48A6.21,6.21,0,0,1,113,30.69a3.64,3.64,0,0,1,.74,2.15c0,.51-.23.84-.23,1.14a1.14,1.14,0,0,0,.17.55s.29-.26.41-.4.28-.3.39-.44a.39.39,0,0,1,.31-.11,2.52,2.52,0,0,0,0,.55,3.07,3.07,0,0,1,.07.44.59.59,0,0,1-.12.22s.89-.14,1.12-.8a3.91,3.91,0,0,0-.51-2.8,4.62,4.62,0,0,0-1.92-2.12l-.47-.32a.44.44,0,0,1,0,.2.59.59,0,0,1-.58.58.68.68,0,0,1-.66-.59.57.57,0,0,1,.63-.51h0a4.66,4.66,0,0,0-1-.42c-.29-.05-.57-.07-.55.24s0,.4.06.52"/><path id="_Path_225" data-name="&lt;Path&gt;" class="cls-3" d="M109.64,33.87a1.78,1.78,0,0,1-.2.48.62.62,0,0,0-.16.45.39.39,0,0,0,.36.28.41.41,0,0,0,.36-.28.63.63,0,0,0-.17-.45,1.65,1.65,0,0,1-.19-.48"/><path id="_Path_226" data-name="&lt;Path&gt;" class="cls-3" d="M109.64,35.25a.19.19,0,0,1,.18.18.19.19,0,0,1-.18.19.19.19,0,1,1,0-.37"/><path id="_Path_227" data-name="&lt;Path&gt;" class="cls-3" d="M109,34.5a3.7,3.7,0,0,0,.43-.57c.12-.21.21-.41.21-.41a3,3,0,0,0,.21.41,3.25,3.25,0,0,0,.42.57,1.74,1.74,0,0,0,.69-1.07,6.47,6.47,0,0,0-.18-2.7c-.1-.94-.2-2.59-.2-2.59a1.85,1.85,0,0,1-1.89,0s-.1,1.65-.21,2.59a6.63,6.63,0,0,0-.17,2.7A1.74,1.74,0,0,0,109,34.5"/><path id="_Path_228" data-name="&lt;Path&gt;" class="cls-3" d="M112.14,28.86a.39.39,0,0,0,.38.34.35.35,0,0,0,.33-.34.34.34,0,0,0-.36-.29.31.31,0,0,0-.35.29"/><path id="_Path_229" data-name="&lt;Path&gt;" class="cls-5" d="M104.49,31.79a.71.71,0,0,1,0,1.42.71.71,0,1,1,0-1.42"/><path id="_Path_230" data-name="&lt;Path&gt;" class="cls-5" d="M105.71,30.06a.74.74,0,0,0-.93.17.58.58,0,0,0,.11.87.7.7,0,0,0,.92-.17.59.59,0,0,0-.1-.87"/><path id="_Path_231" data-name="&lt;Path&gt;" class="cls-3" d="M104.45,32a.4.4,0,0,1,.41.39.4.4,0,0,1-.41.39.42.42,0,0,1-.42-.39.41.41,0,0,1,.42-.39"/><path id="_Path_232" data-name="&lt;Path&gt;" class="cls-3" d="M105.42,30.14a.48.48,0,0,0-.5.2c-.1.17,0,.34.24.38.45.09.67-.46.26-.58"/><path id="_Path_233" data-name="&lt;Path&gt;" class="cls-5" d="M109.64,31.87a.74.74,0,1,1,0,1.47.74.74,0,1,1,0-1.47"/><path id="_Path_234" data-name="&lt;Path&gt;" class="cls-5" d="M109.64,30.2a.7.7,0,1,1,0,1.4.7.7,0,1,1,0-1.4"/><path id="_Path_235" data-name="&lt;Path&gt;" class="cls-5" d="M109.64,28.58a.68.68,0,1,1,0,1.35.68.68,0,1,1,0-1.35"/><path id="_Path_236" data-name="&lt;Path&gt;" class="cls-5" d="M114.79,31.79a.71.71,0,0,0,0,1.42.71.71,0,1,0,0-1.42"/><path id="_Path_237" data-name="&lt;Path&gt;" class="cls-5" d="M114.49,30.23a.74.74,0,0,0-.93-.17.58.58,0,0,0-.1.87.7.7,0,0,0,.92.17.58.58,0,0,0,.11-.87"/><path id="_Path_238" data-name="&lt;Path&gt;" class="cls-3" d="M114.82,32a.4.4,0,0,1,.42.39.41.41,0,0,1-.42.39.4.4,0,0,1-.41-.39.4.4,0,0,1,.41-.39"/><path id="_Path_239" data-name="&lt;Path&gt;" class="cls-3" d="M113.85,30.14c-.41.12-.19.67.26.58.24,0,.34-.21.24-.38a.48.48,0,0,0-.5-.2"/><path id="_Path_240" data-name="&lt;Path&gt;" class="cls-3" d="M109.64,32.1a.38.38,0,1,1-.4.38.38.38,0,0,1,.4-.38"/><path id="_Path_241" data-name="&lt;Path&gt;" class="cls-3" d="M109.64,30.4a.37.37,0,0,1,.38.37.38.38,0,0,1-.38.37.37.37,0,0,1-.39-.37.37.37,0,0,1,.39-.37"/><path id="_Path_242" data-name="&lt;Path&gt;" class="cls-3" d="M109.64,28.81a.34.34,0,0,1,.34.33.34.34,0,0,1-.34.32.33.33,0,0,1-.34-.32.32.32,0,0,1,.34-.33"/><path id="_Path_243" data-name="&lt;Path&gt;" class="cls-5" d="M133.36,82.37a.62.62,0,1,1,0,1.24.62.62,0,1,1,0-1.24"/><path id="_Path_244" data-name="&lt;Path&gt;" class="cls-5" d="M135.12,82.77a.64.64,0,1,1,0,1.28.64.64,0,1,1,0-1.28"/><path id="_Path_245" data-name="&lt;Path&gt;" class="cls-5" d="M140.23,83.86a.65.65,0,0,1,.64.64.64.64,0,0,1-.64.64.64.64,0,0,1,0-1.28"/><path id="_Path_246" data-name="&lt;Path&gt;" class="cls-5" d="M136.87,83.19a.64.64,0,0,1,.64.64.64.64,0,0,1-1.28,0,.64.64,0,0,1,.64-.64"/><path id="_Path_247" data-name="&lt;Path&gt;" class="cls-5" d="M137.33,81.66a.63.63,0,0,1,.64.63.64.64,0,1,1-1.27,0,.63.63,0,0,1,.63-.63"/><path id="_Path_248" data-name="&lt;Path&gt;" class="cls-5" d="M137.78,80.13a.64.64,0,1,1,0,1.28.64.64,0,1,1,0-1.28"/><path id="_Path_249" data-name="&lt;Path&gt;" class="cls-3" d="M133.41,82.61a.32.32,0,0,1,.32.32.31.31,0,0,1-.32.3.32.32,0,0,1-.32-.3.32.32,0,0,1,.32-.32"/><path id="_Path_250" data-name="&lt;Path&gt;" class="cls-3" d="M135.17,83a.3.3,0,0,1,.31.31.31.31,0,0,1-.31.32.32.32,0,0,1-.33-.32.31.31,0,0,1,.33-.31"/><path id="_Path_251" data-name="&lt;Path&gt;" class="cls-3" d="M140.28,84.11a.32.32,0,0,1,.31.33.33.33,0,0,1-.31.32.33.33,0,0,1-.33-.32.33.33,0,0,1,.33-.33"/><path id="_Path_252" data-name="&lt;Path&gt;" class="cls-3" d="M136.92,83.45a.32.32,0,1,1-.32.31.32.32,0,0,1,.32-.31"/><path id="_Path_253" data-name="&lt;Path&gt;" class="cls-3" d="M137.39,81.92a.31.31,0,0,1,.31.32.31.31,0,0,1-.31.32.32.32,0,0,1-.33-.32.32.32,0,0,1,.33-.32"/><path id="_Path_254" data-name="&lt;Path&gt;" class="cls-3" d="M137.83,80.39a.32.32,0,0,1,.32.32.33.33,0,0,1-.32.31.32.32,0,0,1-.32-.31.32.32,0,0,1,.32-.32"/></g></g></g></g></g></g></svg>