<svg id="Layer_1" data-name="Layer 1" xmlns="http://www.w3.org/2000/svg" xmlns:xlink="http://www.w3.org/1999/xlink" viewBox="0 0 220 128"><defs><style>.cls-1{fill:none;}.cls-2{clip-path:url(#clip-path);}.cls-3{fill:#f4c533;}.cls-4{fill:#fff;}.cls-5{fill:#bc0030;}.cls-6{fill:#4d72c0;}.cls-7{fill:#508e38;}</style><clipPath id="clip-path"><rect id="_Clipping_Path_" data-name="&lt;Clipping Path&gt;" class="cls-1" width="219.49" height="128"/></clipPath></defs><title>Flag_rect_Comoros</title><g id="COMOROS"><g id="_Group_" data-name="&lt;Group&gt;"><g id="_Clip_Group_" data-name="&lt;Clip Group&gt;"><g class="cls-2"><rect id="_Path_" data-name="&lt;Path&gt;" class="cls-3" width="219.49" height="128"/><rect id="_Path_2" data-name="&lt;Path&gt;" class="cls-4" y="32.01" width="219.49" height="95.99"/><rect id="_Path_3" data-name="&lt;Path&gt;" class="cls-5" y="63.99" width="219.49" height="64.01"/><rect id="_Path_4" data-name="&lt;Path&gt;" class="cls-6" y="96.02" width="219.49" height="31.98"/><polygon id="_Path_5" data-name="&lt;Path&gt;" class="cls-7" points="0 0 0 128 106.68 63.99 0 0"/><g id="_Clip_Group_2" data-name="&lt;Clip Group&gt;"><g class="cls-2"><path class="cls-4" d="M20.28,64v0A28.77,28.77,0,0,1,42.66,35.92,28.79,28.79,0,0,0,7.47,64v0a28.81,28.81,0,0,0,28.8,28.82,29.24,29.24,0,0,0,6.39-.73A28.82,28.82,0,0,1,20.28,64Z"/><polygon id="_Path_6" data-name="&lt;Path&gt;" class="cls-4" points="37.6 82.99 41.48 82.99 42.68 79.29 43.88 82.99 47.75 82.99 44.61 85.24 45.81 88.97 42.68 86.64 39.55 88.97 40.74 85.24 37.6 82.99"/><polygon id="_Path_7" data-name="&lt;Path&gt;" class="cls-4" points="37.6 41.74 41.48 41.74 42.68 38.06 43.88 41.74 47.75 41.74 44.61 44.04 45.81 47.69 42.68 45.44 39.55 47.69 40.74 44.04 37.6 41.74"/><polygon id="_Path_8" data-name="&lt;Path&gt;" class="cls-4" points="37.6 55.48 41.48 55.48 42.68 51.78 43.88 55.48 47.75 55.48 44.61 57.75 45.81 61.46 42.68 59.16 39.55 61.46 40.74 57.75 37.6 55.48"/><polygon id="_Path_9" data-name="&lt;Path&gt;" class="cls-4" points="37.6 69.22 41.48 69.22 42.68 65.55 43.88 69.22 47.75 69.22 44.61 71.52 45.81 75.18 42.68 72.93 39.55 75.18 40.74 71.52 37.6 69.22"/></g></g></g></g></g></g></svg>