<svg id="Layer_1" data-name="Layer 1" xmlns="http://www.w3.org/2000/svg" xmlns:xlink="http://www.w3.org/1999/xlink" viewBox="0 0 220 128"><defs><style>.cls-1{fill:none;}.cls-2{clip-path:url(#clip-path);}.cls-3{fill:#ffd300;}.cls-4{fill:#0044b0;}.cls-5{fill:#cd012a;}.cls-6{fill:#806332;}.cls-7{fill:#c0202c;}.cls-8{fill:#295f38;}.cls-9{fill:#2e5aa0;}</style><clipPath id="clip-path"><rect id="_Clipping_Path_" data-name="&lt;Clipping Path&gt;" class="cls-1" width="219.42" height="128"/></clipPath></defs><title>Flag_rect_Moldova</title><g id="MOLDOVA"><g id="_Group_" data-name="&lt;Group&gt;"><g id="_Clip_Group_" data-name="&lt;Clip Group&gt;"><g class="cls-2"><rect id="_Path_" data-name="&lt;Path&gt;" class="cls-3" width="220" height="128"/><rect id="_Path_2" data-name="&lt;Path&gt;" class="cls-4" width="73.33" height="128"/><rect id="_Path_3" data-name="&lt;Path&gt;" class="cls-5" x="146.67" width="73.33" height="128"/><g id="_Clip_Group_2" data-name="&lt;Clip Group&gt;"><g class="cls-2"><path id="_Path_4" data-name="&lt;Path&gt;" d="M102.35,28.65a1.71,1.71,0,0,0-1.06.31.88.88,0,0,1,.62.86v1h-1a.88.88,0,0,1-.87-.63,1.85,1.85,0,0,0-.3,1.08,1.8,1.8,0,0,0,.3,1.08.87.87,0,0,1,.87-.62h1v5a.87.87,0,0,1-.57.84c.49.08.92.74,1,1.1.11-.36.55-1,1-1.1a.91.91,0,0,1-.6-.84v-5h1a.9.9,0,0,1,.88.61A1.9,1.9,0,0,0,105,31.3a2,2,0,0,0-.28-1.08.9.9,0,0,1-.88.63h-1v-1a.88.88,0,0,1,.65-.86,1.84,1.84,0,0,0-1.1-.31"/><path id="_Path_5" data-name="&lt;Path&gt;" class="cls-3" d="M102.35,28.88a1.85,1.85,0,0,0-.61.1,1.09,1.09,0,0,1,.38.84v1.23H102l0,0h-1a1.05,1.05,0,0,1-.83-.39,1.63,1.63,0,0,0-.12.62,1.77,1.77,0,0,0,.12.63,1,1,0,0,1,.83-.4h1.23v5.22a1,1,0,0,1-.38.78,1.66,1.66,0,0,1,.42.36,2.17,2.17,0,0,1,.22.38,1.68,1.68,0,0,1,.22-.38,1.13,1.13,0,0,1,.4-.34,1,1,0,0,1-.38-.8V31.54h1.23a1.15,1.15,0,0,1,.85.38,2.2,2.2,0,0,0,.08-.61,2.17,2.17,0,0,0-.08-.62,1.12,1.12,0,0,1-.85.39h-1v0h-.17V29.82A1.12,1.12,0,0,1,103,29a1.83,1.83,0,0,0-.63-.11"/><polygon id="_Path_6" data-name="&lt;Path&gt;" class="cls-6" points="103.16 47.07 101.44 46.68 97.81 44.76 95.53 44.63 95.39 40.22 91 36.7 86.52 41.51 85.91 42.92 86.13 86.76 88.98 83.28 89.61 83.42 92.57 80.2 95.1 73.8 95.87 71.15 99.28 75.19 97.97 77.58 99.16 77.49 99.28 78.48 100.35 78.03 100.63 79.4 103.02 77 106.31 78.63 100.06 89.81 97.81 91.46 101.83 92.98 105.98 88.15 105.39 91.32 104.13 94.39 109.19 97.28 114.66 94.06 111.93 88.42 112.84 88.02 116.36 93.14 120.23 91.24 115.22 85.38 111.9 78.32 115.39 77.17 117.77 79.45 118.12 77.97 119.37 78.57 119.21 77.33 120.48 77.61 118.94 75.18 122.83 71.91 125.3 79.61 128.95 83.76 129.7 83.67 132.33 86.93 132.32 41.77 127.46 36.64 122.69 40.5 122.9 44.65 120.78 44.72 117.63 46.35 115.85 46.93 115 47.1 113.92 45.91 112.48 43.01 112.38 40.13 113.28 38.25 113.12 36.49 113.9 36.5 113.4 35.31 114.11 35.02 113.04 34.09 113.4 33.65 109.39 31.93 106.34 31.72 105.51 32.09 105.11 32.82 105.92 35.11 105.03 35.99 105.92 37.67 105.94 41.35 105.25 44.44 103.87 46.79 103.16 47.07"/><polygon id="_Path_7" data-name="&lt;Path&gt;" class="cls-7" points="98.52 77.64 95.48 82.28 94.02 82.24 92.5 82.95 92 84.59 92.24 85.35 93.88 87.13 95.23 86.38 96.29 85.21 96.54 84.18 100.39 79.2 100.2 77.96 99.38 78.49 99.05 77.47 98.52 77.64"/><polygon id="_Path_8" data-name="&lt;Path&gt;" class="cls-7" points="117.88 79.03 121.95 84.5 122.34 85.57 124.11 87.18 124.66 87.04 126.6 84.77 126.18 83.21 124.33 82.1 122.95 82.24 119.9 77.64 119.35 77.42 119.14 78.31 118.24 78.04 117.88 79.03"/><path id="_Compound_Path_" data-name="&lt;Compound Path&gt;" d="M107.28,31.48a3.32,3.32,0,0,0-1.67.3c-.41.28-.36.61-.5.73a1.88,1.88,0,0,1-1.16.27c-1.76,0-1.83,1.87-1.83,1.87a1.7,1.7,0,0,1,1.26-.67c1.3,0,2.29.71,2.29,1,0,.11-.14.12-.14.12-.85,0-2.15-.48-2.84-.51v.27l0,0h0v0c1.54.55,3.1,1.3,3.1,4.63a11.32,11.32,0,0,1-1.3,5.92A6,6,0,0,1,103,47a14.67,14.67,0,0,1-2.54-1c-1.66-.91-2.51-1.82-4.45-1.9V42.56c0-.78.25-1.49.25-2.26-.79-.21-3.09-3-5.21-4.25-3.1,2-5.49,5.31-5.49,6.82,0,0,.09,32.63,0,44a4.93,4.93,0,0,1-.41,1.58c1.14-.49,3.21-3.33,3.65-4.4v.51a8.8,8.8,0,0,0,3.53-3.89c0,.16,0,.54,0,.54,1.55-1.34,3.49-9.26,3.49-9.26l-.09-1.66s-1.35,6.46-2.9,7.79V50.21L94,51.34l1.85-1.71V48.31l-1.64,1.52V45.9a6.76,6.76,0,0,0,.53-.87,12.5,12.5,0,0,0,2.12,2.73c.17-.67,1.26-1.31,1.26-1.31s.38,1.06,1,1.32a8.28,8.28,0,0,1,1.44-1.19,3.6,3.6,0,0,0-1.47.57c-.37-.08-.47-1.55-.47-1.55s-1.56.76-1.85,1.31c-.31-.07-.75-1.25-.94-1.74A10.22,10.22,0,0,1,97,45.1a4.23,4.23,0,0,1,1.63.5c.67.31,1.36.71,1.94,1a7.37,7.37,0,0,0,2.35.45c-.41.27-.83.53-1.3.78a8.55,8.55,0,0,0,3.19-.69,9.69,9.69,0,0,0,1.38-1,4.55,4.55,0,0,1-.89,1.61,4.18,4.18,0,0,0,3.16-1.65,6.46,6.46,0,0,0,.72,1.35,4.86,4.86,0,0,0,.74-1.35,4.28,4.28,0,0,0,3.19,1.65,5,5,0,0,1-.92-1.61,12.53,12.53,0,0,0,1.37,1,8.58,8.58,0,0,0,3.2.69c-.47-.25-.89-.51-1.3-.78a7.22,7.22,0,0,0,2.33-.45c.61-.27,1.32-.67,2-1a4.2,4.2,0,0,1,1.61-.5,10.22,10.22,0,0,1,1.16.07c-.17.49-.64,1.67-1,1.74-.26-.55-1.82-1.31-1.82-1.31s-.13,1.47-.49,1.55a3.63,3.63,0,0,0-1.5-.57,7.91,7.91,0,0,1,1.46,1.19c.59-.26,1-1.32,1-1.32s1.09.64,1.26,1.31A12,12,0,0,0,123.59,45c.13.22.29.51.52.87v3.93l-1.63-1.52v1.32l1.85,1.71,1.2-1.13V78.06c-1.51-1.33-2.86-7.79-2.86-7.79l-.12,1.66s1.94,7.92,3.49,9.26c0,0,0-.38,0-.54.55,1.06,1.8,3.11,3.51,3.89V84c.45,1.07,2.51,3.91,3.65,4.4a4.93,4.93,0,0,1-.41-1.58c-.09-11.35,0-44,0-44,0-1.51-2.38-4.81-5.49-6.82-2.12,1.24-4.42,4-5.23,4.25,0,.77.3,1.48.3,2.26v1.5c-2,.09-2.81,1-4.45,1.91a14,14,0,0,1-2.57,1,5.73,5.73,0,0,1-1.52-1.55,9.51,9.51,0,0,1-1.28-5c0-.76.86-1.59.86-2.21a8.93,8.93,0,0,0-.1-1.47c.32,0,.84.57.84.57s0-1.54-.51-1.8c0,0,.19-.21.91-.23a4,4,0,0,0-1.19-1.12.57.57,0,0,1,.27-.23,3,3,0,0,1,.85-.28c-.29-.06-.62-.15-1-.26a22.1,22.1,0,0,1-2.67-1.09,7.79,7.79,0,0,0-3.59-.85m0,.45h.41c1.63,0,2.74.74,4.26,1.41a9.29,9.29,0,0,0,1.11.43,1.39,1.39,0,0,0-.42.51,1.59,1.59,0,0,1,1,.7s-.65.08-.77.46a1,1,0,0,1,.74.93l-.93-.3a12,12,0,0,1,.22,2.16c0,.58-.83,1.25-.83,2.21a9,9,0,0,0,1.3,5.17,4.81,4.81,0,0,0,.77,1.11c-1.58-.83-2.74-1.88-2.74-2.85V40.2H111v3.68a2.22,2.22,0,0,0,.19,1,13.22,13.22,0,0,0,1,2.48c-1.45-.79-2.19-1.77-2.19-2.12V40.2h-.39v5.14l.06.35a2.42,2.42,0,0,1-.56.67,4.93,4.93,0,0,1-.55-.67l.1-.35V40.2h-.43v5.07c0,.35-.7,1.33-2.18,2.12a15.47,15.47,0,0,0,1.07-2.48,2.57,2.57,0,0,0,.16-1V40.2h-.39v3.68c0,1-1.19,2-2.73,2.85a5,5,0,0,0,.74-1.11c.58-1,1.32-2.34,1.32-6.07a6.43,6.43,0,0,0-.57-3c-.12-.22-.27-.8.57-.8a4.16,4.16,0,0,1,1.45.77,1.41,1.41,0,0,0-.55-1,.56.56,0,0,1-.23-.41.87.87,0,0,1,.39-.51c.12,0-1.72-.37-1.72-1.2,0-.18.11-.3.49-.3s1.31.6,2,.6c.52,0,.74-.13,1.27-.13s2.07,1.27,2.52,1.22c-.52-.33-1.37-1.6-2.67-1.6-.46,0-.85.11-1.29.11s-1.06-.5-1.66-.5c-.37,0-.8,0-.88-.07s0-.3.1-.43.74-.35,1.31-.38h.47M91,37.47h0s2.9,2.64,3.87,3l0,.9V44a6.09,6.09,0,0,1-2-2v-.36a1,1,0,0,1,.36-.71l-.44-.15a1.21,1.21,0,0,0-.33.8v.22l-.14.14-.08.07-1.06,1.15L90,41.22v-.46a1.55,1.55,0,0,1,.45-.89L90,39.72a1.83,1.83,0,0,0-.42,1v.37c-.31.31-1.42,1.48-1.42,1.48s-.57-1.22-.74-1.56A17.72,17.72,0,0,1,91,37.47m36.34,0A18.42,18.42,0,0,1,131,41c-.17.34-.74,1.56-.74,1.56l-1.44-1.48V40.7a1.9,1.9,0,0,0-.41-1l-.43.15a1.59,1.59,0,0,1,.43.89v.46l-1.23,1.89L126.08,42l-.07-.07-.12-.14v-.22a1.14,1.14,0,0,0-.36-.8l-.42.15a.94.94,0,0,1,.36.71V42a6,6,0,0,1-2,2V41.35l0-.9c1-.34,3.87-3,3.87-3ZM86.9,41.79l.67,1.2v2.17l-1,.92V42.87a2.51,2.51,0,0,1,.35-1.08m44.54,0a2.29,2.29,0,0,1,.36,1.08v3.21l-1-.92V43Zm-41.91.29,1.14,1.74v1.35l-1.14,1.08Zm39.29,0v4.17l-1.15-1.08V43.82Zm-39.68.31v3.85L88,45.17V43.59Zm40.07,0,1.16,1.2v1.58l-1.16,1.07Zm-36.55.26a6,6,0,0,0,1.74,2,6,6,0,0,1-1.74,1.71Zm33,0v3.68A6,6,0,0,1,124,44.62a5.65,5.65,0,0,0,1.73-2m-33.43.2v3.39L91.1,45.17V44Zm33.83,0L127.24,44v1.2l-1.16,1.07ZM87.57,46.46v3.39l-1-1V47.41Zm43.23,0,1,.95V48.9l-1,1ZM88,46.47l.66.62.5.46v1.21l-.5.46-.66.61Zm2.69,0v3.36L90,49.22l-.5-.48V47.56l.5-.47Zm.43,0,1.15,1.09v1.18l-.48.49-.67.6Zm2.72,0v3.38l-.66-.62-.5-.47V47.63a4.4,4.4,0,0,0,1.16-1.16m30.7,0a4.55,4.55,0,0,0,1.16,1.16v1.13l-.5.47-.66.62V46.47Zm2.72,0v3.36l-.64-.6-.52-.49V47.56Zm.43,0,.67.62.48.47v1.18l-.48.48-.67.61Zm2.7,0v3.36l-.67-.61-.49-.46V47.55l.49-.46Zm-40.7,3.72,1.22,1.15,1.24-1.14V78.06s.09,1.38.12,2.28c-.53.55-2.58,2.62-2.58,2.62Zm39,0V83l-2.59-2.62c.07-.9.16-2.28.16-2.28V50.2l1.22,1.14ZM89,50.2V81.92c0,.89-1.63,3-2.43,3.46V50.21l1.21,1.13Zm40.39,0,1.22,1.14,1.21-1.13V85.38c-.79-.47-2.43-2.57-2.43-3.46ZM99.05,75.11a21.85,21.85,0,0,1-1.62,2.81,4.16,4.16,0,0,0,.63,0c-.2.3-1.85,2.65-2.33,3.53s-.83.46-1.57.46a4.34,4.34,0,0,0-2.23,1.36,2.87,2.87,0,0,0-.4,1.33A2.44,2.44,0,0,0,92,85.73a.58.58,0,0,1,.14-.29s1.29,1.57,1.44,1.78a1.08,1.08,0,0,0,1,0,7.79,7.79,0,0,0,1.61-1.63c.27-.39.29-.82.6-1.24,1-1.38,3-4,3.46-4.65a4.1,4.1,0,0,1,.06.49,16.38,16.38,0,0,1,3-3l-.69-.45a21.74,21.74,0,0,1-2,2.08,11.51,11.51,0,0,0-.33-1.18,2.33,2.33,0,0,1-.87.44s-.1-.59-.19-1a1.79,1.79,0,0,1-1,.21c.56-.27,1.25-2,1.25-2l-.48-.24Zm20.25,0-.47.24s.68,1.69,1.26,2a1.88,1.88,0,0,1-1-.21c-.07.39-.16,1-.16,1a2.35,2.35,0,0,1-.91-.44c-.12.31-.33,1.18-.33,1.18a22.69,22.69,0,0,1-2-2.08l-.68.45a15.83,15.83,0,0,1,3,3,4.26,4.26,0,0,1,.1-.49c.45.62,2.44,3.27,3.46,4.65.28.42.31.85.58,1.24a7.63,7.63,0,0,0,1.63,1.63,1,1,0,0,0,1,0c.19-.21,1.44-1.78,1.44-1.78a.51.51,0,0,1,.16.29,2.44,2.44,0,0,0,.47-1.08,2.62,2.62,0,0,0-.44-1.33A4.1,4.1,0,0,0,124.19,82c-.74,0-1.07.37-1.55-.46s-2.13-3.23-2.35-3.53a4.38,4.38,0,0,0,.64,0,19.92,19.92,0,0,1-1.63-2.81M98.87,77.8a2.31,2.31,0,0,0,.24,1.09l.91-.6s0,.28.14.69c-.41.52-2.59,3.51-3.68,5a5.12,5.12,0,0,0-.5,1.29s-.38-.19-.38-.53a6.71,6.71,0,0,1,.05-.72,1.12,1.12,0,0,1-.83.33c0-.41.8-.84.83-1.43-.59.45-1.11.22-1.8.43s-1,.56-1.21.54a.34.34,0,0,1-.21-.38,3,3,0,0,1,1.68-1.07c.16,0,1.37.26,1.64-.12,1-1.58,2.67-4.14,2.84-4.38a.66.66,0,0,0,.28-.11m20.61,0a.56.56,0,0,0,.28.11c.16.24,1.82,2.8,2.83,4.38.27.38,1.5.09,1.64.12a3.11,3.11,0,0,1,1.68,1.07c0,.14-.06.37-.2.38s-.44-.3-1.19-.54-1.21,0-1.83-.43c0,.59.81,1,.81,1.43a1.19,1.19,0,0,1-.81-.33,5.62,5.62,0,0,1,.06.72c0,.34-.39.53-.39.53a5.56,5.56,0,0,0-.5-1.29c-1.08-1.46-3.26-4.45-3.67-5,.1-.41.16-.69.16-.69l.88.6a2.12,2.12,0,0,0,.25-1.09m-13.5.59s-4.85,11.18-9.17,12.91c0,0,1.88.79,4.18,2,.35.16.69.36,1,.54.3-.34.6-.74.91-1.14,1.38-1.84,2.72-4,2.72-4,.1.55-.64,2.28-1.87,4.38-.24.42-.49.86-.76,1.31.3.16.62.35.93.54,2.27,1.36,4.43,3,5.21,4.4.8-1.45,3-3,5.23-4.4.31-.19.62-.38,1-.54-.31-.45-.54-.89-.78-1.31-1.23-2.1-2-3.83-1.88-4.38,0,0,1.36,2.14,2.74,4,.3.4.61.8.89,1.14.36-.18.69-.38,1-.54,2.33-1.21,4.2-2,4.2-2-4.31-1.73-9.19-12.91-9.19-12.91l-.69.21s3.87,9.66,7.65,12.59a27.15,27.15,0,0,0-2.91,1.08A49.54,49.54,0,0,1,112.73,87a27.63,27.63,0,0,1-2-5.29c-.55,1.29.59,7.79,2.88,11.91a18.14,18.14,0,0,0-4.4,2.92,17.19,17.19,0,0,0-4.38-2.92c2.3-4.12,3.43-10.62,2.89-11.91A26.09,26.09,0,0,1,105.58,87,41.86,41.86,0,0,1,102,92.27a28,28,0,0,0-2.91-1.08c3.78-2.93,7.67-12.59,7.67-12.59ZM93.3,83.76a.21.21,0,0,1,.08.06.13.13,0,0,1,0,.18l-.41.34a.11.11,0,0,1-.18,0,.12.12,0,0,1,0-.19l.4-.35a.15.15,0,0,1,.11,0m31.77,0a.1.1,0,0,1,.09,0l.39.35a.11.11,0,0,1,0,.19.08.08,0,0,1-.15,0L125,84a.11.11,0,0,1,0-.18.12.12,0,0,1,.1-.06m-31.36.35a.38.38,0,0,1,.28.13.32.32,0,0,1,0,.45l-1,.84a.3.3,0,0,1-.44,0,.33.33,0,0,1,0-.45l1-.85a.26.26,0,0,1,.17-.07m30.85,0s0,0,.08,0a.32.32,0,0,1,.19.07l1,.85a.29.29,0,0,1,0,.45.31.31,0,0,1-.45,0l-1-.84a.37.37,0,0,1,.18-.58m-30.31.67a.45.45,0,0,1,.31.12.32.32,0,0,1,0,.44l-1,.86a.29.29,0,0,1-.42-.06.3.3,0,0,1,0-.44l1-.85a.28.28,0,0,1,.16-.07m29.77,0a.08.08,0,0,1,.07,0,.26.26,0,0,1,.16.07l1,.85a.28.28,0,0,1,0,.44.32.32,0,0,1-.45.06l-1-.86a.3.3,0,0,1,0-.44.22.22,0,0,1,.21-.12m-29.15.65a.39.39,0,0,1,.31.1.34.34,0,0,1,0,.45l-1,.86a.27.27,0,0,1-.42-.06.3.3,0,0,1,0-.44l1-.86a.22.22,0,0,1,.14,0m28.51,0a.14.14,0,0,1,.09,0,.2.2,0,0,1,.14,0l1,.86a.28.28,0,0,1,0,.44.27.27,0,0,1-.42.06l-1-.86a.35.35,0,0,1,0-.45.44.44,0,0,1,.19-.1"/><polygon id="_Path_9" data-name="&lt;Path&gt;" points="95.87 85.94 98.14 87.18 97.59 89.71 95.32 88.47 95.87 85.94"/><path id="_Compound_Path_2" data-name="&lt;Compound Path&gt;" d="M85.29,61.69l-.83.38,9.25,20.25h1ZM96.2,85.58l-.67.69.4.93.83-.39Z"/><polygon id="_Path_10" data-name="&lt;Path&gt;" class="cls-3" points="96.2 86.66 97.59 87.42 97.26 89 95.84 88.23 96.2 86.66"/><path id="_Path_11" data-name="&lt;Path&gt;" d="M88.17,77.65s.78,1.62,1.36,1.84a3.87,3.87,0,0,0-1.3.27,7.06,7.06,0,0,0,3.24,1.69,2.45,2.45,0,0,0,1.86-.55l-.23-1.34a5.39,5.39,0,0,0-2-1.36,13.94,13.94,0,0,0-2.91-.55"/><path id="_Path_12" data-name="&lt;Path&gt;" d="M94,74.78a4.75,4.75,0,0,0-1.36,2,4.11,4.11,0,0,0,.19,2.29l.91,1.69a4.94,4.94,0,0,0,1.77-1.67,4.26,4.26,0,0,0,.35-2.34,5.21,5.21,0,0,0-1.12.53A4.15,4.15,0,0,0,94,74.78"/><path id="_Path_13" data-name="&lt;Path&gt;" d="M90.56,74.35a7,7,0,0,1-2.39.34,3.61,3.61,0,0,1-2.07-1s.92-.63,1.4-.55c-.52-.18-1.26-1.46-1.26-1.46a3.4,3.4,0,0,1,2,0A4.73,4.73,0,0,1,90,73.06Z"/><path id="_Path_14" data-name="&lt;Path&gt;" d="M91,68.38s.62,1.26.48,1.7a4.76,4.76,0,0,1,.9-.74,8.26,8.26,0,0,1,0,3.3,3.14,3.14,0,0,1-1.71,1.75l-1.38-2.7a3.07,3.07,0,0,1,.21-1.81A5.84,5.84,0,0,1,91,68.38Z"/><path id="_Path_15" data-name="&lt;Path&gt;" d="M83,65a5.8,5.8,0,0,1,2.52.36,2.48,2.48,0,0,1,1.33,1.19l.5,1.33A4.34,4.34,0,0,1,84.8,68a4.82,4.82,0,0,1-1.94-1.79s.77-.3,1.08-.18c-.45-.19-.91-1-.91-1"/><path id="_Path_16" data-name="&lt;Path&gt;" d="M87.18,62.54a3.32,3.32,0,0,1,.63,1.6,2.55,2.55,0,0,1,.84-1,7.38,7.38,0,0,1,.6,3.08,3.23,3.23,0,0,1-1.24,2l-1.35-2.54a4.46,4.46,0,0,1-.31-1.85,2.75,2.75,0,0,1,.83-1.38"/><path id="_Path_17" data-name="&lt;Path&gt;" d="M82.61,57.69a4.3,4.3,0,0,0,.17,2.18,3,3,0,0,0,.59.87,4,4,0,0,0-1.75-.51,4.54,4.54,0,0,0,1.29,2.19,3.58,3.58,0,0,0,2.27.54A4.59,4.59,0,0,0,86,60.44a5.87,5.87,0,0,0-1.11-2.69,5,5,0,0,0-.42,1.48C84.21,58.58,82.61,57.69,82.61,57.69Z"/><path id="_Path_18" data-name="&lt;Path&gt;" class="cls-8" d="M83,58.53a4.06,4.06,0,0,0,.28,1.58,2.28,2.28,0,0,0,1.09.81,3.33,3.33,0,0,0-.31-1.59,2,2,0,0,0-1.06-.8"/><path id="_Path_19" data-name="&lt;Path&gt;" class="cls-8" d="M82.33,60.81a2.88,2.88,0,0,1,1.37.44,2.53,2.53,0,0,1,.71,1.21,1.87,1.87,0,0,1-1.11-.34,4.92,4.92,0,0,1-1-1.31"/><path id="_Path_20" data-name="&lt;Path&gt;" class="cls-8" d="M85.08,58.77a3.23,3.23,0,0,0-.26,1.4,4.29,4.29,0,0,0,.45,1.52,4.41,4.41,0,0,0,.36-1.58,2.71,2.71,0,0,0-.55-1.34"/><path id="_Path_21" data-name="&lt;Path&gt;" class="cls-8" d="M83.58,65.27a3.3,3.3,0,0,0,1.11.93,4.52,4.52,0,0,0,1.64.34,3.84,3.84,0,0,0-1.15-1,4.14,4.14,0,0,0-1.6-.3"/><path id="_Path_22" data-name="&lt;Path&gt;" class="cls-8" d="M83.8,66.68a2.38,2.38,0,0,0,.89.89,5.83,5.83,0,0,0,1.77.23,3.22,3.22,0,0,0-1-.84,5.36,5.36,0,0,0-1.64-.28"/><path id="_Path_23" data-name="&lt;Path&gt;" class="cls-8" d="M87.15,63.36a2.54,2.54,0,0,0-.31,1.22,3.11,3.11,0,0,0,.45,1.34,4.63,4.63,0,0,0,.25-1.44,2.18,2.18,0,0,0-.39-1.12"/><path id="_Path_24" data-name="&lt;Path&gt;" class="cls-8" d="M88.42,64.18a4.29,4.29,0,0,0-.69,1.63,3.73,3.73,0,0,0,.36,1.69,3.15,3.15,0,0,0,.81-1.56,3.44,3.44,0,0,0-.48-1.76"/><path id="_Path_25" data-name="&lt;Path&gt;" class="cls-8" d="M86.79,71.82a1.63,1.63,0,0,0,.3.6,5.3,5.3,0,0,0,.69.66,2.08,2.08,0,0,1,.92,0,4.46,4.46,0,0,1,1.22.57A6.08,6.08,0,0,0,88.4,72.1a2.67,2.67,0,0,0-1.61-.28"/><path id="_Path_26" data-name="&lt;Path&gt;" class="cls-8" d="M86.71,73.71a4.09,4.09,0,0,1,1.74-.32,3.38,3.38,0,0,1,1.49.73,4.58,4.58,0,0,1-1.85.26,2.77,2.77,0,0,1-1.38-.67"/><path id="_Path_27" data-name="&lt;Path&gt;" class="cls-8" d="M90.72,69.28a3.67,3.67,0,0,0-.91,1.66,2.26,2.26,0,0,0,.67,1.5,2.46,2.46,0,0,1,.13-.83,2.53,2.53,0,0,1,.39-.67,1.86,1.86,0,0,0,.08-.72,3.34,3.34,0,0,0-.36-.94"/><path id="_Path_28" data-name="&lt;Path&gt;" class="cls-8" d="M91.93,70.3a4.28,4.28,0,0,0-1,1.67,3.24,3.24,0,0,0,.16,1.78A2.81,2.81,0,0,0,92,72.32a4.82,4.82,0,0,0-.09-2"/><path id="_Path_29" data-name="&lt;Path&gt;" class="cls-8" d="M93.94,75.5a6.07,6.07,0,0,1,.46,1.38,2.78,2.78,0,0,1,0,.84,7.09,7.09,0,0,0-.55.58,1.58,1.58,0,0,0-.24.78A3.5,3.5,0,0,1,93,77.16a3.78,3.78,0,0,1,1-1.66"/><path id="_Path_30" data-name="&lt;Path&gt;" class="cls-8" d="M95.48,77.23a5.49,5.49,0,0,0-1.32,1.28A1.87,1.87,0,0,0,94,79.82a1.49,1.49,0,0,0,1.07-.7,5.33,5.33,0,0,0,.42-1.89"/><path id="_Path_31" data-name="&lt;Path&gt;" class="cls-8" d="M89.23,79.89a10.64,10.64,0,0,1,2.21.18,2,2,0,0,1,1.15.65A3,3,0,0,1,90.8,81a3.51,3.51,0,0,1-1.57-1.06"/><path id="_Path_32" data-name="&lt;Path&gt;" class="cls-8" d="M89,78.27a4,4,0,0,0,1.43,1.3,4.6,4.6,0,0,0,2.39.25,4.74,4.74,0,0,0-1.66-1.22A6.08,6.08,0,0,0,89,78.27"/><path id="_Path_33" data-name="&lt;Path&gt;" d="M93.43,80.84v.5c.83,0,1-.08,1.16.18a.73.73,0,0,0,.83.17.66.66,0,0,0,.32-.89.64.64,0,0,0-.76-.35c-.2,0-.31.18-.48.26a3.3,3.3,0,0,1-1.08.13"/><path id="_Path_34" data-name="&lt;Path&gt;" class="cls-3" d="M95.46,80.92h0a.38.38,0,0,1-.69.3h0a.38.38,0,0,1,.2-.48.33.33,0,0,1,.47.17Z"/><path id="_Path_35" data-name="&lt;Path&gt;" d="M93.33,80.46l.41.3c-.44.7-.55.76-.44,1.08a.74.74,0,0,1-.31.77.65.65,0,0,1-.92-.19.62.62,0,0,1,.09-.83c.14-.14.34-.16.48-.25a3.67,3.67,0,0,0,.69-.88"/><path id="_Path_36" data-name="&lt;Path&gt;" class="cls-3" d="M92.3,82.26h0a.41.41,0,0,0,.53.11.37.37,0,0,0,.09-.52h0a.34.34,0,0,0-.49-.1.4.4,0,0,0-.13.51Z"/><path id="_Path_37" data-name="&lt;Path&gt;" d="M90.56,74.58l0,.49c.83,0,1-.08,1.16.18a.71.71,0,0,0,.81.18.66.66,0,0,0,.33-.9.63.63,0,0,0-.75-.36,1.47,1.47,0,0,0-.46.27,3.34,3.34,0,0,1-1.11.14"/><path id="_Path_38" data-name="&lt;Path&gt;" class="cls-3" d="M92.59,74.66h0a.36.36,0,0,1-.16.48.38.38,0,0,1-.5-.18h0a.38.38,0,0,1,.2-.49.34.34,0,0,1,.46.19Z"/><path id="_Path_39" data-name="&lt;Path&gt;" d="M90.72,74.75l.36.35c-.55.62-.69.66-.61,1a.74.74,0,0,1-.44.72.64.64,0,0,1-.87-.33.59.59,0,0,1,.23-.8c.14-.13.34-.13.5-.19a3.2,3.2,0,0,0,.83-.75"/><path id="_Path_40" data-name="&lt;Path&gt;" class="cls-3" d="M89.44,76.36h0a.36.36,0,0,0,.48.19.4.4,0,0,0,.19-.49h0a.4.4,0,0,0-.5-.19.36.36,0,0,0-.17.48Z"/><path id="_Path_41" data-name="&lt;Path&gt;" d="M87.78,68.69l0,.51c.83,0,.94-.08,1.15.18a.71.71,0,0,0,.82.18.66.66,0,0,0-.44-1.25c-.18,0-.3.19-.44.26a3.22,3.22,0,0,1-1.12.12"/><path id="_Path_42" data-name="&lt;Path&gt;" class="cls-3" d="M89.81,68.79h0a.34.34,0,0,1-.16.49.39.39,0,0,1-.49-.19h0a.39.39,0,0,1,.18-.49.35.35,0,0,1,.47.18Z"/><path id="_Path_43" data-name="&lt;Path&gt;" d="M88,68.6l.36.36c-.51.62-.67.66-.62,1a.68.68,0,0,1-1.3.38.64.64,0,0,1,.23-.8,2.62,2.62,0,0,1,.51-.18A3,3,0,0,0,88,68.6"/><path id="_Path_44" data-name="&lt;Path&gt;" class="cls-3" d="M86.71,70.22h0a.38.38,0,0,0,.5.17.33.33,0,0,0,.17-.47h0a.36.36,0,0,0-.48-.2.4.4,0,0,0-.19.5Z"/><path id="_Path_45" data-name="&lt;Path&gt;" d="M84.82,62.5l.05.5c.82,0,.95-.08,1.15.19a.71.71,0,0,0,.82.16.69.69,0,0,0,.33-.89.67.67,0,0,0-.79-.35c-.18,0-.28.18-.45.27a3.42,3.42,0,0,1-1.11.12"/><path id="_Path_46" data-name="&lt;Path&gt;" class="cls-3" d="M86.88,62.59h0a.34.34,0,0,1-.19.48.37.37,0,0,1-.48-.18h0a.37.37,0,0,1,.17-.48.37.37,0,0,1,.5.18Z"/><path id="_Path_47" data-name="&lt;Path&gt;" d="M85.05,62.41l.36.35c-.54.62-.72.65-.64,1a.72.72,0,0,1-.38.73.67.67,0,0,1-.9-.34.63.63,0,0,1,.23-.81,2,2,0,0,1,.5-.17,3.2,3.2,0,0,0,.83-.75"/><path id="_Path_48" data-name="&lt;Path&gt;" class="cls-3" d="M83.78,64h0a.34.34,0,0,0,.47.18.36.36,0,0,0,.19-.49h0a.36.36,0,0,0-.5-.16.35.35,0,0,0-.16.47h0"/><path id="_Path_49" data-name="&lt;Path&gt;" class="cls-3" d="M90,73.09c-.3.13-.74-1.15-1.07-1.85s-1-1.85-.79-1.93.47.48.81,1.23,1.33,2.45,1,2.55"/><path id="_Path_50" data-name="&lt;Path&gt;" class="cls-3" d="M87,66.33c-.29.13-.63-.72-.93-1.43s-.64-1.24-.45-1.32.52.54.78,1.13.88,1.5.6,1.62"/><path id="_Path_51" data-name="&lt;Path&gt;" class="cls-3" d="M94,81.69c-.25.06-1.26-2.06-2.07-3.86s-1.45-3.23-1.23-3.32.86,1.59,1.69,3.39A21.33,21.33,0,0,1,94,81.69"/><polygon id="_Path_52" data-name="&lt;Path&gt;" class="cls-9" points="95.79 61.39 95.84 72.3 96.65 73.6 101.72 76.4 108.24 79.39 109.06 80.27 114.68 77.2 121.26 74.08 122.53 72.17 122.53 61.44 95.79 61.39"/><path id="_Path_53" data-name="&lt;Path&gt;" class="cls-7" d="M95.48,48.25l.34,1-.07,12.53.46.52,3.85.45,4.17-.6,4.1.62s0,.25,0,.25.61-.09.8-.1.78.1.78.1.06-.23.06-.25l4.09-.62,4.18.6,3.86-.45.44-.52-.06-12.53.33-1-4.6,0-9.08.09-9.07-.09-4.63,0Z"/><polygon id="_Path_54" data-name="&lt;Path&gt;" class="cls-3" points="96.84 62.22 98.92 61.41 100.36 60.27 101.36 61.34 103.38 62.16 101.74 63.1 100.3 64.37 99.02 63.41 96.84 62.22"/><polygon id="_Path_55" data-name="&lt;Path&gt;" class="cls-3" points="117.97 60.33 117.03 61.34 115.01 62.16 116.91 63.35 118.12 64.43 119.45 63.35 121.58 62.28 119.37 61.41 117.97 60.33"/><polygon id="_Path_56" data-name="&lt;Path&gt;" class="cls-3" points="109.16 50 108.55 51.89 106.72 51.01 107.55 52.84 105.76 53.53 107.55 54.16 106.78 55.98 108.47 55.1 109.16 56.99 109.85 55.1 111.57 55.86 110.79 54.16 112.57 53.53 110.87 52.78 111.62 50.95 109.85 51.83 109.16 50"/><polygon id="_Path_57" data-name="&lt;Path&gt;" class="cls-3" points="114.01 49.68 114.59 51.71 115.47 54.29 115.58 56.74 114.59 58.51 112.76 59.27 111.77 59.58 110.56 58.95 109.24 59.75 107.78 58.88 106.58 59.7 105.84 59.2 104.51 59.02 103 57.43 102.67 54.59 104.51 49.56 102.24 51.39 100.3 54.02 100.3 57.5 101.68 59.82 104.2 61.47 104.87 61.65 103.68 63.86 105.76 64.48 106.84 65.55 107.41 67.7 107.28 72.3 106.64 73.36 105.28 74.32 105.2 75.19 106.72 76.14 108.02 77.21 109.99 77.27 111.7 76.08 113.14 75.26 112.76 74 111.24 72.8 110.93 69.14 111.37 65.49 113.56 64.11 114.7 63.73 113.53 61.47 115.34 60.84 117.36 59.06 118.3 55.54 117.74 53.4 116.34 51.63 114.01 49.68"/><polygon id="_Path_58" data-name="&lt;Path&gt;" class="cls-3" points="105.39 65.46 106.27 66.34 105.46 67.17 104.61 66.31 105.39 65.46"/><polygon id="_Path_59" data-name="&lt;Path&gt;" class="cls-3" points="112.98 65.37 112.1 66.28 112.89 67.14 113.83 66.31 112.98 65.37"/><polygon id="_Path_60" data-name="&lt;Path&gt;" class="cls-3" points="113.62 67.7 112.02 68.08 111.62 68.99 111.6 71.51 112.26 72.93 113.14 73.3 113.02 70 113.62 67.7"/><polygon id="_Path_61" data-name="&lt;Path&gt;" class="cls-3" points="104.75 67.72 105.32 70.53 105.32 73.24 106.12 72.68 106.64 71.45 106.75 69.31 106.34 68.01 104.75 67.72"/><polygon id="_Path_62" data-name="&lt;Path&gt;" class="cls-3" points="119.21 69.96 117.38 69.08 115.63 69.46 114.7 70.53 114.61 72.26 115.91 73.78 116.22 73.87 116.19 72.23 117.57 70.34 119.21 69.96"/><polygon id="_Path_63" data-name="&lt;Path&gt;" class="cls-3" points="101.83 69.37 101.65 68.61 100.66 68.04 99.84 68.36 99.44 69.22 99.66 69.96 98.8 69.87 98.11 70.53 98.03 71.41 98.5 71.97 99.16 72.21 99.53 72.18 99.2 72.95 99.47 73.75 100.25 74.19 101.15 73.96 101.63 73.08 102.35 73.58 103.29 73.39 103.87 72.48 103.46 71.63 103.02 71.28 103.66 70.94 103.92 69.91 103.07 68.93 102.24 69.05 101.83 69.37"/><path id="_Compound_Path_3" data-name="&lt;Compound Path&gt;" d="M104.59,49c-.14.93-4.79,2.84-4.79,6.71a6.33,6.33,0,0,0,4.62,6.12l-.19.35-1.11,2a5.87,5.87,0,0,1,2.94,1c1.21,1,1.08,3.26,1.08,4.86,0,1.27-.16,2.61-.8,3.17-.88.75-1.5.8-1.5,1.66s.59.88,1.5,1.35c1.16.61,1.11,1.44,2.82,1.44s1.68-.83,2.85-1.44c.92-.47,1.47-.62,1.47-1.35s-.58-.91-1.47-1.66c-.64-.56-.81-1.9-.81-3.17,0-1.6-.1-3.81,1.11-4.86a5.72,5.72,0,0,1,2.91-1l-1.11-2-.19-.35a6.33,6.33,0,0,0,4.62-6.12c0-3.87-4.64-5.78-4.76-6.71-.45,1.6,1.55,3.81,1.55,6.42,0,3.37-2.49,3.54-2.49,3.54-.6,0-.83.41-1,.41-.5,0-.74-.68-1.21-.68s-.81.72-1.42.72-.92-.72-1.4-.72-.71.64-1.18.68c-.24,0-.48-.41-1.07-.41,0,0-2.49-.17-2.49-3.54,0-2.61,2-4.82,1.57-6.42m9.52,13.18s3.13,1.36,3.94,2.54a23.25,23.25,0,0,1,4.1-2.39,10.87,10.87,0,0,1-4.1-2.26c-1.09,1.41-3.94,2.11-3.94,2.11m-9.88,0s-2.85-.7-3.91-2.11a11,11,0,0,1-4.11,2.26,24.36,24.36,0,0,1,4.11,2.39c.83-1.18,3.91-2.54,3.91-2.54m4.93-12.85-.8,2.3-2.19-1,1,2.2-2.27.8,2.27.81-1,2.19,2.19-1,.8,2.29L110,55.5l2.18,1-1-2.19,2.27-.81-2.27-.8,1-2.2-2.18,1Zm-5.26,1.08c.19.39-1.55,2.93-1.55,5,0,2.54,1.36,4,3.16,4,.35,0,.74.46,1.07.46.51,0,.87-.59,1.18-.59s.68.65,1.4.65,1-.65,1.42-.65.66.59,1.21.59c.33,0,.71-.46,1-.46,1.82,0,3.16-1.5,3.16-4,0-2.08-1.75-4.62-1.55-5,0,0,3.4,2.42,3.4,5.3,0,4.62-4.68,5.77-4.68,5.77l1,2.37a5.63,5.63,0,0,0-2.31.93c-1.21,1-1.21,3.54-1.21,5.27,0,2.07.06,2.94.8,3.49s1.38.72,1.38,1.31-.6.74-1.4,1.09-1,1.08-2.3,1.08-1.38-.69-2.27-1.08-1.41-.56-1.41-1.09.6-.73,1.38-1.31.81-1.42.81-3.49c0-1.73,0-4.31-1.19-5.27a5.86,5.86,0,0,0-2.35-.93l1.07-2.37s-4.71-1.15-4.71-5.77c0-2.88,3.41-5.3,3.41-5.3m5.28.48.53,1.44,1.39-.66-.66,1.4,1.45.52-1.45.51.66,1.4-1.39-.66-.55,1.45-.5-1.45-1.39.66.66-1.4-1.45-.51,1.45-.52-.66-1.4,1.39.66Zm-8.91,9.88a5.66,5.66,0,0,0,2.44,1.49A9.81,9.81,0,0,0,100.32,64v.06l0,0s0,0,0,0V64a16.18,16.18,0,0,0-2.68-1.66,8,8,0,0,0,2.7-1.6m17.8,0a8.24,8.24,0,0,0,2.71,1.6A16.33,16.33,0,0,0,118.12,64v.1s-.05,0-.05,0,0,0,0,0V64a10.33,10.33,0,0,0-2.42-1.78,5.6,5.6,0,0,0,2.44-1.49m-12.65,4.45-1.11,1.11,1.11,1.12,1.11-1.12Zm7.51,0-1.09,1.11,1.09,1.12,1.13-1.12Zm-7.51.53.56.58-.56.59-.6-.59Zm7.51,0,.6.58-.6.59-.58-.59Zm-8.53,1.7a12.93,12.93,0,0,1,.72,4.27,12.8,12.8,0,0,1-.14,2.14,2.85,2.85,0,0,0,1.91-2c.11-.74.3-3.49-.46-4Zm9.57,0-2,.4c-.75.47-.59,3.22-.45,4a2.83,2.83,0,0,0,1.87,2,14.89,14.89,0,0,1-.12-2.14,12.78,12.78,0,0,1,.74-4.27m-13.42.45a.69.69,0,0,0-.23,0,1.3,1.3,0,0,0-1,1.6,1.57,1.57,0,0,0,.12.3l-.31-.07H99A1.36,1.36,0,0,0,97.73,71,1.34,1.34,0,0,0,99,72.35a1.08,1.08,0,0,0,.31,0c0,.08-.12.18-.17.28a1.32,1.32,0,0,0,.75,1.72,1.34,1.34,0,0,0,1.72-.73.76.76,0,0,0,.07-.31l.23.24a1.32,1.32,0,0,0,1.69-2l-.26-.17a1.46,1.46,0,0,0,.28-.14,1.31,1.31,0,0,0,.42-1.82,1.3,1.3,0,0,0-1.21-.61,1.31,1.31,0,0,0-.61.21,1.57,1.57,0,0,0-.26.19,1.62,1.62,0,0,0,0-.31,1.32,1.32,0,0,0-1.36-1m4.56.15,1.09.25c.41.55.33,1.46.33,2.72a2,2,0,0,1-1,1.76,17.74,17.74,0,0,0-.47-4.73m8.15,0a17.18,17.18,0,0,0-.5,4.73,2,2,0,0,1-.94-1.76c0-1.26-.06-2.17.33-2.72Zm-12.6.4a1,1,0,0,1,1,.77,1.27,1.27,0,0,1,0,.34c0,.09,0,.18-.07.25a1.69,1.69,0,0,0-.5-.08,1.45,1.45,0,0,0-1.13.51,1.3,1.3,0,0,1-.19-.22.69.69,0,0,1-.12-.31,1,1,0,0,1,.73-1.24l.22,0m16.39.42a2.62,2.62,0,0,0-2.74,2.9,3.38,3.38,0,0,0,2.57,2.8,2.9,2.9,0,0,1-.42-1.26,2.63,2.63,0,0,1,2.75-2.89,4.06,4.06,0,0,1,.78.1,3.47,3.47,0,0,0-2.94-1.65m-14.34.36a1,1,0,0,1,.5,1.91,1.25,1.25,0,0,1-.31.12,1.37,1.37,0,0,1-.28,0v0a1.51,1.51,0,0,0-.88-1.37,1,1,0,0,1,.14-.25.74.74,0,0,1,.24-.22,1.14,1.14,0,0,1,.59-.16m14.34.23a2.78,2.78,0,0,1,1.47.43,3.23,3.23,0,0,0-2.66,3.47,2.65,2.65,0,0,1-1-1.66,2,2,0,0,1,2.16-2.24M99.39,70a1.77,1.77,0,0,1,.33.08.94.94,0,0,1,.22.15,1.52,1.52,0,0,0-.31.92,1.48,1.48,0,0,0,.2.74.84.84,0,0,1-.27.13,1.05,1.05,0,0,1-.31,0,1,1,0,0,1,.14-2m1.76.16a1,1,0,0,1,0,2,1,1,0,1,1,0-2m1.47,1.13a1.64,1.64,0,0,1,.28.07,1.56,1.56,0,0,1,.28.16,1,1,0,0,1,.13,1.44,1,1,0,0,1-1.45.13,1.27,1.27,0,0,1-.21-.25,1.39,1.39,0,0,1-.1-.26,1.51,1.51,0,0,0,1.07-1.29M99.89,72a1.49,1.49,0,0,0,1.26.67,2.75,2.75,0,0,0,.31,0c0,.1,0,.19,0,.3a2,2,0,0,1-.08.31,1,1,0,0,1-1.92-.77.68.68,0,0,1,.2-.27c0-.08.11-.13.2-.19m7.52,2.44c-.93,0-1.52.21-1.52.47s.59.48,1.52.48a.48.48,0,1,0,0-1m3.55,0a.48.48,0,1,0,0,1c.93,0,1.49-.19,1.49-.48s-.56-.47-1.49-.47"/><path id="_Compound_Path_4" data-name="&lt;Compound Path&gt;" class="cls-3" d="M94.27,47.91s1.24.9,1.24,1.84V71.9A1.93,1.93,0,0,0,96,73.24a5.8,5.8,0,0,0,1.55,1.36,66.9,66.9,0,0,0,7.67,3.74c2.07.94,2.89,1.32,4,2.64,1.08-1.32,1.94-1.7,4-2.64a66.9,66.9,0,0,0,7.67-3.74,6.5,6.5,0,0,0,1.55-1.36,2,2,0,0,0,.44-1.34V49.75c0-.94,1.22-1.84,1.22-1.84H94.27Zm1.57.71H122.5a1.78,1.78,0,0,0-.38,1.13V71.9c0,.49-.47,1.62-3.38,3.07-4.79,2.38-8.47,3.49-9.58,4.85-1.09-1.36-4.76-2.47-9.55-4.85-2.89-1.45-3.4-2.58-3.4-3.07V49.75a1.81,1.81,0,0,0-.37-1.13"/><path id="_Path_64" data-name="&lt;Path&gt;" d="M108.5,34.37a.93.93,0,0,1-1,.79c-.56,0-1-.36-1-.79s.48-.79,1-.79,1,.35,1,.79Z"/><path id="_Path_65" data-name="&lt;Path&gt;" class="cls-7" d="M102.49,33.91a1.42,1.42,0,0,1,1.22-.64l1.54,0c.17.42.87,1.1.87,1.81a3.1,3.1,0,0,0-2.77-1.31,2.2,2.2,0,0,0-.86.17"/><path id="_Path_66" data-name="&lt;Path&gt;" d="M105.12,34.09s-.48-.16-.48-.32.23-.23.37-.05a.64.64,0,0,1,.11.37"/><path id="_Path_67" data-name="&lt;Path&gt;" class="cls-7" d="M105.81,35.31a3.21,3.21,0,0,0-.51.7,4.71,4.71,0,0,1-1.18-.94,3,3,0,0,0,1.69.24"/><path id="_Compound_Path_5" data-name="&lt;Compound Path&gt;" d="M137.76,58.18l-1.58,1.16.16.38a.88.88,0,0,0-.42.34.8.8,0,0,0,.09.64,6.89,6.89,0,0,0-1.75,0c-.21.14.09,1.2,0,2.07-.19,1.24-.69,1.14-.71,1.37a1.7,1.7,0,0,0,.19.6s-.26.09-.33.21.07.54-.05.78L131,70.22c-.09.16-.33.24-.47.48a1,1,0,0,0,0,.54.75.75,0,0,0-.59.31,1.24,1.24,0,0,0-.05.72.55.55,0,0,0-.41.3c-.14.28.1.42.05.54-.86,1.7-1.89,3.71-2.52,4.93-.22.44-1,.53-1.51,1.44a1.39,1.39,0,0,0,.22,1.54s-.68.06-.86.41a.9.9,0,0,0,.46,1.14.89.89,0,0,0,1.18-.31c.17-.34-.18-.92-.18-.92a1.38,1.38,0,0,0,1.36-.76c.46-.91.05-1.6.3-2,.63-1.22,1.66-3.22,2.52-4.92.06-.11.31,0,.44-.3a.46.46,0,0,0,0-.49,1.41,1.41,0,0,0,.56-.48.77.77,0,0,0-.09-.65,1,1,0,0,0,.45-.33c.1-.24,0-.47.1-.65.66-1.27,1.63-3.18,2.27-4.47.14-.23.51-.3.59-.49s0-.41,0-.41a1.53,1.53,0,0,0,.62-.2c.18-.15-.18-.49.69-1.37.64-.64,1.63-1,1.63-1.27s-1-1.42-1-1.42a.75.75,0,0,0,.54-.31.79.79,0,0,0,.06-.56l.39-.07Zm-15,28.43a.5.5,0,0,0-.37.23.54.54,0,0,0,0,.43s-.49-.15-.66-.07a11.8,11.8,0,0,0,0,2.45,12.12,12.12,0,0,0,2-1.45c-.06-.18-.46-.5-.46-.5a.49.49,0,0,0,.35-.25.6.6,0,0,0-.38-.73.86.86,0,0,0-.45-.11"/><path id="_Compound_Path_6" data-name="&lt;Compound Path&gt;" class="cls-3" d="M137.48,58.76l-.92.66.45.24.47.24Zm-.89,1.09a.53.53,0,0,0-.41.25.55.55,0,1,0,.71-.18.76.76,0,0,0-.3-.07M134.82,61c-.14,0-.25,0-.25,0s0,.91,0,1.64a1.9,1.9,0,0,1-.41,1.11c-.06.22-.5.48-.5.48l.33.32s.22-.34.58-1a16.5,16.5,0,0,0,.5-2.28A7.47,7.47,0,0,1,136,61s-.78-.05-1.19,0m1.46.21a3.49,3.49,0,0,0-1,.28,17.07,17.07,0,0,1-.55,2.21,10.76,10.76,0,0,1-.57,1l.24.12.23.11s.13-.3.5-1c.46-.93,1.46-1.58,1.47-1.75a4,4,0,0,0-.32-1m.28.1a8.14,8.14,0,0,1,.31.92c0,.14-1.14,1-1.55,1.74s-.47,1-.47,1l.45.06a2.23,2.23,0,0,1,.07-.69,2,2,0,0,1,.71-.94c.55-.46,1.32-.86,1.32-1a10.77,10.77,0,0,0-.84-1.17M134,65a.43.43,0,0,0-.34.21,6.57,6.57,0,0,1-.71,1.76l-.77,1.48-.81,1.6a.32.32,0,0,0,.15.47.3.3,0,0,0,.43-.17s.5-.94.83-1.6.45-.88.76-1.49a7.84,7.84,0,0,1,1-1.61c.13-.2.1-.44-.21-.59A.47.47,0,0,0,134,65m-3,5.66a.35.35,0,0,0-.27.13c-.09.17.08.42.33.57s.58.11.67-.06-.07-.43-.36-.55a.65.65,0,0,0-.37-.09m-.41.82a.44.44,0,0,0-.42.19c-.13.23,0,.53.39.69a.58.58,0,0,0,.8-.09c.09-.21-.08-.51-.41-.69a1.3,1.3,0,0,0-.36-.1m-.55,1a.27.27,0,0,0-.25.14c-.08.16.06.4.33.55s.57.1.64-.06-.06-.42-.31-.56a.87.87,0,0,0-.41-.07m-.23.87a.45.45,0,0,0-.27.19s-1.75,3.44-2.33,4.66c-.2.38-1,.62-1.36,1.25a1,1,0,1,0,1.7.89c.32-.65,0-1.45.24-1.84l2.35-4.64a.33.33,0,0,0-.14-.48.27.27,0,0,0-.19,0m-4.23,7.92a.49.49,0,0,0-.44.25.67.67,0,0,0,1.16.59.63.63,0,0,0-.33-.76.7.7,0,0,0-.39-.08m-2.77,5.51c-.09,0-.19,0-.21.11s.07.31.32.45.49.1.53,0-.06-.33-.3-.45a.63.63,0,0,0-.34-.08m-.83.65v1.68l1.41-1a1.6,1.6,0,0,0-.61-.55,1.56,1.56,0,0,0-.8-.15"/><path id="_Path_68" data-name="&lt;Path&gt;" class="cls-3" d="M108.19,34.37a.72.72,0,0,1-.72.71.72.72,0,0,1,0-1.43.72.72,0,0,1,.72.72Z"/><path id="_Path_69" data-name="&lt;Path&gt;" d="M107.78,34.37a.33.33,0,0,1-.31.33.34.34,0,1,1,.31-.33"/></g></g></g></g></g></g></svg>