<svg id="Layer_1" data-name="Layer 1" xmlns="http://www.w3.org/2000/svg" xmlns:xlink="http://www.w3.org/1999/xlink" viewBox="0 0 220 128"><defs><style>.cls-1{fill:none;}.cls-2{clip-path:url(#clip-path);}.cls-3{fill:#d41f3a;}.cls-4{fill:#f5eb31;}</style><clipPath id="clip-path"><rect id="_Clipping_Path_" data-name="&lt;Clipping Path&gt;" class="cls-1" width="219.43" height="128"/></clipPath></defs><title>Flag_rect_Kyrgystan</title><g id="KYRGYZSTAN"><g id="_Group_" data-name="&lt;Group&gt;"><g id="_Clip_Group_" data-name="&lt;Clip Group&gt;"><g class="cls-2"><rect id="_Path_" data-name="&lt;Path&gt;" class="cls-3" width="219.43" height="128"/><g id="_Clip_Group_2" data-name="&lt;Clip Group&gt;"><g class="cls-2"><path id="_Compound_Path_" data-name="&lt;Compound Path&gt;" class="cls-4" d="M148.26,64.13c-5,1.22-10.32-2.74-14.93-1.89a.76.76,0,0,0,0-.16c4.44-2.11,11.79.23,14.47-4-4.69,2-10.58-1.05-15,.49l-.05-.21c4-2.71,11.64-1.58,13.62-6.13-4.3,2.71-10.57.64-14.68,2.79a1,1,0,0,0-.07-.18c3.57-3.32,11.21-3.4,12.44-8.18-3.82,3.35-10.29,2.3-14,5l-.11-.21c3-3.8,10.51-5,11-10-3.23,3.88-9.77,3.88-13,7.13,0,0-.1-.13-.16-.18,2.44-4.22,9.58-6.62,9.3-11.55-2.61,4.35-9,5.37-11.76,9.07l-.18-.15c1.77-4.52,8.39-8,7.35-12.8-1.88,4.65-8,6.67-10.19,10.73a.69.69,0,0,0-.2-.13c1.07-4.72,7-9.19,5.25-13.74-1.13,4.85-6.88,7.82-8.36,12.13l-.25-.07c.34-4.81,5.5-10.17,3-14.38-.33,5-5.55,8.81-6.35,13.3a1.11,1.11,0,0,0-.25,0c-.41-4.8,3.84-10.9.75-14.66.43,5-4.11,9.58-4.2,14.15a1.18,1.18,0,0,0-.26,0c-1.16-4.7,2.09-11.34-1.55-14.61,1.21,4.85-2.56,10.11-1.93,14.63a.77.77,0,0,1-.26,0c-1.89-4.45.28-11.55-3.82-14.18,2,4.6-1,10.37.39,14.74L104,41c-2.56-4.11-1.53-11.46-6-13.4,2.66,4.24.68,10.42,2.7,14.53-.07,0-.16.08-.23.13-3.19-3.68-3.32-11.11-8-12.34,3.3,3.76,2.3,10.22,5,14a1,1,0,0,0-.22.12c-3.73-3.09-5-10.47-9.89-10.93,3.87,3.25,3.87,9.76,7.11,13a.79.79,0,0,0-.16.16C90,43.82,87.61,36.67,82.71,37c4.34,2.61,5.34,9.12,9.09,11.83l-.14.18c-4.55-1.74-8.07-8.46-12.86-7.41,4.7,1.92,6.71,8.2,10.86,10.27l-.1.15c-4.78-.94-9.32-7.07-13.91-5.29,4.95,1.15,7.93,7.08,12.37,8.46,0,0,0,.1-.08.18-4.86-.16-10.32-5.57-14.6-3.07,5.1.36,9,5.8,13.59,6.41,0,.05,0,.13,0,.18-4.85.64-11.13-3.88-15-.74,5.11-.43,9.81,4.37,14.49,4.21,0,.06,0,.11,0,.16-4.69,1.45-11.63-2.07-14.94,1.66,5-1.23,10.4,2.76,15,1.86a.41.41,0,0,1,0,.16c-4.41,2.19-11.86-.26-14.56,4,4.76-2,10.76,1.12,15.18-.57,0,0,0,.1,0,.13-4,2.91-11.77,1.66-13.78,6.28,4.39-2.76,10.84-.56,14.94-2.91a.18.18,0,0,1,0,.08c-3.46,3.55-11.41,3.5-12.68,8.4,3.93-3.45,10.66-2.22,14.35-5.29,0,.06,0,.08,0,.11C87.2,80.45,79.28,81.67,78.8,86.7c3.34-4,10.23-3.88,13.36-7.45,0,0,0,0,.06,0-2.13,4.49-9.82,6.92-9.51,12,2.68-4.5,9.55-5.42,12.06-9.51,0,0,0,0,.06.06-1.39,4.8-8.63,8.4-7.55,13.38,2-4.88,8.61-6.87,10.45-11.32,0,0,0,0,.06.06-.62,5-7.23,9.65-5.37,14.4,1.18-5.11,7.44-8.12,8.56-12.82,0,0,0,0,.06,0,.2,5-5.63,10.65-3.05,15.07.37-5.26,6.08-9.2,6.44-14,0,0,0,0,.06,0,1,4.9-3.88,11.44-.64,15.4-.46-5.26,4.58-10.06,4.17-14.84h.06c1.75,4.67-2,11.9,1.78,15.27-1.28-5.08,2.94-10.6,1.8-15.27h.06c2.46,4.37-.17,12.05,4.15,14.84-2.06-4.88,1.23-11-.61-15.4,0,0,0,0,.06,0,3.09,4,1.72,11.95,6.4,14-2.77-4.45-.49-11-3-15.07a.1.1,0,0,1,.07,0c3.66,3.42,3.56,11.52,8.5,12.82-3.44-4-2.2-10.73-5.3-14.43,0,0,0,0,.05,0,4.15,2.81,5.31,10.81,10.39,11.32-4-3.35-3.86-10.27-7.48-13.41,0,0,0,0,.07,0,4.5,2.14,6.91,9.83,12,9.53-4.48-2.69-5.42-9.48-9.45-12l.07,0c4.75,1.43,8.33,8.58,13.28,7.5-4.81-1.94-6.81-8.48-11.15-10.39a.35.35,0,0,1,0-.08c4.91.72,9.56,7.18,14.25,5.34-5-1.17-8-7.25-12.59-8.5a1,1,0,0,0,0-.13c4.95,0,10.53,5.59,14.86,3.06-5.14-.35-9-5.84-13.72-6.43,0,0,0-.08,0-.13,4.88-.74,11.2,3.88,15.09.72-5.12.43-9.81-4.35-14.49-4.22a.76.76,0,0,1,0-.15c4.69-1.46,11.63,2.07,14.95-1.66m-17.61,2.4a21.76,21.76,0,0,1-.58,3l.42.07a3.36,3.36,0,0,0-.48.13,17.77,17.77,0,0,1-1,2.89,1.12,1.12,0,0,0,.41.15,2.53,2.53,0,0,0-.48,0,19.63,19.63,0,0,1-1.5,2.7,1.55,1.55,0,0,0,.38.21l-.49,0a15.56,15.56,0,0,1-1.9,2.4,3.66,3.66,0,0,0,.35.31,4.27,4.27,0,0,0-.48-.13A21.34,21.34,0,0,1,123,80.4a3.06,3.06,0,0,0,.31.33,1.56,1.56,0,0,0-.46-.18,23.75,23.75,0,0,1-2.56,1.71c.08.13.16.23.25.36a1.71,1.71,0,0,0-.42-.26,18,18,0,0,1-2.8,1.33,1.77,1.77,0,0,0,.2.36l-.37-.31a22.13,22.13,0,0,1-3,.87,2.73,2.73,0,0,0,.13.41,3,3,0,0,0-.32-.36,19.66,19.66,0,0,1-3.06.36,1.59,1.59,0,0,0,.06.43c-.09-.13-.17-.28-.25-.41-.3,0-.6,0-.88,0a20.39,20.39,0,0,1-2.23-.13,2.8,2.8,0,0,0,0,.41c0-.15-.12-.28-.18-.43a23.3,23.3,0,0,1-3-.57,1.59,1.59,0,0,0-.07.41c0-.15-.07-.33-.1-.48a18.73,18.73,0,0,1-2.92-1,3.31,3.31,0,0,0-.14.41,4.6,4.6,0,0,0,0-.49,29.3,29.3,0,0,1-2.71-1.48,3.87,3.87,0,0,0-.2.36c0-.15,0-.31,0-.46a21.37,21.37,0,0,1-2.44-1.91,1.14,1.14,0,0,0-.26.35,4.56,4.56,0,0,0,.12-.46,28.1,28.1,0,0,1-2.12-2.27c-.1.1-.2.18-.31.31a3.56,3.56,0,0,0,.19-.49,21.74,21.74,0,0,1-1.73-2.53c-.13.08-.23.16-.36.23a3,3,0,0,0,.27-.38,24.74,24.74,0,0,1-1.33-2.81,1.47,1.47,0,0,0-.38.21,3.73,3.73,0,0,1,.32-.39,19.12,19.12,0,0,1-.86-3,1.51,1.51,0,0,1-.41.13,2.9,2.9,0,0,0,.38-.33,21.59,21.59,0,0,1-.39-3,3.71,3.71,0,0,0-.44,0c.16-.08.3-.18.43-.25,0-.29,0-.57,0-.87a19.6,19.6,0,0,1,.12-2.2,1.62,1.62,0,0,0-.44,0c.16-.08.32-.13.47-.2a18.47,18.47,0,0,1,.57-3.07c-.13,0-.27,0-.42,0a2.21,2.21,0,0,0,.46-.1,22.81,22.81,0,0,1,1-2.91,1.67,1.67,0,0,0-.4-.16,2.54,2.54,0,0,0,.49,0,19.53,19.53,0,0,1,1.5-2.68,2.28,2.28,0,0,0-.38-.2l.47,0a25.68,25.68,0,0,1,1.91-2.45c-.1,0-.22-.15-.35-.23a3.36,3.36,0,0,1,.48.13,17.25,17.25,0,0,1,2.25-2.12,1.11,1.11,0,0,0-.3-.31,3.52,3.52,0,0,1,.45.18A21.34,21.34,0,0,1,99.42,46a2.3,2.3,0,0,0-.25-.35,3.77,3.77,0,0,0,.41.25,19.84,19.84,0,0,1,2.81-1.3,2.55,2.55,0,0,0-.2-.41,2.15,2.15,0,0,0,.37.33,19.64,19.64,0,0,1,3-.86c0-.13-.07-.26-.13-.41l.31.38a17.52,17.52,0,0,1,3.08-.38,4.39,4.39,0,0,0-.07-.44,2.44,2.44,0,0,0,.26.41h.87a16.25,16.25,0,0,1,2.22.13,3.52,3.52,0,0,0,0-.46,4,4,0,0,0,.18.46,25.25,25.25,0,0,1,3,.56,1.92,1.92,0,0,0,.07-.41c0,.16.07.33.11.46A30.48,30.48,0,0,1,118.4,45c0-.12.1-.28.14-.4a2.59,2.59,0,0,0,0,.48,26.94,26.94,0,0,1,2.7,1.48,2.44,2.44,0,0,0,.21-.36,2.81,2.81,0,0,0,0,.49,27.26,27.26,0,0,1,2.44,1.89,1.52,1.52,0,0,0,.26-.36,3.1,3.1,0,0,0-.11.51A20.55,20.55,0,0,1,126.14,51c.1-.13.21-.2.32-.33-.08.18-.15.33-.2.46A18.78,18.78,0,0,1,128,53.71c.11-.1.24-.16.35-.26l-.27.41a16.4,16.4,0,0,1,1.32,2.81,3.6,3.6,0,0,0,.39-.2c-.1.12-.23.23-.32.35a21.81,21.81,0,0,1,.87,3,2,2,0,0,0,.42-.15l-.39.33a22.3,22.3,0,0,1,.39,3.09l.43-.08a3.86,3.86,0,0,0-.42.26c0,.28,0,.59,0,.87a18.35,18.35,0,0,1-.12,2.22,3.1,3.1,0,0,0,.44,0,3,3,0,0,0-.45.16"/><path id="_Path_2" data-name="&lt;Path&gt;" class="cls-4" d="M107.84,52.1A26.93,26.93,0,0,0,98.43,50c-.26.26-.52.49-.76.74a26.19,26.19,0,0,1,9,2c.4-.23.8-.46,1.22-.66"/><path id="_Path_3" data-name="&lt;Path&gt;" class="cls-4" d="M119.87,48.88a16.89,16.89,0,0,0-20,0,28.45,28.45,0,0,1,10,2.25,28.35,28.35,0,0,1,10-2.25"/><path id="_Path_4" data-name="&lt;Path&gt;" class="cls-4" d="M105,53.78a25.64,25.64,0,0,0-8.29-1.94l-.55.69a25.09,25.09,0,0,1,7.86,2c.32-.23.65-.46,1-.72"/><path id="_Path_5" data-name="&lt;Path&gt;" class="cls-4" d="M112.24,58.46a12.65,12.65,0,0,0-1,.82,25.44,25.44,0,0,1,8,18,13.92,13.92,0,0,0,1.52-1.13,25.93,25.93,0,0,0-8.51-17.72"/><path id="_Path_6" data-name="&lt;Path&gt;" class="cls-4" d="M113.09,52.76a26.35,26.35,0,0,1,9-2c-.24-.25-.5-.48-.76-.74a26.73,26.73,0,0,0-9.39,2.07c.41.2.81.43,1.2.66"/><path id="_Path_7" data-name="&lt;Path&gt;" class="cls-4" d="M115.07,56.54a12.54,12.54,0,0,0-1.18.77A27.08,27.08,0,0,1,123,74a13.31,13.31,0,0,0,1.33-1.84,28,28,0,0,0-9.21-15.58"/><path id="_Path_8" data-name="&lt;Path&gt;" class="cls-4" d="M102.68,55.55a24.62,24.62,0,0,0-7.22-2,17.51,17.51,0,0,0-2.68,9.33,17.28,17.28,0,0,0,1,5.87,29.13,29.13,0,0,1,8.89-13.2"/><path id="_Path_9" data-name="&lt;Path&gt;" class="cls-4" d="M115.7,54.5a25.16,25.16,0,0,1,7.86-2l-.55-.69a25.59,25.59,0,0,0-8.28,1.94c.33.26.65.49,1,.72"/><path id="_Path_10" data-name="&lt;Path&gt;" class="cls-4" d="M102.77,77.84c0,.26,0,.51,0,.77a17.08,17.08,0,0,0,14.13,0c0-.26,0-.51,0-.77a24.64,24.64,0,0,0-7.07-17.29,24.53,24.53,0,0,0-7.09,17.29"/><path id="_Path_11" data-name="&lt;Path&gt;" class="cls-4" d="M109.86,53c-.41.23-.83.44-1.21.67.39.23.8.43,1.21.66.4-.23.81-.43,1.22-.66-.4-.23-.81-.44-1.22-.67"/><path id="_Path_12" data-name="&lt;Path&gt;" class="cls-4" d="M117,55.55a29,29,0,0,1,8.89,13.2,17.48,17.48,0,0,0-1.67-15.2,24.53,24.53,0,0,0-7.22,2"/><path id="_Path_13" data-name="&lt;Path&gt;" class="cls-4" d="M108.48,59.28c-.34-.29-.67-.57-1-.82A26,26,0,0,0,99,76.18a15,15,0,0,0,1.52,1.13,25.34,25.34,0,0,1,8-18"/><path id="_Path_14" data-name="&lt;Path&gt;" class="cls-4" d="M108.85,57.28l1,.77,1-.77a10.14,10.14,0,0,0-1-.76,11.59,11.59,0,0,0-1,.76"/><path id="_Path_15" data-name="&lt;Path&gt;" class="cls-4" d="M105.83,57.31c-.4-.28-.8-.54-1.19-.77a28,28,0,0,0-9.21,15.58A14.2,14.2,0,0,0,96.76,74a27,27,0,0,1,9.07-16.65"/><path id="_Path_16" data-name="&lt;Path&gt;" class="cls-4" d="M111.5,55.44c.36.23.68.49,1,.74a13.62,13.62,0,0,1,1.21-.71c-.33-.26-.66-.49-1-.71-.41.2-.82.43-1.23.68"/><path id="_Path_17" data-name="&lt;Path&gt;" class="cls-4" d="M106,55.47a11.12,11.12,0,0,1,1.2.71c.35-.25.67-.51,1-.74a11,11,0,0,0-1.21-.68c-.32.22-.66.45-1,.71"/></g></g></g></g></g></g></svg>