<svg id="Layer_1" data-name="Layer 1" xmlns="http://www.w3.org/2000/svg" viewBox="0 0 220 128"><defs><style>.cls-1{fill:#176734;}.cls-2{fill:#fff;}.cls-3{fill:#ca2026;}.cls-4{fill:#f5c115;}.cls-5{fill:none;stroke:#f5c115;stroke-width:3.41px;}</style></defs><title>Flag_rect_Tajikistan</title><rect class="cls-1" width="219.43" height="128"/><rect class="cls-2" width="219.43" height="91.43"/><rect class="cls-3" width="219.43" height="36.57"/><path class="cls-4" d="M104.88,62.3a2.29,2.29,0,0,1,4.26,1.08v9.14h1.72V63.38a2.28,2.28,0,0,1,4.26-1.08,5.39,5.39,0,1,0-10.24,0"/><path class="cls-2" d="M106.11,59.91A3.66,3.66,0,0,1,110,61.66a3.66,3.66,0,0,1,3.89-1.75,3.93,3.93,0,0,0-7.78,0"/><path id="w" class="cls-4" d="M109.14,68.87a6.95,6.95,0,0,1-11.67,4.45,7.23,7.23,0,0,1-9.39,4,7.68,7.68,0,0,1-1.54-.84c.67,6.66,10.66,5.3,11.4-1.18,3.14,5.51,10,3.93,12-2.81Z"/><path id="w-2" data-name="w" class="cls-4" d="M110.86,68.87a6.95,6.95,0,0,0,11.67,4.45,7.23,7.23,0,0,0,9.39,4,7.68,7.68,0,0,0,1.54-.84c-.67,6.66-10.66,5.3-11.4-1.18-3.14,5.51-10,3.93-12-2.81Z"/><path id="r" class="cls-4" d="M102.47,80.7c-1.39,3-4.17,3.52-6.61,1.09a5.93,5.93,0,0,1,2-.88,3.26,3.26,0,0,1,.77-2.62,4,4,0,0,1,1.64,2.17,3.53,3.53,0,0,1,2.17.24Z"/><path id="r-2" data-name="r" class="cls-4" d="M113.37,80.36c-1.86,2.74-4.69,2.79-6.7,0a6,6,0,0,1,2.14-.54A3.29,3.29,0,0,1,110,77.36a4.06,4.06,0,0,1,1.27,2.41,3.51,3.51,0,0,1,2.1.59Z"/><path id="r-3" data-name="r" class="cls-4" d="M124.18,81.79c-2.29,2.4-5.09,2-6.61-1.08a6,6,0,0,1,2.2-.19,3.28,3.28,0,0,1,1.57-2.23,4,4,0,0,1,.86,2.58,3.64,3.64,0,0,1,2,.92Z"/><path class="cls-5" d="M92.26,87.41a62.11,62.11,0,0,1,35.48,0"/><polygon id="s" class="cls-4" points="110 39.31 112.69 47.58 105.65 42.47 114.35 42.47 107.31 47.58 110 39.31"/><g id="h"><polygon id="s-2" data-name="s" class="cls-4" points="97.2 42.74 99.89 51.01 92.85 45.9 101.55 45.9 94.51 51.01 97.2 42.74"/><polygon id="s-3" data-name="s" class="cls-4" points="87.83 52.11 90.52 60.38 83.48 55.27 92.18 55.27 85.14 60.38 87.83 52.11"/><polygon id="s-4" data-name="s" class="cls-4" points="84.4 64.91 87.09 73.18 80.05 68.07 88.75 68.07 81.71 73.18 84.4 64.91"/></g><g id="h-2" data-name="h"><polygon id="s-5" data-name="s" class="cls-4" points="122.8 42.74 120.11 51.01 127.15 45.9 118.45 45.9 125.49 51.01 122.8 42.74"/><polygon id="s-6" data-name="s" class="cls-4" points="132.17 52.11 129.48 60.38 136.52 55.27 127.82 55.27 134.86 60.38 132.17 52.11"/><polygon id="s-7" data-name="s" class="cls-4" points="135.6 64.91 132.91 73.18 139.95 68.07 131.25 68.07 138.29 73.18 135.6 64.91"/></g></svg>