<svg id="Layer_1" data-name="Layer 1" xmlns="http://www.w3.org/2000/svg" viewBox="0 0 220 128"><defs><style>.cls-1{fill:#f7e017;}.cls-2{fill:#fff;}.cls-3{fill:#cf1126;}</style></defs><title>Flag_rect_Brunei</title><rect class="cls-1" width="220" height="128"/><path class="cls-2" d="M0,8.89V65.78L220,92.44V62.22Z"/><path d="M0,39.11V65.78l220,53.33V92.44Z"/><path class="cls-3" d="M105.69,101.28a20.76,20.76,0,0,1-8.79-3A5.31,5.31,0,0,0,96,97.7c-.06,0-.11.32-.11.72a1.8,1.8,0,0,1-1.6,2A5.21,5.21,0,0,1,90.17,99a12.26,12.26,0,0,0-4.39-2.41,7.17,7.17,0,0,0-3.71.12,8.87,8.87,0,0,0-1.27.53,1.63,1.63,0,0,1-.49.22c-.2,0-.17-1.22,0-1.61A3.18,3.18,0,0,1,82,94.57c.38-.14.7-.32.7-.4a2.45,2.45,0,0,0-.29-.65,1.76,1.76,0,0,1,.6-2.46,4.13,4.13,0,0,1,3.85-.3,6.05,6.05,0,0,0,.72.24c.18,0,.07-.26-.43-1a2.92,2.92,0,0,1-.62-2.27,2.64,2.64,0,0,1,2.4-2.4c1-.07,1.68.28,3.2,1.73a25.64,25.64,0,0,0,15.31,7.4,30.42,30.42,0,0,0,6.12-.19A27.77,27.77,0,0,0,128.12,87c1.13-1.07,1.68-1.35,2.61-1.36a2.41,2.41,0,0,1,2,.9,2.44,2.44,0,0,1,.65,2,2.61,2.61,0,0,1-.47,1.41c-.5.81-.41.89.58.5a3.87,3.87,0,0,1,3.88.57,1.76,1.76,0,0,1,.25,2.5,4.69,4.69,0,0,0-.4.77c0,.1.17.15,1,.28a2,2,0,0,1,1.67,2.17c0,.37,0,.66-.1.66a8,8,0,0,1-.89-.33,7.35,7.35,0,0,0-3.4-.63,5.88,5.88,0,0,0-2.25.31,10.07,10.07,0,0,0-3.47,2,3.92,3.92,0,0,1-3,1.32,2.32,2.32,0,0,1-2.09-.89c-.2-.32-.23-.51-.18-1.21a2.61,2.61,0,0,0,0-.84,7.26,7.26,0,0,0-.89.56,14.15,14.15,0,0,1-3.28,1.75,32.18,32.18,0,0,1-14.62,1.73Z"/><path class="cls-3" d="M107.57,93.36a24.23,24.23,0,0,1-17.41-9.89,27.24,27.24,0,0,1-4.38-20.84,17.17,17.17,0,0,1,4.55-8.81A20.39,20.39,0,0,0,88.77,67a22.08,22.08,0,0,0,18,17.63c3.54,1,7.2-.06,10.58-1.15a21.1,21.1,0,0,0,13.82-17.62,21.64,21.64,0,0,0-2-12.6c1.1.58,2.49,2.86,3.31,4.39,2.84,5.51,3,12.11,1.3,18-2.28,7.48-8,14-15.56,16.42a29.44,29.44,0,0,1-10.68,1.27Z"/><g id="hand"><path class="cls-3" d="M73,83.54c-.45-.07-1,.37-.78.83a3,3,0,0,0,1.39.92,9.36,9.36,0,0,0,3.81.64h.32a8.66,8.66,0,0,0,3-.53c.53-.18,1.22-.36,1.44-1a.49.49,0,0,0-.57-.69c-.55.12-1.06.36-1.6.5a10.24,10.24,0,0,1-3.61.36,10,10,0,0,1-2.56-.73,3.05,3.05,0,0,0-.86-.35Z"/><path class="cls-3" d="M73.53,81.69a.64.64,0,0,0-.66.87,3.32,3.32,0,0,0,1.48,1,7.63,7.63,0,0,0,3,.51h.28a6.77,6.77,0,0,0,2.55-.5c.49-.2,1.09-.38,1.3-.92a.49.49,0,0,0-.34-.76,2.7,2.7,0,0,0-1,.3,7.84,7.84,0,0,1-3.67.57,7.4,7.4,0,0,1-2.22-.72,3.35,3.35,0,0,0-.79-.37Z"/><path class="cls-3" d="M74.14,79.92a.62.62,0,0,0-.59.75c0,.31.33.51.56.7a5.35,5.35,0,0,0,3.31.95c-.45,0,.61,0,.29,0a4.89,4.89,0,0,0,2.12-.5c.44-.2,1-.42,1.11-.92.07-.24.12-.58-.15-.71s-.55.08-.8.18a6,6,0,0,1-2.76.67,4.75,4.75,0,0,1-2.32-.69,3.08,3.08,0,0,0-.77-.43Z"/><path class="cls-3" d="M67.61,53.81c-.58.58-.14,1.65-.17,2.41A28.58,28.58,0,0,0,69,63.13c1.07,2.15,3.34,3.3,4.72,5.2a7.9,7.9,0,0,1,.42,3c.08,2.73.06,5.46,0,8.19a6.58,6.58,0,0,0,4,1c.84-.2,2.4-.33,2.58-1.17-.07-4.71-.11-9.42-.18-14.13-.47-1.44-1.94-2.19-3-3.11A27.38,27.38,0,0,1,75,59.28c-.47-.78-2.29-1.06-1.63.3.38,1.18,1.37,2.07,1.62,3.31,0,.68.86,1.93.17,2.33a4.34,4.34,0,0,0-1.9-1.77c-.79-.59-2.09-.83-2.37-1.87a7.67,7.67,0,0,0-1.94-3.91,3.89,3.89,0,0,0-1.14-3.82l-.16,0Z"/><path class="cls-3" d="M69.37,54.08c-.53.08-.51.75-.27,1.11a4.81,4.81,0,0,1,.19,2.38,7.83,7.83,0,0,1,1.88,3.85c0,.54.58.72,1,1a19.06,19.06,0,0,1,2.61,1.64c.16.17.28.36.17,0a2.61,2.61,0,0,0-.54-1.29,3.68,3.68,0,0,0-1.8-1.15,5.86,5.86,0,0,0-.73-2,4.69,4.69,0,0,0-1.34-1.68A7.18,7.18,0,0,0,70,54.66c-.14-.26-.34-.57-.66-.58Z"/><path class="cls-3" d="M70.84,54.51c-.37.11-.3.56-.18.84a9.7,9.7,0,0,1,.19,2.34,6.19,6.19,0,0,1,1.48,2.06,6,6,0,0,1,.56,1.58,4.21,4.21,0,0,1,1.45.9,8.68,8.68,0,0,0-.8-1.38,5.37,5.37,0,0,1-.65-1.54,2.62,2.62,0,0,1-.71-2.13,3.43,3.43,0,0,0-.81-2.36.91.91,0,0,0-.53-.31Z"/><path class="cls-3" d="M72.52,54.75c-.2,0-.32.23-.43.38s.15.32.18.49a3.91,3.91,0,0,1,.25,1.85,2.35,2.35,0,0,0,.37,1.26.67.67,0,0,1,.6-.5c.1,0,.25,0,.19-.13a9.79,9.79,0,0,0-.49-2.51,1.84,1.84,0,0,0-.5-.78.22.22,0,0,0-.17-.06Z"/></g><g id="hand-2" data-name="hand"><path class="cls-3" d="M147,83.54c.45-.07.95.37.78.83a3,3,0,0,1-1.39.92,9.36,9.36,0,0,1-3.81.64h-.32a8.66,8.66,0,0,1-3-.53c-.53-.18-1.22-.36-1.44-1a.49.49,0,0,1,.57-.69c.55.12,1.06.36,1.6.5a10.24,10.24,0,0,0,3.61.36,10,10,0,0,0,2.56-.73,3.05,3.05,0,0,1,.86-.35Z"/><path class="cls-3" d="M146.47,81.69a.64.64,0,0,1,.66.87,3.32,3.32,0,0,1-1.48,1,7.63,7.63,0,0,1-3,.51h-.28a6.77,6.77,0,0,1-2.55-.5c-.49-.2-1.09-.38-1.3-.92a.49.49,0,0,1,.34-.76,2.7,2.7,0,0,1,.95.3,7.84,7.84,0,0,0,3.67.57,7.4,7.4,0,0,0,2.22-.72,3.35,3.35,0,0,1,.79-.37Z"/><path class="cls-3" d="M145.86,79.92a.62.62,0,0,1,.59.75c0,.31-.33.51-.56.7a5.35,5.35,0,0,1-3.31.95c.45,0-.61,0-.29,0a4.89,4.89,0,0,1-2.12-.5c-.44-.2-1-.42-1.11-.92-.07-.24-.12-.58.15-.71s.55.08.8.18a6,6,0,0,0,2.76.67,4.75,4.75,0,0,0,2.32-.69,3.08,3.08,0,0,1,.77-.43Z"/><path class="cls-3" d="M152.39,53.81c.58.58.14,1.65.17,2.41A28.58,28.58,0,0,1,151,63.13c-1.07,2.15-3.34,3.3-4.72,5.2a7.9,7.9,0,0,0-.42,3c-.08,2.73-.06,5.46,0,8.19a6.58,6.58,0,0,1-4,1c-.84-.2-2.4-.33-2.58-1.17.07-4.71.11-9.42.18-14.13.47-1.44,1.94-2.19,3-3.11A27.38,27.38,0,0,0,145,59.28c.47-.78,2.29-1.06,1.63.3-.38,1.18-1.37,2.07-1.62,3.31-.05.68-.86,1.93-.17,2.33a4.34,4.34,0,0,1,1.9-1.77c.79-.59,2.09-.83,2.37-1.87a7.67,7.67,0,0,1,1.94-3.91,3.89,3.89,0,0,1,1.14-3.82l.16,0Z"/><path class="cls-3" d="M150.63,54.08c.53.08.51.75.27,1.11a4.81,4.81,0,0,0-.19,2.38,7.83,7.83,0,0,0-1.88,3.85c0,.54-.58.72-1,1a19.06,19.06,0,0,0-2.61,1.64c-.16.17-.28.36-.17,0a2.61,2.61,0,0,1,.54-1.29,3.68,3.68,0,0,1,1.8-1.15,5.86,5.86,0,0,1,.73-2,4.69,4.69,0,0,1,1.34-1.68,7.18,7.18,0,0,1,.46-3.22c.14-.26.34-.57.66-.58Z"/><path class="cls-3" d="M149.16,54.51c.37.11.3.56.18.84a9.7,9.7,0,0,0-.19,2.34,6.19,6.19,0,0,0-1.48,2.06,6,6,0,0,0-.56,1.58,4.21,4.21,0,0,0-1.45.9,8.68,8.68,0,0,1,.8-1.38,5.37,5.37,0,0,0,.65-1.54,2.62,2.62,0,0,0,.71-2.13,3.43,3.43,0,0,1,.81-2.36.91.91,0,0,1,.53-.31Z"/><path class="cls-3" d="M147.48,54.75c.2,0,.32.23.43.38s-.15.32-.18.49a3.91,3.91,0,0,0-.25,1.85,2.35,2.35,0,0,1-.37,1.26.67.67,0,0,0-.6-.5c-.1,0-.25,0-.19-.13a9.79,9.79,0,0,1,.49-2.51,1.84,1.84,0,0,1,.5-.78.22.22,0,0,1,.17-.06Z"/></g><path class="cls-3" d="M109.23,84.62a6.33,6.33,0,0,1-5.3-4.27c0-.39.53.22.76.26a3.43,3.43,0,0,0,1.41.48c.63.27,1,.89,1.63,1.22.28.21,1.27.64,1.08,0a1.29,1.29,0,0,1-.19-1.24A8.53,8.53,0,0,1,110,79c.38-.13.63.62.91.88a2.51,2.51,0,0,1,.61,2c-.22.27-.36,1.08.22.81a8.1,8.1,0,0,0,1.89-1.34c.52-.36,1.19-.39,1.73-.7.25-.07.78-.57.89-.29a8.07,8.07,0,0,1-1.33,2.17,5.72,5.72,0,0,1-3.34,1.94,9.25,9.25,0,0,1-2.35.11Z"/><path class="cls-3" d="M112.05,81.82a2.41,2.41,0,0,0-.3-1.41,12.79,12.79,0,0,0-1.43-2.13c-.49-.29-.77.65-1.09.92a5,5,0,0,0-1.18,2.49c-.28.45-.82-.36-1-.62a3.38,3.38,0,0,1-.71-2.14,9.11,9.11,0,0,1,.64-3.65,8.24,8.24,0,0,0,.85-3A2.71,2.71,0,0,0,107,70c-.63-.49.41-.6.74-.34.56,0,.86,1,1.38.73.2-.48.24-1.06.67-1.44.41-.57.85.24,1,.62.29.33,0,1.16.46,1.18.57-.4,1-1.07,1.7-1.22.3-.17.8,0,.41.32a3.24,3.24,0,0,0-1.1,1.89,4.62,4.62,0,0,0,.49,2.75,8.6,8.6,0,0,1,1,5.41,3.5,3.5,0,0,1-1.43,2c-.09,0-.22,0-.25-.07Z"/><path class="cls-3" d="M111.2,69.27a3.84,3.84,0,0,0-1-1.25c-.43,0-.69.54-1,.82s-.45,1-1,.51a2.49,2.49,0,0,1-.92-2.3,9.73,9.73,0,0,1,1-3.84,4,4,0,0,0,.05-2.43,6.64,6.64,0,0,0-1.52-2.24c0-.27.75-.12,1-.07.6.15.95.68,1.4,1.06.31-.1.19-.74.33-1s.58-1,.81-.38c.35.39,0,1.15.44,1.39.43-.16.64-.62,1-.84a1.39,1.39,0,0,1,1.38-.08c.15.39-.46.72-.64,1.06a3.63,3.63,0,0,0-.67,3.22,23.15,23.15,0,0,1,.83,2.56,7.13,7.13,0,0,1-.09,3,2,2,0,0,1-1.21,1.26,2.22,2.22,0,0,1-.29-.46Z"/><path class="cls-3" d="M108.51,58.11a1.75,1.75,0,0,1-.8-1.68,1.48,1.48,0,0,1,.36-1c.41-.57.34-.75-.24-.59-.94.27-1.39,0-1.42-.77,0-.39.07-.55.59-1.18s.58-.77.49-.86-.57.35-1.59,1.39a24,24,0,0,1-2,1.88c-1.75,1.18-3.42,1.36-4.19.45-.39-.46-.37-.72.09-1a5.25,5.25,0,0,0,.78-.65A15.21,15.21,0,0,1,103.41,52c.63-.31.78-.53.37-.53s-2.23,1.11-3.52,2.29a5.84,5.84,0,0,1-1.21.87,4.51,4.51,0,0,1-2.47.2c-.4-.13-1.12-.81-1.12-1.06,0-.06.16-.2.37-.31a5.65,5.65,0,0,0,.8-.58,11.5,11.5,0,0,1,4.53-2.16c.49-.1.31-.35-.24-.33a9.94,9.94,0,0,0-4.44,2.08c-1.48,1.22-3.71,1.11-4.43-.23a.94.94,0,0,1-.16-.48,8.15,8.15,0,0,1,1-.29,16.44,16.44,0,0,0,2.65-1.1,9.07,9.07,0,0,1,3.21-1.15c.5-.08.53-.33,0-.39s-1.59.24-3.29,1.08c-2.18,1.07-2.79,1.26-3.94,1.19A3.41,3.41,0,0,1,89.05,50c-.56-.53-1.35-1.87-1.19-2a1.13,1.13,0,0,1,.56.08,11.37,11.37,0,0,0,2.24.15,7.57,7.57,0,0,0,2.66-.26,14.86,14.86,0,0,0,4.27-2.17,10.23,10.23,0,0,1,6.54-2.41A6.07,6.07,0,0,1,109,45.08c.42.42.77.7.83.64a7.52,7.52,0,0,0,.14-1.65s.64-.06.78.12c0,1.38,0,1.49.22,1.49s.27-.14.36-.34a3.65,3.65,0,0,1,1.63-1.46,9.44,9.44,0,0,1,6.63-.06,11.11,11.11,0,0,1,3,1.69,15.86,15.86,0,0,0,4.25,2.14,11.18,11.18,0,0,0,4.48.18c.45-.1.88-.18.95-.18.4,0-.29,1.35-1.11,2.15-1.48,1.45-3.42,1.44-6.14,0-1.7-.92-3.73-1.42-3.73-.92,0,.1.11.17.26.17a10.17,10.17,0,0,1,3.32,1.15,9.61,9.61,0,0,0,3.26,1.17c.42,0,.43.25,0,.82a2.33,2.33,0,0,1-2.09.91,3.16,3.16,0,0,1-2.31-.91c-1.4-1.17-4.91-2.48-4.77-1.78,0,.14.19.23.56.28a9.7,9.7,0,0,1,4.11,2c.45.34.92.67,1,.74s.21.15,0,.45a2.18,2.18,0,0,1-1.65,1,3.29,3.29,0,0,1-2.57-.88c-1.77-1.48-3.44-2.55-4-2.55s-.24.24.53.64a14.31,14.31,0,0,1,2.81,2,6.89,6.89,0,0,0,.9.74c.32.17.31.42,0,.88a1.8,1.8,0,0,1-1.72.6c-1.54-.16-2.74-.91-4.62-2.86a13.18,13.18,0,0,0-1.46-1.39c-.25,0-.1.34.38.89s.72,1,.49,1.59-.53.6-1.22.41-.81,0-.35.56A1.8,1.8,0,0,1,112,58a2,2,0,0,1-.61.41c-.07,0-.25-.19-.41-.43-.54-.82-1-.81-1.54,0-.18.29-.34.52-.34.52l-.55-.4Z"/><path class="cls-3" d="M111.19,41.43l-.92.72-.81-.62v4.93l1.73,0Z"/><path class="cls-3" d="M105.54,36.31a15.91,15.91,0,0,1-1.6,5.75l2-1.83,1.38,1.63,1.48-1.66,1.52,1.41,1.46-1.46,1.51,1.77,1.32-1.46,2.23,1.6c-.81-1.79-1.91-3.31-1.77-5.84-2.16,1.61-7.29,1.9-9.5.09Z"/><path class="cls-3" d="M109.46,35.12a15.42,15.42,0,0,0-2.38.17,3.66,3.66,0,0,0-1.39.56c.06,1.51,7.29,2.14,9.23,0a3.79,3.79,0,0,0-1.46-.58,13.17,13.17,0,0,0-2.28-.16v1.25h-1.72V35.12Z"/><path class="cls-3" d="M110.87,27.37h-1.12v8.78h1.14Z"/><path class="cls-3" d="M110.87,27.6l-.43,4.2,4.32,2.11L112.58,31l3-1Z"/><path class="cls-3" d="M110.39,26.5c-.66,0-1.14.25-1.14.54s.48.54,1.14.54,1.14-.25,1.14-.54S111,26.5,110.39,26.5Z"/><path class="cls-1" d="M108.12,100.23a2.07,2.07,0,0,0,1.4-1.49,3.38,3.38,0,0,0,.22-.95c-.06-.27-.37-.25-.71,0s-.26.29-.19.68c.17,1-.19,1.25-2.07,1.45a7.35,7.35,0,0,1-1.2-.07c-.9-.11-1.22,0-.89.25a1.58,1.58,0,0,0,.55.24,9.12,9.12,0,0,0,2.89-.14Z"/><path class="cls-1" d="M112,100.07a3,3,0,0,1,.82-.38,1.43,1.43,0,0,0,.88-.59c.55-.82.45-1.53-.36-2.48-.44-.52-.64-.51-1,.07s-.3.53.14.64a1,1,0,0,1,.57.44c.48.82.34,1.33-.37,1.34s-.82.09-1,.51a2.07,2.07,0,0,0-.16.51c0,.17.24.14.46-.06Z"/><path class="cls-1" d="M110.74,99.14a7.2,7.2,0,0,0,.15-2.12,11.93,11.93,0,0,0-.08-1.72c-.11-.11-.63.23-.7.45a.93.93,0,0,0,.13.58c.16.32.18.62.13,1.86-.06,1.58,0,1.84.37,1Z"/><path class="cls-1" d="M107.73,98.39a12.31,12.31,0,0,0,.19-1.34,6.42,6.42,0,0,1,.2-1.23c.18-.61,0-.78-.49-.43l-.36.26.07.88a9.92,9.92,0,0,1-.24,2.86c0,.15,0,.11.22-.12A2.24,2.24,0,0,0,107.73,98.39Z"/><path class="cls-1" d="M105.06,98.82c.65-.55.58-1.47.72-2.23,0-.5.32-1.1.11-1.54a.84.84,0,0,0-.67,1.25,3.72,3.72,0,0,1-.34,2c-.28.38-1.17.29-1.12-.26.22-.82-.76-.42-1.15-.2s-.92.22-.7-.3c-.14-.68-1-.25-1.51-.26s0-.92-.69-.76c-1.21-.09-2.54,0-3.59-.72-.61-.29-.52-1-.2-1.51.38-.65.49-1.46,1.09-2s-.56-.33-.83-.14c-.58.32,0,1.15-.51,1.6-.28.48-.65,1.13-1.3,1-.93-.18-1.47-1-2.13-1.63-.58-.11-.25.93,0,1.15a5.89,5.89,0,0,0,2,1c.7-.11.73.8,1.33,1A9.63,9.63,0,0,0,99.1,97c.47,0,.21.88.83.71.35.09,1.13-.13,1.17.27-.53.63.5.61.88.5s1.11-.26,1.24.41a1.48,1.48,0,0,0,1.65.12.94.94,0,0,0,.19-.14Z"/><path class="cls-1" d="M94.44,93.43a6.49,6.49,0,0,0,.66-1.12,4,4,0,0,1,.54-.94c.31-.34.13-.55-.37-.43-.27.06-.38.15-.42.38a6.07,6.07,0,0,1-.67,1.89c-.44.65-.45.68-.27.68s.33-.21.53-.46Z"/><path class="cls-1" d="M87.78,89.26c-.5,0-.52.32,0,.48a1.15,1.15,0,0,1,.59.6c.47,1,.75,1.11,2,1.22l.8.07,0,.49c0,.27.08.5.15.5a3.7,3.7,0,0,0,.68-.3,2.1,2.1,0,0,0,1.15-1.43c0-.28-.47-.58-.89-.58a1.76,1.76,0,0,0-.84.36,1.54,1.54,0,0,1-2.38-.33c-.43-.7-.88-1.08-1.28-1.08ZM92.13,91c.24,0,.3.18.17.52a.25.25,0,0,1-.47,0,.36.36,0,0,1,.3-.53Z"/><path class="cls-1" d="M125.86,89.9c-.33,0-.42.08-.63.39a2.12,2.12,0,0,0-.06,2c.19.24.22.24.63.07.57-.24.67-.23.67.08,0,.79-1.13,2.3-2.31,3.11a2.38,2.38,0,0,0-.63.54c-.09.22.35.17.88-.1a5.77,5.77,0,0,0,2.09-2.13,3.44,3.44,0,0,0,.4-1.91,3.19,3.19,0,0,0-.16-1.61c-.19-.38-.25-.41-.73-.41Zm0,.69c.24,0,.28.06.31.41a.64.64,0,0,1-.19.62c-.22.2-.23.19-.43-.1s-.1-.93.31-.93Z"/><path class="cls-1" d="M120.5,98.18a4,4,0,0,0,2-1.92,6.4,6.4,0,0,0,.34-.83c0-.15-.52-.39-.82-.39s-.37-.21-.24-.79,0-1.29-.28-1.29c-.09,0-.25.14-.35.3s-.18.35-.06.72a1,1,0,0,1-.44,1.29.71.71,0,0,0-.36.53c0,.16,0,.28,0,.28s.27-.13.56-.29l.52-.29.3.24a.81.81,0,0,1,.31.48c0,.64-1.81,1.7-3,1.8-.66,0-.77,0-1-.2a.55.55,0,0,1-.19-.56c0-.17.1-.48.14-.69.12-.55-.12-.47-.53.17a1.46,1.46,0,0,0-.25,1.4,3.12,3.12,0,0,0,1.91.43,3.56,3.56,0,0,0,1.39-.39Z"/><path class="cls-1" d="M127.44,94.31a3.46,3.46,0,0,0,.93-2.68v-.92l.54-.25c.7-.34,1.36-1,1.36-1.37s-.16-.36-.47,0-.52.48-1.61,1c-.27.13-.29.19-.35,1.34a3.78,3.78,0,0,1-1,2.73c-.45.55-.47.62-.16.62A1.73,1.73,0,0,0,127.44,94.31Z"/><path class="cls-1" d="M120.31,93.57c.07-.19-.29-.33-.45-.17a.21.21,0,0,0,0,.25.29.29,0,0,0,.49-.08Z"/><path class="cls-1" d="M130.14,91c.06-.19-.3-.33-.45-.17a.2.2,0,0,0,0,.25.3.3,0,0,0,.49-.08Z"/><path class="cls-1" d="M118.31,84.14c-.25.12-.38.39-.56.6s0,.17,0,.25a4.75,4.75,0,0,1,.85,1.75,4.07,4.07,0,0,1,.26,2.23c-.09.29-.32.59-.65.49-.54,0-1.07-.17-1.61-.17s-.85.46-1.35.42c-.31,0-.3-.65-.59-.47a3.37,3.37,0,0,0-.09,1.1s.21,0,.3,0h1a1.92,1.92,0,0,0,.3,1,1.48,1.48,0,0,0,1-.11c.34-.16.39-.57.48-.89s.56-.26.83-.39a1.54,1.54,0,0,0,1-1.53,12,12,0,0,0-.73-2.94c-.15-.43-.25-.87-.42-1.28a.1.1,0,0,0-.11-.06ZM116.7,90c.36,0,.52.42.44.71s-.62.15-.72-.14-.07-.61.28-.57Z"/><path class="cls-1" d="M103.3,86.62a.85.85,0,0,0-.53.18c-.94.66-1.18,1.44-.54,1.75.47.23.35.49-.39.86-1.06.53-2,.47-3.78-.27-.43-.18-.55-.11-.45.29s.46.61,1.35.81a5.09,5.09,0,0,0,2.87-.17,3.65,3.65,0,0,0,1.16-.89l.58-.63.67.08c.83.1.85.11.85.51s0,.32.77.39c.43,0,1,.08,1.26.08s.53.06.64.22.24.22,1.49.1a3.85,3.85,0,0,1,1.93.09,2.71,2.71,0,0,0,1.1.14,3.35,3.35,0,0,0,2.31-1.37,1.56,1.56,0,0,1,.72-.26c.9-.18.94-.38.1-.48a6.22,6.22,0,0,1-1.22-.3,3.29,3.29,0,0,0-.94-.22c-.45,0-.88.28-.88.57s.07.22.61.16.65,0,.92.19.29.3.25.36a4.25,4.25,0,0,1-1.64.75,1.22,1.22,0,0,1-.81-.11c-.41-.21-1-.24-1.13-.06s-.18,0-.36-.14l-.27-.26-.63.26c-.64.26-.87.25-.87,0,0-.14-.19-.15-1.13-.09s-1.15,0-1.34-.17-.18-.27-.06-.47.12-.27,0-.39-.26-.11-.67,0c-1,.28-1.32.12-1.32-.68,0-.48-.28-.78-.63-.78Zm-.26.74c.06,0,.1,0,.17.1a.37.37,0,0,1,.1.35.36.36,0,0,1-.62,0,.29.29,0,0,1,.15-.34c.09-.07.15-.11.2-.1Z"/><path class="cls-1" d="M101.19,88.11c.63-.4.62-.37.71-1.48.06-.78,0-.84-.16-.84s-.47.34-.47,1a.93.93,0,0,1-.29.81c-.52.52-1.82.29-2-.36,0-.23,0-.43.29-.81.57-.81.44-1-.26-.39-.48.41-.56.43-.47.07s-.09-.47-.48-.37a.46.46,0,0,0-.36.42.45.45,0,0,1-.34.41c-.31.08-.85-.22-.85-.47a10.25,10.25,0,0,1,1.83-2.24,5.38,5.38,0,0,0,.71-.84c0-.06-.21-.11-.46-.11s-.46,0-.46.22A7.26,7.26,0,0,1,97,84.63c-1.32,1.5-1.43,1.81-.78,2.21A1.61,1.61,0,0,0,98,86.77l.43-.29V87a1.09,1.09,0,0,0,.67,1.21,2.13,2.13,0,0,0,2.14-.11Z"/><path class="cls-1" d="M129,78.88c-.5.29-.11.91,0,1.32-.2.56-.92.71-1.44.81A2.22,2.22,0,0,0,126,82.42c-.15.42-.52,1.09-.92.44-.35-.36-1-.64-1.41-.23a2.47,2.47,0,0,0-.51,1.14c-.19-.3-.27-.76-.66-.86-.63.09-.4.88-.11,1.21a1.23,1.23,0,0,1,.26,1.33c-.23.54-1,.91-1.5.44-.44-.23-.14-1.06-.58-1.1-.21.15-.23,1-.57.55s-.12-1-.42-1.31c-.36,0-.64.66-.53,1a5.86,5.86,0,0,1,.86,2.21c.12.31,0,.93.27,1,.2-.49,0-1,.17-1.55.47-.06,1,.16,1.48,0a2,2,0,0,0,1.48-1.31,8.42,8.42,0,0,0,0-1.42,9.26,9.26,0,0,1,1.66.26c.26.41-.09,1-.16,1.41a5,5,0,0,1-1.66,2.15c-.29.17-.33.62.09.38a4,4,0,0,0,2-2.13c.29-.69.06-1.46.25-2.17.28-.54.94-.42,1.44-.42a.9.9,0,0,0,.78-1.12c-.17-.57.44-.85.86-1.06a1.61,1.61,0,0,0,.94-1.48c0-.33,0-1-.45-1Zm-2,3.33c.6.16-.1,1.29-.42.57A.45.45,0,0,1,127.06,82.21Zm-2.75.81c.78,0,.5,1.08-.15.57A.3.3,0,0,1,124.31,83Z"/><path class="cls-1" d="M96.39,87.37c0-.11,0-.19-.13-.19s-.35.19-.25.35.34.08.38-.16Z"/><path class="cls-1" d="M105.43,86.36c0-.16-.06-.22-.2-.2-.3.06-.34.44,0,.44S105.43,86.53,105.43,86.36Z"/><path class="cls-1" d="M94.25,80.94c-.36-.08-.59.23-.71.52a2.83,2.83,0,0,1-1.09,1.16,1.4,1.4,0,0,1-1-.22c-.35-.18-.27-.61-.43-.9s-.71.08-.7.4.36.67.69.83.69.27.8.62.11.63.47.52.51.48.35.77a1.66,1.66,0,0,0-.2,1.09c.19.16.39-.27.52-.4l.29-.37c.71,0,1.42.12,2.13.1a1.77,1.77,0,0,0,1.26-.69A14.3,14.3,0,0,1,98,82.92c.37-.09.17-.79-.21-.58s-.46.52-.7.77a8.14,8.14,0,0,1-1.35,1.4,2.13,2.13,0,0,1-1.2,0c-.17-.15.32-.26.39-.42a2.63,2.63,0,0,0,.61-.72c-.12-.27-.5-.29-.77-.3-.65.08-1.15.63-1.81.68-.5,0-.24-.53,0-.71.45-.53.92-1,1.39-1.53.13-.16.6-.31.3-.53a.93.93,0,0,0-.33,0Zm.32,2.66c.33.19-.21.49-.44.45s-.3-.22,0-.28a1.2,1.2,0,0,1,.48-.17Zm-1,.69c.19,0,.58.18.21.3S93.22,84.38,93.55,84.29Z"/><path class="cls-1" d="M101.56,84.75c0-.25-.45-.21-.5,0s0,.21.23.18S101.56,84.85,101.56,84.75Z"/><path class="cls-1" d="M121.48,83a.27.27,0,1,0-.24.24.33.33,0,0,0,.24-.24Z"/><path class="cls-1" d="M90.48,80.55c.31-.27.31-.29.18-.88-.19-.82-.18-.91.13-1a2.2,2.2,0,0,1,1.64.87c.17.34.17.36-.13.64s-.32.63,0,.63a1.74,1.74,0,0,0,1-.93c0-.35-.8-1.16-1.44-1.45a2.78,2.78,0,0,0-1.25-.27c-.82,0-.93.17-.71,1.12.26,1.12-.09,1.27-1,.43a2.81,2.81,0,0,1-.92-2.3c0-1.09.42-1.64,1.36-1.76.63-.09.62-.24,0-.33a1.88,1.88,0,0,0-2,1.61,3.37,3.37,0,0,0,1.79,3.55C89.78,80.89,90.06,80.91,90.48,80.55Z"/><path class="cls-1" d="M127.6,79.18a.59.59,0,0,0,.14-.38,1.42,1.42,0,0,1,.29-.63,1.94,1.94,0,0,0,.29-.49c0-.22-.36-.22-.65,0s-.51.23-.51,0c0,0,.14-.17.31-.25.43-.21.46-.41.1-.58s-.91.18-1,.8c0,.42,0,.5.33.69s.35.26.3.51c-.09.43.09.59.36.31Z"/><path class="cls-1" d="M131.09,78.79a1.53,1.53,0,0,0,.47-.58c0-.09.22-.32.49-.51a1.44,1.44,0,0,0,.59-2,5.69,5.69,0,0,0-1.47-1.63A9.77,9.77,0,0,0,129.75,73c-.25,0-.21.92,0,1a3.57,3.57,0,0,1,1.45,1c.83.75,1.22,1.45,1,1.84s-.47.26-1.2-.52a3.64,3.64,0,0,0-.85-.76c-.09,0-.15.16-.15.36s.14.52.52.94c.62.69.69,1.11.22,1.47a1.52,1.52,0,0,1-.38.24,1.3,1.3,0,0,1-.31-.45A8.61,8.61,0,0,0,128,75.85c-.11,0-.16.14-.16.4s.06.44.32.57a10.35,10.35,0,0,1,1.87,1.89,2.64,2.64,0,0,0,.5.5,2.64,2.64,0,0,0,.54-.42Z"/><path class="cls-1" d="M132.65,74.33a13.07,13.07,0,0,0-2.45-2.52c-.11,0-.15.13-.12.48s.07.5.36.57a5.14,5.14,0,0,1,1.25,1,4.11,4.11,0,0,0,1,.82.48.48,0,0,0,0-.33Z"/><path class="cls-1" d="M119.93,99a.32.32,0,1,1-.32-.29A.3.3,0,0,1,119.93,99Z"/><path class="cls-1" d="M121.05,98.63a.32.32,0,1,1-.32-.29A.3.3,0,0,1,121.05,98.63Z"/></svg>