<svg id="Layer_1" data-name="Layer 1" xmlns="http://www.w3.org/2000/svg" xmlns:xlink="http://www.w3.org/1999/xlink" viewBox="0 0 220 128"><defs><style>.cls-1{fill:none;}.cls-2{clip-path:url(#clip-path);}.cls-3{fill:#fff;}.cls-4{fill:#bd0034;}.cls-5{fill:#1a237b;}</style><clipPath id="clip-path"><rect id="_Clipping_Path_" data-name="&lt;Clipping Path&gt;" class="cls-1" width="219.44" height="128"/></clipPath></defs><title>Flag_rect_United Kingdom</title><g id="UNITED_KINGDOM" data-name="UNITED KINGDOM"><g id="_Group_" data-name="&lt;Group&gt;"><g id="_Clip_Group_" data-name="&lt;Clip Group&gt;"><g class="cls-2"><rect id="_Path_" data-name="&lt;Path&gt;" class="cls-3" width="219.44" height="128"/><polygon id="_Path_2" data-name="&lt;Path&gt;" class="cls-4" points="146.93 46.28 219.44 5.69 219.44 0 214.44 0 131.77 46.28 146.93 46.28"/><polygon id="_Path_3" data-name="&lt;Path&gt;" class="cls-4" points="143.51 84.29 219.44 126.78 219.44 118.29 158.68 84.29 143.51 84.29"/><polygon id="_Path_4" data-name="&lt;Path&gt;" class="cls-4" points="0 9.74 64.95 46.28 80.13 46.28 0 1.25 0 9.74"/><polygon id="_Path_5" data-name="&lt;Path&gt;" class="cls-4" points="76.69 84.29 0 127.26 0 128 13.86 128 91.87 84.29 76.69 84.29"/><polygon id="_Path_6" data-name="&lt;Path&gt;" class="cls-5" points="204.42 0 127.59 0 127.59 43.03 204.42 0"/><polygon id="_Path_7" data-name="&lt;Path&gt;" class="cls-5" points="93.67 0 17.14 0 93.67 43.03 93.67 0"/><polygon id="_Path_8" data-name="&lt;Path&gt;" class="cls-5" points="219.44 46.28 219.44 16.91 167.32 46.28 219.44 46.28"/><polygon id="_Path_9" data-name="&lt;Path&gt;" class="cls-5" points="219.44 113.34 219.44 84.29 167.32 84.29 219.44 113.34"/><polygon id="_Path_10" data-name="&lt;Path&gt;" class="cls-5" points="21.48 128 93.67 128 93.67 87.55 21.48 128"/><polygon id="_Path_11" data-name="&lt;Path&gt;" class="cls-5" points="127.59 128 200 128 127.59 87.55 127.59 128"/><polygon id="_Path_12" data-name="&lt;Path&gt;" class="cls-5" points="0 84.29 0 114.65 53.93 84.29 0 84.29"/><polygon id="_Path_13" data-name="&lt;Path&gt;" class="cls-5" points="0 46.28 53.93 46.28 0 15.87 0 46.28"/><polygon id="_Path_14" data-name="&lt;Path&gt;" class="cls-4" points="100.45 0 100.45 53.88 0 53.88 0 76.7 100.45 76.7 100.45 128 120.81 128 120.81 76.7 219.44 76.7 219.44 53.88 120.81 53.88 120.81 0 100.45 0"/></g></g></g></g></svg>